%TF.GenerationSoftware,KiCad,Pcbnew,8.0.2*%
%TF.CreationDate,2024-05-26T23:16:47+07:00*%
%TF.ProjectId,FT600_RP2040,46543630-305f-4525-9032-3034302e6b69,rev?*%
%TF.SameCoordinates,PX7735940PY61c06a0*%
%TF.FileFunction,Copper,L2,Bot*%
%TF.FilePolarity,Positive*%
%FSLAX46Y46*%
G04 Gerber Fmt 4.6, Leading zero omitted, Abs format (unit mm)*
G04 Created by KiCad (PCBNEW 8.0.2) date 2024-05-26 23:16:47*
%MOMM*%
%LPD*%
G01*
G04 APERTURE LIST*
%TA.AperFunction,EtchedComponent*%
%ADD10C,0.000000*%
%TD*%
%TA.AperFunction,SMDPad,CuDef*%
%ADD11C,2.000000*%
%TD*%
%TA.AperFunction,ComponentPad*%
%ADD12C,2.580000*%
%TD*%
%TA.AperFunction,ComponentPad*%
%ADD13C,0.800000*%
%TD*%
%TA.AperFunction,ComponentPad*%
%ADD14C,6.400000*%
%TD*%
%TA.AperFunction,ComponentPad*%
%ADD15R,1.700000X1.700000*%
%TD*%
%TA.AperFunction,ComponentPad*%
%ADD16O,1.700000X1.700000*%
%TD*%
%TA.AperFunction,SMDPad,CuDef*%
%ADD17R,3.200000X4.900000*%
%TD*%
%TA.AperFunction,ViaPad*%
%ADD18C,0.800000*%
%TD*%
%TA.AperFunction,Conductor*%
%ADD19C,0.500000*%
%TD*%
%TA.AperFunction,Conductor*%
%ADD20C,0.250000*%
%TD*%
%TA.AperFunction,Conductor*%
%ADD21C,0.200000*%
%TD*%
G04 APERTURE END LIST*
D10*
%TA.AperFunction,EtchedComponent*%
%TO.C,NT1*%
G36*
X80750000Y29500000D02*
G01*
X78750000Y29500000D01*
X78750000Y33500000D01*
X80750000Y33500000D01*
X80750000Y29500000D01*
G37*
%TD.AperFunction*%
%TD*%
D11*
%TO.P,NT1,1,1*%
%TO.N,GNDD*%
X79750000Y29500000D03*
%TO.P,NT1,2,2*%
%TO.N,GNDA*%
X79750000Y33500000D03*
%TD*%
D12*
%TO.P,J8,MH1,MH1*%
%TO.N,GNDD*%
X83350000Y14950000D03*
%TO.P,J8,MH2,MH2*%
X83350000Y27550000D03*
%TD*%
D13*
%TO.P,REF\u002A\u002A,1*%
%TO.N,N/C*%
X1100000Y3500000D03*
X1802944Y5197056D03*
X1802944Y1802944D03*
X3500000Y5900000D03*
D14*
X3500000Y3500000D03*
D13*
X3500000Y1100000D03*
X5197056Y5197056D03*
X5197056Y1802944D03*
X5900000Y3500000D03*
%TD*%
D15*
%TO.P,J4,1,Pin_1*%
%TO.N,GNDD*%
X10225000Y49830000D03*
D16*
%TO.P,J4,2,Pin_2*%
%TO.N,+5V*%
X12765000Y49830000D03*
%TD*%
D15*
%TO.P,J3,1,1*%
%TO.N,+3.3V*%
X12790000Y21920000D03*
D16*
%TO.P,J3,2,2*%
X10250000Y21920000D03*
%TO.P,J3,3,3*%
%TO.N,GNDD*%
X12790000Y19380000D03*
%TO.P,J3,4,4*%
X10250000Y19380000D03*
%TO.P,J3,5,5*%
%TO.N,DATA_7*%
X12790000Y16840000D03*
%TO.P,J3,6,6*%
%TO.N,DATA_6*%
X10250000Y16840000D03*
%TO.P,J3,7,7*%
%TO.N,DATA_5*%
X12790000Y14300000D03*
%TO.P,J3,8,8*%
%TO.N,DATA_4*%
X10250000Y14300000D03*
%TO.P,J3,9,9*%
%TO.N,DATA_3*%
X12790000Y11760000D03*
%TO.P,J3,10,10*%
%TO.N,DATA_2*%
X10250000Y11760000D03*
%TO.P,J3,11,11*%
%TO.N,DATA_1*%
X12790000Y9220000D03*
%TO.P,J3,12,12*%
%TO.N,DATA_0*%
X10250000Y9220000D03*
%TD*%
D13*
%TO.P,REF\u002A\u002A,1*%
%TO.N,N/C*%
X79652944Y50552944D03*
X80355888Y52250000D03*
X80355888Y48855888D03*
X82052944Y52952944D03*
D14*
X82052944Y50552944D03*
D13*
X82052944Y48152944D03*
X83750000Y52250000D03*
X83750000Y48855888D03*
X84452944Y50552944D03*
%TD*%
D17*
%TO.P,J7,2,Ext*%
%TO.N,GNDA*%
X68500000Y51175000D03*
X60000000Y51175000D03*
%TD*%
D13*
%TO.P,REF\u002A\u002A,1*%
%TO.N,N/C*%
X1100000Y50500000D03*
X1802944Y52197056D03*
X1802944Y48802944D03*
X3500000Y52900000D03*
D14*
X3500000Y50500000D03*
D13*
X3500000Y48100000D03*
X5197056Y52197056D03*
X5197056Y48802944D03*
X5900000Y50500000D03*
%TD*%
%TO.P,REF\u002A\u002A,1*%
%TO.N,N/C*%
X79600000Y3500000D03*
X80302944Y5197056D03*
X80302944Y1802944D03*
X82000000Y5900000D03*
D14*
X82000000Y3500000D03*
D13*
X82000000Y1100000D03*
X83697056Y5197056D03*
X83697056Y1802944D03*
X84400000Y3500000D03*
%TD*%
D15*
%TO.P,J5,1,1*%
%TO.N,+3.3V*%
X12790000Y44780000D03*
D16*
%TO.P,J5,2,2*%
X10250000Y44780000D03*
%TO.P,J5,3,3*%
%TO.N,GNDD*%
X12790000Y42240000D03*
%TO.P,J5,4,4*%
X10250000Y42240000D03*
%TO.P,J5,5,5*%
%TO.N,BE_0*%
X12790000Y39700000D03*
%TO.P,J5,6,6*%
%TO.N,BE_1*%
X10250000Y39700000D03*
%TO.P,J5,7,7*%
%TO.N,TXE_N*%
X12790000Y37160000D03*
%TO.P,J5,8,8*%
%TO.N,RXF_N*%
X10250000Y37160000D03*
%TO.P,J5,9,9*%
%TO.N,WR_N*%
X12790000Y34620000D03*
%TO.P,J5,10,10*%
%TO.N,RD_N*%
X10250000Y34620000D03*
%TO.P,J5,11,11*%
%TO.N,OE_N*%
X12790000Y32080000D03*
%TO.P,J5,12,12*%
%TO.N,CLK*%
X10250000Y32080000D03*
%TD*%
D15*
%TO.P,J6,1,Pin_1*%
%TO.N,GNDD*%
X10225000Y4170000D03*
D16*
%TO.P,J6,2,Pin_2*%
%TO.N,+5V*%
X12765000Y4170000D03*
%TD*%
D15*
%TO.P,J1,1,Pin_1*%
%TO.N,+5V*%
X46700000Y51250000D03*
D16*
%TO.P,J1,2,Pin_2*%
%TO.N,SWCLK*%
X49240000Y51250000D03*
%TO.P,J1,3,Pin_3*%
%TO.N,SWDIO*%
X51780000Y51250000D03*
%TO.P,J1,4,Pin_4*%
%TO.N,GNDD*%
X54320000Y51250000D03*
%TD*%
D15*
%TO.P,J2,1,Pin_1*%
%TO.N,GNDD*%
X10225000Y27000000D03*
D16*
%TO.P,J2,2,Pin_2*%
%TO.N,+5V*%
X12765000Y27000000D03*
%TD*%
D18*
%TO.N,GNDD*%
X29000000Y40750000D03*
%TO.N,GNDA*%
X57500000Y48000000D03*
X62750000Y51000000D03*
X56500000Y49500000D03*
X56500000Y51000000D03*
X70750000Y47500000D03*
X71250000Y49250000D03*
X71250000Y51000000D03*
X71250000Y52250000D03*
X58750000Y37500000D03*
%TO.N,GNDD*%
X53000000Y31500000D03*
X53000000Y35250000D03*
X53000000Y38750000D03*
X50750000Y35250000D03*
X50750000Y38750000D03*
X50750000Y41500000D03*
%TO.N,GNDA*%
X62750000Y49500000D03*
X62750000Y52250000D03*
X65750000Y49500000D03*
X65750000Y52250000D03*
X74000000Y52250000D03*
X77750000Y52250000D03*
X70750000Y38000000D03*
X72250000Y38000000D03*
X56500000Y52400000D03*
X55750000Y47500000D03*
X55750000Y45500000D03*
X55750000Y43500000D03*
X55750000Y41500000D03*
X55750000Y37500000D03*
%TO.N,GNDD*%
X54000000Y46000000D03*
X54000000Y48500000D03*
X54000000Y43000000D03*
X52500000Y44250000D03*
X50750000Y46000000D03*
X77750000Y28250000D03*
X77750000Y30250000D03*
X81000000Y22500000D03*
X25500000Y41250000D03*
X26750000Y42750000D03*
X31500000Y29500000D03*
X32250000Y25750000D03*
X28250000Y25750000D03*
X24250000Y25750000D03*
X28250000Y29500000D03*
X32250000Y21250000D03*
X28250000Y21250000D03*
X24250000Y21250000D03*
X24250000Y29500000D03*
X35500000Y4500000D03*
X33250000Y6000000D03*
%TO.N,+3.3V*%
X60750000Y12500000D03*
X44500000Y4000000D03*
X22750000Y5250000D03*
X72750000Y31500000D03*
X83250000Y44000000D03*
X52000000Y11250000D03*
X58000000Y33500000D03*
X83250000Y32250000D03*
X52000000Y7750000D03*
X65450000Y7350000D03*
%TO.N,DATA_5*%
X40800000Y16500000D03*
X71675000Y19100000D03*
%TO.N,BE_0*%
X33250000Y42750000D03*
%TO.N,DATA_4*%
X72750000Y19050000D03*
X40800000Y13900000D03*
%TO.N,BE_1*%
X34500000Y42750000D03*
%TO.N,Net-(IC2-AVDD)*%
X70500000Y13975000D03*
X66475000Y8775000D03*
X59900000Y22250000D03*
%TO.N,SSRX-*%
X69250000Y9725000D03*
X77000000Y25735000D03*
%TO.N,TXE_N*%
X35600000Y42300000D03*
%TO.N,SWCLK*%
X31200000Y49100000D03*
%TO.N,SWDIO*%
X26000000Y49100000D03*
%TO.N,GPIO0*%
X45250000Y21500000D03*
X21250000Y47500000D03*
%TO.N,CLK*%
X40750000Y27750000D03*
X35600000Y27100000D03*
X68050000Y20975000D03*
%TO.N,DATA_2*%
X40800000Y9100000D03*
X74300000Y14700000D03*
%TO.N,DATA_7*%
X70750000Y21000000D03*
X40800000Y24100000D03*
%TO.N,~{RESET_N}*%
X43050000Y25225000D03*
X21250000Y42900000D03*
%TO.N,D-*%
X78300000Y17735000D03*
X64275000Y9875000D03*
%TO.N,GPIO1*%
X45250000Y23000000D03*
X21250000Y49500000D03*
%TO.N,RXF_N*%
X35600000Y39900000D03*
%TO.N,D+*%
X63225000Y9875000D03*
X78300000Y18785000D03*
%TO.N,WR_N*%
X35600000Y37100000D03*
%TO.N,DATA_6*%
X40800000Y21700000D03*
X71550000Y20150000D03*
%TO.N,DATA_3*%
X40800000Y11300000D03*
X74200000Y15900000D03*
%TO.N,DATA_0*%
X40800000Y3900000D03*
X72125000Y14375000D03*
%TO.N,SSRX+*%
X69250000Y10775000D03*
X77000000Y26785000D03*
%TO.N,GNDD*%
X28500000Y49500000D03*
X78750000Y6825000D03*
X35500000Y25500000D03*
X52800000Y4100000D03*
X21750000Y45250000D03*
X46750000Y7000000D03*
X35500000Y2000000D03*
X50400000Y14350000D03*
X8000000Y8500000D03*
X30250000Y46250000D03*
X41750000Y32500000D03*
X64750000Y14500000D03*
X33250000Y2000000D03*
X26250000Y46750000D03*
X54000000Y6250000D03*
X54000000Y7750000D03*
X47950000Y11600000D03*
X64000000Y4100000D03*
X8250000Y30500000D03*
X63250000Y14500000D03*
X28250000Y46250000D03*
X48000000Y21750000D03*
X50750000Y31500000D03*
X15750000Y42750000D03*
X45500000Y5750000D03*
X42250000Y45000000D03*
X47500000Y49250000D03*
X50425000Y11550000D03*
X31250000Y42750000D03*
X66250000Y14500000D03*
X30250000Y42000000D03*
%TO.N,GNDA*%
X68525000Y47475000D03*
X78500000Y44000000D03*
X64125000Y32875000D03*
X62250000Y39000000D03*
X68750000Y46000000D03*
X62250000Y41500000D03*
X81000000Y44000000D03*
X76250000Y33000000D03*
X60775000Y38925000D03*
X62125000Y32875000D03*
X65250000Y29250000D03*
X69750000Y34000000D03*
X56250000Y31500000D03*
X68975000Y37975000D03*
X62250000Y43500000D03*
X71500000Y44500000D03*
X78500000Y33000000D03*
X70750000Y31250000D03*
X64100000Y23625000D03*
X81000000Y33000000D03*
X76250000Y44050000D03*
X62250000Y45500000D03*
X59250000Y31500000D03*
X62250000Y47500000D03*
X68750000Y44500000D03*
%TO.N,RD_N*%
X35600000Y34700000D03*
%TO.N,DATA_1*%
X73250000Y14500000D03*
X40800000Y6300000D03*
%TO.N,OE_N*%
X35600000Y29900000D03*
%TO.N,SSTX-*%
X76250000Y7475000D03*
X78250000Y23785000D03*
%TO.N,SSTX+*%
X78250000Y24835000D03*
X76250000Y8525000D03*
%TD*%
D19*
%TO.N,GNDA*%
X69750000Y49000000D02*
X69750000Y47400000D01*
X68500000Y49000000D02*
X68500000Y47400000D01*
X71000000Y52250000D02*
X69400000Y52250000D01*
X71000000Y51000000D02*
X69400000Y51000000D01*
X71250000Y49250000D02*
X69650000Y49250000D01*
X67550000Y49250000D02*
X65950000Y49250000D01*
X67550000Y51000000D02*
X65950000Y51000000D01*
X67550000Y52250000D02*
X65950000Y52250000D01*
X61000000Y47700000D02*
X61000000Y49300000D01*
X59250000Y47700000D02*
X59250000Y49300000D01*
X61200000Y52250000D02*
X62800000Y52250000D01*
X61200000Y51000000D02*
X62800000Y51000000D01*
X60950000Y49250000D02*
X62550000Y49250000D01*
X57434989Y49250000D02*
X59034989Y49250000D01*
X57434989Y51053738D02*
X59034989Y51053738D01*
X57450000Y52250000D02*
X59050000Y52250000D01*
%TO.N,+3.3V*%
X39250000Y2750000D02*
X41500000Y2750000D01*
X34500000Y7500000D02*
X39250000Y2750000D01*
X41500000Y2750000D02*
X42750000Y4000000D01*
X25000000Y7500000D02*
X34500000Y7500000D01*
X42750000Y4000000D02*
X44500000Y4000000D01*
X22750000Y5250000D02*
X25000000Y7500000D01*
D20*
%TO.N,DATA_7*%
X19000000Y20000000D02*
X15840000Y16840000D01*
X22320000Y19157175D02*
X22200000Y19157175D01*
X21720000Y20000000D02*
X21600000Y20000000D01*
X22560000Y19760000D02*
X22560000Y19397175D01*
X22560000Y20000000D02*
X22560000Y19760000D01*
X36750000Y24100000D02*
X32650000Y20000000D01*
X22560000Y20602802D02*
X22560000Y20000000D01*
X22920000Y20842802D02*
X22800000Y20842802D01*
X23160000Y19397175D02*
X23160000Y19760000D01*
X23520000Y19157175D02*
X23400000Y19157175D01*
X23160000Y20000000D02*
X23160000Y20602802D01*
X23160000Y19760000D02*
X23160000Y20000000D01*
X20000000Y20000000D02*
X19000000Y20000000D01*
X32650000Y20000000D02*
X24000000Y20000000D01*
X23760000Y19760000D02*
X23760000Y19397175D01*
X40800000Y24100000D02*
X36750000Y24100000D01*
X21600000Y20000000D02*
X20000000Y20000000D01*
X21960000Y19397175D02*
X21960000Y19760000D01*
X15840000Y16840000D02*
X12790000Y16840000D01*
X21960000Y19760000D02*
G75*
G03*
X21720000Y20000000I-240000J0D01*
G01*
X23760000Y19397175D02*
G75*
G02*
X23520000Y19157200I-240000J25D01*
G01*
X23400000Y19157175D02*
G75*
G02*
X23159975Y19397175I0J240025D01*
G01*
X23160000Y20602802D02*
G75*
G03*
X22920000Y20842800I-240000J-2D01*
G01*
X22800000Y20842802D02*
G75*
G03*
X22559998Y20602802I0J-240002D01*
G01*
X22200000Y19157175D02*
G75*
G02*
X21959975Y19397175I0J240025D01*
G01*
X24000000Y20000000D02*
G75*
G03*
X23760000Y19760000I0J-240000D01*
G01*
X22560000Y19397175D02*
G75*
G02*
X22320000Y19157200I-240000J25D01*
G01*
%TO.N,DATA_5*%
X21250000Y15500000D02*
X20250000Y15500000D01*
X22210000Y15500000D02*
X22210000Y15740000D01*
X23410000Y15500000D02*
X23410000Y16128597D01*
X22810000Y15500000D02*
X22810000Y14871403D01*
X23410000Y15260000D02*
X23410000Y15500000D01*
X23410000Y14871403D02*
X23410000Y15260000D01*
X40800000Y15800000D02*
X40500000Y15500000D01*
X16050000Y14300000D02*
X12790000Y14300000D01*
X24010000Y15260000D02*
X24010000Y14871403D01*
X20250000Y15500000D02*
X17250000Y15500000D01*
X17250000Y15500000D02*
X16050000Y14300000D01*
X21610000Y16128597D02*
X21610000Y15740000D01*
X23170000Y16368597D02*
X23050000Y16368597D01*
X23770000Y14631403D02*
X23650000Y14631403D01*
X21970000Y16368597D02*
X21850000Y16368597D01*
X22210000Y15740000D02*
X22210000Y16128597D01*
X22810000Y16128597D02*
X22810000Y15500000D01*
X40500000Y15500000D02*
X24250000Y15500000D01*
X22210000Y14871403D02*
X22210000Y15500000D01*
X21370000Y15500000D02*
X21250000Y15500000D01*
X40800000Y16500000D02*
X40800000Y15800000D01*
X22570000Y14631403D02*
X22450000Y14631403D01*
X21850000Y16368597D02*
G75*
G03*
X21610003Y16128597I0J-239997D01*
G01*
X24250000Y15500000D02*
G75*
G03*
X24010000Y15260000I0J-240000D01*
G01*
X21610000Y15740000D02*
G75*
G02*
X21370000Y15500000I-240000J0D01*
G01*
X22210000Y16128597D02*
G75*
G03*
X21970000Y16368600I-240000J3D01*
G01*
X22450000Y14631403D02*
G75*
G02*
X22210003Y14871403I0J239997D01*
G01*
X23650000Y14631403D02*
G75*
G02*
X23410003Y14871403I0J239997D01*
G01*
X22810000Y14871403D02*
G75*
G02*
X22570000Y14631400I-240000J-3D01*
G01*
X23410000Y16128597D02*
G75*
G03*
X23170000Y16368600I-240000J3D01*
G01*
X23050000Y16368597D02*
G75*
G03*
X22810003Y16128597I0J-239997D01*
G01*
X24010000Y14871403D02*
G75*
G02*
X23770000Y14631400I-240000J-3D01*
G01*
%TO.N,DATA_3*%
X23550000Y13496546D02*
G75*
G03*
X23309954Y13256546I0J-240046D01*
G01*
X23910000Y13256546D02*
G75*
G03*
X23670000Y13496500I-240000J-46D01*
G01*
X24510000Y12243454D02*
G75*
G02*
X24270000Y12003500I-240000J46D01*
G01*
X21750000Y12003454D02*
G75*
G02*
X21509954Y12243454I0J240046D01*
G01*
X22710000Y13256550D02*
G75*
G03*
X22470000Y13496600I-240000J50D01*
G01*
X24150000Y12003454D02*
G75*
G02*
X23909954Y12243454I0J240046D01*
G01*
X21510000Y12510000D02*
G75*
G03*
X21270000Y12750000I-240000J0D01*
G01*
X22110000Y12243454D02*
G75*
G02*
X21870000Y12003500I-240000J46D01*
G01*
X22350000Y13496550D02*
G75*
G03*
X22110050Y13256550I0J-239950D01*
G01*
X24750000Y12750000D02*
G75*
G03*
X24510000Y12510000I0J-240000D01*
G01*
X22950000Y12003452D02*
G75*
G02*
X22709952Y12243452I0J240048D01*
G01*
X23310000Y12243452D02*
G75*
G02*
X23070000Y12003500I-240000J48D01*
G01*
X16250000Y11760000D02*
X12790000Y11760000D01*
X17240000Y12750000D02*
X16250000Y11760000D01*
X20500000Y12750000D02*
X17240000Y12750000D01*
X21150000Y12750000D02*
X20500000Y12750000D01*
X23910000Y12750000D02*
X23910000Y13256546D01*
X22110000Y13256550D02*
X22110000Y12750000D01*
X22470000Y13496550D02*
X22350000Y13496550D01*
X22710000Y12243452D02*
X22710000Y12750000D01*
X21270000Y12750000D02*
X21150000Y12750000D01*
X23910000Y12510000D02*
X23910000Y12750000D01*
X23310000Y12750000D02*
X23310000Y12243452D01*
X23310000Y13256546D02*
X23310000Y12750000D01*
X22110000Y12750000D02*
X22110000Y12510000D01*
X23070000Y12003452D02*
X22950000Y12003452D01*
X23910000Y12243454D02*
X23910000Y12510000D01*
X24270000Y12003454D02*
X24150000Y12003454D01*
X24510000Y12510000D02*
X24510000Y12243454D01*
X39350000Y12750000D02*
X24750000Y12750000D01*
X40800000Y11300000D02*
X39350000Y12750000D01*
X21510000Y12243454D02*
X21510000Y12510000D01*
X22710000Y12750000D02*
X22710000Y13256550D01*
X21870000Y12003454D02*
X21750000Y12003454D01*
X22110000Y12510000D02*
X22110000Y12243454D01*
X23670000Y13496546D02*
X23550000Y13496546D01*
%TO.N,DATA_4*%
X20150000Y13309785D02*
G75*
G02*
X19909985Y13549785I0J240015D01*
G01*
X19550000Y14940215D02*
G75*
G03*
X19309985Y14700215I0J-240015D01*
G01*
X18710000Y13760000D02*
G75*
G03*
X18470000Y14000000I-240000J0D01*
G01*
X20750000Y14000000D02*
G75*
G03*
X20510000Y13760000I0J-240000D01*
G01*
X19310000Y13549785D02*
G75*
G02*
X19070000Y13309800I-240000J15D01*
G01*
X18950000Y13309785D02*
G75*
G02*
X18709985Y13549785I0J240015D01*
G01*
X20510000Y13549785D02*
G75*
G02*
X20270000Y13309800I-240000J15D01*
G01*
X19910000Y14700215D02*
G75*
G03*
X19670000Y14940200I-240000J-15D01*
G01*
X19910000Y14000000D02*
X19910000Y14700215D01*
X20510000Y13760000D02*
X20510000Y13549785D01*
X11950000Y13050000D02*
X10700000Y14300000D01*
X18470000Y14000000D02*
X18350000Y14000000D01*
X10700000Y14300000D02*
X10250000Y14300000D01*
X19310000Y13760000D02*
X19310000Y13549785D01*
X16050000Y13050000D02*
X11950000Y13050000D01*
X19310000Y14700215D02*
X19310000Y14000000D01*
X40700000Y14000000D02*
X20750000Y14000000D01*
X20270000Y13309785D02*
X20150000Y13309785D01*
X19070000Y13309785D02*
X18950000Y13309785D01*
X18350000Y14000000D02*
X17500000Y14000000D01*
X40800000Y13900000D02*
X40700000Y14000000D01*
X18710000Y13549785D02*
X18710000Y13760000D01*
X17500000Y14000000D02*
X17000000Y14000000D01*
X19910000Y13549785D02*
X19910000Y13760000D01*
X17000000Y14000000D02*
X16050000Y13050000D01*
X19310000Y14000000D02*
X19310000Y13760000D01*
X19910000Y13760000D02*
X19910000Y14000000D01*
X19670000Y14940215D02*
X19550000Y14940215D01*
%TO.N,DATA_1*%
X22560000Y9563198D02*
G75*
G02*
X22320000Y9323200I-240000J2D01*
G01*
X21960000Y10686802D02*
G75*
G03*
X21720000Y10926800I-240000J-2D01*
G01*
X22200000Y9323198D02*
G75*
G02*
X21959998Y9563198I0J240002D01*
G01*
X23760000Y9563198D02*
G75*
G02*
X23520000Y9323200I-240000J2D01*
G01*
X23400000Y9323198D02*
G75*
G02*
X23159998Y9563198I0J240002D01*
G01*
X21600000Y10926802D02*
G75*
G03*
X21359998Y10686802I0J-240002D01*
G01*
X24000000Y10000000D02*
G75*
G03*
X23760000Y9760000I0J-240000D01*
G01*
X22800000Y10926802D02*
G75*
G03*
X22559998Y10686802I0J-240002D01*
G01*
X23160000Y10686802D02*
G75*
G03*
X22920000Y10926800I-240000J-2D01*
G01*
X21360000Y10240000D02*
G75*
G02*
X21120000Y10000000I-240000J0D01*
G01*
X22920000Y10926802D02*
X22800000Y10926802D01*
X23160000Y9563198D02*
X23160000Y9760000D01*
X21360000Y10686802D02*
X21360000Y10240000D01*
X22320000Y9323198D02*
X22200000Y9323198D01*
X22560000Y10686802D02*
X22560000Y10000000D01*
X23760000Y9760000D02*
X23760000Y9563198D01*
X39950000Y6300000D02*
X36250000Y10000000D01*
X40800000Y6300000D02*
X39950000Y6300000D01*
X21960000Y10240000D02*
X21960000Y10686802D01*
X21960000Y9563198D02*
X21960000Y10000000D01*
X16220000Y9220000D02*
X12790000Y9220000D01*
X21000000Y10000000D02*
X20250000Y10000000D01*
X23160000Y10000000D02*
X23160000Y10686802D01*
X22560000Y10000000D02*
X22560000Y9563198D01*
X17000000Y10000000D02*
X16220000Y9220000D01*
X21720000Y10926802D02*
X21600000Y10926802D01*
X21960000Y10000000D02*
X21960000Y10240000D01*
X20250000Y10000000D02*
X17000000Y10000000D01*
X23160000Y9760000D02*
X23160000Y10000000D01*
X21120000Y10000000D02*
X21000000Y10000000D01*
X23520000Y9323198D02*
X23400000Y9323198D01*
X36250000Y10000000D02*
X24000000Y10000000D01*
%TO.N,DATA_2*%
X19060000Y11740000D02*
G75*
G02*
X18820000Y11500000I-240000J0D01*
G01*
X19660000Y11981221D02*
G75*
G03*
X19420000Y12221200I-240000J-21D01*
G01*
X20500000Y11500000D02*
G75*
G03*
X20260000Y11260000I0J-240000D01*
G01*
X20260000Y10768772D02*
G75*
G02*
X20020000Y10528800I-240000J28D01*
G01*
X19300000Y12221221D02*
G75*
G03*
X19059979Y11981221I0J-240021D01*
G01*
X19900000Y10528772D02*
G75*
G02*
X19659972Y10768772I0J240028D01*
G01*
X19420000Y12221221D02*
X19300000Y12221221D01*
X10250000Y11750000D02*
X10250000Y11760000D01*
X11500000Y10500000D02*
X10250000Y11750000D01*
X19060000Y11981221D02*
X19060000Y11740000D01*
X19660000Y11260000D02*
X19660000Y11981221D01*
X16250000Y10500000D02*
X11500000Y10500000D01*
X17250000Y11500000D02*
X16250000Y10500000D01*
X37250000Y11500000D02*
X20500000Y11500000D01*
X18000000Y11500000D02*
X17250000Y11500000D01*
X19660000Y10768772D02*
X19660000Y11260000D01*
X40800000Y9100000D02*
X39650000Y9100000D01*
X18820000Y11500000D02*
X18700000Y11500000D01*
X39650000Y9100000D02*
X37250000Y11500000D01*
X20020000Y10528772D02*
X19900000Y10528772D01*
X18700000Y11500000D02*
X18000000Y11500000D01*
X20260000Y11260000D02*
X20260000Y10768772D01*
%TO.N,DATA_0*%
X19760000Y8278874D02*
G75*
G02*
X19520000Y8038900I-240000J26D01*
G01*
X19400000Y8038874D02*
G75*
G02*
X19159974Y8278874I0J240026D01*
G01*
X18786089Y9202178D02*
G75*
G03*
X18560022Y8976089I11J-226078D01*
G01*
X19160000Y8976089D02*
G75*
G03*
X18933911Y9202200I-226100J11D01*
G01*
X18560000Y8976089D02*
G75*
G02*
X18333911Y8750000I-226100J11D01*
G01*
X20000000Y8750000D02*
G75*
G03*
X19760000Y8510000I0J-240000D01*
G01*
X17500000Y8750000D02*
X17000000Y8750000D01*
X19160000Y8278874D02*
X19160000Y8510000D01*
X19760000Y8510000D02*
X19760000Y8278874D01*
X35250000Y8750000D02*
X20000000Y8750000D01*
X40800000Y3900000D02*
X40100000Y3900000D01*
X18200000Y8750000D02*
X17500000Y8750000D01*
X18933911Y9202178D02*
X18786089Y9202178D01*
X10530000Y9220000D02*
X10250000Y9220000D01*
X18333911Y8750000D02*
X18200000Y8750000D01*
X19520000Y8038874D02*
X19400000Y8038874D01*
X16000000Y7750000D02*
X12000000Y7750000D01*
X17000000Y8750000D02*
X16000000Y7750000D01*
X40100000Y3900000D02*
X35250000Y8750000D01*
X12000000Y7750000D02*
X10530000Y9220000D01*
X19160000Y8510000D02*
X19160000Y8750000D01*
X19160000Y8750000D02*
X19160000Y8976089D01*
%TO.N,DATA_6*%
X40800000Y22700000D02*
X40800000Y21700000D01*
X38450000Y22950000D02*
X40550000Y22950000D01*
X40550000Y22950000D02*
X40800000Y22700000D01*
X33250000Y17750000D02*
X38450000Y22950000D01*
X16050000Y15550000D02*
X18250000Y17750000D01*
X11540000Y15550000D02*
X16050000Y15550000D01*
X18250000Y17750000D02*
X33250000Y17750000D01*
X10250000Y16840000D02*
X11540000Y15550000D01*
D19*
%TO.N,+3.3V*%
X67750000Y28750000D02*
X71500000Y28750000D01*
X72750000Y30000000D02*
X72750000Y31500000D01*
X60750000Y8975000D02*
X62375000Y7350000D01*
X83250000Y37425000D02*
X83250000Y32250000D01*
X67000000Y28000000D02*
X67750000Y28750000D01*
X59500000Y28000000D02*
X67000000Y28000000D01*
X83250000Y38000000D02*
X83250000Y37425000D01*
X83250000Y44000000D02*
X83250000Y39325000D01*
X52000000Y7750000D02*
X52000000Y11250000D01*
X60750000Y12500000D02*
X60750000Y8975000D01*
X71500000Y28750000D02*
X72750000Y30000000D01*
X83250000Y39025000D02*
X83250000Y39325000D01*
X62375000Y7350000D02*
X64625000Y7350000D01*
X52000000Y11250000D02*
X53250000Y12500000D01*
X64625000Y7350000D02*
X65450000Y7350000D01*
X83250000Y39325000D02*
X83250000Y38000000D01*
X53250000Y12500000D02*
X60750000Y12500000D01*
X58000000Y29500000D02*
X59500000Y28000000D01*
X58000000Y33500000D02*
X58000000Y29500000D01*
D20*
%TO.N,DATA_5*%
X41796505Y17855721D02*
X41676505Y17855721D01*
X41196505Y18650000D02*
X41076505Y18650000D01*
X42636505Y18095721D02*
X42636505Y18410000D01*
X37800000Y17500000D02*
X38800000Y16500000D01*
X42996505Y17855721D02*
X42876505Y17855721D01*
X39764856Y18650000D02*
X38250000Y18650000D01*
X42036505Y18410000D02*
X42036505Y18095721D01*
X41076505Y18650000D02*
X39764856Y18650000D01*
X43236505Y18410000D02*
X43236505Y18095721D01*
X71675000Y19100000D02*
X71225000Y18650000D01*
X37800000Y18200000D02*
X37800000Y17500000D01*
X42396505Y18650000D02*
X42276505Y18650000D01*
X38250000Y18650000D02*
X37800000Y18200000D01*
X71225000Y18650000D02*
X43476505Y18650000D01*
X41436505Y18095721D02*
X41436505Y18410000D01*
X38800000Y16500000D02*
X40800000Y16500000D01*
X42636505Y18410000D02*
G75*
G03*
X42396505Y18650005I-240005J0D01*
G01*
X42036505Y18095721D02*
G75*
G02*
X41796505Y17855695I-240005J-21D01*
G01*
X42276505Y18650000D02*
G75*
G03*
X42036500Y18410000I-5J-240000D01*
G01*
X42876505Y17855721D02*
G75*
G02*
X42636521Y18095721I-5J239979D01*
G01*
X41676505Y17855721D02*
G75*
G02*
X41436521Y18095721I-5J239979D01*
G01*
X43236505Y18095721D02*
G75*
G02*
X42996505Y17855695I-240005J-21D01*
G01*
X43476505Y18650000D02*
G75*
G03*
X43236500Y18410000I-5J-240000D01*
G01*
X41436505Y18410000D02*
G75*
G03*
X41196505Y18650005I-240005J0D01*
G01*
%TO.N,BE_0*%
X16970000Y40388719D02*
X16850000Y40388719D01*
X16250000Y39700000D02*
X15300000Y39700000D01*
X17630874Y39280874D02*
X17419563Y39280874D01*
X17210000Y39490437D02*
X17210000Y39700000D01*
X17210000Y39940000D02*
X17210000Y40148719D01*
X16370000Y39700000D02*
X16250000Y39700000D01*
X16610000Y40148719D02*
X16610000Y39940000D01*
X30200000Y39700000D02*
X18050000Y39700000D01*
X17210000Y39700000D02*
X17210000Y39940000D01*
X15300000Y39700000D02*
X12790000Y39700000D01*
X33250000Y42750000D02*
X30200000Y39700000D01*
X17840437Y39490437D02*
G75*
G02*
X17630874Y39280863I-209537J-37D01*
G01*
X18050000Y39700000D02*
G75*
G03*
X17840400Y39490437I0J-209600D01*
G01*
X16610000Y39940000D02*
G75*
G02*
X16370000Y39700000I-240000J0D01*
G01*
X17210000Y40148719D02*
G75*
G03*
X16970000Y40388700I-240000J-19D01*
G01*
X16850000Y40388719D02*
G75*
G03*
X16609981Y40148719I0J-240019D01*
G01*
X17419563Y39280874D02*
G75*
G02*
X17210074Y39490437I37J209526D01*
G01*
D19*
%TO.N,+5V*%
X13750000Y53000000D02*
X12765000Y52015000D01*
X46700000Y51250000D02*
X24250000Y51250000D01*
X22500000Y53000000D02*
X13750000Y53000000D01*
X24250000Y51250000D02*
X22500000Y53000000D01*
X12765000Y52015000D02*
X12765000Y49830000D01*
D20*
%TO.N,DATA_4*%
X43088699Y16188699D02*
X43488387Y15789011D01*
X41468961Y14568961D02*
X40800000Y13900000D01*
X41840508Y15739834D02*
X42070464Y15509878D01*
X42773856Y17012658D02*
X42689003Y16927806D01*
X43088697Y16188700D02*
X43088699Y16188699D01*
X42070464Y15170466D02*
X41985612Y15085613D01*
X43682670Y16443256D02*
X43113268Y17012658D01*
X41925361Y16164098D02*
X41840508Y16079246D01*
X43064123Y15364747D02*
X42664436Y15764434D01*
X43912635Y16213291D02*
X43682670Y16443256D01*
X42664436Y15764434D02*
X42264772Y16164098D01*
X41985612Y15085613D02*
X41468961Y14568961D01*
X44336898Y16298143D02*
X44252047Y16213291D01*
X43488386Y15449599D02*
X43403535Y15364747D01*
X71850000Y18150000D02*
X45050000Y18150000D01*
X45050000Y18150000D02*
X44106933Y17206933D01*
X42689003Y16588394D02*
X43088697Y16188700D01*
X44106933Y16867521D02*
X44336899Y16637555D01*
X72750000Y19050000D02*
X71850000Y18150000D01*
X44252047Y16213291D02*
G75*
G02*
X43912635Y16213291I-169706J169701D01*
G01*
X42070464Y15509878D02*
G75*
G02*
X42070436Y15170494I-169664J-169678D01*
G01*
X44336899Y16637555D02*
G75*
G02*
X44336948Y16298094I-169699J-169755D01*
G01*
X41840508Y16079246D02*
G75*
G03*
X41840468Y15739794I169692J-169746D01*
G01*
X42689003Y16927806D02*
G75*
G03*
X42689003Y16588394I169697J-169706D01*
G01*
X43488387Y15789011D02*
G75*
G02*
X43488392Y15449593I-169687J-169711D01*
G01*
X43403535Y15364747D02*
G75*
G02*
X43064123Y15364747I-169706J169701D01*
G01*
X43113268Y17012658D02*
G75*
G03*
X42773856Y17012658I-169706J-169704D01*
G01*
X44106933Y17206933D02*
G75*
G03*
X44106906Y16867494I169667J-169733D01*
G01*
X42264772Y16164098D02*
G75*
G03*
X41925362Y16164098I-169705J-169703D01*
G01*
%TO.N,BE_1*%
X30200000Y38450000D02*
X11650000Y38450000D01*
X34500000Y42750000D02*
X30200000Y38450000D01*
X10400000Y39700000D02*
X10250000Y39700000D01*
X11650000Y38450000D02*
X10400000Y39700000D01*
D19*
%TO.N,Net-(IC2-AVDD)*%
X62725000Y8775000D02*
X66475000Y8775000D01*
X63025000Y12825000D02*
X62050000Y11850000D01*
X74900000Y13200000D02*
X71275000Y13200000D01*
X69425000Y13975000D02*
X68275000Y12825000D01*
X59900000Y22250000D02*
X71100000Y22250000D01*
X70500000Y13975000D02*
X69425000Y13975000D01*
X62050000Y9450000D02*
X62725000Y8775000D01*
X62050000Y11850000D02*
X62050000Y9450000D01*
X75550000Y13850000D02*
X74900000Y13200000D01*
X75550000Y17800000D02*
X75550000Y13850000D01*
X71100000Y22250000D02*
X75550000Y17800000D01*
X68275000Y12825000D02*
X63025000Y12825000D01*
X71275000Y13200000D02*
X70500000Y13975000D01*
D21*
%TO.N,SSRX-*%
X74975000Y21575000D02*
X74975000Y25156800D01*
X75853199Y26034999D02*
X76700001Y26034999D01*
X69250000Y9725000D02*
X69549999Y10024999D01*
X78300000Y20600000D02*
X75950000Y20600000D01*
X69549999Y10024999D02*
X76843199Y10024999D01*
X79550000Y12731800D02*
X79550000Y19350000D01*
X79550000Y19350000D02*
X78300000Y20600000D01*
X76843199Y10024999D02*
X79550000Y12731800D01*
X74975000Y25156800D02*
X75853199Y26034999D01*
X75950000Y20600000D02*
X74975000Y21575000D01*
X76700001Y26034999D02*
X77000000Y25735000D01*
D20*
%TO.N,TXE_N*%
X18770000Y37804744D02*
X18650000Y37804744D01*
X18170000Y36515256D02*
X18050000Y36515256D01*
X16970000Y36515253D02*
X16850000Y36515253D01*
X15770000Y37160000D02*
X15650000Y37160000D01*
X16370000Y37804751D02*
X16250000Y37804751D01*
X19370000Y36515256D02*
X19250000Y36515256D01*
X35600000Y42300000D02*
X30460000Y37160000D01*
X18410000Y37564744D02*
X18410000Y37160000D01*
X16610000Y37160000D02*
X16610000Y37400000D01*
X17570000Y37804744D02*
X17450000Y37804744D01*
X19010000Y36755256D02*
X19010000Y36920000D01*
X16610000Y36755253D02*
X16610000Y37160000D01*
X16610000Y37400000D02*
X16610000Y37564751D01*
X15650000Y37160000D02*
X14750000Y37160000D01*
X30460000Y37160000D02*
X19850000Y37160000D01*
X17810000Y37160000D02*
X17810000Y37564744D01*
X18410000Y37160000D02*
X18410000Y36755256D01*
X17810000Y36755256D02*
X17810000Y37160000D01*
X14750000Y37160000D02*
X12790000Y37160000D01*
X17210000Y37564744D02*
X17210000Y37160000D01*
X16010000Y37564751D02*
X16010000Y37400000D01*
X17210000Y37160000D02*
X17210000Y36755253D01*
X19010000Y36920000D02*
X19010000Y37160000D01*
X19610000Y36920000D02*
X19610000Y36755256D01*
X19010000Y37160000D02*
X19010000Y37564744D01*
X16010000Y37400000D02*
G75*
G02*
X15770000Y37160000I-240000J0D01*
G01*
X16250000Y37804751D02*
G75*
G03*
X16010049Y37564751I0J-239951D01*
G01*
X17210000Y36755253D02*
G75*
G02*
X16970000Y36515300I-240000J47D01*
G01*
X19010000Y37564744D02*
G75*
G03*
X18770000Y37804700I-240000J-44D01*
G01*
X18050000Y36515256D02*
G75*
G02*
X17809956Y36755256I0J240044D01*
G01*
X19610000Y36755256D02*
G75*
G02*
X19370000Y36515300I-240000J44D01*
G01*
X16610000Y37564751D02*
G75*
G03*
X16370000Y37804800I-240000J49D01*
G01*
X19850000Y37160000D02*
G75*
G03*
X19610000Y36920000I0J-240000D01*
G01*
X18410000Y36755256D02*
G75*
G02*
X18170000Y36515300I-240000J44D01*
G01*
X17810000Y37564744D02*
G75*
G03*
X17570000Y37804700I-240000J-44D01*
G01*
X18650000Y37804744D02*
G75*
G03*
X18409956Y37564744I0J-240044D01*
G01*
X19250000Y36515256D02*
G75*
G02*
X19009956Y36755256I0J240044D01*
G01*
X16850000Y36515253D02*
G75*
G02*
X16609953Y36755253I0J240047D01*
G01*
X17450000Y37804744D02*
G75*
G03*
X17209956Y37564744I0J-240044D01*
G01*
%TO.N,SWCLK*%
X31200000Y49100000D02*
X32300000Y48000000D01*
X48000000Y48000000D02*
X49240000Y49240000D01*
X32300000Y48000000D02*
X48000000Y48000000D01*
X49240000Y49240000D02*
X49240000Y51250000D01*
%TO.N,SWDIO*%
X27600000Y47500000D02*
X50250000Y47500000D01*
X51780000Y49030000D02*
X51780000Y51250000D01*
X26000000Y49100000D02*
X27600000Y47500000D01*
X50250000Y47500000D02*
X51780000Y49030000D01*
%TO.N,GPIO0*%
X40000000Y26000000D02*
X38000000Y28000000D01*
X35750000Y44500000D02*
X24250000Y44500000D01*
X44250000Y25250000D02*
X43500000Y26000000D01*
X45250000Y21500000D02*
X44250000Y22500000D01*
X38000000Y42250000D02*
X35750000Y44500000D01*
X43500000Y26000000D02*
X40000000Y26000000D01*
X24250000Y44500000D02*
X21250000Y47500000D01*
X38000000Y28000000D02*
X38000000Y42250000D01*
X44250000Y22500000D02*
X44250000Y25250000D01*
%TO.N,CLK*%
X46500000Y25500000D02*
X44250000Y27750000D01*
X53260000Y20715000D02*
X53260000Y21814251D01*
X50020000Y20475000D02*
X49900000Y20475000D01*
X51220000Y20475000D02*
X51100000Y20475000D01*
X67550000Y20475000D02*
X53500000Y20475000D01*
X50860000Y20715000D02*
X50860000Y21814251D01*
X11150000Y30750000D02*
X10250000Y31650000D01*
X47275000Y20475000D02*
X46500000Y21250000D01*
X17860000Y30177707D02*
X17860000Y30510000D01*
X52060000Y20715000D02*
X52060000Y21814276D01*
X48689926Y20475000D02*
X47275000Y20475000D01*
X10250000Y31650000D02*
X10250000Y32080000D01*
X15850000Y30750000D02*
X11150000Y30750000D01*
X18820000Y31362312D02*
X18700000Y31362312D01*
X51820000Y22054276D02*
X51700000Y22054276D01*
X44250000Y27750000D02*
X40750000Y27750000D01*
X50620000Y22054251D02*
X50500000Y22054251D01*
X18460000Y30750000D02*
X18460000Y30510000D01*
X51460000Y21814276D02*
X51460000Y20715000D01*
X17500000Y30750000D02*
X15850000Y30750000D01*
X19060000Y30750000D02*
X19060000Y31122312D01*
X18460000Y30510000D02*
X18460000Y30177707D01*
X18460000Y31122312D02*
X18460000Y30750000D01*
X18220000Y29937707D02*
X18100000Y29937707D01*
X68050000Y20975000D02*
X67550000Y20475000D01*
X19420000Y29937684D02*
X19300000Y29937684D01*
X52420000Y20475000D02*
X52300000Y20475000D01*
X19060000Y30177684D02*
X19060000Y30510000D01*
X50260000Y21814251D02*
X50260000Y20715000D01*
X19060000Y30510000D02*
X19060000Y30750000D01*
X53020000Y22054251D02*
X52900000Y22054251D01*
X31950000Y30750000D02*
X19900000Y30750000D01*
X19660000Y30510000D02*
X19660000Y30177684D01*
X35600000Y27100000D02*
X31950000Y30750000D01*
X49900000Y20475000D02*
X48689926Y20475000D01*
X17620000Y30750000D02*
X17500000Y30750000D01*
X52660000Y21814251D02*
X52660000Y20715000D01*
X46500000Y21250000D02*
X46500000Y25500000D01*
X19900000Y30750000D02*
G75*
G03*
X19660000Y30510000I0J-240000D01*
G01*
X19060000Y31122312D02*
G75*
G03*
X18820000Y31362300I-240000J-12D01*
G01*
X53260000Y21814251D02*
G75*
G03*
X53020000Y22054300I-240000J49D01*
G01*
X18700000Y31362312D02*
G75*
G03*
X18459988Y31122312I0J-240012D01*
G01*
X19300000Y29937684D02*
G75*
G02*
X19059984Y30177684I0J240016D01*
G01*
X51460000Y20715000D02*
G75*
G02*
X51220000Y20475000I-240000J0D01*
G01*
X52900000Y22054251D02*
G75*
G03*
X52660049Y21814251I0J-239951D01*
G01*
X53500000Y20475000D02*
G75*
G02*
X53260000Y20715000I0J240000D01*
G01*
X50260000Y20715000D02*
G75*
G02*
X50020000Y20475000I-240000J0D01*
G01*
X52300000Y20475000D02*
G75*
G02*
X52060000Y20715000I0J240000D01*
G01*
X52060000Y21814276D02*
G75*
G03*
X51820000Y22054300I-240000J24D01*
G01*
X52660000Y20715000D02*
G75*
G02*
X52420000Y20475000I-240000J0D01*
G01*
X50860000Y21814251D02*
G75*
G03*
X50620000Y22054300I-240000J49D01*
G01*
X17860000Y30510000D02*
G75*
G03*
X17620000Y30750000I-240000J0D01*
G01*
X19660000Y30177684D02*
G75*
G02*
X19420000Y29937700I-240000J16D01*
G01*
X51100000Y20475000D02*
G75*
G02*
X50860000Y20715000I0J240000D01*
G01*
X18100000Y29937707D02*
G75*
G02*
X17860007Y30177707I0J239993D01*
G01*
X50500000Y22054251D02*
G75*
G03*
X50260049Y21814251I0J-239951D01*
G01*
X51700000Y22054276D02*
G75*
G03*
X51460024Y21814276I0J-239976D01*
G01*
X18460000Y30177707D02*
G75*
G02*
X18220000Y29937700I-240000J-7D01*
G01*
%TO.N,DATA_2*%
X40800000Y9300000D02*
X40800000Y9100000D01*
X71850000Y17150000D02*
X48650000Y17150000D01*
X48650000Y17150000D02*
X40800000Y9300000D01*
X74300000Y14700000D02*
X71850000Y17150000D01*
%TO.N,DATA_7*%
X41339228Y23560772D02*
X40800000Y24100000D01*
X43326060Y22320513D02*
X42952773Y21947227D01*
X41934535Y22965464D02*
X41849684Y23050316D01*
X42528507Y22371493D02*
X42698212Y22541199D01*
X70750000Y21000000D02*
X69450000Y19700000D01*
X44225573Y20674427D02*
X44457487Y20906342D01*
X42098605Y21432469D02*
X42013749Y21517325D01*
X42013748Y21856737D02*
X42528506Y22371494D01*
X44055866Y20504722D02*
X44225572Y20674428D01*
X44033221Y21330608D02*
X43801306Y21098694D01*
X43801307Y21098693D02*
X43286552Y20583941D01*
X43746162Y20195019D02*
X44055866Y20504722D01*
X42618992Y23310508D02*
X42273947Y22965464D01*
X44457487Y21245753D02*
X44372632Y21330608D01*
X69450000Y19700000D02*
X45200000Y19700000D01*
X43750326Y22235658D02*
X43665471Y22320513D01*
X43377040Y21522960D02*
X43750326Y21896247D01*
X43043257Y23225655D02*
X42958404Y23310508D01*
X42698212Y22541199D02*
X43043257Y22886244D01*
X45200000Y19700000D02*
X44819546Y20080454D01*
X42952773Y21947227D02*
X42952774Y21947226D01*
X43831019Y19770751D02*
X43746163Y19855607D01*
X43801306Y21098694D02*
X43801307Y21098693D01*
X44225572Y20674428D02*
X44225573Y20674427D01*
X41849684Y23050316D02*
X41339228Y23560772D01*
X43377039Y21522961D02*
X43377040Y21522960D01*
X42952774Y21947226D02*
X42438015Y21432470D01*
X42947142Y20583940D02*
X42862286Y20668796D01*
X44480134Y20080454D02*
X44170429Y19770752D01*
X42528506Y22371494D02*
X42528507Y22371493D01*
X42862285Y21008208D02*
X43377039Y21522961D01*
X42862286Y20668796D02*
G75*
G02*
X42862288Y21008206I169714J169704D01*
G01*
X42958404Y23310508D02*
G75*
G03*
X42618992Y23310508I-169706J-169704D01*
G01*
X44170429Y19770752D02*
G75*
G02*
X43830996Y19770727I-169729J169748D01*
G01*
X42013749Y21517325D02*
G75*
G02*
X42013779Y21856706I169751J169675D01*
G01*
X43665471Y22320513D02*
G75*
G03*
X43326061Y22320513I-169705J-169703D01*
G01*
X44372632Y21330608D02*
G75*
G03*
X44033222Y21330608I-169705J-169703D01*
G01*
X43043257Y22886244D02*
G75*
G03*
X43043208Y23225605I-169657J169656D01*
G01*
X42273947Y22965464D02*
G75*
G02*
X41934535Y22965464I-169706J169704D01*
G01*
X43286552Y20583941D02*
G75*
G02*
X42947095Y20583893I-169752J169659D01*
G01*
X43746163Y19855607D02*
G75*
G02*
X43746175Y20195006I169737J169693D01*
G01*
X43750326Y21896247D02*
G75*
G03*
X43750374Y22235705I-169726J169753D01*
G01*
X42438015Y21432470D02*
G75*
G02*
X42098596Y21432459I-169715J169730D01*
G01*
X44457487Y20906342D02*
G75*
G03*
X44457440Y21245705I-169687J169658D01*
G01*
X44819546Y20080454D02*
G75*
G03*
X44480134Y20080454I-169706J-169701D01*
G01*
%TO.N,~{RESET_N}*%
X22350000Y44000000D02*
X21250000Y42900000D01*
X43050000Y25225000D02*
X40025000Y25225000D01*
X37500000Y27750000D02*
X37500000Y42000000D01*
X40025000Y25225000D02*
X37500000Y27750000D01*
X37500000Y42000000D02*
X35500000Y44000000D01*
X35500000Y44000000D02*
X22350000Y44000000D01*
D21*
%TO.N,D-*%
X63975001Y11056801D02*
X63975001Y10174999D01*
X75768200Y11650000D02*
X64568200Y11650000D01*
X77075000Y12956800D02*
X75768200Y11650000D01*
X78300000Y17735000D02*
X78000000Y18035000D01*
X77328200Y18035000D02*
X77075000Y17781800D01*
X63975001Y10174999D02*
X63975001Y10906801D01*
X64568200Y11650000D02*
X63975001Y11056801D01*
X77075000Y17781800D02*
X77075000Y12956800D01*
X78000000Y18035000D02*
X77328200Y18035000D01*
X64275000Y9875000D02*
X63975001Y10174999D01*
D20*
%TO.N,GPIO1*%
X45250000Y23000000D02*
X45250000Y25750000D01*
X40000000Y26750000D02*
X38500000Y28250000D01*
X36000000Y45000000D02*
X25750000Y45000000D01*
X25750000Y45000000D02*
X21250000Y49500000D01*
X45250000Y25750000D02*
X44250000Y26750000D01*
X38500000Y42500000D02*
X36000000Y45000000D01*
X44250000Y26750000D02*
X40000000Y26750000D01*
X38500000Y28250000D02*
X38500000Y42500000D01*
%TO.N,RXF_N*%
X35600000Y39900000D02*
X31600000Y35900000D01*
X31600000Y35900000D02*
X26450000Y35900000D01*
X25610000Y35900000D02*
X25610000Y36330134D01*
X25370000Y36570134D02*
X25250000Y36570134D01*
X25970000Y35079863D02*
X25850000Y35079863D01*
X25610000Y35319863D02*
X25610000Y35660000D01*
X24770000Y35079863D02*
X24650000Y35079863D01*
X24170000Y35900000D02*
X24050000Y35900000D01*
X24050000Y35900000D02*
X22126791Y35900000D01*
X11800000Y35900000D02*
X10540000Y37160000D01*
X22126791Y35900000D02*
X11800000Y35900000D01*
X25010000Y35900000D02*
X25010000Y35660000D01*
X25010000Y36330134D02*
X25010000Y35900000D01*
X10540000Y37160000D02*
X10250000Y37160000D01*
X25610000Y35660000D02*
X25610000Y35900000D01*
X26210000Y35660000D02*
X26210000Y35319863D01*
X25010000Y35660000D02*
X25010000Y35319863D01*
X24410000Y35319863D02*
X24410000Y35660000D01*
X26450000Y35900000D02*
G75*
G03*
X26210000Y35660000I0J-240000D01*
G01*
X25850000Y35079863D02*
G75*
G02*
X25609963Y35319863I0J240037D01*
G01*
X24650000Y35079863D02*
G75*
G02*
X24409963Y35319863I0J240037D01*
G01*
X25610000Y36330134D02*
G75*
G03*
X25370000Y36570100I-240000J-34D01*
G01*
X25250000Y36570134D02*
G75*
G03*
X25009966Y36330134I0J-240034D01*
G01*
X24410000Y35660000D02*
G75*
G03*
X24170000Y35900000I-240000J0D01*
G01*
X25010000Y35319863D02*
G75*
G02*
X24770000Y35079900I-240000J37D01*
G01*
X26210000Y35319863D02*
G75*
G02*
X25970000Y35079900I-240000J37D01*
G01*
D21*
%TO.N,D+*%
X63524999Y11243199D02*
X63524999Y10174999D01*
X76625000Y13143200D02*
X75581800Y12100000D01*
X75581800Y12100000D02*
X64381800Y12100000D01*
X64381800Y12100000D02*
X63524999Y11243199D01*
X77141800Y18485000D02*
X76625000Y17968200D01*
X63225000Y9875000D02*
X63524999Y10174999D01*
X78000000Y18485000D02*
X77141800Y18485000D01*
X63524999Y10174999D02*
X63524999Y11093199D01*
X76625000Y17968200D02*
X76625000Y13143200D01*
X78300000Y18785000D02*
X78000000Y18485000D01*
D20*
%TO.N,WR_N*%
X18483333Y34500000D02*
X12910000Y34500000D01*
X22560000Y34500000D02*
X22560000Y34111907D01*
X23160000Y34500000D02*
X23160000Y35088072D01*
X23520000Y33871907D02*
X23400000Y33871907D01*
X20160000Y35088092D02*
X20160000Y34740000D01*
X19920000Y34500000D02*
X19800000Y34500000D01*
X23160000Y34111907D02*
X23160000Y34260000D01*
X21960000Y34111907D02*
X21960000Y34500000D01*
X33000000Y34500000D02*
X24000000Y34500000D01*
X22560000Y35088072D02*
X22560000Y34500000D01*
X21960000Y34500000D02*
X21960000Y35088072D01*
X35600000Y37100000D02*
X33000000Y34500000D01*
X19800000Y34500000D02*
X18483333Y34500000D01*
X20760000Y34500000D02*
X20760000Y34740000D01*
X21120000Y33871907D02*
X21000000Y33871907D01*
X12910000Y34500000D02*
X12790000Y34620000D01*
X20760000Y34740000D02*
X20760000Y35088092D01*
X22920000Y35328072D02*
X22800000Y35328072D01*
X21360000Y34500000D02*
X21360000Y34111907D01*
X22320000Y33871907D02*
X22200000Y33871907D01*
X21360000Y35088072D02*
X21360000Y34500000D01*
X20760000Y34111907D02*
X20760000Y34500000D01*
X20520000Y35328092D02*
X20400000Y35328092D01*
X23760000Y34260000D02*
X23760000Y34111907D01*
X21720000Y35328072D02*
X21600000Y35328072D01*
X23160000Y34260000D02*
X23160000Y34500000D01*
X23400000Y33871907D02*
G75*
G02*
X23160007Y34111907I0J239993D01*
G01*
X24000000Y34500000D02*
G75*
G03*
X23760000Y34260000I0J-240000D01*
G01*
X20760000Y35088092D02*
G75*
G03*
X20520000Y35328100I-240000J8D01*
G01*
X22200000Y33871907D02*
G75*
G02*
X21960007Y34111907I0J239993D01*
G01*
X21600000Y35328072D02*
G75*
G03*
X21360028Y35088072I0J-239972D01*
G01*
X21000000Y33871907D02*
G75*
G02*
X20760007Y34111907I0J239993D01*
G01*
X22560000Y34111907D02*
G75*
G02*
X22320000Y33871900I-240000J-7D01*
G01*
X22800000Y35328072D02*
G75*
G03*
X22560028Y35088072I0J-239972D01*
G01*
X21960000Y35088072D02*
G75*
G03*
X21720000Y35328100I-240000J28D01*
G01*
X23160000Y35088072D02*
G75*
G03*
X22920000Y35328100I-240000J28D01*
G01*
X20160000Y34740000D02*
G75*
G02*
X19920000Y34500000I-240000J0D01*
G01*
X23760000Y34111907D02*
G75*
G02*
X23520000Y33871900I-240000J-7D01*
G01*
X20400000Y35328092D02*
G75*
G03*
X20160008Y35088092I0J-239992D01*
G01*
X21360000Y34111907D02*
G75*
G02*
X21120000Y33871900I-240000J-7D01*
G01*
%TO.N,DATA_6*%
X40510000Y19390000D02*
X40510000Y19648684D01*
X42910000Y19390000D02*
X42910000Y19598674D01*
X39356881Y19150000D02*
X39050000Y19150000D01*
X41710000Y19390000D02*
X41710000Y19648661D01*
X71550000Y20150000D02*
X70550000Y19150000D01*
X40270000Y19888684D02*
X40150000Y19888684D01*
X39100000Y21700000D02*
X40800000Y21700000D01*
X39050000Y19150000D02*
X38700000Y19500000D01*
X38700000Y19500000D02*
X38700000Y21300000D01*
X42670000Y19838674D02*
X42550000Y19838674D01*
X39910000Y19648684D02*
X39910000Y19390000D01*
X42310000Y19598674D02*
X42310000Y19390000D01*
X38700000Y21300000D02*
X39100000Y21700000D01*
X42070000Y19150000D02*
X41950000Y19150000D01*
X41110000Y19648661D02*
X41110000Y19390000D01*
X70550000Y19150000D02*
X43150000Y19150000D01*
X39670000Y19150000D02*
X39550000Y19150000D01*
X39550000Y19150000D02*
X39356881Y19150000D01*
X41470000Y19888661D02*
X41350000Y19888661D01*
X40870000Y19150000D02*
X40750000Y19150000D01*
X41350000Y19888661D02*
G75*
G03*
X41110039Y19648661I0J-239961D01*
G01*
X41710000Y19648661D02*
G75*
G03*
X41470000Y19888700I-240000J39D01*
G01*
X42550000Y19838674D02*
G75*
G03*
X42310026Y19598674I0J-239974D01*
G01*
X40510000Y19648684D02*
G75*
G03*
X40270000Y19888700I-240000J16D01*
G01*
X39910000Y19390000D02*
G75*
G02*
X39670000Y19150000I-240000J0D01*
G01*
X41110000Y19390000D02*
G75*
G02*
X40870000Y19150000I-240000J0D01*
G01*
X42310000Y19390000D02*
G75*
G02*
X42070000Y19150000I-240000J0D01*
G01*
X40150000Y19888684D02*
G75*
G03*
X39910016Y19648684I0J-239984D01*
G01*
X41950000Y19150000D02*
G75*
G02*
X41710000Y19390000I0J240000D01*
G01*
X42910000Y19598674D02*
G75*
G03*
X42670000Y19838700I-240000J26D01*
G01*
X43150000Y19150000D02*
G75*
G02*
X42910000Y19390000I0J240000D01*
G01*
X40750000Y19150000D02*
G75*
G02*
X40510000Y19390000I0J240000D01*
G01*
%TO.N,DATA_3*%
X43449785Y13221390D02*
X43364932Y13136536D01*
X43000735Y13161321D02*
X42565865Y13596191D01*
X47150000Y17650000D02*
X43425000Y13925000D01*
X43425000Y13585588D02*
X43449786Y13560802D01*
X74200000Y15900000D02*
X72450000Y17650000D01*
X42152205Y12652206D02*
X41675000Y12175000D01*
X42237057Y12737060D02*
X42152205Y12652206D01*
X41675000Y12175000D02*
X40800000Y11300000D01*
X43025520Y13136536D02*
X43000735Y13161321D01*
X42226454Y13596191D02*
X42141601Y13511339D01*
X72450000Y17650000D02*
X47150000Y17650000D01*
X42141601Y13171927D02*
X42237057Y13076471D01*
X42141601Y13511339D02*
G75*
G03*
X42141568Y13171894I169699J-169739D01*
G01*
X42237057Y13076471D02*
G75*
G02*
X42237023Y12737095I-169657J-169671D01*
G01*
X43425000Y13925000D02*
G75*
G03*
X43425006Y13585594I169700J-169700D01*
G01*
X43364932Y13136536D02*
G75*
G02*
X43025520Y13136536I-169706J169701D01*
G01*
X42565865Y13596191D02*
G75*
G03*
X42226455Y13596191I-169705J-169703D01*
G01*
X43449786Y13560802D02*
G75*
G02*
X43449781Y13221394I-169686J-169702D01*
G01*
%TO.N,DATA_0*%
X44618642Y8193522D02*
X44736375Y8075789D01*
X46500000Y9500000D02*
X45924318Y8924318D01*
X45547102Y8113590D02*
X45500053Y8160639D01*
X40900000Y3900000D02*
X40800000Y3900000D01*
X44736375Y7736377D02*
X44651523Y7651524D01*
X46500000Y11950000D02*
X46500000Y9500000D01*
X45924318Y8584906D02*
X45971368Y8537856D01*
X50700000Y16150000D02*
X46500000Y11950000D01*
X70350000Y16150000D02*
X50700000Y16150000D01*
X45971367Y8198444D02*
X45886514Y8113590D01*
X44703495Y8617786D02*
X44618642Y8532934D01*
X44651523Y7651524D02*
X43324417Y6324417D01*
X45500053Y8160639D02*
X45042906Y8617786D01*
X72125000Y14375000D02*
X70350000Y16150000D01*
X43324417Y6324417D02*
X40900000Y3900000D01*
X45924318Y8924318D02*
G75*
G03*
X45924306Y8584894I169682J-169718D01*
G01*
X45971368Y8537856D02*
G75*
G02*
X45971318Y8198494I-169668J-169656D01*
G01*
X45886514Y8113590D02*
G75*
G02*
X45547102Y8113590I-169706J169701D01*
G01*
X45042906Y8617786D02*
G75*
G03*
X44703494Y8617787I-169706J-169703D01*
G01*
X44618642Y8532934D02*
G75*
G03*
X44618614Y8193494I169658J-169734D01*
G01*
X44736375Y8075789D02*
G75*
G02*
X44736358Y7736394I-169675J-169689D01*
G01*
D21*
%TO.N,SSRX+*%
X79100000Y19150000D02*
X78125000Y20125000D01*
X74525000Y21325000D02*
X74525000Y25343200D01*
X76700001Y26485001D02*
X77000000Y26785000D01*
X78125000Y20125000D02*
X75725000Y20125000D01*
X79100000Y12918200D02*
X79100000Y19150000D01*
X76656801Y10475001D02*
X79100000Y12918200D01*
X75666801Y26485001D02*
X76700001Y26485001D01*
X69549999Y10475001D02*
X76656801Y10475001D01*
X74525000Y25343200D02*
X75666801Y26485001D01*
X75725000Y20125000D02*
X74525000Y21325000D01*
X69250000Y10775000D02*
X69549999Y10475001D01*
D20*
%TO.N,RD_N*%
X18120000Y32696051D02*
X18000000Y32696051D01*
X17760000Y33300000D02*
X17760000Y33663946D01*
X35600000Y34650000D02*
X34250000Y33300000D01*
X17520000Y33903946D02*
X17400000Y33903946D01*
X16200000Y33300000D02*
X15100000Y33300000D01*
X10680000Y34620000D02*
X10250000Y34620000D01*
X17160000Y33663946D02*
X17160000Y33300000D01*
X19560000Y33060000D02*
X19560000Y32936052D01*
X35600000Y34700000D02*
X35600000Y34650000D01*
X18960000Y33060000D02*
X18960000Y33300000D01*
X18960000Y32936052D02*
X18960000Y33060000D01*
X16920000Y32696050D02*
X16800000Y32696050D01*
X34250000Y33300000D02*
X19800000Y33300000D01*
X18360000Y33300000D02*
X18360000Y32936051D01*
X18960000Y33300000D02*
X18960000Y33663950D01*
X12000000Y33300000D02*
X10680000Y34620000D01*
X17160000Y33060000D02*
X17160000Y32936050D01*
X17160000Y33300000D02*
X17160000Y33060000D01*
X19320000Y32696052D02*
X19200000Y32696052D01*
X16320000Y33300000D02*
X16200000Y33300000D01*
X18720000Y33903950D02*
X18600000Y33903950D01*
X15100000Y33300000D02*
X12000000Y33300000D01*
X16560000Y32936050D02*
X16560000Y33060000D01*
X17760000Y32936051D02*
X17760000Y33300000D01*
X18360000Y33663950D02*
X18360000Y33300000D01*
X19800000Y33300000D02*
G75*
G03*
X19560000Y33060000I0J-240000D01*
G01*
X19200000Y32696052D02*
G75*
G02*
X18959952Y32936052I0J240048D01*
G01*
X18000000Y32696051D02*
G75*
G02*
X17760051Y32936051I0J239949D01*
G01*
X18600000Y33903950D02*
G75*
G03*
X18360050Y33663950I0J-239950D01*
G01*
X18960000Y33663950D02*
G75*
G03*
X18720000Y33904000I-240000J50D01*
G01*
X19560000Y32936052D02*
G75*
G02*
X19320000Y32696100I-240000J48D01*
G01*
X18360000Y32936051D02*
G75*
G02*
X18120000Y32696000I-240000J-51D01*
G01*
X16560000Y33060000D02*
G75*
G03*
X16320000Y33300000I-240000J0D01*
G01*
X16800000Y32696050D02*
G75*
G02*
X16560050Y32936050I0J239950D01*
G01*
X17400000Y33903946D02*
G75*
G03*
X17159954Y33663946I0J-240046D01*
G01*
X17160000Y32936050D02*
G75*
G02*
X16920000Y32696000I-240000J-50D01*
G01*
X17760000Y33663946D02*
G75*
G03*
X17520000Y33903900I-240000J-46D01*
G01*
%TO.N,DATA_1*%
X45133430Y10362561D02*
X45048578Y10277708D01*
X73250000Y14500000D02*
X71100000Y16650000D01*
X44709166Y10277707D02*
X44538144Y10448729D01*
X40800000Y7050000D02*
X40800000Y6300000D01*
X50400000Y16650000D02*
X44962408Y11212408D01*
X71100000Y16650000D02*
X50400000Y16650000D01*
X44113879Y10363878D02*
X42905989Y9155989D01*
X42905989Y9155989D02*
X40800000Y7050000D01*
X44962408Y10872996D02*
X45133431Y10701973D01*
X44198734Y10448730D02*
X44113879Y10363878D01*
X45048578Y10277708D02*
G75*
G02*
X44709195Y10277735I-169678J169692D01*
G01*
X44962408Y11212408D02*
G75*
G03*
X44962406Y10872994I169692J-169708D01*
G01*
X45133431Y10701973D02*
G75*
G02*
X45133398Y10362593I-169731J-169673D01*
G01*
X44538144Y10448729D02*
G75*
G03*
X44198696Y10448769I-169744J-169729D01*
G01*
%TO.N,OE_N*%
X22110000Y32080000D02*
X22110000Y31840000D01*
X25710000Y31840000D02*
X25710000Y31618343D01*
X24870000Y32681657D02*
X24750000Y32681657D01*
X23910000Y31618343D02*
X23910000Y32080000D01*
X25110000Y31840000D02*
X25110000Y32080000D01*
X22710000Y31618350D02*
X22710000Y32080000D01*
X25110000Y31618343D02*
X25110000Y31840000D01*
X23310000Y32441650D02*
X23310000Y32080000D01*
X24510000Y32441657D02*
X24510000Y32080000D01*
X25110000Y32080000D02*
X25110000Y32441657D01*
X22110000Y32441648D02*
X22110000Y32080000D01*
X35600000Y29900000D02*
X33420000Y32080000D01*
X23310000Y32080000D02*
X23310000Y31618350D01*
X24510000Y32080000D02*
X24510000Y31618343D01*
X23670000Y32681650D02*
X23550000Y32681650D01*
X23070000Y31378350D02*
X22950000Y31378350D01*
X21270000Y32080000D02*
X21150000Y32080000D01*
X20400000Y32080000D02*
X12790000Y32080000D01*
X21150000Y32080000D02*
X20400000Y32080000D01*
X21510000Y31618348D02*
X21510000Y31840000D01*
X24270000Y31378343D02*
X24150000Y31378343D01*
X21870000Y31378348D02*
X21750000Y31378348D01*
X33420000Y32080000D02*
X25950000Y32080000D01*
X25470000Y31378343D02*
X25350000Y31378343D01*
X22110000Y31840000D02*
X22110000Y31618348D01*
X22710000Y32080000D02*
X22710000Y32441648D01*
X23910000Y32080000D02*
X23910000Y32441650D01*
X22470000Y32681648D02*
X22350000Y32681648D01*
X25710000Y31618343D02*
G75*
G02*
X25470000Y31378300I-240000J-43D01*
G01*
X25350000Y31378343D02*
G75*
G02*
X25110043Y31618343I0J239957D01*
G01*
X21510000Y31840000D02*
G75*
G03*
X21270000Y32080000I-240000J0D01*
G01*
X22350000Y32681648D02*
G75*
G03*
X22109952Y32441648I0J-240048D01*
G01*
X24750000Y32681657D02*
G75*
G03*
X24510043Y32441657I0J-239957D01*
G01*
X25110000Y32441657D02*
G75*
G03*
X24870000Y32681700I-240000J43D01*
G01*
X23310000Y31618350D02*
G75*
G02*
X23070000Y31378300I-240000J-50D01*
G01*
X22110000Y31618348D02*
G75*
G02*
X21870000Y31378300I-240000J-48D01*
G01*
X23910000Y32441650D02*
G75*
G03*
X23670000Y32681700I-240000J50D01*
G01*
X24150000Y31378343D02*
G75*
G02*
X23910043Y31618343I0J239957D01*
G01*
X22950000Y31378350D02*
G75*
G02*
X22710050Y31618350I0J239950D01*
G01*
X22710000Y32441648D02*
G75*
G03*
X22470000Y32681600I-240000J-48D01*
G01*
X23550000Y32681650D02*
G75*
G03*
X23310050Y32441650I0J-239950D01*
G01*
X21750000Y31378348D02*
G75*
G02*
X21510048Y31618348I0J239952D01*
G01*
X24510000Y31618343D02*
G75*
G02*
X24270000Y31378300I-240000J-43D01*
G01*
X25950000Y32080000D02*
G75*
G03*
X25710000Y31840000I0J-240000D01*
G01*
D21*
%TO.N,SSTX-*%
X80575000Y20843200D02*
X80575000Y11006800D01*
X79243200Y22175000D02*
X80575000Y20843200D01*
X76928200Y24085000D02*
X76625000Y23781800D01*
X77343199Y7774999D02*
X76549999Y7774999D01*
X78250000Y23785000D02*
X77950000Y24085000D01*
X76625000Y23781800D02*
X76625000Y22493200D01*
X76943200Y22175000D02*
X79243200Y22175000D01*
X76625000Y22493200D02*
X76943200Y22175000D01*
X77950000Y24085000D02*
X76928200Y24085000D01*
X80575000Y11006800D02*
X77343199Y7774999D01*
X76549999Y7774999D02*
X76250000Y7475000D01*
%TO.N,SSTX+*%
X80125000Y11193200D02*
X77156801Y8225001D01*
X77156801Y8225001D02*
X76549999Y8225001D01*
X76549999Y8225001D02*
X76250000Y8525000D01*
X76756800Y21725000D02*
X79056800Y21725000D01*
X80125000Y20656800D02*
X80125000Y11193200D01*
X76741800Y24535000D02*
X76175000Y23968200D01*
X76175000Y22306800D02*
X76756800Y21725000D01*
X78250000Y24835000D02*
X77950000Y24535000D01*
X79056800Y21725000D02*
X80125000Y20656800D01*
X77950000Y24535000D02*
X76741800Y24535000D01*
X76175000Y23968200D02*
X76175000Y22306800D01*
%TD*%
%TA.AperFunction,Conductor*%
%TO.N,GNDA*%
G36*
X57746288Y52855546D02*
G01*
X57827070Y52801570D01*
X57881046Y52720788D01*
X57900000Y52625500D01*
X57900000Y48677168D01*
X57906401Y48617629D01*
X57906403Y48617622D01*
X57956646Y48482913D01*
X58042810Y48367813D01*
X58042812Y48367811D01*
X58157912Y48281647D01*
X58292621Y48231404D01*
X58292628Y48231402D01*
X58352167Y48225001D01*
X58352175Y48225000D01*
X61647825Y48225000D01*
X61647832Y48225001D01*
X61707371Y48231402D01*
X61707378Y48231404D01*
X61842087Y48281647D01*
X61957187Y48367811D01*
X61957189Y48367813D01*
X62043353Y48482913D01*
X62093596Y48617622D01*
X62093598Y48617629D01*
X62099999Y48677168D01*
X62100000Y48677175D01*
X62100000Y52625500D01*
X62118954Y52720788D01*
X62172930Y52801570D01*
X62253712Y52855546D01*
X62349000Y52874500D01*
X66151000Y52874500D01*
X66246288Y52855546D01*
X66327070Y52801570D01*
X66381046Y52720788D01*
X66400000Y52625500D01*
X66400000Y48677168D01*
X66406401Y48617629D01*
X66406403Y48617622D01*
X66456646Y48482913D01*
X66542810Y48367813D01*
X66542812Y48367811D01*
X66657912Y48281647D01*
X66792621Y48231404D01*
X66792628Y48231402D01*
X66852167Y48225001D01*
X66852175Y48225000D01*
X70147825Y48225000D01*
X70147832Y48225001D01*
X70207371Y48231402D01*
X70207378Y48231404D01*
X70342087Y48281647D01*
X70457187Y48367811D01*
X70457189Y48367813D01*
X70543353Y48482913D01*
X70593596Y48617622D01*
X70593598Y48617629D01*
X70599999Y48677168D01*
X70600000Y48677175D01*
X70600000Y52625500D01*
X70618954Y52720788D01*
X70672930Y52801570D01*
X70753712Y52855546D01*
X70849000Y52874500D01*
X78689639Y52874500D01*
X78784927Y52855546D01*
X78865709Y52801570D01*
X78919685Y52720788D01*
X78938639Y52625500D01*
X78919685Y52530212D01*
X78898468Y52489885D01*
X78843818Y52405733D01*
X78843816Y52405729D01*
X78667730Y52060140D01*
X78528730Y51698031D01*
X78428341Y51323373D01*
X78379435Y51014592D01*
X78367666Y50940282D01*
X78347366Y50552944D01*
X78367666Y50165606D01*
X78367666Y50165601D01*
X78367667Y50165599D01*
X78428341Y49782516D01*
X78528730Y49407858D01*
X78667730Y49045749D01*
X78843816Y48700160D01*
X78843819Y48700155D01*
X79055068Y48374859D01*
X79299157Y48073435D01*
X79299163Y48073428D01*
X79573428Y47799163D01*
X79573433Y47799159D01*
X79573434Y47799158D01*
X79874858Y47555069D01*
X79874860Y47555068D01*
X80200155Y47343819D01*
X80545750Y47167730D01*
X80907857Y47028730D01*
X81282511Y46928342D01*
X81665606Y46867666D01*
X82052944Y46847366D01*
X82440282Y46867666D01*
X82823377Y46928342D01*
X83198031Y47028730D01*
X83560138Y47167730D01*
X83905733Y47343819D01*
X83989885Y47398469D01*
X84080123Y47434469D01*
X84177270Y47433198D01*
X84266535Y47394847D01*
X84334329Y47325254D01*
X84370330Y47235016D01*
X84374500Y47189639D01*
X84374500Y44745560D01*
X84355546Y44650272D01*
X84301570Y44569490D01*
X84220788Y44515514D01*
X84125500Y44496560D01*
X84030212Y44515514D01*
X83949430Y44569490D01*
X83940458Y44578945D01*
X83932703Y44587558D01*
X83855871Y44672888D01*
X83755846Y44745560D01*
X83702728Y44784153D01*
X83529810Y44861142D01*
X83529796Y44861146D01*
X83344646Y44900500D01*
X83155354Y44900500D01*
X82970203Y44861146D01*
X82970189Y44861142D01*
X82797271Y44784153D01*
X82644126Y44672886D01*
X82517469Y44532220D01*
X82422822Y44368286D01*
X82364325Y44188256D01*
X82344540Y44000000D01*
X82364325Y43811745D01*
X82393037Y43723381D01*
X82422821Y43631716D01*
X82422822Y43631714D01*
X82422823Y43631712D01*
X82422824Y43631710D01*
X82466140Y43556685D01*
X82497370Y43464686D01*
X82499500Y43432185D01*
X82499500Y32817816D01*
X82480546Y32722528D01*
X82466141Y32693318D01*
X82422823Y32618289D01*
X82364325Y32438256D01*
X82344540Y32250000D01*
X82364326Y32061744D01*
X82366660Y32050761D01*
X82367928Y31953615D01*
X82331923Y31863377D01*
X82264127Y31793788D01*
X82174860Y31755439D01*
X82123099Y31750000D01*
X76500000Y31750000D01*
X76500000Y31749999D01*
X76500000Y27661680D01*
X76481046Y27566392D01*
X76427070Y27485610D01*
X76397360Y27460236D01*
X76394132Y27457892D01*
X76394126Y27457886D01*
X76267469Y27317220D01*
X76205567Y27210001D01*
X76141508Y27136956D01*
X76054372Y27093986D01*
X75989926Y27085501D01*
X75587741Y27085501D01*
X75546821Y27074538D01*
X75546822Y27074537D01*
X75435016Y27044578D01*
X75435013Y27044577D01*
X75298086Y26965522D01*
X75298084Y26965521D01*
X75186280Y26853718D01*
X75186281Y26853717D01*
X75186279Y26853715D01*
X74156286Y25823722D01*
X74156284Y25823720D01*
X74156283Y25823721D01*
X74044483Y25711920D01*
X74044481Y25711917D01*
X74044480Y25711916D01*
X73994360Y25625105D01*
X73994359Y25625106D01*
X73965424Y25574988D01*
X73965422Y25574985D01*
X73924499Y25422257D01*
X73924499Y25244078D01*
X73924500Y25244065D01*
X73924500Y23249000D01*
X73905546Y23153712D01*
X73851570Y23072930D01*
X73770788Y23018954D01*
X73675500Y23000000D01*
X71191227Y23000000D01*
X71181043Y23000500D01*
X71173918Y23000500D01*
X60477735Y23000500D01*
X60382447Y23019454D01*
X60353238Y23033858D01*
X60352727Y23034153D01*
X60179810Y23111142D01*
X60179796Y23111146D01*
X59994646Y23150500D01*
X59805354Y23150500D01*
X59620203Y23111146D01*
X59620189Y23111142D01*
X59447271Y23034153D01*
X59294126Y22922886D01*
X59167469Y22782220D01*
X59072822Y22618286D01*
X59014325Y22438256D01*
X58994540Y22250001D01*
X58998636Y22211029D01*
X59000000Y22185002D01*
X59000000Y21349500D01*
X58981046Y21254212D01*
X58927070Y21173430D01*
X58846288Y21119454D01*
X58751000Y21100500D01*
X55499000Y21100500D01*
X55403712Y21119454D01*
X55322930Y21173430D01*
X55268954Y21254212D01*
X55250000Y21349500D01*
X55250000Y33500000D01*
X57094540Y33500000D01*
X57114325Y33311745D01*
X57143037Y33223381D01*
X57172821Y33131716D01*
X57172822Y33131714D01*
X57172823Y33131712D01*
X57172824Y33131710D01*
X57216140Y33056685D01*
X57247370Y32964686D01*
X57249500Y32932185D01*
X57249500Y29426080D01*
X57278341Y29281089D01*
X57278342Y29281087D01*
X57334916Y29144505D01*
X57367813Y29095271D01*
X57417048Y29021584D01*
X59021584Y27417049D01*
X59144505Y27334916D01*
X59281087Y27278342D01*
X59426080Y27249501D01*
X59426081Y27249500D01*
X59426082Y27249500D01*
X67073919Y27249500D01*
X67073919Y27249501D01*
X67218913Y27278342D01*
X67312773Y27317220D01*
X67355491Y27334914D01*
X67355492Y27334915D01*
X67355495Y27334916D01*
X67404729Y27367814D01*
X67478416Y27417048D01*
X67987936Y27926570D01*
X68068718Y27980546D01*
X68164006Y27999500D01*
X71573919Y27999500D01*
X71573919Y27999501D01*
X71718913Y28028342D01*
X71855495Y28084916D01*
X71909756Y28121172D01*
X71978416Y28167048D01*
X73332952Y29521584D01*
X73382186Y29595271D01*
X73415084Y29644505D01*
X73471658Y29781087D01*
X73500500Y29926082D01*
X73500500Y30932185D01*
X73519454Y31027473D01*
X73533860Y31056685D01*
X73542994Y31072507D01*
X73577179Y31131716D01*
X73635674Y31311744D01*
X73655460Y31500000D01*
X73635674Y31688256D01*
X73577179Y31868284D01*
X73482533Y32032216D01*
X73482531Y32032219D01*
X73482530Y32032220D01*
X73355873Y32172886D01*
X73355872Y32172887D01*
X73355871Y32172888D01*
X73249735Y32250000D01*
X73202728Y32284153D01*
X73029810Y32361142D01*
X73029796Y32361146D01*
X72844646Y32400500D01*
X72655354Y32400500D01*
X72470203Y32361146D01*
X72470189Y32361142D01*
X72297271Y32284153D01*
X72144126Y32172886D01*
X72017469Y32032220D01*
X71922822Y31868286D01*
X71864325Y31688256D01*
X71844540Y31500000D01*
X71864325Y31311745D01*
X71893037Y31223381D01*
X71922821Y31131716D01*
X71922822Y31131714D01*
X71922823Y31131712D01*
X71922824Y31131710D01*
X71966140Y31056685D01*
X71997370Y30964686D01*
X71999500Y30932185D01*
X71999500Y30414008D01*
X71980546Y30318720D01*
X71926570Y30237938D01*
X71262062Y29573430D01*
X71181280Y29519454D01*
X71085992Y29500500D01*
X67676079Y29500500D01*
X67531088Y29471659D01*
X67394507Y29415085D01*
X67394503Y29415083D01*
X67271585Y29332952D01*
X67271583Y29332951D01*
X66762062Y28823430D01*
X66681281Y28769454D01*
X66585993Y28750500D01*
X59914007Y28750500D01*
X59818719Y28769454D01*
X59737937Y28823430D01*
X59737937Y28823431D01*
X58823430Y29737939D01*
X58769454Y29818720D01*
X58750500Y29914008D01*
X58750500Y32932185D01*
X58769454Y33027473D01*
X58783860Y33056685D01*
X58792994Y33072507D01*
X58827179Y33131716D01*
X58885674Y33311744D01*
X58905460Y33500000D01*
X58885674Y33688256D01*
X58827179Y33868284D01*
X58732533Y34032216D01*
X58732531Y34032219D01*
X58732530Y34032220D01*
X58605873Y34172886D01*
X58605872Y34172887D01*
X58605871Y34172888D01*
X58529300Y34228520D01*
X58452728Y34284153D01*
X58279810Y34361142D01*
X58279796Y34361146D01*
X58094646Y34400500D01*
X57905354Y34400500D01*
X57720203Y34361146D01*
X57720189Y34361142D01*
X57547271Y34284153D01*
X57394126Y34172886D01*
X57267469Y34032220D01*
X57172822Y33868286D01*
X57114325Y33688256D01*
X57094540Y33500000D01*
X55250000Y33500000D01*
X55250000Y50166965D01*
X55268954Y50262253D01*
X55322927Y50343032D01*
X55358495Y50378599D01*
X55494035Y50572170D01*
X55593903Y50786337D01*
X55655063Y51014592D01*
X55675659Y51250000D01*
X55675659Y51250006D01*
X55655064Y51485402D01*
X55655063Y51485405D01*
X55655063Y51485408D01*
X55593903Y51713663D01*
X55494035Y51927829D01*
X55358495Y52121401D01*
X55322928Y52156968D01*
X55268953Y52237750D01*
X55250000Y52333036D01*
X55250000Y52625500D01*
X55268954Y52720788D01*
X55322930Y52801570D01*
X55403712Y52855546D01*
X55499000Y52874500D01*
X57651000Y52874500D01*
X57746288Y52855546D01*
G37*
%TD.AperFunction*%
%TD*%
%TA.AperFunction,Conductor*%
%TO.N,GNDD*%
G36*
X12066122Y52855546D02*
G01*
X12146904Y52801570D01*
X12200880Y52720788D01*
X12219834Y52625500D01*
X12200880Y52530212D01*
X12177872Y52487167D01*
X12133484Y52420733D01*
X12133480Y52420726D01*
X12099916Y52370496D01*
X12099913Y52370491D01*
X12043342Y52233915D01*
X12043341Y52233912D01*
X12014500Y52088921D01*
X12014500Y51082772D01*
X11995546Y50987484D01*
X11941570Y50906702D01*
X11908322Y50878804D01*
X11893595Y50868493D01*
X11889215Y50864817D01*
X11885206Y50862619D01*
X11884695Y50862260D01*
X11884655Y50862317D01*
X11804034Y50818091D01*
X11707456Y50807519D01*
X11614184Y50834710D01*
X11538417Y50895525D01*
X11529681Y50908322D01*
X11529026Y50907831D01*
X11432189Y51037188D01*
X11432187Y51037190D01*
X11317087Y51123354D01*
X11182378Y51173597D01*
X11182371Y51173599D01*
X11122832Y51180000D01*
X10475001Y51180000D01*
X10475000Y51179999D01*
X10475000Y50263012D01*
X10417993Y50295925D01*
X10290826Y50330000D01*
X10159174Y50330000D01*
X10032007Y50295925D01*
X9975000Y50263012D01*
X9975000Y51179999D01*
X9974999Y51180000D01*
X9327167Y51180000D01*
X9267628Y51173599D01*
X9267621Y51173597D01*
X9132912Y51123354D01*
X9017812Y51037190D01*
X9017810Y51037188D01*
X8931646Y50922088D01*
X8881403Y50787379D01*
X8881401Y50787372D01*
X8875000Y50727833D01*
X8875000Y50080001D01*
X8875001Y50080000D01*
X9791988Y50080000D01*
X9759075Y50022993D01*
X9725000Y49895826D01*
X9725000Y49764174D01*
X9759075Y49637007D01*
X9791988Y49580000D01*
X8875001Y49580000D01*
X8875000Y49579999D01*
X8875000Y48932168D01*
X8881401Y48872629D01*
X8881403Y48872622D01*
X8931646Y48737913D01*
X9017810Y48622813D01*
X9017812Y48622811D01*
X9132912Y48536647D01*
X9267621Y48486404D01*
X9267628Y48486402D01*
X9327167Y48480001D01*
X9327175Y48480000D01*
X9974999Y48480000D01*
X9975000Y48480001D01*
X9975000Y49396988D01*
X10032007Y49364075D01*
X10159174Y49330000D01*
X10290826Y49330000D01*
X10417993Y49364075D01*
X10475000Y49396988D01*
X10475000Y48480001D01*
X10475001Y48480000D01*
X11122825Y48480000D01*
X11122832Y48480001D01*
X11182371Y48486402D01*
X11182378Y48486404D01*
X11317087Y48536647D01*
X11432187Y48622811D01*
X11432189Y48622813D01*
X11529026Y48752169D01*
X11532313Y48749709D01*
X11572897Y48798286D01*
X11658978Y48843333D01*
X11755745Y48852009D01*
X11848466Y48822993D01*
X11889223Y48795177D01*
X11893593Y48791511D01*
X11893599Y48791505D01*
X12087170Y48655965D01*
X12301337Y48556097D01*
X12529592Y48494937D01*
X12529595Y48494937D01*
X12529598Y48494936D01*
X12764995Y48474341D01*
X12765000Y48474341D01*
X12765005Y48474341D01*
X13000401Y48494936D01*
X13000403Y48494937D01*
X13000408Y48494937D01*
X13228663Y48556097D01*
X13442830Y48655965D01*
X13636401Y48791505D01*
X13803495Y48958599D01*
X13939035Y49152170D01*
X14038903Y49366337D01*
X14100063Y49594592D01*
X14108258Y49688256D01*
X14120659Y49829995D01*
X14120659Y49830006D01*
X14100064Y50065402D01*
X14100063Y50065405D01*
X14100063Y50065408D01*
X14038903Y50293663D01*
X13952443Y50479075D01*
X13939038Y50507823D01*
X13939034Y50507831D01*
X13857785Y50623866D01*
X13803495Y50701401D01*
X13636401Y50868495D01*
X13621677Y50878805D01*
X13554495Y50948986D01*
X13519283Y51039535D01*
X13515500Y51082772D01*
X13515500Y51600993D01*
X13534454Y51696281D01*
X13588430Y51777063D01*
X13987937Y52176570D01*
X14068719Y52230546D01*
X14164007Y52249500D01*
X22085992Y52249500D01*
X22181280Y52230546D01*
X22262062Y52176570D01*
X23771584Y50667048D01*
X23831728Y50626862D01*
X23894505Y50584916D01*
X23894511Y50584914D01*
X23894512Y50584913D01*
X23921058Y50573917D01*
X23921059Y50573917D01*
X24031088Y50528341D01*
X24071403Y50520322D01*
X24134197Y50507831D01*
X24134203Y50507831D01*
X24134210Y50507829D01*
X24176082Y50499500D01*
X24176083Y50499500D01*
X24323918Y50499500D01*
X45109991Y50499500D01*
X45205279Y50480546D01*
X45286061Y50426570D01*
X45340037Y50345788D01*
X45349902Y50307109D01*
X45352326Y50307681D01*
X45355909Y50292516D01*
X45406203Y50157671D01*
X45406204Y50157669D01*
X45492454Y50042454D01*
X45607669Y49956204D01*
X45742517Y49905909D01*
X45802127Y49899500D01*
X47597872Y49899501D01*
X47657483Y49905909D01*
X47663980Y49908333D01*
X47759881Y49923876D01*
X47854433Y49901535D01*
X47933238Y49844712D01*
X47984298Y49762056D01*
X48000000Y49675034D01*
X48000000Y48987730D01*
X47981046Y48892442D01*
X47927070Y48811660D01*
X47813840Y48698430D01*
X47733058Y48644454D01*
X47637770Y48625500D01*
X32662230Y48625500D01*
X32566942Y48644454D01*
X32486160Y48698430D01*
X32170260Y49014330D01*
X32116284Y49095112D01*
X32098694Y49164374D01*
X32085674Y49288256D01*
X32072110Y49330000D01*
X32027179Y49468284D01*
X31932533Y49632216D01*
X31932531Y49632219D01*
X31932530Y49632220D01*
X31805873Y49772886D01*
X31805872Y49772887D01*
X31805871Y49772888D01*
X31727255Y49830006D01*
X31652728Y49884153D01*
X31479810Y49961142D01*
X31479796Y49961146D01*
X31294646Y50000500D01*
X31105354Y50000500D01*
X30920203Y49961146D01*
X30920189Y49961142D01*
X30747271Y49884153D01*
X30594126Y49772886D01*
X30467469Y49632220D01*
X30428298Y49564374D01*
X30372821Y49468284D01*
X30360350Y49429901D01*
X30314325Y49288256D01*
X30294540Y49100000D01*
X30314325Y48911745D01*
X30341824Y48827115D01*
X30372821Y48731716D01*
X30467467Y48567784D01*
X30488754Y48544142D01*
X30491481Y48541114D01*
X30541156Y48457618D01*
X30555097Y48361469D01*
X30531182Y48267303D01*
X30473052Y48189457D01*
X30389556Y48139782D01*
X30306438Y48125500D01*
X27962231Y48125500D01*
X27866943Y48144454D01*
X27786161Y48198430D01*
X26970260Y49014331D01*
X26916284Y49095113D01*
X26898694Y49164374D01*
X26893251Y49216160D01*
X26885674Y49288256D01*
X26827179Y49468284D01*
X26732533Y49632216D01*
X26732531Y49632219D01*
X26732530Y49632220D01*
X26605873Y49772886D01*
X26605872Y49772887D01*
X26605871Y49772888D01*
X26527255Y49830006D01*
X26452728Y49884153D01*
X26279810Y49961142D01*
X26279796Y49961146D01*
X26094646Y50000500D01*
X25905354Y50000500D01*
X25720203Y49961146D01*
X25720189Y49961142D01*
X25547271Y49884153D01*
X25394126Y49772886D01*
X25267469Y49632220D01*
X25228298Y49564374D01*
X25172821Y49468284D01*
X25160350Y49429901D01*
X25114325Y49288256D01*
X25094540Y49100000D01*
X25114325Y48911745D01*
X25141824Y48827115D01*
X25172821Y48731716D01*
X25245355Y48606083D01*
X25267469Y48567781D01*
X25355703Y48469788D01*
X25394129Y48427112D01*
X25475438Y48368038D01*
X25547271Y48315848D01*
X25720189Y48238859D01*
X25720192Y48238858D01*
X25720197Y48238856D01*
X25905354Y48199500D01*
X25912770Y48199500D01*
X26008058Y48180546D01*
X26088839Y48126571D01*
X27201267Y47014142D01*
X27303715Y46945688D01*
X27361908Y46921584D01*
X27361911Y46921582D01*
X27400197Y46905724D01*
X27417548Y46898537D01*
X27437597Y46894549D01*
X27538394Y46874499D01*
X27673895Y46874499D01*
X27673915Y46874500D01*
X50311607Y46874500D01*
X50372029Y46886519D01*
X50432452Y46898537D01*
X50482496Y46919266D01*
X50546286Y46945688D01*
X50597509Y46979916D01*
X50648733Y47014142D01*
X50735858Y47101267D01*
X50735860Y47101271D01*
X52178729Y48544140D01*
X52178733Y48544142D01*
X52265858Y48631267D01*
X52331179Y48729026D01*
X52334312Y48733715D01*
X52381463Y48847549D01*
X52388744Y48884151D01*
X52391023Y48895608D01*
X52398089Y48931131D01*
X52405378Y48967781D01*
X52405500Y48968393D01*
X52405500Y49091607D01*
X52405500Y49751000D01*
X52424454Y49846288D01*
X52478430Y49927070D01*
X52559212Y49981046D01*
X52654500Y50000000D01*
X53751059Y50000000D01*
X53846347Y49981046D01*
X53856288Y49976672D01*
X53856505Y49976571D01*
X54070000Y49919366D01*
X54070000Y50816988D01*
X54127007Y50784075D01*
X54254174Y50750000D01*
X54385826Y50750000D01*
X54512993Y50784075D01*
X54570000Y50816988D01*
X54570000Y49919366D01*
X54647081Y49860219D01*
X54711140Y49787174D01*
X54742370Y49695176D01*
X54744500Y49662674D01*
X54744500Y22899000D01*
X54725546Y22803712D01*
X54671570Y22722930D01*
X54590788Y22668954D01*
X54495500Y22650000D01*
X53279322Y22650000D01*
X53230738Y22654786D01*
X53227048Y22655520D01*
X53223689Y22656189D01*
X53105258Y22679749D01*
X53105253Y22679750D01*
X53105251Y22679750D01*
X53081609Y22679751D01*
X53081606Y22679751D01*
X53081600Y22679751D01*
X53003187Y22679751D01*
X53002935Y22679801D01*
X52814745Y22679800D01*
X52716198Y22660195D01*
X52689010Y22654786D01*
X52640429Y22650000D01*
X52079458Y22650000D01*
X52030877Y22654785D01*
X52027182Y22655520D01*
X51905247Y22679776D01*
X51803163Y22679776D01*
X51803042Y22679800D01*
X51700000Y22679800D01*
X51614750Y22679800D01*
X51489000Y22654785D01*
X51440419Y22650000D01*
X50879322Y22650000D01*
X50830738Y22654786D01*
X50827048Y22655520D01*
X50823689Y22656189D01*
X50705258Y22679749D01*
X50705253Y22679750D01*
X50705251Y22679750D01*
X50681609Y22679751D01*
X50681606Y22679751D01*
X50681600Y22679751D01*
X50603187Y22679751D01*
X50602935Y22679801D01*
X50414745Y22679800D01*
X50414743Y22679799D01*
X50247515Y22646532D01*
X50247509Y22646530D01*
X50089991Y22581275D01*
X50089983Y22581270D01*
X49948214Y22486528D01*
X49827660Y22365949D01*
X49732944Y22224158D01*
X49667720Y22066624D01*
X49667720Y22066622D01*
X49667719Y22066619D01*
X49661242Y22034026D01*
X49634482Y21899377D01*
X49634500Y21816467D01*
X49634500Y21349500D01*
X49615546Y21254212D01*
X49561570Y21173430D01*
X49480788Y21119454D01*
X49385500Y21100500D01*
X47637231Y21100500D01*
X47541943Y21119454D01*
X47461161Y21173430D01*
X47198430Y21436161D01*
X47144454Y21516943D01*
X47125500Y21612231D01*
X47125500Y25426085D01*
X47125501Y25426106D01*
X47125501Y25561607D01*
X47125500Y25561612D01*
X47101465Y25682444D01*
X47101463Y25682451D01*
X47095790Y25696146D01*
X47079341Y25735858D01*
X47075882Y25744208D01*
X47054313Y25796283D01*
X47034479Y25825966D01*
X46985858Y25898733D01*
X44735859Y28148731D01*
X44735858Y28148733D01*
X44648733Y28235858D01*
X44627568Y28250000D01*
X44591794Y28273904D01*
X44591792Y28273905D01*
X44546286Y28304312D01*
X44443515Y28346881D01*
X44443514Y28346881D01*
X44443507Y28346884D01*
X44432453Y28351463D01*
X44432449Y28351464D01*
X44372032Y28363482D01*
X44311612Y28375500D01*
X44311607Y28375500D01*
X44311606Y28375500D01*
X41502000Y28375500D01*
X41406712Y28394454D01*
X41355642Y28423055D01*
X41202731Y28534151D01*
X41202730Y28534152D01*
X41029810Y28611142D01*
X41029796Y28611146D01*
X40844646Y28650500D01*
X40655354Y28650500D01*
X40647083Y28650500D01*
X40637547Y28650000D01*
X39374500Y28650000D01*
X39279212Y28668954D01*
X39198430Y28722930D01*
X39144454Y28803712D01*
X39125500Y28899000D01*
X39125500Y42561607D01*
X39117124Y42603713D01*
X39117122Y42603722D01*
X39112308Y42627930D01*
X39101463Y42682452D01*
X39079341Y42735858D01*
X39054312Y42796285D01*
X39024962Y42840210D01*
X38985858Y42898733D01*
X38898733Y42985858D01*
X38898729Y42985861D01*
X36485860Y45398730D01*
X36485858Y45398733D01*
X36398733Y45485858D01*
X36347509Y45520085D01*
X36346816Y45520548D01*
X36296288Y45554311D01*
X36296286Y45554312D01*
X36215792Y45587653D01*
X36215791Y45587654D01*
X36197554Y45595208D01*
X36182452Y45601463D01*
X36182449Y45601464D01*
X36182446Y45601465D01*
X36122032Y45613482D01*
X36061612Y45625500D01*
X36061607Y45625500D01*
X36061606Y45625500D01*
X26112230Y45625500D01*
X26016942Y45644454D01*
X25936160Y45698430D01*
X22220260Y49414330D01*
X22166284Y49495112D01*
X22148694Y49564374D01*
X22135674Y49688256D01*
X22077179Y49868284D01*
X21982533Y50032216D01*
X21982531Y50032219D01*
X21982530Y50032220D01*
X21855873Y50172886D01*
X21855872Y50172887D01*
X21855871Y50172888D01*
X21779300Y50228520D01*
X21702728Y50284153D01*
X21529810Y50361142D01*
X21529796Y50361146D01*
X21344646Y50400500D01*
X21155354Y50400500D01*
X20970203Y50361146D01*
X20970189Y50361142D01*
X20797271Y50284153D01*
X20644126Y50172886D01*
X20517469Y50032220D01*
X20422822Y49868286D01*
X20364325Y49688256D01*
X20344540Y49500000D01*
X20364325Y49311745D01*
X20393573Y49221730D01*
X20422821Y49131716D01*
X20517117Y48968390D01*
X20517469Y48967781D01*
X20644126Y48827115D01*
X20644129Y48827112D01*
X20772688Y48733709D01*
X20797270Y48715849D01*
X20797630Y48715641D01*
X20797986Y48715328D01*
X20807828Y48708178D01*
X20807171Y48707274D01*
X20870675Y48651582D01*
X20913646Y48564447D01*
X20920001Y48467500D01*
X20888772Y48375501D01*
X20824713Y48302456D01*
X20797630Y48284359D01*
X20797270Y48284152D01*
X20644126Y48172886D01*
X20517469Y48032220D01*
X20422822Y47868286D01*
X20364325Y47688256D01*
X20344540Y47500000D01*
X20364325Y47311745D01*
X20393573Y47221730D01*
X20422821Y47131716D01*
X20512847Y46975786D01*
X20517469Y46967781D01*
X20601461Y46874499D01*
X20644129Y46827112D01*
X20758984Y46743665D01*
X20797271Y46715848D01*
X20970189Y46638859D01*
X20970192Y46638858D01*
X20970197Y46638856D01*
X21155354Y46599500D01*
X21162770Y46599500D01*
X21258058Y46580546D01*
X21338840Y46526570D01*
X22177070Y45688340D01*
X22231046Y45607558D01*
X22250000Y45512270D01*
X22250000Y44801992D01*
X22231046Y44706704D01*
X22177070Y44625922D01*
X22096288Y44571947D01*
X22053715Y44554312D01*
X22053713Y44554312D01*
X22053711Y44554310D01*
X22028191Y44537259D01*
X22028190Y44537257D01*
X21951267Y44485858D01*
X21864142Y44398733D01*
X21864139Y44398730D01*
X21864138Y44398731D01*
X21338841Y43873431D01*
X21258060Y43819454D01*
X21162771Y43800500D01*
X21155354Y43800500D01*
X20970203Y43761146D01*
X20970189Y43761142D01*
X20797271Y43684153D01*
X20644126Y43572886D01*
X20517469Y43432220D01*
X20422822Y43268286D01*
X20364325Y43088256D01*
X20344540Y42900000D01*
X20364325Y42711745D01*
X20387605Y42640099D01*
X20422821Y42531716D01*
X20422822Y42531715D01*
X20517469Y42367781D01*
X20644126Y42227115D01*
X20644129Y42227112D01*
X20758984Y42143665D01*
X20797271Y42115848D01*
X20970189Y42038859D01*
X20970192Y42038858D01*
X20970197Y42038856D01*
X21155354Y41999500D01*
X21344645Y41999500D01*
X21344646Y41999500D01*
X21529803Y42038856D01*
X21581026Y42061662D01*
X21702728Y42115848D01*
X21702728Y42115849D01*
X21702730Y42115849D01*
X21855871Y42227112D01*
X21982533Y42367784D01*
X22077179Y42531716D01*
X22135674Y42711744D01*
X22148694Y42835632D01*
X22177504Y42928414D01*
X22220257Y42985669D01*
X22536160Y43301570D01*
X22616942Y43355546D01*
X22712229Y43374500D01*
X31501000Y43374500D01*
X31596288Y43355546D01*
X31677070Y43301570D01*
X31731046Y43220788D01*
X31750000Y43125500D01*
X31750000Y42237731D01*
X31731046Y42142443D01*
X31677070Y42061662D01*
X30013841Y40398431D01*
X29933059Y40344454D01*
X29837771Y40325500D01*
X17999975Y40325500D01*
X17904687Y40344454D01*
X17823905Y40398430D01*
X17769934Y40479199D01*
X17748029Y40532075D01*
X17736991Y40558719D01*
X17653171Y40684151D01*
X17642274Y40700458D01*
X17642268Y40700466D01*
X17521713Y40821012D01*
X17521710Y40821014D01*
X17498503Y40836519D01*
X17379958Y40915723D01*
X17239491Y40973903D01*
X17222448Y40980962D01*
X17096757Y41005963D01*
X17055242Y41014220D01*
X17055241Y41014220D01*
X16998697Y41014220D01*
X16903409Y41033174D01*
X16822627Y41087150D01*
X16768651Y41167932D01*
X16750902Y41250000D01*
X16750000Y41250000D01*
X14208767Y41250000D01*
X14113479Y41268954D01*
X14032697Y41322930D01*
X13978721Y41403712D01*
X13959767Y41499000D01*
X13978721Y41594288D01*
X13983097Y41604232D01*
X14063429Y41776506D01*
X14063433Y41776517D01*
X14120636Y41989999D01*
X14120636Y41990000D01*
X13223012Y41990000D01*
X13255925Y42047007D01*
X13290000Y42174174D01*
X13290000Y42305826D01*
X13255925Y42432993D01*
X13223012Y42490000D01*
X14120636Y42490000D01*
X14120636Y42490002D01*
X14063433Y42703484D01*
X14063429Y42703495D01*
X13963603Y42917572D01*
X13963599Y42917580D01*
X13828106Y43111082D01*
X13824704Y43115137D01*
X13822665Y43118853D01*
X13821874Y43119983D01*
X13821997Y43120070D01*
X13777974Y43200315D01*
X13767398Y43296893D01*
X13794585Y43390166D01*
X13855397Y43465936D01*
X13868540Y43474907D01*
X13868073Y43475531D01*
X13882329Y43486204D01*
X13882331Y43486204D01*
X13997546Y43572454D01*
X14083796Y43687669D01*
X14134091Y43822517D01*
X14140500Y43882127D01*
X14140499Y45677872D01*
X14134091Y45737483D01*
X14083796Y45872331D01*
X13997546Y45987546D01*
X13882331Y46073796D01*
X13802117Y46103714D01*
X13747481Y46124092D01*
X13687873Y46130500D01*
X11892134Y46130500D01*
X11892130Y46130500D01*
X11892128Y46130499D01*
X11879314Y46129122D01*
X11832519Y46124092D01*
X11832515Y46124091D01*
X11697670Y46073797D01*
X11582455Y45987547D01*
X11582453Y45987545D01*
X11485531Y45858073D01*
X11482234Y45860541D01*
X11441587Y45811949D01*
X11355478Y45766956D01*
X11258706Y45758340D01*
X11166003Y45787413D01*
X11125387Y45815151D01*
X11121403Y45818493D01*
X11121401Y45818495D01*
X10927830Y45954035D01*
X10713663Y46053903D01*
X10713660Y46053904D01*
X10485401Y46115065D01*
X10250005Y46135659D01*
X10249995Y46135659D01*
X10014598Y46115065D01*
X9786335Y46053903D01*
X9786333Y46053902D01*
X9572177Y45954039D01*
X9572169Y45954035D01*
X9378600Y45818496D01*
X9211504Y45651400D01*
X9075965Y45457831D01*
X9075961Y45457823D01*
X8976098Y45243667D01*
X8976097Y45243665D01*
X8914935Y45015402D01*
X8894341Y44780006D01*
X8894341Y44779995D01*
X8914935Y44544599D01*
X8930674Y44485858D01*
X8976097Y44316337D01*
X9075965Y44102170D01*
X9211505Y43908599D01*
X9378599Y43741505D01*
X9418362Y43713662D01*
X9485544Y43643483D01*
X9520757Y43552933D01*
X9518638Y43455802D01*
X9479509Y43366874D01*
X9418364Y43305728D01*
X9378923Y43278111D01*
X9211889Y43111077D01*
X9076400Y42917580D01*
X9076396Y42917572D01*
X8976570Y42703495D01*
X8976566Y42703484D01*
X8919363Y42490002D01*
X8919364Y42490000D01*
X9816988Y42490000D01*
X9784075Y42432993D01*
X9750000Y42305826D01*
X9750000Y42174174D01*
X9784075Y42047007D01*
X9816988Y41990000D01*
X9000250Y41990000D01*
X9000000Y42000000D01*
X9000000Y41990000D01*
X8919364Y41990000D01*
X8976569Y41776508D01*
X8976668Y41776296D01*
X8976712Y41776113D01*
X8980286Y41766296D01*
X8979211Y41765905D01*
X8999763Y41681926D01*
X9000000Y41671059D01*
X9000000Y40270125D01*
X8981046Y40174837D01*
X8976671Y40164895D01*
X8976098Y40163668D01*
X8976097Y40163665D01*
X8914935Y39935402D01*
X8894341Y39700006D01*
X8894341Y39699995D01*
X8914935Y39464599D01*
X8940876Y39367785D01*
X8976097Y39236337D01*
X8976668Y39235111D01*
X8976926Y39234059D01*
X8979814Y39226125D01*
X8978945Y39225809D01*
X8999763Y39140744D01*
X9000000Y39129876D01*
X9000000Y37730125D01*
X8981046Y37634837D01*
X8976671Y37624895D01*
X8976098Y37623668D01*
X8976097Y37623665D01*
X8914935Y37395402D01*
X8894341Y37160006D01*
X8894341Y37159995D01*
X8914935Y36924599D01*
X8941867Y36824088D01*
X8976097Y36696337D01*
X8976668Y36695111D01*
X8976926Y36694059D01*
X8979814Y36686125D01*
X8978945Y36685809D01*
X8999763Y36600744D01*
X9000000Y36589876D01*
X9000000Y35190125D01*
X8981046Y35094837D01*
X8976671Y35084895D01*
X8976098Y35083668D01*
X8976097Y35083665D01*
X8914935Y34855402D01*
X8894341Y34620006D01*
X8894341Y34619995D01*
X8914935Y34384599D01*
X8914937Y34384592D01*
X8976097Y34156337D01*
X8976668Y34155111D01*
X8976926Y34154059D01*
X8979814Y34146125D01*
X8978945Y34145809D01*
X8999763Y34060744D01*
X9000000Y34049876D01*
X9000000Y32650125D01*
X8981046Y32554837D01*
X8976671Y32544895D01*
X8976098Y32543668D01*
X8976097Y32543665D01*
X8914935Y32315402D01*
X8894341Y32080006D01*
X8894341Y32079995D01*
X8914935Y31844599D01*
X8961876Y31669409D01*
X8976097Y31616337D01*
X9060631Y31435053D01*
X9075965Y31402170D01*
X9199638Y31225546D01*
X9211505Y31208599D01*
X9378599Y31041505D01*
X9572170Y30905965D01*
X9786337Y30806097D01*
X10014592Y30744937D01*
X10204726Y30728302D01*
X10297994Y30701117D01*
X10359089Y30656321D01*
X10664139Y30351271D01*
X10664142Y30351267D01*
X10751267Y30264142D01*
X10853714Y30195689D01*
X10967548Y30148537D01*
X11027971Y30136519D01*
X11057767Y30130592D01*
X11088392Y30124500D01*
X11088393Y30124500D01*
X11088394Y30124500D01*
X15788394Y30124500D01*
X17023782Y30124500D01*
X17119070Y30105546D01*
X17199852Y30051570D01*
X17253828Y29970788D01*
X17264097Y29936933D01*
X17264212Y29936967D01*
X17267761Y29925265D01*
X17333002Y29767750D01*
X17333003Y29767749D01*
X17427715Y29625995D01*
X17427718Y29625991D01*
X17548272Y29505435D01*
X17690028Y29410714D01*
X17690030Y29410714D01*
X17690032Y29410712D01*
X17770893Y29377218D01*
X17847540Y29345469D01*
X18014753Y29312208D01*
X18014754Y29312207D01*
X18014755Y29312207D01*
X18038394Y29312207D01*
X18116854Y29312207D01*
X18116889Y29312200D01*
X18220000Y29312200D01*
X18305247Y29312200D01*
X18305248Y29312201D01*
X18361483Y29323387D01*
X18472459Y29345461D01*
X18472460Y29345462D01*
X18472462Y29345462D01*
X18629975Y29410707D01*
X18629979Y29410711D01*
X18640766Y29416475D01*
X18642264Y29413672D01*
X18711300Y29442303D01*
X18808455Y29442348D01*
X18877769Y29413674D01*
X18879252Y29416447D01*
X18890038Y29410682D01*
X18890039Y29410682D01*
X18890040Y29410681D01*
X19047549Y29345442D01*
X19214758Y29312184D01*
X19214761Y29312184D01*
X19494409Y29312184D01*
X19494691Y29312200D01*
X19505241Y29312199D01*
X19645012Y29340000D01*
X19672443Y29345456D01*
X19672443Y29345457D01*
X19672447Y29345457D01*
X19829952Y29410695D01*
X19971705Y29505406D01*
X20092257Y29625951D01*
X20186978Y29767697D01*
X20252226Y29925198D01*
X20255778Y29936903D01*
X20257141Y29936490D01*
X20289193Y30013852D01*
X20357897Y30082546D01*
X20447660Y30119719D01*
X20496219Y30124500D01*
X31587770Y30124500D01*
X31683058Y30105546D01*
X31763840Y30051570D01*
X34629739Y27185670D01*
X34683715Y27104888D01*
X34701305Y27035628D01*
X34712106Y26932867D01*
X34714326Y26911744D01*
X34772821Y26731716D01*
X34850747Y26596744D01*
X34867469Y26567781D01*
X34994125Y26427116D01*
X34994129Y26427112D01*
X35052777Y26384502D01*
X35147271Y26315848D01*
X35320189Y26238859D01*
X35320192Y26238858D01*
X35320197Y26238856D01*
X35505354Y26199500D01*
X35694643Y26199500D01*
X35694646Y26199500D01*
X35699228Y26200475D01*
X35704581Y26200545D01*
X35707624Y26200864D01*
X35707653Y26200585D01*
X35796372Y26201747D01*
X35886611Y26165748D01*
X35956205Y26097955D01*
X35994558Y26008691D01*
X36000000Y25956916D01*
X36000000Y24478465D01*
X36010611Y24462584D01*
X36029565Y24367296D01*
X36010611Y24272008D01*
X35956635Y24191226D01*
X32463840Y20698430D01*
X32383058Y20644454D01*
X32287770Y20625500D01*
X24002292Y20625500D01*
X23907004Y20644454D01*
X23826222Y20698430D01*
X23772246Y20779212D01*
X23758076Y20825923D01*
X23752240Y20855263D01*
X23717843Y20938302D01*
X23692287Y21000000D01*
X23686996Y21012773D01*
X23592277Y21154529D01*
X23471723Y21275081D01*
X23406269Y21318816D01*
X23329968Y21369799D01*
X23329961Y21369802D01*
X23211833Y21418732D01*
X23172458Y21435041D01*
X23172459Y21435041D01*
X23172457Y21435042D01*
X23172456Y21435042D01*
X23005244Y21468302D01*
X22981606Y21468302D01*
X22738394Y21468302D01*
X22726116Y21468302D01*
X22726076Y21468300D01*
X22714756Y21468300D01*
X22643161Y21454059D01*
X22547541Y21435040D01*
X22390033Y21369798D01*
X22248275Y21275078D01*
X22127727Y21154530D01*
X22127722Y21154524D01*
X22033008Y21012776D01*
X22033003Y21012767D01*
X21994904Y20920788D01*
X21967762Y20855263D01*
X21962163Y20827112D01*
X21961926Y20825923D01*
X21924746Y20736163D01*
X21856047Y20667464D01*
X21766288Y20630285D01*
X21717710Y20625500D01*
X18938387Y20625500D01*
X18877973Y20613484D01*
X18877974Y20613483D01*
X18817550Y20601464D01*
X18817548Y20601463D01*
X18770397Y20581933D01*
X18770395Y20581933D01*
X18703720Y20554315D01*
X18703706Y20554308D01*
X18695366Y20548736D01*
X18695367Y20548735D01*
X18601271Y20485862D01*
X18601267Y20485858D01*
X18514142Y20398733D01*
X18514139Y20398730D01*
X17080930Y18965520D01*
X15653840Y17538430D01*
X15573058Y17484454D01*
X15477770Y17465500D01*
X14249000Y17465500D01*
X14153712Y17484454D01*
X14072930Y17538430D01*
X14018954Y17619212D01*
X14000000Y17714500D01*
X14000000Y18725279D01*
X14018954Y18820567D01*
X14023329Y18830511D01*
X14063433Y18916515D01*
X14063433Y18916517D01*
X14120636Y19129999D01*
X14120636Y19130000D01*
X13223012Y19130000D01*
X13255925Y19187007D01*
X13290000Y19314174D01*
X13290000Y19445826D01*
X13255925Y19572993D01*
X13223012Y19630000D01*
X14120636Y19630000D01*
X14120636Y19630002D01*
X14063433Y19843484D01*
X14063431Y19843491D01*
X14023329Y19929491D01*
X14000237Y20023862D01*
X14000000Y20034722D01*
X14000000Y20632857D01*
X14018954Y20728145D01*
X14049667Y20782079D01*
X14083796Y20827669D01*
X14134091Y20962517D01*
X14140500Y21022127D01*
X14140499Y22817872D01*
X14134091Y22877483D01*
X14083796Y23012331D01*
X13997546Y23127546D01*
X13882331Y23213796D01*
X13775123Y23253782D01*
X13747481Y23264092D01*
X13687873Y23270500D01*
X11892134Y23270500D01*
X11892130Y23270500D01*
X11892128Y23270499D01*
X11868283Y23267936D01*
X11832514Y23264091D01*
X11817363Y23260510D01*
X11816982Y23262119D01*
X11749815Y23250000D01*
X10535908Y23250000D01*
X10492673Y23253782D01*
X10485401Y23255065D01*
X10250005Y23275659D01*
X10249995Y23275659D01*
X10014598Y23255065D01*
X9786335Y23193903D01*
X9786333Y23193902D01*
X9572177Y23094039D01*
X9572169Y23094035D01*
X9378600Y22958496D01*
X9211504Y22791400D01*
X9075965Y22597831D01*
X9075961Y22597823D01*
X8976098Y22383667D01*
X8976097Y22383665D01*
X8914935Y22155402D01*
X8894341Y21920006D01*
X8894341Y21919995D01*
X8914935Y21684599D01*
X8914937Y21684592D01*
X8976097Y21456337D01*
X8976668Y21455111D01*
X8976926Y21454059D01*
X8979814Y21446125D01*
X8978945Y21445809D01*
X8999763Y21360744D01*
X9000000Y21349876D01*
X9000000Y19948941D01*
X8981046Y19853653D01*
X8976672Y19843712D01*
X8976568Y19843492D01*
X8976566Y19843484D01*
X8919363Y19630002D01*
X8919364Y19630000D01*
X9816988Y19630000D01*
X9784075Y19572993D01*
X9750000Y19445826D01*
X9750000Y19314174D01*
X9784075Y19187007D01*
X9816988Y19130000D01*
X8919364Y19130000D01*
X8976569Y18916508D01*
X8976668Y18916296D01*
X8976712Y18916113D01*
X8980286Y18906296D01*
X8979211Y18905905D01*
X8999763Y18821926D01*
X9000000Y18811059D01*
X9000000Y17410125D01*
X8981046Y17314837D01*
X8976671Y17304895D01*
X8976098Y17303668D01*
X8976097Y17303665D01*
X8914935Y17075402D01*
X8894341Y16840006D01*
X8894341Y16839995D01*
X8914935Y16604599D01*
X8929412Y16550570D01*
X8976097Y16376337D01*
X8976668Y16375111D01*
X8976926Y16374059D01*
X8979814Y16366125D01*
X8978945Y16365809D01*
X8999763Y16280744D01*
X9000000Y16269876D01*
X9000000Y14870125D01*
X8981046Y14774837D01*
X8976671Y14764895D01*
X8976098Y14763668D01*
X8976097Y14763665D01*
X8914935Y14535402D01*
X8894341Y14300006D01*
X8894341Y14299995D01*
X8914935Y14064599D01*
X8914937Y14064592D01*
X8976097Y13836337D01*
X8976668Y13835111D01*
X8976926Y13834059D01*
X8979814Y13826125D01*
X8978945Y13825809D01*
X8999763Y13740744D01*
X9000000Y13729876D01*
X9000000Y12330125D01*
X8981046Y12234837D01*
X8976671Y12224895D01*
X8976098Y12223668D01*
X8976097Y12223665D01*
X8914935Y11995402D01*
X8894341Y11760006D01*
X8894341Y11759995D01*
X8914935Y11524599D01*
X8914937Y11524592D01*
X8976097Y11296337D01*
X8976668Y11295111D01*
X8976926Y11294059D01*
X8979814Y11286125D01*
X8978945Y11285809D01*
X8999763Y11200744D01*
X9000000Y11189876D01*
X9000000Y9790125D01*
X8981046Y9694837D01*
X8976671Y9684895D01*
X8976098Y9683668D01*
X8976097Y9683665D01*
X8914935Y9455402D01*
X8894341Y9220006D01*
X8894341Y9219995D01*
X8914935Y8984599D01*
X8970765Y8776234D01*
X8976097Y8756337D01*
X9055180Y8586744D01*
X9075965Y8542170D01*
X9156529Y8427112D01*
X9211505Y8348599D01*
X9378599Y8181505D01*
X9572170Y8045965D01*
X9786337Y7946097D01*
X10014592Y7884937D01*
X10014595Y7884937D01*
X10014598Y7884936D01*
X10249995Y7864341D01*
X10250000Y7864341D01*
X10250005Y7864341D01*
X10485401Y7884936D01*
X10485403Y7884937D01*
X10485408Y7884937D01*
X10713663Y7946097D01*
X10713681Y7946106D01*
X10715353Y7946713D01*
X10716784Y7946934D01*
X10724165Y7948911D01*
X10724381Y7948104D01*
X10811376Y7961500D01*
X10905749Y7938415D01*
X10976604Y7888806D01*
X11514139Y7351271D01*
X11514142Y7351267D01*
X11601267Y7264142D01*
X11618259Y7252788D01*
X11648696Y7232451D01*
X11648698Y7232449D01*
X11703709Y7195691D01*
X11703712Y7195690D01*
X11703715Y7195688D01*
X11728850Y7185277D01*
X11754875Y7174497D01*
X11754874Y7174497D01*
X11791588Y7159291D01*
X11817548Y7148537D01*
X11877971Y7136519D01*
X11907767Y7130592D01*
X11938392Y7124500D01*
X11938393Y7124500D01*
X16061607Y7124500D01*
X16122029Y7136519D01*
X16182452Y7148537D01*
X16232496Y7169266D01*
X16296286Y7195688D01*
X16314766Y7208037D01*
X16404522Y7245215D01*
X16453102Y7250000D01*
X21751000Y7250000D01*
X21846288Y7231046D01*
X21927070Y7177070D01*
X21981046Y7096288D01*
X22000000Y7001000D01*
X22000000Y5818682D01*
X21981046Y5723394D01*
X21966641Y5694184D01*
X21922823Y5618289D01*
X21922821Y5618286D01*
X21922821Y5618284D01*
X21909370Y5576886D01*
X21864325Y5438256D01*
X21844540Y5250000D01*
X21864325Y5061745D01*
X21892464Y4975145D01*
X21922821Y4881716D01*
X21922822Y4881714D01*
X21922823Y4881712D01*
X21922824Y4881710D01*
X21966640Y4805819D01*
X21997870Y4713820D01*
X22000000Y4681319D01*
X22000000Y1624500D01*
X21981046Y1529212D01*
X21927070Y1448430D01*
X21846288Y1394454D01*
X21751000Y1375500D01*
X6977013Y1375500D01*
X6881725Y1394454D01*
X6800943Y1448430D01*
X6746967Y1529212D01*
X6728013Y1624500D01*
X6746967Y1719788D01*
X6755152Y1737543D01*
X6885213Y1992805D01*
X6885214Y1992806D01*
X7024214Y2354913D01*
X7124602Y2729567D01*
X7185278Y3112662D01*
X7205578Y3500000D01*
X7185278Y3887338D01*
X7124602Y4270433D01*
X7024214Y4645087D01*
X6885214Y5007194D01*
X6854317Y5067833D01*
X8875000Y5067833D01*
X8875000Y4420001D01*
X8875001Y4420000D01*
X9791988Y4420000D01*
X9759075Y4362993D01*
X9725000Y4235826D01*
X9725000Y4104174D01*
X9759075Y3977007D01*
X9791988Y3920000D01*
X8875001Y3920000D01*
X8875000Y3919999D01*
X8875000Y3272168D01*
X8881401Y3212629D01*
X8881403Y3212622D01*
X8931646Y3077913D01*
X9017810Y2962813D01*
X9017812Y2962811D01*
X9132912Y2876647D01*
X9267621Y2826404D01*
X9267628Y2826402D01*
X9327167Y2820001D01*
X9327175Y2820000D01*
X9974999Y2820000D01*
X9975000Y2820001D01*
X9975000Y3736988D01*
X10032007Y3704075D01*
X10159174Y3670000D01*
X10290826Y3670000D01*
X10417993Y3704075D01*
X10475000Y3736988D01*
X10475000Y2820001D01*
X10475001Y2820000D01*
X11122825Y2820000D01*
X11122832Y2820001D01*
X11182371Y2826402D01*
X11182378Y2826404D01*
X11317087Y2876647D01*
X11432187Y2962811D01*
X11432189Y2962813D01*
X11529026Y3092169D01*
X11532313Y3089709D01*
X11572897Y3138286D01*
X11658978Y3183333D01*
X11755745Y3192009D01*
X11848466Y3162993D01*
X11889223Y3135177D01*
X11893593Y3131511D01*
X11893599Y3131505D01*
X12087170Y2995965D01*
X12301337Y2896097D01*
X12529592Y2834937D01*
X12529595Y2834937D01*
X12529598Y2834936D01*
X12764995Y2814341D01*
X12765000Y2814341D01*
X12765005Y2814341D01*
X13000401Y2834936D01*
X13000403Y2834937D01*
X13000408Y2834937D01*
X13228663Y2896097D01*
X13442830Y2995965D01*
X13636401Y3131505D01*
X13803495Y3298599D01*
X13939035Y3492170D01*
X14038903Y3706337D01*
X14100063Y3934592D01*
X14100064Y3934599D01*
X14120659Y4169995D01*
X14120659Y4170006D01*
X14100064Y4405402D01*
X14100063Y4405405D01*
X14100063Y4405408D01*
X14038903Y4633663D01*
X13983427Y4752630D01*
X13939038Y4847823D01*
X13939034Y4847831D01*
X13872467Y4942898D01*
X13803495Y5041401D01*
X13636401Y5208495D01*
X13615504Y5223127D01*
X13442830Y5344035D01*
X13371729Y5377190D01*
X13228663Y5443903D01*
X13228660Y5443904D01*
X13000401Y5505065D01*
X12765005Y5525659D01*
X12764995Y5525659D01*
X12529598Y5505065D01*
X12301335Y5443903D01*
X12301333Y5443902D01*
X12087177Y5344039D01*
X12087169Y5344035D01*
X11893592Y5208490D01*
X11889215Y5204817D01*
X11885208Y5202620D01*
X11884694Y5202259D01*
X11884654Y5202316D01*
X11804034Y5158091D01*
X11707456Y5147519D01*
X11614184Y5174710D01*
X11538417Y5235525D01*
X11529681Y5248322D01*
X11529026Y5247831D01*
X11432189Y5377188D01*
X11432187Y5377190D01*
X11317087Y5463354D01*
X11182378Y5513597D01*
X11182371Y5513599D01*
X11122832Y5520000D01*
X10475001Y5520000D01*
X10475000Y5519999D01*
X10475000Y4603012D01*
X10417993Y4635925D01*
X10290826Y4670000D01*
X10159174Y4670000D01*
X10032007Y4635925D01*
X9975000Y4603012D01*
X9975000Y5519999D01*
X9974999Y5520000D01*
X9327167Y5520000D01*
X9267628Y5513599D01*
X9267621Y5513597D01*
X9132912Y5463354D01*
X9017812Y5377190D01*
X9017810Y5377188D01*
X8931646Y5262088D01*
X8881403Y5127379D01*
X8881401Y5127372D01*
X8875000Y5067833D01*
X6854317Y5067833D01*
X6709125Y5352789D01*
X6541757Y5610513D01*
X6497875Y5678086D01*
X6253786Y5979510D01*
X6253785Y5979511D01*
X6253781Y5979516D01*
X5979516Y6253781D01*
X5964931Y6265592D01*
X5678085Y6497876D01*
X5352789Y6709125D01*
X5352784Y6709128D01*
X5007195Y6885214D01*
X4826140Y6954714D01*
X4645087Y7024214D01*
X4270433Y7124602D01*
X4270429Y7124603D01*
X4270428Y7124603D01*
X3955394Y7174499D01*
X3887344Y7185277D01*
X3887345Y7185277D01*
X3887343Y7185278D01*
X3887338Y7185278D01*
X3500000Y7205578D01*
X3112662Y7185278D01*
X3112656Y7185278D01*
X3112654Y7185277D01*
X2729571Y7124603D01*
X2729567Y7124603D01*
X2729567Y7124602D01*
X2451137Y7049997D01*
X2354913Y7024214D01*
X1992804Y6885214D01*
X1647215Y6709128D01*
X1647210Y6709125D01*
X1510115Y6620094D01*
X1419876Y6584092D01*
X1322730Y6585364D01*
X1233465Y6623716D01*
X1165671Y6693308D01*
X1129669Y6783547D01*
X1125500Y6828923D01*
X1125500Y27897833D01*
X8875000Y27897833D01*
X8875000Y27250001D01*
X8875001Y27250000D01*
X9791988Y27250000D01*
X9759075Y27192993D01*
X9725000Y27065826D01*
X9725000Y26934174D01*
X9759075Y26807007D01*
X9791988Y26750000D01*
X8875001Y26750000D01*
X8875000Y26749999D01*
X8875000Y26102168D01*
X8881401Y26042629D01*
X8881403Y26042622D01*
X8931646Y25907913D01*
X9017810Y25792813D01*
X9017812Y25792811D01*
X9132912Y25706647D01*
X9267621Y25656404D01*
X9267628Y25656402D01*
X9327167Y25650001D01*
X9327175Y25650000D01*
X9974999Y25650000D01*
X9975000Y25650001D01*
X9975000Y26566988D01*
X10032007Y26534075D01*
X10159174Y26500000D01*
X10290826Y26500000D01*
X10417993Y26534075D01*
X10475000Y26566988D01*
X10475000Y25650001D01*
X10475001Y25650000D01*
X11122825Y25650000D01*
X11122832Y25650001D01*
X11182371Y25656402D01*
X11182378Y25656404D01*
X11317093Y25706649D01*
X11332719Y25715181D01*
X11334162Y25712538D01*
X11396292Y25742264D01*
X11457877Y25750000D01*
X12194875Y25750000D01*
X12290163Y25731046D01*
X12300105Y25726671D01*
X12301332Y25726099D01*
X12301334Y25726099D01*
X12301337Y25726097D01*
X12529592Y25664937D01*
X12529595Y25664937D01*
X12529598Y25664936D01*
X12764995Y25644341D01*
X12765000Y25644341D01*
X12765005Y25644341D01*
X13000401Y25664936D01*
X13000403Y25664937D01*
X13000408Y25664937D01*
X13228663Y25726097D01*
X13442830Y25825965D01*
X13636401Y25961505D01*
X13803495Y26128599D01*
X13939035Y26322170D01*
X14038903Y26536337D01*
X14100063Y26764592D01*
X14100639Y26771175D01*
X14120659Y26999995D01*
X14120659Y27000006D01*
X14100064Y27235402D01*
X14100063Y27235405D01*
X14100063Y27235408D01*
X14038903Y27463663D01*
X13939035Y27677829D01*
X13931637Y27688394D01*
X13810980Y27860711D01*
X13803495Y27871401D01*
X13636401Y28038495D01*
X13559862Y28092088D01*
X13442830Y28174035D01*
X13348536Y28218005D01*
X13228663Y28273903D01*
X13228660Y28273904D01*
X13000401Y28335065D01*
X12765005Y28355659D01*
X12764995Y28355659D01*
X12529598Y28335065D01*
X12301335Y28273903D01*
X12301332Y28273902D01*
X12300105Y28273329D01*
X12299052Y28273072D01*
X12291125Y28270186D01*
X12290808Y28271055D01*
X12205735Y28250237D01*
X12194875Y28250000D01*
X11457877Y28250000D01*
X11362589Y28268954D01*
X11333195Y28285693D01*
X11332719Y28284819D01*
X11317093Y28293352D01*
X11182378Y28343597D01*
X11182371Y28343599D01*
X11122832Y28350000D01*
X10475001Y28350000D01*
X10475000Y28349999D01*
X10475000Y27433012D01*
X10417993Y27465925D01*
X10290826Y27500000D01*
X10159174Y27500000D01*
X10032007Y27465925D01*
X9975000Y27433012D01*
X9975000Y28349999D01*
X9974999Y28350000D01*
X9327167Y28350000D01*
X9267628Y28343599D01*
X9267621Y28343597D01*
X9132912Y28293354D01*
X9017812Y28207190D01*
X9017810Y28207188D01*
X8931646Y28092088D01*
X8881403Y27957379D01*
X8881401Y27957372D01*
X8875000Y27897833D01*
X1125500Y27897833D01*
X1125500Y47171077D01*
X1144454Y47266365D01*
X1198430Y47347147D01*
X1279212Y47401123D01*
X1374500Y47420077D01*
X1469788Y47401123D01*
X1510116Y47379906D01*
X1647211Y47290875D01*
X1992806Y47114786D01*
X2354913Y46975786D01*
X2729567Y46875398D01*
X3112662Y46814722D01*
X3500000Y46794422D01*
X3887338Y46814722D01*
X4270433Y46875398D01*
X4645087Y46975786D01*
X5007194Y47114786D01*
X5352789Y47290875D01*
X5678084Y47502124D01*
X5979516Y47746219D01*
X6253781Y48020484D01*
X6497876Y48321916D01*
X6709125Y48647211D01*
X6885214Y48992806D01*
X7024214Y49354913D01*
X7124602Y49729567D01*
X7185278Y50112662D01*
X7205578Y50500000D01*
X7185278Y50887338D01*
X7124602Y51270433D01*
X7024214Y51645087D01*
X6885214Y52007194D01*
X6709125Y52352789D01*
X6631838Y52471801D01*
X6620094Y52489885D01*
X6584092Y52580124D01*
X6585364Y52677270D01*
X6623716Y52766535D01*
X6693308Y52834329D01*
X6783547Y52870331D01*
X6828923Y52874500D01*
X11970834Y52874500D01*
X12066122Y52855546D01*
G37*
%TD.AperFunction*%
%TA.AperFunction,Conductor*%
G36*
X68146288Y15505546D02*
G01*
X68227070Y15451570D01*
X68281046Y15370788D01*
X68300000Y15275500D01*
X68300000Y14014508D01*
X68281046Y13919220D01*
X68227070Y13838438D01*
X68037062Y13648430D01*
X67956280Y13594454D01*
X67860992Y13575500D01*
X62951079Y13575500D01*
X62806088Y13546659D01*
X62669507Y13490085D01*
X62669503Y13490083D01*
X62597488Y13441964D01*
X62507728Y13404784D01*
X62459151Y13400000D01*
X60862453Y13400000D01*
X60852917Y13400500D01*
X60844646Y13400500D01*
X60655354Y13400500D01*
X60470203Y13361146D01*
X60470189Y13361142D01*
X60297272Y13284153D01*
X60296762Y13283858D01*
X60296124Y13283642D01*
X60285349Y13278844D01*
X60284908Y13279835D01*
X60204763Y13252630D01*
X60172265Y13250500D01*
X53176079Y13250500D01*
X53031088Y13221659D01*
X52894507Y13165085D01*
X52894502Y13165083D01*
X52845271Y13132189D01*
X52845270Y13132187D01*
X52808671Y13107733D01*
X52771579Y13082949D01*
X51873409Y12184779D01*
X51792628Y12130803D01*
X51749116Y12117292D01*
X51720207Y12111147D01*
X51720199Y12111145D01*
X51720197Y12111144D01*
X51720194Y12111143D01*
X51720186Y12111140D01*
X51547271Y12034153D01*
X51394126Y11922886D01*
X51267469Y11782220D01*
X51172822Y11618286D01*
X51114325Y11438256D01*
X51094540Y11250000D01*
X51114325Y11061745D01*
X51142001Y10976570D01*
X51172821Y10881716D01*
X51172822Y10881714D01*
X51172823Y10881712D01*
X51172824Y10881710D01*
X51216140Y10806685D01*
X51247370Y10714686D01*
X51249500Y10682185D01*
X51249500Y8317816D01*
X51230546Y8222528D01*
X51216141Y8193318D01*
X51172823Y8118289D01*
X51172821Y8118286D01*
X51172821Y8118284D01*
X51161341Y8082952D01*
X51114325Y7938256D01*
X51094540Y7750000D01*
X51114325Y7561745D01*
X51133131Y7503868D01*
X51172821Y7381716D01*
X51258999Y7232451D01*
X51267469Y7217781D01*
X51394126Y7077115D01*
X51394129Y7077112D01*
X51477516Y7016528D01*
X51547271Y6965848D01*
X51720189Y6888859D01*
X51720192Y6888858D01*
X51720197Y6888856D01*
X51905354Y6849500D01*
X52094645Y6849500D01*
X52094646Y6849500D01*
X52279803Y6888856D01*
X52452730Y6965849D01*
X52605871Y7077112D01*
X52732533Y7217784D01*
X52827179Y7381716D01*
X52885674Y7561744D01*
X52905460Y7750000D01*
X52885674Y7938256D01*
X52827179Y8118284D01*
X52809179Y8149462D01*
X52783859Y8193318D01*
X52752630Y8285317D01*
X52750500Y8317816D01*
X52750500Y10682185D01*
X52769454Y10777473D01*
X52783860Y10806685D01*
X52805799Y10844685D01*
X52827179Y10881716D01*
X52873248Y11023503D01*
X52920719Y11108268D01*
X52933977Y11122611D01*
X53487938Y11676570D01*
X53568719Y11730546D01*
X53664007Y11749500D01*
X59750500Y11749500D01*
X59845788Y11730546D01*
X59926570Y11676570D01*
X59980546Y11595788D01*
X59999500Y11500500D01*
X59999500Y8901080D01*
X60028341Y8756089D01*
X60028342Y8756086D01*
X60084913Y8619510D01*
X60084918Y8619499D01*
X60111485Y8579741D01*
X60111487Y8579737D01*
X60167044Y8496589D01*
X60167045Y8496588D01*
X60167048Y8496584D01*
X61896584Y6767048D01*
X61922847Y6749500D01*
X61951214Y6730546D01*
X61970270Y6717814D01*
X62019505Y6684916D01*
X62019510Y6684914D01*
X62019512Y6684913D01*
X62039654Y6676570D01*
X62156087Y6628342D01*
X62301080Y6599501D01*
X62301081Y6599500D01*
X62301082Y6599500D01*
X62301083Y6599500D01*
X62448917Y6599500D01*
X64551082Y6599500D01*
X64872265Y6599500D01*
X64967553Y6580546D01*
X64996762Y6566142D01*
X64997272Y6565848D01*
X65170189Y6488859D01*
X65170192Y6488858D01*
X65170197Y6488856D01*
X65355354Y6449500D01*
X65544645Y6449500D01*
X65544646Y6449500D01*
X65729803Y6488856D01*
X65902730Y6565849D01*
X66055871Y6677112D01*
X66182533Y6817784D01*
X66277179Y6981716D01*
X66335674Y7161744D01*
X66355460Y7350000D01*
X66335674Y7538256D01*
X66332329Y7548551D01*
X66320908Y7645032D01*
X66347279Y7738540D01*
X66407425Y7814839D01*
X66492192Y7862312D01*
X66556731Y7872535D01*
X66556668Y7873136D01*
X66568145Y7874343D01*
X66569141Y7874500D01*
X66569645Y7874500D01*
X66569646Y7874500D01*
X66754803Y7913856D01*
X66827215Y7946096D01*
X66927728Y7990848D01*
X66927728Y7990849D01*
X66927730Y7990849D01*
X67080871Y8102112D01*
X67207533Y8242784D01*
X67302179Y8406716D01*
X67360674Y8586744D01*
X67364908Y8627028D01*
X67393719Y8719813D01*
X67455843Y8794509D01*
X67541824Y8839746D01*
X67612544Y8850000D01*
X69009213Y8850000D01*
X69060982Y8844559D01*
X69155354Y8824500D01*
X69344645Y8824500D01*
X69344646Y8824500D01*
X69529803Y8863856D01*
X69613409Y8901080D01*
X69702728Y8940848D01*
X69702728Y8940849D01*
X69702730Y8940849D01*
X69855871Y9052112D01*
X69982533Y9192784D01*
X70044434Y9300001D01*
X70108492Y9373044D01*
X70195628Y9416014D01*
X70260074Y9424499D01*
X75101000Y9424499D01*
X75196288Y9405545D01*
X75277070Y9351569D01*
X75331046Y9270787D01*
X75350000Y9175499D01*
X75350000Y8590000D01*
X75348636Y8563974D01*
X75344540Y8525002D01*
X75344540Y8525000D01*
X75347526Y8496586D01*
X75348636Y8486030D01*
X75350000Y8460002D01*
X75350000Y7540000D01*
X75348636Y7513974D01*
X75344540Y7475002D01*
X75344540Y7475001D01*
X75364325Y7286745D01*
X75389900Y7208035D01*
X75422821Y7106716D01*
X75517467Y6942784D01*
X75517469Y6942781D01*
X75636777Y6810277D01*
X75644129Y6802112D01*
X75728222Y6741015D01*
X75797271Y6690848D01*
X75970189Y6613859D01*
X75970192Y6613858D01*
X75970197Y6613856D01*
X76155354Y6574500D01*
X76344645Y6574500D01*
X76344646Y6574500D01*
X76529803Y6613856D01*
X76671884Y6677115D01*
X76702728Y6690848D01*
X76702728Y6690849D01*
X76702730Y6690849D01*
X76855871Y6802112D01*
X76982533Y6942784D01*
X77044432Y7049999D01*
X77108491Y7123042D01*
X77195626Y7166013D01*
X77260073Y7174498D01*
X77422255Y7174498D01*
X77422256Y7174498D01*
X77574984Y7215422D01*
X77588825Y7223413D01*
X77639695Y7252783D01*
X77639697Y7252785D01*
X77639703Y7252788D01*
X77711915Y7294479D01*
X77823719Y7406283D01*
X77823720Y7406286D01*
X81055520Y10638084D01*
X81134577Y10775015D01*
X81175501Y10927743D01*
X81175501Y11085858D01*
X81175501Y11101118D01*
X81175500Y11101136D01*
X81175500Y14275010D01*
X81194454Y14370298D01*
X81248430Y14451080D01*
X81329212Y14505056D01*
X81424500Y14524010D01*
X81519788Y14505056D01*
X81600570Y14451080D01*
X81654546Y14370298D01*
X81656288Y14365979D01*
X81732740Y14171178D01*
X81732748Y14171162D01*
X81866884Y13938832D01*
X81919410Y13872966D01*
X82588359Y14541916D01*
X82681995Y14401782D01*
X82801782Y14281995D01*
X82941913Y14188362D01*
X82272046Y13518494D01*
X82452486Y13395471D01*
X82452498Y13395464D01*
X82694197Y13279068D01*
X82950570Y13199987D01*
X83215862Y13160000D01*
X83484138Y13160000D01*
X83749429Y13199987D01*
X84005796Y13279066D01*
X84017461Y13284683D01*
X84111537Y13308950D01*
X84207738Y13295370D01*
X84291419Y13246008D01*
X84349841Y13168381D01*
X84374108Y13074305D01*
X84374500Y13060342D01*
X84374500Y6828923D01*
X84355546Y6733635D01*
X84301570Y6652853D01*
X84220788Y6598877D01*
X84125500Y6579923D01*
X84030212Y6598877D01*
X83989885Y6620094D01*
X83852789Y6709125D01*
X83852784Y6709128D01*
X83507195Y6885214D01*
X83326140Y6954714D01*
X83145087Y7024214D01*
X82770433Y7124602D01*
X82770429Y7124603D01*
X82770428Y7124603D01*
X82455394Y7174499D01*
X82387344Y7185277D01*
X82387345Y7185277D01*
X82387343Y7185278D01*
X82387338Y7185278D01*
X82000000Y7205578D01*
X81612662Y7185278D01*
X81612656Y7185278D01*
X81612654Y7185277D01*
X81229571Y7124603D01*
X81229567Y7124603D01*
X81229567Y7124602D01*
X80951137Y7049997D01*
X80854913Y7024214D01*
X80492804Y6885214D01*
X80147215Y6709128D01*
X80147210Y6709125D01*
X79821914Y6497876D01*
X79520490Y6253787D01*
X79246213Y5979510D01*
X79002124Y5678086D01*
X78790875Y5352790D01*
X78790872Y5352785D01*
X78614786Y5007196D01*
X78503050Y4716113D01*
X78475786Y4645087D01*
X78422808Y4447368D01*
X78375397Y4270429D01*
X78337937Y4033913D01*
X78314722Y3887338D01*
X78294422Y3500000D01*
X78314722Y3112662D01*
X78314722Y3112657D01*
X78314723Y3112655D01*
X78360060Y2826404D01*
X78375398Y2729567D01*
X78475786Y2354913D01*
X78545286Y2173860D01*
X78614786Y1992805D01*
X78744848Y1737543D01*
X78771219Y1644036D01*
X78759800Y1547554D01*
X78712328Y1462787D01*
X78636030Y1402639D01*
X78542523Y1376268D01*
X78522987Y1375500D01*
X32999000Y1375500D01*
X32903712Y1394454D01*
X32822930Y1448430D01*
X32768954Y1529212D01*
X32750000Y1624500D01*
X32750000Y6500500D01*
X32768954Y6595788D01*
X32822930Y6676570D01*
X32903712Y6730546D01*
X32999000Y6749500D01*
X34085992Y6749500D01*
X34181280Y6730546D01*
X34262062Y6676570D01*
X38771584Y2167049D01*
X38894505Y2084916D01*
X39031087Y2028342D01*
X39176080Y1999501D01*
X39176081Y1999500D01*
X39176082Y1999500D01*
X41573919Y1999500D01*
X41573919Y1999501D01*
X41718913Y2028342D01*
X41855495Y2084916D01*
X41911664Y2122447D01*
X41978416Y2167048D01*
X42987938Y3176570D01*
X43068720Y3230546D01*
X43164008Y3249500D01*
X43922265Y3249500D01*
X44017553Y3230546D01*
X44046762Y3216142D01*
X44047272Y3215848D01*
X44220189Y3138859D01*
X44220192Y3138858D01*
X44220197Y3138856D01*
X44405354Y3099500D01*
X44594645Y3099500D01*
X44594646Y3099500D01*
X44779803Y3138856D01*
X44952730Y3215849D01*
X45105871Y3327112D01*
X45232533Y3467784D01*
X45327179Y3631716D01*
X45385674Y3811744D01*
X45405460Y4000000D01*
X45385674Y4188256D01*
X45327179Y4368284D01*
X45232533Y4532216D01*
X45232531Y4532219D01*
X45232530Y4532220D01*
X45105873Y4672886D01*
X45105867Y4672892D01*
X45102640Y4675236D01*
X45099545Y4678584D01*
X45096170Y4681623D01*
X45096449Y4681934D01*
X45036692Y4746579D01*
X45003065Y4837730D01*
X45000000Y4876680D01*
X45000000Y7012272D01*
X45018954Y7107560D01*
X45072928Y7188339D01*
X45222235Y7337647D01*
X45222236Y7337650D01*
X45231300Y7346713D01*
X45231486Y7346920D01*
X45238880Y7354310D01*
X45238888Y7354324D01*
X45244115Y7360689D01*
X45319224Y7422315D01*
X45412199Y7450507D01*
X45485153Y7446919D01*
X45586357Y7426787D01*
X45631561Y7417795D01*
X45631562Y7417795D01*
X45802055Y7417795D01*
X45802055Y7417796D01*
X45969269Y7451057D01*
X46126781Y7516302D01*
X46268538Y7611023D01*
X46268542Y7611028D01*
X46268546Y7611030D01*
X46328815Y7671302D01*
X46328816Y7671301D01*
X46364299Y7706785D01*
X46457227Y7799714D01*
X46457228Y7799717D01*
X46465591Y7808079D01*
X46466289Y7808850D01*
X46473792Y7816349D01*
X46568551Y7958093D01*
X46633831Y8115602D01*
X46667124Y8282821D01*
X46667149Y8453322D01*
X46638499Y8597446D01*
X46638510Y8694597D01*
X46675700Y8784352D01*
X46706645Y8822057D01*
X46898729Y9014140D01*
X46898733Y9014142D01*
X46985858Y9101267D01*
X47054311Y9203714D01*
X47101463Y9317548D01*
X47117124Y9396285D01*
X47125500Y9438393D01*
X47125500Y9561606D01*
X47125500Y11587770D01*
X47144454Y11683058D01*
X47198430Y11763840D01*
X50886160Y15451570D01*
X50966942Y15505546D01*
X51062230Y15524500D01*
X68051000Y15524500D01*
X68146288Y15505546D01*
G37*
%TD.AperFunction*%
%TA.AperFunction,Conductor*%
G36*
X84301570Y14351984D02*
G01*
X84355546Y14271202D01*
X84374500Y14175914D01*
X84374500Y14173087D01*
X84355546Y14077799D01*
X84301570Y13997017D01*
X84220788Y13943041D01*
X84125500Y13924087D01*
X84030212Y13943041D01*
X83949431Y13997017D01*
X83758086Y14188362D01*
X83898218Y14281995D01*
X84018005Y14401782D01*
X84111639Y14541915D01*
X84301570Y14351984D01*
G37*
%TD.AperFunction*%
%TA.AperFunction,Conductor*%
G36*
X84220788Y31231046D02*
G01*
X84301570Y31177070D01*
X84355546Y31096288D01*
X84374500Y31001000D01*
X84374500Y29439659D01*
X84355546Y29344371D01*
X84301570Y29263589D01*
X84220788Y29209613D01*
X84125500Y29190659D01*
X84030212Y29209613D01*
X84017470Y29215314D01*
X84005800Y29220934D01*
X83749429Y29300014D01*
X83484138Y29340000D01*
X83215862Y29340000D01*
X82950570Y29300014D01*
X82694197Y29220933D01*
X82452492Y29104533D01*
X82452487Y29104531D01*
X82272046Y28981508D01*
X82941914Y28311640D01*
X82801782Y28218005D01*
X82681995Y28098218D01*
X82588360Y27958086D01*
X81919410Y28627036D01*
X81866886Y28561171D01*
X81732748Y28328838D01*
X81732740Y28328823D01*
X81634728Y28079088D01*
X81575031Y27817538D01*
X81554981Y27550000D01*
X81575031Y27282463D01*
X81634728Y27020913D01*
X81732740Y26771178D01*
X81732748Y26771162D01*
X81866884Y26538832D01*
X81919410Y26472966D01*
X82588359Y27141916D01*
X82681995Y27001782D01*
X82801782Y26881995D01*
X82941913Y26788362D01*
X82272046Y26118494D01*
X82452486Y25995471D01*
X82452498Y25995464D01*
X82694197Y25879068D01*
X82950570Y25799987D01*
X83215862Y25760000D01*
X83484138Y25760000D01*
X83749429Y25799987D01*
X84005796Y25879066D01*
X84017461Y25884683D01*
X84111537Y25908950D01*
X84207738Y25895370D01*
X84291419Y25846008D01*
X84349841Y25768381D01*
X84374108Y25674305D01*
X84374500Y25660342D01*
X84374500Y16839659D01*
X84355546Y16744371D01*
X84301570Y16663589D01*
X84220788Y16609613D01*
X84125500Y16590659D01*
X84030212Y16609613D01*
X84017470Y16615314D01*
X84005800Y16620934D01*
X83749429Y16700014D01*
X83484138Y16740000D01*
X83215862Y16740000D01*
X82950570Y16700014D01*
X82694197Y16620933D01*
X82452492Y16504533D01*
X82452487Y16504531D01*
X82272046Y16381508D01*
X82941914Y15711640D01*
X82801782Y15618005D01*
X82681995Y15498218D01*
X82588360Y15358086D01*
X81919410Y16027036D01*
X81866886Y15961171D01*
X81732748Y15728838D01*
X81732740Y15728823D01*
X81656288Y15534022D01*
X81603832Y15452245D01*
X81524074Y15396767D01*
X81429157Y15376035D01*
X81333531Y15393203D01*
X81251754Y15445659D01*
X81196276Y15525417D01*
X81175544Y15620334D01*
X81175500Y15624991D01*
X81175500Y20744064D01*
X81175501Y20744077D01*
X81175501Y20922257D01*
X81147449Y21026946D01*
X81134577Y21074984D01*
X81134493Y21075129D01*
X81055521Y21211914D01*
X81055520Y21211916D01*
X79723721Y22543714D01*
X79723720Y22543716D01*
X79611916Y22655520D01*
X79588647Y22668954D01*
X79519110Y22709101D01*
X79519107Y22709103D01*
X79474985Y22734577D01*
X79474987Y22734577D01*
X79373166Y22761860D01*
X79322257Y22775501D01*
X79164143Y22775501D01*
X79148882Y22775501D01*
X79148866Y22775500D01*
X79112048Y22775500D01*
X79016760Y22794454D01*
X78935978Y22848430D01*
X78882002Y22929212D01*
X78863048Y23024500D01*
X78882002Y23119788D01*
X78927005Y23191113D01*
X78982530Y23252781D01*
X78982529Y23252781D01*
X78982533Y23252784D01*
X79077179Y23416716D01*
X79135674Y23596744D01*
X79155460Y23785000D01*
X79135674Y23973256D01*
X79077179Y24153284D01*
X79058579Y24185500D01*
X79027349Y24277497D01*
X79033703Y24374444D01*
X79058580Y24434502D01*
X79077179Y24466716D01*
X79135674Y24646744D01*
X79155460Y24835000D01*
X79135674Y25023256D01*
X79077179Y25203284D01*
X78982533Y25367216D01*
X78982531Y25367219D01*
X78982530Y25367220D01*
X78855873Y25507886D01*
X78855872Y25507887D01*
X78855871Y25507888D01*
X78779300Y25563520D01*
X78702728Y25619153D01*
X78529810Y25696142D01*
X78529796Y25696146D01*
X78344646Y25735500D01*
X78155354Y25735500D01*
X78155351Y25735500D01*
X78153561Y25735312D01*
X78151516Y25735500D01*
X78142305Y25735500D01*
X78142305Y25736348D01*
X78056814Y25744208D01*
X77970836Y25789450D01*
X77908716Y25864151D01*
X77891300Y25911362D01*
X77889707Y25910844D01*
X77874737Y25956916D01*
X77827179Y26103284D01*
X77808579Y26135500D01*
X77777349Y26227497D01*
X77783703Y26324444D01*
X77808580Y26384502D01*
X77827179Y26416716D01*
X77885674Y26596744D01*
X77905460Y26785000D01*
X77885674Y26973256D01*
X77827179Y27153284D01*
X77732533Y27317216D01*
X77732531Y27317219D01*
X77732530Y27317220D01*
X77605873Y27457886D01*
X77605872Y27457887D01*
X77605871Y27457888D01*
X77509978Y27527558D01*
X77452728Y27569153D01*
X77279810Y27646142D01*
X77279790Y27646148D01*
X77202729Y27662528D01*
X77113464Y27700879D01*
X77045670Y27770472D01*
X77009669Y27860711D01*
X77005500Y27906086D01*
X77005500Y30995500D01*
X77024454Y31090788D01*
X77078430Y31171570D01*
X77159212Y31225546D01*
X77254500Y31244500D01*
X82123089Y31244500D01*
X82123099Y31244500D01*
X82175926Y31247268D01*
X82183313Y31248045D01*
X82188957Y31248637D01*
X82214974Y31250000D01*
X84125500Y31250000D01*
X84220788Y31231046D01*
G37*
%TD.AperFunction*%
%TA.AperFunction,Conductor*%
G36*
X84220788Y15956960D02*
G01*
X84301570Y15902984D01*
X84355546Y15822202D01*
X84374500Y15726914D01*
X84374500Y15724087D01*
X84355546Y15628799D01*
X84301570Y15548018D01*
X84111638Y15358087D01*
X84018005Y15498218D01*
X83898218Y15618005D01*
X83758085Y15711640D01*
X83949430Y15902984D01*
X84030212Y15956960D01*
X84125500Y15975914D01*
X84220788Y15956960D01*
G37*
%TD.AperFunction*%
%TA.AperFunction,Conductor*%
G36*
X12324075Y19572993D02*
G01*
X12290000Y19445826D01*
X12290000Y19314174D01*
X12324075Y19187007D01*
X12356988Y19130000D01*
X10683012Y19130000D01*
X10715925Y19187007D01*
X10750000Y19314174D01*
X10750000Y19445826D01*
X10715925Y19572993D01*
X10683012Y19630000D01*
X12356988Y19630000D01*
X12324075Y19572993D01*
G37*
%TD.AperFunction*%
%TA.AperFunction,Conductor*%
G36*
X84301570Y26951984D02*
G01*
X84355546Y26871202D01*
X84374500Y26775914D01*
X84374500Y26773087D01*
X84355546Y26677799D01*
X84301570Y26597017D01*
X84220788Y26543041D01*
X84125500Y26524087D01*
X84030212Y26543041D01*
X83949431Y26597017D01*
X83758086Y26788362D01*
X83898218Y26881995D01*
X84018005Y27001782D01*
X84111639Y27141915D01*
X84301570Y26951984D01*
G37*
%TD.AperFunction*%
%TA.AperFunction,Conductor*%
G36*
X84220788Y28556960D02*
G01*
X84301570Y28502984D01*
X84355546Y28422202D01*
X84374500Y28326914D01*
X84374500Y28324087D01*
X84355546Y28228799D01*
X84301570Y28148018D01*
X84111638Y27958087D01*
X84018005Y28098218D01*
X83898218Y28218005D01*
X83758085Y28311640D01*
X83949430Y28502984D01*
X84030212Y28556960D01*
X84125500Y28575914D01*
X84220788Y28556960D01*
G37*
%TD.AperFunction*%
%TA.AperFunction,Conductor*%
G36*
X12324075Y42432993D02*
G01*
X12290000Y42305826D01*
X12290000Y42174174D01*
X12324075Y42047007D01*
X12356988Y41990000D01*
X10683012Y41990000D01*
X10715925Y42047007D01*
X10750000Y42174174D01*
X10750000Y42305826D01*
X10715925Y42432993D01*
X10683012Y42490000D01*
X12356988Y42490000D01*
X12324075Y42432993D01*
G37*
%TD.AperFunction*%
%TD*%
M02*
