%TF.GenerationSoftware,KiCad,Pcbnew,8.0.4*%
%TF.CreationDate,2024-09-14T20:38:07+07:00*%
%TF.ProjectId,msi_SDR_ADC,6d73695f-5344-4525-9f41-44432e6b6963,R0.1*%
%TF.SameCoordinates,PX72ade90PY75c75e0*%
%TF.FileFunction,Copper,L3,Inr*%
%TF.FilePolarity,Positive*%
%FSLAX46Y46*%
G04 Gerber Fmt 4.6, Leading zero omitted, Abs format (unit mm)*
G04 Created by KiCad (PCBNEW 8.0.4) date 2024-09-14 20:38:07*
%MOMM*%
%LPD*%
G01*
G04 APERTURE LIST*
%TA.AperFunction,ComponentPad*%
%ADD10R,1.700000X1.700000*%
%TD*%
%TA.AperFunction,ComponentPad*%
%ADD11O,1.700000X1.700000*%
%TD*%
%TA.AperFunction,ComponentPad*%
%ADD12C,2.425000*%
%TD*%
%TA.AperFunction,ComponentPad*%
%ADD13C,1.450000*%
%TD*%
%TA.AperFunction,ComponentPad*%
%ADD14C,0.800000*%
%TD*%
%TA.AperFunction,ComponentPad*%
%ADD15C,6.400000*%
%TD*%
%TA.AperFunction,ViaPad*%
%ADD16C,0.800000*%
%TD*%
%TA.AperFunction,Conductor*%
%ADD17C,0.500000*%
%TD*%
%TA.AperFunction,Conductor*%
%ADD18C,0.250000*%
%TD*%
G04 APERTURE END LIST*
D10*
%TO.N,+3.3V*%
%TO.C,J4*%
X12540000Y45030000D03*
D11*
X10000000Y45030000D03*
%TO.N,GND*%
X12540000Y42490000D03*
X10000000Y42490000D03*
%TO.N,unconnected-(J4-Pad5)*%
X12540000Y39950000D03*
%TO.N,unconnected-(J4-Pad6)*%
X10000000Y39950000D03*
%TO.N,SDI*%
X12540000Y37410000D03*
%TO.N,unconnected-(J4-Pad8)*%
X10000000Y37410000D03*
%TO.N,SCK*%
X12540000Y34870000D03*
%TO.N,unconnected-(J4-Pad10)*%
X10000000Y34870000D03*
%TO.N,~{CS}*%
X12540000Y32330000D03*
%TO.N,unconnected-(J4-Pad12)*%
X10000000Y32330000D03*
%TD*%
D10*
%TO.N,GND*%
%TO.C,J3*%
X10000000Y50120000D03*
D11*
%TO.N,+5V*%
X12540000Y50120000D03*
%TD*%
D10*
%TO.N,+3.3V*%
%TO.C,J6*%
X12540000Y22170000D03*
D11*
X10000000Y22170000D03*
%TO.N,GND*%
X12540000Y19630000D03*
X10000000Y19630000D03*
%TO.N,GPIO_0*%
X12540000Y17090000D03*
%TO.N,SPI_DATA*%
X10000000Y17090000D03*
%TO.N,GPIO_1*%
X12540000Y14550000D03*
%TO.N,SPI_LAT*%
X10000000Y14550000D03*
%TO.N,GPIO_2*%
X12540000Y12010000D03*
%TO.N,SPI_CLK*%
X10000000Y12010000D03*
%TO.N,GPIO_3*%
X12540000Y9470000D03*
%TO.N,unconnected-(J6-Pad12)*%
X10000000Y9470000D03*
%TD*%
D12*
%TO.N,GND*%
%TO.C,J2*%
X25750000Y2250000D03*
D13*
X26837000Y5250000D03*
X31687000Y5250000D03*
D12*
X32774000Y2250000D03*
%TD*%
D10*
%TO.N,GND*%
%TO.C,J7*%
X10000000Y4390000D03*
D11*
%TO.N,+5V*%
X12540000Y4390000D03*
%TD*%
D14*
%TO.N,N/C*%
%TO.C,REF\u002A\u002A*%
X79100000Y3500000D03*
X79802944Y5197056D03*
X79802944Y1802944D03*
X81500000Y5900000D03*
D15*
X81500000Y3500000D03*
D14*
X81500000Y1100000D03*
X83197056Y5197056D03*
X83197056Y1802944D03*
X83900000Y3500000D03*
%TD*%
%TO.N,N/C*%
%TO.C,REF\u002A\u002A*%
X1100000Y3500000D03*
X1802944Y5197056D03*
X1802944Y1802944D03*
X3500000Y5900000D03*
D15*
X3500000Y3500000D03*
D14*
X3500000Y1100000D03*
X5197056Y5197056D03*
X5197056Y1802944D03*
X5900000Y3500000D03*
%TD*%
%TO.N,N/C*%
%TO.C,REF\u002A\u002A*%
X1100000Y50500000D03*
X1802944Y52197056D03*
X1802944Y48802944D03*
X3500000Y52900000D03*
D15*
X3500000Y50500000D03*
D14*
X3500000Y48100000D03*
X5197056Y52197056D03*
X5197056Y48802944D03*
X5900000Y50500000D03*
%TD*%
%TO.N,N/C*%
%TO.C,REF\u002A\u002A*%
X79100000Y50500000D03*
X79802944Y52197056D03*
X79802944Y48802944D03*
X81500000Y52900000D03*
D15*
X81500000Y50500000D03*
D14*
X81500000Y48100000D03*
X83197056Y52197056D03*
X83197056Y48802944D03*
X83900000Y50500000D03*
%TD*%
D10*
%TO.N,GND*%
%TO.C,J5*%
X10000000Y27250000D03*
D11*
%TO.N,+5V*%
X12540000Y27250000D03*
%TD*%
D16*
%TO.N,GND*%
X22750000Y4250000D03*
X29500000Y43500000D03*
X45250000Y26000000D03*
X61000000Y9000000D03*
X83500000Y33130000D03*
X56500000Y46500000D03*
X63500000Y36750000D03*
X38750000Y20050000D03*
X66500000Y47750000D03*
X56500000Y27000000D03*
X3500000Y39000000D03*
X27250000Y31500000D03*
X32000000Y39250000D03*
X21500000Y29500000D03*
X20750000Y32000000D03*
X83500000Y22970000D03*
X83500000Y35670000D03*
X11000000Y1250000D03*
X74500000Y21250000D03*
X52750000Y22000000D03*
X3500000Y31250000D03*
X60500000Y41000000D03*
X17750000Y20750000D03*
X3500000Y24000000D03*
X43750000Y23750000D03*
X23500000Y12500000D03*
X70750000Y13250000D03*
X35450000Y16800000D03*
X60250000Y52500000D03*
X63750000Y38750000D03*
X27250000Y47950000D03*
X45250000Y28500000D03*
X47750000Y47000000D03*
X52500000Y18500000D03*
X26000000Y43500000D03*
X35450000Y19000000D03*
X54250000Y19000000D03*
X74250000Y32000000D03*
X63250000Y52500000D03*
X71250000Y38500000D03*
X66750000Y24250000D03*
X83500000Y25510000D03*
X15250000Y19500000D03*
X38050000Y24100000D03*
X22500000Y40000000D03*
X63250000Y50500000D03*
X83500000Y38210000D03*
X20500000Y37000000D03*
X74250000Y35000000D03*
X77250000Y9250000D03*
X64250000Y1500000D03*
X71500000Y40250000D03*
X52750000Y42000000D03*
X83500000Y12000000D03*
X17000000Y1250000D03*
X73000000Y11250000D03*
X27500000Y37750000D03*
X74500000Y40500000D03*
X79750000Y8000000D03*
X83500000Y28050000D03*
X3500000Y19000000D03*
X45000000Y49500000D03*
X78250000Y13250000D03*
X16750000Y29750000D03*
X72250000Y47750000D03*
X77250000Y47750000D03*
X56750000Y52500000D03*
X57250000Y10750000D03*
X57000000Y17000000D03*
X69500000Y1500000D03*
X63750000Y24250000D03*
X19750000Y1250000D03*
X16750000Y32750000D03*
X17950000Y43550000D03*
X54500000Y48500000D03*
X30500000Y2250000D03*
X53000000Y45500000D03*
X44750000Y38750000D03*
X38750000Y17800000D03*
X81250000Y19500000D03*
X50500000Y39750000D03*
X45250000Y31000000D03*
X25250000Y35750000D03*
X40750000Y49500000D03*
X47500000Y25250000D03*
X26000000Y32500000D03*
X71250000Y24250000D03*
X83500000Y46250000D03*
X75750000Y13250000D03*
X30000000Y28250000D03*
X16750000Y35250000D03*
X43500000Y13000000D03*
X16750000Y26500000D03*
X68250000Y24250000D03*
X78250000Y46250000D03*
X56500000Y28500000D03*
X77000000Y1500000D03*
X39800000Y23700000D03*
X17500000Y50000000D03*
X57250000Y41500000D03*
X40750000Y43750000D03*
X15250000Y9750000D03*
X38750000Y16000000D03*
X83500000Y30590000D03*
X63750000Y40750000D03*
X16500000Y6000000D03*
X45000000Y11750000D03*
X66250000Y36750000D03*
X77000000Y28000000D03*
X47000000Y37750000D03*
X35500000Y43500000D03*
X26000000Y12500000D03*
X52750000Y24500000D03*
X51000000Y52500000D03*
X31250000Y27000000D03*
X83500000Y40750000D03*
X40750000Y38750000D03*
X21000000Y13250000D03*
X76500000Y19500000D03*
X45250000Y33250000D03*
X83500000Y9460000D03*
X67500000Y43000000D03*
X66500000Y6500000D03*
X63250000Y47750000D03*
X35250000Y1000000D03*
X3500000Y46250000D03*
X19750000Y5000000D03*
X32500000Y51250000D03*
X3500000Y28750000D03*
X30000000Y25750000D03*
X18750000Y40000000D03*
X69500000Y47750000D03*
X52000000Y1500000D03*
X15250000Y22750000D03*
X79500000Y21750000D03*
X69500000Y46250000D03*
X73000000Y13250000D03*
X21500000Y10250000D03*
X70750000Y9250000D03*
X69750000Y24250000D03*
X71500000Y36500000D03*
X16750000Y38250000D03*
X60250000Y37750000D03*
X42250000Y15750000D03*
X46500000Y32000000D03*
X35450000Y20700000D03*
X35450000Y14400000D03*
X67500000Y44750000D03*
X26250000Y40000000D03*
X37750000Y39500000D03*
X32500000Y25750000D03*
X46500000Y13000000D03*
X28750000Y37000000D03*
X73250000Y1500000D03*
X3500000Y33750000D03*
X74500000Y44250000D03*
X78250000Y43250000D03*
X31750000Y13500000D03*
X54750000Y39750000D03*
X3500000Y15750000D03*
X79000000Y19500000D03*
X47500000Y21500000D03*
X56500000Y37000000D03*
X57250000Y9000000D03*
X55500000Y1500000D03*
X28250000Y2250000D03*
X67500000Y41750000D03*
X23500000Y31250000D03*
X18500000Y24000000D03*
X32500000Y28250000D03*
X77250000Y52500000D03*
X8250000Y1250000D03*
X34750000Y39250000D03*
X42000000Y22000000D03*
X35250000Y2250000D03*
X71750000Y21250000D03*
X3500000Y8500000D03*
X18250000Y10000000D03*
X3500000Y41500000D03*
X39250000Y14750000D03*
X3500000Y26250000D03*
X56500000Y33000000D03*
X3500000Y13500000D03*
X58750000Y44250000D03*
X3500000Y11000000D03*
X50500000Y44250000D03*
X23500000Y13500000D03*
X22750000Y1250000D03*
X22750000Y6500000D03*
X77000000Y30000000D03*
X71500000Y45000000D03*
X43500000Y10000000D03*
X49250000Y49250000D03*
X3500000Y44000000D03*
X65250000Y24250000D03*
X61500000Y23000000D03*
X18700000Y50050000D03*
X3500000Y36000000D03*
X46500000Y10000000D03*
X56500000Y30000000D03*
X35450000Y22650000D03*
X59500000Y1500000D03*
X74750000Y47750000D03*
X14000000Y1250000D03*
X47000000Y51500000D03*
X18750000Y28750000D03*
X45750000Y43750000D03*
X3500000Y21500000D03*
%TO.N,5VVGA*%
X59000000Y13750000D03*
X61250000Y13750000D03*
X80500000Y13550000D03*
%TO.N,VDDI*%
X55500000Y4475000D03*
X25500000Y23500000D03*
%TO.N,VDIG*%
X36000000Y33250000D03*
X35500000Y49500000D03*
X25500000Y21750000D03*
X37000000Y49500000D03*
X54112500Y36437500D03*
X39150000Y27850000D03*
X52250000Y20000000D03*
%TO.N,/REFCLK*%
X19750000Y26750000D03*
X41000000Y8750000D03*
%TO.N,V18-SYNTH*%
X20500000Y44200000D03*
X37800000Y29050000D03*
%TO.N,USB_P*%
X29525000Y12500000D03*
X32275000Y32500000D03*
%TO.N,USB_N*%
X31225000Y32500000D03*
X28475000Y12500000D03*
%TO.N,SPI_DATA*%
X51250000Y10250000D03*
X26750000Y27750000D03*
%TO.N,SPI_LAT*%
X52500000Y8000000D03*
X25750000Y26250000D03*
%TO.N,SPI_CLK*%
X51250000Y9000000D03*
X27000000Y26500000D03*
%TO.N,GPIO_3*%
X31025000Y19375000D03*
%TO.N,/I_IN_P*%
X35500000Y24000000D03*
X38750000Y22750000D03*
%TO.N,/I_IN_N*%
X35500000Y25250000D03*
X38750000Y21500000D03*
%TO.N,+5V*%
X21750000Y8250000D03*
X83000000Y19750000D03*
X33500000Y11250000D03*
X29500000Y51000000D03*
X29500000Y49750000D03*
X80500000Y24000000D03*
X20500000Y8250000D03*
%TO.N,GPIO_1*%
X28750000Y19500000D03*
%TO.N,GPIO_0*%
X28750000Y20750000D03*
%TO.N,GPIO_2*%
X29925000Y19425000D03*
%TO.N,~{CS}*%
X51750000Y29200000D03*
%TO.N,SCK*%
X52550000Y28300000D03*
%TO.N,SDI*%
X51750000Y27400000D03*
%TO.N,VRF*%
X56750000Y7750000D03*
X46000000Y17000000D03*
X52000000Y4500000D03*
X39250000Y9000000D03*
X26250000Y49950000D03*
X35750000Y5250000D03*
X59000000Y4500000D03*
X24900000Y49950000D03*
%TD*%
D17*
%TO.N,+3.3V*%
X12540000Y45030000D02*
X14170000Y45030000D01*
X14170000Y45030000D02*
X15500000Y43700000D01*
X15500000Y43700000D02*
X15500000Y25130000D01*
X10000000Y45030000D02*
X12540000Y45030000D01*
X10000000Y22170000D02*
X12540000Y22170000D01*
X15500000Y25130000D02*
X12540000Y22170000D01*
%TO.N,5VVGA*%
X80500000Y10650000D02*
X77650000Y7800000D01*
X61250000Y13750000D02*
X59000000Y13750000D01*
X65500000Y7800000D02*
X61250000Y12050000D01*
X77650000Y7800000D02*
X65500000Y7800000D01*
X80500000Y13550000D02*
X80500000Y10650000D01*
X61250000Y12050000D02*
X61250000Y13750000D01*
%TO.N,VDDI*%
X30750000Y16500000D02*
X26250000Y16500000D01*
X26250000Y16500000D02*
X23750000Y19000000D01*
X34750000Y4500000D02*
X34750000Y12500000D01*
X54275000Y3250000D02*
X36000000Y3250000D01*
X55500000Y4475000D02*
X54275000Y3250000D01*
X24500000Y23500000D02*
X25500000Y23500000D01*
X36000000Y3250000D02*
X34750000Y4500000D01*
X34750000Y12500000D02*
X30750000Y16500000D01*
X23750000Y22750000D02*
X24500000Y23500000D01*
X23750000Y19000000D02*
X23750000Y22750000D01*
%TO.N,VDIG*%
X37500000Y49500000D02*
X39150000Y47850000D01*
X39150000Y37150000D02*
X39150000Y36500000D01*
X39150000Y36500000D02*
X39150000Y35700000D01*
X54112500Y36437500D02*
X54950000Y35600000D01*
X39150000Y32250000D02*
X39150000Y27850000D01*
X36000000Y28350000D02*
X36500000Y27850000D01*
X54950000Y35600000D02*
X54950000Y21900000D01*
X40150000Y36437500D02*
X39212500Y36437500D01*
X29250000Y34250000D02*
X29250000Y30000000D01*
X39212500Y36437500D02*
X39150000Y36500000D01*
X40150000Y36437500D02*
X39862500Y36437500D01*
X54950000Y21900000D02*
X53050000Y20000000D01*
X39150000Y35700000D02*
X39150000Y32250000D01*
X39862500Y36437500D02*
X39150000Y37150000D01*
X39150000Y47850000D02*
X39150000Y37150000D01*
X39862500Y36412500D02*
X39150000Y35700000D01*
X54112500Y36437500D02*
X40150000Y36437500D01*
X33750000Y35500000D02*
X30500000Y35500000D01*
X39862500Y36437500D02*
X39862500Y36412500D01*
X36000000Y33250000D02*
X36000000Y28350000D01*
X29250000Y30000000D02*
X28250000Y29000000D01*
X28250000Y24500000D02*
X25500000Y21750000D01*
X53050000Y20000000D02*
X52250000Y20000000D01*
X39150000Y27850000D02*
X36500000Y27850000D01*
X28250000Y29000000D02*
X28250000Y24500000D01*
X30500000Y35500000D02*
X29250000Y34250000D01*
X36000000Y33250000D02*
X33750000Y35500000D01*
X35500000Y49500000D02*
X37500000Y49500000D01*
D18*
%TO.N,V18-SYNTH*%
X23499569Y44200000D02*
X20500000Y44200000D01*
X34275216Y41224784D02*
X26474784Y41224784D01*
X37800000Y37700000D02*
X34275216Y41224784D01*
X37800000Y29050000D02*
X37800000Y37700000D01*
X26474784Y41224784D02*
X23499569Y44200000D01*
%TO.N,SPI_DATA*%
X20250000Y24750000D02*
X20250000Y21250000D01*
X11315000Y15775000D02*
X10000000Y17090000D01*
X14775000Y15775000D02*
X11315000Y15775000D01*
X26750000Y27750000D02*
X26050000Y27050000D01*
X26050000Y27050000D02*
X22550000Y27050000D01*
X22550000Y27050000D02*
X20250000Y24750000D01*
X20250000Y21250000D02*
X14775000Y15775000D01*
%TO.N,SPI_LAT*%
X20861206Y21138794D02*
X13047412Y13325000D01*
X20861206Y24361206D02*
X20861206Y21138794D01*
X25750000Y26250000D02*
X22750000Y26250000D01*
X22750000Y26250000D02*
X20861206Y24361206D01*
X13047412Y13325000D02*
X11225000Y13325000D01*
X11225000Y13325000D02*
X10000000Y14550000D01*
%TO.N,SPI_CLK*%
X27000000Y26500000D02*
X27000000Y26403984D01*
X27000000Y26403984D02*
X25846016Y25250000D01*
X21500000Y24000000D02*
X21500000Y21000000D01*
X22750000Y25250000D02*
X21500000Y24000000D01*
X13900000Y13400000D02*
X13900000Y11550000D01*
X21500000Y21000000D02*
X13900000Y13400000D01*
X13135000Y10785000D02*
X11225000Y10785000D01*
X25846016Y25250000D02*
X22750000Y25250000D01*
X13900000Y11550000D02*
X13135000Y10785000D01*
X11225000Y10785000D02*
X10000000Y12010000D01*
D17*
%TO.N,+5V*%
X12540000Y48590000D02*
X11650000Y47700000D01*
X33500000Y9750000D02*
X32000000Y8250000D01*
X31500000Y53000000D02*
X29500000Y51000000D01*
X7000000Y25750000D02*
X7000000Y25000000D01*
X7000000Y44750000D02*
X7000000Y25750000D01*
X8000000Y25000000D02*
X7000000Y25000000D01*
X62000000Y26750000D02*
X62000000Y41750000D01*
X83000000Y19750000D02*
X83000000Y21500000D01*
X47500000Y53000000D02*
X31500000Y53000000D01*
X83000000Y21500000D02*
X80500000Y24000000D01*
X7750000Y25000000D02*
X7000000Y24250000D01*
X16640000Y4390000D02*
X12540000Y4390000D01*
X8000000Y7000000D02*
X10500000Y7000000D01*
X78750000Y25750000D02*
X63000000Y25750000D01*
X12540000Y50120000D02*
X12540000Y48590000D01*
X7000000Y8000000D02*
X8000000Y7000000D01*
X62000000Y41750000D02*
X60750000Y43000000D01*
X8000000Y25000000D02*
X7750000Y25000000D01*
X20500000Y8250000D02*
X16640000Y4390000D01*
X60750000Y43000000D02*
X57500000Y43000000D01*
X80500000Y24000000D02*
X78750000Y25750000D01*
X9950000Y47700000D02*
X7000000Y44750000D01*
X29500000Y51000000D02*
X29500000Y49750000D01*
X10500000Y7000000D02*
X12540000Y4960000D01*
X7750000Y25000000D02*
X7000000Y25750000D01*
X11750000Y25000000D02*
X8000000Y25000000D01*
X7000000Y24250000D02*
X7000000Y8000000D01*
X12540000Y25790000D02*
X11750000Y25000000D01*
X33500000Y11250000D02*
X33500000Y9750000D01*
X11650000Y47700000D02*
X9950000Y47700000D01*
X63000000Y25750000D02*
X62000000Y26750000D01*
X12540000Y27250000D02*
X12540000Y25790000D01*
X32000000Y8250000D02*
X20500000Y8250000D01*
X12540000Y4960000D02*
X12540000Y4390000D01*
X7000000Y25000000D02*
X7000000Y24250000D01*
X57500000Y43000000D02*
X47500000Y53000000D01*
%TO.N,VRF*%
X50650000Y6450000D02*
X50650000Y6350000D01*
X57750000Y20550000D02*
X54200000Y17000000D01*
X46000000Y50750000D02*
X57750000Y39000000D01*
X55000000Y6650000D02*
X54950000Y6650000D01*
X50050000Y6350000D02*
X50050000Y6750000D01*
X52400000Y6000000D02*
X52750000Y6000000D01*
X55000000Y6000000D02*
X54300000Y6000000D01*
X50050000Y7050000D02*
X50050000Y16050000D01*
X52000000Y5600000D02*
X52000000Y5750000D01*
X29250000Y48250000D02*
X32250000Y48250000D01*
X32250000Y48250000D02*
X34750000Y50750000D01*
X50050000Y17000000D02*
X49350000Y17000000D01*
X49400000Y6350000D02*
X50050000Y6350000D01*
X34750000Y50750000D02*
X46000000Y50750000D01*
X50050000Y16050000D02*
X50050000Y16300000D01*
X54950000Y6650000D02*
X54300000Y6000000D01*
X51400000Y6350000D02*
X50650000Y6350000D01*
X52000000Y5600000D02*
X52400000Y6000000D01*
X50050000Y7050000D02*
X50650000Y6450000D01*
X50650000Y6350000D02*
X50050000Y6350000D01*
X57750000Y39000000D02*
X57750000Y20550000D01*
X52000000Y5750000D02*
X51400000Y6350000D01*
X52000000Y5600000D02*
X52000000Y4500000D01*
X27550000Y49950000D02*
X29250000Y48250000D01*
X45500000Y17000000D02*
X46000000Y17000000D01*
X55000000Y6650000D02*
X55000000Y6600000D01*
X54200000Y17000000D02*
X50750000Y17000000D01*
X50050000Y16300000D02*
X49350000Y17000000D01*
X55600000Y6000000D02*
X57500000Y6000000D01*
X55650000Y7750000D02*
X55550000Y7750000D01*
X55650000Y7750000D02*
X55600000Y7750000D01*
X50050000Y6750000D02*
X50050000Y7050000D01*
X50050000Y7050000D02*
X49400000Y6400000D01*
X48350000Y6350000D02*
X49400000Y6350000D01*
X55000000Y6000000D02*
X55600000Y6000000D01*
X49400000Y6400000D02*
X49400000Y6350000D01*
X50050000Y16050000D02*
X50050000Y17000000D01*
X52000000Y6000000D02*
X52000000Y5600000D01*
X50050000Y16300000D02*
X50750000Y17000000D01*
X55000000Y6600000D02*
X55600000Y6000000D01*
X39250000Y10750000D02*
X45500000Y17000000D01*
X50750000Y17000000D02*
X50050000Y17000000D01*
X39250000Y9000000D02*
X39250000Y10750000D01*
X35750000Y5250000D02*
X47250000Y5250000D01*
X55550000Y7750000D02*
X55000000Y7200000D01*
X54300000Y6000000D02*
X52750000Y6000000D01*
X55000000Y6650000D02*
X55000000Y6000000D01*
X51650000Y6350000D02*
X51400000Y6350000D01*
X47250000Y5250000D02*
X48350000Y6350000D01*
X49350000Y17000000D02*
X46000000Y17000000D01*
X57500000Y6000000D02*
X59000000Y4500000D01*
X55000000Y7200000D02*
X55000000Y6650000D01*
X52000000Y6000000D02*
X51650000Y6350000D01*
X56750000Y7750000D02*
X55650000Y7750000D01*
X52750000Y6000000D02*
X52000000Y6000000D01*
X24900000Y49950000D02*
X27550000Y49950000D01*
%TD*%
%TA.AperFunction,Conductor*%
%TO.N,GND*%
G36*
X77693039Y53479815D02*
G01*
X77738794Y53427011D01*
X77750000Y53375500D01*
X77750000Y46750000D01*
X84375500Y46750000D01*
X84442539Y46730315D01*
X84488294Y46677511D01*
X84499500Y46626000D01*
X84499500Y7374000D01*
X84479815Y7306961D01*
X84427011Y7261206D01*
X84375500Y7250000D01*
X79374000Y7250000D01*
X79306961Y7269685D01*
X79261206Y7322489D01*
X79250000Y7374000D01*
X79250000Y8287271D01*
X79269685Y8354310D01*
X79286316Y8374949D01*
X81082952Y10171585D01*
X81122443Y10230688D01*
X81165084Y10294505D01*
X81203093Y10386267D01*
X81203095Y10386270D01*
X81209656Y10402113D01*
X81221659Y10431088D01*
X81250500Y10576083D01*
X81250500Y10723918D01*
X81250500Y13015679D01*
X81267113Y13077679D01*
X81273966Y13089549D01*
X81327179Y13181716D01*
X81385674Y13361744D01*
X81405460Y13550000D01*
X81385674Y13738256D01*
X81327179Y13918284D01*
X81232533Y14082216D01*
X81105871Y14222888D01*
X81105870Y14222889D01*
X80952734Y14334149D01*
X80952729Y14334152D01*
X80779807Y14411143D01*
X80779802Y14411145D01*
X80634001Y14442135D01*
X80594646Y14450500D01*
X80405354Y14450500D01*
X80372897Y14443602D01*
X80220197Y14411145D01*
X80220192Y14411143D01*
X80047270Y14334152D01*
X80047265Y14334149D01*
X79894129Y14222889D01*
X79767466Y14082215D01*
X79672821Y13918285D01*
X79672818Y13918278D01*
X79618142Y13750000D01*
X79614326Y13738256D01*
X79594540Y13550000D01*
X79614326Y13361744D01*
X79614327Y13361741D01*
X79672818Y13181723D01*
X79672821Y13181716D01*
X79732887Y13077679D01*
X79749500Y13015679D01*
X79749500Y11012230D01*
X79729815Y10945191D01*
X79713181Y10924549D01*
X77375451Y8586819D01*
X77314128Y8553334D01*
X77287770Y8550500D01*
X65862229Y8550500D01*
X65795190Y8570185D01*
X65774548Y8586819D01*
X62036819Y12324549D01*
X62003334Y12385872D01*
X62000500Y12412230D01*
X62000500Y13215679D01*
X62017113Y13277679D01*
X62018972Y13280899D01*
X62077179Y13381716D01*
X62135674Y13561744D01*
X62155460Y13750000D01*
X62135674Y13938256D01*
X62077179Y14118284D01*
X61982533Y14282216D01*
X61855871Y14422888D01*
X61855870Y14422889D01*
X61702734Y14534149D01*
X61702729Y14534152D01*
X61529807Y14611143D01*
X61529802Y14611145D01*
X61384001Y14642135D01*
X61344646Y14650500D01*
X61155354Y14650500D01*
X61122897Y14643602D01*
X60970197Y14611145D01*
X60970192Y14611143D01*
X60797270Y14534152D01*
X60797265Y14534149D01*
X60783548Y14524182D01*
X60717742Y14500702D01*
X60710663Y14500500D01*
X59539337Y14500500D01*
X59472298Y14520185D01*
X59466452Y14524182D01*
X59452734Y14534149D01*
X59452729Y14534152D01*
X59279807Y14611143D01*
X59279802Y14611145D01*
X59134001Y14642135D01*
X59094646Y14650500D01*
X58905354Y14650500D01*
X58872897Y14643602D01*
X58720197Y14611145D01*
X58720192Y14611143D01*
X58547270Y14534152D01*
X58547265Y14534149D01*
X58394129Y14422889D01*
X58267466Y14282215D01*
X58172821Y14118285D01*
X58172818Y14118278D01*
X58136853Y14007587D01*
X58114326Y13938256D01*
X58094540Y13750000D01*
X58114326Y13561744D01*
X58114327Y13561741D01*
X58172818Y13381723D01*
X58172821Y13381716D01*
X58267467Y13217784D01*
X58336685Y13140910D01*
X58394129Y13077112D01*
X58547265Y12965852D01*
X58547270Y12965849D01*
X58720192Y12888858D01*
X58720197Y12888856D01*
X58905354Y12849500D01*
X58905355Y12849500D01*
X59094644Y12849500D01*
X59094646Y12849500D01*
X59279803Y12888856D01*
X59452730Y12965849D01*
X59454776Y12967336D01*
X59466452Y12975818D01*
X59532258Y12999298D01*
X59539337Y12999500D01*
X60375500Y12999500D01*
X60442539Y12979815D01*
X60488294Y12927011D01*
X60499500Y12875500D01*
X60499500Y11976082D01*
X60499500Y11976080D01*
X60499499Y11976080D01*
X60528340Y11831093D01*
X60528343Y11831083D01*
X60584914Y11694508D01*
X60617812Y11645273D01*
X60617813Y11645270D01*
X60667046Y11571586D01*
X60667052Y11571579D01*
X65021581Y7217051D01*
X65021583Y7217049D01*
X65023375Y7215852D01*
X65046351Y7200500D01*
X65144505Y7134916D01*
X65176511Y7121659D01*
X65176512Y7121658D01*
X65176513Y7121658D01*
X65281088Y7078341D01*
X65397241Y7055237D01*
X65416468Y7051413D01*
X65426081Y7049500D01*
X77626000Y7049500D01*
X77693039Y7029815D01*
X77738794Y6977011D01*
X77750000Y6925500D01*
X77750000Y624500D01*
X77730315Y557461D01*
X77677511Y511706D01*
X77626000Y500500D01*
X33631315Y500500D01*
X33564276Y520185D01*
X33518521Y572989D01*
X33508577Y642147D01*
X33537602Y705703D01*
X33577513Y736220D01*
X33632647Y762772D01*
X33632653Y762776D01*
X33796180Y874267D01*
X33178389Y1492059D01*
X33178994Y1492309D01*
X33319031Y1585878D01*
X33438122Y1704969D01*
X33531691Y1845006D01*
X33531941Y1845612D01*
X34149440Y1228113D01*
X34192903Y1282613D01*
X34321235Y1504891D01*
X34415004Y1743811D01*
X34415009Y1743828D01*
X34472121Y1994052D01*
X34491302Y2249996D01*
X34491302Y2250005D01*
X34472121Y2505949D01*
X34415009Y2756173D01*
X34415004Y2756190D01*
X34321235Y2995110D01*
X34192900Y3217391D01*
X34149441Y3271889D01*
X33531941Y2654389D01*
X33531691Y2654994D01*
X33438122Y2795031D01*
X33319031Y2914122D01*
X33178994Y3007691D01*
X33178388Y3007942D01*
X33796180Y3625735D01*
X33632651Y3737227D01*
X33632643Y3737232D01*
X33401403Y3848590D01*
X33401405Y3848590D01*
X33156137Y3924246D01*
X33156131Y3924248D01*
X32902341Y3962500D01*
X32645658Y3962500D01*
X32391868Y3924248D01*
X32391862Y3924246D01*
X32198970Y3864746D01*
X32173615Y3864402D01*
X32169081Y3859413D01*
X32149858Y3849871D01*
X32146604Y3848594D01*
X31915356Y3737232D01*
X31915348Y3737227D01*
X31751818Y3625735D01*
X32369611Y3007942D01*
X32369006Y3007691D01*
X32228969Y2914122D01*
X32109878Y2795031D01*
X32016309Y2654994D01*
X32016057Y2654389D01*
X31398558Y3271888D01*
X31398557Y3271888D01*
X31355098Y3217391D01*
X31226764Y2995110D01*
X31132995Y2756190D01*
X31132990Y2756173D01*
X31075878Y2505949D01*
X31056698Y2250005D01*
X31056698Y2249996D01*
X31075878Y1994052D01*
X31132990Y1743828D01*
X31132995Y1743811D01*
X31226764Y1504891D01*
X31355101Y1282606D01*
X31398557Y1228113D01*
X31398558Y1228113D01*
X32016057Y1845613D01*
X32016309Y1845006D01*
X32109878Y1704969D01*
X32228969Y1585878D01*
X32369006Y1492309D01*
X32369610Y1492059D01*
X31751818Y874267D01*
X31915353Y762771D01*
X31970487Y736220D01*
X32022346Y689398D01*
X32040659Y621971D01*
X32019611Y555347D01*
X31965885Y510678D01*
X31916685Y500500D01*
X26607315Y500500D01*
X26540276Y520185D01*
X26494521Y572989D01*
X26484577Y642147D01*
X26513602Y705703D01*
X26553513Y736220D01*
X26608647Y762772D01*
X26608653Y762776D01*
X26772180Y874267D01*
X26154389Y1492059D01*
X26154994Y1492309D01*
X26295031Y1585878D01*
X26414122Y1704969D01*
X26507691Y1845006D01*
X26507941Y1845612D01*
X27125440Y1228113D01*
X27168903Y1282613D01*
X27297235Y1504891D01*
X27391004Y1743811D01*
X27391009Y1743828D01*
X27448121Y1994052D01*
X27467302Y2249996D01*
X27467302Y2250005D01*
X27448121Y2505949D01*
X27391009Y2756173D01*
X27391004Y2756190D01*
X27297235Y2995110D01*
X27168900Y3217391D01*
X27125441Y3271889D01*
X26507941Y2654389D01*
X26507691Y2654994D01*
X26414122Y2795031D01*
X26295031Y2914122D01*
X26154994Y3007691D01*
X26154388Y3007942D01*
X26772180Y3625735D01*
X26608651Y3737227D01*
X26608643Y3737232D01*
X26377398Y3848593D01*
X26374146Y3849869D01*
X26357678Y3862641D01*
X26342959Y3860643D01*
X26325029Y3864746D01*
X26132137Y3924246D01*
X26132131Y3924248D01*
X25878341Y3962500D01*
X25621658Y3962500D01*
X25367868Y3924248D01*
X25367862Y3924246D01*
X25122595Y3848590D01*
X24891356Y3737232D01*
X24891348Y3737227D01*
X24727818Y3625735D01*
X25345611Y3007942D01*
X25345006Y3007691D01*
X25204969Y2914122D01*
X25085878Y2795031D01*
X24992309Y2654994D01*
X24992057Y2654389D01*
X24374558Y3271888D01*
X24374557Y3271888D01*
X24331098Y3217391D01*
X24202764Y2995110D01*
X24108995Y2756190D01*
X24108990Y2756173D01*
X24051878Y2505949D01*
X24032698Y2250005D01*
X24032698Y2249996D01*
X24051878Y1994052D01*
X24108990Y1743828D01*
X24108995Y1743811D01*
X24202764Y1504891D01*
X24331101Y1282606D01*
X24374557Y1228113D01*
X24374558Y1228113D01*
X24992057Y1845613D01*
X24992309Y1845006D01*
X25085878Y1704969D01*
X25204969Y1585878D01*
X25345006Y1492309D01*
X25345610Y1492059D01*
X24727818Y874267D01*
X24891353Y762771D01*
X24946487Y736220D01*
X24998346Y689398D01*
X25016659Y621971D01*
X24995611Y555347D01*
X24941885Y510678D01*
X24892685Y500500D01*
X7374000Y500500D01*
X7306961Y520185D01*
X7261206Y572989D01*
X7250000Y624500D01*
X7250000Y6389271D01*
X7269685Y6456310D01*
X7322489Y6502065D01*
X7391647Y6512009D01*
X7455203Y6482984D01*
X7461681Y6476952D01*
X7521585Y6417048D01*
X7538834Y6405523D01*
X7562374Y6389794D01*
X7644501Y6334918D01*
X7644503Y6334917D01*
X7644505Y6334916D01*
X7665828Y6326084D01*
X7665829Y6326083D01*
X7665830Y6326083D01*
X7781088Y6278341D01*
X7895944Y6255495D01*
X7916036Y6251499D01*
X7926081Y6249500D01*
X7926082Y6249500D01*
X7926083Y6249500D01*
X8073918Y6249500D01*
X10137770Y6249500D01*
X10204809Y6229815D01*
X10225451Y6213181D01*
X10486951Y5951681D01*
X10520436Y5890358D01*
X10515452Y5820666D01*
X10473580Y5764733D01*
X10408116Y5740316D01*
X10399270Y5740000D01*
X10250000Y5740000D01*
X10250000Y4823012D01*
X10192993Y4855925D01*
X10065826Y4890000D01*
X9934174Y4890000D01*
X9807007Y4855925D01*
X9750000Y4823012D01*
X9750000Y5740000D01*
X9102155Y5740000D01*
X9042627Y5733599D01*
X9042620Y5733597D01*
X8907913Y5683355D01*
X8907906Y5683351D01*
X8792812Y5597191D01*
X8792809Y5597188D01*
X8706649Y5482094D01*
X8706645Y5482087D01*
X8656403Y5347380D01*
X8656401Y5347373D01*
X8650000Y5287845D01*
X8650000Y4640000D01*
X9566988Y4640000D01*
X9534075Y4582993D01*
X9500000Y4455826D01*
X9500000Y4324174D01*
X9534075Y4197007D01*
X9566988Y4140000D01*
X8650000Y4140000D01*
X8650000Y3492156D01*
X8656401Y3432628D01*
X8656403Y3432621D01*
X8706645Y3297914D01*
X8706649Y3297907D01*
X8792809Y3182813D01*
X8792812Y3182810D01*
X8907906Y3096650D01*
X8907913Y3096646D01*
X9042620Y3046404D01*
X9042627Y3046402D01*
X9102155Y3040001D01*
X9102172Y3040000D01*
X9750000Y3040000D01*
X9750000Y3956988D01*
X9807007Y3924075D01*
X9934174Y3890000D01*
X10065826Y3890000D01*
X10192993Y3924075D01*
X10250000Y3956988D01*
X10250000Y3040000D01*
X10897828Y3040000D01*
X10897844Y3040001D01*
X10957372Y3046402D01*
X10957379Y3046404D01*
X11092086Y3096646D01*
X11092093Y3096650D01*
X11207187Y3182810D01*
X11207190Y3182813D01*
X11293350Y3297907D01*
X11293354Y3297914D01*
X11342422Y3429471D01*
X11384293Y3485405D01*
X11449757Y3509822D01*
X11518030Y3494970D01*
X11546285Y3473819D01*
X11668599Y3351505D01*
X11720668Y3315046D01*
X11862165Y3215968D01*
X11862167Y3215967D01*
X11862170Y3215965D01*
X12076337Y3116097D01*
X12304592Y3054937D01*
X12475319Y3040000D01*
X12539999Y3034341D01*
X12540000Y3034341D01*
X12540001Y3034341D01*
X12604681Y3040000D01*
X12775408Y3054937D01*
X13003663Y3116097D01*
X13217830Y3215965D01*
X13411401Y3351505D01*
X13578495Y3518599D01*
X13626127Y3586624D01*
X13680704Y3630249D01*
X13727701Y3639500D01*
X16713920Y3639500D01*
X16811462Y3658904D01*
X16858913Y3668342D01*
X16995495Y3724916D01*
X17075453Y3778342D01*
X17118416Y3807048D01*
X18561368Y5250001D01*
X25607321Y5250001D01*
X25607321Y5250000D01*
X25626002Y5036473D01*
X25626004Y5036463D01*
X25681477Y4829433D01*
X25681481Y4829424D01*
X25772066Y4635162D01*
X25772067Y4635160D01*
X25811825Y4578380D01*
X25811826Y4578379D01*
X26325460Y5092014D01*
X26338460Y5043498D01*
X26408894Y4921503D01*
X26508503Y4821894D01*
X26630498Y4751460D01*
X26679012Y4738461D01*
X26165377Y4224827D01*
X26222161Y4185067D01*
X26222165Y4185065D01*
X26413983Y4095619D01*
X26423324Y4087394D01*
X26430411Y4088809D01*
X26451550Y4085069D01*
X26623466Y4039004D01*
X26623472Y4039003D01*
X26836999Y4020321D01*
X26837001Y4020321D01*
X27050527Y4039003D01*
X27050537Y4039005D01*
X27257567Y4094478D01*
X27257576Y4094482D01*
X27451839Y4185067D01*
X27508621Y4224827D01*
X26994987Y4738461D01*
X27043502Y4751460D01*
X27165497Y4821894D01*
X27265106Y4921503D01*
X27335540Y5043498D01*
X27348539Y5092013D01*
X27862173Y4578379D01*
X27901933Y4635161D01*
X27992518Y4829424D01*
X27992522Y4829433D01*
X28047995Y5036463D01*
X28047997Y5036473D01*
X28066679Y5250000D01*
X28066679Y5250001D01*
X30457321Y5250001D01*
X30457321Y5250000D01*
X30476002Y5036473D01*
X30476004Y5036463D01*
X30531477Y4829433D01*
X30531481Y4829424D01*
X30622066Y4635162D01*
X30622067Y4635160D01*
X30661825Y4578380D01*
X30661826Y4578379D01*
X31175460Y5092014D01*
X31188460Y5043498D01*
X31258894Y4921503D01*
X31358503Y4821894D01*
X31480498Y4751460D01*
X31529012Y4738461D01*
X31015377Y4224827D01*
X31072161Y4185067D01*
X31266423Y4094482D01*
X31266432Y4094478D01*
X31473462Y4039005D01*
X31473472Y4039003D01*
X31686999Y4020321D01*
X31687001Y4020321D01*
X31900527Y4039003D01*
X31900533Y4039004D01*
X32072449Y4085069D01*
X32092253Y4084598D01*
X32093968Y4086631D01*
X32110016Y4095619D01*
X32301836Y4185066D01*
X32301838Y4185067D01*
X32358621Y4224827D01*
X31844987Y4738461D01*
X31893502Y4751460D01*
X32015497Y4821894D01*
X32115106Y4921503D01*
X32185540Y5043498D01*
X32198539Y5092013D01*
X32712173Y4578379D01*
X32751933Y4635161D01*
X32842518Y4829424D01*
X32842522Y4829433D01*
X32897995Y5036463D01*
X32897997Y5036473D01*
X32916679Y5250000D01*
X32916679Y5250001D01*
X32897997Y5463528D01*
X32897995Y5463538D01*
X32842522Y5670568D01*
X32842518Y5670577D01*
X32751933Y5864838D01*
X32712172Y5921621D01*
X32198539Y5407988D01*
X32185540Y5456502D01*
X32115106Y5578497D01*
X32015497Y5678106D01*
X31893502Y5748540D01*
X31844987Y5761540D01*
X32358621Y6275174D01*
X32358620Y6275175D01*
X32301840Y6314933D01*
X32301838Y6314934D01*
X32107576Y6405519D01*
X32107567Y6405523D01*
X31900537Y6460996D01*
X31900527Y6460998D01*
X31687001Y6479679D01*
X31686999Y6479679D01*
X31473472Y6460998D01*
X31473462Y6460996D01*
X31266432Y6405523D01*
X31266423Y6405519D01*
X31072162Y6314934D01*
X31015378Y6275174D01*
X31529012Y5761540D01*
X31480498Y5748540D01*
X31358503Y5678106D01*
X31258894Y5578497D01*
X31188460Y5456502D01*
X31175460Y5407988D01*
X30661826Y5921622D01*
X30622066Y5864838D01*
X30531481Y5670577D01*
X30531477Y5670568D01*
X30476004Y5463538D01*
X30476002Y5463528D01*
X30457321Y5250001D01*
X28066679Y5250001D01*
X28047997Y5463528D01*
X28047995Y5463538D01*
X27992522Y5670568D01*
X27992518Y5670577D01*
X27901933Y5864838D01*
X27862172Y5921621D01*
X27348539Y5407988D01*
X27335540Y5456502D01*
X27265106Y5578497D01*
X27165497Y5678106D01*
X27043502Y5748540D01*
X26994987Y5761540D01*
X27508621Y6275174D01*
X27508620Y6275175D01*
X27451840Y6314933D01*
X27451838Y6314934D01*
X27257576Y6405519D01*
X27257567Y6405523D01*
X27050537Y6460996D01*
X27050527Y6460998D01*
X26837001Y6479679D01*
X26836999Y6479679D01*
X26623472Y6460998D01*
X26623462Y6460996D01*
X26416432Y6405523D01*
X26416423Y6405519D01*
X26222162Y6314934D01*
X26165378Y6275174D01*
X26679012Y5761540D01*
X26630498Y5748540D01*
X26508503Y5678106D01*
X26408894Y5578497D01*
X26338460Y5456502D01*
X26325460Y5407988D01*
X25811826Y5921622D01*
X25772066Y5864838D01*
X25681481Y5670577D01*
X25681477Y5670568D01*
X25626004Y5463538D01*
X25626002Y5463528D01*
X25607321Y5250001D01*
X18561368Y5250001D01*
X20652770Y7341405D01*
X20714091Y7374888D01*
X20714427Y7374961D01*
X20779803Y7388856D01*
X20952730Y7465849D01*
X20956800Y7468806D01*
X20966452Y7475818D01*
X21032258Y7499298D01*
X21039337Y7499500D01*
X21210663Y7499500D01*
X21277702Y7479815D01*
X21283548Y7475818D01*
X21297265Y7465852D01*
X21297270Y7465849D01*
X21470192Y7388858D01*
X21470197Y7388856D01*
X21655354Y7349500D01*
X21655355Y7349500D01*
X21844644Y7349500D01*
X21844646Y7349500D01*
X22029803Y7388856D01*
X22202730Y7465849D01*
X22206800Y7468806D01*
X22216452Y7475818D01*
X22282258Y7499298D01*
X22289337Y7499500D01*
X32074908Y7499500D01*
X32085086Y7500000D01*
X33875500Y7500000D01*
X33942539Y7480315D01*
X33988294Y7427511D01*
X33999500Y7376000D01*
X33999500Y4426082D01*
X33999500Y4426080D01*
X33999499Y4426080D01*
X34028340Y4281093D01*
X34028343Y4281083D01*
X34084913Y4144510D01*
X34084914Y4144509D01*
X34084916Y4144505D01*
X34101620Y4119506D01*
X34155409Y4039003D01*
X34167051Y4021580D01*
X34167052Y4021579D01*
X35521584Y2667048D01*
X35521586Y2667046D01*
X35551058Y2647355D01*
X35595270Y2617814D01*
X35644505Y2584916D01*
X35644506Y2584916D01*
X35644507Y2584915D01*
X35644509Y2584914D01*
X35781082Y2528344D01*
X35781087Y2528342D01*
X35781091Y2528342D01*
X35781092Y2528341D01*
X35926079Y2499500D01*
X35926082Y2499500D01*
X54348920Y2499500D01*
X54446462Y2518904D01*
X54493913Y2528342D01*
X54630495Y2584916D01*
X54679729Y2617814D01*
X54679734Y2617817D01*
X54735375Y2654994D01*
X54753416Y2667048D01*
X55652770Y3566405D01*
X55714091Y3599888D01*
X55714427Y3599961D01*
X55779803Y3613856D01*
X55952730Y3690849D01*
X55987144Y3715852D01*
X56001550Y3726318D01*
X56067356Y3749798D01*
X56074435Y3750000D01*
X58459975Y3750000D01*
X58527014Y3730315D01*
X58532854Y3726323D01*
X58534792Y3724915D01*
X58547270Y3715849D01*
X58720192Y3638858D01*
X58720197Y3638856D01*
X58905354Y3599500D01*
X58905355Y3599500D01*
X59094644Y3599500D01*
X59094646Y3599500D01*
X59279803Y3638856D01*
X59452730Y3715849D01*
X59605871Y3827112D01*
X59732533Y3967784D01*
X59827179Y4131716D01*
X59885674Y4311744D01*
X59905460Y4500000D01*
X59885674Y4688256D01*
X59827179Y4868284D01*
X59732533Y5032216D01*
X59605871Y5172888D01*
X59603164Y5174855D01*
X59452734Y5284149D01*
X59452729Y5284152D01*
X59279807Y5361143D01*
X59279802Y5361145D01*
X59214669Y5374989D01*
X59153187Y5408182D01*
X59152769Y5408598D01*
X57978421Y6582948D01*
X57978414Y6582954D01*
X57904729Y6632188D01*
X57904729Y6632187D01*
X57855491Y6665087D01*
X57718917Y6721657D01*
X57718907Y6721660D01*
X57599808Y6745351D01*
X57537897Y6777737D01*
X57503323Y6838453D01*
X57500000Y6866968D01*
X57500000Y7214813D01*
X57516613Y7276813D01*
X57577179Y7381716D01*
X57635674Y7561744D01*
X57655460Y7750000D01*
X57635674Y7938256D01*
X57577179Y8118284D01*
X57482533Y8282216D01*
X57355871Y8422888D01*
X57355870Y8422889D01*
X57202734Y8534149D01*
X57202729Y8534152D01*
X57029807Y8611143D01*
X57029802Y8611145D01*
X56884001Y8642135D01*
X56844646Y8650500D01*
X56655354Y8650500D01*
X56622897Y8643602D01*
X56470197Y8611145D01*
X56470192Y8611143D01*
X56297270Y8534152D01*
X56297265Y8534149D01*
X56283548Y8524182D01*
X56217742Y8500702D01*
X56210663Y8500500D01*
X55475092Y8500500D01*
X55464914Y8500000D01*
X53316749Y8500000D01*
X53249710Y8519685D01*
X53224599Y8541028D01*
X53105870Y8672889D01*
X52952734Y8784149D01*
X52952729Y8784152D01*
X52779807Y8861143D01*
X52779802Y8861145D01*
X52634001Y8892135D01*
X52594646Y8900500D01*
X52405354Y8900500D01*
X52305238Y8879221D01*
X52235573Y8884537D01*
X52179840Y8926675D01*
X52155735Y8992255D01*
X52155485Y8999759D01*
X52155386Y9000702D01*
X52135674Y9188256D01*
X52077179Y9368284D01*
X51982533Y9532216D01*
X51973698Y9542028D01*
X51943469Y9605019D01*
X51952093Y9674354D01*
X51973699Y9707973D01*
X51982533Y9717784D01*
X52077179Y9881716D01*
X52135674Y10061744D01*
X52155460Y10250000D01*
X52135674Y10438256D01*
X52077179Y10618284D01*
X51982533Y10782216D01*
X51855871Y10922888D01*
X51853585Y10924549D01*
X51702734Y11034149D01*
X51702729Y11034152D01*
X51529807Y11111143D01*
X51529802Y11111145D01*
X51384001Y11142135D01*
X51344646Y11150500D01*
X51155354Y11150500D01*
X51122897Y11143602D01*
X50970197Y11111145D01*
X50964010Y11109134D01*
X50963185Y11111673D01*
X50905653Y11103975D01*
X50842384Y11133620D01*
X50805187Y11192765D01*
X50800500Y11226534D01*
X50800500Y15937771D01*
X50820185Y16004810D01*
X50836819Y16025452D01*
X51024548Y16213181D01*
X51085871Y16246666D01*
X51112229Y16249500D01*
X54273920Y16249500D01*
X54371462Y16268904D01*
X54418913Y16278342D01*
X54555495Y16334916D01*
X54617675Y16376463D01*
X54678416Y16417048D01*
X58332951Y20071584D01*
X58415084Y20194505D01*
X58471658Y20331087D01*
X58481730Y20381723D01*
X58500500Y20476080D01*
X58500500Y39073921D01*
X58471659Y39218908D01*
X58471658Y39218909D01*
X58471658Y39218913D01*
X58452917Y39264158D01*
X58415087Y39355489D01*
X58415080Y39355502D01*
X58332952Y39478415D01*
X58325030Y39486337D01*
X58228416Y39582951D01*
X55387193Y42424174D01*
X46478421Y51332948D01*
X46478414Y51332954D01*
X46404729Y51382188D01*
X46404729Y51382187D01*
X46355491Y51415087D01*
X46218917Y51471657D01*
X46218907Y51471660D01*
X46073920Y51500500D01*
X46073918Y51500500D01*
X34676082Y51500500D01*
X34676080Y51500500D01*
X34531092Y51471660D01*
X34531086Y51471658D01*
X34394508Y51415086D01*
X34394496Y51415079D01*
X34345269Y51382187D01*
X34271588Y51332956D01*
X34271580Y51332950D01*
X31975451Y49036819D01*
X31914128Y49003334D01*
X31887770Y49000500D01*
X30315398Y49000500D01*
X30248359Y49020185D01*
X30202604Y49072989D01*
X30192660Y49142147D01*
X30221685Y49205703D01*
X30223248Y49207472D01*
X30232533Y49217784D01*
X30327179Y49381716D01*
X30385674Y49561744D01*
X30405460Y49750000D01*
X30385674Y49938256D01*
X30327179Y50118284D01*
X30267113Y50222323D01*
X30250500Y50284323D01*
X30250500Y50465679D01*
X30267113Y50527679D01*
X30270156Y50532949D01*
X30327179Y50631716D01*
X30382522Y50802045D01*
X30412769Y50851403D01*
X31774548Y52213181D01*
X31835871Y52246666D01*
X31862229Y52249500D01*
X47137770Y52249500D01*
X47204809Y52229815D01*
X47225451Y52213181D01*
X57021585Y42417048D01*
X57048839Y42398838D01*
X57062374Y42389794D01*
X57144498Y42334920D01*
X57144511Y42334913D01*
X57201079Y42311482D01*
X57201080Y42311482D01*
X57281088Y42278341D01*
X57397241Y42255237D01*
X57416468Y42251413D01*
X57426081Y42249500D01*
X57426082Y42249500D01*
X57426083Y42249500D01*
X57573918Y42249500D01*
X60387770Y42249500D01*
X60454809Y42229815D01*
X60475451Y42213181D01*
X61213181Y41475451D01*
X61246666Y41414128D01*
X61249500Y41387770D01*
X61249500Y26676082D01*
X61249500Y26676080D01*
X61249499Y26676080D01*
X61278340Y26531093D01*
X61278343Y26531083D01*
X61334914Y26394508D01*
X61355720Y26363370D01*
X61355721Y26363367D01*
X61417046Y26271586D01*
X61417052Y26271579D01*
X62247765Y25440868D01*
X62521585Y25167048D01*
X62539901Y25154810D01*
X62548997Y25148732D01*
X62644498Y25084920D01*
X62644502Y25084918D01*
X62644505Y25084916D01*
X62686431Y25067550D01*
X62686432Y25067549D01*
X62686433Y25067549D01*
X62781088Y25028341D01*
X62897241Y25005237D01*
X62916468Y25001413D01*
X62926081Y24999500D01*
X62926082Y24999500D01*
X62926083Y24999500D01*
X63073918Y24999500D01*
X78387770Y24999500D01*
X78454809Y24979815D01*
X78475451Y24963181D01*
X79587228Y23851404D01*
X79617478Y23802042D01*
X79672819Y23631720D01*
X79672821Y23631716D01*
X79767467Y23467784D01*
X79894129Y23327112D01*
X80047265Y23215852D01*
X80047270Y23215849D01*
X80220191Y23138858D01*
X80220193Y23138858D01*
X80220197Y23138856D01*
X80285329Y23125013D01*
X80346809Y23091822D01*
X80347228Y23091404D01*
X82213181Y21225451D01*
X82246666Y21164128D01*
X82249500Y21137770D01*
X82249500Y20284323D01*
X82232887Y20222323D01*
X82172821Y20118286D01*
X82134388Y20000000D01*
X82114326Y19938256D01*
X82094540Y19750000D01*
X82114326Y19561744D01*
X82114327Y19561741D01*
X82172818Y19381723D01*
X82172821Y19381716D01*
X82267467Y19217784D01*
X82373971Y19099500D01*
X82394129Y19077112D01*
X82547265Y18965852D01*
X82547270Y18965849D01*
X82720192Y18888858D01*
X82720197Y18888856D01*
X82905354Y18849500D01*
X82905355Y18849500D01*
X83094644Y18849500D01*
X83094646Y18849500D01*
X83279803Y18888856D01*
X83452730Y18965849D01*
X83605871Y19077112D01*
X83732533Y19217784D01*
X83827179Y19381716D01*
X83885674Y19561744D01*
X83905460Y19750000D01*
X83885674Y19938256D01*
X83827179Y20118284D01*
X83803723Y20158911D01*
X83767113Y20222323D01*
X83750500Y20284323D01*
X83750500Y21573921D01*
X83721659Y21718908D01*
X83721658Y21718909D01*
X83721658Y21718913D01*
X83665084Y21855495D01*
X83622737Y21918872D01*
X83612234Y21934592D01*
X83582956Y21978411D01*
X83582952Y21978416D01*
X81412770Y24148598D01*
X81382521Y24197959D01*
X81347738Y24305008D01*
X81327181Y24368279D01*
X81327178Y24368285D01*
X81232533Y24532216D01*
X81105871Y24672888D01*
X81105870Y24672889D01*
X80952734Y24784149D01*
X80952729Y24784152D01*
X80779807Y24861143D01*
X80779803Y24861144D01*
X80714669Y24874989D01*
X80653188Y24908182D01*
X80652770Y24908598D01*
X79228421Y26332948D01*
X79228414Y26332954D01*
X79154729Y26382188D01*
X79154729Y26382187D01*
X79105491Y26415087D01*
X78968917Y26471657D01*
X78968907Y26471660D01*
X78823920Y26500500D01*
X78823918Y26500500D01*
X63362229Y26500500D01*
X63295190Y26520185D01*
X63274548Y26536819D01*
X62786819Y27024549D01*
X62753334Y27085872D01*
X62750500Y27112230D01*
X62750500Y41823921D01*
X62721659Y41968908D01*
X62721658Y41968909D01*
X62721658Y41968913D01*
X62721656Y41968918D01*
X62665086Y42105491D01*
X62665085Y42105493D01*
X62632186Y42154730D01*
X62632185Y42154732D01*
X62582956Y42228411D01*
X62582952Y42228416D01*
X61228421Y43582948D01*
X61228414Y43582954D01*
X61154729Y43632188D01*
X61154729Y43632187D01*
X61105491Y43665087D01*
X60968917Y43721657D01*
X60968907Y43721660D01*
X60823920Y43750500D01*
X60823918Y43750500D01*
X57862229Y43750500D01*
X57795190Y43770185D01*
X57774548Y43786819D01*
X50536319Y51025049D01*
X50502834Y51086372D01*
X50500000Y51112730D01*
X50500000Y53375500D01*
X50519685Y53442539D01*
X50572489Y53488294D01*
X50624000Y53499500D01*
X77626000Y53499500D01*
X77693039Y53479815D01*
G37*
%TD.AperFunction*%
%TA.AperFunction,Conductor*%
G36*
X8634595Y42740000D02*
G01*
X9566988Y42740000D01*
X9534075Y42682993D01*
X9500000Y42555826D01*
X9500000Y42424174D01*
X9534075Y42297007D01*
X9566988Y42240000D01*
X8650302Y42240000D01*
X8650000Y42250000D01*
X8650000Y42240000D01*
X8650000Y40020095D01*
X8649528Y40009287D01*
X8644341Y39950001D01*
X8644341Y39950000D01*
X8649528Y39890714D01*
X8650000Y39879906D01*
X8650000Y37480095D01*
X8649528Y37469287D01*
X8644341Y37410001D01*
X8644341Y37410000D01*
X8649528Y37350714D01*
X8650000Y37339906D01*
X8650000Y34940095D01*
X8649528Y34929287D01*
X8644341Y34870001D01*
X8644341Y34870000D01*
X8649528Y34810714D01*
X8650000Y34799906D01*
X8650000Y32400095D01*
X8649528Y32389287D01*
X8644341Y32330001D01*
X8644341Y32330000D01*
X8664936Y32094597D01*
X8664938Y32094587D01*
X8726094Y31866345D01*
X8726096Y31866341D01*
X8726097Y31866337D01*
X8806004Y31694977D01*
X8825965Y31652170D01*
X8825967Y31652166D01*
X8934281Y31497479D01*
X8961505Y31458599D01*
X9128599Y31291505D01*
X9211876Y31233194D01*
X9322165Y31155968D01*
X9322167Y31155967D01*
X9322170Y31155965D01*
X9536337Y31056097D01*
X9764592Y30994937D01*
X9952918Y30978461D01*
X9999999Y30974341D01*
X10000000Y30974341D01*
X10000001Y30974341D01*
X10016314Y30975769D01*
X10235408Y30994937D01*
X10238540Y30995777D01*
X10270628Y31000000D01*
X12269372Y31000000D01*
X12301459Y30995777D01*
X12304592Y30994937D01*
X12522470Y30975875D01*
X12539999Y30974341D01*
X12540000Y30974341D01*
X12540001Y30974341D01*
X12579234Y30977774D01*
X12775408Y30994937D01*
X13003663Y31056097D01*
X13217830Y31155965D01*
X13411401Y31291505D01*
X13578495Y31458599D01*
X13714035Y31652170D01*
X13813903Y31866337D01*
X13875063Y32094592D01*
X13887603Y32237932D01*
X13900000Y32269623D01*
X13900000Y42201732D01*
X13870636Y42240000D01*
X13750000Y42240000D01*
X13750000Y42250000D01*
X13749474Y42240000D01*
X12973012Y42240000D01*
X13005925Y42297007D01*
X13040000Y42424174D01*
X13040000Y42555826D01*
X13005925Y42682993D01*
X12973012Y42740000D01*
X13893830Y42740000D01*
X13897511Y42742688D01*
X13939461Y42750000D01*
X14625500Y42750000D01*
X14692539Y42730315D01*
X14738294Y42677511D01*
X14749500Y42626000D01*
X14749500Y25492231D01*
X14729815Y25425192D01*
X14713181Y25404550D01*
X12865449Y23556819D01*
X12804126Y23523334D01*
X12777768Y23520500D01*
X11642129Y23520500D01*
X11642123Y23520499D01*
X11582518Y23514092D01*
X11571118Y23509840D01*
X11565697Y23507818D01*
X11522365Y23500000D01*
X10270628Y23500000D01*
X10238540Y23504224D01*
X10235408Y23505063D01*
X10058978Y23520499D01*
X10000001Y23525659D01*
X9999999Y23525659D01*
X9764596Y23505064D01*
X9764586Y23505062D01*
X9536344Y23443906D01*
X9536335Y23443902D01*
X9322171Y23344036D01*
X9322169Y23344035D01*
X9128597Y23208495D01*
X8961505Y23041403D01*
X8825965Y22847831D01*
X8825964Y22847829D01*
X8726098Y22633665D01*
X8726094Y22633656D01*
X8664938Y22405414D01*
X8664936Y22405404D01*
X8644341Y22170001D01*
X8644341Y22170000D01*
X8664936Y21934597D01*
X8664938Y21934587D01*
X8726094Y21706345D01*
X8726096Y21706341D01*
X8726097Y21706337D01*
X8806389Y21534151D01*
X8825965Y21492170D01*
X8825967Y21492166D01*
X8961501Y21298605D01*
X8961506Y21298598D01*
X9128597Y21131507D01*
X9128603Y21131502D01*
X9314594Y21001270D01*
X9358219Y20946693D01*
X9365413Y20877195D01*
X9333890Y20814840D01*
X9314595Y20798120D01*
X9128922Y20668110D01*
X9128920Y20668109D01*
X8961891Y20501080D01*
X8961886Y20501074D01*
X8826400Y20307580D01*
X8826399Y20307578D01*
X8726570Y20093493D01*
X8726567Y20093487D01*
X8669364Y19880001D01*
X8669364Y19880000D01*
X9566988Y19880000D01*
X9534075Y19822993D01*
X9500000Y19695826D01*
X9500000Y19564174D01*
X9534075Y19437007D01*
X9566988Y19380000D01*
X8669364Y19380000D01*
X8726570Y19166507D01*
X8726572Y19166501D01*
X8738381Y19141179D01*
X8750000Y19088772D01*
X8750000Y17632414D01*
X8738383Y17580011D01*
X8726098Y17553666D01*
X8726094Y17553656D01*
X8664938Y17325414D01*
X8664936Y17325404D01*
X8644341Y17090001D01*
X8644341Y17090000D01*
X8664936Y16854597D01*
X8664938Y16854587D01*
X8726094Y16626345D01*
X8726096Y16626341D01*
X8726097Y16626337D01*
X8738382Y16599992D01*
X8750000Y16547587D01*
X8750000Y15092414D01*
X8738383Y15040011D01*
X8726098Y15013666D01*
X8726094Y15013656D01*
X8664938Y14785414D01*
X8664936Y14785404D01*
X8644341Y14550001D01*
X8644341Y14550000D01*
X8664936Y14314597D01*
X8664938Y14314587D01*
X8726094Y14086345D01*
X8726096Y14086341D01*
X8726097Y14086337D01*
X8738382Y14059992D01*
X8750000Y14007587D01*
X8750000Y12552414D01*
X8738383Y12500011D01*
X8726098Y12473666D01*
X8726094Y12473656D01*
X8664938Y12245414D01*
X8664936Y12245404D01*
X8644341Y12010001D01*
X8644341Y12010000D01*
X8664936Y11774597D01*
X8664938Y11774587D01*
X8726094Y11546345D01*
X8726096Y11546341D01*
X8726097Y11546337D01*
X8738382Y11519992D01*
X8750000Y11467587D01*
X8750000Y10012414D01*
X8738383Y9960011D01*
X8726098Y9933666D01*
X8726094Y9933656D01*
X8664938Y9705414D01*
X8664936Y9705404D01*
X8644341Y9470001D01*
X8644341Y9470000D01*
X8664936Y9234597D01*
X8664938Y9234587D01*
X8726094Y9006345D01*
X8726096Y9006341D01*
X8726097Y9006337D01*
X8816839Y8811741D01*
X8825965Y8792170D01*
X8825967Y8792166D01*
X8909487Y8672888D01*
X8961505Y8598599D01*
X9128599Y8431505D01*
X9209365Y8374952D01*
X9322165Y8295968D01*
X9322167Y8295967D01*
X9322170Y8295965D01*
X9536337Y8196097D01*
X9764592Y8134937D01*
X9926404Y8120780D01*
X9999999Y8114341D01*
X10000000Y8114341D01*
X10000001Y8114341D01*
X10073596Y8120780D01*
X10235408Y8134937D01*
X10463663Y8196097D01*
X10554343Y8238383D01*
X10606748Y8250000D01*
X11933252Y8250000D01*
X11985656Y8238383D01*
X12076337Y8196097D01*
X12304592Y8134937D01*
X12466404Y8120780D01*
X12539999Y8114341D01*
X12540000Y8114341D01*
X12540001Y8114341D01*
X12613596Y8120780D01*
X12775408Y8134937D01*
X13003663Y8196097D01*
X13217830Y8295965D01*
X13411401Y8431505D01*
X13578495Y8598599D01*
X13714035Y8792170D01*
X13813903Y9006337D01*
X13875063Y9234592D01*
X13895659Y9470000D01*
X13875063Y9705408D01*
X13813903Y9933663D01*
X13714035Y10147829D01*
X13697402Y10171583D01*
X13637142Y10257644D01*
X13614815Y10323850D01*
X13631825Y10391617D01*
X13651032Y10416444D01*
X14385857Y11151266D01*
X14454311Y11253714D01*
X14473276Y11299500D01*
X14501463Y11367548D01*
X14525500Y11488394D01*
X14525500Y12500000D01*
X27569540Y12500000D01*
X27589326Y12311744D01*
X27589327Y12311741D01*
X27647818Y12131723D01*
X27647821Y12131716D01*
X27742467Y11967784D01*
X27869129Y11827112D01*
X28022265Y11715852D01*
X28022270Y11715849D01*
X28195192Y11638858D01*
X28195197Y11638856D01*
X28380354Y11599500D01*
X28380355Y11599500D01*
X28569644Y11599500D01*
X28569646Y11599500D01*
X28754803Y11638856D01*
X28927730Y11715849D01*
X28927738Y11715856D01*
X28933357Y11719098D01*
X28934060Y11717880D01*
X28992919Y11738882D01*
X29060973Y11723058D01*
X29071480Y11716305D01*
X29072265Y11715853D01*
X29072270Y11715849D01*
X29120202Y11694508D01*
X29245192Y11638858D01*
X29245197Y11638856D01*
X29430354Y11599500D01*
X29430355Y11599500D01*
X29619644Y11599500D01*
X29619646Y11599500D01*
X29804803Y11638856D01*
X29977730Y11715849D01*
X30130871Y11827112D01*
X30257533Y11967784D01*
X30352179Y12131716D01*
X30410674Y12311744D01*
X30430460Y12500000D01*
X30410674Y12688256D01*
X30352179Y12868284D01*
X30257533Y13032216D01*
X30130871Y13172888D01*
X30124895Y13177230D01*
X29977734Y13284149D01*
X29977729Y13284152D01*
X29804807Y13361143D01*
X29804802Y13361145D01*
X29659001Y13392135D01*
X29619646Y13400500D01*
X29430354Y13400500D01*
X29397897Y13393602D01*
X29245197Y13361145D01*
X29245192Y13361143D01*
X29072270Y13284152D01*
X29066637Y13280899D01*
X29065934Y13282117D01*
X29007068Y13261119D01*
X28939016Y13276950D01*
X28928526Y13283692D01*
X28927729Y13284152D01*
X28754807Y13361143D01*
X28754802Y13361145D01*
X28609001Y13392135D01*
X28569646Y13400500D01*
X28380354Y13400500D01*
X28347897Y13393602D01*
X28195197Y13361145D01*
X28195192Y13361143D01*
X28022270Y13284152D01*
X28022265Y13284149D01*
X27869129Y13172889D01*
X27742466Y13032215D01*
X27647821Y12868285D01*
X27647818Y12868278D01*
X27599287Y12718913D01*
X27589326Y12688256D01*
X27569540Y12500000D01*
X14525500Y12500000D01*
X14525500Y13089549D01*
X14545185Y13156588D01*
X14561814Y13177225D01*
X19348270Y17963682D01*
X19409593Y17997166D01*
X19435951Y18000000D01*
X23637270Y18000000D01*
X23704309Y17980315D01*
X23724951Y17963681D01*
X25771586Y15917046D01*
X25801058Y15897355D01*
X25845270Y15867814D01*
X25894505Y15834916D01*
X25894506Y15834916D01*
X25894507Y15834915D01*
X25894509Y15834914D01*
X25930515Y15820000D01*
X26031087Y15778342D01*
X26031091Y15778342D01*
X26031092Y15778341D01*
X26176079Y15749500D01*
X26176082Y15749500D01*
X26176083Y15749500D01*
X26323917Y15749500D01*
X30387770Y15749500D01*
X30454809Y15729815D01*
X30475451Y15713181D01*
X32181045Y14007587D01*
X32713681Y13474952D01*
X32747166Y13413629D01*
X32750000Y13387271D01*
X32750000Y11785189D01*
X32733387Y11723189D01*
X32672821Y11618286D01*
X32630618Y11488397D01*
X32614326Y11438256D01*
X32594540Y11250000D01*
X32614326Y11061744D01*
X32614327Y11061741D01*
X32672818Y10881723D01*
X32672821Y10881716D01*
X32730267Y10782216D01*
X32732887Y10777679D01*
X32749500Y10715679D01*
X32749500Y10112230D01*
X32729815Y10045191D01*
X32713181Y10024549D01*
X31725451Y9036819D01*
X31664128Y9003334D01*
X31637770Y9000500D01*
X22289337Y9000500D01*
X22222298Y9020185D01*
X22216452Y9024182D01*
X22202734Y9034149D01*
X22202729Y9034152D01*
X22029807Y9111143D01*
X22029802Y9111145D01*
X21884001Y9142135D01*
X21844646Y9150500D01*
X21655354Y9150500D01*
X21622897Y9143602D01*
X21470197Y9111145D01*
X21470192Y9111143D01*
X21297270Y9034152D01*
X21297265Y9034149D01*
X21283548Y9024182D01*
X21217742Y9000702D01*
X21210663Y9000500D01*
X21039337Y9000500D01*
X20972298Y9020185D01*
X20966452Y9024182D01*
X20952734Y9034149D01*
X20952729Y9034152D01*
X20779807Y9111143D01*
X20779802Y9111145D01*
X20634001Y9142135D01*
X20594646Y9150500D01*
X20405354Y9150500D01*
X20372897Y9143602D01*
X20220197Y9111145D01*
X20220192Y9111143D01*
X20047270Y9034152D01*
X20047265Y9034149D01*
X19894129Y8922889D01*
X19767466Y8782215D01*
X19672821Y8618285D01*
X19672819Y8618281D01*
X19617478Y8447959D01*
X19587228Y8398597D01*
X16365451Y5176819D01*
X16304128Y5143334D01*
X16277770Y5140500D01*
X13727701Y5140500D01*
X13660662Y5160185D01*
X13626126Y5193377D01*
X13578494Y5261403D01*
X13411402Y5428494D01*
X13411395Y5428499D01*
X13217834Y5564033D01*
X13217830Y5564035D01*
X13183990Y5579815D01*
X13003663Y5663903D01*
X13003659Y5663904D01*
X13003655Y5663906D01*
X12890686Y5694175D01*
X12835098Y5726269D01*
X10978421Y7582948D01*
X10978420Y7582949D01*
X10975476Y7584916D01*
X10903584Y7632952D01*
X10903583Y7632953D01*
X10855501Y7665081D01*
X10855488Y7665088D01*
X10718917Y7721657D01*
X10718907Y7721660D01*
X10573920Y7750500D01*
X10573918Y7750500D01*
X8362229Y7750500D01*
X8295190Y7770185D01*
X8274548Y7786819D01*
X7786819Y8274549D01*
X7753334Y8335872D01*
X7750500Y8362230D01*
X7750500Y23887771D01*
X7770185Y23954810D01*
X7786819Y23975452D01*
X8024548Y24213181D01*
X8085871Y24246666D01*
X8112229Y24249500D01*
X11823920Y24249500D01*
X11921462Y24268904D01*
X11968913Y24278342D01*
X12105495Y24334916D01*
X12172220Y24379500D01*
X12228416Y24417048D01*
X13122952Y25311584D01*
X13141174Y25338857D01*
X13178349Y25394492D01*
X13178351Y25394497D01*
X13178357Y25394505D01*
X13205084Y25434505D01*
X13228518Y25491080D01*
X13261659Y25571088D01*
X13289877Y25712951D01*
X13290500Y25716082D01*
X13290500Y26062300D01*
X13310185Y26129339D01*
X13343375Y26163874D01*
X13411401Y26211505D01*
X13578495Y26378599D01*
X13714035Y26572170D01*
X13813903Y26786337D01*
X13875063Y27014592D01*
X13895659Y27250000D01*
X13894167Y27267048D01*
X13889900Y27315826D01*
X13875063Y27485408D01*
X13813903Y27713663D01*
X13714035Y27927829D01*
X13711314Y27931716D01*
X13578494Y28121403D01*
X13411402Y28288494D01*
X13411395Y28288499D01*
X13392456Y28301760D01*
X13334854Y28342094D01*
X13217834Y28424033D01*
X13217830Y28424035D01*
X13146727Y28457191D01*
X13003663Y28523903D01*
X13003659Y28523904D01*
X13003655Y28523906D01*
X12775413Y28585062D01*
X12775403Y28585064D01*
X12540001Y28605659D01*
X12539999Y28605659D01*
X12304596Y28585064D01*
X12304586Y28585062D01*
X12076344Y28523906D01*
X12076335Y28523902D01*
X11862171Y28424036D01*
X11862169Y28424035D01*
X11668600Y28288497D01*
X11546284Y28166181D01*
X11484961Y28132697D01*
X11415269Y28137681D01*
X11359336Y28179553D01*
X11342421Y28210530D01*
X11293354Y28342087D01*
X11293350Y28342094D01*
X11207190Y28457188D01*
X11207187Y28457191D01*
X11092093Y28543351D01*
X11092086Y28543355D01*
X10957379Y28593597D01*
X10957372Y28593599D01*
X10897844Y28600000D01*
X10250000Y28600000D01*
X10250000Y27683012D01*
X10192993Y27715925D01*
X10065826Y27750000D01*
X9934174Y27750000D01*
X9807007Y27715925D01*
X9750000Y27683012D01*
X9750000Y28600000D01*
X9102155Y28600000D01*
X9042627Y28593599D01*
X9042620Y28593597D01*
X8907913Y28543355D01*
X8907906Y28543351D01*
X8792812Y28457191D01*
X8792809Y28457188D01*
X8706649Y28342094D01*
X8706645Y28342087D01*
X8656403Y28207380D01*
X8656401Y28207373D01*
X8650000Y28147845D01*
X8650000Y27500000D01*
X9566988Y27500000D01*
X9534075Y27442993D01*
X9500000Y27315826D01*
X9500000Y27184174D01*
X9534075Y27057007D01*
X9566988Y27000000D01*
X7874500Y27000000D01*
X7807461Y27019685D01*
X7761706Y27072489D01*
X7750500Y27124000D01*
X7750500Y42626000D01*
X7770185Y42693039D01*
X7822989Y42738794D01*
X7874500Y42750000D01*
X8600539Y42750000D01*
X8634595Y42740000D01*
G37*
%TD.AperFunction*%
%TA.AperFunction,Conductor*%
G36*
X45704809Y49979815D02*
G01*
X45725451Y49963181D01*
X56963181Y38725452D01*
X56996666Y38664129D01*
X56999500Y38637771D01*
X56999500Y20912230D01*
X56979815Y20845191D01*
X56963181Y20824549D01*
X53925451Y17786819D01*
X53864128Y17753334D01*
X53837770Y17750500D01*
X46539337Y17750500D01*
X46472298Y17770185D01*
X46466452Y17774182D01*
X46452734Y17784149D01*
X46452729Y17784152D01*
X46279807Y17861143D01*
X46279802Y17861145D01*
X46134001Y17892135D01*
X46094646Y17900500D01*
X45905354Y17900500D01*
X45872897Y17893602D01*
X45720197Y17861145D01*
X45720192Y17861143D01*
X45547270Y17784152D01*
X45547265Y17784149D01*
X45533548Y17774182D01*
X45467742Y17750702D01*
X45460663Y17750500D01*
X45426080Y17750500D01*
X45281092Y17721660D01*
X45281086Y17721658D01*
X45144508Y17665086D01*
X45144496Y17665079D01*
X45095269Y17632187D01*
X45021588Y17582956D01*
X45021580Y17582950D01*
X38667050Y11228420D01*
X38667044Y11228412D01*
X38617812Y11154732D01*
X38617813Y11154731D01*
X38584921Y11105504D01*
X38584914Y11105492D01*
X38528342Y10968914D01*
X38528340Y10968908D01*
X38499500Y10823921D01*
X38499500Y9534323D01*
X38482887Y9472323D01*
X38422821Y9368286D01*
X38379380Y9234587D01*
X38364326Y9188256D01*
X38344540Y9000000D01*
X38364326Y8811744D01*
X38364327Y8811741D01*
X38422818Y8631723D01*
X38422821Y8631716D01*
X38517467Y8467784D01*
X38612509Y8362230D01*
X38644129Y8327112D01*
X38797265Y8215852D01*
X38797270Y8215849D01*
X38970192Y8138858D01*
X38970197Y8138856D01*
X39155354Y8099500D01*
X39155355Y8099500D01*
X39344644Y8099500D01*
X39344646Y8099500D01*
X39529803Y8138856D01*
X39702730Y8215849D01*
X39717139Y8226319D01*
X39782946Y8249798D01*
X39790025Y8250000D01*
X40183251Y8250000D01*
X40250290Y8230315D01*
X40275401Y8208972D01*
X40394129Y8077112D01*
X40547265Y7965852D01*
X40547270Y7965849D01*
X40720192Y7888858D01*
X40720197Y7888856D01*
X40905354Y7849500D01*
X40905355Y7849500D01*
X41094644Y7849500D01*
X41094646Y7849500D01*
X41279803Y7888856D01*
X41452730Y7965849D01*
X41605871Y8077112D01*
X41732533Y8217784D01*
X41827179Y8381716D01*
X41885674Y8561744D01*
X41905460Y8750000D01*
X41885674Y8938256D01*
X41827179Y9118284D01*
X41732533Y9282216D01*
X41605871Y9422888D01*
X41541027Y9470000D01*
X41452734Y9534149D01*
X41452729Y9534152D01*
X41279807Y9611143D01*
X41279802Y9611145D01*
X41134001Y9642135D01*
X41094646Y9650500D01*
X40905354Y9650500D01*
X40872897Y9643602D01*
X40720197Y9611145D01*
X40720192Y9611143D01*
X40547270Y9534152D01*
X40547265Y9534149D01*
X40394129Y9422889D01*
X40394128Y9422888D01*
X40291898Y9309351D01*
X40232411Y9272703D01*
X40162554Y9274034D01*
X40104506Y9312921D01*
X40081817Y9354009D01*
X40077178Y9368287D01*
X40017113Y9472323D01*
X40000500Y9534323D01*
X40000500Y10387771D01*
X40020185Y10454810D01*
X40036814Y10475447D01*
X45656119Y16094753D01*
X45717440Y16128236D01*
X45769577Y16128360D01*
X45905354Y16099500D01*
X45905355Y16099500D01*
X46094644Y16099500D01*
X46094646Y16099500D01*
X46279803Y16138856D01*
X46452730Y16215849D01*
X46456515Y16218599D01*
X46466452Y16225818D01*
X46532258Y16249298D01*
X46539337Y16249500D01*
X48987770Y16249500D01*
X49054809Y16229815D01*
X49075451Y16213181D01*
X49263181Y16025452D01*
X49296666Y15964129D01*
X49299500Y15937771D01*
X49299500Y7412230D01*
X49279815Y7345191D01*
X49263181Y7324549D01*
X49075451Y7136819D01*
X49014128Y7103334D01*
X48987770Y7100500D01*
X48276080Y7100500D01*
X48131092Y7071660D01*
X48131082Y7071657D01*
X47994511Y7015088D01*
X47994504Y7015084D01*
X47988195Y7010868D01*
X47971183Y6999501D01*
X47971182Y6999501D01*
X47871585Y6932954D01*
X47871578Y6932948D01*
X46975451Y6036819D01*
X46914128Y6003334D01*
X46887770Y6000500D01*
X36289337Y6000500D01*
X36222298Y6020185D01*
X36216452Y6024182D01*
X36202734Y6034149D01*
X36202729Y6034152D01*
X36029807Y6111143D01*
X36029802Y6111145D01*
X35884001Y6142135D01*
X35844646Y6150500D01*
X35655354Y6150500D01*
X35655349Y6150500D01*
X35650276Y6149422D01*
X35580609Y6154741D01*
X35524877Y6196880D01*
X35500775Y6262461D01*
X35500500Y6270713D01*
X35500500Y12573921D01*
X35471659Y12718908D01*
X35471658Y12718909D01*
X35471658Y12718913D01*
X35471656Y12718918D01*
X35415087Y12855489D01*
X35415080Y12855502D01*
X35332952Y12978415D01*
X35295688Y13015679D01*
X35228416Y13082951D01*
X34229151Y14082216D01*
X31228421Y17082948D01*
X31228414Y17082954D01*
X31154729Y17132188D01*
X31154729Y17132187D01*
X31105491Y17165087D01*
X30968917Y17221657D01*
X30968907Y17221660D01*
X30823920Y17250500D01*
X30823918Y17250500D01*
X26612230Y17250500D01*
X26545191Y17270185D01*
X26524549Y17286819D01*
X24536819Y19274549D01*
X24503334Y19335872D01*
X24500500Y19362230D01*
X24500500Y20750000D01*
X27844540Y20750000D01*
X27864326Y20561744D01*
X27864327Y20561741D01*
X27922818Y20381723D01*
X27922821Y20381716D01*
X28017467Y20217784D01*
X28023096Y20211533D01*
X28026304Y20207969D01*
X28056531Y20144977D01*
X28047904Y20075642D01*
X28026304Y20042031D01*
X28017466Y20032215D01*
X27922821Y19868285D01*
X27922818Y19868278D01*
X27864327Y19688260D01*
X27864326Y19688256D01*
X27844540Y19500000D01*
X27864326Y19311744D01*
X27864327Y19311741D01*
X27922818Y19131723D01*
X27922821Y19131716D01*
X28017467Y18967784D01*
X28109426Y18865654D01*
X28144129Y18827112D01*
X28297265Y18715852D01*
X28297270Y18715849D01*
X28470192Y18638858D01*
X28470197Y18638856D01*
X28655354Y18599500D01*
X28655355Y18599500D01*
X28844644Y18599500D01*
X28844646Y18599500D01*
X29029803Y18638856D01*
X29202730Y18715849D01*
X29212998Y18723310D01*
X29278802Y18746791D01*
X29346857Y18730967D01*
X29358770Y18723311D01*
X29472265Y18640852D01*
X29472270Y18640849D01*
X29645192Y18563858D01*
X29645197Y18563856D01*
X29830354Y18524500D01*
X29830355Y18524500D01*
X30019644Y18524500D01*
X30019646Y18524500D01*
X30204803Y18563856D01*
X30377730Y18640849D01*
X30377734Y18640853D01*
X30378040Y18641028D01*
X30378244Y18641078D01*
X30383667Y18643492D01*
X30384108Y18642501D01*
X30445939Y18657504D01*
X30511967Y18634655D01*
X30512833Y18634033D01*
X30560363Y18599500D01*
X30572270Y18590849D01*
X30745192Y18513858D01*
X30745197Y18513856D01*
X30930354Y18474500D01*
X30930355Y18474500D01*
X31119644Y18474500D01*
X31119646Y18474500D01*
X31304803Y18513856D01*
X31477730Y18590849D01*
X31630871Y18702112D01*
X31757533Y18842784D01*
X31852179Y19006716D01*
X31910674Y19186744D01*
X31930460Y19375000D01*
X31910674Y19563256D01*
X31852179Y19743284D01*
X31757533Y19907216D01*
X31630871Y20047888D01*
X31630870Y20047889D01*
X31477734Y20159149D01*
X31477729Y20159152D01*
X31304807Y20236143D01*
X31304802Y20236145D01*
X31159001Y20267135D01*
X31119646Y20275500D01*
X30930354Y20275500D01*
X30910806Y20271345D01*
X30745197Y20236145D01*
X30745192Y20236143D01*
X30572261Y20159148D01*
X30571939Y20158961D01*
X30571729Y20158911D01*
X30566334Y20156508D01*
X30565894Y20157496D01*
X30504036Y20142498D01*
X30438013Y20165360D01*
X30437070Y20166039D01*
X30377734Y20209149D01*
X30377729Y20209152D01*
X30204807Y20286143D01*
X30204802Y20286145D01*
X30059001Y20317135D01*
X30019646Y20325500D01*
X29830354Y20325500D01*
X29748855Y20308177D01*
X29679187Y20313494D01*
X29623454Y20355632D01*
X29599350Y20421212D01*
X29605143Y20467781D01*
X29635674Y20561744D01*
X29655460Y20750000D01*
X29635674Y20938256D01*
X29577179Y21118284D01*
X29482533Y21282216D01*
X29355871Y21422888D01*
X29287213Y21472771D01*
X29202734Y21534149D01*
X29202729Y21534152D01*
X29029807Y21611143D01*
X29029802Y21611145D01*
X28884001Y21642135D01*
X28844646Y21650500D01*
X28655354Y21650500D01*
X28622897Y21643602D01*
X28470197Y21611145D01*
X28470192Y21611143D01*
X28297270Y21534152D01*
X28297265Y21534149D01*
X28144129Y21422889D01*
X28017466Y21282215D01*
X27922821Y21118285D01*
X27922818Y21118278D01*
X27872189Y20962456D01*
X27864326Y20938256D01*
X27844540Y20750000D01*
X24500500Y20750000D01*
X24500500Y20876000D01*
X24520185Y20943039D01*
X24572989Y20988794D01*
X24624500Y21000000D01*
X24959975Y21000000D01*
X25027014Y20980315D01*
X25032861Y20976318D01*
X25047270Y20965849D01*
X25220192Y20888858D01*
X25220197Y20888856D01*
X25405354Y20849500D01*
X25405355Y20849500D01*
X25594644Y20849500D01*
X25594646Y20849500D01*
X25779803Y20888856D01*
X25952730Y20965849D01*
X26105871Y21077112D01*
X26232533Y21217784D01*
X26327179Y21381716D01*
X26382522Y21552044D01*
X26412768Y21601402D01*
X27561366Y22750000D01*
X37844540Y22750000D01*
X37864326Y22561744D01*
X37864327Y22561741D01*
X37922818Y22381723D01*
X37922821Y22381716D01*
X38017467Y22217784D01*
X38023096Y22211533D01*
X38026304Y22207969D01*
X38056531Y22144977D01*
X38047904Y22075642D01*
X38026304Y22042031D01*
X38017466Y22032215D01*
X37922821Y21868285D01*
X37922818Y21868278D01*
X37864327Y21688260D01*
X37864326Y21688256D01*
X37844540Y21500000D01*
X37864326Y21311744D01*
X37864327Y21311741D01*
X37922818Y21131723D01*
X37922821Y21131716D01*
X38017467Y20967784D01*
X38113487Y20861143D01*
X38144129Y20827112D01*
X38297265Y20715852D01*
X38297270Y20715849D01*
X38470192Y20638858D01*
X38470197Y20638856D01*
X38655354Y20599500D01*
X38655355Y20599500D01*
X38844644Y20599500D01*
X38844646Y20599500D01*
X39029803Y20638856D01*
X39202730Y20715849D01*
X39355871Y20827112D01*
X39482533Y20967784D01*
X39577179Y21131716D01*
X39635674Y21311744D01*
X39655460Y21500000D01*
X39635674Y21688256D01*
X39577179Y21868284D01*
X39482533Y22032216D01*
X39473698Y22042028D01*
X39443469Y22105019D01*
X39452093Y22174354D01*
X39473699Y22207973D01*
X39482533Y22217784D01*
X39577179Y22381716D01*
X39635674Y22561744D01*
X39655460Y22750000D01*
X39635674Y22938256D01*
X39577179Y23118284D01*
X39482533Y23282216D01*
X39355871Y23422888D01*
X39326948Y23443902D01*
X39202734Y23534149D01*
X39202729Y23534152D01*
X39029807Y23611143D01*
X39029802Y23611145D01*
X38884001Y23642135D01*
X38844646Y23650500D01*
X38655354Y23650500D01*
X38622897Y23643602D01*
X38470197Y23611145D01*
X38470192Y23611143D01*
X38297270Y23534152D01*
X38297265Y23534149D01*
X38144129Y23422889D01*
X38017466Y23282215D01*
X37922821Y23118285D01*
X37922818Y23118278D01*
X37874287Y22968913D01*
X37864326Y22938256D01*
X37844540Y22750000D01*
X27561366Y22750000D01*
X28832951Y24021584D01*
X28915084Y24144505D01*
X28971658Y24281087D01*
X28989003Y24368285D01*
X29000500Y24426080D01*
X29000500Y25250000D01*
X34594540Y25250000D01*
X34614326Y25061744D01*
X34614327Y25061741D01*
X34672818Y24881723D01*
X34672821Y24881716D01*
X34767467Y24717784D01*
X34773096Y24711533D01*
X34776304Y24707969D01*
X34806531Y24644977D01*
X34797904Y24575642D01*
X34776304Y24542031D01*
X34767466Y24532215D01*
X34672821Y24368285D01*
X34672818Y24368278D01*
X34617479Y24197961D01*
X34614326Y24188256D01*
X34594540Y24000000D01*
X34614326Y23811744D01*
X34614327Y23811741D01*
X34672818Y23631723D01*
X34672821Y23631716D01*
X34767467Y23467784D01*
X34894129Y23327112D01*
X35047265Y23215852D01*
X35047270Y23215849D01*
X35220192Y23138858D01*
X35220197Y23138856D01*
X35405354Y23099500D01*
X35405355Y23099500D01*
X35594644Y23099500D01*
X35594646Y23099500D01*
X35779803Y23138856D01*
X35952730Y23215849D01*
X36105871Y23327112D01*
X36232533Y23467784D01*
X36327179Y23631716D01*
X36385674Y23811744D01*
X36405460Y24000000D01*
X36385674Y24188256D01*
X36327179Y24368284D01*
X36232533Y24532216D01*
X36223698Y24542028D01*
X36193469Y24605019D01*
X36202093Y24674354D01*
X36223699Y24707973D01*
X36232533Y24717784D01*
X36327179Y24881716D01*
X36385674Y25061744D01*
X36405460Y25250000D01*
X36385674Y25438256D01*
X36327179Y25618284D01*
X36232533Y25782216D01*
X36105871Y25922888D01*
X36060705Y25955703D01*
X35952734Y26034149D01*
X35952729Y26034152D01*
X35779807Y26111143D01*
X35779802Y26111145D01*
X35614250Y26146333D01*
X35594646Y26150500D01*
X35405354Y26150500D01*
X35385750Y26146333D01*
X35220197Y26111145D01*
X35220192Y26111143D01*
X35047270Y26034152D01*
X35047265Y26034149D01*
X34894129Y25922889D01*
X34767466Y25782215D01*
X34672821Y25618285D01*
X34672818Y25618278D01*
X34614327Y25438260D01*
X34614326Y25438256D01*
X34594540Y25250000D01*
X29000500Y25250000D01*
X29000500Y28637771D01*
X29020185Y28704810D01*
X29036819Y28725452D01*
X29832950Y29521583D01*
X29832952Y29521585D01*
X29873955Y29582951D01*
X29915084Y29644505D01*
X29951415Y29732216D01*
X29971659Y29781088D01*
X29995411Y29900500D01*
X30000500Y29926082D01*
X30000500Y32500000D01*
X30319540Y32500000D01*
X30339326Y32311744D01*
X30339327Y32311741D01*
X30397818Y32131723D01*
X30397821Y32131716D01*
X30492467Y31967784D01*
X30591346Y31857968D01*
X30619129Y31827112D01*
X30772265Y31715852D01*
X30772270Y31715849D01*
X30945192Y31638858D01*
X30945197Y31638856D01*
X31130354Y31599500D01*
X31130355Y31599500D01*
X31319644Y31599500D01*
X31319646Y31599500D01*
X31504803Y31638856D01*
X31677730Y31715849D01*
X31677738Y31715856D01*
X31683357Y31719098D01*
X31684060Y31717880D01*
X31742919Y31738882D01*
X31810973Y31723058D01*
X31821480Y31716305D01*
X31822265Y31715853D01*
X31822270Y31715849D01*
X31925586Y31669849D01*
X31995192Y31638858D01*
X31995197Y31638856D01*
X32180354Y31599500D01*
X32180355Y31599500D01*
X32369644Y31599500D01*
X32369646Y31599500D01*
X32554803Y31638856D01*
X32727730Y31715849D01*
X32880871Y31827112D01*
X33007533Y31967784D01*
X33102179Y32131716D01*
X33160674Y32311744D01*
X33180460Y32500000D01*
X33160674Y32688256D01*
X33102179Y32868284D01*
X33007533Y33032216D01*
X32880871Y33172888D01*
X32842382Y33200852D01*
X32727734Y33284149D01*
X32727729Y33284152D01*
X32554807Y33361143D01*
X32554802Y33361145D01*
X32409001Y33392135D01*
X32369646Y33400500D01*
X32180354Y33400500D01*
X32147897Y33393602D01*
X31995197Y33361145D01*
X31995192Y33361143D01*
X31822270Y33284152D01*
X31816637Y33280899D01*
X31815934Y33282117D01*
X31757068Y33261119D01*
X31689016Y33276950D01*
X31678526Y33283692D01*
X31677729Y33284152D01*
X31504807Y33361143D01*
X31504802Y33361145D01*
X31359001Y33392135D01*
X31319646Y33400500D01*
X31130354Y33400500D01*
X31097897Y33393602D01*
X30945197Y33361145D01*
X30945192Y33361143D01*
X30772270Y33284152D01*
X30772265Y33284149D01*
X30619129Y33172889D01*
X30492466Y33032215D01*
X30397821Y32868285D01*
X30397818Y32868278D01*
X30348236Y32715679D01*
X30339326Y32688256D01*
X30319540Y32500000D01*
X30000500Y32500000D01*
X30000500Y33887770D01*
X30020185Y33954809D01*
X30036819Y33975451D01*
X30774549Y34713181D01*
X30835872Y34746666D01*
X30862230Y34749500D01*
X33387770Y34749500D01*
X33454809Y34729815D01*
X33475451Y34713181D01*
X35087228Y33101405D01*
X35117478Y33052042D01*
X35172818Y32881723D01*
X35172821Y32881716D01*
X35223658Y32793663D01*
X35232887Y32777679D01*
X35249500Y32715679D01*
X35249500Y28276082D01*
X35249500Y28276080D01*
X35249499Y28276080D01*
X35278340Y28131093D01*
X35278343Y28131083D01*
X35334913Y27994510D01*
X35334916Y27994504D01*
X35349904Y27972075D01*
X35349905Y27972070D01*
X35349907Y27972070D01*
X35417049Y27871583D01*
X35417050Y27871582D01*
X36021578Y27267053D01*
X36021581Y27267050D01*
X36021584Y27267048D01*
X36095097Y27217929D01*
X36144505Y27184916D01*
X36281087Y27128342D01*
X36281091Y27128342D01*
X36281092Y27128341D01*
X36426079Y27099500D01*
X36426082Y27099500D01*
X36426083Y27099500D01*
X36573918Y27099500D01*
X38610663Y27099500D01*
X38677702Y27079815D01*
X38683548Y27075818D01*
X38697265Y27065852D01*
X38697270Y27065849D01*
X38870192Y26988858D01*
X38870197Y26988856D01*
X39055354Y26949500D01*
X39055355Y26949500D01*
X39244644Y26949500D01*
X39244646Y26949500D01*
X39429803Y26988856D01*
X39602730Y27065849D01*
X39755871Y27177112D01*
X39882533Y27317784D01*
X39977179Y27481716D01*
X40035674Y27661744D01*
X40055460Y27850000D01*
X40035674Y28038256D01*
X39977179Y28218284D01*
X39977178Y28218286D01*
X39917113Y28322323D01*
X39900500Y28384323D01*
X39900500Y29200000D01*
X50844540Y29200000D01*
X50864326Y29011744D01*
X50864327Y29011741D01*
X50922818Y28831723D01*
X50922821Y28831716D01*
X51017467Y28667784D01*
X51112807Y28561899D01*
X51144129Y28527112D01*
X51297265Y28415852D01*
X51297267Y28415851D01*
X51297270Y28415849D01*
X51303043Y28413279D01*
X51356280Y28368028D01*
X51376600Y28301178D01*
X51357554Y28233955D01*
X51305187Y28187700D01*
X51303072Y28186735D01*
X51300151Y28185434D01*
X51297267Y28184150D01*
X51297265Y28184149D01*
X51144129Y28072889D01*
X51017466Y27932215D01*
X50922821Y27768285D01*
X50922818Y27768278D01*
X50864327Y27588260D01*
X50864326Y27588256D01*
X50844540Y27400000D01*
X50864326Y27211744D01*
X50864327Y27211741D01*
X50922818Y27031723D01*
X50922821Y27031716D01*
X51017467Y26867784D01*
X51144129Y26727112D01*
X51297265Y26615852D01*
X51297270Y26615849D01*
X51470192Y26538858D01*
X51470197Y26538856D01*
X51655354Y26499500D01*
X51655355Y26499500D01*
X51844644Y26499500D01*
X51844646Y26499500D01*
X52029803Y26538856D01*
X52202730Y26615849D01*
X52355871Y26727112D01*
X52482533Y26867784D01*
X52577179Y27031716D01*
X52635674Y27211744D01*
X52646236Y27312245D01*
X52672820Y27376858D01*
X52730118Y27416843D01*
X52743750Y27420566D01*
X52829803Y27438856D01*
X52829807Y27438858D01*
X52829808Y27438858D01*
X52926067Y27481716D01*
X53002730Y27515849D01*
X53155871Y27627112D01*
X53282533Y27767784D01*
X53377179Y27931716D01*
X53435674Y28111744D01*
X53455460Y28300000D01*
X53435674Y28488256D01*
X53379589Y28660868D01*
X53377181Y28668278D01*
X53377180Y28668279D01*
X53377179Y28668284D01*
X53282533Y28832216D01*
X53155871Y28972888D01*
X53155870Y28972889D01*
X53002734Y29084149D01*
X53002729Y29084152D01*
X52829807Y29161143D01*
X52829802Y29161145D01*
X52743775Y29179430D01*
X52682293Y29212622D01*
X52648517Y29273785D01*
X52646238Y29287738D01*
X52635674Y29388256D01*
X52577179Y29568284D01*
X52482533Y29732216D01*
X52355871Y29872888D01*
X52355870Y29872889D01*
X52202734Y29984149D01*
X52202729Y29984152D01*
X52029807Y30061143D01*
X52029802Y30061145D01*
X51884001Y30092135D01*
X51844646Y30100500D01*
X51655354Y30100500D01*
X51622897Y30093602D01*
X51470197Y30061145D01*
X51470192Y30061143D01*
X51297270Y29984152D01*
X51297265Y29984149D01*
X51144129Y29872889D01*
X51017466Y29732215D01*
X50922821Y29568285D01*
X50922818Y29568278D01*
X50864327Y29388260D01*
X50864326Y29388256D01*
X50844540Y29200000D01*
X39900500Y29200000D01*
X39900500Y35337771D01*
X39920185Y35404810D01*
X39936819Y35425452D01*
X40162048Y35650681D01*
X40223371Y35684166D01*
X40249729Y35687000D01*
X53573163Y35687000D01*
X53640202Y35667315D01*
X53646048Y35663318D01*
X53659765Y35653352D01*
X53659770Y35653349D01*
X53832691Y35576358D01*
X53832693Y35576358D01*
X53832697Y35576356D01*
X53897829Y35562513D01*
X53959309Y35529322D01*
X53959728Y35528904D01*
X54163181Y35325451D01*
X54196666Y35264128D01*
X54199500Y35237770D01*
X54199500Y22262231D01*
X54179815Y22195192D01*
X54163181Y22174550D01*
X52811462Y20822832D01*
X52750139Y20789347D01*
X52680447Y20794331D01*
X52673345Y20797234D01*
X52668336Y20799464D01*
X52548773Y20852698D01*
X52529806Y20861143D01*
X52529802Y20861145D01*
X52384001Y20892135D01*
X52344646Y20900500D01*
X52155354Y20900500D01*
X52122897Y20893602D01*
X51970197Y20861145D01*
X51970192Y20861143D01*
X51797270Y20784152D01*
X51797265Y20784149D01*
X51644129Y20672889D01*
X51517466Y20532215D01*
X51422821Y20368285D01*
X51422818Y20368278D01*
X51366356Y20194505D01*
X51364326Y20188256D01*
X51344540Y20000000D01*
X51364326Y19811744D01*
X51364327Y19811741D01*
X51422818Y19631723D01*
X51422821Y19631716D01*
X51517467Y19467784D01*
X51612509Y19362230D01*
X51644129Y19327112D01*
X51797265Y19215852D01*
X51797270Y19215849D01*
X51970192Y19138858D01*
X51970197Y19138856D01*
X52155354Y19099500D01*
X52155355Y19099500D01*
X52344644Y19099500D01*
X52344646Y19099500D01*
X52529803Y19138856D01*
X52702730Y19215849D01*
X52705396Y19217786D01*
X52716452Y19225818D01*
X52782258Y19249298D01*
X52789337Y19249500D01*
X53123920Y19249500D01*
X53221462Y19268904D01*
X53268913Y19278342D01*
X53376710Y19322993D01*
X53405488Y19334913D01*
X53405488Y19334914D01*
X53405495Y19334916D01*
X53465485Y19375000D01*
X53528416Y19417048D01*
X55532952Y21421584D01*
X55585347Y21500000D01*
X55615084Y21544505D01*
X55671658Y21681087D01*
X55700500Y21826082D01*
X55700500Y35673918D01*
X55700500Y35673921D01*
X55671659Y35818908D01*
X55671658Y35818909D01*
X55671658Y35818913D01*
X55660498Y35845855D01*
X55615086Y35955492D01*
X55555924Y36044035D01*
X55555924Y36044036D01*
X55555922Y36044037D01*
X55532952Y36078416D01*
X55025270Y36586098D01*
X54995021Y36635459D01*
X54939679Y36805784D01*
X54845033Y36969716D01*
X54718371Y37110388D01*
X54718370Y37110389D01*
X54565234Y37221649D01*
X54565229Y37221652D01*
X54392307Y37298643D01*
X54392302Y37298645D01*
X54246501Y37329635D01*
X54207146Y37338000D01*
X54017854Y37338000D01*
X53985397Y37331102D01*
X53832697Y37298645D01*
X53832692Y37298643D01*
X53659770Y37221652D01*
X53659765Y37221649D01*
X53646048Y37211682D01*
X53580242Y37188202D01*
X53573163Y37188000D01*
X40224729Y37188000D01*
X40157690Y37207685D01*
X40137048Y37224319D01*
X39936819Y37424549D01*
X39903334Y37485872D01*
X39900500Y37512230D01*
X39900500Y47923921D01*
X39871659Y48068908D01*
X39871658Y48068909D01*
X39871658Y48068913D01*
X39853983Y48111584D01*
X39815085Y48205494D01*
X39815084Y48205496D01*
X39770897Y48271628D01*
X39750020Y48338305D01*
X39750000Y48340517D01*
X39750000Y49875500D01*
X39769685Y49942539D01*
X39822489Y49988294D01*
X39874000Y49999500D01*
X45637770Y49999500D01*
X45704809Y49979815D01*
G37*
%TD.AperFunction*%
%TA.AperFunction,Conductor*%
G36*
X28693039Y53479815D02*
G01*
X28738794Y53427011D01*
X28750000Y53375500D01*
X28750000Y51535189D01*
X28733387Y51473189D01*
X28672821Y51368286D01*
X28648695Y51294033D01*
X28614326Y51188256D01*
X28594540Y51000000D01*
X28614326Y50811744D01*
X28614327Y50811741D01*
X28672818Y50631723D01*
X28672821Y50631716D01*
X28729842Y50532952D01*
X28732887Y50527679D01*
X28749500Y50465679D01*
X28749500Y50284323D01*
X28732887Y50222324D01*
X28672821Y50118284D01*
X28672820Y50118282D01*
X28669573Y50112657D01*
X28667204Y50114025D01*
X28628858Y50070052D01*
X28561756Y50050581D01*
X28494780Y50070478D01*
X28474469Y50086899D01*
X28028421Y50532948D01*
X28028420Y50532949D01*
X28028416Y50532952D01*
X27930440Y50598416D01*
X27930438Y50598419D01*
X27905495Y50615084D01*
X27905490Y50615087D01*
X27768917Y50671657D01*
X27768907Y50671660D01*
X27623920Y50700500D01*
X27623918Y50700500D01*
X26789337Y50700500D01*
X26722298Y50720185D01*
X26716452Y50724182D01*
X26702734Y50734149D01*
X26702729Y50734152D01*
X26529807Y50811143D01*
X26529802Y50811145D01*
X26384001Y50842135D01*
X26344646Y50850500D01*
X26155354Y50850500D01*
X26122897Y50843602D01*
X25970197Y50811145D01*
X25970192Y50811143D01*
X25797270Y50734152D01*
X25797265Y50734149D01*
X25783548Y50724182D01*
X25717742Y50700702D01*
X25710663Y50700500D01*
X25439337Y50700500D01*
X25372298Y50720185D01*
X25366452Y50724182D01*
X25352734Y50734149D01*
X25352729Y50734152D01*
X25179807Y50811143D01*
X25179802Y50811145D01*
X25034001Y50842135D01*
X24994646Y50850500D01*
X24805354Y50850500D01*
X24772897Y50843602D01*
X24620197Y50811145D01*
X24620192Y50811143D01*
X24447270Y50734152D01*
X24447265Y50734149D01*
X24294129Y50622889D01*
X24167466Y50482215D01*
X24072821Y50318285D01*
X24072818Y50318278D01*
X24014327Y50138260D01*
X24014326Y50138256D01*
X23994540Y49950000D01*
X24014326Y49761744D01*
X24014327Y49761741D01*
X24072818Y49581723D01*
X24072821Y49581716D01*
X24167467Y49417784D01*
X24262946Y49311744D01*
X24294129Y49277112D01*
X24447265Y49165852D01*
X24447270Y49165849D01*
X24620192Y49088858D01*
X24620197Y49088856D01*
X24805354Y49049500D01*
X24805355Y49049500D01*
X24994644Y49049500D01*
X24994646Y49049500D01*
X25179803Y49088856D01*
X25352730Y49165849D01*
X25354776Y49167336D01*
X25366452Y49175818D01*
X25432258Y49199298D01*
X25439337Y49199500D01*
X25710663Y49199500D01*
X25777702Y49179815D01*
X25783548Y49175818D01*
X25797265Y49165852D01*
X25797270Y49165849D01*
X25970192Y49088858D01*
X25970197Y49088856D01*
X26155354Y49049500D01*
X26155355Y49049500D01*
X26344644Y49049500D01*
X26344646Y49049500D01*
X26529803Y49088856D01*
X26702730Y49165849D01*
X26704776Y49167336D01*
X26716452Y49175818D01*
X26782258Y49199298D01*
X26789337Y49199500D01*
X27187770Y49199500D01*
X27254809Y49179815D01*
X27275451Y49163181D01*
X28771578Y47667053D01*
X28771581Y47667050D01*
X28771584Y47667048D01*
X28839627Y47621584D01*
X28894505Y47584916D01*
X29031087Y47528342D01*
X29031091Y47528342D01*
X29031092Y47528341D01*
X29176079Y47499500D01*
X29176082Y47499500D01*
X32323920Y47499500D01*
X32421462Y47518904D01*
X32468913Y47528342D01*
X32605495Y47584916D01*
X32660373Y47621584D01*
X32728416Y47667048D01*
X33525049Y48463681D01*
X33586372Y48497166D01*
X33612730Y48500000D01*
X37387271Y48500000D01*
X37454310Y48480315D01*
X37474952Y48463681D01*
X38363181Y47575452D01*
X38396666Y47514129D01*
X38399500Y47487771D01*
X38399500Y39124000D01*
X38379815Y39056961D01*
X38327011Y39011206D01*
X38275500Y39000000D01*
X37435953Y39000000D01*
X37368914Y39019685D01*
X37348272Y39036319D01*
X34768144Y41616446D01*
X34768141Y41616450D01*
X34768141Y41616449D01*
X34761074Y41623516D01*
X34761074Y41623517D01*
X34673949Y41710642D01*
X34673948Y41710643D01*
X34673947Y41710644D01*
X34622725Y41744869D01*
X34571503Y41779095D01*
X34571502Y41779096D01*
X34571499Y41779098D01*
X34571496Y41779099D01*
X34491008Y41812437D01*
X34457669Y41826247D01*
X34447643Y41828241D01*
X34397245Y41838266D01*
X34336826Y41850284D01*
X34336823Y41850284D01*
X34336822Y41850284D01*
X26785236Y41850284D01*
X26718197Y41869969D01*
X26697555Y41886603D01*
X23989767Y44594392D01*
X23989747Y44594414D01*
X23898302Y44685859D01*
X23847078Y44720085D01*
X23795855Y44754312D01*
X23795852Y44754314D01*
X23795849Y44754315D01*
X23715361Y44787653D01*
X23682021Y44801463D01*
X23682013Y44801465D01*
X23569129Y44823919D01*
X23569128Y44823919D01*
X23561180Y44825500D01*
X23561176Y44825500D01*
X23561175Y44825500D01*
X21203748Y44825500D01*
X21136709Y44845185D01*
X21111600Y44866526D01*
X21105873Y44872886D01*
X21105869Y44872890D01*
X20952734Y44984149D01*
X20952729Y44984152D01*
X20779807Y45061143D01*
X20779802Y45061145D01*
X20634001Y45092135D01*
X20594646Y45100500D01*
X20405354Y45100500D01*
X20372897Y45093602D01*
X20220197Y45061145D01*
X20220192Y45061143D01*
X20047270Y44984152D01*
X20047265Y44984149D01*
X19894129Y44872889D01*
X19767466Y44732215D01*
X19672821Y44568285D01*
X19672818Y44568278D01*
X19614327Y44388260D01*
X19614326Y44388256D01*
X19594540Y44200000D01*
X19614326Y44011744D01*
X19614327Y44011741D01*
X19672818Y43831723D01*
X19672821Y43831716D01*
X19767467Y43667784D01*
X19869185Y43554815D01*
X19894129Y43527112D01*
X20047265Y43415852D01*
X20047270Y43415849D01*
X20220192Y43338858D01*
X20220197Y43338856D01*
X20405354Y43299500D01*
X20405355Y43299500D01*
X20594644Y43299500D01*
X20594646Y43299500D01*
X20779803Y43338856D01*
X20952730Y43415849D01*
X21105871Y43527112D01*
X21108788Y43530353D01*
X21111600Y43533474D01*
X21171087Y43570121D01*
X21203748Y43574500D01*
X23189117Y43574500D01*
X23256156Y43554815D01*
X23276798Y43538181D01*
X25985800Y40829178D01*
X25985829Y40829147D01*
X26076047Y40738929D01*
X26076051Y40738926D01*
X26178491Y40670477D01*
X26178497Y40670474D01*
X26178498Y40670473D01*
X26292332Y40623321D01*
X26352755Y40611303D01*
X26413177Y40599284D01*
X26413178Y40599284D01*
X33964764Y40599284D01*
X34031803Y40579599D01*
X34052445Y40562965D01*
X37138181Y37477229D01*
X37171666Y37415906D01*
X37174500Y37389548D01*
X37174500Y34374000D01*
X37154815Y34306961D01*
X37102011Y34261206D01*
X37050500Y34250000D01*
X36112729Y34250000D01*
X36045690Y34269685D01*
X36025048Y34286319D01*
X34228421Y36082948D01*
X34228420Y36082949D01*
X34213374Y36093002D01*
X34148877Y36136097D01*
X34143036Y36140000D01*
X34105500Y36165081D01*
X34105488Y36165088D01*
X33968917Y36221657D01*
X33968907Y36221660D01*
X33823920Y36250500D01*
X33823918Y36250500D01*
X30426082Y36250500D01*
X30426080Y36250500D01*
X30281092Y36221660D01*
X30281082Y36221657D01*
X30144511Y36165088D01*
X30144499Y36165081D01*
X30101124Y36136098D01*
X30101123Y36136097D01*
X30021582Y36082951D01*
X30021581Y36082950D01*
X28667050Y34728420D01*
X28667044Y34728412D01*
X28617812Y34654732D01*
X28617813Y34654731D01*
X28584921Y34605504D01*
X28584914Y34605492D01*
X28528342Y34468914D01*
X28528340Y34468908D01*
X28499500Y34323921D01*
X28499500Y30362231D01*
X28479815Y30295192D01*
X28463181Y30274550D01*
X27667052Y29478422D01*
X27667046Y29478415D01*
X27626869Y29418285D01*
X27626870Y29418284D01*
X27584913Y29355492D01*
X27528343Y29218918D01*
X27528340Y29218908D01*
X27499500Y29073921D01*
X27499500Y28561899D01*
X27479815Y28494860D01*
X27427011Y28449105D01*
X27357853Y28439161D01*
X27302615Y28461581D01*
X27202734Y28534149D01*
X27202729Y28534152D01*
X27029807Y28611143D01*
X27029802Y28611145D01*
X26884001Y28642135D01*
X26844646Y28650500D01*
X26655354Y28650500D01*
X26622897Y28643602D01*
X26470197Y28611145D01*
X26470192Y28611143D01*
X26297270Y28534152D01*
X26297265Y28534149D01*
X26144129Y28422889D01*
X26017466Y28282215D01*
X25922821Y28118285D01*
X25922818Y28118278D01*
X25864327Y27938260D01*
X25864326Y27938256D01*
X25848380Y27786537D01*
X25821797Y27721924D01*
X25764499Y27681939D01*
X25725060Y27675500D01*
X22488389Y27675500D01*
X22427971Y27663482D01*
X22384743Y27654884D01*
X22367546Y27651463D01*
X22253716Y27604313D01*
X22253707Y27604308D01*
X22151268Y27535860D01*
X22115409Y27500000D01*
X22064142Y27448733D01*
X22064139Y27448730D01*
X20660772Y26045364D01*
X20599449Y26011879D01*
X20529757Y26016863D01*
X20473824Y26058735D01*
X20449407Y26124199D01*
X20464259Y26192472D01*
X20480948Y26216024D01*
X20482533Y26217784D01*
X20577179Y26381716D01*
X20635674Y26561744D01*
X20655460Y26750000D01*
X20635674Y26938256D01*
X20577179Y27118284D01*
X20482533Y27282216D01*
X20355871Y27422888D01*
X20333893Y27438856D01*
X20202734Y27534149D01*
X20202729Y27534152D01*
X20029807Y27611143D01*
X20029802Y27611145D01*
X19884001Y27642135D01*
X19844646Y27650500D01*
X19655354Y27650500D01*
X19622897Y27643602D01*
X19470197Y27611145D01*
X19470192Y27611143D01*
X19297270Y27534152D01*
X19297265Y27534149D01*
X19144129Y27422889D01*
X19017466Y27282215D01*
X18922821Y27118285D01*
X18922818Y27118278D01*
X18880767Y26988856D01*
X18864326Y26938256D01*
X18844540Y26750000D01*
X18864326Y26561744D01*
X18864327Y26561741D01*
X18922818Y26381723D01*
X18922821Y26381716D01*
X19017467Y26217784D01*
X19113487Y26111143D01*
X19144129Y26077112D01*
X19297265Y25965852D01*
X19297270Y25965849D01*
X19470192Y25888858D01*
X19470197Y25888856D01*
X19655354Y25849500D01*
X19655355Y25849500D01*
X19844644Y25849500D01*
X19844646Y25849500D01*
X20029803Y25888856D01*
X20202730Y25965849D01*
X20312300Y26045457D01*
X20378103Y26068935D01*
X20446157Y26053110D01*
X20494852Y26003004D01*
X20508728Y25934526D01*
X20483379Y25869417D01*
X20472864Y25857456D01*
X19851270Y25235861D01*
X19764144Y25148736D01*
X19764138Y25148728D01*
X19695691Y25046294D01*
X19695688Y25046286D01*
X19676309Y24999500D01*
X19648538Y24932456D01*
X19648535Y24932444D01*
X19624500Y24811611D01*
X19624500Y21560452D01*
X19604815Y21493413D01*
X19588181Y21472771D01*
X16151729Y18036319D01*
X16090406Y18002834D01*
X16064048Y18000000D01*
X13874000Y18000000D01*
X13806961Y18019685D01*
X13761206Y18072489D01*
X13750000Y18124000D01*
X13750000Y19002991D01*
X13761618Y19055396D01*
X13813429Y19166508D01*
X13813432Y19166514D01*
X13870636Y19380000D01*
X12973012Y19380000D01*
X13005925Y19437007D01*
X13040000Y19564174D01*
X13040000Y19695826D01*
X13005925Y19822993D01*
X12973012Y19880000D01*
X13870636Y19880000D01*
X13870635Y19880001D01*
X13813432Y20093487D01*
X13813429Y20093493D01*
X13713600Y20307578D01*
X13713599Y20307580D01*
X13578113Y20501074D01*
X13578108Y20501080D01*
X13456053Y20623135D01*
X13422568Y20684458D01*
X13427552Y20754150D01*
X13469424Y20810083D01*
X13500400Y20826998D01*
X13632331Y20876204D01*
X13747546Y20962454D01*
X13833796Y21077669D01*
X13884091Y21212517D01*
X13890500Y21272127D01*
X13890499Y22407772D01*
X13910184Y22474810D01*
X13926813Y22495447D01*
X16082951Y24651584D01*
X16165084Y24774505D01*
X16169080Y24784151D01*
X16199811Y24858343D01*
X16221658Y24911087D01*
X16240386Y25005237D01*
X16250500Y25056080D01*
X16250500Y43773921D01*
X16221659Y43918908D01*
X16221658Y43918909D01*
X16221658Y43918913D01*
X16191591Y43991502D01*
X16165086Y44055491D01*
X16165085Y44055493D01*
X16156288Y44068658D01*
X16132186Y44104730D01*
X16132185Y44104732D01*
X16082956Y44178411D01*
X16082952Y44178416D01*
X14648413Y45612955D01*
X14599179Y45645850D01*
X14566355Y45667782D01*
X14525495Y45695084D01*
X14525494Y45695085D01*
X14525492Y45695086D01*
X14525490Y45695087D01*
X14388917Y45751657D01*
X14388907Y45751660D01*
X14243920Y45780500D01*
X14243918Y45780500D01*
X14014499Y45780500D01*
X13947460Y45800185D01*
X13901705Y45852989D01*
X13890499Y45904500D01*
X13890499Y45927871D01*
X13890498Y45927877D01*
X13884091Y45987484D01*
X13833797Y46122329D01*
X13833793Y46122336D01*
X13747547Y46237545D01*
X13747544Y46237548D01*
X13632335Y46323794D01*
X13632328Y46323798D01*
X13497482Y46374092D01*
X13497483Y46374092D01*
X13437883Y46380499D01*
X13437881Y46380500D01*
X13437873Y46380500D01*
X13437865Y46380500D01*
X13424000Y46380500D01*
X13356961Y46400185D01*
X13311206Y46452989D01*
X13300000Y46504500D01*
X13300000Y48938952D01*
X13319685Y49005991D01*
X13352875Y49040526D01*
X13411401Y49081505D01*
X13578495Y49248599D01*
X13714035Y49442170D01*
X13813903Y49656337D01*
X13875063Y49884592D01*
X13895659Y50120000D01*
X13875063Y50355408D01*
X13813903Y50583663D01*
X13714035Y50797829D01*
X13704713Y50811143D01*
X13578494Y50991403D01*
X13411402Y51158494D01*
X13411395Y51158499D01*
X13217834Y51294033D01*
X13217830Y51294035D01*
X13134381Y51332948D01*
X13003663Y51393903D01*
X13003659Y51393904D01*
X13003655Y51393906D01*
X12775413Y51455062D01*
X12775403Y51455064D01*
X12540001Y51475659D01*
X12539999Y51475659D01*
X12304596Y51455064D01*
X12304586Y51455062D01*
X12076344Y51393906D01*
X12076335Y51393902D01*
X11862171Y51294036D01*
X11862169Y51294035D01*
X11668600Y51158497D01*
X11546284Y51036181D01*
X11484961Y51002697D01*
X11415269Y51007681D01*
X11359336Y51049553D01*
X11342421Y51080530D01*
X11293354Y51212087D01*
X11293350Y51212094D01*
X11207190Y51327188D01*
X11207187Y51327191D01*
X11092093Y51413351D01*
X11092086Y51413355D01*
X10957379Y51463597D01*
X10957372Y51463599D01*
X10897844Y51470000D01*
X10250000Y51470000D01*
X10250000Y50553012D01*
X10192993Y50585925D01*
X10065826Y50620000D01*
X9934174Y50620000D01*
X9807007Y50585925D01*
X9750000Y50553012D01*
X9750000Y51470000D01*
X9102155Y51470000D01*
X9042627Y51463599D01*
X9042620Y51463597D01*
X8907913Y51413355D01*
X8907906Y51413351D01*
X8792812Y51327191D01*
X8792809Y51327188D01*
X8706649Y51212094D01*
X8706645Y51212087D01*
X8656403Y51077380D01*
X8656401Y51077373D01*
X8650000Y51017845D01*
X8650000Y50370000D01*
X9566988Y50370000D01*
X9534075Y50312993D01*
X9500000Y50185826D01*
X9500000Y50054174D01*
X9534075Y49927007D01*
X9566988Y49870000D01*
X8650000Y49870000D01*
X8650000Y49222156D01*
X8656401Y49162628D01*
X8656403Y49162621D01*
X8706645Y49027914D01*
X8706649Y49027907D01*
X8792809Y48912813D01*
X8792812Y48912810D01*
X8907906Y48826650D01*
X8907913Y48826646D01*
X9042620Y48776404D01*
X9042627Y48776402D01*
X9102155Y48770001D01*
X9102172Y48770000D01*
X9750000Y48770000D01*
X9750000Y49686988D01*
X9807007Y49654075D01*
X9934174Y49620000D01*
X10065826Y49620000D01*
X10192993Y49654075D01*
X10250000Y49686988D01*
X10250000Y48770000D01*
X10897828Y48770000D01*
X10897844Y48770001D01*
X10957372Y48776402D01*
X10957379Y48776404D01*
X11092086Y48826646D01*
X11092093Y48826650D01*
X11207187Y48912810D01*
X11207190Y48912813D01*
X11293350Y49027907D01*
X11293354Y49027914D01*
X11342422Y49159471D01*
X11384293Y49215405D01*
X11449757Y49239822D01*
X11518030Y49224970D01*
X11546282Y49203822D01*
X11607957Y49142147D01*
X11668600Y49081504D01*
X11724900Y49042083D01*
X11768525Y48987507D01*
X11775719Y48918009D01*
X11744197Y48855654D01*
X11741458Y48852827D01*
X11375451Y48486819D01*
X11314128Y48453334D01*
X11287770Y48450500D01*
X9876080Y48450500D01*
X9731092Y48421660D01*
X9731086Y48421658D01*
X9594508Y48365086D01*
X9594496Y48365079D01*
X9545269Y48332187D01*
X9471588Y48282956D01*
X9471580Y48282950D01*
X6417050Y45228420D01*
X6417044Y45228412D01*
X6367812Y45154732D01*
X6367813Y45154731D01*
X6334921Y45105504D01*
X6334914Y45105492D01*
X6278342Y44968914D01*
X6278340Y44968908D01*
X6249500Y44823921D01*
X6249500Y8124000D01*
X6229815Y8056961D01*
X6177011Y8011206D01*
X6125500Y8000000D01*
X3124500Y8000000D01*
X3057461Y8019685D01*
X3011706Y8072489D01*
X3000500Y8124000D01*
X3000500Y46587528D01*
X3000500Y46587532D01*
X2997513Y46604472D01*
X3005259Y46673909D01*
X3049317Y46728137D01*
X3115698Y46749938D01*
X3119630Y46750000D01*
X7250000Y46750000D01*
X7250000Y53375500D01*
X7269685Y53442539D01*
X7322489Y53488294D01*
X7374000Y53499500D01*
X28626000Y53499500D01*
X28693039Y53479815D01*
G37*
%TD.AperFunction*%
%TA.AperFunction,Conductor*%
G36*
X12074075Y19822993D02*
G01*
X12040000Y19695826D01*
X12040000Y19564174D01*
X12074075Y19437007D01*
X12106988Y19380000D01*
X10433012Y19380000D01*
X10465925Y19437007D01*
X10500000Y19564174D01*
X10500000Y19695826D01*
X10465925Y19822993D01*
X10433012Y19880000D01*
X12106988Y19880000D01*
X12074075Y19822993D01*
G37*
%TD.AperFunction*%
%TA.AperFunction,Conductor*%
G36*
X12074075Y42682993D02*
G01*
X12040000Y42555826D01*
X12040000Y42424174D01*
X12074075Y42297007D01*
X12106988Y42240000D01*
X10433012Y42240000D01*
X10465925Y42297007D01*
X10500000Y42424174D01*
X10500000Y42555826D01*
X10465925Y42682993D01*
X10433012Y42740000D01*
X12106988Y42740000D01*
X12074075Y42682993D01*
G37*
%TD.AperFunction*%
%TD*%
M02*
