M48
; DRILL file {KiCad 8.0.4} date 2024-09-14T20:38:07+0700
; FORMAT={-:-/ absolute / inch / decimal}
; #@! TF.CreationDate,2024-09-14T20:38:07+07:00
; #@! TF.GenerationSoftware,Kicad,Pcbnew,8.0.4
; #@! TF.FileFunction,Plated,1,4,PTH
FMAT,2
INCH
; #@! TA.AperFunction,Plated,PTH,ViaDrill
T1C0.0157
; #@! TA.AperFunction,Plated,PTH,ComponentDrill
T2C0.0197
; #@! TA.AperFunction,Plated,PTH,ComponentDrill
T3C0.0394
; #@! TA.AperFunction,Plated,PTH,ComponentDrill
T4C0.0421
; #@! TA.AperFunction,Plated,PTH,ComponentDrill
T5C0.0673
; #@! TA.AperFunction,Plated,PTH,ComponentDrill
T6C0.1260
%
G90
G05
T1
X0.1378Y1.8209
X0.1378Y1.7323
X0.1378Y1.6339
X0.1378Y1.5354
X0.1378Y1.4173
X0.1378Y1.3287
X0.1378Y1.2303
X0.1378Y1.1319
X0.1378Y1.0335
X0.1378Y0.9449
X0.1378Y0.8465
X0.1378Y0.748
X0.1378Y0.6201
X0.1378Y0.5315
X0.1378Y0.4331
X0.1378Y0.3346
X0.3248Y0.0492
X0.4331Y0.0492
X0.5512Y0.0492
X0.6004Y0.8957
X0.6004Y0.7677
X0.6004Y0.3839
X0.6496Y0.2362
X0.6594Y1.5059
X0.6594Y1.3878
X0.6594Y1.2894
X0.6594Y1.1713
X0.6594Y1.0433
X0.6693Y0.0492
X0.689Y1.9685
X0.6988Y0.8169
X0.7067Y1.7146
X0.7185Y0.3937
X0.7283Y0.9449
X0.7362Y1.9705
X0.7382Y1.5748
X0.7382Y1.1319
X0.7776Y1.0531
X0.7776Y0.1969
X0.7776Y0.0492
X0.8071Y1.7402
X0.8071Y1.4567
X0.8071Y0.3248
X0.8169Y1.2598
X0.8268Y0.5217
X0.8465Y1.1614
X0.8465Y0.4035
X0.8563Y0.3248
X0.8858Y1.5748
X0.8957Y0.2559
X0.8957Y0.1673
X0.8957Y0.0492
X0.9252Y1.2303
X0.9252Y0.5315
X0.9252Y0.4921
X0.9803Y1.9665
X0.9941Y1.4075
X1.0039Y0.9252
X1.0039Y0.8563
X1.0138Y1.0335
X1.0236Y1.7126
X1.0236Y1.2795
X1.0236Y0.4921
X1.0335Y1.9665
X1.0335Y1.5748
X1.0531Y1.0925
X1.063Y1.0433
X1.0728Y1.8878
X1.0728Y1.2402
X1.0827Y1.4862
X1.1122Y0.0886
X1.1211Y0.4921
X1.1319Y1.4567
X1.1319Y0.8169
X1.1319Y0.7677
X1.1614Y2.0079
X1.1614Y1.9587
X1.1614Y1.7126
X1.1624Y0.4921
X1.1781Y0.7648
X1.1811Y1.1122
X1.1811Y1.0138
X1.2008Y0.0886
X1.2215Y0.7628
X1.2293Y1.2795
X1.2303Y1.063
X1.25Y0.5315
X1.2598Y1.5453
X1.2707Y1.2795
X1.2795Y2.0177
X1.2795Y1.1122
X1.2795Y1.0138
X1.3189Y0.4429
X1.3681Y1.5453
X1.3878Y0.0886
X1.3878Y0.0394
X1.3957Y0.8917
X1.3957Y0.815
X1.3957Y0.748
X1.3957Y0.6614
X1.3957Y0.5669
X1.3976Y1.9488
X1.3976Y1.7126
X1.3976Y0.9941
X1.3976Y0.9449
X1.4075Y0.2067
X1.4173Y1.3091
X1.4567Y1.9488
X1.4862Y1.5551
X1.4882Y1.1437
X1.498Y0.9488
X1.5256Y0.8957
X1.5256Y0.8465
X1.5256Y0.7894
X1.5256Y0.7008
X1.5256Y0.6299
X1.5413Y1.0965
X1.5453Y0.5807
X1.5453Y0.3543
X1.5669Y0.9331
X1.6043Y1.9488
X1.6043Y1.7224
X1.6043Y1.5256
X1.6142Y0.3445
X1.6535Y0.8661
X1.6634Y0.6201
X1.7126Y0.5118
X1.7126Y0.3937
X1.7224Y0.935
X1.7618Y1.5256
X1.7717Y1.9488
X1.7717Y0.4626
X1.7815Y1.3091
X1.7815Y1.2205
X1.7815Y1.122
X1.7815Y1.0236
X1.8012Y1.7224
X1.811Y0.6693
X1.8307Y1.2598
X1.8307Y0.5118
X1.8307Y0.3937
X1.8504Y2.0276
X1.8504Y1.4862
X1.8701Y0.9941
X1.8701Y0.8465
X1.8799Y1.8504
X1.939Y1.939
X1.9882Y1.7421
X1.9882Y1.565
X2.0079Y2.0669
X2.0177Y0.4035
X2.0177Y0.3543
X2.0374Y1.1496
X2.0374Y1.0787
X2.0472Y0.1772
X2.0472Y0.0591
X2.0571Y0.7874
X2.0669Y0.7283
X2.0669Y0.315
X2.0689Y1.1142
X2.0768Y1.6535
X2.0768Y0.9646
X2.0768Y0.8661
X2.0866Y1.7913
X2.1304Y1.4345
X2.1358Y0.748
X2.1457Y1.9094
X2.1555Y1.565
X2.185Y0.1762
X2.185Y0.0591
X2.2244Y1.8307
X2.2244Y1.4567
X2.2244Y1.2992
X2.2244Y1.1811
X2.2244Y1.122
X2.2244Y1.063
X2.2343Y2.0669
X2.2343Y0.3051
X2.2441Y0.6693
X2.2539Y1.6339
X2.2539Y0.4232
X2.2539Y0.3543
X2.313Y1.7421
X2.3228Y0.5413
X2.3228Y0.1772
X2.3425Y0.0591
X2.372Y2.0669
X2.372Y1.4862
X2.3819Y1.6142
X2.4016Y0.3543
X2.4114Y0.5413
X2.4213Y0.9055
X2.4902Y2.0669
X2.4902Y1.9882
X2.4902Y1.8799
X2.5Y1.4469
X2.5098Y1.6043
X2.5098Y1.5256
X2.5098Y0.9547
X2.5295Y0.0591
X2.5689Y0.9547
X2.6083Y1.4469
X2.6181Y1.8799
X2.6181Y0.2559
X2.628Y0.9547
X2.6575Y1.7618
X2.6575Y1.6929
X2.6575Y1.6437
X2.687Y0.9547
X2.7362Y1.8799
X2.7362Y1.8209
X2.7362Y0.0591
X2.7461Y0.9547
X2.7854Y0.5217
X2.7854Y0.3642
X2.8051Y1.5157
X2.8051Y0.9547
X2.815Y1.7717
X2.815Y1.5846
X2.815Y1.437
X2.8248Y0.8366
X2.8445Y1.8799
X2.874Y0.5217
X2.874Y0.4429
X2.8839Y0.0591
X2.9232Y1.378
X2.9232Y1.2598
X2.9331Y1.7421
X2.9331Y1.5945
X2.9331Y0.8366
X2.9429Y1.8799
X2.9823Y0.5217
X3.0118Y0.7677
X3.0315Y1.1811
X3.0315Y1.1024
X3.0315Y0.0591
X3.0413Y2.0669
X3.0413Y1.8799
X3.0413Y0.3642
X3.0807Y1.8209
X3.0807Y1.7028
X3.0807Y0.5217
X3.1102Y0.7677
X3.1299Y0.8563
X3.1398Y0.315
X3.1693Y0.9449
X3.1693Y0.5335
X3.1988Y0.7677
X3.2677Y0.7776
X3.2874Y1.8209
X3.2874Y1.6043
X3.2874Y1.5043
X3.2874Y1.4043
X3.2874Y1.3043
X3.2874Y1.2043
X3.2874Y1.1043
X3.2874Y1.0043
X3.2874Y0.9043
X3.2874Y0.4724
X3.2874Y0.3724
T2
X0.0433Y1.9882
X0.0433Y0.1378
X0.071Y2.055
X0.071Y1.9214
X0.071Y0.2046
X0.071Y0.071
X0.1378Y2.0827
X0.1378Y1.8937
X0.1378Y0.2323
X0.1378Y0.0433
X0.2046Y2.055
X0.2046Y1.9214
X0.2046Y0.2046
X0.2046Y0.071
X0.2323Y1.9882
X0.2323Y0.1378
X3.1142Y1.9882
X3.1142Y0.1378
X3.1418Y2.055
X3.1418Y1.9214
X3.1418Y0.2046
X3.1418Y0.071
X3.2087Y2.0827
X3.2087Y1.8937
X3.2087Y0.2323
X3.2087Y0.0433
X3.2755Y2.055
X3.2755Y1.9214
X3.2755Y0.2046
X3.2755Y0.071
X3.3031Y1.9882
X3.3031Y0.1378
T3
X0.3937Y1.9732
X0.3937Y1.7728
X0.3937Y1.6728
X0.3937Y1.5728
X0.3937Y1.4728
X0.3937Y1.3728
X0.3937Y1.2728
X0.3937Y1.0728
X0.3937Y0.8728
X0.3937Y0.7728
X0.3937Y0.6728
X0.3937Y0.5728
X0.3937Y0.4728
X0.3937Y0.3728
X0.3937Y0.1728
X0.4937Y1.9732
X0.4937Y1.7728
X0.4937Y1.6728
X0.4937Y1.5728
X0.4937Y1.4728
X0.4937Y1.3728
X0.4937Y1.2728
X0.4937Y1.0728
X0.4937Y0.8728
X0.4937Y0.7728
X0.4937Y0.6728
X0.4937Y0.5728
X0.4937Y0.4728
X0.4937Y0.3728
X0.4937Y0.1728
T4
X1.0566Y0.2067
X1.2475Y0.2067
T5
X1.0138Y0.0886
X1.2903Y0.0886
T6
X0.1378Y1.9882
X0.1378Y0.1378
X3.2087Y1.9882
X3.2087Y0.1378
M30
