%TF.GenerationSoftware,KiCad,Pcbnew,8.0.4*%
%TF.CreationDate,2024-09-14T20:38:07+07:00*%
%TF.ProjectId,msi_SDR_ADC,6d73695f-5344-4525-9f41-44432e6b6963,R0.1*%
%TF.SameCoordinates,PX72ade90PY75c75e0*%
%TF.FileFunction,Legend,Bot*%
%TF.FilePolarity,Positive*%
%FSLAX46Y46*%
G04 Gerber Fmt 4.6, Leading zero omitted, Abs format (unit mm)*
G04 Created by KiCad (PCBNEW 8.0.4) date 2024-09-14 20:38:07*
%MOMM*%
%LPD*%
G01*
G04 APERTURE LIST*
%ADD10C,0.150000*%
%ADD11R,1.700000X1.700000*%
%ADD12O,1.700000X1.700000*%
%ADD13C,2.425000*%
%ADD14C,1.450000*%
%ADD15C,0.800000*%
%ADD16C,6.400000*%
%ADD17R,4.800000X4.900000*%
G04 APERTURE END LIST*
D10*
G36*
X15097890Y51694070D02*
G01*
X12013413Y51694070D01*
X12013413Y52870801D01*
X12124524Y52870801D01*
X12127784Y52856464D01*
X12461117Y51856464D01*
X12467111Y51843039D01*
X12470621Y51838992D01*
X12473018Y51834198D01*
X12480126Y51828033D01*
X12486285Y51820932D01*
X12491074Y51818538D01*
X12495125Y51815024D01*
X12504050Y51812050D01*
X12512458Y51807845D01*
X12517802Y51807466D01*
X12522888Y51805770D01*
X12532268Y51806437D01*
X12541648Y51805770D01*
X12546733Y51807466D01*
X12552078Y51807845D01*
X12560488Y51812051D01*
X12569410Y51815024D01*
X12573457Y51818535D01*
X12578251Y51820931D01*
X12584414Y51828037D01*
X12591518Y51834198D01*
X12593913Y51838990D01*
X12597425Y51843038D01*
X12603419Y51856464D01*
X12754182Y52308753D01*
X13076316Y52308753D01*
X13076316Y52070658D01*
X13077757Y52056026D01*
X13078788Y52053537D01*
X13078979Y52050849D01*
X13084234Y52037117D01*
X13131853Y51941879D01*
X13135816Y51935583D01*
X13136574Y51933753D01*
X13138263Y51931695D01*
X13139685Y51929436D01*
X13141183Y51928137D01*
X13145901Y51922388D01*
X13193520Y51874768D01*
X13199269Y51870050D01*
X13200570Y51868550D01*
X13202829Y51867128D01*
X13204886Y51865440D01*
X13206713Y51864683D01*
X13213013Y51860718D01*
X13308251Y51813099D01*
X13321982Y51807844D01*
X13324671Y51807653D01*
X13327160Y51806622D01*
X13341792Y51805181D01*
X13579887Y51805181D01*
X13594519Y51806622D01*
X13597008Y51807654D01*
X13599696Y51807844D01*
X13613428Y51813099D01*
X13708666Y51860718D01*
X13714965Y51864683D01*
X13716793Y51865440D01*
X13718849Y51867128D01*
X13721109Y51868550D01*
X13722409Y51870050D01*
X13728159Y51874768D01*
X13775777Y51922387D01*
X13785105Y51933753D01*
X13796303Y51960789D01*
X13796303Y51990052D01*
X13785104Y52017088D01*
X13764411Y52037781D01*
X13737375Y52048979D01*
X13708112Y52048979D01*
X13681076Y52037780D01*
X13669710Y52028452D01*
X13630697Y51989439D01*
X13562182Y51955181D01*
X13359497Y51955181D01*
X13290981Y51989439D01*
X13260574Y52019847D01*
X13226316Y52088363D01*
X13226316Y52275766D01*
X14077757Y52275766D01*
X14077757Y52246502D01*
X14088956Y52219466D01*
X14109648Y52198774D01*
X14136684Y52187575D01*
X14151316Y52186134D01*
X14457268Y52186134D01*
X14457268Y51880181D01*
X14458709Y51865549D01*
X14469908Y51838513D01*
X14490600Y51817821D01*
X14517636Y51806622D01*
X14546900Y51806622D01*
X14573936Y51817821D01*
X14594628Y51838513D01*
X14605827Y51865549D01*
X14607268Y51880181D01*
X14607268Y52186134D01*
X14913220Y52186134D01*
X14927852Y52187575D01*
X14954888Y52198774D01*
X14975580Y52219466D01*
X14986779Y52246502D01*
X14986779Y52275766D01*
X14975580Y52302802D01*
X14954888Y52323494D01*
X14927852Y52334693D01*
X14913220Y52336134D01*
X14607268Y52336134D01*
X14607268Y52642086D01*
X14605827Y52656718D01*
X14594628Y52683754D01*
X14573936Y52704446D01*
X14546900Y52715645D01*
X14517636Y52715645D01*
X14490600Y52704446D01*
X14469908Y52683754D01*
X14458709Y52656718D01*
X14457268Y52642086D01*
X14457268Y52336134D01*
X14151316Y52336134D01*
X14136684Y52334693D01*
X14109648Y52323494D01*
X14088956Y52302802D01*
X14077757Y52275766D01*
X13226316Y52275766D01*
X13226316Y52291048D01*
X13260574Y52359564D01*
X13290981Y52389971D01*
X13359497Y52424229D01*
X13562182Y52424229D01*
X13630698Y52389971D01*
X13669711Y52350958D01*
X13681076Y52341631D01*
X13684564Y52340186D01*
X13687488Y52337794D01*
X13697985Y52334627D01*
X13708112Y52330432D01*
X13711888Y52330432D01*
X13715504Y52329341D01*
X13726414Y52330432D01*
X13737375Y52330432D01*
X13740863Y52331878D01*
X13744623Y52332253D01*
X13754286Y52337438D01*
X13764411Y52341631D01*
X13767081Y52344302D01*
X13770410Y52346087D01*
X13777355Y52354576D01*
X13785104Y52362324D01*
X13786548Y52365811D01*
X13788941Y52368735D01*
X13792109Y52379236D01*
X13796303Y52389360D01*
X13796303Y52393136D01*
X13797394Y52396751D01*
X13797372Y52411454D01*
X13749753Y52887644D01*
X13748684Y52892977D01*
X13748684Y52894813D01*
X13747970Y52896536D01*
X13746863Y52902060D01*
X13741680Y52911720D01*
X13737485Y52921849D01*
X13734813Y52924521D01*
X13733029Y52927847D01*
X13724546Y52934788D01*
X13716793Y52942541D01*
X13713304Y52943987D01*
X13710381Y52946378D01*
X13699883Y52949546D01*
X13689757Y52953740D01*
X13684151Y52954293D01*
X13682365Y52954831D01*
X13680536Y52954649D01*
X13675125Y52955181D01*
X13198935Y52955181D01*
X13184303Y52953740D01*
X13157267Y52942541D01*
X13136575Y52921849D01*
X13125376Y52894813D01*
X13125376Y52865549D01*
X13136575Y52838513D01*
X13157267Y52817821D01*
X13184303Y52806622D01*
X13198935Y52805181D01*
X13607251Y52805181D01*
X13632069Y52556991D01*
X13613428Y52566311D01*
X13599696Y52571566D01*
X13597008Y52571757D01*
X13594519Y52572788D01*
X13579887Y52574229D01*
X13341792Y52574229D01*
X13327160Y52572788D01*
X13324671Y52571758D01*
X13321982Y52571566D01*
X13308251Y52566311D01*
X13213013Y52518692D01*
X13206713Y52514728D01*
X13204886Y52513970D01*
X13202829Y52512282D01*
X13200570Y52510860D01*
X13199270Y52509362D01*
X13193521Y52504643D01*
X13145902Y52457024D01*
X13141183Y52451275D01*
X13139685Y52449975D01*
X13138263Y52447716D01*
X13136575Y52445659D01*
X13135817Y52443832D01*
X13131853Y52437532D01*
X13084234Y52342294D01*
X13078979Y52328562D01*
X13078788Y52325875D01*
X13077757Y52323385D01*
X13076316Y52308753D01*
X12754182Y52308753D01*
X12936752Y52856464D01*
X12940012Y52870800D01*
X12937937Y52899990D01*
X12924851Y52926164D01*
X12902743Y52945338D01*
X12874981Y52954592D01*
X12845791Y52952517D01*
X12819618Y52939430D01*
X12800444Y52917323D01*
X12794450Y52903898D01*
X12532268Y52117352D01*
X12270086Y52903898D01*
X12264092Y52917324D01*
X12244918Y52939431D01*
X12218745Y52952517D01*
X12189555Y52954592D01*
X12161792Y52945338D01*
X12139685Y52926164D01*
X12126599Y52899991D01*
X12124524Y52870801D01*
X12013413Y52870801D01*
X12013413Y53066292D01*
X15097890Y53066292D01*
X15097890Y51694070D01*
G37*
G36*
X6040601Y42205181D02*
G01*
X5889676Y42205181D01*
X5775163Y42243352D01*
X5701050Y42317466D01*
X5662556Y42394453D01*
X5619173Y42567987D01*
X5619173Y42692376D01*
X5662556Y42865910D01*
X5701050Y42942897D01*
X5775163Y43017010D01*
X5889676Y43055181D01*
X6040601Y43055181D01*
X6040601Y42205181D01*
G37*
G36*
X8396950Y41944070D02*
G01*
X5358062Y41944070D01*
X5358062Y42701610D01*
X5469173Y42701610D01*
X5469173Y42558753D01*
X5469424Y42556200D01*
X5469262Y42555107D01*
X5470071Y42549634D01*
X5470614Y42544121D01*
X5471036Y42543100D01*
X5471412Y42540563D01*
X5519031Y42350087D01*
X5519416Y42349008D01*
X5519455Y42348468D01*
X5521782Y42342387D01*
X5523978Y42336241D01*
X5524300Y42335806D01*
X5524710Y42334736D01*
X5572329Y42239498D01*
X5576292Y42233202D01*
X5577050Y42231372D01*
X5578739Y42229314D01*
X5580161Y42227055D01*
X5581659Y42225756D01*
X5586378Y42220006D01*
X5681616Y42124767D01*
X5692981Y42115439D01*
X5695471Y42114408D01*
X5697506Y42112643D01*
X5710932Y42106649D01*
X5853788Y42059030D01*
X5861043Y42057381D01*
X5862874Y42056622D01*
X5865527Y42056361D01*
X5868125Y42055770D01*
X5870099Y42055911D01*
X5877506Y42055181D01*
X6115601Y42055181D01*
X6130233Y42056622D01*
X6157269Y42067821D01*
X6177961Y42088513D01*
X6189160Y42115549D01*
X6190601Y42130181D01*
X6190601Y43130181D01*
X6516792Y43130181D01*
X6516792Y42130181D01*
X6517162Y42126418D01*
X6516975Y42124942D01*
X6517496Y42123032D01*
X6518233Y42115549D01*
X6522050Y42106334D01*
X6524675Y42096710D01*
X6527602Y42092930D01*
X6529432Y42088513D01*
X6536482Y42081463D01*
X6542592Y42073573D01*
X6546745Y42071200D01*
X6550124Y42067821D01*
X6559336Y42064005D01*
X6568001Y42059054D01*
X6572744Y42058452D01*
X6577160Y42056622D01*
X6587134Y42056622D01*
X6597031Y42055364D01*
X6601643Y42056622D01*
X6606424Y42056622D01*
X6615639Y42060440D01*
X6625263Y42063064D01*
X6629043Y42065992D01*
X6633460Y42067821D01*
X6640510Y42074872D01*
X6648400Y42080981D01*
X6652752Y42087114D01*
X6654152Y42088513D01*
X6654721Y42089888D01*
X6656910Y42092971D01*
X7088220Y42847765D01*
X7088220Y42130181D01*
X7089661Y42115549D01*
X7100860Y42088513D01*
X7121552Y42067821D01*
X7148588Y42056622D01*
X7177852Y42056622D01*
X7204888Y42067821D01*
X7225580Y42088513D01*
X7236779Y42115549D01*
X7238220Y42130181D01*
X7238220Y42558753D01*
X7516792Y42558753D01*
X7516792Y42225420D01*
X7518233Y42210788D01*
X7522150Y42201332D01*
X7529431Y42183753D01*
X7538758Y42172388D01*
X7586377Y42124768D01*
X7597743Y42115440D01*
X7600231Y42114410D01*
X7602268Y42112643D01*
X7615694Y42106649D01*
X7758550Y42059030D01*
X7765805Y42057381D01*
X7767636Y42056622D01*
X7770289Y42056361D01*
X7772887Y42055770D01*
X7774861Y42055911D01*
X7782268Y42055181D01*
X7877506Y42055181D01*
X7884911Y42055911D01*
X7886886Y42055770D01*
X7889483Y42056361D01*
X7892138Y42056622D01*
X7893969Y42057381D01*
X7901223Y42059030D01*
X8044080Y42106649D01*
X8057505Y42112643D01*
X8059540Y42114409D01*
X8062031Y42115440D01*
X8073396Y42124767D01*
X8168635Y42220007D01*
X8173352Y42225756D01*
X8174851Y42227055D01*
X8176272Y42229314D01*
X8177962Y42231372D01*
X8178719Y42233202D01*
X8182683Y42239498D01*
X8230302Y42334736D01*
X8230711Y42335806D01*
X8231034Y42336241D01*
X8233226Y42342378D01*
X8235557Y42348467D01*
X8235595Y42349008D01*
X8235981Y42350087D01*
X8283600Y42540563D01*
X8283975Y42543100D01*
X8284398Y42544121D01*
X8284940Y42549634D01*
X8285750Y42555107D01*
X8285587Y42556200D01*
X8285839Y42558753D01*
X8285839Y42701610D01*
X8285587Y42704164D01*
X8285750Y42705256D01*
X8284940Y42710730D01*
X8284398Y42716242D01*
X8283975Y42717264D01*
X8283600Y42719800D01*
X8235981Y42910276D01*
X8235595Y42911356D01*
X8235557Y42911896D01*
X8233226Y42917986D01*
X8231034Y42924122D01*
X8230711Y42924558D01*
X8230302Y42925627D01*
X8182683Y43020865D01*
X8178720Y43027160D01*
X8177962Y43028992D01*
X8176270Y43031054D01*
X8174851Y43033308D01*
X8173354Y43034607D01*
X8168634Y43040357D01*
X8073396Y43135595D01*
X8062031Y43144922D01*
X8059540Y43145954D01*
X8057505Y43147719D01*
X8044080Y43153713D01*
X7901223Y43201332D01*
X7893969Y43202982D01*
X7892138Y43203740D01*
X7889483Y43204002D01*
X7886886Y43204592D01*
X7884911Y43204452D01*
X7877506Y43205181D01*
X7734649Y43205181D01*
X7720017Y43203740D01*
X7717528Y43202710D01*
X7714839Y43202518D01*
X7701108Y43197263D01*
X7605870Y43149644D01*
X7593427Y43141812D01*
X7574254Y43119704D01*
X7565000Y43091943D01*
X7567074Y43062753D01*
X7580161Y43036578D01*
X7602269Y43017405D01*
X7630030Y43008151D01*
X7659220Y43010225D01*
X7672952Y43015480D01*
X7752354Y43055181D01*
X7865336Y43055181D01*
X7979849Y43017010D01*
X8053962Y42942897D01*
X8092455Y42865910D01*
X8135839Y42692376D01*
X8135839Y42567987D01*
X8092455Y42394453D01*
X8053961Y42317466D01*
X7979849Y42243353D01*
X7865336Y42205181D01*
X7794438Y42205181D01*
X7679925Y42243352D01*
X7666792Y42256486D01*
X7666792Y42483753D01*
X7782268Y42483753D01*
X7796900Y42485194D01*
X7823936Y42496393D01*
X7844628Y42517085D01*
X7855827Y42544121D01*
X7855827Y42573385D01*
X7844628Y42600421D01*
X7823936Y42621113D01*
X7796900Y42632312D01*
X7782268Y42633753D01*
X7591792Y42633753D01*
X7577160Y42632312D01*
X7550124Y42621113D01*
X7529432Y42600421D01*
X7518233Y42573385D01*
X7516792Y42558753D01*
X7238220Y42558753D01*
X7238220Y43130181D01*
X7237849Y43133945D01*
X7238037Y43135420D01*
X7237515Y43137331D01*
X7236779Y43144813D01*
X7232961Y43154029D01*
X7230337Y43163652D01*
X7227409Y43167433D01*
X7225580Y43171849D01*
X7218529Y43178900D01*
X7212420Y43186789D01*
X7208266Y43189163D01*
X7204888Y43192541D01*
X7195675Y43196358D01*
X7187011Y43201308D01*
X7182267Y43201911D01*
X7177852Y43203740D01*
X7167878Y43203740D01*
X7157981Y43204998D01*
X7153369Y43203740D01*
X7148588Y43203740D01*
X7139371Y43199923D01*
X7129750Y43197298D01*
X7125970Y43194372D01*
X7121552Y43192541D01*
X7114500Y43185490D01*
X7106612Y43179381D01*
X7102257Y43173247D01*
X7100860Y43171849D01*
X7100291Y43170477D01*
X7098102Y43167392D01*
X6666792Y42412598D01*
X6666792Y43130181D01*
X6665351Y43144813D01*
X6654152Y43171849D01*
X6633460Y43192541D01*
X6606424Y43203740D01*
X6577160Y43203740D01*
X6550124Y43192541D01*
X6529432Y43171849D01*
X6518233Y43144813D01*
X6516792Y43130181D01*
X6190601Y43130181D01*
X6189160Y43144813D01*
X6177961Y43171849D01*
X6157269Y43192541D01*
X6130233Y43203740D01*
X6115601Y43205181D01*
X5877506Y43205181D01*
X5870099Y43204452D01*
X5868125Y43204592D01*
X5865527Y43204002D01*
X5862874Y43203740D01*
X5861043Y43202982D01*
X5853788Y43201332D01*
X5710932Y43153713D01*
X5697506Y43147719D01*
X5695471Y43145955D01*
X5692981Y43144923D01*
X5681616Y43135595D01*
X5586378Y43040357D01*
X5581659Y43034608D01*
X5580161Y43033308D01*
X5578739Y43031049D01*
X5577051Y43028992D01*
X5576293Y43027165D01*
X5572329Y43020865D01*
X5524710Y42925627D01*
X5524300Y42924558D01*
X5523978Y42924122D01*
X5521782Y42917977D01*
X5519455Y42911895D01*
X5519416Y42911356D01*
X5519031Y42910276D01*
X5471412Y42719800D01*
X5471036Y42717264D01*
X5470614Y42716242D01*
X5470071Y42710730D01*
X5469262Y42705256D01*
X5469424Y42704164D01*
X5469173Y42701610D01*
X5358062Y42701610D01*
X5358062Y43316292D01*
X8396950Y43316292D01*
X8396950Y41944070D01*
G37*
G36*
X15290601Y36955181D02*
G01*
X15139676Y36955181D01*
X15025163Y36993352D01*
X14951050Y37067466D01*
X14912556Y37144453D01*
X14869173Y37317987D01*
X14869173Y37442376D01*
X14912556Y37615910D01*
X14951050Y37692897D01*
X15025163Y37767010D01*
X15139676Y37805181D01*
X15290601Y37805181D01*
X15290601Y36955181D01*
G37*
G36*
X19481077Y36955181D02*
G01*
X19330152Y36955181D01*
X19215639Y36993352D01*
X19141526Y37067466D01*
X19103032Y37144453D01*
X19059649Y37317987D01*
X19059649Y37442376D01*
X19103032Y37615910D01*
X19141526Y37692897D01*
X19215639Y37767010D01*
X19330152Y37805181D01*
X19481077Y37805181D01*
X19481077Y36955181D01*
G37*
G36*
X20356782Y37240896D02*
G01*
X20088706Y37240896D01*
X20222744Y37643011D01*
X20356782Y37240896D01*
G37*
G36*
X20741599Y36694070D02*
G01*
X14179490Y36694070D01*
X14179490Y37880181D01*
X14290601Y37880181D01*
X14290601Y36880181D01*
X14292042Y36865549D01*
X14303241Y36838513D01*
X14323933Y36817821D01*
X14350969Y36806622D01*
X14380233Y36806622D01*
X14407269Y36817821D01*
X14427961Y36838513D01*
X14439160Y36865549D01*
X14440601Y36880181D01*
X14440601Y37451610D01*
X14719173Y37451610D01*
X14719173Y37308753D01*
X14719424Y37306200D01*
X14719262Y37305107D01*
X14720071Y37299634D01*
X14720614Y37294121D01*
X14721036Y37293100D01*
X14721412Y37290563D01*
X14769031Y37100087D01*
X14769416Y37099008D01*
X14769455Y37098468D01*
X14771782Y37092387D01*
X14773978Y37086241D01*
X14774300Y37085806D01*
X14774710Y37084736D01*
X14822329Y36989498D01*
X14826292Y36983202D01*
X14827050Y36981372D01*
X14828739Y36979314D01*
X14830161Y36977055D01*
X14831659Y36975756D01*
X14836378Y36970006D01*
X14931616Y36874767D01*
X14942981Y36865439D01*
X14945471Y36864408D01*
X14947506Y36862643D01*
X14960932Y36856649D01*
X15103788Y36809030D01*
X15111043Y36807381D01*
X15112874Y36806622D01*
X15115527Y36806361D01*
X15118125Y36805770D01*
X15120099Y36805911D01*
X15127506Y36805181D01*
X15365601Y36805181D01*
X15380233Y36806622D01*
X15407269Y36817821D01*
X15427961Y36838513D01*
X15439160Y36865549D01*
X15440601Y36880181D01*
X15440601Y37165896D01*
X15719173Y37165896D01*
X15719173Y37070658D01*
X15720614Y37056026D01*
X15721645Y37053537D01*
X15721836Y37050849D01*
X15727091Y37037117D01*
X15774710Y36941879D01*
X15778673Y36935583D01*
X15779431Y36933753D01*
X15781120Y36931695D01*
X15782542Y36929436D01*
X15784040Y36928137D01*
X15788758Y36922388D01*
X15836377Y36874768D01*
X15842126Y36870050D01*
X15843427Y36868550D01*
X15845686Y36867128D01*
X15847743Y36865440D01*
X15849570Y36864683D01*
X15855870Y36860718D01*
X15951108Y36813099D01*
X15964839Y36807844D01*
X15967528Y36807653D01*
X15970017Y36806622D01*
X15984649Y36805181D01*
X16222744Y36805181D01*
X16230149Y36805911D01*
X16232124Y36805770D01*
X16234721Y36806361D01*
X16237376Y36806622D01*
X16239207Y36807381D01*
X16246461Y36809030D01*
X16389318Y36856649D01*
X16402743Y36862643D01*
X16424850Y36881817D01*
X16437937Y36907990D01*
X16440012Y36937180D01*
X16430758Y36964942D01*
X16411584Y36987050D01*
X16385410Y37000136D01*
X16356220Y37002211D01*
X16341883Y36998951D01*
X16210574Y36955181D01*
X16002354Y36955181D01*
X15933838Y36989439D01*
X15903431Y37019847D01*
X15869173Y37088363D01*
X15869173Y37148191D01*
X15903431Y37216707D01*
X15933838Y37247114D01*
X15991141Y37275766D01*
X16720614Y37275766D01*
X16720614Y37246502D01*
X16731813Y37219466D01*
X16752505Y37198774D01*
X16779541Y37187575D01*
X16794173Y37186134D01*
X17556077Y37186134D01*
X17570709Y37187575D01*
X17597745Y37198774D01*
X17618437Y37219466D01*
X17629636Y37246502D01*
X17629636Y37275766D01*
X17618437Y37302802D01*
X17597745Y37323494D01*
X17570709Y37334693D01*
X17556077Y37336134D01*
X16794173Y37336134D01*
X16779541Y37334693D01*
X16752505Y37323494D01*
X16731813Y37302802D01*
X16720614Y37275766D01*
X15991141Y37275766D01*
X16010825Y37285608D01*
X16193315Y37331230D01*
X16194394Y37331616D01*
X16194934Y37331654D01*
X16201015Y37333982D01*
X16207161Y37336177D01*
X16207596Y37336500D01*
X16208666Y37336909D01*
X16303904Y37384528D01*
X16310203Y37388493D01*
X16312031Y37389250D01*
X16314087Y37390939D01*
X16316347Y37392360D01*
X16317646Y37393859D01*
X16323396Y37398577D01*
X16371015Y37446196D01*
X16375733Y37451946D01*
X16377232Y37453245D01*
X16378653Y37455505D01*
X16380342Y37457561D01*
X16381099Y37459389D01*
X16385064Y37465688D01*
X16432683Y37560926D01*
X16437938Y37574657D01*
X16438129Y37577347D01*
X16439160Y37579835D01*
X16440601Y37594467D01*
X16440601Y37689705D01*
X16439160Y37704337D01*
X16438129Y37706826D01*
X16437938Y37709515D01*
X16432683Y37723246D01*
X16394519Y37799574D01*
X17911090Y37799574D01*
X17911090Y37770312D01*
X17922289Y37743275D01*
X17942981Y37722583D01*
X17970018Y37711384D01*
X17999280Y37711384D01*
X18026317Y37722583D01*
X18037682Y37731910D01*
X18072782Y37767010D01*
X18187295Y37805181D01*
X18258193Y37805181D01*
X18372706Y37767010D01*
X18446819Y37692897D01*
X18485312Y37615910D01*
X18528696Y37442376D01*
X18528696Y37317987D01*
X18485312Y37144453D01*
X18446818Y37067466D01*
X18372706Y36993353D01*
X18258193Y36955181D01*
X18187295Y36955181D01*
X18072782Y36993352D01*
X18037683Y37028452D01*
X18026317Y37037780D01*
X17999281Y37048979D01*
X17970018Y37048979D01*
X17942982Y37037781D01*
X17922289Y37017088D01*
X17911090Y36990052D01*
X17911090Y36960789D01*
X17922288Y36933753D01*
X17931615Y36922388D01*
X17979234Y36874768D01*
X17990600Y36865440D01*
X17993088Y36864410D01*
X17995125Y36862643D01*
X18008551Y36856649D01*
X18151407Y36809030D01*
X18158662Y36807381D01*
X18160493Y36806622D01*
X18163146Y36806361D01*
X18165744Y36805770D01*
X18167718Y36805911D01*
X18175125Y36805181D01*
X18270363Y36805181D01*
X18277768Y36805911D01*
X18279743Y36805770D01*
X18282340Y36806361D01*
X18284995Y36806622D01*
X18286826Y36807381D01*
X18294080Y36809030D01*
X18436937Y36856649D01*
X18450362Y36862643D01*
X18452397Y36864409D01*
X18454888Y36865440D01*
X18466253Y36874767D01*
X18561492Y36970007D01*
X18566209Y36975756D01*
X18567708Y36977055D01*
X18569129Y36979314D01*
X18570819Y36981372D01*
X18571576Y36983202D01*
X18575540Y36989498D01*
X18623159Y37084736D01*
X18623568Y37085806D01*
X18623891Y37086241D01*
X18626083Y37092378D01*
X18628414Y37098467D01*
X18628452Y37099008D01*
X18628838Y37100087D01*
X18676457Y37290563D01*
X18676832Y37293100D01*
X18677255Y37294121D01*
X18677797Y37299634D01*
X18678607Y37305107D01*
X18678444Y37306200D01*
X18678696Y37308753D01*
X18678696Y37451610D01*
X18909649Y37451610D01*
X18909649Y37308753D01*
X18909900Y37306200D01*
X18909738Y37305107D01*
X18910547Y37299634D01*
X18911090Y37294121D01*
X18911512Y37293100D01*
X18911888Y37290563D01*
X18959507Y37100087D01*
X18959892Y37099008D01*
X18959931Y37098468D01*
X18962258Y37092387D01*
X18964454Y37086241D01*
X18964776Y37085806D01*
X18965186Y37084736D01*
X19012805Y36989498D01*
X19016768Y36983202D01*
X19017526Y36981372D01*
X19019215Y36979314D01*
X19020637Y36977055D01*
X19022135Y36975756D01*
X19026854Y36970006D01*
X19122092Y36874767D01*
X19133457Y36865439D01*
X19135947Y36864408D01*
X19137982Y36862643D01*
X19151408Y36856649D01*
X19294264Y36809030D01*
X19301519Y36807381D01*
X19303350Y36806622D01*
X19306003Y36806361D01*
X19308601Y36805770D01*
X19310575Y36805911D01*
X19317982Y36805181D01*
X19556077Y36805181D01*
X19570709Y36806622D01*
X19597745Y36817821D01*
X19618437Y36838513D01*
X19629636Y36865549D01*
X19631077Y36880181D01*
X19631077Y36889561D01*
X19815000Y36889561D01*
X19817075Y36860371D01*
X19830161Y36834198D01*
X19852268Y36815024D01*
X19880031Y36805770D01*
X19909221Y36807845D01*
X19935394Y36820931D01*
X19954568Y36843038D01*
X19960562Y36856464D01*
X20038706Y37090896D01*
X20406782Y37090896D01*
X20484926Y36856464D01*
X20490920Y36843039D01*
X20510094Y36820932D01*
X20536267Y36807845D01*
X20565457Y36805770D01*
X20593219Y36815024D01*
X20615327Y36834198D01*
X20628413Y36860372D01*
X20630488Y36889562D01*
X20627228Y36903898D01*
X20293895Y37903898D01*
X20287901Y37917324D01*
X20284389Y37921373D01*
X20281994Y37926164D01*
X20274890Y37932326D01*
X20268727Y37939431D01*
X20263933Y37941828D01*
X20259886Y37945338D01*
X20250964Y37948312D01*
X20242554Y37952517D01*
X20237209Y37952897D01*
X20232124Y37954592D01*
X20222744Y37953926D01*
X20213364Y37954592D01*
X20208278Y37952897D01*
X20202934Y37952517D01*
X20194526Y37948313D01*
X20185601Y37945338D01*
X20181550Y37941825D01*
X20176761Y37939430D01*
X20170602Y37932330D01*
X20163494Y37926164D01*
X20161097Y37921371D01*
X20157587Y37917323D01*
X20151593Y37903898D01*
X19818260Y36903898D01*
X19815000Y36889561D01*
X19631077Y36889561D01*
X19631077Y37880181D01*
X19629636Y37894813D01*
X19618437Y37921849D01*
X19597745Y37942541D01*
X19570709Y37953740D01*
X19556077Y37955181D01*
X19317982Y37955181D01*
X19310575Y37954452D01*
X19308601Y37954592D01*
X19306003Y37954002D01*
X19303350Y37953740D01*
X19301519Y37952982D01*
X19294264Y37951332D01*
X19151408Y37903713D01*
X19137982Y37897719D01*
X19135947Y37895955D01*
X19133457Y37894923D01*
X19122092Y37885595D01*
X19026854Y37790357D01*
X19022135Y37784608D01*
X19020637Y37783308D01*
X19019215Y37781049D01*
X19017527Y37778992D01*
X19016769Y37777165D01*
X19012805Y37770865D01*
X18965186Y37675627D01*
X18964776Y37674558D01*
X18964454Y37674122D01*
X18962258Y37667977D01*
X18959931Y37661895D01*
X18959892Y37661356D01*
X18959507Y37660276D01*
X18911888Y37469800D01*
X18911512Y37467264D01*
X18911090Y37466242D01*
X18910547Y37460730D01*
X18909738Y37455256D01*
X18909900Y37454164D01*
X18909649Y37451610D01*
X18678696Y37451610D01*
X18678444Y37454164D01*
X18678607Y37455256D01*
X18677797Y37460730D01*
X18677255Y37466242D01*
X18676832Y37467264D01*
X18676457Y37469800D01*
X18628838Y37660276D01*
X18628452Y37661356D01*
X18628414Y37661896D01*
X18626083Y37667986D01*
X18623891Y37674122D01*
X18623568Y37674558D01*
X18623159Y37675627D01*
X18575540Y37770865D01*
X18571577Y37777160D01*
X18570819Y37778992D01*
X18569127Y37781054D01*
X18567708Y37783308D01*
X18566211Y37784607D01*
X18561491Y37790357D01*
X18466253Y37885595D01*
X18454888Y37894922D01*
X18452397Y37895954D01*
X18450362Y37897719D01*
X18436937Y37903713D01*
X18294080Y37951332D01*
X18286826Y37952982D01*
X18284995Y37953740D01*
X18282340Y37954002D01*
X18279743Y37954592D01*
X18277768Y37954452D01*
X18270363Y37955181D01*
X18175125Y37955181D01*
X18167718Y37954452D01*
X18165744Y37954592D01*
X18163146Y37954002D01*
X18160493Y37953740D01*
X18158662Y37952982D01*
X18151407Y37951332D01*
X18008551Y37903713D01*
X17995125Y37897719D01*
X17993088Y37895953D01*
X17990600Y37894922D01*
X17979235Y37885595D01*
X17931616Y37837976D01*
X17922289Y37826611D01*
X17911090Y37799574D01*
X16394519Y37799574D01*
X16385064Y37818484D01*
X16381099Y37824784D01*
X16380342Y37826611D01*
X16378653Y37828668D01*
X16377232Y37830927D01*
X16375733Y37832227D01*
X16371015Y37837976D01*
X16323396Y37885595D01*
X16317646Y37890314D01*
X16316347Y37891812D01*
X16314087Y37893234D01*
X16312031Y37894922D01*
X16310203Y37895680D01*
X16303904Y37899644D01*
X16208666Y37947263D01*
X16194934Y37952518D01*
X16192246Y37952709D01*
X16189757Y37953740D01*
X16175125Y37955181D01*
X15937030Y37955181D01*
X15929623Y37954452D01*
X15927649Y37954592D01*
X15925051Y37954002D01*
X15922398Y37953740D01*
X15920567Y37952982D01*
X15913312Y37951332D01*
X15770456Y37903713D01*
X15757030Y37897719D01*
X15734923Y37878545D01*
X15721837Y37852372D01*
X15719762Y37823182D01*
X15729016Y37795419D01*
X15748190Y37773312D01*
X15774363Y37760226D01*
X15803553Y37758151D01*
X15817890Y37761411D01*
X15949200Y37805181D01*
X16157420Y37805181D01*
X16225936Y37770923D01*
X16256343Y37740516D01*
X16290601Y37672000D01*
X16290601Y37612172D01*
X16256343Y37543656D01*
X16225936Y37513249D01*
X16148949Y37474756D01*
X15966459Y37429133D01*
X15965379Y37428748D01*
X15964839Y37428709D01*
X15958749Y37426379D01*
X15952613Y37424186D01*
X15952177Y37423864D01*
X15951108Y37423454D01*
X15855870Y37375835D01*
X15849570Y37371871D01*
X15847743Y37371113D01*
X15845686Y37369425D01*
X15843427Y37368003D01*
X15842127Y37366505D01*
X15836378Y37361786D01*
X15788759Y37314167D01*
X15784040Y37308418D01*
X15782542Y37307118D01*
X15781120Y37304859D01*
X15779432Y37302802D01*
X15778674Y37300975D01*
X15774710Y37294675D01*
X15727091Y37199437D01*
X15721836Y37185705D01*
X15721645Y37183018D01*
X15720614Y37180528D01*
X15719173Y37165896D01*
X15440601Y37165896D01*
X15440601Y37880181D01*
X15439160Y37894813D01*
X15427961Y37921849D01*
X15407269Y37942541D01*
X15380233Y37953740D01*
X15365601Y37955181D01*
X15127506Y37955181D01*
X15120099Y37954452D01*
X15118125Y37954592D01*
X15115527Y37954002D01*
X15112874Y37953740D01*
X15111043Y37952982D01*
X15103788Y37951332D01*
X14960932Y37903713D01*
X14947506Y37897719D01*
X14945471Y37895955D01*
X14942981Y37894923D01*
X14931616Y37885595D01*
X14836378Y37790357D01*
X14831659Y37784608D01*
X14830161Y37783308D01*
X14828739Y37781049D01*
X14827051Y37778992D01*
X14826293Y37777165D01*
X14822329Y37770865D01*
X14774710Y37675627D01*
X14774300Y37674558D01*
X14773978Y37674122D01*
X14771782Y37667977D01*
X14769455Y37661895D01*
X14769416Y37661356D01*
X14769031Y37660276D01*
X14721412Y37469800D01*
X14721036Y37467264D01*
X14720614Y37466242D01*
X14720071Y37460730D01*
X14719262Y37455256D01*
X14719424Y37454164D01*
X14719173Y37451610D01*
X14440601Y37451610D01*
X14440601Y37880181D01*
X14439160Y37894813D01*
X14427961Y37921849D01*
X14407269Y37942541D01*
X14380233Y37953740D01*
X14350969Y37953740D01*
X14323933Y37942541D01*
X14303241Y37921849D01*
X14292042Y37894813D01*
X14290601Y37880181D01*
X14179490Y37880181D01*
X14179490Y38066292D01*
X20741599Y38066292D01*
X20741599Y36694070D01*
G37*
G36*
X14749746Y17770923D02*
G01*
X14780153Y17740516D01*
X14818646Y17663529D01*
X14862030Y17489995D01*
X14862030Y17270368D01*
X14818646Y17096834D01*
X14780152Y17019847D01*
X14749745Y16989439D01*
X14681230Y16955181D01*
X14621402Y16955181D01*
X14552886Y16989439D01*
X14522479Y17019847D01*
X14483985Y17096834D01*
X14440602Y17270368D01*
X14440602Y17489995D01*
X14483985Y17663529D01*
X14522479Y17740516D01*
X14552886Y17770923D01*
X14621402Y17805181D01*
X14681230Y17805181D01*
X14749746Y17770923D01*
G37*
G36*
X15797365Y17770923D02*
G01*
X15869307Y17698981D01*
X15909649Y17537614D01*
X15909649Y17222749D01*
X15869307Y17061383D01*
X15797364Y16989439D01*
X15728849Y16955181D01*
X15573783Y16955181D01*
X15505267Y16989439D01*
X15433324Y17061383D01*
X15392983Y17222749D01*
X15392983Y17537614D01*
X15433324Y17698981D01*
X15505267Y17770923D01*
X15573783Y17805181D01*
X15728849Y17805181D01*
X15797365Y17770923D01*
G37*
G36*
X16599331Y16694070D02*
G01*
X14179491Y16694070D01*
X14179491Y17499229D01*
X14290602Y17499229D01*
X14290602Y17261134D01*
X14290853Y17258581D01*
X14290691Y17257488D01*
X14291500Y17252015D01*
X14292043Y17246502D01*
X14292465Y17245481D01*
X14292841Y17242944D01*
X14340460Y17052468D01*
X14340845Y17051389D01*
X14340884Y17050849D01*
X14343211Y17044768D01*
X14345407Y17038622D01*
X14345729Y17038187D01*
X14346139Y17037117D01*
X14393758Y16941879D01*
X14397721Y16935583D01*
X14398479Y16933753D01*
X14400168Y16931695D01*
X14401590Y16929436D01*
X14403088Y16928137D01*
X14407806Y16922388D01*
X14455425Y16874768D01*
X14461174Y16870050D01*
X14462475Y16868550D01*
X14464734Y16867128D01*
X14466791Y16865440D01*
X14468618Y16864683D01*
X14474918Y16860718D01*
X14570156Y16813099D01*
X14583887Y16807844D01*
X14586576Y16807653D01*
X14589065Y16806622D01*
X14603697Y16805181D01*
X14698935Y16805181D01*
X14713567Y16806622D01*
X14716056Y16807654D01*
X14718744Y16807844D01*
X14732476Y16813099D01*
X14827714Y16860718D01*
X14834013Y16864683D01*
X14835841Y16865440D01*
X14837897Y16867128D01*
X14840157Y16868550D01*
X14841457Y16870050D01*
X14847207Y16874768D01*
X14894825Y16922387D01*
X14899543Y16928137D01*
X14901042Y16929436D01*
X14902463Y16931695D01*
X14904153Y16933753D01*
X14904910Y16935583D01*
X14908874Y16941879D01*
X14956493Y17037117D01*
X14956902Y17038187D01*
X14957225Y17038622D01*
X14959417Y17044759D01*
X14961748Y17050848D01*
X14961786Y17051389D01*
X14962172Y17052468D01*
X15009791Y17242944D01*
X15010166Y17245481D01*
X15010589Y17246502D01*
X15011131Y17252015D01*
X15011941Y17257488D01*
X15011778Y17258581D01*
X15012030Y17261134D01*
X15012030Y17499229D01*
X15011778Y17501783D01*
X15011941Y17502875D01*
X15011131Y17508349D01*
X15010589Y17513861D01*
X15010166Y17514883D01*
X15009791Y17517419D01*
X15002434Y17546848D01*
X15242983Y17546848D01*
X15242983Y17213515D01*
X15243234Y17210962D01*
X15243072Y17209869D01*
X15243881Y17204396D01*
X15244424Y17198883D01*
X15244846Y17197862D01*
X15245222Y17195325D01*
X15292841Y17004849D01*
X15297788Y16991003D01*
X15301107Y16986524D01*
X15303241Y16981372D01*
X15312569Y16970006D01*
X15407807Y16874767D01*
X15413557Y16870047D01*
X15414856Y16868550D01*
X15417110Y16867131D01*
X15419172Y16865439D01*
X15421004Y16864681D01*
X15427299Y16860718D01*
X15522537Y16813099D01*
X15536268Y16807844D01*
X15538957Y16807653D01*
X15541446Y16806622D01*
X15556078Y16805181D01*
X15746554Y16805181D01*
X15761186Y16806622D01*
X15763675Y16807654D01*
X15766363Y16807844D01*
X15780095Y16813099D01*
X15875333Y16860718D01*
X15881632Y16864683D01*
X15883460Y16865440D01*
X15885516Y16867129D01*
X15887776Y16868550D01*
X15889075Y16870049D01*
X15894825Y16874767D01*
X15990064Y16970007D01*
X15999391Y16981372D01*
X16001524Y16986524D01*
X16004844Y16991003D01*
X16009791Y17004849D01*
X16057410Y17195325D01*
X16057785Y17197862D01*
X16058208Y17198883D01*
X16058750Y17204396D01*
X16059560Y17209869D01*
X16059397Y17210962D01*
X16059649Y17213515D01*
X16059649Y17546848D01*
X16059397Y17549402D01*
X16059560Y17550494D01*
X16058750Y17555968D01*
X16058208Y17561480D01*
X16057785Y17562502D01*
X16057410Y17565038D01*
X16009791Y17755514D01*
X16004844Y17769360D01*
X16001525Y17773839D01*
X15999391Y17778992D01*
X15990063Y17790357D01*
X15900239Y17880181D01*
X16338220Y17880181D01*
X16338220Y16880181D01*
X16339661Y16865549D01*
X16350860Y16838513D01*
X16371552Y16817821D01*
X16398588Y16806622D01*
X16427852Y16806622D01*
X16454888Y16817821D01*
X16475580Y16838513D01*
X16486779Y16865549D01*
X16488220Y16880181D01*
X16488220Y17880181D01*
X16486779Y17894813D01*
X16475580Y17921849D01*
X16454888Y17942541D01*
X16427852Y17953740D01*
X16398588Y17953740D01*
X16371552Y17942541D01*
X16350860Y17921849D01*
X16339661Y17894813D01*
X16338220Y17880181D01*
X15900239Y17880181D01*
X15894825Y17885595D01*
X15889075Y17890314D01*
X15887776Y17891812D01*
X15885516Y17893234D01*
X15883460Y17894922D01*
X15881632Y17895680D01*
X15875333Y17899644D01*
X15780095Y17947263D01*
X15766363Y17952518D01*
X15763675Y17952709D01*
X15761186Y17953740D01*
X15746554Y17955181D01*
X15556078Y17955181D01*
X15541446Y17953740D01*
X15538957Y17952710D01*
X15536268Y17952518D01*
X15522537Y17947263D01*
X15427299Y17899644D01*
X15421004Y17895682D01*
X15419172Y17894923D01*
X15417110Y17893232D01*
X15414856Y17891812D01*
X15413557Y17890316D01*
X15407807Y17885595D01*
X15312569Y17790357D01*
X15303242Y17778992D01*
X15301108Y17773842D01*
X15297788Y17769360D01*
X15292841Y17755514D01*
X15245222Y17565038D01*
X15244846Y17562502D01*
X15244424Y17561480D01*
X15243881Y17555968D01*
X15243072Y17550494D01*
X15243234Y17549402D01*
X15242983Y17546848D01*
X15002434Y17546848D01*
X14962172Y17707895D01*
X14961786Y17708975D01*
X14961748Y17709515D01*
X14959417Y17715605D01*
X14957225Y17721741D01*
X14956902Y17722177D01*
X14956493Y17723246D01*
X14908874Y17818484D01*
X14904909Y17824784D01*
X14904152Y17826611D01*
X14902463Y17828668D01*
X14901042Y17830927D01*
X14899543Y17832227D01*
X14894825Y17837976D01*
X14847206Y17885595D01*
X14841456Y17890314D01*
X14840157Y17891812D01*
X14837897Y17893234D01*
X14835841Y17894922D01*
X14834013Y17895680D01*
X14827714Y17899644D01*
X14732476Y17947263D01*
X14718744Y17952518D01*
X14716056Y17952709D01*
X14713567Y17953740D01*
X14698935Y17955181D01*
X14603697Y17955181D01*
X14589065Y17953740D01*
X14586576Y17952710D01*
X14583887Y17952518D01*
X14570156Y17947263D01*
X14474918Y17899644D01*
X14468618Y17895680D01*
X14466791Y17894922D01*
X14464734Y17893234D01*
X14462475Y17891812D01*
X14461175Y17890314D01*
X14455426Y17885595D01*
X14407807Y17837976D01*
X14403088Y17832227D01*
X14401590Y17830927D01*
X14400168Y17828668D01*
X14398480Y17826611D01*
X14397722Y17824784D01*
X14393758Y17818484D01*
X14346139Y17723246D01*
X14345729Y17722177D01*
X14345407Y17721741D01*
X14343211Y17715596D01*
X14340884Y17709514D01*
X14340845Y17708975D01*
X14340460Y17707895D01*
X14292841Y17517419D01*
X14292465Y17514883D01*
X14292043Y17513861D01*
X14291500Y17508349D01*
X14290691Y17502875D01*
X14290853Y17501783D01*
X14290602Y17499229D01*
X14179491Y17499229D01*
X14179491Y18066292D01*
X16599331Y18066292D01*
X16599331Y16694070D01*
G37*
G36*
X19481077Y31955181D02*
G01*
X19330152Y31955181D01*
X19215639Y31993352D01*
X19141526Y32067466D01*
X19103032Y32144453D01*
X19059649Y32317987D01*
X19059649Y32442376D01*
X19103032Y32615910D01*
X19141526Y32692897D01*
X19215639Y32767010D01*
X19330152Y32805181D01*
X19481077Y32805181D01*
X19481077Y31955181D01*
G37*
G36*
X20356782Y32240896D02*
G01*
X20088706Y32240896D01*
X20222744Y32643011D01*
X20356782Y32240896D01*
G37*
G36*
X20741599Y31694070D02*
G01*
X14608062Y31694070D01*
X14608062Y32165896D01*
X14719173Y32165896D01*
X14719173Y32070658D01*
X14720614Y32056026D01*
X14721645Y32053537D01*
X14721836Y32050849D01*
X14727091Y32037117D01*
X14774710Y31941879D01*
X14778673Y31935583D01*
X14779431Y31933753D01*
X14781120Y31931695D01*
X14782542Y31929436D01*
X14784040Y31928137D01*
X14788758Y31922388D01*
X14836377Y31874768D01*
X14842126Y31870050D01*
X14843427Y31868550D01*
X14845686Y31867128D01*
X14847743Y31865440D01*
X14849570Y31864683D01*
X14855870Y31860718D01*
X14951108Y31813099D01*
X14964839Y31807844D01*
X14967528Y31807653D01*
X14970017Y31806622D01*
X14984649Y31805181D01*
X15222744Y31805181D01*
X15230149Y31805911D01*
X15232124Y31805770D01*
X15234721Y31806361D01*
X15237376Y31806622D01*
X15239207Y31807381D01*
X15246461Y31809030D01*
X15389318Y31856649D01*
X15402743Y31862643D01*
X15424850Y31881817D01*
X15437937Y31907990D01*
X15440012Y31937180D01*
X15430758Y31964942D01*
X15411584Y31987050D01*
X15385410Y32000136D01*
X15356220Y32002211D01*
X15341883Y31998951D01*
X15210574Y31955181D01*
X15002354Y31955181D01*
X14933838Y31989439D01*
X14903431Y32019847D01*
X14869173Y32088363D01*
X14869173Y32148191D01*
X14903431Y32216707D01*
X14933838Y32247114D01*
X15010825Y32285608D01*
X15193315Y32331230D01*
X15194394Y32331616D01*
X15194934Y32331654D01*
X15201015Y32333982D01*
X15207161Y32336177D01*
X15207596Y32336500D01*
X15208666Y32336909D01*
X15303904Y32384528D01*
X15310203Y32388493D01*
X15312031Y32389250D01*
X15314087Y32390939D01*
X15316347Y32392360D01*
X15317646Y32393859D01*
X15323396Y32398577D01*
X15371015Y32446196D01*
X15375733Y32451946D01*
X15377232Y32453245D01*
X15378653Y32455505D01*
X15380342Y32457561D01*
X15381099Y32459389D01*
X15385064Y32465688D01*
X15432683Y32560926D01*
X15437938Y32574657D01*
X15438129Y32577347D01*
X15439160Y32579835D01*
X15440601Y32594467D01*
X15440601Y32689705D01*
X15439160Y32704337D01*
X15438129Y32706826D01*
X15437938Y32709515D01*
X15432683Y32723246D01*
X15394519Y32799574D01*
X15672995Y32799574D01*
X15672995Y32770312D01*
X15684194Y32743275D01*
X15704886Y32722583D01*
X15731923Y32711384D01*
X15761185Y32711384D01*
X15788222Y32722583D01*
X15799587Y32731910D01*
X15834687Y32767010D01*
X15949200Y32805181D01*
X16020098Y32805181D01*
X16134611Y32767010D01*
X16208724Y32692897D01*
X16247217Y32615910D01*
X16290601Y32442376D01*
X16290601Y32317987D01*
X16247217Y32144453D01*
X16208723Y32067466D01*
X16134611Y31993353D01*
X16020098Y31955181D01*
X15949200Y31955181D01*
X15834687Y31993352D01*
X15799588Y32028452D01*
X15788222Y32037780D01*
X15761186Y32048979D01*
X15731923Y32048979D01*
X15704887Y32037781D01*
X15684194Y32017088D01*
X15672995Y31990052D01*
X15672995Y31960789D01*
X15684193Y31933753D01*
X15693520Y31922388D01*
X15741139Y31874768D01*
X15752505Y31865440D01*
X15754993Y31864410D01*
X15757030Y31862643D01*
X15770456Y31856649D01*
X15913312Y31809030D01*
X15920567Y31807381D01*
X15922398Y31806622D01*
X15925051Y31806361D01*
X15927649Y31805770D01*
X15929623Y31805911D01*
X15937030Y31805181D01*
X16032268Y31805181D01*
X16039673Y31805911D01*
X16041648Y31805770D01*
X16044245Y31806361D01*
X16046900Y31806622D01*
X16048731Y31807381D01*
X16055985Y31809030D01*
X16198842Y31856649D01*
X16212267Y31862643D01*
X16214302Y31864409D01*
X16216793Y31865440D01*
X16228158Y31874767D01*
X16323397Y31970007D01*
X16328114Y31975756D01*
X16329613Y31977055D01*
X16331034Y31979314D01*
X16332724Y31981372D01*
X16333481Y31983202D01*
X16337445Y31989498D01*
X16385064Y32084736D01*
X16385473Y32085806D01*
X16385796Y32086241D01*
X16387988Y32092378D01*
X16390319Y32098467D01*
X16390357Y32099008D01*
X16390743Y32100087D01*
X16434663Y32275766D01*
X16720614Y32275766D01*
X16720614Y32246502D01*
X16731813Y32219466D01*
X16752505Y32198774D01*
X16779541Y32187575D01*
X16794173Y32186134D01*
X17556077Y32186134D01*
X17570709Y32187575D01*
X17597745Y32198774D01*
X17618437Y32219466D01*
X17629636Y32246502D01*
X17629636Y32275766D01*
X17618437Y32302802D01*
X17597745Y32323494D01*
X17570709Y32334693D01*
X17556077Y32336134D01*
X16794173Y32336134D01*
X16779541Y32334693D01*
X16752505Y32323494D01*
X16731813Y32302802D01*
X16720614Y32275766D01*
X16434663Y32275766D01*
X16438362Y32290563D01*
X16438737Y32293100D01*
X16439160Y32294121D01*
X16439702Y32299634D01*
X16440512Y32305107D01*
X16440349Y32306200D01*
X16440601Y32308753D01*
X16440601Y32451610D01*
X16440349Y32454164D01*
X16440512Y32455256D01*
X16439702Y32460730D01*
X16439160Y32466242D01*
X16438737Y32467264D01*
X16438362Y32469800D01*
X16390743Y32660276D01*
X16390357Y32661356D01*
X16390319Y32661896D01*
X16387988Y32667986D01*
X16385796Y32674122D01*
X16385473Y32674558D01*
X16385064Y32675627D01*
X16337445Y32770865D01*
X16333482Y32777160D01*
X16332724Y32778992D01*
X16331032Y32781054D01*
X16329613Y32783308D01*
X16328116Y32784607D01*
X16323396Y32790357D01*
X16314179Y32799574D01*
X17911090Y32799574D01*
X17911090Y32770312D01*
X17922289Y32743275D01*
X17942981Y32722583D01*
X17970018Y32711384D01*
X17999280Y32711384D01*
X18026317Y32722583D01*
X18037682Y32731910D01*
X18072782Y32767010D01*
X18187295Y32805181D01*
X18258193Y32805181D01*
X18372706Y32767010D01*
X18446819Y32692897D01*
X18485312Y32615910D01*
X18528696Y32442376D01*
X18528696Y32317987D01*
X18485312Y32144453D01*
X18446818Y32067466D01*
X18372706Y31993353D01*
X18258193Y31955181D01*
X18187295Y31955181D01*
X18072782Y31993352D01*
X18037683Y32028452D01*
X18026317Y32037780D01*
X17999281Y32048979D01*
X17970018Y32048979D01*
X17942982Y32037781D01*
X17922289Y32017088D01*
X17911090Y31990052D01*
X17911090Y31960789D01*
X17922288Y31933753D01*
X17931615Y31922388D01*
X17979234Y31874768D01*
X17990600Y31865440D01*
X17993088Y31864410D01*
X17995125Y31862643D01*
X18008551Y31856649D01*
X18151407Y31809030D01*
X18158662Y31807381D01*
X18160493Y31806622D01*
X18163146Y31806361D01*
X18165744Y31805770D01*
X18167718Y31805911D01*
X18175125Y31805181D01*
X18270363Y31805181D01*
X18277768Y31805911D01*
X18279743Y31805770D01*
X18282340Y31806361D01*
X18284995Y31806622D01*
X18286826Y31807381D01*
X18294080Y31809030D01*
X18436937Y31856649D01*
X18450362Y31862643D01*
X18452397Y31864409D01*
X18454888Y31865440D01*
X18466253Y31874767D01*
X18561492Y31970007D01*
X18566209Y31975756D01*
X18567708Y31977055D01*
X18569129Y31979314D01*
X18570819Y31981372D01*
X18571576Y31983202D01*
X18575540Y31989498D01*
X18623159Y32084736D01*
X18623568Y32085806D01*
X18623891Y32086241D01*
X18626083Y32092378D01*
X18628414Y32098467D01*
X18628452Y32099008D01*
X18628838Y32100087D01*
X18676457Y32290563D01*
X18676832Y32293100D01*
X18677255Y32294121D01*
X18677797Y32299634D01*
X18678607Y32305107D01*
X18678444Y32306200D01*
X18678696Y32308753D01*
X18678696Y32451610D01*
X18909649Y32451610D01*
X18909649Y32308753D01*
X18909900Y32306200D01*
X18909738Y32305107D01*
X18910547Y32299634D01*
X18911090Y32294121D01*
X18911512Y32293100D01*
X18911888Y32290563D01*
X18959507Y32100087D01*
X18959892Y32099008D01*
X18959931Y32098468D01*
X18962258Y32092387D01*
X18964454Y32086241D01*
X18964776Y32085806D01*
X18965186Y32084736D01*
X19012805Y31989498D01*
X19016768Y31983202D01*
X19017526Y31981372D01*
X19019215Y31979314D01*
X19020637Y31977055D01*
X19022135Y31975756D01*
X19026854Y31970006D01*
X19122092Y31874767D01*
X19133457Y31865439D01*
X19135947Y31864408D01*
X19137982Y31862643D01*
X19151408Y31856649D01*
X19294264Y31809030D01*
X19301519Y31807381D01*
X19303350Y31806622D01*
X19306003Y31806361D01*
X19308601Y31805770D01*
X19310575Y31805911D01*
X19317982Y31805181D01*
X19556077Y31805181D01*
X19570709Y31806622D01*
X19597745Y31817821D01*
X19618437Y31838513D01*
X19629636Y31865549D01*
X19631077Y31880181D01*
X19631077Y31889561D01*
X19815000Y31889561D01*
X19817075Y31860371D01*
X19830161Y31834198D01*
X19852268Y31815024D01*
X19880031Y31805770D01*
X19909221Y31807845D01*
X19935394Y31820931D01*
X19954568Y31843038D01*
X19960562Y31856464D01*
X20038706Y32090896D01*
X20406782Y32090896D01*
X20484926Y31856464D01*
X20490920Y31843039D01*
X20510094Y31820932D01*
X20536267Y31807845D01*
X20565457Y31805770D01*
X20593219Y31815024D01*
X20615327Y31834198D01*
X20628413Y31860372D01*
X20630488Y31889562D01*
X20627228Y31903898D01*
X20293895Y32903898D01*
X20287901Y32917324D01*
X20284389Y32921373D01*
X20281994Y32926164D01*
X20274890Y32932326D01*
X20268727Y32939431D01*
X20263933Y32941828D01*
X20259886Y32945338D01*
X20250964Y32948312D01*
X20242554Y32952517D01*
X20237209Y32952897D01*
X20232124Y32954592D01*
X20222744Y32953926D01*
X20213364Y32954592D01*
X20208278Y32952897D01*
X20202934Y32952517D01*
X20194526Y32948313D01*
X20185601Y32945338D01*
X20181550Y32941825D01*
X20176761Y32939430D01*
X20170602Y32932330D01*
X20163494Y32926164D01*
X20161097Y32921371D01*
X20157587Y32917323D01*
X20151593Y32903898D01*
X19818260Y31903898D01*
X19815000Y31889561D01*
X19631077Y31889561D01*
X19631077Y32880181D01*
X19629636Y32894813D01*
X19618437Y32921849D01*
X19597745Y32942541D01*
X19570709Y32953740D01*
X19556077Y32955181D01*
X19317982Y32955181D01*
X19310575Y32954452D01*
X19308601Y32954592D01*
X19306003Y32954002D01*
X19303350Y32953740D01*
X19301519Y32952982D01*
X19294264Y32951332D01*
X19151408Y32903713D01*
X19137982Y32897719D01*
X19135947Y32895955D01*
X19133457Y32894923D01*
X19122092Y32885595D01*
X19026854Y32790357D01*
X19022135Y32784608D01*
X19020637Y32783308D01*
X19019215Y32781049D01*
X19017527Y32778992D01*
X19016769Y32777165D01*
X19012805Y32770865D01*
X18965186Y32675627D01*
X18964776Y32674558D01*
X18964454Y32674122D01*
X18962258Y32667977D01*
X18959931Y32661895D01*
X18959892Y32661356D01*
X18959507Y32660276D01*
X18911888Y32469800D01*
X18911512Y32467264D01*
X18911090Y32466242D01*
X18910547Y32460730D01*
X18909738Y32455256D01*
X18909900Y32454164D01*
X18909649Y32451610D01*
X18678696Y32451610D01*
X18678444Y32454164D01*
X18678607Y32455256D01*
X18677797Y32460730D01*
X18677255Y32466242D01*
X18676832Y32467264D01*
X18676457Y32469800D01*
X18628838Y32660276D01*
X18628452Y32661356D01*
X18628414Y32661896D01*
X18626083Y32667986D01*
X18623891Y32674122D01*
X18623568Y32674558D01*
X18623159Y32675627D01*
X18575540Y32770865D01*
X18571577Y32777160D01*
X18570819Y32778992D01*
X18569127Y32781054D01*
X18567708Y32783308D01*
X18566211Y32784607D01*
X18561491Y32790357D01*
X18466253Y32885595D01*
X18454888Y32894922D01*
X18452397Y32895954D01*
X18450362Y32897719D01*
X18436937Y32903713D01*
X18294080Y32951332D01*
X18286826Y32952982D01*
X18284995Y32953740D01*
X18282340Y32954002D01*
X18279743Y32954592D01*
X18277768Y32954452D01*
X18270363Y32955181D01*
X18175125Y32955181D01*
X18167718Y32954452D01*
X18165744Y32954592D01*
X18163146Y32954002D01*
X18160493Y32953740D01*
X18158662Y32952982D01*
X18151407Y32951332D01*
X18008551Y32903713D01*
X17995125Y32897719D01*
X17993088Y32895953D01*
X17990600Y32894922D01*
X17979235Y32885595D01*
X17931616Y32837976D01*
X17922289Y32826611D01*
X17911090Y32799574D01*
X16314179Y32799574D01*
X16228158Y32885595D01*
X16216793Y32894922D01*
X16214302Y32895954D01*
X16212267Y32897719D01*
X16198842Y32903713D01*
X16055985Y32951332D01*
X16048731Y32952982D01*
X16046900Y32953740D01*
X16044245Y32954002D01*
X16041648Y32954592D01*
X16039673Y32954452D01*
X16032268Y32955181D01*
X15937030Y32955181D01*
X15929623Y32954452D01*
X15927649Y32954592D01*
X15925051Y32954002D01*
X15922398Y32953740D01*
X15920567Y32952982D01*
X15913312Y32951332D01*
X15770456Y32903713D01*
X15757030Y32897719D01*
X15754993Y32895953D01*
X15752505Y32894922D01*
X15741140Y32885595D01*
X15693521Y32837976D01*
X15684194Y32826611D01*
X15672995Y32799574D01*
X15394519Y32799574D01*
X15385064Y32818484D01*
X15381099Y32824784D01*
X15380342Y32826611D01*
X15378653Y32828668D01*
X15377232Y32830927D01*
X15375733Y32832227D01*
X15371015Y32837976D01*
X15323396Y32885595D01*
X15317646Y32890314D01*
X15316347Y32891812D01*
X15314087Y32893234D01*
X15312031Y32894922D01*
X15310203Y32895680D01*
X15303904Y32899644D01*
X15208666Y32947263D01*
X15194934Y32952518D01*
X15192246Y32952709D01*
X15189757Y32953740D01*
X15175125Y32955181D01*
X14937030Y32955181D01*
X14929623Y32954452D01*
X14927649Y32954592D01*
X14925051Y32954002D01*
X14922398Y32953740D01*
X14920567Y32952982D01*
X14913312Y32951332D01*
X14770456Y32903713D01*
X14757030Y32897719D01*
X14734923Y32878545D01*
X14721837Y32852372D01*
X14719762Y32823182D01*
X14729016Y32795419D01*
X14748190Y32773312D01*
X14774363Y32760226D01*
X14803553Y32758151D01*
X14817890Y32761411D01*
X14949200Y32805181D01*
X15157420Y32805181D01*
X15225936Y32770923D01*
X15256343Y32740516D01*
X15290601Y32672000D01*
X15290601Y32612172D01*
X15256343Y32543656D01*
X15225936Y32513249D01*
X15148949Y32474756D01*
X14966459Y32429133D01*
X14965379Y32428748D01*
X14964839Y32428709D01*
X14958749Y32426379D01*
X14952613Y32424186D01*
X14952177Y32423864D01*
X14951108Y32423454D01*
X14855870Y32375835D01*
X14849570Y32371871D01*
X14847743Y32371113D01*
X14845686Y32369425D01*
X14843427Y32368003D01*
X14842127Y32366505D01*
X14836378Y32361786D01*
X14788759Y32314167D01*
X14784040Y32308418D01*
X14782542Y32307118D01*
X14781120Y32304859D01*
X14779432Y32302802D01*
X14778674Y32300975D01*
X14774710Y32294675D01*
X14727091Y32199437D01*
X14721836Y32185705D01*
X14721645Y32183018D01*
X14720614Y32180528D01*
X14719173Y32165896D01*
X14608062Y32165896D01*
X14608062Y33066292D01*
X20741599Y33066292D01*
X20741599Y31694070D01*
G37*
G36*
X15797365Y10020923D02*
G01*
X15869307Y9948981D01*
X15909649Y9787614D01*
X15909649Y9472749D01*
X15869307Y9311383D01*
X15797364Y9239439D01*
X15728849Y9205181D01*
X15573783Y9205181D01*
X15505267Y9239439D01*
X15433324Y9311383D01*
X15392983Y9472749D01*
X15392983Y9787614D01*
X15433324Y9948981D01*
X15505267Y10020923D01*
X15573783Y10055181D01*
X15728849Y10055181D01*
X15797365Y10020923D01*
G37*
G36*
X16599331Y8944070D02*
G01*
X14179491Y8944070D01*
X14179491Y9558753D01*
X14290602Y9558753D01*
X14290602Y9320658D01*
X14292043Y9306026D01*
X14293074Y9303537D01*
X14293265Y9300849D01*
X14298520Y9287117D01*
X14346139Y9191879D01*
X14350102Y9185583D01*
X14350860Y9183753D01*
X14352549Y9181695D01*
X14353971Y9179436D01*
X14355469Y9178137D01*
X14360187Y9172388D01*
X14407806Y9124768D01*
X14413555Y9120050D01*
X14414856Y9118550D01*
X14417115Y9117128D01*
X14419172Y9115440D01*
X14420999Y9114683D01*
X14427299Y9110718D01*
X14522537Y9063099D01*
X14536268Y9057844D01*
X14538957Y9057653D01*
X14541446Y9056622D01*
X14556078Y9055181D01*
X14841792Y9055181D01*
X14856424Y9056622D01*
X14858913Y9057654D01*
X14861601Y9057844D01*
X14875333Y9063099D01*
X14970571Y9110718D01*
X14976870Y9114683D01*
X14978698Y9115440D01*
X14980754Y9117128D01*
X14983014Y9118550D01*
X14984314Y9120050D01*
X14990064Y9124768D01*
X15037682Y9172387D01*
X15047010Y9183753D01*
X15058208Y9210789D01*
X15058208Y9240052D01*
X15047009Y9267088D01*
X15026316Y9287781D01*
X14999280Y9298979D01*
X14970017Y9298979D01*
X14942981Y9287780D01*
X14931615Y9278452D01*
X14892602Y9239439D01*
X14824087Y9205181D01*
X14573783Y9205181D01*
X14505267Y9239439D01*
X14474860Y9269847D01*
X14440602Y9338363D01*
X14440602Y9541048D01*
X14474860Y9609564D01*
X14505267Y9639971D01*
X14573783Y9674229D01*
X14698935Y9674229D01*
X14706673Y9674992D01*
X14708641Y9674860D01*
X14709996Y9675319D01*
X14713567Y9675670D01*
X14724824Y9680334D01*
X14736362Y9684235D01*
X14738266Y9685901D01*
X14740603Y9686869D01*
X14749213Y9695480D01*
X14758386Y9703505D01*
X14759508Y9705775D01*
X14761295Y9707561D01*
X14765955Y9718812D01*
X14771358Y9729737D01*
X14771526Y9732261D01*
X14772494Y9734597D01*
X14772494Y9746782D01*
X14773304Y9758935D01*
X14772494Y9761331D01*
X14772494Y9763861D01*
X14767830Y9775119D01*
X14763929Y9786656D01*
X14761843Y9789574D01*
X14761295Y9790897D01*
X14759899Y9792293D01*
X14756643Y9796848D01*
X15242983Y9796848D01*
X15242983Y9463515D01*
X15243234Y9460962D01*
X15243072Y9459869D01*
X15243881Y9454396D01*
X15244424Y9448883D01*
X15244846Y9447862D01*
X15245222Y9445325D01*
X15292841Y9254849D01*
X15297788Y9241003D01*
X15301107Y9236524D01*
X15303241Y9231372D01*
X15312569Y9220006D01*
X15407807Y9124767D01*
X15413557Y9120047D01*
X15414856Y9118550D01*
X15417110Y9117131D01*
X15419172Y9115439D01*
X15421004Y9114681D01*
X15427299Y9110718D01*
X15522537Y9063099D01*
X15536268Y9057844D01*
X15538957Y9057653D01*
X15541446Y9056622D01*
X15556078Y9055181D01*
X15746554Y9055181D01*
X15761186Y9056622D01*
X15763675Y9057654D01*
X15766363Y9057844D01*
X15780095Y9063099D01*
X15875333Y9110718D01*
X15881632Y9114683D01*
X15883460Y9115440D01*
X15885516Y9117129D01*
X15887776Y9118550D01*
X15889075Y9120049D01*
X15894825Y9124767D01*
X15990064Y9220007D01*
X15999391Y9231372D01*
X16001524Y9236524D01*
X16004844Y9241003D01*
X16009791Y9254849D01*
X16057410Y9445325D01*
X16057785Y9447862D01*
X16058208Y9448883D01*
X16058750Y9454396D01*
X16059560Y9459869D01*
X16059397Y9460962D01*
X16059649Y9463515D01*
X16059649Y9796848D01*
X16059397Y9799402D01*
X16059560Y9800494D01*
X16058750Y9805968D01*
X16058208Y9811480D01*
X16057785Y9812502D01*
X16057410Y9815038D01*
X16009791Y10005514D01*
X16004844Y10019360D01*
X16001525Y10023839D01*
X15999391Y10028992D01*
X15990063Y10040357D01*
X15900239Y10130181D01*
X16338220Y10130181D01*
X16338220Y9130181D01*
X16339661Y9115549D01*
X16350860Y9088513D01*
X16371552Y9067821D01*
X16398588Y9056622D01*
X16427852Y9056622D01*
X16454888Y9067821D01*
X16475580Y9088513D01*
X16486779Y9115549D01*
X16488220Y9130181D01*
X16488220Y10130181D01*
X16486779Y10144813D01*
X16475580Y10171849D01*
X16454888Y10192541D01*
X16427852Y10203740D01*
X16398588Y10203740D01*
X16371552Y10192541D01*
X16350860Y10171849D01*
X16339661Y10144813D01*
X16338220Y10130181D01*
X15900239Y10130181D01*
X15894825Y10135595D01*
X15889075Y10140314D01*
X15887776Y10141812D01*
X15885516Y10143234D01*
X15883460Y10144922D01*
X15881632Y10145680D01*
X15875333Y10149644D01*
X15780095Y10197263D01*
X15766363Y10202518D01*
X15763675Y10202709D01*
X15761186Y10203740D01*
X15746554Y10205181D01*
X15556078Y10205181D01*
X15541446Y10203740D01*
X15538957Y10202710D01*
X15536268Y10202518D01*
X15522537Y10197263D01*
X15427299Y10149644D01*
X15421004Y10145682D01*
X15419172Y10144923D01*
X15417110Y10143232D01*
X15414856Y10141812D01*
X15413557Y10140316D01*
X15407807Y10135595D01*
X15312569Y10040357D01*
X15303242Y10028992D01*
X15301108Y10023842D01*
X15297788Y10019360D01*
X15292841Y10005514D01*
X15245222Y9815038D01*
X15244846Y9812502D01*
X15244424Y9811480D01*
X15243881Y9805968D01*
X15243072Y9800494D01*
X15243234Y9799402D01*
X15242983Y9796848D01*
X14756643Y9796848D01*
X14755378Y9798617D01*
X14530884Y10055181D01*
X14984649Y10055181D01*
X14999281Y10056622D01*
X15026317Y10067821D01*
X15047009Y10088513D01*
X15058208Y10115549D01*
X15058208Y10144813D01*
X15047009Y10171849D01*
X15026317Y10192541D01*
X14999281Y10203740D01*
X14984649Y10205181D01*
X14365602Y10205181D01*
X14357863Y10204419D01*
X14355896Y10204550D01*
X14354540Y10204092D01*
X14350970Y10203740D01*
X14339712Y10199077D01*
X14328175Y10195175D01*
X14326270Y10193510D01*
X14323934Y10192541D01*
X14315323Y10183931D01*
X14306151Y10175905D01*
X14305028Y10173636D01*
X14303242Y10171849D01*
X14298581Y10160599D01*
X14293179Y10149673D01*
X14293010Y10147150D01*
X14292043Y10144813D01*
X14292043Y10132629D01*
X14291233Y10120475D01*
X14292043Y10118080D01*
X14292043Y10115549D01*
X14296706Y10104292D01*
X14300608Y10092754D01*
X14302693Y10089837D01*
X14303242Y10088513D01*
X14304637Y10087118D01*
X14309159Y10080793D01*
X14536054Y9821485D01*
X14522537Y9816311D01*
X14427299Y9768692D01*
X14420999Y9764728D01*
X14419172Y9763970D01*
X14417115Y9762282D01*
X14414856Y9760860D01*
X14413556Y9759362D01*
X14407807Y9754643D01*
X14360188Y9707024D01*
X14355469Y9701275D01*
X14353971Y9699975D01*
X14352549Y9697716D01*
X14350861Y9695659D01*
X14350103Y9693832D01*
X14346139Y9687532D01*
X14298520Y9592294D01*
X14293265Y9578562D01*
X14293074Y9575875D01*
X14292043Y9573385D01*
X14290602Y9558753D01*
X14179491Y9558753D01*
X14179491Y10316292D01*
X16599331Y10316292D01*
X16599331Y8944070D01*
G37*
G36*
X6040601Y19205181D02*
G01*
X5889676Y19205181D01*
X5775163Y19243352D01*
X5701050Y19317466D01*
X5662556Y19394453D01*
X5619173Y19567987D01*
X5619173Y19692376D01*
X5662556Y19865910D01*
X5701050Y19942897D01*
X5775163Y20017010D01*
X5889676Y20055181D01*
X6040601Y20055181D01*
X6040601Y19205181D01*
G37*
G36*
X8396950Y18944070D02*
G01*
X5358062Y18944070D01*
X5358062Y19701610D01*
X5469173Y19701610D01*
X5469173Y19558753D01*
X5469424Y19556200D01*
X5469262Y19555107D01*
X5470071Y19549634D01*
X5470614Y19544121D01*
X5471036Y19543100D01*
X5471412Y19540563D01*
X5519031Y19350087D01*
X5519416Y19349008D01*
X5519455Y19348468D01*
X5521782Y19342387D01*
X5523978Y19336241D01*
X5524300Y19335806D01*
X5524710Y19334736D01*
X5572329Y19239498D01*
X5576292Y19233202D01*
X5577050Y19231372D01*
X5578739Y19229314D01*
X5580161Y19227055D01*
X5581659Y19225756D01*
X5586378Y19220006D01*
X5681616Y19124767D01*
X5692981Y19115439D01*
X5695471Y19114408D01*
X5697506Y19112643D01*
X5710932Y19106649D01*
X5853788Y19059030D01*
X5861043Y19057381D01*
X5862874Y19056622D01*
X5865527Y19056361D01*
X5868125Y19055770D01*
X5870099Y19055911D01*
X5877506Y19055181D01*
X6115601Y19055181D01*
X6130233Y19056622D01*
X6157269Y19067821D01*
X6177961Y19088513D01*
X6189160Y19115549D01*
X6190601Y19130181D01*
X6190601Y20130181D01*
X6516792Y20130181D01*
X6516792Y19130181D01*
X6517162Y19126418D01*
X6516975Y19124942D01*
X6517496Y19123032D01*
X6518233Y19115549D01*
X6522050Y19106334D01*
X6524675Y19096710D01*
X6527602Y19092930D01*
X6529432Y19088513D01*
X6536482Y19081463D01*
X6542592Y19073573D01*
X6546745Y19071200D01*
X6550124Y19067821D01*
X6559336Y19064005D01*
X6568001Y19059054D01*
X6572744Y19058452D01*
X6577160Y19056622D01*
X6587134Y19056622D01*
X6597031Y19055364D01*
X6601643Y19056622D01*
X6606424Y19056622D01*
X6615639Y19060440D01*
X6625263Y19063064D01*
X6629043Y19065992D01*
X6633460Y19067821D01*
X6640510Y19074872D01*
X6648400Y19080981D01*
X6652752Y19087114D01*
X6654152Y19088513D01*
X6654721Y19089888D01*
X6656910Y19092971D01*
X7088220Y19847765D01*
X7088220Y19130181D01*
X7089661Y19115549D01*
X7100860Y19088513D01*
X7121552Y19067821D01*
X7148588Y19056622D01*
X7177852Y19056622D01*
X7204888Y19067821D01*
X7225580Y19088513D01*
X7236779Y19115549D01*
X7238220Y19130181D01*
X7238220Y19558753D01*
X7516792Y19558753D01*
X7516792Y19225420D01*
X7518233Y19210788D01*
X7522150Y19201332D01*
X7529431Y19183753D01*
X7538758Y19172388D01*
X7586377Y19124768D01*
X7597743Y19115440D01*
X7600231Y19114410D01*
X7602268Y19112643D01*
X7615694Y19106649D01*
X7758550Y19059030D01*
X7765805Y19057381D01*
X7767636Y19056622D01*
X7770289Y19056361D01*
X7772887Y19055770D01*
X7774861Y19055911D01*
X7782268Y19055181D01*
X7877506Y19055181D01*
X7884911Y19055911D01*
X7886886Y19055770D01*
X7889483Y19056361D01*
X7892138Y19056622D01*
X7893969Y19057381D01*
X7901223Y19059030D01*
X8044080Y19106649D01*
X8057505Y19112643D01*
X8059540Y19114409D01*
X8062031Y19115440D01*
X8073396Y19124767D01*
X8168635Y19220007D01*
X8173352Y19225756D01*
X8174851Y19227055D01*
X8176272Y19229314D01*
X8177962Y19231372D01*
X8178719Y19233202D01*
X8182683Y19239498D01*
X8230302Y19334736D01*
X8230711Y19335806D01*
X8231034Y19336241D01*
X8233226Y19342378D01*
X8235557Y19348467D01*
X8235595Y19349008D01*
X8235981Y19350087D01*
X8283600Y19540563D01*
X8283975Y19543100D01*
X8284398Y19544121D01*
X8284940Y19549634D01*
X8285750Y19555107D01*
X8285587Y19556200D01*
X8285839Y19558753D01*
X8285839Y19701610D01*
X8285587Y19704164D01*
X8285750Y19705256D01*
X8284940Y19710730D01*
X8284398Y19716242D01*
X8283975Y19717264D01*
X8283600Y19719800D01*
X8235981Y19910276D01*
X8235595Y19911356D01*
X8235557Y19911896D01*
X8233226Y19917986D01*
X8231034Y19924122D01*
X8230711Y19924558D01*
X8230302Y19925627D01*
X8182683Y20020865D01*
X8178720Y20027160D01*
X8177962Y20028992D01*
X8176270Y20031054D01*
X8174851Y20033308D01*
X8173354Y20034607D01*
X8168634Y20040357D01*
X8073396Y20135595D01*
X8062031Y20144922D01*
X8059540Y20145954D01*
X8057505Y20147719D01*
X8044080Y20153713D01*
X7901223Y20201332D01*
X7893969Y20202982D01*
X7892138Y20203740D01*
X7889483Y20204002D01*
X7886886Y20204592D01*
X7884911Y20204452D01*
X7877506Y20205181D01*
X7734649Y20205181D01*
X7720017Y20203740D01*
X7717528Y20202710D01*
X7714839Y20202518D01*
X7701108Y20197263D01*
X7605870Y20149644D01*
X7593427Y20141812D01*
X7574254Y20119704D01*
X7565000Y20091943D01*
X7567074Y20062753D01*
X7580161Y20036578D01*
X7602269Y20017405D01*
X7630030Y20008151D01*
X7659220Y20010225D01*
X7672952Y20015480D01*
X7752354Y20055181D01*
X7865336Y20055181D01*
X7979849Y20017010D01*
X8053962Y19942897D01*
X8092455Y19865910D01*
X8135839Y19692376D01*
X8135839Y19567987D01*
X8092455Y19394453D01*
X8053961Y19317466D01*
X7979849Y19243353D01*
X7865336Y19205181D01*
X7794438Y19205181D01*
X7679925Y19243352D01*
X7666792Y19256486D01*
X7666792Y19483753D01*
X7782268Y19483753D01*
X7796900Y19485194D01*
X7823936Y19496393D01*
X7844628Y19517085D01*
X7855827Y19544121D01*
X7855827Y19573385D01*
X7844628Y19600421D01*
X7823936Y19621113D01*
X7796900Y19632312D01*
X7782268Y19633753D01*
X7591792Y19633753D01*
X7577160Y19632312D01*
X7550124Y19621113D01*
X7529432Y19600421D01*
X7518233Y19573385D01*
X7516792Y19558753D01*
X7238220Y19558753D01*
X7238220Y20130181D01*
X7237849Y20133945D01*
X7238037Y20135420D01*
X7237515Y20137331D01*
X7236779Y20144813D01*
X7232961Y20154029D01*
X7230337Y20163652D01*
X7227409Y20167433D01*
X7225580Y20171849D01*
X7218529Y20178900D01*
X7212420Y20186789D01*
X7208266Y20189163D01*
X7204888Y20192541D01*
X7195675Y20196358D01*
X7187011Y20201308D01*
X7182267Y20201911D01*
X7177852Y20203740D01*
X7167878Y20203740D01*
X7157981Y20204998D01*
X7153369Y20203740D01*
X7148588Y20203740D01*
X7139371Y20199923D01*
X7129750Y20197298D01*
X7125970Y20194372D01*
X7121552Y20192541D01*
X7114500Y20185490D01*
X7106612Y20179381D01*
X7102257Y20173247D01*
X7100860Y20171849D01*
X7100291Y20170477D01*
X7098102Y20167392D01*
X6666792Y19412598D01*
X6666792Y20130181D01*
X6665351Y20144813D01*
X6654152Y20171849D01*
X6633460Y20192541D01*
X6606424Y20203740D01*
X6577160Y20203740D01*
X6550124Y20192541D01*
X6529432Y20171849D01*
X6518233Y20144813D01*
X6516792Y20130181D01*
X6190601Y20130181D01*
X6189160Y20144813D01*
X6177961Y20171849D01*
X6157269Y20192541D01*
X6130233Y20203740D01*
X6115601Y20205181D01*
X5877506Y20205181D01*
X5870099Y20204452D01*
X5868125Y20204592D01*
X5865527Y20204002D01*
X5862874Y20203740D01*
X5861043Y20202982D01*
X5853788Y20201332D01*
X5710932Y20153713D01*
X5697506Y20147719D01*
X5695471Y20145955D01*
X5692981Y20144923D01*
X5681616Y20135595D01*
X5586378Y20040357D01*
X5581659Y20034608D01*
X5580161Y20033308D01*
X5578739Y20031049D01*
X5577051Y20028992D01*
X5576293Y20027165D01*
X5572329Y20020865D01*
X5524710Y19925627D01*
X5524300Y19924558D01*
X5523978Y19924122D01*
X5521782Y19917977D01*
X5519455Y19911895D01*
X5519416Y19911356D01*
X5519031Y19910276D01*
X5471412Y19719800D01*
X5471036Y19717264D01*
X5470614Y19716242D01*
X5470071Y19710730D01*
X5469262Y19705256D01*
X5469424Y19704164D01*
X5469173Y19701610D01*
X5358062Y19701610D01*
X5358062Y20316292D01*
X8396950Y20316292D01*
X8396950Y18944070D01*
G37*
G36*
X8896950Y11194070D02*
G01*
X6096268Y11194070D01*
X6096268Y11384263D01*
X6207379Y11384263D01*
X6211518Y11355294D01*
X6226427Y11330113D01*
X6249838Y11312555D01*
X6278186Y11305292D01*
X6307155Y11309431D01*
X6332336Y11324340D01*
X6342268Y11335181D01*
X6718953Y11837430D01*
X6778696Y11777687D01*
X6778696Y11380181D01*
X6780137Y11365549D01*
X6791336Y11338513D01*
X6812028Y11317821D01*
X6839064Y11306622D01*
X6868328Y11306622D01*
X6895364Y11317821D01*
X6916056Y11338513D01*
X6927255Y11365549D01*
X6928696Y11380181D01*
X6928696Y11394813D01*
X7113471Y11394813D01*
X7113471Y11365549D01*
X7124670Y11338513D01*
X7145362Y11317821D01*
X7172398Y11306622D01*
X7187030Y11305181D01*
X7663220Y11305181D01*
X7677852Y11306622D01*
X7704888Y11317821D01*
X7725580Y11338513D01*
X7736779Y11365549D01*
X7738220Y11380181D01*
X7738220Y12299574D01*
X8018233Y12299574D01*
X8018233Y12270312D01*
X8029432Y12243275D01*
X8050124Y12222583D01*
X8077161Y12211384D01*
X8106423Y12211384D01*
X8133460Y12222583D01*
X8144825Y12231910D01*
X8179925Y12267010D01*
X8294438Y12305181D01*
X8365336Y12305181D01*
X8479849Y12267010D01*
X8553962Y12192897D01*
X8592455Y12115910D01*
X8635839Y11942376D01*
X8635839Y11817987D01*
X8592455Y11644453D01*
X8553961Y11567466D01*
X8479849Y11493353D01*
X8365336Y11455181D01*
X8294438Y11455181D01*
X8179925Y11493352D01*
X8144826Y11528452D01*
X8133460Y11537780D01*
X8106424Y11548979D01*
X8077161Y11548979D01*
X8050125Y11537781D01*
X8029432Y11517088D01*
X8018233Y11490052D01*
X8018233Y11460789D01*
X8029431Y11433753D01*
X8038758Y11422388D01*
X8086377Y11374768D01*
X8097743Y11365440D01*
X8100231Y11364410D01*
X8102268Y11362643D01*
X8115694Y11356649D01*
X8258550Y11309030D01*
X8265805Y11307381D01*
X8267636Y11306622D01*
X8270289Y11306361D01*
X8272887Y11305770D01*
X8274861Y11305911D01*
X8282268Y11305181D01*
X8377506Y11305181D01*
X8384911Y11305911D01*
X8386886Y11305770D01*
X8389483Y11306361D01*
X8392138Y11306622D01*
X8393969Y11307381D01*
X8401223Y11309030D01*
X8544080Y11356649D01*
X8557505Y11362643D01*
X8559540Y11364409D01*
X8562031Y11365440D01*
X8573396Y11374767D01*
X8668635Y11470007D01*
X8673352Y11475756D01*
X8674851Y11477055D01*
X8676272Y11479314D01*
X8677962Y11481372D01*
X8678719Y11483202D01*
X8682683Y11489498D01*
X8730302Y11584736D01*
X8730711Y11585806D01*
X8731034Y11586241D01*
X8733226Y11592378D01*
X8735557Y11598467D01*
X8735595Y11599008D01*
X8735981Y11600087D01*
X8783600Y11790563D01*
X8783975Y11793100D01*
X8784398Y11794121D01*
X8784940Y11799634D01*
X8785750Y11805107D01*
X8785587Y11806200D01*
X8785839Y11808753D01*
X8785839Y11951610D01*
X8785587Y11954164D01*
X8785750Y11955256D01*
X8784940Y11960730D01*
X8784398Y11966242D01*
X8783975Y11967264D01*
X8783600Y11969800D01*
X8735981Y12160276D01*
X8735595Y12161356D01*
X8735557Y12161896D01*
X8733226Y12167986D01*
X8731034Y12174122D01*
X8730711Y12174558D01*
X8730302Y12175627D01*
X8682683Y12270865D01*
X8678720Y12277160D01*
X8677962Y12278992D01*
X8676270Y12281054D01*
X8674851Y12283308D01*
X8673354Y12284607D01*
X8668634Y12290357D01*
X8573396Y12385595D01*
X8562031Y12394922D01*
X8559540Y12395954D01*
X8557505Y12397719D01*
X8544080Y12403713D01*
X8401223Y12451332D01*
X8393969Y12452982D01*
X8392138Y12453740D01*
X8389483Y12454002D01*
X8386886Y12454592D01*
X8384911Y12454452D01*
X8377506Y12455181D01*
X8282268Y12455181D01*
X8274861Y12454452D01*
X8272887Y12454592D01*
X8270289Y12454002D01*
X8267636Y12453740D01*
X8265805Y12452982D01*
X8258550Y12451332D01*
X8115694Y12403713D01*
X8102268Y12397719D01*
X8100231Y12395953D01*
X8097743Y12394922D01*
X8086378Y12385595D01*
X8038759Y12337976D01*
X8029432Y12326611D01*
X8018233Y12299574D01*
X7738220Y12299574D01*
X7738220Y12380181D01*
X7736779Y12394813D01*
X7725580Y12421849D01*
X7704888Y12442541D01*
X7677852Y12453740D01*
X7648588Y12453740D01*
X7621552Y12442541D01*
X7600860Y12421849D01*
X7589661Y12394813D01*
X7588220Y12380181D01*
X7588220Y11455181D01*
X7187030Y11455181D01*
X7172398Y11453740D01*
X7145362Y11442541D01*
X7124670Y11421849D01*
X7113471Y11394813D01*
X6928696Y11394813D01*
X6928696Y12380181D01*
X6927255Y12394813D01*
X6916056Y12421849D01*
X6895364Y12442541D01*
X6868328Y12453740D01*
X6839064Y12453740D01*
X6812028Y12442541D01*
X6791336Y12421849D01*
X6780137Y12394813D01*
X6778696Y12380181D01*
X6778696Y11989819D01*
X6335301Y12433214D01*
X6323936Y12442541D01*
X6296899Y12453740D01*
X6267637Y12453740D01*
X6240600Y12442541D01*
X6219908Y12421849D01*
X6208709Y12394812D01*
X6208709Y12365550D01*
X6219908Y12338513D01*
X6229235Y12327148D01*
X6611810Y11944573D01*
X6222268Y11425181D01*
X6214642Y11412611D01*
X6207379Y11384263D01*
X6096268Y11384263D01*
X6096268Y12566292D01*
X8896950Y12566292D01*
X8896950Y11194070D01*
G37*
G36*
X15097890Y28194070D02*
G01*
X12013413Y28194070D01*
X12013413Y29370801D01*
X12124524Y29370801D01*
X12127784Y29356464D01*
X12461117Y28356464D01*
X12467111Y28343039D01*
X12470621Y28338992D01*
X12473018Y28334198D01*
X12480126Y28328033D01*
X12486285Y28320932D01*
X12491074Y28318538D01*
X12495125Y28315024D01*
X12504050Y28312050D01*
X12512458Y28307845D01*
X12517802Y28307466D01*
X12522888Y28305770D01*
X12532268Y28306437D01*
X12541648Y28305770D01*
X12546733Y28307466D01*
X12552078Y28307845D01*
X12560488Y28312051D01*
X12569410Y28315024D01*
X12573457Y28318535D01*
X12578251Y28320931D01*
X12584414Y28328037D01*
X12591518Y28334198D01*
X12593913Y28338990D01*
X12597425Y28343038D01*
X12603419Y28356464D01*
X12754182Y28808753D01*
X13076316Y28808753D01*
X13076316Y28570658D01*
X13077757Y28556026D01*
X13078788Y28553537D01*
X13078979Y28550849D01*
X13084234Y28537117D01*
X13131853Y28441879D01*
X13135816Y28435583D01*
X13136574Y28433753D01*
X13138263Y28431695D01*
X13139685Y28429436D01*
X13141183Y28428137D01*
X13145901Y28422388D01*
X13193520Y28374768D01*
X13199269Y28370050D01*
X13200570Y28368550D01*
X13202829Y28367128D01*
X13204886Y28365440D01*
X13206713Y28364683D01*
X13213013Y28360718D01*
X13308251Y28313099D01*
X13321982Y28307844D01*
X13324671Y28307653D01*
X13327160Y28306622D01*
X13341792Y28305181D01*
X13579887Y28305181D01*
X13594519Y28306622D01*
X13597008Y28307654D01*
X13599696Y28307844D01*
X13613428Y28313099D01*
X13708666Y28360718D01*
X13714965Y28364683D01*
X13716793Y28365440D01*
X13718849Y28367128D01*
X13721109Y28368550D01*
X13722409Y28370050D01*
X13728159Y28374768D01*
X13775777Y28422387D01*
X13785105Y28433753D01*
X13796303Y28460789D01*
X13796303Y28490052D01*
X13785104Y28517088D01*
X13764411Y28537781D01*
X13737375Y28548979D01*
X13708112Y28548979D01*
X13681076Y28537780D01*
X13669710Y28528452D01*
X13630697Y28489439D01*
X13562182Y28455181D01*
X13359497Y28455181D01*
X13290981Y28489439D01*
X13260574Y28519847D01*
X13226316Y28588363D01*
X13226316Y28775766D01*
X14077757Y28775766D01*
X14077757Y28746502D01*
X14088956Y28719466D01*
X14109648Y28698774D01*
X14136684Y28687575D01*
X14151316Y28686134D01*
X14457268Y28686134D01*
X14457268Y28380181D01*
X14458709Y28365549D01*
X14469908Y28338513D01*
X14490600Y28317821D01*
X14517636Y28306622D01*
X14546900Y28306622D01*
X14573936Y28317821D01*
X14594628Y28338513D01*
X14605827Y28365549D01*
X14607268Y28380181D01*
X14607268Y28686134D01*
X14913220Y28686134D01*
X14927852Y28687575D01*
X14954888Y28698774D01*
X14975580Y28719466D01*
X14986779Y28746502D01*
X14986779Y28775766D01*
X14975580Y28802802D01*
X14954888Y28823494D01*
X14927852Y28834693D01*
X14913220Y28836134D01*
X14607268Y28836134D01*
X14607268Y29142086D01*
X14605827Y29156718D01*
X14594628Y29183754D01*
X14573936Y29204446D01*
X14546900Y29215645D01*
X14517636Y29215645D01*
X14490600Y29204446D01*
X14469908Y29183754D01*
X14458709Y29156718D01*
X14457268Y29142086D01*
X14457268Y28836134D01*
X14151316Y28836134D01*
X14136684Y28834693D01*
X14109648Y28823494D01*
X14088956Y28802802D01*
X14077757Y28775766D01*
X13226316Y28775766D01*
X13226316Y28791048D01*
X13260574Y28859564D01*
X13290981Y28889971D01*
X13359497Y28924229D01*
X13562182Y28924229D01*
X13630698Y28889971D01*
X13669711Y28850958D01*
X13681076Y28841631D01*
X13684564Y28840186D01*
X13687488Y28837794D01*
X13697985Y28834627D01*
X13708112Y28830432D01*
X13711888Y28830432D01*
X13715504Y28829341D01*
X13726414Y28830432D01*
X13737375Y28830432D01*
X13740863Y28831878D01*
X13744623Y28832253D01*
X13754286Y28837438D01*
X13764411Y28841631D01*
X13767081Y28844302D01*
X13770410Y28846087D01*
X13777355Y28854576D01*
X13785104Y28862324D01*
X13786548Y28865811D01*
X13788941Y28868735D01*
X13792109Y28879236D01*
X13796303Y28889360D01*
X13796303Y28893136D01*
X13797394Y28896751D01*
X13797372Y28911454D01*
X13749753Y29387644D01*
X13748684Y29392977D01*
X13748684Y29394813D01*
X13747970Y29396536D01*
X13746863Y29402060D01*
X13741680Y29411720D01*
X13737485Y29421849D01*
X13734813Y29424521D01*
X13733029Y29427847D01*
X13724546Y29434788D01*
X13716793Y29442541D01*
X13713304Y29443987D01*
X13710381Y29446378D01*
X13699883Y29449546D01*
X13689757Y29453740D01*
X13684151Y29454293D01*
X13682365Y29454831D01*
X13680536Y29454649D01*
X13675125Y29455181D01*
X13198935Y29455181D01*
X13184303Y29453740D01*
X13157267Y29442541D01*
X13136575Y29421849D01*
X13125376Y29394813D01*
X13125376Y29365549D01*
X13136575Y29338513D01*
X13157267Y29317821D01*
X13184303Y29306622D01*
X13198935Y29305181D01*
X13607251Y29305181D01*
X13632069Y29056991D01*
X13613428Y29066311D01*
X13599696Y29071566D01*
X13597008Y29071757D01*
X13594519Y29072788D01*
X13579887Y29074229D01*
X13341792Y29074229D01*
X13327160Y29072788D01*
X13324671Y29071758D01*
X13321982Y29071566D01*
X13308251Y29066311D01*
X13213013Y29018692D01*
X13206713Y29014728D01*
X13204886Y29013970D01*
X13202829Y29012282D01*
X13200570Y29010860D01*
X13199270Y29009362D01*
X13193521Y29004643D01*
X13145902Y28957024D01*
X13141183Y28951275D01*
X13139685Y28949975D01*
X13138263Y28947716D01*
X13136575Y28945659D01*
X13135817Y28943832D01*
X13131853Y28937532D01*
X13084234Y28842294D01*
X13078979Y28828562D01*
X13078788Y28825875D01*
X13077757Y28823385D01*
X13076316Y28808753D01*
X12754182Y28808753D01*
X12936752Y29356464D01*
X12940012Y29370800D01*
X12937937Y29399990D01*
X12924851Y29426164D01*
X12902743Y29445338D01*
X12874981Y29454592D01*
X12845791Y29452517D01*
X12819618Y29439430D01*
X12800444Y29417323D01*
X12794450Y29403898D01*
X12532268Y28617352D01*
X12270086Y29403898D01*
X12264092Y29417324D01*
X12244918Y29439431D01*
X12218745Y29452517D01*
X12189555Y29454592D01*
X12161792Y29445338D01*
X12139685Y29426164D01*
X12126599Y29399991D01*
X12124524Y29370801D01*
X12013413Y29370801D01*
X12013413Y29566292D01*
X15097890Y29566292D01*
X15097890Y28194070D01*
G37*
G36*
X6940115Y14240896D02*
G01*
X6672039Y14240896D01*
X6806077Y14643011D01*
X6940115Y14240896D01*
G37*
G36*
X8849331Y13694070D02*
G01*
X5526169Y13694070D01*
X5526169Y14894813D01*
X5637280Y14894813D01*
X5637280Y14865549D01*
X5648479Y14838513D01*
X5669171Y14817821D01*
X5696207Y14806622D01*
X5710839Y14805181D01*
X5921553Y14805181D01*
X5921553Y13880181D01*
X5922994Y13865549D01*
X5934193Y13838513D01*
X5954885Y13817821D01*
X5981921Y13806622D01*
X6011185Y13806622D01*
X6038221Y13817821D01*
X6058913Y13838513D01*
X6070112Y13865549D01*
X6071553Y13880181D01*
X6071553Y13889561D01*
X6398333Y13889561D01*
X6400408Y13860371D01*
X6413494Y13834198D01*
X6435601Y13815024D01*
X6463364Y13805770D01*
X6492554Y13807845D01*
X6518727Y13820931D01*
X6537901Y13843038D01*
X6543895Y13856464D01*
X6622039Y14090896D01*
X6990115Y14090896D01*
X7068259Y13856464D01*
X7074253Y13843039D01*
X7093427Y13820932D01*
X7119600Y13807845D01*
X7148790Y13805770D01*
X7176552Y13815024D01*
X7198660Y13834198D01*
X7211746Y13860372D01*
X7213821Y13889562D01*
X7212627Y13894813D01*
X7256328Y13894813D01*
X7256328Y13865549D01*
X7267527Y13838513D01*
X7288219Y13817821D01*
X7315255Y13806622D01*
X7329887Y13805181D01*
X7806077Y13805181D01*
X7820709Y13806622D01*
X7847745Y13817821D01*
X7868437Y13838513D01*
X7879636Y13865549D01*
X7881077Y13880181D01*
X7881077Y14880181D01*
X7879636Y14894813D01*
X8113471Y14894813D01*
X8113471Y14865549D01*
X8124670Y14838513D01*
X8145362Y14817821D01*
X8172398Y14806622D01*
X8187030Y14805181D01*
X8588220Y14805181D01*
X8588220Y14478991D01*
X8329887Y14478991D01*
X8315255Y14477550D01*
X8288219Y14466351D01*
X8267527Y14445659D01*
X8256328Y14418623D01*
X8256328Y14389359D01*
X8267527Y14362323D01*
X8288219Y14341631D01*
X8315255Y14330432D01*
X8329887Y14328991D01*
X8588220Y14328991D01*
X8588220Y13880181D01*
X8589661Y13865549D01*
X8600860Y13838513D01*
X8621552Y13817821D01*
X8648588Y13806622D01*
X8677852Y13806622D01*
X8704888Y13817821D01*
X8725580Y13838513D01*
X8736779Y13865549D01*
X8738220Y13880181D01*
X8738220Y14880181D01*
X8736779Y14894813D01*
X8725580Y14921849D01*
X8704888Y14942541D01*
X8677852Y14953740D01*
X8663220Y14955181D01*
X8187030Y14955181D01*
X8172398Y14953740D01*
X8145362Y14942541D01*
X8124670Y14921849D01*
X8113471Y14894813D01*
X7879636Y14894813D01*
X7868437Y14921849D01*
X7847745Y14942541D01*
X7820709Y14953740D01*
X7791445Y14953740D01*
X7764409Y14942541D01*
X7743717Y14921849D01*
X7732518Y14894813D01*
X7731077Y14880181D01*
X7731077Y13955181D01*
X7329887Y13955181D01*
X7315255Y13953740D01*
X7288219Y13942541D01*
X7267527Y13921849D01*
X7256328Y13894813D01*
X7212627Y13894813D01*
X7210561Y13903898D01*
X6877228Y14903898D01*
X6871234Y14917324D01*
X6867722Y14921373D01*
X6865327Y14926164D01*
X6858223Y14932326D01*
X6852060Y14939431D01*
X6847266Y14941828D01*
X6843219Y14945338D01*
X6834297Y14948312D01*
X6825887Y14952517D01*
X6820542Y14952897D01*
X6815457Y14954592D01*
X6806077Y14953926D01*
X6796697Y14954592D01*
X6791611Y14952897D01*
X6786267Y14952517D01*
X6777859Y14948313D01*
X6768934Y14945338D01*
X6764883Y14941825D01*
X6760094Y14939430D01*
X6753935Y14932330D01*
X6746827Y14926164D01*
X6744430Y14921371D01*
X6740920Y14917323D01*
X6734926Y14903898D01*
X6401593Y13903898D01*
X6398333Y13889561D01*
X6071553Y13889561D01*
X6071553Y14805181D01*
X6282267Y14805181D01*
X6296899Y14806622D01*
X6323935Y14817821D01*
X6344627Y14838513D01*
X6355826Y14865549D01*
X6355826Y14894813D01*
X6344627Y14921849D01*
X6323935Y14942541D01*
X6296899Y14953740D01*
X6282267Y14955181D01*
X5710839Y14955181D01*
X5696207Y14953740D01*
X5669171Y14942541D01*
X5648479Y14921849D01*
X5637280Y14894813D01*
X5526169Y14894813D01*
X5526169Y15066292D01*
X8849331Y15066292D01*
X8849331Y13694070D01*
G37*
G36*
X8443128Y21444070D02*
G01*
X5072937Y21444070D01*
X5072937Y22620801D01*
X5184048Y22620801D01*
X5187308Y22606464D01*
X5520641Y21606464D01*
X5526635Y21593039D01*
X5530145Y21588992D01*
X5532542Y21584198D01*
X5539650Y21578033D01*
X5545809Y21570932D01*
X5550598Y21568538D01*
X5554649Y21565024D01*
X5563574Y21562050D01*
X5571982Y21557845D01*
X5577326Y21557466D01*
X5582412Y21555770D01*
X5591792Y21556437D01*
X5601172Y21555770D01*
X5606257Y21557466D01*
X5611602Y21557845D01*
X5620012Y21562051D01*
X5628934Y21565024D01*
X5632981Y21568535D01*
X5637775Y21570931D01*
X5643938Y21578037D01*
X5651042Y21584198D01*
X5653437Y21588990D01*
X5656949Y21593038D01*
X5662943Y21606464D01*
X5813706Y22058753D01*
X6135840Y22058753D01*
X6135840Y21820658D01*
X6137281Y21806026D01*
X6138312Y21803537D01*
X6138503Y21800849D01*
X6143758Y21787117D01*
X6191377Y21691879D01*
X6195340Y21685583D01*
X6196098Y21683753D01*
X6197787Y21681695D01*
X6199209Y21679436D01*
X6200707Y21678137D01*
X6205425Y21672388D01*
X6253044Y21624768D01*
X6258793Y21620050D01*
X6260094Y21618550D01*
X6262353Y21617128D01*
X6264410Y21615440D01*
X6266237Y21614683D01*
X6272537Y21610718D01*
X6367775Y21563099D01*
X6381506Y21557844D01*
X6384195Y21557653D01*
X6386684Y21556622D01*
X6401316Y21555181D01*
X6687030Y21555181D01*
X6701662Y21556622D01*
X6704151Y21557654D01*
X6706839Y21557844D01*
X6720571Y21563099D01*
X6815809Y21610718D01*
X6822108Y21614683D01*
X6823936Y21615440D01*
X6825992Y21617128D01*
X6828252Y21618550D01*
X6829552Y21620050D01*
X6835302Y21624768D01*
X6882920Y21672387D01*
X6892248Y21683753D01*
X6895842Y21692431D01*
X7089661Y21692431D01*
X7089661Y21663168D01*
X7094698Y21651009D01*
X7100860Y21636132D01*
X7110187Y21624767D01*
X7157806Y21577148D01*
X7169171Y21567821D01*
X7196207Y21556622D01*
X7196208Y21556622D01*
X7225470Y21556622D01*
X7225471Y21556622D01*
X7252507Y21567821D01*
X7263872Y21577148D01*
X7311491Y21624767D01*
X7320818Y21636132D01*
X7332017Y21663168D01*
X7332017Y21692431D01*
X7331971Y21692541D01*
X7320819Y21719467D01*
X7311491Y21730833D01*
X7263873Y21778452D01*
X7252507Y21787780D01*
X7252506Y21787781D01*
X7236669Y21794341D01*
X7225471Y21798979D01*
X7225470Y21798979D01*
X7196207Y21798979D01*
X7185009Y21794341D01*
X7169172Y21787781D01*
X7169171Y21787780D01*
X7157805Y21778452D01*
X7110186Y21730832D01*
X7100859Y21719467D01*
X7089661Y21692431D01*
X6895842Y21692431D01*
X6903446Y21710789D01*
X6903446Y21740052D01*
X6892247Y21767088D01*
X6871554Y21787781D01*
X6844518Y21798979D01*
X6815255Y21798979D01*
X6788219Y21787780D01*
X6776853Y21778452D01*
X6737840Y21739439D01*
X6669325Y21705181D01*
X6419021Y21705181D01*
X6350505Y21739439D01*
X6320098Y21769847D01*
X6285840Y21838363D01*
X6285840Y22041048D01*
X6294693Y22058753D01*
X7564411Y22058753D01*
X7564411Y21820658D01*
X7565852Y21806026D01*
X7566883Y21803537D01*
X7567074Y21800849D01*
X7572329Y21787117D01*
X7619948Y21691879D01*
X7623911Y21685583D01*
X7624669Y21683753D01*
X7626358Y21681695D01*
X7627780Y21679436D01*
X7629278Y21678137D01*
X7633996Y21672388D01*
X7681615Y21624768D01*
X7687364Y21620050D01*
X7688665Y21618550D01*
X7690924Y21617128D01*
X7692981Y21615440D01*
X7694808Y21614683D01*
X7701108Y21610718D01*
X7796346Y21563099D01*
X7810077Y21557844D01*
X7812766Y21557653D01*
X7815255Y21556622D01*
X7829887Y21555181D01*
X8115601Y21555181D01*
X8130233Y21556622D01*
X8132722Y21557654D01*
X8135410Y21557844D01*
X8149142Y21563099D01*
X8244380Y21610718D01*
X8250679Y21614683D01*
X8252507Y21615440D01*
X8254563Y21617128D01*
X8256823Y21618550D01*
X8258123Y21620050D01*
X8263873Y21624768D01*
X8311491Y21672387D01*
X8320819Y21683753D01*
X8332017Y21710789D01*
X8332017Y21740052D01*
X8320818Y21767088D01*
X8300125Y21787781D01*
X8273089Y21798979D01*
X8243826Y21798979D01*
X8216790Y21787780D01*
X8205424Y21778452D01*
X8166411Y21739439D01*
X8097896Y21705181D01*
X7847592Y21705181D01*
X7779076Y21739439D01*
X7748669Y21769847D01*
X7714411Y21838363D01*
X7714411Y22041048D01*
X7748669Y22109564D01*
X7779076Y22139971D01*
X7847592Y22174229D01*
X7972744Y22174229D01*
X7980482Y22174992D01*
X7982450Y22174860D01*
X7983805Y22175319D01*
X7987376Y22175670D01*
X7998633Y22180334D01*
X8010171Y22184235D01*
X8012075Y22185901D01*
X8014412Y22186869D01*
X8023022Y22195480D01*
X8032195Y22203505D01*
X8033317Y22205775D01*
X8035104Y22207561D01*
X8039764Y22218812D01*
X8045167Y22229737D01*
X8045335Y22232261D01*
X8046303Y22234597D01*
X8046303Y22246782D01*
X8047113Y22258935D01*
X8046303Y22261331D01*
X8046303Y22263861D01*
X8041639Y22275119D01*
X8037738Y22286656D01*
X8035652Y22289574D01*
X8035104Y22290897D01*
X8033708Y22292293D01*
X8029187Y22298617D01*
X7804693Y22555181D01*
X8258458Y22555181D01*
X8273090Y22556622D01*
X8300126Y22567821D01*
X8320818Y22588513D01*
X8332017Y22615549D01*
X8332017Y22644813D01*
X8320818Y22671849D01*
X8300126Y22692541D01*
X8273090Y22703740D01*
X8258458Y22705181D01*
X7639411Y22705181D01*
X7631672Y22704419D01*
X7629705Y22704550D01*
X7628349Y22704092D01*
X7624779Y22703740D01*
X7613521Y22699077D01*
X7601984Y22695175D01*
X7600079Y22693510D01*
X7597743Y22692541D01*
X7589132Y22683931D01*
X7579960Y22675905D01*
X7578837Y22673636D01*
X7577051Y22671849D01*
X7572390Y22660599D01*
X7566988Y22649673D01*
X7566819Y22647150D01*
X7565852Y22644813D01*
X7565852Y22632629D01*
X7565042Y22620475D01*
X7565852Y22618080D01*
X7565852Y22615549D01*
X7570515Y22604292D01*
X7574417Y22592754D01*
X7576502Y22589837D01*
X7577051Y22588513D01*
X7578446Y22587118D01*
X7582968Y22580793D01*
X7809863Y22321485D01*
X7796346Y22316311D01*
X7701108Y22268692D01*
X7694808Y22264728D01*
X7692981Y22263970D01*
X7690924Y22262282D01*
X7688665Y22260860D01*
X7687365Y22259362D01*
X7681616Y22254643D01*
X7633997Y22207024D01*
X7629278Y22201275D01*
X7627780Y22199975D01*
X7626358Y22197716D01*
X7624670Y22195659D01*
X7623912Y22193832D01*
X7619948Y22187532D01*
X7572329Y22092294D01*
X7567074Y22078562D01*
X7566883Y22075875D01*
X7565852Y22073385D01*
X7564411Y22058753D01*
X6294693Y22058753D01*
X6320098Y22109564D01*
X6350505Y22139971D01*
X6419021Y22174229D01*
X6544173Y22174229D01*
X6551911Y22174992D01*
X6553879Y22174860D01*
X6555234Y22175319D01*
X6558805Y22175670D01*
X6570062Y22180334D01*
X6581600Y22184235D01*
X6583504Y22185901D01*
X6585841Y22186869D01*
X6594451Y22195480D01*
X6603624Y22203505D01*
X6604746Y22205775D01*
X6606533Y22207561D01*
X6611193Y22218812D01*
X6616596Y22229737D01*
X6616764Y22232261D01*
X6617732Y22234597D01*
X6617732Y22246782D01*
X6618542Y22258935D01*
X6617732Y22261331D01*
X6617732Y22263861D01*
X6613068Y22275119D01*
X6609167Y22286656D01*
X6607081Y22289574D01*
X6606533Y22290897D01*
X6605137Y22292293D01*
X6600616Y22298617D01*
X6376122Y22555181D01*
X6829887Y22555181D01*
X6844519Y22556622D01*
X6871555Y22567821D01*
X6892247Y22588513D01*
X6903446Y22615549D01*
X6903446Y22644813D01*
X6892247Y22671849D01*
X6871555Y22692541D01*
X6844519Y22703740D01*
X6829887Y22705181D01*
X6210840Y22705181D01*
X6203101Y22704419D01*
X6201134Y22704550D01*
X6199778Y22704092D01*
X6196208Y22703740D01*
X6184950Y22699077D01*
X6173413Y22695175D01*
X6171508Y22693510D01*
X6169172Y22692541D01*
X6160561Y22683931D01*
X6151389Y22675905D01*
X6150266Y22673636D01*
X6148480Y22671849D01*
X6143819Y22660599D01*
X6138417Y22649673D01*
X6138248Y22647150D01*
X6137281Y22644813D01*
X6137281Y22632629D01*
X6136471Y22620475D01*
X6137281Y22618080D01*
X6137281Y22615549D01*
X6141944Y22604292D01*
X6145846Y22592754D01*
X6147931Y22589837D01*
X6148480Y22588513D01*
X6149875Y22587118D01*
X6154397Y22580793D01*
X6381292Y22321485D01*
X6367775Y22316311D01*
X6272537Y22268692D01*
X6266237Y22264728D01*
X6264410Y22263970D01*
X6262353Y22262282D01*
X6260094Y22260860D01*
X6258794Y22259362D01*
X6253045Y22254643D01*
X6205426Y22207024D01*
X6200707Y22201275D01*
X6199209Y22199975D01*
X6197787Y22197716D01*
X6196099Y22195659D01*
X6195341Y22193832D01*
X6191377Y22187532D01*
X6143758Y22092294D01*
X6138503Y22078562D01*
X6138312Y22075875D01*
X6137281Y22073385D01*
X6135840Y22058753D01*
X5813706Y22058753D01*
X5996276Y22606464D01*
X5999536Y22620800D01*
X5997461Y22649990D01*
X5984375Y22676164D01*
X5962267Y22695338D01*
X5934505Y22704592D01*
X5905315Y22702517D01*
X5879142Y22689430D01*
X5859968Y22667323D01*
X5853974Y22653898D01*
X5591792Y21867352D01*
X5329610Y22653898D01*
X5323616Y22667324D01*
X5304442Y22689431D01*
X5278269Y22702517D01*
X5249079Y22704592D01*
X5221316Y22695338D01*
X5199209Y22676164D01*
X5186123Y22649991D01*
X5184048Y22620801D01*
X5072937Y22620801D01*
X5072937Y22816292D01*
X8443128Y22816292D01*
X8443128Y21444070D01*
G37*
G36*
X15797365Y15020923D02*
G01*
X15869307Y14948981D01*
X15909649Y14787614D01*
X15909649Y14472749D01*
X15869307Y14311383D01*
X15797364Y14239439D01*
X15728849Y14205181D01*
X15573783Y14205181D01*
X15505267Y14239439D01*
X15433324Y14311383D01*
X15392983Y14472749D01*
X15392983Y14787614D01*
X15433324Y14948981D01*
X15505267Y15020923D01*
X15573783Y15055181D01*
X15728849Y15055181D01*
X15797365Y15020923D01*
G37*
G36*
X16599331Y13944070D02*
G01*
X14180932Y13944070D01*
X14180932Y14144813D01*
X14292043Y14144813D01*
X14292043Y14115549D01*
X14303242Y14088513D01*
X14323934Y14067821D01*
X14350970Y14056622D01*
X14365602Y14055181D01*
X14937030Y14055181D01*
X14951662Y14056622D01*
X14978698Y14067821D01*
X14999390Y14088513D01*
X15010589Y14115549D01*
X15010589Y14144813D01*
X14999390Y14171849D01*
X14978698Y14192541D01*
X14951662Y14203740D01*
X14937030Y14205181D01*
X14726316Y14205181D01*
X14726316Y14901496D01*
X14788759Y14839053D01*
X14794509Y14834333D01*
X14795808Y14832836D01*
X14798062Y14831417D01*
X14800124Y14829725D01*
X14801956Y14828967D01*
X14808251Y14825004D01*
X14903489Y14777385D01*
X14917220Y14772130D01*
X14946410Y14770056D01*
X14974172Y14779310D01*
X14994394Y14796848D01*
X15242983Y14796848D01*
X15242983Y14463515D01*
X15243234Y14460962D01*
X15243072Y14459869D01*
X15243881Y14454396D01*
X15244424Y14448883D01*
X15244846Y14447862D01*
X15245222Y14445325D01*
X15292841Y14254849D01*
X15297788Y14241003D01*
X15301107Y14236524D01*
X15303241Y14231372D01*
X15312569Y14220006D01*
X15407807Y14124767D01*
X15413557Y14120047D01*
X15414856Y14118550D01*
X15417110Y14117131D01*
X15419172Y14115439D01*
X15421004Y14114681D01*
X15427299Y14110718D01*
X15522537Y14063099D01*
X15536268Y14057844D01*
X15538957Y14057653D01*
X15541446Y14056622D01*
X15556078Y14055181D01*
X15746554Y14055181D01*
X15761186Y14056622D01*
X15763675Y14057654D01*
X15766363Y14057844D01*
X15780095Y14063099D01*
X15875333Y14110718D01*
X15881632Y14114683D01*
X15883460Y14115440D01*
X15885516Y14117129D01*
X15887776Y14118550D01*
X15889075Y14120049D01*
X15894825Y14124767D01*
X15990064Y14220007D01*
X15999391Y14231372D01*
X16001524Y14236524D01*
X16004844Y14241003D01*
X16009791Y14254849D01*
X16057410Y14445325D01*
X16057785Y14447862D01*
X16058208Y14448883D01*
X16058750Y14454396D01*
X16059560Y14459869D01*
X16059397Y14460962D01*
X16059649Y14463515D01*
X16059649Y14796848D01*
X16059397Y14799402D01*
X16059560Y14800494D01*
X16058750Y14805968D01*
X16058208Y14811480D01*
X16057785Y14812502D01*
X16057410Y14815038D01*
X16009791Y15005514D01*
X16004844Y15019360D01*
X16001525Y15023839D01*
X15999391Y15028992D01*
X15990063Y15040357D01*
X15900239Y15130181D01*
X16338220Y15130181D01*
X16338220Y14130181D01*
X16339661Y14115549D01*
X16350860Y14088513D01*
X16371552Y14067821D01*
X16398588Y14056622D01*
X16427852Y14056622D01*
X16454888Y14067821D01*
X16475580Y14088513D01*
X16486779Y14115549D01*
X16488220Y14130181D01*
X16488220Y15130181D01*
X16486779Y15144813D01*
X16475580Y15171849D01*
X16454888Y15192541D01*
X16427852Y15203740D01*
X16398588Y15203740D01*
X16371552Y15192541D01*
X16350860Y15171849D01*
X16339661Y15144813D01*
X16338220Y15130181D01*
X15900239Y15130181D01*
X15894825Y15135595D01*
X15889075Y15140314D01*
X15887776Y15141812D01*
X15885516Y15143234D01*
X15883460Y15144922D01*
X15881632Y15145680D01*
X15875333Y15149644D01*
X15780095Y15197263D01*
X15766363Y15202518D01*
X15763675Y15202709D01*
X15761186Y15203740D01*
X15746554Y15205181D01*
X15556078Y15205181D01*
X15541446Y15203740D01*
X15538957Y15202710D01*
X15536268Y15202518D01*
X15522537Y15197263D01*
X15427299Y15149644D01*
X15421004Y15145682D01*
X15419172Y15144923D01*
X15417110Y15143232D01*
X15414856Y15141812D01*
X15413557Y15140316D01*
X15407807Y15135595D01*
X15312569Y15040357D01*
X15303242Y15028992D01*
X15301108Y15023842D01*
X15297788Y15019360D01*
X15292841Y15005514D01*
X15245222Y14815038D01*
X15244846Y14812502D01*
X15244424Y14811480D01*
X15243881Y14805968D01*
X15243072Y14800494D01*
X15243234Y14799402D01*
X15242983Y14796848D01*
X14994394Y14796848D01*
X14996279Y14798483D01*
X15009367Y14824658D01*
X15011441Y14853848D01*
X15002187Y14881609D01*
X14983014Y14903717D01*
X14970571Y14911549D01*
X14886219Y14953725D01*
X14804838Y15035106D01*
X14713720Y15171784D01*
X14713685Y15171827D01*
X14713676Y15171849D01*
X14713624Y15171901D01*
X14704404Y15183159D01*
X14698234Y15187291D01*
X14692984Y15192541D01*
X14686194Y15195354D01*
X14680089Y15199442D01*
X14672808Y15200899D01*
X14665948Y15203740D01*
X14658600Y15203740D01*
X14651395Y15205181D01*
X14644111Y15203740D01*
X14636684Y15203740D01*
X14629895Y15200928D01*
X14622687Y15199502D01*
X14616508Y15195383D01*
X14609648Y15192541D01*
X14604452Y15187346D01*
X14598338Y15183269D01*
X14594206Y15177100D01*
X14588956Y15171849D01*
X14586143Y15165060D01*
X14582055Y15158954D01*
X14580598Y15151674D01*
X14577757Y15144813D01*
X14576331Y15130337D01*
X14576316Y15130260D01*
X14576321Y15130234D01*
X14576316Y15130181D01*
X14576316Y14205181D01*
X14365602Y14205181D01*
X14350970Y14203740D01*
X14323934Y14192541D01*
X14303242Y14171849D01*
X14292043Y14144813D01*
X14180932Y14144813D01*
X14180932Y15316292D01*
X16599331Y15316292D01*
X16599331Y13944070D01*
G37*
G36*
X8588220Y16705181D02*
G01*
X8437295Y16705181D01*
X8322782Y16743352D01*
X8248669Y16817466D01*
X8210175Y16894453D01*
X8166792Y17067987D01*
X8166792Y17192376D01*
X8210175Y17365910D01*
X8248669Y17442897D01*
X8322782Y17517010D01*
X8437295Y17555181D01*
X8588220Y17555181D01*
X8588220Y16705181D01*
G37*
G36*
X5987734Y16990896D02*
G01*
X5719658Y16990896D01*
X5853696Y17393011D01*
X5987734Y16990896D01*
G37*
G36*
X7606782Y16990896D02*
G01*
X7338706Y16990896D01*
X7472744Y17393011D01*
X7606782Y16990896D01*
G37*
G36*
X8849331Y16444070D02*
G01*
X5334841Y16444070D01*
X5334841Y16639561D01*
X5445952Y16639561D01*
X5448027Y16610371D01*
X5461113Y16584198D01*
X5483220Y16565024D01*
X5510983Y16555770D01*
X5540173Y16557845D01*
X5566346Y16570931D01*
X5585520Y16593038D01*
X5591514Y16606464D01*
X5669658Y16840896D01*
X6037734Y16840896D01*
X6115878Y16606464D01*
X6121872Y16593039D01*
X6141046Y16570932D01*
X6167219Y16557845D01*
X6196409Y16555770D01*
X6224171Y16565024D01*
X6246279Y16584198D01*
X6259365Y16610372D01*
X6261440Y16639562D01*
X6258180Y16653898D01*
X5927875Y17644813D01*
X6303947Y17644813D01*
X6303947Y17615549D01*
X6315146Y17588513D01*
X6335838Y17567821D01*
X6362874Y17556622D01*
X6377506Y17555181D01*
X6588220Y17555181D01*
X6588220Y16630181D01*
X6589661Y16615549D01*
X6600860Y16588513D01*
X6621552Y16567821D01*
X6648588Y16556622D01*
X6677852Y16556622D01*
X6704888Y16567821D01*
X6725580Y16588513D01*
X6736779Y16615549D01*
X6738220Y16630181D01*
X6738220Y16639561D01*
X7065000Y16639561D01*
X7067075Y16610371D01*
X7080161Y16584198D01*
X7102268Y16565024D01*
X7130031Y16555770D01*
X7159221Y16557845D01*
X7185394Y16570931D01*
X7204568Y16593038D01*
X7210562Y16606464D01*
X7288706Y16840896D01*
X7656782Y16840896D01*
X7734926Y16606464D01*
X7740920Y16593039D01*
X7760094Y16570932D01*
X7786267Y16557845D01*
X7815457Y16555770D01*
X7843219Y16565024D01*
X7865327Y16584198D01*
X7878413Y16610372D01*
X7880488Y16639562D01*
X7877228Y16653898D01*
X7694658Y17201610D01*
X8016792Y17201610D01*
X8016792Y17058753D01*
X8017043Y17056200D01*
X8016881Y17055107D01*
X8017690Y17049634D01*
X8018233Y17044121D01*
X8018655Y17043100D01*
X8019031Y17040563D01*
X8066650Y16850087D01*
X8067035Y16849008D01*
X8067074Y16848468D01*
X8069401Y16842387D01*
X8071597Y16836241D01*
X8071919Y16835806D01*
X8072329Y16834736D01*
X8119948Y16739498D01*
X8123911Y16733202D01*
X8124669Y16731372D01*
X8126358Y16729314D01*
X8127780Y16727055D01*
X8129278Y16725756D01*
X8133997Y16720006D01*
X8229235Y16624767D01*
X8240600Y16615439D01*
X8243090Y16614408D01*
X8245125Y16612643D01*
X8258551Y16606649D01*
X8401407Y16559030D01*
X8408662Y16557381D01*
X8410493Y16556622D01*
X8413146Y16556361D01*
X8415744Y16555770D01*
X8417718Y16555911D01*
X8425125Y16555181D01*
X8663220Y16555181D01*
X8677852Y16556622D01*
X8704888Y16567821D01*
X8725580Y16588513D01*
X8736779Y16615549D01*
X8738220Y16630181D01*
X8738220Y17630181D01*
X8736779Y17644813D01*
X8725580Y17671849D01*
X8704888Y17692541D01*
X8677852Y17703740D01*
X8663220Y17705181D01*
X8425125Y17705181D01*
X8417718Y17704452D01*
X8415744Y17704592D01*
X8413146Y17704002D01*
X8410493Y17703740D01*
X8408662Y17702982D01*
X8401407Y17701332D01*
X8258551Y17653713D01*
X8245125Y17647719D01*
X8243090Y17645955D01*
X8240600Y17644923D01*
X8229235Y17635595D01*
X8133997Y17540357D01*
X8129278Y17534608D01*
X8127780Y17533308D01*
X8126358Y17531049D01*
X8124670Y17528992D01*
X8123912Y17527165D01*
X8119948Y17520865D01*
X8072329Y17425627D01*
X8071919Y17424558D01*
X8071597Y17424122D01*
X8069401Y17417977D01*
X8067074Y17411895D01*
X8067035Y17411356D01*
X8066650Y17410276D01*
X8019031Y17219800D01*
X8018655Y17217264D01*
X8018233Y17216242D01*
X8017690Y17210730D01*
X8016881Y17205256D01*
X8017043Y17204164D01*
X8016792Y17201610D01*
X7694658Y17201610D01*
X7543895Y17653898D01*
X7537901Y17667324D01*
X7534389Y17671373D01*
X7531994Y17676164D01*
X7524890Y17682326D01*
X7518727Y17689431D01*
X7513933Y17691828D01*
X7509886Y17695338D01*
X7500964Y17698312D01*
X7492554Y17702517D01*
X7487209Y17702897D01*
X7482124Y17704592D01*
X7472744Y17703926D01*
X7463364Y17704592D01*
X7458278Y17702897D01*
X7452934Y17702517D01*
X7444526Y17698313D01*
X7435601Y17695338D01*
X7431550Y17691825D01*
X7426761Y17689430D01*
X7420602Y17682330D01*
X7413494Y17676164D01*
X7411097Y17671371D01*
X7407587Y17667323D01*
X7401593Y17653898D01*
X7068260Y16653898D01*
X7065000Y16639561D01*
X6738220Y16639561D01*
X6738220Y17555181D01*
X6948934Y17555181D01*
X6963566Y17556622D01*
X6990602Y17567821D01*
X7011294Y17588513D01*
X7022493Y17615549D01*
X7022493Y17644813D01*
X7011294Y17671849D01*
X6990602Y17692541D01*
X6963566Y17703740D01*
X6948934Y17705181D01*
X6377506Y17705181D01*
X6362874Y17703740D01*
X6335838Y17692541D01*
X6315146Y17671849D01*
X6303947Y17644813D01*
X5927875Y17644813D01*
X5924847Y17653898D01*
X5918853Y17667324D01*
X5915341Y17671373D01*
X5912946Y17676164D01*
X5905842Y17682326D01*
X5899679Y17689431D01*
X5894885Y17691828D01*
X5890838Y17695338D01*
X5881916Y17698312D01*
X5873506Y17702517D01*
X5868161Y17702897D01*
X5863076Y17704592D01*
X5853696Y17703926D01*
X5844316Y17704592D01*
X5839230Y17702897D01*
X5833886Y17702517D01*
X5825478Y17698313D01*
X5816553Y17695338D01*
X5812502Y17691825D01*
X5807713Y17689430D01*
X5801554Y17682330D01*
X5794446Y17676164D01*
X5792049Y17671371D01*
X5788539Y17667323D01*
X5782545Y17653898D01*
X5449212Y16653898D01*
X5445952Y16639561D01*
X5334841Y16639561D01*
X5334841Y17816292D01*
X8849331Y17816292D01*
X8849331Y16444070D01*
G37*
G36*
X17443128Y44444070D02*
G01*
X14072937Y44444070D01*
X14072937Y45620801D01*
X14184048Y45620801D01*
X14187308Y45606464D01*
X14520641Y44606464D01*
X14526635Y44593039D01*
X14530145Y44588992D01*
X14532542Y44584198D01*
X14539650Y44578033D01*
X14545809Y44570932D01*
X14550598Y44568538D01*
X14554649Y44565024D01*
X14563574Y44562050D01*
X14571982Y44557845D01*
X14577326Y44557466D01*
X14582412Y44555770D01*
X14591792Y44556437D01*
X14601172Y44555770D01*
X14606257Y44557466D01*
X14611602Y44557845D01*
X14620012Y44562051D01*
X14628934Y44565024D01*
X14632981Y44568535D01*
X14637775Y44570931D01*
X14643938Y44578037D01*
X14651042Y44584198D01*
X14653437Y44588990D01*
X14656949Y44593038D01*
X14662943Y44606464D01*
X14813706Y45058753D01*
X15135840Y45058753D01*
X15135840Y44820658D01*
X15137281Y44806026D01*
X15138312Y44803537D01*
X15138503Y44800849D01*
X15143758Y44787117D01*
X15191377Y44691879D01*
X15195340Y44685583D01*
X15196098Y44683753D01*
X15197787Y44681695D01*
X15199209Y44679436D01*
X15200707Y44678137D01*
X15205425Y44672388D01*
X15253044Y44624768D01*
X15258793Y44620050D01*
X15260094Y44618550D01*
X15262353Y44617128D01*
X15264410Y44615440D01*
X15266237Y44614683D01*
X15272537Y44610718D01*
X15367775Y44563099D01*
X15381506Y44557844D01*
X15384195Y44557653D01*
X15386684Y44556622D01*
X15401316Y44555181D01*
X15687030Y44555181D01*
X15701662Y44556622D01*
X15704151Y44557654D01*
X15706839Y44557844D01*
X15720571Y44563099D01*
X15815809Y44610718D01*
X15822108Y44614683D01*
X15823936Y44615440D01*
X15825992Y44617128D01*
X15828252Y44618550D01*
X15829552Y44620050D01*
X15835302Y44624768D01*
X15882920Y44672387D01*
X15892248Y44683753D01*
X15895842Y44692431D01*
X16089661Y44692431D01*
X16089661Y44663168D01*
X16094698Y44651009D01*
X16100860Y44636132D01*
X16110187Y44624767D01*
X16157806Y44577148D01*
X16169171Y44567821D01*
X16196207Y44556622D01*
X16196208Y44556622D01*
X16225470Y44556622D01*
X16225471Y44556622D01*
X16252507Y44567821D01*
X16263872Y44577148D01*
X16311491Y44624767D01*
X16320818Y44636132D01*
X16332017Y44663168D01*
X16332017Y44692431D01*
X16331971Y44692541D01*
X16320819Y44719467D01*
X16311491Y44730833D01*
X16263873Y44778452D01*
X16252507Y44787780D01*
X16252506Y44787781D01*
X16236669Y44794341D01*
X16225471Y44798979D01*
X16225470Y44798979D01*
X16196207Y44798979D01*
X16185009Y44794341D01*
X16169172Y44787781D01*
X16169171Y44787780D01*
X16157805Y44778452D01*
X16110186Y44730832D01*
X16100859Y44719467D01*
X16089661Y44692431D01*
X15895842Y44692431D01*
X15903446Y44710789D01*
X15903446Y44740052D01*
X15892247Y44767088D01*
X15871554Y44787781D01*
X15844518Y44798979D01*
X15815255Y44798979D01*
X15788219Y44787780D01*
X15776853Y44778452D01*
X15737840Y44739439D01*
X15669325Y44705181D01*
X15419021Y44705181D01*
X15350505Y44739439D01*
X15320098Y44769847D01*
X15285840Y44838363D01*
X15285840Y45041048D01*
X15294693Y45058753D01*
X16564411Y45058753D01*
X16564411Y44820658D01*
X16565852Y44806026D01*
X16566883Y44803537D01*
X16567074Y44800849D01*
X16572329Y44787117D01*
X16619948Y44691879D01*
X16623911Y44685583D01*
X16624669Y44683753D01*
X16626358Y44681695D01*
X16627780Y44679436D01*
X16629278Y44678137D01*
X16633996Y44672388D01*
X16681615Y44624768D01*
X16687364Y44620050D01*
X16688665Y44618550D01*
X16690924Y44617128D01*
X16692981Y44615440D01*
X16694808Y44614683D01*
X16701108Y44610718D01*
X16796346Y44563099D01*
X16810077Y44557844D01*
X16812766Y44557653D01*
X16815255Y44556622D01*
X16829887Y44555181D01*
X17115601Y44555181D01*
X17130233Y44556622D01*
X17132722Y44557654D01*
X17135410Y44557844D01*
X17149142Y44563099D01*
X17244380Y44610718D01*
X17250679Y44614683D01*
X17252507Y44615440D01*
X17254563Y44617128D01*
X17256823Y44618550D01*
X17258123Y44620050D01*
X17263873Y44624768D01*
X17311491Y44672387D01*
X17320819Y44683753D01*
X17332017Y44710789D01*
X17332017Y44740052D01*
X17320818Y44767088D01*
X17300125Y44787781D01*
X17273089Y44798979D01*
X17243826Y44798979D01*
X17216790Y44787780D01*
X17205424Y44778452D01*
X17166411Y44739439D01*
X17097896Y44705181D01*
X16847592Y44705181D01*
X16779076Y44739439D01*
X16748669Y44769847D01*
X16714411Y44838363D01*
X16714411Y45041048D01*
X16748669Y45109564D01*
X16779076Y45139971D01*
X16847592Y45174229D01*
X16972744Y45174229D01*
X16980482Y45174992D01*
X16982450Y45174860D01*
X16983805Y45175319D01*
X16987376Y45175670D01*
X16998633Y45180334D01*
X17010171Y45184235D01*
X17012075Y45185901D01*
X17014412Y45186869D01*
X17023022Y45195480D01*
X17032195Y45203505D01*
X17033317Y45205775D01*
X17035104Y45207561D01*
X17039764Y45218812D01*
X17045167Y45229737D01*
X17045335Y45232261D01*
X17046303Y45234597D01*
X17046303Y45246782D01*
X17047113Y45258935D01*
X17046303Y45261331D01*
X17046303Y45263861D01*
X17041639Y45275119D01*
X17037738Y45286656D01*
X17035652Y45289574D01*
X17035104Y45290897D01*
X17033708Y45292293D01*
X17029187Y45298617D01*
X16804693Y45555181D01*
X17258458Y45555181D01*
X17273090Y45556622D01*
X17300126Y45567821D01*
X17320818Y45588513D01*
X17332017Y45615549D01*
X17332017Y45644813D01*
X17320818Y45671849D01*
X17300126Y45692541D01*
X17273090Y45703740D01*
X17258458Y45705181D01*
X16639411Y45705181D01*
X16631672Y45704419D01*
X16629705Y45704550D01*
X16628349Y45704092D01*
X16624779Y45703740D01*
X16613521Y45699077D01*
X16601984Y45695175D01*
X16600079Y45693510D01*
X16597743Y45692541D01*
X16589132Y45683931D01*
X16579960Y45675905D01*
X16578837Y45673636D01*
X16577051Y45671849D01*
X16572390Y45660599D01*
X16566988Y45649673D01*
X16566819Y45647150D01*
X16565852Y45644813D01*
X16565852Y45632629D01*
X16565042Y45620475D01*
X16565852Y45618080D01*
X16565852Y45615549D01*
X16570515Y45604292D01*
X16574417Y45592754D01*
X16576502Y45589837D01*
X16577051Y45588513D01*
X16578446Y45587118D01*
X16582968Y45580793D01*
X16809863Y45321485D01*
X16796346Y45316311D01*
X16701108Y45268692D01*
X16694808Y45264728D01*
X16692981Y45263970D01*
X16690924Y45262282D01*
X16688665Y45260860D01*
X16687365Y45259362D01*
X16681616Y45254643D01*
X16633997Y45207024D01*
X16629278Y45201275D01*
X16627780Y45199975D01*
X16626358Y45197716D01*
X16624670Y45195659D01*
X16623912Y45193832D01*
X16619948Y45187532D01*
X16572329Y45092294D01*
X16567074Y45078562D01*
X16566883Y45075875D01*
X16565852Y45073385D01*
X16564411Y45058753D01*
X15294693Y45058753D01*
X15320098Y45109564D01*
X15350505Y45139971D01*
X15419021Y45174229D01*
X15544173Y45174229D01*
X15551911Y45174992D01*
X15553879Y45174860D01*
X15555234Y45175319D01*
X15558805Y45175670D01*
X15570062Y45180334D01*
X15581600Y45184235D01*
X15583504Y45185901D01*
X15585841Y45186869D01*
X15594451Y45195480D01*
X15603624Y45203505D01*
X15604746Y45205775D01*
X15606533Y45207561D01*
X15611193Y45218812D01*
X15616596Y45229737D01*
X15616764Y45232261D01*
X15617732Y45234597D01*
X15617732Y45246782D01*
X15618542Y45258935D01*
X15617732Y45261331D01*
X15617732Y45263861D01*
X15613068Y45275119D01*
X15609167Y45286656D01*
X15607081Y45289574D01*
X15606533Y45290897D01*
X15605137Y45292293D01*
X15600616Y45298617D01*
X15376122Y45555181D01*
X15829887Y45555181D01*
X15844519Y45556622D01*
X15871555Y45567821D01*
X15892247Y45588513D01*
X15903446Y45615549D01*
X15903446Y45644813D01*
X15892247Y45671849D01*
X15871555Y45692541D01*
X15844519Y45703740D01*
X15829887Y45705181D01*
X15210840Y45705181D01*
X15203101Y45704419D01*
X15201134Y45704550D01*
X15199778Y45704092D01*
X15196208Y45703740D01*
X15184950Y45699077D01*
X15173413Y45695175D01*
X15171508Y45693510D01*
X15169172Y45692541D01*
X15160561Y45683931D01*
X15151389Y45675905D01*
X15150266Y45673636D01*
X15148480Y45671849D01*
X15143819Y45660599D01*
X15138417Y45649673D01*
X15138248Y45647150D01*
X15137281Y45644813D01*
X15137281Y45632629D01*
X15136471Y45620475D01*
X15137281Y45618080D01*
X15137281Y45615549D01*
X15141944Y45604292D01*
X15145846Y45592754D01*
X15147931Y45589837D01*
X15148480Y45588513D01*
X15149875Y45587118D01*
X15154397Y45580793D01*
X15381292Y45321485D01*
X15367775Y45316311D01*
X15272537Y45268692D01*
X15266237Y45264728D01*
X15264410Y45263970D01*
X15262353Y45262282D01*
X15260094Y45260860D01*
X15258794Y45259362D01*
X15253045Y45254643D01*
X15205426Y45207024D01*
X15200707Y45201275D01*
X15199209Y45199975D01*
X15197787Y45197716D01*
X15196099Y45195659D01*
X15195341Y45193832D01*
X15191377Y45187532D01*
X15143758Y45092294D01*
X15138503Y45078562D01*
X15138312Y45075875D01*
X15137281Y45073385D01*
X15135840Y45058753D01*
X14813706Y45058753D01*
X14996276Y45606464D01*
X14999536Y45620800D01*
X14997461Y45649990D01*
X14984375Y45676164D01*
X14962267Y45695338D01*
X14934505Y45704592D01*
X14905315Y45702517D01*
X14879142Y45689430D01*
X14859968Y45667323D01*
X14853974Y45653898D01*
X14591792Y44867352D01*
X14329610Y45653898D01*
X14323616Y45667324D01*
X14304442Y45689431D01*
X14278269Y45702517D01*
X14249079Y45704592D01*
X14221316Y45695338D01*
X14199209Y45676164D01*
X14186123Y45649991D01*
X14184048Y45620801D01*
X14072937Y45620801D01*
X14072937Y45816292D01*
X17443128Y45816292D01*
X17443128Y44444070D01*
G37*
G36*
X8790601Y51955181D02*
G01*
X8639676Y51955181D01*
X8525163Y51993352D01*
X8451050Y52067466D01*
X8412556Y52144453D01*
X8369173Y52317987D01*
X8369173Y52442376D01*
X8412556Y52615910D01*
X8451050Y52692897D01*
X8525163Y52767010D01*
X8639676Y52805181D01*
X8790601Y52805181D01*
X8790601Y51955181D01*
G37*
G36*
X11146950Y51694070D02*
G01*
X8108062Y51694070D01*
X8108062Y52451610D01*
X8219173Y52451610D01*
X8219173Y52308753D01*
X8219424Y52306200D01*
X8219262Y52305107D01*
X8220071Y52299634D01*
X8220614Y52294121D01*
X8221036Y52293100D01*
X8221412Y52290563D01*
X8269031Y52100087D01*
X8269416Y52099008D01*
X8269455Y52098468D01*
X8271782Y52092387D01*
X8273978Y52086241D01*
X8274300Y52085806D01*
X8274710Y52084736D01*
X8322329Y51989498D01*
X8326292Y51983202D01*
X8327050Y51981372D01*
X8328739Y51979314D01*
X8330161Y51977055D01*
X8331659Y51975756D01*
X8336378Y51970006D01*
X8431616Y51874767D01*
X8442981Y51865439D01*
X8445471Y51864408D01*
X8447506Y51862643D01*
X8460932Y51856649D01*
X8603788Y51809030D01*
X8611043Y51807381D01*
X8612874Y51806622D01*
X8615527Y51806361D01*
X8618125Y51805770D01*
X8620099Y51805911D01*
X8627506Y51805181D01*
X8865601Y51805181D01*
X8880233Y51806622D01*
X8907269Y51817821D01*
X8927961Y51838513D01*
X8939160Y51865549D01*
X8940601Y51880181D01*
X8940601Y52880181D01*
X9266792Y52880181D01*
X9266792Y51880181D01*
X9267162Y51876418D01*
X9266975Y51874942D01*
X9267496Y51873032D01*
X9268233Y51865549D01*
X9272050Y51856334D01*
X9274675Y51846710D01*
X9277602Y51842930D01*
X9279432Y51838513D01*
X9286482Y51831463D01*
X9292592Y51823573D01*
X9296745Y51821200D01*
X9300124Y51817821D01*
X9309336Y51814005D01*
X9318001Y51809054D01*
X9322744Y51808452D01*
X9327160Y51806622D01*
X9337134Y51806622D01*
X9347031Y51805364D01*
X9351643Y51806622D01*
X9356424Y51806622D01*
X9365639Y51810440D01*
X9375263Y51813064D01*
X9379043Y51815992D01*
X9383460Y51817821D01*
X9390510Y51824872D01*
X9398400Y51830981D01*
X9402752Y51837114D01*
X9404152Y51838513D01*
X9404721Y51839888D01*
X9406910Y51842971D01*
X9838220Y52597765D01*
X9838220Y51880181D01*
X9839661Y51865549D01*
X9850860Y51838513D01*
X9871552Y51817821D01*
X9898588Y51806622D01*
X9927852Y51806622D01*
X9954888Y51817821D01*
X9975580Y51838513D01*
X9986779Y51865549D01*
X9988220Y51880181D01*
X9988220Y52308753D01*
X10266792Y52308753D01*
X10266792Y51975420D01*
X10268233Y51960788D01*
X10272150Y51951332D01*
X10279431Y51933753D01*
X10288758Y51922388D01*
X10336377Y51874768D01*
X10347743Y51865440D01*
X10350231Y51864410D01*
X10352268Y51862643D01*
X10365694Y51856649D01*
X10508550Y51809030D01*
X10515805Y51807381D01*
X10517636Y51806622D01*
X10520289Y51806361D01*
X10522887Y51805770D01*
X10524861Y51805911D01*
X10532268Y51805181D01*
X10627506Y51805181D01*
X10634911Y51805911D01*
X10636886Y51805770D01*
X10639483Y51806361D01*
X10642138Y51806622D01*
X10643969Y51807381D01*
X10651223Y51809030D01*
X10794080Y51856649D01*
X10807505Y51862643D01*
X10809540Y51864409D01*
X10812031Y51865440D01*
X10823396Y51874767D01*
X10918635Y51970007D01*
X10923352Y51975756D01*
X10924851Y51977055D01*
X10926272Y51979314D01*
X10927962Y51981372D01*
X10928719Y51983202D01*
X10932683Y51989498D01*
X10980302Y52084736D01*
X10980711Y52085806D01*
X10981034Y52086241D01*
X10983226Y52092378D01*
X10985557Y52098467D01*
X10985595Y52099008D01*
X10985981Y52100087D01*
X11033600Y52290563D01*
X11033975Y52293100D01*
X11034398Y52294121D01*
X11034940Y52299634D01*
X11035750Y52305107D01*
X11035587Y52306200D01*
X11035839Y52308753D01*
X11035839Y52451610D01*
X11035587Y52454164D01*
X11035750Y52455256D01*
X11034940Y52460730D01*
X11034398Y52466242D01*
X11033975Y52467264D01*
X11033600Y52469800D01*
X10985981Y52660276D01*
X10985595Y52661356D01*
X10985557Y52661896D01*
X10983226Y52667986D01*
X10981034Y52674122D01*
X10980711Y52674558D01*
X10980302Y52675627D01*
X10932683Y52770865D01*
X10928720Y52777160D01*
X10927962Y52778992D01*
X10926270Y52781054D01*
X10924851Y52783308D01*
X10923354Y52784607D01*
X10918634Y52790357D01*
X10823396Y52885595D01*
X10812031Y52894922D01*
X10809540Y52895954D01*
X10807505Y52897719D01*
X10794080Y52903713D01*
X10651223Y52951332D01*
X10643969Y52952982D01*
X10642138Y52953740D01*
X10639483Y52954002D01*
X10636886Y52954592D01*
X10634911Y52954452D01*
X10627506Y52955181D01*
X10484649Y52955181D01*
X10470017Y52953740D01*
X10467528Y52952710D01*
X10464839Y52952518D01*
X10451108Y52947263D01*
X10355870Y52899644D01*
X10343427Y52891812D01*
X10324254Y52869704D01*
X10315000Y52841943D01*
X10317074Y52812753D01*
X10330161Y52786578D01*
X10352269Y52767405D01*
X10380030Y52758151D01*
X10409220Y52760225D01*
X10422952Y52765480D01*
X10502354Y52805181D01*
X10615336Y52805181D01*
X10729849Y52767010D01*
X10803962Y52692897D01*
X10842455Y52615910D01*
X10885839Y52442376D01*
X10885839Y52317987D01*
X10842455Y52144453D01*
X10803961Y52067466D01*
X10729849Y51993353D01*
X10615336Y51955181D01*
X10544438Y51955181D01*
X10429925Y51993352D01*
X10416792Y52006486D01*
X10416792Y52233753D01*
X10532268Y52233753D01*
X10546900Y52235194D01*
X10573936Y52246393D01*
X10594628Y52267085D01*
X10605827Y52294121D01*
X10605827Y52323385D01*
X10594628Y52350421D01*
X10573936Y52371113D01*
X10546900Y52382312D01*
X10532268Y52383753D01*
X10341792Y52383753D01*
X10327160Y52382312D01*
X10300124Y52371113D01*
X10279432Y52350421D01*
X10268233Y52323385D01*
X10266792Y52308753D01*
X9988220Y52308753D01*
X9988220Y52880181D01*
X9987849Y52883945D01*
X9988037Y52885420D01*
X9987515Y52887331D01*
X9986779Y52894813D01*
X9982961Y52904029D01*
X9980337Y52913652D01*
X9977409Y52917433D01*
X9975580Y52921849D01*
X9968529Y52928900D01*
X9962420Y52936789D01*
X9958266Y52939163D01*
X9954888Y52942541D01*
X9945675Y52946358D01*
X9937011Y52951308D01*
X9932267Y52951911D01*
X9927852Y52953740D01*
X9917878Y52953740D01*
X9907981Y52954998D01*
X9903369Y52953740D01*
X9898588Y52953740D01*
X9889371Y52949923D01*
X9879750Y52947298D01*
X9875970Y52944372D01*
X9871552Y52942541D01*
X9864500Y52935490D01*
X9856612Y52929381D01*
X9852257Y52923247D01*
X9850860Y52921849D01*
X9850291Y52920477D01*
X9848102Y52917392D01*
X9416792Y52162598D01*
X9416792Y52880181D01*
X9415351Y52894813D01*
X9404152Y52921849D01*
X9383460Y52942541D01*
X9356424Y52953740D01*
X9327160Y52953740D01*
X9300124Y52942541D01*
X9279432Y52921849D01*
X9268233Y52894813D01*
X9266792Y52880181D01*
X8940601Y52880181D01*
X8939160Y52894813D01*
X8927961Y52921849D01*
X8907269Y52942541D01*
X8880233Y52953740D01*
X8865601Y52955181D01*
X8627506Y52955181D01*
X8620099Y52954452D01*
X8618125Y52954592D01*
X8615527Y52954002D01*
X8612874Y52953740D01*
X8611043Y52952982D01*
X8603788Y52951332D01*
X8460932Y52903713D01*
X8447506Y52897719D01*
X8445471Y52895955D01*
X8442981Y52894923D01*
X8431616Y52885595D01*
X8336378Y52790357D01*
X8331659Y52784608D01*
X8330161Y52783308D01*
X8328739Y52781049D01*
X8327051Y52778992D01*
X8326293Y52777165D01*
X8322329Y52770865D01*
X8274710Y52675627D01*
X8274300Y52674558D01*
X8273978Y52674122D01*
X8271782Y52667977D01*
X8269455Y52661895D01*
X8269416Y52661356D01*
X8269031Y52660276D01*
X8221412Y52469800D01*
X8221036Y52467264D01*
X8220614Y52466242D01*
X8220071Y52460730D01*
X8219262Y52455256D01*
X8219424Y52454164D01*
X8219173Y52451610D01*
X8108062Y52451610D01*
X8108062Y53066292D01*
X11146950Y53066292D01*
X11146950Y51694070D01*
G37*
G36*
X15797365Y12520923D02*
G01*
X15869307Y12448981D01*
X15909649Y12287614D01*
X15909649Y11972749D01*
X15869307Y11811383D01*
X15797364Y11739439D01*
X15728849Y11705181D01*
X15573783Y11705181D01*
X15505267Y11739439D01*
X15433324Y11811383D01*
X15392983Y11972749D01*
X15392983Y12287614D01*
X15433324Y12448981D01*
X15505267Y12520923D01*
X15573783Y12555181D01*
X15728849Y12555181D01*
X15797365Y12520923D01*
G37*
G36*
X16599331Y11444070D02*
G01*
X14179491Y11444070D01*
X14179491Y12439705D01*
X14290602Y12439705D01*
X14290602Y12344467D01*
X14291331Y12337062D01*
X14291191Y12335087D01*
X14291781Y12332490D01*
X14292043Y12329835D01*
X14292801Y12328004D01*
X14294451Y12320750D01*
X14342070Y12177893D01*
X14348064Y12164468D01*
X14349829Y12162433D01*
X14350861Y12159942D01*
X14360188Y12148577D01*
X14803583Y11705181D01*
X14365602Y11705181D01*
X14350970Y11703740D01*
X14323934Y11692541D01*
X14303242Y11671849D01*
X14292043Y11644813D01*
X14292043Y11615549D01*
X14303242Y11588513D01*
X14323934Y11567821D01*
X14350970Y11556622D01*
X14365602Y11555181D01*
X14984649Y11555181D01*
X14999281Y11556622D01*
X15007199Y11559902D01*
X15026317Y11567820D01*
X15047009Y11588513D01*
X15058208Y11615549D01*
X15058208Y11644812D01*
X15047010Y11671849D01*
X15037682Y11683214D01*
X14478773Y12242124D01*
X14460532Y12296848D01*
X15242983Y12296848D01*
X15242983Y11963515D01*
X15243234Y11960962D01*
X15243072Y11959869D01*
X15243881Y11954396D01*
X15244424Y11948883D01*
X15244846Y11947862D01*
X15245222Y11945325D01*
X15292841Y11754849D01*
X15297788Y11741003D01*
X15301107Y11736524D01*
X15303241Y11731372D01*
X15312569Y11720006D01*
X15407807Y11624767D01*
X15413557Y11620047D01*
X15414856Y11618550D01*
X15417110Y11617131D01*
X15419172Y11615439D01*
X15421004Y11614681D01*
X15427299Y11610718D01*
X15522537Y11563099D01*
X15536268Y11557844D01*
X15538957Y11557653D01*
X15541446Y11556622D01*
X15556078Y11555181D01*
X15746554Y11555181D01*
X15761186Y11556622D01*
X15763675Y11557654D01*
X15766363Y11557844D01*
X15780095Y11563099D01*
X15875333Y11610718D01*
X15881632Y11614683D01*
X15883460Y11615440D01*
X15885516Y11617129D01*
X15887776Y11618550D01*
X15889075Y11620049D01*
X15894825Y11624767D01*
X15990064Y11720007D01*
X15999391Y11731372D01*
X16001524Y11736524D01*
X16004844Y11741003D01*
X16009791Y11754849D01*
X16057410Y11945325D01*
X16057785Y11947862D01*
X16058208Y11948883D01*
X16058750Y11954396D01*
X16059560Y11959869D01*
X16059397Y11960962D01*
X16059649Y11963515D01*
X16059649Y12296848D01*
X16059397Y12299402D01*
X16059560Y12300494D01*
X16058750Y12305968D01*
X16058208Y12311480D01*
X16057785Y12312502D01*
X16057410Y12315038D01*
X16009791Y12505514D01*
X16004844Y12519360D01*
X16001525Y12523839D01*
X15999391Y12528992D01*
X15990063Y12540357D01*
X15900239Y12630181D01*
X16338220Y12630181D01*
X16338220Y11630181D01*
X16339661Y11615549D01*
X16350860Y11588513D01*
X16371552Y11567821D01*
X16398588Y11556622D01*
X16427852Y11556622D01*
X16454888Y11567821D01*
X16475580Y11588513D01*
X16486779Y11615549D01*
X16488220Y11630181D01*
X16488220Y12630181D01*
X16486779Y12644813D01*
X16475580Y12671849D01*
X16454888Y12692541D01*
X16427852Y12703740D01*
X16398588Y12703740D01*
X16371552Y12692541D01*
X16350860Y12671849D01*
X16339661Y12644813D01*
X16338220Y12630181D01*
X15900239Y12630181D01*
X15894825Y12635595D01*
X15889075Y12640314D01*
X15887776Y12641812D01*
X15885516Y12643234D01*
X15883460Y12644922D01*
X15881632Y12645680D01*
X15875333Y12649644D01*
X15780095Y12697263D01*
X15766363Y12702518D01*
X15763675Y12702709D01*
X15761186Y12703740D01*
X15746554Y12705181D01*
X15556078Y12705181D01*
X15541446Y12703740D01*
X15538957Y12702710D01*
X15536268Y12702518D01*
X15522537Y12697263D01*
X15427299Y12649644D01*
X15421004Y12645682D01*
X15419172Y12644923D01*
X15417110Y12643232D01*
X15414856Y12641812D01*
X15413557Y12640316D01*
X15407807Y12635595D01*
X15312569Y12540357D01*
X15303242Y12528992D01*
X15301108Y12523842D01*
X15297788Y12519360D01*
X15292841Y12505514D01*
X15245222Y12315038D01*
X15244846Y12312502D01*
X15244424Y12311480D01*
X15243881Y12305968D01*
X15243072Y12300494D01*
X15243234Y12299402D01*
X15242983Y12296848D01*
X14460532Y12296848D01*
X14440602Y12356638D01*
X14440602Y12422000D01*
X14474860Y12490516D01*
X14505267Y12520923D01*
X14573783Y12555181D01*
X14776468Y12555181D01*
X14844984Y12520923D01*
X14883997Y12481910D01*
X14895362Y12472583D01*
X14922398Y12461384D01*
X14951661Y12461384D01*
X14978697Y12472583D01*
X14999390Y12493276D01*
X15010589Y12520312D01*
X15010589Y12549575D01*
X14999390Y12576611D01*
X14990063Y12587976D01*
X14942444Y12635595D01*
X14936694Y12640314D01*
X14935395Y12641812D01*
X14933135Y12643234D01*
X14931079Y12644922D01*
X14929251Y12645680D01*
X14922952Y12649644D01*
X14827714Y12697263D01*
X14813982Y12702518D01*
X14811294Y12702709D01*
X14808805Y12703740D01*
X14794173Y12705181D01*
X14556078Y12705181D01*
X14541446Y12703740D01*
X14538957Y12702710D01*
X14536268Y12702518D01*
X14522537Y12697263D01*
X14427299Y12649644D01*
X14420999Y12645680D01*
X14419172Y12644922D01*
X14417115Y12643234D01*
X14414856Y12641812D01*
X14413556Y12640314D01*
X14407807Y12635595D01*
X14360188Y12587976D01*
X14355469Y12582227D01*
X14353971Y12580927D01*
X14352549Y12578668D01*
X14350861Y12576611D01*
X14350103Y12574784D01*
X14346139Y12568484D01*
X14298520Y12473246D01*
X14293265Y12459514D01*
X14293074Y12456827D01*
X14292043Y12454337D01*
X14290602Y12439705D01*
X14179491Y12439705D01*
X14179491Y12816292D01*
X16599331Y12816292D01*
X16599331Y11444070D01*
G37*
G36*
X8790601Y5955181D02*
G01*
X8639676Y5955181D01*
X8525163Y5993352D01*
X8451050Y6067466D01*
X8412556Y6144453D01*
X8369173Y6317987D01*
X8369173Y6442376D01*
X8412556Y6615910D01*
X8451050Y6692897D01*
X8525163Y6767010D01*
X8639676Y6805181D01*
X8790601Y6805181D01*
X8790601Y5955181D01*
G37*
G36*
X11146950Y5694070D02*
G01*
X8108062Y5694070D01*
X8108062Y6451610D01*
X8219173Y6451610D01*
X8219173Y6308753D01*
X8219424Y6306200D01*
X8219262Y6305107D01*
X8220071Y6299634D01*
X8220614Y6294121D01*
X8221036Y6293100D01*
X8221412Y6290563D01*
X8269031Y6100087D01*
X8269416Y6099008D01*
X8269455Y6098468D01*
X8271782Y6092387D01*
X8273978Y6086241D01*
X8274300Y6085806D01*
X8274710Y6084736D01*
X8322329Y5989498D01*
X8326292Y5983202D01*
X8327050Y5981372D01*
X8328739Y5979314D01*
X8330161Y5977055D01*
X8331659Y5975756D01*
X8336378Y5970006D01*
X8431616Y5874767D01*
X8442981Y5865439D01*
X8445471Y5864408D01*
X8447506Y5862643D01*
X8460932Y5856649D01*
X8603788Y5809030D01*
X8611043Y5807381D01*
X8612874Y5806622D01*
X8615527Y5806361D01*
X8618125Y5805770D01*
X8620099Y5805911D01*
X8627506Y5805181D01*
X8865601Y5805181D01*
X8880233Y5806622D01*
X8907269Y5817821D01*
X8927961Y5838513D01*
X8939160Y5865549D01*
X8940601Y5880181D01*
X8940601Y6880181D01*
X9266792Y6880181D01*
X9266792Y5880181D01*
X9267162Y5876418D01*
X9266975Y5874942D01*
X9267496Y5873032D01*
X9268233Y5865549D01*
X9272050Y5856334D01*
X9274675Y5846710D01*
X9277602Y5842930D01*
X9279432Y5838513D01*
X9286482Y5831463D01*
X9292592Y5823573D01*
X9296745Y5821200D01*
X9300124Y5817821D01*
X9309336Y5814005D01*
X9318001Y5809054D01*
X9322744Y5808452D01*
X9327160Y5806622D01*
X9337134Y5806622D01*
X9347031Y5805364D01*
X9351643Y5806622D01*
X9356424Y5806622D01*
X9365639Y5810440D01*
X9375263Y5813064D01*
X9379043Y5815992D01*
X9383460Y5817821D01*
X9390510Y5824872D01*
X9398400Y5830981D01*
X9402752Y5837114D01*
X9404152Y5838513D01*
X9404721Y5839888D01*
X9406910Y5842971D01*
X9838220Y6597765D01*
X9838220Y5880181D01*
X9839661Y5865549D01*
X9850860Y5838513D01*
X9871552Y5817821D01*
X9898588Y5806622D01*
X9927852Y5806622D01*
X9954888Y5817821D01*
X9975580Y5838513D01*
X9986779Y5865549D01*
X9988220Y5880181D01*
X9988220Y6308753D01*
X10266792Y6308753D01*
X10266792Y5975420D01*
X10268233Y5960788D01*
X10272150Y5951332D01*
X10279431Y5933753D01*
X10288758Y5922388D01*
X10336377Y5874768D01*
X10347743Y5865440D01*
X10350231Y5864410D01*
X10352268Y5862643D01*
X10365694Y5856649D01*
X10508550Y5809030D01*
X10515805Y5807381D01*
X10517636Y5806622D01*
X10520289Y5806361D01*
X10522887Y5805770D01*
X10524861Y5805911D01*
X10532268Y5805181D01*
X10627506Y5805181D01*
X10634911Y5805911D01*
X10636886Y5805770D01*
X10639483Y5806361D01*
X10642138Y5806622D01*
X10643969Y5807381D01*
X10651223Y5809030D01*
X10794080Y5856649D01*
X10807505Y5862643D01*
X10809540Y5864409D01*
X10812031Y5865440D01*
X10823396Y5874767D01*
X10918635Y5970007D01*
X10923352Y5975756D01*
X10924851Y5977055D01*
X10926272Y5979314D01*
X10927962Y5981372D01*
X10928719Y5983202D01*
X10932683Y5989498D01*
X10980302Y6084736D01*
X10980711Y6085806D01*
X10981034Y6086241D01*
X10983226Y6092378D01*
X10985557Y6098467D01*
X10985595Y6099008D01*
X10985981Y6100087D01*
X11033600Y6290563D01*
X11033975Y6293100D01*
X11034398Y6294121D01*
X11034940Y6299634D01*
X11035750Y6305107D01*
X11035587Y6306200D01*
X11035839Y6308753D01*
X11035839Y6451610D01*
X11035587Y6454164D01*
X11035750Y6455256D01*
X11034940Y6460730D01*
X11034398Y6466242D01*
X11033975Y6467264D01*
X11033600Y6469800D01*
X10985981Y6660276D01*
X10985595Y6661356D01*
X10985557Y6661896D01*
X10983226Y6667986D01*
X10981034Y6674122D01*
X10980711Y6674558D01*
X10980302Y6675627D01*
X10932683Y6770865D01*
X10928720Y6777160D01*
X10927962Y6778992D01*
X10926270Y6781054D01*
X10924851Y6783308D01*
X10923354Y6784607D01*
X10918634Y6790357D01*
X10823396Y6885595D01*
X10812031Y6894922D01*
X10809540Y6895954D01*
X10807505Y6897719D01*
X10794080Y6903713D01*
X10651223Y6951332D01*
X10643969Y6952982D01*
X10642138Y6953740D01*
X10639483Y6954002D01*
X10636886Y6954592D01*
X10634911Y6954452D01*
X10627506Y6955181D01*
X10484649Y6955181D01*
X10470017Y6953740D01*
X10467528Y6952710D01*
X10464839Y6952518D01*
X10451108Y6947263D01*
X10355870Y6899644D01*
X10343427Y6891812D01*
X10324254Y6869704D01*
X10315000Y6841943D01*
X10317074Y6812753D01*
X10330161Y6786578D01*
X10352269Y6767405D01*
X10380030Y6758151D01*
X10409220Y6760225D01*
X10422952Y6765480D01*
X10502354Y6805181D01*
X10615336Y6805181D01*
X10729849Y6767010D01*
X10803962Y6692897D01*
X10842455Y6615910D01*
X10885839Y6442376D01*
X10885839Y6317987D01*
X10842455Y6144453D01*
X10803961Y6067466D01*
X10729849Y5993353D01*
X10615336Y5955181D01*
X10544438Y5955181D01*
X10429925Y5993352D01*
X10416792Y6006486D01*
X10416792Y6233753D01*
X10532268Y6233753D01*
X10546900Y6235194D01*
X10573936Y6246393D01*
X10594628Y6267085D01*
X10605827Y6294121D01*
X10605827Y6323385D01*
X10594628Y6350421D01*
X10573936Y6371113D01*
X10546900Y6382312D01*
X10532268Y6383753D01*
X10341792Y6383753D01*
X10327160Y6382312D01*
X10300124Y6371113D01*
X10279432Y6350421D01*
X10268233Y6323385D01*
X10266792Y6308753D01*
X9988220Y6308753D01*
X9988220Y6880181D01*
X9987849Y6883945D01*
X9988037Y6885420D01*
X9987515Y6887331D01*
X9986779Y6894813D01*
X9982961Y6904029D01*
X9980337Y6913652D01*
X9977409Y6917433D01*
X9975580Y6921849D01*
X9968529Y6928900D01*
X9962420Y6936789D01*
X9958266Y6939163D01*
X9954888Y6942541D01*
X9945675Y6946358D01*
X9937011Y6951308D01*
X9932267Y6951911D01*
X9927852Y6953740D01*
X9917878Y6953740D01*
X9907981Y6954998D01*
X9903369Y6953740D01*
X9898588Y6953740D01*
X9889371Y6949923D01*
X9879750Y6947298D01*
X9875970Y6944372D01*
X9871552Y6942541D01*
X9864500Y6935490D01*
X9856612Y6929381D01*
X9852257Y6923247D01*
X9850860Y6921849D01*
X9850291Y6920477D01*
X9848102Y6917392D01*
X9416792Y6162598D01*
X9416792Y6880181D01*
X9415351Y6894813D01*
X9404152Y6921849D01*
X9383460Y6942541D01*
X9356424Y6953740D01*
X9327160Y6953740D01*
X9300124Y6942541D01*
X9279432Y6921849D01*
X9268233Y6894813D01*
X9266792Y6880181D01*
X8940601Y6880181D01*
X8939160Y6894813D01*
X8927961Y6921849D01*
X8907269Y6942541D01*
X8880233Y6953740D01*
X8865601Y6955181D01*
X8627506Y6955181D01*
X8620099Y6954452D01*
X8618125Y6954592D01*
X8615527Y6954002D01*
X8612874Y6953740D01*
X8611043Y6952982D01*
X8603788Y6951332D01*
X8460932Y6903713D01*
X8447506Y6897719D01*
X8445471Y6895955D01*
X8442981Y6894923D01*
X8431616Y6885595D01*
X8336378Y6790357D01*
X8331659Y6784608D01*
X8330161Y6783308D01*
X8328739Y6781049D01*
X8327051Y6778992D01*
X8326293Y6777165D01*
X8322329Y6770865D01*
X8274710Y6675627D01*
X8274300Y6674558D01*
X8273978Y6674122D01*
X8271782Y6667977D01*
X8269455Y6661895D01*
X8269416Y6661356D01*
X8269031Y6660276D01*
X8221412Y6469800D01*
X8221036Y6467264D01*
X8220614Y6466242D01*
X8220071Y6460730D01*
X8219262Y6455256D01*
X8219424Y6454164D01*
X8219173Y6451610D01*
X8108062Y6451610D01*
X8108062Y7066292D01*
X11146950Y7066292D01*
X11146950Y5694070D01*
G37*
G36*
X17443128Y21444070D02*
G01*
X14072937Y21444070D01*
X14072937Y22620801D01*
X14184048Y22620801D01*
X14187308Y22606464D01*
X14520641Y21606464D01*
X14526635Y21593039D01*
X14530145Y21588992D01*
X14532542Y21584198D01*
X14539650Y21578033D01*
X14545809Y21570932D01*
X14550598Y21568538D01*
X14554649Y21565024D01*
X14563574Y21562050D01*
X14571982Y21557845D01*
X14577326Y21557466D01*
X14582412Y21555770D01*
X14591792Y21556437D01*
X14601172Y21555770D01*
X14606257Y21557466D01*
X14611602Y21557845D01*
X14620012Y21562051D01*
X14628934Y21565024D01*
X14632981Y21568535D01*
X14637775Y21570931D01*
X14643938Y21578037D01*
X14651042Y21584198D01*
X14653437Y21588990D01*
X14656949Y21593038D01*
X14662943Y21606464D01*
X14813706Y22058753D01*
X15135840Y22058753D01*
X15135840Y21820658D01*
X15137281Y21806026D01*
X15138312Y21803537D01*
X15138503Y21800849D01*
X15143758Y21787117D01*
X15191377Y21691879D01*
X15195340Y21685583D01*
X15196098Y21683753D01*
X15197787Y21681695D01*
X15199209Y21679436D01*
X15200707Y21678137D01*
X15205425Y21672388D01*
X15253044Y21624768D01*
X15258793Y21620050D01*
X15260094Y21618550D01*
X15262353Y21617128D01*
X15264410Y21615440D01*
X15266237Y21614683D01*
X15272537Y21610718D01*
X15367775Y21563099D01*
X15381506Y21557844D01*
X15384195Y21557653D01*
X15386684Y21556622D01*
X15401316Y21555181D01*
X15687030Y21555181D01*
X15701662Y21556622D01*
X15704151Y21557654D01*
X15706839Y21557844D01*
X15720571Y21563099D01*
X15815809Y21610718D01*
X15822108Y21614683D01*
X15823936Y21615440D01*
X15825992Y21617128D01*
X15828252Y21618550D01*
X15829552Y21620050D01*
X15835302Y21624768D01*
X15882920Y21672387D01*
X15892248Y21683753D01*
X15895842Y21692431D01*
X16089661Y21692431D01*
X16089661Y21663168D01*
X16094698Y21651009D01*
X16100860Y21636132D01*
X16110187Y21624767D01*
X16157806Y21577148D01*
X16169171Y21567821D01*
X16196207Y21556622D01*
X16196208Y21556622D01*
X16225470Y21556622D01*
X16225471Y21556622D01*
X16252507Y21567821D01*
X16263872Y21577148D01*
X16311491Y21624767D01*
X16320818Y21636132D01*
X16332017Y21663168D01*
X16332017Y21692431D01*
X16331971Y21692541D01*
X16320819Y21719467D01*
X16311491Y21730833D01*
X16263873Y21778452D01*
X16252507Y21787780D01*
X16252506Y21787781D01*
X16236669Y21794341D01*
X16225471Y21798979D01*
X16225470Y21798979D01*
X16196207Y21798979D01*
X16185009Y21794341D01*
X16169172Y21787781D01*
X16169171Y21787780D01*
X16157805Y21778452D01*
X16110186Y21730832D01*
X16100859Y21719467D01*
X16089661Y21692431D01*
X15895842Y21692431D01*
X15903446Y21710789D01*
X15903446Y21740052D01*
X15892247Y21767088D01*
X15871554Y21787781D01*
X15844518Y21798979D01*
X15815255Y21798979D01*
X15788219Y21787780D01*
X15776853Y21778452D01*
X15737840Y21739439D01*
X15669325Y21705181D01*
X15419021Y21705181D01*
X15350505Y21739439D01*
X15320098Y21769847D01*
X15285840Y21838363D01*
X15285840Y22041048D01*
X15294693Y22058753D01*
X16564411Y22058753D01*
X16564411Y21820658D01*
X16565852Y21806026D01*
X16566883Y21803537D01*
X16567074Y21800849D01*
X16572329Y21787117D01*
X16619948Y21691879D01*
X16623911Y21685583D01*
X16624669Y21683753D01*
X16626358Y21681695D01*
X16627780Y21679436D01*
X16629278Y21678137D01*
X16633996Y21672388D01*
X16681615Y21624768D01*
X16687364Y21620050D01*
X16688665Y21618550D01*
X16690924Y21617128D01*
X16692981Y21615440D01*
X16694808Y21614683D01*
X16701108Y21610718D01*
X16796346Y21563099D01*
X16810077Y21557844D01*
X16812766Y21557653D01*
X16815255Y21556622D01*
X16829887Y21555181D01*
X17115601Y21555181D01*
X17130233Y21556622D01*
X17132722Y21557654D01*
X17135410Y21557844D01*
X17149142Y21563099D01*
X17244380Y21610718D01*
X17250679Y21614683D01*
X17252507Y21615440D01*
X17254563Y21617128D01*
X17256823Y21618550D01*
X17258123Y21620050D01*
X17263873Y21624768D01*
X17311491Y21672387D01*
X17320819Y21683753D01*
X17332017Y21710789D01*
X17332017Y21740052D01*
X17320818Y21767088D01*
X17300125Y21787781D01*
X17273089Y21798979D01*
X17243826Y21798979D01*
X17216790Y21787780D01*
X17205424Y21778452D01*
X17166411Y21739439D01*
X17097896Y21705181D01*
X16847592Y21705181D01*
X16779076Y21739439D01*
X16748669Y21769847D01*
X16714411Y21838363D01*
X16714411Y22041048D01*
X16748669Y22109564D01*
X16779076Y22139971D01*
X16847592Y22174229D01*
X16972744Y22174229D01*
X16980482Y22174992D01*
X16982450Y22174860D01*
X16983805Y22175319D01*
X16987376Y22175670D01*
X16998633Y22180334D01*
X17010171Y22184235D01*
X17012075Y22185901D01*
X17014412Y22186869D01*
X17023022Y22195480D01*
X17032195Y22203505D01*
X17033317Y22205775D01*
X17035104Y22207561D01*
X17039764Y22218812D01*
X17045167Y22229737D01*
X17045335Y22232261D01*
X17046303Y22234597D01*
X17046303Y22246782D01*
X17047113Y22258935D01*
X17046303Y22261331D01*
X17046303Y22263861D01*
X17041639Y22275119D01*
X17037738Y22286656D01*
X17035652Y22289574D01*
X17035104Y22290897D01*
X17033708Y22292293D01*
X17029187Y22298617D01*
X16804693Y22555181D01*
X17258458Y22555181D01*
X17273090Y22556622D01*
X17300126Y22567821D01*
X17320818Y22588513D01*
X17332017Y22615549D01*
X17332017Y22644813D01*
X17320818Y22671849D01*
X17300126Y22692541D01*
X17273090Y22703740D01*
X17258458Y22705181D01*
X16639411Y22705181D01*
X16631672Y22704419D01*
X16629705Y22704550D01*
X16628349Y22704092D01*
X16624779Y22703740D01*
X16613521Y22699077D01*
X16601984Y22695175D01*
X16600079Y22693510D01*
X16597743Y22692541D01*
X16589132Y22683931D01*
X16579960Y22675905D01*
X16578837Y22673636D01*
X16577051Y22671849D01*
X16572390Y22660599D01*
X16566988Y22649673D01*
X16566819Y22647150D01*
X16565852Y22644813D01*
X16565852Y22632629D01*
X16565042Y22620475D01*
X16565852Y22618080D01*
X16565852Y22615549D01*
X16570515Y22604292D01*
X16574417Y22592754D01*
X16576502Y22589837D01*
X16577051Y22588513D01*
X16578446Y22587118D01*
X16582968Y22580793D01*
X16809863Y22321485D01*
X16796346Y22316311D01*
X16701108Y22268692D01*
X16694808Y22264728D01*
X16692981Y22263970D01*
X16690924Y22262282D01*
X16688665Y22260860D01*
X16687365Y22259362D01*
X16681616Y22254643D01*
X16633997Y22207024D01*
X16629278Y22201275D01*
X16627780Y22199975D01*
X16626358Y22197716D01*
X16624670Y22195659D01*
X16623912Y22193832D01*
X16619948Y22187532D01*
X16572329Y22092294D01*
X16567074Y22078562D01*
X16566883Y22075875D01*
X16565852Y22073385D01*
X16564411Y22058753D01*
X15294693Y22058753D01*
X15320098Y22109564D01*
X15350505Y22139971D01*
X15419021Y22174229D01*
X15544173Y22174229D01*
X15551911Y22174992D01*
X15553879Y22174860D01*
X15555234Y22175319D01*
X15558805Y22175670D01*
X15570062Y22180334D01*
X15581600Y22184235D01*
X15583504Y22185901D01*
X15585841Y22186869D01*
X15594451Y22195480D01*
X15603624Y22203505D01*
X15604746Y22205775D01*
X15606533Y22207561D01*
X15611193Y22218812D01*
X15616596Y22229737D01*
X15616764Y22232261D01*
X15617732Y22234597D01*
X15617732Y22246782D01*
X15618542Y22258935D01*
X15617732Y22261331D01*
X15617732Y22263861D01*
X15613068Y22275119D01*
X15609167Y22286656D01*
X15607081Y22289574D01*
X15606533Y22290897D01*
X15605137Y22292293D01*
X15600616Y22298617D01*
X15376122Y22555181D01*
X15829887Y22555181D01*
X15844519Y22556622D01*
X15871555Y22567821D01*
X15892247Y22588513D01*
X15903446Y22615549D01*
X15903446Y22644813D01*
X15892247Y22671849D01*
X15871555Y22692541D01*
X15844519Y22703740D01*
X15829887Y22705181D01*
X15210840Y22705181D01*
X15203101Y22704419D01*
X15201134Y22704550D01*
X15199778Y22704092D01*
X15196208Y22703740D01*
X15184950Y22699077D01*
X15173413Y22695175D01*
X15171508Y22693510D01*
X15169172Y22692541D01*
X15160561Y22683931D01*
X15151389Y22675905D01*
X15150266Y22673636D01*
X15148480Y22671849D01*
X15143819Y22660599D01*
X15138417Y22649673D01*
X15138248Y22647150D01*
X15137281Y22644813D01*
X15137281Y22632629D01*
X15136471Y22620475D01*
X15137281Y22618080D01*
X15137281Y22615549D01*
X15141944Y22604292D01*
X15145846Y22592754D01*
X15147931Y22589837D01*
X15148480Y22588513D01*
X15149875Y22587118D01*
X15154397Y22580793D01*
X15381292Y22321485D01*
X15367775Y22316311D01*
X15272537Y22268692D01*
X15266237Y22264728D01*
X15264410Y22263970D01*
X15262353Y22262282D01*
X15260094Y22260860D01*
X15258794Y22259362D01*
X15253045Y22254643D01*
X15205426Y22207024D01*
X15200707Y22201275D01*
X15199209Y22199975D01*
X15197787Y22197716D01*
X15196099Y22195659D01*
X15195341Y22193832D01*
X15191377Y22187532D01*
X15143758Y22092294D01*
X15138503Y22078562D01*
X15138312Y22075875D01*
X15137281Y22073385D01*
X15135840Y22058753D01*
X14813706Y22058753D01*
X14996276Y22606464D01*
X14999536Y22620800D01*
X14997461Y22649990D01*
X14984375Y22676164D01*
X14962267Y22695338D01*
X14934505Y22704592D01*
X14905315Y22702517D01*
X14879142Y22689430D01*
X14859968Y22667323D01*
X14853974Y22653898D01*
X14591792Y21867352D01*
X14329610Y22653898D01*
X14323616Y22667324D01*
X14304442Y22689431D01*
X14278269Y22702517D01*
X14249079Y22704592D01*
X14221316Y22695338D01*
X14199209Y22676164D01*
X14186123Y22649991D01*
X14184048Y22620801D01*
X14072937Y22620801D01*
X14072937Y22816292D01*
X17443128Y22816292D01*
X17443128Y21444070D01*
G37*
G36*
X19481077Y34455181D02*
G01*
X19330152Y34455181D01*
X19215639Y34493352D01*
X19141526Y34567466D01*
X19103032Y34644453D01*
X19059649Y34817987D01*
X19059649Y34942376D01*
X19103032Y35115910D01*
X19141526Y35192897D01*
X19215639Y35267010D01*
X19330152Y35305181D01*
X19481077Y35305181D01*
X19481077Y34455181D01*
G37*
G36*
X20356782Y34740896D02*
G01*
X20088706Y34740896D01*
X20222744Y35143011D01*
X20356782Y34740896D01*
G37*
G36*
X20741599Y34194070D02*
G01*
X13751030Y34194070D01*
X13751030Y34384263D01*
X13862141Y34384263D01*
X13866280Y34355294D01*
X13881189Y34330113D01*
X13904600Y34312555D01*
X13932948Y34305292D01*
X13961917Y34309431D01*
X13987098Y34324340D01*
X13997030Y34335181D01*
X14373715Y34837430D01*
X14433458Y34777687D01*
X14433458Y34380181D01*
X14434899Y34365549D01*
X14446098Y34338513D01*
X14466790Y34317821D01*
X14493826Y34306622D01*
X14523090Y34306622D01*
X14550126Y34317821D01*
X14570818Y34338513D01*
X14582017Y34365549D01*
X14583458Y34380181D01*
X14583458Y34394813D01*
X14768233Y34394813D01*
X14768233Y34365549D01*
X14779432Y34338513D01*
X14800124Y34317821D01*
X14827160Y34306622D01*
X14841792Y34305181D01*
X15317982Y34305181D01*
X15332614Y34306622D01*
X15359650Y34317821D01*
X15380342Y34338513D01*
X15391541Y34365549D01*
X15392982Y34380181D01*
X15392982Y35299574D01*
X15672995Y35299574D01*
X15672995Y35270312D01*
X15684194Y35243275D01*
X15704886Y35222583D01*
X15731923Y35211384D01*
X15761185Y35211384D01*
X15788222Y35222583D01*
X15799587Y35231910D01*
X15834687Y35267010D01*
X15949200Y35305181D01*
X16020098Y35305181D01*
X16134611Y35267010D01*
X16208724Y35192897D01*
X16247217Y35115910D01*
X16290601Y34942376D01*
X16290601Y34817987D01*
X16247217Y34644453D01*
X16208723Y34567466D01*
X16134611Y34493353D01*
X16020098Y34455181D01*
X15949200Y34455181D01*
X15834687Y34493352D01*
X15799588Y34528452D01*
X15788222Y34537780D01*
X15761186Y34548979D01*
X15731923Y34548979D01*
X15704887Y34537781D01*
X15684194Y34517088D01*
X15672995Y34490052D01*
X15672995Y34460789D01*
X15684193Y34433753D01*
X15693520Y34422388D01*
X15741139Y34374768D01*
X15752505Y34365440D01*
X15754993Y34364410D01*
X15757030Y34362643D01*
X15770456Y34356649D01*
X15913312Y34309030D01*
X15920567Y34307381D01*
X15922398Y34306622D01*
X15925051Y34306361D01*
X15927649Y34305770D01*
X15929623Y34305911D01*
X15937030Y34305181D01*
X16032268Y34305181D01*
X16039673Y34305911D01*
X16041648Y34305770D01*
X16044245Y34306361D01*
X16046900Y34306622D01*
X16048731Y34307381D01*
X16055985Y34309030D01*
X16198842Y34356649D01*
X16212267Y34362643D01*
X16214302Y34364409D01*
X16216793Y34365440D01*
X16228158Y34374767D01*
X16323397Y34470007D01*
X16328114Y34475756D01*
X16329613Y34477055D01*
X16331034Y34479314D01*
X16332724Y34481372D01*
X16333481Y34483202D01*
X16337445Y34489498D01*
X16385064Y34584736D01*
X16385473Y34585806D01*
X16385796Y34586241D01*
X16387988Y34592378D01*
X16390319Y34598467D01*
X16390357Y34599008D01*
X16390743Y34600087D01*
X16434663Y34775766D01*
X16720614Y34775766D01*
X16720614Y34746502D01*
X16731813Y34719466D01*
X16752505Y34698774D01*
X16779541Y34687575D01*
X16794173Y34686134D01*
X17556077Y34686134D01*
X17570709Y34687575D01*
X17597745Y34698774D01*
X17618437Y34719466D01*
X17629636Y34746502D01*
X17629636Y34775766D01*
X17618437Y34802802D01*
X17597745Y34823494D01*
X17570709Y34834693D01*
X17556077Y34836134D01*
X16794173Y34836134D01*
X16779541Y34834693D01*
X16752505Y34823494D01*
X16731813Y34802802D01*
X16720614Y34775766D01*
X16434663Y34775766D01*
X16438362Y34790563D01*
X16438737Y34793100D01*
X16439160Y34794121D01*
X16439702Y34799634D01*
X16440512Y34805107D01*
X16440349Y34806200D01*
X16440601Y34808753D01*
X16440601Y34951610D01*
X16440349Y34954164D01*
X16440512Y34955256D01*
X16439702Y34960730D01*
X16439160Y34966242D01*
X16438737Y34967264D01*
X16438362Y34969800D01*
X16390743Y35160276D01*
X16390357Y35161356D01*
X16390319Y35161896D01*
X16387988Y35167986D01*
X16385796Y35174122D01*
X16385473Y35174558D01*
X16385064Y35175627D01*
X16337445Y35270865D01*
X16333482Y35277160D01*
X16332724Y35278992D01*
X16331032Y35281054D01*
X16329613Y35283308D01*
X16328116Y35284607D01*
X16323396Y35290357D01*
X16314179Y35299574D01*
X17911090Y35299574D01*
X17911090Y35270312D01*
X17922289Y35243275D01*
X17942981Y35222583D01*
X17970018Y35211384D01*
X17999280Y35211384D01*
X18026317Y35222583D01*
X18037682Y35231910D01*
X18072782Y35267010D01*
X18187295Y35305181D01*
X18258193Y35305181D01*
X18372706Y35267010D01*
X18446819Y35192897D01*
X18485312Y35115910D01*
X18528696Y34942376D01*
X18528696Y34817987D01*
X18485312Y34644453D01*
X18446818Y34567466D01*
X18372706Y34493353D01*
X18258193Y34455181D01*
X18187295Y34455181D01*
X18072782Y34493352D01*
X18037683Y34528452D01*
X18026317Y34537780D01*
X17999281Y34548979D01*
X17970018Y34548979D01*
X17942982Y34537781D01*
X17922289Y34517088D01*
X17911090Y34490052D01*
X17911090Y34460789D01*
X17922288Y34433753D01*
X17931615Y34422388D01*
X17979234Y34374768D01*
X17990600Y34365440D01*
X17993088Y34364410D01*
X17995125Y34362643D01*
X18008551Y34356649D01*
X18151407Y34309030D01*
X18158662Y34307381D01*
X18160493Y34306622D01*
X18163146Y34306361D01*
X18165744Y34305770D01*
X18167718Y34305911D01*
X18175125Y34305181D01*
X18270363Y34305181D01*
X18277768Y34305911D01*
X18279743Y34305770D01*
X18282340Y34306361D01*
X18284995Y34306622D01*
X18286826Y34307381D01*
X18294080Y34309030D01*
X18436937Y34356649D01*
X18450362Y34362643D01*
X18452397Y34364409D01*
X18454888Y34365440D01*
X18466253Y34374767D01*
X18561492Y34470007D01*
X18566209Y34475756D01*
X18567708Y34477055D01*
X18569129Y34479314D01*
X18570819Y34481372D01*
X18571576Y34483202D01*
X18575540Y34489498D01*
X18623159Y34584736D01*
X18623568Y34585806D01*
X18623891Y34586241D01*
X18626083Y34592378D01*
X18628414Y34598467D01*
X18628452Y34599008D01*
X18628838Y34600087D01*
X18676457Y34790563D01*
X18676832Y34793100D01*
X18677255Y34794121D01*
X18677797Y34799634D01*
X18678607Y34805107D01*
X18678444Y34806200D01*
X18678696Y34808753D01*
X18678696Y34951610D01*
X18909649Y34951610D01*
X18909649Y34808753D01*
X18909900Y34806200D01*
X18909738Y34805107D01*
X18910547Y34799634D01*
X18911090Y34794121D01*
X18911512Y34793100D01*
X18911888Y34790563D01*
X18959507Y34600087D01*
X18959892Y34599008D01*
X18959931Y34598468D01*
X18962258Y34592387D01*
X18964454Y34586241D01*
X18964776Y34585806D01*
X18965186Y34584736D01*
X19012805Y34489498D01*
X19016768Y34483202D01*
X19017526Y34481372D01*
X19019215Y34479314D01*
X19020637Y34477055D01*
X19022135Y34475756D01*
X19026854Y34470006D01*
X19122092Y34374767D01*
X19133457Y34365439D01*
X19135947Y34364408D01*
X19137982Y34362643D01*
X19151408Y34356649D01*
X19294264Y34309030D01*
X19301519Y34307381D01*
X19303350Y34306622D01*
X19306003Y34306361D01*
X19308601Y34305770D01*
X19310575Y34305911D01*
X19317982Y34305181D01*
X19556077Y34305181D01*
X19570709Y34306622D01*
X19597745Y34317821D01*
X19618437Y34338513D01*
X19629636Y34365549D01*
X19631077Y34380181D01*
X19631077Y34389561D01*
X19815000Y34389561D01*
X19817075Y34360371D01*
X19830161Y34334198D01*
X19852268Y34315024D01*
X19880031Y34305770D01*
X19909221Y34307845D01*
X19935394Y34320931D01*
X19954568Y34343038D01*
X19960562Y34356464D01*
X20038706Y34590896D01*
X20406782Y34590896D01*
X20484926Y34356464D01*
X20490920Y34343039D01*
X20510094Y34320932D01*
X20536267Y34307845D01*
X20565457Y34305770D01*
X20593219Y34315024D01*
X20615327Y34334198D01*
X20628413Y34360372D01*
X20630488Y34389562D01*
X20627228Y34403898D01*
X20293895Y35403898D01*
X20287901Y35417324D01*
X20284389Y35421373D01*
X20281994Y35426164D01*
X20274890Y35432326D01*
X20268727Y35439431D01*
X20263933Y35441828D01*
X20259886Y35445338D01*
X20250964Y35448312D01*
X20242554Y35452517D01*
X20237209Y35452897D01*
X20232124Y35454592D01*
X20222744Y35453926D01*
X20213364Y35454592D01*
X20208278Y35452897D01*
X20202934Y35452517D01*
X20194526Y35448313D01*
X20185601Y35445338D01*
X20181550Y35441825D01*
X20176761Y35439430D01*
X20170602Y35432330D01*
X20163494Y35426164D01*
X20161097Y35421371D01*
X20157587Y35417323D01*
X20151593Y35403898D01*
X19818260Y34403898D01*
X19815000Y34389561D01*
X19631077Y34389561D01*
X19631077Y35380181D01*
X19629636Y35394813D01*
X19618437Y35421849D01*
X19597745Y35442541D01*
X19570709Y35453740D01*
X19556077Y35455181D01*
X19317982Y35455181D01*
X19310575Y35454452D01*
X19308601Y35454592D01*
X19306003Y35454002D01*
X19303350Y35453740D01*
X19301519Y35452982D01*
X19294264Y35451332D01*
X19151408Y35403713D01*
X19137982Y35397719D01*
X19135947Y35395955D01*
X19133457Y35394923D01*
X19122092Y35385595D01*
X19026854Y35290357D01*
X19022135Y35284608D01*
X19020637Y35283308D01*
X19019215Y35281049D01*
X19017527Y35278992D01*
X19016769Y35277165D01*
X19012805Y35270865D01*
X18965186Y35175627D01*
X18964776Y35174558D01*
X18964454Y35174122D01*
X18962258Y35167977D01*
X18959931Y35161895D01*
X18959892Y35161356D01*
X18959507Y35160276D01*
X18911888Y34969800D01*
X18911512Y34967264D01*
X18911090Y34966242D01*
X18910547Y34960730D01*
X18909738Y34955256D01*
X18909900Y34954164D01*
X18909649Y34951610D01*
X18678696Y34951610D01*
X18678444Y34954164D01*
X18678607Y34955256D01*
X18677797Y34960730D01*
X18677255Y34966242D01*
X18676832Y34967264D01*
X18676457Y34969800D01*
X18628838Y35160276D01*
X18628452Y35161356D01*
X18628414Y35161896D01*
X18626083Y35167986D01*
X18623891Y35174122D01*
X18623568Y35174558D01*
X18623159Y35175627D01*
X18575540Y35270865D01*
X18571577Y35277160D01*
X18570819Y35278992D01*
X18569127Y35281054D01*
X18567708Y35283308D01*
X18566211Y35284607D01*
X18561491Y35290357D01*
X18466253Y35385595D01*
X18454888Y35394922D01*
X18452397Y35395954D01*
X18450362Y35397719D01*
X18436937Y35403713D01*
X18294080Y35451332D01*
X18286826Y35452982D01*
X18284995Y35453740D01*
X18282340Y35454002D01*
X18279743Y35454592D01*
X18277768Y35454452D01*
X18270363Y35455181D01*
X18175125Y35455181D01*
X18167718Y35454452D01*
X18165744Y35454592D01*
X18163146Y35454002D01*
X18160493Y35453740D01*
X18158662Y35452982D01*
X18151407Y35451332D01*
X18008551Y35403713D01*
X17995125Y35397719D01*
X17993088Y35395953D01*
X17990600Y35394922D01*
X17979235Y35385595D01*
X17931616Y35337976D01*
X17922289Y35326611D01*
X17911090Y35299574D01*
X16314179Y35299574D01*
X16228158Y35385595D01*
X16216793Y35394922D01*
X16214302Y35395954D01*
X16212267Y35397719D01*
X16198842Y35403713D01*
X16055985Y35451332D01*
X16048731Y35452982D01*
X16046900Y35453740D01*
X16044245Y35454002D01*
X16041648Y35454592D01*
X16039673Y35454452D01*
X16032268Y35455181D01*
X15937030Y35455181D01*
X15929623Y35454452D01*
X15927649Y35454592D01*
X15925051Y35454002D01*
X15922398Y35453740D01*
X15920567Y35452982D01*
X15913312Y35451332D01*
X15770456Y35403713D01*
X15757030Y35397719D01*
X15754993Y35395953D01*
X15752505Y35394922D01*
X15741140Y35385595D01*
X15693521Y35337976D01*
X15684194Y35326611D01*
X15672995Y35299574D01*
X15392982Y35299574D01*
X15392982Y35380181D01*
X15391541Y35394813D01*
X15380342Y35421849D01*
X15359650Y35442541D01*
X15332614Y35453740D01*
X15303350Y35453740D01*
X15276314Y35442541D01*
X15255622Y35421849D01*
X15244423Y35394813D01*
X15242982Y35380181D01*
X15242982Y34455181D01*
X14841792Y34455181D01*
X14827160Y34453740D01*
X14800124Y34442541D01*
X14779432Y34421849D01*
X14768233Y34394813D01*
X14583458Y34394813D01*
X14583458Y35380181D01*
X14582017Y35394813D01*
X14570818Y35421849D01*
X14550126Y35442541D01*
X14523090Y35453740D01*
X14493826Y35453740D01*
X14466790Y35442541D01*
X14446098Y35421849D01*
X14434899Y35394813D01*
X14433458Y35380181D01*
X14433458Y34989819D01*
X13990063Y35433214D01*
X13978698Y35442541D01*
X13951661Y35453740D01*
X13922399Y35453740D01*
X13895362Y35442541D01*
X13874670Y35421849D01*
X13863471Y35394812D01*
X13863471Y35365550D01*
X13874670Y35338513D01*
X13883997Y35327148D01*
X14266572Y34944573D01*
X13877030Y34425181D01*
X13869404Y34412611D01*
X13862141Y34384263D01*
X13751030Y34384263D01*
X13751030Y35566292D01*
X20741599Y35566292D01*
X20741599Y34194070D01*
G37*
G36*
X15040601Y42205181D02*
G01*
X14889676Y42205181D01*
X14775163Y42243352D01*
X14701050Y42317466D01*
X14662556Y42394453D01*
X14619173Y42567987D01*
X14619173Y42692376D01*
X14662556Y42865910D01*
X14701050Y42942897D01*
X14775163Y43017010D01*
X14889676Y43055181D01*
X15040601Y43055181D01*
X15040601Y42205181D01*
G37*
G36*
X17396950Y41944070D02*
G01*
X14358062Y41944070D01*
X14358062Y42701610D01*
X14469173Y42701610D01*
X14469173Y42558753D01*
X14469424Y42556200D01*
X14469262Y42555107D01*
X14470071Y42549634D01*
X14470614Y42544121D01*
X14471036Y42543100D01*
X14471412Y42540563D01*
X14519031Y42350087D01*
X14519416Y42349008D01*
X14519455Y42348468D01*
X14521782Y42342387D01*
X14523978Y42336241D01*
X14524300Y42335806D01*
X14524710Y42334736D01*
X14572329Y42239498D01*
X14576292Y42233202D01*
X14577050Y42231372D01*
X14578739Y42229314D01*
X14580161Y42227055D01*
X14581659Y42225756D01*
X14586378Y42220006D01*
X14681616Y42124767D01*
X14692981Y42115439D01*
X14695471Y42114408D01*
X14697506Y42112643D01*
X14710932Y42106649D01*
X14853788Y42059030D01*
X14861043Y42057381D01*
X14862874Y42056622D01*
X14865527Y42056361D01*
X14868125Y42055770D01*
X14870099Y42055911D01*
X14877506Y42055181D01*
X15115601Y42055181D01*
X15130233Y42056622D01*
X15157269Y42067821D01*
X15177961Y42088513D01*
X15189160Y42115549D01*
X15190601Y42130181D01*
X15190601Y43130181D01*
X15516792Y43130181D01*
X15516792Y42130181D01*
X15517162Y42126418D01*
X15516975Y42124942D01*
X15517496Y42123032D01*
X15518233Y42115549D01*
X15522050Y42106334D01*
X15524675Y42096710D01*
X15527602Y42092930D01*
X15529432Y42088513D01*
X15536482Y42081463D01*
X15542592Y42073573D01*
X15546745Y42071200D01*
X15550124Y42067821D01*
X15559336Y42064005D01*
X15568001Y42059054D01*
X15572744Y42058452D01*
X15577160Y42056622D01*
X15587134Y42056622D01*
X15597031Y42055364D01*
X15601643Y42056622D01*
X15606424Y42056622D01*
X15615639Y42060440D01*
X15625263Y42063064D01*
X15629043Y42065992D01*
X15633460Y42067821D01*
X15640510Y42074872D01*
X15648400Y42080981D01*
X15652752Y42087114D01*
X15654152Y42088513D01*
X15654721Y42089888D01*
X15656910Y42092971D01*
X16088220Y42847765D01*
X16088220Y42130181D01*
X16089661Y42115549D01*
X16100860Y42088513D01*
X16121552Y42067821D01*
X16148588Y42056622D01*
X16177852Y42056622D01*
X16204888Y42067821D01*
X16225580Y42088513D01*
X16236779Y42115549D01*
X16238220Y42130181D01*
X16238220Y42558753D01*
X16516792Y42558753D01*
X16516792Y42225420D01*
X16518233Y42210788D01*
X16522150Y42201332D01*
X16529431Y42183753D01*
X16538758Y42172388D01*
X16586377Y42124768D01*
X16597743Y42115440D01*
X16600231Y42114410D01*
X16602268Y42112643D01*
X16615694Y42106649D01*
X16758550Y42059030D01*
X16765805Y42057381D01*
X16767636Y42056622D01*
X16770289Y42056361D01*
X16772887Y42055770D01*
X16774861Y42055911D01*
X16782268Y42055181D01*
X16877506Y42055181D01*
X16884911Y42055911D01*
X16886886Y42055770D01*
X16889483Y42056361D01*
X16892138Y42056622D01*
X16893969Y42057381D01*
X16901223Y42059030D01*
X17044080Y42106649D01*
X17057505Y42112643D01*
X17059540Y42114409D01*
X17062031Y42115440D01*
X17073396Y42124767D01*
X17168635Y42220007D01*
X17173352Y42225756D01*
X17174851Y42227055D01*
X17176272Y42229314D01*
X17177962Y42231372D01*
X17178719Y42233202D01*
X17182683Y42239498D01*
X17230302Y42334736D01*
X17230711Y42335806D01*
X17231034Y42336241D01*
X17233226Y42342378D01*
X17235557Y42348467D01*
X17235595Y42349008D01*
X17235981Y42350087D01*
X17283600Y42540563D01*
X17283975Y42543100D01*
X17284398Y42544121D01*
X17284940Y42549634D01*
X17285750Y42555107D01*
X17285587Y42556200D01*
X17285839Y42558753D01*
X17285839Y42701610D01*
X17285587Y42704164D01*
X17285750Y42705256D01*
X17284940Y42710730D01*
X17284398Y42716242D01*
X17283975Y42717264D01*
X17283600Y42719800D01*
X17235981Y42910276D01*
X17235595Y42911356D01*
X17235557Y42911896D01*
X17233226Y42917986D01*
X17231034Y42924122D01*
X17230711Y42924558D01*
X17230302Y42925627D01*
X17182683Y43020865D01*
X17178720Y43027160D01*
X17177962Y43028992D01*
X17176270Y43031054D01*
X17174851Y43033308D01*
X17173354Y43034607D01*
X17168634Y43040357D01*
X17073396Y43135595D01*
X17062031Y43144922D01*
X17059540Y43145954D01*
X17057505Y43147719D01*
X17044080Y43153713D01*
X16901223Y43201332D01*
X16893969Y43202982D01*
X16892138Y43203740D01*
X16889483Y43204002D01*
X16886886Y43204592D01*
X16884911Y43204452D01*
X16877506Y43205181D01*
X16734649Y43205181D01*
X16720017Y43203740D01*
X16717528Y43202710D01*
X16714839Y43202518D01*
X16701108Y43197263D01*
X16605870Y43149644D01*
X16593427Y43141812D01*
X16574254Y43119704D01*
X16565000Y43091943D01*
X16567074Y43062753D01*
X16580161Y43036578D01*
X16602269Y43017405D01*
X16630030Y43008151D01*
X16659220Y43010225D01*
X16672952Y43015480D01*
X16752354Y43055181D01*
X16865336Y43055181D01*
X16979849Y43017010D01*
X17053962Y42942897D01*
X17092455Y42865910D01*
X17135839Y42692376D01*
X17135839Y42567987D01*
X17092455Y42394453D01*
X17053961Y42317466D01*
X16979849Y42243353D01*
X16865336Y42205181D01*
X16794438Y42205181D01*
X16679925Y42243352D01*
X16666792Y42256486D01*
X16666792Y42483753D01*
X16782268Y42483753D01*
X16796900Y42485194D01*
X16823936Y42496393D01*
X16844628Y42517085D01*
X16855827Y42544121D01*
X16855827Y42573385D01*
X16844628Y42600421D01*
X16823936Y42621113D01*
X16796900Y42632312D01*
X16782268Y42633753D01*
X16591792Y42633753D01*
X16577160Y42632312D01*
X16550124Y42621113D01*
X16529432Y42600421D01*
X16518233Y42573385D01*
X16516792Y42558753D01*
X16238220Y42558753D01*
X16238220Y43130181D01*
X16237849Y43133945D01*
X16238037Y43135420D01*
X16237515Y43137331D01*
X16236779Y43144813D01*
X16232961Y43154029D01*
X16230337Y43163652D01*
X16227409Y43167433D01*
X16225580Y43171849D01*
X16218529Y43178900D01*
X16212420Y43186789D01*
X16208266Y43189163D01*
X16204888Y43192541D01*
X16195675Y43196358D01*
X16187011Y43201308D01*
X16182267Y43201911D01*
X16177852Y43203740D01*
X16167878Y43203740D01*
X16157981Y43204998D01*
X16153369Y43203740D01*
X16148588Y43203740D01*
X16139371Y43199923D01*
X16129750Y43197298D01*
X16125970Y43194372D01*
X16121552Y43192541D01*
X16114500Y43185490D01*
X16106612Y43179381D01*
X16102257Y43173247D01*
X16100860Y43171849D01*
X16100291Y43170477D01*
X16098102Y43167392D01*
X15666792Y42412598D01*
X15666792Y43130181D01*
X15665351Y43144813D01*
X15654152Y43171849D01*
X15633460Y43192541D01*
X15606424Y43203740D01*
X15577160Y43203740D01*
X15550124Y43192541D01*
X15529432Y43171849D01*
X15518233Y43144813D01*
X15516792Y43130181D01*
X15190601Y43130181D01*
X15189160Y43144813D01*
X15177961Y43171849D01*
X15157269Y43192541D01*
X15130233Y43203740D01*
X15115601Y43205181D01*
X14877506Y43205181D01*
X14870099Y43204452D01*
X14868125Y43204592D01*
X14865527Y43204002D01*
X14862874Y43203740D01*
X14861043Y43202982D01*
X14853788Y43201332D01*
X14710932Y43153713D01*
X14697506Y43147719D01*
X14695471Y43145955D01*
X14692981Y43144923D01*
X14681616Y43135595D01*
X14586378Y43040357D01*
X14581659Y43034608D01*
X14580161Y43033308D01*
X14578739Y43031049D01*
X14577051Y43028992D01*
X14576293Y43027165D01*
X14572329Y43020865D01*
X14524710Y42925627D01*
X14524300Y42924558D01*
X14523978Y42924122D01*
X14521782Y42917977D01*
X14519455Y42911895D01*
X14519416Y42911356D01*
X14519031Y42910276D01*
X14471412Y42719800D01*
X14471036Y42717264D01*
X14470614Y42716242D01*
X14470071Y42710730D01*
X14469262Y42705256D01*
X14469424Y42704164D01*
X14469173Y42701610D01*
X14358062Y42701610D01*
X14358062Y43316292D01*
X17396950Y43316292D01*
X17396950Y41944070D01*
G37*
G36*
X15040601Y19205181D02*
G01*
X14889676Y19205181D01*
X14775163Y19243352D01*
X14701050Y19317466D01*
X14662556Y19394453D01*
X14619173Y19567987D01*
X14619173Y19692376D01*
X14662556Y19865910D01*
X14701050Y19942897D01*
X14775163Y20017010D01*
X14889676Y20055181D01*
X15040601Y20055181D01*
X15040601Y19205181D01*
G37*
G36*
X17396950Y18944070D02*
G01*
X14358062Y18944070D01*
X14358062Y19701610D01*
X14469173Y19701610D01*
X14469173Y19558753D01*
X14469424Y19556200D01*
X14469262Y19555107D01*
X14470071Y19549634D01*
X14470614Y19544121D01*
X14471036Y19543100D01*
X14471412Y19540563D01*
X14519031Y19350087D01*
X14519416Y19349008D01*
X14519455Y19348468D01*
X14521782Y19342387D01*
X14523978Y19336241D01*
X14524300Y19335806D01*
X14524710Y19334736D01*
X14572329Y19239498D01*
X14576292Y19233202D01*
X14577050Y19231372D01*
X14578739Y19229314D01*
X14580161Y19227055D01*
X14581659Y19225756D01*
X14586378Y19220006D01*
X14681616Y19124767D01*
X14692981Y19115439D01*
X14695471Y19114408D01*
X14697506Y19112643D01*
X14710932Y19106649D01*
X14853788Y19059030D01*
X14861043Y19057381D01*
X14862874Y19056622D01*
X14865527Y19056361D01*
X14868125Y19055770D01*
X14870099Y19055911D01*
X14877506Y19055181D01*
X15115601Y19055181D01*
X15130233Y19056622D01*
X15157269Y19067821D01*
X15177961Y19088513D01*
X15189160Y19115549D01*
X15190601Y19130181D01*
X15190601Y20130181D01*
X15516792Y20130181D01*
X15516792Y19130181D01*
X15517162Y19126418D01*
X15516975Y19124942D01*
X15517496Y19123032D01*
X15518233Y19115549D01*
X15522050Y19106334D01*
X15524675Y19096710D01*
X15527602Y19092930D01*
X15529432Y19088513D01*
X15536482Y19081463D01*
X15542592Y19073573D01*
X15546745Y19071200D01*
X15550124Y19067821D01*
X15559336Y19064005D01*
X15568001Y19059054D01*
X15572744Y19058452D01*
X15577160Y19056622D01*
X15587134Y19056622D01*
X15597031Y19055364D01*
X15601643Y19056622D01*
X15606424Y19056622D01*
X15615639Y19060440D01*
X15625263Y19063064D01*
X15629043Y19065992D01*
X15633460Y19067821D01*
X15640510Y19074872D01*
X15648400Y19080981D01*
X15652752Y19087114D01*
X15654152Y19088513D01*
X15654721Y19089888D01*
X15656910Y19092971D01*
X16088220Y19847765D01*
X16088220Y19130181D01*
X16089661Y19115549D01*
X16100860Y19088513D01*
X16121552Y19067821D01*
X16148588Y19056622D01*
X16177852Y19056622D01*
X16204888Y19067821D01*
X16225580Y19088513D01*
X16236779Y19115549D01*
X16238220Y19130181D01*
X16238220Y19558753D01*
X16516792Y19558753D01*
X16516792Y19225420D01*
X16518233Y19210788D01*
X16522150Y19201332D01*
X16529431Y19183753D01*
X16538758Y19172388D01*
X16586377Y19124768D01*
X16597743Y19115440D01*
X16600231Y19114410D01*
X16602268Y19112643D01*
X16615694Y19106649D01*
X16758550Y19059030D01*
X16765805Y19057381D01*
X16767636Y19056622D01*
X16770289Y19056361D01*
X16772887Y19055770D01*
X16774861Y19055911D01*
X16782268Y19055181D01*
X16877506Y19055181D01*
X16884911Y19055911D01*
X16886886Y19055770D01*
X16889483Y19056361D01*
X16892138Y19056622D01*
X16893969Y19057381D01*
X16901223Y19059030D01*
X17044080Y19106649D01*
X17057505Y19112643D01*
X17059540Y19114409D01*
X17062031Y19115440D01*
X17073396Y19124767D01*
X17168635Y19220007D01*
X17173352Y19225756D01*
X17174851Y19227055D01*
X17176272Y19229314D01*
X17177962Y19231372D01*
X17178719Y19233202D01*
X17182683Y19239498D01*
X17230302Y19334736D01*
X17230711Y19335806D01*
X17231034Y19336241D01*
X17233226Y19342378D01*
X17235557Y19348467D01*
X17235595Y19349008D01*
X17235981Y19350087D01*
X17283600Y19540563D01*
X17283975Y19543100D01*
X17284398Y19544121D01*
X17284940Y19549634D01*
X17285750Y19555107D01*
X17285587Y19556200D01*
X17285839Y19558753D01*
X17285839Y19701610D01*
X17285587Y19704164D01*
X17285750Y19705256D01*
X17284940Y19710730D01*
X17284398Y19716242D01*
X17283975Y19717264D01*
X17283600Y19719800D01*
X17235981Y19910276D01*
X17235595Y19911356D01*
X17235557Y19911896D01*
X17233226Y19917986D01*
X17231034Y19924122D01*
X17230711Y19924558D01*
X17230302Y19925627D01*
X17182683Y20020865D01*
X17178720Y20027160D01*
X17177962Y20028992D01*
X17176270Y20031054D01*
X17174851Y20033308D01*
X17173354Y20034607D01*
X17168634Y20040357D01*
X17073396Y20135595D01*
X17062031Y20144922D01*
X17059540Y20145954D01*
X17057505Y20147719D01*
X17044080Y20153713D01*
X16901223Y20201332D01*
X16893969Y20202982D01*
X16892138Y20203740D01*
X16889483Y20204002D01*
X16886886Y20204592D01*
X16884911Y20204452D01*
X16877506Y20205181D01*
X16734649Y20205181D01*
X16720017Y20203740D01*
X16717528Y20202710D01*
X16714839Y20202518D01*
X16701108Y20197263D01*
X16605870Y20149644D01*
X16593427Y20141812D01*
X16574254Y20119704D01*
X16565000Y20091943D01*
X16567074Y20062753D01*
X16580161Y20036578D01*
X16602269Y20017405D01*
X16630030Y20008151D01*
X16659220Y20010225D01*
X16672952Y20015480D01*
X16752354Y20055181D01*
X16865336Y20055181D01*
X16979849Y20017010D01*
X17053962Y19942897D01*
X17092455Y19865910D01*
X17135839Y19692376D01*
X17135839Y19567987D01*
X17092455Y19394453D01*
X17053961Y19317466D01*
X16979849Y19243353D01*
X16865336Y19205181D01*
X16794438Y19205181D01*
X16679925Y19243352D01*
X16666792Y19256486D01*
X16666792Y19483753D01*
X16782268Y19483753D01*
X16796900Y19485194D01*
X16823936Y19496393D01*
X16844628Y19517085D01*
X16855827Y19544121D01*
X16855827Y19573385D01*
X16844628Y19600421D01*
X16823936Y19621113D01*
X16796900Y19632312D01*
X16782268Y19633753D01*
X16591792Y19633753D01*
X16577160Y19632312D01*
X16550124Y19621113D01*
X16529432Y19600421D01*
X16518233Y19573385D01*
X16516792Y19558753D01*
X16238220Y19558753D01*
X16238220Y20130181D01*
X16237849Y20133945D01*
X16238037Y20135420D01*
X16237515Y20137331D01*
X16236779Y20144813D01*
X16232961Y20154029D01*
X16230337Y20163652D01*
X16227409Y20167433D01*
X16225580Y20171849D01*
X16218529Y20178900D01*
X16212420Y20186789D01*
X16208266Y20189163D01*
X16204888Y20192541D01*
X16195675Y20196358D01*
X16187011Y20201308D01*
X16182267Y20201911D01*
X16177852Y20203740D01*
X16167878Y20203740D01*
X16157981Y20204998D01*
X16153369Y20203740D01*
X16148588Y20203740D01*
X16139371Y20199923D01*
X16129750Y20197298D01*
X16125970Y20194372D01*
X16121552Y20192541D01*
X16114500Y20185490D01*
X16106612Y20179381D01*
X16102257Y20173247D01*
X16100860Y20171849D01*
X16100291Y20170477D01*
X16098102Y20167392D01*
X15666792Y19412598D01*
X15666792Y20130181D01*
X15665351Y20144813D01*
X15654152Y20171849D01*
X15633460Y20192541D01*
X15606424Y20203740D01*
X15577160Y20203740D01*
X15550124Y20192541D01*
X15529432Y20171849D01*
X15518233Y20144813D01*
X15516792Y20130181D01*
X15190601Y20130181D01*
X15189160Y20144813D01*
X15177961Y20171849D01*
X15157269Y20192541D01*
X15130233Y20203740D01*
X15115601Y20205181D01*
X14877506Y20205181D01*
X14870099Y20204452D01*
X14868125Y20204592D01*
X14865527Y20204002D01*
X14862874Y20203740D01*
X14861043Y20202982D01*
X14853788Y20201332D01*
X14710932Y20153713D01*
X14697506Y20147719D01*
X14695471Y20145955D01*
X14692981Y20144923D01*
X14681616Y20135595D01*
X14586378Y20040357D01*
X14581659Y20034608D01*
X14580161Y20033308D01*
X14578739Y20031049D01*
X14577051Y20028992D01*
X14576293Y20027165D01*
X14572329Y20020865D01*
X14524710Y19925627D01*
X14524300Y19924558D01*
X14523978Y19924122D01*
X14521782Y19917977D01*
X14519455Y19911895D01*
X14519416Y19911356D01*
X14519031Y19910276D01*
X14471412Y19719800D01*
X14471036Y19717264D01*
X14470614Y19716242D01*
X14470071Y19710730D01*
X14469262Y19705256D01*
X14469424Y19704164D01*
X14469173Y19701610D01*
X14358062Y19701610D01*
X14358062Y20316292D01*
X17396950Y20316292D01*
X17396950Y18944070D01*
G37*
G36*
X8443128Y44694070D02*
G01*
X5072937Y44694070D01*
X5072937Y45870801D01*
X5184048Y45870801D01*
X5187308Y45856464D01*
X5520641Y44856464D01*
X5526635Y44843039D01*
X5530145Y44838992D01*
X5532542Y44834198D01*
X5539650Y44828033D01*
X5545809Y44820932D01*
X5550598Y44818538D01*
X5554649Y44815024D01*
X5563574Y44812050D01*
X5571982Y44807845D01*
X5577326Y44807466D01*
X5582412Y44805770D01*
X5591792Y44806437D01*
X5601172Y44805770D01*
X5606257Y44807466D01*
X5611602Y44807845D01*
X5620012Y44812051D01*
X5628934Y44815024D01*
X5632981Y44818535D01*
X5637775Y44820931D01*
X5643938Y44828037D01*
X5651042Y44834198D01*
X5653437Y44838990D01*
X5656949Y44843038D01*
X5662943Y44856464D01*
X5813706Y45308753D01*
X6135840Y45308753D01*
X6135840Y45070658D01*
X6137281Y45056026D01*
X6138312Y45053537D01*
X6138503Y45050849D01*
X6143758Y45037117D01*
X6191377Y44941879D01*
X6195340Y44935583D01*
X6196098Y44933753D01*
X6197787Y44931695D01*
X6199209Y44929436D01*
X6200707Y44928137D01*
X6205425Y44922388D01*
X6253044Y44874768D01*
X6258793Y44870050D01*
X6260094Y44868550D01*
X6262353Y44867128D01*
X6264410Y44865440D01*
X6266237Y44864683D01*
X6272537Y44860718D01*
X6367775Y44813099D01*
X6381506Y44807844D01*
X6384195Y44807653D01*
X6386684Y44806622D01*
X6401316Y44805181D01*
X6687030Y44805181D01*
X6701662Y44806622D01*
X6704151Y44807654D01*
X6706839Y44807844D01*
X6720571Y44813099D01*
X6815809Y44860718D01*
X6822108Y44864683D01*
X6823936Y44865440D01*
X6825992Y44867128D01*
X6828252Y44868550D01*
X6829552Y44870050D01*
X6835302Y44874768D01*
X6882920Y44922387D01*
X6892248Y44933753D01*
X6895842Y44942431D01*
X7089661Y44942431D01*
X7089661Y44913168D01*
X7094698Y44901009D01*
X7100860Y44886132D01*
X7110187Y44874767D01*
X7157806Y44827148D01*
X7169171Y44817821D01*
X7196207Y44806622D01*
X7196208Y44806622D01*
X7225470Y44806622D01*
X7225471Y44806622D01*
X7252507Y44817821D01*
X7263872Y44827148D01*
X7311491Y44874767D01*
X7320818Y44886132D01*
X7332017Y44913168D01*
X7332017Y44942431D01*
X7331971Y44942541D01*
X7320819Y44969467D01*
X7311491Y44980833D01*
X7263873Y45028452D01*
X7252507Y45037780D01*
X7252506Y45037781D01*
X7236669Y45044341D01*
X7225471Y45048979D01*
X7225470Y45048979D01*
X7196207Y45048979D01*
X7185009Y45044341D01*
X7169172Y45037781D01*
X7169171Y45037780D01*
X7157805Y45028452D01*
X7110186Y44980832D01*
X7100859Y44969467D01*
X7089661Y44942431D01*
X6895842Y44942431D01*
X6903446Y44960789D01*
X6903446Y44990052D01*
X6892247Y45017088D01*
X6871554Y45037781D01*
X6844518Y45048979D01*
X6815255Y45048979D01*
X6788219Y45037780D01*
X6776853Y45028452D01*
X6737840Y44989439D01*
X6669325Y44955181D01*
X6419021Y44955181D01*
X6350505Y44989439D01*
X6320098Y45019847D01*
X6285840Y45088363D01*
X6285840Y45291048D01*
X6294693Y45308753D01*
X7564411Y45308753D01*
X7564411Y45070658D01*
X7565852Y45056026D01*
X7566883Y45053537D01*
X7567074Y45050849D01*
X7572329Y45037117D01*
X7619948Y44941879D01*
X7623911Y44935583D01*
X7624669Y44933753D01*
X7626358Y44931695D01*
X7627780Y44929436D01*
X7629278Y44928137D01*
X7633996Y44922388D01*
X7681615Y44874768D01*
X7687364Y44870050D01*
X7688665Y44868550D01*
X7690924Y44867128D01*
X7692981Y44865440D01*
X7694808Y44864683D01*
X7701108Y44860718D01*
X7796346Y44813099D01*
X7810077Y44807844D01*
X7812766Y44807653D01*
X7815255Y44806622D01*
X7829887Y44805181D01*
X8115601Y44805181D01*
X8130233Y44806622D01*
X8132722Y44807654D01*
X8135410Y44807844D01*
X8149142Y44813099D01*
X8244380Y44860718D01*
X8250679Y44864683D01*
X8252507Y44865440D01*
X8254563Y44867128D01*
X8256823Y44868550D01*
X8258123Y44870050D01*
X8263873Y44874768D01*
X8311491Y44922387D01*
X8320819Y44933753D01*
X8332017Y44960789D01*
X8332017Y44990052D01*
X8320818Y45017088D01*
X8300125Y45037781D01*
X8273089Y45048979D01*
X8243826Y45048979D01*
X8216790Y45037780D01*
X8205424Y45028452D01*
X8166411Y44989439D01*
X8097896Y44955181D01*
X7847592Y44955181D01*
X7779076Y44989439D01*
X7748669Y45019847D01*
X7714411Y45088363D01*
X7714411Y45291048D01*
X7748669Y45359564D01*
X7779076Y45389971D01*
X7847592Y45424229D01*
X7972744Y45424229D01*
X7980482Y45424992D01*
X7982450Y45424860D01*
X7983805Y45425319D01*
X7987376Y45425670D01*
X7998633Y45430334D01*
X8010171Y45434235D01*
X8012075Y45435901D01*
X8014412Y45436869D01*
X8023022Y45445480D01*
X8032195Y45453505D01*
X8033317Y45455775D01*
X8035104Y45457561D01*
X8039764Y45468812D01*
X8045167Y45479737D01*
X8045335Y45482261D01*
X8046303Y45484597D01*
X8046303Y45496782D01*
X8047113Y45508935D01*
X8046303Y45511331D01*
X8046303Y45513861D01*
X8041639Y45525119D01*
X8037738Y45536656D01*
X8035652Y45539574D01*
X8035104Y45540897D01*
X8033708Y45542293D01*
X8029187Y45548617D01*
X7804693Y45805181D01*
X8258458Y45805181D01*
X8273090Y45806622D01*
X8300126Y45817821D01*
X8320818Y45838513D01*
X8332017Y45865549D01*
X8332017Y45894813D01*
X8320818Y45921849D01*
X8300126Y45942541D01*
X8273090Y45953740D01*
X8258458Y45955181D01*
X7639411Y45955181D01*
X7631672Y45954419D01*
X7629705Y45954550D01*
X7628349Y45954092D01*
X7624779Y45953740D01*
X7613521Y45949077D01*
X7601984Y45945175D01*
X7600079Y45943510D01*
X7597743Y45942541D01*
X7589132Y45933931D01*
X7579960Y45925905D01*
X7578837Y45923636D01*
X7577051Y45921849D01*
X7572390Y45910599D01*
X7566988Y45899673D01*
X7566819Y45897150D01*
X7565852Y45894813D01*
X7565852Y45882629D01*
X7565042Y45870475D01*
X7565852Y45868080D01*
X7565852Y45865549D01*
X7570515Y45854292D01*
X7574417Y45842754D01*
X7576502Y45839837D01*
X7577051Y45838513D01*
X7578446Y45837118D01*
X7582968Y45830793D01*
X7809863Y45571485D01*
X7796346Y45566311D01*
X7701108Y45518692D01*
X7694808Y45514728D01*
X7692981Y45513970D01*
X7690924Y45512282D01*
X7688665Y45510860D01*
X7687365Y45509362D01*
X7681616Y45504643D01*
X7633997Y45457024D01*
X7629278Y45451275D01*
X7627780Y45449975D01*
X7626358Y45447716D01*
X7624670Y45445659D01*
X7623912Y45443832D01*
X7619948Y45437532D01*
X7572329Y45342294D01*
X7567074Y45328562D01*
X7566883Y45325875D01*
X7565852Y45323385D01*
X7564411Y45308753D01*
X6294693Y45308753D01*
X6320098Y45359564D01*
X6350505Y45389971D01*
X6419021Y45424229D01*
X6544173Y45424229D01*
X6551911Y45424992D01*
X6553879Y45424860D01*
X6555234Y45425319D01*
X6558805Y45425670D01*
X6570062Y45430334D01*
X6581600Y45434235D01*
X6583504Y45435901D01*
X6585841Y45436869D01*
X6594451Y45445480D01*
X6603624Y45453505D01*
X6604746Y45455775D01*
X6606533Y45457561D01*
X6611193Y45468812D01*
X6616596Y45479737D01*
X6616764Y45482261D01*
X6617732Y45484597D01*
X6617732Y45496782D01*
X6618542Y45508935D01*
X6617732Y45511331D01*
X6617732Y45513861D01*
X6613068Y45525119D01*
X6609167Y45536656D01*
X6607081Y45539574D01*
X6606533Y45540897D01*
X6605137Y45542293D01*
X6600616Y45548617D01*
X6376122Y45805181D01*
X6829887Y45805181D01*
X6844519Y45806622D01*
X6871555Y45817821D01*
X6892247Y45838513D01*
X6903446Y45865549D01*
X6903446Y45894813D01*
X6892247Y45921849D01*
X6871555Y45942541D01*
X6844519Y45953740D01*
X6829887Y45955181D01*
X6210840Y45955181D01*
X6203101Y45954419D01*
X6201134Y45954550D01*
X6199778Y45954092D01*
X6196208Y45953740D01*
X6184950Y45949077D01*
X6173413Y45945175D01*
X6171508Y45943510D01*
X6169172Y45942541D01*
X6160561Y45933931D01*
X6151389Y45925905D01*
X6150266Y45923636D01*
X6148480Y45921849D01*
X6143819Y45910599D01*
X6138417Y45899673D01*
X6138248Y45897150D01*
X6137281Y45894813D01*
X6137281Y45882629D01*
X6136471Y45870475D01*
X6137281Y45868080D01*
X6137281Y45865549D01*
X6141944Y45854292D01*
X6145846Y45842754D01*
X6147931Y45839837D01*
X6148480Y45838513D01*
X6149875Y45837118D01*
X6154397Y45830793D01*
X6381292Y45571485D01*
X6367775Y45566311D01*
X6272537Y45518692D01*
X6266237Y45514728D01*
X6264410Y45513970D01*
X6262353Y45512282D01*
X6260094Y45510860D01*
X6258794Y45509362D01*
X6253045Y45504643D01*
X6205426Y45457024D01*
X6200707Y45451275D01*
X6199209Y45449975D01*
X6197787Y45447716D01*
X6196099Y45445659D01*
X6195341Y45443832D01*
X6191377Y45437532D01*
X6143758Y45342294D01*
X6138503Y45328562D01*
X6138312Y45325875D01*
X6137281Y45323385D01*
X6135840Y45308753D01*
X5813706Y45308753D01*
X5996276Y45856464D01*
X5999536Y45870800D01*
X5997461Y45899990D01*
X5984375Y45926164D01*
X5962267Y45945338D01*
X5934505Y45954592D01*
X5905315Y45952517D01*
X5879142Y45939430D01*
X5859968Y45917323D01*
X5853974Y45903898D01*
X5591792Y45117352D01*
X5329610Y45903898D01*
X5323616Y45917324D01*
X5304442Y45939431D01*
X5278269Y45952517D01*
X5249079Y45954592D01*
X5221316Y45945338D01*
X5199209Y45926164D01*
X5186123Y45899991D01*
X5184048Y45870801D01*
X5072937Y45870801D01*
X5072937Y46066292D01*
X8443128Y46066292D01*
X8443128Y44694070D01*
G37*
G36*
X8790601Y28455181D02*
G01*
X8639676Y28455181D01*
X8525163Y28493352D01*
X8451050Y28567466D01*
X8412556Y28644453D01*
X8369173Y28817987D01*
X8369173Y28942376D01*
X8412556Y29115910D01*
X8451050Y29192897D01*
X8525163Y29267010D01*
X8639676Y29305181D01*
X8790601Y29305181D01*
X8790601Y28455181D01*
G37*
G36*
X11146950Y28194070D02*
G01*
X8108062Y28194070D01*
X8108062Y28951610D01*
X8219173Y28951610D01*
X8219173Y28808753D01*
X8219424Y28806200D01*
X8219262Y28805107D01*
X8220071Y28799634D01*
X8220614Y28794121D01*
X8221036Y28793100D01*
X8221412Y28790563D01*
X8269031Y28600087D01*
X8269416Y28599008D01*
X8269455Y28598468D01*
X8271782Y28592387D01*
X8273978Y28586241D01*
X8274300Y28585806D01*
X8274710Y28584736D01*
X8322329Y28489498D01*
X8326292Y28483202D01*
X8327050Y28481372D01*
X8328739Y28479314D01*
X8330161Y28477055D01*
X8331659Y28475756D01*
X8336378Y28470006D01*
X8431616Y28374767D01*
X8442981Y28365439D01*
X8445471Y28364408D01*
X8447506Y28362643D01*
X8460932Y28356649D01*
X8603788Y28309030D01*
X8611043Y28307381D01*
X8612874Y28306622D01*
X8615527Y28306361D01*
X8618125Y28305770D01*
X8620099Y28305911D01*
X8627506Y28305181D01*
X8865601Y28305181D01*
X8880233Y28306622D01*
X8907269Y28317821D01*
X8927961Y28338513D01*
X8939160Y28365549D01*
X8940601Y28380181D01*
X8940601Y29380181D01*
X9266792Y29380181D01*
X9266792Y28380181D01*
X9267162Y28376418D01*
X9266975Y28374942D01*
X9267496Y28373032D01*
X9268233Y28365549D01*
X9272050Y28356334D01*
X9274675Y28346710D01*
X9277602Y28342930D01*
X9279432Y28338513D01*
X9286482Y28331463D01*
X9292592Y28323573D01*
X9296745Y28321200D01*
X9300124Y28317821D01*
X9309336Y28314005D01*
X9318001Y28309054D01*
X9322744Y28308452D01*
X9327160Y28306622D01*
X9337134Y28306622D01*
X9347031Y28305364D01*
X9351643Y28306622D01*
X9356424Y28306622D01*
X9365639Y28310440D01*
X9375263Y28313064D01*
X9379043Y28315992D01*
X9383460Y28317821D01*
X9390510Y28324872D01*
X9398400Y28330981D01*
X9402752Y28337114D01*
X9404152Y28338513D01*
X9404721Y28339888D01*
X9406910Y28342971D01*
X9838220Y29097765D01*
X9838220Y28380181D01*
X9839661Y28365549D01*
X9850860Y28338513D01*
X9871552Y28317821D01*
X9898588Y28306622D01*
X9927852Y28306622D01*
X9954888Y28317821D01*
X9975580Y28338513D01*
X9986779Y28365549D01*
X9988220Y28380181D01*
X9988220Y28808753D01*
X10266792Y28808753D01*
X10266792Y28475420D01*
X10268233Y28460788D01*
X10272150Y28451332D01*
X10279431Y28433753D01*
X10288758Y28422388D01*
X10336377Y28374768D01*
X10347743Y28365440D01*
X10350231Y28364410D01*
X10352268Y28362643D01*
X10365694Y28356649D01*
X10508550Y28309030D01*
X10515805Y28307381D01*
X10517636Y28306622D01*
X10520289Y28306361D01*
X10522887Y28305770D01*
X10524861Y28305911D01*
X10532268Y28305181D01*
X10627506Y28305181D01*
X10634911Y28305911D01*
X10636886Y28305770D01*
X10639483Y28306361D01*
X10642138Y28306622D01*
X10643969Y28307381D01*
X10651223Y28309030D01*
X10794080Y28356649D01*
X10807505Y28362643D01*
X10809540Y28364409D01*
X10812031Y28365440D01*
X10823396Y28374767D01*
X10918635Y28470007D01*
X10923352Y28475756D01*
X10924851Y28477055D01*
X10926272Y28479314D01*
X10927962Y28481372D01*
X10928719Y28483202D01*
X10932683Y28489498D01*
X10980302Y28584736D01*
X10980711Y28585806D01*
X10981034Y28586241D01*
X10983226Y28592378D01*
X10985557Y28598467D01*
X10985595Y28599008D01*
X10985981Y28600087D01*
X11033600Y28790563D01*
X11033975Y28793100D01*
X11034398Y28794121D01*
X11034940Y28799634D01*
X11035750Y28805107D01*
X11035587Y28806200D01*
X11035839Y28808753D01*
X11035839Y28951610D01*
X11035587Y28954164D01*
X11035750Y28955256D01*
X11034940Y28960730D01*
X11034398Y28966242D01*
X11033975Y28967264D01*
X11033600Y28969800D01*
X10985981Y29160276D01*
X10985595Y29161356D01*
X10985557Y29161896D01*
X10983226Y29167986D01*
X10981034Y29174122D01*
X10980711Y29174558D01*
X10980302Y29175627D01*
X10932683Y29270865D01*
X10928720Y29277160D01*
X10927962Y29278992D01*
X10926270Y29281054D01*
X10924851Y29283308D01*
X10923354Y29284607D01*
X10918634Y29290357D01*
X10823396Y29385595D01*
X10812031Y29394922D01*
X10809540Y29395954D01*
X10807505Y29397719D01*
X10794080Y29403713D01*
X10651223Y29451332D01*
X10643969Y29452982D01*
X10642138Y29453740D01*
X10639483Y29454002D01*
X10636886Y29454592D01*
X10634911Y29454452D01*
X10627506Y29455181D01*
X10484649Y29455181D01*
X10470017Y29453740D01*
X10467528Y29452710D01*
X10464839Y29452518D01*
X10451108Y29447263D01*
X10355870Y29399644D01*
X10343427Y29391812D01*
X10324254Y29369704D01*
X10315000Y29341943D01*
X10317074Y29312753D01*
X10330161Y29286578D01*
X10352269Y29267405D01*
X10380030Y29258151D01*
X10409220Y29260225D01*
X10422952Y29265480D01*
X10502354Y29305181D01*
X10615336Y29305181D01*
X10729849Y29267010D01*
X10803962Y29192897D01*
X10842455Y29115910D01*
X10885839Y28942376D01*
X10885839Y28817987D01*
X10842455Y28644453D01*
X10803961Y28567466D01*
X10729849Y28493353D01*
X10615336Y28455181D01*
X10544438Y28455181D01*
X10429925Y28493352D01*
X10416792Y28506486D01*
X10416792Y28733753D01*
X10532268Y28733753D01*
X10546900Y28735194D01*
X10573936Y28746393D01*
X10594628Y28767085D01*
X10605827Y28794121D01*
X10605827Y28823385D01*
X10594628Y28850421D01*
X10573936Y28871113D01*
X10546900Y28882312D01*
X10532268Y28883753D01*
X10341792Y28883753D01*
X10327160Y28882312D01*
X10300124Y28871113D01*
X10279432Y28850421D01*
X10268233Y28823385D01*
X10266792Y28808753D01*
X9988220Y28808753D01*
X9988220Y29380181D01*
X9987849Y29383945D01*
X9988037Y29385420D01*
X9987515Y29387331D01*
X9986779Y29394813D01*
X9982961Y29404029D01*
X9980337Y29413652D01*
X9977409Y29417433D01*
X9975580Y29421849D01*
X9968529Y29428900D01*
X9962420Y29436789D01*
X9958266Y29439163D01*
X9954888Y29442541D01*
X9945675Y29446358D01*
X9937011Y29451308D01*
X9932267Y29451911D01*
X9927852Y29453740D01*
X9917878Y29453740D01*
X9907981Y29454998D01*
X9903369Y29453740D01*
X9898588Y29453740D01*
X9889371Y29449923D01*
X9879750Y29447298D01*
X9875970Y29444372D01*
X9871552Y29442541D01*
X9864500Y29435490D01*
X9856612Y29429381D01*
X9852257Y29423247D01*
X9850860Y29421849D01*
X9850291Y29420477D01*
X9848102Y29417392D01*
X9416792Y28662598D01*
X9416792Y29380181D01*
X9415351Y29394813D01*
X9404152Y29421849D01*
X9383460Y29442541D01*
X9356424Y29453740D01*
X9327160Y29453740D01*
X9300124Y29442541D01*
X9279432Y29421849D01*
X9268233Y29394813D01*
X9266792Y29380181D01*
X8940601Y29380181D01*
X8939160Y29394813D01*
X8927961Y29421849D01*
X8907269Y29442541D01*
X8880233Y29453740D01*
X8865601Y29455181D01*
X8627506Y29455181D01*
X8620099Y29454452D01*
X8618125Y29454592D01*
X8615527Y29454002D01*
X8612874Y29453740D01*
X8611043Y29452982D01*
X8603788Y29451332D01*
X8460932Y29403713D01*
X8447506Y29397719D01*
X8445471Y29395955D01*
X8442981Y29394923D01*
X8431616Y29385595D01*
X8336378Y29290357D01*
X8331659Y29284608D01*
X8330161Y29283308D01*
X8328739Y29281049D01*
X8327051Y29278992D01*
X8326293Y29277165D01*
X8322329Y29270865D01*
X8274710Y29175627D01*
X8274300Y29174558D01*
X8273978Y29174122D01*
X8271782Y29167977D01*
X8269455Y29161895D01*
X8269416Y29161356D01*
X8269031Y29160276D01*
X8221412Y28969800D01*
X8221036Y28967264D01*
X8220614Y28966242D01*
X8220071Y28960730D01*
X8219262Y28955256D01*
X8219424Y28954164D01*
X8219173Y28951610D01*
X8108062Y28951610D01*
X8108062Y29566292D01*
X11146950Y29566292D01*
X11146950Y28194070D01*
G37*
G36*
X15097890Y5694070D02*
G01*
X12013413Y5694070D01*
X12013413Y6870801D01*
X12124524Y6870801D01*
X12127784Y6856464D01*
X12461117Y5856464D01*
X12467111Y5843039D01*
X12470621Y5838992D01*
X12473018Y5834198D01*
X12480126Y5828033D01*
X12486285Y5820932D01*
X12491074Y5818538D01*
X12495125Y5815024D01*
X12504050Y5812050D01*
X12512458Y5807845D01*
X12517802Y5807466D01*
X12522888Y5805770D01*
X12532268Y5806437D01*
X12541648Y5805770D01*
X12546733Y5807466D01*
X12552078Y5807845D01*
X12560488Y5812051D01*
X12569410Y5815024D01*
X12573457Y5818535D01*
X12578251Y5820931D01*
X12584414Y5828037D01*
X12591518Y5834198D01*
X12593913Y5838990D01*
X12597425Y5843038D01*
X12603419Y5856464D01*
X12754182Y6308753D01*
X13076316Y6308753D01*
X13076316Y6070658D01*
X13077757Y6056026D01*
X13078788Y6053537D01*
X13078979Y6050849D01*
X13084234Y6037117D01*
X13131853Y5941879D01*
X13135816Y5935583D01*
X13136574Y5933753D01*
X13138263Y5931695D01*
X13139685Y5929436D01*
X13141183Y5928137D01*
X13145901Y5922388D01*
X13193520Y5874768D01*
X13199269Y5870050D01*
X13200570Y5868550D01*
X13202829Y5867128D01*
X13204886Y5865440D01*
X13206713Y5864683D01*
X13213013Y5860718D01*
X13308251Y5813099D01*
X13321982Y5807844D01*
X13324671Y5807653D01*
X13327160Y5806622D01*
X13341792Y5805181D01*
X13579887Y5805181D01*
X13594519Y5806622D01*
X13597008Y5807654D01*
X13599696Y5807844D01*
X13613428Y5813099D01*
X13708666Y5860718D01*
X13714965Y5864683D01*
X13716793Y5865440D01*
X13718849Y5867128D01*
X13721109Y5868550D01*
X13722409Y5870050D01*
X13728159Y5874768D01*
X13775777Y5922387D01*
X13785105Y5933753D01*
X13796303Y5960789D01*
X13796303Y5990052D01*
X13785104Y6017088D01*
X13764411Y6037781D01*
X13737375Y6048979D01*
X13708112Y6048979D01*
X13681076Y6037780D01*
X13669710Y6028452D01*
X13630697Y5989439D01*
X13562182Y5955181D01*
X13359497Y5955181D01*
X13290981Y5989439D01*
X13260574Y6019847D01*
X13226316Y6088363D01*
X13226316Y6275766D01*
X14077757Y6275766D01*
X14077757Y6246502D01*
X14088956Y6219466D01*
X14109648Y6198774D01*
X14136684Y6187575D01*
X14151316Y6186134D01*
X14457268Y6186134D01*
X14457268Y5880181D01*
X14458709Y5865549D01*
X14469908Y5838513D01*
X14490600Y5817821D01*
X14517636Y5806622D01*
X14546900Y5806622D01*
X14573936Y5817821D01*
X14594628Y5838513D01*
X14605827Y5865549D01*
X14607268Y5880181D01*
X14607268Y6186134D01*
X14913220Y6186134D01*
X14927852Y6187575D01*
X14954888Y6198774D01*
X14975580Y6219466D01*
X14986779Y6246502D01*
X14986779Y6275766D01*
X14975580Y6302802D01*
X14954888Y6323494D01*
X14927852Y6334693D01*
X14913220Y6336134D01*
X14607268Y6336134D01*
X14607268Y6642086D01*
X14605827Y6656718D01*
X14594628Y6683754D01*
X14573936Y6704446D01*
X14546900Y6715645D01*
X14517636Y6715645D01*
X14490600Y6704446D01*
X14469908Y6683754D01*
X14458709Y6656718D01*
X14457268Y6642086D01*
X14457268Y6336134D01*
X14151316Y6336134D01*
X14136684Y6334693D01*
X14109648Y6323494D01*
X14088956Y6302802D01*
X14077757Y6275766D01*
X13226316Y6275766D01*
X13226316Y6291048D01*
X13260574Y6359564D01*
X13290981Y6389971D01*
X13359497Y6424229D01*
X13562182Y6424229D01*
X13630698Y6389971D01*
X13669711Y6350958D01*
X13681076Y6341631D01*
X13684564Y6340186D01*
X13687488Y6337794D01*
X13697985Y6334627D01*
X13708112Y6330432D01*
X13711888Y6330432D01*
X13715504Y6329341D01*
X13726414Y6330432D01*
X13737375Y6330432D01*
X13740863Y6331878D01*
X13744623Y6332253D01*
X13754286Y6337438D01*
X13764411Y6341631D01*
X13767081Y6344302D01*
X13770410Y6346087D01*
X13777355Y6354576D01*
X13785104Y6362324D01*
X13786548Y6365811D01*
X13788941Y6368735D01*
X13792109Y6379236D01*
X13796303Y6389360D01*
X13796303Y6393136D01*
X13797394Y6396751D01*
X13797372Y6411454D01*
X13749753Y6887644D01*
X13748684Y6892977D01*
X13748684Y6894813D01*
X13747970Y6896536D01*
X13746863Y6902060D01*
X13741680Y6911720D01*
X13737485Y6921849D01*
X13734813Y6924521D01*
X13733029Y6927847D01*
X13724546Y6934788D01*
X13716793Y6942541D01*
X13713304Y6943987D01*
X13710381Y6946378D01*
X13699883Y6949546D01*
X13689757Y6953740D01*
X13684151Y6954293D01*
X13682365Y6954831D01*
X13680536Y6954649D01*
X13675125Y6955181D01*
X13198935Y6955181D01*
X13184303Y6953740D01*
X13157267Y6942541D01*
X13136575Y6921849D01*
X13125376Y6894813D01*
X13125376Y6865549D01*
X13136575Y6838513D01*
X13157267Y6817821D01*
X13184303Y6806622D01*
X13198935Y6805181D01*
X13607251Y6805181D01*
X13632069Y6556991D01*
X13613428Y6566311D01*
X13599696Y6571566D01*
X13597008Y6571757D01*
X13594519Y6572788D01*
X13579887Y6574229D01*
X13341792Y6574229D01*
X13327160Y6572788D01*
X13324671Y6571758D01*
X13321982Y6571566D01*
X13308251Y6566311D01*
X13213013Y6518692D01*
X13206713Y6514728D01*
X13204886Y6513970D01*
X13202829Y6512282D01*
X13200570Y6510860D01*
X13199270Y6509362D01*
X13193521Y6504643D01*
X13145902Y6457024D01*
X13141183Y6451275D01*
X13139685Y6449975D01*
X13138263Y6447716D01*
X13136575Y6445659D01*
X13135817Y6443832D01*
X13131853Y6437532D01*
X13084234Y6342294D01*
X13078979Y6328562D01*
X13078788Y6325875D01*
X13077757Y6323385D01*
X13076316Y6308753D01*
X12754182Y6308753D01*
X12936752Y6856464D01*
X12940012Y6870800D01*
X12937937Y6899990D01*
X12924851Y6926164D01*
X12902743Y6945338D01*
X12874981Y6954592D01*
X12845791Y6952517D01*
X12819618Y6939430D01*
X12800444Y6917323D01*
X12794450Y6903898D01*
X12532268Y6117352D01*
X12270086Y6903898D01*
X12264092Y6917324D01*
X12244918Y6939431D01*
X12218745Y6952517D01*
X12189555Y6954592D01*
X12161792Y6945338D01*
X12139685Y6926164D01*
X12126599Y6899991D01*
X12124524Y6870801D01*
X12013413Y6870801D01*
X12013413Y7066292D01*
X15097890Y7066292D01*
X15097890Y5694070D01*
G37*
%LPC*%
D11*
%TO.C,J4*%
X12540000Y45030000D03*
D12*
X10000000Y45030000D03*
X12540000Y42490000D03*
X10000000Y42490000D03*
X12540000Y39950000D03*
X10000000Y39950000D03*
X12540000Y37410000D03*
X10000000Y37410000D03*
X12540000Y34870000D03*
X10000000Y34870000D03*
X12540000Y32330000D03*
X10000000Y32330000D03*
%TD*%
D11*
%TO.C,J3*%
X10000000Y50120000D03*
D12*
X12540000Y50120000D03*
%TD*%
D11*
%TO.C,J6*%
X12540000Y22170000D03*
D12*
X10000000Y22170000D03*
X12540000Y19630000D03*
X10000000Y19630000D03*
X12540000Y17090000D03*
X10000000Y17090000D03*
X12540000Y14550000D03*
X10000000Y14550000D03*
X12540000Y12010000D03*
X10000000Y12010000D03*
X12540000Y9470000D03*
X10000000Y9470000D03*
%TD*%
D13*
%TO.C,J2*%
X25750000Y2250000D03*
D14*
X26837000Y5250000D03*
X31687000Y5250000D03*
D13*
X32774000Y2250000D03*
%TD*%
D11*
%TO.C,J7*%
X10000000Y4390000D03*
D12*
X12540000Y4390000D03*
%TD*%
D15*
%TO.C,REF\u002A\u002A*%
X79100000Y3500000D03*
X79802944Y5197056D03*
X79802944Y1802944D03*
X81500000Y5900000D03*
D16*
X81500000Y3500000D03*
D15*
X81500000Y1100000D03*
X83197056Y5197056D03*
X83197056Y1802944D03*
X83900000Y3500000D03*
%TD*%
%TO.C,REF\u002A\u002A*%
X1100000Y3500000D03*
X1802944Y5197056D03*
X1802944Y1802944D03*
X3500000Y5900000D03*
D16*
X3500000Y3500000D03*
D15*
X3500000Y1100000D03*
X5197056Y5197056D03*
X5197056Y1802944D03*
X5900000Y3500000D03*
%TD*%
D17*
%TO.C,J1*%
X75250000Y51175000D03*
X66750000Y51175000D03*
%TD*%
D15*
%TO.C,REF\u002A\u002A*%
X1100000Y50500000D03*
X1802944Y52197056D03*
X1802944Y48802944D03*
X3500000Y52900000D03*
D16*
X3500000Y50500000D03*
D15*
X3500000Y48100000D03*
X5197056Y52197056D03*
X5197056Y48802944D03*
X5900000Y50500000D03*
%TD*%
%TO.C,REF\u002A\u002A*%
X79100000Y50500000D03*
X79802944Y52197056D03*
X79802944Y48802944D03*
X81500000Y52900000D03*
D16*
X81500000Y50500000D03*
D15*
X81500000Y48100000D03*
X83197056Y52197056D03*
X83197056Y48802944D03*
X83900000Y50500000D03*
%TD*%
D11*
%TO.C,J5*%
X10000000Y27250000D03*
D12*
X12540000Y27250000D03*
%TD*%
%LPD*%
M02*
