G04*
G04 #@! TF.GenerationSoftware,Altium Limited,Altium Designer,19.1.7 (138)*
G04*
G04 Layer_Color=65535*
%FSLAX44Y44*%
%MOMM*%
G71*
G01*
G75*
%ADD10C,0.2500*%
%ADD11C,0.2540*%
%ADD12C,0.1000*%
%ADD13C,0.2000*%
%ADD14C,0.1524*%
%ADD15C,0.1500*%
%ADD16C,0.4000*%
%ADD17C,0.0500*%
D10*
X381500Y226525D02*
G03*
X381500Y226525I-1250J0D01*
G01*
D11*
X168848Y54970D02*
G03*
X168848Y54970I-508J0D01*
G01*
D12*
X110000Y168000D02*
X124000D01*
X124000Y138000D02*
Y168000D01*
X110000Y138000D02*
Y168000D01*
Y138000D02*
X124000D01*
X320500Y235500D02*
X350500D01*
X320500D02*
Y248500D01*
X350500D01*
Y235500D02*
Y248500D01*
X211500Y75750D02*
Y105750D01*
X198500Y75750D02*
X211500D01*
X198500D02*
Y105750D01*
X211500D01*
X214500Y76000D02*
Y106000D01*
X227500D01*
Y76000D02*
Y106000D01*
X214500Y76000D02*
X227500D01*
X195500Y235750D02*
X225500D01*
X195500D02*
Y248750D01*
X225500D01*
Y235750D02*
Y248750D01*
X192500Y179000D02*
X222500D01*
X192500D02*
Y192000D01*
X222500D01*
Y179000D02*
Y192000D01*
X151250Y157500D02*
X165250D01*
X151250D02*
Y187500D01*
X165250Y157500D02*
Y187500D01*
X151250D02*
X165250D01*
X135500Y157500D02*
X149500D01*
X135500D02*
Y187500D01*
X149500Y157500D02*
Y187500D01*
X135500D02*
X149500D01*
X134780Y270010D02*
X145504Y279009D01*
X115496Y292991D02*
X134780Y270010D01*
X126221Y301990D02*
X145504Y279009D01*
X115496Y292991D02*
X126221Y301990D01*
X164000Y152750D02*
X178000D01*
X178000Y122750D02*
Y152750D01*
X164000Y122750D02*
Y152750D01*
Y122750D02*
X178000D01*
X179250Y157500D02*
Y187500D01*
X166250Y157500D02*
X179250D01*
X166250D02*
Y187500D01*
X179250D01*
X187500Y50250D02*
Y64250D01*
Y64250D02*
X217500D01*
X187500Y50250D02*
X217500D01*
Y64250D01*
X20250Y235250D02*
Y249250D01*
Y249250D02*
X50250D01*
X20250Y235250D02*
X50250D01*
Y249250D01*
X102750Y36750D02*
X116750D01*
X102750D02*
Y66750D01*
X116750Y36750D02*
Y66750D01*
X102750D02*
X116750D01*
D13*
X326250Y161250D02*
Y169750D01*
X355250D01*
Y161250D02*
Y169750D01*
X326250Y161250D02*
X355250D01*
X325750Y149250D02*
Y157750D01*
X850Y261800D02*
X68750D01*
X850D02*
Y416200D01*
X25850D01*
X-66650Y275500D02*
X850D01*
X-66650Y300900D02*
X850D01*
X-66650Y326300D02*
X850D01*
X-66650Y351700D02*
X850D01*
X-66650Y377100D02*
X850D01*
X-66650Y402500D02*
X850D01*
X1350Y16800D02*
X69250D01*
X1350D02*
Y171200D01*
X26350D01*
X-66150Y30500D02*
X1350D01*
X-66150Y55900D02*
X1350D01*
X-66150Y81300D02*
X1350D01*
X-66150Y106700D02*
X1350D01*
X-66150Y132100D02*
X1350D01*
X-66150Y157500D02*
X1350D01*
X379750Y194025D02*
Y220025D01*
X370250Y194025D02*
X379750D01*
X333750D02*
Y220025D01*
Y194025D02*
X343250D01*
X21750Y223000D02*
X35750D01*
X39250Y192500D02*
Y222500D01*
Y192500D02*
X62250D01*
Y222500D01*
X39250D02*
X62250D01*
X412750Y224623D02*
Y260850D01*
X429250D01*
X412750Y165650D02*
X429250D01*
X498790Y182310D02*
X500900Y239900D01*
X497410Y182310D02*
X500900Y239900D01*
X495300Y186100D02*
X500900Y239900D01*
X493190Y182310D02*
X498790Y244190D01*
X491810Y182310D02*
X497410Y244190D01*
X489700Y186100D02*
X495300Y240400D01*
X487590Y182310D02*
X493190Y244190D01*
X486210Y182310D02*
X491810Y244190D01*
X484100Y186100D02*
X489700Y240400D01*
X481990Y182310D02*
X487590Y244190D01*
X480610Y182310D02*
X486210Y244190D01*
X478500Y186100D02*
X484100Y240400D01*
X476390Y182310D02*
X481990Y244190D01*
X475010Y182310D02*
X480610Y244190D01*
X472900Y186100D02*
X478500Y240400D01*
X470790Y182310D02*
X476390Y244190D01*
X469410Y182310D02*
X475010Y244190D01*
X461700Y186123D02*
X465190Y244190D01*
X461700Y186600D02*
X463810Y244190D01*
X461700Y186123D02*
X467300Y240400D01*
Y186100D02*
X472900Y240400D01*
X465190Y182310D02*
X470790Y244190D01*
X463810Y182310D02*
X469410Y244190D01*
X429250Y237783D02*
X457950D01*
X500900Y239900D02*
X508050D01*
Y186600D02*
Y239900D01*
X500900Y186600D02*
X508050D01*
X429250Y188776D02*
X457950D01*
Y237783D01*
Y237783D02*
X461700Y239900D01*
Y186123D02*
Y240400D01*
X463810Y244190D01*
X465190D01*
X467300Y240400D01*
X469410Y244190D01*
X470790D01*
X472900Y240400D01*
X475010Y244190D01*
X476390D01*
X478500Y240400D01*
X480610Y244190D01*
X481990D01*
X484100Y240400D01*
X486210Y244190D01*
X487590D01*
X489700Y240400D01*
X491810Y244190D01*
X493190D01*
X495300Y240400D01*
X497410Y244190D01*
X498790D01*
X500900Y239900D01*
Y186100D02*
Y239900D01*
X498790Y182310D02*
X500900Y186100D01*
X497410Y182310D02*
X498790D01*
X495300Y186100D02*
X497410Y182310D01*
X493190D02*
X495300Y186100D01*
X491810Y182310D02*
X493190D01*
X489700Y186100D02*
X491810Y182310D01*
X487590D02*
X489700Y186100D01*
X486210Y182310D02*
X487590D01*
X484100Y186100D02*
X486210Y182310D01*
X481990D02*
X484100Y186100D01*
X480610Y182310D02*
X481990D01*
X478500Y186100D02*
X480610Y182310D01*
X476390D02*
X478500Y186100D01*
X475010Y182310D02*
X476390D01*
X472900Y186100D02*
X475010Y182310D01*
X470790D02*
X472900Y186100D01*
X469410Y182310D02*
X470790D01*
X467300Y186100D02*
X469410Y182310D01*
X465190D02*
X467300Y186100D01*
X463810Y182310D02*
X465190D01*
X461700Y186123D02*
X463810Y182310D01*
X457950Y188776D02*
X461700Y186600D01*
X412750Y165650D02*
Y201877D01*
X429250Y165650D02*
Y260850D01*
X151000Y123600D02*
X159500D01*
X147500Y123500D02*
Y152500D01*
X139000D02*
X147500D01*
X139000Y123500D02*
Y152500D01*
Y123500D02*
X147500D01*
X249700Y170220D02*
X281800D01*
X249700D02*
Y256780D01*
X281800D01*
Y170220D02*
Y256780D01*
X285300Y179000D02*
X300500D01*
D14*
X130494Y89006D02*
X163006D01*
X130494Y56494D02*
X163006D01*
X134122Y197814D02*
X136068Y196181D01*
X97931Y228182D02*
X99564Y230128D01*
X129932Y266319D02*
X131878Y264686D01*
X166436Y232372D02*
X168069Y234318D01*
X128299Y264373D02*
X129932Y266319D01*
X97931Y228182D02*
X99877Y226549D01*
X136068Y196181D02*
X137701Y198127D01*
X166123Y235951D02*
X168069Y234318D01*
D15*
X360999Y52583D02*
Y53749D01*
X359833D01*
Y52583D01*
X360999D01*
X362165Y53749D01*
Y56081D01*
X360999Y57248D01*
X358666D01*
X357500Y56081D01*
Y51416D01*
X358666Y50250D01*
X362165D01*
X364498D02*
Y57248D01*
Y52583D02*
X367997Y54915D01*
X364498Y52583D02*
X367997Y50250D01*
X374994D02*
X372662D01*
X371496Y51416D01*
Y53749D01*
X372662Y54915D01*
X374994D01*
X376161Y53749D01*
Y52583D01*
X371496D01*
X378493Y50250D02*
X380826D01*
X379660D01*
Y57248D01*
X378493D01*
X384325Y54915D02*
Y51416D01*
X385491Y50250D01*
X388990D01*
Y54915D01*
X391323Y50250D02*
X393655D01*
X392489D01*
Y57248D01*
X391323Y56081D01*
X401819Y50250D02*
X397154D01*
X401819Y54915D01*
Y56081D01*
X400653Y57248D01*
X398320D01*
X397154Y56081D01*
X407650Y50250D02*
Y57248D01*
X404152Y53749D01*
X408817D01*
X221500Y34748D02*
Y27750D01*
Y31249D01*
X222666Y32415D01*
X224999D01*
X226165Y31249D01*
Y27750D01*
X229664Y33582D02*
Y32415D01*
X228498D01*
X230830D01*
X229664D01*
Y28916D01*
X230830Y27750D01*
X235495Y33582D02*
Y32415D01*
X234329D01*
X236662D01*
X235495D01*
Y28916D01*
X236662Y27750D01*
X240161Y25417D02*
Y32415D01*
X243659D01*
X244826Y31249D01*
Y28916D01*
X243659Y27750D01*
X240161D01*
X247158Y32415D02*
X248325D01*
Y31249D01*
X247158D01*
Y32415D01*
Y28916D02*
X248325D01*
Y27750D01*
X247158D01*
Y28916D01*
X252990Y27750D02*
X257655Y32415D01*
X259988Y27750D02*
X264653Y32415D01*
X266985D02*
Y28916D01*
X268152Y27750D01*
X271651D01*
Y32415D01*
X273983Y27750D02*
Y32415D01*
X277482D01*
X278648Y31249D01*
Y27750D01*
X280981Y33582D02*
X282147Y34748D01*
X284480D01*
X285646Y33582D01*
Y28916D01*
X284480Y27750D01*
X282147D01*
X280981Y28916D01*
Y33582D01*
X287979Y32415D02*
Y27750D01*
Y30083D01*
X289145Y31249D01*
X290311Y32415D01*
X291478D01*
X294976Y27750D02*
X297309D01*
X296143D01*
Y32415D01*
X294976D01*
X305473D02*
X301974D01*
X300808Y31249D01*
Y28916D01*
X301974Y27750D01*
X305473D01*
X307806D02*
Y34748D01*
Y30083D02*
X311304Y32415D01*
X307806Y30083D02*
X311304Y27750D01*
X314803D02*
Y28916D01*
X315970D01*
Y27750D01*
X314803D01*
X325300Y32415D02*
X321801D01*
X320635Y31249D01*
Y28916D01*
X321801Y27750D01*
X325300D01*
X332298Y32415D02*
X328799D01*
X327632Y31249D01*
Y28916D01*
X328799Y27750D01*
X332298D01*
X334630D02*
X339296Y32415D01*
X343961Y25417D02*
X345127D01*
X346293Y26584D01*
Y32415D01*
X342794D01*
X341628Y31249D01*
Y28916D01*
X342794Y27750D01*
X346293D01*
X349792D02*
X352125D01*
X353291Y28916D01*
Y31249D01*
X352125Y32415D01*
X349792D01*
X348626Y31249D01*
Y28916D01*
X349792Y27750D01*
X356790D02*
X359122D01*
X360289Y28916D01*
Y31249D01*
X359122Y32415D01*
X356790D01*
X355624Y31249D01*
Y28916D01*
X356790Y27750D01*
X367286Y34748D02*
Y27750D01*
X363788D01*
X362621Y28916D01*
Y31249D01*
X363788Y32415D01*
X367286D01*
X369619Y27750D02*
X371952D01*
X370785D01*
Y32415D01*
X369619D01*
X378949Y27750D02*
X376617D01*
X375451Y28916D01*
Y31249D01*
X376617Y32415D01*
X378949D01*
X380116Y31249D01*
Y30083D01*
X375451D01*
X382448Y27750D02*
X385947D01*
X387113Y28916D01*
X385947Y30083D01*
X383615D01*
X382448Y31249D01*
X383615Y32415D01*
X387113D01*
X389446Y27750D02*
X394111Y32415D01*
X397610D02*
X399943D01*
X401109Y31249D01*
Y27750D01*
X397610D01*
X396444Y28916D01*
X397610Y30083D01*
X401109D01*
X404608Y27750D02*
Y33582D01*
Y31249D01*
X403442D01*
X405774D01*
X404608D01*
Y33582D01*
X405774Y34748D01*
X412772Y27750D02*
X410439D01*
X409273Y28916D01*
Y31249D01*
X410439Y32415D01*
X412772D01*
X413938Y31249D01*
Y30083D01*
X409273D01*
D16*
X265500Y399250D02*
Y409247D01*
X270498Y414245D01*
X275497Y409247D01*
Y399250D01*
Y406748D01*
X265500D01*
X290492Y414245D02*
X280495D01*
Y406748D01*
X285494D01*
X280495D01*
Y399250D01*
X305487Y414245D02*
X295490D01*
Y399250D01*
X305487D01*
X295490Y406748D02*
X300489D01*
X325481Y409247D02*
X330479Y399250D01*
X335477Y409247D01*
X340476Y399250D02*
X345474D01*
X342975D01*
Y414245D01*
X340476Y411746D01*
X352972Y399250D02*
Y401749D01*
X355471D01*
Y399250D01*
X352972D01*
X365468Y411746D02*
X367967Y414245D01*
X372965D01*
X375464Y411746D01*
Y401749D01*
X372965Y399250D01*
X367967D01*
X365468Y401749D01*
Y411746D01*
D17*
X119750Y90499D02*
Y89250D01*
X120000Y89000D01*
X120500D01*
X120750Y89250D01*
Y90499D01*
X122249Y89000D02*
X121250D01*
X122249Y90000D01*
Y90250D01*
X121999Y90499D01*
X121499D01*
X121250Y90250D01*
X125000Y157000D02*
Y158500D01*
X125750D01*
X126000Y158250D01*
Y157750D01*
X125750Y157500D01*
X125000D01*
X127499Y158250D02*
X127249Y158500D01*
X126749D01*
X126500Y158250D01*
Y158000D01*
X126749Y157750D01*
X127249D01*
X127499Y157500D01*
Y157250D01*
X127249Y157000D01*
X126749D01*
X126500Y157250D01*
X127999Y157000D02*
X128499D01*
X128249D01*
Y158500D01*
X127999Y158250D01*
X357500Y269000D02*
Y267500D01*
Y268000D01*
X358500Y269000D01*
X357750Y268250D01*
X358500Y267500D01*
X358999D02*
X359499D01*
X359249D01*
Y269000D01*
X358999Y268750D01*
X324000Y186500D02*
Y185000D01*
X324750D01*
X325000Y185250D01*
Y186250D01*
X324750Y186500D01*
X324000D01*
X325499Y185000D02*
X325999D01*
X325749D01*
Y186500D01*
X325499Y186250D01*
X158000Y49250D02*
X157750Y49500D01*
X157250D01*
X157000Y49250D01*
Y49000D01*
X157250Y48750D01*
X157750D01*
X158000Y48500D01*
Y48250D01*
X157750Y48000D01*
X157250D01*
X157000Y48250D01*
X158499Y48000D02*
Y49500D01*
X159249D01*
X159499Y49250D01*
Y48750D01*
X159249Y48500D01*
X158499D01*
X160999Y49500D02*
X159999D01*
Y48750D01*
X160499Y49000D01*
X160749D01*
X160999Y48750D01*
Y48250D01*
X160749Y48000D01*
X160249D01*
X159999Y48250D01*
X195750Y147250D02*
X195500Y147500D01*
X195000D01*
X194750Y147250D01*
Y147000D01*
X195000Y146750D01*
X195500D01*
X195750Y146500D01*
Y146250D01*
X195500Y146000D01*
X195000D01*
X194750Y146250D01*
X196250Y146000D02*
Y147500D01*
X196999D01*
X197249Y147250D01*
Y146750D01*
X196999Y146500D01*
X196250D01*
X197749Y147250D02*
X197999Y147500D01*
X198499D01*
X198749Y147250D01*
Y147000D01*
X198499Y146750D01*
X198249D01*
X198499D01*
X198749Y146500D01*
Y146250D01*
X198499Y146000D01*
X197999D01*
X197749Y146250D01*
X292500Y277750D02*
X292250Y277999D01*
X291750D01*
X291500Y277750D01*
Y277500D01*
X291750Y277250D01*
X292250D01*
X292500Y277000D01*
Y276750D01*
X292250Y276500D01*
X291750D01*
X291500Y276750D01*
X292999Y276500D02*
Y277999D01*
X293749D01*
X293999Y277750D01*
Y277250D01*
X293749Y277000D01*
X292999D01*
X295499Y276500D02*
X294499D01*
X295499Y277500D01*
Y277750D01*
X295249Y277999D01*
X294749D01*
X294499Y277750D01*
X251250Y278500D02*
X251000Y278750D01*
X250500D01*
X250250Y278500D01*
Y278250D01*
X250500Y278000D01*
X251000D01*
X251250Y277750D01*
Y277500D01*
X251000Y277250D01*
X250500D01*
X250250Y277500D01*
X251749Y277250D02*
Y278750D01*
X252499D01*
X252749Y278500D01*
Y278000D01*
X252499Y277750D01*
X251749D01*
X253249Y277250D02*
X253749D01*
X253499D01*
Y278750D01*
X253249Y278500D01*
X265000Y165750D02*
Y167250D01*
X265750D01*
X266000Y167000D01*
Y166500D01*
X265750Y166250D01*
X265000D01*
X265500D02*
X266000Y165750D01*
X266500D02*
X266999D01*
X266749D01*
Y167250D01*
X266500Y167000D01*
X267749Y165750D02*
X268249D01*
X267999D01*
Y167250D01*
X267749Y167000D01*
X251500Y165750D02*
Y167250D01*
X252250D01*
X252500Y167000D01*
Y166500D01*
X252250Y166250D01*
X251500D01*
X252000D02*
X252500Y165750D01*
X252999D02*
X253499D01*
X253249D01*
Y167250D01*
X252999Y167000D01*
X254249D02*
X254499Y167250D01*
X254999D01*
X255249Y167000D01*
Y166000D01*
X254999Y165750D01*
X254499D01*
X254249Y166000D01*
Y167000D01*
X205000Y174500D02*
Y176000D01*
X205750D01*
X206000Y175750D01*
Y175250D01*
X205750Y175000D01*
X205000D01*
X205500D02*
X206000Y174500D01*
X206500Y174750D02*
X206749Y174500D01*
X207249D01*
X207499Y174750D01*
Y175750D01*
X207249Y176000D01*
X206749D01*
X206500Y175750D01*
Y175500D01*
X206749Y175250D01*
X207499D01*
X224000Y271000D02*
Y272500D01*
X224750D01*
X225000Y272250D01*
Y271750D01*
X224750Y271500D01*
X224000D01*
X224500D02*
X225000Y271000D01*
X225499Y272250D02*
X225749Y272500D01*
X226249D01*
X226499Y272250D01*
Y272000D01*
X226249Y271750D01*
X226499Y271500D01*
Y271250D01*
X226249Y271000D01*
X225749D01*
X225499Y271250D01*
Y271500D01*
X225749Y271750D01*
X225499Y272000D01*
Y272250D01*
X225749Y271750D02*
X226249D01*
X304000Y208750D02*
Y210250D01*
X304750D01*
X305000Y210000D01*
Y209500D01*
X304750Y209250D01*
X304000D01*
X304500D02*
X305000Y208750D01*
X305499Y210250D02*
X306499D01*
Y210000D01*
X305499Y209000D01*
Y208750D01*
X205500Y163750D02*
Y165250D01*
X206250D01*
X206500Y165000D01*
Y164500D01*
X206250Y164250D01*
X205500D01*
X206000D02*
X206500Y163750D01*
X207999Y165250D02*
X207499Y165000D01*
X206999Y164500D01*
Y164000D01*
X207249Y163750D01*
X207749D01*
X207999Y164000D01*
Y164250D01*
X207749Y164500D01*
X206999D01*
X188000Y201750D02*
Y203249D01*
X188750D01*
X189000Y203000D01*
Y202500D01*
X188750Y202250D01*
X188000D01*
X188500D02*
X189000Y201750D01*
X190499Y203249D02*
X189499D01*
Y202500D01*
X189999Y202750D01*
X190249D01*
X190499Y202500D01*
Y202000D01*
X190249Y201750D01*
X189749D01*
X189499Y202000D01*
X222750Y201000D02*
Y202500D01*
X223500D01*
X223750Y202250D01*
Y201750D01*
X223500Y201500D01*
X222750D01*
X223250D02*
X223750Y201000D01*
X224999D02*
Y202500D01*
X224249Y201750D01*
X225249D01*
X175500Y247500D02*
Y249000D01*
X176250D01*
X176500Y248750D01*
Y248250D01*
X176250Y248000D01*
X175500D01*
X176000D02*
X176500Y247500D01*
X176999Y248750D02*
X177249Y249000D01*
X177749D01*
X177999Y248750D01*
Y248500D01*
X177749Y248250D01*
X177499D01*
X177749D01*
X177999Y248000D01*
Y247750D01*
X177749Y247500D01*
X177249D01*
X176999Y247750D01*
X204500Y222750D02*
Y224249D01*
X205250D01*
X205500Y224000D01*
Y223500D01*
X205250Y223250D01*
X204500D01*
X205000D02*
X205500Y222750D01*
X206999D02*
X206000D01*
X206999Y223750D01*
Y224000D01*
X206749Y224249D01*
X206249D01*
X206000Y224000D01*
X218500Y225250D02*
Y226749D01*
X219250D01*
X219500Y226500D01*
Y226000D01*
X219250Y225750D01*
X218500D01*
X219000D02*
X219500Y225250D01*
X220000D02*
X220499D01*
X220249D01*
Y226749D01*
X220000Y226500D01*
X103580Y74372D02*
X103330Y74622D01*
X102830D01*
X102580Y74372D01*
Y73372D01*
X102830Y73122D01*
X103330D01*
X103580Y73372D01*
X104080Y74372D02*
X104329Y74622D01*
X104829D01*
X105079Y74372D01*
Y74122D01*
X104829Y73872D01*
X104579D01*
X104829D01*
X105079Y73622D01*
Y73372D01*
X104829Y73122D01*
X104329D01*
X104080Y73372D01*
X106329Y73122D02*
Y74622D01*
X105579Y73872D01*
X106579D01*
X203500Y67250D02*
X203250Y67499D01*
X202750D01*
X202500Y67250D01*
Y66250D01*
X202750Y66000D01*
X203250D01*
X203500Y66250D01*
X204000Y67250D02*
X204249Y67499D01*
X204749D01*
X204999Y67250D01*
Y67000D01*
X204749Y66750D01*
X204499D01*
X204749D01*
X204999Y66500D01*
Y66250D01*
X204749Y66000D01*
X204249D01*
X204000Y66250D01*
X205499Y67250D02*
X205749Y67499D01*
X206249D01*
X206499Y67250D01*
Y67000D01*
X206249Y66750D01*
X205999D01*
X206249D01*
X206499Y66500D01*
Y66250D01*
X206249Y66000D01*
X205749D01*
X205499Y66250D01*
X110500Y170750D02*
X110250Y171000D01*
X109750D01*
X109500Y170750D01*
Y169750D01*
X109750Y169500D01*
X110250D01*
X110500Y169750D01*
X110999Y170750D02*
X111249Y171000D01*
X111749D01*
X111999Y170750D01*
Y170500D01*
X111749Y170250D01*
X111499D01*
X111749D01*
X111999Y170000D01*
Y169750D01*
X111749Y169500D01*
X111249D01*
X110999Y169750D01*
X112499Y169500D02*
X112999D01*
X112749D01*
Y171000D01*
X112499Y170750D01*
X166000Y155750D02*
X165750Y155999D01*
X165250D01*
X165000Y155750D01*
Y154750D01*
X165250Y154500D01*
X165750D01*
X166000Y154750D01*
X167499Y154500D02*
X166500D01*
X167499Y155500D01*
Y155750D01*
X167249Y155999D01*
X166749D01*
X166500Y155750D01*
X167999Y154750D02*
X168249Y154500D01*
X168749D01*
X168999Y154750D01*
Y155750D01*
X168749Y155999D01*
X168249D01*
X167999Y155750D01*
Y155500D01*
X168249Y155250D01*
X168999D01*
X18000Y236000D02*
X17751Y235750D01*
Y235250D01*
X18000Y235000D01*
X19000D01*
X19250Y235250D01*
Y235750D01*
X19000Y236000D01*
X19250Y237499D02*
Y236500D01*
X18250Y237499D01*
X18000D01*
X17751Y237249D01*
Y236749D01*
X18000Y236500D01*
Y237999D02*
X17751Y238249D01*
Y238749D01*
X18000Y238999D01*
X18250D01*
X18500Y238749D01*
X18750Y238999D01*
X19000D01*
X19250Y238749D01*
Y238249D01*
X19000Y237999D01*
X18750D01*
X18500Y238249D01*
X18250Y237999D01*
X18000D01*
X18500Y238249D02*
Y238749D01*
X113963Y295850D02*
X113610Y295881D01*
X113228Y295559D01*
X113197Y295207D01*
X113839Y294441D01*
X114191Y294411D01*
X114574Y294732D01*
X114605Y295084D01*
X115914Y295856D02*
X115149Y295214D01*
X115272Y296622D01*
X115111Y296814D01*
X114759Y296845D01*
X114376Y296523D01*
X114346Y296171D01*
X115494Y297135D02*
X115525Y297487D01*
X115908Y297808D01*
X116260Y297778D01*
X116421Y297586D01*
X116390Y297234D01*
X116198Y297073D01*
X116390Y297234D01*
X116742Y297203D01*
X116903Y297012D01*
X116872Y296660D01*
X116489Y296338D01*
X116137Y296369D01*
X135000Y190500D02*
X134750Y190749D01*
X134250D01*
X134000Y190500D01*
Y189500D01*
X134250Y189250D01*
X134750D01*
X135000Y189500D01*
X136499Y190749D02*
X135999Y190500D01*
X135499Y190000D01*
Y189500D01*
X135749Y189250D01*
X136249D01*
X136499Y189500D01*
Y189750D01*
X136249Y190000D01*
X135499D01*
X175000Y88250D02*
X174750Y88499D01*
X174250D01*
X174000Y88250D01*
Y87250D01*
X174250Y87000D01*
X174750D01*
X175000Y87250D01*
X175499Y88250D02*
X175749Y88499D01*
X176249D01*
X176499Y88250D01*
Y88000D01*
X176249Y87750D01*
X175999D01*
X176249D01*
X176499Y87500D01*
Y87250D01*
X176249Y87000D01*
X175749D01*
X175499Y87250D01*
X177999Y87000D02*
X176999D01*
X177999Y88000D01*
Y88250D01*
X177749Y88499D01*
X177249D01*
X176999Y88250D01*
X17500Y227500D02*
X17250Y227250D01*
Y226750D01*
X17500Y226500D01*
X18500D01*
X18750Y226750D01*
Y227250D01*
X18500Y227500D01*
X17500Y227999D02*
X17250Y228249D01*
Y228749D01*
X17500Y228999D01*
X17750D01*
X18000Y228749D01*
Y228499D01*
Y228749D01*
X18250Y228999D01*
X18500D01*
X18750Y228749D01*
Y228249D01*
X18500Y227999D01*
X17500Y229499D02*
X17250Y229749D01*
Y230249D01*
X17500Y230499D01*
X18500D01*
X18750Y230249D01*
Y229749D01*
X18500Y229499D01*
X17500D01*
X189250Y106250D02*
X189000Y106500D01*
X188500D01*
X188250Y106250D01*
Y105250D01*
X188500Y105000D01*
X189000D01*
X189250Y105250D01*
X190749Y105000D02*
X189750D01*
X190749Y106000D01*
Y106250D01*
X190499Y106500D01*
X189999D01*
X189750Y106250D01*
X191249Y106500D02*
X192249D01*
Y106250D01*
X191249Y105250D01*
Y105000D01*
X179250Y106500D02*
X179000Y106749D01*
X178500D01*
X178250Y106500D01*
Y105500D01*
X178500Y105250D01*
X179000D01*
X179250Y105500D01*
X180749Y105250D02*
X179750D01*
X180749Y106250D01*
Y106500D01*
X180499Y106749D01*
X179999D01*
X179750Y106500D01*
X182249Y106749D02*
X181749Y106500D01*
X181249Y106000D01*
Y105500D01*
X181499Y105250D01*
X181999D01*
X182249Y105500D01*
Y105750D01*
X181999Y106000D01*
X181249D01*
X239250Y107000D02*
X239000Y107249D01*
X238500D01*
X238250Y107000D01*
Y106000D01*
X238500Y105750D01*
X239000D01*
X239250Y106000D01*
X240749Y105750D02*
X239750D01*
X240749Y106750D01*
Y107000D01*
X240499Y107249D01*
X239999D01*
X239750Y107000D01*
X242249Y107249D02*
X241249D01*
Y106500D01*
X241749Y106750D01*
X241999D01*
X242249Y106500D01*
Y106000D01*
X241999Y105750D01*
X241499D01*
X241249Y106000D01*
X230250Y106750D02*
X230000Y107000D01*
X229500D01*
X229250Y106750D01*
Y105750D01*
X229500Y105500D01*
X230000D01*
X230250Y105750D01*
X231749Y105500D02*
X230749D01*
X231749Y106500D01*
Y106750D01*
X231499Y107000D01*
X230999D01*
X230749Y106750D01*
X232999Y105500D02*
Y107000D01*
X232249Y106250D01*
X233249D01*
X114213Y283100D02*
X113861Y283131D01*
X113478Y282809D01*
X113447Y282457D01*
X114089Y281691D01*
X114441Y281661D01*
X114824Y281982D01*
X114855Y282334D01*
X116165Y283106D02*
X115399Y282464D01*
X115522Y283872D01*
X115361Y284064D01*
X115009Y284095D01*
X114626Y283773D01*
X114595Y283421D01*
X117313Y284070D02*
X116547Y283428D01*
X116671Y284836D01*
X116510Y285028D01*
X116158Y285058D01*
X115775Y284737D01*
X115744Y284385D01*
X235750Y270000D02*
X235500Y270250D01*
X235000D01*
X234750Y270000D01*
Y269000D01*
X235000Y268750D01*
X235500D01*
X235750Y269000D01*
X237249Y268750D02*
X236250D01*
X237249Y269750D01*
Y270000D01*
X236999Y270250D01*
X236499D01*
X236250Y270000D01*
X237749Y268750D02*
X238249D01*
X237999D01*
Y270250D01*
X237749Y270000D01*
X216250Y269750D02*
X216000Y270000D01*
X215500D01*
X215250Y269750D01*
Y268750D01*
X215500Y268500D01*
X216000D01*
X216250Y268750D01*
X217749Y268500D02*
X216749D01*
X217749Y269500D01*
Y269750D01*
X217499Y270000D01*
X216999D01*
X216749Y269750D01*
X218249D02*
X218499Y270000D01*
X218999D01*
X219249Y269750D01*
Y268750D01*
X218999Y268500D01*
X218499D01*
X218249Y268750D01*
Y269750D01*
X290500Y260750D02*
X290250Y261000D01*
X289750D01*
X289500Y260750D01*
Y259750D01*
X289750Y259500D01*
X290250D01*
X290500Y259750D01*
X291000Y259500D02*
X291499D01*
X291249D01*
Y261000D01*
X291000Y260750D01*
X292249Y259750D02*
X292499Y259500D01*
X292999D01*
X293249Y259750D01*
Y260750D01*
X292999Y261000D01*
X292499D01*
X292249Y260750D01*
Y260500D01*
X292499Y260250D01*
X293249D01*
X179850Y263787D02*
X179881Y264140D01*
X179559Y264522D01*
X179207Y264553D01*
X178441Y263911D01*
X178411Y263559D01*
X178732Y263176D01*
X179084Y263145D01*
X179214Y262601D02*
X179535Y262218D01*
X179375Y262410D01*
X180523Y263374D01*
X180171Y263405D01*
X180974Y262447D02*
X181326Y262416D01*
X181648Y262034D01*
X181617Y261681D01*
X181425Y261521D01*
X181073Y261552D01*
X181043Y261200D01*
X180851Y261039D01*
X180499Y261070D01*
X180178Y261453D01*
X180208Y261805D01*
X180400Y261965D01*
X180752Y261935D01*
X180783Y262287D01*
X180974Y262447D01*
X180752Y261935D02*
X181073Y261552D01*
X313250Y230250D02*
X313000Y230499D01*
X312500D01*
X312250Y230250D01*
Y229250D01*
X312500Y229000D01*
X313000D01*
X313250Y229250D01*
X313750Y229000D02*
X314249D01*
X313999D01*
Y230499D01*
X313750Y230250D01*
X314999Y230499D02*
X315999D01*
Y230250D01*
X314999Y229250D01*
Y229000D01*
X304000Y230250D02*
X303750Y230499D01*
X303250D01*
X303000Y230250D01*
Y229250D01*
X303250Y229000D01*
X303750D01*
X304000Y229250D01*
X304499Y229000D02*
X304999D01*
X304749D01*
Y230499D01*
X304499Y230250D01*
X306749Y230499D02*
X306249Y230250D01*
X305749Y229750D01*
Y229250D01*
X305999Y229000D01*
X306499D01*
X306749Y229250D01*
Y229500D01*
X306499Y229750D01*
X305749D01*
X151750Y190500D02*
X151500Y190749D01*
X151000D01*
X150750Y190500D01*
Y189500D01*
X151000Y189250D01*
X151500D01*
X151750Y189500D01*
X152249Y189250D02*
X152749D01*
X152499D01*
Y190749D01*
X152249Y190500D01*
X154499Y190749D02*
X153499D01*
Y190000D01*
X153999Y190250D01*
X154249D01*
X154499Y190000D01*
Y189500D01*
X154249Y189250D01*
X153749D01*
X153499Y189500D01*
X175000Y236000D02*
X174750Y236250D01*
X174250D01*
X174000Y236000D01*
Y235000D01*
X174250Y234750D01*
X174750D01*
X175000Y235000D01*
X175499Y234750D02*
X175999D01*
X175749D01*
Y236250D01*
X175499Y236000D01*
X177499Y234750D02*
Y236250D01*
X176749Y235500D01*
X177749D01*
X156213Y262100D02*
X155860Y262131D01*
X155478Y261809D01*
X155447Y261457D01*
X156089Y260692D01*
X156441Y260661D01*
X156824Y260982D01*
X156855Y261334D01*
X157399Y261464D02*
X157782Y261785D01*
X157590Y261625D01*
X156626Y262773D01*
X156595Y262421D01*
X157553Y263224D02*
X157584Y263577D01*
X157966Y263898D01*
X158319Y263867D01*
X158479Y263675D01*
X158448Y263323D01*
X158257Y263163D01*
X158448Y263323D01*
X158800Y263293D01*
X158961Y263101D01*
X158930Y262749D01*
X158547Y262428D01*
X158195Y262459D01*
X155935Y210569D02*
X155583Y210538D01*
X155262Y210155D01*
X155293Y209803D01*
X156059Y209161D01*
X156411Y209191D01*
X156732Y209574D01*
X156701Y209926D01*
X157214Y210149D02*
X157535Y210532D01*
X157374Y210340D01*
X156226Y211304D01*
X156257Y210952D01*
X158660Y211872D02*
X158017Y211106D01*
X157894Y212514D01*
X157702Y212675D01*
X157350Y212644D01*
X157029Y212261D01*
X157060Y211909D01*
X315750Y187000D02*
X315500Y187250D01*
X315000D01*
X314750Y187000D01*
Y186000D01*
X315000Y185750D01*
X315500D01*
X315750Y186000D01*
X316250Y185750D02*
X316749D01*
X316499D01*
Y187250D01*
X316250Y187000D01*
X317499D02*
X317749Y187250D01*
X318249D01*
X318499Y187000D01*
Y186000D01*
X318249Y185750D01*
X317749D01*
X317499Y186000D01*
Y187000D01*
X305750Y199250D02*
X305500Y199499D01*
X305000D01*
X304750Y199250D01*
Y198250D01*
X305000Y198000D01*
X305500D01*
X305750Y198250D01*
X306250D02*
X306499Y198000D01*
X306999D01*
X307249Y198250D01*
Y199250D01*
X306999Y199499D01*
X306499D01*
X306250Y199250D01*
Y199000D01*
X306499Y198750D01*
X307249D01*
X322750Y230500D02*
X322500Y230749D01*
X322000D01*
X321750Y230500D01*
Y229500D01*
X322000Y229250D01*
X322500D01*
X322750Y229500D01*
X323250Y230500D02*
X323499Y230749D01*
X323999D01*
X324249Y230500D01*
Y230250D01*
X323999Y230000D01*
X324249Y229750D01*
Y229500D01*
X323999Y229250D01*
X323499D01*
X323250Y229500D01*
Y229750D01*
X323499Y230000D01*
X323250Y230250D01*
Y230500D01*
X323499Y230000D02*
X323999D01*
X306500Y187000D02*
X306250Y187250D01*
X305750D01*
X305500Y187000D01*
Y186000D01*
X305750Y185750D01*
X306250D01*
X306500Y186000D01*
X306999Y187250D02*
X307999D01*
Y187000D01*
X306999Y186000D01*
Y185750D01*
X126750Y182250D02*
X126500Y182500D01*
X126000D01*
X125750Y182250D01*
Y181250D01*
X126000Y181000D01*
X126500D01*
X126750Y181250D01*
X128249Y182500D02*
X127249D01*
Y181750D01*
X127749Y182000D01*
X127999D01*
X128249Y181750D01*
Y181250D01*
X127999Y181000D01*
X127499D01*
X127249Y181250D01*
X177500Y224500D02*
X177250Y224750D01*
X176750D01*
X176500Y224500D01*
Y223500D01*
X176750Y223250D01*
X177250D01*
X177500Y223500D01*
X178749Y223250D02*
Y224750D01*
X177999Y224000D01*
X178999D01*
X195000Y201750D02*
X194750Y201999D01*
X194250D01*
X194000Y201750D01*
Y200750D01*
X194250Y200500D01*
X194750D01*
X195000Y200750D01*
X195499Y201750D02*
X195749Y201999D01*
X196249D01*
X196499Y201750D01*
Y201500D01*
X196249Y201250D01*
X195999D01*
X196249D01*
X196499Y201000D01*
Y200750D01*
X196249Y200500D01*
X195749D01*
X195499Y200750D01*
X148685Y201819D02*
X148333Y201788D01*
X148012Y201405D01*
X148043Y201053D01*
X148809Y200411D01*
X149161Y200441D01*
X149482Y200824D01*
X149451Y201176D01*
X150606Y202164D02*
X149964Y201399D01*
X149841Y202807D01*
X149649Y202968D01*
X149297Y202937D01*
X148976Y202554D01*
X149007Y202202D01*
X197500Y233250D02*
X197250Y233500D01*
X196750D01*
X196500Y233250D01*
Y232250D01*
X196750Y232000D01*
X197250D01*
X197500Y232250D01*
X197999Y232000D02*
X198499D01*
X198249D01*
Y233500D01*
X197999Y233250D01*
X111185Y188819D02*
X110833Y188788D01*
X110512Y188405D01*
X110543Y188053D01*
X111308Y187411D01*
X111661Y187442D01*
X111982Y187824D01*
X111951Y188176D01*
X112464Y188399D02*
X112785Y188782D01*
X112625Y188590D01*
X111476Y189554D01*
X111507Y189202D01*
X113267Y189356D02*
X113588Y189739D01*
X113428Y189547D01*
X112279Y190511D01*
X112310Y190159D01*
X262000Y262500D02*
X262500D01*
X262250D01*
Y261000D01*
X262000D01*
X262500D01*
X264249Y262250D02*
X263999Y262500D01*
X263500D01*
X263250Y262250D01*
Y261250D01*
X263500Y261000D01*
X263999D01*
X264249Y261250D01*
X265749Y261000D02*
X264749D01*
X265749Y262000D01*
Y262250D01*
X265499Y262500D01*
X264999D01*
X264749Y262250D01*
X128000Y270250D02*
X128500D01*
X128250D01*
Y268750D01*
X128000D01*
X128500D01*
X130249Y270000D02*
X129999Y270250D01*
X129500D01*
X129250Y270000D01*
Y269000D01*
X129500Y268750D01*
X129999D01*
X130249Y269000D01*
X130749Y268750D02*
X131249D01*
X130999D01*
Y270250D01*
X130749Y270000D01*
X354250Y238249D02*
Y237000D01*
X354500Y236750D01*
X355000D01*
X355250Y237000D01*
Y238249D01*
X355750Y236750D02*
X356249D01*
X355999D01*
Y238249D01*
X355750Y238000D01*
X9000Y421499D02*
X8500D01*
X8750D01*
Y420250D01*
X8500Y420000D01*
X8250D01*
X8000Y420250D01*
X10499Y420000D02*
X9499D01*
X10499Y421000D01*
Y421250D01*
X10249Y421499D01*
X9749D01*
X9499Y421250D01*
X9500Y179750D02*
X9000D01*
X9250D01*
Y178500D01*
X9000Y178250D01*
X8750D01*
X8500Y178500D01*
X9999Y178250D02*
X10499D01*
X10249D01*
Y179750D01*
X9999Y179500D01*
X14750Y223249D02*
X15250D01*
X15000D01*
Y221750D01*
X14750D01*
X15250D01*
X16999Y223000D02*
X16749Y223249D01*
X16250D01*
X16000Y223000D01*
Y222000D01*
X16250Y221750D01*
X16749D01*
X16999Y222000D01*
X17499Y223000D02*
X17749Y223249D01*
X18249D01*
X18499Y223000D01*
Y222750D01*
X18249Y222500D01*
X17999D01*
X18249D01*
X18499Y222250D01*
Y222000D01*
X18249Y221750D01*
X17749D01*
X17499Y222000D01*
X215750Y108750D02*
X214750D01*
Y108000D01*
X215250D01*
X214750D01*
Y107250D01*
X216250Y108750D02*
Y107250D01*
X216999D01*
X217249Y107500D01*
Y107750D01*
X216999Y108000D01*
X216250D01*
X216999D01*
X217249Y108250D01*
Y108500D01*
X216999Y108750D01*
X216250D01*
X218749D02*
X218249Y108500D01*
X217749Y108000D01*
Y107500D01*
X217999Y107250D01*
X218499D01*
X218749Y107500D01*
Y107750D01*
X218499Y108000D01*
X217749D01*
X199250Y108250D02*
X198250D01*
Y107500D01*
X198750D01*
X198250D01*
Y106750D01*
X199750Y108250D02*
Y106750D01*
X200499D01*
X200749Y107000D01*
Y107250D01*
X200499Y107500D01*
X199750D01*
X200499D01*
X200749Y107750D01*
Y108000D01*
X200499Y108250D01*
X199750D01*
X202249D02*
X201249D01*
Y107500D01*
X201749Y107750D01*
X201999D01*
X202249Y107500D01*
Y107000D01*
X201999Y106750D01*
X201499D01*
X201249Y107000D01*
X167000Y190250D02*
X166000D01*
Y189500D01*
X166500D01*
X166000D01*
Y188750D01*
X167500Y190250D02*
Y188750D01*
X168249D01*
X168499Y189000D01*
Y189250D01*
X168249Y189500D01*
X167500D01*
X168249D01*
X168499Y189750D01*
Y190000D01*
X168249Y190250D01*
X167500D01*
X169749Y188750D02*
Y190250D01*
X168999Y189500D01*
X169999D01*
X321500Y251999D02*
X320500D01*
Y251250D01*
X321000D01*
X320500D01*
Y250500D01*
X322000Y251999D02*
Y250500D01*
X322749D01*
X322999Y250750D01*
Y251000D01*
X322749Y251250D01*
X322000D01*
X322749D01*
X322999Y251500D01*
Y251750D01*
X322749Y251999D01*
X322000D01*
X323499Y251750D02*
X323749Y251999D01*
X324249D01*
X324499Y251750D01*
Y251500D01*
X324249Y251250D01*
X323999D01*
X324249D01*
X324499Y251000D01*
Y250750D01*
X324249Y250500D01*
X323749D01*
X323499Y250750D01*
X192000Y194750D02*
X191000D01*
Y194000D01*
X191500D01*
X191000D01*
Y193250D01*
X192500Y194750D02*
Y193250D01*
X193249D01*
X193499Y193500D01*
Y193750D01*
X193249Y194000D01*
X192500D01*
X193249D01*
X193499Y194250D01*
Y194500D01*
X193249Y194750D01*
X192500D01*
X194999Y193250D02*
X193999D01*
X194999Y194250D01*
Y194500D01*
X194749Y194750D01*
X194249D01*
X193999Y194500D01*
X197000Y251749D02*
X196000D01*
Y251000D01*
X196500D01*
X196000D01*
Y250250D01*
X197500Y251749D02*
Y250250D01*
X198249D01*
X198499Y250500D01*
Y250750D01*
X198249Y251000D01*
X197500D01*
X198249D01*
X198499Y251250D01*
Y251500D01*
X198249Y251749D01*
X197500D01*
X198999Y250250D02*
X199499D01*
X199249D01*
Y251749D01*
X198999Y251500D01*
M02*
