G04*
G04 #@! TF.GenerationSoftware,Altium Limited,Altium Designer,19.1.7 (138)*
G04*
G04 Layer_Physical_Order=4*
G04 Layer_Color=16711680*
%FSLAX44Y44*%
%MOMM*%
G71*
G01*
G75*
%ADD10C,0.2500*%
%ADD16C,0.4000*%
%ADD27R,4.9000X1.6000*%
%ADD70C,0.1700*%
%ADD73R,1.6500X1.6500*%
%ADD74C,1.6500*%
%ADD75C,0.3500*%
%ADD76C,0.5000*%
%ADD77C,0.4000*%
G36*
X426625Y422875D02*
X427125Y13625D01*
X419500Y6000D01*
X12500D01*
X6000Y12500D01*
X5988Y13000D01*
X5264Y417500D01*
X14250Y426500D01*
X423000D01*
X426625Y422875D01*
D02*
G37*
%LPC*%
G36*
X68750Y411830D02*
X66335Y411512D01*
X64085Y410580D01*
X62153Y409097D01*
X60670Y407165D01*
X59738Y404915D01*
X59420Y402500D01*
X59738Y400085D01*
X60670Y397835D01*
X62153Y395903D01*
X64085Y394420D01*
X66335Y393488D01*
X68750Y393170D01*
X71165Y393488D01*
X73415Y394420D01*
X75347Y395903D01*
X76830Y397835D01*
X77762Y400085D01*
X78080Y402500D01*
X77762Y404915D01*
X76830Y407165D01*
X75347Y409097D01*
X73415Y410580D01*
X71165Y411512D01*
X68750Y411830D01*
D02*
G37*
G36*
X43350D02*
X40935Y411512D01*
X38685Y410580D01*
X36753Y409097D01*
X35270Y407165D01*
X34338Y404915D01*
X34020Y402500D01*
X34338Y400085D01*
X35270Y397835D01*
X36753Y395903D01*
X38685Y394420D01*
X40935Y393488D01*
X43350Y393170D01*
X45765Y393488D01*
X48015Y394420D01*
X49947Y395903D01*
X51430Y397835D01*
X52362Y400085D01*
X52680Y402500D01*
X52362Y404915D01*
X51430Y407165D01*
X49947Y409097D01*
X48015Y410580D01*
X45765Y411512D01*
X43350Y411830D01*
D02*
G37*
G36*
X68750Y386430D02*
X66335Y386112D01*
X64085Y385180D01*
X62153Y383697D01*
X60670Y381765D01*
X59738Y379515D01*
X59420Y377100D01*
X59738Y374685D01*
X60670Y372435D01*
X62153Y370503D01*
X64085Y369020D01*
X66335Y368088D01*
X68750Y367770D01*
X71165Y368088D01*
X73415Y369020D01*
X75347Y370503D01*
X76830Y372435D01*
X77762Y374685D01*
X78080Y377100D01*
X77762Y379515D01*
X76830Y381765D01*
X75347Y383697D01*
X73415Y385180D01*
X71165Y386112D01*
X68750Y386430D01*
D02*
G37*
G36*
X43350D02*
X40935Y386112D01*
X38685Y385180D01*
X36753Y383697D01*
X35270Y381765D01*
X34338Y379515D01*
X34020Y377100D01*
X34338Y374685D01*
X35270Y372435D01*
X36753Y370503D01*
X38685Y369020D01*
X40935Y368088D01*
X43350Y367770D01*
X45765Y368088D01*
X48015Y369020D01*
X49947Y370503D01*
X51430Y372435D01*
X52362Y374685D01*
X52680Y377100D01*
X52362Y379515D01*
X51430Y381765D01*
X49947Y383697D01*
X48015Y385180D01*
X45765Y386112D01*
X43350Y386430D01*
D02*
G37*
G36*
X68750Y361030D02*
X66335Y360712D01*
X64085Y359780D01*
X62153Y358297D01*
X60670Y356365D01*
X59738Y354115D01*
X59420Y351700D01*
X59738Y349285D01*
X60670Y347035D01*
X62153Y345103D01*
X64085Y343620D01*
X66335Y342688D01*
X68750Y342370D01*
X71165Y342688D01*
X73415Y343620D01*
X75347Y345103D01*
X76830Y347035D01*
X77762Y349285D01*
X78080Y351700D01*
X77762Y354115D01*
X76830Y356365D01*
X75347Y358297D01*
X73415Y359780D01*
X71165Y360712D01*
X68750Y361030D01*
D02*
G37*
G36*
X43350D02*
X40935Y360712D01*
X38685Y359780D01*
X36753Y358297D01*
X35270Y356365D01*
X34338Y354115D01*
X34020Y351700D01*
X34338Y349285D01*
X35270Y347035D01*
X36753Y345103D01*
X38685Y343620D01*
X40935Y342688D01*
X43350Y342370D01*
X45765Y342688D01*
X48015Y343620D01*
X49947Y345103D01*
X51430Y347035D01*
X52362Y349285D01*
X52680Y351700D01*
X52362Y354115D01*
X51430Y356365D01*
X49947Y358297D01*
X48015Y359780D01*
X45765Y360712D01*
X43350Y361030D01*
D02*
G37*
G36*
X68750Y335630D02*
X66335Y335312D01*
X64085Y334380D01*
X62153Y332897D01*
X60670Y330965D01*
X59738Y328715D01*
X59420Y326300D01*
X59738Y323885D01*
X60670Y321635D01*
X62153Y319703D01*
X64085Y318220D01*
X66335Y317288D01*
X68750Y316970D01*
X71165Y317288D01*
X73415Y318220D01*
X75347Y319703D01*
X76830Y321635D01*
X77762Y323885D01*
X78080Y326300D01*
X77762Y328715D01*
X76830Y330965D01*
X75347Y332897D01*
X73415Y334380D01*
X71165Y335312D01*
X68750Y335630D01*
D02*
G37*
G36*
X43350D02*
X40935Y335312D01*
X38685Y334380D01*
X36753Y332897D01*
X35270Y330965D01*
X34338Y328715D01*
X34020Y326300D01*
X34338Y323885D01*
X35270Y321635D01*
X36753Y319703D01*
X38685Y318220D01*
X40935Y317288D01*
X43350Y316970D01*
X45765Y317288D01*
X48015Y318220D01*
X49947Y319703D01*
X51430Y321635D01*
X52362Y323885D01*
X52680Y326300D01*
X52362Y328715D01*
X51430Y330965D01*
X49947Y332897D01*
X48015Y334380D01*
X45765Y335312D01*
X43350Y335630D01*
D02*
G37*
G36*
X70020Y311616D02*
Y302170D01*
X79466D01*
X79262Y303717D01*
X78175Y306342D01*
X76445Y308596D01*
X74192Y310325D01*
X71567Y311412D01*
X70020Y311616D01*
D02*
G37*
G36*
X44620D02*
Y302170D01*
X54066D01*
X53862Y303717D01*
X52775Y306342D01*
X51045Y308596D01*
X48792Y310325D01*
X46167Y311412D01*
X44620Y311616D01*
D02*
G37*
G36*
X67480D02*
X65933Y311412D01*
X63308Y310325D01*
X61055Y308596D01*
X59325Y306342D01*
X58238Y303717D01*
X58034Y302170D01*
X67480D01*
Y311616D01*
D02*
G37*
G36*
X42080D02*
X40533Y311412D01*
X37908Y310325D01*
X35654Y308596D01*
X33925Y306342D01*
X32838Y303717D01*
X32634Y302170D01*
X42080D01*
Y311616D01*
D02*
G37*
G36*
X120770Y302636D02*
Y299020D01*
X124386D01*
X124248Y299716D01*
X123134Y301384D01*
X121467Y302498D01*
X120770Y302636D01*
D02*
G37*
G36*
X118230D02*
X117534Y302498D01*
X115866Y301384D01*
X114752Y299716D01*
X114614Y299020D01*
X118230D01*
Y302636D01*
D02*
G37*
G36*
X124386Y296480D02*
X120770D01*
Y292864D01*
X121467Y293002D01*
X123134Y294116D01*
X124248Y295784D01*
X124386Y296480D01*
D02*
G37*
G36*
X118230D02*
X114614D01*
X114752Y295784D01*
X115866Y294116D01*
X117534Y293002D01*
X118230Y292864D01*
Y296480D01*
D02*
G37*
G36*
X67480Y299630D02*
X58034D01*
X58238Y298083D01*
X59325Y295458D01*
X61055Y293204D01*
X63308Y291475D01*
X65933Y290388D01*
X67480Y290184D01*
Y299630D01*
D02*
G37*
G36*
X42080D02*
X32634D01*
X32838Y298083D01*
X33925Y295458D01*
X35654Y293204D01*
X37908Y291475D01*
X40533Y290388D01*
X42080Y290184D01*
Y299630D01*
D02*
G37*
G36*
X79466D02*
X70020D01*
Y290184D01*
X71567Y290388D01*
X74192Y291475D01*
X76445Y293204D01*
X78175Y295458D01*
X79262Y298083D01*
X79466Y299630D01*
D02*
G37*
G36*
X54066D02*
X44620D01*
Y290184D01*
X46167Y290388D01*
X48792Y291475D01*
X51045Y293204D01*
X52775Y295458D01*
X53862Y298083D01*
X54066Y299630D01*
D02*
G37*
G36*
X227730Y279126D02*
X227229Y279027D01*
X225727Y278023D01*
X224723Y276521D01*
X224684Y276324D01*
X223336Y276055D01*
X223023Y276523D01*
X221521Y277527D01*
X221020Y277626D01*
Y273250D01*
Y268874D01*
X221521Y268973D01*
X223023Y269977D01*
X224027Y271479D01*
X224066Y271677D01*
X225414Y271945D01*
X225727Y271477D01*
X227229Y270473D01*
X227730Y270374D01*
Y274750D01*
Y279126D01*
D02*
G37*
G36*
X218480Y277626D02*
X217979Y277527D01*
X216477Y276523D01*
X215473Y275021D01*
X215374Y274520D01*
X218480D01*
Y277626D01*
D02*
G37*
G36*
X239770Y276376D02*
Y273270D01*
X242876D01*
X242777Y273771D01*
X241773Y275273D01*
X240271Y276277D01*
X239770Y276376D01*
D02*
G37*
G36*
X177020Y274376D02*
Y271270D01*
X180126D01*
X180027Y271771D01*
X179023Y273273D01*
X177521Y274277D01*
X177020Y274376D01*
D02*
G37*
G36*
X174480D02*
X173979Y274277D01*
X172477Y273273D01*
X171473Y271771D01*
X171374Y271270D01*
X174480D01*
Y274376D01*
D02*
G37*
G36*
X218480Y271980D02*
X215374D01*
X215473Y271479D01*
X216477Y269977D01*
X217979Y268973D01*
X218480Y268874D01*
Y271980D01*
D02*
G37*
G36*
X242876Y270730D02*
X239770D01*
Y267624D01*
X240271Y267723D01*
X241773Y268727D01*
X242777Y270229D01*
X242876Y270730D01*
D02*
G37*
G36*
X230270Y279126D02*
Y274750D01*
Y270374D01*
X230771Y270473D01*
X232273Y271477D01*
X232663Y272060D01*
X232872Y272050D01*
X233935Y271678D01*
X234223Y270229D01*
X235227Y268727D01*
X236729Y267723D01*
X237230Y267624D01*
Y272000D01*
Y276376D01*
X236729Y276277D01*
X235227Y275273D01*
X234837Y274690D01*
X234628Y274700D01*
X233565Y275072D01*
X233277Y276521D01*
X232273Y278023D01*
X230771Y279027D01*
X230270Y279126D01*
D02*
G37*
G36*
X43350Y284830D02*
X40935Y284512D01*
X38685Y283580D01*
X36753Y282097D01*
X35270Y280165D01*
X34338Y277915D01*
X34020Y275500D01*
X34338Y273085D01*
X35270Y270835D01*
X36753Y268903D01*
X38685Y267420D01*
X40935Y266488D01*
X43350Y266170D01*
X45765Y266488D01*
X48015Y267420D01*
X49947Y268903D01*
X51430Y270835D01*
X52362Y273085D01*
X52680Y275500D01*
X52362Y277915D01*
X51430Y280165D01*
X49947Y282097D01*
X48015Y283580D01*
X45765Y284512D01*
X43350Y284830D01*
D02*
G37*
G36*
X174480Y268730D02*
X171374D01*
X171473Y268229D01*
X172477Y266727D01*
X173979Y265723D01*
X174480Y265624D01*
Y268730D01*
D02*
G37*
G36*
X184270Y266876D02*
Y263770D01*
X187376D01*
X187277Y264271D01*
X186273Y265773D01*
X184771Y266777D01*
X184270Y266876D01*
D02*
G37*
G36*
X180126Y268730D02*
X177020D01*
Y265624D01*
X177521Y265723D01*
X178896Y266642D01*
X179727Y265773D01*
X178723Y264271D01*
X178624Y263770D01*
X181730D01*
Y266876D01*
X181229Y266777D01*
X179854Y265858D01*
X179023Y266727D01*
X180027Y268229D01*
X180126Y268730D01*
D02*
G37*
G36*
X187376Y261230D02*
X184270D01*
Y258124D01*
X184771Y258223D01*
X186273Y259227D01*
X187277Y260729D01*
X187376Y261230D01*
D02*
G37*
G36*
X181730D02*
X178624D01*
X178723Y260729D01*
X179727Y259227D01*
X181229Y258223D01*
X181730Y258124D01*
Y261230D01*
D02*
G37*
G36*
X411290Y266290D02*
X385520D01*
Y257020D01*
X411290D01*
Y266290D01*
D02*
G37*
G36*
X354230Y260126D02*
X353729Y260027D01*
X352227Y259023D01*
X351223Y257521D01*
X351124Y257020D01*
X354230D01*
Y260126D01*
D02*
G37*
G36*
X311770Y258626D02*
Y255520D01*
X314876D01*
X314777Y256021D01*
X313773Y257523D01*
X312271Y258527D01*
X311770Y258626D01*
D02*
G37*
G36*
X309230D02*
X308729Y258527D01*
X307227Y257523D01*
X306223Y256021D01*
X306124Y255520D01*
X309230D01*
Y258626D01*
D02*
G37*
G36*
X354230Y254480D02*
X351124D01*
X351223Y253979D01*
X352227Y252477D01*
X353729Y251473D01*
X354230Y251374D01*
Y254480D01*
D02*
G37*
G36*
X314876Y252980D02*
X311770D01*
Y249874D01*
X312271Y249973D01*
X313773Y250977D01*
X314777Y252479D01*
X314876Y252980D01*
D02*
G37*
G36*
X309230D02*
X306124D01*
X306223Y252479D01*
X307227Y250977D01*
X308729Y249973D01*
X309230Y249874D01*
Y252980D01*
D02*
G37*
G36*
X411290Y254480D02*
X385520D01*
Y245210D01*
X411290D01*
Y254480D01*
D02*
G37*
G36*
X382980Y266290D02*
X357210D01*
Y261040D01*
X356770Y260679D01*
Y255750D01*
Y250821D01*
X357210Y250460D01*
Y245210D01*
X382980D01*
Y255750D01*
Y266290D01*
D02*
G37*
G36*
X166250Y264136D02*
X136750D01*
X136028Y263993D01*
X135416Y263584D01*
X91469Y219636D01*
X85894D01*
X85784Y219682D01*
X84670Y219686D01*
X84511Y219690D01*
X84483Y219733D01*
X83573Y220340D01*
X82500Y220554D01*
X81427Y220340D01*
X80517Y219733D01*
X79910Y218823D01*
X79696Y217750D01*
X79910Y216677D01*
X80517Y215767D01*
X81259Y215272D01*
X81432Y214481D01*
X81437Y213863D01*
X81407Y213843D01*
X80459Y212424D01*
X80379Y212020D01*
X88621D01*
X88541Y212424D01*
X87593Y213843D01*
X86469Y214594D01*
X86795Y215864D01*
X92250D01*
X92972Y216007D01*
X93584Y216416D01*
X137531Y260364D01*
X151650D01*
X152176Y259094D01*
X148666Y255584D01*
X148257Y254972D01*
X148114Y254250D01*
Y250750D01*
X148257Y250028D01*
X148666Y249416D01*
X155864Y242219D01*
Y215781D01*
X154566Y214484D01*
X154455Y214438D01*
X153665Y213654D01*
X153551Y213544D01*
X153500Y213554D01*
X152427Y213340D01*
X151517Y212733D01*
X150910Y211823D01*
X150696Y210750D01*
X150910Y209677D01*
X151080Y209423D01*
X150527Y208018D01*
X150296Y207972D01*
X149852Y207675D01*
X126131D01*
X125253Y207501D01*
X124509Y207003D01*
X119378Y201872D01*
X118881Y201128D01*
X118706Y200250D01*
Y187250D01*
X118881Y186372D01*
X119378Y185628D01*
X133378Y171628D01*
X134122Y171131D01*
X135000Y170956D01*
X135000Y170956D01*
X164025D01*
X164903Y171131D01*
X165647Y171628D01*
X239503Y245484D01*
X240026Y245588D01*
X240936Y246196D01*
X241544Y247105D01*
X241757Y248178D01*
X241544Y249251D01*
X240936Y250161D01*
X240026Y250769D01*
X238953Y250982D01*
X237880Y250769D01*
X236971Y250161D01*
X236363Y249251D01*
X236259Y248728D01*
X163075Y175544D01*
X135950D01*
X123294Y188200D01*
Y199300D01*
X127082Y203087D01*
X149852D01*
X150296Y202791D01*
X151369Y202577D01*
X152442Y202791D01*
X153351Y203399D01*
X153959Y204308D01*
X154172Y205381D01*
X153959Y206454D01*
X153789Y206709D01*
X154341Y208114D01*
X154573Y208160D01*
X155483Y208767D01*
X156090Y209677D01*
X156304Y210750D01*
X156296Y210788D01*
X157196Y211714D01*
X157239Y211822D01*
X159084Y213666D01*
X159493Y214278D01*
X159636Y215000D01*
Y243000D01*
X159493Y243722D01*
X159084Y244334D01*
X151886Y251531D01*
Y253469D01*
X154707Y256290D01*
X154945Y256275D01*
X155542Y255118D01*
X155521Y254851D01*
X155453Y254750D01*
X155181Y253384D01*
X155453Y252018D01*
X156227Y250861D01*
X157384Y250087D01*
X158750Y249815D01*
X158975Y249860D01*
X160399Y248436D01*
X160492Y248398D01*
X165206Y243684D01*
Y228177D01*
X164977Y228023D01*
X164203Y226866D01*
X163931Y225500D01*
X164203Y224134D01*
X164977Y222977D01*
X165206Y222823D01*
Y211200D01*
X163742Y209736D01*
X163649Y209698D01*
X162225Y208274D01*
X162000Y208319D01*
X160634Y208047D01*
X159477Y207273D01*
X158703Y206116D01*
X158431Y204750D01*
X158703Y203384D01*
X159477Y202227D01*
X159706Y202073D01*
Y196082D01*
X154993Y191369D01*
X154900Y191330D01*
X154056Y190486D01*
X152446D01*
X151601Y191330D01*
X151509Y191369D01*
X148005Y194872D01*
X147261Y195369D01*
X146383Y195544D01*
X133677D01*
X133523Y195773D01*
X132366Y196547D01*
X131000Y196819D01*
X129634Y196547D01*
X128477Y195773D01*
X127703Y194616D01*
X127431Y193250D01*
X127703Y191884D01*
X128477Y190727D01*
X129634Y189953D01*
X131000Y189681D01*
X132366Y189953D01*
X133523Y190727D01*
X133677Y190956D01*
X145433D01*
X148265Y188124D01*
X148303Y188032D01*
X149727Y186608D01*
X149682Y186382D01*
X149954Y185017D01*
X150728Y183859D01*
X151885Y183085D01*
X153251Y182814D01*
X154616Y183085D01*
X155774Y183859D01*
X156548Y185017D01*
X156819Y186382D01*
X156775Y186608D01*
X158199Y188032D01*
X158237Y188124D01*
X163622Y193509D01*
X164119Y194254D01*
X164294Y195132D01*
Y202073D01*
X164523Y202227D01*
X165297Y203384D01*
X165569Y204750D01*
X165524Y204975D01*
X166948Y206399D01*
X166986Y206492D01*
X169122Y208628D01*
X169619Y209372D01*
X169794Y210250D01*
Y222823D01*
X170023Y222977D01*
X170797Y224134D01*
X171069Y225500D01*
X170797Y226866D01*
X170023Y228023D01*
X169794Y228177D01*
Y237936D01*
X171064Y238322D01*
X171267Y238017D01*
X172177Y237410D01*
X173250Y237196D01*
X174323Y237410D01*
X175233Y238017D01*
X175840Y238927D01*
X176054Y240000D01*
X175840Y241073D01*
X175233Y241983D01*
X175201Y242004D01*
X175182Y243295D01*
X175136Y243402D01*
Y248750D01*
X174993Y249472D01*
X174584Y250084D01*
X173187Y251481D01*
X173813Y252651D01*
X174000Y252614D01*
X185821D01*
X186207Y251344D01*
X185727Y251023D01*
X184723Y249521D01*
X184624Y249020D01*
X193376D01*
X193277Y249521D01*
X192273Y251023D01*
X191793Y251344D01*
X192179Y252614D01*
X251469D01*
X257566Y246516D01*
X258178Y246107D01*
X258900Y245964D01*
X281774D01*
X281880Y245918D01*
X282746Y245902D01*
X283404Y245858D01*
X283636Y245830D01*
X283814Y245798D01*
X283917Y245771D01*
X283928Y245767D01*
X283936Y245762D01*
X284227Y245327D01*
X285384Y244553D01*
X286750Y244282D01*
X288116Y244553D01*
X289273Y245327D01*
X290047Y246484D01*
X290319Y247850D01*
X290047Y249216D01*
X289273Y250373D01*
X288116Y251147D01*
X286750Y251419D01*
X285384Y251147D01*
X284227Y250373D01*
X283936Y249938D01*
X283928Y249933D01*
X283917Y249929D01*
X283814Y249902D01*
X283666Y249876D01*
X282327Y249786D01*
X281890Y249782D01*
X281781Y249736D01*
X259681D01*
X253584Y255834D01*
X252972Y256243D01*
X252250Y256386D01*
X174781D01*
X167584Y263584D01*
X166972Y263993D01*
X166852Y264016D01*
X166250Y264136D01*
D02*
G37*
G36*
X129980Y247376D02*
X129479Y247277D01*
X127977Y246273D01*
X126973Y244771D01*
X126874Y244270D01*
X129980D01*
Y247376D01*
D02*
G37*
G36*
X55020Y247386D02*
Y243770D01*
X58636D01*
X58498Y244466D01*
X57384Y246134D01*
X55717Y247248D01*
X55020Y247386D01*
D02*
G37*
G36*
X52480D02*
X51783Y247248D01*
X50116Y246134D01*
X49002Y244466D01*
X48864Y243770D01*
X52480D01*
Y247386D01*
D02*
G37*
G36*
X193376Y246480D02*
X190270D01*
Y243374D01*
X190771Y243473D01*
X192273Y244477D01*
X193277Y245979D01*
X193376Y246480D01*
D02*
G37*
G36*
X187730D02*
X184624D01*
X184723Y245979D01*
X185727Y244477D01*
X187229Y243473D01*
X187730Y243374D01*
Y246480D01*
D02*
G37*
G36*
X139270Y242126D02*
Y239020D01*
X142376D01*
X142277Y239521D01*
X141273Y241023D01*
X139771Y242027D01*
X139270Y242126D01*
D02*
G37*
G36*
X307770Y241876D02*
Y238770D01*
X310876D01*
X310777Y239271D01*
X309773Y240773D01*
X308271Y241777D01*
X307770Y241876D01*
D02*
G37*
G36*
X305230D02*
X304729Y241777D01*
X303227Y240773D01*
X302223Y239271D01*
X302124Y238770D01*
X305230D01*
Y241876D01*
D02*
G37*
G36*
X123980Y241126D02*
X123479Y241027D01*
X121977Y240023D01*
X120973Y238521D01*
X120874Y238020D01*
X123980D01*
Y241126D01*
D02*
G37*
G36*
X58636Y241230D02*
X55020D01*
Y237614D01*
X55717Y237752D01*
X57384Y238866D01*
X58498Y240534D01*
X58636Y241230D01*
D02*
G37*
G36*
X52480D02*
X48864D01*
X49002Y240534D01*
X50116Y238866D01*
X51783Y237752D01*
X52480Y237614D01*
Y241230D01*
D02*
G37*
G36*
X78000Y284750D02*
X59500D01*
Y266250D01*
X78000D01*
Y272441D01*
X111733D01*
X115674Y268500D01*
X106837Y259663D01*
X106174Y258671D01*
X105941Y257500D01*
X105941Y257500D01*
Y249972D01*
X105703Y249616D01*
X105619Y249195D01*
X99233Y242809D01*
X87500D01*
X86329Y242576D01*
X85337Y241913D01*
X85337Y241913D01*
X72244Y228820D01*
X71581Y227827D01*
X71348Y226657D01*
X71348Y226657D01*
Y193843D01*
X71348Y193843D01*
X71581Y192673D01*
X72244Y191680D01*
X90441Y173483D01*
Y156000D01*
X90441Y156000D01*
X90674Y154830D01*
X91337Y153837D01*
X110870Y134305D01*
X110953Y133884D01*
X111727Y132727D01*
X112884Y131953D01*
X114250Y131681D01*
X115616Y131953D01*
X116773Y132727D01*
X117547Y133884D01*
X117819Y135250D01*
X117547Y136616D01*
X116773Y137773D01*
X115616Y138547D01*
X115195Y138631D01*
X96559Y157267D01*
Y174750D01*
X96559Y174750D01*
X96326Y175921D01*
X95663Y176913D01*
X77466Y195110D01*
Y225390D01*
X88767Y236691D01*
X100500D01*
X100500Y236691D01*
X101671Y236924D01*
X102663Y237587D01*
X109945Y244869D01*
X110366Y244953D01*
X111523Y245727D01*
X112297Y246884D01*
X112569Y248250D01*
X112297Y249616D01*
X112059Y249972D01*
Y256233D01*
X120945Y265119D01*
X121366Y265203D01*
X122523Y265977D01*
X123297Y267134D01*
X123569Y268500D01*
X123297Y269866D01*
X122523Y271023D01*
X121366Y271797D01*
X120945Y271880D01*
X115163Y277663D01*
X114171Y278326D01*
X113000Y278559D01*
X113000Y278559D01*
X78000D01*
Y284750D01*
D02*
G37*
G36*
X132520Y247376D02*
Y243000D01*
X131250D01*
Y241730D01*
X126520D01*
Y236750D01*
X125250D01*
Y235480D01*
X120612D01*
X119803Y234618D01*
X119750Y234629D01*
X117979Y234277D01*
X116477Y233273D01*
X115473Y231771D01*
X115374Y231270D01*
X119750D01*
Y230000D01*
X121020D01*
Y225270D01*
X126000D01*
Y224000D01*
X127270D01*
Y219520D01*
X137126D01*
X137100Y219655D01*
X137480Y220173D01*
Y225250D01*
X138750D01*
Y226520D01*
X143204D01*
X143730Y227139D01*
Y232000D01*
Y236376D01*
X143647Y236360D01*
X143490Y236480D01*
X138000D01*
Y237750D01*
X136730D01*
Y242385D01*
X135906Y242980D01*
X135850Y243148D01*
X135527Y244771D01*
X134523Y246273D01*
X133021Y247277D01*
X132520Y247376D01*
D02*
G37*
G36*
X146270Y236376D02*
Y233270D01*
X149376D01*
X149277Y233771D01*
X148273Y235273D01*
X146771Y236277D01*
X146270Y236376D01*
D02*
G37*
G36*
X310876Y236230D02*
X307770D01*
Y233124D01*
X308271Y233223D01*
X309773Y234227D01*
X310777Y235729D01*
X310876Y236230D01*
D02*
G37*
G36*
X305230D02*
X302124D01*
X302223Y235729D01*
X303227Y234227D01*
X304729Y233223D01*
X305230Y233124D01*
Y236230D01*
D02*
G37*
G36*
X43520Y234886D02*
Y231270D01*
X47136D01*
X46998Y231966D01*
X45884Y233634D01*
X44216Y234748D01*
X43520Y234886D01*
D02*
G37*
G36*
X40980D02*
X40283Y234748D01*
X38616Y233634D01*
X37502Y231966D01*
X37364Y231270D01*
X40980D01*
Y234886D01*
D02*
G37*
G36*
X149376Y230730D02*
X146270D01*
Y227624D01*
X146771Y227723D01*
X148273Y228727D01*
X149277Y230229D01*
X149376Y230730D01*
D02*
G37*
G36*
X118480Y228730D02*
X115374D01*
X115473Y228229D01*
X116477Y226727D01*
X117979Y225723D01*
X118480Y225624D01*
Y228730D01*
D02*
G37*
G36*
X47136Y228730D02*
X43520D01*
Y225114D01*
X44216Y225252D01*
X45884Y226366D01*
X46998Y228034D01*
X47136Y228730D01*
D02*
G37*
G36*
X40980D02*
X37364D01*
X37502Y228034D01*
X38616Y226366D01*
X40283Y225252D01*
X40980Y225114D01*
Y228730D01*
D02*
G37*
G36*
X143126Y223980D02*
X140020D01*
Y220874D01*
X140521Y220973D01*
X142023Y221977D01*
X143027Y223479D01*
X143126Y223980D01*
D02*
G37*
G36*
X124730Y222730D02*
X121624D01*
X121723Y222229D01*
X122727Y220727D01*
X124229Y219723D01*
X124730Y219624D01*
Y222730D01*
D02*
G37*
G36*
X17520Y221371D02*
Y218520D01*
X20371D01*
X20291Y218924D01*
X19343Y220343D01*
X17924Y221291D01*
X17520Y221371D01*
D02*
G37*
G36*
X14980D02*
X14576Y221291D01*
X13157Y220343D01*
X12209Y218924D01*
X12129Y218520D01*
X14980D01*
Y221371D01*
D02*
G37*
G36*
X302570Y221126D02*
Y218020D01*
X305676D01*
X305577Y218521D01*
X304573Y220023D01*
X303071Y221027D01*
X302570Y221126D01*
D02*
G37*
G36*
X300030D02*
X299529Y221027D01*
X298027Y220023D01*
X297023Y218521D01*
X296924Y218020D01*
X300030D01*
Y221126D01*
D02*
G37*
G36*
X137126Y216980D02*
X134020D01*
Y213874D01*
X134521Y213973D01*
X136023Y214977D01*
X137027Y216479D01*
X137126Y216980D01*
D02*
G37*
G36*
X131480D02*
X128374D01*
X128473Y216479D01*
X129477Y214977D01*
X130979Y213973D01*
X131480Y213874D01*
Y216980D01*
D02*
G37*
G36*
X305676Y215480D02*
X302570D01*
Y212374D01*
X303071Y212473D01*
X304573Y213477D01*
X305577Y214979D01*
X305676Y215480D01*
D02*
G37*
G36*
X300030D02*
X296924D01*
X297023Y214979D01*
X298027Y213477D01*
X299529Y212473D01*
X300030Y212374D01*
Y215480D01*
D02*
G37*
G36*
X88621Y209480D02*
X85770D01*
Y206629D01*
X86174Y206709D01*
X87593Y207657D01*
X88541Y209076D01*
X88621Y209480D01*
D02*
G37*
G36*
X83230D02*
X80379D01*
X80459Y209076D01*
X81407Y207657D01*
X82826Y206709D01*
X83230Y206629D01*
Y209480D01*
D02*
G37*
G36*
X175770Y202126D02*
Y199020D01*
X178876D01*
X178777Y199521D01*
X177773Y201023D01*
X176271Y202027D01*
X175770Y202126D01*
D02*
G37*
G36*
X173230D02*
X172729Y202027D01*
X171227Y201023D01*
X170223Y199521D01*
X170124Y199020D01*
X173230D01*
Y202126D01*
D02*
G37*
G36*
X178876Y196480D02*
X175770D01*
Y193374D01*
X176271Y193473D01*
X177773Y194477D01*
X178777Y195979D01*
X178876Y196480D01*
D02*
G37*
G36*
X173230D02*
X170124D01*
X170223Y195979D01*
X171227Y194477D01*
X172729Y193473D01*
X173230Y193374D01*
Y196480D01*
D02*
G37*
G36*
X169270Y193876D02*
Y190770D01*
X172376D01*
X172277Y191271D01*
X171273Y192773D01*
X169771Y193777D01*
X169270Y193876D01*
D02*
G37*
G36*
X166730D02*
X166229Y193777D01*
X164727Y192773D01*
X163723Y191271D01*
X163624Y190770D01*
X166730D01*
Y193876D01*
D02*
G37*
G36*
X172376Y188230D02*
X169270D01*
Y185124D01*
X169771Y185223D01*
X171273Y186227D01*
X172277Y187729D01*
X172376Y188230D01*
D02*
G37*
G36*
X166730D02*
X163624D01*
X163723Y187729D01*
X164727Y186227D01*
X166229Y185223D01*
X166730Y185124D01*
Y188230D01*
D02*
G37*
G36*
X114270Y184876D02*
Y181770D01*
X117376D01*
X117277Y182271D01*
X116273Y183773D01*
X114771Y184777D01*
X114270Y184876D01*
D02*
G37*
G36*
X111730D02*
X111229Y184777D01*
X109727Y183773D01*
X108723Y182271D01*
X108624Y181770D01*
X111730D01*
Y184876D01*
D02*
G37*
G36*
X117376Y179230D02*
X108624D01*
X108723Y178729D01*
X109727Y177227D01*
X111229Y176223D01*
X112872Y175896D01*
X113194Y175299D01*
X113398Y174655D01*
X112473Y173271D01*
X112374Y172770D01*
X121126D01*
X121027Y173271D01*
X120023Y174773D01*
X118521Y175777D01*
X116878Y176103D01*
X116556Y176701D01*
X116352Y177345D01*
X117277Y178729D01*
X117376Y179230D01*
D02*
G37*
G36*
X411290Y181290D02*
X385520D01*
Y172020D01*
X411290D01*
Y181290D01*
D02*
G37*
G36*
X382980D02*
X357210D01*
Y172020D01*
X382980D01*
Y181290D01*
D02*
G37*
G36*
X121126Y170230D02*
X118020D01*
Y167124D01*
X118521Y167223D01*
X120023Y168227D01*
X121027Y169729D01*
X121126Y170230D01*
D02*
G37*
G36*
X115480D02*
X112374D01*
X112473Y169729D01*
X113477Y168227D01*
X114979Y167223D01*
X115480Y167124D01*
Y170230D01*
D02*
G37*
G36*
X320020Y169376D02*
Y166270D01*
X323126D01*
X323027Y166771D01*
X322023Y168273D01*
X320521Y169277D01*
X320020Y169376D01*
D02*
G37*
G36*
X307230Y168876D02*
X306729Y168777D01*
X305227Y167773D01*
X304223Y166271D01*
X304124Y165770D01*
X307230D01*
Y168876D01*
D02*
G37*
G36*
X317480Y169376D02*
X316979Y169277D01*
X315477Y168273D01*
X314473Y166771D01*
X314223Y165511D01*
X312928D01*
X312777Y166271D01*
X311773Y167773D01*
X310271Y168777D01*
X309770Y168876D01*
Y164500D01*
Y160124D01*
X310271Y160223D01*
X311773Y161227D01*
X312777Y162729D01*
X313027Y163989D01*
X314322D01*
X314473Y163229D01*
X315477Y161727D01*
X316979Y160723D01*
X317480Y160624D01*
Y165000D01*
Y169376D01*
D02*
G37*
G36*
X323126Y163730D02*
X320020D01*
Y160624D01*
X320521Y160723D01*
X322023Y161727D01*
X323027Y163229D01*
X323126Y163730D01*
D02*
G37*
G36*
X307230Y163230D02*
X304124D01*
X304223Y162729D01*
X305227Y161227D01*
X306729Y160223D01*
X307230Y160124D01*
Y163230D01*
D02*
G37*
G36*
X411290Y169480D02*
X384250D01*
X357210D01*
Y160210D01*
X379574D01*
X380253Y158940D01*
X379973Y158521D01*
X379874Y158020D01*
X388626D01*
X388527Y158521D01*
X388247Y158940D01*
X388926Y160210D01*
X411290D01*
Y169480D01*
D02*
G37*
G36*
X144020Y160376D02*
Y157270D01*
X147126D01*
X147027Y157771D01*
X146023Y159273D01*
X144521Y160277D01*
X144020Y160376D01*
D02*
G37*
G36*
X141480D02*
X140979Y160277D01*
X139477Y159273D01*
X138473Y157771D01*
X138374Y157270D01*
X141480D01*
Y160376D01*
D02*
G37*
G36*
X130520Y160376D02*
Y157270D01*
X133626D01*
X133527Y157771D01*
X132523Y159273D01*
X131021Y160277D01*
X130520Y160376D01*
D02*
G37*
G36*
X127980D02*
X127479Y160277D01*
X125977Y159273D01*
X124973Y157771D01*
X124874Y157270D01*
X127980D01*
Y160376D01*
D02*
G37*
G36*
X159520Y159376D02*
Y156270D01*
X162626D01*
X162527Y156771D01*
X161523Y158273D01*
X160021Y159277D01*
X159520Y159376D01*
D02*
G37*
G36*
X156980D02*
X156479Y159277D01*
X154977Y158273D01*
X153973Y156771D01*
X153874Y156270D01*
X156980D01*
Y159376D01*
D02*
G37*
G36*
X388626Y155480D02*
X385520D01*
Y152374D01*
X386021Y152473D01*
X387523Y153477D01*
X388527Y154979D01*
X388626Y155480D01*
D02*
G37*
G36*
X382980D02*
X379874D01*
X379973Y154979D01*
X380977Y153477D01*
X382478Y152473D01*
X382980Y152374D01*
Y155480D01*
D02*
G37*
G36*
X147126Y154730D02*
X144020D01*
Y151624D01*
X144521Y151723D01*
X146023Y152727D01*
X147027Y154229D01*
X147126Y154730D01*
D02*
G37*
G36*
X141480D02*
X138374D01*
X138473Y154229D01*
X139477Y152727D01*
X140979Y151723D01*
X141480Y151624D01*
Y154730D01*
D02*
G37*
G36*
X133626Y154730D02*
X130520D01*
Y151624D01*
X131021Y151723D01*
X132523Y152727D01*
X133527Y154229D01*
X133626Y154730D01*
D02*
G37*
G36*
X127980D02*
X124874D01*
X124973Y154229D01*
X125977Y152727D01*
X127479Y151723D01*
X127980Y151624D01*
Y154730D01*
D02*
G37*
G36*
X162626Y153730D02*
X159520D01*
Y150624D01*
X160021Y150723D01*
X161523Y151727D01*
X162527Y153229D01*
X162626Y153730D01*
D02*
G37*
G36*
X156980D02*
X153874D01*
X153973Y153229D01*
X154977Y151727D01*
X156479Y150723D01*
X156980Y150624D01*
Y153730D01*
D02*
G37*
G36*
X69250Y166830D02*
X66835Y166512D01*
X64585Y165580D01*
X62653Y164097D01*
X61170Y162165D01*
X60238Y159915D01*
X59920Y157500D01*
X60238Y155085D01*
X61170Y152835D01*
X62653Y150903D01*
X64585Y149420D01*
X66835Y148488D01*
X69250Y148170D01*
X71665Y148488D01*
X73915Y149420D01*
X75847Y150903D01*
X77330Y152835D01*
X78262Y155085D01*
X78580Y157500D01*
X78262Y159915D01*
X77330Y162165D01*
X75847Y164097D01*
X73915Y165580D01*
X71665Y166512D01*
X69250Y166830D01*
D02*
G37*
G36*
X351520Y149376D02*
Y146270D01*
X354626D01*
X354527Y146771D01*
X353523Y148273D01*
X352021Y149277D01*
X351520Y149376D01*
D02*
G37*
G36*
X348980D02*
X348479Y149277D01*
X346977Y148273D01*
X345973Y146771D01*
X345874Y146270D01*
X348980D01*
Y149376D01*
D02*
G37*
G36*
X332520Y148876D02*
Y145770D01*
X335626D01*
X335527Y146271D01*
X334523Y147773D01*
X333021Y148777D01*
X332520Y148876D01*
D02*
G37*
G36*
X329980D02*
X329479Y148777D01*
X327977Y147773D01*
X326973Y146271D01*
X326874Y145770D01*
X329980D01*
Y148876D01*
D02*
G37*
G36*
X354626Y143730D02*
X351520D01*
Y140624D01*
X352021Y140723D01*
X353523Y141727D01*
X354527Y143229D01*
X354626Y143730D01*
D02*
G37*
G36*
X348980D02*
X345874D01*
X345973Y143229D01*
X346977Y141727D01*
X348479Y140723D01*
X348980Y140624D01*
Y143730D01*
D02*
G37*
G36*
X335626Y143230D02*
X332520D01*
Y140124D01*
X333021Y140223D01*
X334523Y141227D01*
X335527Y142729D01*
X335626Y143230D01*
D02*
G37*
G36*
X329980D02*
X326874D01*
X326973Y142729D01*
X327977Y141227D01*
X329479Y140223D01*
X329980Y140124D01*
Y143230D01*
D02*
G37*
G36*
X20371Y215980D02*
X12129D01*
X12209Y215576D01*
X13157Y214157D01*
X14576Y213209D01*
X14599Y213204D01*
X14961Y212332D01*
X15031Y211824D01*
X14795Y210637D01*
X15066Y209271D01*
X15840Y208113D01*
X16998Y207340D01*
X18363Y207068D01*
X18589Y207113D01*
X20013Y205689D01*
X20105Y205650D01*
X26206Y199550D01*
Y149750D01*
X26381Y148872D01*
X26878Y148128D01*
X31878Y143128D01*
X32622Y142631D01*
X33500Y142456D01*
X41915D01*
X41998Y141186D01*
X41435Y141112D01*
X39185Y140180D01*
X37253Y138697D01*
X35770Y136765D01*
X34838Y134515D01*
X34520Y132100D01*
X34838Y129685D01*
X35770Y127435D01*
X37253Y125503D01*
X39185Y124020D01*
X41435Y123088D01*
X43850Y122770D01*
X46265Y123088D01*
X48515Y124020D01*
X50447Y125503D01*
X51930Y127435D01*
X52862Y129685D01*
X53180Y132100D01*
X52862Y134515D01*
X51930Y136765D01*
X50447Y138697D01*
X48515Y140180D01*
X46265Y141112D01*
X45702Y141186D01*
X45785Y142456D01*
X55650D01*
X55951Y142155D01*
X55986Y142066D01*
X56982Y141030D01*
X57835Y140060D01*
X58559Y139143D01*
X59155Y138282D01*
X59622Y137481D01*
X59964Y136747D01*
X60185Y136083D01*
X60295Y135493D01*
X60306Y134976D01*
X60213Y134412D01*
X60220Y134381D01*
X60202Y134244D01*
X60199Y134235D01*
X60201Y134230D01*
X59920Y132100D01*
X60238Y129685D01*
X61170Y127435D01*
X62653Y125503D01*
X64585Y124020D01*
X66835Y123088D01*
X69250Y122770D01*
X71665Y123088D01*
X73915Y124020D01*
X75847Y125503D01*
X77330Y127435D01*
X78262Y129685D01*
X78580Y132100D01*
X78262Y134515D01*
X77330Y136765D01*
X75847Y138697D01*
X73915Y140180D01*
X71665Y141112D01*
X69250Y141430D01*
X67119Y141149D01*
X67115Y141151D01*
X67106Y141147D01*
X66969Y141130D01*
X66938Y141137D01*
X66375Y141044D01*
X65857Y141055D01*
X65267Y141165D01*
X64604Y141386D01*
X63868Y141728D01*
X63068Y142196D01*
X62220Y142783D01*
X60310Y144378D01*
X59284Y145364D01*
X59195Y145399D01*
X58222Y146372D01*
X57478Y146869D01*
X56600Y147044D01*
X45026D01*
X44943Y148314D01*
X46265Y148488D01*
X48515Y149420D01*
X50447Y150903D01*
X51930Y152835D01*
X52862Y155085D01*
X53180Y157500D01*
X52862Y159915D01*
X51930Y162165D01*
X50447Y164097D01*
X48515Y165580D01*
X46265Y166512D01*
X43850Y166830D01*
X41435Y166512D01*
X39185Y165580D01*
X37253Y164097D01*
X35770Y162165D01*
X34838Y159915D01*
X34520Y157500D01*
X34838Y155085D01*
X35770Y152835D01*
X37253Y150903D01*
X39185Y149420D01*
X41435Y148488D01*
X42757Y148314D01*
X42674Y147044D01*
X34450D01*
X30794Y150700D01*
Y200500D01*
X30619Y201378D01*
X30122Y202122D01*
X23350Y208895D01*
X23311Y208987D01*
X21887Y210411D01*
X21932Y210637D01*
X21660Y212002D01*
X20887Y213160D01*
X20415Y213475D01*
X19979Y215021D01*
X20011Y215156D01*
X20291Y215576D01*
X20371Y215980D01*
D02*
G37*
G36*
X156770Y123876D02*
Y120770D01*
X159876D01*
X159777Y121271D01*
X158773Y122773D01*
X157271Y123777D01*
X156770Y123876D01*
D02*
G37*
G36*
X154230D02*
X153729Y123777D01*
X152227Y122773D01*
X151223Y121271D01*
X151124Y120770D01*
X154230D01*
Y123876D01*
D02*
G37*
G36*
X172270Y123626D02*
Y120520D01*
X175376D01*
X175277Y121021D01*
X174273Y122523D01*
X172771Y123527D01*
X172270Y123626D01*
D02*
G37*
G36*
X169730D02*
X169229Y123527D01*
X167727Y122523D01*
X166723Y121021D01*
X166624Y120520D01*
X169730D01*
Y123626D01*
D02*
G37*
G36*
X159876Y118230D02*
X156770D01*
Y115124D01*
X157271Y115223D01*
X158773Y116227D01*
X159777Y117729D01*
X159876Y118230D01*
D02*
G37*
G36*
X154230D02*
X151124D01*
X151223Y117729D01*
X152227Y116227D01*
X153729Y115223D01*
X154230Y115124D01*
Y118230D01*
D02*
G37*
G36*
X175376Y117980D02*
X172270D01*
Y114874D01*
X172771Y114973D01*
X174273Y115977D01*
X175277Y117479D01*
X175376Y117980D01*
D02*
G37*
G36*
X169730D02*
X166624D01*
X166723Y117479D01*
X167727Y115977D01*
X169229Y114973D01*
X169730Y114874D01*
Y117980D01*
D02*
G37*
G36*
X69250Y116030D02*
X66835Y115712D01*
X64585Y114780D01*
X62653Y113297D01*
X61170Y111365D01*
X60238Y109115D01*
X59920Y106700D01*
X60238Y104285D01*
X61170Y102035D01*
X62653Y100103D01*
X64585Y98620D01*
X66835Y97688D01*
X69250Y97370D01*
X71665Y97688D01*
X73915Y98620D01*
X75847Y100103D01*
X77330Y102035D01*
X78262Y104285D01*
X78580Y106700D01*
X78262Y109115D01*
X77330Y111365D01*
X75847Y113297D01*
X73915Y114780D01*
X71665Y115712D01*
X69250Y116030D01*
D02*
G37*
G36*
X43850D02*
X41435Y115712D01*
X39185Y114780D01*
X37253Y113297D01*
X35770Y111365D01*
X34838Y109115D01*
X34520Y106700D01*
X34838Y104285D01*
X35770Y102035D01*
X37253Y100103D01*
X39185Y98620D01*
X41435Y97688D01*
X43850Y97370D01*
X46265Y97688D01*
X48515Y98620D01*
X50447Y100103D01*
X51930Y102035D01*
X52862Y104285D01*
X53180Y106700D01*
X52862Y109115D01*
X51930Y111365D01*
X50447Y113297D01*
X48515Y114780D01*
X46265Y115712D01*
X43850Y116030D01*
D02*
G37*
G36*
X176520Y94871D02*
Y92020D01*
X179371D01*
X179291Y92424D01*
X178343Y93843D01*
X176924Y94791D01*
X176520Y94871D01*
D02*
G37*
G36*
X173980D02*
X173576Y94791D01*
X172157Y93843D01*
X171209Y92424D01*
X171129Y92020D01*
X173980D01*
Y94871D01*
D02*
G37*
G36*
X179371Y89480D02*
X176520D01*
Y86629D01*
X176924Y86709D01*
X178343Y87657D01*
X179291Y89076D01*
X179371Y89480D01*
D02*
G37*
G36*
X173980D02*
X171129D01*
X171209Y89076D01*
X172157Y87657D01*
X173576Y86709D01*
X173980Y86629D01*
Y89480D01*
D02*
G37*
G36*
X194020Y88876D02*
Y85770D01*
X197126D01*
X197027Y86271D01*
X196023Y87773D01*
X194521Y88777D01*
X194020Y88876D01*
D02*
G37*
G36*
X191480D02*
X190979Y88777D01*
X189477Y87773D01*
X188473Y86271D01*
X188374Y85770D01*
X191480D01*
Y88876D01*
D02*
G37*
G36*
X241730Y86126D02*
X241229Y86027D01*
X239727Y85023D01*
X239055Y84018D01*
X237649Y83908D01*
X237586Y83931D01*
X237023Y84773D01*
X235521Y85777D01*
X235020Y85876D01*
Y81500D01*
Y77124D01*
X235521Y77223D01*
X237023Y78227D01*
X237695Y79232D01*
X239101Y79342D01*
X239164Y79319D01*
X239727Y78477D01*
X241229Y77473D01*
X241730Y77374D01*
Y81750D01*
Y86126D01*
D02*
G37*
G36*
X244270D02*
Y83020D01*
X247376D01*
X247277Y83521D01*
X246273Y85023D01*
X244771Y86027D01*
X244270Y86126D01*
D02*
G37*
G36*
X232480Y85876D02*
X231979Y85777D01*
X230477Y84773D01*
X229473Y83271D01*
X229374Y82770D01*
X232480D01*
Y85876D01*
D02*
G37*
G36*
X197126Y83230D02*
X194020D01*
Y80124D01*
X194521Y80223D01*
X196023Y81227D01*
X197027Y82729D01*
X197126Y83230D01*
D02*
G37*
G36*
X191480D02*
X188374D01*
X188473Y82729D01*
X189477Y81227D01*
X190979Y80223D01*
X191480Y80124D01*
Y83230D01*
D02*
G37*
G36*
X247376Y80480D02*
X244270D01*
Y77374D01*
X244771Y77473D01*
X246273Y78477D01*
X247277Y79979D01*
X247376Y80480D01*
D02*
G37*
G36*
X232480Y80230D02*
X229374D01*
X229473Y79729D01*
X230477Y78227D01*
X231979Y77223D01*
X232480Y77124D01*
Y80230D01*
D02*
G37*
G36*
X189270Y75876D02*
Y72770D01*
X192376D01*
X192277Y73271D01*
X191273Y74773D01*
X189771Y75777D01*
X189270Y75876D01*
D02*
G37*
G36*
X186730D02*
X186229Y75777D01*
X184727Y74773D01*
X183723Y73271D01*
X183624Y72770D01*
X186730D01*
Y75876D01*
D02*
G37*
G36*
X69250Y90630D02*
X66835Y90312D01*
X64585Y89380D01*
X62653Y87897D01*
X61170Y85965D01*
X60238Y83715D01*
X59920Y81300D01*
X60238Y78885D01*
X61170Y76635D01*
X62653Y74703D01*
X64585Y73220D01*
X66835Y72288D01*
X69250Y71970D01*
X71665Y72288D01*
X73915Y73220D01*
X75847Y74703D01*
X77330Y76635D01*
X78262Y78885D01*
X78580Y81300D01*
X78262Y83715D01*
X77330Y85965D01*
X75847Y87897D01*
X73915Y89380D01*
X71665Y90312D01*
X69250Y90630D01*
D02*
G37*
G36*
X43850D02*
X41435Y90312D01*
X39185Y89380D01*
X37253Y87897D01*
X35770Y85965D01*
X34838Y83715D01*
X34520Y81300D01*
X34838Y78885D01*
X35770Y76635D01*
X37253Y74703D01*
X39185Y73220D01*
X41435Y72288D01*
X43850Y71970D01*
X46265Y72288D01*
X48515Y73220D01*
X50447Y74703D01*
X51930Y76635D01*
X52862Y78885D01*
X53180Y81300D01*
X52862Y83715D01*
X51930Y85965D01*
X50447Y87897D01*
X48515Y89380D01*
X46265Y90312D01*
X43850Y90630D01*
D02*
G37*
G36*
X192376Y70230D02*
X189270D01*
Y67124D01*
X189771Y67223D01*
X191273Y68227D01*
X192277Y69729D01*
X192376Y70230D01*
D02*
G37*
G36*
X186730D02*
X183624D01*
X183723Y69729D01*
X184727Y68227D01*
X186229Y67223D01*
X186730Y67124D01*
Y70230D01*
D02*
G37*
G36*
X229020Y61126D02*
Y58020D01*
X232126D01*
X232027Y58521D01*
X231023Y60023D01*
X229522Y61027D01*
X229020Y61126D01*
D02*
G37*
G36*
X226480D02*
X225979Y61027D01*
X224477Y60023D01*
X223473Y58521D01*
X223374Y58020D01*
X226480D01*
Y61126D01*
D02*
G37*
G36*
X70520Y66616D02*
Y57170D01*
X79966D01*
X79762Y58717D01*
X78675Y61342D01*
X76946Y63595D01*
X74692Y65325D01*
X72067Y66412D01*
X70520Y66616D01*
D02*
G37*
G36*
X45120D02*
Y57170D01*
X54566D01*
X54362Y58717D01*
X53275Y61342D01*
X51546Y63595D01*
X49292Y65325D01*
X46667Y66412D01*
X45120Y66616D01*
D02*
G37*
G36*
X67980D02*
X66433Y66412D01*
X63808Y65325D01*
X61554Y63595D01*
X59825Y61342D01*
X58738Y58717D01*
X58534Y57170D01*
X67980D01*
Y66616D01*
D02*
G37*
G36*
X42580D02*
X41033Y66412D01*
X38408Y65325D01*
X36154Y63595D01*
X34425Y61342D01*
X33338Y58717D01*
X33134Y57170D01*
X42580D01*
Y66616D01*
D02*
G37*
G36*
X232126Y55480D02*
X229020D01*
Y52374D01*
X229522Y52473D01*
X231023Y53477D01*
X232027Y54979D01*
X232126Y55480D01*
D02*
G37*
G36*
X226480D02*
X223374D01*
X223473Y54979D01*
X224477Y53477D01*
X225979Y52473D01*
X226480Y52374D01*
Y55480D01*
D02*
G37*
G36*
X79966Y54630D02*
X70520D01*
Y45184D01*
X72067Y45388D01*
X74692Y46475D01*
X76946Y48204D01*
X78675Y50458D01*
X79762Y53083D01*
X79966Y54630D01*
D02*
G37*
G36*
X54566D02*
X45120D01*
Y45184D01*
X46667Y45388D01*
X49292Y46475D01*
X51546Y48204D01*
X53275Y50458D01*
X54362Y53083D01*
X54566Y54630D01*
D02*
G37*
G36*
X67980D02*
X58534D01*
X58738Y53083D01*
X59825Y50458D01*
X61554Y48204D01*
X63808Y46475D01*
X66433Y45388D01*
X67980Y45184D01*
Y54630D01*
D02*
G37*
G36*
X42580D02*
X33134D01*
X33338Y53083D01*
X34425Y50458D01*
X36154Y48204D01*
X38408Y46475D01*
X41033Y45388D01*
X42580Y45184D01*
Y54630D01*
D02*
G37*
G36*
X111020Y39126D02*
Y36020D01*
X114126D01*
X114027Y36521D01*
X113023Y38023D01*
X111521Y39027D01*
X111020Y39126D01*
D02*
G37*
G36*
X108480D02*
X107979Y39027D01*
X106477Y38023D01*
X105473Y36521D01*
X105374Y36020D01*
X108480D01*
Y39126D01*
D02*
G37*
G36*
X114126Y33480D02*
X111020D01*
Y30374D01*
X111521Y30473D01*
X113023Y31477D01*
X114027Y32979D01*
X114126Y33480D01*
D02*
G37*
G36*
X108480D02*
X105374D01*
X105473Y32979D01*
X106477Y31477D01*
X107979Y30473D01*
X108480Y30374D01*
Y33480D01*
D02*
G37*
G36*
X78500Y39750D02*
X60000D01*
Y21250D01*
X78500D01*
Y39750D01*
D02*
G37*
G36*
X43850Y39830D02*
X41435Y39512D01*
X39185Y38580D01*
X37253Y37097D01*
X35770Y35165D01*
X34838Y32915D01*
X34520Y30500D01*
X34838Y28085D01*
X35770Y25835D01*
X37253Y23903D01*
X39185Y22420D01*
X41435Y21488D01*
X43850Y21170D01*
X46265Y21488D01*
X48515Y22420D01*
X50447Y23903D01*
X51930Y25835D01*
X52862Y28085D01*
X53180Y30500D01*
X52862Y32915D01*
X51930Y35165D01*
X50447Y37097D01*
X48515Y38580D01*
X46265Y39512D01*
X43850Y39830D01*
D02*
G37*
%LPD*%
G36*
X162933Y250969D02*
X161165Y249201D01*
X159397Y250969D01*
X161165Y252737D01*
X162933Y250969D01*
D02*
G37*
G36*
X284585Y246600D02*
X284517Y246676D01*
X284404Y246744D01*
X284246Y246804D01*
X284044Y246856D01*
X283798Y246900D01*
X283507Y246936D01*
X282792Y246984D01*
X281899Y247000D01*
Y248700D01*
X282368Y248704D01*
X283798Y248800D01*
X284044Y248844D01*
X284246Y248896D01*
X284404Y248956D01*
X284517Y249024D01*
X284585Y249100D01*
Y246600D01*
D02*
G37*
G36*
X174125Y241516D02*
X172375D01*
X172380Y241536D01*
X172384Y241591D01*
X172396Y242158D01*
X172400Y243280D01*
X174100D01*
X174125Y241516D01*
D02*
G37*
G36*
X84036Y218620D02*
X84091Y218616D01*
X84658Y218604D01*
X85780Y218600D01*
Y216900D01*
X84016Y216875D01*
Y218625D01*
X84036Y218620D01*
D02*
G37*
G36*
X156420Y212468D02*
X155190Y211203D01*
X153953Y212440D01*
X153971Y212451D01*
X154012Y212487D01*
X154422Y212880D01*
X155218Y213670D01*
X156420Y212468D01*
D02*
G37*
G36*
X166183Y207165D02*
X164415Y205397D01*
X162647Y207165D01*
X164415Y208933D01*
X166183Y207165D01*
D02*
G37*
G36*
X157433Y188797D02*
X155666Y187029D01*
X153898Y188797D01*
X155666Y190565D01*
X157433Y188797D01*
D02*
G37*
G36*
X152604D02*
X150836Y187029D01*
X149068Y188797D01*
X150836Y190565D01*
X152604Y188797D01*
D02*
G37*
G36*
X22546Y208222D02*
X20778Y206454D01*
X19010Y208222D01*
X20778Y209990D01*
X22546Y208222D01*
D02*
G37*
G36*
X59587Y143571D02*
X61563Y141920D01*
X62487Y141282D01*
X63366Y140768D01*
X64203Y140379D01*
X64996Y140114D01*
X65745Y139974D01*
X66452Y139959D01*
X67115Y140069D01*
X61281Y134235D01*
X61391Y134898D01*
X61375Y135605D01*
X61236Y136354D01*
X60971Y137147D01*
X60582Y137984D01*
X60068Y138863D01*
X59430Y139787D01*
X58667Y140753D01*
X57779Y141763D01*
X56766Y142816D01*
X58534Y144584D01*
X59587Y143571D01*
D02*
G37*
D10*
X164025Y173250D02*
X238953Y248178D01*
X135000Y173250D02*
X164025D01*
X121000Y187250D02*
X135000Y173250D01*
X121000Y187250D02*
Y200250D01*
X126131Y205381D01*
X151369D01*
X18363Y210637D02*
X28500Y200500D01*
Y149750D02*
Y200500D01*
Y149750D02*
X33500Y144750D01*
X56600D01*
X69250Y132100D01*
X167500Y225500D02*
Y244634D01*
X158750Y253384D02*
X167500Y244634D01*
X162000Y204750D02*
X167500Y210250D01*
Y225500D01*
X153251Y186382D02*
X162000Y195132D01*
Y204750D01*
X146383Y193250D02*
X153251Y186382D01*
X131000Y193250D02*
X146383D01*
D16*
X93500Y156000D02*
X114250Y135250D01*
X93500Y156000D02*
Y174750D01*
X74407Y193843D02*
X93500Y174750D01*
X74407Y193843D02*
Y226657D01*
X87500Y239750D01*
X100500D01*
X109000Y248250D01*
X113000Y275500D02*
X120000Y268500D01*
X68750Y275500D02*
X113000D01*
X109000Y257500D02*
X120000Y268500D01*
X109000Y248250D02*
Y257500D01*
X129250Y155750D02*
Y156000D01*
D27*
X384250Y170750D02*
D03*
Y255750D02*
D03*
D70*
X173250Y240000D02*
Y248750D01*
X163000Y259000D02*
X173250Y248750D01*
X154750Y259000D02*
X163000D01*
X150000Y254250D02*
X154750Y259000D01*
X136750Y262250D02*
X166250D01*
X174000Y254500D01*
X92250Y217750D02*
X136750Y262250D01*
X150000Y250750D02*
Y254250D01*
Y250750D02*
X157750Y243000D01*
Y215000D02*
Y243000D01*
X153500Y210750D02*
X157750Y215000D01*
X153500Y210750D02*
Y210750D01*
X258900Y247850D02*
X286750D01*
X252250Y254500D02*
X258900Y247850D01*
X174000Y254500D02*
X252250D01*
X82500Y217750D02*
X92250D01*
D73*
X68750Y275500D02*
D03*
X69250Y30500D02*
D03*
D74*
X43350Y275500D02*
D03*
X68750Y300900D02*
D03*
X43350D02*
D03*
X68750Y326300D02*
D03*
X43350D02*
D03*
X68750Y351700D02*
D03*
X43350D02*
D03*
X68750Y377100D02*
D03*
X43350D02*
D03*
X68750Y402500D02*
D03*
X43350D02*
D03*
X43850Y30500D02*
D03*
X69250Y55900D02*
D03*
X43850D02*
D03*
X69250Y81300D02*
D03*
X43850D02*
D03*
X69250Y106700D02*
D03*
X43850D02*
D03*
X69250Y132100D02*
D03*
X43850D02*
D03*
X69250Y157500D02*
D03*
X43850D02*
D03*
D75*
X175250Y90750D02*
D03*
X16250Y217250D02*
D03*
X84500Y210750D02*
D03*
X238953Y248178D02*
D03*
X151369Y205381D02*
D03*
X173250Y240000D02*
D03*
X153500Y210750D02*
D03*
X82500Y217750D02*
D03*
D76*
X114250Y135250D02*
D03*
X286750Y247850D02*
D03*
X120000Y268500D02*
D03*
X109000Y248250D02*
D03*
X42250Y230000D02*
D03*
X53750Y242500D02*
D03*
X18363Y210637D02*
D03*
X119500Y297750D02*
D03*
X158750Y253384D02*
D03*
X167500Y225500D02*
D03*
X162000Y204750D02*
D03*
X131000Y193250D02*
D03*
X153251Y186382D02*
D03*
D77*
X174500Y197750D02*
D03*
X132750Y218250D02*
D03*
X138750Y225250D02*
D03*
X145000Y232000D02*
D03*
X126000Y224000D02*
D03*
X131250Y231250D02*
D03*
X138000Y237750D02*
D03*
X131250Y243000D02*
D03*
X125250Y236750D02*
D03*
X119750Y230000D02*
D03*
X168000Y189500D02*
D03*
X189000Y247750D02*
D03*
X109750Y34750D02*
D03*
X331250Y144500D02*
D03*
X350250Y145000D02*
D03*
X318750Y165000D02*
D03*
X308500Y164500D02*
D03*
X301300Y216750D02*
D03*
X113000Y180500D02*
D03*
X384250Y156750D02*
D03*
X355500Y255750D02*
D03*
X306500Y237500D02*
D03*
X310500Y254250D02*
D03*
X219750Y273250D02*
D03*
X229000Y274750D02*
D03*
X238500Y272000D02*
D03*
X183000Y262500D02*
D03*
X175750Y270000D02*
D03*
X116750Y171500D02*
D03*
X129250Y156000D02*
D03*
X142750Y156000D02*
D03*
X158250Y155000D02*
D03*
X155500Y119500D02*
D03*
X171000Y119250D02*
D03*
X243000Y81750D02*
D03*
X233750Y81500D02*
D03*
X227750Y56750D02*
D03*
X192750Y84500D02*
D03*
X188000Y71500D02*
D03*
M02*
