G04*
G04 #@! TF.GenerationSoftware,Altium Limited,Altium Designer,19.1.7 (138)*
G04*
G04 Layer_Physical_Order=3*
G04 Layer_Color=128*
%FSLAX44Y44*%
%MOMM*%
G71*
G01*
G75*
%ADD78C,1.0160*%
%ADD79C,2.1160*%
G04:AMPARAMS|DCode=80|XSize=2.624mm|YSize=2.624mm|CornerRadius=0mm|HoleSize=0mm|Usage=FLASHONLY|Rotation=0.000|XOffset=0mm|YOffset=0mm|HoleType=Round|Shape=Relief|Width=0.254mm|Gap=0.254mm|Entries=4|*
%AMTHD80*
7,0,0,2.6240,2.1160,0.2540,45*
%
%ADD80THD80*%
G04:AMPARAMS|DCode=81|XSize=1.694mm|YSize=1.694mm|CornerRadius=0mm|HoleSize=0mm|Usage=FLASHONLY|Rotation=0.000|XOffset=0mm|YOffset=0mm|HoleType=Round|Shape=Relief|Width=0.254mm|Gap=0.254mm|Entries=4|*
%AMTHD81*
7,0,0,1.6940,1.1860,0.2540,45*
%
%ADD81THD81*%
%ADD82C,1.1860*%
%ADD83C,1.3160*%
G04:AMPARAMS|DCode=84|XSize=1.824mm|YSize=1.824mm|CornerRadius=0mm|HoleSize=0mm|Usage=FLASHONLY|Rotation=0.000|XOffset=0mm|YOffset=0mm|HoleType=Round|Shape=Relief|Width=0.254mm|Gap=0.254mm|Entries=4|*
%AMTHD84*
7,0,0,1.8240,1.3160,0.2540,45*
%
%ADD84THD84*%
%ADD85C,1.2700*%
G04:AMPARAMS|DCode=86|XSize=1.724mm|YSize=1.724mm|CornerRadius=0mm|HoleSize=0mm|Usage=FLASHONLY|Rotation=0.000|XOffset=0mm|YOffset=0mm|HoleType=Round|Shape=Relief|Width=0.254mm|Gap=0.254mm|Entries=4|*
%AMTHD86*
7,0,0,1.7240,1.2160,0.2540,45*
%
%ADD86THD86*%
D78*
X14500Y431750D02*
G03*
X0Y416750I250J-14750D01*
G01*
X430250Y417250D02*
G03*
X415250Y431750I-14750J-250D01*
G01*
X415750Y-0D02*
G03*
X430250Y15000I-250J14750D01*
G01*
X-0Y14500D02*
G03*
X15000Y0I14750J250D01*
G01*
Y-0D02*
Y0D01*
Y-0D02*
X415500Y0D01*
X415750Y-0D01*
X430250Y15000D02*
X430250D01*
X430250D02*
X430250Y417250D01*
X415250Y431750D02*
Y431800D01*
X14500Y431800D02*
X415250Y431800D01*
X14500Y431750D02*
Y431800D01*
X-0Y416750D02*
X0D01*
X-0Y14500D02*
X-0Y416750D01*
D79*
X68750Y275500D02*
D03*
X43350D02*
D03*
X68750Y326300D02*
D03*
X43350D02*
D03*
X68750Y351700D02*
D03*
X43350D02*
D03*
X68750Y377100D02*
D03*
X43350D02*
D03*
X68750Y402500D02*
D03*
X43350D02*
D03*
X69250Y30500D02*
D03*
X43850D02*
D03*
X69250Y81300D02*
D03*
X43850D02*
D03*
X69250Y106700D02*
D03*
X43850D02*
D03*
X69250Y132100D02*
D03*
X43850D02*
D03*
X69250Y157500D02*
D03*
X43850D02*
D03*
D80*
X68750Y300900D02*
D03*
X43350D02*
D03*
X69250Y55900D02*
D03*
X43850D02*
D03*
D81*
X175250Y90750D02*
D03*
X16250Y217250D02*
D03*
X84500Y210750D02*
D03*
X168000Y189500D02*
D03*
X189000Y247750D02*
D03*
X109750Y34750D02*
D03*
X331250Y144500D02*
D03*
X350250Y145000D02*
D03*
X318750Y165000D02*
D03*
X308500Y164500D02*
D03*
X301300Y216750D02*
D03*
X113000Y180500D02*
D03*
D82*
X238953Y248178D02*
D03*
X151369Y205381D02*
D03*
X173250Y240000D02*
D03*
X153500Y210750D02*
D03*
X82500Y217750D02*
D03*
D83*
X114250Y135250D02*
D03*
X286750Y247850D02*
D03*
X120000Y268500D02*
D03*
X109000Y248250D02*
D03*
X18363Y210637D02*
D03*
X158750Y253384D02*
D03*
X167500Y225500D02*
D03*
D84*
X42250Y230000D02*
D03*
X53750Y242500D02*
D03*
X119500Y297750D02*
D03*
D85*
X162000Y204750D02*
D03*
X131000Y193250D02*
D03*
X153251Y186382D02*
D03*
D86*
X174500Y197750D02*
D03*
X132750Y218250D02*
D03*
X138750Y225250D02*
D03*
X145000Y232000D02*
D03*
X126000Y224000D02*
D03*
X131250Y231250D02*
D03*
X138000Y237750D02*
D03*
X131250Y243000D02*
D03*
X125250Y236750D02*
D03*
X119750Y230000D02*
D03*
X384250Y156750D02*
D03*
X355500Y255750D02*
D03*
X306500Y237500D02*
D03*
X310500Y254250D02*
D03*
X219750Y273250D02*
D03*
X229000Y274750D02*
D03*
X238500Y272000D02*
D03*
X183000Y262500D02*
D03*
X175750Y270000D02*
D03*
X116750Y171500D02*
D03*
X129250Y156000D02*
D03*
X142750Y156000D02*
D03*
X158250Y155000D02*
D03*
X155500Y119500D02*
D03*
X171000Y119250D02*
D03*
X243000Y81750D02*
D03*
X233750Y81500D02*
D03*
X227750Y56750D02*
D03*
X192750Y84500D02*
D03*
X188000Y71500D02*
D03*
M02*
