G04*
G04 #@! TF.GenerationSoftware,Altium Limited,Altium Designer,19.1.7 (138)*
G04*
G04 Layer_Physical_Order=1*
G04 Layer_Color=255*
%FSLAX44Y44*%
%MOMM*%
G71*
G01*
G75*
%ADD10C,0.2500*%
%ADD13C,0.2000*%
%ADD16C,0.4000*%
%ADD18R,0.8000X0.8000*%
%ADD19R,0.6000X0.8500*%
%ADD20R,0.6000X1.4000*%
%ADD21R,0.6000X1.8000*%
%ADD22R,0.6400X0.6500*%
%ADD23R,0.8000X0.8000*%
%ADD24R,0.6500X0.6400*%
%ADD25R,1.4000X0.4500*%
%ADD26R,0.7000X0.6000*%
%ADD27R,4.9000X1.6000*%
%ADD28R,2.3500X0.7000*%
%ADD29R,0.6000X0.7000*%
%ADD30C,1.0000*%
G04:AMPARAMS|DCode=31|XSize=0.65mm|YSize=0.64mm|CornerRadius=0mm|HoleSize=0mm|Usage=FLASHONLY|Rotation=320.000|XOffset=0mm|YOffset=0mm|HoleType=Round|Shape=Rectangle|*
%AMROTATEDRECTD31*
4,1,4,-0.4547,-0.0362,-0.0433,0.4540,0.4547,0.0362,0.0433,-0.4540,-0.4547,-0.0362,0.0*
%
%ADD31ROTATEDRECTD31*%

%ADD32R,0.8500X0.6000*%
G04:AMPARAMS|DCode=33|XSize=0.65mm|YSize=0.64mm|CornerRadius=0mm|HoleSize=0mm|Usage=FLASHONLY|Rotation=230.000|XOffset=0mm|YOffset=0mm|HoleType=Round|Shape=Rectangle|*
%AMROTATEDRECTD33*
4,1,4,-0.0362,0.4547,0.4540,0.0433,0.0362,-0.4547,-0.4540,-0.0433,-0.0362,0.4547,0.0*
%
%ADD33ROTATEDRECTD33*%

%ADD34P,1.1314X4X175.0*%
G04:AMPARAMS|DCode=35|XSize=0.65mm|YSize=0.64mm|CornerRadius=0mm|HoleSize=0mm|Usage=FLASHONLY|Rotation=130.000|XOffset=0mm|YOffset=0mm|HoleType=Round|Shape=Rectangle|*
%AMROTATEDRECTD35*
4,1,4,0.4540,-0.0433,-0.0362,-0.4547,-0.4540,0.0433,0.0362,0.4547,0.4540,-0.0433,0.0*
%
%ADD35ROTATEDRECTD35*%

%ADD36R,1.5200X0.4400*%
G04:AMPARAMS|DCode=37|XSize=0.65mm|YSize=0.64mm|CornerRadius=0mm|HoleSize=0mm|Usage=FLASHONLY|Rotation=40.000|XOffset=0mm|YOffset=0mm|HoleType=Round|Shape=Rectangle|*
%AMROTATEDRECTD37*
4,1,4,-0.0433,-0.4540,-0.4547,0.0362,0.0433,0.4540,0.4547,-0.0362,-0.0433,-0.4540,0.0*
%
%ADD37ROTATEDRECTD37*%

%ADD38R,1.5240X0.4572*%
G04:AMPARAMS|DCode=39|XSize=0.8128mm|YSize=0.3048mm|CornerRadius=0mm|HoleSize=0mm|Usage=FLASHONLY|Rotation=230.000|XOffset=0mm|YOffset=0mm|HoleType=Round|Shape=Rectangle|*
%AMROTATEDRECTD39*
4,1,4,0.1445,0.4093,0.3780,0.2134,-0.1445,-0.4093,-0.3780,-0.2134,0.1445,0.4093,0.0*
%
%ADD39ROTATEDRECTD39*%

G04:AMPARAMS|DCode=40|XSize=0.8128mm|YSize=0.3048mm|CornerRadius=0mm|HoleSize=0mm|Usage=FLASHONLY|Rotation=320.000|XOffset=0mm|YOffset=0mm|HoleType=Round|Shape=Rectangle|*
%AMROTATEDRECTD40*
4,1,4,-0.4093,0.1445,-0.2134,0.3780,0.4093,-0.1445,0.2134,-0.3780,-0.4093,0.1445,0.0*
%
%ADD40ROTATEDRECTD40*%

%ADD41P,4.5979X4X275.0*%
%ADD70C,0.1700*%
%ADD71C,0.3810*%
%ADD72C,0.3000*%
%ADD73R,1.6500X1.6500*%
%ADD74C,1.6500*%
%ADD75C,0.3500*%
%ADD76C,0.5000*%
%ADD77C,0.4000*%
G36*
X427000Y423000D02*
Y13500D01*
X420000Y6500D01*
X19500D01*
X8221Y19029D01*
X7268Y419501D01*
X14500Y427000D01*
X422750D01*
X427000Y423000D01*
D02*
G37*
%LPC*%
G36*
X43350Y411830D02*
X40935Y411512D01*
X38685Y410580D01*
X36753Y409097D01*
X35270Y407165D01*
X34338Y404915D01*
X34020Y402500D01*
X34338Y400085D01*
X35270Y397835D01*
X36753Y395903D01*
X38685Y394420D01*
X40935Y393488D01*
X43350Y393170D01*
X45765Y393488D01*
X48015Y394420D01*
X49947Y395903D01*
X51430Y397835D01*
X52362Y400085D01*
X52680Y402500D01*
X52362Y404915D01*
X51430Y407165D01*
X49947Y409097D01*
X48015Y410580D01*
X45765Y411512D01*
X43350Y411830D01*
D02*
G37*
G36*
X68750D02*
X66335Y411512D01*
X64085Y410580D01*
X62153Y409097D01*
X60670Y407165D01*
X59738Y404915D01*
X59420Y402500D01*
X59738Y400085D01*
X60670Y397835D01*
X62153Y395903D01*
X64085Y394420D01*
X66335Y393488D01*
X68750Y393170D01*
X69035Y393208D01*
X69106Y393176D01*
X69844Y393161D01*
X70545Y393057D01*
X71286Y392857D01*
X72066Y392557D01*
X72884Y392154D01*
X73741Y391644D01*
X74621Y391035D01*
X76524Y389454D01*
X77516Y388502D01*
X77622Y388461D01*
X189114Y276969D01*
Y260531D01*
X187783Y259200D01*
X186796Y260010D01*
X187277Y260729D01*
X187376Y261230D01*
X183000D01*
Y262500D01*
X181730D01*
Y266876D01*
X181229Y266777D01*
X179854Y265858D01*
X179023Y266727D01*
X180027Y268229D01*
X180126Y268730D01*
X175750D01*
Y270000D01*
X174480D01*
Y274376D01*
X173979Y274277D01*
X172477Y273273D01*
X172287Y272990D01*
X171019Y272920D01*
X170943Y273011D01*
X167481Y270106D01*
X171170Y265709D01*
X169224Y264076D01*
X165535Y268473D01*
X162072Y265568D01*
X163062Y264388D01*
X157347Y259593D01*
X158521Y258194D01*
X158026Y256808D01*
X157384Y256681D01*
X156227Y255907D01*
X155453Y254750D01*
X155181Y253384D01*
X155453Y252018D01*
X155715Y251626D01*
X154760Y250770D01*
X152563Y252613D01*
X151590Y253430D01*
X150642Y254225D01*
X148671Y255879D01*
X147723Y256674D01*
X146750Y257491D01*
X144002Y259797D01*
X144002Y259797D01*
X141083Y262246D01*
X140135Y263042D01*
X139162Y263858D01*
X136243Y266307D01*
X130529Y259497D01*
X123719Y265212D01*
X121270Y262293D01*
X120474Y261345D01*
X119657Y260372D01*
X117907Y258286D01*
X116210Y258187D01*
X112011Y262386D01*
Y279084D01*
X113032Y279455D01*
X113281Y279546D01*
X113344Y279471D01*
Y279471D01*
X113366Y279445D01*
X115644Y276730D01*
X119068Y279604D01*
X116163Y283066D01*
X113444Y280784D01*
X113363Y280717D01*
Y280717D01*
X113281Y280648D01*
X113110Y280728D01*
Y280728D01*
X113110Y280728D01*
X113110Y280728D01*
X113110Y280728D01*
X112011Y281241D01*
Y335725D01*
X111868Y336447D01*
X111459Y337059D01*
X87315Y361202D01*
X86424Y362107D01*
X85785Y362534D01*
X85595Y362924D01*
X85423Y363968D01*
X86465Y365010D01*
X86472Y365003D01*
X86994Y365784D01*
X87045Y366040D01*
X87177Y366704D01*
X87045Y367369D01*
X86994Y367625D01*
X86472Y368406D01*
X86465Y368399D01*
X84789Y370075D01*
X84789Y370089D01*
X84789Y370089D01*
X84009Y370611D01*
X83756Y370661D01*
X83088Y370794D01*
X82423Y370661D01*
X82167Y370611D01*
X81386Y370089D01*
X81393Y370082D01*
X80351Y369039D01*
X79307Y369212D01*
X78918Y369402D01*
X78491Y370041D01*
X78484Y370034D01*
X78484Y370034D01*
X76505Y372012D01*
X76830Y372435D01*
X77762Y374685D01*
X78080Y377100D01*
X77762Y379515D01*
X76830Y381765D01*
X75347Y383697D01*
X73415Y385180D01*
X71165Y386112D01*
X68750Y386430D01*
X66335Y386112D01*
X64085Y385180D01*
X62153Y383697D01*
X60670Y381765D01*
X59738Y379515D01*
X59420Y377100D01*
X59738Y374685D01*
X60670Y372435D01*
X62153Y370503D01*
X64085Y369020D01*
X66335Y368088D01*
X68750Y367770D01*
X71165Y368088D01*
X73415Y369020D01*
X73838Y369345D01*
X74843Y368340D01*
X73371Y366868D01*
X73357Y366868D01*
X73357Y366868D01*
X72835Y366087D01*
X72785Y365835D01*
X72652Y365166D01*
X72784Y364502D01*
X72835Y364245D01*
X73357Y363465D01*
X73357Y363465D01*
X73371D01*
X75047Y361789D01*
X75040Y361782D01*
X75820Y361260D01*
X76077Y361209D01*
X76741Y361077D01*
X77543Y359942D01*
X77644Y359437D01*
X78165Y358657D01*
X78172Y358664D01*
X79848Y356988D01*
X79848Y356974D01*
X79848Y356974D01*
X80629Y356452D01*
X80882Y356402D01*
X81550Y356269D01*
X82214Y356401D01*
X82471Y356452D01*
X83251Y356974D01*
X83251Y356974D01*
Y356988D01*
X84723Y358460D01*
X108239Y334944D01*
Y322599D01*
X108153Y322498D01*
X107801Y322475D01*
X106748Y322747D01*
X106313Y323397D01*
X106306Y323390D01*
X104630Y325066D01*
X104630Y325080D01*
X104630Y325080D01*
X103850Y325602D01*
X103597Y325652D01*
X102929Y325785D01*
X102127Y326920D01*
X102027Y327425D01*
X101505Y328205D01*
X101498Y328198D01*
X99822Y329874D01*
X99822Y329888D01*
X99822Y329888D01*
X99042Y330410D01*
X98789Y330460D01*
X98121Y330593D01*
X97319Y331728D01*
X97218Y332233D01*
X96697Y333014D01*
X96690Y333007D01*
X95014Y334682D01*
X95014Y334697D01*
X95014Y334697D01*
X94233Y335218D01*
X93981Y335268D01*
X93312Y335401D01*
X92510Y336537D01*
X92410Y337041D01*
X91888Y337822D01*
X91881Y337815D01*
X90205Y339491D01*
X90205Y339505D01*
X90205Y339505D01*
X89425Y340027D01*
X89172Y340077D01*
X88504Y340210D01*
X87840Y340078D01*
X87583Y340027D01*
X86803Y339505D01*
X86810Y339498D01*
X85215Y337903D01*
X83684Y339434D01*
X83684Y339434D01*
X81811Y341306D01*
X81770Y341412D01*
X80802Y342426D01*
X79979Y343382D01*
X79284Y344295D01*
X78717Y345162D01*
X78275Y345980D01*
X77955Y346745D01*
X77753Y347455D01*
X77660Y348110D01*
X77667Y348716D01*
X77784Y349374D01*
X77778Y349405D01*
X77797Y349556D01*
X77801Y349565D01*
X77799Y349570D01*
X78080Y351700D01*
X77762Y354115D01*
X76830Y356365D01*
X75347Y358297D01*
X73415Y359780D01*
X71165Y360712D01*
X68750Y361030D01*
X66335Y360712D01*
X64085Y359780D01*
X62153Y358297D01*
X60670Y356365D01*
X59738Y354115D01*
X59420Y351700D01*
X59738Y349285D01*
X60670Y347035D01*
X62153Y345103D01*
X64085Y343620D01*
X66335Y342688D01*
X66577Y342656D01*
X66494Y341386D01*
X63281D01*
X56886Y347781D01*
Y362500D01*
X56743Y363222D01*
X56334Y363834D01*
X55015Y365153D01*
X55012Y365170D01*
X54950Y365218D01*
X54902Y365266D01*
X54861Y365372D01*
X53889Y366390D01*
X53082Y367336D01*
X52420Y368223D01*
X51905Y369046D01*
X51532Y369799D01*
X51296Y370475D01*
X51185Y371071D01*
X51184Y371590D01*
X51277Y372052D01*
X51511Y372584D01*
X51512Y372634D01*
X51548Y372720D01*
X51567Y372746D01*
X51565Y372762D01*
X52362Y374685D01*
X52680Y377100D01*
X52362Y379515D01*
X51430Y381765D01*
X49947Y383697D01*
X48015Y385180D01*
X45765Y386112D01*
X43350Y386430D01*
X40935Y386112D01*
X38685Y385180D01*
X36753Y383697D01*
X35270Y381765D01*
X34338Y379515D01*
X34020Y377100D01*
X34338Y374685D01*
X35270Y372435D01*
X36753Y370503D01*
X38685Y369020D01*
X40935Y368088D01*
X43333Y367772D01*
X43339Y367770D01*
X44090Y367727D01*
X44805Y367599D01*
X45558Y367377D01*
X46348Y367058D01*
X47175Y366638D01*
X48036Y366115D01*
X48919Y365496D01*
X50820Y363908D01*
X51810Y362958D01*
X51916Y362916D01*
X53114Y361719D01*
Y355618D01*
X51844Y355366D01*
X51430Y356365D01*
X49947Y358297D01*
X48015Y359780D01*
X45765Y360712D01*
X43350Y361030D01*
X40935Y360712D01*
X38685Y359780D01*
X36753Y358297D01*
X35270Y356365D01*
X34338Y354115D01*
X34020Y351700D01*
X34338Y349285D01*
X35270Y347035D01*
X36753Y345103D01*
X38685Y343620D01*
X40935Y342688D01*
X43350Y342370D01*
X45480Y342651D01*
X45485Y342649D01*
X45494Y342653D01*
X45645Y342672D01*
X45676Y342666D01*
X46334Y342783D01*
X46940Y342790D01*
X47595Y342697D01*
X48305Y342495D01*
X49070Y342175D01*
X49888Y341734D01*
X50741Y341175D01*
X52636Y339637D01*
X53638Y338680D01*
X53744Y338639D01*
X54739Y337644D01*
Y321875D01*
X54882Y321153D01*
X55291Y320541D01*
X62416Y313416D01*
X63028Y313007D01*
X63750Y312864D01*
X67228D01*
X67312Y311594D01*
X65933Y311412D01*
X63308Y310325D01*
X61055Y308596D01*
X59656Y306773D01*
X58386Y307204D01*
Y313150D01*
X58243Y313872D01*
X57834Y314484D01*
X56411Y315907D01*
X56370Y316012D01*
X55402Y317026D01*
X54579Y317982D01*
X53884Y318895D01*
X53316Y319762D01*
X52875Y320580D01*
X52555Y321345D01*
X52353Y322055D01*
X52260Y322710D01*
X52267Y323316D01*
X52384Y323974D01*
X52378Y324005D01*
X52397Y324156D01*
X52401Y324165D01*
X52399Y324170D01*
X52680Y326300D01*
X52362Y328715D01*
X51430Y330965D01*
X49947Y332897D01*
X48015Y334380D01*
X45765Y335312D01*
X43350Y335630D01*
X40935Y335312D01*
X38685Y334380D01*
X36753Y332897D01*
X35270Y330965D01*
X34338Y328715D01*
X34020Y326300D01*
X34338Y323885D01*
X35270Y321635D01*
X36753Y319703D01*
X38685Y318220D01*
X40935Y317288D01*
X43350Y316970D01*
X45480Y317251D01*
X45485Y317249D01*
X45494Y317253D01*
X45645Y317272D01*
X45676Y317266D01*
X46334Y317383D01*
X46940Y317390D01*
X47595Y317297D01*
X48305Y317094D01*
X49070Y316775D01*
X49888Y316334D01*
X50741Y315775D01*
X52636Y314237D01*
X53638Y313280D01*
X53744Y313239D01*
X54614Y312369D01*
Y305221D01*
X53344Y304969D01*
X52775Y306342D01*
X51045Y308596D01*
X48792Y310325D01*
X46167Y311412D01*
X44620Y311616D01*
Y300900D01*
Y290184D01*
X46167Y290388D01*
X48792Y291475D01*
X51045Y293204D01*
X52775Y295458D01*
X53344Y296831D01*
X54614Y296579D01*
Y291750D01*
X54757Y291028D01*
X55166Y290416D01*
X58916Y286666D01*
X59528Y286257D01*
X60250Y286114D01*
X77198D01*
X77247Y286020D01*
X76962Y285292D01*
X76473Y284750D01*
X59500D01*
Y279488D01*
X58596Y278597D01*
X58137Y278603D01*
X55580Y278769D01*
X54539Y278909D01*
X53634Y279086D01*
X52882Y279294D01*
X52289Y279524D01*
X51859Y279761D01*
X51586Y279982D01*
X51351Y280287D01*
X51325Y280302D01*
X51264Y280381D01*
X51260Y280390D01*
X51255Y280392D01*
X49947Y282097D01*
X48015Y283580D01*
X45765Y284512D01*
X43350Y284830D01*
X40935Y284512D01*
X38685Y283580D01*
X36753Y282097D01*
X35270Y280165D01*
X34338Y277915D01*
X34101Y276115D01*
X33191Y275934D01*
X32198Y275271D01*
X32198Y275271D01*
X24337Y267411D01*
X23674Y266418D01*
X23442Y265248D01*
X23442Y265247D01*
Y247251D01*
X21500D01*
Y237251D01*
X22441D01*
Y234200D01*
X20250D01*
Y225800D01*
X21441D01*
Y221484D01*
X20750Y220500D01*
X19480Y220138D01*
X19343Y220343D01*
X17924Y221291D01*
X17520Y221371D01*
Y217250D01*
X16250D01*
Y215980D01*
X12129D01*
X12209Y215576D01*
X13157Y214157D01*
X14576Y213209D01*
X14599Y213204D01*
X14961Y212332D01*
X15031Y211824D01*
X14795Y210637D01*
X15066Y209271D01*
X15840Y208113D01*
X16998Y207340D01*
X18267Y207087D01*
X18421Y206676D01*
X18544Y205836D01*
X18166Y205584D01*
X15166Y202584D01*
X14757Y201972D01*
X14614Y201250D01*
Y149250D01*
X14757Y148528D01*
X15166Y147916D01*
X30516Y132566D01*
X31128Y132157D01*
X31607Y132062D01*
X31814Y131968D01*
X33121Y131924D01*
X33612Y131875D01*
X34023Y131808D01*
X34335Y131731D01*
X34538Y131657D01*
X34582Y131632D01*
X34838Y129685D01*
X35770Y127435D01*
X37253Y125503D01*
X39185Y124020D01*
X41435Y123088D01*
X43850Y122770D01*
X46265Y123088D01*
X48515Y124020D01*
X50447Y125503D01*
X51930Y127435D01*
X52862Y129685D01*
X53180Y132100D01*
X52862Y134515D01*
X51930Y136765D01*
X50447Y138697D01*
X48515Y140180D01*
X46265Y141112D01*
X43850Y141430D01*
X41435Y141112D01*
X39185Y140180D01*
X37253Y138697D01*
X35770Y136765D01*
X35633Y136433D01*
X35580Y136400D01*
X35525Y136322D01*
X35505Y136306D01*
X35382Y136238D01*
X35151Y136151D01*
X34818Y136063D01*
X34416Y135988D01*
X32584Y135842D01*
X32576Y135842D01*
X18386Y150031D01*
Y200469D01*
X19480Y201562D01*
X20750Y201036D01*
X20750Y199730D01*
Y194500D01*
X27364D01*
Y152000D01*
X27507Y151278D01*
X27916Y150666D01*
X34416Y144166D01*
X35028Y143757D01*
X35750Y143614D01*
X54750D01*
X55472Y143757D01*
X56084Y144166D01*
X57517Y145599D01*
X57552Y145606D01*
X57615Y145695D01*
X57717Y145735D01*
X58735Y146705D01*
X59683Y147515D01*
X60574Y148181D01*
X61405Y148704D01*
X62169Y149087D01*
X62861Y149334D01*
X63476Y149457D01*
X64019Y149470D01*
X64505Y149386D01*
X65059Y149167D01*
X65150Y149169D01*
X65225Y149116D01*
X65290Y149128D01*
X66835Y148488D01*
X69250Y148170D01*
X71665Y148488D01*
X73915Y149420D01*
X75847Y150903D01*
X77330Y152835D01*
X78262Y155085D01*
X78580Y157500D01*
X78262Y159915D01*
X77330Y162165D01*
X75847Y164097D01*
X73915Y165580D01*
X71665Y166512D01*
X69250Y166830D01*
X67814Y166641D01*
X67040Y167646D01*
X67356Y168830D01*
X68025Y169119D01*
X68689Y169251D01*
X68946Y169302D01*
X69726Y169824D01*
X69726Y169824D01*
Y169838D01*
X71402Y171514D01*
X71409Y171507D01*
X71931Y172288D01*
X71982Y172544D01*
X72114Y173208D01*
X73249Y174010D01*
X73754Y174111D01*
X74535Y174632D01*
X74535Y174632D01*
Y174646D01*
X76210Y176322D01*
X76218Y176315D01*
X76739Y177096D01*
X76840Y177600D01*
X77642Y178736D01*
X78306Y178868D01*
X78562Y178919D01*
X79343Y179441D01*
X79343Y179441D01*
Y179455D01*
X81019Y181131D01*
X81026Y181123D01*
X81548Y181904D01*
X81599Y182160D01*
X81731Y182825D01*
X82866Y183627D01*
X83371Y183727D01*
X84151Y184249D01*
X84151Y184249D01*
Y184263D01*
X85827Y185939D01*
X85834Y185932D01*
X86356Y186712D01*
X86407Y186969D01*
X86539Y187633D01*
X86407Y188298D01*
X86356Y188554D01*
X85834Y189335D01*
X85143Y190319D01*
Y191087D01*
X85407Y191544D01*
X86644Y192782D01*
X87914Y192255D01*
Y180410D01*
X87904D01*
X88054Y179656D01*
X87913Y179246D01*
X87296Y178386D01*
X85895D01*
Y178396D01*
X84974Y178213D01*
X84757Y178068D01*
X84194Y177691D01*
X83817Y177128D01*
X83672Y176911D01*
X83489Y175990D01*
X83499D01*
Y173610D01*
X83489D01*
X83672Y172689D01*
X83817Y172472D01*
X84194Y171908D01*
Y170891D01*
X83817Y170328D01*
X83672Y170111D01*
X83489Y169190D01*
X83499D01*
Y166810D01*
X83489D01*
X83672Y165889D01*
X83817Y165672D01*
X84194Y165109D01*
X84757Y164732D01*
X84974Y164587D01*
X85895Y164404D01*
Y164414D01*
X87296D01*
X87913Y163554D01*
X88054Y163144D01*
X87904Y162390D01*
X87914D01*
Y158581D01*
X75469Y146136D01*
X62750D01*
X62028Y145993D01*
X61416Y145584D01*
X55666Y139834D01*
X55257Y139222D01*
X55114Y138500D01*
Y120631D01*
X54243Y119761D01*
X54138Y119720D01*
X53124Y118752D01*
X52168Y117929D01*
X51255Y117234D01*
X50388Y116666D01*
X49570Y116225D01*
X48805Y115906D01*
X48095Y115703D01*
X47440Y115610D01*
X46834Y115617D01*
X46176Y115734D01*
X46145Y115728D01*
X45995Y115747D01*
X45985Y115751D01*
X45981Y115749D01*
X43850Y116030D01*
X41435Y115712D01*
X39185Y114780D01*
X37253Y113297D01*
X35770Y111365D01*
X34838Y109115D01*
X34520Y106700D01*
X34838Y104285D01*
X35770Y102035D01*
X37253Y100103D01*
X39185Y98620D01*
X41435Y97688D01*
X43850Y97370D01*
X46265Y97688D01*
X48515Y98620D01*
X50447Y100103D01*
X51930Y102035D01*
X52862Y104285D01*
X53180Y106700D01*
X52899Y108830D01*
X52901Y108835D01*
X52898Y108844D01*
X52878Y108995D01*
X52884Y109026D01*
X52767Y109684D01*
X52760Y110290D01*
X52853Y110945D01*
X53056Y111655D01*
X53375Y112420D01*
X53816Y113238D01*
X54375Y114091D01*
X54594Y114361D01*
X55864Y113910D01*
Y95981D01*
X54243Y94361D01*
X54138Y94320D01*
X53124Y93352D01*
X52168Y92529D01*
X51255Y91834D01*
X50388Y91266D01*
X49570Y90825D01*
X48805Y90506D01*
X48095Y90303D01*
X47440Y90210D01*
X46834Y90217D01*
X46176Y90334D01*
X46145Y90328D01*
X45995Y90347D01*
X45985Y90351D01*
X45981Y90349D01*
X43850Y90630D01*
X41435Y90312D01*
X39185Y89380D01*
X37253Y87897D01*
X35770Y85965D01*
X34838Y83715D01*
X34520Y81300D01*
X34838Y78885D01*
X35770Y76635D01*
X37253Y74703D01*
X39185Y73220D01*
X41435Y72288D01*
X43850Y71970D01*
X46265Y72288D01*
X48515Y73220D01*
X50447Y74703D01*
X51930Y76635D01*
X52862Y78885D01*
X53180Y81300D01*
X52899Y83431D01*
X52901Y83435D01*
X52898Y83444D01*
X52878Y83595D01*
X52884Y83626D01*
X52767Y84284D01*
X52760Y84890D01*
X52853Y85545D01*
X53056Y86255D01*
X53375Y87020D01*
X53816Y87838D01*
X54375Y88691D01*
X55913Y90586D01*
X56870Y91587D01*
X56911Y91693D01*
X59084Y93866D01*
X59493Y94478D01*
X59636Y95200D01*
Y102420D01*
X60906Y102672D01*
X61170Y102035D01*
X62653Y100103D01*
X64585Y98620D01*
X66835Y97688D01*
X69250Y97370D01*
X71665Y97688D01*
X73915Y98620D01*
X75847Y100103D01*
X77330Y102035D01*
X77778Y103117D01*
X77902Y103220D01*
X78058Y103516D01*
X78219Y103704D01*
X78473Y103902D01*
X78838Y104102D01*
X79322Y104290D01*
X79924Y104454D01*
X80626Y104585D01*
X82421Y104747D01*
X83471Y104768D01*
X83682Y104860D01*
X84172Y104957D01*
X84784Y105366D01*
X85986Y106568D01*
X85986Y106568D01*
X87056Y107639D01*
X88833Y105862D01*
X88826Y105855D01*
X89607Y105333D01*
X89863Y105282D01*
X90527Y105150D01*
X91192Y105282D01*
X91448Y105333D01*
X92229Y105855D01*
X92229Y105855D01*
Y105869D01*
X93905Y107545D01*
X93912Y107538D01*
X94433Y108318D01*
X94485Y108575D01*
X94617Y109239D01*
X95752Y110041D01*
X96257Y110141D01*
X97037Y110663D01*
X97037Y110663D01*
Y110677D01*
X98713Y112353D01*
X98720Y112346D01*
X99242Y113126D01*
X99293Y113383D01*
X99425Y114047D01*
X99293Y114712D01*
X99242Y114968D01*
X98720Y115749D01*
X98713Y115742D01*
X97373Y117082D01*
X97545Y118126D01*
X97735Y118516D01*
X98374Y118943D01*
X98374Y118943D01*
Y118957D01*
X100411Y120993D01*
X100411Y120993D01*
X101334Y121916D01*
X101743Y122528D01*
X101844Y123036D01*
X103114Y122911D01*
Y103781D01*
X89666Y90334D01*
X89666Y90334D01*
X88606Y89274D01*
X86271Y91609D01*
X85384Y92519D01*
X84491Y93116D01*
X84365Y93141D01*
X83438Y93326D01*
X82511Y93141D01*
X82384Y93116D01*
X81491Y92519D01*
X80597Y91617D01*
X80289Y91317D01*
X79692Y90424D01*
X79667Y90298D01*
X79483Y89371D01*
X79667Y88443D01*
X79692Y88317D01*
X80289Y87424D01*
X81199Y86538D01*
X83535Y84202D01*
X82579Y83246D01*
X82281Y83252D01*
X81367Y83310D01*
X80558Y83405D01*
X79861Y83534D01*
X79277Y83693D01*
X78811Y83872D01*
X78463Y84062D01*
X78225Y84248D01*
X78079Y84419D01*
X77935Y84698D01*
X77812Y84801D01*
X77330Y85965D01*
X75847Y87897D01*
X73915Y89380D01*
X71665Y90312D01*
X69250Y90630D01*
X66835Y90312D01*
X64585Y89380D01*
X62653Y87897D01*
X61170Y85965D01*
X60238Y83715D01*
X59920Y81300D01*
X60238Y78885D01*
X61170Y76635D01*
X62653Y74703D01*
X64585Y73220D01*
X66835Y72288D01*
X69250Y71970D01*
X71665Y72288D01*
X73915Y73220D01*
X75847Y74703D01*
X77330Y76635D01*
X77812Y77799D01*
X77935Y77902D01*
X78079Y78181D01*
X78225Y78352D01*
X78462Y78538D01*
X78811Y78728D01*
X79277Y78907D01*
X79861Y79066D01*
X80543Y79192D01*
X82295Y79348D01*
X83321Y79368D01*
X83531Y79460D01*
X84022Y79557D01*
X84634Y79966D01*
X86334Y81666D01*
X86947Y82255D01*
X87543Y83149D01*
X87569Y83275D01*
X87720Y84035D01*
X87753Y84202D01*
X88606Y85055D01*
X88773Y85089D01*
X89534Y85240D01*
X89660Y85265D01*
X90553Y85862D01*
X91439Y86772D01*
X92334Y87666D01*
X92334Y87666D01*
X106334Y101666D01*
X106743Y102278D01*
X106886Y103000D01*
Y188477D01*
X120825Y202416D01*
X121998Y202703D01*
X124430Y200663D01*
X124257Y199150D01*
X123886Y198961D01*
X123657Y199153D01*
X118862Y193438D01*
X117682Y194428D01*
X114777Y190965D01*
X119174Y187276D01*
X123571Y183586D01*
X126476Y187049D01*
X125297Y188039D01*
X127253Y190370D01*
X128477Y190727D01*
X129634Y189953D01*
X131000Y189681D01*
X132366Y189953D01*
X133523Y190727D01*
X134297Y191884D01*
X134569Y193250D01*
X134297Y194616D01*
X133523Y195773D01*
X132366Y196547D01*
X131805Y196658D01*
X131316Y198051D01*
X135471Y203003D01*
X142281Y197289D01*
D01*
X143211Y196450D01*
Y186250D01*
X137499D01*
Y184309D01*
X135200D01*
X135200Y184309D01*
X134030Y184076D01*
X133037Y183413D01*
X133037Y183413D01*
X129374Y179750D01*
X125300D01*
Y172290D01*
X123760D01*
Y169469D01*
X123541Y168290D01*
X121412Y168290D01*
X120814Y169410D01*
X121027Y169729D01*
X121126Y170230D01*
X112374D01*
X112473Y169729D01*
X112687Y169410D01*
X112088Y168290D01*
X110461D01*
Y163020D01*
X117001D01*
Y161750D01*
X118271D01*
Y155210D01*
X123483D01*
X123541Y155210D01*
X124789Y155156D01*
X124973Y154229D01*
X125977Y152727D01*
X127479Y151723D01*
X127980Y151624D01*
Y156000D01*
X129250D01*
Y157270D01*
X133626D01*
X133527Y157771D01*
X132559Y159220D01*
Y159812D01*
X133457Y160710D01*
X135240Y160710D01*
X135959Y159738D01*
Y157211D01*
X137361D01*
X138167Y156229D01*
X138121Y156000D01*
X138473Y154229D01*
X139477Y152727D01*
X140979Y151723D01*
X141480Y151624D01*
Y156000D01*
X144020D01*
Y151624D01*
X144521Y151723D01*
X146023Y152727D01*
X147027Y154229D01*
X147379Y156000D01*
X147333Y156229D01*
X148139Y157211D01*
X149039D01*
Y162480D01*
X142499D01*
Y163750D01*
X141229D01*
Y170290D01*
X136510D01*
X135959Y170291D01*
X135240Y171262D01*
Y172290D01*
X133700D01*
Y175424D01*
X136229Y177953D01*
X137499Y177617D01*
Y176250D01*
X147499D01*
Y186250D01*
X147289D01*
Y197547D01*
X147134Y198327D01*
X146692Y198988D01*
X146718Y200180D01*
X147533Y201151D01*
X142474Y205396D01*
X144106Y207341D01*
X149165Y203097D01*
X149407Y203385D01*
X150296Y202791D01*
X150819Y202687D01*
X151695Y201811D01*
X150098Y199907D01*
X155812Y195112D01*
X154822Y193932D01*
X158285Y191027D01*
X161974Y195424D01*
X163920Y193791D01*
X160230Y189394D01*
X162464Y187520D01*
X162002Y186250D01*
X158042D01*
X156819Y186382D01*
X156548Y187748D01*
X155774Y188906D01*
X154616Y189679D01*
X153251Y189951D01*
X151885Y189679D01*
X150728Y188906D01*
X149954Y187748D01*
X149682Y186382D01*
X149954Y185017D01*
X150728Y183859D01*
X151885Y183085D01*
X153040Y182856D01*
X153251Y182645D01*
Y176250D01*
X163251D01*
Y178191D01*
X167751D01*
Y176250D01*
X177751D01*
Y186250D01*
X172635D01*
X172037Y187369D01*
X172277Y187729D01*
X172376Y188230D01*
X168000D01*
Y190770D01*
X172376D01*
X172277Y191271D01*
X171477Y192468D01*
X171526Y193692D01*
X171628Y194063D01*
X171740Y194134D01*
X172729Y193473D01*
X173230Y193374D01*
Y197750D01*
X174500D01*
Y199020D01*
X178876D01*
X178777Y199521D01*
X177773Y201023D01*
X177432Y201251D01*
X177253Y202508D01*
X178322Y203783D01*
X178322Y203783D01*
X178322Y203783D01*
X179142Y204750D01*
X185700D01*
Y206961D01*
X187750D01*
Y204250D01*
X196750D01*
Y212250D01*
X187750D01*
Y211039D01*
X185700D01*
Y213250D01*
X185700D01*
Y213750D01*
X185700D01*
Y215961D01*
X187750D01*
Y214250D01*
X196750D01*
Y222250D01*
X187750D01*
Y220039D01*
X185700D01*
Y222250D01*
X177300D01*
Y220039D01*
X175345D01*
X174192Y221192D01*
X173530Y221634D01*
X172750Y221789D01*
X171145D01*
X170712Y222385D01*
X170543Y223059D01*
X171073Y223684D01*
X172678D01*
X173556Y223859D01*
X174300Y224356D01*
X175994Y226050D01*
X180210D01*
Y224510D01*
X184730D01*
Y230250D01*
X186000D01*
Y231520D01*
X191790D01*
Y235460D01*
X195290D01*
Y239730D01*
X189250D01*
Y242270D01*
X195290D01*
Y246540D01*
X194389D01*
X193584Y247522D01*
X193629Y247750D01*
X193277Y249521D01*
X192273Y251023D01*
X190771Y252027D01*
X190270Y252126D01*
Y247750D01*
X187730D01*
Y252410D01*
X187242Y253324D01*
X192334Y258416D01*
X192743Y259028D01*
X192886Y259750D01*
Y277750D01*
X192743Y278472D01*
X192334Y279084D01*
X80651Y390767D01*
X80644Y390802D01*
X80555Y390865D01*
X80515Y390967D01*
X79545Y391985D01*
X78734Y392933D01*
X78069Y393824D01*
X77546Y394655D01*
X77163Y395420D01*
X76916Y396111D01*
X76793Y396726D01*
X76780Y397269D01*
X76864Y397755D01*
X77083Y398309D01*
X77081Y398400D01*
X77133Y398475D01*
X77122Y398540D01*
X77762Y400085D01*
X78080Y402500D01*
X77762Y404915D01*
X76830Y407165D01*
X75347Y409097D01*
X73415Y410580D01*
X71165Y411512D01*
X68750Y411830D01*
D02*
G37*
G36*
X42080Y311616D02*
X40533Y311412D01*
X37908Y310325D01*
X35654Y308596D01*
X33925Y306342D01*
X32838Y303717D01*
X32634Y302170D01*
X42080D01*
Y311616D01*
D02*
G37*
G36*
X118230Y302636D02*
X117534Y302498D01*
X115866Y301384D01*
X114752Y299716D01*
X114614Y299020D01*
X118230D01*
Y302636D01*
D02*
G37*
G36*
X42080Y299630D02*
X32634D01*
X32838Y298083D01*
X33925Y295458D01*
X35654Y293204D01*
X37908Y291475D01*
X40533Y290388D01*
X42080Y290184D01*
Y299630D01*
D02*
G37*
G36*
X130701Y295934D02*
X126664Y292546D01*
X130051Y288509D01*
X134088Y291897D01*
X130701Y295934D01*
D02*
G37*
G36*
X230270Y279126D02*
Y274750D01*
X227730D01*
Y279126D01*
X227229Y279027D01*
X225727Y278023D01*
X224723Y276521D01*
X224684Y276324D01*
X223336Y276055D01*
X223023Y276523D01*
X221521Y277527D01*
X221020Y277626D01*
Y273250D01*
X219750D01*
Y271980D01*
X215374D01*
X215473Y271479D01*
X215920Y270810D01*
X215241Y269540D01*
X214010D01*
Y265020D01*
X219750D01*
Y262480D01*
X214010D01*
Y257960D01*
X215550D01*
Y250500D01*
X223950D01*
X223950Y250500D01*
Y250500D01*
X225000Y250250D01*
X225711Y249274D01*
Y237750D01*
X225866Y236970D01*
X226308Y236308D01*
X228308Y234308D01*
X228308Y234308D01*
X228970Y233866D01*
X229496Y233761D01*
X229919Y232871D01*
X230000Y232467D01*
X230000Y231430D01*
Y222798D01*
X228750Y222750D01*
X228730Y222750D01*
X226289D01*
Y230000D01*
X226289Y230000D01*
X226134Y230780D01*
X225692Y231442D01*
X222789Y234345D01*
Y237249D01*
X224249D01*
Y247249D01*
X214249D01*
Y237249D01*
X218710D01*
Y233500D01*
X218866Y232720D01*
X219308Y232059D01*
X222211Y229155D01*
Y222750D01*
X219750D01*
Y214750D01*
X228750D01*
Y214750D01*
X230000Y214702D01*
Y212339D01*
X228500D01*
Y212750D01*
X219500D01*
Y204750D01*
X221961D01*
Y201845D01*
X216520Y196404D01*
X215250Y196930D01*
Y202700D01*
X214289D01*
Y204750D01*
X217500D01*
Y212750D01*
X208500D01*
Y212750D01*
X207750Y212250D01*
X198750D01*
Y204250D01*
X201211D01*
Y202700D01*
X197750D01*
Y194300D01*
X203007D01*
X203493Y193127D01*
X200866Y190499D01*
X193750D01*
Y180499D01*
X203750D01*
Y187616D01*
X210192Y194058D01*
X210354Y194300D01*
X214191D01*
X215250Y194300D01*
X215461Y193117D01*
Y190499D01*
X211250D01*
Y180499D01*
X221250D01*
Y190499D01*
X219539D01*
Y193655D01*
X225442Y199558D01*
X225442Y199558D01*
X225884Y200220D01*
X226039Y201000D01*
Y204750D01*
X228460D01*
X228460Y199160D01*
X227558Y198442D01*
X224308Y195192D01*
X223866Y194530D01*
X223711Y193750D01*
Y175095D01*
X222366Y173750D01*
X216750D01*
Y165750D01*
X225750D01*
X226711Y165004D01*
Y163393D01*
X225500Y163250D01*
Y163250D01*
X216500D01*
Y155250D01*
X225500D01*
Y157461D01*
X227578D01*
X228359Y157616D01*
X229020Y158058D01*
X230192Y159230D01*
X230192Y159230D01*
X230634Y159891D01*
X230789Y160672D01*
X230789Y160672D01*
Y179960D01*
X237330D01*
Y184700D01*
X238600D01*
Y185970D01*
X248740D01*
Y189440D01*
X247200D01*
Y193030D01*
X247200Y194300D01*
X247200D01*
Y194300D01*
X247200D01*
Y199160D01*
X248740D01*
Y202630D01*
X238600D01*
Y205170D01*
X248740D01*
Y208640D01*
X247200D01*
Y213500D01*
X247200Y219900D01*
X247464Y221061D01*
X252805D01*
X254961Y218905D01*
Y164250D01*
X253000D01*
Y155250D01*
X261000D01*
Y164250D01*
X259039D01*
Y219750D01*
X258884Y220530D01*
X258442Y221192D01*
X255092Y224542D01*
X254430Y224984D01*
X253650Y225139D01*
X247200D01*
Y227461D01*
X260655D01*
X264961Y223155D01*
Y164250D01*
X263000D01*
Y155250D01*
X271000D01*
Y164250D01*
X269039D01*
Y224000D01*
X269039Y224000D01*
X268884Y224780D01*
X268442Y225442D01*
X268442Y225442D01*
X262942Y230942D01*
X262280Y231384D01*
X261500Y231539D01*
X247464D01*
X247200Y232700D01*
X247200Y233970D01*
Y245500D01*
X241563D01*
X241320Y246770D01*
X241544Y247105D01*
X241757Y248178D01*
X241647Y248730D01*
X242354Y249842D01*
X242571Y250000D01*
X242700D01*
Y254461D01*
X244000D01*
X244780Y254616D01*
X245442Y255058D01*
X251911Y261527D01*
X252353Y262189D01*
X252509Y262969D01*
Y264234D01*
X254341Y264598D01*
X256326Y265924D01*
X257652Y267909D01*
X258118Y270250D01*
X257652Y272591D01*
X256326Y274576D01*
X254341Y275902D01*
X252000Y276367D01*
X249659Y275902D01*
X247674Y274576D01*
X246348Y272591D01*
X245882Y270250D01*
X246348Y267909D01*
X247674Y265924D01*
X248430Y265419D01*
Y263814D01*
X245413Y260797D01*
X244240Y261283D01*
Y261980D01*
X238500D01*
Y264520D01*
X244240D01*
Y269040D01*
X243330D01*
X242798Y270035D01*
X242793Y270310D01*
X242876Y270730D01*
X238500D01*
Y272000D01*
X237230D01*
Y276376D01*
X236729Y276277D01*
X235227Y275273D01*
X234837Y274690D01*
X234628Y274700D01*
X233565Y275072D01*
X233277Y276521D01*
X232273Y278023D01*
X230771Y279027D01*
X230270Y279126D01*
D02*
G37*
G36*
X218480Y277626D02*
X217979Y277527D01*
X216477Y276523D01*
X215473Y275021D01*
X215374Y274520D01*
X218480D01*
Y277626D01*
D02*
G37*
G36*
X239770Y276376D02*
Y273270D01*
X242876D01*
X242777Y273771D01*
X241773Y275273D01*
X240271Y276277D01*
X239770Y276376D01*
D02*
G37*
G36*
X120770Y302636D02*
Y297750D01*
X119500D01*
Y296480D01*
X114614D01*
X114752Y295784D01*
X115866Y294116D01*
X115889Y293700D01*
X115661Y293509D01*
X118016Y290702D01*
X117799Y289608D01*
X117799Y289607D01*
Y285068D01*
X121830Y280264D01*
X120857Y279447D01*
X121674Y278474D01*
X117277Y274785D01*
X118759Y273018D01*
X118309Y271579D01*
X117477Y271023D01*
X116703Y269866D01*
X116431Y268500D01*
X116703Y267134D01*
X117477Y265977D01*
X118634Y265203D01*
X120000Y264931D01*
X121366Y265203D01*
X122523Y265977D01*
X123297Y267134D01*
X123441Y267859D01*
X124036Y268164D01*
X124873Y268128D01*
X126157Y266597D01*
X132592Y271997D01*
X132220Y272439D01*
X133258Y273477D01*
X134527Y273421D01*
X135507Y272253D01*
X143168Y278681D01*
X136740Y286341D01*
X129122Y279949D01*
X129079Y279913D01*
X127834Y280063D01*
X124591Y283927D01*
X128106Y286876D01*
X123902Y291886D01*
X124875Y292703D01*
X124058Y293676D01*
X129068Y297879D01*
X125681Y301916D01*
X124549Y300967D01*
X123292Y301147D01*
X123134Y301384D01*
X121467Y302498D01*
X120770Y302636D01*
D02*
G37*
G36*
X177020Y274376D02*
Y271270D01*
X180126D01*
X180027Y271771D01*
X179023Y273273D01*
X177521Y274277D01*
X177020Y274376D01*
D02*
G37*
G36*
X184270Y266876D02*
Y263770D01*
X187376D01*
X187277Y264271D01*
X186273Y265773D01*
X184771Y266777D01*
X184270Y266876D01*
D02*
G37*
G36*
X411290Y266290D02*
X385520D01*
Y257020D01*
X411290D01*
Y266290D01*
D02*
G37*
G36*
X354230Y260126D02*
X353729Y260027D01*
X352227Y259023D01*
X351223Y257521D01*
X351124Y257020D01*
X354230D01*
Y260126D01*
D02*
G37*
G36*
X311770Y258626D02*
Y255520D01*
X314876D01*
X314777Y256021D01*
X313773Y257523D01*
X312271Y258527D01*
X311770Y258626D01*
D02*
G37*
G36*
X354230Y254480D02*
X351124D01*
X351223Y253979D01*
X352227Y252477D01*
X353729Y251473D01*
X354230Y251374D01*
Y254480D01*
D02*
G37*
G36*
X293250Y275618D02*
X290909Y275152D01*
X288924Y273826D01*
X287598Y271841D01*
X287132Y269500D01*
X287598Y267159D01*
X288924Y265174D01*
X290909Y263848D01*
X291211Y263788D01*
Y258450D01*
X289000D01*
Y251967D01*
X287730Y251224D01*
X286750Y251419D01*
X285384Y251147D01*
X284227Y250373D01*
X283453Y249216D01*
X283181Y247850D01*
X283453Y246484D01*
X284227Y245327D01*
X284300Y245278D01*
Y240640D01*
X282760D01*
Y237170D01*
X292900D01*
Y234630D01*
X282760D01*
Y231160D01*
X284300D01*
Y221440D01*
X282760D01*
Y217970D01*
X292900D01*
Y215430D01*
X282760D01*
Y211960D01*
X283402D01*
X284300Y211062D01*
X284300Y207100D01*
X284300Y205830D01*
Y200559D01*
X279300D01*
X279300Y200559D01*
X278130Y200326D01*
X277137Y199663D01*
X277137Y199663D01*
X274337Y196863D01*
X273674Y195870D01*
X273441Y194700D01*
X273441Y194700D01*
Y114517D01*
X262233Y103309D01*
X247200D01*
Y104500D01*
X238800D01*
Y104500D01*
X237700D01*
Y104500D01*
X229300D01*
Y103059D01*
X225999D01*
Y104750D01*
X215999D01*
Y94750D01*
X225999D01*
Y96941D01*
X227760D01*
Y92520D01*
X233500D01*
Y89980D01*
X227760D01*
Y85460D01*
X229437D01*
X230087Y84190D01*
X229473Y83271D01*
X229374Y82770D01*
X233750D01*
Y81500D01*
X235020D01*
Y77124D01*
X235521Y77223D01*
X237023Y78227D01*
X237695Y79232D01*
X239101Y79342D01*
X239164Y79319D01*
X239727Y78477D01*
X241229Y77473D01*
X241730Y77374D01*
Y81750D01*
X243000D01*
Y83020D01*
X247376D01*
X247277Y83521D01*
X246830Y84190D01*
X247509Y85460D01*
X248740D01*
Y89980D01*
X243000D01*
Y92520D01*
X248740D01*
Y97040D01*
X249947Y97191D01*
X263500D01*
X263500Y97191D01*
X264671Y97424D01*
X265663Y98087D01*
X278663Y111087D01*
X279326Y112079D01*
X279559Y113250D01*
X279559Y113250D01*
Y193433D01*
X280567Y194441D01*
X283088D01*
X284300Y194300D01*
Y187900D01*
Y181500D01*
X301500D01*
Y182461D01*
X303705D01*
X304300Y181866D01*
Y177290D01*
X302760D01*
Y172770D01*
X308500D01*
Y170230D01*
X302760D01*
Y165710D01*
X303111D01*
X303916Y164728D01*
X303871Y164500D01*
X304223Y162729D01*
X305227Y161227D01*
X306729Y160223D01*
X307230Y160124D01*
Y164500D01*
X309770D01*
Y160124D01*
X310271Y160223D01*
X311773Y161227D01*
X312777Y162729D01*
X313027Y163989D01*
X314322D01*
X314473Y163229D01*
X315477Y161727D01*
X316979Y160723D01*
X317480Y160624D01*
Y165000D01*
X318750D01*
Y166270D01*
X324240D01*
Y170230D01*
X318500D01*
Y172770D01*
X324240D01*
Y177290D01*
X322700D01*
Y178711D01*
X325750D01*
X326530Y178866D01*
X327192Y179308D01*
X333192Y185308D01*
X333192Y185308D01*
X333634Y185970D01*
X333789Y186750D01*
X333789Y186750D01*
Y209200D01*
X333634Y209980D01*
X333192Y210642D01*
X330450Y213384D01*
Y218230D01*
X330450Y219000D01*
X330450Y220270D01*
Y228000D01*
X328289D01*
Y236999D01*
X331749D01*
Y246999D01*
X321749D01*
Y236999D01*
X324211D01*
Y228000D01*
X322220D01*
X322050Y228000D01*
X320950D01*
X320780Y228000D01*
X318789D01*
Y230000D01*
X318634Y230780D01*
X318192Y231442D01*
X318192Y231442D01*
X316692Y232942D01*
X316030Y233384D01*
X315250Y233539D01*
X310841D01*
X310162Y234809D01*
X310777Y235729D01*
X310876Y236230D01*
X306500D01*
Y237500D01*
X305230D01*
Y241876D01*
X304729Y241777D01*
X303227Y240773D01*
X303219Y240761D01*
X303040Y240640D01*
X301500D01*
Y245500D01*
X294939D01*
Y250050D01*
X296460D01*
Y248510D01*
X300980D01*
Y254250D01*
Y259990D01*
X296460D01*
Y259990D01*
X295289Y260230D01*
Y263788D01*
X295591Y263848D01*
X297576Y265174D01*
X298902Y267159D01*
X299368Y269500D01*
X298902Y271841D01*
X297576Y273826D01*
X295591Y275152D01*
X293250Y275618D01*
D02*
G37*
G36*
X314876Y252980D02*
X311770D01*
Y249874D01*
X312271Y249973D01*
X313773Y250977D01*
X314777Y252479D01*
X314876Y252980D01*
D02*
G37*
G36*
X308040Y259990D02*
X303520D01*
Y254250D01*
Y248510D01*
X308040D01*
Y249022D01*
X309230Y249805D01*
Y254250D01*
Y258695D01*
X308040Y259478D01*
Y259990D01*
D02*
G37*
G36*
X411290Y254480D02*
X385520D01*
Y245210D01*
X411290D01*
Y254480D01*
D02*
G37*
G36*
X382980Y266290D02*
X357210D01*
Y261040D01*
X356770Y260679D01*
Y255750D01*
Y250821D01*
X357210Y250460D01*
Y245210D01*
X382980D01*
Y255750D01*
Y266290D01*
D02*
G37*
G36*
X307770Y241876D02*
Y238770D01*
X310876D01*
X310777Y239271D01*
X309773Y240773D01*
X308271Y241777D01*
X307770Y241876D01*
D02*
G37*
G36*
X191790Y228980D02*
X187270D01*
Y224510D01*
X191790D01*
Y228980D01*
D02*
G37*
G36*
X14980Y221371D02*
X14576Y221291D01*
X13157Y220343D01*
X12209Y218924D01*
X12129Y218520D01*
X14980D01*
Y221371D01*
D02*
G37*
G36*
X206749Y247249D02*
X196749D01*
Y237249D01*
X205366D01*
X208461Y234154D01*
Y234029D01*
X208000Y232950D01*
X207191Y232950D01*
X199500D01*
Y224550D01*
X201211D01*
Y222250D01*
X198750D01*
Y214250D01*
X207687D01*
X207750Y214250D01*
X208813Y214750D01*
X209020Y214750D01*
X217750D01*
Y222750D01*
X215289D01*
Y224550D01*
X217000D01*
Y232950D01*
X212539D01*
Y234999D01*
X212384Y235779D01*
X211942Y236441D01*
X206749Y241633D01*
Y247249D01*
D02*
G37*
G36*
X375750Y233250D02*
X367750D01*
Y217250D01*
X372866D01*
X378308Y211808D01*
X378308Y211808D01*
X378970Y211366D01*
X379750Y211211D01*
X379750Y211211D01*
X387250D01*
Y208750D01*
X412750D01*
Y217750D01*
X387250D01*
Y215289D01*
X380595D01*
X375750Y220134D01*
Y233250D01*
D02*
G37*
G36*
X178876Y196480D02*
X175770D01*
Y193374D01*
X176271Y193473D01*
X177773Y194477D01*
X178777Y195979D01*
X178876Y196480D01*
D02*
G37*
G36*
X248740Y183430D02*
X239870D01*
Y179960D01*
X248740D01*
Y183430D01*
D02*
G37*
G36*
X113144Y189020D02*
X110239Y185557D01*
X110385Y185435D01*
X110316Y184167D01*
X109727Y183773D01*
X108723Y182271D01*
X108624Y181770D01*
X113000D01*
Y179230D01*
X108624D01*
X108723Y178729D01*
X109727Y177227D01*
X111229Y176223D01*
X112872Y175896D01*
X113194Y175299D01*
X113398Y174655D01*
X112473Y173271D01*
X112374Y172770D01*
X121126D01*
X121027Y173271D01*
X120023Y174773D01*
X118521Y175777D01*
X116960Y176087D01*
X116456Y177216D01*
X117088Y178292D01*
X118459Y178659D01*
X119033Y178178D01*
X121938Y181640D01*
X117541Y185330D01*
X113144Y189020D01*
D02*
G37*
G36*
X349249Y246999D02*
X339249D01*
Y236999D01*
X339403D01*
X340112Y235788D01*
X340106Y235729D01*
X339961Y235000D01*
Y233250D01*
X337750D01*
Y217250D01*
X339711D01*
Y182750D01*
X336750D01*
Y172250D01*
X344750D01*
Y182750D01*
X343789D01*
Y217250D01*
X345750D01*
Y233250D01*
X344920D01*
X344404Y234520D01*
X345942Y236058D01*
X346384Y236720D01*
X346440Y236999D01*
X349249D01*
Y246999D01*
D02*
G37*
G36*
X411290Y181290D02*
X385520D01*
Y172020D01*
X411290D01*
Y181290D01*
D02*
G37*
G36*
X360750Y233250D02*
X352750D01*
Y214781D01*
X346485Y208515D01*
X346168Y207750D01*
Y188750D01*
X346485Y187985D01*
X352985Y181485D01*
X353750Y181168D01*
X357210D01*
Y172020D01*
X382980D01*
Y181290D01*
X362117D01*
X361591Y182560D01*
X367015Y187985D01*
X367332Y188750D01*
Y207750D01*
X367015Y208515D01*
X360750Y214781D01*
Y233250D01*
D02*
G37*
G36*
X143769Y170290D02*
Y165020D01*
X149039D01*
Y170290D01*
X143769D01*
D02*
G37*
G36*
X164791Y170290D02*
X159521D01*
Y165020D01*
X164791D01*
Y170290D01*
D02*
G37*
G36*
X156981D02*
X151711D01*
Y165020D01*
X156981D01*
Y170290D01*
D02*
G37*
G36*
X323126Y163730D02*
X320020D01*
Y160624D01*
X320521Y160723D01*
X322023Y161727D01*
X323027Y163229D01*
X323126Y163730D01*
D02*
G37*
G36*
X411290Y169480D02*
X384250D01*
X357210D01*
Y160210D01*
X379574D01*
X380253Y158940D01*
X379973Y158521D01*
X379874Y158020D01*
X388626D01*
X388527Y158521D01*
X388247Y158940D01*
X388926Y160210D01*
X411290D01*
Y169480D01*
D02*
G37*
G36*
X348980Y160290D02*
X344710D01*
Y156559D01*
X336790D01*
Y160290D01*
X332520D01*
Y153500D01*
X331250D01*
Y152230D01*
X325710D01*
Y146710D01*
X325855D01*
X326561Y145770D01*
X335940D01*
X336645Y146710D01*
X336790D01*
Y150441D01*
X344710D01*
Y146710D01*
X344960D01*
X345321Y146270D01*
X355179D01*
X355540Y146710D01*
X355790D01*
Y152230D01*
X350250D01*
Y153500D01*
X348980D01*
Y160290D01*
D02*
G37*
G36*
X164791Y162480D02*
X158251D01*
X151711D01*
Y157210D01*
X152855D01*
X153560Y156270D01*
X162940D01*
X163645Y157210D01*
X164791D01*
Y162480D01*
D02*
G37*
G36*
X115731Y160480D02*
X110461D01*
Y155210D01*
X115731D01*
Y160480D01*
D02*
G37*
G36*
X355790Y160290D02*
X351520D01*
Y154770D01*
X355790D01*
Y160290D01*
D02*
G37*
G36*
X329980D02*
X325710D01*
Y154770D01*
X329980D01*
Y160290D01*
D02*
G37*
G36*
X388626Y155480D02*
X385520D01*
Y152374D01*
X386021Y152473D01*
X387523Y153477D01*
X388527Y154979D01*
X388626Y155480D01*
D02*
G37*
G36*
X382980D02*
X379874D01*
X379973Y154979D01*
X380977Y153477D01*
X382478Y152473D01*
X382980Y152374D01*
Y155480D01*
D02*
G37*
G36*
X133626Y154730D02*
X130520D01*
Y151624D01*
X131021Y151723D01*
X132523Y152727D01*
X133527Y154229D01*
X133626Y154730D01*
D02*
G37*
G36*
X177751Y168750D02*
X167751D01*
Y158750D01*
X168817D01*
Y151500D01*
X166001D01*
Y149759D01*
X160810D01*
X160500Y150900D01*
X161405Y151648D01*
X161523Y151727D01*
X162527Y153229D01*
X162626Y153730D01*
X153874D01*
X153973Y153229D01*
X154681Y152170D01*
X154102Y150900D01*
X150000D01*
Y142900D01*
X160500D01*
Y143641D01*
X166001D01*
Y141500D01*
X176001D01*
Y143566D01*
X182411D01*
X183174Y142424D01*
X185159Y141098D01*
X187500Y140632D01*
X189841Y141098D01*
X191826Y142424D01*
X193152Y144409D01*
X193617Y146750D01*
X193152Y149091D01*
X191826Y151076D01*
X189841Y152402D01*
X187500Y152868D01*
X185159Y152402D01*
X183174Y151076D01*
X182244Y149684D01*
X176001D01*
Y151500D01*
X174935D01*
Y158750D01*
X177751D01*
Y168750D01*
D02*
G37*
G36*
X214750Y173750D02*
X205750D01*
Y165750D01*
X207066D01*
Y163250D01*
X205500D01*
Y159576D01*
X202838Y156913D01*
X202175Y155921D01*
X201942Y154751D01*
X201942Y154750D01*
Y147500D01*
X201942Y147500D01*
X201942Y147500D01*
Y104500D01*
X200001D01*
Y102683D01*
X196950D01*
Y104000D01*
X188550D01*
Y102809D01*
X187200D01*
Y104000D01*
X178800D01*
Y96540D01*
X177260D01*
Y95978D01*
X176520Y95394D01*
Y90750D01*
X175250D01*
Y89480D01*
X171129D01*
X171209Y89076D01*
X172157Y87657D01*
X173057Y87056D01*
X172671Y85786D01*
X158577D01*
Y74326D01*
X157037D01*
Y70770D01*
X167197D01*
Y68230D01*
X157037D01*
Y64674D01*
X158577D01*
Y59714D01*
X164441D01*
Y50422D01*
X163174Y49576D01*
X161848Y47591D01*
X161383Y45250D01*
X161848Y42909D01*
X163174Y40924D01*
X165159Y39598D01*
X167500Y39132D01*
X169841Y39598D01*
X171826Y40924D01*
X173152Y42909D01*
X173617Y45250D01*
X173152Y47591D01*
X171826Y49576D01*
X170559Y50422D01*
Y59655D01*
X176020D01*
X180588Y55088D01*
X180588Y55088D01*
X181580Y54425D01*
X182750Y54192D01*
X182750Y54192D01*
X188750D01*
Y52251D01*
X198750D01*
Y57925D01*
X203440Y62615D01*
X204710Y62089D01*
Y58521D01*
X209980D01*
Y63791D01*
X206412D01*
X205886Y65061D01*
X207163Y66338D01*
X207164Y66338D01*
X207826Y67330D01*
X208059Y68501D01*
Y77000D01*
X210001D01*
Y79066D01*
X215999D01*
Y77250D01*
X225999D01*
Y87250D01*
X215999D01*
Y85184D01*
X210001D01*
Y87000D01*
X200001D01*
Y77000D01*
X201942D01*
Y69768D01*
X194425Y62251D01*
X188750D01*
Y60310D01*
X184017D01*
X179450Y64877D01*
X179367Y66460D01*
X179571Y66710D01*
X179980D01*
Y72500D01*
X182520D01*
Y66710D01*
X186730D01*
Y71500D01*
X188000D01*
Y72770D01*
X192376D01*
X192277Y73271D01*
X191273Y74773D01*
X189771Y75777D01*
X188000Y76129D01*
X187972Y76123D01*
X186990Y76929D01*
Y78290D01*
X185450D01*
Y84960D01*
X187743D01*
X188121Y84500D01*
X188473Y82729D01*
X189477Y81227D01*
X190979Y80223D01*
X191480Y80124D01*
Y84500D01*
X194020D01*
Y80124D01*
X194521Y80223D01*
X196023Y81227D01*
X197027Y82729D01*
X197379Y84500D01*
X197757Y84960D01*
X198490D01*
Y89480D01*
X192750D01*
Y92020D01*
X198490D01*
Y95049D01*
X199760Y95613D01*
X200001Y95395D01*
Y94500D01*
X210001D01*
Y104500D01*
X208059D01*
Y144691D01*
X253000D01*
Y144250D01*
X261000D01*
Y145691D01*
X263000D01*
Y144250D01*
X271000D01*
Y153250D01*
X263000D01*
Y151809D01*
X261000D01*
Y153250D01*
X253000D01*
Y150809D01*
X208059D01*
Y153484D01*
X209826Y155250D01*
X214500D01*
Y163250D01*
X213184D01*
Y165750D01*
X214750D01*
Y173750D01*
D02*
G37*
G36*
X354626Y143730D02*
X351520D01*
Y140624D01*
X352021Y140723D01*
X353523Y141727D01*
X354527Y143229D01*
X354626Y143730D01*
D02*
G37*
G36*
X348980D02*
X345874D01*
X345973Y143229D01*
X346977Y141727D01*
X348479Y140723D01*
X348980Y140624D01*
Y143730D01*
D02*
G37*
G36*
X335626Y143230D02*
X332520D01*
Y140124D01*
X333021Y140223D01*
X334523Y141227D01*
X335527Y142729D01*
X335626Y143230D01*
D02*
G37*
G36*
X329980D02*
X326874D01*
X326973Y142729D01*
X327977Y141227D01*
X329479Y140223D01*
X329980Y140124D01*
Y143230D01*
D02*
G37*
G36*
X162040Y134640D02*
X156520D01*
Y130370D01*
X162040D01*
Y134640D01*
D02*
G37*
G36*
X153980D02*
X148460D01*
Y130370D01*
X153980D01*
Y134640D01*
D02*
G37*
G36*
X177541Y135540D02*
X172271D01*
Y130270D01*
X177541D01*
Y135540D01*
D02*
G37*
G36*
X169731D02*
X164461D01*
Y130270D01*
X169731D01*
Y135540D01*
D02*
G37*
G36*
X162040Y127830D02*
X155250D01*
X148460D01*
Y123560D01*
X151337D01*
X151904Y122290D01*
X151223Y121271D01*
X151124Y120770D01*
X159876D01*
X159777Y121271D01*
X159096Y122290D01*
X159707Y123560D01*
X162040D01*
Y127830D01*
D02*
G37*
G36*
X177541Y127730D02*
X171001D01*
X164461D01*
Y122460D01*
X166337D01*
X166936Y121340D01*
X166723Y121021D01*
X166624Y120520D01*
X175376D01*
X175277Y121021D01*
X175064Y121340D01*
X175663Y122460D01*
X177541D01*
Y127730D01*
D02*
G37*
G36*
X159876Y118230D02*
X156770D01*
Y115124D01*
X157271Y115223D01*
X158773Y116227D01*
X159777Y117729D01*
X159876Y118230D01*
D02*
G37*
G36*
X154230D02*
X151124D01*
X151223Y117729D01*
X152227Y116227D01*
X153729Y115223D01*
X154230Y115124D01*
Y118230D01*
D02*
G37*
G36*
X175376Y117980D02*
X172270D01*
Y114874D01*
X172771Y114973D01*
X174273Y115977D01*
X175277Y117479D01*
X175376Y117980D01*
D02*
G37*
G36*
X169730D02*
X166624D01*
X166723Y117479D01*
X167727Y115977D01*
X169229Y114973D01*
X169730Y114874D01*
Y117980D01*
D02*
G37*
G36*
X173980Y94871D02*
X173576Y94791D01*
X172157Y93843D01*
X171209Y92424D01*
X171129Y92020D01*
X173980D01*
Y94871D01*
D02*
G37*
G36*
X247376Y80480D02*
X244270D01*
Y77374D01*
X244771Y77473D01*
X246273Y78477D01*
X247277Y79979D01*
X247376Y80480D01*
D02*
G37*
G36*
X232480Y80230D02*
X229374D01*
X229473Y79729D01*
X230477Y78227D01*
X231979Y77223D01*
X232480Y77124D01*
Y80230D01*
D02*
G37*
G36*
X192376Y70230D02*
X189270D01*
Y67124D01*
X189771Y67223D01*
X191273Y68227D01*
X192277Y69729D01*
X192376Y70230D01*
D02*
G37*
G36*
X122001Y149250D02*
X112001D01*
Y142545D01*
X111942Y142250D01*
X111942Y142249D01*
Y137917D01*
X111727Y137773D01*
X110953Y136616D01*
X110681Y135250D01*
X110953Y133884D01*
X111727Y132727D01*
X112884Y131953D01*
X114250Y131681D01*
X115616Y131953D01*
X116773Y132727D01*
X117547Y133884D01*
X117773Y135020D01*
X117827Y135101D01*
X118060Y136271D01*
X118060Y136271D01*
Y138270D01*
X119001Y139191D01*
X119001Y139191D01*
X120942D01*
Y106518D01*
X90837Y76413D01*
X90174Y75420D01*
X89941Y74250D01*
X89941Y74250D01*
Y57721D01*
X89940Y57720D01*
X89941Y57714D01*
Y57557D01*
X89918Y57500D01*
X89941Y57443D01*
Y41267D01*
X82233Y33559D01*
X78500D01*
Y39750D01*
X60000D01*
Y34488D01*
X59096Y33597D01*
X58637Y33603D01*
X56080Y33769D01*
X55039Y33909D01*
X54134Y34086D01*
X53382Y34294D01*
X52789Y34524D01*
X52359Y34761D01*
X52086Y34982D01*
X51851Y35287D01*
X51825Y35302D01*
X51764Y35381D01*
X51760Y35390D01*
X51755Y35392D01*
X50447Y37097D01*
X48515Y38580D01*
X46265Y39512D01*
X43850Y39830D01*
X41435Y39512D01*
X39185Y38580D01*
X37253Y37097D01*
X35770Y35165D01*
X34838Y32915D01*
X34520Y30500D01*
X34838Y28085D01*
X35770Y25835D01*
X37253Y23903D01*
X39185Y22420D01*
X41435Y21488D01*
X43850Y21170D01*
X46265Y21488D01*
X48515Y22420D01*
X50447Y23903D01*
X51755Y25608D01*
X51760Y25610D01*
X51764Y25619D01*
X51825Y25698D01*
X51851Y25713D01*
X52086Y26018D01*
X52359Y26239D01*
X52789Y26476D01*
X53382Y26706D01*
X54134Y26915D01*
X55013Y27087D01*
X58647Y27397D01*
X59096Y27403D01*
X60000Y26512D01*
Y21250D01*
X78500D01*
Y27441D01*
X83500D01*
X83500Y27441D01*
X84670Y27674D01*
X85663Y28337D01*
X95163Y37837D01*
X95163Y37837D01*
X95826Y38829D01*
X96059Y40000D01*
Y56199D01*
X97180Y57320D01*
X97203Y57378D01*
X97267Y57441D01*
X104751D01*
Y55500D01*
X114751D01*
Y59941D01*
X117683D01*
Y59714D01*
X134923D01*
Y66214D01*
Y72714D01*
Y79214D01*
Y85786D01*
X117683D01*
Y85273D01*
X113964D01*
X112793Y85040D01*
X111801Y84377D01*
X111801Y84377D01*
X107588Y80164D01*
X106925Y79171D01*
X106692Y78001D01*
X106692Y78001D01*
Y65500D01*
X104751D01*
Y63559D01*
X96059D01*
Y72983D01*
X126164Y103088D01*
X126164Y103088D01*
X126827Y104080D01*
X127060Y105251D01*
X127060Y105251D01*
Y134000D01*
X136500D01*
Y142000D01*
X130326D01*
X127913Y144412D01*
X126921Y145076D01*
X125750Y145308D01*
X125750Y145308D01*
X122446D01*
X122445Y145308D01*
X122001Y146422D01*
Y149250D01*
D02*
G37*
G36*
X229020Y61126D02*
Y58020D01*
X232126D01*
X232027Y58521D01*
X231023Y60023D01*
X229522Y61027D01*
X229020Y61126D01*
D02*
G37*
G36*
X70520Y66616D02*
Y57170D01*
X79966D01*
X79762Y58717D01*
X78675Y61342D01*
X76946Y63595D01*
X74692Y65325D01*
X72067Y66412D01*
X70520Y66616D01*
D02*
G37*
G36*
X45120D02*
Y57170D01*
X54566D01*
X54362Y58717D01*
X53275Y61342D01*
X51546Y63595D01*
X49292Y65325D01*
X46667Y66412D01*
X45120Y66616D01*
D02*
G37*
G36*
X67980D02*
X66433Y66412D01*
X63808Y65325D01*
X61554Y63595D01*
X59825Y61342D01*
X58738Y58717D01*
X58534Y57170D01*
X67980D01*
Y66616D01*
D02*
G37*
G36*
X42580D02*
X41033Y66412D01*
X38408Y65325D01*
X36154Y63595D01*
X34425Y61342D01*
X33338Y58717D01*
X33134Y57170D01*
X42580D01*
Y66616D01*
D02*
G37*
G36*
X232126Y55480D02*
X229020D01*
Y52374D01*
X229522Y52473D01*
X231023Y53477D01*
X232027Y54979D01*
X232126Y55480D01*
D02*
G37*
G36*
X217790Y63791D02*
X212520D01*
Y57251D01*
Y50711D01*
X217790D01*
Y53788D01*
X224269D01*
X224477Y53477D01*
X225979Y52473D01*
X226480Y52374D01*
Y56750D01*
Y61126D01*
X225979Y61027D01*
X224477Y60023D01*
X224269Y59712D01*
X217790D01*
Y63791D01*
D02*
G37*
G36*
X209980Y55981D02*
X204710D01*
Y50711D01*
X209980D01*
Y55981D01*
D02*
G37*
G36*
X79966Y54630D02*
X70520D01*
Y45184D01*
X72067Y45388D01*
X74692Y46475D01*
X76946Y48204D01*
X78675Y50458D01*
X79762Y53083D01*
X79966Y54630D01*
D02*
G37*
G36*
X54566D02*
X45120D01*
Y45184D01*
X46667Y45388D01*
X49292Y46475D01*
X51546Y48204D01*
X53275Y50458D01*
X54362Y53083D01*
X54566Y54630D01*
D02*
G37*
G36*
X67980D02*
X58534D01*
X58738Y53083D01*
X59825Y50458D01*
X61554Y48204D01*
X63808Y46475D01*
X66433Y45388D01*
X67980Y45184D01*
Y54630D01*
D02*
G37*
G36*
X42580D02*
X33134D01*
X33338Y53083D01*
X34425Y50458D01*
X36154Y48204D01*
X38408Y46475D01*
X41033Y45388D01*
X42580Y45184D01*
Y54630D01*
D02*
G37*
G36*
X116291Y49540D02*
X111021D01*
Y44270D01*
X116291D01*
Y49540D01*
D02*
G37*
G36*
X108481D02*
X103211D01*
Y44270D01*
X108481D01*
Y49540D01*
D02*
G37*
G36*
X116291Y41730D02*
X109751D01*
X103211D01*
Y36460D01*
X104460D01*
X104821Y36020D01*
X114679D01*
X115040Y36460D01*
X116291D01*
Y41730D01*
D02*
G37*
G36*
X114126Y33480D02*
X111020D01*
Y30374D01*
X111521Y30473D01*
X113023Y31477D01*
X114027Y32979D01*
X114126Y33480D01*
D02*
G37*
G36*
X108480D02*
X105374D01*
X105473Y32979D01*
X106477Y31477D01*
X107979Y30473D01*
X108480Y30374D01*
Y33480D01*
D02*
G37*
%LPD*%
G36*
X75816Y398049D02*
X75695Y397349D01*
X75713Y396606D01*
X75870Y395821D01*
X76166Y394994D01*
X76601Y394124D01*
X77175Y393211D01*
X77889Y392257D01*
X78741Y391259D01*
X79732Y390220D01*
X78265Y389283D01*
X77245Y390261D01*
X75276Y391897D01*
X74327Y392555D01*
X73402Y393106D01*
X72500Y393550D01*
X71621Y393888D01*
X70767Y394118D01*
X69936Y394242D01*
X69128Y394259D01*
X76076Y398707D01*
X75816Y398049D01*
D02*
G37*
G36*
X50240Y372380D02*
X50101Y371697D01*
X50103Y370969D01*
X50247Y370196D01*
X50532Y369379D01*
X50959Y368517D01*
X51526Y367611D01*
X52235Y366660D01*
X53086Y365665D01*
X54078Y364625D01*
X52559Y363739D01*
X51543Y364714D01*
X49578Y366356D01*
X48629Y367022D01*
X47702Y367585D01*
X46797Y368044D01*
X45914Y368401D01*
X45054Y368654D01*
X44216Y368803D01*
X43401Y368850D01*
X50520Y373019D01*
X50240Y372380D01*
D02*
G37*
G36*
X76585Y348818D02*
X76576Y348040D01*
X76692Y347230D01*
X76932Y346387D01*
X77297Y345513D01*
X77786Y344607D01*
X78399Y343670D01*
X79137Y342700D01*
X80000Y341698D01*
X80987Y340665D01*
X79785Y339463D01*
X78752Y340450D01*
X76780Y342051D01*
X75843Y342664D01*
X74937Y343153D01*
X74063Y343518D01*
X73220Y343758D01*
X72410Y343874D01*
X71632Y343865D01*
X70885Y343731D01*
X76719Y349565D01*
X76585Y348818D01*
D02*
G37*
G36*
X51185D02*
X51176Y348040D01*
X51292Y347230D01*
X51532Y346387D01*
X51897Y345513D01*
X52386Y344607D01*
X52999Y343670D01*
X53737Y342700D01*
X54600Y341698D01*
X55587Y340665D01*
X54385Y339463D01*
X53352Y340450D01*
X51380Y342051D01*
X50443Y342664D01*
X49537Y343153D01*
X48663Y343518D01*
X47820Y343758D01*
X47010Y343874D01*
X46232Y343865D01*
X45485Y343731D01*
X51319Y349565D01*
X51185Y348818D01*
D02*
G37*
G36*
Y323418D02*
X51176Y322640D01*
X51292Y321830D01*
X51532Y320987D01*
X51897Y320113D01*
X52386Y319207D01*
X52999Y318270D01*
X53737Y317300D01*
X54600Y316298D01*
X55587Y315265D01*
X54385Y314063D01*
X53352Y315050D01*
X51380Y316651D01*
X50443Y317264D01*
X49537Y317753D01*
X48663Y318118D01*
X47820Y318358D01*
X47010Y318474D01*
X46232Y318465D01*
X45485Y318331D01*
X51319Y324165D01*
X51185Y323418D01*
D02*
G37*
G36*
X79444Y284888D02*
X80614Y283719D01*
Y243500D01*
X80757Y242778D01*
X81166Y242166D01*
X83166Y240166D01*
X83166Y240166D01*
X84168Y239165D01*
X80668Y235664D01*
X80665Y235667D01*
X80219Y234998D01*
X80142Y234612D01*
X80142Y234612D01*
Y234612D01*
X80142Y234612D01*
X80062Y234210D01*
X80219Y233422D01*
X80665Y232754D01*
X80668Y232756D01*
X82829Y230595D01*
X82829Y230590D01*
X82829Y230590D01*
X83497Y230144D01*
X83694Y230105D01*
X83892Y229993D01*
X84506Y229622D01*
X84895Y228978D01*
X84907Y228958D01*
X84895Y228978D01*
X84895Y228978D01*
X84987Y228813D01*
X85027Y228614D01*
X85474Y227946D01*
X85476Y227948D01*
X87637Y225787D01*
X87637Y225782D01*
X87637Y225782D01*
X88306Y225335D01*
X88691Y225259D01*
X88691Y225259D01*
X88720Y225253D01*
X89094Y225179D01*
X89882Y225335D01*
X90550Y225782D01*
X90548Y225784D01*
X94048Y229285D01*
X99416Y223916D01*
X99633Y222677D01*
X99038Y221969D01*
X101957Y219520D01*
X102267Y219259D01*
X102443Y217639D01*
X85766Y200962D01*
X85357Y200350D01*
X85214Y199628D01*
Y196687D01*
X83560Y195033D01*
X82290Y195559D01*
Y196480D01*
X74020D01*
Y192103D01*
X74191Y191690D01*
X73945Y191443D01*
X73039Y190553D01*
X72518Y189772D01*
X72467Y189515D01*
X72335Y188851D01*
X71199Y188049D01*
X70695Y187949D01*
X69914Y187427D01*
X69921Y187420D01*
X68245Y185744D01*
X68231Y185744D01*
X68231Y185744D01*
X67709Y184964D01*
X67609Y184459D01*
X66807Y183323D01*
X66143Y183191D01*
X65886Y183140D01*
X65106Y182619D01*
X65113Y182612D01*
X63437Y180936D01*
X63423Y180936D01*
X63423Y180936D01*
X62901Y180155D01*
X62801Y179650D01*
X61999Y178515D01*
X61334Y178383D01*
X61078Y178332D01*
X60297Y177810D01*
X60304Y177803D01*
X58629Y176127D01*
X58615Y176127D01*
X58615Y176128D01*
X58093Y175347D01*
X57993Y174842D01*
X57190Y173707D01*
X56526Y173575D01*
X56270Y173524D01*
X55489Y173002D01*
X55496Y172995D01*
X53820Y171319D01*
X53806Y171319D01*
X53806Y171319D01*
X53285Y170539D01*
X53234Y170286D01*
X53102Y169618D01*
X53234Y168953D01*
X53285Y168697D01*
X53806Y167916D01*
X53810Y167910D01*
X54416Y166893D01*
X54166Y165774D01*
X53634Y165318D01*
X52933Y164792D01*
X52306Y164400D01*
X51764Y164139D01*
X51319Y163998D01*
X50981Y163958D01*
X50736Y163987D01*
X50539Y164065D01*
X50240Y164292D01*
X50170Y164310D01*
X50040Y164410D01*
X50037Y164413D01*
X50035Y164413D01*
X48515Y165580D01*
X46265Y166512D01*
X43850Y166830D01*
X41435Y166512D01*
X39185Y165580D01*
X37253Y164097D01*
X35770Y162165D01*
X34838Y159915D01*
X34520Y157500D01*
X34838Y155085D01*
X35770Y152835D01*
X37253Y150903D01*
X39185Y149420D01*
X41029Y148656D01*
X40777Y147386D01*
X36531D01*
X31136Y152781D01*
Y194500D01*
X33128D01*
X33350Y194456D01*
X33572Y194500D01*
X36750D01*
X36750Y201000D01*
X36750Y202270D01*
X36750Y207500D01*
X36750Y208770D01*
X36750Y214000D01*
X36750Y215270D01*
Y220500D01*
X27559D01*
Y223053D01*
X27710Y224260D01*
X32230D01*
Y230000D01*
Y235740D01*
X28559D01*
Y237251D01*
X31500D01*
Y247251D01*
X29559D01*
Y263981D01*
X34863Y269285D01*
X36539Y269182D01*
X36753Y268903D01*
X38685Y267420D01*
X40935Y266488D01*
X43350Y266170D01*
X45765Y266488D01*
X48015Y267420D01*
X49947Y268903D01*
X51255Y270608D01*
X51260Y270610D01*
X51264Y270619D01*
X51325Y270698D01*
X51351Y270713D01*
X51586Y271018D01*
X51859Y271239D01*
X52289Y271476D01*
X52882Y271706D01*
X53634Y271915D01*
X54513Y272087D01*
X58148Y272397D01*
X58596Y272403D01*
X59500Y271512D01*
Y266250D01*
X78000D01*
Y283499D01*
X78000Y283874D01*
X79120Y284899D01*
X79444Y284888D01*
D02*
G37*
G36*
X162933Y255799D02*
X161165Y254031D01*
X159397Y255799D01*
X161165Y257566D01*
X162933Y255799D01*
D02*
G37*
G36*
X113228Y246040D02*
X111606Y244127D01*
X109816Y245887D01*
X111454Y247775D01*
X113228Y246040D01*
D02*
G37*
G36*
X174786Y240870D02*
X174841Y240866D01*
X175408Y240854D01*
X176530Y240850D01*
Y239150D01*
X174765Y239125D01*
Y240875D01*
X174786Y240870D01*
D02*
G37*
G36*
X153047Y212440D02*
X151810Y211203D01*
X151799Y211221D01*
X151763Y211262D01*
X151370Y211672D01*
X150580Y212468D01*
X151782Y213670D01*
X153047Y212440D01*
D02*
G37*
G36*
X161185Y211474D02*
X159572Y209551D01*
X158665Y210455D01*
X160278Y212377D01*
X161185Y211474D01*
D02*
G37*
G36*
X158509Y183233D02*
X156267Y180992D01*
X156250Y181032D01*
X156205Y181098D01*
X156132Y181189D01*
X155745Y181615D01*
X154841Y182539D01*
X156962Y184660D01*
X158509Y183233D01*
D02*
G37*
G36*
X145845Y183182D02*
X145609Y182938D01*
X145204Y182466D01*
X145034Y182238D01*
X144887Y182015D01*
X144761Y181798D01*
X144658Y181587D01*
X144577Y181381D01*
X144518Y181180D01*
X144481Y180985D01*
X142234Y183233D01*
X142429Y183270D01*
X142630Y183328D01*
X142836Y183410D01*
X143047Y183513D01*
X143264Y183638D01*
X143487Y183785D01*
X143715Y183955D01*
X144187Y184361D01*
X144431Y184597D01*
X145845Y183182D01*
D02*
G37*
G36*
X57198Y164802D02*
X56274Y163848D01*
X54699Y162042D01*
X54049Y161189D01*
X53490Y160370D01*
X53023Y159585D01*
X52647Y158833D01*
X52363Y158115D01*
X52170Y157430D01*
X52069Y156780D01*
X49587Y163428D01*
X50002Y163115D01*
X50467Y162928D01*
X50982Y162868D01*
X51548Y162936D01*
X52164Y163130D01*
X52830Y163451D01*
X53546Y163898D01*
X54313Y164473D01*
X55129Y165175D01*
X55996Y166004D01*
X57198Y164802D01*
D02*
G37*
G36*
X65457Y150174D02*
X64799Y150434D01*
X64099Y150555D01*
X63356Y150537D01*
X62571Y150380D01*
X61744Y150084D01*
X60874Y149649D01*
X59961Y149075D01*
X59007Y148361D01*
X58010Y147509D01*
X56970Y146518D01*
X56033Y147985D01*
X57011Y149005D01*
X58647Y150974D01*
X59305Y151923D01*
X59856Y152848D01*
X60300Y153750D01*
X60637Y154629D01*
X60868Y155483D01*
X60992Y156314D01*
X61009Y157122D01*
X65457Y150174D01*
D02*
G37*
G36*
X35602Y131921D02*
X35560Y132135D01*
X35444Y132327D01*
X35254Y132497D01*
X34990Y132643D01*
X34652Y132768D01*
X34239Y132869D01*
X33753Y132948D01*
X33193Y133005D01*
X31850Y133050D01*
Y134750D01*
X32635Y134760D01*
X34558Y134914D01*
X35055Y135006D01*
X35481Y135119D01*
X35834Y135252D01*
X36116Y135406D01*
X36326Y135580D01*
X36463Y135774D01*
X35602Y131921D01*
D02*
G37*
G36*
X112632Y208402D02*
X112944Y207027D01*
X98666Y192749D01*
X98257Y192138D01*
X98114Y191416D01*
Y124031D01*
X97743Y123661D01*
X97743Y123661D01*
X97308Y123225D01*
X96038D01*
X94896Y124367D01*
X94903Y124374D01*
X94122Y124896D01*
X93866Y124947D01*
X93202Y125079D01*
X92537Y124947D01*
X92281Y124896D01*
X91500Y124374D01*
X91507Y124367D01*
X89831Y122691D01*
X89817Y122691D01*
X89817Y122691D01*
X89296Y121911D01*
X89195Y121406D01*
X88691Y120692D01*
X87977Y120188D01*
X87472Y120088D01*
X86692Y119566D01*
X86699Y119559D01*
X85023Y117883D01*
X85009Y117883D01*
X85009Y117883D01*
X84487Y117102D01*
X84437Y116850D01*
X84304Y116182D01*
X84436Y115517D01*
X84487Y115261D01*
X85009Y114480D01*
X85016Y114487D01*
X86356Y113147D01*
X86184Y112103D01*
X85994Y111713D01*
X85355Y111286D01*
X85362Y111279D01*
X85362Y111279D01*
X83318Y109236D01*
X83318Y109236D01*
X82729Y108647D01*
X82407Y108653D01*
X81470Y108713D01*
X80641Y108812D01*
X79924Y108946D01*
X79322Y109110D01*
X78838Y109298D01*
X78473Y109498D01*
X78219Y109696D01*
X78058Y109884D01*
X77902Y110180D01*
X77778Y110283D01*
X77330Y111365D01*
X75847Y113297D01*
X73915Y114780D01*
X71665Y115712D01*
X69250Y116030D01*
X66835Y115712D01*
X64585Y114780D01*
X62653Y113297D01*
X61170Y111365D01*
X60906Y110728D01*
X59636Y110980D01*
Y113719D01*
X63281Y117364D01*
X74500D01*
X75222Y117507D01*
X75834Y117916D01*
X96084Y138166D01*
X96493Y138778D01*
X96636Y139500D01*
Y192541D01*
X112531Y208436D01*
X112632Y208402D01*
D02*
G37*
G36*
X92864Y157210D02*
Y140281D01*
X73719Y121136D01*
X62500D01*
X61778Y120993D01*
X61166Y120584D01*
X60119Y119536D01*
X59486Y119697D01*
X58886Y120100D01*
Y130224D01*
X60156Y130307D01*
X60238Y129685D01*
X61170Y127435D01*
X62653Y125503D01*
X64585Y124020D01*
X66835Y123088D01*
X69250Y122770D01*
X71665Y123088D01*
X73915Y124020D01*
X75847Y125503D01*
X77330Y127435D01*
X78262Y129685D01*
X78580Y132100D01*
X78262Y134515D01*
X77330Y136765D01*
X75847Y138697D01*
X73915Y140180D01*
X71665Y141112D01*
X71843Y142364D01*
X76250D01*
X76972Y142507D01*
X77584Y142916D01*
X91134Y156466D01*
X91543Y157078D01*
X91594Y157335D01*
X92864Y157210D01*
D02*
G37*
G36*
X56087Y117735D02*
X55100Y116702D01*
X53499Y114730D01*
X52886Y113793D01*
X52397Y112887D01*
X52032Y112013D01*
X51792Y111170D01*
X51676Y110360D01*
X51685Y109582D01*
X51819Y108835D01*
X45985Y114669D01*
X46732Y114535D01*
X47510Y114526D01*
X48320Y114642D01*
X49163Y114882D01*
X50037Y115247D01*
X50943Y115736D01*
X51880Y116349D01*
X52850Y117087D01*
X53852Y117950D01*
X54885Y118937D01*
X56087Y117735D01*
D02*
G37*
G36*
X77158Y109271D02*
X77468Y108910D01*
X77875Y108591D01*
X78380Y108315D01*
X78982Y108081D01*
X79681Y107890D01*
X80478Y107741D01*
X81371Y107635D01*
X82362Y107571D01*
X83450Y107550D01*
Y105850D01*
X82362Y105829D01*
X80478Y105659D01*
X79681Y105510D01*
X78982Y105319D01*
X78380Y105085D01*
X77875Y104809D01*
X77468Y104490D01*
X77158Y104129D01*
X76945Y103725D01*
Y109675D01*
X77158Y109271D01*
D02*
G37*
G36*
X56087Y92335D02*
X55100Y91302D01*
X53499Y89330D01*
X52886Y88393D01*
X52397Y87487D01*
X52032Y86613D01*
X51792Y85770D01*
X51676Y84960D01*
X51685Y84182D01*
X51819Y83435D01*
X45985Y89269D01*
X46732Y89135D01*
X47510Y89126D01*
X48320Y89242D01*
X49163Y89482D01*
X50037Y89847D01*
X50943Y90336D01*
X51880Y90949D01*
X52850Y91687D01*
X53852Y92550D01*
X54885Y93537D01*
X56087Y92335D01*
D02*
G37*
G36*
X77175Y83811D02*
X77473Y83462D01*
X77866Y83154D01*
X78355Y82888D01*
X78940Y82662D01*
X79620Y82478D01*
X80397Y82334D01*
X81269Y82232D01*
X82236Y82170D01*
X83300Y82150D01*
Y80450D01*
X82236Y80429D01*
X80397Y80266D01*
X79620Y80122D01*
X78940Y79938D01*
X78355Y79712D01*
X77866Y79446D01*
X77473Y79138D01*
X77175Y78790D01*
X76974Y78400D01*
Y84200D01*
X77175Y83811D01*
D02*
G37*
%LPC*%
G36*
X55020Y247386D02*
Y243770D01*
X58636D01*
X58498Y244466D01*
X57384Y246134D01*
X55717Y247248D01*
X55020Y247386D01*
D02*
G37*
G36*
X42730Y248791D02*
X37460D01*
Y243521D01*
X42730D01*
Y248791D01*
D02*
G37*
G36*
X58636Y241230D02*
X55020D01*
Y237614D01*
X55717Y237752D01*
X57384Y238866D01*
X58498Y240534D01*
X58636Y241230D01*
D02*
G37*
G36*
X50540Y248791D02*
X45270D01*
Y242251D01*
X44000D01*
Y240981D01*
X37460D01*
Y235740D01*
X34770D01*
Y230000D01*
Y224260D01*
X39290D01*
Y224505D01*
X40560Y225197D01*
X40980Y225114D01*
Y230000D01*
X42250D01*
Y231270D01*
X47136D01*
X46998Y231966D01*
X45884Y233634D01*
X44676Y234441D01*
X45061Y235711D01*
X50540D01*
Y237068D01*
X51581Y237791D01*
X51810Y237747D01*
X52480Y237614D01*
Y242500D01*
Y247386D01*
X51810Y247253D01*
X51581Y247209D01*
X50540Y247932D01*
Y248791D01*
D02*
G37*
G36*
X47136Y228730D02*
X43520D01*
Y225114D01*
X44216Y225252D01*
X45884Y226366D01*
X46998Y228034D01*
X47136Y228730D01*
D02*
G37*
G36*
X82500Y220554D02*
X82020Y220458D01*
X80750Y220500D01*
X80750Y220500D01*
X80750Y220500D01*
X64750D01*
Y215540D01*
X63210D01*
Y212020D01*
X72750D01*
Y209480D01*
X63210D01*
Y205960D01*
X64750D01*
Y202540D01*
X63210D01*
Y199020D01*
X82290D01*
Y202540D01*
X80750D01*
Y205960D01*
X82290D01*
Y205960D01*
X83230Y206406D01*
Y210750D01*
X84500D01*
Y212020D01*
X88621D01*
X88541Y212424D01*
X87593Y213843D01*
X86174Y214791D01*
X85372Y214951D01*
X84869Y216346D01*
X85090Y216677D01*
X85304Y217750D01*
X85090Y218823D01*
X84483Y219733D01*
X83573Y220340D01*
X82500Y220554D01*
D02*
G37*
G36*
X88621Y209480D02*
X85770D01*
Y206629D01*
X86174Y206709D01*
X87593Y207657D01*
X88541Y209076D01*
X88621Y209480D01*
D02*
G37*
G36*
X71480Y196480D02*
X63210D01*
Y192960D01*
X71480D01*
Y196480D01*
D02*
G37*
%LPD*%
G36*
X80984Y216875D02*
X80964Y216880D01*
X80909Y216884D01*
X80342Y216896D01*
X79220Y216900D01*
Y218600D01*
X80984Y218625D01*
Y216875D01*
D02*
G37*
G36*
X289159Y247101D02*
X289191Y246973D01*
X289260Y246819D01*
X289366Y246640D01*
X289509Y246434D01*
X289689Y246203D01*
X290161Y245664D01*
X290781Y245021D01*
X289579Y243819D01*
X289245Y244147D01*
X288166Y245091D01*
X287960Y245234D01*
X287781Y245340D01*
X287627Y245409D01*
X287499Y245441D01*
X287397Y245435D01*
X289165Y247203D01*
X289159Y247101D01*
D02*
G37*
G36*
X329711Y208355D02*
Y187595D01*
X324905Y182789D01*
X322700D01*
Y184750D01*
X320289D01*
Y189050D01*
X322500D01*
Y197450D01*
X317715D01*
X317229Y198623D01*
X318583Y199977D01*
X318697Y200000D01*
X325000D01*
Y208000D01*
X317665D01*
X316589Y209050D01*
X316589Y209050D01*
Y210500D01*
X320950D01*
Y210500D01*
X322050D01*
Y210500D01*
X327566D01*
X329711Y208355D01*
D02*
G37*
G36*
X366250Y207750D02*
Y188750D01*
X359750Y182250D01*
X353750D01*
X347250Y188750D01*
Y207750D01*
X353750Y214250D01*
X359750D01*
X366250Y207750D01*
D02*
G37*
G36*
X95000Y56671D02*
X91000Y57500D01*
X93000D01*
X96414Y58086D01*
X95000Y56671D01*
D02*
G37*
G36*
X51307Y34221D02*
X51752Y33860D01*
X52330Y33541D01*
X53041Y33265D01*
X53885Y33031D01*
X54863Y32840D01*
X55974Y32691D01*
X58594Y32521D01*
X60104Y32500D01*
Y28500D01*
X58594Y28479D01*
X54863Y28160D01*
X53885Y27969D01*
X53041Y27735D01*
X52330Y27459D01*
X51752Y27140D01*
X51307Y26779D01*
X50995Y26375D01*
Y34625D01*
X51307Y34221D01*
D02*
G37*
D10*
X238953Y248178D02*
X239000Y248225D01*
Y253750D01*
Y242700D02*
Y248225D01*
X151369Y205381D02*
X156053Y200697D01*
X146684Y210066D02*
X151369Y205381D01*
X146392Y210066D02*
X146684D01*
X153151Y217736D02*
X162553Y208334D01*
X153151Y217736D02*
Y217849D01*
X152923D02*
X153151D01*
X162553Y208143D02*
X163303Y208892D01*
X163303D01*
X162553Y208143D02*
Y208334D01*
X156053Y200392D02*
Y200697D01*
X126643Y272553D02*
X128008D01*
X134752Y279297D02*
X136124D01*
X120000Y268500D02*
X120676D01*
X124729Y272553D01*
X126643D01*
X109000Y248250D02*
X109250D01*
X112849Y244652D01*
X113077D01*
X18363Y210637D02*
X18420Y210693D01*
X28693D01*
X28750Y210750D01*
X18363Y210637D02*
X19500Y209500D01*
X32350Y197750D02*
X33350Y196750D01*
X28750Y197750D02*
X32350D01*
X112729Y245000D02*
X113077Y244652D01*
X166750Y225500D02*
X167228Y225978D01*
X172678D01*
X176950Y230250D01*
X177000D01*
X162921Y229328D02*
X166750Y225500D01*
X162556Y229328D02*
X162921D01*
X162000Y204750D02*
X163303Y206053D01*
Y208892D01*
X129250Y199866D02*
X129314Y199802D01*
X130979Y193229D02*
X131000Y193250D01*
X124175Y193229D02*
X130979D01*
X124143Y193197D02*
X124175Y193229D01*
X124143Y193197D02*
Y194142D01*
X129314Y199314D01*
Y199802D01*
X129250Y199866D02*
X131079Y201695D01*
X158750Y249500D02*
Y253384D01*
X154184Y244934D02*
X158750Y249500D01*
X154184Y244642D02*
Y244934D01*
X158750Y253384D02*
X163303Y257937D01*
Y259107D01*
X238500Y254250D02*
X239000Y253750D01*
X238600Y242300D02*
X239000Y242700D01*
D13*
X165902Y247000D02*
X169803Y250901D01*
Y251108D01*
X162750Y247000D02*
X165902D01*
X157881Y242131D02*
X162750Y247000D01*
X157881Y241540D02*
Y242131D01*
X165250Y219750D02*
X172750D01*
X159563Y225437D02*
X165250Y219750D01*
X168000Y215000D02*
X174000Y209000D01*
X165485Y215000D02*
X168000D01*
X162985Y217500D02*
X165485Y215000D01*
X160933Y217500D02*
X162985D01*
X156692Y221740D02*
X160933Y217500D01*
X159290Y225437D02*
X159563D01*
X145250Y184001D02*
Y197547D01*
X140025Y202477D02*
X140319D01*
X145250Y197547D01*
X142499Y181250D02*
X145250Y184001D01*
X174500Y218000D02*
X181500D01*
X172750Y219750D02*
X174500Y218000D01*
X304512Y231500D02*
X315250D01*
X302012Y229000D02*
X304512Y231500D01*
X293400Y229000D02*
X302012D01*
X267000Y159750D02*
Y224000D01*
X261500Y229500D02*
X267000Y224000D01*
X253650Y223100D02*
X257000Y219750D01*
Y159750D02*
Y219750D01*
X238600Y229500D02*
X261500D01*
X238250Y235750D02*
X238500Y236000D01*
X227750Y237750D02*
Y253500D01*
X229000Y254750D01*
X227750Y237750D02*
X229750Y235750D01*
X238250D01*
X238500Y236000D02*
X238600Y235900D01*
X219750Y254750D02*
X229000D01*
X220749Y233500D02*
Y242249D01*
Y233500D02*
X224250Y230000D01*
Y218750D02*
Y230000D01*
X238600Y223100D02*
X253650D01*
X293250Y254250D02*
Y269500D01*
X156188Y221740D02*
X156692D01*
X203249Y242249D02*
X210500Y234999D01*
Y230950D02*
Y234999D01*
Y230950D02*
X212700Y228750D01*
X212750D01*
X292900Y229500D02*
X293290Y229890D01*
X315250Y231500D02*
X316750Y230000D01*
X316500Y224000D02*
X316750Y223750D01*
Y224250D02*
Y230000D01*
X316500Y224000D02*
X316750Y224250D01*
X244000Y256500D02*
X250469Y262969D01*
Y268719D01*
X252000Y270250D01*
X240700Y256500D02*
X244000D01*
X238500Y254300D02*
X240700Y256500D01*
X238500Y254250D02*
Y254300D01*
X340750Y177500D02*
X341750Y178500D01*
Y225250D01*
X292900Y253900D02*
X293250Y254250D01*
X292900Y242300D02*
Y253900D01*
X379750Y213250D02*
X400000D01*
X371750Y221250D02*
X379750Y213250D01*
X371750Y221250D02*
Y225250D01*
X342000Y225500D02*
Y235000D01*
X341750Y225250D02*
X342000Y225500D01*
Y235000D02*
X344500Y237500D01*
Y241249D01*
X344000Y241749D02*
X344500Y241249D01*
X344000Y241749D02*
X344250Y241999D01*
X344249Y241999D02*
X344250Y241999D01*
X326250Y241500D02*
X326749Y241999D01*
X326250Y223750D02*
Y241500D01*
X318250Y180750D02*
X325750D01*
X331750Y186750D01*
X318250Y180750D02*
X318500Y180500D01*
X331750Y186750D02*
Y209200D01*
X326250Y214700D02*
X331750Y209200D01*
X326250Y214700D02*
Y214750D01*
X292900Y229500D02*
X293400Y229000D01*
X306850Y223100D02*
X307500Y223750D01*
X292900Y223100D02*
X306850D01*
X307500Y214700D02*
Y214750D01*
X303500Y210700D02*
X307500Y214700D01*
X293300Y210700D02*
X303500D01*
X292900Y210300D02*
X293300Y210700D01*
X314550Y212550D02*
X316750Y214750D01*
X314550Y209050D02*
Y212550D01*
X312000Y206500D02*
X314550Y209050D01*
X312000Y206000D02*
Y206500D01*
X310000Y204000D02*
X312000Y206000D01*
X309500Y204000D02*
X310000D01*
X318500Y202000D02*
X320500Y204000D01*
X317722Y202000D02*
X318500D01*
X313000Y197278D02*
X317722Y202000D01*
X313000Y196950D02*
Y197278D01*
X309300Y193250D02*
X313000Y196950D01*
X309250Y193250D02*
X309300D01*
X309400Y203900D02*
X309500Y204000D01*
X292900Y203900D02*
X309400D01*
X212750Y228750D02*
X213250Y228250D01*
Y218750D02*
Y228250D01*
X203250D02*
X203750Y228750D01*
X203250Y218250D02*
Y228250D01*
X174000Y209000D02*
X181500D01*
X191500D02*
X192250Y208250D01*
X181500Y209000D02*
X191500D01*
X192000Y218000D02*
X192250Y218250D01*
X181500Y218000D02*
X192000D01*
X305722Y187500D02*
X312778D01*
X303322Y189900D02*
X305722Y187500D01*
X312778D02*
X314586Y189307D01*
X304550Y184500D02*
X308500Y180550D01*
X293100Y184500D02*
X304550D01*
X292900Y184700D02*
X293100Y184500D01*
X318250Y180750D02*
Y193000D01*
Y193250D01*
X314586Y189336D02*
X318250Y193000D01*
X314586Y189307D02*
Y189336D01*
X292900Y191100D02*
X294100Y189900D01*
X303322D01*
X308500Y180500D02*
Y180550D01*
X210950Y198500D02*
X212250Y199800D01*
X208750Y196300D02*
X210950Y198500D01*
X211000D01*
X212250Y199800D02*
Y208000D01*
X213000Y208750D01*
X202000Y198500D02*
X203250Y199750D01*
Y208250D01*
X208750Y195500D02*
Y196300D01*
X198750Y185499D02*
X208750Y195500D01*
X230500Y216750D02*
X238550D01*
X238600Y216700D01*
X229250Y218000D02*
X230500Y216750D01*
X225000Y218000D02*
X229250D01*
X224250Y218750D02*
X225000Y218000D01*
X225550Y210300D02*
X238600D01*
X224000Y208750D02*
X225550Y210300D01*
X224000Y201000D02*
Y208750D01*
X217500Y194500D02*
X224000Y201000D01*
X217500Y186750D02*
Y194500D01*
X216250Y185499D02*
X217500Y186750D01*
X227578Y159500D02*
X228750Y160672D01*
X221250Y159500D02*
X227578D01*
X228750Y160672D02*
Y189250D01*
X221000Y159250D02*
X221250Y159500D01*
X228750Y189250D02*
X230750Y191250D01*
X238450D01*
X238600Y191100D01*
X237400Y189900D02*
X238600Y191100D01*
X237850Y197250D02*
X238100Y197000D01*
X225750Y193750D02*
X229000Y197000D01*
X237600D01*
X237850Y197250D01*
X238100Y197000D02*
X238600Y197500D01*
X225750Y174250D02*
Y193750D01*
X223750Y172250D02*
X225750Y174250D01*
X223750Y171750D02*
Y172250D01*
X221750Y169750D02*
X223750Y171750D01*
X221250Y169750D02*
X221750D01*
D16*
X72750Y210750D02*
X72750Y210750D01*
X84500D01*
X185750Y237500D02*
X187750Y239500D01*
X185750Y230500D02*
Y237500D01*
X114250Y135250D02*
Y135521D01*
X115001Y136271D01*
Y142250D01*
X117001Y144250D01*
X128008Y272553D02*
X134752Y279297D01*
X33500Y230000D02*
X42250D01*
X53500Y242250D02*
X53750Y242500D01*
X44001Y242250D02*
X53500D01*
X44000Y242251D02*
X44001Y242250D01*
X26500Y265248D02*
X34361Y273108D01*
X40958D01*
X43350Y275500D01*
X26500Y242251D02*
Y265248D01*
X24750Y217250D02*
X28750D01*
X24500Y217500D02*
X24750Y217250D01*
X24500Y217500D02*
Y230000D01*
X25500Y231000D01*
Y241251D01*
X26500Y242251D01*
X124125Y293125D02*
X124875D01*
X120857Y289608D02*
X123953Y292703D01*
X124875D01*
X120857Y281592D02*
Y289608D01*
X120825Y281560D02*
X120857Y281592D01*
X120825Y279479D02*
Y281560D01*
Y279479D02*
X120857Y279447D01*
X119500Y297750D02*
X124125Y293125D01*
X124875Y292703D02*
Y293125D01*
X72750Y197750D02*
X73000Y197500D01*
X119001Y142250D02*
X122445D01*
X124001Y140694D01*
Y105251D02*
Y140694D01*
X93000Y74250D02*
X124001Y105251D01*
X93000Y57500D02*
Y74250D01*
X122445Y142250D02*
X125750D01*
X113000Y180500D02*
X118357Y185858D01*
Y186303D01*
X117001Y144250D02*
X119001Y142250D01*
X125750D02*
X130000Y138000D01*
X116750Y162000D02*
Y171500D01*
X117001Y161750D02*
X117250Y161999D01*
X116750Y162000D02*
X117001Y161750D01*
X158251Y181250D02*
X172751D01*
X158251Y181250D02*
X158251Y181250D01*
X169893Y202358D02*
X174500Y197750D01*
X169447Y202358D02*
X169893D01*
X162947Y194553D02*
X168000Y189500D01*
X162947Y194553D02*
Y194608D01*
X189000Y241250D02*
Y247750D01*
Y241250D02*
X189250Y241000D01*
X188750D02*
X189250D01*
X187750Y239500D02*
Y240000D01*
X188750Y241000D01*
X185750Y230500D02*
X186000Y230250D01*
X109750Y34750D02*
Y42999D01*
X109751Y43000D01*
X331250Y144500D02*
Y153500D01*
X331250Y153500D02*
X331250Y153500D01*
X350250Y145000D02*
Y153500D01*
X331250D02*
X350250D01*
X318750Y165000D02*
Y171250D01*
X318500Y171500D02*
X318750Y171250D01*
X308500Y164500D02*
Y171500D01*
X318500D01*
X292950Y216750D02*
X301300D01*
X292900Y216700D02*
X292950Y216750D01*
X43350Y275500D02*
X68750D01*
X384250Y156750D02*
X384250Y156750D01*
Y170750D01*
X355500Y255750D02*
X384250D01*
X205251Y147750D02*
X257000D01*
Y148750D02*
X267000D01*
X243000Y100250D02*
X263500D01*
X276500Y113250D01*
Y194700D01*
X279300Y197500D01*
X292900D01*
X205001Y147500D02*
Y154751D01*
Y99500D02*
Y147500D01*
X205251Y147750D01*
X305100Y236100D02*
X306500Y237500D01*
X296750Y236100D02*
X305100D01*
X296550Y235900D02*
X296750Y236100D01*
X292900Y235900D02*
X296550D01*
X302500Y254000D02*
X302750Y254250D01*
X310500D01*
X302250D02*
X302500Y254000D01*
X219750Y263750D02*
Y273250D01*
Y263750D02*
X219750Y263750D01*
X219750Y263750D02*
X219750Y263750D01*
X229000Y267250D02*
Y274750D01*
X228500Y266750D02*
X229000Y267250D01*
X228000Y266750D02*
X228500D01*
X228000D02*
X229000Y265750D01*
X238250Y271750D02*
X238500Y272000D01*
X238250Y263500D02*
Y271750D01*
Y263500D02*
X238500Y263250D01*
X177393Y256893D02*
X183000Y262500D01*
X176697Y256893D02*
X177393D01*
X170643Y264893D02*
X175750Y270000D01*
X170197Y264893D02*
X170643D01*
X129250Y156000D02*
X129500Y156250D01*
Y166500D01*
X142750Y156000D02*
Y161750D01*
X142500D02*
X142750D01*
X142500D02*
X143230Y162480D01*
X143769D01*
X142499Y163750D02*
X143769Y162480D01*
X158250Y155000D02*
Y163749D01*
X158251Y163750D01*
X155250Y119750D02*
X155500Y119500D01*
X155250Y119750D02*
Y129100D01*
X171000Y119250D02*
X171001Y119251D01*
Y129000D01*
X243000Y81750D02*
X243000Y81750D01*
X243000Y81750D02*
Y91250D01*
X233500Y81750D02*
X233750Y81500D01*
X233500Y81750D02*
Y91250D01*
X181250Y72450D02*
Y72500D01*
X178586Y69786D02*
X181250Y72450D01*
X167483Y69786D02*
X178586D01*
X167197Y69500D02*
X167483Y69786D01*
X210125Y169625D02*
X210250Y169750D01*
X210125Y159375D02*
Y169625D01*
X210000Y159250D02*
X210125Y159375D01*
X209500Y159250D02*
X210000D01*
X205001Y154751D02*
X209500Y159250D01*
X167500Y62714D02*
X177287D01*
X167500Y45250D02*
Y62714D01*
X167483D02*
X167500D01*
X167197Y63000D02*
X167483Y62714D01*
X204250Y81249D02*
X205001Y80498D01*
X193750Y57251D02*
X205001Y68501D01*
Y80498D01*
X204250Y81249D02*
X205001Y82000D01*
X177287Y62714D02*
X182750Y57251D01*
X193750D01*
X204875Y99625D02*
X205001Y99500D01*
X192875Y99625D02*
X204875D01*
X192750Y99750D02*
X192875Y99625D01*
X183000Y99750D02*
X192750D01*
X180536Y82214D02*
X181250Y81500D01*
X167483Y82214D02*
X180536D01*
X167197Y82500D02*
X167483Y82214D01*
X220874Y82125D02*
X220999Y82250D01*
X205126Y82125D02*
X220874D01*
X205001Y82000D02*
X205126Y82125D01*
X233500Y100250D02*
X243000D01*
X233500Y100250D02*
X233500Y100250D01*
X233500D02*
X233500Y100250D01*
X233250Y100000D02*
X233500Y100250D01*
X221249Y100000D02*
X233250D01*
X220999Y99750D02*
X221249Y100000D01*
X135200Y181250D02*
X142499D01*
X142499Y181250D01*
X129500Y175550D02*
X135200Y181250D01*
X129500Y175500D02*
Y175550D01*
X172751Y181250D02*
X172751Y181250D01*
X171126Y146625D02*
X171876Y147374D01*
X171001Y146500D02*
X171126Y146625D01*
X171876Y162875D02*
X172751Y163750D01*
X171876Y147374D02*
Y162875D01*
X187375Y146625D02*
X187500Y146750D01*
X171126Y146625D02*
X187375D01*
X170801Y146700D02*
X171001Y146500D01*
X155450Y146700D02*
X170801D01*
X155250Y146900D02*
X155450Y146700D01*
X130000Y138000D02*
X131250D01*
X109751Y60500D02*
X109751D01*
X96000D02*
X109751D01*
Y60500D02*
Y60500D01*
Y78001D02*
X113964Y82214D01*
X126017D01*
X126303Y82500D01*
X109751Y60500D02*
Y78001D01*
X93000Y57500D02*
X96000Y60500D01*
X93000Y40000D02*
Y57500D01*
X109751Y60500D02*
X112251Y63000D01*
X126303D01*
X83500Y30500D02*
X93000Y40000D01*
X69250Y30500D02*
X83500D01*
X43850D02*
X69250D01*
D18*
X117001Y161750D02*
D03*
Y144250D02*
D03*
X205001Y99500D02*
D03*
Y82000D02*
D03*
X220999Y82250D02*
D03*
Y99750D02*
D03*
X158251Y163750D02*
D03*
Y181250D02*
D03*
X142499Y163750D02*
D03*
Y181250D02*
D03*
X171001Y146500D02*
D03*
Y129000D02*
D03*
X172751Y181250D02*
D03*
Y163750D02*
D03*
X109751Y43000D02*
D03*
Y60500D02*
D03*
D19*
X331250Y153500D02*
D03*
X350250D02*
D03*
X340750Y177500D02*
D03*
D20*
X371750Y225250D02*
D03*
X341750D02*
D03*
D21*
X356750Y223250D02*
D03*
D22*
X318500Y171500D02*
D03*
Y180500D02*
D03*
X326250Y223750D02*
D03*
Y214750D02*
D03*
X316750Y223750D02*
D03*
Y214750D02*
D03*
X307500Y223750D02*
D03*
Y214750D02*
D03*
X308500Y171500D02*
D03*
Y180500D02*
D03*
X183000Y90750D02*
D03*
Y99750D02*
D03*
X192750Y90750D02*
D03*
Y99750D02*
D03*
X243000Y91250D02*
D03*
Y100250D02*
D03*
X233500Y91250D02*
D03*
Y100250D02*
D03*
X219750Y263750D02*
D03*
Y254750D02*
D03*
X238500Y254250D02*
D03*
Y263250D02*
D03*
X181500Y218000D02*
D03*
Y209000D02*
D03*
X129500Y166500D02*
D03*
Y175500D02*
D03*
X181250Y72500D02*
D03*
Y81500D02*
D03*
D23*
X344249Y241999D02*
D03*
X326749D02*
D03*
X219249Y242249D02*
D03*
X201749D02*
D03*
X216250Y185499D02*
D03*
X198750D02*
D03*
X193750Y57251D02*
D03*
X211250D02*
D03*
X26500Y242251D02*
D03*
X44000D02*
D03*
D24*
X24500Y230000D02*
D03*
X33500D02*
D03*
X309250Y193250D02*
D03*
X318250D02*
D03*
X302250Y254250D02*
D03*
X293250D02*
D03*
X202000Y198500D02*
D03*
X211000D02*
D03*
X203750Y228750D02*
D03*
X212750D02*
D03*
X177000Y230250D02*
D03*
X186000D02*
D03*
D25*
X72750Y217250D02*
D03*
Y210750D02*
D03*
Y204250D02*
D03*
Y197750D02*
D03*
X28750D02*
D03*
Y204250D02*
D03*
Y210750D02*
D03*
Y217250D02*
D03*
D26*
X320500Y204000D02*
D03*
X309500D02*
D03*
X221000Y159250D02*
D03*
X210000D02*
D03*
X221250Y169750D02*
D03*
X210250D02*
D03*
X213000Y208750D02*
D03*
X224000D02*
D03*
X213250Y218750D02*
D03*
X224250D02*
D03*
X192250Y208250D02*
D03*
X203250D02*
D03*
X192250Y218250D02*
D03*
X203250D02*
D03*
X178250Y241000D02*
D03*
X189250D02*
D03*
D27*
X384250Y170750D02*
D03*
Y255750D02*
D03*
D28*
X400000Y213250D02*
D03*
D29*
X267000Y159750D02*
D03*
Y148750D02*
D03*
X257000Y159750D02*
D03*
Y148750D02*
D03*
X229000Y265750D02*
D03*
Y254750D02*
D03*
D30*
X252000Y270250D02*
D03*
X293250Y269500D02*
D03*
X187500Y146750D02*
D03*
X167500Y45250D02*
D03*
D31*
X156053Y200392D02*
D03*
X162947Y194608D02*
D03*
X163303Y208892D02*
D03*
X170197Y203107D02*
D03*
D32*
X131250Y138000D02*
D03*
X155250Y146900D02*
D03*
Y129100D02*
D03*
D33*
X124143Y193197D02*
D03*
X118357Y186303D02*
D03*
D34*
X136124Y279297D02*
D03*
X124875Y292703D02*
D03*
D35*
X126643Y272553D02*
D03*
X120857Y279447D02*
D03*
D36*
X292900Y184700D02*
D03*
Y191100D02*
D03*
Y197500D02*
D03*
Y203900D02*
D03*
Y210300D02*
D03*
Y216700D02*
D03*
Y223100D02*
D03*
Y229500D02*
D03*
Y235900D02*
D03*
Y242300D02*
D03*
X238600D02*
D03*
Y235900D02*
D03*
Y229500D02*
D03*
Y223100D02*
D03*
Y216700D02*
D03*
Y210300D02*
D03*
Y203900D02*
D03*
Y197500D02*
D03*
Y191100D02*
D03*
Y184700D02*
D03*
D37*
X169803Y251108D02*
D03*
X176697Y256893D02*
D03*
X163303Y259107D02*
D03*
X170197Y264893D02*
D03*
D38*
X167197Y63000D02*
D03*
Y69500D02*
D03*
Y76000D02*
D03*
Y82500D02*
D03*
X126303D02*
D03*
Y76000D02*
D03*
Y69500D02*
D03*
Y63000D02*
D03*
D39*
X161773Y238275D02*
D03*
X157881Y241540D02*
D03*
X154184Y244642D02*
D03*
X150293Y247907D02*
D03*
X146401Y251173D02*
D03*
X142510Y254438D02*
D03*
X138813Y257540D02*
D03*
X134922Y260806D02*
D03*
X104227Y224225D02*
D03*
X108119Y220960D02*
D03*
X111816Y217858D02*
D03*
X115707Y214593D02*
D03*
X119599Y211327D02*
D03*
X123490Y208062D02*
D03*
X127187Y204960D02*
D03*
X131079Y201695D02*
D03*
D40*
X125975Y260023D02*
D03*
X122710Y256131D02*
D03*
X119608Y252435D02*
D03*
X116343Y248543D02*
D03*
X113077Y244652D02*
D03*
X109812Y240760D02*
D03*
X106710Y237063D02*
D03*
X103444Y233172D02*
D03*
X140025Y202477D02*
D03*
X143290Y206369D02*
D03*
X146392Y210066D02*
D03*
X149657Y213957D02*
D03*
X152923Y217849D02*
D03*
X156188Y221740D02*
D03*
X159290Y225437D02*
D03*
X162556Y229328D02*
D03*
D41*
X133000Y231250D02*
D03*
D70*
X82001Y234331D02*
G03*
X82001Y234090I120J-120D01*
G01*
X84165Y231926D02*
G03*
X84406Y231926I120J120D01*
G01*
X90372Y237653D02*
G03*
X90132Y237653I-120J-120D01*
G01*
X92536Y235249D02*
G03*
X92536Y235489I-120J120D01*
G01*
X86810Y229522D02*
G03*
X86810Y229282I120J-120D01*
G01*
X88974Y227118D02*
G03*
X89214Y227118I120J120D01*
G01*
X96099Y291761D02*
G03*
X95589Y291251I0J-510D01*
G01*
X96863Y291761D02*
G03*
X97373Y292271I0J510D01*
G01*
Y294651D02*
G03*
X96863Y295161I-510J0D01*
G01*
X91392Y295671D02*
G03*
X91902Y295161I510J0D01*
G01*
Y298561D02*
G03*
X91392Y298051I0J-510D01*
G01*
X96863Y298561D02*
G03*
X97373Y299071I0J510D01*
G01*
Y301451D02*
G03*
X96863Y301961I-510J0D01*
G01*
X95589Y302471D02*
G03*
X96099Y301961I510J0D01*
G01*
X94892Y305079D02*
G03*
X94892Y304358I361J-361D01*
G01*
X97763Y307950D02*
G03*
X97763Y308671I-361J361D01*
G01*
X96080Y310354D02*
G03*
X95358Y310354I-361J-361D01*
G01*
X90050Y305767D02*
G03*
X90772Y305767I361J361D01*
G01*
X88367Y308172D02*
G03*
X88367Y307450I361J-361D01*
G01*
X92954Y312759D02*
G03*
X92954Y313480I-361J361D01*
G01*
X91271Y315163D02*
G03*
X90550Y315163I-361J-361D01*
G01*
X85242Y310576D02*
G03*
X85963Y310576I361J361D01*
G01*
X83559Y312980D02*
G03*
X83559Y312259I361J-361D01*
G01*
X88146Y317567D02*
G03*
X88146Y318288I-361J361D01*
G01*
X86463Y319971D02*
G03*
X85742Y319971I-361J-361D01*
G01*
X80434Y315384D02*
G03*
X81155Y315384I361J361D01*
G01*
X78751Y317788D02*
G03*
X78751Y317067I361J-361D01*
G01*
X83338Y322375D02*
G03*
X83338Y323097I-361J361D01*
G01*
X81655Y324779D02*
G03*
X80934Y324779I-361J-361D01*
G01*
X77341Y321909D02*
G03*
X78063Y321909I361J361D01*
G01*
X77150Y367979D02*
G03*
X77150Y368700I-361J361D01*
G01*
X74698Y365527D02*
G03*
X74698Y364806I361J-361D01*
G01*
X76381Y363123D02*
G03*
X77102Y363123I361J361D01*
G01*
X83448Y368748D02*
G03*
X82727Y368748I-361J-361D01*
G01*
X85131Y366344D02*
G03*
X85131Y367065I-361J361D01*
G01*
X79506Y360719D02*
G03*
X79506Y359997I361J-361D01*
G01*
X81189Y358315D02*
G03*
X81910Y358315I361J361D01*
G01*
X85084Y360766D02*
G03*
X84362Y360766I-361J-361D01*
G01*
X84854Y335596D02*
G03*
X85575Y335596I361J361D01*
G01*
X88865Y338164D02*
G03*
X88143Y338164I-361J-361D01*
G01*
X90548Y335760D02*
G03*
X90548Y336481I-361J361D01*
G01*
X86216Y331428D02*
G03*
X86216Y330707I361J-361D01*
G01*
X87899Y329024D02*
G03*
X88620Y329024I361J361D01*
G01*
X93673Y333356D02*
G03*
X92952Y333356I-361J-361D01*
G01*
X95356Y330952D02*
G03*
X95356Y331673I-361J361D01*
G01*
X91025Y326620D02*
G03*
X91025Y325899I361J-361D01*
G01*
X92707Y324216D02*
G03*
X93429Y324216I361J361D01*
G01*
X98481Y328548D02*
G03*
X97760Y328548I-361J-361D01*
G01*
X100164Y326143D02*
G03*
X100164Y326865I-361J361D01*
G01*
X95833Y321812D02*
G03*
X95833Y321091I361J-361D01*
G01*
X97516Y319408D02*
G03*
X98237Y319408I361J361D01*
G01*
X103290Y323739D02*
G03*
X102568Y323739I-361J-361D01*
G01*
X104972Y321335D02*
G03*
X104972Y322056I-361J361D01*
G01*
X102404Y318767D02*
G03*
X102404Y318046I361J-361D01*
G01*
X101255Y257350D02*
G03*
X101765Y257860I0J510D01*
G01*
X101255Y257350D02*
G03*
X100745Y256840I0J-510D01*
G01*
Y254460D02*
G03*
X101255Y253950I510J0D01*
G01*
X101765Y253440D02*
G03*
X101255Y253950I-510J0D01*
G01*
X87000Y265113D02*
G03*
X87510Y264603I510J0D01*
G01*
X91627Y264093D02*
G03*
X91117Y264603I-510J0D01*
G01*
Y261203D02*
G03*
X91627Y261713I0J510D01*
G01*
X86163Y261203D02*
G03*
X85653Y260693I0J-510D01*
G01*
Y258313D02*
G03*
X86163Y257803I510J0D01*
G01*
X91627Y257293D02*
G03*
X91117Y257803I-510J0D01*
G01*
Y254403D02*
G03*
X91627Y254913I0J510D01*
G01*
X87510Y254403D02*
G03*
X87000Y253893I0J-510D01*
G01*
X82202Y191007D02*
G03*
X82202Y190286I361J-361D01*
G01*
X84493Y187273D02*
G03*
X84493Y187994I-361J361D01*
G01*
X82089Y185590D02*
G03*
X82810Y185590I361J361D01*
G01*
X76785Y190895D02*
G03*
X76063Y190895I-361J-361D01*
G01*
X74380Y189212D02*
G03*
X74380Y188490I361J-361D01*
G01*
X79685Y182464D02*
G03*
X79685Y183186I-361J361D01*
G01*
X77281Y180781D02*
G03*
X78002Y180781I361J361D01*
G01*
X71976Y186086D02*
G03*
X71255Y186086I-361J-361D01*
G01*
X69572Y184403D02*
G03*
X69572Y183682I361J-361D01*
G01*
X74877Y177656D02*
G03*
X74877Y178377I-361J361D01*
G01*
X72473Y175973D02*
G03*
X73194Y175973I361J361D01*
G01*
X67168Y181278D02*
G03*
X66447Y181278I-361J-361D01*
G01*
X64764Y179595D02*
G03*
X64764Y178874I361J-361D01*
G01*
X70068Y172848D02*
G03*
X70068Y173569I-361J361D01*
G01*
X67664Y171165D02*
G03*
X68386Y171165I361J361D01*
G01*
X62359Y176470D02*
G03*
X61638Y176470I-361J-361D01*
G01*
X59955Y174787D02*
G03*
X59955Y174065I361J-361D01*
G01*
X64975Y168325D02*
G03*
X64975Y169046I-361J361D01*
G01*
X62571Y166642D02*
G03*
X63292Y166642I361J361D01*
G01*
X57551Y171661D02*
G03*
X56830Y171661I-361J-361D01*
G01*
X55147Y169978D02*
G03*
X55147Y169257I361J-361D01*
G01*
X57439Y166244D02*
G03*
X57439Y166965I-361J361D01*
G01*
X89800Y180410D02*
G03*
X90310Y179900I510J0D01*
G01*
X91385Y179390D02*
G03*
X90875Y179900I-510J0D01*
G01*
Y176500D02*
G03*
X91385Y177010I0J510D01*
G01*
X85895Y176500D02*
G03*
X85385Y175990I0J-510D01*
G01*
Y173610D02*
G03*
X85895Y173100I510J0D01*
G01*
X91385Y172590D02*
G03*
X90875Y173100I-510J0D01*
G01*
Y169700D02*
G03*
X91385Y170210I0J510D01*
G01*
X85895Y169700D02*
G03*
X85385Y169190I0J-510D01*
G01*
Y166810D02*
G03*
X85895Y166300I510J0D01*
G01*
X91385Y165790D02*
G03*
X90875Y166300I-510J0D01*
G01*
Y162900D02*
G03*
X91385Y163410I0J510D01*
G01*
X90310Y162900D02*
G03*
X89800Y162390I0J-510D01*
G01*
X96312Y120283D02*
G03*
X97034Y120283I361J361D01*
G01*
X93562Y123034D02*
G03*
X92841Y123034I-361J-361D01*
G01*
X91158Y121351D02*
G03*
X91158Y120629I361J-361D01*
G01*
X97379Y113687D02*
G03*
X97379Y114408I-361J361D01*
G01*
X94975Y112004D02*
G03*
X95696Y112004I361J361D01*
G01*
X88754Y118225D02*
G03*
X88033Y118225I-361J-361D01*
G01*
X86350Y116542D02*
G03*
X86350Y115821I361J-361D01*
G01*
X92571Y108878D02*
G03*
X92571Y109600I-361J361D01*
G01*
X90167Y107196D02*
G03*
X90888Y107196I361J361D01*
G01*
X87417Y109946D02*
G03*
X86696Y109946I-361J-361D01*
G01*
X88005Y87207D02*
G03*
X89207Y87207I601J601D01*
G01*
X84039Y91174D02*
G03*
X82837Y91174I-601J-601D01*
G01*
X81635Y89972D02*
G03*
X81635Y88770I601J-601D01*
G01*
X85601Y83601D02*
G03*
X85601Y84803I-601J601D01*
G01*
X92536Y235249D02*
X92536Y235249D01*
X92536Y235489D02*
X92536D01*
X88974Y227118D02*
X88974D01*
X83338Y323097D02*
X83338D01*
X89800Y186750D02*
Y193800D01*
X91000Y195000D01*
Y196729D01*
X111816Y217545D01*
X94750Y193323D02*
X115707Y214280D01*
X94750Y139500D02*
Y193323D01*
X100750Y225250D02*
X102278Y223722D01*
X95250Y230750D02*
X100750Y225250D01*
X84500Y241500D02*
X86835Y239165D01*
X82001Y234331D02*
X86835Y239165D01*
X82001Y234090D02*
X84165Y231926D01*
X84406D02*
X89240Y236760D01*
X90132Y237653D01*
X90372D02*
X92536Y235489D01*
X91644Y234356D02*
X92536Y235249D01*
X86810Y229522D02*
X91644Y234356D01*
X86810Y229282D02*
X88974Y227118D01*
X89214D02*
X94048Y231952D01*
X95250Y230750D01*
X82500Y243500D02*
X84500Y241500D01*
X82500Y243500D02*
Y284500D01*
X79000Y288000D02*
X82500Y284500D01*
X60250Y288000D02*
X79000D01*
X56500Y291750D02*
X60250Y288000D01*
X56500Y291750D02*
Y313150D01*
X43350Y326300D02*
X56500Y313150D01*
X102278Y223722D02*
X103724D01*
X104227Y224225D01*
X95589Y247871D02*
Y284500D01*
Y291251D01*
X96099Y291761D02*
X96863D01*
X97373Y292271D02*
Y294651D01*
X95589Y295161D02*
X96863D01*
X91902D02*
X95589D01*
X91392Y295671D02*
Y298051D01*
X91902Y298561D02*
X95589D01*
X96863D01*
X97373Y299071D02*
Y301451D01*
X96099Y301961D02*
X96863D01*
X95589Y302471D02*
Y303661D01*
Y247871D02*
X106397Y237063D01*
X101765Y263250D02*
Y310735D01*
X73000Y339500D02*
X101765Y310735D01*
X105650Y258922D02*
Y314800D01*
Y258922D02*
X116030Y248543D01*
X110125Y261604D02*
Y335725D01*
Y261604D02*
X119295Y252435D01*
X85925Y359925D02*
X110125Y335725D01*
X94892Y304358D02*
X95589Y303661D01*
X94892Y305079D02*
X97763Y307950D01*
X96080Y310354D02*
X97763Y308671D01*
X92127Y307123D02*
X95358Y310354D01*
X90772Y305767D02*
X92127Y307123D01*
X88367Y307450D02*
X90050Y305767D01*
X88367Y308172D02*
X89723Y309527D01*
X92954Y312759D01*
X91271Y315163D02*
X92954Y313480D01*
X87319Y311931D02*
X90550Y315163D01*
X85963Y310576D02*
X87319Y311931D01*
X83559Y312259D02*
X85242Y310576D01*
X83559Y312980D02*
X84915Y314335D01*
X88146Y317567D01*
X86463Y319971D02*
X88146Y318288D01*
X82510Y316740D02*
X85742Y319971D01*
X81155Y315384D02*
X82510Y316740D01*
X78751Y317067D02*
X80434Y315384D01*
X78751Y317788D02*
X80106Y319144D01*
X83338Y322375D01*
X81655Y324779D02*
X83338Y323097D01*
X78063Y321909D02*
X80934Y324779D01*
X76500Y322750D02*
X77341Y321909D01*
X87000Y280000D02*
Y302250D01*
X74500Y314750D02*
X87000Y302250D01*
X63750Y314750D02*
X74500D01*
X173250Y240000D02*
X177250D01*
X178250Y241000D01*
X171885Y244317D02*
X173897Y246329D01*
X167815Y244317D02*
X171885D01*
X161773Y238275D02*
X167815Y244317D01*
X177579Y246329D02*
X191000Y259750D01*
X173897Y246329D02*
X177579D01*
X161773Y238275D02*
X161773D01*
X191000Y259750D02*
Y277750D01*
X150293Y213957D02*
X153500Y210750D01*
X149657Y213957D02*
X150293D01*
X105000Y103000D02*
Y189259D01*
X100000Y123250D02*
Y191416D01*
X105000Y189259D02*
X123490Y207749D01*
X100000Y191416D02*
X119599Y211014D01*
X91000Y89000D02*
X105000Y103000D01*
X286750Y247850D02*
X292600Y242000D01*
X292900Y242300D01*
X73250Y217750D02*
X82500D01*
X72750Y217250D02*
X73250Y217750D01*
X74500Y119250D02*
X94750Y139500D01*
X87100Y199628D02*
X108119Y220647D01*
Y220960D01*
X87100Y195905D02*
Y199628D01*
X111816Y217545D02*
Y217858D01*
X76250Y144250D02*
X89800Y157800D01*
Y159500D02*
Y162390D01*
X62750Y144250D02*
X76250D01*
X19500Y204250D02*
X28750D01*
X16500Y201250D02*
X19500Y204250D01*
X16500Y149250D02*
Y201250D01*
Y149250D02*
X31850Y133900D01*
X42050D01*
X43850Y132100D01*
X29250Y152000D02*
Y197250D01*
X28750Y197750D02*
X29250Y197250D01*
Y152000D02*
X35750Y145500D01*
X54750D01*
X66750Y157500D01*
X69250D01*
X57000Y138500D02*
X62750Y144250D01*
X57000Y119850D02*
Y138500D01*
X68750Y377100D02*
X74425Y371425D01*
X75106Y370744D01*
X77150Y368700D01*
X74698Y365527D02*
X77150Y367979D01*
X74698Y364806D02*
X76381Y363123D01*
X77102D02*
X79915Y365935D01*
X82727Y368748D01*
X83448D02*
X85131Y367065D01*
X82319Y363531D02*
X85131Y366344D01*
X79506Y360719D02*
X82319Y363531D01*
X79506Y359997D02*
X81189Y358315D01*
X81910D02*
X84362Y360766D01*
X85084D02*
X85925Y359925D01*
X68750Y351700D02*
X82350Y338100D01*
X84854Y335596D01*
X85575D02*
X88143Y338164D01*
X88865D02*
X90548Y336481D01*
X87619Y332831D02*
X90548Y335760D01*
X86216Y331428D02*
X87619Y332831D01*
X86216Y330707D02*
X87899Y329024D01*
X88620D02*
X90023Y330427D01*
X92952Y333356D01*
X93673D02*
X95356Y331673D01*
X92427Y328023D02*
X95356Y330952D01*
X91025Y326620D02*
X92427Y328023D01*
X91025Y325899D02*
X92707Y324216D01*
X93429D02*
X94831Y325619D01*
X97760Y328548D01*
X98481D02*
X100164Y326865D01*
X97235Y323215D02*
X100164Y326143D01*
X95833Y321812D02*
X97235Y323215D01*
X95833Y321091D02*
X97516Y319408D01*
X98237D02*
X99640Y320810D01*
X102568Y323739D01*
X103290D02*
X104972Y322056D01*
X102404Y318767D02*
X104972Y321335D01*
X102404Y318046D02*
X104448Y316002D01*
X105650Y314800D01*
X43350Y374150D02*
X55000Y362500D01*
Y347000D02*
Y362500D01*
Y347000D02*
X62500Y339500D01*
X73000D01*
X101765Y248494D02*
Y252250D01*
Y257860D02*
Y263250D01*
X100745Y254460D02*
Y256840D01*
X101765Y252250D02*
Y253440D01*
Y248494D02*
X109499Y240760D01*
X87000Y249303D02*
X103131Y233172D01*
X87000Y265113D02*
Y280000D01*
X87510Y264603D02*
X91117D01*
X91627Y261713D02*
Y264093D01*
X87000Y261203D02*
X91117D01*
X86163D02*
X87000D01*
X85653Y258313D02*
Y260693D01*
X86163Y257803D02*
X87000D01*
X91117D01*
X91627Y254913D02*
Y257293D01*
X87510Y254403D02*
X91117D01*
X87000Y251003D02*
Y253893D01*
Y249303D02*
Y251003D01*
X56625Y321875D02*
X63750Y314750D01*
X56625Y321875D02*
Y338425D01*
X43350Y351700D02*
X56625Y338425D01*
X115707Y214280D02*
Y214593D01*
X83972Y192778D02*
X87100Y195905D01*
X51526Y160332D02*
X56597Y165403D01*
X82202Y191007D02*
X83972Y192778D01*
X82202Y190286D02*
X84493Y187994D01*
X82810Y185590D02*
X84493Y187273D01*
X79437Y188242D02*
X82089Y185590D01*
X76785Y190895D02*
X79437Y188242D01*
X74380Y189212D02*
X76063Y190895D01*
X74380Y188490D02*
X77033Y185838D01*
X79685Y183186D01*
X78002Y180781D02*
X79685Y182464D01*
X74629Y183434D02*
X77281Y180781D01*
X71976Y186086D02*
X74629Y183434D01*
X69572Y184403D02*
X71255Y186086D01*
X69572Y183682D02*
X72224Y181030D01*
X74877Y178377D01*
X73194Y175973D02*
X74877Y177656D01*
X69820Y178626D02*
X72473Y175973D01*
X67168Y181278D02*
X69820Y178626D01*
X64764Y179595D02*
X66447Y181278D01*
X64764Y178874D02*
X67416Y176221D01*
X70068Y173569D01*
X68386Y171165D02*
X70068Y172848D01*
X65012Y173817D02*
X67664Y171165D01*
X62359Y176470D02*
X65012Y173817D01*
X59955Y174787D02*
X61638Y176470D01*
X59955Y174065D02*
X62608Y171413D01*
X64975Y169046D01*
X63292Y166642D02*
X64975Y168325D01*
X60204Y169009D02*
X62571Y166642D01*
X57551Y171661D02*
X60204Y169009D01*
X55147Y169978D02*
X56830Y171661D01*
X55147Y169257D02*
X57439Y166965D01*
X56597Y165403D02*
X57439Y166244D01*
X89800Y180410D02*
Y186750D01*
X90310Y179900D02*
X90875D01*
X91385Y177010D02*
Y179390D01*
X89800Y176500D02*
X90875D01*
X85895D02*
X89800D01*
X85385Y173610D02*
Y175990D01*
X85895Y173100D02*
X89800D01*
X90875D01*
X91385Y170210D02*
Y172590D01*
X89800Y169700D02*
X90875D01*
X85895D02*
X89800D01*
X85385Y166810D02*
Y169190D01*
X85895Y166300D02*
X89800D01*
X90875D01*
X91385Y163410D02*
Y165790D01*
X90310Y162900D02*
X90875D01*
X89800Y157800D02*
Y159500D01*
X43850Y106700D02*
X57000Y119850D01*
X99077Y122327D02*
X100000Y123250D01*
X97034Y120283D02*
X99077Y122327D01*
X93562Y123034D02*
X96312Y120283D01*
X91158Y121351D02*
X92841Y123034D01*
X91158Y120629D02*
X94269Y117519D01*
X97379Y114408D01*
X95696Y112004D02*
X97379Y113687D01*
X91865Y115115D02*
X94975Y112004D01*
X88754Y118225D02*
X91865Y115115D01*
X86350Y116542D02*
X88033Y118225D01*
X86350Y115821D02*
X89460Y112710D01*
X92571Y109600D01*
X90888Y107196D02*
X92571Y108878D01*
X87417Y109946D02*
X90167Y107196D01*
X84652Y107902D02*
X86696Y109946D01*
X83450Y106700D02*
X84652Y107902D01*
X69250Y106700D02*
X83450D01*
X83300Y81300D02*
X85000Y83000D01*
X89207Y87207D02*
X91000Y89000D01*
X84039Y91174D02*
X88005Y87207D01*
X81635Y89972D02*
X82837Y91174D01*
X81635Y88770D02*
X85601Y84803D01*
X85000Y83000D02*
X85601Y83601D01*
X69250Y81300D02*
X83300D01*
X109499Y240760D02*
X109812D01*
X106397Y237063D02*
X106710D01*
X103131Y233172D02*
X103444D01*
X116030Y248543D02*
X116343D01*
X43350Y374150D02*
Y377100D01*
X46682Y160332D02*
X51526D01*
X43850Y157500D02*
X46682Y160332D01*
X119295Y252435D02*
X119608D01*
X76305Y322750D02*
X76500D01*
X72755Y326300D02*
X76305Y322750D01*
X68750Y326300D02*
X72755D01*
X62500Y119250D02*
X74500D01*
X57750Y114500D02*
X62500Y119250D01*
X57750Y95200D02*
Y114500D01*
X43850Y81300D02*
X57750Y95200D01*
X69250Y106700D02*
X72082Y103868D01*
X68750Y400000D02*
X191000Y277750D01*
X68750Y400000D02*
Y402500D01*
D71*
X175250Y90750D02*
X183000D01*
X211250Y57251D02*
X211751Y56750D01*
X227750D01*
X192750Y84500D02*
Y90750D01*
X192750Y90750D02*
X192750Y90750D01*
X183000Y90750D02*
X192750D01*
X182250Y71500D02*
X188000D01*
X181250Y72500D02*
X182250Y71500D01*
D72*
X153251Y186250D02*
Y186382D01*
Y186250D02*
X158251Y181250D01*
D73*
X68750Y275500D02*
D03*
X69250Y30500D02*
D03*
D74*
X43350Y275500D02*
D03*
X68750Y300900D02*
D03*
X43350D02*
D03*
X68750Y326300D02*
D03*
X43350D02*
D03*
X68750Y351700D02*
D03*
X43350D02*
D03*
X68750Y377100D02*
D03*
X43350D02*
D03*
X68750Y402500D02*
D03*
X43350D02*
D03*
X43850Y30500D02*
D03*
X69250Y55900D02*
D03*
X43850D02*
D03*
X69250Y81300D02*
D03*
X43850D02*
D03*
X69250Y106700D02*
D03*
X43850D02*
D03*
X69250Y132100D02*
D03*
X43850D02*
D03*
X69250Y157500D02*
D03*
X43850D02*
D03*
D75*
X175250Y90750D02*
D03*
X16250Y217250D02*
D03*
X84500Y210750D02*
D03*
X238953Y248178D02*
D03*
X151369Y205381D02*
D03*
X173250Y240000D02*
D03*
X153500Y210750D02*
D03*
X82500Y217750D02*
D03*
D76*
X114250Y135250D02*
D03*
X286750Y247850D02*
D03*
X120000Y268500D02*
D03*
X109000Y248250D02*
D03*
X42250Y230000D02*
D03*
X53750Y242500D02*
D03*
X18363Y210637D02*
D03*
X119500Y297750D02*
D03*
X158750Y253384D02*
D03*
X167500Y225500D02*
D03*
X162000Y204750D02*
D03*
X131000Y193250D02*
D03*
X153251Y186382D02*
D03*
D77*
X174500Y197750D02*
D03*
X132750Y218250D02*
D03*
X138750Y225250D02*
D03*
X145000Y232000D02*
D03*
X126000Y224000D02*
D03*
X131250Y231250D02*
D03*
X138000Y237750D02*
D03*
X131250Y243000D02*
D03*
X125250Y236750D02*
D03*
X119750Y230000D02*
D03*
X168000Y189500D02*
D03*
X189000Y247750D02*
D03*
X109750Y34750D02*
D03*
X331250Y144500D02*
D03*
X350250Y145000D02*
D03*
X318750Y165000D02*
D03*
X308500Y164500D02*
D03*
X301300Y216750D02*
D03*
X113000Y180500D02*
D03*
X384250Y156750D02*
D03*
X355500Y255750D02*
D03*
X306500Y237500D02*
D03*
X310500Y254250D02*
D03*
X219750Y273250D02*
D03*
X229000Y274750D02*
D03*
X238500Y272000D02*
D03*
X183000Y262500D02*
D03*
X175750Y270000D02*
D03*
X116750Y171500D02*
D03*
X129250Y156000D02*
D03*
X142750Y156000D02*
D03*
X158250Y155000D02*
D03*
X155500Y119500D02*
D03*
X171000Y119250D02*
D03*
X243000Y81750D02*
D03*
X233750Y81500D02*
D03*
X227750Y56750D02*
D03*
X192750Y84500D02*
D03*
X188000Y71500D02*
D03*
M02*
