G04*
G04 #@! TF.GenerationSoftware,Altium Limited,Altium Designer,19.1.7 (138)*
G04*
G04 Layer_Color=2752767*
%FSLAX44Y44*%
%MOMM*%
G71*
G01*
G75*
%ADD87C,0.0508*%
%ADD88C,0.0677*%
D87*
X66718Y273468D02*
Y277532D01*
X70782D01*
Y273468D01*
X66718D01*
X41318D02*
Y277532D01*
X45382D01*
Y273468D01*
X41318D01*
X66718Y298868D02*
Y302932D01*
X70782D01*
Y298868D01*
X66718D01*
X41318D02*
Y302932D01*
X45382D01*
Y298868D01*
X41318D01*
X66718Y324268D02*
Y328332D01*
X70782D01*
Y324268D01*
X66718D01*
X41318D02*
Y328332D01*
X45382D01*
Y324268D01*
X41318D01*
X66718Y349668D02*
Y353732D01*
X70782D01*
Y349668D01*
X66718D01*
X41318D02*
Y353732D01*
X45382D01*
Y349668D01*
X41318D01*
X66718Y375068D02*
Y379132D01*
X70782D01*
Y375068D01*
X66718D01*
X41318D02*
Y379132D01*
X45382D01*
Y375068D01*
X41318D01*
X66718Y400468D02*
Y404532D01*
X70782D01*
Y400468D01*
X66718D01*
X41318D02*
Y404532D01*
X45382D01*
Y400468D01*
X41318D01*
X67218Y28468D02*
Y32532D01*
X71282D01*
Y28468D01*
X67218D01*
X41818D02*
Y32532D01*
X45882D01*
Y28468D01*
X41818D01*
X67218Y53868D02*
Y57932D01*
X71282D01*
Y53868D01*
X67218D01*
X41818D02*
Y57932D01*
X45882D01*
Y53868D01*
X41818D01*
X67218Y79268D02*
Y83332D01*
X71282D01*
Y79268D01*
X67218D01*
X41818D02*
Y83332D01*
X45882D01*
Y79268D01*
X41818D01*
X67218Y104668D02*
Y108732D01*
X71282D01*
Y104668D01*
X67218D01*
X41818D02*
Y108732D01*
X45882D01*
Y104668D01*
X41818D01*
X67218Y130068D02*
Y134132D01*
X71282D01*
Y130068D01*
X67218D01*
X41818D02*
Y134132D01*
X45882D01*
Y130068D01*
X41818D01*
X67218Y155468D02*
Y159532D01*
X71282D01*
Y155468D01*
X67218D01*
X41818D02*
Y159532D01*
X45882D01*
Y155468D01*
X41818D01*
X114250Y133218D02*
X112218Y137282D01*
X116282D01*
X114250Y133218D01*
X286750Y245818D02*
X284718Y249882D01*
X288782D01*
X286750Y245818D01*
X120000Y266468D02*
X117968Y270532D01*
X122032D01*
X120000Y266468D01*
X109000Y246218D02*
X106968Y250282D01*
X111032D01*
X109000Y246218D01*
X42250Y227968D02*
X40218Y232032D01*
X44282D01*
X42250Y227968D01*
X53750Y240468D02*
X51718Y244532D01*
X55782D01*
X53750Y240468D01*
X18363Y208605D02*
X16331Y212669D01*
X20395D01*
X18363Y208605D01*
X119500Y295718D02*
X117468Y299782D01*
X121532D01*
X119500Y295718D01*
X158750Y251352D02*
X156718Y255416D01*
X160782D01*
X158750Y251352D01*
X167500Y223468D02*
X165468Y227532D01*
X169532D01*
X167500Y223468D01*
X162000Y202718D02*
X163016Y203734D01*
X164032D01*
X163016Y204750D01*
X164032Y205766D01*
X163016D01*
X162000Y206782D01*
X160984Y205766D01*
X159968D01*
X160984Y204750D01*
X159968Y203734D01*
X160984D01*
X162000Y202718D01*
X131000Y191218D02*
X132016Y192234D01*
X133032D01*
X132016Y193250D01*
X133032Y194266D01*
X132016D01*
X131000Y195282D01*
X129984Y194266D01*
X128968D01*
X129984Y193250D01*
X128968Y192234D01*
X129984D01*
X131000Y191218D01*
X153251Y184350D02*
X154267Y185366D01*
X155283D01*
X154267Y186382D01*
X155283Y187398D01*
X154267D01*
X153251Y188414D01*
X152235Y187398D01*
X151219D01*
X152235Y186382D01*
X151219Y185366D01*
X152235D01*
X153251Y184350D01*
X172468Y195718D02*
X173484Y197750D01*
X172468Y199782D01*
X174500Y198766D01*
X176532Y199782D01*
X175516Y197750D01*
X176532Y195718D01*
X174500Y196734D01*
X172468Y195718D01*
X130718Y216218D02*
X131734Y218250D01*
X130718Y220282D01*
X132750Y219266D01*
X134782Y220282D01*
X133766Y218250D01*
X134782Y216218D01*
X132750Y217234D01*
X130718Y216218D01*
X136718Y223218D02*
X137734Y225250D01*
X136718Y227282D01*
X138750Y226266D01*
X140782Y227282D01*
X139766Y225250D01*
X140782Y223218D01*
X138750Y224234D01*
X136718Y223218D01*
X142968Y229968D02*
X143984Y232000D01*
X142968Y234032D01*
X145000Y233016D01*
X147032Y234032D01*
X146016Y232000D01*
X147032Y229968D01*
X145000Y230984D01*
X142968Y229968D01*
X123968Y221968D02*
X124984Y224000D01*
X123968Y226032D01*
X126000Y225016D01*
X128032Y226032D01*
X127016Y224000D01*
X128032Y221968D01*
X126000Y222984D01*
X123968Y221968D01*
X129218Y229218D02*
X130234Y231250D01*
X129218Y233282D01*
X131250Y232266D01*
X133282Y233282D01*
X132266Y231250D01*
X133282Y229218D01*
X131250Y230234D01*
X129218Y229218D01*
X135968Y235718D02*
X136984Y237750D01*
X135968Y239782D01*
X138000Y238766D01*
X140032Y239782D01*
X139016Y237750D01*
X140032Y235718D01*
X138000Y236734D01*
X135968Y235718D01*
X129218Y240968D02*
X130234Y243000D01*
X129218Y245032D01*
X131250Y244016D01*
X133282Y245032D01*
X132266Y243000D01*
X133282Y240968D01*
X131250Y241984D01*
X129218Y240968D01*
X123218Y234718D02*
X124234Y236750D01*
X123218Y238782D01*
X125250Y237766D01*
X127282Y238782D01*
X126266Y236750D01*
X127282Y234718D01*
X125250Y235734D01*
X123218Y234718D01*
X117718Y227968D02*
X118734Y230000D01*
X117718Y232032D01*
X119750Y231016D01*
X121782Y232032D01*
X120766Y230000D01*
X121782Y227968D01*
X119750Y228984D01*
X117718Y227968D01*
X382218Y154718D02*
X383234Y156750D01*
X382218Y158782D01*
X384250Y157766D01*
X386282Y158782D01*
X385266Y156750D01*
X386282Y154718D01*
X384250Y155734D01*
X382218Y154718D01*
X353468Y253718D02*
X354484Y255750D01*
X353468Y257782D01*
X355500Y256766D01*
X357532Y257782D01*
X356516Y255750D01*
X357532Y253718D01*
X355500Y254734D01*
X353468Y253718D01*
X304468Y235468D02*
X305484Y237500D01*
X304468Y239532D01*
X306500Y238516D01*
X308532Y239532D01*
X307516Y237500D01*
X308532Y235468D01*
X306500Y236484D01*
X304468Y235468D01*
X308468Y252218D02*
X309484Y254250D01*
X308468Y256282D01*
X310500Y255266D01*
X312532Y256282D01*
X311516Y254250D01*
X312532Y252218D01*
X310500Y253234D01*
X308468Y252218D01*
X217718Y271218D02*
X218734Y273250D01*
X217718Y275282D01*
X219750Y274266D01*
X221782Y275282D01*
X220766Y273250D01*
X221782Y271218D01*
X219750Y272234D01*
X217718Y271218D01*
X226968Y272718D02*
X227984Y274750D01*
X226968Y276782D01*
X229000Y275766D01*
X231032Y276782D01*
X230016Y274750D01*
X231032Y272718D01*
X229000Y273734D01*
X226968Y272718D01*
X236468Y269968D02*
X237484Y272000D01*
X236468Y274032D01*
X238500Y273016D01*
X240532Y274032D01*
X239516Y272000D01*
X240532Y269968D01*
X238500Y270984D01*
X236468Y269968D01*
X180968Y260468D02*
X181984Y262500D01*
X180968Y264532D01*
X183000Y263516D01*
X185032Y264532D01*
X184016Y262500D01*
X185032Y260468D01*
X183000Y261484D01*
X180968Y260468D01*
X173718Y267968D02*
X174734Y270000D01*
X173718Y272032D01*
X175750Y271016D01*
X177782Y272032D01*
X176766Y270000D01*
X177782Y267968D01*
X175750Y268984D01*
X173718Y267968D01*
X114718Y169468D02*
X115734Y171500D01*
X114718Y173532D01*
X116750Y172516D01*
X118782Y173532D01*
X117766Y171500D01*
X118782Y169468D01*
X116750Y170484D01*
X114718Y169468D01*
X127218Y153968D02*
X128234Y156000D01*
X127218Y158032D01*
X129250Y157016D01*
X131282Y158032D01*
X130266Y156000D01*
X131282Y153968D01*
X129250Y154984D01*
X127218Y153968D01*
X140718Y153968D02*
X141734Y156000D01*
X140718Y158032D01*
X142750Y157016D01*
X144782Y158032D01*
X143766Y156000D01*
X144782Y153968D01*
X142750Y154984D01*
X140718Y153968D01*
X156218Y152968D02*
X157234Y155000D01*
X156218Y157032D01*
X158250Y156016D01*
X160282Y157032D01*
X159266Y155000D01*
X160282Y152968D01*
X158250Y153984D01*
X156218Y152968D01*
X153468Y117468D02*
X154484Y119500D01*
X153468Y121532D01*
X155500Y120516D01*
X157532Y121532D01*
X156516Y119500D01*
X157532Y117468D01*
X155500Y118484D01*
X153468Y117468D01*
X168968Y117218D02*
X169984Y119250D01*
X168968Y121282D01*
X171000Y120266D01*
X173032Y121282D01*
X172016Y119250D01*
X173032Y117218D01*
X171000Y118234D01*
X168968Y117218D01*
X240968Y79718D02*
X241984Y81750D01*
X240968Y83782D01*
X243000Y82766D01*
X245032Y83782D01*
X244016Y81750D01*
X245032Y79718D01*
X243000Y80734D01*
X240968Y79718D01*
X231718Y79468D02*
X232734Y81500D01*
X231718Y83532D01*
X233750Y82516D01*
X235782Y83532D01*
X234766Y81500D01*
X235782Y79468D01*
X233750Y80484D01*
X231718Y79468D01*
X225718Y54718D02*
X226734Y56750D01*
X225718Y58782D01*
X227750Y57766D01*
X229782Y58782D01*
X228766Y56750D01*
X229782Y54718D01*
X227750Y55734D01*
X225718Y54718D01*
X190718Y82468D02*
X191734Y84500D01*
X190718Y86532D01*
X192750Y85516D01*
X194782Y86532D01*
X193766Y84500D01*
X194782Y82468D01*
X192750Y83484D01*
X190718Y82468D01*
X185968Y69468D02*
X186984Y71500D01*
X185968Y73532D01*
X188000Y72516D01*
X190032Y73532D01*
X189016Y71500D01*
X190032Y69468D01*
X188000Y70484D01*
X185968Y69468D01*
D88*
X177282Y90750D02*
G03*
X177282Y90750I-2032J0D01*
G01*
X18282Y217250D02*
G03*
X18282Y217250I-2032J0D01*
G01*
X86532Y210750D02*
G03*
X86532Y210750I-2032J0D01*
G01*
X240985Y248178D02*
G03*
X240985Y248178I-2032J0D01*
G01*
X153401Y205381D02*
G03*
X153401Y205381I-2032J0D01*
G01*
X175282Y240000D02*
G03*
X175282Y240000I-2032J0D01*
G01*
X155532Y210750D02*
G03*
X155532Y210750I-2032J0D01*
G01*
X84532Y217750D02*
G03*
X84532Y217750I-2032J0D01*
G01*
X170032Y189500D02*
G03*
X170032Y189500I-2032J0D01*
G01*
X191032Y247750D02*
G03*
X191032Y247750I-2032J0D01*
G01*
X111782Y34750D02*
G03*
X111782Y34750I-2032J0D01*
G01*
X333282Y144500D02*
G03*
X333282Y144500I-2032J0D01*
G01*
X352282Y145000D02*
G03*
X352282Y145000I-2032J0D01*
G01*
X320782Y165000D02*
G03*
X320782Y165000I-2032J0D01*
G01*
X310532Y164500D02*
G03*
X310532Y164500I-2032J0D01*
G01*
X303332Y216750D02*
G03*
X303332Y216750I-2032J0D01*
G01*
X115032Y180500D02*
G03*
X115032Y180500I-2032J0D01*
G01*
M02*
