G04*
G04 #@! TF.GenerationSoftware,Altium Limited,Altium Designer,19.1.7 (138)*
G04*
G04 Layer_Color=8388736*
%FSLAX44Y44*%
%MOMM*%
G71*
G01*
G75*
%ADD38R,1.5240X0.4572*%
%ADD42R,1.0032X1.0032*%
%ADD43R,0.8032X1.0532*%
%ADD44R,0.8032X1.6032*%
%ADD45R,0.8032X2.0032*%
%ADD46R,0.8432X0.8532*%
%ADD47R,1.0032X1.0032*%
%ADD48R,0.8532X0.8432*%
%ADD49R,1.6032X0.6532*%
%ADD50R,0.9032X0.8032*%
%ADD51R,5.1032X1.8032*%
%ADD52R,2.5532X0.9032*%
%ADD53R,0.8032X0.9032*%
%ADD54C,1.2032*%
G04:AMPARAMS|DCode=55|XSize=0.8532mm|YSize=0.8432mm|CornerRadius=0mm|HoleSize=0mm|Usage=FLASHONLY|Rotation=320.000|XOffset=0mm|YOffset=0mm|HoleType=Round|Shape=Rectangle|*
%AMROTATEDRECTD55*
4,1,4,-0.5978,-0.0488,-0.0558,0.5972,0.5978,0.0488,0.0558,-0.5972,-0.5978,-0.0488,0.0*
%
%ADD55ROTATEDRECTD55*%

%ADD56R,1.0532X0.8032*%
G04:AMPARAMS|DCode=57|XSize=0.8532mm|YSize=0.8432mm|CornerRadius=0mm|HoleSize=0mm|Usage=FLASHONLY|Rotation=230.000|XOffset=0mm|YOffset=0mm|HoleType=Round|Shape=Rectangle|*
%AMROTATEDRECTD57*
4,1,4,-0.0488,0.5978,0.5972,0.0558,0.0488,-0.5978,-0.5972,-0.0558,-0.0488,0.5978,0.0*
%
%ADD57ROTATEDRECTD57*%

%ADD58P,1.4187X4X175.0*%
G04:AMPARAMS|DCode=59|XSize=0.8532mm|YSize=0.8432mm|CornerRadius=0mm|HoleSize=0mm|Usage=FLASHONLY|Rotation=130.000|XOffset=0mm|YOffset=0mm|HoleType=Round|Shape=Rectangle|*
%AMROTATEDRECTD59*
4,1,4,0.5972,-0.0558,-0.0488,-0.5978,-0.5972,0.0558,0.0488,0.5978,0.5972,-0.0558,0.0*
%
%ADD59ROTATEDRECTD59*%

%ADD60R,1.7232X0.6432*%
G04:AMPARAMS|DCode=61|XSize=0.8532mm|YSize=0.8432mm|CornerRadius=0mm|HoleSize=0mm|Usage=FLASHONLY|Rotation=40.000|XOffset=0mm|YOffset=0mm|HoleType=Round|Shape=Rectangle|*
%AMROTATEDRECTD61*
4,1,4,-0.0558,-0.5972,-0.5978,0.0488,0.0558,0.5972,0.5978,-0.0488,-0.0558,-0.5972,0.0*
%
%ADD61ROTATEDRECTD61*%

G04:AMPARAMS|DCode=62|XSize=1.016mm|YSize=0.508mm|CornerRadius=0mm|HoleSize=0mm|Usage=FLASHONLY|Rotation=230.000|XOffset=0mm|YOffset=0mm|HoleType=Round|Shape=Rectangle|*
%AMROTATEDRECTD62*
4,1,4,0.1320,0.5524,0.5211,0.2259,-0.1320,-0.5524,-0.5211,-0.2259,0.1320,0.5524,0.0*
%
%ADD62ROTATEDRECTD62*%

G04:AMPARAMS|DCode=63|XSize=1.016mm|YSize=0.508mm|CornerRadius=0mm|HoleSize=0mm|Usage=FLASHONLY|Rotation=320.000|XOffset=0mm|YOffset=0mm|HoleType=Round|Shape=Rectangle|*
%AMROTATEDRECTD63*
4,1,4,-0.5524,0.1320,-0.2259,0.5211,0.5524,-0.1320,0.2259,-0.5211,-0.5524,0.1320,0.0*
%
%ADD63ROTATEDRECTD63*%

%ADD64P,4.8853X4X275.0*%
%ADD65R,1.8532X1.8532*%
%ADD66C,1.8532*%
%ADD67C,0.5532*%
%ADD68C,0.7032*%
%ADD69C,0.6032*%
G36*
X359883Y215259D02*
X360014Y215233D01*
X360140Y215191D01*
X360259Y215132D01*
X360370Y215058D01*
X360470Y214970D01*
X366970Y208470D01*
X367058Y208370D01*
X367132Y208259D01*
X367191Y208140D01*
X367234Y208013D01*
X367259Y207883D01*
X367268Y207750D01*
Y188750D01*
X367259Y188617D01*
X367234Y188486D01*
X367191Y188360D01*
X367132Y188241D01*
X367058Y188130D01*
X366970Y188030D01*
X360470Y181530D01*
X360370Y181442D01*
X360259Y181368D01*
X360140Y181309D01*
X360014Y181266D01*
X359883Y181241D01*
X359750Y181232D01*
X353750D01*
X353617Y181241D01*
X353487Y181266D01*
X353360Y181309D01*
X353241Y181368D01*
X353130Y181442D01*
X353030Y181530D01*
X346530Y188030D01*
X346442Y188130D01*
X346368Y188241D01*
X346309Y188360D01*
X346267Y188486D01*
X346241Y188617D01*
X346232Y188750D01*
Y207750D01*
X346241Y207883D01*
X346267Y208013D01*
X346309Y208140D01*
X346368Y208259D01*
X346442Y208370D01*
X346530Y208470D01*
X353030Y214970D01*
X353130Y215058D01*
X353241Y215132D01*
X353360Y215191D01*
X353487Y215233D01*
X353617Y215259D01*
X353750Y215268D01*
X359750D01*
X359883Y215259D01*
D02*
G37*
D38*
X167197Y63000D02*
D03*
Y69500D02*
D03*
Y76000D02*
D03*
Y82500D02*
D03*
X126303D02*
D03*
Y76000D02*
D03*
Y69500D02*
D03*
Y63000D02*
D03*
D42*
X117001Y161750D02*
D03*
Y144250D02*
D03*
X205001Y99500D02*
D03*
Y82000D02*
D03*
X220999Y82250D02*
D03*
Y99750D02*
D03*
X158251Y163750D02*
D03*
Y181250D02*
D03*
X142499Y163750D02*
D03*
Y181250D02*
D03*
X171001Y146500D02*
D03*
Y129000D02*
D03*
X172751Y181250D02*
D03*
Y163750D02*
D03*
X109751Y43000D02*
D03*
Y60500D02*
D03*
D43*
X331250Y153500D02*
D03*
X350250D02*
D03*
X340750Y177500D02*
D03*
D44*
X371750Y225250D02*
D03*
X341750D02*
D03*
D45*
X356750Y223250D02*
D03*
D46*
X318500Y171500D02*
D03*
Y180500D02*
D03*
X326250Y223750D02*
D03*
Y214750D02*
D03*
X316750Y223750D02*
D03*
Y214750D02*
D03*
X307500Y223750D02*
D03*
Y214750D02*
D03*
X308500Y171500D02*
D03*
Y180500D02*
D03*
X183000Y90750D02*
D03*
Y99750D02*
D03*
X192750Y90750D02*
D03*
Y99750D02*
D03*
X243000Y91250D02*
D03*
Y100250D02*
D03*
X233500Y91250D02*
D03*
Y100250D02*
D03*
X219750Y263750D02*
D03*
Y254750D02*
D03*
X238500Y254250D02*
D03*
Y263250D02*
D03*
X181500Y218000D02*
D03*
Y209000D02*
D03*
X129500Y166500D02*
D03*
Y175500D02*
D03*
X181250Y72500D02*
D03*
Y81500D02*
D03*
D47*
X344249Y241999D02*
D03*
X326749D02*
D03*
X219249Y242249D02*
D03*
X201749D02*
D03*
X216250Y185499D02*
D03*
X198750D02*
D03*
X193750Y57251D02*
D03*
X211250D02*
D03*
X26500Y242251D02*
D03*
X44000D02*
D03*
D48*
X24500Y230000D02*
D03*
X33500D02*
D03*
X309250Y193250D02*
D03*
X318250D02*
D03*
X302250Y254250D02*
D03*
X293250D02*
D03*
X202000Y198500D02*
D03*
X211000D02*
D03*
X203750Y228750D02*
D03*
X212750D02*
D03*
X177000Y230250D02*
D03*
X186000D02*
D03*
D49*
X72750Y217250D02*
D03*
Y210750D02*
D03*
Y204250D02*
D03*
Y197750D02*
D03*
X28750D02*
D03*
Y204250D02*
D03*
Y210750D02*
D03*
Y217250D02*
D03*
D50*
X320500Y204000D02*
D03*
X309500D02*
D03*
X221000Y159250D02*
D03*
X210000D02*
D03*
X221250Y169750D02*
D03*
X210250D02*
D03*
X213000Y208750D02*
D03*
X224000D02*
D03*
X213250Y218750D02*
D03*
X224250D02*
D03*
X192250Y208250D02*
D03*
X203250D02*
D03*
X192250Y218250D02*
D03*
X203250D02*
D03*
X178250Y241000D02*
D03*
X189250D02*
D03*
D51*
X384250Y170750D02*
D03*
Y255750D02*
D03*
D52*
X400000Y213250D02*
D03*
D53*
X267000Y159750D02*
D03*
Y148750D02*
D03*
X257000Y159750D02*
D03*
Y148750D02*
D03*
X229000Y265750D02*
D03*
Y254750D02*
D03*
D54*
X252000Y270250D02*
D03*
X293250Y269500D02*
D03*
X187500Y146750D02*
D03*
X167500Y45250D02*
D03*
D55*
X156053Y200392D02*
D03*
X162947Y194608D02*
D03*
X163303Y208892D02*
D03*
X170197Y203107D02*
D03*
D56*
X131250Y138000D02*
D03*
X155250Y146900D02*
D03*
Y129100D02*
D03*
D57*
X124143Y193197D02*
D03*
X118357Y186303D02*
D03*
D58*
X136124Y279297D02*
D03*
X124875Y292703D02*
D03*
D59*
X126643Y272553D02*
D03*
X120857Y279447D02*
D03*
D60*
X292900Y184700D02*
D03*
Y191100D02*
D03*
Y197500D02*
D03*
Y203900D02*
D03*
Y210300D02*
D03*
Y216700D02*
D03*
Y223100D02*
D03*
Y229500D02*
D03*
Y235900D02*
D03*
Y242300D02*
D03*
X238600D02*
D03*
Y235900D02*
D03*
Y229500D02*
D03*
Y223100D02*
D03*
Y216700D02*
D03*
Y210300D02*
D03*
Y203900D02*
D03*
Y197500D02*
D03*
Y191100D02*
D03*
Y184700D02*
D03*
D61*
X169803Y251108D02*
D03*
X176697Y256893D02*
D03*
X163303Y259107D02*
D03*
X170197Y264893D02*
D03*
D62*
X161773Y238275D02*
D03*
X157881Y241540D02*
D03*
X154184Y244642D02*
D03*
X150293Y247907D02*
D03*
X146401Y251173D02*
D03*
X142510Y254438D02*
D03*
X138813Y257540D02*
D03*
X134922Y260806D02*
D03*
X104227Y224225D02*
D03*
X108119Y220960D02*
D03*
X111816Y217858D02*
D03*
X115707Y214593D02*
D03*
X119599Y211327D02*
D03*
X123490Y208062D02*
D03*
X127187Y204960D02*
D03*
X131079Y201695D02*
D03*
D63*
X125975Y260023D02*
D03*
X122710Y256131D02*
D03*
X119608Y252435D02*
D03*
X116343Y248543D02*
D03*
X113077Y244652D02*
D03*
X109812Y240760D02*
D03*
X106710Y237063D02*
D03*
X103444Y233172D02*
D03*
X140025Y202477D02*
D03*
X143290Y206369D02*
D03*
X146392Y210066D02*
D03*
X149657Y213957D02*
D03*
X152923Y217849D02*
D03*
X156188Y221740D02*
D03*
X159290Y225437D02*
D03*
X162556Y229328D02*
D03*
D64*
X133000Y231250D02*
D03*
D65*
X68750Y275500D02*
D03*
X69250Y30500D02*
D03*
D66*
X43350Y275500D02*
D03*
X68750Y300900D02*
D03*
X43350D02*
D03*
X68750Y326300D02*
D03*
X43350D02*
D03*
X68750Y351700D02*
D03*
X43350D02*
D03*
X68750Y377100D02*
D03*
X43350D02*
D03*
X68750Y402500D02*
D03*
X43350D02*
D03*
X43850Y30500D02*
D03*
X69250Y55900D02*
D03*
X43850D02*
D03*
X69250Y81300D02*
D03*
X43850D02*
D03*
X69250Y106700D02*
D03*
X43850D02*
D03*
X69250Y132100D02*
D03*
X43850D02*
D03*
X69250Y157500D02*
D03*
X43850D02*
D03*
D67*
X175250Y90750D02*
D03*
X16250Y217250D02*
D03*
X84500Y210750D02*
D03*
X238953Y248178D02*
D03*
X151369Y205381D02*
D03*
X173250Y240000D02*
D03*
X153500Y210750D02*
D03*
X82500Y217750D02*
D03*
D68*
X114250Y135250D02*
D03*
X286750Y247850D02*
D03*
X120000Y268500D02*
D03*
X109000Y248250D02*
D03*
X42250Y230000D02*
D03*
X53750Y242500D02*
D03*
X18363Y210637D02*
D03*
X119500Y297750D02*
D03*
X158750Y253384D02*
D03*
X167500Y225500D02*
D03*
X162000Y204750D02*
D03*
X131000Y193250D02*
D03*
X153251Y186382D02*
D03*
D69*
X174500Y197750D02*
D03*
X132750Y218250D02*
D03*
X138750Y225250D02*
D03*
X145000Y232000D02*
D03*
X126000Y224000D02*
D03*
X131250Y231250D02*
D03*
X138000Y237750D02*
D03*
X131250Y243000D02*
D03*
X125250Y236750D02*
D03*
X119750Y230000D02*
D03*
X168000Y189500D02*
D03*
X189000Y247750D02*
D03*
X109750Y34750D02*
D03*
X331250Y144500D02*
D03*
X350250Y145000D02*
D03*
X318750Y165000D02*
D03*
X308500Y164500D02*
D03*
X301300Y216750D02*
D03*
X113000Y180500D02*
D03*
X384250Y156750D02*
D03*
X355500Y255750D02*
D03*
X306500Y237500D02*
D03*
X310500Y254250D02*
D03*
X219750Y273250D02*
D03*
X229000Y274750D02*
D03*
X238500Y272000D02*
D03*
X183000Y262500D02*
D03*
X175750Y270000D02*
D03*
X116750Y171500D02*
D03*
X129250Y156000D02*
D03*
X142750Y156000D02*
D03*
X158250Y155000D02*
D03*
X155500Y119500D02*
D03*
X171000Y119250D02*
D03*
X243000Y81750D02*
D03*
X233750Y81500D02*
D03*
X227750Y56750D02*
D03*
X192750Y84500D02*
D03*
X188000Y71500D02*
D03*
M02*
