%TF.GenerationSoftware,KiCad,Pcbnew,8.0.4*%
%TF.CreationDate,2024-09-14T20:21:27+07:00*%
%TF.ProjectId,FT600_RP2040,46543630-305f-4525-9032-3034302e6b69,rev?*%
%TF.SameCoordinates,PX7735940PY61c06a0*%
%TF.FileFunction,Other,Comment*%
%FSLAX46Y46*%
G04 Gerber Fmt 4.6, Leading zero omitted, Abs format (unit mm)*
G04 Created by KiCad (PCBNEW 8.0.4) date 2024-09-14 20:21:27*
%MOMM*%
%LPD*%
G01*
G04 APERTURE LIST*
%ADD10C,0.150000*%
G04 APERTURE END LIST*
D10*
X14399997Y-3559580D02*
X14352378Y-3607200D01*
X14352378Y-3607200D02*
X14209521Y-3654819D01*
X14209521Y-3654819D02*
X14114283Y-3654819D01*
X14114283Y-3654819D02*
X13971426Y-3607200D01*
X13971426Y-3607200D02*
X13876188Y-3511961D01*
X13876188Y-3511961D02*
X13828569Y-3416723D01*
X13828569Y-3416723D02*
X13780950Y-3226247D01*
X13780950Y-3226247D02*
X13780950Y-3083390D01*
X13780950Y-3083390D02*
X13828569Y-2892914D01*
X13828569Y-2892914D02*
X13876188Y-2797676D01*
X13876188Y-2797676D02*
X13971426Y-2702438D01*
X13971426Y-2702438D02*
X14114283Y-2654819D01*
X14114283Y-2654819D02*
X14209521Y-2654819D01*
X14209521Y-2654819D02*
X14352378Y-2702438D01*
X14352378Y-2702438D02*
X14399997Y-2750057D01*
X14971426Y-3654819D02*
X14876188Y-3607200D01*
X14876188Y-3607200D02*
X14828569Y-3559580D01*
X14828569Y-3559580D02*
X14780950Y-3464342D01*
X14780950Y-3464342D02*
X14780950Y-3178628D01*
X14780950Y-3178628D02*
X14828569Y-3083390D01*
X14828569Y-3083390D02*
X14876188Y-3035771D01*
X14876188Y-3035771D02*
X14971426Y-2988152D01*
X14971426Y-2988152D02*
X15114283Y-2988152D01*
X15114283Y-2988152D02*
X15209521Y-3035771D01*
X15209521Y-3035771D02*
X15257140Y-3083390D01*
X15257140Y-3083390D02*
X15304759Y-3178628D01*
X15304759Y-3178628D02*
X15304759Y-3464342D01*
X15304759Y-3464342D02*
X15257140Y-3559580D01*
X15257140Y-3559580D02*
X15209521Y-3607200D01*
X15209521Y-3607200D02*
X15114283Y-3654819D01*
X15114283Y-3654819D02*
X14971426Y-3654819D01*
X15733331Y-2988152D02*
X15733331Y-3988152D01*
X15733331Y-3035771D02*
X15828569Y-2988152D01*
X15828569Y-2988152D02*
X16019045Y-2988152D01*
X16019045Y-2988152D02*
X16114283Y-3035771D01*
X16114283Y-3035771D02*
X16161902Y-3083390D01*
X16161902Y-3083390D02*
X16209521Y-3178628D01*
X16209521Y-3178628D02*
X16209521Y-3464342D01*
X16209521Y-3464342D02*
X16161902Y-3559580D01*
X16161902Y-3559580D02*
X16114283Y-3607200D01*
X16114283Y-3607200D02*
X16019045Y-3654819D01*
X16019045Y-3654819D02*
X15828569Y-3654819D01*
X15828569Y-3654819D02*
X15733331Y-3607200D01*
X16638093Y-2988152D02*
X16638093Y-3988152D01*
X16638093Y-3035771D02*
X16733331Y-2988152D01*
X16733331Y-2988152D02*
X16923807Y-2988152D01*
X16923807Y-2988152D02*
X17019045Y-3035771D01*
X17019045Y-3035771D02*
X17066664Y-3083390D01*
X17066664Y-3083390D02*
X17114283Y-3178628D01*
X17114283Y-3178628D02*
X17114283Y-3464342D01*
X17114283Y-3464342D02*
X17066664Y-3559580D01*
X17066664Y-3559580D02*
X17019045Y-3607200D01*
X17019045Y-3607200D02*
X16923807Y-3654819D01*
X16923807Y-3654819D02*
X16733331Y-3654819D01*
X16733331Y-3654819D02*
X16638093Y-3607200D01*
X17923807Y-3607200D02*
X17828569Y-3654819D01*
X17828569Y-3654819D02*
X17638093Y-3654819D01*
X17638093Y-3654819D02*
X17542855Y-3607200D01*
X17542855Y-3607200D02*
X17495236Y-3511961D01*
X17495236Y-3511961D02*
X17495236Y-3131009D01*
X17495236Y-3131009D02*
X17542855Y-3035771D01*
X17542855Y-3035771D02*
X17638093Y-2988152D01*
X17638093Y-2988152D02*
X17828569Y-2988152D01*
X17828569Y-2988152D02*
X17923807Y-3035771D01*
X17923807Y-3035771D02*
X17971426Y-3131009D01*
X17971426Y-3131009D02*
X17971426Y-3226247D01*
X17971426Y-3226247D02*
X17495236Y-3321485D01*
X18399998Y-3654819D02*
X18399998Y-2988152D01*
X18399998Y-3178628D02*
X18447617Y-3083390D01*
X18447617Y-3083390D02*
X18495236Y-3035771D01*
X18495236Y-3035771D02*
X18590474Y-2988152D01*
X18590474Y-2988152D02*
X18685712Y-2988152D01*
X19780951Y-3654819D02*
X19780951Y-2654819D01*
X20352379Y-3654819D02*
X19923808Y-3083390D01*
X20352379Y-2654819D02*
X19780951Y-3226247D01*
X21161903Y-3607200D02*
X21066665Y-3654819D01*
X21066665Y-3654819D02*
X20876189Y-3654819D01*
X20876189Y-3654819D02*
X20780951Y-3607200D01*
X20780951Y-3607200D02*
X20733332Y-3511961D01*
X20733332Y-3511961D02*
X20733332Y-3131009D01*
X20733332Y-3131009D02*
X20780951Y-3035771D01*
X20780951Y-3035771D02*
X20876189Y-2988152D01*
X20876189Y-2988152D02*
X21066665Y-2988152D01*
X21066665Y-2988152D02*
X21161903Y-3035771D01*
X21161903Y-3035771D02*
X21209522Y-3131009D01*
X21209522Y-3131009D02*
X21209522Y-3226247D01*
X21209522Y-3226247D02*
X20733332Y-3321485D01*
X22019046Y-3607200D02*
X21923808Y-3654819D01*
X21923808Y-3654819D02*
X21733332Y-3654819D01*
X21733332Y-3654819D02*
X21638094Y-3607200D01*
X21638094Y-3607200D02*
X21590475Y-3511961D01*
X21590475Y-3511961D02*
X21590475Y-3131009D01*
X21590475Y-3131009D02*
X21638094Y-3035771D01*
X21638094Y-3035771D02*
X21733332Y-2988152D01*
X21733332Y-2988152D02*
X21923808Y-2988152D01*
X21923808Y-2988152D02*
X22019046Y-3035771D01*
X22019046Y-3035771D02*
X22066665Y-3131009D01*
X22066665Y-3131009D02*
X22066665Y-3226247D01*
X22066665Y-3226247D02*
X21590475Y-3321485D01*
X22495237Y-2988152D02*
X22495237Y-3988152D01*
X22495237Y-3035771D02*
X22590475Y-2988152D01*
X22590475Y-2988152D02*
X22780951Y-2988152D01*
X22780951Y-2988152D02*
X22876189Y-3035771D01*
X22876189Y-3035771D02*
X22923808Y-3083390D01*
X22923808Y-3083390D02*
X22971427Y-3178628D01*
X22971427Y-3178628D02*
X22971427Y-3464342D01*
X22971427Y-3464342D02*
X22923808Y-3559580D01*
X22923808Y-3559580D02*
X22876189Y-3607200D01*
X22876189Y-3607200D02*
X22780951Y-3654819D01*
X22780951Y-3654819D02*
X22590475Y-3654819D01*
X22590475Y-3654819D02*
X22495237Y-3607200D01*
X23542856Y-3654819D02*
X23447618Y-3607200D01*
X23447618Y-3607200D02*
X23399999Y-3559580D01*
X23399999Y-3559580D02*
X23352380Y-3464342D01*
X23352380Y-3464342D02*
X23352380Y-3178628D01*
X23352380Y-3178628D02*
X23399999Y-3083390D01*
X23399999Y-3083390D02*
X23447618Y-3035771D01*
X23447618Y-3035771D02*
X23542856Y-2988152D01*
X23542856Y-2988152D02*
X23685713Y-2988152D01*
X23685713Y-2988152D02*
X23780951Y-3035771D01*
X23780951Y-3035771D02*
X23828570Y-3083390D01*
X23828570Y-3083390D02*
X23876189Y-3178628D01*
X23876189Y-3178628D02*
X23876189Y-3464342D01*
X23876189Y-3464342D02*
X23828570Y-3559580D01*
X23828570Y-3559580D02*
X23780951Y-3607200D01*
X23780951Y-3607200D02*
X23685713Y-3654819D01*
X23685713Y-3654819D02*
X23542856Y-3654819D01*
X24733332Y-2988152D02*
X24733332Y-3654819D01*
X24304761Y-2988152D02*
X24304761Y-3511961D01*
X24304761Y-3511961D02*
X24352380Y-3607200D01*
X24352380Y-3607200D02*
X24447618Y-3654819D01*
X24447618Y-3654819D02*
X24590475Y-3654819D01*
X24590475Y-3654819D02*
X24685713Y-3607200D01*
X24685713Y-3607200D02*
X24733332Y-3559580D01*
X25066666Y-2988152D02*
X25447618Y-2988152D01*
X25209523Y-2654819D02*
X25209523Y-3511961D01*
X25209523Y-3511961D02*
X25257142Y-3607200D01*
X25257142Y-3607200D02*
X25352380Y-3654819D01*
X25352380Y-3654819D02*
X25447618Y-3654819D01*
X25733333Y-3607200D02*
X25828571Y-3654819D01*
X25828571Y-3654819D02*
X26019047Y-3654819D01*
X26019047Y-3654819D02*
X26114285Y-3607200D01*
X26114285Y-3607200D02*
X26161904Y-3511961D01*
X26161904Y-3511961D02*
X26161904Y-3464342D01*
X26161904Y-3464342D02*
X26114285Y-3369104D01*
X26114285Y-3369104D02*
X26019047Y-3321485D01*
X26019047Y-3321485D02*
X25876190Y-3321485D01*
X25876190Y-3321485D02*
X25780952Y-3273866D01*
X25780952Y-3273866D02*
X25733333Y-3178628D01*
X25733333Y-3178628D02*
X25733333Y-3131009D01*
X25733333Y-3131009D02*
X25780952Y-3035771D01*
X25780952Y-3035771D02*
X25876190Y-2988152D01*
X25876190Y-2988152D02*
X26019047Y-2988152D01*
X26019047Y-2988152D02*
X26114285Y-3035771D01*
X27304762Y-3607200D02*
X27400000Y-3654819D01*
X27400000Y-3654819D02*
X27590476Y-3654819D01*
X27590476Y-3654819D02*
X27685714Y-3607200D01*
X27685714Y-3607200D02*
X27733333Y-3511961D01*
X27733333Y-3511961D02*
X27733333Y-3464342D01*
X27733333Y-3464342D02*
X27685714Y-3369104D01*
X27685714Y-3369104D02*
X27590476Y-3321485D01*
X27590476Y-3321485D02*
X27447619Y-3321485D01*
X27447619Y-3321485D02*
X27352381Y-3273866D01*
X27352381Y-3273866D02*
X27304762Y-3178628D01*
X27304762Y-3178628D02*
X27304762Y-3131009D01*
X27304762Y-3131009D02*
X27352381Y-3035771D01*
X27352381Y-3035771D02*
X27447619Y-2988152D01*
X27447619Y-2988152D02*
X27590476Y-2988152D01*
X27590476Y-2988152D02*
X27685714Y-3035771D01*
X28161905Y-3654819D02*
X28161905Y-2654819D01*
X28590476Y-3654819D02*
X28590476Y-3131009D01*
X28590476Y-3131009D02*
X28542857Y-3035771D01*
X28542857Y-3035771D02*
X28447619Y-2988152D01*
X28447619Y-2988152D02*
X28304762Y-2988152D01*
X28304762Y-2988152D02*
X28209524Y-3035771D01*
X28209524Y-3035771D02*
X28161905Y-3083390D01*
X29209524Y-3654819D02*
X29114286Y-3607200D01*
X29114286Y-3607200D02*
X29066667Y-3559580D01*
X29066667Y-3559580D02*
X29019048Y-3464342D01*
X29019048Y-3464342D02*
X29019048Y-3178628D01*
X29019048Y-3178628D02*
X29066667Y-3083390D01*
X29066667Y-3083390D02*
X29114286Y-3035771D01*
X29114286Y-3035771D02*
X29209524Y-2988152D01*
X29209524Y-2988152D02*
X29352381Y-2988152D01*
X29352381Y-2988152D02*
X29447619Y-3035771D01*
X29447619Y-3035771D02*
X29495238Y-3083390D01*
X29495238Y-3083390D02*
X29542857Y-3178628D01*
X29542857Y-3178628D02*
X29542857Y-3464342D01*
X29542857Y-3464342D02*
X29495238Y-3559580D01*
X29495238Y-3559580D02*
X29447619Y-3607200D01*
X29447619Y-3607200D02*
X29352381Y-3654819D01*
X29352381Y-3654819D02*
X29209524Y-3654819D01*
X29876191Y-2988152D02*
X30066667Y-3654819D01*
X30066667Y-3654819D02*
X30257143Y-3178628D01*
X30257143Y-3178628D02*
X30447619Y-3654819D01*
X30447619Y-3654819D02*
X30638095Y-2988152D01*
X31019048Y-2988152D02*
X31019048Y-3654819D01*
X31019048Y-3083390D02*
X31066667Y-3035771D01*
X31066667Y-3035771D02*
X31161905Y-2988152D01*
X31161905Y-2988152D02*
X31304762Y-2988152D01*
X31304762Y-2988152D02*
X31400000Y-3035771D01*
X31400000Y-3035771D02*
X31447619Y-3131009D01*
X31447619Y-3131009D02*
X31447619Y-3654819D01*
X32828572Y-3654819D02*
X32733334Y-3607200D01*
X32733334Y-3607200D02*
X32685715Y-3559580D01*
X32685715Y-3559580D02*
X32638096Y-3464342D01*
X32638096Y-3464342D02*
X32638096Y-3178628D01*
X32638096Y-3178628D02*
X32685715Y-3083390D01*
X32685715Y-3083390D02*
X32733334Y-3035771D01*
X32733334Y-3035771D02*
X32828572Y-2988152D01*
X32828572Y-2988152D02*
X32971429Y-2988152D01*
X32971429Y-2988152D02*
X33066667Y-3035771D01*
X33066667Y-3035771D02*
X33114286Y-3083390D01*
X33114286Y-3083390D02*
X33161905Y-3178628D01*
X33161905Y-3178628D02*
X33161905Y-3464342D01*
X33161905Y-3464342D02*
X33114286Y-3559580D01*
X33114286Y-3559580D02*
X33066667Y-3607200D01*
X33066667Y-3607200D02*
X32971429Y-3654819D01*
X32971429Y-3654819D02*
X32828572Y-3654819D01*
X33590477Y-2988152D02*
X33590477Y-3654819D01*
X33590477Y-3083390D02*
X33638096Y-3035771D01*
X33638096Y-3035771D02*
X33733334Y-2988152D01*
X33733334Y-2988152D02*
X33876191Y-2988152D01*
X33876191Y-2988152D02*
X33971429Y-3035771D01*
X33971429Y-3035771D02*
X34019048Y-3131009D01*
X34019048Y-3131009D02*
X34019048Y-3654819D01*
X35257144Y-3654819D02*
X35257144Y-2654819D01*
X35257144Y-2654819D02*
X35495239Y-2654819D01*
X35495239Y-2654819D02*
X35638096Y-2702438D01*
X35638096Y-2702438D02*
X35733334Y-2797676D01*
X35733334Y-2797676D02*
X35780953Y-2892914D01*
X35780953Y-2892914D02*
X35828572Y-3083390D01*
X35828572Y-3083390D02*
X35828572Y-3226247D01*
X35828572Y-3226247D02*
X35780953Y-3416723D01*
X35780953Y-3416723D02*
X35733334Y-3511961D01*
X35733334Y-3511961D02*
X35638096Y-3607200D01*
X35638096Y-3607200D02*
X35495239Y-3654819D01*
X35495239Y-3654819D02*
X35257144Y-3654819D01*
X36161906Y-2988152D02*
X36352382Y-3654819D01*
X36352382Y-3654819D02*
X36542858Y-3178628D01*
X36542858Y-3178628D02*
X36733334Y-3654819D01*
X36733334Y-3654819D02*
X36923810Y-2988152D01*
X37733334Y-2988152D02*
X37733334Y-3797676D01*
X37733334Y-3797676D02*
X37685715Y-3892914D01*
X37685715Y-3892914D02*
X37638096Y-3940533D01*
X37638096Y-3940533D02*
X37542858Y-3988152D01*
X37542858Y-3988152D02*
X37400001Y-3988152D01*
X37400001Y-3988152D02*
X37304763Y-3940533D01*
X37733334Y-3607200D02*
X37638096Y-3654819D01*
X37638096Y-3654819D02*
X37447620Y-3654819D01*
X37447620Y-3654819D02*
X37352382Y-3607200D01*
X37352382Y-3607200D02*
X37304763Y-3559580D01*
X37304763Y-3559580D02*
X37257144Y-3464342D01*
X37257144Y-3464342D02*
X37257144Y-3178628D01*
X37257144Y-3178628D02*
X37304763Y-3083390D01*
X37304763Y-3083390D02*
X37352382Y-3035771D01*
X37352382Y-3035771D02*
X37447620Y-2988152D01*
X37447620Y-2988152D02*
X37638096Y-2988152D01*
X37638096Y-2988152D02*
X37733334Y-3035771D01*
X38161906Y-3607200D02*
X38257144Y-3654819D01*
X38257144Y-3654819D02*
X38447620Y-3654819D01*
X38447620Y-3654819D02*
X38542858Y-3607200D01*
X38542858Y-3607200D02*
X38590477Y-3511961D01*
X38590477Y-3511961D02*
X38590477Y-3464342D01*
X38590477Y-3464342D02*
X38542858Y-3369104D01*
X38542858Y-3369104D02*
X38447620Y-3321485D01*
X38447620Y-3321485D02*
X38304763Y-3321485D01*
X38304763Y-3321485D02*
X38209525Y-3273866D01*
X38209525Y-3273866D02*
X38161906Y-3178628D01*
X38161906Y-3178628D02*
X38161906Y-3131009D01*
X38161906Y-3131009D02*
X38209525Y-3035771D01*
X38209525Y-3035771D02*
X38304763Y-2988152D01*
X38304763Y-2988152D02*
X38447620Y-2988152D01*
X38447620Y-2988152D02*
X38542858Y-3035771D01*
X39923811Y-3654819D02*
X39828573Y-3607200D01*
X39828573Y-3607200D02*
X39780954Y-3511961D01*
X39780954Y-3511961D02*
X39780954Y-2654819D01*
X40733335Y-3654819D02*
X40733335Y-3131009D01*
X40733335Y-3131009D02*
X40685716Y-3035771D01*
X40685716Y-3035771D02*
X40590478Y-2988152D01*
X40590478Y-2988152D02*
X40400002Y-2988152D01*
X40400002Y-2988152D02*
X40304764Y-3035771D01*
X40733335Y-3607200D02*
X40638097Y-3654819D01*
X40638097Y-3654819D02*
X40400002Y-3654819D01*
X40400002Y-3654819D02*
X40304764Y-3607200D01*
X40304764Y-3607200D02*
X40257145Y-3511961D01*
X40257145Y-3511961D02*
X40257145Y-3416723D01*
X40257145Y-3416723D02*
X40304764Y-3321485D01*
X40304764Y-3321485D02*
X40400002Y-3273866D01*
X40400002Y-3273866D02*
X40638097Y-3273866D01*
X40638097Y-3273866D02*
X40733335Y-3226247D01*
X41114288Y-2988152D02*
X41352383Y-3654819D01*
X41590478Y-2988152D02*
X41352383Y-3654819D01*
X41352383Y-3654819D02*
X41257145Y-3892914D01*
X41257145Y-3892914D02*
X41209526Y-3940533D01*
X41209526Y-3940533D02*
X41114288Y-3988152D01*
X42352383Y-3607200D02*
X42257145Y-3654819D01*
X42257145Y-3654819D02*
X42066669Y-3654819D01*
X42066669Y-3654819D02*
X41971431Y-3607200D01*
X41971431Y-3607200D02*
X41923812Y-3511961D01*
X41923812Y-3511961D02*
X41923812Y-3131009D01*
X41923812Y-3131009D02*
X41971431Y-3035771D01*
X41971431Y-3035771D02*
X42066669Y-2988152D01*
X42066669Y-2988152D02*
X42257145Y-2988152D01*
X42257145Y-2988152D02*
X42352383Y-3035771D01*
X42352383Y-3035771D02*
X42400002Y-3131009D01*
X42400002Y-3131009D02*
X42400002Y-3226247D01*
X42400002Y-3226247D02*
X41923812Y-3321485D01*
X42828574Y-3654819D02*
X42828574Y-2988152D01*
X42828574Y-3178628D02*
X42876193Y-3083390D01*
X42876193Y-3083390D02*
X42923812Y-3035771D01*
X42923812Y-3035771D02*
X43019050Y-2988152D01*
X43019050Y-2988152D02*
X43114288Y-2988152D01*
%TO.C,REF\u002A\u002A*%
X6700000Y3500000D02*
G75*
G02*
X300000Y3500000I-3200000J0D01*
G01*
X300000Y3500000D02*
G75*
G02*
X6700000Y3500000I3200000J0D01*
G01*
X85252944Y50552944D02*
G75*
G02*
X78852944Y50552944I-3200000J0D01*
G01*
X78852944Y50552944D02*
G75*
G02*
X85252944Y50552944I3200000J0D01*
G01*
X6700000Y50500000D02*
G75*
G02*
X300000Y50500000I-3200000J0D01*
G01*
X300000Y50500000D02*
G75*
G02*
X6700000Y50500000I3200000J0D01*
G01*
X85200000Y3500000D02*
G75*
G02*
X78800000Y3500000I-3200000J0D01*
G01*
X78800000Y3500000D02*
G75*
G02*
X85200000Y3500000I3200000J0D01*
G01*
%TD*%
M02*
