%TF.GenerationSoftware,KiCad,Pcbnew,8.0.4*%
%TF.CreationDate,2024-09-14T20:21:27+07:00*%
%TF.ProjectId,FT600_RP2040,46543630-305f-4525-9032-3034302e6b69,rev?*%
%TF.SameCoordinates,PX7735940PY61c06a0*%
%TF.FileFunction,Soldermask,Top*%
%TF.FilePolarity,Negative*%
%FSLAX46Y46*%
G04 Gerber Fmt 4.6, Leading zero omitted, Abs format (unit mm)*
G04 Created by KiCad (PCBNEW 8.0.4) date 2024-09-14 20:21:27*
%MOMM*%
%LPD*%
G01*
G04 APERTURE LIST*
G04 Aperture macros list*
%AMRoundRect*
0 Rectangle with rounded corners*
0 $1 Rounding radius*
0 $2 $3 $4 $5 $6 $7 $8 $9 X,Y pos of 4 corners*
0 Add a 4 corners polygon primitive as box body*
4,1,4,$2,$3,$4,$5,$6,$7,$8,$9,$2,$3,0*
0 Add four circle primitives for the rounded corners*
1,1,$1+$1,$2,$3*
1,1,$1+$1,$4,$5*
1,1,$1+$1,$6,$7*
1,1,$1+$1,$8,$9*
0 Add four rect primitives between the rounded corners*
20,1,$1+$1,$2,$3,$4,$5,0*
20,1,$1+$1,$4,$5,$6,$7,0*
20,1,$1+$1,$6,$7,$8,$9,0*
20,1,$1+$1,$8,$9,$2,$3,0*%
G04 Aperture macros list end*
%ADD10RoundRect,0.050000X-0.450000X-0.050000X0.450000X-0.050000X0.450000X0.050000X-0.450000X0.050000X0*%
%ADD11RoundRect,0.050000X-0.050000X-0.450000X0.050000X-0.450000X0.050000X0.450000X-0.050000X0.450000X0*%
%ADD12R,3.900000X4.700000*%
%ADD13RoundRect,0.250000X0.325000X0.650000X-0.325000X0.650000X-0.325000X-0.650000X0.325000X-0.650000X0*%
%ADD14R,1.350000X0.400000*%
%ADD15C,2.580000*%
%ADD16R,1.900000X1.900000*%
%ADD17R,1.900000X1.800000*%
%ADD18R,1.600000X1.000000*%
%ADD19R,1.600000X2.100000*%
%ADD20C,0.800000*%
%ADD21C,6.400000*%
%ADD22O,1.800000X1.800000*%
%ADD23O,1.500000X1.500000*%
%ADD24RoundRect,0.425000X1.325000X0.425000X-1.325000X0.425000X-1.325000X-0.425000X1.325000X-0.425000X0*%
%ADD25RoundRect,0.425000X-0.425000X1.325000X-0.425000X-1.325000X0.425000X-1.325000X0.425000X1.325000X0*%
%ADD26R,1.700000X1.700000*%
%ADD27O,1.700000X1.700000*%
%ADD28R,1.900000X2.600000*%
%ADD29RoundRect,0.250000X0.625000X-0.312500X0.625000X0.312500X-0.625000X0.312500X-0.625000X-0.312500X0*%
%ADD30RoundRect,0.250000X0.650000X-0.325000X0.650000X0.325000X-0.650000X0.325000X-0.650000X-0.325000X0*%
%ADD31R,0.700000X4.000000*%
%ADD32R,3.200000X4.900000*%
%ADD33RoundRect,0.250000X-0.275000X-0.700000X0.275000X-0.700000X0.275000X0.700000X-0.275000X0.700000X0*%
%ADD34RoundRect,0.250000X0.312500X0.625000X-0.312500X0.625000X-0.312500X-0.625000X0.312500X-0.625000X0*%
%ADD35RoundRect,0.250000X-0.325000X-0.650000X0.325000X-0.650000X0.325000X0.650000X-0.325000X0.650000X0*%
%ADD36RoundRect,0.100000X-0.100000X0.637500X-0.100000X-0.637500X0.100000X-0.637500X0.100000X0.637500X0*%
%ADD37RoundRect,0.250000X0.700000X-0.275000X0.700000X0.275000X-0.700000X0.275000X-0.700000X-0.275000X0*%
%ADD38RoundRect,0.250000X-0.625000X0.312500X-0.625000X-0.312500X0.625000X-0.312500X0.625000X0.312500X0*%
%ADD39RoundRect,0.250000X-0.650000X0.325000X-0.650000X-0.325000X0.650000X-0.325000X0.650000X0.325000X0*%
%ADD40RoundRect,0.250000X-0.700000X0.275000X-0.700000X-0.275000X0.700000X-0.275000X0.700000X0.275000X0*%
G04 APERTURE END LIST*
D10*
%TO.C,IC2*%
X61200000Y18850000D03*
X61200000Y18450000D03*
X61200000Y18050000D03*
X61200000Y17650000D03*
X61200000Y17250000D03*
X61200000Y16850000D03*
X61200000Y16450000D03*
X61200000Y16050000D03*
X61200000Y15650000D03*
X61200000Y15250000D03*
X61200000Y14850000D03*
X61200000Y14450000D03*
X61200000Y14050000D03*
X61200000Y13650000D03*
D11*
X62150000Y12700000D03*
X62550000Y12700000D03*
X62950000Y12700000D03*
X63350000Y12700000D03*
X63750000Y12700000D03*
X64150000Y12700000D03*
X64550000Y12700000D03*
X64950000Y12700000D03*
X65350000Y12700000D03*
X65750000Y12700000D03*
X66150000Y12700000D03*
X66550000Y12700000D03*
X66950000Y12700000D03*
X67350000Y12700000D03*
D10*
X68300000Y13650000D03*
X68300000Y14050000D03*
X68300000Y14450000D03*
X68300000Y14850000D03*
X68300000Y15250000D03*
X68300000Y15650000D03*
X68300000Y16050000D03*
X68300000Y16450000D03*
X68300000Y16850000D03*
X68300000Y17250000D03*
X68300000Y17650000D03*
X68300000Y18050000D03*
X68300000Y18450000D03*
X68300000Y18850000D03*
D11*
X67350000Y19800000D03*
X66950000Y19800000D03*
X66550000Y19800000D03*
X66150000Y19800000D03*
X65750000Y19800000D03*
X65350000Y19800000D03*
X64950000Y19800000D03*
X64550000Y19800000D03*
X64150000Y19800000D03*
X63750000Y19800000D03*
X63350000Y19800000D03*
X62950000Y19800000D03*
X62550000Y19800000D03*
X62150000Y19800000D03*
D12*
X64750000Y16250000D03*
%TD*%
D13*
%TO.C,C5*%
X54975000Y15500000D03*
X52025000Y15500000D03*
%TD*%
D14*
%TO.C,J8*%
X80675000Y17285000D03*
X80675000Y17935000D03*
X80675000Y18585000D03*
X80675000Y19235000D03*
X80675000Y19885000D03*
X80675000Y23985000D03*
X80675000Y24635000D03*
X80675000Y25285000D03*
X80675000Y25935000D03*
X80675000Y26585000D03*
D15*
X83350000Y14950000D03*
X83350000Y27550000D03*
D16*
X83350000Y17385000D03*
X83350000Y19785000D03*
D17*
X83350000Y22585000D03*
X83350000Y25085000D03*
D18*
X80800000Y27835000D03*
D19*
X80800000Y15485000D03*
%TD*%
D20*
%TO.C,REF\u002A\u002A*%
X1100000Y3500000D03*
X1802944Y5197056D03*
X1802944Y1802944D03*
X3500000Y5900000D03*
D21*
X3500000Y3500000D03*
D20*
X3500000Y1100000D03*
X5197056Y5197056D03*
X5197056Y1802944D03*
X5900000Y3500000D03*
%TD*%
D22*
%TO.C,U1*%
X31225000Y3000000D03*
D23*
X30925000Y6030000D03*
X26075000Y6030000D03*
D22*
X25775000Y3000000D03*
D24*
X38290000Y2870000D03*
X38290000Y5410000D03*
X38290000Y7950000D03*
X38290000Y10490000D03*
X38290000Y13030000D03*
X38290000Y15570000D03*
X38290000Y18110000D03*
X38290000Y20650000D03*
X38290000Y23190000D03*
X38290000Y25730000D03*
X38290000Y28270000D03*
X38290000Y30810000D03*
X38290000Y33350000D03*
X38290000Y35890000D03*
X38290000Y38430000D03*
X38290000Y40970000D03*
X38290000Y43510000D03*
X38290000Y46050000D03*
X38290000Y48590000D03*
X38290000Y51130000D03*
X18710000Y51130000D03*
X18710000Y48590000D03*
X18710000Y46050000D03*
X18710000Y43510000D03*
X18710000Y40970000D03*
X18710000Y38430000D03*
X18710000Y35890000D03*
X18710000Y33350000D03*
X18710000Y30810000D03*
X18710000Y28270000D03*
X18710000Y25730000D03*
X18710000Y23190000D03*
X18710000Y20650000D03*
X18710000Y18110000D03*
X18710000Y15570000D03*
X18710000Y13030000D03*
X18710000Y10490000D03*
X18710000Y7950000D03*
X18710000Y5410000D03*
X18710000Y2870000D03*
D25*
X31040000Y51800000D03*
X28500000Y51800000D03*
X25960000Y51800000D03*
%TD*%
D13*
%TO.C,C13*%
X57450000Y4125000D03*
X54500000Y4125000D03*
%TD*%
D26*
%TO.C,J4*%
X10225000Y49830000D03*
D27*
X12765000Y49830000D03*
%TD*%
D28*
%TO.C,Y1*%
X56250000Y7300000D03*
X60550000Y7300000D03*
%TD*%
D29*
%TO.C,R1*%
X66750000Y44537500D03*
X66750000Y47462500D03*
%TD*%
D26*
%TO.C,J3*%
X12790000Y21920000D03*
D27*
X10250000Y21920000D03*
X12790000Y19380000D03*
X10250000Y19380000D03*
X12790000Y16840000D03*
X10250000Y16840000D03*
X12790000Y14300000D03*
X10250000Y14300000D03*
X12790000Y11760000D03*
X10250000Y11760000D03*
X12790000Y9220000D03*
X10250000Y9220000D03*
%TD*%
D29*
%TO.C,R4*%
X66750000Y39787500D03*
X66750000Y42712500D03*
%TD*%
D20*
%TO.C,REF\u002A\u002A*%
X79652944Y50552944D03*
X80355888Y52250000D03*
X80355888Y48855888D03*
X82052944Y52952944D03*
D21*
X82052944Y50552944D03*
D20*
X82052944Y48152944D03*
X83750000Y52250000D03*
X83750000Y48855888D03*
X84452944Y50552944D03*
%TD*%
D30*
%TO.C,C9*%
X59250000Y26775000D03*
X59250000Y29725000D03*
%TD*%
%TO.C,C12*%
X60750000Y34525000D03*
X60750000Y37475000D03*
%TD*%
D31*
%TO.C,J7*%
X64250000Y51500000D03*
D32*
X68500000Y51175000D03*
X60000000Y51175000D03*
%TD*%
D29*
%TO.C,R7*%
X70750000Y26787500D03*
X70750000Y29712500D03*
%TD*%
D33*
%TO.C,FB1*%
X80175000Y10750000D03*
X83325000Y10750000D03*
%TD*%
D34*
%TO.C,R5*%
X68962500Y4000000D03*
X66037500Y4000000D03*
%TD*%
D30*
%TO.C,C10*%
X66750000Y35025000D03*
X66750000Y37975000D03*
%TD*%
D35*
%TO.C,C15*%
X59500000Y4125000D03*
X62450000Y4125000D03*
%TD*%
D30*
%TO.C,C11*%
X56750000Y26775000D03*
X56750000Y29725000D03*
%TD*%
D13*
%TO.C,C16*%
X73975000Y6750000D03*
X71025000Y6750000D03*
%TD*%
%TO.C,C18*%
X73975000Y9250000D03*
X71025000Y9250000D03*
%TD*%
D30*
%TO.C,C17*%
X63250000Y34525000D03*
X63250000Y37475000D03*
%TD*%
D36*
%TO.C,U4*%
X68325000Y31112500D03*
X67675000Y31112500D03*
X67025000Y31112500D03*
X66375000Y31112500D03*
X65725000Y31112500D03*
X65075000Y31112500D03*
X64425000Y31112500D03*
X63775000Y31112500D03*
X63125000Y31112500D03*
X62475000Y31112500D03*
X61825000Y31112500D03*
X61175000Y31112500D03*
X61175000Y25387500D03*
X61825000Y25387500D03*
X62475000Y25387500D03*
X63125000Y25387500D03*
X63775000Y25387500D03*
X64425000Y25387500D03*
X65075000Y25387500D03*
X65725000Y25387500D03*
X66375000Y25387500D03*
X67025000Y25387500D03*
X67675000Y25387500D03*
X68325000Y25387500D03*
%TD*%
D37*
%TO.C,FB3*%
X83250000Y34175000D03*
X83250000Y37325000D03*
%TD*%
D30*
%TO.C,C20*%
X81000000Y39525000D03*
X81000000Y42475000D03*
%TD*%
D38*
%TO.C,R8*%
X78500000Y42462500D03*
X78500000Y39537500D03*
%TD*%
D39*
%TO.C,C6*%
X78500000Y37225000D03*
X78500000Y34275000D03*
%TD*%
D20*
%TO.C,REF\u002A\u002A*%
X1100000Y50500000D03*
X1802944Y52197056D03*
X1802944Y48802944D03*
X3500000Y52900000D03*
D21*
X3500000Y50500000D03*
D20*
X3500000Y48100000D03*
X5197056Y52197056D03*
X5197056Y48802944D03*
X5900000Y50500000D03*
%TD*%
D30*
%TO.C,C14*%
X51500000Y26775000D03*
X51500000Y29725000D03*
%TD*%
D20*
%TO.C,REF\u002A\u002A*%
X79600000Y3500000D03*
X80302944Y5197056D03*
X80302944Y1802944D03*
X82000000Y5900000D03*
D21*
X82000000Y3500000D03*
D20*
X82000000Y1100000D03*
X83697056Y5197056D03*
X83697056Y1802944D03*
X84400000Y3500000D03*
%TD*%
D38*
%TO.C,R9*%
X83250000Y42462500D03*
X83250000Y39537500D03*
%TD*%
D34*
%TO.C,R6*%
X54962500Y13000000D03*
X52037500Y13000000D03*
%TD*%
D38*
%TO.C,R2*%
X64250000Y42712500D03*
X64250000Y39787500D03*
%TD*%
D39*
%TO.C,C1*%
X64250000Y47475000D03*
X64250000Y44525000D03*
%TD*%
D35*
%TO.C,C21*%
X80025000Y8250000D03*
X82975000Y8250000D03*
%TD*%
D26*
%TO.C,J5*%
X12790000Y44780000D03*
D27*
X10250000Y44780000D03*
X12790000Y42240000D03*
X10250000Y42240000D03*
X12790000Y39700000D03*
X10250000Y39700000D03*
X12790000Y37160000D03*
X10250000Y37160000D03*
X12790000Y34620000D03*
X10250000Y34620000D03*
X12790000Y32080000D03*
X10250000Y32080000D03*
%TD*%
D40*
%TO.C,FB2*%
X54250000Y29825000D03*
X54250000Y26675000D03*
%TD*%
D39*
%TO.C,C8*%
X76250000Y37225000D03*
X76250000Y34275000D03*
%TD*%
D38*
%TO.C,R3*%
X71750000Y42712500D03*
X71750000Y39787500D03*
%TD*%
D26*
%TO.C,J6*%
X10225000Y4170000D03*
D27*
X12765000Y4170000D03*
%TD*%
D30*
%TO.C,C19*%
X76250000Y39525000D03*
X76250000Y42475000D03*
%TD*%
%TO.C,C2*%
X69250000Y39775000D03*
X69250000Y42725000D03*
%TD*%
D39*
%TO.C,C7*%
X81000000Y37225000D03*
X81000000Y34275000D03*
%TD*%
D26*
%TO.C,J1*%
X46700000Y51250000D03*
D27*
X49240000Y51250000D03*
X51780000Y51250000D03*
X54320000Y51250000D03*
%TD*%
D26*
%TO.C,J2*%
X10225000Y27000000D03*
D27*
X12765000Y27000000D03*
%TD*%
M02*
