M48
;Layer_Color=9474304
;FILE_FORMAT=4:4
METRIC,LZ
;TYPE=PLATED
T1F00S00C0.1700
T2F00S00C0.2000
T3F00S00C0.2540
T4F00S00C0.3000
T5F00S00C1.1000
%
T01
X0010975Y0003475
X0017525Y0009075
X00168Y001895
X00151369Y00205381
X001535Y0021075
X0017325Y0024
X00189Y0024775
X00238953Y00248178
X003013Y0021675
X003085Y001645
X0031875Y00165
X0033125Y001445
X0035025Y00145
X00113Y001805
X000845Y0021075
X000825Y0021775
X0001625Y0021725
T02
X00188Y000715
X0019275Y000845
X0023375Y000815
X00243Y0008175
X0022775Y0005675
X00171Y0011925
X001555Y001195
X0015825Y00155
X001745Y0019775
X00145Y00232
X00183Y002625
X0017575Y0027
X0021975Y0027325
X00229Y0027475
X002385Y00272
X003105Y0025425
X003065Y002375
X003555Y0025575
X0038425Y0015675
X0014275Y00156
X0012925Y00156
X0011675Y001715
X0011975Y0023
X0012525Y0023675
X0013125Y0023125
Y00243
X00138Y0023775
X0013875Y0022525
X0013275Y0021825
X00126Y00224
T03
X00153251Y00186382
X00162Y0020475
X00131Y0019325
T04
X0011425Y0013525
X001675Y002255
X0015875Y00253384
X0028675Y0024785
X00109Y0024825
X0012Y002685
X001195Y0029775
X0005375Y002425
X0004225Y0023
X00018363Y00210637
T05
X0004385Y000305
Y000559
Y000813
Y001067
Y001321
X0006925
Y001067
Y000813
Y000559
Y000305
Y001575
X0004385
X0004335Y002755
Y003009
Y003263
Y003517
Y003771
Y004025
X0006875
Y003771
Y003517
Y003263
Y003009
Y002755
M30
