M48
; DRILL file {KiCad 8.0.4} date 2024-09-14T20:21:27+0700
; FORMAT={-:-/ absolute / inch / decimal}
; #@! TF.CreationDate,2024-09-14T20:21:27+07:00
; #@! TF.GenerationSoftware,Kicad,Pcbnew,8.0.4
; #@! TF.FileFunction,Plated,1,2,PTH
FMAT,2
INCH
; #@! TA.AperFunction,Plated,PTH,ViaDrill
T1C0.0157
; #@! TA.AperFunction,Plated,PTH,ComponentDrill
T2C0.0197
; #@! TA.AperFunction,Plated,PTH,ComponentDrill
T3C0.0394
; #@! TA.AperFunction,Plated,PTH,ComponentDrill
T4C0.0677
; #@! TA.AperFunction,Plated,PTH,ComponentDrill
T5C0.1260
%
G90
G05
T1
X0.315Y0.3346
X0.3248Y1.2008
X0.6201Y1.6831
X0.8366Y1.9488
X0.8366Y1.8701
X0.8366Y1.689
X0.8563Y1.7815
X0.8957Y0.2067
X0.9547Y1.1614
X0.9547Y1.0138
X0.9547Y0.8366
X1.0039Y1.624
X1.0236Y1.9331
X1.0335Y1.8406
X1.0531Y1.6831
X1.1122Y1.8209
X1.1122Y1.1614
X1.1122Y1.0138
X1.1122Y0.8366
X1.122Y1.9488
X1.1417Y1.6043
X1.1909Y1.8209
X1.1909Y1.6535
X1.2283Y1.9331
X1.2303Y1.6831
X1.2402Y1.1614
X1.2697Y1.0138
X1.2697Y0.8366
X1.3091Y1.6831
X1.3091Y0.2362
X1.3091Y0.0787
X1.3583Y1.6831
X1.3976Y1.0039
X1.3976Y0.1772
X1.3976Y0.0787
X1.4016Y1.6654
X1.4016Y1.5709
X1.4016Y1.4606
X1.4016Y1.3661
X1.4016Y1.1772
X1.4016Y1.0669
X1.6043Y1.0925
X1.6063Y0.9488
X1.6063Y0.8543
X1.6063Y0.6496
X1.6063Y0.5472
X1.6063Y0.4449
X1.6063Y0.3583
X1.6063Y0.248
X1.6063Y0.1535
X1.6437Y1.2795
X1.6634Y1.7717
X1.6732Y0.0787
X1.6949Y0.9931
X1.752Y0.1575
X1.7815Y0.9055
X1.7815Y0.8465
X1.7913Y0.2264
X1.8406Y0.2756
X1.8701Y0.1673
X1.8878Y0.4488
X1.8898Y1.939
X1.8898Y0.8563
X1.9488Y1.939
X1.9783Y0.1673
X1.9852Y0.4547
X1.9882Y0.5531
X1.998Y1.8209
X1.998Y1.6043
X1.998Y1.5059
X1.998Y1.3878
X1.998Y1.2402
X2.0472Y0.4429
X2.0472Y0.3051
X2.0472Y0.2461
X2.0669Y1.752
X2.0787Y0.1614
X2.0866Y1.5059
X2.0866Y1.3878
X2.0866Y1.2402
X2.1161Y1.9291
X2.1161Y1.811
X2.1161Y1.7126
X2.126Y0.3051
X2.126Y0.2461
X2.1654Y1.5846
X2.2146Y1.7913
X2.2146Y1.7126
X2.2146Y1.6339
X2.2146Y1.4764
X2.2146Y1.2697
X2.2244Y2.063
X2.2244Y2.0079
X2.2244Y1.9488
X2.2244Y1.8701
X2.2343Y1.2205
X2.2638Y1.8898
X2.2835Y1.3189
X2.313Y1.4764
X2.3327Y1.2402
X2.3425Y0.4921
X2.3583Y0.876
X2.3927Y1.5325
X2.4459Y1.2943
X2.4508Y1.8701
X2.4508Y1.7913
X2.4508Y1.7126
X2.4508Y1.6339
X2.4508Y1.5354
X2.4705Y2.0571
X2.4705Y2.0079
X2.4705Y1.9488
X2.4892Y0.374
X2.4902Y0.5906
X2.5197Y0.1614
X2.5236Y0.9301
X2.5246Y1.2943
X2.5305Y0.374
X2.5492Y0.5906
X2.5689Y1.1516
X2.5886Y2.0571
X2.5886Y1.9488
X2.6083Y0.5906
X2.626Y0.2283
X2.6752Y0.2638
X2.6791Y0.8258
X2.6978Y1.8691
X2.7067Y1.811
X2.7067Y1.752
X2.7156Y1.4951
X2.7264Y0.4242
X2.7264Y0.3829
X2.7461Y1.3386
X2.7756Y0.5502
X2.7854Y1.8701
X2.7854Y1.4961
X2.7854Y1.2303
X2.7854Y0.8268
X2.7854Y0.187
X2.7854Y0.1181
X2.8051Y2.0571
X2.8051Y2.0079
X2.8051Y1.939
X2.815Y1.752
X2.8169Y0.7933
X2.8219Y0.752
X2.8248Y0.5709
X2.8445Y1.4961
X2.8642Y1.2402
X2.8642Y0.75
X2.876Y0.5906
X2.9134Y2.0571
X2.9193Y0.6122
X2.9232Y1.1811
X2.9311Y0.6811
X3.002Y1.7343
X3.002Y1.2992
X3.002Y0.3356
X3.002Y0.2943
X3.0315Y1.0545
X3.0315Y1.0132
X3.061Y2.0571
X3.061Y1.1909
X3.061Y1.1122
X3.0807Y0.9778
X3.0807Y0.9364
X3.0827Y0.7396
X3.0827Y0.6982
X3.0906Y1.7323
X3.0906Y1.2992
X3.1004Y0.2687
X3.1693Y0.8957
X3.189Y1.7323
X3.189Y1.2992
X3.2087Y0.8563
X3.2776Y1.7323
X3.2776Y1.2697
T2
X0.0433Y1.9882
X0.0433Y0.1378
X0.071Y2.055
X0.071Y1.9214
X0.071Y0.2046
X0.071Y0.071
X0.1378Y2.0827
X0.1378Y1.8937
X0.1378Y0.2323
X0.1378Y0.0433
X0.2046Y2.055
X0.2046Y1.9214
X0.2046Y0.2046
X0.2046Y0.071
X0.2323Y1.9882
X0.2323Y0.1378
X3.1339Y0.1378
X3.1359Y1.9903
X3.1615Y0.2046
X3.1615Y0.071
X3.1636Y2.0571
X3.1636Y1.9235
X3.2283Y0.2323
X3.2283Y0.0433
X3.2304Y2.0848
X3.2304Y1.8958
X3.2952Y0.2046
X3.2952Y0.071
X3.2972Y2.0571
X3.2972Y1.9235
X3.3228Y0.1378
X3.3249Y1.9903
T3
X0.4026Y1.9618
X0.4026Y1.063
X0.4026Y0.1642
X0.4035Y1.763
X0.4035Y1.663
X0.4035Y1.563
X0.4035Y1.463
X0.4035Y1.363
X0.4035Y1.263
X0.4035Y0.863
X0.4035Y0.763
X0.4035Y0.663
X0.4035Y0.563
X0.4035Y0.463
X0.4035Y0.363
X0.5026Y1.9618
X0.5026Y1.063
X0.5026Y0.1642
X0.5035Y1.763
X0.5035Y1.663
X0.5035Y1.563
X0.5035Y1.463
X0.5035Y1.363
X0.5035Y1.263
X0.5035Y0.863
X0.5035Y0.763
X0.5035Y0.663
X0.5035Y0.563
X0.5035Y0.463
X0.5035Y0.363
X1.8386Y2.0177
X1.9386Y2.0177
X2.0386Y2.0177
X2.1386Y2.0177
T4
X3.2815Y1.0846
X3.2815Y0.5886
T5
X0.1378Y1.9882
X0.1378Y0.1378
X3.2283Y0.1378
X3.2304Y1.9903
M30
