%TF.GenerationSoftware,KiCad,Pcbnew,8.0.2*%
%TF.CreationDate,2024-05-14T11:50:59+07:00*%
%TF.ProjectId,PICO_DAC2932,5049434f-5f44-4414-9332-3933322e6b69,rev?*%
%TF.SameCoordinates,PX7735940PY61c06a0*%
%TF.FileFunction,Soldermask,Bot*%
%TF.FilePolarity,Negative*%
%FSLAX46Y46*%
G04 Gerber Fmt 4.6, Leading zero omitted, Abs format (unit mm)*
G04 Created by KiCad (PCBNEW 8.0.2) date 2024-05-14 11:50:59*
%MOMM*%
%LPD*%
G01*
G04 APERTURE LIST*
G04 Aperture macros list*
%AMRoundRect*
0 Rectangle with rounded corners*
0 $1 Rounding radius*
0 $2 $3 $4 $5 $6 $7 $8 $9 X,Y pos of 4 corners*
0 Add a 4 corners polygon primitive as box body*
4,1,4,$2,$3,$4,$5,$6,$7,$8,$9,$2,$3,0*
0 Add four circle primitives for the rounded corners*
1,1,$1+$1,$2,$3*
1,1,$1+$1,$4,$5*
1,1,$1+$1,$6,$7*
1,1,$1+$1,$8,$9*
0 Add four rect primitives between the rounded corners*
20,1,$1+$1,$2,$3,$4,$5,0*
20,1,$1+$1,$4,$5,$6,$7,0*
20,1,$1+$1,$6,$7,$8,$9,0*
20,1,$1+$1,$8,$9,$2,$3,0*%
G04 Aperture macros list end*
%ADD10R,1.700000X1.700000*%
%ADD11O,1.700000X1.700000*%
%ADD12C,0.800000*%
%ADD13C,6.400000*%
%ADD14O,1.800000X1.800000*%
%ADD15O,1.500000X1.500000*%
%ADD16R,1.600000X4.900000*%
%ADD17RoundRect,0.381000X-0.381000X-0.381000X0.381000X-0.381000X0.381000X0.381000X-0.381000X0.381000X0*%
G04 APERTURE END LIST*
D10*
%TO.C,J9*%
X82775000Y35950000D03*
D11*
X80235000Y35950000D03*
X82775000Y38490000D03*
X80235000Y38490000D03*
X82775000Y41030000D03*
X80235000Y41030000D03*
X82775000Y43570000D03*
X80235000Y43570000D03*
%TD*%
D12*
%TO.C,REF\u002A\u002A*%
X1100000Y3500000D03*
X1802944Y5197056D03*
X1802944Y1802944D03*
X3500000Y5900000D03*
D13*
X3500000Y3500000D03*
D12*
X3500000Y1100000D03*
X5197056Y5197056D03*
X5197056Y1802944D03*
X5900000Y3500000D03*
%TD*%
D14*
%TO.C,U1*%
X31225000Y3000000D03*
D15*
X30925000Y6030000D03*
X26075000Y6030000D03*
D14*
X25775000Y3000000D03*
%TD*%
D16*
%TO.C,J7*%
X66250000Y51260000D03*
X57750000Y51260000D03*
%TD*%
D10*
%TO.C,J4*%
X10225000Y49830000D03*
D11*
X12765000Y49830000D03*
%TD*%
D10*
%TO.C,J3*%
X12790000Y21920000D03*
D11*
X10250000Y21920000D03*
X12790000Y19380000D03*
X10250000Y19380000D03*
X12790000Y16840000D03*
X10250000Y16840000D03*
X12790000Y14300000D03*
X10250000Y14300000D03*
X12790000Y11760000D03*
X10250000Y11760000D03*
X12790000Y9220000D03*
X10250000Y9220000D03*
%TD*%
D12*
%TO.C,REF\u002A\u002A*%
X79652944Y50552944D03*
X80355888Y52250000D03*
X80355888Y48855888D03*
X82052944Y52952944D03*
D13*
X82052944Y50552944D03*
D12*
X82052944Y48152944D03*
X83750000Y52250000D03*
X83750000Y48855888D03*
X84452944Y50552944D03*
%TD*%
%TO.C,REF\u002A\u002A*%
X1100000Y50500000D03*
X1802944Y52197056D03*
X1802944Y48802944D03*
X3500000Y52900000D03*
D13*
X3500000Y50500000D03*
D12*
X3500000Y48100000D03*
X5197056Y52197056D03*
X5197056Y48802944D03*
X5900000Y50500000D03*
%TD*%
%TO.C,REF\u002A\u002A*%
X79600000Y3500000D03*
X80302944Y5197056D03*
X80302944Y1802944D03*
X82000000Y5900000D03*
D13*
X82000000Y3500000D03*
D12*
X82000000Y1100000D03*
X83697056Y5197056D03*
X83697056Y1802944D03*
X84400000Y3500000D03*
%TD*%
D10*
%TO.C,J5*%
X12790000Y44780000D03*
D11*
X10250000Y44780000D03*
X12790000Y42240000D03*
X10250000Y42240000D03*
X12790000Y39700000D03*
X10250000Y39700000D03*
X12790000Y37160000D03*
X10250000Y37160000D03*
X12790000Y34620000D03*
X10250000Y34620000D03*
X12790000Y32080000D03*
X10250000Y32080000D03*
%TD*%
D16*
%TO.C,J8*%
X77500000Y51260000D03*
X69000000Y51260000D03*
%TD*%
D10*
%TO.C,J6*%
X10225000Y4170000D03*
D11*
X12765000Y4170000D03*
%TD*%
D10*
%TO.C,J1*%
X46700000Y51250000D03*
D11*
X49240000Y51250000D03*
X51780000Y51250000D03*
X54320000Y51250000D03*
%TD*%
D10*
%TO.C,J2*%
X10225000Y27000000D03*
D11*
X12765000Y27000000D03*
%TD*%
D17*
%TO.C,JO1*%
X56000000Y43750000D03*
X56250000Y43750000D03*
%TD*%
M02*
