%TF.GenerationSoftware,KiCad,Pcbnew,8.0.2*%
%TF.CreationDate,2024-05-14T11:50:59+07:00*%
%TF.ProjectId,PICO_DAC2932,5049434f-5f44-4414-9332-3933322e6b69,rev?*%
%TF.SameCoordinates,PX7735940PY61c06a0*%
%TF.FileFunction,Soldermask,Top*%
%TF.FilePolarity,Negative*%
%FSLAX46Y46*%
G04 Gerber Fmt 4.6, Leading zero omitted, Abs format (unit mm)*
G04 Created by KiCad (PCBNEW 8.0.2) date 2024-05-14 11:50:59*
%MOMM*%
%LPD*%
G01*
G04 APERTURE LIST*
G04 Aperture macros list*
%AMRoundRect*
0 Rectangle with rounded corners*
0 $1 Rounding radius*
0 $2 $3 $4 $5 $6 $7 $8 $9 X,Y pos of 4 corners*
0 Add a 4 corners polygon primitive as box body*
4,1,4,$2,$3,$4,$5,$6,$7,$8,$9,$2,$3,0*
0 Add four circle primitives for the rounded corners*
1,1,$1+$1,$2,$3*
1,1,$1+$1,$4,$5*
1,1,$1+$1,$6,$7*
1,1,$1+$1,$8,$9*
0 Add four rect primitives between the rounded corners*
20,1,$1+$1,$2,$3,$4,$5,0*
20,1,$1+$1,$4,$5,$6,$7,0*
20,1,$1+$1,$6,$7,$8,$9,0*
20,1,$1+$1,$8,$9,$2,$3,0*%
G04 Aperture macros list end*
%ADD10RoundRect,0.250000X0.625000X-0.312500X0.625000X0.312500X-0.625000X0.312500X-0.625000X-0.312500X0*%
%ADD11R,1.700000X1.700000*%
%ADD12O,1.700000X1.700000*%
%ADD13RoundRect,0.250000X-0.325000X-0.650000X0.325000X-0.650000X0.325000X0.650000X-0.325000X0.650000X0*%
%ADD14RoundRect,0.250000X-0.312500X-0.625000X0.312500X-0.625000X0.312500X0.625000X-0.312500X0.625000X0*%
%ADD15C,0.800000*%
%ADD16C,6.400000*%
%ADD17O,1.800000X1.800000*%
%ADD18O,1.500000X1.500000*%
%ADD19RoundRect,0.425000X1.325000X0.425000X-1.325000X0.425000X-1.325000X-0.425000X1.325000X-0.425000X0*%
%ADD20RoundRect,0.425000X-0.425000X1.325000X-0.425000X-1.325000X0.425000X-1.325000X0.425000X1.325000X0*%
%ADD21RoundRect,0.250000X-0.275000X-0.700000X0.275000X-0.700000X0.275000X0.700000X-0.275000X0.700000X0*%
%ADD22R,0.700000X2.350000*%
%ADD23R,1.600000X4.900000*%
%ADD24RoundRect,0.250000X-0.625000X0.312500X-0.625000X-0.312500X0.625000X-0.312500X0.625000X0.312500X0*%
%ADD25RoundRect,0.250000X0.325000X0.650000X-0.325000X0.650000X-0.325000X-0.650000X0.325000X-0.650000X0*%
%ADD26RoundRect,0.250000X0.312500X0.625000X-0.312500X0.625000X-0.312500X-0.625000X0.312500X-0.625000X0*%
%ADD27R,1.475000X0.300000*%
%ADD28R,0.300000X1.475000*%
G04 APERTURE END LIST*
D10*
%TO.C,R11*%
X66250000Y4287500D03*
X66250000Y7212500D03*
%TD*%
D11*
%TO.C,J9*%
X82775000Y35950000D03*
D12*
X80235000Y35950000D03*
X82775000Y38490000D03*
X80235000Y38490000D03*
X82775000Y41030000D03*
X80235000Y41030000D03*
X82775000Y43570000D03*
X80235000Y43570000D03*
%TD*%
D13*
%TO.C,C3*%
X58275000Y34000000D03*
X61225000Y34000000D03*
%TD*%
D14*
%TO.C,R15*%
X71787500Y46500000D03*
X74712500Y46500000D03*
%TD*%
D13*
%TO.C,C5*%
X64775000Y29500000D03*
X67725000Y29500000D03*
%TD*%
D15*
%TO.C,REF\u002A\u002A*%
X1100000Y3500000D03*
X1802944Y5197056D03*
X1802944Y1802944D03*
X3500000Y5900000D03*
D16*
X3500000Y3500000D03*
D15*
X3500000Y1100000D03*
X5197056Y5197056D03*
X5197056Y1802944D03*
X5900000Y3500000D03*
%TD*%
D17*
%TO.C,U1*%
X31225000Y3000000D03*
D18*
X30925000Y6030000D03*
X26075000Y6030000D03*
D17*
X25775000Y3000000D03*
D19*
X38290000Y2870000D03*
X38290000Y5410000D03*
X38290000Y7950000D03*
X38290000Y10490000D03*
X38290000Y13030000D03*
X38290000Y15570000D03*
X38290000Y18110000D03*
X38290000Y20650000D03*
X38290000Y23190000D03*
X38290000Y25730000D03*
X38290000Y28270000D03*
X38290000Y30810000D03*
X38290000Y33350000D03*
X38290000Y35890000D03*
X38290000Y38430000D03*
X38290000Y40970000D03*
X38290000Y43510000D03*
X38290000Y46050000D03*
X38290000Y48590000D03*
X38290000Y51130000D03*
X18710000Y51130000D03*
X18710000Y48590000D03*
X18710000Y46050000D03*
X18710000Y43510000D03*
X18710000Y40970000D03*
X18710000Y38430000D03*
X18710000Y35890000D03*
X18710000Y33350000D03*
X18710000Y30810000D03*
X18710000Y28270000D03*
X18710000Y25730000D03*
X18710000Y23190000D03*
X18710000Y20650000D03*
X18710000Y18110000D03*
X18710000Y15570000D03*
X18710000Y13030000D03*
X18710000Y10490000D03*
X18710000Y7950000D03*
X18710000Y5410000D03*
X18710000Y2870000D03*
D20*
X31040000Y51800000D03*
X28500000Y51800000D03*
X25960000Y51800000D03*
%TD*%
D13*
%TO.C,C13*%
X64775000Y34250000D03*
X67725000Y34250000D03*
%TD*%
D21*
%TO.C,L2*%
X53425000Y41500000D03*
X56575000Y41500000D03*
%TD*%
D22*
%TO.C,J7*%
X62000000Y52835000D03*
D23*
X66250000Y51260000D03*
X57750000Y51260000D03*
%TD*%
D11*
%TO.C,J4*%
X10225000Y49830000D03*
D12*
X12765000Y49830000D03*
%TD*%
D24*
%TO.C,R1*%
X57250000Y7212500D03*
X57250000Y4287500D03*
%TD*%
D11*
%TO.C,J3*%
X12790000Y21920000D03*
D12*
X10250000Y21920000D03*
X12790000Y19380000D03*
X10250000Y19380000D03*
X12790000Y16840000D03*
X10250000Y16840000D03*
X12790000Y14300000D03*
X10250000Y14300000D03*
X12790000Y11760000D03*
X10250000Y11760000D03*
X12790000Y9220000D03*
X10250000Y9220000D03*
%TD*%
D24*
%TO.C,R4*%
X49000000Y31712500D03*
X49000000Y28787500D03*
%TD*%
D15*
%TO.C,REF\u002A\u002A*%
X79652944Y50552944D03*
X80355888Y52250000D03*
X80355888Y48855888D03*
X82052944Y52952944D03*
D16*
X82052944Y50552944D03*
D15*
X82052944Y48152944D03*
X83750000Y52250000D03*
X83750000Y48855888D03*
X84452944Y50552944D03*
%TD*%
D13*
%TO.C,C9*%
X64775000Y36750000D03*
X67725000Y36750000D03*
%TD*%
D25*
%TO.C,C12*%
X56475000Y36500000D03*
X53525000Y36500000D03*
%TD*%
D26*
%TO.C,R12*%
X63462500Y46500000D03*
X60537500Y46500000D03*
%TD*%
D24*
%TO.C,R7*%
X61750000Y7212500D03*
X61750000Y4287500D03*
%TD*%
D25*
%TO.C,C10*%
X56475000Y39000000D03*
X53525000Y39000000D03*
%TD*%
D13*
%TO.C,C11*%
X64775000Y41500000D03*
X67725000Y41500000D03*
%TD*%
D24*
%TO.C,R5*%
X59500000Y7212500D03*
X59500000Y4287500D03*
%TD*%
%TO.C,R10*%
X70750000Y7212500D03*
X70750000Y4287500D03*
%TD*%
%TO.C,R8*%
X64000000Y7212500D03*
X64000000Y4287500D03*
%TD*%
D13*
%TO.C,C6*%
X64775000Y32000000D03*
X67725000Y32000000D03*
%TD*%
D15*
%TO.C,REF\u002A\u002A*%
X1100000Y50500000D03*
X1802944Y52197056D03*
X1802944Y48802944D03*
X3500000Y52900000D03*
D16*
X3500000Y50500000D03*
D15*
X3500000Y48100000D03*
X5197056Y52197056D03*
X5197056Y48802944D03*
X5900000Y50500000D03*
%TD*%
D25*
%TO.C,C14*%
X56475000Y34000000D03*
X53525000Y34000000D03*
%TD*%
D21*
%TO.C,L1*%
X58675000Y41500000D03*
X61825000Y41500000D03*
%TD*%
D27*
%TO.C,IC1*%
X58762000Y20250000D03*
X58762000Y19750000D03*
X58762000Y19250000D03*
X58762000Y18750000D03*
X58762000Y18250000D03*
X58762000Y17750000D03*
X58762000Y17250000D03*
X58762000Y16750000D03*
X58762000Y16250000D03*
X58762000Y15750000D03*
X58762000Y15250000D03*
X58762000Y14750000D03*
D28*
X60250000Y13262000D03*
X60750000Y13262000D03*
X61250000Y13262000D03*
X61750000Y13262000D03*
X62250000Y13262000D03*
X62750000Y13262000D03*
X63250000Y13262000D03*
X63750000Y13262000D03*
X64250000Y13262000D03*
X64750000Y13262000D03*
X65250000Y13262000D03*
X65750000Y13262000D03*
D27*
X67238000Y14750000D03*
X67238000Y15250000D03*
X67238000Y15750000D03*
X67238000Y16250000D03*
X67238000Y16750000D03*
X67238000Y17250000D03*
X67238000Y17750000D03*
X67238000Y18250000D03*
X67238000Y18750000D03*
X67238000Y19250000D03*
X67238000Y19750000D03*
X67238000Y20250000D03*
D28*
X65750000Y21738000D03*
X65250000Y21738000D03*
X64750000Y21738000D03*
X64250000Y21738000D03*
X63750000Y21738000D03*
X63250000Y21738000D03*
X62750000Y21738000D03*
X62250000Y21738000D03*
X61750000Y21738000D03*
X61250000Y21738000D03*
X60750000Y21738000D03*
X60250000Y21738000D03*
%TD*%
D15*
%TO.C,REF\u002A\u002A*%
X79600000Y3500000D03*
X80302944Y5197056D03*
X80302944Y1802944D03*
X82000000Y5900000D03*
D16*
X82000000Y3500000D03*
D15*
X82000000Y1100000D03*
X83697056Y5197056D03*
X83697056Y1802944D03*
X84400000Y3500000D03*
%TD*%
D24*
%TO.C,R9*%
X68500000Y7212500D03*
X68500000Y4287500D03*
%TD*%
D10*
%TO.C,R6*%
X55750000Y28787500D03*
X55750000Y31712500D03*
%TD*%
D24*
%TO.C,R2*%
X53500000Y31712500D03*
X53500000Y28787500D03*
%TD*%
D13*
%TO.C,C1*%
X58275000Y39000000D03*
X61225000Y39000000D03*
%TD*%
D14*
%TO.C,R13*%
X72037500Y14250000D03*
X74962500Y14250000D03*
%TD*%
D11*
%TO.C,J5*%
X12790000Y44780000D03*
D12*
X10250000Y44780000D03*
X12790000Y42240000D03*
X10250000Y42240000D03*
X12790000Y39700000D03*
X10250000Y39700000D03*
X12790000Y37160000D03*
X10250000Y37160000D03*
X12790000Y34620000D03*
X10250000Y34620000D03*
X12790000Y32080000D03*
X10250000Y32080000D03*
%TD*%
D13*
%TO.C,C8*%
X58275000Y36500000D03*
X61225000Y36500000D03*
%TD*%
D24*
%TO.C,R3*%
X51250000Y31712500D03*
X51250000Y28787500D03*
%TD*%
D13*
%TO.C,C4*%
X72025000Y12000000D03*
X74975000Y12000000D03*
%TD*%
D22*
%TO.C,J8*%
X73250000Y52835000D03*
D23*
X77500000Y51260000D03*
X69000000Y51260000D03*
%TD*%
D10*
%TO.C,R14*%
X70250000Y23287500D03*
X70250000Y26212500D03*
%TD*%
D11*
%TO.C,J6*%
X10225000Y4170000D03*
D12*
X12765000Y4170000D03*
%TD*%
D13*
%TO.C,C2*%
X58275000Y31500000D03*
X61225000Y31500000D03*
%TD*%
%TO.C,C7*%
X64775000Y39000000D03*
X67725000Y39000000D03*
%TD*%
D11*
%TO.C,J1*%
X46700000Y51250000D03*
D12*
X49240000Y51250000D03*
X51780000Y51250000D03*
X54320000Y51250000D03*
%TD*%
D11*
%TO.C,J2*%
X10225000Y27000000D03*
D12*
X12765000Y27000000D03*
%TD*%
M02*
