%TF.GenerationSoftware,KiCad,Pcbnew,8.0.2*%
%TF.CreationDate,2024-05-14T11:50:59+07:00*%
%TF.ProjectId,PICO_DAC2932,5049434f-5f44-4414-9332-3933322e6b69,rev?*%
%TF.SameCoordinates,PX7735940PY61c06a0*%
%TF.FileFunction,Copper,L2,Bot*%
%TF.FilePolarity,Positive*%
%FSLAX46Y46*%
G04 Gerber Fmt 4.6, Leading zero omitted, Abs format (unit mm)*
G04 Created by KiCad (PCBNEW 8.0.2) date 2024-05-14 11:50:59*
%MOMM*%
%LPD*%
G01*
G04 APERTURE LIST*
G04 Aperture macros list*
%AMRoundRect*
0 Rectangle with rounded corners*
0 $1 Rounding radius*
0 $2 $3 $4 $5 $6 $7 $8 $9 X,Y pos of 4 corners*
0 Add a 4 corners polygon primitive as box body*
4,1,4,$2,$3,$4,$5,$6,$7,$8,$9,$2,$3,0*
0 Add four circle primitives for the rounded corners*
1,1,$1+$1,$2,$3*
1,1,$1+$1,$4,$5*
1,1,$1+$1,$6,$7*
1,1,$1+$1,$8,$9*
0 Add four rect primitives between the rounded corners*
20,1,$1+$1,$2,$3,$4,$5,0*
20,1,$1+$1,$4,$5,$6,$7,0*
20,1,$1+$1,$6,$7,$8,$9,0*
20,1,$1+$1,$8,$9,$2,$3,0*%
G04 Aperture macros list end*
%TA.AperFunction,ComponentPad*%
%ADD10R,1.700000X1.700000*%
%TD*%
%TA.AperFunction,ComponentPad*%
%ADD11O,1.700000X1.700000*%
%TD*%
%TA.AperFunction,ComponentPad*%
%ADD12C,0.800000*%
%TD*%
%TA.AperFunction,ComponentPad*%
%ADD13C,6.400000*%
%TD*%
%TA.AperFunction,SMDPad,CuDef*%
%ADD14R,1.600000X4.900000*%
%TD*%
%TA.AperFunction,SMDPad,CuDef*%
%ADD15RoundRect,0.381000X-0.381000X-0.381000X0.381000X-0.381000X0.381000X0.381000X-0.381000X0.381000X0*%
%TD*%
%TA.AperFunction,ViaPad*%
%ADD16C,0.800000*%
%TD*%
%TA.AperFunction,Conductor*%
%ADD17C,0.500000*%
%TD*%
%TA.AperFunction,Conductor*%
%ADD18C,0.250000*%
%TD*%
%TA.AperFunction,Conductor*%
%ADD19C,0.300000*%
%TD*%
%TA.AperFunction,Conductor*%
%ADD20C,1.000000*%
%TD*%
G04 APERTURE END LIST*
D10*
%TO.P,J9,1,Pin_1*%
%TO.N,GNDA*%
X82775000Y35950000D03*
D11*
%TO.P,J9,2,Pin_2*%
%TO.N,VOUT1*%
X80235000Y35950000D03*
%TO.P,J9,3,Pin_3*%
%TO.N,GNDA*%
X82775000Y38490000D03*
%TO.P,J9,4,Pin_4*%
%TO.N,VOUT2*%
X80235000Y38490000D03*
%TO.P,J9,5,Pin_5*%
%TO.N,GNDA*%
X82775000Y41030000D03*
%TO.P,J9,6,Pin_6*%
%TO.N,VOUT3*%
X80235000Y41030000D03*
%TO.P,J9,7,Pin_7*%
%TO.N,GNDA*%
X82775000Y43570000D03*
%TO.P,J9,8,Pin_8*%
%TO.N,VOUT4*%
X80235000Y43570000D03*
%TD*%
D12*
%TO.P,REF\u002A\u002A,1*%
%TO.N,N/C*%
X1100000Y3500000D03*
X1802944Y5197056D03*
X1802944Y1802944D03*
X3500000Y5900000D03*
D13*
X3500000Y3500000D03*
D12*
X3500000Y1100000D03*
X5197056Y5197056D03*
X5197056Y1802944D03*
X5900000Y3500000D03*
%TD*%
D14*
%TO.P,J7,2,2*%
%TO.N,GNDA*%
X66250000Y51260000D03*
X57750000Y51260000D03*
%TD*%
D10*
%TO.P,J4,1,Pin_1*%
%TO.N,GNDD*%
X10225000Y49830000D03*
D11*
%TO.P,J4,2,Pin_2*%
%TO.N,+5V*%
X12765000Y49830000D03*
%TD*%
D10*
%TO.P,J3,1,1*%
%TO.N,+3.3V*%
X12790000Y21920000D03*
D11*
%TO.P,J3,2,2*%
X10250000Y21920000D03*
%TO.P,J3,3,3*%
%TO.N,GNDD*%
X12790000Y19380000D03*
%TO.P,J3,4,4*%
X10250000Y19380000D03*
%TO.P,J3,5,5*%
%TO.N,GPIO27_ADC1*%
X12790000Y16840000D03*
%TO.P,J3,6,6*%
%TO.N,DIN*%
X10250000Y16840000D03*
%TO.P,J3,7,7*%
%TO.N,SCLK*%
X12790000Y14300000D03*
%TO.P,J3,8,8*%
%TO.N,SYNC*%
X10250000Y14300000D03*
%TO.P,J3,9,9*%
%TO.N,unconnected-(J3-Pad9)*%
X12790000Y11760000D03*
%TO.P,J3,10,10*%
%TO.N,unconnected-(J3-Pad10)*%
X10250000Y11760000D03*
%TO.P,J3,11,11*%
%TO.N,unconnected-(J3-Pad11)*%
X12790000Y9220000D03*
%TO.P,J3,12,12*%
%TO.N,unconnected-(J3-Pad12)*%
X10250000Y9220000D03*
%TD*%
D12*
%TO.P,REF\u002A\u002A,1*%
%TO.N,N/C*%
X79652944Y50552944D03*
X80355888Y52250000D03*
X80355888Y48855888D03*
X82052944Y52952944D03*
D13*
X82052944Y50552944D03*
D12*
X82052944Y48152944D03*
X83750000Y52250000D03*
X83750000Y48855888D03*
X84452944Y50552944D03*
%TD*%
%TO.P,REF\u002A\u002A,1*%
%TO.N,N/C*%
X1100000Y50500000D03*
X1802944Y52197056D03*
X1802944Y48802944D03*
X3500000Y52900000D03*
D13*
X3500000Y50500000D03*
D12*
X3500000Y48100000D03*
X5197056Y52197056D03*
X5197056Y48802944D03*
X5900000Y50500000D03*
%TD*%
%TO.P,REF\u002A\u002A,1*%
%TO.N,N/C*%
X79600000Y3500000D03*
X80302944Y5197056D03*
X80302944Y1802944D03*
X82000000Y5900000D03*
D13*
X82000000Y3500000D03*
D12*
X82000000Y1100000D03*
X83697056Y5197056D03*
X83697056Y1802944D03*
X84400000Y3500000D03*
%TD*%
D10*
%TO.P,J5,1,1*%
%TO.N,+3.3V*%
X12790000Y44780000D03*
D11*
%TO.P,J5,2,2*%
X10250000Y44780000D03*
%TO.P,J5,3,3*%
%TO.N,GNDD*%
X12790000Y42240000D03*
%TO.P,J5,4,4*%
X10250000Y42240000D03*
%TO.P,J5,5,5*%
%TO.N,GPIO16*%
X12790000Y39700000D03*
%TO.P,J5,6,6*%
%TO.N,GPIO17*%
X10250000Y39700000D03*
%TO.P,J5,7,7*%
%TO.N,GPIO18*%
X12790000Y37160000D03*
%TO.P,J5,8,8*%
%TO.N,GPIO19*%
X10250000Y37160000D03*
%TO.P,J5,9,9*%
%TO.N,GPIO20*%
X12790000Y34620000D03*
%TO.P,J5,10,10*%
%TO.N,GPIO21*%
X10250000Y34620000D03*
%TO.P,J5,11,11*%
%TO.N,GPIO22*%
X12790000Y32080000D03*
%TO.P,J5,12,12*%
%TO.N,GPIO26_ADC0*%
X10250000Y32080000D03*
%TD*%
D14*
%TO.P,J8,2,2*%
%TO.N,GNDA*%
X77500000Y51260000D03*
X69000000Y51260000D03*
%TD*%
D10*
%TO.P,J6,1,Pin_1*%
%TO.N,GNDD*%
X10225000Y4170000D03*
D11*
%TO.P,J6,2,Pin_2*%
%TO.N,+5V*%
X12765000Y4170000D03*
%TD*%
D10*
%TO.P,J1,1,Pin_1*%
%TO.N,+5V*%
X46700000Y51250000D03*
D11*
%TO.P,J1,2,Pin_2*%
%TO.N,SWCLK*%
X49240000Y51250000D03*
%TO.P,J1,3,Pin_3*%
%TO.N,SWDIO*%
X51780000Y51250000D03*
%TO.P,J1,4,Pin_4*%
%TO.N,GNDD*%
X54320000Y51250000D03*
%TD*%
D10*
%TO.P,J2,1,Pin_1*%
%TO.N,GNDD*%
X10225000Y27000000D03*
D11*
%TO.P,J2,2,Pin_2*%
%TO.N,+5V*%
X12765000Y27000000D03*
%TD*%
D15*
%TO.P,JO1,1*%
%TO.N,GNDD*%
X56000000Y43750000D03*
%TO.P,JO1,2*%
%TO.N,GNDA*%
X56250000Y43750000D03*
%TD*%
D16*
%TO.N,GNDD*%
X67500000Y2000000D03*
X51750000Y2000000D03*
X53000000Y3250000D03*
%TO.N,+3.3V*%
X50750000Y44075000D03*
%TO.N,+3.3VD*%
X57750000Y9250000D03*
X61750000Y3000000D03*
X66250000Y3000000D03*
%TO.N,STBY*%
X62250000Y9750000D03*
X21275000Y18100000D03*
%TO.N,VOUT1*%
X68000000Y22750000D03*
%TO.N,VOUT4*%
X68000000Y27000000D03*
%TO.N,DIN*%
X41500000Y45000000D03*
X52750000Y27000000D03*
%TO.N,VOUT2*%
X68000000Y24000000D03*
%TO.N,SCLK*%
X41500000Y42250000D03*
X51525000Y26975000D03*
%TO.N,SYNC*%
X50175000Y26975000D03*
X42000000Y47250000D03*
%TO.N,VOUT3*%
X68000000Y25500000D03*
%TO.N,GPIO27_ADC1*%
X21250000Y23250000D03*
%TO.N,GNDD*%
X43750000Y48250000D03*
X31000000Y25500000D03*
X60500000Y17250000D03*
X1750000Y45750000D03*
X62725000Y15350000D03*
X21250000Y33500000D03*
X22000000Y51500000D03*
X1750000Y35250000D03*
X21750000Y38000000D03*
X1750000Y7750000D03*
X62500000Y34000000D03*
X26250000Y25500000D03*
X29000000Y8250000D03*
X35000000Y16750000D03*
X34000000Y2000000D03*
X21750000Y46000000D03*
X26250000Y46000000D03*
X60500000Y18500000D03*
X35250000Y46000000D03*
X35000000Y12500000D03*
X35250000Y33500000D03*
X55250000Y48000000D03*
X35250000Y38000000D03*
X52250000Y36500000D03*
X21250000Y8000000D03*
X51750000Y42500000D03*
X24000000Y51500000D03*
X35500000Y21500000D03*
X22000000Y12500000D03*
X1750000Y22500000D03*
X1750000Y17250000D03*
X48250000Y44500000D03*
X43750000Y44500000D03*
X31000000Y38000000D03*
X26250000Y21500000D03*
X31000000Y42250000D03*
X31000000Y46000000D03*
X62500000Y39000000D03*
X21750000Y42250000D03*
X35250000Y25500000D03*
X60500000Y19750000D03*
X43750000Y40250000D03*
X59500000Y2750000D03*
X1750000Y40500000D03*
X23000000Y21750000D03*
X62500000Y36500000D03*
X29000000Y12500000D03*
X1750000Y28750000D03*
X35250000Y42250000D03*
X31000000Y33500000D03*
X26250000Y38000000D03*
X31000000Y29500000D03*
X21250000Y29500000D03*
X31000000Y21500000D03*
X21500000Y25250000D03*
X1750000Y12250000D03*
X29000000Y17000000D03*
X57250000Y2750000D03*
X22750000Y2000000D03*
X35750000Y8000000D03*
X35250000Y29500000D03*
X26250000Y42250000D03*
X26250000Y33500000D03*
X28500000Y49250000D03*
X22250000Y17000000D03*
X52250000Y39000000D03*
X49250000Y48000000D03*
X26250000Y29500000D03*
X64000000Y2750000D03*
X62500000Y31500000D03*
%TO.N,GNDA*%
X64500000Y20000000D03*
X74250000Y34500000D03*
X74250000Y32250000D03*
X71500000Y34500000D03*
X57000000Y47750000D03*
X71500000Y32250000D03*
X71750000Y18000000D03*
X71500000Y30000000D03*
X75500000Y50750000D03*
X59500000Y52250000D03*
X72750000Y2000000D03*
X69000000Y29500000D03*
X83750000Y33250000D03*
X64500000Y15500000D03*
X74250000Y37250000D03*
X83750000Y21500000D03*
X81500000Y29500000D03*
X76250000Y12000000D03*
X76250000Y14250000D03*
X68750000Y47750000D03*
X76750000Y42250000D03*
X71500000Y39750000D03*
X64250000Y50250000D03*
X69250000Y10750000D03*
X68000000Y44250000D03*
X73250000Y19500000D03*
X71500000Y37250000D03*
X69000000Y2750000D03*
X80500000Y21500000D03*
X74250000Y21500000D03*
X75500000Y49000000D03*
X69000000Y17325000D03*
X74250000Y39750000D03*
X80500000Y17250000D03*
X80000000Y46000000D03*
X74250000Y16500000D03*
X75500000Y52250000D03*
X74000000Y42250000D03*
X69000000Y34250000D03*
X78000000Y47500000D03*
X83750000Y25750000D03*
X76000000Y9000000D03*
X80750000Y25750000D03*
X83750000Y29500000D03*
X69000000Y36750000D03*
X74250000Y30000000D03*
X65000000Y47750000D03*
X70750000Y52250000D03*
X59000000Y46500000D03*
X75750000Y44500000D03*
X69000000Y32000000D03*
X76750000Y21500000D03*
X71750000Y44250000D03*
X67250000Y13250000D03*
X80500000Y13500000D03*
X65000000Y45000000D03*
X71000000Y9000000D03*
X76500000Y46500000D03*
X69000000Y41500000D03*
X70750000Y50250000D03*
X69000000Y39000000D03*
X83750000Y9000000D03*
X83750000Y13500000D03*
X70250000Y28250000D03*
X70000000Y42500000D03*
X64250000Y52250000D03*
X76000000Y18500000D03*
X80500000Y9000000D03*
X81500000Y33250000D03*
X70750000Y2750000D03*
X73000000Y48750000D03*
X83750000Y46000000D03*
X62250000Y48250000D03*
X66750000Y47750000D03*
X65575000Y15375000D03*
X77500000Y2000000D03*
X83750000Y17250000D03*
X59500000Y48250000D03*
X71500000Y21500000D03*
X59500000Y50250000D03*
%TD*%
D17*
%TO.N,+5V*%
X45200000Y52750000D02*
X27500000Y52750000D01*
X27500000Y52750000D02*
X24580000Y49830000D01*
X24580000Y49830000D02*
X12765000Y49830000D01*
X46700000Y51250000D02*
X45200000Y52750000D01*
%TO.N,+3.3V*%
X12790000Y45040000D02*
X12790000Y44780000D01*
X25000000Y48750000D02*
X16500000Y48750000D01*
X16500000Y48750000D02*
X12790000Y45040000D01*
X43125000Y51750000D02*
X28000000Y51750000D01*
X50750000Y44075000D02*
X50750000Y44125000D01*
X50750000Y44125000D02*
X43125000Y51750000D01*
X28000000Y51750000D02*
X25000000Y48750000D01*
X10250000Y21920000D02*
X12790000Y21920000D01*
X10250000Y44780000D02*
X12790000Y44780000D01*
%TO.N,+3.3VD*%
X57750000Y6000000D02*
X59500000Y4250000D01*
X61750000Y3750000D02*
X61750000Y4250000D01*
X66250000Y3500000D02*
X65500000Y4250000D01*
X59500000Y4250000D02*
X61250000Y4250000D01*
X66250000Y3000000D02*
X66250000Y3500000D01*
X61750000Y4250000D02*
X61250000Y4250000D01*
X61750000Y3750000D02*
X61250000Y4250000D01*
X65500000Y4250000D02*
X62250000Y4250000D01*
X57750000Y9250000D02*
X57750000Y6000000D01*
X62250000Y4250000D02*
X61750000Y4250000D01*
X61750000Y3000000D02*
X61750000Y3750000D01*
X61750000Y3750000D02*
X62250000Y4250000D01*
D18*
%TO.N,STBY*%
X60500000Y14100000D02*
X56500000Y18100000D01*
X62250000Y9750000D02*
X60500000Y11500000D01*
X56500000Y18100000D02*
X21275000Y18100000D01*
X60500000Y11500000D02*
X60500000Y14100000D01*
D19*
%TO.N,VOUT1*%
X68000000Y22750000D02*
X75750000Y22750000D01*
X75750000Y22750000D02*
X80250000Y27250000D01*
X80250000Y35935000D02*
X80235000Y35950000D01*
X80250000Y27250000D02*
X80250000Y35935000D01*
%TO.N,VOUT4*%
X76000000Y39500000D02*
X80070000Y43570000D01*
X68000000Y27000000D02*
X73250000Y27000000D01*
X73250000Y27000000D02*
X76000000Y29750000D01*
X76000000Y29750000D02*
X76000000Y39500000D01*
X80070000Y43570000D02*
X80235000Y43570000D01*
D18*
%TO.N,DIN*%
X8775000Y13750000D02*
X8775000Y15365000D01*
X43625000Y38500000D02*
X48237500Y38500000D01*
X52750000Y27000000D02*
X52725000Y26975000D01*
X52725000Y26975000D02*
X52725000Y22225000D01*
X20450000Y18900000D02*
X14600000Y13050000D01*
X42500000Y39625000D02*
X43625000Y38500000D01*
X49400000Y18900000D02*
X20450000Y18900000D01*
X52725000Y22225000D02*
X49400000Y18900000D01*
X48237500Y38500000D02*
X52750000Y33987500D01*
X52750000Y33987500D02*
X52750000Y27000000D01*
X8775000Y15365000D02*
X10250000Y16840000D01*
X41500000Y45000000D02*
X42500000Y44000000D01*
X9475000Y13050000D02*
X8775000Y13750000D01*
X42500000Y44000000D02*
X42500000Y39625000D01*
X14600000Y13050000D02*
X9475000Y13050000D01*
D19*
%TO.N,VOUT2*%
X78500000Y27750000D02*
X78500000Y36755000D01*
X68000000Y24000000D02*
X74750000Y24000000D01*
X78500000Y36755000D02*
X80235000Y38490000D01*
X74750000Y24000000D02*
X78500000Y27750000D01*
D18*
%TO.N,SCLK*%
X51525000Y34325000D02*
X51525000Y26975000D01*
X47850000Y38000000D02*
X51525000Y34325000D01*
X41500000Y42250000D02*
X41500000Y39425000D01*
X51525000Y21775000D02*
X49250000Y19500000D01*
X49250000Y19500000D02*
X19975000Y19500000D01*
X14775000Y14300000D02*
X12790000Y14300000D01*
X41500000Y39425000D02*
X42925000Y38000000D01*
X19975000Y19500000D02*
X14775000Y14300000D01*
X51525000Y26975000D02*
X51525000Y21775000D01*
X42925000Y38000000D02*
X47850000Y38000000D01*
%TO.N,SYNC*%
X40500000Y39300000D02*
X42300000Y37500000D01*
X50175000Y34768750D02*
X50175000Y26975000D01*
X42000000Y47250000D02*
X40500000Y45750000D01*
X15187500Y15575000D02*
X11525000Y15575000D01*
X19612500Y20000000D02*
X15187500Y15575000D01*
X48750000Y20000000D02*
X19612500Y20000000D01*
X50175000Y26975000D02*
X50175000Y21425000D01*
X11525000Y15575000D02*
X10250000Y14300000D01*
X42300000Y37500000D02*
X47443750Y37500000D01*
X40500000Y45750000D02*
X40500000Y39300000D01*
X47443750Y37500000D02*
X50175000Y34768750D01*
X50175000Y21425000D02*
X48750000Y20000000D01*
D19*
%TO.N,VOUT3*%
X68000000Y25500000D02*
X73750000Y25500000D01*
X73750000Y25500000D02*
X77250000Y29000000D01*
X77250000Y38045000D02*
X80235000Y41030000D01*
X77250000Y29000000D02*
X77250000Y38045000D01*
D18*
%TO.N,GPIO27_ADC1*%
X20500000Y20500000D02*
X21250000Y21250000D01*
X21250000Y21250000D02*
X21250000Y23250000D01*
X12790000Y16840000D02*
X15590000Y16840000D01*
X15590000Y16840000D02*
X19250000Y20500000D01*
X19250000Y20500000D02*
X20500000Y20500000D01*
D20*
%TO.N,GNDD*%
X54750000Y45000000D02*
X54750000Y42500000D01*
X54750000Y45000000D02*
X57250000Y45000000D01*
X56000000Y43750000D02*
X53500000Y43750000D01*
X55000000Y42750000D02*
X57500000Y42750000D01*
X55500000Y45000000D02*
X55500000Y42500000D01*
X57000000Y41750000D02*
X57000000Y44250000D01*
%TO.N,GNDA*%
X57000000Y44375000D02*
X57000000Y46125000D01*
X58875000Y44250000D02*
X57125000Y44250000D01*
X56250000Y43750000D02*
X58000000Y45500000D01*
%TD*%
%TA.AperFunction,Conductor*%
%TO.N,GNDA*%
G36*
X83025000Y36383012D02*
G01*
X82967993Y36415925D01*
X82840826Y36450000D01*
X82709174Y36450000D01*
X82582007Y36415925D01*
X82525000Y36383012D01*
X82525000Y38056988D01*
X82582007Y38024075D01*
X82709174Y37990000D01*
X82840826Y37990000D01*
X82967993Y38024075D01*
X83025000Y38056988D01*
X83025000Y36383012D01*
G37*
%TD.AperFunction*%
%TA.AperFunction,Conductor*%
G36*
X83025000Y38923012D02*
G01*
X82967993Y38955925D01*
X82840826Y38990000D01*
X82709174Y38990000D01*
X82582007Y38955925D01*
X82525000Y38923012D01*
X82525000Y40596988D01*
X82582007Y40564075D01*
X82709174Y40530000D01*
X82840826Y40530000D01*
X82967993Y40564075D01*
X83025000Y40596988D01*
X83025000Y38923012D01*
G37*
%TD.AperFunction*%
%TA.AperFunction,Conductor*%
G36*
X83025000Y41463012D02*
G01*
X82967993Y41495925D01*
X82840826Y41530000D01*
X82709174Y41530000D01*
X82582007Y41495925D01*
X82525000Y41463012D01*
X82525000Y43136988D01*
X82582007Y43104075D01*
X82709174Y43070000D01*
X82840826Y43070000D01*
X82967993Y43104075D01*
X83025000Y43136988D01*
X83025000Y41463012D01*
G37*
%TD.AperFunction*%
%TA.AperFunction,Conductor*%
G36*
X65004730Y52854815D02*
G01*
X65025372Y52838181D01*
X66515872Y51347681D01*
X66549357Y51286358D01*
X66544373Y51216666D01*
X66515872Y51172319D01*
X64950000Y49606448D01*
X64950000Y48762156D01*
X64956401Y48702628D01*
X64956403Y48702621D01*
X65006645Y48567914D01*
X65006649Y48567907D01*
X65092809Y48452813D01*
X65092812Y48452810D01*
X65207906Y48366650D01*
X65207913Y48366646D01*
X65342620Y48316404D01*
X65342627Y48316402D01*
X65402155Y48310001D01*
X65402172Y48310000D01*
X67097828Y48310000D01*
X67097844Y48310001D01*
X67157372Y48316402D01*
X67157379Y48316404D01*
X67292086Y48366646D01*
X67292093Y48366650D01*
X67407187Y48452810D01*
X67407190Y48452813D01*
X67493350Y48567907D01*
X67493354Y48567914D01*
X67508818Y48609374D01*
X67550689Y48665308D01*
X67616153Y48689725D01*
X67684426Y48674874D01*
X67733832Y48625469D01*
X67741182Y48609374D01*
X67756645Y48567914D01*
X67756649Y48567907D01*
X67842809Y48452813D01*
X67842812Y48452810D01*
X67957906Y48366650D01*
X67957913Y48366646D01*
X68092620Y48316404D01*
X68092627Y48316402D01*
X68152155Y48310001D01*
X68152172Y48310000D01*
X69847828Y48310000D01*
X69847844Y48310001D01*
X69907372Y48316402D01*
X69907379Y48316404D01*
X70042086Y48366646D01*
X70042093Y48366650D01*
X70157187Y48452810D01*
X70157190Y48452813D01*
X70243350Y48567907D01*
X70243354Y48567914D01*
X70293596Y48702621D01*
X70293598Y48702628D01*
X70299999Y48762156D01*
X70300000Y48762173D01*
X70300000Y49606447D01*
X68734128Y51172319D01*
X68700643Y51233642D01*
X68702528Y51260001D01*
X69353553Y51260001D01*
X69353553Y51260000D01*
X70299999Y50313553D01*
X76200000Y50313553D01*
X77146447Y51260000D01*
X77146447Y51260001D01*
X76200000Y52206448D01*
X76200000Y50313553D01*
X70299999Y50313553D01*
X70300000Y50313554D01*
X70300000Y52206447D01*
X70299999Y52206448D01*
X69353553Y51260001D01*
X68702528Y51260001D01*
X68705627Y51303334D01*
X68734128Y51347681D01*
X70224628Y52838181D01*
X70285951Y52871666D01*
X70312309Y52874500D01*
X76187691Y52874500D01*
X76254730Y52854815D01*
X76275372Y52838181D01*
X77765872Y51347681D01*
X77799357Y51286358D01*
X77794373Y51216666D01*
X77765872Y51172319D01*
X76200000Y49606448D01*
X76200000Y48762156D01*
X76206401Y48702628D01*
X76206403Y48702621D01*
X76256645Y48567914D01*
X76256649Y48567907D01*
X76342809Y48452813D01*
X76342812Y48452810D01*
X76457906Y48366650D01*
X76457913Y48366646D01*
X76592620Y48316404D01*
X76592627Y48316402D01*
X76652155Y48310001D01*
X76652172Y48310000D01*
X78347828Y48310000D01*
X78347844Y48310001D01*
X78407372Y48316402D01*
X78407379Y48316404D01*
X78542086Y48366646D01*
X78542093Y48366650D01*
X78657186Y48452809D01*
X78736650Y48558959D01*
X78792584Y48600830D01*
X78862275Y48605814D01*
X78923598Y48572329D01*
X78939912Y48552184D01*
X79055069Y48374858D01*
X79281295Y48095493D01*
X79299163Y48073428D01*
X79573428Y47799163D01*
X79573432Y47799160D01*
X79874861Y47555067D01*
X80002915Y47471908D01*
X80200155Y47343819D01*
X80545750Y47167730D01*
X80907857Y47028730D01*
X81282511Y46928342D01*
X81665606Y46867666D01*
X82031520Y46848489D01*
X82052943Y46847366D01*
X82052944Y46847366D01*
X82052945Y46847366D01*
X82073245Y46848430D01*
X82440282Y46867666D01*
X82823377Y46928342D01*
X83198031Y47028730D01*
X83560138Y47167730D01*
X83905733Y47343819D01*
X84102973Y47471908D01*
X84182965Y47523855D01*
X84249910Y47543859D01*
X84317042Y47524493D01*
X84363048Y47471908D01*
X84374500Y47419860D01*
X84374500Y6598536D01*
X84354815Y6531497D01*
X84302011Y6485742D01*
X84232853Y6475798D01*
X84181221Y6496746D01*
X84180807Y6496108D01*
X83852793Y6709123D01*
X83507197Y6885213D01*
X83145094Y7024212D01*
X83145087Y7024214D01*
X82770433Y7124602D01*
X82770429Y7124603D01*
X82770428Y7124603D01*
X82387339Y7185278D01*
X82000001Y7205578D01*
X81999999Y7205578D01*
X81612660Y7185278D01*
X81229572Y7124603D01*
X81229570Y7124603D01*
X80854905Y7024212D01*
X80492802Y6885213D01*
X80147206Y6709123D01*
X79821917Y6497878D01*
X79520488Y6253785D01*
X79520480Y6253778D01*
X79246222Y5979520D01*
X79246215Y5979512D01*
X79002122Y5678083D01*
X78790877Y5352794D01*
X78614787Y5007198D01*
X78475788Y4645095D01*
X78375397Y4270430D01*
X78375397Y4270428D01*
X78314722Y3887340D01*
X78294422Y3500001D01*
X78294422Y3500000D01*
X78314722Y3112661D01*
X78375397Y2729573D01*
X78375397Y2729571D01*
X78475788Y2354906D01*
X78614787Y1992803D01*
X78790877Y1647207D01*
X78842941Y1567035D01*
X78862945Y1500090D01*
X78843579Y1432958D01*
X78790994Y1386952D01*
X78738946Y1375500D01*
X68624000Y1375500D01*
X68556961Y1395185D01*
X68511206Y1447989D01*
X68500000Y1499500D01*
X68500000Y12250000D01*
X64124000Y12250000D01*
X64056961Y12269685D01*
X64011206Y12322489D01*
X64000000Y12374000D01*
X64000000Y15000006D01*
X63501088Y18741841D01*
X63500000Y18758229D01*
X63500000Y27000000D01*
X67094540Y27000000D01*
X67114326Y26811744D01*
X67114327Y26811741D01*
X67172818Y26631723D01*
X67172821Y26631716D01*
X67267466Y26467785D01*
X67388851Y26332972D01*
X67419081Y26269980D01*
X67410455Y26200645D01*
X67388851Y26167028D01*
X67267466Y26032216D01*
X67172821Y25868285D01*
X67172818Y25868278D01*
X67114327Y25688260D01*
X67114326Y25688256D01*
X67094540Y25500000D01*
X67114326Y25311744D01*
X67114327Y25311741D01*
X67172818Y25131723D01*
X67172821Y25131716D01*
X67267466Y24967785D01*
X67388851Y24832972D01*
X67419081Y24769980D01*
X67410455Y24700645D01*
X67388851Y24667028D01*
X67267466Y24532216D01*
X67172821Y24368285D01*
X67172818Y24368278D01*
X67114327Y24188260D01*
X67114326Y24188256D01*
X67094540Y24000000D01*
X67114326Y23811744D01*
X67114327Y23811741D01*
X67172818Y23631723D01*
X67172821Y23631716D01*
X67267467Y23467784D01*
X67273096Y23461533D01*
X67276304Y23457969D01*
X67306531Y23394977D01*
X67297904Y23325642D01*
X67276304Y23292031D01*
X67267466Y23282215D01*
X67172821Y23118285D01*
X67172818Y23118278D01*
X67114327Y22938260D01*
X67114326Y22938256D01*
X67094540Y22750000D01*
X67114326Y22561744D01*
X67114327Y22561741D01*
X67172818Y22381723D01*
X67172821Y22381716D01*
X67267467Y22217784D01*
X67373971Y22099500D01*
X67394129Y22077112D01*
X67547265Y21965852D01*
X67547270Y21965849D01*
X67720192Y21888858D01*
X67720197Y21888856D01*
X67905354Y21849500D01*
X67905355Y21849500D01*
X68094644Y21849500D01*
X68094646Y21849500D01*
X68279803Y21888856D01*
X68336619Y21914154D01*
X68350880Y21919478D01*
X68372827Y21926167D01*
X68378827Y21927995D01*
X68378828Y21927996D01*
X68378833Y21927997D01*
X68523088Y21995672D01*
X68537871Y22002904D01*
X68538556Y22003253D01*
X68553372Y22011113D01*
X68646644Y22062602D01*
X68653171Y22065954D01*
X68676258Y22076957D01*
X68722033Y22088789D01*
X68819872Y22094772D01*
X68858369Y22098609D01*
X68858373Y22098611D01*
X68861170Y22098889D01*
X68873469Y22099500D01*
X75814071Y22099500D01*
X75898615Y22116318D01*
X75939744Y22124499D01*
X76058127Y22173535D01*
X76070656Y22181907D01*
X76079028Y22187500D01*
X76135992Y22225563D01*
X76164669Y22244723D01*
X80755277Y26835331D01*
X80826465Y26941873D01*
X80875501Y27060256D01*
X80892513Y27145781D01*
X80900500Y27185931D01*
X80900500Y34183436D01*
X80903541Y34208295D01*
X80903246Y34208346D01*
X80904002Y34212702D01*
X80904002Y34212706D01*
X80904005Y34212716D01*
X80930729Y34477347D01*
X80939198Y34511497D01*
X80975448Y34600828D01*
X80989692Y34626618D01*
X81086420Y34761028D01*
X81086964Y34761776D01*
X81100769Y34780635D01*
X81236319Y34965815D01*
X81291798Y35008280D01*
X81361433Y35014012D01*
X81423111Y34981186D01*
X81452557Y34935904D01*
X81481646Y34857912D01*
X81481649Y34857907D01*
X81567809Y34742813D01*
X81567812Y34742810D01*
X81682906Y34656650D01*
X81682913Y34656646D01*
X81817620Y34606404D01*
X81817627Y34606402D01*
X81877155Y34600001D01*
X81877172Y34600000D01*
X82525000Y34600000D01*
X82525000Y35516988D01*
X82582007Y35484075D01*
X82709174Y35450000D01*
X82840826Y35450000D01*
X82967993Y35484075D01*
X83025000Y35516988D01*
X83025000Y34600000D01*
X83672828Y34600000D01*
X83672844Y34600001D01*
X83732372Y34606402D01*
X83732379Y34606404D01*
X83867086Y34656646D01*
X83867093Y34656650D01*
X83982187Y34742810D01*
X83982190Y34742813D01*
X84068350Y34857907D01*
X84068354Y34857914D01*
X84118596Y34992621D01*
X84118598Y34992628D01*
X84124999Y35052156D01*
X84125000Y35052173D01*
X84125000Y35700000D01*
X83208012Y35700000D01*
X83240925Y35757007D01*
X83275000Y35884174D01*
X83275000Y36015826D01*
X83240925Y36142993D01*
X83208012Y36200000D01*
X84125000Y36200000D01*
X84125000Y36847828D01*
X84124999Y36847845D01*
X84118598Y36907373D01*
X84118596Y36907380D01*
X84068354Y37042087D01*
X84068350Y37042094D01*
X83982190Y37157188D01*
X83982187Y37157191D01*
X83867093Y37243351D01*
X83867086Y37243355D01*
X83735013Y37292615D01*
X83679079Y37334486D01*
X83654662Y37399951D01*
X83669514Y37468224D01*
X83690665Y37496479D01*
X83813108Y37618922D01*
X83948600Y37812422D01*
X84048429Y38026508D01*
X84048432Y38026514D01*
X84105636Y38240000D01*
X83208012Y38240000D01*
X83240925Y38297007D01*
X83275000Y38424174D01*
X83275000Y38555826D01*
X83240925Y38682993D01*
X83208012Y38740000D01*
X84105636Y38740000D01*
X84105635Y38740001D01*
X84048432Y38953487D01*
X84048429Y38953493D01*
X83948600Y39167578D01*
X83948599Y39167580D01*
X83813113Y39361074D01*
X83813108Y39361080D01*
X83646082Y39528106D01*
X83459968Y39658425D01*
X83416344Y39713002D01*
X83409151Y39782501D01*
X83440673Y39844855D01*
X83459968Y39861575D01*
X83646082Y39991895D01*
X83813105Y40158918D01*
X83948600Y40352422D01*
X84048429Y40566508D01*
X84048432Y40566514D01*
X84105636Y40780000D01*
X83208012Y40780000D01*
X83240925Y40837007D01*
X83275000Y40964174D01*
X83275000Y41095826D01*
X83240925Y41222993D01*
X83208012Y41280000D01*
X84105636Y41280000D01*
X84105635Y41280001D01*
X84048432Y41493487D01*
X84048429Y41493493D01*
X83948600Y41707578D01*
X83948599Y41707580D01*
X83813113Y41901074D01*
X83813108Y41901080D01*
X83646082Y42068106D01*
X83459968Y42198425D01*
X83416344Y42253002D01*
X83409151Y42322501D01*
X83440673Y42384855D01*
X83459968Y42401575D01*
X83646082Y42531895D01*
X83813105Y42698918D01*
X83948600Y42892422D01*
X84048429Y43106508D01*
X84048432Y43106514D01*
X84105636Y43320000D01*
X83208012Y43320000D01*
X83240925Y43377007D01*
X83275000Y43504174D01*
X83275000Y43635826D01*
X83240925Y43762993D01*
X83208012Y43820000D01*
X84105636Y43820000D01*
X84105635Y43820001D01*
X84048432Y44033487D01*
X84048429Y44033493D01*
X83948600Y44247578D01*
X83948599Y44247580D01*
X83813113Y44441074D01*
X83813108Y44441080D01*
X83646082Y44608106D01*
X83452578Y44743601D01*
X83238492Y44843430D01*
X83238486Y44843433D01*
X83025000Y44900636D01*
X83025000Y44003012D01*
X82967993Y44035925D01*
X82840826Y44070000D01*
X82709174Y44070000D01*
X82582007Y44035925D01*
X82525000Y44003012D01*
X82525000Y44900636D01*
X82524999Y44900636D01*
X82311513Y44843433D01*
X82311507Y44843430D01*
X82097422Y44743601D01*
X82097420Y44743600D01*
X81903926Y44608114D01*
X81903920Y44608109D01*
X81736891Y44441080D01*
X81736890Y44441078D01*
X81606880Y44255405D01*
X81552303Y44211781D01*
X81482804Y44204588D01*
X81420450Y44236110D01*
X81403730Y44255406D01*
X81273494Y44441403D01*
X81106402Y44608494D01*
X81106395Y44608499D01*
X80912834Y44744033D01*
X80912830Y44744035D01*
X80898966Y44750500D01*
X80698663Y44843903D01*
X80698659Y44843904D01*
X80698655Y44843906D01*
X80470413Y44905062D01*
X80470403Y44905064D01*
X80235001Y44925659D01*
X80234999Y44925659D01*
X79999596Y44905064D01*
X79999586Y44905062D01*
X79771344Y44843906D01*
X79771335Y44843902D01*
X79557171Y44744036D01*
X79557169Y44744035D01*
X79363597Y44608495D01*
X79196505Y44441403D01*
X79060965Y44247831D01*
X79060964Y44247829D01*
X78969239Y44051126D01*
X78967613Y44047800D01*
X78965977Y44044130D01*
X78961096Y44033662D01*
X78956316Y44015823D01*
X78953825Y44007664D01*
X78853300Y43714796D01*
X78845656Y43690560D01*
X78845339Y43689461D01*
X78838815Y43664415D01*
X78780608Y43414972D01*
X78779435Y43410348D01*
X78739869Y43266108D01*
X78730121Y43241357D01*
X78677312Y43140575D01*
X78661646Y43117455D01*
X78488447Y42915283D01*
X78488448Y42915282D01*
X78483909Y42909985D01*
X78463879Y42884912D01*
X78454681Y42874629D01*
X75494724Y39914672D01*
X75455498Y39855966D01*
X75455499Y39855965D01*
X75423534Y39808126D01*
X75374499Y39689745D01*
X75374497Y39689739D01*
X75349500Y39564072D01*
X75349500Y30070808D01*
X75329815Y30003769D01*
X75313181Y29983127D01*
X73016873Y27686819D01*
X72955550Y27653334D01*
X72929192Y27650500D01*
X68855432Y27650500D01*
X68830328Y27653068D01*
X68819879Y27655229D01*
X68722034Y27661215D01*
X68676259Y27673047D01*
X68653168Y27684052D01*
X68646590Y27687431D01*
X68553362Y27738894D01*
X68538560Y27746748D01*
X68537915Y27747076D01*
X68537894Y27747087D01*
X68537871Y27747098D01*
X68523087Y27754330D01*
X68517471Y27756965D01*
X68483244Y27773022D01*
X68483242Y27773023D01*
X68378807Y27822016D01*
X68368659Y27826642D01*
X68368223Y27826835D01*
X68306968Y27849351D01*
X68299321Y27852455D01*
X68279804Y27861144D01*
X68279800Y27861145D01*
X68163102Y27885950D01*
X68094646Y27900500D01*
X67905354Y27900500D01*
X67872897Y27893602D01*
X67720197Y27861145D01*
X67720192Y27861143D01*
X67547270Y27784152D01*
X67547265Y27784149D01*
X67394129Y27672889D01*
X67267466Y27532215D01*
X67172821Y27368285D01*
X67172818Y27368278D01*
X67114327Y27188260D01*
X67114326Y27188256D01*
X67094540Y27000000D01*
X63500000Y27000000D01*
X63500000Y43750000D01*
X58124500Y43750000D01*
X58057461Y43769685D01*
X58011706Y43822489D01*
X58000500Y43874000D01*
X58000500Y44285390D01*
X58020185Y44352429D01*
X58025228Y44359359D01*
X58027136Y44362216D01*
X58027139Y44362218D01*
X58136632Y44526086D01*
X58212051Y44708165D01*
X58239052Y44843906D01*
X58250500Y44901457D01*
X58250500Y45098544D01*
X58212052Y45291830D01*
X58212051Y45291831D01*
X58212051Y45291835D01*
X58212049Y45291840D01*
X58136635Y45473908D01*
X58136628Y45473921D01*
X58027139Y45637782D01*
X58027136Y45637786D01*
X57887785Y45777137D01*
X57887781Y45777140D01*
X57723920Y45886629D01*
X57723907Y45886636D01*
X57541839Y45962050D01*
X57541829Y45962053D01*
X57348543Y46000500D01*
X57348541Y46000500D01*
X56624000Y46000500D01*
X56556961Y46020185D01*
X56511206Y46072989D01*
X56500000Y46124500D01*
X56500000Y48274567D01*
X56519685Y48341606D01*
X56572489Y48387361D01*
X56641647Y48397305D01*
X56698312Y48373833D01*
X56707910Y48366648D01*
X56707913Y48366646D01*
X56842620Y48316404D01*
X56842627Y48316402D01*
X56902155Y48310001D01*
X56902172Y48310000D01*
X58597828Y48310000D01*
X58597844Y48310001D01*
X58657372Y48316402D01*
X58657379Y48316404D01*
X58792086Y48366646D01*
X58792093Y48366650D01*
X58907187Y48452810D01*
X58907190Y48452813D01*
X58993350Y48567907D01*
X58993354Y48567914D01*
X59043596Y48702621D01*
X59043598Y48702628D01*
X59049999Y48762156D01*
X59050000Y48762173D01*
X59050000Y49606447D01*
X57484128Y51172319D01*
X57450643Y51233642D01*
X57452528Y51260001D01*
X58103553Y51260001D01*
X58103553Y51260000D01*
X59049999Y50313553D01*
X64950000Y50313553D01*
X65896447Y51260000D01*
X65896447Y51260001D01*
X64950000Y52206448D01*
X64950000Y50313553D01*
X59049999Y50313553D01*
X59050000Y50313554D01*
X59050000Y52206447D01*
X59049999Y52206448D01*
X58103553Y51260001D01*
X57452528Y51260001D01*
X57455627Y51303334D01*
X57484128Y51347681D01*
X58974628Y52838181D01*
X59035951Y52871666D01*
X59062309Y52874500D01*
X64937691Y52874500D01*
X65004730Y52854815D01*
G37*
%TD.AperFunction*%
%TD*%
%TA.AperFunction,Conductor*%
%TO.N,GNDD*%
G36*
X12324075Y19572993D02*
G01*
X12290000Y19445826D01*
X12290000Y19314174D01*
X12324075Y19187007D01*
X12356988Y19130000D01*
X10683012Y19130000D01*
X10715925Y19187007D01*
X10750000Y19314174D01*
X10750000Y19445826D01*
X10715925Y19572993D01*
X10683012Y19630000D01*
X12356988Y19630000D01*
X12324075Y19572993D01*
G37*
%TD.AperFunction*%
%TA.AperFunction,Conductor*%
G36*
X24596288Y52855546D02*
G01*
X24677070Y52801570D01*
X24731046Y52720788D01*
X24750000Y52625500D01*
X24750000Y51164508D01*
X24731046Y51069220D01*
X24677070Y50988438D01*
X24342062Y50653430D01*
X24261280Y50599454D01*
X24165992Y50580500D01*
X14540820Y50580500D01*
X14503105Y50584700D01*
X14502915Y50583444D01*
X14494126Y50584777D01*
X14231244Y50605595D01*
X14175013Y50616664D01*
X14091060Y50643529D01*
X14041773Y50665435D01*
X13921954Y50735115D01*
X13914318Y50739740D01*
X13694279Y50878490D01*
X13694273Y50878494D01*
X13671185Y50892209D01*
X13671177Y50892214D01*
X13671161Y50892223D01*
X13670122Y50892803D01*
X13646529Y50905181D01*
X13438765Y51007285D01*
X13438758Y51007287D01*
X13324462Y51063457D01*
X13324418Y51063478D01*
X13310073Y51070250D01*
X13310047Y51070262D01*
X13310019Y51070275D01*
X13309407Y51070552D01*
X13273255Y51083996D01*
X13254820Y51091707D01*
X13228665Y51103903D01*
X13000401Y51165065D01*
X12765005Y51185659D01*
X12764995Y51185659D01*
X12529598Y51165065D01*
X12301335Y51103903D01*
X12301333Y51103902D01*
X12087177Y51004039D01*
X12087169Y51004035D01*
X11893592Y50868490D01*
X11889215Y50864817D01*
X11885208Y50862620D01*
X11884694Y50862259D01*
X11884654Y50862316D01*
X11804034Y50818091D01*
X11707456Y50807519D01*
X11614184Y50834710D01*
X11538417Y50895525D01*
X11529681Y50908322D01*
X11529026Y50907831D01*
X11432189Y51037188D01*
X11432187Y51037190D01*
X11317087Y51123354D01*
X11182378Y51173597D01*
X11182371Y51173599D01*
X11122832Y51180000D01*
X10475001Y51180000D01*
X10475000Y51179999D01*
X10475000Y50263012D01*
X10417993Y50295925D01*
X10290826Y50330000D01*
X10159174Y50330000D01*
X10032007Y50295925D01*
X9975000Y50263012D01*
X9975000Y51179999D01*
X9974999Y51180000D01*
X9327167Y51180000D01*
X9267628Y51173599D01*
X9267621Y51173597D01*
X9132912Y51123354D01*
X9017812Y51037190D01*
X9017810Y51037188D01*
X8931646Y50922088D01*
X8881403Y50787379D01*
X8881401Y50787372D01*
X8875000Y50727833D01*
X8875000Y50080001D01*
X8875001Y50080000D01*
X9791988Y50080000D01*
X9759075Y50022993D01*
X9725000Y49895826D01*
X9725000Y49764174D01*
X9759075Y49637007D01*
X9791988Y49580000D01*
X8875001Y49580000D01*
X8875000Y49579999D01*
X8875000Y48932168D01*
X8881401Y48872629D01*
X8881403Y48872622D01*
X8931646Y48737913D01*
X9017810Y48622813D01*
X9017812Y48622811D01*
X9132912Y48536647D01*
X9267621Y48486404D01*
X9267628Y48486402D01*
X9327167Y48480001D01*
X9327175Y48480000D01*
X9974999Y48480000D01*
X9975000Y48480001D01*
X9975000Y49396988D01*
X10032007Y49364075D01*
X10159174Y49330000D01*
X10290826Y49330000D01*
X10417993Y49364075D01*
X10475000Y49396988D01*
X10475000Y48480001D01*
X10475001Y48480000D01*
X10501000Y48480000D01*
X10596288Y48461046D01*
X10677070Y48407070D01*
X10731046Y48326288D01*
X10750000Y48231000D01*
X10750000Y46363651D01*
X10731046Y46268363D01*
X10677070Y46187581D01*
X10596288Y46133605D01*
X10501000Y46114651D01*
X10479299Y46115598D01*
X10342281Y46127586D01*
X10250000Y46135659D01*
X10249998Y46135659D01*
X10249996Y46135659D01*
X10249995Y46135659D01*
X10014598Y46115065D01*
X9786335Y46053903D01*
X9786333Y46053902D01*
X9572177Y45954039D01*
X9572169Y45954035D01*
X9378600Y45818496D01*
X9211504Y45651400D01*
X9075965Y45457831D01*
X9075961Y45457823D01*
X8976098Y45243667D01*
X8976097Y45243665D01*
X8914935Y45015402D01*
X8894341Y44780006D01*
X8894341Y44779995D01*
X8914935Y44544599D01*
X8954019Y44398732D01*
X8976097Y44316337D01*
X9045756Y44166953D01*
X9075965Y44102170D01*
X9147504Y44000001D01*
X9211505Y43908599D01*
X9378599Y43741505D01*
X9418362Y43713662D01*
X9485544Y43643483D01*
X9520757Y43552933D01*
X9518638Y43455802D01*
X9479509Y43366874D01*
X9418364Y43305728D01*
X9378923Y43278111D01*
X9211889Y43111077D01*
X9076400Y42917580D01*
X9076396Y42917572D01*
X8976570Y42703495D01*
X8976566Y42703484D01*
X8919363Y42490002D01*
X8919364Y42490000D01*
X9816988Y42490000D01*
X9784075Y42432993D01*
X9750000Y42305826D01*
X9750000Y42174174D01*
X9784075Y42047007D01*
X9816988Y41990000D01*
X8919364Y41990000D01*
X8976569Y41776508D01*
X8976668Y41776296D01*
X8976712Y41776113D01*
X8980286Y41766296D01*
X8979211Y41765905D01*
X8999763Y41681926D01*
X9000000Y41671059D01*
X9000000Y40270125D01*
X8981046Y40174837D01*
X8976671Y40164895D01*
X8976098Y40163668D01*
X8976097Y40163665D01*
X8914935Y39935402D01*
X8894341Y39700006D01*
X8894341Y39699995D01*
X8914935Y39464599D01*
X8914937Y39464592D01*
X8976097Y39236337D01*
X8976668Y39235111D01*
X8976926Y39234059D01*
X8979814Y39226125D01*
X8978945Y39225809D01*
X8999763Y39140744D01*
X9000000Y39129876D01*
X9000000Y37730125D01*
X8981046Y37634837D01*
X8976671Y37624895D01*
X8976098Y37623668D01*
X8976097Y37623665D01*
X8914935Y37395402D01*
X8894341Y37160006D01*
X8894341Y37159995D01*
X8914935Y36924599D01*
X8914937Y36924592D01*
X8976097Y36696337D01*
X8976668Y36695111D01*
X8976926Y36694059D01*
X8979814Y36686125D01*
X8978945Y36685809D01*
X8999763Y36600744D01*
X9000000Y36589876D01*
X9000000Y35190125D01*
X8981046Y35094837D01*
X8976671Y35084895D01*
X8976098Y35083668D01*
X8976097Y35083665D01*
X8914935Y34855402D01*
X8894341Y34620006D01*
X8894341Y34619995D01*
X8914935Y34384599D01*
X8914937Y34384592D01*
X8976097Y34156337D01*
X8976668Y34155111D01*
X8976926Y34154059D01*
X8979814Y34146125D01*
X8978945Y34145809D01*
X8999763Y34060744D01*
X9000000Y34049876D01*
X9000000Y32650125D01*
X8981046Y32554837D01*
X8976671Y32544895D01*
X8976098Y32543668D01*
X8976097Y32543665D01*
X8914935Y32315402D01*
X8894341Y32080006D01*
X8894341Y32079995D01*
X8914935Y31844599D01*
X8914937Y31844592D01*
X8976097Y31616337D01*
X9075965Y31402170D01*
X9211505Y31208599D01*
X9378599Y31041505D01*
X9572170Y30905965D01*
X9786337Y30806097D01*
X10014592Y30744937D01*
X10014595Y30744937D01*
X10014598Y30744936D01*
X10249995Y30724341D01*
X10250000Y30724341D01*
X10250005Y30724341D01*
X10485401Y30744936D01*
X10485405Y30744937D01*
X10485408Y30744937D01*
X10485410Y30744938D01*
X10492673Y30746218D01*
X10535908Y30750000D01*
X12504092Y30750000D01*
X12547327Y30746218D01*
X12554598Y30744936D01*
X12789995Y30724341D01*
X12790000Y30724341D01*
X12790005Y30724341D01*
X13025401Y30744936D01*
X13025403Y30744937D01*
X13025408Y30744937D01*
X13253663Y30806097D01*
X13467830Y30905965D01*
X13661401Y31041505D01*
X13828495Y31208599D01*
X13964035Y31402170D01*
X14063903Y31616337D01*
X14125063Y31844592D01*
X14145659Y32080000D01*
X14145659Y32080006D01*
X14125064Y32315402D01*
X14125063Y32315405D01*
X14125063Y32315408D01*
X14063903Y32543663D01*
X14045887Y32582297D01*
X14023329Y32630675D01*
X14000237Y32725046D01*
X14000000Y32735906D01*
X14000000Y33964095D01*
X14018954Y34059383D01*
X14023329Y34069327D01*
X14063903Y34156337D01*
X14125063Y34384592D01*
X14125064Y34384599D01*
X14145659Y34619995D01*
X14145659Y34620006D01*
X14125064Y34855402D01*
X14125063Y34855405D01*
X14125063Y34855408D01*
X14063903Y35083663D01*
X14045887Y35122297D01*
X14023329Y35170675D01*
X14000237Y35265046D01*
X14000000Y35275906D01*
X14000000Y36504095D01*
X14018954Y36599383D01*
X14023329Y36609327D01*
X14063903Y36696337D01*
X14125063Y36924592D01*
X14132898Y37014142D01*
X14145659Y37159995D01*
X14145659Y37160006D01*
X14125064Y37395402D01*
X14125063Y37395405D01*
X14125063Y37395408D01*
X14063903Y37623663D01*
X14045887Y37662297D01*
X14023329Y37710675D01*
X14000237Y37805046D01*
X14000000Y37815906D01*
X14000000Y39044095D01*
X14018954Y39139383D01*
X14023329Y39149327D01*
X14063903Y39236337D01*
X14125063Y39464592D01*
X14145659Y39700000D01*
X14145659Y39700006D01*
X14125064Y39935402D01*
X14125063Y39935405D01*
X14125063Y39935408D01*
X14063903Y40163663D01*
X14045887Y40202297D01*
X14023329Y40250675D01*
X14000237Y40345046D01*
X14000000Y40355906D01*
X14000000Y41585279D01*
X14018954Y41680567D01*
X14023329Y41690511D01*
X14063433Y41776515D01*
X14063433Y41776517D01*
X14120636Y41989999D01*
X14120636Y41990000D01*
X13223012Y41990000D01*
X13255925Y42047007D01*
X13290000Y42174174D01*
X13290000Y42305826D01*
X13255925Y42432993D01*
X13223012Y42490000D01*
X14120636Y42490000D01*
X14120636Y42490002D01*
X14063433Y42703484D01*
X14063429Y42703495D01*
X13963603Y42917572D01*
X13963599Y42917580D01*
X13828106Y43111082D01*
X13824704Y43115137D01*
X13822665Y43118853D01*
X13821874Y43119983D01*
X13821997Y43120070D01*
X13777974Y43200315D01*
X13767398Y43296893D01*
X13794585Y43390166D01*
X13855397Y43465936D01*
X13868540Y43474907D01*
X13868073Y43475531D01*
X13882329Y43486204D01*
X13882331Y43486204D01*
X13997546Y43572454D01*
X14083796Y43687669D01*
X14134091Y43822517D01*
X14140500Y43882127D01*
X14140499Y44358196D01*
X14148935Y44422461D01*
X14198577Y44608276D01*
X14210581Y44653208D01*
X14229471Y44723925D01*
X14231157Y44729935D01*
X14328788Y45061457D01*
X14331021Y45068631D01*
X14426575Y45359876D01*
X14429651Y45368686D01*
X14522117Y45618384D01*
X14526426Y45629227D01*
X14570968Y45734026D01*
X14624053Y45812688D01*
X16737937Y47926570D01*
X16818719Y47980546D01*
X16914007Y47999500D01*
X25073919Y47999500D01*
X25073919Y47999501D01*
X25218913Y48028342D01*
X25355495Y48084916D01*
X25355498Y48084919D01*
X25355500Y48084919D01*
X25394751Y48111146D01*
X25429299Y48134230D01*
X25478416Y48167048D01*
X28237937Y50926571D01*
X28318719Y50980546D01*
X28414007Y50999500D01*
X42710992Y50999500D01*
X42806280Y50980546D01*
X42887062Y50926570D01*
X49646680Y44166953D01*
X49673543Y44135171D01*
X49679273Y44127111D01*
X49679277Y44127107D01*
X49679279Y44127104D01*
X49718390Y44086025D01*
X49718394Y44086021D01*
X49741639Y44061607D01*
X49759002Y44043371D01*
X49774851Y44025011D01*
X49788602Y44007418D01*
X49809667Y43975750D01*
X49811186Y43973036D01*
X49823116Y43948714D01*
X49840150Y43908599D01*
X49850810Y43883494D01*
X49852525Y43879352D01*
X49907293Y43743625D01*
X49911952Y43733742D01*
X49921383Y43709944D01*
X49922821Y43706715D01*
X50017464Y43542788D01*
X50017469Y43542781D01*
X50144126Y43402115D01*
X50144129Y43402112D01*
X50258984Y43318665D01*
X50297271Y43290848D01*
X50470189Y43213859D01*
X50470192Y43213858D01*
X50470197Y43213856D01*
X50655354Y43174500D01*
X50844645Y43174500D01*
X50844646Y43174500D01*
X51029803Y43213856D01*
X51104169Y43246966D01*
X51202728Y43290848D01*
X51202728Y43290849D01*
X51202730Y43290849D01*
X51355871Y43402112D01*
X51482533Y43542784D01*
X51577179Y43706716D01*
X51635674Y43886744D01*
X51655460Y44075000D01*
X51635674Y44263256D01*
X51577179Y44443284D01*
X51482533Y44607216D01*
X51355871Y44747888D01*
X51355867Y44747891D01*
X51352496Y44750928D01*
X51341359Y44759875D01*
X51220426Y44867060D01*
X51192770Y44889872D01*
X51191461Y44890876D01*
X51162370Y44911597D01*
X51162366Y44911600D01*
X51045058Y44989061D01*
X51029036Y44999214D01*
X51028284Y44999671D01*
X51027927Y44999879D01*
X51011801Y45009268D01*
X50928609Y45055623D01*
X50912605Y45065347D01*
X50862586Y45098375D01*
X50834631Y45119821D01*
X50734608Y45208474D01*
X50706854Y45231227D01*
X50688650Y45247717D01*
X48822930Y47113438D01*
X48768954Y47194220D01*
X48750000Y47289508D01*
X48750000Y49665476D01*
X48768954Y49760764D01*
X48822930Y49841546D01*
X48903712Y49895522D01*
X48999000Y49914476D01*
X49020690Y49913529D01*
X49155837Y49901705D01*
X49239996Y49894341D01*
X49240000Y49894341D01*
X49240005Y49894341D01*
X49475401Y49914936D01*
X49475403Y49914937D01*
X49475408Y49914937D01*
X49703663Y49976097D01*
X49703930Y49976222D01*
X49704895Y49976671D01*
X49705947Y49976929D01*
X49713875Y49979814D01*
X49714191Y49978946D01*
X49799265Y49999763D01*
X49810125Y50000000D01*
X51209875Y50000000D01*
X51305163Y49981046D01*
X51315105Y49976671D01*
X51316332Y49976099D01*
X51316334Y49976099D01*
X51316337Y49976097D01*
X51544592Y49914937D01*
X51544595Y49914937D01*
X51544598Y49914936D01*
X51779995Y49894341D01*
X51780000Y49894341D01*
X51780005Y49894341D01*
X52015401Y49914936D01*
X52015403Y49914937D01*
X52015408Y49914937D01*
X52243663Y49976097D01*
X52243930Y49976222D01*
X52244895Y49976671D01*
X52245947Y49976929D01*
X52253875Y49979814D01*
X52254191Y49978946D01*
X52339265Y49999763D01*
X52350125Y50000000D01*
X53751059Y50000000D01*
X53846347Y49981046D01*
X53856288Y49976672D01*
X53856505Y49976571D01*
X54070000Y49919366D01*
X54070000Y50816988D01*
X54127007Y50784075D01*
X54254174Y50750000D01*
X54385826Y50750000D01*
X54512993Y50784075D01*
X54570000Y50816988D01*
X54570000Y49919365D01*
X54783488Y49976569D01*
X54997576Y50076400D01*
X55191076Y50211890D01*
X55358110Y50378924D01*
X55493600Y50572424D01*
X55593433Y50786515D01*
X55593433Y50786517D01*
X55650636Y50999999D01*
X55650636Y51000000D01*
X54753012Y51000000D01*
X54785925Y51057007D01*
X54820000Y51184174D01*
X54820000Y51315826D01*
X54785925Y51442993D01*
X54753012Y51500000D01*
X55650636Y51500000D01*
X55650636Y51500002D01*
X55593433Y51713484D01*
X55593429Y51713495D01*
X55493603Y51927572D01*
X55493599Y51927580D01*
X55358110Y52121077D01*
X55191074Y52288113D01*
X55000533Y52421531D01*
X54933349Y52491712D01*
X54898136Y52582262D01*
X54900255Y52679393D01*
X54939384Y52768320D01*
X55009565Y52835504D01*
X55100115Y52870717D01*
X55143353Y52874500D01*
X56200500Y52874500D01*
X56295788Y52855546D01*
X56376570Y52801570D01*
X56430546Y52720788D01*
X56449500Y52625500D01*
X56449500Y49039058D01*
X56430546Y48943770D01*
X56376570Y48862988D01*
X56335120Y48829586D01*
X56241457Y48769394D01*
X56188660Y48723644D01*
X56188646Y48723630D01*
X56094433Y48614905D01*
X56034661Y48484027D01*
X56014977Y48416992D01*
X56014976Y48416983D01*
X55994500Y48274567D01*
X55994500Y48274563D01*
X55994500Y46124500D01*
X55998073Y46091269D01*
X55999500Y46064650D01*
X55999500Y45261000D01*
X55980546Y45165712D01*
X55926570Y45084930D01*
X55845788Y45030954D01*
X55750501Y45012000D01*
X55542404Y45012000D01*
X55542386Y45011999D01*
X55499361Y45009082D01*
X55313397Y44962835D01*
X55141724Y44877693D01*
X55141722Y44877692D01*
X54992369Y44757638D01*
X54992362Y44757631D01*
X54872308Y44608278D01*
X54872307Y44608276D01*
X54787164Y44436602D01*
X54740918Y44250638D01*
X54740916Y44250625D01*
X54738001Y44207634D01*
X54738000Y44207604D01*
X54738000Y44000001D01*
X54738001Y44000000D01*
X54738500Y44000000D01*
X54833788Y43981046D01*
X54914570Y43927070D01*
X54968546Y43846288D01*
X54987500Y43751124D01*
X54987501Y43749124D01*
X54968595Y43653827D01*
X54914659Y43573018D01*
X54833904Y43519002D01*
X54738625Y43500000D01*
X54738002Y43500000D01*
X54738001Y43499999D01*
X54738001Y43292388D01*
X54740918Y43249362D01*
X54787165Y43063398D01*
X54872307Y42891725D01*
X54872308Y42891723D01*
X54992362Y42742370D01*
X54992369Y42742363D01*
X55141722Y42622309D01*
X55141724Y42622308D01*
X55313398Y42537165D01*
X55499362Y42490919D01*
X55499375Y42490917D01*
X55542366Y42488002D01*
X55542396Y42488001D01*
X55776517Y42488001D01*
X55788112Y42487608D01*
X55788114Y42487643D01*
X55792314Y42487502D01*
X55792343Y42487500D01*
X56707656Y42487501D01*
X56750704Y42490419D01*
X56936775Y42536693D01*
X57108547Y42621884D01*
X57257990Y42742010D01*
X57378116Y42891453D01*
X57463307Y43063225D01*
X57463307Y43063229D01*
X57467963Y43075897D01*
X57469579Y43075304D01*
X57504047Y43148494D01*
X57575924Y43213860D01*
X57667345Y43246744D01*
X57704293Y43249500D01*
X58071914Y43249500D01*
X58107347Y43246966D01*
X58124500Y43244500D01*
X62745500Y43244500D01*
X62840788Y43225546D01*
X62921570Y43171570D01*
X62975546Y43090788D01*
X62994500Y42995500D01*
X62994500Y18758216D01*
X62995608Y18724758D01*
X62996698Y18708345D01*
X63000019Y18675050D01*
X63492316Y14982832D01*
X63494500Y14949923D01*
X63494500Y12373997D01*
X63506053Y12266539D01*
X63506053Y12266538D01*
X63517256Y12215040D01*
X63517257Y12215037D01*
X63551386Y12112499D01*
X63551388Y12112494D01*
X63629173Y11991459D01*
X63629175Y11991457D01*
X63674930Y11938653D01*
X63674937Y11938647D01*
X63783662Y11844434D01*
X63914540Y11784662D01*
X63981575Y11764978D01*
X63981578Y11764978D01*
X63981580Y11764977D01*
X63981584Y11764976D01*
X64124000Y11744500D01*
X67745500Y11744500D01*
X67840788Y11725546D01*
X67921570Y11671570D01*
X67975546Y11590788D01*
X67994500Y11495500D01*
X67994500Y1624500D01*
X67975546Y1529212D01*
X67921570Y1448430D01*
X67840788Y1394454D01*
X67745500Y1375500D01*
X32749000Y1375500D01*
X32653712Y1394454D01*
X32572930Y1448430D01*
X32518954Y1529212D01*
X32500000Y1624500D01*
X32500000Y2368026D01*
X32518954Y2463314D01*
X32520973Y2468048D01*
X32554154Y2543693D01*
X32554154Y2543694D01*
X32554157Y2543700D01*
X32611134Y2768695D01*
X32630300Y3000000D01*
X32611134Y3231305D01*
X32569593Y3395347D01*
X32554158Y3456297D01*
X32554155Y3456305D01*
X32520972Y3531955D01*
X32500053Y3626831D01*
X32500000Y3631977D01*
X32500000Y7249999D01*
X32500000Y7250000D01*
X32499999Y7250000D01*
X31236242Y7250000D01*
X31171796Y7258485D01*
X31164089Y7260550D01*
X31142983Y7266206D01*
X31142979Y7266207D01*
X31142977Y7266207D01*
X30925000Y7285277D01*
X30707023Y7266207D01*
X30707021Y7266207D01*
X30707016Y7266206D01*
X30684029Y7260046D01*
X30678203Y7258485D01*
X30613758Y7250000D01*
X26386242Y7250000D01*
X26321796Y7258485D01*
X26314089Y7260550D01*
X26292983Y7266206D01*
X26292979Y7266207D01*
X26292977Y7266207D01*
X26075000Y7285277D01*
X25857023Y7266207D01*
X25857021Y7266207D01*
X25857016Y7266206D01*
X25834029Y7260046D01*
X25828203Y7258485D01*
X25763758Y7250000D01*
X24500001Y7250000D01*
X24500000Y7250000D01*
X24500000Y7249999D01*
X24500000Y3631977D01*
X24481046Y3536689D01*
X24479028Y3531955D01*
X24445844Y3456305D01*
X24445841Y3456297D01*
X24388868Y3231316D01*
X24388866Y3231309D01*
X24369700Y3000000D01*
X24388866Y2768692D01*
X24388868Y2768685D01*
X24445841Y2543707D01*
X24445845Y2543693D01*
X24479027Y2468048D01*
X24499947Y2373172D01*
X24500000Y2368026D01*
X24500000Y1624500D01*
X24481046Y1529212D01*
X24427070Y1448430D01*
X24346288Y1394454D01*
X24251000Y1375500D01*
X6977013Y1375500D01*
X6881725Y1394454D01*
X6800943Y1448430D01*
X6746967Y1529212D01*
X6728013Y1624500D01*
X6746967Y1719788D01*
X6755152Y1737543D01*
X6885213Y1992805D01*
X6885214Y1992806D01*
X7024214Y2354913D01*
X7124602Y2729567D01*
X7185278Y3112662D01*
X7205578Y3500000D01*
X7185278Y3887338D01*
X7124602Y4270433D01*
X7024214Y4645087D01*
X6885214Y5007194D01*
X6854317Y5067833D01*
X8875000Y5067833D01*
X8875000Y4420001D01*
X8875001Y4420000D01*
X9791988Y4420000D01*
X9759075Y4362993D01*
X9725000Y4235826D01*
X9725000Y4104174D01*
X9759075Y3977007D01*
X9791988Y3920000D01*
X8875001Y3920000D01*
X8875000Y3919999D01*
X8875000Y3272168D01*
X8881401Y3212629D01*
X8881403Y3212622D01*
X8931646Y3077913D01*
X9017810Y2962813D01*
X9017812Y2962811D01*
X9132912Y2876647D01*
X9267621Y2826404D01*
X9267628Y2826402D01*
X9327167Y2820001D01*
X9327175Y2820000D01*
X9974999Y2820000D01*
X9975000Y2820001D01*
X9975000Y3736988D01*
X10032007Y3704075D01*
X10159174Y3670000D01*
X10290826Y3670000D01*
X10417993Y3704075D01*
X10475000Y3736988D01*
X10475000Y2820001D01*
X10475001Y2820000D01*
X11122825Y2820000D01*
X11122832Y2820001D01*
X11182371Y2826402D01*
X11182378Y2826404D01*
X11317087Y2876647D01*
X11432187Y2962811D01*
X11432189Y2962813D01*
X11529026Y3092169D01*
X11532313Y3089709D01*
X11572897Y3138286D01*
X11658978Y3183333D01*
X11755745Y3192009D01*
X11848466Y3162993D01*
X11889223Y3135177D01*
X11893593Y3131511D01*
X11893599Y3131505D01*
X12087170Y2995965D01*
X12301337Y2896097D01*
X12529592Y2834937D01*
X12529595Y2834937D01*
X12529598Y2834936D01*
X12764995Y2814341D01*
X12765000Y2814341D01*
X12765005Y2814341D01*
X13000401Y2834936D01*
X13000403Y2834937D01*
X13000408Y2834937D01*
X13228663Y2896097D01*
X13442830Y2995965D01*
X13636401Y3131505D01*
X13803495Y3298599D01*
X13939035Y3492170D01*
X14038903Y3706337D01*
X14100063Y3934592D01*
X14103897Y3978415D01*
X14120659Y4169995D01*
X14120659Y4170006D01*
X14100064Y4405402D01*
X14100063Y4405405D01*
X14100063Y4405408D01*
X14038903Y4633663D01*
X13964233Y4793793D01*
X13939038Y4847823D01*
X13939034Y4847831D01*
X13852329Y4971658D01*
X13803495Y5041401D01*
X13636401Y5208495D01*
X13580223Y5247831D01*
X13442830Y5344035D01*
X13371729Y5377190D01*
X13228663Y5443903D01*
X13228660Y5443904D01*
X13000401Y5505065D01*
X12765005Y5525659D01*
X12764995Y5525659D01*
X12529598Y5505065D01*
X12301335Y5443903D01*
X12301333Y5443902D01*
X12087177Y5344039D01*
X12087169Y5344035D01*
X11893592Y5208490D01*
X11889215Y5204817D01*
X11885208Y5202620D01*
X11884694Y5202259D01*
X11884654Y5202316D01*
X11804034Y5158091D01*
X11707456Y5147519D01*
X11614184Y5174710D01*
X11538417Y5235525D01*
X11529681Y5248322D01*
X11529026Y5247831D01*
X11432189Y5377188D01*
X11432187Y5377190D01*
X11317087Y5463354D01*
X11182378Y5513597D01*
X11182371Y5513599D01*
X11122832Y5520000D01*
X10475001Y5520000D01*
X10475000Y5519999D01*
X10475000Y4603012D01*
X10417993Y4635925D01*
X10290826Y4670000D01*
X10159174Y4670000D01*
X10032007Y4635925D01*
X9975000Y4603012D01*
X9975000Y5519999D01*
X9974999Y5520000D01*
X9327167Y5520000D01*
X9267628Y5513599D01*
X9267621Y5513597D01*
X9132912Y5463354D01*
X9017812Y5377190D01*
X9017810Y5377188D01*
X8931646Y5262088D01*
X8881403Y5127379D01*
X8881401Y5127372D01*
X8875000Y5067833D01*
X6854317Y5067833D01*
X6709125Y5352789D01*
X6534703Y5621376D01*
X6497875Y5678086D01*
X6253786Y5979510D01*
X6253785Y5979511D01*
X6253781Y5979516D01*
X5979516Y6253781D01*
X5979509Y6253787D01*
X5678085Y6497876D01*
X5352789Y6709125D01*
X5352784Y6709128D01*
X5007195Y6885214D01*
X4730054Y6991598D01*
X4645087Y7024214D01*
X4270433Y7124602D01*
X4270429Y7124603D01*
X4270428Y7124603D01*
X3887344Y7185277D01*
X3887345Y7185277D01*
X3887343Y7185278D01*
X3887338Y7185278D01*
X3500000Y7205578D01*
X3112662Y7185278D01*
X3112656Y7185278D01*
X3112654Y7185277D01*
X2729571Y7124603D01*
X2354913Y7024214D01*
X1992804Y6885214D01*
X1647215Y6709128D01*
X1647210Y6709125D01*
X1510115Y6620094D01*
X1419876Y6584092D01*
X1322730Y6585364D01*
X1233465Y6623716D01*
X1165671Y6693308D01*
X1129669Y6783547D01*
X1125500Y6828923D01*
X1125500Y15426613D01*
X8149500Y15426613D01*
X8149500Y15426606D01*
X8149500Y13811607D01*
X8149500Y13688393D01*
X8155467Y13658394D01*
X8173536Y13567551D01*
X8186665Y13535855D01*
X8186666Y13535852D01*
X8220685Y13453720D01*
X8220686Y13453717D01*
X8220687Y13453715D01*
X8220688Y13453714D01*
X8247647Y13413368D01*
X8289142Y13351267D01*
X8376267Y13264142D01*
X8376269Y13264141D01*
X8390461Y13249949D01*
X8390460Y13249949D01*
X8390464Y13249946D01*
X8927070Y12713339D01*
X8981046Y12632558D01*
X9000000Y12537270D01*
X9000000Y12330125D01*
X8981046Y12234837D01*
X8976671Y12224895D01*
X8976098Y12223668D01*
X8976097Y12223665D01*
X8914935Y11995402D01*
X8894341Y11760006D01*
X8894341Y11759995D01*
X8914935Y11524599D01*
X8914937Y11524592D01*
X8976097Y11296337D01*
X8976668Y11295111D01*
X8976926Y11294059D01*
X8979814Y11286125D01*
X8978945Y11285809D01*
X8999763Y11200744D01*
X9000000Y11189876D01*
X9000000Y9790125D01*
X8981046Y9694837D01*
X8976671Y9684895D01*
X8976098Y9683668D01*
X8976097Y9683665D01*
X8914935Y9455402D01*
X8894341Y9220006D01*
X8894341Y9219995D01*
X8914935Y8984599D01*
X8914937Y8984592D01*
X8976097Y8756337D01*
X9075965Y8542170D01*
X9211505Y8348599D01*
X9378599Y8181505D01*
X9572170Y8045965D01*
X9786337Y7946097D01*
X10014592Y7884937D01*
X10014595Y7884937D01*
X10014598Y7884936D01*
X10249995Y7864341D01*
X10250000Y7864341D01*
X10250005Y7864341D01*
X10485401Y7884936D01*
X10485403Y7884937D01*
X10485408Y7884937D01*
X10713663Y7946097D01*
X10779230Y7976672D01*
X10873599Y7999763D01*
X10884460Y8000000D01*
X12155540Y8000000D01*
X12250828Y7981046D01*
X12260754Y7976679D01*
X12326337Y7946097D01*
X12554592Y7884937D01*
X12554595Y7884937D01*
X12554598Y7884936D01*
X12789995Y7864341D01*
X12790000Y7864341D01*
X12790005Y7864341D01*
X13025401Y7884936D01*
X13025403Y7884937D01*
X13025408Y7884937D01*
X13253663Y7946097D01*
X13467830Y8045965D01*
X13661401Y8181505D01*
X13828495Y8348599D01*
X13964035Y8542170D01*
X14063903Y8756337D01*
X14125063Y8984592D01*
X14127409Y9011405D01*
X14145659Y9219995D01*
X14145659Y9220006D01*
X14143035Y9250000D01*
X56844540Y9250000D01*
X56844547Y9249929D01*
X56845930Y9236777D01*
X56846518Y9207083D01*
X56846947Y9207085D01*
X56847002Y9198198D01*
X56856363Y9077949D01*
X56861542Y9011423D01*
X56864323Y8988947D01*
X56867180Y8965856D01*
X56867538Y8963753D01*
X56877378Y8918549D01*
X56877379Y8918546D01*
X56911742Y8789412D01*
X56911748Y8789389D01*
X56914159Y8780330D01*
X56921051Y8756755D01*
X56921388Y8755697D01*
X56921395Y8755677D01*
X56929104Y8733325D01*
X56937590Y8710468D01*
X56960764Y8648045D01*
X56967957Y8625417D01*
X56978156Y8587091D01*
X56985779Y8542384D01*
X56994233Y8433788D01*
X56994237Y8433662D01*
X56994243Y8433662D01*
X56995186Y8421540D01*
X56997944Y8396994D01*
X56999500Y8369200D01*
X56999500Y5926080D01*
X57028341Y5781089D01*
X57028342Y5781086D01*
X57084910Y5644516D01*
X57084914Y5644510D01*
X57084916Y5644505D01*
X57114206Y5600670D01*
X57167048Y5521584D01*
X59021584Y3667048D01*
X59058675Y3642265D01*
X59095271Y3617813D01*
X59095273Y3617812D01*
X59144503Y3584917D01*
X59144509Y3584914D01*
X59171058Y3573917D01*
X59171059Y3573917D01*
X59281088Y3528341D01*
X59319805Y3520640D01*
X59397237Y3505237D01*
X59397245Y3505237D01*
X59426080Y3499501D01*
X59426081Y3499500D01*
X59426082Y3499500D01*
X59426083Y3499500D01*
X59573918Y3499500D01*
X60622993Y3499500D01*
X60718281Y3480546D01*
X60799063Y3426570D01*
X60853039Y3345788D01*
X60871993Y3250500D01*
X60866553Y3198736D01*
X60864326Y3188259D01*
X60844540Y3000000D01*
X60864325Y2811745D01*
X60891025Y2729572D01*
X60922821Y2631716D01*
X60922822Y2631715D01*
X61017469Y2467781D01*
X61140492Y2331151D01*
X61144129Y2327112D01*
X61258984Y2243665D01*
X61297271Y2215848D01*
X61470189Y2138859D01*
X61470192Y2138858D01*
X61470197Y2138856D01*
X61655354Y2099500D01*
X61844645Y2099500D01*
X61844646Y2099500D01*
X62029803Y2138856D01*
X62202730Y2215849D01*
X62355871Y2327112D01*
X62482533Y2467784D01*
X62577179Y2631716D01*
X62635674Y2811744D01*
X62655460Y3000000D01*
X62635674Y3188256D01*
X62635672Y3188260D01*
X62633447Y3198736D01*
X62632178Y3295883D01*
X62668181Y3386120D01*
X62735977Y3455711D01*
X62825243Y3494060D01*
X62877007Y3499500D01*
X65085992Y3499500D01*
X65181280Y3480546D01*
X65262062Y3426570D01*
X65293285Y3395347D01*
X65347261Y3314565D01*
X65366215Y3219277D01*
X65364851Y3193246D01*
X65364326Y3188259D01*
X65364326Y3188256D01*
X65360452Y3151409D01*
X65359492Y3143503D01*
X65351057Y3082265D01*
X65348973Y3062100D01*
X65347534Y3048173D01*
X65347425Y3046598D01*
X65347425Y3046595D01*
X65347425Y3046588D01*
X65347444Y3045544D01*
X65347333Y3043005D01*
X65347287Y3041172D01*
X65347254Y3041173D01*
X65346121Y3015058D01*
X65344540Y3000008D01*
X65344540Y2999999D01*
X65364325Y2811745D01*
X65391025Y2729572D01*
X65422821Y2631716D01*
X65422822Y2631715D01*
X65517469Y2467781D01*
X65640492Y2331151D01*
X65644129Y2327112D01*
X65758984Y2243665D01*
X65797271Y2215848D01*
X65970189Y2138859D01*
X65970192Y2138858D01*
X65970197Y2138856D01*
X66155354Y2099500D01*
X66344645Y2099500D01*
X66344646Y2099500D01*
X66529803Y2138856D01*
X66702730Y2215849D01*
X66855871Y2327112D01*
X66982533Y2467784D01*
X67077179Y2631716D01*
X67135674Y2811744D01*
X67155460Y3000000D01*
X67135674Y3188256D01*
X67100703Y3295883D01*
X67097292Y3306382D01*
X67091234Y3328421D01*
X67091031Y3329317D01*
X67087669Y3344191D01*
X67054828Y3430095D01*
X67054827Y3430097D01*
X67019662Y3522076D01*
X67017606Y3527654D01*
X67005636Y3561396D01*
X66996097Y3596048D01*
X66971658Y3718913D01*
X66915084Y3855495D01*
X66832951Y3978416D01*
X66832949Y3978418D01*
X66728421Y4082947D01*
X66728418Y4082949D01*
X66728416Y4082951D01*
X66662475Y4148893D01*
X66655101Y4156590D01*
X66595321Y4221722D01*
X66594501Y4222596D01*
X66587825Y4229713D01*
X66587478Y4230075D01*
X66581210Y4235826D01*
X66530253Y4282583D01*
X66530353Y4282693D01*
X66518086Y4293283D01*
X65978415Y4832953D01*
X65950989Y4851278D01*
X65896137Y4887928D01*
X65855495Y4915084D01*
X65718913Y4971658D01*
X65718911Y4971659D01*
X65573920Y5000500D01*
X65573918Y5000500D01*
X62323918Y5000500D01*
X61823918Y5000500D01*
X61323918Y5000500D01*
X59914008Y5000500D01*
X59818720Y5019454D01*
X59737938Y5073430D01*
X58573430Y6237938D01*
X58519454Y6318720D01*
X58500500Y6414008D01*
X58500500Y8374748D01*
X58504688Y8412589D01*
X58503494Y8412768D01*
X58504812Y8421552D01*
X58504815Y8421562D01*
X58514219Y8542384D01*
X58521843Y8587094D01*
X58532046Y8625432D01*
X58539239Y8648060D01*
X58570895Y8733324D01*
X58578604Y8755677D01*
X58578943Y8756740D01*
X58585840Y8780334D01*
X58622625Y8918568D01*
X58632443Y8963650D01*
X58632801Y8965751D01*
X58638458Y9011431D01*
X58652996Y9198193D01*
X58653773Y9211413D01*
X58654120Y9217291D01*
X58654121Y9217312D01*
X58654156Y9218191D01*
X58654155Y9218201D01*
X58654156Y9218208D01*
X58654173Y9222684D01*
X58654334Y9222684D01*
X58654335Y9222687D01*
X58654434Y9222684D01*
X58654478Y9222683D01*
X58655460Y9249929D01*
X58655460Y9250001D01*
X58653023Y9273182D01*
X58651794Y9291073D01*
X58649924Y9304358D01*
X58650381Y9304423D01*
X58648818Y9313194D01*
X58635674Y9438256D01*
X58577179Y9618284D01*
X58482533Y9782216D01*
X58482531Y9782219D01*
X58482530Y9782220D01*
X58355873Y9922886D01*
X58355872Y9922887D01*
X58355871Y9922888D01*
X58262222Y9990928D01*
X58202728Y10034153D01*
X58029810Y10111142D01*
X58029796Y10111146D01*
X57844646Y10150500D01*
X57655354Y10150500D01*
X57470203Y10111146D01*
X57470189Y10111142D01*
X57297271Y10034153D01*
X57144126Y9922886D01*
X57017469Y9782220D01*
X56922822Y9618286D01*
X56864325Y9438256D01*
X56846976Y9273182D01*
X56844540Y9250000D01*
X14143035Y9250000D01*
X14125064Y9455402D01*
X14125063Y9455405D01*
X14125063Y9455408D01*
X14063903Y9683663D01*
X14035248Y9745114D01*
X14023329Y9770675D01*
X14000237Y9865046D01*
X14000000Y9875906D01*
X14000000Y11104095D01*
X14018954Y11199383D01*
X14023329Y11209327D01*
X14063903Y11296337D01*
X14125063Y11524592D01*
X14125064Y11524599D01*
X14145659Y11759995D01*
X14145659Y11760006D01*
X14125064Y11995402D01*
X14125063Y11995405D01*
X14125063Y11995408D01*
X14094074Y12111060D01*
X14087721Y12208001D01*
X14118951Y12300000D01*
X14183010Y12373045D01*
X14270146Y12416016D01*
X14334591Y12424500D01*
X14661607Y12424500D01*
X14722029Y12436519D01*
X14782452Y12448537D01*
X14815782Y12462344D01*
X14815791Y12462346D01*
X14815791Y12462347D01*
X14896281Y12495686D01*
X14896280Y12495686D01*
X14896286Y12495688D01*
X14958320Y12537139D01*
X14998733Y12564142D01*
X15085858Y12651267D01*
X15085859Y12651270D01*
X20115322Y17680733D01*
X20196102Y17734707D01*
X20291390Y17753661D01*
X20386678Y17734707D01*
X20467460Y17680731D01*
X20507030Y17629162D01*
X20542466Y17567784D01*
X20542469Y17567781D01*
X20660038Y17437208D01*
X20669129Y17427112D01*
X20756472Y17363654D01*
X20822271Y17315848D01*
X20995189Y17238859D01*
X20995192Y17238858D01*
X20995197Y17238856D01*
X21180354Y17199500D01*
X21369645Y17199500D01*
X21369646Y17199500D01*
X21554803Y17238856D01*
X21611556Y17264125D01*
X21636863Y17273779D01*
X21660331Y17281293D01*
X21805437Y17351874D01*
X21827199Y17363119D01*
X21828192Y17363663D01*
X21849368Y17375940D01*
X21937906Y17430177D01*
X22029058Y17463788D01*
X22049279Y17466144D01*
X22102052Y17470108D01*
X22103436Y17470261D01*
X22128284Y17473000D01*
X22155571Y17474500D01*
X56137770Y17474500D01*
X56233058Y17455546D01*
X56313840Y17401570D01*
X59801570Y13913840D01*
X59855546Y13833058D01*
X59874500Y13737770D01*
X59874500Y11438388D01*
X59886517Y11377974D01*
X59886518Y11377971D01*
X59894029Y11340210D01*
X59898537Y11317549D01*
X59945689Y11203712D01*
X59948582Y11199383D01*
X59979915Y11152491D01*
X60014142Y11101267D01*
X60101267Y11014142D01*
X60101270Y11014140D01*
X61189602Y9925808D01*
X61213608Y9895912D01*
X61214476Y9896556D01*
X61219778Y9889420D01*
X61254270Y9849323D01*
X61302042Y9764724D01*
X61307612Y9745114D01*
X61331876Y9644125D01*
X61338116Y9620653D01*
X61338433Y9619569D01*
X61345917Y9596068D01*
X61398627Y9443524D01*
X61403666Y9429601D01*
X61403893Y9429003D01*
X61403902Y9428981D01*
X61410132Y9415389D01*
X61420586Y9388594D01*
X61422821Y9381716D01*
X61517222Y9218208D01*
X61517469Y9217781D01*
X61644126Y9077115D01*
X61644129Y9077112D01*
X61758984Y8993665D01*
X61797271Y8965848D01*
X61970189Y8888859D01*
X61970192Y8888858D01*
X61970197Y8888856D01*
X62155354Y8849500D01*
X62344645Y8849500D01*
X62344646Y8849500D01*
X62529803Y8888856D01*
X62596537Y8918568D01*
X62702728Y8965848D01*
X62702728Y8965849D01*
X62702730Y8965849D01*
X62855871Y9077112D01*
X62982533Y9217784D01*
X63077179Y9381716D01*
X63135674Y9561744D01*
X63155460Y9750000D01*
X63135674Y9938256D01*
X63077179Y10118284D01*
X62982533Y10282216D01*
X62982531Y10282219D01*
X62982530Y10282220D01*
X62855873Y10422886D01*
X62855872Y10422887D01*
X62855871Y10422888D01*
X62702730Y10534151D01*
X62593045Y10582987D01*
X62580362Y10589070D01*
X62556452Y10601381D01*
X62556448Y10601383D01*
X62556439Y10601386D01*
X62545485Y10605172D01*
X62532872Y10610147D01*
X62517406Y10615172D01*
X62517443Y10615287D01*
X62511122Y10617045D01*
X62465471Y10632819D01*
X62403927Y10654085D01*
X62380408Y10661574D01*
X62380399Y10661577D01*
X62379334Y10661888D01*
X62355855Y10668129D01*
X62284378Y10685303D01*
X62284373Y10685303D01*
X62254883Y10692389D01*
X62166660Y10733081D01*
X62150676Y10745731D01*
X62110581Y10780222D01*
X62089994Y10796719D01*
X62069633Y10814957D01*
X61198430Y11686160D01*
X61144454Y11766942D01*
X61125500Y11862230D01*
X61125500Y14161605D01*
X61101462Y14282455D01*
X61054313Y14396282D01*
X61054310Y14396287D01*
X60985860Y14498730D01*
X60985858Y14498733D01*
X60898733Y14585858D01*
X60898729Y14585861D01*
X56985860Y18498730D01*
X56985858Y18498733D01*
X56898733Y18585858D01*
X56847509Y18620085D01*
X56847508Y18620086D01*
X56796288Y18654311D01*
X56746262Y18675032D01*
X56714336Y18688256D01*
X56714335Y18688257D01*
X56714334Y18688257D01*
X56714329Y18688259D01*
X56682453Y18701463D01*
X56682449Y18701465D01*
X56622032Y18713482D01*
X56561612Y18725500D01*
X56561607Y18725500D01*
X56561606Y18725500D01*
X53499000Y18725500D01*
X53403712Y18744454D01*
X53322930Y18798430D01*
X53268954Y18879212D01*
X53250000Y18974500D01*
X53250000Y21811504D01*
X53268954Y21906792D01*
X53279239Y21928540D01*
X53279309Y21928711D01*
X53279312Y21928714D01*
X53313711Y22011763D01*
X53322960Y22034090D01*
X53326461Y22042543D01*
X53326462Y22042546D01*
X53326461Y22042546D01*
X53326463Y22042548D01*
X53341559Y22118442D01*
X53350500Y22163393D01*
X53350500Y22286607D01*
X53350500Y26126096D01*
X53353724Y26166035D01*
X53354429Y26170376D01*
X53357195Y26201149D01*
X53384602Y26294359D01*
X53399231Y26318790D01*
X53458060Y26405373D01*
X53475629Y26433130D01*
X53476395Y26434432D01*
X53491951Y26462931D01*
X53565128Y26607868D01*
X53569860Y26617678D01*
X53576599Y26630416D01*
X53577180Y26631719D01*
X53583500Y26651171D01*
X53587243Y26661859D01*
X53598924Y26692915D01*
X53598925Y26692923D01*
X53598926Y26692925D01*
X53602267Y26705872D01*
X53602837Y26705725D01*
X53606960Y26723376D01*
X53635674Y26811744D01*
X53655460Y27000000D01*
X53635674Y27188256D01*
X53577179Y27368284D01*
X53577177Y27368288D01*
X53575813Y27371351D01*
X53572171Y27378210D01*
X53498133Y27530427D01*
X53488357Y27549356D01*
X53486987Y27552009D01*
X53486443Y27553003D01*
X53474063Y27574367D01*
X53419823Y27662913D01*
X53386212Y27754069D01*
X53383853Y27774326D01*
X53379892Y27827055D01*
X53377000Y27853286D01*
X53375500Y27880573D01*
X53375500Y33913585D01*
X53375501Y33913606D01*
X53375501Y34049107D01*
X53375500Y34049112D01*
X53351465Y34169945D01*
X53350597Y34172040D01*
X53350590Y34172073D01*
X53350585Y34172070D01*
X53318306Y34250000D01*
X53318306Y34250001D01*
X53304314Y34283781D01*
X53304311Y34283787D01*
X53235860Y34386230D01*
X53235858Y34386233D01*
X48723359Y38898731D01*
X48723358Y38898733D01*
X48636233Y38985858D01*
X48609509Y39003714D01*
X48581888Y39022170D01*
X48581883Y39022174D01*
X48533788Y39054312D01*
X48533786Y39054313D01*
X48447121Y39090210D01*
X48419957Y39101462D01*
X48419952Y39101463D01*
X48339080Y39117549D01*
X48339076Y39117550D01*
X48339073Y39117551D01*
X48299110Y39125500D01*
X48299107Y39125500D01*
X48299106Y39125500D01*
X43987230Y39125500D01*
X43891942Y39144454D01*
X43811160Y39198430D01*
X43198430Y39811160D01*
X43144454Y39891942D01*
X43125500Y39987230D01*
X43125500Y43926085D01*
X43125501Y43926106D01*
X43125501Y44061607D01*
X43112471Y44127111D01*
X43103209Y44173672D01*
X43101463Y44182452D01*
X43074250Y44248149D01*
X43073224Y44250625D01*
X43054313Y44296283D01*
X43040913Y44316337D01*
X42985858Y44398733D01*
X42776044Y44608547D01*
X42560391Y44824201D01*
X42536386Y44854102D01*
X42535515Y44853454D01*
X42530214Y44860589D01*
X42505022Y44889874D01*
X42495725Y44900682D01*
X42447954Y44985279D01*
X42442389Y45004871D01*
X42418128Y45105850D01*
X42411815Y45129573D01*
X42411497Y45130661D01*
X42404080Y45153935D01*
X42351383Y45306446D01*
X42346575Y45319754D01*
X42346337Y45320385D01*
X42339892Y45334472D01*
X42329507Y45361119D01*
X42327179Y45368284D01*
X42232533Y45532216D01*
X42232531Y45532219D01*
X42232530Y45532220D01*
X42105873Y45672886D01*
X42105872Y45672887D01*
X42105871Y45672888D01*
X41952730Y45784151D01*
X41952728Y45784152D01*
X41917418Y45799874D01*
X41838078Y45855947D01*
X41786236Y45938115D01*
X41769784Y46033867D01*
X41791228Y46128626D01*
X41847301Y46207966D01*
X41856315Y46216110D01*
X41860584Y46219783D01*
X41860588Y46219785D01*
X41900680Y46254275D01*
X41985276Y46302046D01*
X42004875Y46307613D01*
X42105847Y46331872D01*
X42129570Y46338185D01*
X42130658Y46338503D01*
X42153930Y46345920D01*
X42261091Y46382948D01*
X42267420Y46384705D01*
X42267383Y46384820D01*
X42282887Y46389858D01*
X42295530Y46394847D01*
X42306443Y46398617D01*
X42319753Y46403425D01*
X42320384Y46403663D01*
X42383232Y46432418D01*
X42383244Y46432428D01*
X42387712Y46435073D01*
X42413339Y46448312D01*
X42452730Y46465849D01*
X42605871Y46577112D01*
X42732533Y46717784D01*
X42827179Y46881716D01*
X42885674Y47061744D01*
X42905460Y47250000D01*
X42885674Y47438256D01*
X42827179Y47618284D01*
X42732533Y47782216D01*
X42732531Y47782219D01*
X42732530Y47782220D01*
X42605873Y47922886D01*
X42605872Y47922887D01*
X42605871Y47922888D01*
X42500422Y47999501D01*
X42452728Y48034153D01*
X42279810Y48111142D01*
X42279796Y48111146D01*
X42094646Y48150500D01*
X41905354Y48150500D01*
X41720203Y48111146D01*
X41720189Y48111142D01*
X41547271Y48034153D01*
X41394126Y47922886D01*
X41267469Y47782220D01*
X41172819Y47618282D01*
X41165982Y47597237D01*
X41150548Y47560199D01*
X41148616Y47556449D01*
X41095920Y47403944D01*
X41088574Y47380917D01*
X41088267Y47379870D01*
X41081872Y47355868D01*
X41057609Y47254885D01*
X41016918Y47166662D01*
X41004270Y47150679D01*
X40969764Y47110566D01*
X40953289Y47090005D01*
X40935049Y47069642D01*
X40101269Y46235861D01*
X40101269Y46235860D01*
X40014140Y46148731D01*
X39985256Y46105502D01*
X39985254Y46105499D01*
X39945689Y46046288D01*
X39915713Y45973923D01*
X39915714Y45973922D01*
X39915711Y45973914D01*
X39904205Y45946134D01*
X39898537Y45932451D01*
X39880190Y45840210D01*
X39875871Y45818496D01*
X39874500Y45811606D01*
X39874500Y39238391D01*
X39896499Y39127790D01*
X39898535Y39117555D01*
X39898536Y39117553D01*
X39898537Y39117549D01*
X39909861Y39090210D01*
X39945688Y39003713D01*
X39969416Y38968203D01*
X39975036Y38959793D01*
X40014142Y38901267D01*
X40101267Y38814142D01*
X40101269Y38814141D01*
X41814141Y37101268D01*
X41814142Y37101267D01*
X41901267Y37014142D01*
X41996514Y36950500D01*
X41996513Y36950500D01*
X41996518Y36950498D01*
X42003714Y36945689D01*
X42117548Y36898537D01*
X42238393Y36874500D01*
X42238394Y36874500D01*
X47081520Y36874500D01*
X47176808Y36855546D01*
X47257590Y36801570D01*
X49476570Y34582590D01*
X49530546Y34501808D01*
X49549500Y34406520D01*
X49549500Y27849130D01*
X49545334Y27811022D01*
X49546406Y27810863D01*
X49545107Y27802055D01*
X49541143Y27749316D01*
X49515100Y27655716D01*
X49505175Y27637916D01*
X49450926Y27549356D01*
X49438414Y27527749D01*
X49437881Y27526773D01*
X49426864Y27505426D01*
X49356274Y27360296D01*
X49354860Y27357279D01*
X49349347Y27346713D01*
X49347817Y27343278D01*
X49343838Y27331032D01*
X49340431Y27321246D01*
X49325904Y27282165D01*
X49322651Y27269449D01*
X49322143Y27269579D01*
X49317707Y27250608D01*
X49289326Y27163259D01*
X49289325Y27163256D01*
X49269540Y26975000D01*
X49289326Y26786744D01*
X49289326Y26786742D01*
X49347821Y26606716D01*
X49349182Y26603658D01*
X49352824Y26596800D01*
X49409592Y26480088D01*
X49409591Y26480088D01*
X49409595Y26480083D01*
X49426869Y26444566D01*
X49438107Y26422818D01*
X49438660Y26421807D01*
X49450944Y26400620D01*
X49505174Y26312090D01*
X49538785Y26220934D01*
X49541144Y26200686D01*
X49545108Y26147929D01*
X49547999Y26121725D01*
X49549500Y26094428D01*
X49549500Y21787231D01*
X49530546Y21691943D01*
X49476570Y21611162D01*
X48563840Y20698431D01*
X48483058Y20644454D01*
X48387770Y20625500D01*
X22041015Y20625500D01*
X21945727Y20644454D01*
X21864945Y20698430D01*
X21810969Y20779212D01*
X21792015Y20874500D01*
X21810969Y20969788D01*
X21851463Y21067548D01*
X21867764Y21149500D01*
X21875500Y21188393D01*
X21875500Y21311607D01*
X21875500Y22375881D01*
X21879668Y22413997D01*
X21878595Y22414155D01*
X21879893Y22422958D01*
X21883854Y22475683D01*
X21909893Y22569284D01*
X21919826Y22587098D01*
X21926401Y22597831D01*
X21974060Y22675632D01*
X21986337Y22696808D01*
X21986881Y22697801D01*
X21998126Y22719563D01*
X22068707Y22864669D01*
X22070093Y22867629D01*
X22075629Y22878237D01*
X22077174Y22881709D01*
X22077179Y22881716D01*
X22081184Y22894046D01*
X22084585Y22903812D01*
X22099096Y22942843D01*
X22099097Y22942855D01*
X22102353Y22955570D01*
X22102863Y22955440D01*
X22107292Y22974396D01*
X22135674Y23061744D01*
X22155460Y23250000D01*
X22135674Y23438256D01*
X22077179Y23618284D01*
X21982533Y23782216D01*
X21982531Y23782219D01*
X21982530Y23782220D01*
X21855873Y23922886D01*
X21855872Y23922887D01*
X21855871Y23922888D01*
X21779300Y23978520D01*
X21702728Y24034153D01*
X21529810Y24111142D01*
X21529796Y24111146D01*
X21344646Y24150500D01*
X21155354Y24150500D01*
X20970203Y24111146D01*
X20970189Y24111142D01*
X20797271Y24034153D01*
X20644126Y23922886D01*
X20517469Y23782220D01*
X20422822Y23618286D01*
X20364325Y23438256D01*
X20344540Y23250000D01*
X20364326Y23061744D01*
X20364326Y23061742D01*
X20422821Y22881716D01*
X20424182Y22878658D01*
X20427824Y22871800D01*
X20484592Y22755088D01*
X20484591Y22755088D01*
X20484595Y22755083D01*
X20501869Y22719566D01*
X20513107Y22697818D01*
X20513660Y22696807D01*
X20525944Y22675620D01*
X20580174Y22587090D01*
X20613785Y22495934D01*
X20616144Y22475686D01*
X20620108Y22422929D01*
X20622999Y22396725D01*
X20624500Y22369428D01*
X20624500Y21612230D01*
X20605546Y21516942D01*
X20551570Y21436160D01*
X20313840Y21198430D01*
X20233058Y21144454D01*
X20137770Y21125500D01*
X19323915Y21125500D01*
X19323895Y21125501D01*
X19311607Y21125501D01*
X19188394Y21125501D01*
X19188392Y21125501D01*
X19087605Y21105455D01*
X19087606Y21105454D01*
X19067547Y21101464D01*
X19067544Y21101463D01*
X19020397Y21081933D01*
X18953714Y21054312D01*
X18953710Y21054310D01*
X18851271Y20985862D01*
X18851267Y20985859D01*
X18851267Y20985858D01*
X17179584Y19314174D01*
X16938340Y19072930D01*
X16857558Y19018954D01*
X16762270Y19000000D01*
X14343182Y19000000D01*
X14247894Y19018954D01*
X14167112Y19072930D01*
X14145637Y19097419D01*
X14120637Y19130000D01*
X13223012Y19130000D01*
X13255925Y19187007D01*
X13290000Y19314174D01*
X13290000Y19445826D01*
X13255925Y19572993D01*
X13223012Y19630000D01*
X14120636Y19630000D01*
X14120636Y19630002D01*
X14063433Y19843484D01*
X14063429Y19843495D01*
X13963603Y20057572D01*
X13963599Y20057580D01*
X13828106Y20251082D01*
X13824704Y20255137D01*
X13822665Y20258853D01*
X13821874Y20259983D01*
X13821997Y20260070D01*
X13777974Y20340315D01*
X13767398Y20436893D01*
X13794585Y20530166D01*
X13855397Y20605936D01*
X13868540Y20614907D01*
X13868073Y20615531D01*
X13882329Y20626204D01*
X13882331Y20626204D01*
X13997546Y20712454D01*
X14083796Y20827669D01*
X14134091Y20962517D01*
X14140500Y21022127D01*
X14140499Y22817872D01*
X14134091Y22877483D01*
X14083796Y23012331D01*
X13997546Y23127546D01*
X13882331Y23213796D01*
X13785263Y23250000D01*
X13747481Y23264092D01*
X13687873Y23270500D01*
X11892134Y23270500D01*
X11892130Y23270500D01*
X11892128Y23270499D01*
X11879314Y23269122D01*
X11832519Y23264092D01*
X11832515Y23264091D01*
X11697668Y23213796D01*
X11582453Y23127546D01*
X11569861Y23114954D01*
X11569820Y23114995D01*
X11567651Y23112583D01*
X11567987Y23112270D01*
X11480044Y23017900D01*
X11401215Y22961111D01*
X11306653Y22938812D01*
X11210757Y22954397D01*
X11170715Y22973578D01*
X11156173Y22982216D01*
X11155122Y22982803D01*
X11131529Y22995181D01*
X10923765Y23097285D01*
X10923758Y23097287D01*
X10809462Y23153457D01*
X10809418Y23153478D01*
X10795073Y23160250D01*
X10795047Y23160262D01*
X10795019Y23160275D01*
X10794407Y23160552D01*
X10758255Y23173996D01*
X10739820Y23181707D01*
X10713665Y23193903D01*
X10485401Y23255065D01*
X10250005Y23275659D01*
X10249995Y23275659D01*
X10014598Y23255065D01*
X9786335Y23193903D01*
X9786333Y23193902D01*
X9572177Y23094039D01*
X9572169Y23094035D01*
X9378600Y22958496D01*
X9211504Y22791400D01*
X9075965Y22597831D01*
X9075961Y22597823D01*
X8976098Y22383667D01*
X8976097Y22383665D01*
X8914935Y22155402D01*
X8894341Y21920006D01*
X8894341Y21919995D01*
X8914935Y21684599D01*
X8976096Y21456340D01*
X9075965Y21242170D01*
X9157657Y21125501D01*
X9211505Y21048599D01*
X9378599Y20881505D01*
X9418362Y20853662D01*
X9485544Y20783483D01*
X9520757Y20692933D01*
X9518638Y20595802D01*
X9479509Y20506874D01*
X9418364Y20445728D01*
X9378923Y20418111D01*
X9211889Y20251077D01*
X9076400Y20057580D01*
X9076396Y20057572D01*
X8976570Y19843495D01*
X8976566Y19843484D01*
X8919363Y19630002D01*
X8919364Y19630000D01*
X9816988Y19630000D01*
X9784075Y19572993D01*
X9750000Y19445826D01*
X9750000Y19314174D01*
X9784075Y19187007D01*
X9816988Y19130000D01*
X8919364Y19130000D01*
X8919363Y19129999D01*
X8976566Y18916517D01*
X8976566Y18916515D01*
X9076399Y18702424D01*
X9211889Y18508924D01*
X9378923Y18341890D01*
X9418361Y18314275D01*
X9485545Y18244093D01*
X9520757Y18153544D01*
X9518638Y18056412D01*
X9479509Y17967485D01*
X9418363Y17906339D01*
X9378602Y17878498D01*
X9211504Y17711400D01*
X9075965Y17517831D01*
X9075963Y17517827D01*
X8976096Y17303664D01*
X8976095Y17303660D01*
X8961086Y17247645D01*
X8958656Y17239178D01*
X8881957Y16988735D01*
X8881957Y16988734D01*
X8868827Y16945864D01*
X8857865Y16903647D01*
X8857445Y16901683D01*
X8850118Y16858325D01*
X8814512Y16572429D01*
X8814244Y16570241D01*
X8795631Y16416411D01*
X8780853Y16356978D01*
X8761346Y16306232D01*
X8723261Y16239898D01*
X8571549Y16050516D01*
X8568000Y16045841D01*
X8545766Y16020359D01*
X8376270Y15850862D01*
X8376270Y15850861D01*
X8289140Y15763731D01*
X8257149Y15715852D01*
X8257147Y15715849D01*
X8220686Y15661285D01*
X8200131Y15611659D01*
X8197907Y15606287D01*
X8185175Y15575550D01*
X8173535Y15547449D01*
X8165081Y15504940D01*
X8165081Y15504938D01*
X8150435Y15431306D01*
X8150431Y15431288D01*
X8149500Y15426613D01*
X1125500Y15426613D01*
X1125500Y27897833D01*
X8875000Y27897833D01*
X8875000Y27250001D01*
X8875001Y27250000D01*
X9791988Y27250000D01*
X9759075Y27192993D01*
X9725000Y27065826D01*
X9725000Y26934174D01*
X9759075Y26807007D01*
X9791988Y26750000D01*
X8875001Y26750000D01*
X8875000Y26749999D01*
X8875000Y26102168D01*
X8881401Y26042629D01*
X8881403Y26042622D01*
X8931646Y25907913D01*
X9017810Y25792813D01*
X9017812Y25792811D01*
X9132912Y25706647D01*
X9267621Y25656404D01*
X9267628Y25656402D01*
X9327167Y25650001D01*
X9327175Y25650000D01*
X9974999Y25650000D01*
X9975000Y25650001D01*
X9975000Y26566988D01*
X10032007Y26534075D01*
X10159174Y26500000D01*
X10290826Y26500000D01*
X10417993Y26534075D01*
X10475000Y26566988D01*
X10475000Y25650001D01*
X10475001Y25650000D01*
X11122825Y25650000D01*
X11122832Y25650001D01*
X11182371Y25656402D01*
X11182378Y25656404D01*
X11317087Y25706647D01*
X11432187Y25792811D01*
X11432189Y25792813D01*
X11529026Y25922169D01*
X11532313Y25919709D01*
X11572897Y25968286D01*
X11658978Y26013333D01*
X11755745Y26022009D01*
X11848466Y25992993D01*
X11889223Y25965177D01*
X11893593Y25961511D01*
X11893599Y25961505D01*
X12087170Y25825965D01*
X12301337Y25726097D01*
X12529592Y25664937D01*
X12529595Y25664937D01*
X12529598Y25664936D01*
X12764995Y25644341D01*
X12765000Y25644341D01*
X12765005Y25644341D01*
X13000401Y25664936D01*
X13000403Y25664937D01*
X13000408Y25664937D01*
X13228663Y25726097D01*
X13442830Y25825965D01*
X13636401Y25961505D01*
X13803495Y26128599D01*
X13939035Y26322170D01*
X14038903Y26536337D01*
X14100063Y26764592D01*
X14103774Y26807007D01*
X14120659Y26999995D01*
X14120659Y27000006D01*
X14100064Y27235402D01*
X14100063Y27235405D01*
X14100063Y27235408D01*
X14038903Y27463663D01*
X13997240Y27553008D01*
X13939038Y27677823D01*
X13939034Y27677831D01*
X13871467Y27774326D01*
X13803495Y27871401D01*
X13636401Y28038495D01*
X13580223Y28077831D01*
X13442830Y28174035D01*
X13371729Y28207190D01*
X13228663Y28273903D01*
X13228660Y28273904D01*
X13000401Y28335065D01*
X12765005Y28355659D01*
X12764995Y28355659D01*
X12529598Y28335065D01*
X12301335Y28273903D01*
X12301333Y28273902D01*
X12087177Y28174039D01*
X12087169Y28174035D01*
X11893592Y28038490D01*
X11889215Y28034817D01*
X11885208Y28032620D01*
X11884694Y28032259D01*
X11884654Y28032316D01*
X11804034Y27988091D01*
X11707456Y27977519D01*
X11614184Y28004710D01*
X11538417Y28065525D01*
X11529681Y28078322D01*
X11529026Y28077831D01*
X11432189Y28207188D01*
X11432187Y28207190D01*
X11317087Y28293354D01*
X11182378Y28343597D01*
X11182371Y28343599D01*
X11122832Y28350000D01*
X10475001Y28350000D01*
X10475000Y28349999D01*
X10475000Y27433012D01*
X10417993Y27465925D01*
X10290826Y27500000D01*
X10159174Y27500000D01*
X10032007Y27465925D01*
X9975000Y27433012D01*
X9975000Y28349999D01*
X9974999Y28350000D01*
X9327167Y28350000D01*
X9267628Y28343599D01*
X9267621Y28343597D01*
X9132912Y28293354D01*
X9017812Y28207190D01*
X9017810Y28207188D01*
X8931646Y28092088D01*
X8881403Y27957379D01*
X8881401Y27957372D01*
X8875000Y27897833D01*
X1125500Y27897833D01*
X1125500Y47171077D01*
X1144454Y47266365D01*
X1198430Y47347147D01*
X1279212Y47401123D01*
X1374500Y47420077D01*
X1469788Y47401123D01*
X1510115Y47379906D01*
X1547132Y47355867D01*
X1647211Y47290875D01*
X1992806Y47114786D01*
X2354913Y46975786D01*
X2729567Y46875398D01*
X3112662Y46814722D01*
X3500000Y46794422D01*
X3887338Y46814722D01*
X4270433Y46875398D01*
X4645087Y46975786D01*
X5007194Y47114786D01*
X5352789Y47290875D01*
X5678084Y47502124D01*
X5979516Y47746219D01*
X6253781Y48020484D01*
X6497876Y48321916D01*
X6709125Y48647211D01*
X6885214Y48992806D01*
X7024214Y49354913D01*
X7124602Y49729567D01*
X7185278Y50112662D01*
X7205578Y50500000D01*
X7185278Y50887338D01*
X7124602Y51270433D01*
X7024214Y51645087D01*
X6885214Y52007194D01*
X6709125Y52352789D01*
X6620094Y52489885D01*
X6584092Y52580124D01*
X6585364Y52677270D01*
X6623716Y52766535D01*
X6693308Y52834329D01*
X6783547Y52870331D01*
X6828923Y52874500D01*
X24501000Y52874500D01*
X24596288Y52855546D01*
G37*
%TD.AperFunction*%
%TA.AperFunction,Conductor*%
G36*
X12324075Y42432993D02*
G01*
X12290000Y42305826D01*
X12290000Y42174174D01*
X12324075Y42047007D01*
X12356988Y41990000D01*
X10683012Y41990000D01*
X10715925Y42047007D01*
X10750000Y42174174D01*
X10750000Y42305826D01*
X10715925Y42432993D01*
X10683012Y42490000D01*
X12356988Y42490000D01*
X12324075Y42432993D01*
G37*
%TD.AperFunction*%
%TD*%
%TA.AperFunction,Conductor*%
%TO.N,+5V*%
G36*
X13100793Y50610106D02*
G01*
X13101464Y50609802D01*
X13241437Y50541014D01*
X13423573Y50451505D01*
X13424647Y50450905D01*
X13656144Y50304929D01*
X13858709Y50187129D01*
X14104201Y50108573D01*
X14454225Y50080854D01*
X14462200Y50076785D01*
X14465000Y50069191D01*
X14465000Y49590810D01*
X14461573Y49582537D01*
X14454224Y49579147D01*
X14104202Y49551429D01*
X13858715Y49472875D01*
X13858706Y49472871D01*
X13656154Y49355079D01*
X13424643Y49209095D01*
X13423562Y49208492D01*
X13101464Y49050199D01*
X13092528Y49049625D01*
X13085804Y49055539D01*
X13085505Y49056196D01*
X12765864Y49825512D01*
X12765856Y49834466D01*
X12765865Y49834489D01*
X13085499Y50603791D01*
X13091838Y50610115D01*
X13100793Y50610106D01*
G37*
%TD.AperFunction*%
%TD*%
%TA.AperFunction,Conductor*%
%TO.N,+5V*%
G36*
X45433776Y52872192D02*
G01*
X45751005Y52650254D01*
X46076274Y52458691D01*
X46401543Y52303127D01*
X46726812Y52183564D01*
X46726821Y52183562D01*
X46726823Y52183561D01*
X46792457Y52166700D01*
X47039038Y52103352D01*
X47046198Y52097974D01*
X47047458Y52089109D01*
X47046940Y52087553D01*
X46702562Y51253785D01*
X46696236Y51247447D01*
X46696215Y51247438D01*
X45861016Y50902469D01*
X45852061Y50902478D01*
X45845735Y50908816D01*
X45845654Y50909017D01*
X45828244Y50953475D01*
X45694436Y51295188D01*
X45538873Y51656457D01*
X45383309Y51981726D01*
X45227746Y52270995D01*
X45112461Y52458688D01*
X45077015Y52516398D01*
X45075605Y52525241D01*
X45078710Y52530792D01*
X45418797Y52870879D01*
X45427069Y52874305D01*
X45433776Y52872192D01*
G37*
%TD.AperFunction*%
%TD*%
%TA.AperFunction,Conductor*%
%TO.N,+3.3V*%
G36*
X13811684Y46400397D02*
G01*
X14152233Y46059848D01*
X14155660Y46051575D01*
X14154728Y46046998D01*
X14054249Y45810594D01*
X13950688Y45530937D01*
X13847121Y45215267D01*
X13743573Y44863653D01*
X13743567Y44863631D01*
X13743563Y44863617D01*
X13722205Y44783667D01*
X13643276Y44488219D01*
X13637830Y44481111D01*
X13628952Y44479935D01*
X13628042Y44480219D01*
X13409900Y44558002D01*
X12793868Y44777662D01*
X12787230Y44783665D01*
X12393749Y45617652D01*
X12393319Y45626594D01*
X12399339Y45633223D01*
X12401016Y45633863D01*
X12671191Y45713564D01*
X12954459Y45833127D01*
X13237728Y45988691D01*
X13520996Y46180254D01*
X13796083Y46401246D01*
X13804679Y46403755D01*
X13811684Y46400397D01*
G37*
%TD.AperFunction*%
%TD*%
%TA.AperFunction,Conductor*%
%TO.N,+3.3V*%
G36*
X50399307Y44830183D02*
G01*
X50539386Y44706028D01*
X50539388Y44706027D01*
X50539390Y44706025D01*
X50657760Y44627864D01*
X50657764Y44627862D01*
X50765761Y44567685D01*
X50766513Y44567228D01*
X50883821Y44489767D01*
X50885134Y44488760D01*
X51023566Y44366065D01*
X51027485Y44358013D01*
X51024562Y44349549D01*
X51024100Y44349057D01*
X50752369Y44075965D01*
X50748527Y44073397D01*
X50391341Y43926410D01*
X50382387Y43926431D01*
X50376069Y43932778D01*
X50319327Y44073397D01*
X50318749Y44074830D01*
X50272354Y44184094D01*
X50272353Y44184095D01*
X50272351Y44184101D01*
X50222501Y44273142D01*
X50222498Y44273146D01*
X50150475Y44365289D01*
X50150472Y44365292D01*
X50150466Y44365300D01*
X50084494Y44434590D01*
X50045383Y44475669D01*
X50042161Y44484024D01*
X50045583Y44492009D01*
X50383275Y44829701D01*
X50391547Y44833127D01*
X50399307Y44830183D01*
G37*
%TD.AperFunction*%
%TD*%
%TA.AperFunction,Conductor*%
%TO.N,+3.3V*%
G36*
X10585793Y22700106D02*
G01*
X10586464Y22699802D01*
X10726437Y22631014D01*
X10908573Y22541505D01*
X10909647Y22540905D01*
X11141144Y22394929D01*
X11343709Y22277129D01*
X11589201Y22198573D01*
X11939225Y22170854D01*
X11947200Y22166785D01*
X11950000Y22159191D01*
X11950000Y21680810D01*
X11946573Y21672537D01*
X11939224Y21669147D01*
X11589202Y21641429D01*
X11343715Y21562875D01*
X11343706Y21562871D01*
X11141154Y21445079D01*
X10909643Y21299095D01*
X10908562Y21298492D01*
X10586464Y21140199D01*
X10577528Y21139625D01*
X10570804Y21145539D01*
X10570505Y21146196D01*
X10250864Y21915512D01*
X10250856Y21924466D01*
X10250865Y21924489D01*
X10570499Y22693791D01*
X10576838Y22700115D01*
X10585793Y22700106D01*
G37*
%TD.AperFunction*%
%TD*%
%TA.AperFunction,Conductor*%
%TO.N,+3.3V*%
G36*
X11948279Y22761722D02*
G01*
X11948570Y22761440D01*
X12782712Y21928278D01*
X12786144Y21920007D01*
X12782722Y21911732D01*
X12782712Y21911722D01*
X11948569Y21078560D01*
X11940294Y21075138D01*
X11932023Y21078570D01*
X11931759Y21078844D01*
X11844530Y21172449D01*
X11770008Y21252418D01*
X11769990Y21252435D01*
X11743040Y21276407D01*
X11600000Y21403639D01*
X11429999Y21523639D01*
X11259999Y21612426D01*
X11188691Y21636576D01*
X11097947Y21667309D01*
X11091210Y21673209D01*
X11090000Y21678391D01*
X11090000Y22161610D01*
X11093427Y22169883D01*
X11097945Y22172691D01*
X11259999Y22227575D01*
X11429999Y22316362D01*
X11600000Y22436362D01*
X11770000Y22587575D01*
X11931742Y22761140D01*
X11939890Y22764855D01*
X11948279Y22761722D01*
G37*
%TD.AperFunction*%
%TD*%
%TA.AperFunction,Conductor*%
%TO.N,+3.3V*%
G36*
X11948279Y45621722D02*
G01*
X11948570Y45621440D01*
X12782712Y44788278D01*
X12786144Y44780007D01*
X12782722Y44771732D01*
X12782712Y44771722D01*
X11948569Y43938560D01*
X11940294Y43935138D01*
X11932023Y43938570D01*
X11931759Y43938844D01*
X11844530Y44032449D01*
X11770008Y44112418D01*
X11769990Y44112435D01*
X11743040Y44136407D01*
X11600000Y44263639D01*
X11429999Y44383639D01*
X11259999Y44472426D01*
X11188691Y44496576D01*
X11097947Y44527309D01*
X11091210Y44533209D01*
X11090000Y44538391D01*
X11090000Y45021610D01*
X11093427Y45029883D01*
X11097945Y45032691D01*
X11259999Y45087575D01*
X11429999Y45176362D01*
X11600000Y45296362D01*
X11770000Y45447575D01*
X11931742Y45621140D01*
X11939890Y45624855D01*
X11948279Y45621722D01*
G37*
%TD.AperFunction*%
%TD*%
%TA.AperFunction,Conductor*%
%TO.N,+3.3V*%
G36*
X10585793Y45560106D02*
G01*
X10586464Y45559802D01*
X10726437Y45491014D01*
X10908573Y45401505D01*
X10909647Y45400905D01*
X11141144Y45254929D01*
X11343709Y45137129D01*
X11589201Y45058573D01*
X11939225Y45030854D01*
X11947200Y45026785D01*
X11950000Y45019191D01*
X11950000Y44540810D01*
X11946573Y44532537D01*
X11939224Y44529147D01*
X11589202Y44501429D01*
X11343715Y44422875D01*
X11343706Y44422871D01*
X11141154Y44305079D01*
X10909643Y44159095D01*
X10908562Y44158492D01*
X10586464Y44000199D01*
X10577528Y43999625D01*
X10570804Y44005539D01*
X10570505Y44006196D01*
X10250864Y44775512D01*
X10250856Y44784466D01*
X10250865Y44784489D01*
X10570499Y45553791D01*
X10576838Y45560115D01*
X10585793Y45560106D01*
G37*
%TD.AperFunction*%
%TD*%
%TA.AperFunction,Conductor*%
%TO.N,+3.3VD*%
G36*
X66222555Y3880273D02*
G01*
X66222902Y3879911D01*
X66288326Y3808629D01*
X66354795Y3736209D01*
X66355821Y3734919D01*
X66438584Y3614204D01*
X66439593Y3612413D01*
X66492915Y3494624D01*
X66493282Y3493714D01*
X66544237Y3350077D01*
X66582656Y3249584D01*
X66615497Y3163680D01*
X66615250Y3154729D01*
X66609070Y3148703D01*
X66252878Y3000199D01*
X66248355Y2999298D01*
X65863398Y2999977D01*
X65855131Y3003418D01*
X65851719Y3011698D01*
X65851828Y3013273D01*
X65869162Y3139118D01*
X65869734Y3141452D01*
X65908427Y3249584D01*
X65938972Y3342234D01*
X65932635Y3432684D01*
X65932635Y3432685D01*
X65889474Y3494624D01*
X65866690Y3527321D01*
X65864772Y3536066D01*
X65868015Y3542279D01*
X66206010Y3880274D01*
X66214282Y3883700D01*
X66222555Y3880273D01*
G37*
%TD.AperFunction*%
%TD*%
%TA.AperFunction,Conductor*%
%TO.N,+3.3VD*%
G36*
X58137386Y9250032D02*
G01*
X58145650Y9246584D01*
X58149056Y9238303D01*
X58149021Y9237424D01*
X58134483Y9050662D01*
X58134125Y9048561D01*
X58097340Y8910327D01*
X58097001Y8909264D01*
X58052803Y8790217D01*
X58052803Y8790216D01*
X58015601Y8650411D01*
X58015600Y8650409D01*
X58000840Y8460792D01*
X57996781Y8452810D01*
X57989175Y8450000D01*
X57510825Y8450000D01*
X57502552Y8453427D01*
X57499160Y8460792D01*
X57498226Y8472787D01*
X57484400Y8650408D01*
X57447200Y8790205D01*
X57402998Y8909264D01*
X57402659Y8910327D01*
X57400734Y8917560D01*
X57365872Y9048568D01*
X57365517Y9050654D01*
X57350978Y9237427D01*
X57353753Y9245938D01*
X57361735Y9249997D01*
X57362601Y9250032D01*
X57750000Y9251000D01*
X58137386Y9250032D01*
G37*
%TD.AperFunction*%
%TD*%
%TA.AperFunction,Conductor*%
%TO.N,+3.3VD*%
G36*
X61616863Y3953697D02*
G01*
X61618054Y3952657D01*
X61955509Y3615202D01*
X61958936Y3606929D01*
X61957120Y3600669D01*
X61904220Y3517151D01*
X61917376Y3438750D01*
X61917376Y3438748D01*
X61975223Y3360521D01*
X62050781Y3270330D01*
X62051911Y3268723D01*
X62112784Y3164644D01*
X62114003Y3155772D01*
X62108592Y3148638D01*
X62107173Y3147932D01*
X61753789Y3001161D01*
X61744834Y3001152D01*
X61744799Y3001167D01*
X61389988Y3149096D01*
X61383670Y3155443D01*
X61383218Y3163031D01*
X61383667Y3164644D01*
X61437405Y3357796D01*
X61444640Y3520019D01*
X61446190Y3659223D01*
X61446635Y3662288D01*
X61485565Y3799026D01*
X61487503Y3802900D01*
X61600469Y3951467D01*
X61608203Y3955977D01*
X61616863Y3953697D01*
G37*
%TD.AperFunction*%
%TD*%
%TA.AperFunction,Conductor*%
%TO.N,STBY*%
G36*
X61780929Y10396998D02*
G01*
X61901486Y10293293D01*
X62008214Y10236402D01*
X62069195Y10219069D01*
X62113591Y10206450D01*
X62152478Y10197107D01*
X62237767Y10176615D01*
X62238833Y10176304D01*
X62391358Y10123600D01*
X62398057Y10117661D01*
X62398594Y10108722D01*
X62398356Y10108091D01*
X62252563Y9753805D01*
X62246245Y9747458D01*
X62246195Y9747437D01*
X61891909Y9601644D01*
X61882955Y9601665D01*
X61876637Y9608012D01*
X61876406Y9608622D01*
X61823696Y9761167D01*
X61823385Y9762233D01*
X61793549Y9886412D01*
X61763598Y9991786D01*
X61706707Y10098514D01*
X61603002Y10219071D01*
X61600206Y10227576D01*
X61603599Y10234971D01*
X61765029Y10396401D01*
X61773301Y10399827D01*
X61780929Y10396998D01*
G37*
%TD.AperFunction*%
%TD*%
%TA.AperFunction,Conductor*%
%TO.N,STBY*%
G36*
X21438604Y18464409D02*
G01*
X21439197Y18464142D01*
X21574264Y18398446D01*
X21584326Y18393552D01*
X21585319Y18393008D01*
X21694208Y18326307D01*
X21789905Y18272971D01*
X21789910Y18272969D01*
X21905596Y18237731D01*
X21905599Y18237731D01*
X21905601Y18237730D01*
X22064178Y18225814D01*
X22072170Y18221777D01*
X22075000Y18214147D01*
X22075000Y17985854D01*
X22071573Y17977581D01*
X22064177Y17974187D01*
X21905602Y17962272D01*
X21905596Y17962271D01*
X21789910Y17927033D01*
X21789905Y17927031D01*
X21694207Y17873696D01*
X21585319Y17806995D01*
X21584326Y17806451D01*
X21439220Y17735870D01*
X21430281Y17735333D01*
X21423581Y17741273D01*
X21423303Y17741889D01*
X21346114Y17927030D01*
X21275875Y18095501D01*
X21275855Y18104450D01*
X21423303Y18458113D01*
X21429650Y18464430D01*
X21438604Y18464409D01*
G37*
%TD.AperFunction*%
%TD*%
%TA.AperFunction,Conductor*%
%TO.N,VOUT1*%
G36*
X68163670Y23114569D02*
G01*
X68164122Y23114369D01*
X68271831Y23063840D01*
X68308392Y23046688D01*
X68309077Y23046339D01*
X68418746Y22985800D01*
X68515605Y22939636D01*
X68631847Y22910285D01*
X68789014Y22900672D01*
X68797063Y22896747D01*
X68800000Y22888994D01*
X68800000Y22611007D01*
X68796573Y22602734D01*
X68789014Y22599329D01*
X68631850Y22589717D01*
X68515606Y22560366D01*
X68418742Y22514200D01*
X68309077Y22453663D01*
X68308392Y22453314D01*
X68164137Y22385639D01*
X68155192Y22385227D01*
X68148576Y22391262D01*
X68148381Y22391701D01*
X68000875Y22745501D01*
X68000855Y22754450D01*
X68148370Y23108274D01*
X68154716Y23114590D01*
X68163670Y23114569D01*
G37*
%TD.AperFunction*%
%TD*%
%TA.AperFunction,Conductor*%
%TO.N,VOUT1*%
G36*
X80239484Y35949137D02*
G01*
X81008534Y35629607D01*
X81014859Y35623268D01*
X81014850Y35614313D01*
X81014430Y35613413D01*
X80845586Y35288074D01*
X80844642Y35286552D01*
X80677539Y35058267D01*
X80535381Y34860729D01*
X80436858Y34617939D01*
X80436856Y34617931D01*
X80401063Y34263508D01*
X80396822Y34255621D01*
X80389422Y34252984D01*
X80110501Y34252984D01*
X80102228Y34256411D01*
X80098869Y34263424D01*
X80090819Y34337710D01*
X80060254Y34619794D01*
X79954750Y34861776D01*
X79804089Y35057528D01*
X79629476Y35284858D01*
X79628410Y35286519D01*
X79455697Y35613373D01*
X79454862Y35622289D01*
X79460576Y35629184D01*
X79461533Y35629635D01*
X80230511Y35949136D01*
X80239466Y35949144D01*
X80239484Y35949137D01*
G37*
%TD.AperFunction*%
%TD*%
%TA.AperFunction,Conductor*%
%TO.N,VOUT4*%
G36*
X79461186Y43890539D02*
G01*
X80231215Y43572562D01*
X80237552Y43566239D01*
X80237562Y43566215D01*
X80555249Y42796888D01*
X80555240Y42787933D01*
X80548901Y42781608D01*
X80547584Y42781154D01*
X80185007Y42679824D01*
X80182421Y42679406D01*
X79885779Y42665126D01*
X79885403Y42665113D01*
X79626914Y42660985D01*
X79368975Y42586422D01*
X79368969Y42586418D01*
X79081028Y42366963D01*
X79072371Y42364673D01*
X79065663Y42367995D01*
X78868422Y42565236D01*
X78864995Y42573509D01*
X78867810Y42581121D01*
X78872351Y42586422D01*
X79091954Y42842761D01*
X79209396Y43066888D01*
X79270136Y43288321D01*
X79331090Y43549542D01*
X79331412Y43550660D01*
X79445665Y43883521D01*
X79451591Y43890232D01*
X79460528Y43890787D01*
X79461186Y43890539D01*
G37*
%TD.AperFunction*%
%TD*%
%TA.AperFunction,Conductor*%
%TO.N,VOUT4*%
G36*
X68163670Y27364569D02*
G01*
X68164122Y27364369D01*
X68271831Y27313840D01*
X68308392Y27296688D01*
X68309077Y27296339D01*
X68418746Y27235800D01*
X68515605Y27189636D01*
X68631847Y27160285D01*
X68789014Y27150672D01*
X68797063Y27146747D01*
X68800000Y27138994D01*
X68800000Y26861007D01*
X68796573Y26852734D01*
X68789014Y26849329D01*
X68631850Y26839717D01*
X68515606Y26810366D01*
X68418742Y26764200D01*
X68309077Y26703663D01*
X68308392Y26703314D01*
X68164137Y26635639D01*
X68155192Y26635227D01*
X68148576Y26641262D01*
X68148381Y26641701D01*
X68000875Y26995501D01*
X68000855Y27004450D01*
X68148370Y27358274D01*
X68154716Y27364590D01*
X68163670Y27364569D01*
G37*
%TD.AperFunction*%
%TD*%
%TA.AperFunction,Conductor*%
%TO.N,DIN*%
G36*
X53107939Y26851769D02*
G01*
X53114257Y26845422D01*
X53114236Y26836468D01*
X53113881Y26835697D01*
X53040704Y26690760D01*
X53039938Y26689458D01*
X52967103Y26582258D01*
X52906518Y26488711D01*
X52906515Y26488705D01*
X52906514Y26488703D01*
X52905979Y26487224D01*
X52865243Y26374539D01*
X52850958Y26215625D01*
X52846804Y26207692D01*
X52839305Y26204973D01*
X52610995Y26204973D01*
X52602722Y26208400D01*
X52599318Y26215948D01*
X52589629Y26371911D01*
X52589629Y26371914D01*
X52560104Y26487227D01*
X52560101Y26487233D01*
X52560100Y26487237D01*
X52513817Y26583254D01*
X52513806Y26583276D01*
X52453328Y26692027D01*
X52452965Y26692734D01*
X52385729Y26835697D01*
X52385653Y26835858D01*
X52385235Y26844802D01*
X52391263Y26851424D01*
X52391740Y26851635D01*
X52745500Y26999125D01*
X52754449Y26999145D01*
X53107939Y26851769D01*
G37*
%TD.AperFunction*%
%TD*%
%TA.AperFunction,Conductor*%
%TO.N,DIN*%
G36*
X52872419Y27796573D02*
G01*
X52875813Y27789177D01*
X52887728Y27630604D01*
X52887729Y27630598D01*
X52922967Y27514912D01*
X52922969Y27514907D01*
X52976298Y27419221D01*
X53043008Y27310318D01*
X53043552Y27309324D01*
X53114130Y27164221D01*
X53114667Y27155282D01*
X53108727Y27148582D01*
X53108111Y27148304D01*
X52754502Y27000877D01*
X52745548Y27000856D01*
X52745498Y27000877D01*
X52391888Y27148304D01*
X52385570Y27154651D01*
X52385591Y27163605D01*
X52385859Y27164199D01*
X52456448Y27309329D01*
X52456982Y27310306D01*
X52523697Y27419216D01*
X52577029Y27514906D01*
X52612270Y27630602D01*
X52624187Y27789177D01*
X52628224Y27797170D01*
X52635854Y27800000D01*
X52864146Y27800000D01*
X52872419Y27796573D01*
G37*
%TD.AperFunction*%
%TD*%
%TA.AperFunction,Conductor*%
%TO.N,DIN*%
G36*
X9476577Y17160378D02*
G01*
X10246215Y16842562D01*
X10252552Y16836239D01*
X10252562Y16836215D01*
X10570372Y16066590D01*
X10570363Y16057635D01*
X10564024Y16051310D01*
X10562984Y16050937D01*
X10207835Y15942171D01*
X10205855Y15941748D01*
X9919720Y15906111D01*
X9919679Y15906106D01*
X9672870Y15876244D01*
X9672861Y15876242D01*
X9425379Y15781107D01*
X9144485Y15556082D01*
X9135886Y15553584D01*
X9128897Y15556940D01*
X8966939Y15718898D01*
X8963512Y15727171D01*
X8966080Y15734484D01*
X9191104Y16015381D01*
X9286241Y16262865D01*
X9316107Y16509711D01*
X9351745Y16795861D01*
X9352168Y16797837D01*
X9365298Y16840707D01*
X9460936Y17152986D01*
X9466635Y17159892D01*
X9475549Y17160746D01*
X9476577Y17160378D01*
G37*
%TD.AperFunction*%
%TD*%
%TA.AperFunction,Conductor*%
%TO.N,DIN*%
G36*
X41867044Y45148336D02*
G01*
X41873362Y45141989D01*
X41873600Y45141358D01*
X41926297Y44988847D01*
X41926615Y44987759D01*
X41956447Y44863594D01*
X41986400Y44758218D01*
X41986401Y44758216D01*
X42043291Y44651488D01*
X42146996Y44530931D01*
X42149793Y44522425D01*
X42146399Y44515029D01*
X41984971Y44353601D01*
X41976698Y44350174D01*
X41969069Y44353004D01*
X41848512Y44456709D01*
X41741784Y44513599D01*
X41741783Y44513600D01*
X41741782Y44513600D01*
X41636406Y44543553D01*
X41512241Y44573385D01*
X41511153Y44573703D01*
X41358642Y44626400D01*
X41351942Y44632340D01*
X41351405Y44641279D01*
X41351634Y44641889D01*
X41497437Y44996198D01*
X41503753Y45002543D01*
X41858091Y45148357D01*
X41867044Y45148336D01*
G37*
%TD.AperFunction*%
%TD*%
%TA.AperFunction,Conductor*%
%TO.N,VOUT2*%
G36*
X68163670Y24364569D02*
G01*
X68164122Y24364369D01*
X68271831Y24313840D01*
X68308392Y24296688D01*
X68309077Y24296339D01*
X68418746Y24235800D01*
X68515605Y24189636D01*
X68631847Y24160285D01*
X68789014Y24150672D01*
X68797063Y24146747D01*
X68800000Y24138994D01*
X68800000Y23861007D01*
X68796573Y23852734D01*
X68789014Y23849329D01*
X68631850Y23839717D01*
X68515606Y23810366D01*
X68418742Y23764200D01*
X68309077Y23703663D01*
X68308392Y23703314D01*
X68164137Y23635639D01*
X68155192Y23635227D01*
X68148576Y23641262D01*
X68148381Y23641701D01*
X68000875Y23995501D01*
X68000855Y24004450D01*
X68148370Y24358274D01*
X68154716Y24364590D01*
X68163670Y24364569D01*
G37*
%TD.AperFunction*%
%TD*%
%TA.AperFunction,Conductor*%
%TO.N,VOUT2*%
G36*
X79461506Y38810407D02*
G01*
X80231215Y38492562D01*
X80237552Y38486239D01*
X80237562Y38486215D01*
X80555402Y37716517D01*
X80555393Y37707562D01*
X80549054Y37701237D01*
X80548082Y37700885D01*
X80196129Y37590738D01*
X80194302Y37590323D01*
X80036777Y37567648D01*
X79911973Y37549682D01*
X79911949Y37549679D01*
X79669111Y37513748D01*
X79669107Y37513747D01*
X79425245Y37414017D01*
X79425243Y37414016D01*
X79147173Y37188494D01*
X79138589Y37185944D01*
X79131530Y37189308D01*
X78934307Y37386531D01*
X78930880Y37394804D01*
X78933491Y37402171D01*
X79159014Y37680246D01*
X79258745Y37924111D01*
X79294680Y38166975D01*
X79335320Y38449309D01*
X79335735Y38451133D01*
X79346722Y38486238D01*
X79445885Y38803086D01*
X79451626Y38809956D01*
X79460545Y38810755D01*
X79461506Y38810407D01*
G37*
%TD.AperFunction*%
%TD*%
%TA.AperFunction,Conductor*%
%TO.N,SCLK*%
G36*
X51647419Y27771573D02*
G01*
X51650813Y27764177D01*
X51662728Y27605604D01*
X51662729Y27605598D01*
X51697967Y27489912D01*
X51697969Y27489907D01*
X51751298Y27394221D01*
X51818008Y27285318D01*
X51818552Y27284324D01*
X51889130Y27139221D01*
X51889667Y27130282D01*
X51883727Y27123582D01*
X51883111Y27123304D01*
X51529502Y26975877D01*
X51520548Y26975856D01*
X51520498Y26975877D01*
X51166888Y27123304D01*
X51160570Y27129651D01*
X51160591Y27138605D01*
X51160859Y27139199D01*
X51231448Y27284329D01*
X51231982Y27285306D01*
X51298697Y27394216D01*
X51352029Y27489906D01*
X51387270Y27605602D01*
X51399187Y27764177D01*
X51403224Y27772170D01*
X51410854Y27775000D01*
X51639146Y27775000D01*
X51647419Y27771573D01*
G37*
%TD.AperFunction*%
%TD*%
%TA.AperFunction,Conductor*%
%TO.N,SCLK*%
G36*
X41858111Y42101697D02*
G01*
X41864429Y42095350D01*
X41864408Y42086396D01*
X41864130Y42085780D01*
X41793549Y41940674D01*
X41793005Y41939681D01*
X41726304Y41830793D01*
X41672969Y41735095D01*
X41672967Y41735090D01*
X41637729Y41619404D01*
X41637728Y41619398D01*
X41625813Y41460823D01*
X41621776Y41452830D01*
X41614146Y41450000D01*
X41385854Y41450000D01*
X41377581Y41453427D01*
X41374187Y41460823D01*
X41362270Y41619398D01*
X41362269Y41619404D01*
X41327031Y41735090D01*
X41327029Y41735095D01*
X41273693Y41830792D01*
X41206992Y41939681D01*
X41206448Y41940674D01*
X41201554Y41950736D01*
X41135868Y42085782D01*
X41135332Y42094719D01*
X41141272Y42101419D01*
X41141874Y42101692D01*
X41495500Y42249125D01*
X41504449Y42249145D01*
X41858111Y42101697D01*
G37*
%TD.AperFunction*%
%TD*%
%TA.AperFunction,Conductor*%
%TO.N,SCLK*%
G36*
X13125640Y15079738D02*
G01*
X13126639Y15079266D01*
X13454676Y14905049D01*
X13456375Y14903948D01*
X13683878Y14726838D01*
X13683900Y14726799D01*
X13683911Y14726812D01*
X13879574Y14573385D01*
X13879575Y14573385D01*
X13879576Y14573384D01*
X14121846Y14465658D01*
X14479585Y14426151D01*
X14487431Y14421837D01*
X14490000Y14414522D01*
X14490000Y14185479D01*
X14486573Y14177206D01*
X14479584Y14173850D01*
X14121847Y14134344D01*
X13879574Y14026617D01*
X13683911Y13873189D01*
X13683878Y13873164D01*
X13456375Y13696055D01*
X13454676Y13694954D01*
X13126639Y13520735D01*
X13117725Y13519881D01*
X13110818Y13525580D01*
X13110346Y13526579D01*
X13040388Y13694954D01*
X12790864Y14295512D01*
X12790856Y14304466D01*
X12790865Y14304489D01*
X12836582Y14414522D01*
X13110347Y15073424D01*
X13116685Y15079747D01*
X13125640Y15079738D01*
G37*
%TD.AperFunction*%
%TD*%
%TA.AperFunction,Conductor*%
%TO.N,SCLK*%
G36*
X51883111Y26826697D02*
G01*
X51889429Y26820350D01*
X51889408Y26811396D01*
X51889130Y26810780D01*
X51818549Y26665674D01*
X51818005Y26664681D01*
X51751304Y26555793D01*
X51697969Y26460095D01*
X51697967Y26460090D01*
X51662729Y26344404D01*
X51662728Y26344398D01*
X51650813Y26185823D01*
X51646776Y26177830D01*
X51639146Y26175000D01*
X51410854Y26175000D01*
X51402581Y26178427D01*
X51399187Y26185823D01*
X51387270Y26344398D01*
X51387269Y26344404D01*
X51352031Y26460090D01*
X51352029Y26460095D01*
X51298693Y26555792D01*
X51231992Y26664681D01*
X51231448Y26665674D01*
X51226554Y26675736D01*
X51160868Y26810782D01*
X51160332Y26819719D01*
X51166272Y26826419D01*
X51166874Y26826692D01*
X51520500Y26974125D01*
X51529449Y26974145D01*
X51883111Y26826697D01*
G37*
%TD.AperFunction*%
%TD*%
%TA.AperFunction,Conductor*%
%TO.N,SYNC*%
G36*
X50297419Y27771573D02*
G01*
X50300813Y27764177D01*
X50312728Y27605604D01*
X50312729Y27605598D01*
X50347967Y27489912D01*
X50347969Y27489907D01*
X50401298Y27394221D01*
X50468008Y27285318D01*
X50468552Y27284324D01*
X50539130Y27139221D01*
X50539667Y27130282D01*
X50533727Y27123582D01*
X50533111Y27123304D01*
X50179502Y26975877D01*
X50170548Y26975856D01*
X50170498Y26975877D01*
X49816888Y27123304D01*
X49810570Y27129651D01*
X49810591Y27138605D01*
X49810859Y27139199D01*
X49881448Y27284329D01*
X49881982Y27285306D01*
X49948697Y27394216D01*
X50002029Y27489906D01*
X50037270Y27605602D01*
X50049187Y27764177D01*
X50053224Y27772170D01*
X50060854Y27775000D01*
X50289146Y27775000D01*
X50297419Y27771573D01*
G37*
%TD.AperFunction*%
%TD*%
%TA.AperFunction,Conductor*%
%TO.N,SYNC*%
G36*
X41641899Y47398361D02*
G01*
X41996195Y47252564D01*
X42002542Y47246246D01*
X42002563Y47246196D01*
X42148356Y46891910D01*
X42148335Y46882956D01*
X42141988Y46876638D01*
X42141357Y46876400D01*
X41988844Y46823703D01*
X41987756Y46823385D01*
X41863591Y46793553D01*
X41758215Y46763600D01*
X41651487Y46706710D01*
X41530931Y46603004D01*
X41522424Y46600207D01*
X41515028Y46603601D01*
X41353600Y46765029D01*
X41350173Y46773302D01*
X41353001Y46780929D01*
X41456707Y46901488D01*
X41513598Y47008216D01*
X41543549Y47113590D01*
X41573386Y47237776D01*
X41573695Y47238831D01*
X41626400Y47391360D01*
X41632339Y47398058D01*
X41641278Y47398595D01*
X41641899Y47398361D01*
G37*
%TD.AperFunction*%
%TD*%
%TA.AperFunction,Conductor*%
%TO.N,SYNC*%
G36*
X50533111Y26826697D02*
G01*
X50539429Y26820350D01*
X50539408Y26811396D01*
X50539130Y26810780D01*
X50468549Y26665674D01*
X50468005Y26664681D01*
X50401304Y26555793D01*
X50347969Y26460095D01*
X50347967Y26460090D01*
X50312729Y26344404D01*
X50312728Y26344398D01*
X50300813Y26185823D01*
X50296776Y26177830D01*
X50289146Y26175000D01*
X50060854Y26175000D01*
X50052581Y26178427D01*
X50049187Y26185823D01*
X50037270Y26344398D01*
X50037269Y26344404D01*
X50002031Y26460090D01*
X50002029Y26460095D01*
X49948693Y26555792D01*
X49881992Y26664681D01*
X49881448Y26665674D01*
X49876554Y26675736D01*
X49810868Y26810782D01*
X49810332Y26819719D01*
X49816272Y26826419D01*
X49816874Y26826692D01*
X50170500Y26974125D01*
X50179449Y26974145D01*
X50533111Y26826697D01*
G37*
%TD.AperFunction*%
%TD*%
%TA.AperFunction,Conductor*%
%TO.N,SYNC*%
G36*
X11371102Y15583061D02*
G01*
X11533060Y15421103D01*
X11536487Y15412830D01*
X11533918Y15405515D01*
X11308893Y15124621D01*
X11213758Y14877139D01*
X11213756Y14877130D01*
X11183896Y14630332D01*
X11183891Y14630291D01*
X11148252Y14344145D01*
X11147829Y14342165D01*
X11039063Y13987016D01*
X11033364Y13980109D01*
X11024450Y13979255D01*
X11023410Y13979628D01*
X10253785Y14297438D01*
X10247447Y14303762D01*
X9929627Y15073413D01*
X9929636Y15082366D01*
X9935975Y15088691D01*
X9937010Y15089063D01*
X10292167Y15197833D01*
X10294139Y15198255D01*
X10580289Y15233893D01*
X10827135Y15263759D01*
X11074619Y15358896D01*
X11355516Y15583920D01*
X11364113Y15586417D01*
X11371102Y15583061D01*
G37*
%TD.AperFunction*%
%TD*%
%TA.AperFunction,Conductor*%
%TO.N,VOUT3*%
G36*
X68163670Y25864569D02*
G01*
X68164122Y25864369D01*
X68271831Y25813840D01*
X68308392Y25796688D01*
X68309077Y25796339D01*
X68418746Y25735800D01*
X68515605Y25689636D01*
X68631847Y25660285D01*
X68789014Y25650672D01*
X68797063Y25646747D01*
X68800000Y25638994D01*
X68800000Y25361007D01*
X68796573Y25352734D01*
X68789014Y25349329D01*
X68631850Y25339717D01*
X68515606Y25310366D01*
X68418742Y25264200D01*
X68309077Y25203663D01*
X68308392Y25203314D01*
X68164137Y25135639D01*
X68155192Y25135227D01*
X68148576Y25141262D01*
X68148381Y25141701D01*
X68000875Y25495501D01*
X68000855Y25504450D01*
X68148370Y25858274D01*
X68154716Y25864590D01*
X68163670Y25864569D01*
G37*
%TD.AperFunction*%
%TD*%
%TA.AperFunction,Conductor*%
%TO.N,VOUT3*%
G36*
X79461506Y41350407D02*
G01*
X80231215Y41032562D01*
X80237552Y41026239D01*
X80237562Y41026215D01*
X80555402Y40256517D01*
X80555393Y40247562D01*
X80549054Y40241237D01*
X80548082Y40240885D01*
X80196129Y40130738D01*
X80194302Y40130323D01*
X80036777Y40107648D01*
X79911973Y40089682D01*
X79911949Y40089679D01*
X79669111Y40053748D01*
X79669107Y40053747D01*
X79425245Y39954017D01*
X79425243Y39954016D01*
X79147173Y39728494D01*
X79138589Y39725944D01*
X79131530Y39729308D01*
X78934307Y39926531D01*
X78930880Y39934804D01*
X78933491Y39942171D01*
X79159014Y40220246D01*
X79258745Y40464111D01*
X79294680Y40706975D01*
X79335320Y40989309D01*
X79335735Y40991133D01*
X79346722Y41026238D01*
X79445885Y41343086D01*
X79451626Y41349956D01*
X79460545Y41350755D01*
X79461506Y41350407D01*
G37*
%TD.AperFunction*%
%TD*%
%TA.AperFunction,Conductor*%
%TO.N,GPIO27_ADC1*%
G36*
X21608111Y23101697D02*
G01*
X21614429Y23095350D01*
X21614408Y23086396D01*
X21614130Y23085780D01*
X21543549Y22940674D01*
X21543005Y22939681D01*
X21476304Y22830793D01*
X21422969Y22735095D01*
X21422967Y22735090D01*
X21387729Y22619404D01*
X21387728Y22619398D01*
X21375813Y22460823D01*
X21371776Y22452830D01*
X21364146Y22450000D01*
X21135854Y22450000D01*
X21127581Y22453427D01*
X21124187Y22460823D01*
X21112270Y22619398D01*
X21112269Y22619404D01*
X21077031Y22735090D01*
X21077029Y22735095D01*
X21023693Y22830792D01*
X20956992Y22939681D01*
X20956448Y22940674D01*
X20951554Y22950736D01*
X20885868Y23085782D01*
X20885332Y23094719D01*
X20891272Y23101419D01*
X20891874Y23101692D01*
X21245500Y23249125D01*
X21254449Y23249145D01*
X21608111Y23101697D01*
G37*
%TD.AperFunction*%
%TD*%
%TA.AperFunction,Conductor*%
%TO.N,GPIO27_ADC1*%
G36*
X13125640Y17619738D02*
G01*
X13126639Y17619266D01*
X13454676Y17445049D01*
X13456375Y17443948D01*
X13683878Y17266838D01*
X13683900Y17266799D01*
X13683911Y17266812D01*
X13879574Y17113385D01*
X13879575Y17113385D01*
X13879576Y17113384D01*
X14121846Y17005658D01*
X14479585Y16966151D01*
X14487431Y16961837D01*
X14490000Y16954522D01*
X14490000Y16725479D01*
X14486573Y16717206D01*
X14479584Y16713850D01*
X14121847Y16674344D01*
X13879574Y16566617D01*
X13683911Y16413189D01*
X13683878Y16413164D01*
X13456375Y16236055D01*
X13454676Y16234954D01*
X13126639Y16060735D01*
X13117725Y16059881D01*
X13110818Y16065580D01*
X13110346Y16066579D01*
X13040388Y16234954D01*
X12790864Y16835512D01*
X12790856Y16844466D01*
X12790865Y16844489D01*
X12836582Y16954522D01*
X13110347Y17613424D01*
X13116685Y17619747D01*
X13125640Y17619738D01*
G37*
%TD.AperFunction*%
%TD*%
M02*
