M48
; DRILL file {KiCad 8.0.2} date 2024-05-14T11:51:02+0700
; FORMAT={-:-/ absolute / metric / decimal}
; #@! TF.CreationDate,2024-05-14T11:51:02+07:00
; #@! TF.GenerationSoftware,Kicad,Pcbnew,8.0.2
; #@! TF.FileFunction,Plated,1,2,PTH
FMAT,2
METRIC
; #@! TA.AperFunction,Plated,PTH,ViaDrill
T1C0.400
; #@! TA.AperFunction,Plated,PTH,ComponentDrill
T2C0.500
; #@! TA.AperFunction,Plated,PTH,ComponentDrill
T3C1.000
; #@! TA.AperFunction,Plated,PTH,ComponentDrill
T4C3.200
%
G90
G05
T1
X1.75Y45.75
X1.75Y40.5
X1.75Y35.25
X1.75Y28.75
X1.75Y22.5
X1.75Y17.25
X1.75Y12.25
X1.75Y7.75
X21.25Y33.5
X21.25Y29.5
X21.25Y23.25
X21.25Y8.0
X21.275Y18.1
X21.5Y25.25
X21.75Y46.0
X21.75Y42.25
X21.75Y38.0
X22.0Y51.5
X22.0Y12.5
X22.25Y17.0
X22.75Y2.0
X23.0Y21.75
X24.0Y51.5
X26.25Y46.0
X26.25Y42.25
X26.25Y38.0
X26.25Y33.5
X26.25Y29.5
X26.25Y25.5
X26.25Y21.5
X28.5Y49.25
X29.0Y17.0
X29.0Y12.5
X29.0Y8.25
X31.0Y46.0
X31.0Y42.25
X31.0Y38.0
X31.0Y33.5
X31.0Y29.5
X31.0Y25.5
X31.0Y21.5
X34.0Y2.0
X35.0Y16.75
X35.0Y12.5
X35.25Y46.0
X35.25Y42.25
X35.25Y38.0
X35.25Y33.5
X35.25Y29.5
X35.25Y25.5
X35.5Y21.5
X35.75Y8.0
X41.5Y45.0
X41.5Y42.25
X42.0Y47.25
X43.75Y48.25
X43.75Y44.5
X43.75Y40.25
X48.25Y44.5
X49.25Y48.0
X50.175Y26.975
X50.75Y44.075
X51.525Y26.975
X51.75Y42.5
X51.75Y2.0
X52.25Y39.0
X52.25Y36.5
X52.75Y27.0
X53.0Y3.25
X55.25Y48.0
X57.0Y47.75
X57.25Y2.75
X57.75Y9.25
X59.0Y46.5
X59.5Y52.25
X59.5Y50.25
X59.5Y48.25
X59.5Y2.75
X60.5Y19.75
X60.5Y18.5
X60.5Y17.25
X61.75Y3.0
X62.25Y48.25
X62.25Y9.75
X62.5Y39.0
X62.5Y36.5
X62.5Y34.0
X62.5Y31.5
X62.725Y15.35
X64.0Y2.75
X64.25Y52.25
X64.25Y50.25
X64.5Y20.0
X64.5Y15.5
X65.0Y47.75
X65.0Y45.0
X65.575Y15.375
X66.25Y3.0
X66.75Y47.75
X67.25Y13.25
X67.5Y2.0
X68.0Y44.25
X68.0Y27.0
X68.0Y25.5
X68.0Y24.0
X68.0Y22.75
X68.75Y47.75
X69.0Y41.5
X69.0Y39.0
X69.0Y36.75
X69.0Y34.25
X69.0Y32.0
X69.0Y29.5
X69.0Y17.325
X69.0Y2.75
X69.25Y10.75
X70.0Y42.5
X70.25Y28.25
X70.75Y52.25
X70.75Y50.25
X70.75Y2.75
X71.0Y9.0
X71.5Y39.75
X71.5Y37.25
X71.5Y34.5
X71.5Y32.25
X71.5Y30.0
X71.5Y21.5
X71.75Y44.25
X71.75Y18.0
X72.75Y2.0
X73.0Y48.75
X73.25Y19.5
X74.0Y42.25
X74.25Y39.75
X74.25Y37.25
X74.25Y34.5
X74.25Y32.25
X74.25Y30.0
X74.25Y21.5
X74.25Y16.5
X75.5Y52.25
X75.5Y50.75
X75.5Y49.0
X75.75Y44.5
X76.0Y18.5
X76.0Y9.0
X76.25Y14.25
X76.25Y12.0
X76.5Y46.5
X76.75Y42.25
X76.75Y21.5
X77.5Y2.0
X78.0Y47.5
X80.0Y46.0
X80.5Y21.5
X80.5Y17.25
X80.5Y13.5
X80.5Y9.0
X80.75Y25.75
X81.5Y33.25
X81.5Y29.5
X83.75Y46.0
X83.75Y33.25
X83.75Y29.5
X83.75Y25.75
X83.75Y21.5
X83.75Y17.25
X83.75Y13.5
X83.75Y9.0
T2
X1.1Y50.5
X1.1Y3.5
X1.803Y52.197
X1.803Y48.803
X1.803Y5.197
X1.803Y1.803
X3.5Y52.9
X3.5Y48.1
X3.5Y5.9
X3.5Y1.1
X5.197Y52.197
X5.197Y48.803
X5.197Y5.197
X5.197Y1.803
X5.9Y50.5
X5.9Y3.5
X79.6Y3.5
X79.653Y50.553
X80.303Y5.197
X80.303Y1.803
X80.356Y52.25
X80.356Y48.856
X82.0Y5.9
X82.0Y1.1
X82.053Y52.953
X82.053Y48.153
X83.697Y5.197
X83.697Y1.803
X83.75Y52.25
X83.75Y48.856
X84.4Y3.5
X84.453Y50.553
T3
X10.225Y49.83
X10.225Y27.0
X10.225Y4.17
X10.25Y44.78
X10.25Y42.24
X10.25Y39.7
X10.25Y37.16
X10.25Y34.62
X10.25Y32.08
X10.25Y21.92
X10.25Y19.38
X10.25Y16.84
X10.25Y14.3
X10.25Y11.76
X10.25Y9.22
X12.765Y49.83
X12.765Y27.0
X12.765Y4.17
X12.79Y44.78
X12.79Y42.24
X12.79Y39.7
X12.79Y37.16
X12.79Y34.62
X12.79Y32.08
X12.79Y21.92
X12.79Y19.38
X12.79Y16.84
X12.79Y14.3
X12.79Y11.76
X12.79Y9.22
X46.7Y51.25
X49.24Y51.25
X51.78Y51.25
X54.32Y51.25
X80.235Y43.57
X80.235Y41.03
X80.235Y38.49
X80.235Y35.95
X82.775Y43.57
X82.775Y41.03
X82.775Y38.49
X82.775Y35.95
T4
X3.5Y50.5
X3.5Y3.5
X82.0Y3.5
X82.053Y50.553
M30
