%TF.GenerationSoftware,KiCad,Pcbnew,8.0.3-8.0.3-0~ubuntu22.04.1*%
%TF.CreationDate,2024-09-16T11:34:46+02:00*%
%TF.ProjectId,FT600_RP2040,46543630-305f-4525-9032-3034302e6b69,rev?*%
%TF.SameCoordinates,PX7735940PY61c06a0*%
%TF.FileFunction,Drillmap*%
%TF.FilePolarity,Positive*%
%FSLAX45Y45*%
G04 Gerber Fmt 4.5, Leading zero omitted, Abs format (unit mm)*
G04 Created by KiCad (PCBNEW 8.0.3-8.0.3-0~ubuntu22.04.1) date 2024-09-16 11:34:46*
%MOMM*%
%LPD*%
G01*
G04 APERTURE LIST*
%ADD10C,0.100000*%
%ADD11C,0.200000*%
%ADD12C,0.172000*%
%ADD13C,0.320000*%
G04 APERTURE END LIST*
D10*
X200000Y4675000D02*
G75*
G02*
X250000Y4625000I0J-50000D01*
G01*
X0Y350000D02*
X0Y675000D01*
X0Y5050000D02*
X0Y4725000D01*
X350000Y0D02*
G75*
G02*
X0Y350000I0J350000D01*
G01*
X250000Y775000D02*
G75*
G02*
X200000Y725000I-50000J0D01*
G01*
X0Y675000D02*
G75*
G02*
X50000Y725000I50000J0D01*
G01*
X250000Y4625000D02*
X250000Y775000D01*
X0Y5050000D02*
G75*
G02*
X350000Y5400000I350000J0D01*
G01*
X8200000Y5400000D02*
G75*
G02*
X8550000Y5050000I0J-350000D01*
G01*
X350000Y5400000D02*
X8200000Y5400000D01*
X8200000Y0D02*
X350000Y0D01*
X8550000Y350000D02*
G75*
G02*
X8200000Y0I-350000J0D01*
G01*
X8550000Y5050000D02*
X8550000Y350000D01*
X50000Y4675000D02*
G75*
G02*
X0Y4725000I0J50000D01*
G01*
X50000Y4675000D02*
X200000Y4675000D01*
X200000Y725000D02*
X50000Y725000D01*
D11*
D10*
X780000Y870000D02*
X820000Y830000D01*
X820000Y870000D02*
X780000Y830000D01*
X805000Y3070000D02*
X845000Y3030000D01*
X845000Y3070000D02*
X805000Y3030000D01*
X1555000Y4295000D02*
X1595000Y4255000D01*
X1595000Y4295000D02*
X1555000Y4255000D01*
X2105000Y4970000D02*
X2145000Y4930000D01*
X2145000Y4970000D02*
X2105000Y4930000D01*
X2105000Y4770000D02*
X2145000Y4730000D01*
X2145000Y4770000D02*
X2105000Y4730000D01*
X2105000Y4310000D02*
X2145000Y4270000D01*
X2145000Y4310000D02*
X2105000Y4270000D01*
X2155000Y4545000D02*
X2195000Y4505000D01*
X2195000Y4545000D02*
X2155000Y4505000D01*
X2255000Y545000D02*
X2295000Y505000D01*
X2295000Y545000D02*
X2255000Y505000D01*
X2405000Y2970000D02*
X2445000Y2930000D01*
X2445000Y2970000D02*
X2405000Y2930000D01*
X2405000Y2595000D02*
X2445000Y2555000D01*
X2445000Y2595000D02*
X2405000Y2555000D01*
X2405000Y2145000D02*
X2445000Y2105000D01*
X2445000Y2145000D02*
X2405000Y2105000D01*
X2530000Y4145000D02*
X2570000Y4105000D01*
X2570000Y4145000D02*
X2530000Y4105000D01*
X2580000Y4930000D02*
X2620000Y4890000D01*
X2620000Y4930000D02*
X2580000Y4890000D01*
X2605000Y4695000D02*
X2645000Y4655000D01*
X2645000Y4695000D02*
X2605000Y4655000D01*
X2655000Y4295000D02*
X2695000Y4255000D01*
X2695000Y4295000D02*
X2655000Y4255000D01*
X2805000Y4645000D02*
X2845000Y4605000D01*
X2845000Y4645000D02*
X2805000Y4605000D01*
X2805000Y2970000D02*
X2845000Y2930000D01*
X2845000Y2970000D02*
X2805000Y2930000D01*
X2805000Y2595000D02*
X2845000Y2555000D01*
X2845000Y2595000D02*
X2805000Y2555000D01*
X2805000Y2145000D02*
X2845000Y2105000D01*
X2845000Y2145000D02*
X2805000Y2105000D01*
X2830000Y4970000D02*
X2870000Y4930000D01*
X2870000Y4970000D02*
X2830000Y4930000D01*
X2880000Y4095000D02*
X2920000Y4055000D01*
X2920000Y4095000D02*
X2880000Y4055000D01*
X3005000Y4645000D02*
X3045000Y4605000D01*
X3045000Y4645000D02*
X3005000Y4605000D01*
X3005000Y4220000D02*
X3045000Y4180000D01*
X3045000Y4220000D02*
X3005000Y4180000D01*
X3100000Y4930000D02*
X3140000Y4890000D01*
X3140000Y4930000D02*
X3100000Y4890000D01*
X3105000Y4295000D02*
X3145000Y4255000D01*
X3145000Y4295000D02*
X3105000Y4255000D01*
X3130000Y2970000D02*
X3170000Y2930000D01*
X3170000Y2970000D02*
X3130000Y2930000D01*
X3205000Y2595000D02*
X3245000Y2555000D01*
X3245000Y2595000D02*
X3205000Y2555000D01*
X3205000Y2145000D02*
X3245000Y2105000D01*
X3245000Y2145000D02*
X3205000Y2105000D01*
X3305000Y4295000D02*
X3345000Y4255000D01*
X3345000Y4295000D02*
X3305000Y4255000D01*
X3305000Y620000D02*
X3345000Y580000D01*
X3345000Y620000D02*
X3305000Y580000D01*
X3305000Y220000D02*
X3345000Y180000D01*
X3345000Y220000D02*
X3305000Y180000D01*
X3430000Y4295000D02*
X3470000Y4255000D01*
X3470000Y4295000D02*
X3430000Y4255000D01*
X3530000Y2570000D02*
X3570000Y2530000D01*
X3570000Y2570000D02*
X3530000Y2530000D01*
X3530000Y470000D02*
X3570000Y430000D01*
X3570000Y470000D02*
X3530000Y430000D01*
X3530000Y220000D02*
X3570000Y180000D01*
X3570000Y220000D02*
X3530000Y180000D01*
X3540000Y4250000D02*
X3580000Y4210000D01*
X3580000Y4250000D02*
X3540000Y4210000D01*
X3540000Y4010000D02*
X3580000Y3970000D01*
X3580000Y4010000D02*
X3540000Y3970000D01*
X3540000Y3730000D02*
X3580000Y3690000D01*
X3580000Y3730000D02*
X3540000Y3690000D01*
X3540000Y3490000D02*
X3580000Y3450000D01*
X3580000Y3490000D02*
X3540000Y3450000D01*
X3540000Y3010000D02*
X3580000Y2970000D01*
X3580000Y3010000D02*
X3540000Y2970000D01*
X3540000Y2730000D02*
X3580000Y2690000D01*
X3580000Y2730000D02*
X3540000Y2690000D01*
X4055000Y2795000D02*
X4095000Y2755000D01*
X4095000Y2795000D02*
X4055000Y2755000D01*
X4060000Y2430000D02*
X4100000Y2390000D01*
X4100000Y2430000D02*
X4060000Y2390000D01*
X4060000Y2190000D02*
X4100000Y2150000D01*
X4100000Y2190000D02*
X4060000Y2150000D01*
X4060000Y1670000D02*
X4100000Y1630000D01*
X4100000Y1670000D02*
X4060000Y1630000D01*
X4060000Y1410000D02*
X4100000Y1370000D01*
X4100000Y1410000D02*
X4060000Y1370000D01*
X4060000Y1150000D02*
X4100000Y1110000D01*
X4100000Y1150000D02*
X4060000Y1110000D01*
X4060000Y930000D02*
X4100000Y890000D01*
X4100000Y930000D02*
X4060000Y890000D01*
X4060000Y650000D02*
X4100000Y610000D01*
X4100000Y650000D02*
X4060000Y610000D01*
X4060000Y410000D02*
X4100000Y370000D01*
X4100000Y410000D02*
X4060000Y370000D01*
X4155000Y3270000D02*
X4195000Y3230000D01*
X4195000Y3270000D02*
X4155000Y3230000D01*
X4205000Y4520000D02*
X4245000Y4480000D01*
X4245000Y4520000D02*
X4205000Y4480000D01*
X4230000Y220000D02*
X4270000Y180000D01*
X4270000Y220000D02*
X4230000Y180000D01*
X4285000Y2542500D02*
X4325000Y2502500D01*
X4325000Y2542500D02*
X4285000Y2502500D01*
X4430000Y420000D02*
X4470000Y380000D01*
X4470000Y420000D02*
X4430000Y380000D01*
X4505000Y2320000D02*
X4545000Y2280000D01*
X4545000Y2320000D02*
X4505000Y2280000D01*
X4505000Y2170000D02*
X4545000Y2130000D01*
X4545000Y2170000D02*
X4505000Y2130000D01*
X4530000Y595000D02*
X4570000Y555000D01*
X4570000Y595000D02*
X4530000Y555000D01*
X4655000Y720000D02*
X4695000Y680000D01*
X4695000Y720000D02*
X4655000Y680000D01*
X4730000Y445000D02*
X4770000Y405000D01*
X4770000Y445000D02*
X4730000Y405000D01*
X4775000Y1160000D02*
X4815000Y1120000D01*
X4815000Y1160000D02*
X4775000Y1120000D01*
X4780000Y4945000D02*
X4820000Y4905000D01*
X4820000Y4945000D02*
X4780000Y4905000D01*
X4780000Y2195000D02*
X4820000Y2155000D01*
X4820000Y2195000D02*
X4780000Y2155000D01*
X4930000Y4945000D02*
X4970000Y4905000D01*
X4970000Y4945000D02*
X4930000Y4905000D01*
X5005000Y445000D02*
X5045000Y405000D01*
X5045000Y445000D02*
X5005000Y405000D01*
X5022500Y1175000D02*
X5062500Y1135000D01*
X5062500Y1175000D02*
X5022500Y1135000D01*
X5030000Y1425000D02*
X5070000Y1385000D01*
X5070000Y1425000D02*
X5030000Y1385000D01*
X5055000Y4645000D02*
X5095000Y4605000D01*
X5095000Y4645000D02*
X5055000Y4605000D01*
X5055000Y4095000D02*
X5095000Y4055000D01*
X5095000Y4095000D02*
X5055000Y4055000D01*
X5055000Y3845000D02*
X5095000Y3805000D01*
X5095000Y3845000D02*
X5055000Y3805000D01*
X5055000Y3545000D02*
X5095000Y3505000D01*
X5095000Y3545000D02*
X5055000Y3505000D01*
X5055000Y3170000D02*
X5095000Y3130000D01*
X5095000Y3170000D02*
X5055000Y3130000D01*
X5180000Y1145000D02*
X5220000Y1105000D01*
X5220000Y1145000D02*
X5180000Y1105000D01*
X5180000Y795000D02*
X5220000Y755000D01*
X5220000Y795000D02*
X5180000Y755000D01*
X5180000Y645000D02*
X5220000Y605000D01*
X5220000Y645000D02*
X5180000Y605000D01*
X5230000Y4470000D02*
X5270000Y4430000D01*
X5270000Y4470000D02*
X5230000Y4430000D01*
X5260000Y430000D02*
X5300000Y390000D01*
X5300000Y430000D02*
X5260000Y390000D01*
X5280000Y3845000D02*
X5320000Y3805000D01*
X5320000Y3845000D02*
X5280000Y3805000D01*
X5280000Y3545000D02*
X5320000Y3505000D01*
X5320000Y3545000D02*
X5280000Y3505000D01*
X5280000Y3170000D02*
X5320000Y3130000D01*
X5320000Y3170000D02*
X5280000Y3130000D01*
X5355000Y4920000D02*
X5395000Y4880000D01*
X5395000Y4920000D02*
X5355000Y4880000D01*
X5355000Y4620000D02*
X5395000Y4580000D01*
X5395000Y4620000D02*
X5355000Y4580000D01*
X5355000Y4370000D02*
X5395000Y4330000D01*
X5395000Y4370000D02*
X5355000Y4330000D01*
X5380000Y795000D02*
X5420000Y755000D01*
X5420000Y795000D02*
X5380000Y755000D01*
X5380000Y645000D02*
X5420000Y605000D01*
X5420000Y645000D02*
X5380000Y605000D01*
X5480000Y4045000D02*
X5520000Y4005000D01*
X5520000Y4045000D02*
X5480000Y4005000D01*
X5605000Y4570000D02*
X5645000Y4530000D01*
X5645000Y4570000D02*
X5605000Y4530000D01*
X5605000Y4370000D02*
X5645000Y4330000D01*
X5645000Y4370000D02*
X5605000Y4330000D01*
X5605000Y4170000D02*
X5645000Y4130000D01*
X5645000Y4170000D02*
X5605000Y4130000D01*
X5605000Y3770000D02*
X5645000Y3730000D01*
X5645000Y3770000D02*
X5605000Y3730000D01*
X5605000Y3245000D02*
X5645000Y3205000D01*
X5645000Y3245000D02*
X5605000Y3205000D01*
X5630000Y5260000D02*
X5670000Y5220000D01*
X5670000Y5260000D02*
X5630000Y5220000D01*
X5630000Y5120000D02*
X5670000Y5080000D01*
X5670000Y5120000D02*
X5630000Y5080000D01*
X5630000Y4970000D02*
X5670000Y4930000D01*
X5670000Y4970000D02*
X5630000Y4930000D01*
X5630000Y4770000D02*
X5670000Y4730000D01*
X5670000Y4770000D02*
X5630000Y4730000D01*
X5655000Y3120000D02*
X5695000Y3080000D01*
X5695000Y3120000D02*
X5655000Y3080000D01*
X5730000Y4820000D02*
X5770000Y4780000D01*
X5770000Y4820000D02*
X5730000Y4780000D01*
X5780000Y3370000D02*
X5820000Y3330000D01*
X5820000Y3370000D02*
X5780000Y3330000D01*
X5855000Y3770000D02*
X5895000Y3730000D01*
X5895000Y3770000D02*
X5855000Y3730000D01*
X5905000Y3170000D02*
X5945000Y3130000D01*
X5945000Y3170000D02*
X5905000Y3130000D01*
X5930000Y1270000D02*
X5970000Y1230000D01*
X5970000Y1270000D02*
X5930000Y1230000D01*
X5970000Y2245000D02*
X6010000Y2205000D01*
X6010000Y2245000D02*
X5970000Y2205000D01*
X6057500Y3912500D02*
X6097500Y3872500D01*
X6097500Y3912500D02*
X6057500Y3872500D01*
X6192500Y3307500D02*
X6232500Y3267500D01*
X6232500Y3307500D02*
X6192500Y3267500D01*
X6205000Y4770000D02*
X6245000Y4730000D01*
X6245000Y4770000D02*
X6205000Y4730000D01*
X6205000Y4570000D02*
X6245000Y4530000D01*
X6245000Y4570000D02*
X6205000Y4530000D01*
X6205000Y4370000D02*
X6245000Y4330000D01*
X6245000Y4370000D02*
X6205000Y4330000D01*
X6205000Y4170000D02*
X6245000Y4130000D01*
X6245000Y4170000D02*
X6205000Y4130000D01*
X6205000Y3920000D02*
X6245000Y3880000D01*
X6245000Y3920000D02*
X6205000Y3880000D01*
X6255000Y5245000D02*
X6295000Y5205000D01*
X6295000Y5245000D02*
X6255000Y5205000D01*
X6255000Y5120000D02*
X6295000Y5080000D01*
X6295000Y5120000D02*
X6255000Y5080000D01*
X6255000Y4970000D02*
X6295000Y4930000D01*
X6295000Y4970000D02*
X6255000Y4930000D01*
X6302500Y970000D02*
X6342500Y930000D01*
X6342500Y970000D02*
X6302500Y930000D01*
X6305000Y1520000D02*
X6345000Y1480000D01*
X6345000Y1520000D02*
X6305000Y1480000D01*
X6380000Y430000D02*
X6420000Y390000D01*
X6420000Y430000D02*
X6380000Y390000D01*
X6390000Y2382500D02*
X6430000Y2342500D01*
X6430000Y2382500D02*
X6390000Y2342500D01*
X6392500Y3307500D02*
X6432500Y3267500D01*
X6432500Y3307500D02*
X6392500Y3267500D01*
X6407500Y970000D02*
X6447500Y930000D01*
X6447500Y970000D02*
X6407500Y930000D01*
X6455000Y1520000D02*
X6495000Y1480000D01*
X6495000Y1520000D02*
X6455000Y1480000D01*
X6505000Y2945000D02*
X6545000Y2905000D01*
X6545000Y2945000D02*
X6505000Y2905000D01*
X6555000Y5245000D02*
X6595000Y5205000D01*
X6595000Y5245000D02*
X6555000Y5205000D01*
X6555000Y4970000D02*
X6595000Y4930000D01*
X6595000Y4970000D02*
X6555000Y4930000D01*
X6605000Y1520000D02*
X6645000Y1480000D01*
X6645000Y1520000D02*
X6605000Y1480000D01*
X6650000Y600000D02*
X6690000Y560000D01*
X6690000Y600000D02*
X6650000Y560000D01*
X6775000Y690000D02*
X6815000Y650000D01*
X6815000Y690000D02*
X6775000Y650000D01*
X6785000Y2117500D02*
X6825000Y2077500D01*
X6825000Y2117500D02*
X6785000Y2077500D01*
X6832500Y4767500D02*
X6872500Y4727500D01*
X6872500Y4767500D02*
X6832500Y4727500D01*
X6855000Y4620000D02*
X6895000Y4580000D01*
X6895000Y4620000D02*
X6855000Y4580000D01*
X6855000Y4470000D02*
X6895000Y4430000D01*
X6895000Y4470000D02*
X6855000Y4430000D01*
X6877500Y3817500D02*
X6917500Y3777500D01*
X6917500Y3817500D02*
X6877500Y3777500D01*
X6905000Y1097500D02*
X6945000Y1057500D01*
X6945000Y1097500D02*
X6905000Y1057500D01*
X6905000Y992500D02*
X6945000Y952500D01*
X6945000Y992500D02*
X6905000Y952500D01*
X6955000Y3420000D02*
X6995000Y3380000D01*
X6995000Y3420000D02*
X6955000Y3380000D01*
X7030000Y1417500D02*
X7070000Y1377500D01*
X7070000Y1417500D02*
X7030000Y1377500D01*
X7055000Y4770000D02*
X7095000Y4730000D01*
X7095000Y4770000D02*
X7055000Y4730000D01*
X7055000Y3820000D02*
X7095000Y3780000D01*
X7095000Y3820000D02*
X7055000Y3780000D01*
X7055000Y3145000D02*
X7095000Y3105000D01*
X7095000Y3145000D02*
X7055000Y3105000D01*
X7055000Y2120000D02*
X7095000Y2080000D01*
X7095000Y2120000D02*
X7055000Y2080000D01*
X7055000Y495000D02*
X7095000Y455000D01*
X7095000Y495000D02*
X7055000Y455000D01*
X7055000Y320000D02*
X7095000Y280000D01*
X7095000Y320000D02*
X7055000Y280000D01*
X7105000Y5245000D02*
X7145000Y5205000D01*
X7145000Y5245000D02*
X7105000Y5205000D01*
X7105000Y5120000D02*
X7145000Y5080000D01*
X7145000Y5120000D02*
X7105000Y5080000D01*
X7105000Y4945000D02*
X7145000Y4905000D01*
X7145000Y4945000D02*
X7105000Y4905000D01*
X7130000Y4470000D02*
X7170000Y4430000D01*
X7170000Y4470000D02*
X7130000Y4430000D01*
X7135000Y2035000D02*
X7175000Y1995000D01*
X7175000Y2035000D02*
X7135000Y1995000D01*
X7147500Y1930000D02*
X7187500Y1890000D01*
X7187500Y1930000D02*
X7147500Y1890000D01*
X7155000Y1470000D02*
X7195000Y1430000D01*
X7195000Y1470000D02*
X7155000Y1430000D01*
X7205000Y3820000D02*
X7245000Y3780000D01*
X7245000Y3820000D02*
X7205000Y3780000D01*
X7255000Y3170000D02*
X7295000Y3130000D01*
X7295000Y3170000D02*
X7255000Y3130000D01*
X7255000Y1925000D02*
X7295000Y1885000D01*
X7295000Y1925000D02*
X7255000Y1885000D01*
X7285000Y1520000D02*
X7325000Y1480000D01*
X7325000Y1520000D02*
X7285000Y1480000D01*
X7380000Y5245000D02*
X7420000Y5205000D01*
X7420000Y5245000D02*
X7380000Y5205000D01*
X7395000Y1575000D02*
X7435000Y1535000D01*
X7435000Y1575000D02*
X7395000Y1535000D01*
X7405000Y3020000D02*
X7445000Y2980000D01*
X7445000Y3020000D02*
X7405000Y2980000D01*
X7425000Y1750000D02*
X7465000Y1710000D01*
X7465000Y1750000D02*
X7425000Y1710000D01*
X7605000Y4425000D02*
X7645000Y4385000D01*
X7645000Y4425000D02*
X7605000Y4385000D01*
X7605000Y3320000D02*
X7645000Y3280000D01*
X7645000Y3320000D02*
X7605000Y3280000D01*
X7605000Y872500D02*
X7645000Y832500D01*
X7645000Y872500D02*
X7605000Y832500D01*
X7605000Y767500D02*
X7645000Y727500D01*
X7645000Y767500D02*
X7605000Y727500D01*
X7680000Y2698500D02*
X7720000Y2658500D01*
X7720000Y2698500D02*
X7680000Y2658500D01*
X7680000Y2593500D02*
X7720000Y2553500D01*
X7720000Y2593500D02*
X7680000Y2553500D01*
X7755000Y5245000D02*
X7795000Y5205000D01*
X7795000Y5245000D02*
X7755000Y5205000D01*
X7755000Y3045000D02*
X7795000Y3005000D01*
X7795000Y3045000D02*
X7755000Y3005000D01*
X7755000Y2845000D02*
X7795000Y2805000D01*
X7795000Y2845000D02*
X7755000Y2805000D01*
X7805000Y2503500D02*
X7845000Y2463500D01*
X7845000Y2503500D02*
X7805000Y2463500D01*
X7805000Y2398500D02*
X7845000Y2358500D01*
X7845000Y2398500D02*
X7805000Y2358500D01*
X7810000Y1898500D02*
X7850000Y1858500D01*
X7850000Y1898500D02*
X7810000Y1858500D01*
X7810000Y1793500D02*
X7850000Y1753500D01*
X7850000Y1793500D02*
X7810000Y1753500D01*
X7830000Y4420000D02*
X7870000Y4380000D01*
X7870000Y4420000D02*
X7830000Y4380000D01*
X7830000Y3320000D02*
X7870000Y3280000D01*
X7870000Y3320000D02*
X7830000Y3280000D01*
X7855000Y702500D02*
X7895000Y662500D01*
X7895000Y702500D02*
X7855000Y662500D01*
X8030000Y2295000D02*
X8070000Y2255000D01*
X8070000Y2295000D02*
X8030000Y2255000D01*
X8080000Y4420000D02*
X8120000Y4380000D01*
X8120000Y4420000D02*
X8080000Y4380000D01*
X8080000Y3320000D02*
X8120000Y3280000D01*
X8120000Y3320000D02*
X8080000Y3280000D01*
X8130000Y2195000D02*
X8170000Y2155000D01*
X8170000Y2195000D02*
X8130000Y2155000D01*
X8305000Y4420000D02*
X8345000Y4380000D01*
X8345000Y4420000D02*
X8305000Y4380000D01*
X8305000Y3245000D02*
X8345000Y3205000D01*
X8345000Y3245000D02*
X8305000Y3205000D01*
X135000Y5050000D02*
G75*
G02*
X85000Y5050000I-25000J0D01*
G01*
X85000Y5050000D02*
G75*
G02*
X135000Y5050000I25000J0D01*
G01*
X135000Y350000D02*
G75*
G02*
X85000Y350000I-25000J0D01*
G01*
X85000Y350000D02*
G75*
G02*
X135000Y350000I25000J0D01*
G01*
X205294Y5219706D02*
G75*
G02*
X155294Y5219706I-25000J0D01*
G01*
X155294Y5219706D02*
G75*
G02*
X205294Y5219706I25000J0D01*
G01*
X205294Y4880294D02*
G75*
G02*
X155294Y4880294I-25000J0D01*
G01*
X155294Y4880294D02*
G75*
G02*
X205294Y4880294I25000J0D01*
G01*
X205294Y519706D02*
G75*
G02*
X155294Y519706I-25000J0D01*
G01*
X155294Y519706D02*
G75*
G02*
X205294Y519706I25000J0D01*
G01*
X205294Y180294D02*
G75*
G02*
X155294Y180294I-25000J0D01*
G01*
X155294Y180294D02*
G75*
G02*
X205294Y180294I25000J0D01*
G01*
X375000Y5290000D02*
G75*
G02*
X325000Y5290000I-25000J0D01*
G01*
X325000Y5290000D02*
G75*
G02*
X375000Y5290000I25000J0D01*
G01*
X375000Y4810000D02*
G75*
G02*
X325000Y4810000I-25000J0D01*
G01*
X325000Y4810000D02*
G75*
G02*
X375000Y4810000I25000J0D01*
G01*
X375000Y590000D02*
G75*
G02*
X325000Y590000I-25000J0D01*
G01*
X325000Y590000D02*
G75*
G02*
X375000Y590000I25000J0D01*
G01*
X375000Y110000D02*
G75*
G02*
X325000Y110000I-25000J0D01*
G01*
X325000Y110000D02*
G75*
G02*
X375000Y110000I25000J0D01*
G01*
X544706Y5219706D02*
G75*
G02*
X494706Y5219706I-25000J0D01*
G01*
X494706Y5219706D02*
G75*
G02*
X544706Y5219706I25000J0D01*
G01*
X544706Y4880294D02*
G75*
G02*
X494706Y4880294I-25000J0D01*
G01*
X494706Y4880294D02*
G75*
G02*
X544706Y4880294I25000J0D01*
G01*
X544706Y519706D02*
G75*
G02*
X494706Y519706I-25000J0D01*
G01*
X494706Y519706D02*
G75*
G02*
X544706Y519706I25000J0D01*
G01*
X544706Y180294D02*
G75*
G02*
X494706Y180294I-25000J0D01*
G01*
X494706Y180294D02*
G75*
G02*
X544706Y180294I25000J0D01*
G01*
X615000Y5050000D02*
G75*
G02*
X565000Y5050000I-25000J0D01*
G01*
X565000Y5050000D02*
G75*
G02*
X615000Y5050000I25000J0D01*
G01*
X615000Y350000D02*
G75*
G02*
X565000Y350000I-25000J0D01*
G01*
X565000Y350000D02*
G75*
G02*
X615000Y350000I25000J0D01*
G01*
X7985000Y350000D02*
G75*
G02*
X7935000Y350000I-25000J0D01*
G01*
X7935000Y350000D02*
G75*
G02*
X7985000Y350000I25000J0D01*
G01*
X7990294Y5055294D02*
G75*
G02*
X7940294Y5055294I-25000J0D01*
G01*
X7940294Y5055294D02*
G75*
G02*
X7990294Y5055294I25000J0D01*
G01*
X8055294Y519706D02*
G75*
G02*
X8005294Y519706I-25000J0D01*
G01*
X8005294Y519706D02*
G75*
G02*
X8055294Y519706I25000J0D01*
G01*
X8055294Y180294D02*
G75*
G02*
X8005294Y180294I-25000J0D01*
G01*
X8005294Y180294D02*
G75*
G02*
X8055294Y180294I25000J0D01*
G01*
X8060589Y5225000D02*
G75*
G02*
X8010589Y5225000I-25000J0D01*
G01*
X8010589Y5225000D02*
G75*
G02*
X8060589Y5225000I25000J0D01*
G01*
X8060589Y4885589D02*
G75*
G02*
X8010589Y4885589I-25000J0D01*
G01*
X8010589Y4885589D02*
G75*
G02*
X8060589Y4885589I25000J0D01*
G01*
X8225000Y590000D02*
G75*
G02*
X8175000Y590000I-25000J0D01*
G01*
X8175000Y590000D02*
G75*
G02*
X8225000Y590000I25000J0D01*
G01*
X8225000Y110000D02*
G75*
G02*
X8175000Y110000I-25000J0D01*
G01*
X8175000Y110000D02*
G75*
G02*
X8225000Y110000I25000J0D01*
G01*
X8230294Y5295294D02*
G75*
G02*
X8180294Y5295294I-25000J0D01*
G01*
X8180294Y5295294D02*
G75*
G02*
X8230294Y5295294I25000J0D01*
G01*
X8230294Y4815294D02*
G75*
G02*
X8180294Y4815294I-25000J0D01*
G01*
X8180294Y4815294D02*
G75*
G02*
X8230294Y4815294I25000J0D01*
G01*
X8394706Y519706D02*
G75*
G02*
X8344706Y519706I-25000J0D01*
G01*
X8344706Y519706D02*
G75*
G02*
X8394706Y519706I25000J0D01*
G01*
X8394706Y180294D02*
G75*
G02*
X8344706Y180294I-25000J0D01*
G01*
X8344706Y180294D02*
G75*
G02*
X8394706Y180294I25000J0D01*
G01*
X8400000Y5225000D02*
G75*
G02*
X8350000Y5225000I-25000J0D01*
G01*
X8350000Y5225000D02*
G75*
G02*
X8400000Y5225000I25000J0D01*
G01*
X8400000Y4885589D02*
G75*
G02*
X8350000Y4885589I-25000J0D01*
G01*
X8350000Y4885589D02*
G75*
G02*
X8400000Y4885589I25000J0D01*
G01*
X8465000Y350000D02*
G75*
G02*
X8415000Y350000I-25000J0D01*
G01*
X8415000Y350000D02*
G75*
G02*
X8465000Y350000I25000J0D01*
G01*
X8470294Y5055294D02*
G75*
G02*
X8420294Y5055294I-25000J0D01*
G01*
X8420294Y5055294D02*
G75*
G02*
X8470294Y5055294I25000J0D01*
G01*
X1022500Y5033000D02*
X1022500Y4933000D01*
X972500Y4983000D02*
X1072500Y4983000D01*
X1022500Y2750000D02*
X1022500Y2650000D01*
X972500Y2700000D02*
X1072500Y2700000D01*
X1022500Y467000D02*
X1022500Y367000D01*
X972500Y417000D02*
X1072500Y417000D01*
X1025000Y4528000D02*
X1025000Y4428000D01*
X975000Y4478000D02*
X1075000Y4478000D01*
X1025000Y4274000D02*
X1025000Y4174000D01*
X975000Y4224000D02*
X1075000Y4224000D01*
X1025000Y4020000D02*
X1025000Y3920000D01*
X975000Y3970000D02*
X1075000Y3970000D01*
X1025000Y3766000D02*
X1025000Y3666000D01*
X975000Y3716000D02*
X1075000Y3716000D01*
X1025000Y3512000D02*
X1025000Y3412000D01*
X975000Y3462000D02*
X1075000Y3462000D01*
X1025000Y3258000D02*
X1025000Y3158000D01*
X975000Y3208000D02*
X1075000Y3208000D01*
X1025000Y2242000D02*
X1025000Y2142000D01*
X975000Y2192000D02*
X1075000Y2192000D01*
X1025000Y1988000D02*
X1025000Y1888000D01*
X975000Y1938000D02*
X1075000Y1938000D01*
X1025000Y1734000D02*
X1025000Y1634000D01*
X975000Y1684000D02*
X1075000Y1684000D01*
X1025000Y1480000D02*
X1025000Y1380000D01*
X975000Y1430000D02*
X1075000Y1430000D01*
X1025000Y1226000D02*
X1025000Y1126000D01*
X975000Y1176000D02*
X1075000Y1176000D01*
X1025000Y972000D02*
X1025000Y872000D01*
X975000Y922000D02*
X1075000Y922000D01*
X1276500Y5033000D02*
X1276500Y4933000D01*
X1226500Y4983000D02*
X1326500Y4983000D01*
X1276500Y2750000D02*
X1276500Y2650000D01*
X1226500Y2700000D02*
X1326500Y2700000D01*
X1276500Y467000D02*
X1276500Y367000D01*
X1226500Y417000D02*
X1326500Y417000D01*
X1279000Y4528000D02*
X1279000Y4428000D01*
X1229000Y4478000D02*
X1329000Y4478000D01*
X1279000Y4274000D02*
X1279000Y4174000D01*
X1229000Y4224000D02*
X1329000Y4224000D01*
X1279000Y4020000D02*
X1279000Y3920000D01*
X1229000Y3970000D02*
X1329000Y3970000D01*
X1279000Y3766000D02*
X1279000Y3666000D01*
X1229000Y3716000D02*
X1329000Y3716000D01*
X1279000Y3512000D02*
X1279000Y3412000D01*
X1229000Y3462000D02*
X1329000Y3462000D01*
X1279000Y3258000D02*
X1279000Y3158000D01*
X1229000Y3208000D02*
X1329000Y3208000D01*
X1279000Y2242000D02*
X1279000Y2142000D01*
X1229000Y2192000D02*
X1329000Y2192000D01*
X1279000Y1988000D02*
X1279000Y1888000D01*
X1229000Y1938000D02*
X1329000Y1938000D01*
X1279000Y1734000D02*
X1279000Y1634000D01*
X1229000Y1684000D02*
X1329000Y1684000D01*
X1279000Y1480000D02*
X1279000Y1380000D01*
X1229000Y1430000D02*
X1329000Y1430000D01*
X1279000Y1226000D02*
X1279000Y1126000D01*
X1229000Y1176000D02*
X1329000Y1176000D01*
X1279000Y972000D02*
X1279000Y872000D01*
X1229000Y922000D02*
X1329000Y922000D01*
X4670000Y5175000D02*
X4670000Y5075000D01*
X4620000Y5125000D02*
X4720000Y5125000D01*
X4924000Y5175000D02*
X4924000Y5075000D01*
X4874000Y5125000D02*
X4974000Y5125000D01*
X5178000Y5175000D02*
X5178000Y5075000D01*
X5128000Y5125000D02*
X5228000Y5125000D01*
X5432000Y5175000D02*
X5432000Y5075000D01*
X5382000Y5125000D02*
X5482000Y5125000D01*
D12*
X8395812Y2694188D02*
X8395812Y2815812D01*
X8274188Y2815812D01*
X8274188Y2694188D01*
X8395812Y2694188D01*
X8395812Y1434188D02*
X8395812Y1555812D01*
X8274188Y1555812D01*
X8274188Y1434188D01*
X8395812Y1434188D01*
D13*
X350000Y4890000D02*
X510000Y5050000D01*
X350000Y5210000D01*
X190000Y5050000D01*
X350000Y4890000D01*
X350000Y190000D02*
X510000Y350000D01*
X350000Y510000D01*
X190000Y350000D01*
X350000Y190000D01*
X8200000Y190000D02*
X8360000Y350000D01*
X8200000Y510000D01*
X8040000Y350000D01*
X8200000Y190000D01*
X8205294Y4895294D02*
X8365294Y5055294D01*
X8205294Y5215294D01*
X8045294Y5055294D01*
X8205294Y4895294D01*
D11*
X255777Y-316484D02*
X255777Y-116484D01*
X255777Y-116484D02*
X303396Y-116484D01*
X303396Y-116484D02*
X331967Y-126008D01*
X331967Y-126008D02*
X351015Y-145055D01*
X351015Y-145055D02*
X360539Y-164103D01*
X360539Y-164103D02*
X370062Y-202198D01*
X370062Y-202198D02*
X370062Y-230769D01*
X370062Y-230769D02*
X360539Y-268865D01*
X360539Y-268865D02*
X351015Y-287912D01*
X351015Y-287912D02*
X331967Y-306960D01*
X331967Y-306960D02*
X303396Y-316484D01*
X303396Y-316484D02*
X255777Y-316484D01*
X455777Y-316484D02*
X455777Y-183150D01*
X455777Y-221246D02*
X465301Y-202198D01*
X465301Y-202198D02*
X474824Y-192674D01*
X474824Y-192674D02*
X493872Y-183150D01*
X493872Y-183150D02*
X512920Y-183150D01*
X579586Y-316484D02*
X579586Y-183150D01*
X579586Y-116484D02*
X570063Y-126008D01*
X570063Y-126008D02*
X579586Y-135531D01*
X579586Y-135531D02*
X589110Y-126008D01*
X589110Y-126008D02*
X579586Y-116484D01*
X579586Y-116484D02*
X579586Y-135531D01*
X703396Y-316484D02*
X684348Y-306960D01*
X684348Y-306960D02*
X674824Y-287912D01*
X674824Y-287912D02*
X674824Y-116484D01*
X808158Y-316484D02*
X789110Y-306960D01*
X789110Y-306960D02*
X779586Y-287912D01*
X779586Y-287912D02*
X779586Y-116484D01*
X1036729Y-316484D02*
X1036729Y-116484D01*
X1036729Y-116484D02*
X1103396Y-259341D01*
X1103396Y-259341D02*
X1170063Y-116484D01*
X1170063Y-116484D02*
X1170063Y-316484D01*
X1351015Y-316484D02*
X1351015Y-211722D01*
X1351015Y-211722D02*
X1341491Y-192674D01*
X1341491Y-192674D02*
X1322444Y-183150D01*
X1322444Y-183150D02*
X1284348Y-183150D01*
X1284348Y-183150D02*
X1265301Y-192674D01*
X1351015Y-306960D02*
X1331967Y-316484D01*
X1331967Y-316484D02*
X1284348Y-316484D01*
X1284348Y-316484D02*
X1265301Y-306960D01*
X1265301Y-306960D02*
X1255777Y-287912D01*
X1255777Y-287912D02*
X1255777Y-268865D01*
X1255777Y-268865D02*
X1265301Y-249817D01*
X1265301Y-249817D02*
X1284348Y-240293D01*
X1284348Y-240293D02*
X1331967Y-240293D01*
X1331967Y-240293D02*
X1351015Y-230769D01*
X1446253Y-183150D02*
X1446253Y-383150D01*
X1446253Y-192674D02*
X1465301Y-183150D01*
X1465301Y-183150D02*
X1503396Y-183150D01*
X1503396Y-183150D02*
X1522443Y-192674D01*
X1522443Y-192674D02*
X1531967Y-202198D01*
X1531967Y-202198D02*
X1541491Y-221246D01*
X1541491Y-221246D02*
X1541491Y-278389D01*
X1541491Y-278389D02*
X1531967Y-297436D01*
X1531967Y-297436D02*
X1522443Y-306960D01*
X1522443Y-306960D02*
X1503396Y-316484D01*
X1503396Y-316484D02*
X1465301Y-316484D01*
X1465301Y-316484D02*
X1446253Y-306960D01*
X1627205Y-297436D02*
X1636729Y-306960D01*
X1636729Y-306960D02*
X1627205Y-316484D01*
X1627205Y-316484D02*
X1617682Y-306960D01*
X1617682Y-306960D02*
X1627205Y-297436D01*
X1627205Y-297436D02*
X1627205Y-316484D01*
X1627205Y-192674D02*
X1636729Y-202198D01*
X1636729Y-202198D02*
X1627205Y-211722D01*
X1627205Y-211722D02*
X1617682Y-202198D01*
X1617682Y-202198D02*
X1627205Y-192674D01*
X1627205Y-192674D02*
X1627205Y-211722D01*
D10*
X-45000Y-625000D02*
X-5000Y-665000D01*
X-5000Y-625000D02*
X-45000Y-665000D01*
D11*
X293872Y-536484D02*
X312920Y-536484D01*
X312920Y-536484D02*
X331967Y-546008D01*
X331967Y-546008D02*
X341491Y-555531D01*
X341491Y-555531D02*
X351015Y-574579D01*
X351015Y-574579D02*
X360539Y-612674D01*
X360539Y-612674D02*
X360539Y-660293D01*
X360539Y-660293D02*
X351015Y-698389D01*
X351015Y-698389D02*
X341491Y-717436D01*
X341491Y-717436D02*
X331967Y-726960D01*
X331967Y-726960D02*
X312920Y-736484D01*
X312920Y-736484D02*
X293872Y-736484D01*
X293872Y-736484D02*
X274824Y-726960D01*
X274824Y-726960D02*
X265301Y-717436D01*
X265301Y-717436D02*
X255777Y-698389D01*
X255777Y-698389D02*
X246253Y-660293D01*
X246253Y-660293D02*
X246253Y-612674D01*
X246253Y-612674D02*
X255777Y-574579D01*
X255777Y-574579D02*
X265301Y-555531D01*
X265301Y-555531D02*
X274824Y-546008D01*
X274824Y-546008D02*
X293872Y-536484D01*
X446253Y-717436D02*
X455777Y-726960D01*
X455777Y-726960D02*
X446253Y-736484D01*
X446253Y-736484D02*
X436729Y-726960D01*
X436729Y-726960D02*
X446253Y-717436D01*
X446253Y-717436D02*
X446253Y-736484D01*
X627205Y-603150D02*
X627205Y-736484D01*
X579586Y-526960D02*
X531967Y-669817D01*
X531967Y-669817D02*
X655777Y-669817D01*
X770062Y-536484D02*
X789110Y-536484D01*
X789110Y-536484D02*
X808158Y-546008D01*
X808158Y-546008D02*
X817682Y-555531D01*
X817682Y-555531D02*
X827205Y-574579D01*
X827205Y-574579D02*
X836729Y-612674D01*
X836729Y-612674D02*
X836729Y-660293D01*
X836729Y-660293D02*
X827205Y-698389D01*
X827205Y-698389D02*
X817682Y-717436D01*
X817682Y-717436D02*
X808158Y-726960D01*
X808158Y-726960D02*
X789110Y-736484D01*
X789110Y-736484D02*
X770062Y-736484D01*
X770062Y-736484D02*
X751015Y-726960D01*
X751015Y-726960D02*
X741491Y-717436D01*
X741491Y-717436D02*
X731967Y-698389D01*
X731967Y-698389D02*
X722443Y-660293D01*
X722443Y-660293D02*
X722443Y-612674D01*
X722443Y-612674D02*
X731967Y-574579D01*
X731967Y-574579D02*
X741491Y-555531D01*
X741491Y-555531D02*
X751015Y-546008D01*
X751015Y-546008D02*
X770062Y-536484D01*
X960539Y-536484D02*
X979586Y-536484D01*
X979586Y-536484D02*
X998634Y-546008D01*
X998634Y-546008D02*
X1008158Y-555531D01*
X1008158Y-555531D02*
X1017682Y-574579D01*
X1017682Y-574579D02*
X1027205Y-612674D01*
X1027205Y-612674D02*
X1027205Y-660293D01*
X1027205Y-660293D02*
X1017682Y-698389D01*
X1017682Y-698389D02*
X1008158Y-717436D01*
X1008158Y-717436D02*
X998634Y-726960D01*
X998634Y-726960D02*
X979586Y-736484D01*
X979586Y-736484D02*
X960539Y-736484D01*
X960539Y-736484D02*
X941491Y-726960D01*
X941491Y-726960D02*
X931967Y-717436D01*
X931967Y-717436D02*
X922443Y-698389D01*
X922443Y-698389D02*
X912920Y-660293D01*
X912920Y-660293D02*
X912920Y-612674D01*
X912920Y-612674D02*
X922443Y-574579D01*
X922443Y-574579D02*
X931967Y-555531D01*
X931967Y-555531D02*
X941491Y-546008D01*
X941491Y-546008D02*
X960539Y-536484D01*
X1112920Y-736484D02*
X1112920Y-603150D01*
X1112920Y-622198D02*
X1122444Y-612674D01*
X1122444Y-612674D02*
X1141491Y-603150D01*
X1141491Y-603150D02*
X1170063Y-603150D01*
X1170063Y-603150D02*
X1189110Y-612674D01*
X1189110Y-612674D02*
X1198634Y-631722D01*
X1198634Y-631722D02*
X1198634Y-736484D01*
X1198634Y-631722D02*
X1208158Y-612674D01*
X1208158Y-612674D02*
X1227205Y-603150D01*
X1227205Y-603150D02*
X1255777Y-603150D01*
X1255777Y-603150D02*
X1274825Y-612674D01*
X1274825Y-612674D02*
X1284348Y-631722D01*
X1284348Y-631722D02*
X1284348Y-736484D01*
X1379586Y-736484D02*
X1379586Y-603150D01*
X1379586Y-622198D02*
X1389110Y-612674D01*
X1389110Y-612674D02*
X1408158Y-603150D01*
X1408158Y-603150D02*
X1436729Y-603150D01*
X1436729Y-603150D02*
X1455777Y-612674D01*
X1455777Y-612674D02*
X1465301Y-631722D01*
X1465301Y-631722D02*
X1465301Y-736484D01*
X1465301Y-631722D02*
X1474824Y-612674D01*
X1474824Y-612674D02*
X1493872Y-603150D01*
X1493872Y-603150D02*
X1522443Y-603150D01*
X1522443Y-603150D02*
X1541491Y-612674D01*
X1541491Y-612674D02*
X1551015Y-631722D01*
X1551015Y-631722D02*
X1551015Y-736484D01*
X1941491Y-526960D02*
X1770063Y-784103D01*
X2198634Y-536484D02*
X2217682Y-536484D01*
X2217682Y-536484D02*
X2236729Y-546008D01*
X2236729Y-546008D02*
X2246253Y-555531D01*
X2246253Y-555531D02*
X2255777Y-574579D01*
X2255777Y-574579D02*
X2265301Y-612674D01*
X2265301Y-612674D02*
X2265301Y-660293D01*
X2265301Y-660293D02*
X2255777Y-698389D01*
X2255777Y-698389D02*
X2246253Y-717436D01*
X2246253Y-717436D02*
X2236729Y-726960D01*
X2236729Y-726960D02*
X2217682Y-736484D01*
X2217682Y-736484D02*
X2198634Y-736484D01*
X2198634Y-736484D02*
X2179587Y-726960D01*
X2179587Y-726960D02*
X2170063Y-717436D01*
X2170063Y-717436D02*
X2160539Y-698389D01*
X2160539Y-698389D02*
X2151015Y-660293D01*
X2151015Y-660293D02*
X2151015Y-612674D01*
X2151015Y-612674D02*
X2160539Y-574579D01*
X2160539Y-574579D02*
X2170063Y-555531D01*
X2170063Y-555531D02*
X2179587Y-546008D01*
X2179587Y-546008D02*
X2198634Y-536484D01*
X2351015Y-717436D02*
X2360539Y-726960D01*
X2360539Y-726960D02*
X2351015Y-736484D01*
X2351015Y-736484D02*
X2341491Y-726960D01*
X2341491Y-726960D02*
X2351015Y-717436D01*
X2351015Y-717436D02*
X2351015Y-736484D01*
X2484348Y-536484D02*
X2503396Y-536484D01*
X2503396Y-536484D02*
X2522444Y-546008D01*
X2522444Y-546008D02*
X2531968Y-555531D01*
X2531968Y-555531D02*
X2541491Y-574579D01*
X2541491Y-574579D02*
X2551015Y-612674D01*
X2551015Y-612674D02*
X2551015Y-660293D01*
X2551015Y-660293D02*
X2541491Y-698389D01*
X2541491Y-698389D02*
X2531968Y-717436D01*
X2531968Y-717436D02*
X2522444Y-726960D01*
X2522444Y-726960D02*
X2503396Y-736484D01*
X2503396Y-736484D02*
X2484348Y-736484D01*
X2484348Y-736484D02*
X2465301Y-726960D01*
X2465301Y-726960D02*
X2455777Y-717436D01*
X2455777Y-717436D02*
X2446253Y-698389D01*
X2446253Y-698389D02*
X2436729Y-660293D01*
X2436729Y-660293D02*
X2436729Y-612674D01*
X2436729Y-612674D02*
X2446253Y-574579D01*
X2446253Y-574579D02*
X2455777Y-555531D01*
X2455777Y-555531D02*
X2465301Y-546008D01*
X2465301Y-546008D02*
X2484348Y-536484D01*
X2741491Y-736484D02*
X2627206Y-736484D01*
X2684348Y-736484D02*
X2684348Y-536484D01*
X2684348Y-536484D02*
X2665301Y-565055D01*
X2665301Y-565055D02*
X2646253Y-584103D01*
X2646253Y-584103D02*
X2627206Y-593627D01*
X2922444Y-536484D02*
X2827206Y-536484D01*
X2827206Y-536484D02*
X2817682Y-631722D01*
X2817682Y-631722D02*
X2827206Y-622198D01*
X2827206Y-622198D02*
X2846253Y-612674D01*
X2846253Y-612674D02*
X2893872Y-612674D01*
X2893872Y-612674D02*
X2912920Y-622198D01*
X2912920Y-622198D02*
X2922444Y-631722D01*
X2922444Y-631722D02*
X2931967Y-650770D01*
X2931967Y-650770D02*
X2931967Y-698389D01*
X2931967Y-698389D02*
X2922444Y-717436D01*
X2922444Y-717436D02*
X2912920Y-726960D01*
X2912920Y-726960D02*
X2893872Y-736484D01*
X2893872Y-736484D02*
X2846253Y-736484D01*
X2846253Y-736484D02*
X2827206Y-726960D01*
X2827206Y-726960D02*
X2817682Y-717436D01*
X2998634Y-536484D02*
X3131967Y-536484D01*
X3131967Y-536484D02*
X3046253Y-736484D01*
X3198634Y-536484D02*
X3198634Y-574579D01*
X3274825Y-536484D02*
X3274825Y-574579D01*
X3570063Y-812674D02*
X3560539Y-803150D01*
X3560539Y-803150D02*
X3541491Y-774579D01*
X3541491Y-774579D02*
X3531968Y-755531D01*
X3531968Y-755531D02*
X3522444Y-726960D01*
X3522444Y-726960D02*
X3512920Y-679341D01*
X3512920Y-679341D02*
X3512920Y-641246D01*
X3512920Y-641246D02*
X3522444Y-593627D01*
X3522444Y-593627D02*
X3531968Y-565055D01*
X3531968Y-565055D02*
X3541491Y-546008D01*
X3541491Y-546008D02*
X3560539Y-517436D01*
X3560539Y-517436D02*
X3570063Y-507912D01*
X3751015Y-736484D02*
X3636729Y-736484D01*
X3693872Y-736484D02*
X3693872Y-536484D01*
X3693872Y-536484D02*
X3674825Y-565055D01*
X3674825Y-565055D02*
X3655777Y-584103D01*
X3655777Y-584103D02*
X3636729Y-593627D01*
X3817682Y-536484D02*
X3951015Y-536484D01*
X3951015Y-536484D02*
X3865301Y-736484D01*
X4008158Y-536484D02*
X4141491Y-536484D01*
X4141491Y-536484D02*
X4055777Y-736484D01*
X4370063Y-736484D02*
X4370063Y-536484D01*
X4455777Y-736484D02*
X4455777Y-631722D01*
X4455777Y-631722D02*
X4446253Y-612674D01*
X4446253Y-612674D02*
X4427206Y-603150D01*
X4427206Y-603150D02*
X4398634Y-603150D01*
X4398634Y-603150D02*
X4379587Y-612674D01*
X4379587Y-612674D02*
X4370063Y-622198D01*
X4579587Y-736484D02*
X4560539Y-726960D01*
X4560539Y-726960D02*
X4551015Y-717436D01*
X4551015Y-717436D02*
X4541492Y-698389D01*
X4541492Y-698389D02*
X4541492Y-641246D01*
X4541492Y-641246D02*
X4551015Y-622198D01*
X4551015Y-622198D02*
X4560539Y-612674D01*
X4560539Y-612674D02*
X4579587Y-603150D01*
X4579587Y-603150D02*
X4608158Y-603150D01*
X4608158Y-603150D02*
X4627206Y-612674D01*
X4627206Y-612674D02*
X4636730Y-622198D01*
X4636730Y-622198D02*
X4646253Y-641246D01*
X4646253Y-641246D02*
X4646253Y-698389D01*
X4646253Y-698389D02*
X4636730Y-717436D01*
X4636730Y-717436D02*
X4627206Y-726960D01*
X4627206Y-726960D02*
X4608158Y-736484D01*
X4608158Y-736484D02*
X4579587Y-736484D01*
X4760539Y-736484D02*
X4741492Y-726960D01*
X4741492Y-726960D02*
X4731968Y-707912D01*
X4731968Y-707912D02*
X4731968Y-536484D01*
X4912920Y-726960D02*
X4893873Y-736484D01*
X4893873Y-736484D02*
X4855777Y-736484D01*
X4855777Y-736484D02*
X4836730Y-726960D01*
X4836730Y-726960D02*
X4827206Y-707912D01*
X4827206Y-707912D02*
X4827206Y-631722D01*
X4827206Y-631722D02*
X4836730Y-612674D01*
X4836730Y-612674D02*
X4855777Y-603150D01*
X4855777Y-603150D02*
X4893873Y-603150D01*
X4893873Y-603150D02*
X4912920Y-612674D01*
X4912920Y-612674D02*
X4922444Y-631722D01*
X4922444Y-631722D02*
X4922444Y-650770D01*
X4922444Y-650770D02*
X4827206Y-669817D01*
X4998634Y-726960D02*
X5017682Y-736484D01*
X5017682Y-736484D02*
X5055777Y-736484D01*
X5055777Y-736484D02*
X5074825Y-726960D01*
X5074825Y-726960D02*
X5084349Y-707912D01*
X5084349Y-707912D02*
X5084349Y-698389D01*
X5084349Y-698389D02*
X5074825Y-679341D01*
X5074825Y-679341D02*
X5055777Y-669817D01*
X5055777Y-669817D02*
X5027206Y-669817D01*
X5027206Y-669817D02*
X5008158Y-660293D01*
X5008158Y-660293D02*
X4998634Y-641246D01*
X4998634Y-641246D02*
X4998634Y-631722D01*
X4998634Y-631722D02*
X5008158Y-612674D01*
X5008158Y-612674D02*
X5027206Y-603150D01*
X5027206Y-603150D02*
X5055777Y-603150D01*
X5055777Y-603150D02*
X5074825Y-612674D01*
X5151015Y-812674D02*
X5160539Y-803150D01*
X5160539Y-803150D02*
X5179587Y-774579D01*
X5179587Y-774579D02*
X5189111Y-755531D01*
X5189111Y-755531D02*
X5198634Y-726960D01*
X5198634Y-726960D02*
X5208158Y-679341D01*
X5208158Y-679341D02*
X5208158Y-641246D01*
X5208158Y-641246D02*
X5198634Y-593627D01*
X5198634Y-593627D02*
X5189111Y-565055D01*
X5189111Y-565055D02*
X5179587Y-546008D01*
X5179587Y-546008D02*
X5160539Y-517436D01*
X5160539Y-517436D02*
X5151015Y-507912D01*
D10*
X-5000Y-909000D02*
G75*
G02*
X-55000Y-909000I-25000J0D01*
G01*
X-55000Y-909000D02*
G75*
G02*
X-5000Y-909000I25000J0D01*
G01*
D11*
X293872Y-800484D02*
X312920Y-800484D01*
X312920Y-800484D02*
X331967Y-810008D01*
X331967Y-810008D02*
X341491Y-819531D01*
X341491Y-819531D02*
X351015Y-838579D01*
X351015Y-838579D02*
X360539Y-876674D01*
X360539Y-876674D02*
X360539Y-924293D01*
X360539Y-924293D02*
X351015Y-962388D01*
X351015Y-962388D02*
X341491Y-981436D01*
X341491Y-981436D02*
X331967Y-990960D01*
X331967Y-990960D02*
X312920Y-1000484D01*
X312920Y-1000484D02*
X293872Y-1000484D01*
X293872Y-1000484D02*
X274824Y-990960D01*
X274824Y-990960D02*
X265301Y-981436D01*
X265301Y-981436D02*
X255777Y-962388D01*
X255777Y-962388D02*
X246253Y-924293D01*
X246253Y-924293D02*
X246253Y-876674D01*
X246253Y-876674D02*
X255777Y-838579D01*
X255777Y-838579D02*
X265301Y-819531D01*
X265301Y-819531D02*
X274824Y-810008D01*
X274824Y-810008D02*
X293872Y-800484D01*
X446253Y-981436D02*
X455777Y-990960D01*
X455777Y-990960D02*
X446253Y-1000484D01*
X446253Y-1000484D02*
X436729Y-990960D01*
X436729Y-990960D02*
X446253Y-981436D01*
X446253Y-981436D02*
X446253Y-1000484D01*
X636729Y-800484D02*
X541491Y-800484D01*
X541491Y-800484D02*
X531967Y-895722D01*
X531967Y-895722D02*
X541491Y-886198D01*
X541491Y-886198D02*
X560539Y-876674D01*
X560539Y-876674D02*
X608158Y-876674D01*
X608158Y-876674D02*
X627205Y-886198D01*
X627205Y-886198D02*
X636729Y-895722D01*
X636729Y-895722D02*
X646253Y-914769D01*
X646253Y-914769D02*
X646253Y-962388D01*
X646253Y-962388D02*
X636729Y-981436D01*
X636729Y-981436D02*
X627205Y-990960D01*
X627205Y-990960D02*
X608158Y-1000484D01*
X608158Y-1000484D02*
X560539Y-1000484D01*
X560539Y-1000484D02*
X541491Y-990960D01*
X541491Y-990960D02*
X531967Y-981436D01*
X770062Y-800484D02*
X789110Y-800484D01*
X789110Y-800484D02*
X808158Y-810008D01*
X808158Y-810008D02*
X817682Y-819531D01*
X817682Y-819531D02*
X827205Y-838579D01*
X827205Y-838579D02*
X836729Y-876674D01*
X836729Y-876674D02*
X836729Y-924293D01*
X836729Y-924293D02*
X827205Y-962388D01*
X827205Y-962388D02*
X817682Y-981436D01*
X817682Y-981436D02*
X808158Y-990960D01*
X808158Y-990960D02*
X789110Y-1000484D01*
X789110Y-1000484D02*
X770062Y-1000484D01*
X770062Y-1000484D02*
X751015Y-990960D01*
X751015Y-990960D02*
X741491Y-981436D01*
X741491Y-981436D02*
X731967Y-962388D01*
X731967Y-962388D02*
X722443Y-924293D01*
X722443Y-924293D02*
X722443Y-876674D01*
X722443Y-876674D02*
X731967Y-838579D01*
X731967Y-838579D02*
X741491Y-819531D01*
X741491Y-819531D02*
X751015Y-810008D01*
X751015Y-810008D02*
X770062Y-800484D01*
X960539Y-800484D02*
X979586Y-800484D01*
X979586Y-800484D02*
X998634Y-810008D01*
X998634Y-810008D02*
X1008158Y-819531D01*
X1008158Y-819531D02*
X1017682Y-838579D01*
X1017682Y-838579D02*
X1027205Y-876674D01*
X1027205Y-876674D02*
X1027205Y-924293D01*
X1027205Y-924293D02*
X1017682Y-962388D01*
X1017682Y-962388D02*
X1008158Y-981436D01*
X1008158Y-981436D02*
X998634Y-990960D01*
X998634Y-990960D02*
X979586Y-1000484D01*
X979586Y-1000484D02*
X960539Y-1000484D01*
X960539Y-1000484D02*
X941491Y-990960D01*
X941491Y-990960D02*
X931967Y-981436D01*
X931967Y-981436D02*
X922443Y-962388D01*
X922443Y-962388D02*
X912920Y-924293D01*
X912920Y-924293D02*
X912920Y-876674D01*
X912920Y-876674D02*
X922443Y-838579D01*
X922443Y-838579D02*
X931967Y-819531D01*
X931967Y-819531D02*
X941491Y-810008D01*
X941491Y-810008D02*
X960539Y-800484D01*
X1112920Y-1000484D02*
X1112920Y-867150D01*
X1112920Y-886198D02*
X1122444Y-876674D01*
X1122444Y-876674D02*
X1141491Y-867150D01*
X1141491Y-867150D02*
X1170063Y-867150D01*
X1170063Y-867150D02*
X1189110Y-876674D01*
X1189110Y-876674D02*
X1198634Y-895722D01*
X1198634Y-895722D02*
X1198634Y-1000484D01*
X1198634Y-895722D02*
X1208158Y-876674D01*
X1208158Y-876674D02*
X1227205Y-867150D01*
X1227205Y-867150D02*
X1255777Y-867150D01*
X1255777Y-867150D02*
X1274825Y-876674D01*
X1274825Y-876674D02*
X1284348Y-895722D01*
X1284348Y-895722D02*
X1284348Y-1000484D01*
X1379586Y-1000484D02*
X1379586Y-867150D01*
X1379586Y-886198D02*
X1389110Y-876674D01*
X1389110Y-876674D02*
X1408158Y-867150D01*
X1408158Y-867150D02*
X1436729Y-867150D01*
X1436729Y-867150D02*
X1455777Y-876674D01*
X1455777Y-876674D02*
X1465301Y-895722D01*
X1465301Y-895722D02*
X1465301Y-1000484D01*
X1465301Y-895722D02*
X1474824Y-876674D01*
X1474824Y-876674D02*
X1493872Y-867150D01*
X1493872Y-867150D02*
X1522443Y-867150D01*
X1522443Y-867150D02*
X1541491Y-876674D01*
X1541491Y-876674D02*
X1551015Y-895722D01*
X1551015Y-895722D02*
X1551015Y-1000484D01*
X1941491Y-790960D02*
X1770063Y-1048103D01*
X2198634Y-800484D02*
X2217682Y-800484D01*
X2217682Y-800484D02*
X2236729Y-810008D01*
X2236729Y-810008D02*
X2246253Y-819531D01*
X2246253Y-819531D02*
X2255777Y-838579D01*
X2255777Y-838579D02*
X2265301Y-876674D01*
X2265301Y-876674D02*
X2265301Y-924293D01*
X2265301Y-924293D02*
X2255777Y-962388D01*
X2255777Y-962388D02*
X2246253Y-981436D01*
X2246253Y-981436D02*
X2236729Y-990960D01*
X2236729Y-990960D02*
X2217682Y-1000484D01*
X2217682Y-1000484D02*
X2198634Y-1000484D01*
X2198634Y-1000484D02*
X2179587Y-990960D01*
X2179587Y-990960D02*
X2170063Y-981436D01*
X2170063Y-981436D02*
X2160539Y-962388D01*
X2160539Y-962388D02*
X2151015Y-924293D01*
X2151015Y-924293D02*
X2151015Y-876674D01*
X2151015Y-876674D02*
X2160539Y-838579D01*
X2160539Y-838579D02*
X2170063Y-819531D01*
X2170063Y-819531D02*
X2179587Y-810008D01*
X2179587Y-810008D02*
X2198634Y-800484D01*
X2351015Y-981436D02*
X2360539Y-990960D01*
X2360539Y-990960D02*
X2351015Y-1000484D01*
X2351015Y-1000484D02*
X2341491Y-990960D01*
X2341491Y-990960D02*
X2351015Y-981436D01*
X2351015Y-981436D02*
X2351015Y-1000484D01*
X2484348Y-800484D02*
X2503396Y-800484D01*
X2503396Y-800484D02*
X2522444Y-810008D01*
X2522444Y-810008D02*
X2531968Y-819531D01*
X2531968Y-819531D02*
X2541491Y-838579D01*
X2541491Y-838579D02*
X2551015Y-876674D01*
X2551015Y-876674D02*
X2551015Y-924293D01*
X2551015Y-924293D02*
X2541491Y-962388D01*
X2541491Y-962388D02*
X2531968Y-981436D01*
X2531968Y-981436D02*
X2522444Y-990960D01*
X2522444Y-990960D02*
X2503396Y-1000484D01*
X2503396Y-1000484D02*
X2484348Y-1000484D01*
X2484348Y-1000484D02*
X2465301Y-990960D01*
X2465301Y-990960D02*
X2455777Y-981436D01*
X2455777Y-981436D02*
X2446253Y-962388D01*
X2446253Y-962388D02*
X2436729Y-924293D01*
X2436729Y-924293D02*
X2436729Y-876674D01*
X2436729Y-876674D02*
X2446253Y-838579D01*
X2446253Y-838579D02*
X2455777Y-819531D01*
X2455777Y-819531D02*
X2465301Y-810008D01*
X2465301Y-810008D02*
X2484348Y-800484D01*
X2741491Y-1000484D02*
X2627206Y-1000484D01*
X2684348Y-1000484D02*
X2684348Y-800484D01*
X2684348Y-800484D02*
X2665301Y-829055D01*
X2665301Y-829055D02*
X2646253Y-848103D01*
X2646253Y-848103D02*
X2627206Y-857627D01*
X2836729Y-1000484D02*
X2874825Y-1000484D01*
X2874825Y-1000484D02*
X2893872Y-990960D01*
X2893872Y-990960D02*
X2903396Y-981436D01*
X2903396Y-981436D02*
X2922444Y-952865D01*
X2922444Y-952865D02*
X2931967Y-914769D01*
X2931967Y-914769D02*
X2931967Y-838579D01*
X2931967Y-838579D02*
X2922444Y-819531D01*
X2922444Y-819531D02*
X2912920Y-810008D01*
X2912920Y-810008D02*
X2893872Y-800484D01*
X2893872Y-800484D02*
X2855777Y-800484D01*
X2855777Y-800484D02*
X2836729Y-810008D01*
X2836729Y-810008D02*
X2827206Y-819531D01*
X2827206Y-819531D02*
X2817682Y-838579D01*
X2817682Y-838579D02*
X2817682Y-886198D01*
X2817682Y-886198D02*
X2827206Y-905246D01*
X2827206Y-905246D02*
X2836729Y-914769D01*
X2836729Y-914769D02*
X2855777Y-924293D01*
X2855777Y-924293D02*
X2893872Y-924293D01*
X2893872Y-924293D02*
X2912920Y-914769D01*
X2912920Y-914769D02*
X2922444Y-905246D01*
X2922444Y-905246D02*
X2931967Y-886198D01*
X2998634Y-800484D02*
X3131967Y-800484D01*
X3131967Y-800484D02*
X3046253Y-1000484D01*
X3198634Y-800484D02*
X3198634Y-838579D01*
X3274825Y-800484D02*
X3274825Y-838579D01*
X3570063Y-1076674D02*
X3560539Y-1067150D01*
X3560539Y-1067150D02*
X3541491Y-1038579D01*
X3541491Y-1038579D02*
X3531968Y-1019531D01*
X3531968Y-1019531D02*
X3522444Y-990960D01*
X3522444Y-990960D02*
X3512920Y-943341D01*
X3512920Y-943341D02*
X3512920Y-905246D01*
X3512920Y-905246D02*
X3522444Y-857627D01*
X3522444Y-857627D02*
X3531968Y-829055D01*
X3531968Y-829055D02*
X3541491Y-810008D01*
X3541491Y-810008D02*
X3560539Y-781436D01*
X3560539Y-781436D02*
X3570063Y-771912D01*
X3627206Y-800484D02*
X3751015Y-800484D01*
X3751015Y-800484D02*
X3684348Y-876674D01*
X3684348Y-876674D02*
X3712920Y-876674D01*
X3712920Y-876674D02*
X3731968Y-886198D01*
X3731968Y-886198D02*
X3741491Y-895722D01*
X3741491Y-895722D02*
X3751015Y-914769D01*
X3751015Y-914769D02*
X3751015Y-962388D01*
X3751015Y-962388D02*
X3741491Y-981436D01*
X3741491Y-981436D02*
X3731968Y-990960D01*
X3731968Y-990960D02*
X3712920Y-1000484D01*
X3712920Y-1000484D02*
X3655777Y-1000484D01*
X3655777Y-1000484D02*
X3636729Y-990960D01*
X3636729Y-990960D02*
X3627206Y-981436D01*
X3827206Y-819531D02*
X3836729Y-810008D01*
X3836729Y-810008D02*
X3855777Y-800484D01*
X3855777Y-800484D02*
X3903396Y-800484D01*
X3903396Y-800484D02*
X3922444Y-810008D01*
X3922444Y-810008D02*
X3931968Y-819531D01*
X3931968Y-819531D02*
X3941491Y-838579D01*
X3941491Y-838579D02*
X3941491Y-857627D01*
X3941491Y-857627D02*
X3931968Y-886198D01*
X3931968Y-886198D02*
X3817682Y-1000484D01*
X3817682Y-1000484D02*
X3941491Y-1000484D01*
X4179587Y-1000484D02*
X4179587Y-800484D01*
X4265301Y-1000484D02*
X4265301Y-895722D01*
X4265301Y-895722D02*
X4255777Y-876674D01*
X4255777Y-876674D02*
X4236730Y-867150D01*
X4236730Y-867150D02*
X4208158Y-867150D01*
X4208158Y-867150D02*
X4189110Y-876674D01*
X4189110Y-876674D02*
X4179587Y-886198D01*
X4389111Y-1000484D02*
X4370063Y-990960D01*
X4370063Y-990960D02*
X4360539Y-981436D01*
X4360539Y-981436D02*
X4351015Y-962388D01*
X4351015Y-962388D02*
X4351015Y-905246D01*
X4351015Y-905246D02*
X4360539Y-886198D01*
X4360539Y-886198D02*
X4370063Y-876674D01*
X4370063Y-876674D02*
X4389111Y-867150D01*
X4389111Y-867150D02*
X4417682Y-867150D01*
X4417682Y-867150D02*
X4436730Y-876674D01*
X4436730Y-876674D02*
X4446253Y-886198D01*
X4446253Y-886198D02*
X4455777Y-905246D01*
X4455777Y-905246D02*
X4455777Y-962388D01*
X4455777Y-962388D02*
X4446253Y-981436D01*
X4446253Y-981436D02*
X4436730Y-990960D01*
X4436730Y-990960D02*
X4417682Y-1000484D01*
X4417682Y-1000484D02*
X4389111Y-1000484D01*
X4570063Y-1000484D02*
X4551015Y-990960D01*
X4551015Y-990960D02*
X4541492Y-971912D01*
X4541492Y-971912D02*
X4541492Y-800484D01*
X4722444Y-990960D02*
X4703396Y-1000484D01*
X4703396Y-1000484D02*
X4665301Y-1000484D01*
X4665301Y-1000484D02*
X4646253Y-990960D01*
X4646253Y-990960D02*
X4636730Y-971912D01*
X4636730Y-971912D02*
X4636730Y-895722D01*
X4636730Y-895722D02*
X4646253Y-876674D01*
X4646253Y-876674D02*
X4665301Y-867150D01*
X4665301Y-867150D02*
X4703396Y-867150D01*
X4703396Y-867150D02*
X4722444Y-876674D01*
X4722444Y-876674D02*
X4731968Y-895722D01*
X4731968Y-895722D02*
X4731968Y-914769D01*
X4731968Y-914769D02*
X4636730Y-933817D01*
X4808158Y-990960D02*
X4827206Y-1000484D01*
X4827206Y-1000484D02*
X4865301Y-1000484D01*
X4865301Y-1000484D02*
X4884349Y-990960D01*
X4884349Y-990960D02*
X4893873Y-971912D01*
X4893873Y-971912D02*
X4893873Y-962388D01*
X4893873Y-962388D02*
X4884349Y-943341D01*
X4884349Y-943341D02*
X4865301Y-933817D01*
X4865301Y-933817D02*
X4836730Y-933817D01*
X4836730Y-933817D02*
X4817682Y-924293D01*
X4817682Y-924293D02*
X4808158Y-905246D01*
X4808158Y-905246D02*
X4808158Y-895722D01*
X4808158Y-895722D02*
X4817682Y-876674D01*
X4817682Y-876674D02*
X4836730Y-867150D01*
X4836730Y-867150D02*
X4865301Y-867150D01*
X4865301Y-867150D02*
X4884349Y-876674D01*
X4960539Y-1076674D02*
X4970063Y-1067150D01*
X4970063Y-1067150D02*
X4989111Y-1038579D01*
X4989111Y-1038579D02*
X4998634Y-1019531D01*
X4998634Y-1019531D02*
X5008158Y-990960D01*
X5008158Y-990960D02*
X5017682Y-943341D01*
X5017682Y-943341D02*
X5017682Y-905246D01*
X5017682Y-905246D02*
X5008158Y-857627D01*
X5008158Y-857627D02*
X4998634Y-829055D01*
X4998634Y-829055D02*
X4989111Y-810008D01*
X4989111Y-810008D02*
X4970063Y-781436D01*
X4970063Y-781436D02*
X4960539Y-771912D01*
D10*
X-55000Y-1123000D02*
X-55000Y-1223000D01*
X-105000Y-1173000D02*
X-5000Y-1173000D01*
D11*
X360539Y-1264484D02*
X246253Y-1264484D01*
X303396Y-1264484D02*
X303396Y-1064484D01*
X303396Y-1064484D02*
X284348Y-1093055D01*
X284348Y-1093055D02*
X265301Y-1112103D01*
X265301Y-1112103D02*
X246253Y-1121627D01*
X446253Y-1245436D02*
X455777Y-1254960D01*
X455777Y-1254960D02*
X446253Y-1264484D01*
X446253Y-1264484D02*
X436729Y-1254960D01*
X436729Y-1254960D02*
X446253Y-1245436D01*
X446253Y-1245436D02*
X446253Y-1264484D01*
X579586Y-1064484D02*
X598634Y-1064484D01*
X598634Y-1064484D02*
X617682Y-1074008D01*
X617682Y-1074008D02*
X627205Y-1083531D01*
X627205Y-1083531D02*
X636729Y-1102579D01*
X636729Y-1102579D02*
X646253Y-1140674D01*
X646253Y-1140674D02*
X646253Y-1188293D01*
X646253Y-1188293D02*
X636729Y-1226389D01*
X636729Y-1226389D02*
X627205Y-1245436D01*
X627205Y-1245436D02*
X617682Y-1254960D01*
X617682Y-1254960D02*
X598634Y-1264484D01*
X598634Y-1264484D02*
X579586Y-1264484D01*
X579586Y-1264484D02*
X560539Y-1254960D01*
X560539Y-1254960D02*
X551015Y-1245436D01*
X551015Y-1245436D02*
X541491Y-1226389D01*
X541491Y-1226389D02*
X531967Y-1188293D01*
X531967Y-1188293D02*
X531967Y-1140674D01*
X531967Y-1140674D02*
X541491Y-1102579D01*
X541491Y-1102579D02*
X551015Y-1083531D01*
X551015Y-1083531D02*
X560539Y-1074008D01*
X560539Y-1074008D02*
X579586Y-1064484D01*
X770062Y-1064484D02*
X789110Y-1064484D01*
X789110Y-1064484D02*
X808158Y-1074008D01*
X808158Y-1074008D02*
X817682Y-1083531D01*
X817682Y-1083531D02*
X827205Y-1102579D01*
X827205Y-1102579D02*
X836729Y-1140674D01*
X836729Y-1140674D02*
X836729Y-1188293D01*
X836729Y-1188293D02*
X827205Y-1226389D01*
X827205Y-1226389D02*
X817682Y-1245436D01*
X817682Y-1245436D02*
X808158Y-1254960D01*
X808158Y-1254960D02*
X789110Y-1264484D01*
X789110Y-1264484D02*
X770062Y-1264484D01*
X770062Y-1264484D02*
X751015Y-1254960D01*
X751015Y-1254960D02*
X741491Y-1245436D01*
X741491Y-1245436D02*
X731967Y-1226389D01*
X731967Y-1226389D02*
X722443Y-1188293D01*
X722443Y-1188293D02*
X722443Y-1140674D01*
X722443Y-1140674D02*
X731967Y-1102579D01*
X731967Y-1102579D02*
X741491Y-1083531D01*
X741491Y-1083531D02*
X751015Y-1074008D01*
X751015Y-1074008D02*
X770062Y-1064484D01*
X960539Y-1064484D02*
X979586Y-1064484D01*
X979586Y-1064484D02*
X998634Y-1074008D01*
X998634Y-1074008D02*
X1008158Y-1083531D01*
X1008158Y-1083531D02*
X1017682Y-1102579D01*
X1017682Y-1102579D02*
X1027205Y-1140674D01*
X1027205Y-1140674D02*
X1027205Y-1188293D01*
X1027205Y-1188293D02*
X1017682Y-1226389D01*
X1017682Y-1226389D02*
X1008158Y-1245436D01*
X1008158Y-1245436D02*
X998634Y-1254960D01*
X998634Y-1254960D02*
X979586Y-1264484D01*
X979586Y-1264484D02*
X960539Y-1264484D01*
X960539Y-1264484D02*
X941491Y-1254960D01*
X941491Y-1254960D02*
X931967Y-1245436D01*
X931967Y-1245436D02*
X922443Y-1226389D01*
X922443Y-1226389D02*
X912920Y-1188293D01*
X912920Y-1188293D02*
X912920Y-1140674D01*
X912920Y-1140674D02*
X922443Y-1102579D01*
X922443Y-1102579D02*
X931967Y-1083531D01*
X931967Y-1083531D02*
X941491Y-1074008D01*
X941491Y-1074008D02*
X960539Y-1064484D01*
X1112920Y-1264484D02*
X1112920Y-1131150D01*
X1112920Y-1150198D02*
X1122444Y-1140674D01*
X1122444Y-1140674D02*
X1141491Y-1131150D01*
X1141491Y-1131150D02*
X1170063Y-1131150D01*
X1170063Y-1131150D02*
X1189110Y-1140674D01*
X1189110Y-1140674D02*
X1198634Y-1159722D01*
X1198634Y-1159722D02*
X1198634Y-1264484D01*
X1198634Y-1159722D02*
X1208158Y-1140674D01*
X1208158Y-1140674D02*
X1227205Y-1131150D01*
X1227205Y-1131150D02*
X1255777Y-1131150D01*
X1255777Y-1131150D02*
X1274825Y-1140674D01*
X1274825Y-1140674D02*
X1284348Y-1159722D01*
X1284348Y-1159722D02*
X1284348Y-1264484D01*
X1379586Y-1264484D02*
X1379586Y-1131150D01*
X1379586Y-1150198D02*
X1389110Y-1140674D01*
X1389110Y-1140674D02*
X1408158Y-1131150D01*
X1408158Y-1131150D02*
X1436729Y-1131150D01*
X1436729Y-1131150D02*
X1455777Y-1140674D01*
X1455777Y-1140674D02*
X1465301Y-1159722D01*
X1465301Y-1159722D02*
X1465301Y-1264484D01*
X1465301Y-1159722D02*
X1474824Y-1140674D01*
X1474824Y-1140674D02*
X1493872Y-1131150D01*
X1493872Y-1131150D02*
X1522443Y-1131150D01*
X1522443Y-1131150D02*
X1541491Y-1140674D01*
X1541491Y-1140674D02*
X1551015Y-1159722D01*
X1551015Y-1159722D02*
X1551015Y-1264484D01*
X1941491Y-1054960D02*
X1770063Y-1312103D01*
X2198634Y-1064484D02*
X2217682Y-1064484D01*
X2217682Y-1064484D02*
X2236729Y-1074008D01*
X2236729Y-1074008D02*
X2246253Y-1083531D01*
X2246253Y-1083531D02*
X2255777Y-1102579D01*
X2255777Y-1102579D02*
X2265301Y-1140674D01*
X2265301Y-1140674D02*
X2265301Y-1188293D01*
X2265301Y-1188293D02*
X2255777Y-1226389D01*
X2255777Y-1226389D02*
X2246253Y-1245436D01*
X2246253Y-1245436D02*
X2236729Y-1254960D01*
X2236729Y-1254960D02*
X2217682Y-1264484D01*
X2217682Y-1264484D02*
X2198634Y-1264484D01*
X2198634Y-1264484D02*
X2179587Y-1254960D01*
X2179587Y-1254960D02*
X2170063Y-1245436D01*
X2170063Y-1245436D02*
X2160539Y-1226389D01*
X2160539Y-1226389D02*
X2151015Y-1188293D01*
X2151015Y-1188293D02*
X2151015Y-1140674D01*
X2151015Y-1140674D02*
X2160539Y-1102579D01*
X2160539Y-1102579D02*
X2170063Y-1083531D01*
X2170063Y-1083531D02*
X2179587Y-1074008D01*
X2179587Y-1074008D02*
X2198634Y-1064484D01*
X2351015Y-1245436D02*
X2360539Y-1254960D01*
X2360539Y-1254960D02*
X2351015Y-1264484D01*
X2351015Y-1264484D02*
X2341491Y-1254960D01*
X2341491Y-1254960D02*
X2351015Y-1245436D01*
X2351015Y-1245436D02*
X2351015Y-1264484D01*
X2484348Y-1064484D02*
X2503396Y-1064484D01*
X2503396Y-1064484D02*
X2522444Y-1074008D01*
X2522444Y-1074008D02*
X2531968Y-1083531D01*
X2531968Y-1083531D02*
X2541491Y-1102579D01*
X2541491Y-1102579D02*
X2551015Y-1140674D01*
X2551015Y-1140674D02*
X2551015Y-1188293D01*
X2551015Y-1188293D02*
X2541491Y-1226389D01*
X2541491Y-1226389D02*
X2531968Y-1245436D01*
X2531968Y-1245436D02*
X2522444Y-1254960D01*
X2522444Y-1254960D02*
X2503396Y-1264484D01*
X2503396Y-1264484D02*
X2484348Y-1264484D01*
X2484348Y-1264484D02*
X2465301Y-1254960D01*
X2465301Y-1254960D02*
X2455777Y-1245436D01*
X2455777Y-1245436D02*
X2446253Y-1226389D01*
X2446253Y-1226389D02*
X2436729Y-1188293D01*
X2436729Y-1188293D02*
X2436729Y-1140674D01*
X2436729Y-1140674D02*
X2446253Y-1102579D01*
X2446253Y-1102579D02*
X2455777Y-1083531D01*
X2455777Y-1083531D02*
X2465301Y-1074008D01*
X2465301Y-1074008D02*
X2484348Y-1064484D01*
X2617682Y-1064484D02*
X2741491Y-1064484D01*
X2741491Y-1064484D02*
X2674825Y-1140674D01*
X2674825Y-1140674D02*
X2703396Y-1140674D01*
X2703396Y-1140674D02*
X2722444Y-1150198D01*
X2722444Y-1150198D02*
X2731968Y-1159722D01*
X2731968Y-1159722D02*
X2741491Y-1178770D01*
X2741491Y-1178770D02*
X2741491Y-1226389D01*
X2741491Y-1226389D02*
X2731968Y-1245436D01*
X2731968Y-1245436D02*
X2722444Y-1254960D01*
X2722444Y-1254960D02*
X2703396Y-1264484D01*
X2703396Y-1264484D02*
X2646253Y-1264484D01*
X2646253Y-1264484D02*
X2627206Y-1254960D01*
X2627206Y-1254960D02*
X2617682Y-1245436D01*
X2836729Y-1264484D02*
X2874825Y-1264484D01*
X2874825Y-1264484D02*
X2893872Y-1254960D01*
X2893872Y-1254960D02*
X2903396Y-1245436D01*
X2903396Y-1245436D02*
X2922444Y-1216865D01*
X2922444Y-1216865D02*
X2931967Y-1178770D01*
X2931967Y-1178770D02*
X2931967Y-1102579D01*
X2931967Y-1102579D02*
X2922444Y-1083531D01*
X2922444Y-1083531D02*
X2912920Y-1074008D01*
X2912920Y-1074008D02*
X2893872Y-1064484D01*
X2893872Y-1064484D02*
X2855777Y-1064484D01*
X2855777Y-1064484D02*
X2836729Y-1074008D01*
X2836729Y-1074008D02*
X2827206Y-1083531D01*
X2827206Y-1083531D02*
X2817682Y-1102579D01*
X2817682Y-1102579D02*
X2817682Y-1150198D01*
X2817682Y-1150198D02*
X2827206Y-1169246D01*
X2827206Y-1169246D02*
X2836729Y-1178770D01*
X2836729Y-1178770D02*
X2855777Y-1188293D01*
X2855777Y-1188293D02*
X2893872Y-1188293D01*
X2893872Y-1188293D02*
X2912920Y-1178770D01*
X2912920Y-1178770D02*
X2922444Y-1169246D01*
X2922444Y-1169246D02*
X2931967Y-1150198D01*
X3103396Y-1131150D02*
X3103396Y-1264484D01*
X3055777Y-1054960D02*
X3008158Y-1197817D01*
X3008158Y-1197817D02*
X3131967Y-1197817D01*
X3198634Y-1064484D02*
X3198634Y-1102579D01*
X3274825Y-1064484D02*
X3274825Y-1102579D01*
X3570063Y-1340674D02*
X3560539Y-1331150D01*
X3560539Y-1331150D02*
X3541491Y-1302579D01*
X3541491Y-1302579D02*
X3531968Y-1283531D01*
X3531968Y-1283531D02*
X3522444Y-1254960D01*
X3522444Y-1254960D02*
X3512920Y-1207341D01*
X3512920Y-1207341D02*
X3512920Y-1169246D01*
X3512920Y-1169246D02*
X3522444Y-1121627D01*
X3522444Y-1121627D02*
X3531968Y-1093055D01*
X3531968Y-1093055D02*
X3541491Y-1074008D01*
X3541491Y-1074008D02*
X3560539Y-1045436D01*
X3560539Y-1045436D02*
X3570063Y-1035912D01*
X3627206Y-1064484D02*
X3751015Y-1064484D01*
X3751015Y-1064484D02*
X3684348Y-1140674D01*
X3684348Y-1140674D02*
X3712920Y-1140674D01*
X3712920Y-1140674D02*
X3731968Y-1150198D01*
X3731968Y-1150198D02*
X3741491Y-1159722D01*
X3741491Y-1159722D02*
X3751015Y-1178770D01*
X3751015Y-1178770D02*
X3751015Y-1226389D01*
X3751015Y-1226389D02*
X3741491Y-1245436D01*
X3741491Y-1245436D02*
X3731968Y-1254960D01*
X3731968Y-1254960D02*
X3712920Y-1264484D01*
X3712920Y-1264484D02*
X3655777Y-1264484D01*
X3655777Y-1264484D02*
X3636729Y-1254960D01*
X3636729Y-1254960D02*
X3627206Y-1245436D01*
X3922444Y-1131150D02*
X3922444Y-1264484D01*
X3874825Y-1054960D02*
X3827206Y-1197817D01*
X3827206Y-1197817D02*
X3951015Y-1197817D01*
X4179587Y-1264484D02*
X4179587Y-1064484D01*
X4265301Y-1264484D02*
X4265301Y-1159722D01*
X4265301Y-1159722D02*
X4255777Y-1140674D01*
X4255777Y-1140674D02*
X4236730Y-1131150D01*
X4236730Y-1131150D02*
X4208158Y-1131150D01*
X4208158Y-1131150D02*
X4189110Y-1140674D01*
X4189110Y-1140674D02*
X4179587Y-1150198D01*
X4389111Y-1264484D02*
X4370063Y-1254960D01*
X4370063Y-1254960D02*
X4360539Y-1245436D01*
X4360539Y-1245436D02*
X4351015Y-1226389D01*
X4351015Y-1226389D02*
X4351015Y-1169246D01*
X4351015Y-1169246D02*
X4360539Y-1150198D01*
X4360539Y-1150198D02*
X4370063Y-1140674D01*
X4370063Y-1140674D02*
X4389111Y-1131150D01*
X4389111Y-1131150D02*
X4417682Y-1131150D01*
X4417682Y-1131150D02*
X4436730Y-1140674D01*
X4436730Y-1140674D02*
X4446253Y-1150198D01*
X4446253Y-1150198D02*
X4455777Y-1169246D01*
X4455777Y-1169246D02*
X4455777Y-1226389D01*
X4455777Y-1226389D02*
X4446253Y-1245436D01*
X4446253Y-1245436D02*
X4436730Y-1254960D01*
X4436730Y-1254960D02*
X4417682Y-1264484D01*
X4417682Y-1264484D02*
X4389111Y-1264484D01*
X4570063Y-1264484D02*
X4551015Y-1254960D01*
X4551015Y-1254960D02*
X4541492Y-1235912D01*
X4541492Y-1235912D02*
X4541492Y-1064484D01*
X4722444Y-1254960D02*
X4703396Y-1264484D01*
X4703396Y-1264484D02*
X4665301Y-1264484D01*
X4665301Y-1264484D02*
X4646253Y-1254960D01*
X4646253Y-1254960D02*
X4636730Y-1235912D01*
X4636730Y-1235912D02*
X4636730Y-1159722D01*
X4636730Y-1159722D02*
X4646253Y-1140674D01*
X4646253Y-1140674D02*
X4665301Y-1131150D01*
X4665301Y-1131150D02*
X4703396Y-1131150D01*
X4703396Y-1131150D02*
X4722444Y-1140674D01*
X4722444Y-1140674D02*
X4731968Y-1159722D01*
X4731968Y-1159722D02*
X4731968Y-1178770D01*
X4731968Y-1178770D02*
X4636730Y-1197817D01*
X4808158Y-1254960D02*
X4827206Y-1264484D01*
X4827206Y-1264484D02*
X4865301Y-1264484D01*
X4865301Y-1264484D02*
X4884349Y-1254960D01*
X4884349Y-1254960D02*
X4893873Y-1235912D01*
X4893873Y-1235912D02*
X4893873Y-1226389D01*
X4893873Y-1226389D02*
X4884349Y-1207341D01*
X4884349Y-1207341D02*
X4865301Y-1197817D01*
X4865301Y-1197817D02*
X4836730Y-1197817D01*
X4836730Y-1197817D02*
X4817682Y-1188293D01*
X4817682Y-1188293D02*
X4808158Y-1169246D01*
X4808158Y-1169246D02*
X4808158Y-1159722D01*
X4808158Y-1159722D02*
X4817682Y-1140674D01*
X4817682Y-1140674D02*
X4836730Y-1131150D01*
X4836730Y-1131150D02*
X4865301Y-1131150D01*
X4865301Y-1131150D02*
X4884349Y-1140674D01*
X4960539Y-1340674D02*
X4970063Y-1331150D01*
X4970063Y-1331150D02*
X4989111Y-1302579D01*
X4989111Y-1302579D02*
X4998634Y-1283531D01*
X4998634Y-1283531D02*
X5008158Y-1254960D01*
X5008158Y-1254960D02*
X5017682Y-1207341D01*
X5017682Y-1207341D02*
X5017682Y-1169246D01*
X5017682Y-1169246D02*
X5008158Y-1121627D01*
X5008158Y-1121627D02*
X4998634Y-1093055D01*
X4998634Y-1093055D02*
X4989111Y-1074008D01*
X4989111Y-1074008D02*
X4970063Y-1045436D01*
X4970063Y-1045436D02*
X4960539Y-1035912D01*
D12*
X-30188Y-1497812D02*
X-30188Y-1376188D01*
X-151812Y-1376188D01*
X-151812Y-1497812D01*
X-30188Y-1497812D01*
D11*
X360539Y-1528484D02*
X246253Y-1528484D01*
X303396Y-1528484D02*
X303396Y-1328484D01*
X303396Y-1328484D02*
X284348Y-1357055D01*
X284348Y-1357055D02*
X265301Y-1376103D01*
X265301Y-1376103D02*
X246253Y-1385627D01*
X446253Y-1509436D02*
X455777Y-1518960D01*
X455777Y-1518960D02*
X446253Y-1528484D01*
X446253Y-1528484D02*
X436729Y-1518960D01*
X436729Y-1518960D02*
X446253Y-1509436D01*
X446253Y-1509436D02*
X446253Y-1528484D01*
X522443Y-1328484D02*
X655777Y-1328484D01*
X655777Y-1328484D02*
X570063Y-1528484D01*
X722443Y-1347531D02*
X731967Y-1338008D01*
X731967Y-1338008D02*
X751015Y-1328484D01*
X751015Y-1328484D02*
X798634Y-1328484D01*
X798634Y-1328484D02*
X817682Y-1338008D01*
X817682Y-1338008D02*
X827205Y-1347531D01*
X827205Y-1347531D02*
X836729Y-1366579D01*
X836729Y-1366579D02*
X836729Y-1385627D01*
X836729Y-1385627D02*
X827205Y-1414198D01*
X827205Y-1414198D02*
X712920Y-1528484D01*
X712920Y-1528484D02*
X836729Y-1528484D01*
X960539Y-1328484D02*
X979586Y-1328484D01*
X979586Y-1328484D02*
X998634Y-1338008D01*
X998634Y-1338008D02*
X1008158Y-1347531D01*
X1008158Y-1347531D02*
X1017682Y-1366579D01*
X1017682Y-1366579D02*
X1027205Y-1404674D01*
X1027205Y-1404674D02*
X1027205Y-1452293D01*
X1027205Y-1452293D02*
X1017682Y-1490388D01*
X1017682Y-1490388D02*
X1008158Y-1509436D01*
X1008158Y-1509436D02*
X998634Y-1518960D01*
X998634Y-1518960D02*
X979586Y-1528484D01*
X979586Y-1528484D02*
X960539Y-1528484D01*
X960539Y-1528484D02*
X941491Y-1518960D01*
X941491Y-1518960D02*
X931967Y-1509436D01*
X931967Y-1509436D02*
X922443Y-1490388D01*
X922443Y-1490388D02*
X912920Y-1452293D01*
X912920Y-1452293D02*
X912920Y-1404674D01*
X912920Y-1404674D02*
X922443Y-1366579D01*
X922443Y-1366579D02*
X931967Y-1347531D01*
X931967Y-1347531D02*
X941491Y-1338008D01*
X941491Y-1338008D02*
X960539Y-1328484D01*
X1112920Y-1528484D02*
X1112920Y-1395150D01*
X1112920Y-1414198D02*
X1122444Y-1404674D01*
X1122444Y-1404674D02*
X1141491Y-1395150D01*
X1141491Y-1395150D02*
X1170063Y-1395150D01*
X1170063Y-1395150D02*
X1189110Y-1404674D01*
X1189110Y-1404674D02*
X1198634Y-1423722D01*
X1198634Y-1423722D02*
X1198634Y-1528484D01*
X1198634Y-1423722D02*
X1208158Y-1404674D01*
X1208158Y-1404674D02*
X1227205Y-1395150D01*
X1227205Y-1395150D02*
X1255777Y-1395150D01*
X1255777Y-1395150D02*
X1274825Y-1404674D01*
X1274825Y-1404674D02*
X1284348Y-1423722D01*
X1284348Y-1423722D02*
X1284348Y-1528484D01*
X1379586Y-1528484D02*
X1379586Y-1395150D01*
X1379586Y-1414198D02*
X1389110Y-1404674D01*
X1389110Y-1404674D02*
X1408158Y-1395150D01*
X1408158Y-1395150D02*
X1436729Y-1395150D01*
X1436729Y-1395150D02*
X1455777Y-1404674D01*
X1455777Y-1404674D02*
X1465301Y-1423722D01*
X1465301Y-1423722D02*
X1465301Y-1528484D01*
X1465301Y-1423722D02*
X1474824Y-1404674D01*
X1474824Y-1404674D02*
X1493872Y-1395150D01*
X1493872Y-1395150D02*
X1522443Y-1395150D01*
X1522443Y-1395150D02*
X1541491Y-1404674D01*
X1541491Y-1404674D02*
X1551015Y-1423722D01*
X1551015Y-1423722D02*
X1551015Y-1528484D01*
X1941491Y-1318960D02*
X1770063Y-1576103D01*
X2198634Y-1328484D02*
X2217682Y-1328484D01*
X2217682Y-1328484D02*
X2236729Y-1338008D01*
X2236729Y-1338008D02*
X2246253Y-1347531D01*
X2246253Y-1347531D02*
X2255777Y-1366579D01*
X2255777Y-1366579D02*
X2265301Y-1404674D01*
X2265301Y-1404674D02*
X2265301Y-1452293D01*
X2265301Y-1452293D02*
X2255777Y-1490388D01*
X2255777Y-1490388D02*
X2246253Y-1509436D01*
X2246253Y-1509436D02*
X2236729Y-1518960D01*
X2236729Y-1518960D02*
X2217682Y-1528484D01*
X2217682Y-1528484D02*
X2198634Y-1528484D01*
X2198634Y-1528484D02*
X2179587Y-1518960D01*
X2179587Y-1518960D02*
X2170063Y-1509436D01*
X2170063Y-1509436D02*
X2160539Y-1490388D01*
X2160539Y-1490388D02*
X2151015Y-1452293D01*
X2151015Y-1452293D02*
X2151015Y-1404674D01*
X2151015Y-1404674D02*
X2160539Y-1366579D01*
X2160539Y-1366579D02*
X2170063Y-1347531D01*
X2170063Y-1347531D02*
X2179587Y-1338008D01*
X2179587Y-1338008D02*
X2198634Y-1328484D01*
X2351015Y-1509436D02*
X2360539Y-1518960D01*
X2360539Y-1518960D02*
X2351015Y-1528484D01*
X2351015Y-1528484D02*
X2341491Y-1518960D01*
X2341491Y-1518960D02*
X2351015Y-1509436D01*
X2351015Y-1509436D02*
X2351015Y-1528484D01*
X2484348Y-1328484D02*
X2503396Y-1328484D01*
X2503396Y-1328484D02*
X2522444Y-1338008D01*
X2522444Y-1338008D02*
X2531968Y-1347531D01*
X2531968Y-1347531D02*
X2541491Y-1366579D01*
X2541491Y-1366579D02*
X2551015Y-1404674D01*
X2551015Y-1404674D02*
X2551015Y-1452293D01*
X2551015Y-1452293D02*
X2541491Y-1490388D01*
X2541491Y-1490388D02*
X2531968Y-1509436D01*
X2531968Y-1509436D02*
X2522444Y-1518960D01*
X2522444Y-1518960D02*
X2503396Y-1528484D01*
X2503396Y-1528484D02*
X2484348Y-1528484D01*
X2484348Y-1528484D02*
X2465301Y-1518960D01*
X2465301Y-1518960D02*
X2455777Y-1509436D01*
X2455777Y-1509436D02*
X2446253Y-1490388D01*
X2446253Y-1490388D02*
X2436729Y-1452293D01*
X2436729Y-1452293D02*
X2436729Y-1404674D01*
X2436729Y-1404674D02*
X2446253Y-1366579D01*
X2446253Y-1366579D02*
X2455777Y-1347531D01*
X2455777Y-1347531D02*
X2465301Y-1338008D01*
X2465301Y-1338008D02*
X2484348Y-1328484D01*
X2722444Y-1328484D02*
X2684348Y-1328484D01*
X2684348Y-1328484D02*
X2665301Y-1338008D01*
X2665301Y-1338008D02*
X2655777Y-1347531D01*
X2655777Y-1347531D02*
X2636729Y-1376103D01*
X2636729Y-1376103D02*
X2627206Y-1414198D01*
X2627206Y-1414198D02*
X2627206Y-1490388D01*
X2627206Y-1490388D02*
X2636729Y-1509436D01*
X2636729Y-1509436D02*
X2646253Y-1518960D01*
X2646253Y-1518960D02*
X2665301Y-1528484D01*
X2665301Y-1528484D02*
X2703396Y-1528484D01*
X2703396Y-1528484D02*
X2722444Y-1518960D01*
X2722444Y-1518960D02*
X2731968Y-1509436D01*
X2731968Y-1509436D02*
X2741491Y-1490388D01*
X2741491Y-1490388D02*
X2741491Y-1442769D01*
X2741491Y-1442769D02*
X2731968Y-1423722D01*
X2731968Y-1423722D02*
X2722444Y-1414198D01*
X2722444Y-1414198D02*
X2703396Y-1404674D01*
X2703396Y-1404674D02*
X2665301Y-1404674D01*
X2665301Y-1404674D02*
X2646253Y-1414198D01*
X2646253Y-1414198D02*
X2636729Y-1423722D01*
X2636729Y-1423722D02*
X2627206Y-1442769D01*
X2808158Y-1328484D02*
X2941491Y-1328484D01*
X2941491Y-1328484D02*
X2855777Y-1528484D01*
X2998634Y-1328484D02*
X3131967Y-1328484D01*
X3131967Y-1328484D02*
X3046253Y-1528484D01*
X3198634Y-1328484D02*
X3198634Y-1366579D01*
X3274825Y-1328484D02*
X3274825Y-1366579D01*
X3570063Y-1604674D02*
X3560539Y-1595150D01*
X3560539Y-1595150D02*
X3541491Y-1566579D01*
X3541491Y-1566579D02*
X3531968Y-1547531D01*
X3531968Y-1547531D02*
X3522444Y-1518960D01*
X3522444Y-1518960D02*
X3512920Y-1471341D01*
X3512920Y-1471341D02*
X3512920Y-1433246D01*
X3512920Y-1433246D02*
X3522444Y-1385627D01*
X3522444Y-1385627D02*
X3531968Y-1357055D01*
X3531968Y-1357055D02*
X3541491Y-1338008D01*
X3541491Y-1338008D02*
X3560539Y-1309436D01*
X3560539Y-1309436D02*
X3570063Y-1299912D01*
X3636729Y-1347531D02*
X3646253Y-1338008D01*
X3646253Y-1338008D02*
X3665301Y-1328484D01*
X3665301Y-1328484D02*
X3712920Y-1328484D01*
X3712920Y-1328484D02*
X3731968Y-1338008D01*
X3731968Y-1338008D02*
X3741491Y-1347531D01*
X3741491Y-1347531D02*
X3751015Y-1366579D01*
X3751015Y-1366579D02*
X3751015Y-1385627D01*
X3751015Y-1385627D02*
X3741491Y-1414198D01*
X3741491Y-1414198D02*
X3627206Y-1528484D01*
X3627206Y-1528484D02*
X3751015Y-1528484D01*
X3989110Y-1528484D02*
X3989110Y-1328484D01*
X4074825Y-1528484D02*
X4074825Y-1423722D01*
X4074825Y-1423722D02*
X4065301Y-1404674D01*
X4065301Y-1404674D02*
X4046253Y-1395150D01*
X4046253Y-1395150D02*
X4017682Y-1395150D01*
X4017682Y-1395150D02*
X3998634Y-1404674D01*
X3998634Y-1404674D02*
X3989110Y-1414198D01*
X4198634Y-1528484D02*
X4179587Y-1518960D01*
X4179587Y-1518960D02*
X4170063Y-1509436D01*
X4170063Y-1509436D02*
X4160539Y-1490388D01*
X4160539Y-1490388D02*
X4160539Y-1433246D01*
X4160539Y-1433246D02*
X4170063Y-1414198D01*
X4170063Y-1414198D02*
X4179587Y-1404674D01*
X4179587Y-1404674D02*
X4198634Y-1395150D01*
X4198634Y-1395150D02*
X4227206Y-1395150D01*
X4227206Y-1395150D02*
X4246253Y-1404674D01*
X4246253Y-1404674D02*
X4255777Y-1414198D01*
X4255777Y-1414198D02*
X4265301Y-1433246D01*
X4265301Y-1433246D02*
X4265301Y-1490388D01*
X4265301Y-1490388D02*
X4255777Y-1509436D01*
X4255777Y-1509436D02*
X4246253Y-1518960D01*
X4246253Y-1518960D02*
X4227206Y-1528484D01*
X4227206Y-1528484D02*
X4198634Y-1528484D01*
X4379587Y-1528484D02*
X4360539Y-1518960D01*
X4360539Y-1518960D02*
X4351015Y-1499912D01*
X4351015Y-1499912D02*
X4351015Y-1328484D01*
X4531968Y-1518960D02*
X4512920Y-1528484D01*
X4512920Y-1528484D02*
X4474825Y-1528484D01*
X4474825Y-1528484D02*
X4455777Y-1518960D01*
X4455777Y-1518960D02*
X4446253Y-1499912D01*
X4446253Y-1499912D02*
X4446253Y-1423722D01*
X4446253Y-1423722D02*
X4455777Y-1404674D01*
X4455777Y-1404674D02*
X4474825Y-1395150D01*
X4474825Y-1395150D02*
X4512920Y-1395150D01*
X4512920Y-1395150D02*
X4531968Y-1404674D01*
X4531968Y-1404674D02*
X4541492Y-1423722D01*
X4541492Y-1423722D02*
X4541492Y-1442769D01*
X4541492Y-1442769D02*
X4446253Y-1461817D01*
X4617682Y-1518960D02*
X4636730Y-1528484D01*
X4636730Y-1528484D02*
X4674825Y-1528484D01*
X4674825Y-1528484D02*
X4693873Y-1518960D01*
X4693873Y-1518960D02*
X4703396Y-1499912D01*
X4703396Y-1499912D02*
X4703396Y-1490388D01*
X4703396Y-1490388D02*
X4693873Y-1471341D01*
X4693873Y-1471341D02*
X4674825Y-1461817D01*
X4674825Y-1461817D02*
X4646253Y-1461817D01*
X4646253Y-1461817D02*
X4627206Y-1452293D01*
X4627206Y-1452293D02*
X4617682Y-1433246D01*
X4617682Y-1433246D02*
X4617682Y-1423722D01*
X4617682Y-1423722D02*
X4627206Y-1404674D01*
X4627206Y-1404674D02*
X4646253Y-1395150D01*
X4646253Y-1395150D02*
X4674825Y-1395150D01*
X4674825Y-1395150D02*
X4693873Y-1404674D01*
X4770063Y-1604674D02*
X4779587Y-1595150D01*
X4779587Y-1595150D02*
X4798634Y-1566579D01*
X4798634Y-1566579D02*
X4808158Y-1547531D01*
X4808158Y-1547531D02*
X4817682Y-1518960D01*
X4817682Y-1518960D02*
X4827206Y-1471341D01*
X4827206Y-1471341D02*
X4827206Y-1433246D01*
X4827206Y-1433246D02*
X4817682Y-1385627D01*
X4817682Y-1385627D02*
X4808158Y-1357055D01*
X4808158Y-1357055D02*
X4798634Y-1338008D01*
X4798634Y-1338008D02*
X4779587Y-1309436D01*
X4779587Y-1309436D02*
X4770063Y-1299912D01*
X-105000Y-1829000D02*
X-5000Y-1729000D01*
X-105000Y-1629000D01*
X-205000Y-1729000D01*
X-105000Y-1829000D01*
X236729Y-1620484D02*
X360539Y-1620484D01*
X360539Y-1620484D02*
X293872Y-1696674D01*
X293872Y-1696674D02*
X322444Y-1696674D01*
X322444Y-1696674D02*
X341491Y-1706198D01*
X341491Y-1706198D02*
X351015Y-1715722D01*
X351015Y-1715722D02*
X360539Y-1734769D01*
X360539Y-1734769D02*
X360539Y-1782388D01*
X360539Y-1782388D02*
X351015Y-1801436D01*
X351015Y-1801436D02*
X341491Y-1810960D01*
X341491Y-1810960D02*
X322444Y-1820484D01*
X322444Y-1820484D02*
X265301Y-1820484D01*
X265301Y-1820484D02*
X246253Y-1810960D01*
X246253Y-1810960D02*
X236729Y-1801436D01*
X446253Y-1801436D02*
X455777Y-1810960D01*
X455777Y-1810960D02*
X446253Y-1820484D01*
X446253Y-1820484D02*
X436729Y-1810960D01*
X436729Y-1810960D02*
X446253Y-1801436D01*
X446253Y-1801436D02*
X446253Y-1820484D01*
X531967Y-1639531D02*
X541491Y-1630008D01*
X541491Y-1630008D02*
X560539Y-1620484D01*
X560539Y-1620484D02*
X608158Y-1620484D01*
X608158Y-1620484D02*
X627205Y-1630008D01*
X627205Y-1630008D02*
X636729Y-1639531D01*
X636729Y-1639531D02*
X646253Y-1658579D01*
X646253Y-1658579D02*
X646253Y-1677627D01*
X646253Y-1677627D02*
X636729Y-1706198D01*
X636729Y-1706198D02*
X522443Y-1820484D01*
X522443Y-1820484D02*
X646253Y-1820484D01*
X770062Y-1620484D02*
X789110Y-1620484D01*
X789110Y-1620484D02*
X808158Y-1630008D01*
X808158Y-1630008D02*
X817682Y-1639531D01*
X817682Y-1639531D02*
X827205Y-1658579D01*
X827205Y-1658579D02*
X836729Y-1696674D01*
X836729Y-1696674D02*
X836729Y-1744293D01*
X836729Y-1744293D02*
X827205Y-1782388D01*
X827205Y-1782388D02*
X817682Y-1801436D01*
X817682Y-1801436D02*
X808158Y-1810960D01*
X808158Y-1810960D02*
X789110Y-1820484D01*
X789110Y-1820484D02*
X770062Y-1820484D01*
X770062Y-1820484D02*
X751015Y-1810960D01*
X751015Y-1810960D02*
X741491Y-1801436D01*
X741491Y-1801436D02*
X731967Y-1782388D01*
X731967Y-1782388D02*
X722443Y-1744293D01*
X722443Y-1744293D02*
X722443Y-1696674D01*
X722443Y-1696674D02*
X731967Y-1658579D01*
X731967Y-1658579D02*
X741491Y-1639531D01*
X741491Y-1639531D02*
X751015Y-1630008D01*
X751015Y-1630008D02*
X770062Y-1620484D01*
X960539Y-1620484D02*
X979586Y-1620484D01*
X979586Y-1620484D02*
X998634Y-1630008D01*
X998634Y-1630008D02*
X1008158Y-1639531D01*
X1008158Y-1639531D02*
X1017682Y-1658579D01*
X1017682Y-1658579D02*
X1027205Y-1696674D01*
X1027205Y-1696674D02*
X1027205Y-1744293D01*
X1027205Y-1744293D02*
X1017682Y-1782388D01*
X1017682Y-1782388D02*
X1008158Y-1801436D01*
X1008158Y-1801436D02*
X998634Y-1810960D01*
X998634Y-1810960D02*
X979586Y-1820484D01*
X979586Y-1820484D02*
X960539Y-1820484D01*
X960539Y-1820484D02*
X941491Y-1810960D01*
X941491Y-1810960D02*
X931967Y-1801436D01*
X931967Y-1801436D02*
X922443Y-1782388D01*
X922443Y-1782388D02*
X912920Y-1744293D01*
X912920Y-1744293D02*
X912920Y-1696674D01*
X912920Y-1696674D02*
X922443Y-1658579D01*
X922443Y-1658579D02*
X931967Y-1639531D01*
X931967Y-1639531D02*
X941491Y-1630008D01*
X941491Y-1630008D02*
X960539Y-1620484D01*
X1112920Y-1820484D02*
X1112920Y-1687150D01*
X1112920Y-1706198D02*
X1122444Y-1696674D01*
X1122444Y-1696674D02*
X1141491Y-1687150D01*
X1141491Y-1687150D02*
X1170063Y-1687150D01*
X1170063Y-1687150D02*
X1189110Y-1696674D01*
X1189110Y-1696674D02*
X1198634Y-1715722D01*
X1198634Y-1715722D02*
X1198634Y-1820484D01*
X1198634Y-1715722D02*
X1208158Y-1696674D01*
X1208158Y-1696674D02*
X1227205Y-1687150D01*
X1227205Y-1687150D02*
X1255777Y-1687150D01*
X1255777Y-1687150D02*
X1274825Y-1696674D01*
X1274825Y-1696674D02*
X1284348Y-1715722D01*
X1284348Y-1715722D02*
X1284348Y-1820484D01*
X1379586Y-1820484D02*
X1379586Y-1687150D01*
X1379586Y-1706198D02*
X1389110Y-1696674D01*
X1389110Y-1696674D02*
X1408158Y-1687150D01*
X1408158Y-1687150D02*
X1436729Y-1687150D01*
X1436729Y-1687150D02*
X1455777Y-1696674D01*
X1455777Y-1696674D02*
X1465301Y-1715722D01*
X1465301Y-1715722D02*
X1465301Y-1820484D01*
X1465301Y-1715722D02*
X1474824Y-1696674D01*
X1474824Y-1696674D02*
X1493872Y-1687150D01*
X1493872Y-1687150D02*
X1522443Y-1687150D01*
X1522443Y-1687150D02*
X1541491Y-1696674D01*
X1541491Y-1696674D02*
X1551015Y-1715722D01*
X1551015Y-1715722D02*
X1551015Y-1820484D01*
X1941491Y-1610960D02*
X1770063Y-1868103D01*
X2198634Y-1620484D02*
X2217682Y-1620484D01*
X2217682Y-1620484D02*
X2236729Y-1630008D01*
X2236729Y-1630008D02*
X2246253Y-1639531D01*
X2246253Y-1639531D02*
X2255777Y-1658579D01*
X2255777Y-1658579D02*
X2265301Y-1696674D01*
X2265301Y-1696674D02*
X2265301Y-1744293D01*
X2265301Y-1744293D02*
X2255777Y-1782388D01*
X2255777Y-1782388D02*
X2246253Y-1801436D01*
X2246253Y-1801436D02*
X2236729Y-1810960D01*
X2236729Y-1810960D02*
X2217682Y-1820484D01*
X2217682Y-1820484D02*
X2198634Y-1820484D01*
X2198634Y-1820484D02*
X2179587Y-1810960D01*
X2179587Y-1810960D02*
X2170063Y-1801436D01*
X2170063Y-1801436D02*
X2160539Y-1782388D01*
X2160539Y-1782388D02*
X2151015Y-1744293D01*
X2151015Y-1744293D02*
X2151015Y-1696674D01*
X2151015Y-1696674D02*
X2160539Y-1658579D01*
X2160539Y-1658579D02*
X2170063Y-1639531D01*
X2170063Y-1639531D02*
X2179587Y-1630008D01*
X2179587Y-1630008D02*
X2198634Y-1620484D01*
X2351015Y-1801436D02*
X2360539Y-1810960D01*
X2360539Y-1810960D02*
X2351015Y-1820484D01*
X2351015Y-1820484D02*
X2341491Y-1810960D01*
X2341491Y-1810960D02*
X2351015Y-1801436D01*
X2351015Y-1801436D02*
X2351015Y-1820484D01*
X2551015Y-1820484D02*
X2436729Y-1820484D01*
X2493872Y-1820484D02*
X2493872Y-1620484D01*
X2493872Y-1620484D02*
X2474825Y-1649055D01*
X2474825Y-1649055D02*
X2455777Y-1668103D01*
X2455777Y-1668103D02*
X2436729Y-1677627D01*
X2627206Y-1639531D02*
X2636729Y-1630008D01*
X2636729Y-1630008D02*
X2655777Y-1620484D01*
X2655777Y-1620484D02*
X2703396Y-1620484D01*
X2703396Y-1620484D02*
X2722444Y-1630008D01*
X2722444Y-1630008D02*
X2731968Y-1639531D01*
X2731968Y-1639531D02*
X2741491Y-1658579D01*
X2741491Y-1658579D02*
X2741491Y-1677627D01*
X2741491Y-1677627D02*
X2731968Y-1706198D01*
X2731968Y-1706198D02*
X2617682Y-1820484D01*
X2617682Y-1820484D02*
X2741491Y-1820484D01*
X2912920Y-1620484D02*
X2874825Y-1620484D01*
X2874825Y-1620484D02*
X2855777Y-1630008D01*
X2855777Y-1630008D02*
X2846253Y-1639531D01*
X2846253Y-1639531D02*
X2827206Y-1668103D01*
X2827206Y-1668103D02*
X2817682Y-1706198D01*
X2817682Y-1706198D02*
X2817682Y-1782388D01*
X2817682Y-1782388D02*
X2827206Y-1801436D01*
X2827206Y-1801436D02*
X2836729Y-1810960D01*
X2836729Y-1810960D02*
X2855777Y-1820484D01*
X2855777Y-1820484D02*
X2893872Y-1820484D01*
X2893872Y-1820484D02*
X2912920Y-1810960D01*
X2912920Y-1810960D02*
X2922444Y-1801436D01*
X2922444Y-1801436D02*
X2931967Y-1782388D01*
X2931967Y-1782388D02*
X2931967Y-1734769D01*
X2931967Y-1734769D02*
X2922444Y-1715722D01*
X2922444Y-1715722D02*
X2912920Y-1706198D01*
X2912920Y-1706198D02*
X2893872Y-1696674D01*
X2893872Y-1696674D02*
X2855777Y-1696674D01*
X2855777Y-1696674D02*
X2836729Y-1706198D01*
X2836729Y-1706198D02*
X2827206Y-1715722D01*
X2827206Y-1715722D02*
X2817682Y-1734769D01*
X3055777Y-1620484D02*
X3074825Y-1620484D01*
X3074825Y-1620484D02*
X3093872Y-1630008D01*
X3093872Y-1630008D02*
X3103396Y-1639531D01*
X3103396Y-1639531D02*
X3112920Y-1658579D01*
X3112920Y-1658579D02*
X3122444Y-1696674D01*
X3122444Y-1696674D02*
X3122444Y-1744293D01*
X3122444Y-1744293D02*
X3112920Y-1782388D01*
X3112920Y-1782388D02*
X3103396Y-1801436D01*
X3103396Y-1801436D02*
X3093872Y-1810960D01*
X3093872Y-1810960D02*
X3074825Y-1820484D01*
X3074825Y-1820484D02*
X3055777Y-1820484D01*
X3055777Y-1820484D02*
X3036729Y-1810960D01*
X3036729Y-1810960D02*
X3027206Y-1801436D01*
X3027206Y-1801436D02*
X3017682Y-1782388D01*
X3017682Y-1782388D02*
X3008158Y-1744293D01*
X3008158Y-1744293D02*
X3008158Y-1696674D01*
X3008158Y-1696674D02*
X3017682Y-1658579D01*
X3017682Y-1658579D02*
X3027206Y-1639531D01*
X3027206Y-1639531D02*
X3036729Y-1630008D01*
X3036729Y-1630008D02*
X3055777Y-1620484D01*
X3198634Y-1620484D02*
X3198634Y-1658579D01*
X3274825Y-1620484D02*
X3274825Y-1658579D01*
X3570063Y-1896674D02*
X3560539Y-1887150D01*
X3560539Y-1887150D02*
X3541491Y-1858579D01*
X3541491Y-1858579D02*
X3531968Y-1839531D01*
X3531968Y-1839531D02*
X3522444Y-1810960D01*
X3522444Y-1810960D02*
X3512920Y-1763341D01*
X3512920Y-1763341D02*
X3512920Y-1725246D01*
X3512920Y-1725246D02*
X3522444Y-1677627D01*
X3522444Y-1677627D02*
X3531968Y-1649055D01*
X3531968Y-1649055D02*
X3541491Y-1630008D01*
X3541491Y-1630008D02*
X3560539Y-1601436D01*
X3560539Y-1601436D02*
X3570063Y-1591912D01*
X3731968Y-1687150D02*
X3731968Y-1820484D01*
X3684348Y-1610960D02*
X3636729Y-1753817D01*
X3636729Y-1753817D02*
X3760539Y-1753817D01*
X3989110Y-1820484D02*
X3989110Y-1620484D01*
X4074825Y-1820484D02*
X4074825Y-1715722D01*
X4074825Y-1715722D02*
X4065301Y-1696674D01*
X4065301Y-1696674D02*
X4046253Y-1687150D01*
X4046253Y-1687150D02*
X4017682Y-1687150D01*
X4017682Y-1687150D02*
X3998634Y-1696674D01*
X3998634Y-1696674D02*
X3989110Y-1706198D01*
X4198634Y-1820484D02*
X4179587Y-1810960D01*
X4179587Y-1810960D02*
X4170063Y-1801436D01*
X4170063Y-1801436D02*
X4160539Y-1782388D01*
X4160539Y-1782388D02*
X4160539Y-1725246D01*
X4160539Y-1725246D02*
X4170063Y-1706198D01*
X4170063Y-1706198D02*
X4179587Y-1696674D01*
X4179587Y-1696674D02*
X4198634Y-1687150D01*
X4198634Y-1687150D02*
X4227206Y-1687150D01*
X4227206Y-1687150D02*
X4246253Y-1696674D01*
X4246253Y-1696674D02*
X4255777Y-1706198D01*
X4255777Y-1706198D02*
X4265301Y-1725246D01*
X4265301Y-1725246D02*
X4265301Y-1782388D01*
X4265301Y-1782388D02*
X4255777Y-1801436D01*
X4255777Y-1801436D02*
X4246253Y-1810960D01*
X4246253Y-1810960D02*
X4227206Y-1820484D01*
X4227206Y-1820484D02*
X4198634Y-1820484D01*
X4379587Y-1820484D02*
X4360539Y-1810960D01*
X4360539Y-1810960D02*
X4351015Y-1791912D01*
X4351015Y-1791912D02*
X4351015Y-1620484D01*
X4531968Y-1810960D02*
X4512920Y-1820484D01*
X4512920Y-1820484D02*
X4474825Y-1820484D01*
X4474825Y-1820484D02*
X4455777Y-1810960D01*
X4455777Y-1810960D02*
X4446253Y-1791912D01*
X4446253Y-1791912D02*
X4446253Y-1715722D01*
X4446253Y-1715722D02*
X4455777Y-1696674D01*
X4455777Y-1696674D02*
X4474825Y-1687150D01*
X4474825Y-1687150D02*
X4512920Y-1687150D01*
X4512920Y-1687150D02*
X4531968Y-1696674D01*
X4531968Y-1696674D02*
X4541492Y-1715722D01*
X4541492Y-1715722D02*
X4541492Y-1734769D01*
X4541492Y-1734769D02*
X4446253Y-1753817D01*
X4617682Y-1810960D02*
X4636730Y-1820484D01*
X4636730Y-1820484D02*
X4674825Y-1820484D01*
X4674825Y-1820484D02*
X4693873Y-1810960D01*
X4693873Y-1810960D02*
X4703396Y-1791912D01*
X4703396Y-1791912D02*
X4703396Y-1782388D01*
X4703396Y-1782388D02*
X4693873Y-1763341D01*
X4693873Y-1763341D02*
X4674825Y-1753817D01*
X4674825Y-1753817D02*
X4646253Y-1753817D01*
X4646253Y-1753817D02*
X4627206Y-1744293D01*
X4627206Y-1744293D02*
X4617682Y-1725246D01*
X4617682Y-1725246D02*
X4617682Y-1715722D01*
X4617682Y-1715722D02*
X4627206Y-1696674D01*
X4627206Y-1696674D02*
X4646253Y-1687150D01*
X4646253Y-1687150D02*
X4674825Y-1687150D01*
X4674825Y-1687150D02*
X4693873Y-1696674D01*
X4770063Y-1896674D02*
X4779587Y-1887150D01*
X4779587Y-1887150D02*
X4798634Y-1858579D01*
X4798634Y-1858579D02*
X4808158Y-1839531D01*
X4808158Y-1839531D02*
X4817682Y-1810960D01*
X4817682Y-1810960D02*
X4827206Y-1763341D01*
X4827206Y-1763341D02*
X4827206Y-1725246D01*
X4827206Y-1725246D02*
X4817682Y-1677627D01*
X4817682Y-1677627D02*
X4808158Y-1649055D01*
X4808158Y-1649055D02*
X4798634Y-1630008D01*
X4798634Y-1630008D02*
X4779587Y-1601436D01*
X4779587Y-1601436D02*
X4770063Y-1591912D01*
M02*
