%TF.GenerationSoftware,KiCad,Pcbnew,8.0.3-8.0.3-0~ubuntu22.04.1*%
%TF.CreationDate,2024-09-16T11:35:50+02:00*%
%TF.ProjectId,FT600_RP2040,46543630-305f-4525-9032-3034302e6b69,rev?*%
%TF.SameCoordinates,PX7735940PY61c06a0*%
%TF.FileFunction,Paste,Top*%
%TF.FilePolarity,Positive*%
%FSLAX46Y46*%
G04 Gerber Fmt 4.6, Leading zero omitted, Abs format (unit mm)*
G04 Created by KiCad (PCBNEW 8.0.3-8.0.3-0~ubuntu22.04.1) date 2024-09-16 11:35:50*
%MOMM*%
%LPD*%
G01*
G04 APERTURE LIST*
G04 Aperture macros list*
%AMRoundRect*
0 Rectangle with rounded corners*
0 $1 Rounding radius*
0 $2 $3 $4 $5 $6 $7 $8 $9 X,Y pos of 4 corners*
0 Add a 4 corners polygon primitive as box body*
4,1,4,$2,$3,$4,$5,$6,$7,$8,$9,$2,$3,0*
0 Add four circle primitives for the rounded corners*
1,1,$1+$1,$2,$3*
1,1,$1+$1,$4,$5*
1,1,$1+$1,$6,$7*
1,1,$1+$1,$8,$9*
0 Add four rect primitives between the rounded corners*
20,1,$1+$1,$2,$3,$4,$5,0*
20,1,$1+$1,$4,$5,$6,$7,0*
20,1,$1+$1,$6,$7,$8,$9,0*
20,1,$1+$1,$8,$9,$2,$3,0*%
G04 Aperture macros list end*
%ADD10C,0.100000*%
%ADD11C,0.150000*%
%ADD12C,0.300000*%
%ADD13C,0.400000*%
%ADD14RoundRect,0.250000X0.325000X0.650000X-0.325000X0.650000X-0.325000X-0.650000X0.325000X-0.650000X0*%
%ADD15R,1.350000X0.400000*%
%ADD16R,1.900000X1.900000*%
%ADD17R,1.900000X1.800000*%
%ADD18R,1.600000X1.000000*%
%ADD19R,1.600000X2.100000*%
%ADD20R,1.900000X2.600000*%
%ADD21RoundRect,0.250000X0.625000X-0.312500X0.625000X0.312500X-0.625000X0.312500X-0.625000X-0.312500X0*%
%ADD22RoundRect,0.250000X0.650000X-0.325000X0.650000X0.325000X-0.650000X0.325000X-0.650000X-0.325000X0*%
%ADD23R,0.700000X4.000000*%
%ADD24R,3.200000X4.900000*%
%ADD25RoundRect,0.250000X-0.275000X-0.700000X0.275000X-0.700000X0.275000X0.700000X-0.275000X0.700000X0*%
%ADD26RoundRect,0.250000X0.312500X0.625000X-0.312500X0.625000X-0.312500X-0.625000X0.312500X-0.625000X0*%
%ADD27RoundRect,0.250000X-0.325000X-0.650000X0.325000X-0.650000X0.325000X0.650000X-0.325000X0.650000X0*%
%ADD28RoundRect,0.100000X-0.100000X0.637500X-0.100000X-0.637500X0.100000X-0.637500X0.100000X0.637500X0*%
%ADD29RoundRect,0.250000X0.700000X-0.275000X0.700000X0.275000X-0.700000X0.275000X-0.700000X-0.275000X0*%
%ADD30RoundRect,0.250000X-0.625000X0.312500X-0.625000X-0.312500X0.625000X-0.312500X0.625000X0.312500X0*%
%ADD31RoundRect,0.250000X-0.650000X0.325000X-0.650000X-0.325000X0.650000X-0.325000X0.650000X0.325000X0*%
%ADD32RoundRect,0.250000X-0.285000X-0.285000X0.285000X-0.285000X0.285000X0.285000X-0.285000X0.285000X0*%
%ADD33RoundRect,0.050000X-0.450000X-0.050000X0.450000X-0.050000X0.450000X0.050000X-0.450000X0.050000X0*%
%ADD34RoundRect,0.050000X-0.050000X-0.450000X0.050000X-0.450000X0.050000X0.450000X-0.050000X0.450000X0*%
%ADD35RoundRect,0.250000X-0.700000X0.275000X-0.700000X-0.275000X0.700000X-0.275000X0.700000X0.275000X0*%
G04 APERTURE END LIST*
D10*
D11*
X52002200Y-63507200D02*
X160002200Y-63507200D01*
X160002200Y-95507200D01*
X52002200Y-95507200D01*
X52002200Y-63507200D01*
D10*
D11*
X-115000000Y92500000D02*
X162002200Y92500000D01*
X162002200Y-97507200D01*
X-115000000Y-97507200D01*
X-115000000Y92500000D01*
D10*
D11*
X-113000000Y90500000D02*
X160002200Y90500000D01*
X160002200Y-95507200D01*
X-113000000Y-95507200D01*
X-113000000Y90500000D01*
D10*
D11*
X-65000000Y90500000D02*
X-65000000Y92500000D01*
D10*
D11*
X-15000000Y90500000D02*
X-15000000Y92500000D01*
D10*
D11*
X35000000Y90500000D02*
X35000000Y92500000D01*
D10*
D11*
X85000000Y90500000D02*
X85000000Y92500000D01*
D10*
D11*
X135000000Y90500000D02*
X135000000Y92500000D01*
D10*
D11*
X-88910840Y90906396D02*
X-89653697Y90906396D01*
X-89282269Y90906396D02*
X-89282269Y92206396D01*
X-89282269Y92206396D02*
X-89406078Y92020681D01*
X-89406078Y92020681D02*
X-89529888Y91896872D01*
X-89529888Y91896872D02*
X-89653697Y91834967D01*
D10*
D11*
X-39653697Y92082586D02*
X-39591793Y92144491D01*
X-39591793Y92144491D02*
X-39467983Y92206396D01*
X-39467983Y92206396D02*
X-39158459Y92206396D01*
X-39158459Y92206396D02*
X-39034650Y92144491D01*
X-39034650Y92144491D02*
X-38972745Y92082586D01*
X-38972745Y92082586D02*
X-38910840Y91958777D01*
X-38910840Y91958777D02*
X-38910840Y91834967D01*
X-38910840Y91834967D02*
X-38972745Y91649253D01*
X-38972745Y91649253D02*
X-39715602Y90906396D01*
X-39715602Y90906396D02*
X-38910840Y90906396D01*
D10*
D11*
X10284398Y92206396D02*
X11089160Y92206396D01*
X11089160Y92206396D02*
X10655826Y91711158D01*
X10655826Y91711158D02*
X10841541Y91711158D01*
X10841541Y91711158D02*
X10965350Y91649253D01*
X10965350Y91649253D02*
X11027255Y91587348D01*
X11027255Y91587348D02*
X11089160Y91463539D01*
X11089160Y91463539D02*
X11089160Y91154015D01*
X11089160Y91154015D02*
X11027255Y91030205D01*
X11027255Y91030205D02*
X10965350Y90968300D01*
X10965350Y90968300D02*
X10841541Y90906396D01*
X10841541Y90906396D02*
X10470112Y90906396D01*
X10470112Y90906396D02*
X10346303Y90968300D01*
X10346303Y90968300D02*
X10284398Y91030205D01*
D10*
D11*
X60965350Y91773062D02*
X60965350Y90906396D01*
X60655826Y92268300D02*
X60346303Y91339729D01*
X60346303Y91339729D02*
X61151064Y91339729D01*
D10*
D11*
X111027255Y92206396D02*
X110408207Y92206396D01*
X110408207Y92206396D02*
X110346303Y91587348D01*
X110346303Y91587348D02*
X110408207Y91649253D01*
X110408207Y91649253D02*
X110532017Y91711158D01*
X110532017Y91711158D02*
X110841541Y91711158D01*
X110841541Y91711158D02*
X110965350Y91649253D01*
X110965350Y91649253D02*
X111027255Y91587348D01*
X111027255Y91587348D02*
X111089160Y91463539D01*
X111089160Y91463539D02*
X111089160Y91154015D01*
X111089160Y91154015D02*
X111027255Y91030205D01*
X111027255Y91030205D02*
X110965350Y90968300D01*
X110965350Y90968300D02*
X110841541Y90906396D01*
X110841541Y90906396D02*
X110532017Y90906396D01*
X110532017Y90906396D02*
X110408207Y90968300D01*
X110408207Y90968300D02*
X110346303Y91030205D01*
D10*
D11*
X160965350Y92206396D02*
X160717731Y92206396D01*
X160717731Y92206396D02*
X160593922Y92144491D01*
X160593922Y92144491D02*
X160532017Y92082586D01*
X160532017Y92082586D02*
X160408207Y91896872D01*
X160408207Y91896872D02*
X160346303Y91649253D01*
X160346303Y91649253D02*
X160346303Y91154015D01*
X160346303Y91154015D02*
X160408207Y91030205D01*
X160408207Y91030205D02*
X160470112Y90968300D01*
X160470112Y90968300D02*
X160593922Y90906396D01*
X160593922Y90906396D02*
X160841541Y90906396D01*
X160841541Y90906396D02*
X160965350Y90968300D01*
X160965350Y90968300D02*
X161027255Y91030205D01*
X161027255Y91030205D02*
X161089160Y91154015D01*
X161089160Y91154015D02*
X161089160Y91463539D01*
X161089160Y91463539D02*
X161027255Y91587348D01*
X161027255Y91587348D02*
X160965350Y91649253D01*
X160965350Y91649253D02*
X160841541Y91711158D01*
X160841541Y91711158D02*
X160593922Y91711158D01*
X160593922Y91711158D02*
X160470112Y91649253D01*
X160470112Y91649253D02*
X160408207Y91587348D01*
X160408207Y91587348D02*
X160346303Y91463539D01*
D10*
D11*
X-65000000Y-95507200D02*
X-65000000Y-97507200D01*
D10*
D11*
X-15000000Y-95507200D02*
X-15000000Y-97507200D01*
D10*
D11*
X35000000Y-95507200D02*
X35000000Y-97507200D01*
D10*
D11*
X85000000Y-95507200D02*
X85000000Y-97507200D01*
D10*
D11*
X135000000Y-95507200D02*
X135000000Y-97507200D01*
D10*
D11*
X-88910840Y-97100804D02*
X-89653697Y-97100804D01*
X-89282269Y-97100804D02*
X-89282269Y-95800804D01*
X-89282269Y-95800804D02*
X-89406078Y-95986519D01*
X-89406078Y-95986519D02*
X-89529888Y-96110328D01*
X-89529888Y-96110328D02*
X-89653697Y-96172233D01*
D10*
D11*
X-39653697Y-95924614D02*
X-39591793Y-95862709D01*
X-39591793Y-95862709D02*
X-39467983Y-95800804D01*
X-39467983Y-95800804D02*
X-39158459Y-95800804D01*
X-39158459Y-95800804D02*
X-39034650Y-95862709D01*
X-39034650Y-95862709D02*
X-38972745Y-95924614D01*
X-38972745Y-95924614D02*
X-38910840Y-96048423D01*
X-38910840Y-96048423D02*
X-38910840Y-96172233D01*
X-38910840Y-96172233D02*
X-38972745Y-96357947D01*
X-38972745Y-96357947D02*
X-39715602Y-97100804D01*
X-39715602Y-97100804D02*
X-38910840Y-97100804D01*
D10*
D11*
X10284398Y-95800804D02*
X11089160Y-95800804D01*
X11089160Y-95800804D02*
X10655826Y-96296042D01*
X10655826Y-96296042D02*
X10841541Y-96296042D01*
X10841541Y-96296042D02*
X10965350Y-96357947D01*
X10965350Y-96357947D02*
X11027255Y-96419852D01*
X11027255Y-96419852D02*
X11089160Y-96543661D01*
X11089160Y-96543661D02*
X11089160Y-96853185D01*
X11089160Y-96853185D02*
X11027255Y-96976995D01*
X11027255Y-96976995D02*
X10965350Y-97038900D01*
X10965350Y-97038900D02*
X10841541Y-97100804D01*
X10841541Y-97100804D02*
X10470112Y-97100804D01*
X10470112Y-97100804D02*
X10346303Y-97038900D01*
X10346303Y-97038900D02*
X10284398Y-96976995D01*
D10*
D11*
X60965350Y-96234138D02*
X60965350Y-97100804D01*
X60655826Y-95738900D02*
X60346303Y-96667471D01*
X60346303Y-96667471D02*
X61151064Y-96667471D01*
D10*
D11*
X111027255Y-95800804D02*
X110408207Y-95800804D01*
X110408207Y-95800804D02*
X110346303Y-96419852D01*
X110346303Y-96419852D02*
X110408207Y-96357947D01*
X110408207Y-96357947D02*
X110532017Y-96296042D01*
X110532017Y-96296042D02*
X110841541Y-96296042D01*
X110841541Y-96296042D02*
X110965350Y-96357947D01*
X110965350Y-96357947D02*
X111027255Y-96419852D01*
X111027255Y-96419852D02*
X111089160Y-96543661D01*
X111089160Y-96543661D02*
X111089160Y-96853185D01*
X111089160Y-96853185D02*
X111027255Y-96976995D01*
X111027255Y-96976995D02*
X110965350Y-97038900D01*
X110965350Y-97038900D02*
X110841541Y-97100804D01*
X110841541Y-97100804D02*
X110532017Y-97100804D01*
X110532017Y-97100804D02*
X110408207Y-97038900D01*
X110408207Y-97038900D02*
X110346303Y-96976995D01*
D10*
D11*
X160965350Y-95800804D02*
X160717731Y-95800804D01*
X160717731Y-95800804D02*
X160593922Y-95862709D01*
X160593922Y-95862709D02*
X160532017Y-95924614D01*
X160532017Y-95924614D02*
X160408207Y-96110328D01*
X160408207Y-96110328D02*
X160346303Y-96357947D01*
X160346303Y-96357947D02*
X160346303Y-96853185D01*
X160346303Y-96853185D02*
X160408207Y-96976995D01*
X160408207Y-96976995D02*
X160470112Y-97038900D01*
X160470112Y-97038900D02*
X160593922Y-97100804D01*
X160593922Y-97100804D02*
X160841541Y-97100804D01*
X160841541Y-97100804D02*
X160965350Y-97038900D01*
X160965350Y-97038900D02*
X161027255Y-96976995D01*
X161027255Y-96976995D02*
X161089160Y-96853185D01*
X161089160Y-96853185D02*
X161089160Y-96543661D01*
X161089160Y-96543661D02*
X161027255Y-96419852D01*
X161027255Y-96419852D02*
X160965350Y-96357947D01*
X160965350Y-96357947D02*
X160841541Y-96296042D01*
X160841541Y-96296042D02*
X160593922Y-96296042D01*
X160593922Y-96296042D02*
X160470112Y-96357947D01*
X160470112Y-96357947D02*
X160408207Y-96419852D01*
X160408207Y-96419852D02*
X160346303Y-96543661D01*
D10*
D11*
X-115000000Y42500000D02*
X-113000000Y42500000D01*
D10*
D11*
X-115000000Y-7500000D02*
X-113000000Y-7500000D01*
D10*
D11*
X-115000000Y-57500000D02*
X-113000000Y-57500000D01*
D10*
D11*
X-114309524Y67277824D02*
X-113690477Y67277824D01*
X-114433334Y66906396D02*
X-114000001Y68206396D01*
X-114000001Y68206396D02*
X-113566667Y66906396D01*
D10*
D11*
X-113907143Y17587348D02*
X-113721429Y17525443D01*
X-113721429Y17525443D02*
X-113659524Y17463539D01*
X-113659524Y17463539D02*
X-113597620Y17339729D01*
X-113597620Y17339729D02*
X-113597620Y17154015D01*
X-113597620Y17154015D02*
X-113659524Y17030205D01*
X-113659524Y17030205D02*
X-113721429Y16968300D01*
X-113721429Y16968300D02*
X-113845239Y16906396D01*
X-113845239Y16906396D02*
X-114340477Y16906396D01*
X-114340477Y16906396D02*
X-114340477Y18206396D01*
X-114340477Y18206396D02*
X-113907143Y18206396D01*
X-113907143Y18206396D02*
X-113783334Y18144491D01*
X-113783334Y18144491D02*
X-113721429Y18082586D01*
X-113721429Y18082586D02*
X-113659524Y17958777D01*
X-113659524Y17958777D02*
X-113659524Y17834967D01*
X-113659524Y17834967D02*
X-113721429Y17711158D01*
X-113721429Y17711158D02*
X-113783334Y17649253D01*
X-113783334Y17649253D02*
X-113907143Y17587348D01*
X-113907143Y17587348D02*
X-114340477Y17587348D01*
D10*
D11*
X-113597620Y-32969795D02*
X-113659524Y-33031700D01*
X-113659524Y-33031700D02*
X-113845239Y-33093604D01*
X-113845239Y-33093604D02*
X-113969048Y-33093604D01*
X-113969048Y-33093604D02*
X-114154762Y-33031700D01*
X-114154762Y-33031700D02*
X-114278572Y-32907890D01*
X-114278572Y-32907890D02*
X-114340477Y-32784080D01*
X-114340477Y-32784080D02*
X-114402381Y-32536461D01*
X-114402381Y-32536461D02*
X-114402381Y-32350747D01*
X-114402381Y-32350747D02*
X-114340477Y-32103128D01*
X-114340477Y-32103128D02*
X-114278572Y-31979319D01*
X-114278572Y-31979319D02*
X-114154762Y-31855509D01*
X-114154762Y-31855509D02*
X-113969048Y-31793604D01*
X-113969048Y-31793604D02*
X-113845239Y-31793604D01*
X-113845239Y-31793604D02*
X-113659524Y-31855509D01*
X-113659524Y-31855509D02*
X-113597620Y-31917414D01*
D10*
D11*
X-114340477Y-83093604D02*
X-114340477Y-81793604D01*
X-114340477Y-81793604D02*
X-114030953Y-81793604D01*
X-114030953Y-81793604D02*
X-113845239Y-81855509D01*
X-113845239Y-81855509D02*
X-113721429Y-81979319D01*
X-113721429Y-81979319D02*
X-113659524Y-82103128D01*
X-113659524Y-82103128D02*
X-113597620Y-82350747D01*
X-113597620Y-82350747D02*
X-113597620Y-82536461D01*
X-113597620Y-82536461D02*
X-113659524Y-82784080D01*
X-113659524Y-82784080D02*
X-113721429Y-82907890D01*
X-113721429Y-82907890D02*
X-113845239Y-83031700D01*
X-113845239Y-83031700D02*
X-114030953Y-83093604D01*
X-114030953Y-83093604D02*
X-114340477Y-83093604D01*
D10*
D11*
X162002200Y42500000D02*
X160002200Y42500000D01*
D10*
D11*
X162002200Y-7500000D02*
X160002200Y-7500000D01*
D10*
D11*
X162002200Y-57500000D02*
X160002200Y-57500000D01*
D10*
D11*
X160692676Y67277824D02*
X161311723Y67277824D01*
X160568866Y66906396D02*
X161002199Y68206396D01*
X161002199Y68206396D02*
X161435533Y66906396D01*
D10*
D11*
X161095057Y17587348D02*
X161280771Y17525443D01*
X161280771Y17525443D02*
X161342676Y17463539D01*
X161342676Y17463539D02*
X161404580Y17339729D01*
X161404580Y17339729D02*
X161404580Y17154015D01*
X161404580Y17154015D02*
X161342676Y17030205D01*
X161342676Y17030205D02*
X161280771Y16968300D01*
X161280771Y16968300D02*
X161156961Y16906396D01*
X161156961Y16906396D02*
X160661723Y16906396D01*
X160661723Y16906396D02*
X160661723Y18206396D01*
X160661723Y18206396D02*
X161095057Y18206396D01*
X161095057Y18206396D02*
X161218866Y18144491D01*
X161218866Y18144491D02*
X161280771Y18082586D01*
X161280771Y18082586D02*
X161342676Y17958777D01*
X161342676Y17958777D02*
X161342676Y17834967D01*
X161342676Y17834967D02*
X161280771Y17711158D01*
X161280771Y17711158D02*
X161218866Y17649253D01*
X161218866Y17649253D02*
X161095057Y17587348D01*
X161095057Y17587348D02*
X160661723Y17587348D01*
D10*
D11*
X161404580Y-32969795D02*
X161342676Y-33031700D01*
X161342676Y-33031700D02*
X161156961Y-33093604D01*
X161156961Y-33093604D02*
X161033152Y-33093604D01*
X161033152Y-33093604D02*
X160847438Y-33031700D01*
X160847438Y-33031700D02*
X160723628Y-32907890D01*
X160723628Y-32907890D02*
X160661723Y-32784080D01*
X160661723Y-32784080D02*
X160599819Y-32536461D01*
X160599819Y-32536461D02*
X160599819Y-32350747D01*
X160599819Y-32350747D02*
X160661723Y-32103128D01*
X160661723Y-32103128D02*
X160723628Y-31979319D01*
X160723628Y-31979319D02*
X160847438Y-31855509D01*
X160847438Y-31855509D02*
X161033152Y-31793604D01*
X161033152Y-31793604D02*
X161156961Y-31793604D01*
X161156961Y-31793604D02*
X161342676Y-31855509D01*
X161342676Y-31855509D02*
X161404580Y-31917414D01*
D10*
D11*
X160661723Y-83093604D02*
X160661723Y-81793604D01*
X160661723Y-81793604D02*
X160971247Y-81793604D01*
X160971247Y-81793604D02*
X161156961Y-81855509D01*
X161156961Y-81855509D02*
X161280771Y-81979319D01*
X161280771Y-81979319D02*
X161342676Y-82103128D01*
X161342676Y-82103128D02*
X161404580Y-82350747D01*
X161404580Y-82350747D02*
X161404580Y-82536461D01*
X161404580Y-82536461D02*
X161342676Y-82784080D01*
X161342676Y-82784080D02*
X161280771Y-82907890D01*
X161280771Y-82907890D02*
X161156961Y-83031700D01*
X161156961Y-83031700D02*
X160971247Y-83093604D01*
X160971247Y-83093604D02*
X160661723Y-83093604D01*
D10*
D11*
X75458026Y-91293328D02*
X75458026Y-89793328D01*
X75458026Y-89793328D02*
X75815169Y-89793328D01*
X75815169Y-89793328D02*
X76029455Y-89864757D01*
X76029455Y-89864757D02*
X76172312Y-90007614D01*
X76172312Y-90007614D02*
X76243741Y-90150471D01*
X76243741Y-90150471D02*
X76315169Y-90436185D01*
X76315169Y-90436185D02*
X76315169Y-90650471D01*
X76315169Y-90650471D02*
X76243741Y-90936185D01*
X76243741Y-90936185D02*
X76172312Y-91079042D01*
X76172312Y-91079042D02*
X76029455Y-91221900D01*
X76029455Y-91221900D02*
X75815169Y-91293328D01*
X75815169Y-91293328D02*
X75458026Y-91293328D01*
X77600884Y-91293328D02*
X77600884Y-90507614D01*
X77600884Y-90507614D02*
X77529455Y-90364757D01*
X77529455Y-90364757D02*
X77386598Y-90293328D01*
X77386598Y-90293328D02*
X77100884Y-90293328D01*
X77100884Y-90293328D02*
X76958026Y-90364757D01*
X77600884Y-91221900D02*
X77458026Y-91293328D01*
X77458026Y-91293328D02*
X77100884Y-91293328D01*
X77100884Y-91293328D02*
X76958026Y-91221900D01*
X76958026Y-91221900D02*
X76886598Y-91079042D01*
X76886598Y-91079042D02*
X76886598Y-90936185D01*
X76886598Y-90936185D02*
X76958026Y-90793328D01*
X76958026Y-90793328D02*
X77100884Y-90721900D01*
X77100884Y-90721900D02*
X77458026Y-90721900D01*
X77458026Y-90721900D02*
X77600884Y-90650471D01*
X78100884Y-90293328D02*
X78672312Y-90293328D01*
X78315169Y-89793328D02*
X78315169Y-91079042D01*
X78315169Y-91079042D02*
X78386598Y-91221900D01*
X78386598Y-91221900D02*
X78529455Y-91293328D01*
X78529455Y-91293328D02*
X78672312Y-91293328D01*
X79743741Y-91221900D02*
X79600884Y-91293328D01*
X79600884Y-91293328D02*
X79315170Y-91293328D01*
X79315170Y-91293328D02*
X79172312Y-91221900D01*
X79172312Y-91221900D02*
X79100884Y-91079042D01*
X79100884Y-91079042D02*
X79100884Y-90507614D01*
X79100884Y-90507614D02*
X79172312Y-90364757D01*
X79172312Y-90364757D02*
X79315170Y-90293328D01*
X79315170Y-90293328D02*
X79600884Y-90293328D01*
X79600884Y-90293328D02*
X79743741Y-90364757D01*
X79743741Y-90364757D02*
X79815170Y-90507614D01*
X79815170Y-90507614D02*
X79815170Y-90650471D01*
X79815170Y-90650471D02*
X79100884Y-90793328D01*
X80458026Y-91150471D02*
X80529455Y-91221900D01*
X80529455Y-91221900D02*
X80458026Y-91293328D01*
X80458026Y-91293328D02*
X80386598Y-91221900D01*
X80386598Y-91221900D02*
X80458026Y-91150471D01*
X80458026Y-91150471D02*
X80458026Y-91293328D01*
X80458026Y-90364757D02*
X80529455Y-90436185D01*
X80529455Y-90436185D02*
X80458026Y-90507614D01*
X80458026Y-90507614D02*
X80386598Y-90436185D01*
X80386598Y-90436185D02*
X80458026Y-90364757D01*
X80458026Y-90364757D02*
X80458026Y-90507614D01*
D10*
D11*
X52002200Y-92007200D02*
X160002200Y-92007200D01*
D10*
D11*
X53458026Y-94093328D02*
X53458026Y-92593328D01*
X54315169Y-94093328D02*
X53672312Y-93236185D01*
X54315169Y-92593328D02*
X53458026Y-93450471D01*
X54958026Y-94093328D02*
X54958026Y-93093328D01*
X54958026Y-92593328D02*
X54886598Y-92664757D01*
X54886598Y-92664757D02*
X54958026Y-92736185D01*
X54958026Y-92736185D02*
X55029455Y-92664757D01*
X55029455Y-92664757D02*
X54958026Y-92593328D01*
X54958026Y-92593328D02*
X54958026Y-92736185D01*
X56529455Y-93950471D02*
X56458027Y-94021900D01*
X56458027Y-94021900D02*
X56243741Y-94093328D01*
X56243741Y-94093328D02*
X56100884Y-94093328D01*
X56100884Y-94093328D02*
X55886598Y-94021900D01*
X55886598Y-94021900D02*
X55743741Y-93879042D01*
X55743741Y-93879042D02*
X55672312Y-93736185D01*
X55672312Y-93736185D02*
X55600884Y-93450471D01*
X55600884Y-93450471D02*
X55600884Y-93236185D01*
X55600884Y-93236185D02*
X55672312Y-92950471D01*
X55672312Y-92950471D02*
X55743741Y-92807614D01*
X55743741Y-92807614D02*
X55886598Y-92664757D01*
X55886598Y-92664757D02*
X56100884Y-92593328D01*
X56100884Y-92593328D02*
X56243741Y-92593328D01*
X56243741Y-92593328D02*
X56458027Y-92664757D01*
X56458027Y-92664757D02*
X56529455Y-92736185D01*
X57815170Y-94093328D02*
X57815170Y-93307614D01*
X57815170Y-93307614D02*
X57743741Y-93164757D01*
X57743741Y-93164757D02*
X57600884Y-93093328D01*
X57600884Y-93093328D02*
X57315170Y-93093328D01*
X57315170Y-93093328D02*
X57172312Y-93164757D01*
X57815170Y-94021900D02*
X57672312Y-94093328D01*
X57672312Y-94093328D02*
X57315170Y-94093328D01*
X57315170Y-94093328D02*
X57172312Y-94021900D01*
X57172312Y-94021900D02*
X57100884Y-93879042D01*
X57100884Y-93879042D02*
X57100884Y-93736185D01*
X57100884Y-93736185D02*
X57172312Y-93593328D01*
X57172312Y-93593328D02*
X57315170Y-93521900D01*
X57315170Y-93521900D02*
X57672312Y-93521900D01*
X57672312Y-93521900D02*
X57815170Y-93450471D01*
X59172313Y-94093328D02*
X59172313Y-92593328D01*
X59172313Y-94021900D02*
X59029455Y-94093328D01*
X59029455Y-94093328D02*
X58743741Y-94093328D01*
X58743741Y-94093328D02*
X58600884Y-94021900D01*
X58600884Y-94021900D02*
X58529455Y-93950471D01*
X58529455Y-93950471D02*
X58458027Y-93807614D01*
X58458027Y-93807614D02*
X58458027Y-93379042D01*
X58458027Y-93379042D02*
X58529455Y-93236185D01*
X58529455Y-93236185D02*
X58600884Y-93164757D01*
X58600884Y-93164757D02*
X58743741Y-93093328D01*
X58743741Y-93093328D02*
X59029455Y-93093328D01*
X59029455Y-93093328D02*
X59172313Y-93164757D01*
X61029455Y-93307614D02*
X61529455Y-93307614D01*
X61743741Y-94093328D02*
X61029455Y-94093328D01*
X61029455Y-94093328D02*
X61029455Y-92593328D01*
X61029455Y-92593328D02*
X61743741Y-92593328D01*
X62386598Y-93950471D02*
X62458027Y-94021900D01*
X62458027Y-94021900D02*
X62386598Y-94093328D01*
X62386598Y-94093328D02*
X62315170Y-94021900D01*
X62315170Y-94021900D02*
X62386598Y-93950471D01*
X62386598Y-93950471D02*
X62386598Y-94093328D01*
X63100884Y-94093328D02*
X63100884Y-92593328D01*
X63100884Y-92593328D02*
X63458027Y-92593328D01*
X63458027Y-92593328D02*
X63672313Y-92664757D01*
X63672313Y-92664757D02*
X63815170Y-92807614D01*
X63815170Y-92807614D02*
X63886599Y-92950471D01*
X63886599Y-92950471D02*
X63958027Y-93236185D01*
X63958027Y-93236185D02*
X63958027Y-93450471D01*
X63958027Y-93450471D02*
X63886599Y-93736185D01*
X63886599Y-93736185D02*
X63815170Y-93879042D01*
X63815170Y-93879042D02*
X63672313Y-94021900D01*
X63672313Y-94021900D02*
X63458027Y-94093328D01*
X63458027Y-94093328D02*
X63100884Y-94093328D01*
X64600884Y-93950471D02*
X64672313Y-94021900D01*
X64672313Y-94021900D02*
X64600884Y-94093328D01*
X64600884Y-94093328D02*
X64529456Y-94021900D01*
X64529456Y-94021900D02*
X64600884Y-93950471D01*
X64600884Y-93950471D02*
X64600884Y-94093328D01*
X65243742Y-93664757D02*
X65958028Y-93664757D01*
X65100885Y-94093328D02*
X65600885Y-92593328D01*
X65600885Y-92593328D02*
X66100885Y-94093328D01*
X66600884Y-93950471D02*
X66672313Y-94021900D01*
X66672313Y-94021900D02*
X66600884Y-94093328D01*
X66600884Y-94093328D02*
X66529456Y-94021900D01*
X66529456Y-94021900D02*
X66600884Y-93950471D01*
X66600884Y-93950471D02*
X66600884Y-94093328D01*
X68672313Y-93236185D02*
X68529456Y-93164757D01*
X68529456Y-93164757D02*
X68458027Y-93093328D01*
X68458027Y-93093328D02*
X68386599Y-92950471D01*
X68386599Y-92950471D02*
X68386599Y-92879042D01*
X68386599Y-92879042D02*
X68458027Y-92736185D01*
X68458027Y-92736185D02*
X68529456Y-92664757D01*
X68529456Y-92664757D02*
X68672313Y-92593328D01*
X68672313Y-92593328D02*
X68958027Y-92593328D01*
X68958027Y-92593328D02*
X69100885Y-92664757D01*
X69100885Y-92664757D02*
X69172313Y-92736185D01*
X69172313Y-92736185D02*
X69243742Y-92879042D01*
X69243742Y-92879042D02*
X69243742Y-92950471D01*
X69243742Y-92950471D02*
X69172313Y-93093328D01*
X69172313Y-93093328D02*
X69100885Y-93164757D01*
X69100885Y-93164757D02*
X68958027Y-93236185D01*
X68958027Y-93236185D02*
X68672313Y-93236185D01*
X68672313Y-93236185D02*
X68529456Y-93307614D01*
X68529456Y-93307614D02*
X68458027Y-93379042D01*
X68458027Y-93379042D02*
X68386599Y-93521900D01*
X68386599Y-93521900D02*
X68386599Y-93807614D01*
X68386599Y-93807614D02*
X68458027Y-93950471D01*
X68458027Y-93950471D02*
X68529456Y-94021900D01*
X68529456Y-94021900D02*
X68672313Y-94093328D01*
X68672313Y-94093328D02*
X68958027Y-94093328D01*
X68958027Y-94093328D02*
X69100885Y-94021900D01*
X69100885Y-94021900D02*
X69172313Y-93950471D01*
X69172313Y-93950471D02*
X69243742Y-93807614D01*
X69243742Y-93807614D02*
X69243742Y-93521900D01*
X69243742Y-93521900D02*
X69172313Y-93379042D01*
X69172313Y-93379042D02*
X69100885Y-93307614D01*
X69100885Y-93307614D02*
X68958027Y-93236185D01*
X69886598Y-93950471D02*
X69958027Y-94021900D01*
X69958027Y-94021900D02*
X69886598Y-94093328D01*
X69886598Y-94093328D02*
X69815170Y-94021900D01*
X69815170Y-94021900D02*
X69886598Y-93950471D01*
X69886598Y-93950471D02*
X69886598Y-94093328D01*
X70886599Y-92593328D02*
X71029456Y-92593328D01*
X71029456Y-92593328D02*
X71172313Y-92664757D01*
X71172313Y-92664757D02*
X71243742Y-92736185D01*
X71243742Y-92736185D02*
X71315170Y-92879042D01*
X71315170Y-92879042D02*
X71386599Y-93164757D01*
X71386599Y-93164757D02*
X71386599Y-93521900D01*
X71386599Y-93521900D02*
X71315170Y-93807614D01*
X71315170Y-93807614D02*
X71243742Y-93950471D01*
X71243742Y-93950471D02*
X71172313Y-94021900D01*
X71172313Y-94021900D02*
X71029456Y-94093328D01*
X71029456Y-94093328D02*
X70886599Y-94093328D01*
X70886599Y-94093328D02*
X70743742Y-94021900D01*
X70743742Y-94021900D02*
X70672313Y-93950471D01*
X70672313Y-93950471D02*
X70600884Y-93807614D01*
X70600884Y-93807614D02*
X70529456Y-93521900D01*
X70529456Y-93521900D02*
X70529456Y-93164757D01*
X70529456Y-93164757D02*
X70600884Y-92879042D01*
X70600884Y-92879042D02*
X70672313Y-92736185D01*
X70672313Y-92736185D02*
X70743742Y-92664757D01*
X70743742Y-92664757D02*
X70886599Y-92593328D01*
X72029455Y-93950471D02*
X72100884Y-94021900D01*
X72100884Y-94021900D02*
X72029455Y-94093328D01*
X72029455Y-94093328D02*
X71958027Y-94021900D01*
X71958027Y-94021900D02*
X72029455Y-93950471D01*
X72029455Y-93950471D02*
X72029455Y-94093328D01*
X72600884Y-92593328D02*
X73529456Y-92593328D01*
X73529456Y-92593328D02*
X73029456Y-93164757D01*
X73029456Y-93164757D02*
X73243741Y-93164757D01*
X73243741Y-93164757D02*
X73386599Y-93236185D01*
X73386599Y-93236185D02*
X73458027Y-93307614D01*
X73458027Y-93307614D02*
X73529456Y-93450471D01*
X73529456Y-93450471D02*
X73529456Y-93807614D01*
X73529456Y-93807614D02*
X73458027Y-93950471D01*
X73458027Y-93950471D02*
X73386599Y-94021900D01*
X73386599Y-94021900D02*
X73243741Y-94093328D01*
X73243741Y-94093328D02*
X72815170Y-94093328D01*
X72815170Y-94093328D02*
X72672313Y-94021900D01*
X72672313Y-94021900D02*
X72600884Y-93950471D01*
D10*
D11*
X52002200Y-89007200D02*
X160002200Y-89007200D01*
D10*
D12*
X139413853Y-91285528D02*
X138913853Y-90571242D01*
X138556710Y-91285528D02*
X138556710Y-89785528D01*
X138556710Y-89785528D02*
X139128139Y-89785528D01*
X139128139Y-89785528D02*
X139270996Y-89856957D01*
X139270996Y-89856957D02*
X139342425Y-89928385D01*
X139342425Y-89928385D02*
X139413853Y-90071242D01*
X139413853Y-90071242D02*
X139413853Y-90285528D01*
X139413853Y-90285528D02*
X139342425Y-90428385D01*
X139342425Y-90428385D02*
X139270996Y-90499814D01*
X139270996Y-90499814D02*
X139128139Y-90571242D01*
X139128139Y-90571242D02*
X138556710Y-90571242D01*
X140628139Y-91214100D02*
X140485282Y-91285528D01*
X140485282Y-91285528D02*
X140199568Y-91285528D01*
X140199568Y-91285528D02*
X140056710Y-91214100D01*
X140056710Y-91214100D02*
X139985282Y-91071242D01*
X139985282Y-91071242D02*
X139985282Y-90499814D01*
X139985282Y-90499814D02*
X140056710Y-90356957D01*
X140056710Y-90356957D02*
X140199568Y-90285528D01*
X140199568Y-90285528D02*
X140485282Y-90285528D01*
X140485282Y-90285528D02*
X140628139Y-90356957D01*
X140628139Y-90356957D02*
X140699568Y-90499814D01*
X140699568Y-90499814D02*
X140699568Y-90642671D01*
X140699568Y-90642671D02*
X139985282Y-90785528D01*
X141199567Y-90285528D02*
X141556710Y-91285528D01*
X141556710Y-91285528D02*
X141913853Y-90285528D01*
X142485281Y-91142671D02*
X142556710Y-91214100D01*
X142556710Y-91214100D02*
X142485281Y-91285528D01*
X142485281Y-91285528D02*
X142413853Y-91214100D01*
X142413853Y-91214100D02*
X142485281Y-91142671D01*
X142485281Y-91142671D02*
X142485281Y-91285528D01*
X142485281Y-90356957D02*
X142556710Y-90428385D01*
X142556710Y-90428385D02*
X142485281Y-90499814D01*
X142485281Y-90499814D02*
X142413853Y-90428385D01*
X142413853Y-90428385D02*
X142485281Y-90356957D01*
X142485281Y-90356957D02*
X142485281Y-90499814D01*
D10*
D11*
X53386598Y-91221900D02*
X53600884Y-91293328D01*
X53600884Y-91293328D02*
X53958026Y-91293328D01*
X53958026Y-91293328D02*
X54100884Y-91221900D01*
X54100884Y-91221900D02*
X54172312Y-91150471D01*
X54172312Y-91150471D02*
X54243741Y-91007614D01*
X54243741Y-91007614D02*
X54243741Y-90864757D01*
X54243741Y-90864757D02*
X54172312Y-90721900D01*
X54172312Y-90721900D02*
X54100884Y-90650471D01*
X54100884Y-90650471D02*
X53958026Y-90579042D01*
X53958026Y-90579042D02*
X53672312Y-90507614D01*
X53672312Y-90507614D02*
X53529455Y-90436185D01*
X53529455Y-90436185D02*
X53458026Y-90364757D01*
X53458026Y-90364757D02*
X53386598Y-90221900D01*
X53386598Y-90221900D02*
X53386598Y-90079042D01*
X53386598Y-90079042D02*
X53458026Y-89936185D01*
X53458026Y-89936185D02*
X53529455Y-89864757D01*
X53529455Y-89864757D02*
X53672312Y-89793328D01*
X53672312Y-89793328D02*
X54029455Y-89793328D01*
X54029455Y-89793328D02*
X54243741Y-89864757D01*
X54886597Y-91293328D02*
X54886597Y-90293328D01*
X54886597Y-89793328D02*
X54815169Y-89864757D01*
X54815169Y-89864757D02*
X54886597Y-89936185D01*
X54886597Y-89936185D02*
X54958026Y-89864757D01*
X54958026Y-89864757D02*
X54886597Y-89793328D01*
X54886597Y-89793328D02*
X54886597Y-89936185D01*
X55458026Y-90293328D02*
X56243741Y-90293328D01*
X56243741Y-90293328D02*
X55458026Y-91293328D01*
X55458026Y-91293328D02*
X56243741Y-91293328D01*
X57386598Y-91221900D02*
X57243741Y-91293328D01*
X57243741Y-91293328D02*
X56958027Y-91293328D01*
X56958027Y-91293328D02*
X56815169Y-91221900D01*
X56815169Y-91221900D02*
X56743741Y-91079042D01*
X56743741Y-91079042D02*
X56743741Y-90507614D01*
X56743741Y-90507614D02*
X56815169Y-90364757D01*
X56815169Y-90364757D02*
X56958027Y-90293328D01*
X56958027Y-90293328D02*
X57243741Y-90293328D01*
X57243741Y-90293328D02*
X57386598Y-90364757D01*
X57386598Y-90364757D02*
X57458027Y-90507614D01*
X57458027Y-90507614D02*
X57458027Y-90650471D01*
X57458027Y-90650471D02*
X56743741Y-90793328D01*
X58100883Y-91150471D02*
X58172312Y-91221900D01*
X58172312Y-91221900D02*
X58100883Y-91293328D01*
X58100883Y-91293328D02*
X58029455Y-91221900D01*
X58029455Y-91221900D02*
X58100883Y-91150471D01*
X58100883Y-91150471D02*
X58100883Y-91293328D01*
X58100883Y-90364757D02*
X58172312Y-90436185D01*
X58172312Y-90436185D02*
X58100883Y-90507614D01*
X58100883Y-90507614D02*
X58029455Y-90436185D01*
X58029455Y-90436185D02*
X58100883Y-90364757D01*
X58100883Y-90364757D02*
X58100883Y-90507614D01*
X59886598Y-90864757D02*
X60600884Y-90864757D01*
X59743741Y-91293328D02*
X60243741Y-89793328D01*
X60243741Y-89793328D02*
X60743741Y-91293328D01*
X61886598Y-90293328D02*
X61886598Y-91293328D01*
X61529455Y-89721900D02*
X61172312Y-90793328D01*
X61172312Y-90793328D02*
X62100883Y-90793328D01*
D10*
D11*
X138458026Y-94093328D02*
X138458026Y-92593328D01*
X139815170Y-94093328D02*
X139815170Y-92593328D01*
X139815170Y-94021900D02*
X139672312Y-94093328D01*
X139672312Y-94093328D02*
X139386598Y-94093328D01*
X139386598Y-94093328D02*
X139243741Y-94021900D01*
X139243741Y-94021900D02*
X139172312Y-93950471D01*
X139172312Y-93950471D02*
X139100884Y-93807614D01*
X139100884Y-93807614D02*
X139100884Y-93379042D01*
X139100884Y-93379042D02*
X139172312Y-93236185D01*
X139172312Y-93236185D02*
X139243741Y-93164757D01*
X139243741Y-93164757D02*
X139386598Y-93093328D01*
X139386598Y-93093328D02*
X139672312Y-93093328D01*
X139672312Y-93093328D02*
X139815170Y-93164757D01*
X140529455Y-93950471D02*
X140600884Y-94021900D01*
X140600884Y-94021900D02*
X140529455Y-94093328D01*
X140529455Y-94093328D02*
X140458027Y-94021900D01*
X140458027Y-94021900D02*
X140529455Y-93950471D01*
X140529455Y-93950471D02*
X140529455Y-94093328D01*
X140529455Y-93164757D02*
X140600884Y-93236185D01*
X140600884Y-93236185D02*
X140529455Y-93307614D01*
X140529455Y-93307614D02*
X140458027Y-93236185D01*
X140458027Y-93236185D02*
X140529455Y-93164757D01*
X140529455Y-93164757D02*
X140529455Y-93307614D01*
X143172313Y-94093328D02*
X142315170Y-94093328D01*
X142743741Y-94093328D02*
X142743741Y-92593328D01*
X142743741Y-92593328D02*
X142600884Y-92807614D01*
X142600884Y-92807614D02*
X142458027Y-92950471D01*
X142458027Y-92950471D02*
X142315170Y-93021900D01*
X144886598Y-92521900D02*
X143600884Y-94450471D01*
X146172313Y-94093328D02*
X145315170Y-94093328D01*
X145743741Y-94093328D02*
X145743741Y-92593328D01*
X145743741Y-92593328D02*
X145600884Y-92807614D01*
X145600884Y-92807614D02*
X145458027Y-92950471D01*
X145458027Y-92950471D02*
X145315170Y-93021900D01*
D10*
D11*
X52002200Y-85007200D02*
X160002200Y-85007200D01*
D10*
D13*
X53693928Y-85711638D02*
X54836785Y-85711638D01*
X54015357Y-87711638D02*
X54265357Y-85711638D01*
X55253452Y-87711638D02*
X55420119Y-86378304D01*
X55503452Y-85711638D02*
X55396309Y-85806876D01*
X55396309Y-85806876D02*
X55479643Y-85902114D01*
X55479643Y-85902114D02*
X55586786Y-85806876D01*
X55586786Y-85806876D02*
X55503452Y-85711638D01*
X55503452Y-85711638D02*
X55479643Y-85902114D01*
X56086786Y-86378304D02*
X56848690Y-86378304D01*
X56455833Y-85711638D02*
X56241548Y-87425923D01*
X56241548Y-87425923D02*
X56312976Y-87616400D01*
X56312976Y-87616400D02*
X56491548Y-87711638D01*
X56491548Y-87711638D02*
X56682024Y-87711638D01*
X57634405Y-87711638D02*
X57455833Y-87616400D01*
X57455833Y-87616400D02*
X57384405Y-87425923D01*
X57384405Y-87425923D02*
X57598690Y-85711638D01*
X59170119Y-87616400D02*
X58967738Y-87711638D01*
X58967738Y-87711638D02*
X58586785Y-87711638D01*
X58586785Y-87711638D02*
X58408214Y-87616400D01*
X58408214Y-87616400D02*
X58336785Y-87425923D01*
X58336785Y-87425923D02*
X58432024Y-86664019D01*
X58432024Y-86664019D02*
X58551071Y-86473542D01*
X58551071Y-86473542D02*
X58753452Y-86378304D01*
X58753452Y-86378304D02*
X59134404Y-86378304D01*
X59134404Y-86378304D02*
X59312976Y-86473542D01*
X59312976Y-86473542D02*
X59384404Y-86664019D01*
X59384404Y-86664019D02*
X59360595Y-86854495D01*
X59360595Y-86854495D02*
X58384404Y-87044971D01*
X60134405Y-87521161D02*
X60217738Y-87616400D01*
X60217738Y-87616400D02*
X60110595Y-87711638D01*
X60110595Y-87711638D02*
X60027262Y-87616400D01*
X60027262Y-87616400D02*
X60134405Y-87521161D01*
X60134405Y-87521161D02*
X60110595Y-87711638D01*
X60265357Y-86473542D02*
X60348690Y-86568780D01*
X60348690Y-86568780D02*
X60241548Y-86664019D01*
X60241548Y-86664019D02*
X60158214Y-86568780D01*
X60158214Y-86568780D02*
X60265357Y-86473542D01*
X60265357Y-86473542D02*
X60241548Y-86664019D01*
D10*
D11*
X53958026Y-83107614D02*
X53458026Y-83107614D01*
X53458026Y-83893328D02*
X53458026Y-82393328D01*
X53458026Y-82393328D02*
X54172312Y-82393328D01*
X54743740Y-83893328D02*
X54743740Y-82893328D01*
X54743740Y-82393328D02*
X54672312Y-82464757D01*
X54672312Y-82464757D02*
X54743740Y-82536185D01*
X54743740Y-82536185D02*
X54815169Y-82464757D01*
X54815169Y-82464757D02*
X54743740Y-82393328D01*
X54743740Y-82393328D02*
X54743740Y-82536185D01*
X55672312Y-83893328D02*
X55529455Y-83821900D01*
X55529455Y-83821900D02*
X55458026Y-83679042D01*
X55458026Y-83679042D02*
X55458026Y-82393328D01*
X56815169Y-83821900D02*
X56672312Y-83893328D01*
X56672312Y-83893328D02*
X56386598Y-83893328D01*
X56386598Y-83893328D02*
X56243740Y-83821900D01*
X56243740Y-83821900D02*
X56172312Y-83679042D01*
X56172312Y-83679042D02*
X56172312Y-83107614D01*
X56172312Y-83107614D02*
X56243740Y-82964757D01*
X56243740Y-82964757D02*
X56386598Y-82893328D01*
X56386598Y-82893328D02*
X56672312Y-82893328D01*
X56672312Y-82893328D02*
X56815169Y-82964757D01*
X56815169Y-82964757D02*
X56886598Y-83107614D01*
X56886598Y-83107614D02*
X56886598Y-83250471D01*
X56886598Y-83250471D02*
X56172312Y-83393328D01*
X57529454Y-83750471D02*
X57600883Y-83821900D01*
X57600883Y-83821900D02*
X57529454Y-83893328D01*
X57529454Y-83893328D02*
X57458026Y-83821900D01*
X57458026Y-83821900D02*
X57529454Y-83750471D01*
X57529454Y-83750471D02*
X57529454Y-83893328D01*
X57529454Y-82964757D02*
X57600883Y-83036185D01*
X57600883Y-83036185D02*
X57529454Y-83107614D01*
X57529454Y-83107614D02*
X57458026Y-83036185D01*
X57458026Y-83036185D02*
X57529454Y-82964757D01*
X57529454Y-82964757D02*
X57529454Y-83107614D01*
X59886597Y-83107614D02*
X59386597Y-83107614D01*
X59386597Y-83893328D02*
X59386597Y-82393328D01*
X59386597Y-82393328D02*
X60100883Y-82393328D01*
X60458026Y-82393328D02*
X61315169Y-82393328D01*
X60886597Y-83893328D02*
X60886597Y-82393328D01*
X62458026Y-82393328D02*
X62172311Y-82393328D01*
X62172311Y-82393328D02*
X62029454Y-82464757D01*
X62029454Y-82464757D02*
X61958026Y-82536185D01*
X61958026Y-82536185D02*
X61815168Y-82750471D01*
X61815168Y-82750471D02*
X61743740Y-83036185D01*
X61743740Y-83036185D02*
X61743740Y-83607614D01*
X61743740Y-83607614D02*
X61815168Y-83750471D01*
X61815168Y-83750471D02*
X61886597Y-83821900D01*
X61886597Y-83821900D02*
X62029454Y-83893328D01*
X62029454Y-83893328D02*
X62315168Y-83893328D01*
X62315168Y-83893328D02*
X62458026Y-83821900D01*
X62458026Y-83821900D02*
X62529454Y-83750471D01*
X62529454Y-83750471D02*
X62600883Y-83607614D01*
X62600883Y-83607614D02*
X62600883Y-83250471D01*
X62600883Y-83250471D02*
X62529454Y-83107614D01*
X62529454Y-83107614D02*
X62458026Y-83036185D01*
X62458026Y-83036185D02*
X62315168Y-82964757D01*
X62315168Y-82964757D02*
X62029454Y-82964757D01*
X62029454Y-82964757D02*
X61886597Y-83036185D01*
X61886597Y-83036185D02*
X61815168Y-83107614D01*
X61815168Y-83107614D02*
X61743740Y-83250471D01*
X63529454Y-82393328D02*
X63672311Y-82393328D01*
X63672311Y-82393328D02*
X63815168Y-82464757D01*
X63815168Y-82464757D02*
X63886597Y-82536185D01*
X63886597Y-82536185D02*
X63958025Y-82679042D01*
X63958025Y-82679042D02*
X64029454Y-82964757D01*
X64029454Y-82964757D02*
X64029454Y-83321900D01*
X64029454Y-83321900D02*
X63958025Y-83607614D01*
X63958025Y-83607614D02*
X63886597Y-83750471D01*
X63886597Y-83750471D02*
X63815168Y-83821900D01*
X63815168Y-83821900D02*
X63672311Y-83893328D01*
X63672311Y-83893328D02*
X63529454Y-83893328D01*
X63529454Y-83893328D02*
X63386597Y-83821900D01*
X63386597Y-83821900D02*
X63315168Y-83750471D01*
X63315168Y-83750471D02*
X63243739Y-83607614D01*
X63243739Y-83607614D02*
X63172311Y-83321900D01*
X63172311Y-83321900D02*
X63172311Y-82964757D01*
X63172311Y-82964757D02*
X63243739Y-82679042D01*
X63243739Y-82679042D02*
X63315168Y-82536185D01*
X63315168Y-82536185D02*
X63386597Y-82464757D01*
X63386597Y-82464757D02*
X63529454Y-82393328D01*
X64958025Y-82393328D02*
X65100882Y-82393328D01*
X65100882Y-82393328D02*
X65243739Y-82464757D01*
X65243739Y-82464757D02*
X65315168Y-82536185D01*
X65315168Y-82536185D02*
X65386596Y-82679042D01*
X65386596Y-82679042D02*
X65458025Y-82964757D01*
X65458025Y-82964757D02*
X65458025Y-83321900D01*
X65458025Y-83321900D02*
X65386596Y-83607614D01*
X65386596Y-83607614D02*
X65315168Y-83750471D01*
X65315168Y-83750471D02*
X65243739Y-83821900D01*
X65243739Y-83821900D02*
X65100882Y-83893328D01*
X65100882Y-83893328D02*
X64958025Y-83893328D01*
X64958025Y-83893328D02*
X64815168Y-83821900D01*
X64815168Y-83821900D02*
X64743739Y-83750471D01*
X64743739Y-83750471D02*
X64672310Y-83607614D01*
X64672310Y-83607614D02*
X64600882Y-83321900D01*
X64600882Y-83321900D02*
X64600882Y-82964757D01*
X64600882Y-82964757D02*
X64672310Y-82679042D01*
X64672310Y-82679042D02*
X64743739Y-82536185D01*
X64743739Y-82536185D02*
X64815168Y-82464757D01*
X64815168Y-82464757D02*
X64958025Y-82393328D01*
X65743739Y-84036185D02*
X66886596Y-84036185D01*
X68100881Y-83893328D02*
X67600881Y-83179042D01*
X67243738Y-83893328D02*
X67243738Y-82393328D01*
X67243738Y-82393328D02*
X67815167Y-82393328D01*
X67815167Y-82393328D02*
X67958024Y-82464757D01*
X67958024Y-82464757D02*
X68029453Y-82536185D01*
X68029453Y-82536185D02*
X68100881Y-82679042D01*
X68100881Y-82679042D02*
X68100881Y-82893328D01*
X68100881Y-82893328D02*
X68029453Y-83036185D01*
X68029453Y-83036185D02*
X67958024Y-83107614D01*
X67958024Y-83107614D02*
X67815167Y-83179042D01*
X67815167Y-83179042D02*
X67243738Y-83179042D01*
X68743738Y-83893328D02*
X68743738Y-82393328D01*
X68743738Y-82393328D02*
X69315167Y-82393328D01*
X69315167Y-82393328D02*
X69458024Y-82464757D01*
X69458024Y-82464757D02*
X69529453Y-82536185D01*
X69529453Y-82536185D02*
X69600881Y-82679042D01*
X69600881Y-82679042D02*
X69600881Y-82893328D01*
X69600881Y-82893328D02*
X69529453Y-83036185D01*
X69529453Y-83036185D02*
X69458024Y-83107614D01*
X69458024Y-83107614D02*
X69315167Y-83179042D01*
X69315167Y-83179042D02*
X68743738Y-83179042D01*
X70172310Y-82536185D02*
X70243738Y-82464757D01*
X70243738Y-82464757D02*
X70386596Y-82393328D01*
X70386596Y-82393328D02*
X70743738Y-82393328D01*
X70743738Y-82393328D02*
X70886596Y-82464757D01*
X70886596Y-82464757D02*
X70958024Y-82536185D01*
X70958024Y-82536185D02*
X71029453Y-82679042D01*
X71029453Y-82679042D02*
X71029453Y-82821900D01*
X71029453Y-82821900D02*
X70958024Y-83036185D01*
X70958024Y-83036185D02*
X70100881Y-83893328D01*
X70100881Y-83893328D02*
X71029453Y-83893328D01*
X71958024Y-82393328D02*
X72100881Y-82393328D01*
X72100881Y-82393328D02*
X72243738Y-82464757D01*
X72243738Y-82464757D02*
X72315167Y-82536185D01*
X72315167Y-82536185D02*
X72386595Y-82679042D01*
X72386595Y-82679042D02*
X72458024Y-82964757D01*
X72458024Y-82964757D02*
X72458024Y-83321900D01*
X72458024Y-83321900D02*
X72386595Y-83607614D01*
X72386595Y-83607614D02*
X72315167Y-83750471D01*
X72315167Y-83750471D02*
X72243738Y-83821900D01*
X72243738Y-83821900D02*
X72100881Y-83893328D01*
X72100881Y-83893328D02*
X71958024Y-83893328D01*
X71958024Y-83893328D02*
X71815167Y-83821900D01*
X71815167Y-83821900D02*
X71743738Y-83750471D01*
X71743738Y-83750471D02*
X71672309Y-83607614D01*
X71672309Y-83607614D02*
X71600881Y-83321900D01*
X71600881Y-83321900D02*
X71600881Y-82964757D01*
X71600881Y-82964757D02*
X71672309Y-82679042D01*
X71672309Y-82679042D02*
X71743738Y-82536185D01*
X71743738Y-82536185D02*
X71815167Y-82464757D01*
X71815167Y-82464757D02*
X71958024Y-82393328D01*
X73743738Y-82893328D02*
X73743738Y-83893328D01*
X73386595Y-82321900D02*
X73029452Y-83393328D01*
X73029452Y-83393328D02*
X73958023Y-83393328D01*
X74815166Y-82393328D02*
X74958023Y-82393328D01*
X74958023Y-82393328D02*
X75100880Y-82464757D01*
X75100880Y-82464757D02*
X75172309Y-82536185D01*
X75172309Y-82536185D02*
X75243737Y-82679042D01*
X75243737Y-82679042D02*
X75315166Y-82964757D01*
X75315166Y-82964757D02*
X75315166Y-83321900D01*
X75315166Y-83321900D02*
X75243737Y-83607614D01*
X75243737Y-83607614D02*
X75172309Y-83750471D01*
X75172309Y-83750471D02*
X75100880Y-83821900D01*
X75100880Y-83821900D02*
X74958023Y-83893328D01*
X74958023Y-83893328D02*
X74815166Y-83893328D01*
X74815166Y-83893328D02*
X74672309Y-83821900D01*
X74672309Y-83821900D02*
X74600880Y-83750471D01*
X74600880Y-83750471D02*
X74529451Y-83607614D01*
X74529451Y-83607614D02*
X74458023Y-83321900D01*
X74458023Y-83321900D02*
X74458023Y-82964757D01*
X74458023Y-82964757D02*
X74529451Y-82679042D01*
X74529451Y-82679042D02*
X74600880Y-82536185D01*
X74600880Y-82536185D02*
X74672309Y-82464757D01*
X74672309Y-82464757D02*
X74815166Y-82393328D01*
X75958022Y-83750471D02*
X76029451Y-83821900D01*
X76029451Y-83821900D02*
X75958022Y-83893328D01*
X75958022Y-83893328D02*
X75886594Y-83821900D01*
X75886594Y-83821900D02*
X75958022Y-83750471D01*
X75958022Y-83750471D02*
X75958022Y-83893328D01*
X76672308Y-83893328D02*
X76672308Y-82393328D01*
X76815166Y-83321900D02*
X77243737Y-83893328D01*
X77243737Y-82893328D02*
X76672308Y-83464757D01*
X77886594Y-83893328D02*
X77886594Y-82893328D01*
X77886594Y-82393328D02*
X77815166Y-82464757D01*
X77815166Y-82464757D02*
X77886594Y-82536185D01*
X77886594Y-82536185D02*
X77958023Y-82464757D01*
X77958023Y-82464757D02*
X77886594Y-82393328D01*
X77886594Y-82393328D02*
X77886594Y-82536185D01*
X79243738Y-83821900D02*
X79100880Y-83893328D01*
X79100880Y-83893328D02*
X78815166Y-83893328D01*
X78815166Y-83893328D02*
X78672309Y-83821900D01*
X78672309Y-83821900D02*
X78600880Y-83750471D01*
X78600880Y-83750471D02*
X78529452Y-83607614D01*
X78529452Y-83607614D02*
X78529452Y-83179042D01*
X78529452Y-83179042D02*
X78600880Y-83036185D01*
X78600880Y-83036185D02*
X78672309Y-82964757D01*
X78672309Y-82964757D02*
X78815166Y-82893328D01*
X78815166Y-82893328D02*
X79100880Y-82893328D01*
X79100880Y-82893328D02*
X79243738Y-82964757D01*
X80529452Y-83893328D02*
X80529452Y-83107614D01*
X80529452Y-83107614D02*
X80458023Y-82964757D01*
X80458023Y-82964757D02*
X80315166Y-82893328D01*
X80315166Y-82893328D02*
X80029452Y-82893328D01*
X80029452Y-82893328D02*
X79886594Y-82964757D01*
X80529452Y-83821900D02*
X80386594Y-83893328D01*
X80386594Y-83893328D02*
X80029452Y-83893328D01*
X80029452Y-83893328D02*
X79886594Y-83821900D01*
X79886594Y-83821900D02*
X79815166Y-83679042D01*
X79815166Y-83679042D02*
X79815166Y-83536185D01*
X79815166Y-83536185D02*
X79886594Y-83393328D01*
X79886594Y-83393328D02*
X80029452Y-83321900D01*
X80029452Y-83321900D02*
X80386594Y-83321900D01*
X80386594Y-83321900D02*
X80529452Y-83250471D01*
X81886595Y-83893328D02*
X81886595Y-82393328D01*
X81886595Y-83821900D02*
X81743737Y-83893328D01*
X81743737Y-83893328D02*
X81458023Y-83893328D01*
X81458023Y-83893328D02*
X81315166Y-83821900D01*
X81315166Y-83821900D02*
X81243737Y-83750471D01*
X81243737Y-83750471D02*
X81172309Y-83607614D01*
X81172309Y-83607614D02*
X81172309Y-83179042D01*
X81172309Y-83179042D02*
X81243737Y-83036185D01*
X81243737Y-83036185D02*
X81315166Y-82964757D01*
X81315166Y-82964757D02*
X81458023Y-82893328D01*
X81458023Y-82893328D02*
X81743737Y-82893328D01*
X81743737Y-82893328D02*
X81886595Y-82964757D01*
X82243738Y-84036185D02*
X83386595Y-84036185D01*
X83743737Y-82893328D02*
X83743737Y-84393328D01*
X83743737Y-82964757D02*
X83886595Y-82893328D01*
X83886595Y-82893328D02*
X84172309Y-82893328D01*
X84172309Y-82893328D02*
X84315166Y-82964757D01*
X84315166Y-82964757D02*
X84386595Y-83036185D01*
X84386595Y-83036185D02*
X84458023Y-83179042D01*
X84458023Y-83179042D02*
X84458023Y-83607614D01*
X84458023Y-83607614D02*
X84386595Y-83750471D01*
X84386595Y-83750471D02*
X84315166Y-83821900D01*
X84315166Y-83821900D02*
X84172309Y-83893328D01*
X84172309Y-83893328D02*
X83886595Y-83893328D01*
X83886595Y-83893328D02*
X83743737Y-83821900D01*
X85743738Y-83821900D02*
X85600880Y-83893328D01*
X85600880Y-83893328D02*
X85315166Y-83893328D01*
X85315166Y-83893328D02*
X85172309Y-83821900D01*
X85172309Y-83821900D02*
X85100880Y-83750471D01*
X85100880Y-83750471D02*
X85029452Y-83607614D01*
X85029452Y-83607614D02*
X85029452Y-83179042D01*
X85029452Y-83179042D02*
X85100880Y-83036185D01*
X85100880Y-83036185D02*
X85172309Y-82964757D01*
X85172309Y-82964757D02*
X85315166Y-82893328D01*
X85315166Y-82893328D02*
X85600880Y-82893328D01*
X85600880Y-82893328D02*
X85743738Y-82964757D01*
X86386594Y-83893328D02*
X86386594Y-82393328D01*
X86386594Y-82964757D02*
X86529452Y-82893328D01*
X86529452Y-82893328D02*
X86815166Y-82893328D01*
X86815166Y-82893328D02*
X86958023Y-82964757D01*
X86958023Y-82964757D02*
X87029452Y-83036185D01*
X87029452Y-83036185D02*
X87100880Y-83179042D01*
X87100880Y-83179042D02*
X87100880Y-83607614D01*
X87100880Y-83607614D02*
X87029452Y-83750471D01*
X87029452Y-83750471D02*
X86958023Y-83821900D01*
X86958023Y-83821900D02*
X86815166Y-83893328D01*
X86815166Y-83893328D02*
X86529452Y-83893328D01*
X86529452Y-83893328D02*
X86386594Y-83821900D01*
D10*
D11*
X52002200Y-79007200D02*
X160002200Y-79007200D01*
D10*
D11*
X53386598Y-81121900D02*
X53600884Y-81193328D01*
X53600884Y-81193328D02*
X53958026Y-81193328D01*
X53958026Y-81193328D02*
X54100884Y-81121900D01*
X54100884Y-81121900D02*
X54172312Y-81050471D01*
X54172312Y-81050471D02*
X54243741Y-80907614D01*
X54243741Y-80907614D02*
X54243741Y-80764757D01*
X54243741Y-80764757D02*
X54172312Y-80621900D01*
X54172312Y-80621900D02*
X54100884Y-80550471D01*
X54100884Y-80550471D02*
X53958026Y-80479042D01*
X53958026Y-80479042D02*
X53672312Y-80407614D01*
X53672312Y-80407614D02*
X53529455Y-80336185D01*
X53529455Y-80336185D02*
X53458026Y-80264757D01*
X53458026Y-80264757D02*
X53386598Y-80121900D01*
X53386598Y-80121900D02*
X53386598Y-79979042D01*
X53386598Y-79979042D02*
X53458026Y-79836185D01*
X53458026Y-79836185D02*
X53529455Y-79764757D01*
X53529455Y-79764757D02*
X53672312Y-79693328D01*
X53672312Y-79693328D02*
X54029455Y-79693328D01*
X54029455Y-79693328D02*
X54243741Y-79764757D01*
X54886597Y-81193328D02*
X54886597Y-79693328D01*
X55529455Y-81193328D02*
X55529455Y-80407614D01*
X55529455Y-80407614D02*
X55458026Y-80264757D01*
X55458026Y-80264757D02*
X55315169Y-80193328D01*
X55315169Y-80193328D02*
X55100883Y-80193328D01*
X55100883Y-80193328D02*
X54958026Y-80264757D01*
X54958026Y-80264757D02*
X54886597Y-80336185D01*
X56815169Y-81121900D02*
X56672312Y-81193328D01*
X56672312Y-81193328D02*
X56386598Y-81193328D01*
X56386598Y-81193328D02*
X56243740Y-81121900D01*
X56243740Y-81121900D02*
X56172312Y-80979042D01*
X56172312Y-80979042D02*
X56172312Y-80407614D01*
X56172312Y-80407614D02*
X56243740Y-80264757D01*
X56243740Y-80264757D02*
X56386598Y-80193328D01*
X56386598Y-80193328D02*
X56672312Y-80193328D01*
X56672312Y-80193328D02*
X56815169Y-80264757D01*
X56815169Y-80264757D02*
X56886598Y-80407614D01*
X56886598Y-80407614D02*
X56886598Y-80550471D01*
X56886598Y-80550471D02*
X56172312Y-80693328D01*
X58100883Y-81121900D02*
X57958026Y-81193328D01*
X57958026Y-81193328D02*
X57672312Y-81193328D01*
X57672312Y-81193328D02*
X57529454Y-81121900D01*
X57529454Y-81121900D02*
X57458026Y-80979042D01*
X57458026Y-80979042D02*
X57458026Y-80407614D01*
X57458026Y-80407614D02*
X57529454Y-80264757D01*
X57529454Y-80264757D02*
X57672312Y-80193328D01*
X57672312Y-80193328D02*
X57958026Y-80193328D01*
X57958026Y-80193328D02*
X58100883Y-80264757D01*
X58100883Y-80264757D02*
X58172312Y-80407614D01*
X58172312Y-80407614D02*
X58172312Y-80550471D01*
X58172312Y-80550471D02*
X57458026Y-80693328D01*
X58600883Y-80193328D02*
X59172311Y-80193328D01*
X58815168Y-79693328D02*
X58815168Y-80979042D01*
X58815168Y-80979042D02*
X58886597Y-81121900D01*
X58886597Y-81121900D02*
X59029454Y-81193328D01*
X59029454Y-81193328D02*
X59172311Y-81193328D01*
X59672311Y-81050471D02*
X59743740Y-81121900D01*
X59743740Y-81121900D02*
X59672311Y-81193328D01*
X59672311Y-81193328D02*
X59600883Y-81121900D01*
X59600883Y-81121900D02*
X59672311Y-81050471D01*
X59672311Y-81050471D02*
X59672311Y-81193328D01*
X59672311Y-80264757D02*
X59743740Y-80336185D01*
X59743740Y-80336185D02*
X59672311Y-80407614D01*
X59672311Y-80407614D02*
X59600883Y-80336185D01*
X59600883Y-80336185D02*
X59672311Y-80264757D01*
X59672311Y-80264757D02*
X59672311Y-80407614D01*
D10*
D11*
X72002200Y-89007200D02*
X72002200Y-92007200D01*
D10*
D11*
X136002200Y-89007200D02*
X136002200Y-95507200D01*
D14*
%TO.C,C5*%
X54975000Y15500000D03*
X52025000Y15500000D03*
%TD*%
D15*
%TO.C,J8*%
X80675000Y17285000D03*
X80675000Y17935000D03*
X80675000Y18585000D03*
X80675000Y19235000D03*
X80675000Y19885000D03*
X80675000Y23985000D03*
X80675000Y24635000D03*
X80675000Y25285000D03*
X80675000Y25935000D03*
X80675000Y26585000D03*
D16*
X83350000Y17385000D03*
X83350000Y19785000D03*
D17*
X83350000Y22585000D03*
X83350000Y25085000D03*
D18*
X80800000Y27835000D03*
D19*
X80800000Y15485000D03*
%TD*%
D14*
%TO.C,C13*%
X57450000Y4125000D03*
X54500000Y4125000D03*
%TD*%
D20*
%TO.C,Y1*%
X56250000Y7300000D03*
X60550000Y7300000D03*
%TD*%
D21*
%TO.C,R1*%
X66750000Y44537500D03*
X66750000Y47462500D03*
%TD*%
%TO.C,R4*%
X66750000Y39787500D03*
X66750000Y42712500D03*
%TD*%
D22*
%TO.C,C9*%
X59250000Y26775000D03*
X59250000Y29725000D03*
%TD*%
%TO.C,C12*%
X60750000Y34525000D03*
X60750000Y37475000D03*
%TD*%
D23*
%TO.C,J7*%
X64250000Y51500000D03*
D24*
X68500000Y51175000D03*
X60000000Y51175000D03*
%TD*%
D21*
%TO.C,R7*%
X70750000Y26787500D03*
X70750000Y29712500D03*
%TD*%
D25*
%TO.C,FB1*%
X80175000Y10750000D03*
X83325000Y10750000D03*
%TD*%
D26*
%TO.C,R5*%
X68962500Y4000000D03*
X66037500Y4000000D03*
%TD*%
D22*
%TO.C,C10*%
X66750000Y35025000D03*
X66750000Y37975000D03*
%TD*%
D27*
%TO.C,C15*%
X59500000Y4125000D03*
X62450000Y4125000D03*
%TD*%
D22*
%TO.C,C11*%
X56750000Y26775000D03*
X56750000Y29725000D03*
%TD*%
D14*
%TO.C,C16*%
X73975000Y6750000D03*
X71025000Y6750000D03*
%TD*%
%TO.C,C18*%
X73975000Y9250000D03*
X71025000Y9250000D03*
%TD*%
D22*
%TO.C,C17*%
X63250000Y34525000D03*
X63250000Y37475000D03*
%TD*%
D28*
%TO.C,U4*%
X68325000Y31112500D03*
X67675000Y31112500D03*
X67025000Y31112500D03*
X66375000Y31112500D03*
X65725000Y31112500D03*
X65075000Y31112500D03*
X64425000Y31112500D03*
X63775000Y31112500D03*
X63125000Y31112500D03*
X62475000Y31112500D03*
X61825000Y31112500D03*
X61175000Y31112500D03*
X61175000Y25387500D03*
X61825000Y25387500D03*
X62475000Y25387500D03*
X63125000Y25387500D03*
X63775000Y25387500D03*
X64425000Y25387500D03*
X65075000Y25387500D03*
X65725000Y25387500D03*
X66375000Y25387500D03*
X67025000Y25387500D03*
X67675000Y25387500D03*
X68325000Y25387500D03*
%TD*%
D29*
%TO.C,FB3*%
X83250000Y34175000D03*
X83250000Y37325000D03*
%TD*%
D22*
%TO.C,C20*%
X81000000Y39525000D03*
X81000000Y42475000D03*
%TD*%
D30*
%TO.C,R8*%
X78500000Y42462500D03*
X78500000Y39537500D03*
%TD*%
D31*
%TO.C,C6*%
X78500000Y37225000D03*
X78500000Y34275000D03*
%TD*%
D32*
%TO.C,IC2*%
X63420000Y17580000D03*
X63420000Y16250000D03*
X63420000Y14920000D03*
X64750000Y17580000D03*
X64750000Y16250000D03*
X64750000Y14920000D03*
X66080000Y17580000D03*
X66080000Y16250000D03*
X66080000Y14920000D03*
D33*
X61200000Y18850000D03*
X61200000Y18450000D03*
X61200000Y18050000D03*
X61200000Y17650000D03*
X61200000Y17250000D03*
X61200000Y16850000D03*
X61200000Y16450000D03*
X61200000Y16050000D03*
X61200000Y15650000D03*
X61200000Y15250000D03*
X61200000Y14850000D03*
X61200000Y14450000D03*
X61200000Y14050000D03*
X61200000Y13650000D03*
D34*
X62150000Y12700000D03*
X62550000Y12700000D03*
X62950000Y12700000D03*
X63350000Y12700000D03*
X63750000Y12700000D03*
X64150000Y12700000D03*
X64550000Y12700000D03*
X64950000Y12700000D03*
X65350000Y12700000D03*
X65750000Y12700000D03*
X66150000Y12700000D03*
X66550000Y12700000D03*
X66950000Y12700000D03*
X67350000Y12700000D03*
D33*
X68300000Y13650000D03*
X68300000Y14050000D03*
X68300000Y14450000D03*
X68300000Y14850000D03*
X68300000Y15250000D03*
X68300000Y15650000D03*
X68300000Y16050000D03*
X68300000Y16450000D03*
X68300000Y16850000D03*
X68300000Y17250000D03*
X68300000Y17650000D03*
X68300000Y18050000D03*
X68300000Y18450000D03*
X68300000Y18850000D03*
D34*
X67350000Y19800000D03*
X66950000Y19800000D03*
X66550000Y19800000D03*
X66150000Y19800000D03*
X65750000Y19800000D03*
X65350000Y19800000D03*
X64950000Y19800000D03*
X64550000Y19800000D03*
X64150000Y19800000D03*
X63750000Y19800000D03*
X63350000Y19800000D03*
X62950000Y19800000D03*
X62550000Y19800000D03*
X62150000Y19800000D03*
%TD*%
D22*
%TO.C,C14*%
X51500000Y26775000D03*
X51500000Y29725000D03*
%TD*%
D30*
%TO.C,R9*%
X83250000Y42462500D03*
X83250000Y39537500D03*
%TD*%
D26*
%TO.C,R6*%
X54962500Y13000000D03*
X52037500Y13000000D03*
%TD*%
D30*
%TO.C,R2*%
X64250000Y42712500D03*
X64250000Y39787500D03*
%TD*%
D31*
%TO.C,C1*%
X64250000Y47475000D03*
X64250000Y44525000D03*
%TD*%
D27*
%TO.C,C21*%
X80025000Y8250000D03*
X82975000Y8250000D03*
%TD*%
D35*
%TO.C,FB2*%
X54250000Y29825000D03*
X54250000Y26675000D03*
%TD*%
D31*
%TO.C,C8*%
X76250000Y37225000D03*
X76250000Y34275000D03*
%TD*%
D30*
%TO.C,R3*%
X71750000Y42712500D03*
X71750000Y39787500D03*
%TD*%
D22*
%TO.C,C19*%
X76250000Y39525000D03*
X76250000Y42475000D03*
%TD*%
%TO.C,C2*%
X69250000Y39775000D03*
X69250000Y42725000D03*
%TD*%
D31*
%TO.C,C7*%
X81000000Y37225000D03*
X81000000Y34275000D03*
%TD*%
M02*
