%TF.GenerationSoftware,KiCad,Pcbnew,8.0.3-8.0.3-0~ubuntu22.04.1*%
%TF.CreationDate,2024-09-16T11:34:46+02:00*%
%TF.ProjectId,FT600_RP2040,46543630-305f-4525-9032-3034302e6b69,rev?*%
%TF.SameCoordinates,PX7735940PY61c06a0*%
%TF.FileFunction,Drillmap*%
%TF.FilePolarity,Positive*%
%FSLAX45Y45*%
G04 Gerber Fmt 4.5, Leading zero omitted, Abs format (unit mm)*
G04 Created by KiCad (PCBNEW 8.0.3-8.0.3-0~ubuntu22.04.1) date 2024-09-16 11:34:46*
%MOMM*%
%LPD*%
G01*
G04 APERTURE LIST*
%ADD10C,0.100000*%
%ADD11C,0.200000*%
%ADD12C,0.150000*%
%ADD13C,0.180000*%
G04 APERTURE END LIST*
D10*
X200000Y4675000D02*
G75*
G02*
X250000Y4625000I0J-50000D01*
G01*
X0Y350000D02*
X0Y675000D01*
X0Y5050000D02*
X0Y4725000D01*
X350000Y0D02*
G75*
G02*
X0Y350000I0J350000D01*
G01*
X250000Y775000D02*
G75*
G02*
X200000Y725000I-50000J0D01*
G01*
X0Y675000D02*
G75*
G02*
X50000Y725000I50000J0D01*
G01*
X250000Y4625000D02*
X250000Y775000D01*
X0Y5050000D02*
G75*
G02*
X350000Y5400000I350000J0D01*
G01*
X8200000Y5400000D02*
G75*
G02*
X8550000Y5050000I0J-350000D01*
G01*
X350000Y5400000D02*
X8200000Y5400000D01*
X8200000Y0D02*
X350000Y0D01*
X8550000Y350000D02*
G75*
G02*
X8200000Y0I-350000J0D01*
G01*
X8550000Y5050000D02*
X8550000Y350000D01*
X50000Y4675000D02*
G75*
G02*
X0Y4725000I0J50000D01*
G01*
X50000Y4675000D02*
X200000Y4675000D01*
X200000Y725000D02*
X50000Y725000D01*
D11*
D12*
X2532500Y678000D02*
X2682500Y528000D01*
X2682500Y678000D02*
X2532500Y528000D01*
X3017500Y678000D02*
X3167500Y528000D01*
X3167500Y678000D02*
X3017500Y528000D01*
D13*
X2667500Y300000D02*
G75*
G02*
X2487500Y300000I-90000J0D01*
G01*
X2487500Y300000D02*
G75*
G02*
X2667500Y300000I90000J0D01*
G01*
X3212500Y300000D02*
G75*
G02*
X3032500Y300000I-90000J0D01*
G01*
X3032500Y300000D02*
G75*
G02*
X3212500Y300000I90000J0D01*
G01*
D11*
X255777Y-316484D02*
X255777Y-116484D01*
X255777Y-116484D02*
X303396Y-116484D01*
X303396Y-116484D02*
X331967Y-126008D01*
X331967Y-126008D02*
X351015Y-145055D01*
X351015Y-145055D02*
X360539Y-164103D01*
X360539Y-164103D02*
X370062Y-202198D01*
X370062Y-202198D02*
X370062Y-230769D01*
X370062Y-230769D02*
X360539Y-268865D01*
X360539Y-268865D02*
X351015Y-287912D01*
X351015Y-287912D02*
X331967Y-306960D01*
X331967Y-306960D02*
X303396Y-316484D01*
X303396Y-316484D02*
X255777Y-316484D01*
X455777Y-316484D02*
X455777Y-183150D01*
X455777Y-221246D02*
X465301Y-202198D01*
X465301Y-202198D02*
X474824Y-192674D01*
X474824Y-192674D02*
X493872Y-183150D01*
X493872Y-183150D02*
X512920Y-183150D01*
X579586Y-316484D02*
X579586Y-183150D01*
X579586Y-116484D02*
X570063Y-126008D01*
X570063Y-126008D02*
X579586Y-135531D01*
X579586Y-135531D02*
X589110Y-126008D01*
X589110Y-126008D02*
X579586Y-116484D01*
X579586Y-116484D02*
X579586Y-135531D01*
X703396Y-316484D02*
X684348Y-306960D01*
X684348Y-306960D02*
X674824Y-287912D01*
X674824Y-287912D02*
X674824Y-116484D01*
X808158Y-316484D02*
X789110Y-306960D01*
X789110Y-306960D02*
X779586Y-287912D01*
X779586Y-287912D02*
X779586Y-116484D01*
X1036729Y-316484D02*
X1036729Y-116484D01*
X1036729Y-116484D02*
X1103396Y-259341D01*
X1103396Y-259341D02*
X1170063Y-116484D01*
X1170063Y-116484D02*
X1170063Y-316484D01*
X1351015Y-316484D02*
X1351015Y-211722D01*
X1351015Y-211722D02*
X1341491Y-192674D01*
X1341491Y-192674D02*
X1322444Y-183150D01*
X1322444Y-183150D02*
X1284348Y-183150D01*
X1284348Y-183150D02*
X1265301Y-192674D01*
X1351015Y-306960D02*
X1331967Y-316484D01*
X1331967Y-316484D02*
X1284348Y-316484D01*
X1284348Y-316484D02*
X1265301Y-306960D01*
X1265301Y-306960D02*
X1255777Y-287912D01*
X1255777Y-287912D02*
X1255777Y-268865D01*
X1255777Y-268865D02*
X1265301Y-249817D01*
X1265301Y-249817D02*
X1284348Y-240293D01*
X1284348Y-240293D02*
X1331967Y-240293D01*
X1331967Y-240293D02*
X1351015Y-230769D01*
X1446253Y-183150D02*
X1446253Y-383150D01*
X1446253Y-192674D02*
X1465301Y-183150D01*
X1465301Y-183150D02*
X1503396Y-183150D01*
X1503396Y-183150D02*
X1522443Y-192674D01*
X1522443Y-192674D02*
X1531967Y-202198D01*
X1531967Y-202198D02*
X1541491Y-221246D01*
X1541491Y-221246D02*
X1541491Y-278389D01*
X1541491Y-278389D02*
X1531967Y-297436D01*
X1531967Y-297436D02*
X1522443Y-306960D01*
X1522443Y-306960D02*
X1503396Y-316484D01*
X1503396Y-316484D02*
X1465301Y-316484D01*
X1465301Y-316484D02*
X1446253Y-306960D01*
X1627205Y-297436D02*
X1636729Y-306960D01*
X1636729Y-306960D02*
X1627205Y-316484D01*
X1627205Y-316484D02*
X1617682Y-306960D01*
X1617682Y-306960D02*
X1627205Y-297436D01*
X1627205Y-297436D02*
X1627205Y-316484D01*
X1627205Y-192674D02*
X1636729Y-202198D01*
X1636729Y-202198D02*
X1627205Y-211722D01*
X1627205Y-211722D02*
X1617682Y-202198D01*
X1617682Y-202198D02*
X1627205Y-192674D01*
X1627205Y-192674D02*
X1627205Y-211722D01*
D12*
X-155000Y-570000D02*
X-5000Y-720000D01*
X-5000Y-570000D02*
X-155000Y-720000D01*
D11*
X360539Y-736484D02*
X246253Y-736484D01*
X303396Y-736484D02*
X303396Y-536484D01*
X303396Y-536484D02*
X284348Y-565055D01*
X284348Y-565055D02*
X265301Y-584103D01*
X265301Y-584103D02*
X246253Y-593627D01*
X446253Y-717436D02*
X455777Y-726960D01*
X455777Y-726960D02*
X446253Y-736484D01*
X446253Y-736484D02*
X436729Y-726960D01*
X436729Y-726960D02*
X446253Y-717436D01*
X446253Y-717436D02*
X446253Y-736484D01*
X636729Y-536484D02*
X541491Y-536484D01*
X541491Y-536484D02*
X531967Y-631722D01*
X531967Y-631722D02*
X541491Y-622198D01*
X541491Y-622198D02*
X560539Y-612674D01*
X560539Y-612674D02*
X608158Y-612674D01*
X608158Y-612674D02*
X627205Y-622198D01*
X627205Y-622198D02*
X636729Y-631722D01*
X636729Y-631722D02*
X646253Y-650770D01*
X646253Y-650770D02*
X646253Y-698389D01*
X646253Y-698389D02*
X636729Y-717436D01*
X636729Y-717436D02*
X627205Y-726960D01*
X627205Y-726960D02*
X608158Y-736484D01*
X608158Y-736484D02*
X560539Y-736484D01*
X560539Y-736484D02*
X541491Y-726960D01*
X541491Y-726960D02*
X531967Y-717436D01*
X770062Y-536484D02*
X789110Y-536484D01*
X789110Y-536484D02*
X808158Y-546008D01*
X808158Y-546008D02*
X817682Y-555531D01*
X817682Y-555531D02*
X827205Y-574579D01*
X827205Y-574579D02*
X836729Y-612674D01*
X836729Y-612674D02*
X836729Y-660293D01*
X836729Y-660293D02*
X827205Y-698389D01*
X827205Y-698389D02*
X817682Y-717436D01*
X817682Y-717436D02*
X808158Y-726960D01*
X808158Y-726960D02*
X789110Y-736484D01*
X789110Y-736484D02*
X770062Y-736484D01*
X770062Y-736484D02*
X751015Y-726960D01*
X751015Y-726960D02*
X741491Y-717436D01*
X741491Y-717436D02*
X731967Y-698389D01*
X731967Y-698389D02*
X722443Y-660293D01*
X722443Y-660293D02*
X722443Y-612674D01*
X722443Y-612674D02*
X731967Y-574579D01*
X731967Y-574579D02*
X741491Y-555531D01*
X741491Y-555531D02*
X751015Y-546008D01*
X751015Y-546008D02*
X770062Y-536484D01*
X960539Y-536484D02*
X979586Y-536484D01*
X979586Y-536484D02*
X998634Y-546008D01*
X998634Y-546008D02*
X1008158Y-555531D01*
X1008158Y-555531D02*
X1017682Y-574579D01*
X1017682Y-574579D02*
X1027205Y-612674D01*
X1027205Y-612674D02*
X1027205Y-660293D01*
X1027205Y-660293D02*
X1017682Y-698389D01*
X1017682Y-698389D02*
X1008158Y-717436D01*
X1008158Y-717436D02*
X998634Y-726960D01*
X998634Y-726960D02*
X979586Y-736484D01*
X979586Y-736484D02*
X960539Y-736484D01*
X960539Y-736484D02*
X941491Y-726960D01*
X941491Y-726960D02*
X931967Y-717436D01*
X931967Y-717436D02*
X922443Y-698389D01*
X922443Y-698389D02*
X912920Y-660293D01*
X912920Y-660293D02*
X912920Y-612674D01*
X912920Y-612674D02*
X922443Y-574579D01*
X922443Y-574579D02*
X931967Y-555531D01*
X931967Y-555531D02*
X941491Y-546008D01*
X941491Y-546008D02*
X960539Y-536484D01*
X1112920Y-736484D02*
X1112920Y-603150D01*
X1112920Y-622198D02*
X1122444Y-612674D01*
X1122444Y-612674D02*
X1141491Y-603150D01*
X1141491Y-603150D02*
X1170063Y-603150D01*
X1170063Y-603150D02*
X1189110Y-612674D01*
X1189110Y-612674D02*
X1198634Y-631722D01*
X1198634Y-631722D02*
X1198634Y-736484D01*
X1198634Y-631722D02*
X1208158Y-612674D01*
X1208158Y-612674D02*
X1227205Y-603150D01*
X1227205Y-603150D02*
X1255777Y-603150D01*
X1255777Y-603150D02*
X1274825Y-612674D01*
X1274825Y-612674D02*
X1284348Y-631722D01*
X1284348Y-631722D02*
X1284348Y-736484D01*
X1379586Y-736484D02*
X1379586Y-603150D01*
X1379586Y-622198D02*
X1389110Y-612674D01*
X1389110Y-612674D02*
X1408158Y-603150D01*
X1408158Y-603150D02*
X1436729Y-603150D01*
X1436729Y-603150D02*
X1455777Y-612674D01*
X1455777Y-612674D02*
X1465301Y-631722D01*
X1465301Y-631722D02*
X1465301Y-736484D01*
X1465301Y-631722D02*
X1474824Y-612674D01*
X1474824Y-612674D02*
X1493872Y-603150D01*
X1493872Y-603150D02*
X1522443Y-603150D01*
X1522443Y-603150D02*
X1541491Y-612674D01*
X1541491Y-612674D02*
X1551015Y-631722D01*
X1551015Y-631722D02*
X1551015Y-736484D01*
X1941491Y-526960D02*
X1770063Y-784103D01*
X2198634Y-536484D02*
X2217682Y-536484D01*
X2217682Y-536484D02*
X2236729Y-546008D01*
X2236729Y-546008D02*
X2246253Y-555531D01*
X2246253Y-555531D02*
X2255777Y-574579D01*
X2255777Y-574579D02*
X2265301Y-612674D01*
X2265301Y-612674D02*
X2265301Y-660293D01*
X2265301Y-660293D02*
X2255777Y-698389D01*
X2255777Y-698389D02*
X2246253Y-717436D01*
X2246253Y-717436D02*
X2236729Y-726960D01*
X2236729Y-726960D02*
X2217682Y-736484D01*
X2217682Y-736484D02*
X2198634Y-736484D01*
X2198634Y-736484D02*
X2179587Y-726960D01*
X2179587Y-726960D02*
X2170063Y-717436D01*
X2170063Y-717436D02*
X2160539Y-698389D01*
X2160539Y-698389D02*
X2151015Y-660293D01*
X2151015Y-660293D02*
X2151015Y-612674D01*
X2151015Y-612674D02*
X2160539Y-574579D01*
X2160539Y-574579D02*
X2170063Y-555531D01*
X2170063Y-555531D02*
X2179587Y-546008D01*
X2179587Y-546008D02*
X2198634Y-536484D01*
X2351015Y-717436D02*
X2360539Y-726960D01*
X2360539Y-726960D02*
X2351015Y-736484D01*
X2351015Y-736484D02*
X2341491Y-726960D01*
X2341491Y-726960D02*
X2351015Y-717436D01*
X2351015Y-717436D02*
X2351015Y-736484D01*
X2484348Y-536484D02*
X2503396Y-536484D01*
X2503396Y-536484D02*
X2522444Y-546008D01*
X2522444Y-546008D02*
X2531968Y-555531D01*
X2531968Y-555531D02*
X2541491Y-574579D01*
X2541491Y-574579D02*
X2551015Y-612674D01*
X2551015Y-612674D02*
X2551015Y-660293D01*
X2551015Y-660293D02*
X2541491Y-698389D01*
X2541491Y-698389D02*
X2531968Y-717436D01*
X2531968Y-717436D02*
X2522444Y-726960D01*
X2522444Y-726960D02*
X2503396Y-736484D01*
X2503396Y-736484D02*
X2484348Y-736484D01*
X2484348Y-736484D02*
X2465301Y-726960D01*
X2465301Y-726960D02*
X2455777Y-717436D01*
X2455777Y-717436D02*
X2446253Y-698389D01*
X2446253Y-698389D02*
X2436729Y-660293D01*
X2436729Y-660293D02*
X2436729Y-612674D01*
X2436729Y-612674D02*
X2446253Y-574579D01*
X2446253Y-574579D02*
X2455777Y-555531D01*
X2455777Y-555531D02*
X2465301Y-546008D01*
X2465301Y-546008D02*
X2484348Y-536484D01*
X2731968Y-536484D02*
X2636729Y-536484D01*
X2636729Y-536484D02*
X2627206Y-631722D01*
X2627206Y-631722D02*
X2636729Y-622198D01*
X2636729Y-622198D02*
X2655777Y-612674D01*
X2655777Y-612674D02*
X2703396Y-612674D01*
X2703396Y-612674D02*
X2722444Y-622198D01*
X2722444Y-622198D02*
X2731968Y-631722D01*
X2731968Y-631722D02*
X2741491Y-650770D01*
X2741491Y-650770D02*
X2741491Y-698389D01*
X2741491Y-698389D02*
X2731968Y-717436D01*
X2731968Y-717436D02*
X2722444Y-726960D01*
X2722444Y-726960D02*
X2703396Y-736484D01*
X2703396Y-736484D02*
X2655777Y-736484D01*
X2655777Y-736484D02*
X2636729Y-726960D01*
X2636729Y-726960D02*
X2627206Y-717436D01*
X2836729Y-736484D02*
X2874825Y-736484D01*
X2874825Y-736484D02*
X2893872Y-726960D01*
X2893872Y-726960D02*
X2903396Y-717436D01*
X2903396Y-717436D02*
X2922444Y-688865D01*
X2922444Y-688865D02*
X2931967Y-650770D01*
X2931967Y-650770D02*
X2931967Y-574579D01*
X2931967Y-574579D02*
X2922444Y-555531D01*
X2922444Y-555531D02*
X2912920Y-546008D01*
X2912920Y-546008D02*
X2893872Y-536484D01*
X2893872Y-536484D02*
X2855777Y-536484D01*
X2855777Y-536484D02*
X2836729Y-546008D01*
X2836729Y-546008D02*
X2827206Y-555531D01*
X2827206Y-555531D02*
X2817682Y-574579D01*
X2817682Y-574579D02*
X2817682Y-622198D01*
X2817682Y-622198D02*
X2827206Y-641246D01*
X2827206Y-641246D02*
X2836729Y-650770D01*
X2836729Y-650770D02*
X2855777Y-660293D01*
X2855777Y-660293D02*
X2893872Y-660293D01*
X2893872Y-660293D02*
X2912920Y-650770D01*
X2912920Y-650770D02*
X2922444Y-641246D01*
X2922444Y-641246D02*
X2931967Y-622198D01*
X3122444Y-736484D02*
X3008158Y-736484D01*
X3065301Y-736484D02*
X3065301Y-536484D01*
X3065301Y-536484D02*
X3046253Y-565055D01*
X3046253Y-565055D02*
X3027206Y-584103D01*
X3027206Y-584103D02*
X3008158Y-593627D01*
X3198634Y-536484D02*
X3198634Y-574579D01*
X3274825Y-536484D02*
X3274825Y-574579D01*
X3570063Y-812674D02*
X3560539Y-803150D01*
X3560539Y-803150D02*
X3541491Y-774579D01*
X3541491Y-774579D02*
X3531968Y-755531D01*
X3531968Y-755531D02*
X3522444Y-726960D01*
X3522444Y-726960D02*
X3512920Y-679341D01*
X3512920Y-679341D02*
X3512920Y-641246D01*
X3512920Y-641246D02*
X3522444Y-593627D01*
X3522444Y-593627D02*
X3531968Y-565055D01*
X3531968Y-565055D02*
X3541491Y-546008D01*
X3541491Y-546008D02*
X3560539Y-517436D01*
X3560539Y-517436D02*
X3570063Y-507912D01*
X3636729Y-555531D02*
X3646253Y-546008D01*
X3646253Y-546008D02*
X3665301Y-536484D01*
X3665301Y-536484D02*
X3712920Y-536484D01*
X3712920Y-536484D02*
X3731968Y-546008D01*
X3731968Y-546008D02*
X3741491Y-555531D01*
X3741491Y-555531D02*
X3751015Y-574579D01*
X3751015Y-574579D02*
X3751015Y-593627D01*
X3751015Y-593627D02*
X3741491Y-622198D01*
X3741491Y-622198D02*
X3627206Y-736484D01*
X3627206Y-736484D02*
X3751015Y-736484D01*
X3989110Y-736484D02*
X3989110Y-536484D01*
X4074825Y-736484D02*
X4074825Y-631722D01*
X4074825Y-631722D02*
X4065301Y-612674D01*
X4065301Y-612674D02*
X4046253Y-603150D01*
X4046253Y-603150D02*
X4017682Y-603150D01*
X4017682Y-603150D02*
X3998634Y-612674D01*
X3998634Y-612674D02*
X3989110Y-622198D01*
X4198634Y-736484D02*
X4179587Y-726960D01*
X4179587Y-726960D02*
X4170063Y-717436D01*
X4170063Y-717436D02*
X4160539Y-698389D01*
X4160539Y-698389D02*
X4160539Y-641246D01*
X4160539Y-641246D02*
X4170063Y-622198D01*
X4170063Y-622198D02*
X4179587Y-612674D01*
X4179587Y-612674D02*
X4198634Y-603150D01*
X4198634Y-603150D02*
X4227206Y-603150D01*
X4227206Y-603150D02*
X4246253Y-612674D01*
X4246253Y-612674D02*
X4255777Y-622198D01*
X4255777Y-622198D02*
X4265301Y-641246D01*
X4265301Y-641246D02*
X4265301Y-698389D01*
X4265301Y-698389D02*
X4255777Y-717436D01*
X4255777Y-717436D02*
X4246253Y-726960D01*
X4246253Y-726960D02*
X4227206Y-736484D01*
X4227206Y-736484D02*
X4198634Y-736484D01*
X4379587Y-736484D02*
X4360539Y-726960D01*
X4360539Y-726960D02*
X4351015Y-707912D01*
X4351015Y-707912D02*
X4351015Y-536484D01*
X4531968Y-726960D02*
X4512920Y-736484D01*
X4512920Y-736484D02*
X4474825Y-736484D01*
X4474825Y-736484D02*
X4455777Y-726960D01*
X4455777Y-726960D02*
X4446253Y-707912D01*
X4446253Y-707912D02*
X4446253Y-631722D01*
X4446253Y-631722D02*
X4455777Y-612674D01*
X4455777Y-612674D02*
X4474825Y-603150D01*
X4474825Y-603150D02*
X4512920Y-603150D01*
X4512920Y-603150D02*
X4531968Y-612674D01*
X4531968Y-612674D02*
X4541492Y-631722D01*
X4541492Y-631722D02*
X4541492Y-650770D01*
X4541492Y-650770D02*
X4446253Y-669817D01*
X4617682Y-726960D02*
X4636730Y-736484D01*
X4636730Y-736484D02*
X4674825Y-736484D01*
X4674825Y-736484D02*
X4693873Y-726960D01*
X4693873Y-726960D02*
X4703396Y-707912D01*
X4703396Y-707912D02*
X4703396Y-698389D01*
X4703396Y-698389D02*
X4693873Y-679341D01*
X4693873Y-679341D02*
X4674825Y-669817D01*
X4674825Y-669817D02*
X4646253Y-669817D01*
X4646253Y-669817D02*
X4627206Y-660293D01*
X4627206Y-660293D02*
X4617682Y-641246D01*
X4617682Y-641246D02*
X4617682Y-631722D01*
X4617682Y-631722D02*
X4627206Y-612674D01*
X4627206Y-612674D02*
X4646253Y-603150D01*
X4646253Y-603150D02*
X4674825Y-603150D01*
X4674825Y-603150D02*
X4693873Y-612674D01*
X4770063Y-812674D02*
X4779587Y-803150D01*
X4779587Y-803150D02*
X4798634Y-774579D01*
X4798634Y-774579D02*
X4808158Y-755531D01*
X4808158Y-755531D02*
X4817682Y-726960D01*
X4817682Y-726960D02*
X4827206Y-679341D01*
X4827206Y-679341D02*
X4827206Y-641246D01*
X4827206Y-641246D02*
X4817682Y-593627D01*
X4817682Y-593627D02*
X4808158Y-565055D01*
X4808158Y-565055D02*
X4798634Y-546008D01*
X4798634Y-546008D02*
X4779587Y-517436D01*
X4779587Y-517436D02*
X4770063Y-507912D01*
X5131968Y-812674D02*
X5122444Y-803150D01*
X5122444Y-803150D02*
X5103396Y-774579D01*
X5103396Y-774579D02*
X5093873Y-755531D01*
X5093873Y-755531D02*
X5084349Y-726960D01*
X5084349Y-726960D02*
X5074825Y-679341D01*
X5074825Y-679341D02*
X5074825Y-641246D01*
X5074825Y-641246D02*
X5084349Y-593627D01*
X5084349Y-593627D02*
X5093873Y-565055D01*
X5093873Y-565055D02*
X5103396Y-546008D01*
X5103396Y-546008D02*
X5122444Y-517436D01*
X5122444Y-517436D02*
X5131968Y-507912D01*
X5208158Y-603150D02*
X5208158Y-736484D01*
X5208158Y-622198D02*
X5217682Y-612674D01*
X5217682Y-612674D02*
X5236730Y-603150D01*
X5236730Y-603150D02*
X5265301Y-603150D01*
X5265301Y-603150D02*
X5284349Y-612674D01*
X5284349Y-612674D02*
X5293873Y-631722D01*
X5293873Y-631722D02*
X5293873Y-736484D01*
X5417682Y-736484D02*
X5398634Y-726960D01*
X5398634Y-726960D02*
X5389111Y-717436D01*
X5389111Y-717436D02*
X5379587Y-698389D01*
X5379587Y-698389D02*
X5379587Y-641246D01*
X5379587Y-641246D02*
X5389111Y-622198D01*
X5389111Y-622198D02*
X5398634Y-612674D01*
X5398634Y-612674D02*
X5417682Y-603150D01*
X5417682Y-603150D02*
X5446254Y-603150D01*
X5446254Y-603150D02*
X5465301Y-612674D01*
X5465301Y-612674D02*
X5474825Y-622198D01*
X5474825Y-622198D02*
X5484349Y-641246D01*
X5484349Y-641246D02*
X5484349Y-698389D01*
X5484349Y-698389D02*
X5474825Y-717436D01*
X5474825Y-717436D02*
X5465301Y-726960D01*
X5465301Y-726960D02*
X5446254Y-736484D01*
X5446254Y-736484D02*
X5417682Y-736484D01*
X5541492Y-603150D02*
X5617682Y-603150D01*
X5570063Y-536484D02*
X5570063Y-707912D01*
X5570063Y-707912D02*
X5579587Y-726960D01*
X5579587Y-726960D02*
X5598634Y-736484D01*
X5598634Y-736484D02*
X5617682Y-736484D01*
X5836730Y-603150D02*
X5836730Y-803150D01*
X5836730Y-612674D02*
X5855777Y-603150D01*
X5855777Y-603150D02*
X5893873Y-603150D01*
X5893873Y-603150D02*
X5912920Y-612674D01*
X5912920Y-612674D02*
X5922444Y-622198D01*
X5922444Y-622198D02*
X5931968Y-641246D01*
X5931968Y-641246D02*
X5931968Y-698389D01*
X5931968Y-698389D02*
X5922444Y-717436D01*
X5922444Y-717436D02*
X5912920Y-726960D01*
X5912920Y-726960D02*
X5893873Y-736484D01*
X5893873Y-736484D02*
X5855777Y-736484D01*
X5855777Y-736484D02*
X5836730Y-726960D01*
X6046253Y-736484D02*
X6027206Y-726960D01*
X6027206Y-726960D02*
X6017682Y-707912D01*
X6017682Y-707912D02*
X6017682Y-536484D01*
X6208158Y-736484D02*
X6208158Y-631722D01*
X6208158Y-631722D02*
X6198634Y-612674D01*
X6198634Y-612674D02*
X6179587Y-603150D01*
X6179587Y-603150D02*
X6141492Y-603150D01*
X6141492Y-603150D02*
X6122444Y-612674D01*
X6208158Y-726960D02*
X6189111Y-736484D01*
X6189111Y-736484D02*
X6141492Y-736484D01*
X6141492Y-736484D02*
X6122444Y-726960D01*
X6122444Y-726960D02*
X6112920Y-707912D01*
X6112920Y-707912D02*
X6112920Y-688865D01*
X6112920Y-688865D02*
X6122444Y-669817D01*
X6122444Y-669817D02*
X6141492Y-660293D01*
X6141492Y-660293D02*
X6189111Y-660293D01*
X6189111Y-660293D02*
X6208158Y-650770D01*
X6274825Y-603150D02*
X6351015Y-603150D01*
X6303396Y-536484D02*
X6303396Y-707912D01*
X6303396Y-707912D02*
X6312920Y-726960D01*
X6312920Y-726960D02*
X6331968Y-736484D01*
X6331968Y-736484D02*
X6351015Y-736484D01*
X6493873Y-726960D02*
X6474825Y-736484D01*
X6474825Y-736484D02*
X6436730Y-736484D01*
X6436730Y-736484D02*
X6417682Y-726960D01*
X6417682Y-726960D02*
X6408158Y-707912D01*
X6408158Y-707912D02*
X6408158Y-631722D01*
X6408158Y-631722D02*
X6417682Y-612674D01*
X6417682Y-612674D02*
X6436730Y-603150D01*
X6436730Y-603150D02*
X6474825Y-603150D01*
X6474825Y-603150D02*
X6493873Y-612674D01*
X6493873Y-612674D02*
X6503396Y-631722D01*
X6503396Y-631722D02*
X6503396Y-650770D01*
X6503396Y-650770D02*
X6408158Y-669817D01*
X6674825Y-736484D02*
X6674825Y-536484D01*
X6674825Y-726960D02*
X6655777Y-736484D01*
X6655777Y-736484D02*
X6617682Y-736484D01*
X6617682Y-736484D02*
X6598634Y-726960D01*
X6598634Y-726960D02*
X6589111Y-717436D01*
X6589111Y-717436D02*
X6579587Y-698389D01*
X6579587Y-698389D02*
X6579587Y-641246D01*
X6579587Y-641246D02*
X6589111Y-622198D01*
X6589111Y-622198D02*
X6598634Y-612674D01*
X6598634Y-612674D02*
X6617682Y-603150D01*
X6617682Y-603150D02*
X6655777Y-603150D01*
X6655777Y-603150D02*
X6674825Y-612674D01*
X6751015Y-812674D02*
X6760539Y-803150D01*
X6760539Y-803150D02*
X6779587Y-774579D01*
X6779587Y-774579D02*
X6789111Y-755531D01*
X6789111Y-755531D02*
X6798634Y-726960D01*
X6798634Y-726960D02*
X6808158Y-679341D01*
X6808158Y-679341D02*
X6808158Y-641246D01*
X6808158Y-641246D02*
X6798634Y-593627D01*
X6798634Y-593627D02*
X6789111Y-565055D01*
X6789111Y-565055D02*
X6779587Y-546008D01*
X6779587Y-546008D02*
X6760539Y-517436D01*
X6760539Y-517436D02*
X6751015Y-507912D01*
D13*
X-5000Y-915000D02*
G75*
G02*
X-185000Y-915000I-90000J0D01*
G01*
X-185000Y-915000D02*
G75*
G02*
X-5000Y-915000I90000J0D01*
G01*
D11*
X360539Y-1006484D02*
X246253Y-1006484D01*
X303396Y-1006484D02*
X303396Y-806484D01*
X303396Y-806484D02*
X284348Y-835055D01*
X284348Y-835055D02*
X265301Y-854103D01*
X265301Y-854103D02*
X246253Y-863627D01*
X446253Y-987436D02*
X455777Y-996960D01*
X455777Y-996960D02*
X446253Y-1006484D01*
X446253Y-1006484D02*
X436729Y-996960D01*
X436729Y-996960D02*
X446253Y-987436D01*
X446253Y-987436D02*
X446253Y-1006484D01*
X570063Y-892198D02*
X551015Y-882674D01*
X551015Y-882674D02*
X541491Y-873150D01*
X541491Y-873150D02*
X531967Y-854103D01*
X531967Y-854103D02*
X531967Y-844579D01*
X531967Y-844579D02*
X541491Y-825531D01*
X541491Y-825531D02*
X551015Y-816008D01*
X551015Y-816008D02*
X570063Y-806484D01*
X570063Y-806484D02*
X608158Y-806484D01*
X608158Y-806484D02*
X627205Y-816008D01*
X627205Y-816008D02*
X636729Y-825531D01*
X636729Y-825531D02*
X646253Y-844579D01*
X646253Y-844579D02*
X646253Y-854103D01*
X646253Y-854103D02*
X636729Y-873150D01*
X636729Y-873150D02*
X627205Y-882674D01*
X627205Y-882674D02*
X608158Y-892198D01*
X608158Y-892198D02*
X570063Y-892198D01*
X570063Y-892198D02*
X551015Y-901722D01*
X551015Y-901722D02*
X541491Y-911246D01*
X541491Y-911246D02*
X531967Y-930293D01*
X531967Y-930293D02*
X531967Y-968388D01*
X531967Y-968388D02*
X541491Y-987436D01*
X541491Y-987436D02*
X551015Y-996960D01*
X551015Y-996960D02*
X570063Y-1006484D01*
X570063Y-1006484D02*
X608158Y-1006484D01*
X608158Y-1006484D02*
X627205Y-996960D01*
X627205Y-996960D02*
X636729Y-987436D01*
X636729Y-987436D02*
X646253Y-968388D01*
X646253Y-968388D02*
X646253Y-930293D01*
X646253Y-930293D02*
X636729Y-911246D01*
X636729Y-911246D02*
X627205Y-901722D01*
X627205Y-901722D02*
X608158Y-892198D01*
X770062Y-806484D02*
X789110Y-806484D01*
X789110Y-806484D02*
X808158Y-816008D01*
X808158Y-816008D02*
X817682Y-825531D01*
X817682Y-825531D02*
X827205Y-844579D01*
X827205Y-844579D02*
X836729Y-882674D01*
X836729Y-882674D02*
X836729Y-930293D01*
X836729Y-930293D02*
X827205Y-968388D01*
X827205Y-968388D02*
X817682Y-987436D01*
X817682Y-987436D02*
X808158Y-996960D01*
X808158Y-996960D02*
X789110Y-1006484D01*
X789110Y-1006484D02*
X770062Y-1006484D01*
X770062Y-1006484D02*
X751015Y-996960D01*
X751015Y-996960D02*
X741491Y-987436D01*
X741491Y-987436D02*
X731967Y-968388D01*
X731967Y-968388D02*
X722443Y-930293D01*
X722443Y-930293D02*
X722443Y-882674D01*
X722443Y-882674D02*
X731967Y-844579D01*
X731967Y-844579D02*
X741491Y-825531D01*
X741491Y-825531D02*
X751015Y-816008D01*
X751015Y-816008D02*
X770062Y-806484D01*
X960539Y-806484D02*
X979586Y-806484D01*
X979586Y-806484D02*
X998634Y-816008D01*
X998634Y-816008D02*
X1008158Y-825531D01*
X1008158Y-825531D02*
X1017682Y-844579D01*
X1017682Y-844579D02*
X1027205Y-882674D01*
X1027205Y-882674D02*
X1027205Y-930293D01*
X1027205Y-930293D02*
X1017682Y-968388D01*
X1017682Y-968388D02*
X1008158Y-987436D01*
X1008158Y-987436D02*
X998634Y-996960D01*
X998634Y-996960D02*
X979586Y-1006484D01*
X979586Y-1006484D02*
X960539Y-1006484D01*
X960539Y-1006484D02*
X941491Y-996960D01*
X941491Y-996960D02*
X931967Y-987436D01*
X931967Y-987436D02*
X922443Y-968388D01*
X922443Y-968388D02*
X912920Y-930293D01*
X912920Y-930293D02*
X912920Y-882674D01*
X912920Y-882674D02*
X922443Y-844579D01*
X922443Y-844579D02*
X931967Y-825531D01*
X931967Y-825531D02*
X941491Y-816008D01*
X941491Y-816008D02*
X960539Y-806484D01*
X1112920Y-1006484D02*
X1112920Y-873150D01*
X1112920Y-892198D02*
X1122444Y-882674D01*
X1122444Y-882674D02*
X1141491Y-873150D01*
X1141491Y-873150D02*
X1170063Y-873150D01*
X1170063Y-873150D02*
X1189110Y-882674D01*
X1189110Y-882674D02*
X1198634Y-901722D01*
X1198634Y-901722D02*
X1198634Y-1006484D01*
X1198634Y-901722D02*
X1208158Y-882674D01*
X1208158Y-882674D02*
X1227205Y-873150D01*
X1227205Y-873150D02*
X1255777Y-873150D01*
X1255777Y-873150D02*
X1274825Y-882674D01*
X1274825Y-882674D02*
X1284348Y-901722D01*
X1284348Y-901722D02*
X1284348Y-1006484D01*
X1379586Y-1006484D02*
X1379586Y-873150D01*
X1379586Y-892198D02*
X1389110Y-882674D01*
X1389110Y-882674D02*
X1408158Y-873150D01*
X1408158Y-873150D02*
X1436729Y-873150D01*
X1436729Y-873150D02*
X1455777Y-882674D01*
X1455777Y-882674D02*
X1465301Y-901722D01*
X1465301Y-901722D02*
X1465301Y-1006484D01*
X1465301Y-901722D02*
X1474824Y-882674D01*
X1474824Y-882674D02*
X1493872Y-873150D01*
X1493872Y-873150D02*
X1522443Y-873150D01*
X1522443Y-873150D02*
X1541491Y-882674D01*
X1541491Y-882674D02*
X1551015Y-901722D01*
X1551015Y-901722D02*
X1551015Y-1006484D01*
X1941491Y-796960D02*
X1770063Y-1054103D01*
X2198634Y-806484D02*
X2217682Y-806484D01*
X2217682Y-806484D02*
X2236729Y-816008D01*
X2236729Y-816008D02*
X2246253Y-825531D01*
X2246253Y-825531D02*
X2255777Y-844579D01*
X2255777Y-844579D02*
X2265301Y-882674D01*
X2265301Y-882674D02*
X2265301Y-930293D01*
X2265301Y-930293D02*
X2255777Y-968388D01*
X2255777Y-968388D02*
X2246253Y-987436D01*
X2246253Y-987436D02*
X2236729Y-996960D01*
X2236729Y-996960D02*
X2217682Y-1006484D01*
X2217682Y-1006484D02*
X2198634Y-1006484D01*
X2198634Y-1006484D02*
X2179587Y-996960D01*
X2179587Y-996960D02*
X2170063Y-987436D01*
X2170063Y-987436D02*
X2160539Y-968388D01*
X2160539Y-968388D02*
X2151015Y-930293D01*
X2151015Y-930293D02*
X2151015Y-882674D01*
X2151015Y-882674D02*
X2160539Y-844579D01*
X2160539Y-844579D02*
X2170063Y-825531D01*
X2170063Y-825531D02*
X2179587Y-816008D01*
X2179587Y-816008D02*
X2198634Y-806484D01*
X2351015Y-987436D02*
X2360539Y-996960D01*
X2360539Y-996960D02*
X2351015Y-1006484D01*
X2351015Y-1006484D02*
X2341491Y-996960D01*
X2341491Y-996960D02*
X2351015Y-987436D01*
X2351015Y-987436D02*
X2351015Y-1006484D01*
X2484348Y-806484D02*
X2503396Y-806484D01*
X2503396Y-806484D02*
X2522444Y-816008D01*
X2522444Y-816008D02*
X2531968Y-825531D01*
X2531968Y-825531D02*
X2541491Y-844579D01*
X2541491Y-844579D02*
X2551015Y-882674D01*
X2551015Y-882674D02*
X2551015Y-930293D01*
X2551015Y-930293D02*
X2541491Y-968388D01*
X2541491Y-968388D02*
X2531968Y-987436D01*
X2531968Y-987436D02*
X2522444Y-996960D01*
X2522444Y-996960D02*
X2503396Y-1006484D01*
X2503396Y-1006484D02*
X2484348Y-1006484D01*
X2484348Y-1006484D02*
X2465301Y-996960D01*
X2465301Y-996960D02*
X2455777Y-987436D01*
X2455777Y-987436D02*
X2446253Y-968388D01*
X2446253Y-968388D02*
X2436729Y-930293D01*
X2436729Y-930293D02*
X2436729Y-882674D01*
X2436729Y-882674D02*
X2446253Y-844579D01*
X2446253Y-844579D02*
X2455777Y-825531D01*
X2455777Y-825531D02*
X2465301Y-816008D01*
X2465301Y-816008D02*
X2484348Y-806484D01*
X2617682Y-806484D02*
X2751015Y-806484D01*
X2751015Y-806484D02*
X2665301Y-1006484D01*
X2865301Y-806484D02*
X2884348Y-806484D01*
X2884348Y-806484D02*
X2903396Y-816008D01*
X2903396Y-816008D02*
X2912920Y-825531D01*
X2912920Y-825531D02*
X2922444Y-844579D01*
X2922444Y-844579D02*
X2931967Y-882674D01*
X2931967Y-882674D02*
X2931967Y-930293D01*
X2931967Y-930293D02*
X2922444Y-968388D01*
X2922444Y-968388D02*
X2912920Y-987436D01*
X2912920Y-987436D02*
X2903396Y-996960D01*
X2903396Y-996960D02*
X2884348Y-1006484D01*
X2884348Y-1006484D02*
X2865301Y-1006484D01*
X2865301Y-1006484D02*
X2846253Y-996960D01*
X2846253Y-996960D02*
X2836729Y-987436D01*
X2836729Y-987436D02*
X2827206Y-968388D01*
X2827206Y-968388D02*
X2817682Y-930293D01*
X2817682Y-930293D02*
X2817682Y-882674D01*
X2817682Y-882674D02*
X2827206Y-844579D01*
X2827206Y-844579D02*
X2836729Y-825531D01*
X2836729Y-825531D02*
X2846253Y-816008D01*
X2846253Y-816008D02*
X2865301Y-806484D01*
X3027206Y-1006484D02*
X3065301Y-1006484D01*
X3065301Y-1006484D02*
X3084348Y-996960D01*
X3084348Y-996960D02*
X3093872Y-987436D01*
X3093872Y-987436D02*
X3112920Y-958865D01*
X3112920Y-958865D02*
X3122444Y-920769D01*
X3122444Y-920769D02*
X3122444Y-844579D01*
X3122444Y-844579D02*
X3112920Y-825531D01*
X3112920Y-825531D02*
X3103396Y-816008D01*
X3103396Y-816008D02*
X3084348Y-806484D01*
X3084348Y-806484D02*
X3046253Y-806484D01*
X3046253Y-806484D02*
X3027206Y-816008D01*
X3027206Y-816008D02*
X3017682Y-825531D01*
X3017682Y-825531D02*
X3008158Y-844579D01*
X3008158Y-844579D02*
X3008158Y-892198D01*
X3008158Y-892198D02*
X3017682Y-911246D01*
X3017682Y-911246D02*
X3027206Y-920769D01*
X3027206Y-920769D02*
X3046253Y-930293D01*
X3046253Y-930293D02*
X3084348Y-930293D01*
X3084348Y-930293D02*
X3103396Y-920769D01*
X3103396Y-920769D02*
X3112920Y-911246D01*
X3112920Y-911246D02*
X3122444Y-892198D01*
X3198634Y-806484D02*
X3198634Y-844579D01*
X3274825Y-806484D02*
X3274825Y-844579D01*
X3570063Y-1082674D02*
X3560539Y-1073150D01*
X3560539Y-1073150D02*
X3541491Y-1044579D01*
X3541491Y-1044579D02*
X3531968Y-1025531D01*
X3531968Y-1025531D02*
X3522444Y-996960D01*
X3522444Y-996960D02*
X3512920Y-949341D01*
X3512920Y-949341D02*
X3512920Y-911246D01*
X3512920Y-911246D02*
X3522444Y-863627D01*
X3522444Y-863627D02*
X3531968Y-835055D01*
X3531968Y-835055D02*
X3541491Y-816008D01*
X3541491Y-816008D02*
X3560539Y-787436D01*
X3560539Y-787436D02*
X3570063Y-777912D01*
X3636729Y-825531D02*
X3646253Y-816008D01*
X3646253Y-816008D02*
X3665301Y-806484D01*
X3665301Y-806484D02*
X3712920Y-806484D01*
X3712920Y-806484D02*
X3731968Y-816008D01*
X3731968Y-816008D02*
X3741491Y-825531D01*
X3741491Y-825531D02*
X3751015Y-844579D01*
X3751015Y-844579D02*
X3751015Y-863627D01*
X3751015Y-863627D02*
X3741491Y-892198D01*
X3741491Y-892198D02*
X3627206Y-1006484D01*
X3627206Y-1006484D02*
X3751015Y-1006484D01*
X3989110Y-1006484D02*
X3989110Y-806484D01*
X4074825Y-1006484D02*
X4074825Y-901722D01*
X4074825Y-901722D02*
X4065301Y-882674D01*
X4065301Y-882674D02*
X4046253Y-873150D01*
X4046253Y-873150D02*
X4017682Y-873150D01*
X4017682Y-873150D02*
X3998634Y-882674D01*
X3998634Y-882674D02*
X3989110Y-892198D01*
X4198634Y-1006484D02*
X4179587Y-996960D01*
X4179587Y-996960D02*
X4170063Y-987436D01*
X4170063Y-987436D02*
X4160539Y-968388D01*
X4160539Y-968388D02*
X4160539Y-911246D01*
X4160539Y-911246D02*
X4170063Y-892198D01*
X4170063Y-892198D02*
X4179587Y-882674D01*
X4179587Y-882674D02*
X4198634Y-873150D01*
X4198634Y-873150D02*
X4227206Y-873150D01*
X4227206Y-873150D02*
X4246253Y-882674D01*
X4246253Y-882674D02*
X4255777Y-892198D01*
X4255777Y-892198D02*
X4265301Y-911246D01*
X4265301Y-911246D02*
X4265301Y-968388D01*
X4265301Y-968388D02*
X4255777Y-987436D01*
X4255777Y-987436D02*
X4246253Y-996960D01*
X4246253Y-996960D02*
X4227206Y-1006484D01*
X4227206Y-1006484D02*
X4198634Y-1006484D01*
X4379587Y-1006484D02*
X4360539Y-996960D01*
X4360539Y-996960D02*
X4351015Y-977912D01*
X4351015Y-977912D02*
X4351015Y-806484D01*
X4531968Y-996960D02*
X4512920Y-1006484D01*
X4512920Y-1006484D02*
X4474825Y-1006484D01*
X4474825Y-1006484D02*
X4455777Y-996960D01*
X4455777Y-996960D02*
X4446253Y-977912D01*
X4446253Y-977912D02*
X4446253Y-901722D01*
X4446253Y-901722D02*
X4455777Y-882674D01*
X4455777Y-882674D02*
X4474825Y-873150D01*
X4474825Y-873150D02*
X4512920Y-873150D01*
X4512920Y-873150D02*
X4531968Y-882674D01*
X4531968Y-882674D02*
X4541492Y-901722D01*
X4541492Y-901722D02*
X4541492Y-920769D01*
X4541492Y-920769D02*
X4446253Y-939817D01*
X4617682Y-996960D02*
X4636730Y-1006484D01*
X4636730Y-1006484D02*
X4674825Y-1006484D01*
X4674825Y-1006484D02*
X4693873Y-996960D01*
X4693873Y-996960D02*
X4703396Y-977912D01*
X4703396Y-977912D02*
X4703396Y-968388D01*
X4703396Y-968388D02*
X4693873Y-949341D01*
X4693873Y-949341D02*
X4674825Y-939817D01*
X4674825Y-939817D02*
X4646253Y-939817D01*
X4646253Y-939817D02*
X4627206Y-930293D01*
X4627206Y-930293D02*
X4617682Y-911246D01*
X4617682Y-911246D02*
X4617682Y-901722D01*
X4617682Y-901722D02*
X4627206Y-882674D01*
X4627206Y-882674D02*
X4646253Y-873150D01*
X4646253Y-873150D02*
X4674825Y-873150D01*
X4674825Y-873150D02*
X4693873Y-882674D01*
X4770063Y-1082674D02*
X4779587Y-1073150D01*
X4779587Y-1073150D02*
X4798634Y-1044579D01*
X4798634Y-1044579D02*
X4808158Y-1025531D01*
X4808158Y-1025531D02*
X4817682Y-996960D01*
X4817682Y-996960D02*
X4827206Y-949341D01*
X4827206Y-949341D02*
X4827206Y-911246D01*
X4827206Y-911246D02*
X4817682Y-863627D01*
X4817682Y-863627D02*
X4808158Y-835055D01*
X4808158Y-835055D02*
X4798634Y-816008D01*
X4798634Y-816008D02*
X4779587Y-787436D01*
X4779587Y-787436D02*
X4770063Y-777912D01*
X5131968Y-1082674D02*
X5122444Y-1073150D01*
X5122444Y-1073150D02*
X5103396Y-1044579D01*
X5103396Y-1044579D02*
X5093873Y-1025531D01*
X5093873Y-1025531D02*
X5084349Y-996960D01*
X5084349Y-996960D02*
X5074825Y-949341D01*
X5074825Y-949341D02*
X5074825Y-911246D01*
X5074825Y-911246D02*
X5084349Y-863627D01*
X5084349Y-863627D02*
X5093873Y-835055D01*
X5093873Y-835055D02*
X5103396Y-816008D01*
X5103396Y-816008D02*
X5122444Y-787436D01*
X5122444Y-787436D02*
X5131968Y-777912D01*
X5208158Y-873150D02*
X5208158Y-1006484D01*
X5208158Y-892198D02*
X5217682Y-882674D01*
X5217682Y-882674D02*
X5236730Y-873150D01*
X5236730Y-873150D02*
X5265301Y-873150D01*
X5265301Y-873150D02*
X5284349Y-882674D01*
X5284349Y-882674D02*
X5293873Y-901722D01*
X5293873Y-901722D02*
X5293873Y-1006484D01*
X5417682Y-1006484D02*
X5398634Y-996960D01*
X5398634Y-996960D02*
X5389111Y-987436D01*
X5389111Y-987436D02*
X5379587Y-968388D01*
X5379587Y-968388D02*
X5379587Y-911246D01*
X5379587Y-911246D02*
X5389111Y-892198D01*
X5389111Y-892198D02*
X5398634Y-882674D01*
X5398634Y-882674D02*
X5417682Y-873150D01*
X5417682Y-873150D02*
X5446254Y-873150D01*
X5446254Y-873150D02*
X5465301Y-882674D01*
X5465301Y-882674D02*
X5474825Y-892198D01*
X5474825Y-892198D02*
X5484349Y-911246D01*
X5484349Y-911246D02*
X5484349Y-968388D01*
X5484349Y-968388D02*
X5474825Y-987436D01*
X5474825Y-987436D02*
X5465301Y-996960D01*
X5465301Y-996960D02*
X5446254Y-1006484D01*
X5446254Y-1006484D02*
X5417682Y-1006484D01*
X5541492Y-873150D02*
X5617682Y-873150D01*
X5570063Y-806484D02*
X5570063Y-977912D01*
X5570063Y-977912D02*
X5579587Y-996960D01*
X5579587Y-996960D02*
X5598634Y-1006484D01*
X5598634Y-1006484D02*
X5617682Y-1006484D01*
X5836730Y-873150D02*
X5836730Y-1073150D01*
X5836730Y-882674D02*
X5855777Y-873150D01*
X5855777Y-873150D02*
X5893873Y-873150D01*
X5893873Y-873150D02*
X5912920Y-882674D01*
X5912920Y-882674D02*
X5922444Y-892198D01*
X5922444Y-892198D02*
X5931968Y-911246D01*
X5931968Y-911246D02*
X5931968Y-968388D01*
X5931968Y-968388D02*
X5922444Y-987436D01*
X5922444Y-987436D02*
X5912920Y-996960D01*
X5912920Y-996960D02*
X5893873Y-1006484D01*
X5893873Y-1006484D02*
X5855777Y-1006484D01*
X5855777Y-1006484D02*
X5836730Y-996960D01*
X6046253Y-1006484D02*
X6027206Y-996960D01*
X6027206Y-996960D02*
X6017682Y-977912D01*
X6017682Y-977912D02*
X6017682Y-806484D01*
X6208158Y-1006484D02*
X6208158Y-901722D01*
X6208158Y-901722D02*
X6198634Y-882674D01*
X6198634Y-882674D02*
X6179587Y-873150D01*
X6179587Y-873150D02*
X6141492Y-873150D01*
X6141492Y-873150D02*
X6122444Y-882674D01*
X6208158Y-996960D02*
X6189111Y-1006484D01*
X6189111Y-1006484D02*
X6141492Y-1006484D01*
X6141492Y-1006484D02*
X6122444Y-996960D01*
X6122444Y-996960D02*
X6112920Y-977912D01*
X6112920Y-977912D02*
X6112920Y-958865D01*
X6112920Y-958865D02*
X6122444Y-939817D01*
X6122444Y-939817D02*
X6141492Y-930293D01*
X6141492Y-930293D02*
X6189111Y-930293D01*
X6189111Y-930293D02*
X6208158Y-920769D01*
X6274825Y-873150D02*
X6351015Y-873150D01*
X6303396Y-806484D02*
X6303396Y-977912D01*
X6303396Y-977912D02*
X6312920Y-996960D01*
X6312920Y-996960D02*
X6331968Y-1006484D01*
X6331968Y-1006484D02*
X6351015Y-1006484D01*
X6493873Y-996960D02*
X6474825Y-1006484D01*
X6474825Y-1006484D02*
X6436730Y-1006484D01*
X6436730Y-1006484D02*
X6417682Y-996960D01*
X6417682Y-996960D02*
X6408158Y-977912D01*
X6408158Y-977912D02*
X6408158Y-901722D01*
X6408158Y-901722D02*
X6417682Y-882674D01*
X6417682Y-882674D02*
X6436730Y-873150D01*
X6436730Y-873150D02*
X6474825Y-873150D01*
X6474825Y-873150D02*
X6493873Y-882674D01*
X6493873Y-882674D02*
X6503396Y-901722D01*
X6503396Y-901722D02*
X6503396Y-920769D01*
X6503396Y-920769D02*
X6408158Y-939817D01*
X6674825Y-1006484D02*
X6674825Y-806484D01*
X6674825Y-996960D02*
X6655777Y-1006484D01*
X6655777Y-1006484D02*
X6617682Y-1006484D01*
X6617682Y-1006484D02*
X6598634Y-996960D01*
X6598634Y-996960D02*
X6589111Y-987436D01*
X6589111Y-987436D02*
X6579587Y-968388D01*
X6579587Y-968388D02*
X6579587Y-911246D01*
X6579587Y-911246D02*
X6589111Y-892198D01*
X6589111Y-892198D02*
X6598634Y-882674D01*
X6598634Y-882674D02*
X6617682Y-873150D01*
X6617682Y-873150D02*
X6655777Y-873150D01*
X6655777Y-873150D02*
X6674825Y-882674D01*
X6751015Y-1082674D02*
X6760539Y-1073150D01*
X6760539Y-1073150D02*
X6779587Y-1044579D01*
X6779587Y-1044579D02*
X6789111Y-1025531D01*
X6789111Y-1025531D02*
X6798634Y-996960D01*
X6798634Y-996960D02*
X6808158Y-949341D01*
X6808158Y-949341D02*
X6808158Y-911246D01*
X6808158Y-911246D02*
X6798634Y-863627D01*
X6798634Y-863627D02*
X6789111Y-835055D01*
X6789111Y-835055D02*
X6779587Y-816008D01*
X6779587Y-816008D02*
X6760539Y-787436D01*
X6760539Y-787436D02*
X6751015Y-777912D01*
M02*
