G04*
G04 #@! TF.GenerationSoftware,Altium Limited,Altium Designer,19.1.7 (138)*
G04*
G04 Layer_Physical_Order=2*
G04 Layer_Color=36540*
%FSLAX44Y44*%
%MOMM*%
G71*
G01*
G75*
%ADD96C,1.4250*%
%ADD97R,1.4250X1.4250*%
%ADD98C,1.6500*%
%ADD100C,1.9500*%
%ADD101C,0.3500*%
G36*
X560055Y433804D02*
X560165Y433798D01*
X560274Y433786D01*
X560382Y433768D01*
X560436Y433756D01*
X562072Y433762D01*
X565286Y433141D01*
X568318Y431910D01*
X571055Y430116D01*
X573394Y427826D01*
X575244Y425126D01*
X576538Y422120D01*
X577226Y418920D01*
X577253Y417284D01*
X577253Y417284D01*
X577253Y417280D01*
X577254Y417271D01*
X577254Y417254D01*
X577254Y15019D01*
X577254Y14985D01*
X577255Y14918D01*
X577256Y14851D01*
X577256Y14784D01*
Y13118D01*
X576626Y9914D01*
X575389Y6893D01*
X573593Y4167D01*
X571304Y1839D01*
X568608Y-4D01*
X565608Y-1292D01*
X562416Y-1976D01*
X560732Y-2004D01*
X560630Y-2001D01*
X560527Y-1992D01*
X560425Y-1978D01*
X560375Y-1968D01*
X560329Y-1977D01*
X560235Y-1990D01*
X560141Y-1999D01*
X560047Y-2004D01*
X16304Y-2004D01*
X15034Y-2004D01*
X13366Y-2030D01*
X10123Y-1438D01*
X7057Y-226D01*
X4286Y1560D01*
X1916Y3852D01*
X38Y6562D01*
X-1275Y9585D01*
X-1974Y12807D01*
X-2003Y14455D01*
X-2004Y15703D01*
X-2004Y416736D01*
X-2004Y416736D01*
X-2004Y416736D01*
X-2029Y418355D01*
X-1459Y421543D01*
X-290Y424563D01*
X1437Y427303D01*
X3656Y429661D01*
X6286Y431551D01*
X9229Y432903D01*
X12376Y433666D01*
X13994Y433739D01*
X14056Y433755D01*
X14181Y433779D01*
X14308Y433796D01*
X14436Y433804D01*
X560055Y433804D01*
D02*
G37*
%LPC*%
G36*
X112268Y365772D02*
X111000Y365519D01*
X109925Y364801D01*
X109207Y363726D01*
X108954Y362458D01*
X109207Y361190D01*
X109925Y360115D01*
X111000Y359397D01*
X112268Y359144D01*
X113536Y359397D01*
X114611Y360115D01*
X115329Y361190D01*
X115582Y362458D01*
X115329Y363726D01*
X114611Y364801D01*
X113536Y365519D01*
X112268Y365772D01*
D02*
G37*
G36*
X43000Y368584D02*
X40455Y368249D01*
X38083Y367267D01*
X36046Y365704D01*
X34483Y363667D01*
X33501Y361295D01*
X33166Y358750D01*
X33501Y356205D01*
X34483Y353833D01*
X36046Y351796D01*
X38083Y350233D01*
X40455Y349251D01*
X43000Y348916D01*
X45545Y349251D01*
X47917Y350233D01*
X49954Y351796D01*
X51517Y353833D01*
X52499Y356205D01*
X52834Y358750D01*
X52499Y361295D01*
X51517Y363667D01*
X49954Y365704D01*
X47917Y367267D01*
X45545Y368249D01*
X43000Y368584D01*
D02*
G37*
G36*
X17600D02*
X15055Y368249D01*
X12683Y367267D01*
X10646Y365704D01*
X9083Y363667D01*
X8101Y361295D01*
X7766Y358750D01*
X8101Y356205D01*
X9083Y353833D01*
X10646Y351796D01*
X12683Y350233D01*
X15055Y349251D01*
X17600Y348916D01*
X20145Y349251D01*
X22517Y350233D01*
X24554Y351796D01*
X26117Y353833D01*
X27099Y356205D01*
X27434Y358750D01*
X27099Y361295D01*
X26117Y363667D01*
X24554Y365704D01*
X22517Y367267D01*
X20145Y368249D01*
X17600Y368584D01*
D02*
G37*
G36*
X462026Y355358D02*
X460758Y355105D01*
X459683Y354387D01*
X458965Y353312D01*
X458712Y352044D01*
X458965Y350776D01*
X459683Y349701D01*
X460758Y348983D01*
X462026Y348730D01*
X463294Y348983D01*
X464369Y349701D01*
X465087Y350776D01*
X465340Y352044D01*
X465087Y353312D01*
X464369Y354387D01*
X463294Y355105D01*
X462026Y355358D01*
D02*
G37*
G36*
X484886Y349008D02*
X483618Y348755D01*
X482543Y348037D01*
X481825Y346962D01*
X481572Y345694D01*
X481825Y344426D01*
X482543Y343351D01*
X483618Y342633D01*
X484886Y342380D01*
X486154Y342633D01*
X487229Y343351D01*
X487947Y344426D01*
X488200Y345694D01*
X487947Y346962D01*
X487229Y348037D01*
X486154Y348755D01*
X484886Y349008D01*
D02*
G37*
G36*
X196342D02*
X195074Y348755D01*
X193999Y348037D01*
X193281Y346962D01*
X193028Y345694D01*
X193281Y344426D01*
X193999Y343351D01*
X195074Y342633D01*
X196342Y342380D01*
X197610Y342633D01*
X198685Y343351D01*
X199403Y344426D01*
X199656Y345694D01*
X199403Y346962D01*
X198685Y348037D01*
X197610Y348755D01*
X196342Y349008D01*
D02*
G37*
G36*
X132600Y347750D02*
X131332Y347497D01*
X130257Y346779D01*
X129539Y345704D01*
X129286Y344436D01*
X129539Y343168D01*
X130257Y342093D01*
X131332Y341375D01*
X132600Y341122D01*
X133868Y341375D01*
X134943Y342093D01*
X135661Y343168D01*
X135914Y344436D01*
X135661Y345704D01*
X134943Y346779D01*
X133868Y347497D01*
X132600Y347750D01*
D02*
G37*
G36*
X92202Y337832D02*
X90934Y337579D01*
X89859Y336861D01*
X89141Y335786D01*
X88888Y334518D01*
X89141Y333250D01*
X89859Y332175D01*
X90934Y331457D01*
X92202Y331204D01*
X93470Y331457D01*
X94545Y332175D01*
X95263Y333250D01*
X95516Y334518D01*
X95263Y335786D01*
X94545Y336861D01*
X93470Y337579D01*
X92202Y337832D01*
D02*
G37*
G36*
X476504Y327926D02*
X475236Y327673D01*
X474161Y326955D01*
X473443Y325880D01*
X473190Y324612D01*
X473443Y323344D01*
X474161Y322269D01*
X475236Y321551D01*
X476504Y321298D01*
X477772Y321551D01*
X478847Y322269D01*
X479565Y323344D01*
X479818Y324612D01*
X479565Y325880D01*
X478847Y326955D01*
X477772Y327673D01*
X476504Y327926D01*
D02*
G37*
G36*
X298196Y327418D02*
X296928Y327165D01*
X295853Y326447D01*
X295135Y325372D01*
X294882Y324104D01*
X295135Y322836D01*
X295853Y321761D01*
X296928Y321043D01*
X298196Y320790D01*
X299464Y321043D01*
X300539Y321761D01*
X301257Y322836D01*
X301510Y324104D01*
X301257Y325372D01*
X300539Y326447D01*
X299464Y327165D01*
X298196Y327418D01*
D02*
G37*
G36*
X340360Y327164D02*
X339092Y326911D01*
X338017Y326193D01*
X337299Y325118D01*
X337046Y323850D01*
X337299Y322582D01*
X338017Y321507D01*
X339092Y320789D01*
X340360Y320536D01*
X341628Y320789D01*
X342703Y321507D01*
X343421Y322582D01*
X343674Y323850D01*
X343421Y325118D01*
X342703Y326193D01*
X341628Y326911D01*
X340360Y327164D01*
D02*
G37*
G36*
X318516Y326910D02*
X317248Y326657D01*
X316173Y325939D01*
X315455Y324864D01*
X315202Y323596D01*
X315455Y322328D01*
X316173Y321253D01*
X317248Y320535D01*
X318516Y320282D01*
X319784Y320535D01*
X320859Y321253D01*
X321577Y322328D01*
X321830Y323596D01*
X321577Y324864D01*
X320859Y325939D01*
X319784Y326657D01*
X318516Y326910D01*
D02*
G37*
G36*
X276352D02*
X275084Y326657D01*
X274009Y325939D01*
X273291Y324864D01*
X273038Y323596D01*
X273291Y322328D01*
X274009Y321253D01*
X275084Y320535D01*
X276352Y320282D01*
X277620Y320535D01*
X278695Y321253D01*
X279413Y322328D01*
X279666Y323596D01*
X279413Y324864D01*
X278695Y325939D01*
X277620Y326657D01*
X276352Y326910D01*
D02*
G37*
G36*
X545084Y323354D02*
X543816Y323101D01*
X542741Y322383D01*
X542023Y321308D01*
X541770Y320040D01*
X542023Y318772D01*
X542741Y317697D01*
X543816Y316979D01*
X545084Y316726D01*
X546352Y316979D01*
X547427Y317697D01*
X548145Y318772D01*
X548398Y320040D01*
X548145Y321308D01*
X547427Y322383D01*
X546352Y323101D01*
X545084Y323354D01*
D02*
G37*
G36*
X432308Y312940D02*
X431040Y312687D01*
X429965Y311969D01*
X429247Y310894D01*
X428994Y309626D01*
X429247Y308358D01*
X429965Y307283D01*
X431040Y306565D01*
X432308Y306312D01*
X433576Y306565D01*
X434651Y307283D01*
X435369Y308358D01*
X435622Y309626D01*
X435369Y310894D01*
X434651Y311969D01*
X433576Y312687D01*
X432308Y312940D01*
D02*
G37*
G36*
X157988Y312686D02*
X156720Y312433D01*
X155645Y311715D01*
X154927Y310640D01*
X154674Y309372D01*
X154927Y308104D01*
X155645Y307029D01*
X156720Y306311D01*
X157988Y306058D01*
X159256Y306311D01*
X160331Y307029D01*
X161049Y308104D01*
X161302Y309372D01*
X161049Y310640D01*
X160331Y311715D01*
X159256Y312433D01*
X157988Y312686D01*
D02*
G37*
G36*
X119634Y308622D02*
X118366Y308369D01*
X117291Y307651D01*
X116573Y306576D01*
X116320Y305308D01*
X116573Y304040D01*
X117291Y302965D01*
X118366Y302247D01*
X119634Y301994D01*
X120902Y302247D01*
X121977Y302965D01*
X122695Y304040D01*
X122948Y305308D01*
X122695Y306576D01*
X121977Y307651D01*
X120902Y308369D01*
X119634Y308622D01*
D02*
G37*
G36*
X446443Y308457D02*
X445175Y308204D01*
X444100Y307486D01*
X443382Y306411D01*
X443129Y305143D01*
X443382Y303875D01*
X444100Y302800D01*
X445175Y302082D01*
X446443Y301829D01*
X447711Y302082D01*
X448786Y302800D01*
X449504Y303875D01*
X449757Y305143D01*
X449504Y306411D01*
X448786Y307486D01*
X447711Y308204D01*
X446443Y308457D01*
D02*
G37*
G36*
X463296Y306844D02*
X462028Y306591D01*
X460953Y305873D01*
X460235Y304798D01*
X459982Y303530D01*
X460235Y302262D01*
X460953Y301187D01*
X462028Y300469D01*
X463296Y300216D01*
X464564Y300469D01*
X465501Y301095D01*
X465779Y300679D01*
X466854Y299961D01*
X468122Y299708D01*
X469390Y299961D01*
X470258Y300541D01*
X470395Y300484D01*
X471113Y299409D01*
X472188Y298691D01*
X473456Y298438D01*
X474724Y298691D01*
X475799Y299409D01*
X476517Y300484D01*
X476770Y301752D01*
X476517Y303020D01*
X475799Y304095D01*
X474724Y304813D01*
X473456Y305066D01*
X472188Y304813D01*
X471320Y304233D01*
X471183Y304290D01*
X470465Y305365D01*
X469390Y306083D01*
X468122Y306336D01*
X466854Y306083D01*
X465917Y305457D01*
X465639Y305873D01*
X464564Y306591D01*
X463296Y306844D01*
D02*
G37*
G36*
X43000Y317784D02*
X40455Y317449D01*
X38083Y316467D01*
X36046Y314904D01*
X34483Y312867D01*
X33501Y310495D01*
X33166Y307950D01*
X33501Y305405D01*
X34483Y303033D01*
X36046Y300996D01*
X38083Y299433D01*
X40455Y298451D01*
X43000Y298116D01*
X45545Y298451D01*
X47917Y299433D01*
X49954Y300996D01*
X51517Y303033D01*
X52499Y305405D01*
X52834Y307950D01*
X52499Y310495D01*
X51517Y312867D01*
X49954Y314904D01*
X47917Y316467D01*
X45545Y317449D01*
X43000Y317784D01*
D02*
G37*
G36*
X17600D02*
X15055Y317449D01*
X12683Y316467D01*
X10646Y314904D01*
X9083Y312867D01*
X8101Y310495D01*
X7766Y307950D01*
X8101Y305405D01*
X9083Y303033D01*
X10646Y300996D01*
X12683Y299433D01*
X15055Y298451D01*
X17600Y298116D01*
X20145Y298451D01*
X22517Y299433D01*
X24554Y300996D01*
X26117Y303033D01*
X27099Y305405D01*
X27434Y307950D01*
X27099Y310495D01*
X26117Y312867D01*
X24554Y314904D01*
X22517Y316467D01*
X20145Y317449D01*
X17600Y317784D01*
D02*
G37*
G36*
X414020Y300240D02*
X412752Y299987D01*
X411677Y299269D01*
X410959Y298194D01*
X410706Y296926D01*
X410959Y295658D01*
X411677Y294583D01*
X412752Y293865D01*
X414020Y293612D01*
X415288Y293865D01*
X416363Y294583D01*
X417081Y295658D01*
X417334Y296926D01*
X417081Y298194D01*
X416363Y299269D01*
X415288Y299987D01*
X414020Y300240D01*
D02*
G37*
G36*
X413766Y290080D02*
X412498Y289827D01*
X411423Y289109D01*
X410705Y288034D01*
X410452Y286766D01*
X410705Y285498D01*
X411423Y284423D01*
X412498Y283705D01*
X413766Y283452D01*
X415034Y283705D01*
X416109Y284423D01*
X416827Y285498D01*
X417080Y286766D01*
X416827Y288034D01*
X416109Y289109D01*
X415034Y289827D01*
X413766Y290080D01*
D02*
G37*
G36*
X84836Y281190D02*
X83568Y280937D01*
X82493Y280219D01*
X81775Y279144D01*
X81522Y277876D01*
X81775Y276608D01*
X82493Y275533D01*
X83568Y274815D01*
X84836Y274562D01*
X86104Y274815D01*
X87179Y275533D01*
X87897Y276608D01*
X88150Y277876D01*
X87897Y279144D01*
X87179Y280219D01*
X86104Y280937D01*
X84836Y281190D01*
D02*
G37*
G36*
X183642Y280682D02*
X182374Y280429D01*
X181299Y279711D01*
X180581Y278636D01*
X180328Y277368D01*
X180581Y276100D01*
X181299Y275025D01*
X182374Y274307D01*
X183642Y274054D01*
X184910Y274307D01*
X185985Y275025D01*
X186703Y276100D01*
X186956Y277368D01*
X186703Y278636D01*
X185985Y279711D01*
X184910Y280429D01*
X183642Y280682D01*
D02*
G37*
G36*
X413766Y280428D02*
X412498Y280175D01*
X411423Y279457D01*
X410705Y278382D01*
X410452Y277114D01*
X410705Y275846D01*
X411423Y274771D01*
X412498Y274053D01*
X413766Y273800D01*
X415034Y274053D01*
X416109Y274771D01*
X416827Y275846D01*
X417080Y277114D01*
X416827Y278382D01*
X416109Y279457D01*
X415034Y280175D01*
X413766Y280428D01*
D02*
G37*
G36*
X170180Y279666D02*
X168912Y279413D01*
X167837Y278695D01*
X167119Y277620D01*
X166866Y276352D01*
X167119Y275084D01*
X167837Y274009D01*
X168912Y273291D01*
X170180Y273038D01*
X171448Y273291D01*
X172523Y274009D01*
X173241Y275084D01*
X173494Y276352D01*
X173241Y277620D01*
X172523Y278695D01*
X171448Y279413D01*
X170180Y279666D01*
D02*
G37*
G36*
X43000Y292384D02*
X40455Y292049D01*
X38083Y291067D01*
X36046Y289504D01*
X34483Y287467D01*
X33501Y285095D01*
X33166Y282550D01*
X33501Y280005D01*
X34483Y277633D01*
X36046Y275596D01*
X38083Y274033D01*
X40455Y273051D01*
X43000Y272716D01*
X45545Y273051D01*
X47917Y274033D01*
X49954Y275596D01*
X51517Y277633D01*
X52499Y280005D01*
X52834Y282550D01*
X52499Y285095D01*
X51517Y287467D01*
X49954Y289504D01*
X47917Y291067D01*
X45545Y292049D01*
X43000Y292384D01*
D02*
G37*
G36*
X17600D02*
X15055Y292049D01*
X12683Y291067D01*
X10646Y289504D01*
X9083Y287467D01*
X8101Y285095D01*
X7766Y282550D01*
X8101Y280005D01*
X9083Y277633D01*
X10646Y275596D01*
X12683Y274033D01*
X15055Y273051D01*
X17600Y272716D01*
X20145Y273051D01*
X22517Y274033D01*
X24554Y275596D01*
X26117Y277633D01*
X27099Y280005D01*
X27434Y282550D01*
X27099Y285095D01*
X26117Y287467D01*
X24554Y289504D01*
X22517Y291067D01*
X20145Y292049D01*
X17600Y292384D01*
D02*
G37*
G36*
X145542Y272300D02*
X144274Y272047D01*
X143199Y271329D01*
X142481Y270254D01*
X142228Y268986D01*
X142481Y267718D01*
X143199Y266643D01*
X144274Y265925D01*
X145542Y265672D01*
X146810Y265925D01*
X147885Y266643D01*
X148603Y267718D01*
X148856Y268986D01*
X148603Y270254D01*
X147885Y271329D01*
X146810Y272047D01*
X145542Y272300D01*
D02*
G37*
G36*
X501396Y270776D02*
X500128Y270523D01*
X499053Y269805D01*
X498335Y268730D01*
X498082Y267462D01*
X498335Y266194D01*
X499053Y265119D01*
X500128Y264401D01*
X501396Y264148D01*
X502664Y264401D01*
X503739Y265119D01*
X504457Y266194D01*
X504710Y267462D01*
X504457Y268730D01*
X503739Y269805D01*
X502664Y270523D01*
X501396Y270776D01*
D02*
G37*
G36*
X414020Y270014D02*
X412752Y269761D01*
X411677Y269043D01*
X410959Y267968D01*
X410706Y266700D01*
X410959Y265432D01*
X411677Y264357D01*
X412752Y263639D01*
X414020Y263386D01*
X415288Y263639D01*
X416363Y264357D01*
X417081Y265432D01*
X417334Y266700D01*
X417081Y267968D01*
X416363Y269043D01*
X415288Y269761D01*
X414020Y270014D01*
D02*
G37*
G36*
X485648Y262140D02*
X484380Y261887D01*
X483305Y261169D01*
X482587Y260094D01*
X482334Y258826D01*
X482587Y257558D01*
X483305Y256483D01*
X484380Y255765D01*
X485648Y255512D01*
X486916Y255765D01*
X487991Y256483D01*
X488709Y257558D01*
X488962Y258826D01*
X488709Y260094D01*
X487991Y261169D01*
X486916Y261887D01*
X485648Y262140D01*
D02*
G37*
G36*
X238760Y258076D02*
X237492Y257823D01*
X236417Y257105D01*
X235699Y256030D01*
X235446Y254762D01*
X235699Y253494D01*
X236417Y252419D01*
X237492Y251701D01*
X238760Y251448D01*
X240028Y251701D01*
X241103Y252419D01*
X241821Y253494D01*
X242074Y254762D01*
X241821Y256030D01*
X241103Y257105D01*
X240028Y257823D01*
X238760Y258076D01*
D02*
G37*
G36*
X43000Y266984D02*
X40455Y266649D01*
X38083Y265667D01*
X36046Y264104D01*
X34483Y262067D01*
X33501Y259695D01*
X33166Y257150D01*
X33501Y254605D01*
X34483Y252233D01*
X36046Y250196D01*
X38083Y248633D01*
X40455Y247651D01*
X43000Y247316D01*
X45545Y247651D01*
X47917Y248633D01*
X49954Y250196D01*
X51517Y252233D01*
X52499Y254605D01*
X52834Y257150D01*
X52499Y259695D01*
X51517Y262067D01*
X49954Y264104D01*
X47917Y265667D01*
X45545Y266649D01*
X43000Y266984D01*
D02*
G37*
G36*
X17600D02*
X15055Y266649D01*
X12683Y265667D01*
X10646Y264104D01*
X9083Y262067D01*
X8101Y259695D01*
X7766Y257150D01*
X8101Y254605D01*
X9083Y252233D01*
X10646Y250196D01*
X12683Y248633D01*
X15055Y247651D01*
X17600Y247316D01*
X20145Y247651D01*
X22517Y248633D01*
X24554Y250196D01*
X26117Y252233D01*
X27099Y254605D01*
X27434Y257150D01*
X27099Y259695D01*
X26117Y262067D01*
X24554Y264104D01*
X22517Y265667D01*
X20145Y266649D01*
X17600Y266984D01*
D02*
G37*
G36*
X496189Y249567D02*
X494921Y249314D01*
X493846Y248596D01*
X493128Y247521D01*
X492875Y246253D01*
X493128Y244985D01*
X493846Y243910D01*
X494921Y243192D01*
X496079Y242961D01*
X496310Y241803D01*
X497028Y240728D01*
X498103Y240010D01*
X499371Y239757D01*
X500639Y240010D01*
X501714Y240728D01*
X502432Y241803D01*
X502685Y243071D01*
X502432Y244339D01*
X501714Y245414D01*
X500639Y246132D01*
X499481Y246363D01*
X499250Y247521D01*
X498532Y248596D01*
X497457Y249314D01*
X496189Y249567D01*
D02*
G37*
G36*
X438404Y245376D02*
X437136Y245123D01*
X436061Y244405D01*
X435343Y243330D01*
X435090Y242062D01*
X435343Y240794D01*
X436061Y239719D01*
X437136Y239001D01*
X438404Y238748D01*
X439672Y239001D01*
X440598Y239619D01*
X440887Y239187D01*
X441962Y238469D01*
X443230Y238216D01*
X444498Y238469D01*
X445036Y238828D01*
X445459Y238195D01*
X446534Y237477D01*
X447802Y237224D01*
X449070Y237477D01*
X450145Y238195D01*
X450736Y239079D01*
X451614Y238493D01*
X452882Y238240D01*
X454150Y238493D01*
X455225Y239211D01*
X455943Y240286D01*
X456196Y241554D01*
X455943Y242822D01*
X455225Y243897D01*
X454150Y244615D01*
X452882Y244868D01*
X451614Y244615D01*
X450539Y243897D01*
X449948Y243013D01*
X449070Y243599D01*
X447802Y243852D01*
X446534Y243599D01*
X445996Y243240D01*
X445573Y243873D01*
X444498Y244591D01*
X443230Y244844D01*
X441962Y244591D01*
X441036Y243973D01*
X440747Y244405D01*
X439672Y245123D01*
X438404Y245376D01*
D02*
G37*
G36*
X469900Y241058D02*
X468632Y240805D01*
X467557Y240087D01*
X466839Y239012D01*
X466586Y237744D01*
X466839Y236476D01*
X467557Y235401D01*
X468632Y234683D01*
X469900Y234430D01*
X471168Y234683D01*
X472243Y235401D01*
X472961Y236476D01*
X473214Y237744D01*
X472961Y239012D01*
X472243Y240087D01*
X471168Y240805D01*
X469900Y241058D01*
D02*
G37*
G36*
X461500Y240831D02*
X460232Y240578D01*
X459157Y239860D01*
X458439Y238785D01*
X458186Y237517D01*
X458439Y236249D01*
X459157Y235174D01*
X460232Y234456D01*
X461500Y234203D01*
X462768Y234456D01*
X463843Y235174D01*
X464561Y236249D01*
X464814Y237517D01*
X464561Y238785D01*
X463843Y239860D01*
X462768Y240578D01*
X461500Y240831D01*
D02*
G37*
G36*
X435864Y235724D02*
X434596Y235471D01*
X433521Y234753D01*
X432803Y233678D01*
X432550Y232410D01*
X432803Y231142D01*
X433521Y230067D01*
X434596Y229349D01*
X435864Y229096D01*
X437132Y229349D01*
X438207Y230067D01*
X438925Y231142D01*
X439178Y232410D01*
X438925Y233678D01*
X438207Y234753D01*
X437132Y235471D01*
X435864Y235724D01*
D02*
G37*
G36*
X52750Y241500D02*
X33250D01*
Y222000D01*
X52750D01*
Y241500D01*
D02*
G37*
G36*
X17600Y241584D02*
X15055Y241249D01*
X12683Y240267D01*
X10646Y238704D01*
X9083Y236667D01*
X8101Y234295D01*
X7766Y231750D01*
X8101Y229205D01*
X9083Y226833D01*
X10646Y224796D01*
X12683Y223233D01*
X15055Y222251D01*
X17600Y221916D01*
X20145Y222251D01*
X22517Y223233D01*
X24554Y224796D01*
X26117Y226833D01*
X27099Y229205D01*
X27434Y231750D01*
X27099Y234295D01*
X26117Y236667D01*
X24554Y238704D01*
X22517Y240267D01*
X20145Y241249D01*
X17600Y241584D01*
D02*
G37*
G36*
X499697Y228436D02*
X498428Y228184D01*
X497354Y227466D01*
X496635Y226391D01*
X496405Y225232D01*
X495247Y225002D01*
X494171Y224284D01*
X493453Y223209D01*
X493201Y221941D01*
X493453Y220673D01*
X494171Y219597D01*
X495247Y218879D01*
X496515Y218627D01*
X497783Y218879D01*
X498858Y219597D01*
X499576Y220673D01*
X499806Y221831D01*
X500965Y222061D01*
X502040Y222780D01*
X502758Y223855D01*
X503010Y225123D01*
X502758Y226391D01*
X502040Y227466D01*
X500965Y228184D01*
X499697Y228436D01*
D02*
G37*
G36*
X521716Y211594D02*
X520448Y211341D01*
X519373Y210623D01*
X518655Y209548D01*
X518402Y208280D01*
X518655Y207012D01*
X519373Y205937D01*
X520448Y205219D01*
X521716Y204966D01*
X522984Y205219D01*
X524059Y205937D01*
X524777Y207012D01*
X525030Y208280D01*
X524777Y209548D01*
X524059Y210623D01*
X522984Y211341D01*
X521716Y211594D01*
D02*
G37*
G36*
X410718Y207276D02*
X409450Y207023D01*
X408375Y206305D01*
X407657Y205230D01*
X407404Y203962D01*
X407657Y202694D01*
X408375Y201619D01*
X409450Y200901D01*
X410718Y200648D01*
X411986Y200901D01*
X413061Y201619D01*
X413779Y202694D01*
X414032Y203962D01*
X413779Y205230D01*
X413061Y206305D01*
X411986Y207023D01*
X410718Y207276D01*
D02*
G37*
G36*
X481330Y201180D02*
X480062Y200927D01*
X478987Y200209D01*
X478269Y199134D01*
X478016Y197866D01*
X478269Y196598D01*
X478987Y195523D01*
X478280Y194577D01*
X477012Y194830D01*
X475744Y194577D01*
X474669Y193859D01*
X473951Y192784D01*
X473698Y191516D01*
X473951Y190248D01*
X474669Y189173D01*
X475744Y188455D01*
X477012Y188202D01*
X478280Y188455D01*
X479355Y189173D01*
X480073Y190248D01*
X480326Y191516D01*
X480073Y192784D01*
X479355Y193859D01*
X480062Y194805D01*
X481330Y194552D01*
X482598Y194805D01*
X483673Y195523D01*
X484391Y196598D01*
X484644Y197866D01*
X484391Y199134D01*
X483673Y200209D01*
X482598Y200927D01*
X481330Y201180D01*
D02*
G37*
G36*
X466090Y200418D02*
X464822Y200165D01*
X463747Y199447D01*
X463029Y198372D01*
X462776Y197104D01*
X463029Y195836D01*
X463747Y194761D01*
X464822Y194043D01*
X466090Y193790D01*
X467358Y194043D01*
X468433Y194761D01*
X469151Y195836D01*
X469404Y197104D01*
X469151Y198372D01*
X468433Y199447D01*
X467358Y200165D01*
X466090Y200418D01*
D02*
G37*
G36*
X137668Y199402D02*
X136400Y199149D01*
X135325Y198431D01*
X134607Y197356D01*
X134354Y196088D01*
X134607Y194820D01*
X135325Y193745D01*
X136400Y193027D01*
X137668Y192774D01*
X138936Y193027D01*
X140011Y193745D01*
X140729Y194820D01*
X140982Y196088D01*
X140729Y197356D01*
X140011Y198431D01*
X138936Y199149D01*
X137668Y199402D01*
D02*
G37*
G36*
X506476Y195084D02*
X505208Y194831D01*
X504133Y194113D01*
X503415Y193038D01*
X503162Y191770D01*
X503415Y190502D01*
X504133Y189427D01*
X505208Y188709D01*
X506476Y188456D01*
X507744Y188709D01*
X508819Y189427D01*
X509537Y190502D01*
X509790Y191770D01*
X509537Y193038D01*
X508819Y194113D01*
X507744Y194831D01*
X506476Y195084D01*
D02*
G37*
G36*
X332740Y192544D02*
X331472Y192291D01*
X330397Y191573D01*
X329679Y190498D01*
X329426Y189230D01*
X329679Y187962D01*
X330397Y186887D01*
X331472Y186169D01*
X332740Y185916D01*
X334008Y186169D01*
X335083Y186887D01*
X335801Y187962D01*
X336054Y189230D01*
X335801Y190498D01*
X335083Y191573D01*
X334008Y192291D01*
X332740Y192544D01*
D02*
G37*
G36*
X487934Y186702D02*
X486666Y186449D01*
X485591Y185731D01*
X484873Y184656D01*
X484620Y183388D01*
X484873Y182120D01*
X485591Y181045D01*
X486666Y180327D01*
X487934Y180074D01*
X489202Y180327D01*
X490277Y181045D01*
X490995Y182120D01*
X491248Y183388D01*
X490995Y184656D01*
X490277Y185731D01*
X489202Y186449D01*
X487934Y186702D01*
D02*
G37*
G36*
X41650Y195199D02*
X39398Y194903D01*
X37300Y194034D01*
X35499Y192651D01*
X34116Y190850D01*
X33247Y188752D01*
X32951Y186500D01*
X33247Y184248D01*
X34116Y182150D01*
X35499Y180349D01*
X37300Y178966D01*
X39398Y178097D01*
X41650Y177801D01*
X43902Y178097D01*
X46000Y178966D01*
X47801Y180349D01*
X49184Y182150D01*
X50053Y184248D01*
X50349Y186500D01*
X50053Y188752D01*
X49184Y190850D01*
X47801Y192651D01*
X46000Y194034D01*
X43902Y194903D01*
X41650Y195199D01*
D02*
G37*
G36*
X417923Y181529D02*
X416654Y181277D01*
X415579Y180559D01*
X414861Y179484D01*
X414609Y178216D01*
X414861Y176947D01*
X415579Y175872D01*
X416654Y175154D01*
X417923Y174902D01*
X419191Y175154D01*
X420266Y175872D01*
X420984Y176947D01*
X421236Y178216D01*
X420984Y179484D01*
X420266Y180559D01*
X419191Y181277D01*
X417923Y181529D01*
D02*
G37*
G36*
X505460Y176542D02*
X504192Y176289D01*
X503117Y175571D01*
X502399Y174496D01*
X502146Y173228D01*
X502399Y171960D01*
X503117Y170885D01*
X504192Y170167D01*
X505460Y169914D01*
X506728Y170167D01*
X507803Y170885D01*
X508521Y171960D01*
X508774Y173228D01*
X508521Y174496D01*
X507803Y175571D01*
X506728Y176289D01*
X505460Y176542D01*
D02*
G37*
G36*
X166878Y176034D02*
X165610Y175781D01*
X164535Y175063D01*
X163817Y173988D01*
X163564Y172720D01*
X163817Y171452D01*
X164535Y170377D01*
X165610Y169659D01*
X166878Y169406D01*
X168146Y169659D01*
X169221Y170377D01*
X169939Y171452D01*
X170192Y172720D01*
X169939Y173988D01*
X169221Y175063D01*
X168146Y175781D01*
X166878Y176034D01*
D02*
G37*
G36*
X135636Y175272D02*
X134368Y175019D01*
X133293Y174301D01*
X132575Y173226D01*
X132322Y171958D01*
X132575Y170690D01*
X133293Y169615D01*
X134368Y168897D01*
X135636Y168644D01*
X136904Y168897D01*
X137979Y169615D01*
X138697Y170690D01*
X138950Y171958D01*
X138697Y173226D01*
X137979Y174301D01*
X136904Y175019D01*
X135636Y175272D01*
D02*
G37*
G36*
X418084Y170700D02*
X416816Y170447D01*
X415741Y169729D01*
X415023Y168654D01*
X414770Y167386D01*
X414820Y167075D01*
X414819Y167075D01*
X414819Y167075D01*
X413635Y166584D01*
X413605Y166629D01*
X413061Y167443D01*
X411986Y168161D01*
X410718Y168414D01*
X409450Y168161D01*
X408375Y167443D01*
X407657Y166368D01*
X407404Y165100D01*
X407657Y163832D01*
X408375Y162757D01*
X409450Y162039D01*
X410718Y161786D01*
X411986Y162039D01*
X413061Y162757D01*
X413779Y163832D01*
X414032Y165100D01*
X413982Y165411D01*
X413983Y165411D01*
X413983Y165411D01*
X415167Y165902D01*
X415197Y165857D01*
X415741Y165043D01*
X416816Y164325D01*
X417944Y164100D01*
X418089Y164066D01*
X418910Y162942D01*
X418834Y162560D01*
X419087Y161292D01*
X419666Y160424D01*
X419610Y160287D01*
X418535Y159569D01*
X417817Y158494D01*
X417564Y157226D01*
X417817Y155958D01*
X418535Y154883D01*
X418597Y154841D01*
X419341Y153668D01*
X419088Y152400D01*
X419341Y151132D01*
X420059Y150057D01*
X421134Y149339D01*
X422402Y149086D01*
X423670Y149339D01*
X424745Y150057D01*
X425463Y151132D01*
X425716Y152400D01*
X425463Y153668D01*
X424745Y154743D01*
X424683Y154785D01*
X423939Y155958D01*
X424192Y157226D01*
X423939Y158494D01*
X423359Y159362D01*
X423416Y159499D01*
X424491Y160217D01*
X425209Y161292D01*
X425462Y162560D01*
X425209Y163828D01*
X424491Y164903D01*
X423416Y165621D01*
X422288Y165846D01*
X422143Y165880D01*
X421322Y167004D01*
X421398Y167386D01*
X421145Y168654D01*
X420427Y169729D01*
X419352Y170447D01*
X418084Y170700D01*
D02*
G37*
G36*
X331763Y160159D02*
X330495Y159906D01*
X329420Y159188D01*
X328702Y158113D01*
X328449Y156845D01*
X328702Y155577D01*
X329420Y154502D01*
X330495Y153784D01*
X331763Y153531D01*
X333031Y153784D01*
X334106Y154502D01*
X334824Y155577D01*
X335077Y156845D01*
X334824Y158113D01*
X334106Y159188D01*
X333031Y159906D01*
X331763Y160159D01*
D02*
G37*
G36*
X41650Y169799D02*
X39398Y169503D01*
X37300Y168634D01*
X35499Y167251D01*
X34116Y165450D01*
X33247Y163352D01*
X32951Y161100D01*
X33247Y158848D01*
X34116Y156750D01*
X35499Y154949D01*
X37300Y153566D01*
X39398Y152697D01*
X41650Y152401D01*
X43902Y152697D01*
X46000Y153566D01*
X47801Y154949D01*
X49184Y156750D01*
X50053Y158848D01*
X50349Y161100D01*
X50053Y163352D01*
X49184Y165450D01*
X47801Y167251D01*
X46000Y168634D01*
X43902Y169503D01*
X41650Y169799D01*
D02*
G37*
G36*
X16250D02*
X13998Y169503D01*
X11900Y168634D01*
X10099Y167251D01*
X8716Y165450D01*
X7847Y163352D01*
X7551Y161100D01*
X7847Y158848D01*
X8716Y156750D01*
X10099Y154949D01*
X11900Y153566D01*
X13998Y152697D01*
X16250Y152401D01*
X18502Y152697D01*
X20600Y153566D01*
X22401Y154949D01*
X23784Y156750D01*
X24653Y158848D01*
X24949Y161100D01*
X24653Y163352D01*
X23784Y165450D01*
X22401Y167251D01*
X20600Y168634D01*
X18502Y169503D01*
X16250Y169799D01*
D02*
G37*
G36*
X175514Y156984D02*
X174246Y156731D01*
X173171Y156013D01*
X172453Y154938D01*
X172200Y153670D01*
X172453Y152402D01*
X173171Y151327D01*
X174246Y150609D01*
X175514Y150356D01*
X176782Y150609D01*
X177857Y151327D01*
X178575Y152402D01*
X178828Y153670D01*
X178575Y154938D01*
X177857Y156013D01*
X176782Y156731D01*
X175514Y156984D01*
D02*
G37*
G36*
X409448Y156222D02*
X408180Y155969D01*
X407105Y155251D01*
X406387Y154176D01*
X406134Y152908D01*
X406387Y151640D01*
X407105Y150565D01*
X408180Y149847D01*
X409448Y149594D01*
X410716Y149847D01*
X411791Y150565D01*
X412509Y151640D01*
X412762Y152908D01*
X412509Y154176D01*
X411791Y155251D01*
X410716Y155969D01*
X409448Y156222D01*
D02*
G37*
G36*
X165148Y149666D02*
X163880Y149413D01*
X162805Y148695D01*
X162087Y147620D01*
X161834Y146352D01*
X162087Y145084D01*
X162805Y144009D01*
X163880Y143291D01*
X165148Y143038D01*
X166416Y143291D01*
X167491Y144009D01*
X168209Y145084D01*
X168462Y146352D01*
X168209Y147620D01*
X167491Y148695D01*
X166416Y149413D01*
X165148Y149666D01*
D02*
G37*
G36*
X507746Y148602D02*
X506478Y148349D01*
X505403Y147631D01*
X504685Y146556D01*
X504432Y145288D01*
X504685Y144020D01*
X505403Y142945D01*
X506478Y142227D01*
X507746Y141974D01*
X509014Y142227D01*
X510089Y142945D01*
X510807Y144020D01*
X511060Y145288D01*
X510807Y146556D01*
X510089Y147631D01*
X509014Y148349D01*
X507746Y148602D01*
D02*
G37*
G36*
X160274Y141744D02*
X159006Y141491D01*
X157931Y140773D01*
X157213Y139698D01*
X156960Y138430D01*
X157213Y137162D01*
X157931Y136087D01*
X159006Y135369D01*
X160274Y135116D01*
X161542Y135369D01*
X162617Y136087D01*
X163335Y137162D01*
X163588Y138430D01*
X163335Y139698D01*
X162617Y140773D01*
X161542Y141491D01*
X160274Y141744D01*
D02*
G37*
G36*
X249682Y140796D02*
X248414Y140543D01*
X247339Y139825D01*
X246621Y138750D01*
X246368Y137482D01*
X246621Y136214D01*
X247339Y135139D01*
X248414Y134421D01*
X249682Y134169D01*
X250950Y134421D01*
X252025Y135139D01*
X252743Y136214D01*
X252996Y137482D01*
X252743Y138750D01*
X252025Y139825D01*
X250950Y140543D01*
X249682Y140796D01*
D02*
G37*
G36*
X513080Y139966D02*
X511812Y139713D01*
X510737Y138995D01*
X510019Y137920D01*
X509766Y136652D01*
X510019Y135384D01*
X510737Y134309D01*
X511812Y133591D01*
X513080Y133338D01*
X514348Y133591D01*
X515423Y134309D01*
X516141Y135384D01*
X516394Y136652D01*
X516141Y137920D01*
X515423Y138995D01*
X514348Y139713D01*
X513080Y139966D01*
D02*
G37*
G36*
X494538Y140728D02*
X493270Y140475D01*
X492195Y139757D01*
X491477Y138682D01*
X491224Y137414D01*
X491477Y136146D01*
X492103Y135209D01*
X491687Y134931D01*
X490969Y133856D01*
X490716Y132588D01*
X490969Y131320D01*
X491687Y130245D01*
X492762Y129527D01*
X494030Y129274D01*
X495298Y129527D01*
X496373Y130245D01*
X497091Y131320D01*
X497344Y132588D01*
X497091Y133856D01*
X496465Y134793D01*
X496881Y135071D01*
X497599Y136146D01*
X497852Y137414D01*
X497599Y138682D01*
X496881Y139757D01*
X495806Y140475D01*
X494538Y140728D01*
D02*
G37*
G36*
X421220Y135814D02*
X419952Y135561D01*
X418877Y134843D01*
X418159Y133768D01*
X417906Y132500D01*
X418159Y131232D01*
X418877Y130157D01*
X419952Y129439D01*
X421220Y129186D01*
X422488Y129439D01*
X423563Y130157D01*
X424281Y131232D01*
X424534Y132500D01*
X424281Y133768D01*
X423563Y134843D01*
X422488Y135561D01*
X421220Y135814D01*
D02*
G37*
G36*
X41650Y144399D02*
X39398Y144103D01*
X37300Y143234D01*
X35499Y141851D01*
X34116Y140050D01*
X33247Y137952D01*
X32951Y135700D01*
X33247Y133448D01*
X34116Y131350D01*
X35499Y129549D01*
X37300Y128166D01*
X39398Y127297D01*
X41650Y127001D01*
X43902Y127297D01*
X46000Y128166D01*
X47801Y129549D01*
X49184Y131350D01*
X50053Y133448D01*
X50349Y135700D01*
X50053Y137952D01*
X49184Y140050D01*
X47801Y141851D01*
X46000Y143234D01*
X43902Y144103D01*
X41650Y144399D01*
D02*
G37*
G36*
X16250D02*
X13998Y144103D01*
X11900Y143234D01*
X10099Y141851D01*
X8716Y140050D01*
X7847Y137952D01*
X7551Y135700D01*
X7847Y133448D01*
X8716Y131350D01*
X10099Y129549D01*
X11900Y128166D01*
X13998Y127297D01*
X16250Y127001D01*
X18502Y127297D01*
X20600Y128166D01*
X22401Y129549D01*
X23784Y131350D01*
X24653Y133448D01*
X24949Y135700D01*
X24653Y137952D01*
X23784Y140050D01*
X22401Y141851D01*
X20600Y143234D01*
X18502Y144103D01*
X16250Y144399D01*
D02*
G37*
G36*
X553212Y126758D02*
X551944Y126505D01*
X550869Y125787D01*
X550151Y124712D01*
X549898Y123444D01*
X550151Y122176D01*
X550869Y121101D01*
X551944Y120383D01*
X553212Y120130D01*
X554480Y120383D01*
X555555Y121101D01*
X556273Y122176D01*
X556526Y123444D01*
X556273Y124712D01*
X555555Y125787D01*
X554480Y126505D01*
X553212Y126758D01*
D02*
G37*
G36*
X164846Y122694D02*
X163578Y122441D01*
X162503Y121723D01*
X161785Y120648D01*
X161532Y119380D01*
X161785Y118112D01*
X162503Y117037D01*
X163578Y116319D01*
X164846Y116066D01*
X166114Y116319D01*
X167189Y117037D01*
X167907Y118112D01*
X168160Y119380D01*
X167907Y120648D01*
X167189Y121723D01*
X166114Y122441D01*
X164846Y122694D01*
D02*
G37*
G36*
X143422D02*
X142154Y122441D01*
X141079Y121723D01*
X140361Y120648D01*
X140108Y119380D01*
X140361Y118112D01*
X141079Y117037D01*
X142154Y116319D01*
X143422Y116066D01*
X144690Y116319D01*
X145765Y117037D01*
X146483Y118112D01*
X146736Y119380D01*
X146483Y120648D01*
X145765Y121723D01*
X144690Y122441D01*
X143422Y122694D01*
D02*
G37*
G36*
X444246Y116852D02*
X442978Y116599D01*
X441903Y115881D01*
X441185Y114806D01*
X440932Y113538D01*
X441185Y112270D01*
X441903Y111195D01*
X442978Y110477D01*
X444246Y110224D01*
X445514Y110477D01*
X446589Y111195D01*
X447307Y112270D01*
X447560Y113538D01*
X447307Y114806D01*
X446589Y115881D01*
X445514Y116599D01*
X444246Y116852D01*
D02*
G37*
G36*
X465836Y116344D02*
X464568Y116091D01*
X463493Y115373D01*
X462775Y114298D01*
X462522Y113030D01*
X462775Y111762D01*
X463493Y110687D01*
X464568Y109969D01*
X465836Y109716D01*
X467104Y109969D01*
X468179Y110687D01*
X468897Y111762D01*
X469150Y113030D01*
X468897Y114298D01*
X468179Y115373D01*
X467104Y116091D01*
X465836Y116344D01*
D02*
G37*
G36*
X41650Y118999D02*
X39398Y118703D01*
X37300Y117834D01*
X35499Y116451D01*
X34116Y114650D01*
X33247Y112552D01*
X32951Y110300D01*
X33247Y108048D01*
X34116Y105950D01*
X35499Y104149D01*
X37300Y102766D01*
X39398Y101897D01*
X41650Y101601D01*
X43902Y101897D01*
X46000Y102766D01*
X47801Y104149D01*
X49184Y105950D01*
X50053Y108048D01*
X50349Y110300D01*
X50053Y112552D01*
X49184Y114650D01*
X47801Y116451D01*
X46000Y117834D01*
X43902Y118703D01*
X41650Y118999D01*
D02*
G37*
G36*
X16250D02*
X13998Y118703D01*
X11900Y117834D01*
X10099Y116451D01*
X8716Y114650D01*
X7847Y112552D01*
X7551Y110300D01*
X7847Y108048D01*
X8716Y105950D01*
X10099Y104149D01*
X11900Y102766D01*
X13998Y101897D01*
X16250Y101601D01*
X18502Y101897D01*
X20600Y102766D01*
X22401Y104149D01*
X23784Y105950D01*
X24653Y108048D01*
X24949Y110300D01*
X24653Y112552D01*
X23784Y114650D01*
X22401Y116451D01*
X20600Y117834D01*
X18502Y118703D01*
X16250Y118999D01*
D02*
G37*
G36*
Y93599D02*
X13998Y93303D01*
X11900Y92434D01*
X10099Y91051D01*
X8716Y89250D01*
X7847Y87152D01*
X7551Y84900D01*
X7847Y82648D01*
X8716Y80550D01*
X10099Y78749D01*
X11900Y77366D01*
X13998Y76497D01*
X16250Y76201D01*
X18502Y76497D01*
X20600Y77366D01*
X22401Y78749D01*
X23784Y80550D01*
X24653Y82648D01*
X24949Y84900D01*
X24653Y87152D01*
X23784Y89250D01*
X22401Y91051D01*
X20600Y92434D01*
X18502Y93303D01*
X16250Y93599D01*
D02*
G37*
%LPD*%
D96*
X41650Y84900D02*
D03*
D97*
X16250Y186500D02*
D03*
D98*
X17600Y333350D02*
D03*
X43000D02*
D03*
D100*
X547950Y193000D02*
D03*
Y259000D02*
D03*
D101*
X421196Y362114D02*
D03*
X486728Y398436D02*
D03*
X536258Y402246D02*
D03*
X569278Y266864D02*
D03*
X570040Y322236D02*
D03*
X568516Y375322D02*
D03*
X560134Y420788D02*
D03*
X503746Y423582D02*
D03*
X444564Y424344D02*
D03*
X399098Y406818D02*
D03*
X372428Y365924D02*
D03*
X356172Y422058D02*
D03*
X300546Y422820D02*
D03*
X246190Y421042D02*
D03*
X255588Y327824D02*
D03*
X256604Y376338D02*
D03*
X216726Y345604D02*
D03*
X136970Y418756D02*
D03*
X215202Y387768D02*
D03*
X188786Y418248D02*
D03*
X134938Y393610D02*
D03*
X83630Y414184D02*
D03*
X76264Y374052D02*
D03*
X28512Y401230D02*
D03*
X92774Y297598D02*
D03*
X65596Y204380D02*
D03*
X361506Y313854D02*
D03*
X547434Y288708D02*
D03*
X539052Y156628D02*
D03*
X296482Y89572D02*
D03*
X358204Y120052D02*
D03*
X206312Y140118D02*
D03*
X279972Y153326D02*
D03*
X23686Y33438D02*
D03*
X71184Y38772D02*
D03*
X155004Y35978D02*
D03*
X193104Y37248D02*
D03*
X245936Y104812D02*
D03*
X525336Y27342D02*
D03*
X475806Y45122D02*
D03*
X439992Y16166D02*
D03*
X420434Y53250D02*
D03*
X369380Y23278D02*
D03*
X296990Y19214D02*
D03*
X336614Y60108D02*
D03*
X381826Y89064D02*
D03*
X379794Y221144D02*
D03*
X349822Y244258D02*
D03*
X292926Y299630D02*
D03*
X240856Y360336D02*
D03*
X221298Y314616D02*
D03*
X257620Y290486D02*
D03*
X228664Y281342D02*
D03*
X254826Y259498D02*
D03*
X477500Y205000D02*
D03*
X68000Y141000D02*
D03*
X180086Y131318D02*
D03*
X490474Y220472D02*
D03*
X506730Y136144D02*
D03*
X437134Y223774D02*
D03*
X458978Y307086D02*
D03*
X152500Y179500D02*
D03*
X449492Y262500D02*
D03*
X456992D02*
D03*
X464492D02*
D03*
Y270000D02*
D03*
X456992D02*
D03*
X449492D02*
D03*
Y277500D02*
D03*
X456992D02*
D03*
X464492D02*
D03*
X471992D02*
D03*
Y270000D02*
D03*
Y262500D02*
D03*
Y255000D02*
D03*
X464492D02*
D03*
X456992D02*
D03*
X449492D02*
D03*
X441992D02*
D03*
Y262500D02*
D03*
Y270000D02*
D03*
Y277500D02*
D03*
X471992Y285000D02*
D03*
X464492D02*
D03*
X456992D02*
D03*
X449492D02*
D03*
X441992D02*
D03*
X76454Y334518D02*
D03*
X196088Y278638D02*
D03*
X72390Y288036D02*
D03*
X123190Y259080D02*
D03*
X122936Y245872D02*
D03*
X349504Y404114D02*
D03*
X267716Y403606D02*
D03*
X451866Y403860D02*
D03*
X505968Y377698D02*
D03*
X519684Y354584D02*
D03*
X485394Y354330D02*
D03*
X533146Y307594D02*
D03*
X523748Y318770D02*
D03*
X505968Y208788D02*
D03*
X506222Y236728D02*
D03*
X523748Y247904D02*
D03*
X521462Y242824D02*
D03*
X559562Y213868D02*
D03*
X559308Y237998D02*
D03*
X523240Y268224D02*
D03*
X501142Y258826D02*
D03*
X508508Y283718D02*
D03*
X490474Y296926D02*
D03*
X485902Y324104D02*
D03*
X455930Y317246D02*
D03*
X433324Y317500D02*
D03*
X401066Y306070D02*
D03*
X407162Y261112D02*
D03*
X522500Y182500D02*
D03*
X497500Y192500D02*
D03*
X505000Y182500D02*
D03*
X460000Y150000D02*
D03*
X450000D02*
D03*
Y160000D02*
D03*
X460000D02*
D03*
X478008D02*
D03*
Y150000D02*
D03*
X460000Y140000D02*
D03*
X450000D02*
D03*
X440000D02*
D03*
X440508Y150000D02*
D03*
Y160000D02*
D03*
X478008Y170000D02*
D03*
X460000D02*
D03*
X450000D02*
D03*
X440508D02*
D03*
X526000Y130750D02*
D03*
X496500Y121750D02*
D03*
X519250Y98750D02*
D03*
X489500Y74500D02*
D03*
X466500Y104750D02*
D03*
X432500Y104500D02*
D03*
X401250Y203500D02*
D03*
X401750Y174500D02*
D03*
X390750Y166250D02*
D03*
X339250Y122000D02*
D03*
X298750Y122500D02*
D03*
X292250Y182000D02*
D03*
X314250Y201000D02*
D03*
X300000Y243250D02*
D03*
X310000Y244000D02*
D03*
X259500D02*
D03*
X234750Y131500D02*
D03*
X260750Y149750D02*
D03*
X261500Y169250D02*
D03*
X240000Y214000D02*
D03*
X218250D02*
D03*
X211500Y236500D02*
D03*
X191750Y236750D02*
D03*
X97250Y221250D02*
D03*
X105250Y196250D02*
D03*
X95500Y186750D02*
D03*
X154750D02*
D03*
X150000Y151500D02*
D03*
X135000Y156750D02*
D03*
X155500Y171750D02*
D03*
X182000Y187250D02*
D03*
X184500Y173000D02*
D03*
X184750Y162750D02*
D03*
X182250Y148250D02*
D03*
X182500Y137750D02*
D03*
X292250Y68250D02*
D03*
X206750Y69500D02*
D03*
X178500Y69500D02*
D03*
X93500Y70000D02*
D03*
X91500Y96500D02*
D03*
X95250Y171750D02*
D03*
X82250Y147000D02*
D03*
X78000Y135500D02*
D03*
M02*
