G04*
G04 #@! TF.GenerationSoftware,Altium Limited,Altium Designer,19.1.7 (138)*
G04*
G04 Layer_Color=32896*
%FSLAX44Y44*%
%MOMM*%
G71*
G01*
G75*
%ADD12C,0.2000*%
G36*
X82524Y87879D02*
X82597Y87872D01*
X82685Y87865D01*
X82780Y87857D01*
X82889Y87843D01*
X83109Y87792D01*
X83343Y87726D01*
X83453Y87682D01*
X83562Y87631D01*
X83672Y87572D01*
X83767Y87506D01*
X83775Y87499D01*
X83789Y87492D01*
X83819Y87470D01*
X83848Y87440D01*
X83892Y87396D01*
X83936Y87353D01*
X83987Y87301D01*
X84038Y87235D01*
X84096Y87170D01*
X84148Y87089D01*
X84206Y87009D01*
X84257Y86914D01*
X84345Y86716D01*
X84389Y86599D01*
X84418Y86482D01*
X83453Y86299D01*
Y86306D01*
X83446Y86314D01*
X83431Y86358D01*
X83409Y86424D01*
X83365Y86504D01*
X83314Y86592D01*
X83248Y86680D01*
X83167Y86775D01*
X83072Y86855D01*
X83058Y86862D01*
X83021Y86884D01*
X82963Y86921D01*
X82882Y86958D01*
X82780Y86994D01*
X82663Y87031D01*
X82524Y87053D01*
X82377Y87060D01*
X82319D01*
X82275Y87053D01*
X82217Y87045D01*
X82158Y87038D01*
X82012Y87009D01*
X81851Y86958D01*
X81683Y86884D01*
X81602Y86840D01*
X81522Y86789D01*
X81441Y86723D01*
X81368Y86650D01*
X81361Y86643D01*
X81353Y86628D01*
X81331Y86606D01*
X81309Y86577D01*
X81280Y86533D01*
X81251Y86482D01*
X81222Y86424D01*
X81185Y86350D01*
X81149Y86270D01*
X81119Y86182D01*
X81090Y86080D01*
X81061Y85977D01*
X81039Y85860D01*
X81017Y85729D01*
X81010Y85597D01*
X81002Y85451D01*
Y85443D01*
Y85414D01*
Y85370D01*
X81010Y85312D01*
X81017Y85239D01*
X81024Y85158D01*
X81031Y85070D01*
X81046Y84968D01*
X81090Y84763D01*
X81163Y84544D01*
X81200Y84441D01*
X81251Y84346D01*
X81309Y84251D01*
X81375Y84163D01*
X81383Y84156D01*
X81390Y84149D01*
X81412Y84127D01*
X81441Y84097D01*
X81485Y84068D01*
X81529Y84031D01*
X81580Y83988D01*
X81646Y83951D01*
X81785Y83870D01*
X81953Y83805D01*
X82048Y83775D01*
X82151Y83761D01*
X82260Y83746D01*
X82370Y83739D01*
X82421D01*
X82480Y83746D01*
X82560Y83753D01*
X82648Y83768D01*
X82751Y83790D01*
X82860Y83819D01*
X82977Y83856D01*
X82992Y83863D01*
X83028Y83878D01*
X83087Y83900D01*
X83160Y83936D01*
X83241Y83980D01*
X83328Y84031D01*
X83416Y84083D01*
X83504Y84149D01*
Y84763D01*
X82399D01*
Y85575D01*
X84484D01*
Y83651D01*
X84470Y83636D01*
X84426Y83600D01*
X84360Y83549D01*
X84257Y83476D01*
X84133Y83395D01*
X83980Y83307D01*
X83804Y83219D01*
X83599Y83132D01*
X83592D01*
X83570Y83124D01*
X83540Y83110D01*
X83497Y83095D01*
X83446Y83081D01*
X83387Y83066D01*
X83314Y83044D01*
X83233Y83022D01*
X83058Y82985D01*
X82860Y82949D01*
X82648Y82920D01*
X82429Y82912D01*
X82355D01*
X82304Y82920D01*
X82238D01*
X82158Y82927D01*
X82078Y82942D01*
X81982Y82949D01*
X81778Y82993D01*
X81558Y83044D01*
X81331Y83124D01*
X81222Y83168D01*
X81112Y83227D01*
X81105Y83234D01*
X81090Y83241D01*
X81061Y83263D01*
X81024Y83285D01*
X80973Y83315D01*
X80922Y83358D01*
X80797Y83461D01*
X80666Y83585D01*
X80527Y83739D01*
X80395Y83922D01*
X80278Y84127D01*
Y84134D01*
X80263Y84156D01*
X80256Y84185D01*
X80234Y84229D01*
X80212Y84288D01*
X80190Y84353D01*
X80168Y84426D01*
X80139Y84507D01*
X80110Y84602D01*
X80088Y84705D01*
X80044Y84917D01*
X80015Y85158D01*
X80000Y85414D01*
Y85421D01*
Y85451D01*
Y85487D01*
X80007Y85538D01*
Y85604D01*
X80015Y85685D01*
X80029Y85765D01*
X80037Y85860D01*
X80073Y86065D01*
X80132Y86292D01*
X80205Y86519D01*
X80307Y86745D01*
X80315Y86753D01*
X80322Y86775D01*
X80344Y86804D01*
X80366Y86840D01*
X80402Y86892D01*
X80439Y86950D01*
X80541Y87075D01*
X80673Y87221D01*
X80827Y87374D01*
X81017Y87514D01*
X81229Y87645D01*
X81236D01*
X81251Y87653D01*
X81273Y87667D01*
X81309Y87682D01*
X81361Y87704D01*
X81412Y87718D01*
X81478Y87740D01*
X81544Y87769D01*
X81624Y87792D01*
X81712Y87813D01*
X81807Y87828D01*
X81909Y87850D01*
X82129Y87879D01*
X82377Y87887D01*
X82465D01*
X82524Y87879D01*
D02*
G37*
G36*
X89202Y83000D02*
X88230D01*
X86284Y86153D01*
Y83000D01*
X85384D01*
Y87806D01*
X86320D01*
X88303Y84580D01*
Y87806D01*
X89202D01*
Y83000D01*
D02*
G37*
G36*
X92194Y87799D02*
X92326Y87792D01*
X92480Y87784D01*
X92626Y87769D01*
X92772Y87740D01*
X92904Y87711D01*
X92911D01*
X92926Y87704D01*
X92948Y87696D01*
X92977Y87689D01*
X93050Y87653D01*
X93153Y87609D01*
X93263Y87550D01*
X93379Y87470D01*
X93504Y87374D01*
X93621Y87265D01*
X93628D01*
X93636Y87250D01*
X93672Y87206D01*
X93723Y87140D01*
X93797Y87053D01*
X93870Y86936D01*
X93943Y86804D01*
X94016Y86658D01*
X94082Y86489D01*
Y86482D01*
X94089Y86467D01*
X94096Y86446D01*
X94104Y86409D01*
X94118Y86365D01*
X94133Y86306D01*
X94148Y86248D01*
X94162Y86175D01*
X94177Y86094D01*
X94192Y86014D01*
X94221Y85816D01*
X94235Y85597D01*
X94243Y85356D01*
Y85348D01*
Y85326D01*
Y85297D01*
Y85253D01*
X94235Y85202D01*
Y85143D01*
X94221Y85004D01*
X94206Y84843D01*
X94177Y84675D01*
X94140Y84500D01*
X94089Y84331D01*
Y84324D01*
X94082Y84309D01*
X94074Y84280D01*
X94060Y84244D01*
X94038Y84200D01*
X94016Y84149D01*
X93957Y84031D01*
X93884Y83892D01*
X93797Y83753D01*
X93694Y83615D01*
X93577Y83483D01*
X93562Y83476D01*
X93533Y83439D01*
X93475Y83395D01*
X93401Y83344D01*
X93299Y83278D01*
X93182Y83212D01*
X93050Y83154D01*
X92897Y83095D01*
X92882Y83088D01*
X92838Y83081D01*
X92772Y83066D01*
X92670Y83051D01*
X92553Y83029D01*
X92407Y83015D01*
X92231Y83007D01*
X92041Y83000D01*
X90227D01*
Y87806D01*
X92136D01*
X92194Y87799D01*
D02*
G37*
G36*
X67189Y83000D02*
X66216D01*
Y85099D01*
X64321D01*
Y83000D01*
X63348D01*
Y87806D01*
X64321D01*
Y85912D01*
X66216D01*
Y87806D01*
X67189D01*
Y83000D01*
D02*
G37*
G36*
X62807Y84280D02*
X61000D01*
Y85202D01*
X62807D01*
Y84280D01*
D02*
G37*
G36*
X70466Y83000D02*
X69420D01*
X67701Y87806D01*
X68747D01*
X69968Y84251D01*
X71139Y87806D01*
X72178D01*
X70466Y83000D01*
D02*
G37*
G36*
X87745Y110336D02*
X89950Y107000D01*
X88389D01*
X86975Y109165D01*
X85551Y107000D01*
X84000D01*
X86214Y110336D01*
X84205Y113408D01*
X85717D01*
X86975Y111487D01*
X88243Y113408D01*
X89755D01*
X87745Y110336D01*
D02*
G37*
G36*
X67745D02*
X69950Y107000D01*
X68389D01*
X66975Y109165D01*
X65551Y107000D01*
X64000D01*
X66214Y110336D01*
X64205Y113408D01*
X65717D01*
X66975Y111487D01*
X68243Y113408D01*
X69755D01*
X67745Y110336D01*
D02*
G37*
G36*
X89196Y133000D02*
X88150D01*
X86431Y137806D01*
X87477D01*
X88699Y134251D01*
X89869Y137806D01*
X90908D01*
X89196Y133000D01*
D02*
G37*
G36*
X86014Y136870D02*
X84273D01*
X84127Y136058D01*
X84141Y136065D01*
X84178Y136080D01*
X84244Y136109D01*
X84324Y136138D01*
X84412Y136160D01*
X84522Y136189D01*
X84639Y136204D01*
X84756Y136211D01*
X84814D01*
X84858Y136204D01*
X84909Y136197D01*
X84975Y136189D01*
X85041Y136175D01*
X85114Y136153D01*
X85282Y136102D01*
X85363Y136065D01*
X85451Y136021D01*
X85538Y135970D01*
X85626Y135911D01*
X85714Y135846D01*
X85794Y135765D01*
X85802Y135758D01*
X85816Y135743D01*
X85831Y135721D01*
X85860Y135685D01*
X85897Y135641D01*
X85933Y135590D01*
X85970Y135524D01*
X86014Y135451D01*
X86051Y135370D01*
X86087Y135282D01*
X86124Y135187D01*
X86160Y135085D01*
X86189Y134975D01*
X86204Y134858D01*
X86219Y134734D01*
X86226Y134602D01*
Y134595D01*
Y134573D01*
Y134544D01*
X86219Y134500D01*
Y134448D01*
X86211Y134390D01*
X86197Y134324D01*
X86182Y134251D01*
X86145Y134083D01*
X86080Y133907D01*
X85999Y133724D01*
X85941Y133629D01*
X85882Y133541D01*
X85875Y133534D01*
X85860Y133512D01*
X85831Y133483D01*
X85794Y133446D01*
X85751Y133395D01*
X85692Y133344D01*
X85619Y133285D01*
X85546Y133227D01*
X85458Y133168D01*
X85356Y133110D01*
X85253Y133059D01*
X85136Y133007D01*
X85012Y132971D01*
X84873Y132942D01*
X84734Y132920D01*
X84580Y132912D01*
X84514D01*
X84470Y132920D01*
X84412D01*
X84346Y132934D01*
X84273Y132942D01*
X84192Y132956D01*
X84024Y133000D01*
X83841Y133059D01*
X83666Y133146D01*
X83578Y133205D01*
X83497Y133263D01*
X83490Y133271D01*
X83483Y133278D01*
X83461Y133300D01*
X83432Y133329D01*
X83395Y133366D01*
X83358Y133410D01*
X83322Y133461D01*
X83278Y133519D01*
X83190Y133658D01*
X83110Y133819D01*
X83044Y134017D01*
X83022Y134119D01*
X83000Y134229D01*
X83914Y134324D01*
Y134309D01*
X83922Y134273D01*
X83936Y134214D01*
X83958Y134141D01*
X83988Y134068D01*
X84024Y133980D01*
X84075Y133900D01*
X84141Y133827D01*
X84149Y133819D01*
X84178Y133797D01*
X84214Y133768D01*
X84273Y133739D01*
X84339Y133710D01*
X84412Y133680D01*
X84500Y133658D01*
X84587Y133651D01*
X84602D01*
X84639Y133658D01*
X84690Y133666D01*
X84756Y133680D01*
X84836Y133710D01*
X84917Y133753D01*
X84997Y133805D01*
X85077Y133885D01*
X85085Y133900D01*
X85107Y133929D01*
X85143Y133988D01*
X85180Y134061D01*
X85217Y134163D01*
X85253Y134280D01*
X85275Y134426D01*
X85282Y134587D01*
Y134595D01*
Y134609D01*
Y134631D01*
Y134661D01*
X85275Y134741D01*
X85260Y134836D01*
X85231Y134946D01*
X85195Y135056D01*
X85143Y135165D01*
X85077Y135253D01*
X85070Y135260D01*
X85041Y135290D01*
X84997Y135326D01*
X84938Y135370D01*
X84865Y135407D01*
X84778Y135443D01*
X84675Y135472D01*
X84565Y135480D01*
X84529D01*
X84500Y135472D01*
X84419Y135465D01*
X84324Y135436D01*
X84214Y135392D01*
X84090Y135333D01*
X83973Y135246D01*
X83907Y135187D01*
X83849Y135129D01*
X83110Y135231D01*
X83578Y137733D01*
X86014D01*
Y136870D01*
D02*
G37*
G36*
X67974Y133000D02*
X67001D01*
Y135099D01*
X65106D01*
Y133000D01*
X64133D01*
Y137806D01*
X65106D01*
Y135911D01*
X67001D01*
Y137806D01*
X67974D01*
Y133000D01*
D02*
G37*
G36*
X71251D02*
X70205D01*
X68486Y137806D01*
X69532D01*
X70753Y134251D01*
X71924Y137806D01*
X72962D01*
X71251Y133000D01*
D02*
G37*
G36*
X62099Y135780D02*
X63358D01*
Y134931D01*
X62099D01*
Y133688D01*
X61258D01*
Y134931D01*
X60000D01*
Y135780D01*
X61258D01*
Y137023D01*
X62099D01*
Y135780D01*
D02*
G37*
G36*
X87745Y161336D02*
X89950Y158000D01*
X88389D01*
X86975Y160165D01*
X85551Y158000D01*
X84000D01*
X86214Y161336D01*
X84205Y164408D01*
X85717D01*
X86975Y162487D01*
X88243Y164408D01*
X89755D01*
X87745Y161336D01*
D02*
G37*
G36*
X67745D02*
X69950Y158000D01*
X68389D01*
X66975Y160165D01*
X65551Y158000D01*
X64000D01*
X66214Y161336D01*
X64205Y164408D01*
X65717D01*
X66975Y162487D01*
X68243Y164408D01*
X69755D01*
X67745Y161336D01*
D02*
G37*
G36*
X89196Y183000D02*
X88150D01*
X86431Y187806D01*
X87477D01*
X88699Y184251D01*
X89869Y187806D01*
X90908D01*
X89196Y183000D01*
D02*
G37*
G36*
X86014Y186870D02*
X84273D01*
X84127Y186058D01*
X84141Y186065D01*
X84178Y186080D01*
X84244Y186109D01*
X84324Y186138D01*
X84412Y186160D01*
X84522Y186189D01*
X84639Y186204D01*
X84756Y186211D01*
X84814D01*
X84858Y186204D01*
X84909Y186197D01*
X84975Y186189D01*
X85041Y186175D01*
X85114Y186153D01*
X85282Y186102D01*
X85363Y186065D01*
X85451Y186021D01*
X85538Y185970D01*
X85626Y185911D01*
X85714Y185846D01*
X85794Y185765D01*
X85802Y185758D01*
X85816Y185743D01*
X85831Y185721D01*
X85860Y185685D01*
X85897Y185641D01*
X85933Y185590D01*
X85970Y185524D01*
X86014Y185451D01*
X86051Y185370D01*
X86087Y185282D01*
X86124Y185187D01*
X86160Y185085D01*
X86189Y184975D01*
X86204Y184858D01*
X86219Y184734D01*
X86226Y184602D01*
Y184595D01*
Y184573D01*
Y184543D01*
X86219Y184500D01*
Y184448D01*
X86211Y184390D01*
X86197Y184324D01*
X86182Y184251D01*
X86145Y184083D01*
X86080Y183907D01*
X85999Y183724D01*
X85941Y183629D01*
X85882Y183541D01*
X85875Y183534D01*
X85860Y183512D01*
X85831Y183483D01*
X85794Y183446D01*
X85751Y183395D01*
X85692Y183344D01*
X85619Y183285D01*
X85546Y183227D01*
X85458Y183168D01*
X85356Y183110D01*
X85253Y183058D01*
X85136Y183007D01*
X85012Y182971D01*
X84873Y182941D01*
X84734Y182920D01*
X84580Y182912D01*
X84514D01*
X84470Y182920D01*
X84412D01*
X84346Y182934D01*
X84273Y182941D01*
X84192Y182956D01*
X84024Y183000D01*
X83841Y183058D01*
X83666Y183146D01*
X83578Y183205D01*
X83497Y183263D01*
X83490Y183271D01*
X83483Y183278D01*
X83461Y183300D01*
X83432Y183329D01*
X83395Y183366D01*
X83358Y183410D01*
X83322Y183461D01*
X83278Y183519D01*
X83190Y183658D01*
X83110Y183819D01*
X83044Y184017D01*
X83022Y184119D01*
X83000Y184229D01*
X83914Y184324D01*
Y184309D01*
X83922Y184273D01*
X83936Y184214D01*
X83958Y184141D01*
X83988Y184068D01*
X84024Y183980D01*
X84075Y183900D01*
X84141Y183827D01*
X84149Y183819D01*
X84178Y183797D01*
X84214Y183768D01*
X84273Y183739D01*
X84339Y183710D01*
X84412Y183680D01*
X84500Y183658D01*
X84587Y183651D01*
X84602D01*
X84639Y183658D01*
X84690Y183666D01*
X84756Y183680D01*
X84836Y183710D01*
X84917Y183754D01*
X84997Y183805D01*
X85077Y183885D01*
X85085Y183900D01*
X85107Y183929D01*
X85143Y183988D01*
X85180Y184061D01*
X85217Y184163D01*
X85253Y184280D01*
X85275Y184426D01*
X85282Y184587D01*
Y184595D01*
Y184609D01*
Y184631D01*
Y184660D01*
X85275Y184741D01*
X85260Y184836D01*
X85231Y184946D01*
X85195Y185056D01*
X85143Y185165D01*
X85077Y185253D01*
X85070Y185260D01*
X85041Y185290D01*
X84997Y185326D01*
X84938Y185370D01*
X84865Y185407D01*
X84778Y185443D01*
X84675Y185473D01*
X84565Y185480D01*
X84529D01*
X84500Y185473D01*
X84419Y185465D01*
X84324Y185436D01*
X84214Y185392D01*
X84090Y185333D01*
X83973Y185246D01*
X83907Y185187D01*
X83849Y185129D01*
X83110Y185231D01*
X83578Y187733D01*
X86014D01*
Y186870D01*
D02*
G37*
G36*
X62524Y187879D02*
X62597Y187872D01*
X62685Y187865D01*
X62780Y187857D01*
X62889Y187843D01*
X63109Y187791D01*
X63343Y187726D01*
X63453Y187682D01*
X63562Y187631D01*
X63672Y187572D01*
X63767Y187506D01*
X63775Y187499D01*
X63789Y187491D01*
X63818Y187470D01*
X63848Y187440D01*
X63892Y187396D01*
X63936Y187353D01*
X63987Y187301D01*
X64038Y187236D01*
X64096Y187170D01*
X64148Y187089D01*
X64206Y187009D01*
X64257Y186914D01*
X64345Y186716D01*
X64389Y186599D01*
X64418Y186482D01*
X63453Y186299D01*
Y186306D01*
X63446Y186314D01*
X63431Y186358D01*
X63409Y186423D01*
X63365Y186504D01*
X63314Y186592D01*
X63248Y186679D01*
X63168Y186775D01*
X63072Y186855D01*
X63058Y186862D01*
X63021Y186884D01*
X62963Y186921D01*
X62882Y186957D01*
X62780Y186994D01*
X62663Y187031D01*
X62524Y187053D01*
X62377Y187060D01*
X62319D01*
X62275Y187053D01*
X62217Y187045D01*
X62158Y187038D01*
X62012Y187009D01*
X61851Y186957D01*
X61683Y186884D01*
X61602Y186840D01*
X61522Y186789D01*
X61441Y186723D01*
X61368Y186650D01*
X61361Y186643D01*
X61353Y186628D01*
X61331Y186606D01*
X61309Y186577D01*
X61280Y186533D01*
X61251Y186482D01*
X61222Y186423D01*
X61185Y186350D01*
X61149Y186270D01*
X61119Y186182D01*
X61090Y186080D01*
X61061Y185977D01*
X61039Y185860D01*
X61017Y185729D01*
X61009Y185597D01*
X61002Y185451D01*
Y185443D01*
Y185414D01*
Y185370D01*
X61009Y185312D01*
X61017Y185238D01*
X61024Y185158D01*
X61031Y185070D01*
X61046Y184968D01*
X61090Y184763D01*
X61163Y184543D01*
X61200Y184441D01*
X61251Y184346D01*
X61309Y184251D01*
X61375Y184163D01*
X61383Y184156D01*
X61390Y184149D01*
X61412Y184126D01*
X61441Y184097D01*
X61485Y184068D01*
X61529Y184031D01*
X61580Y183988D01*
X61646Y183951D01*
X61785Y183871D01*
X61953Y183805D01*
X62048Y183775D01*
X62151Y183761D01*
X62260Y183746D01*
X62370Y183739D01*
X62421D01*
X62480Y183746D01*
X62560Y183754D01*
X62648Y183768D01*
X62751Y183790D01*
X62860Y183819D01*
X62977Y183856D01*
X62992Y183863D01*
X63028Y183878D01*
X63087Y183900D01*
X63160Y183936D01*
X63241Y183980D01*
X63328Y184031D01*
X63416Y184083D01*
X63504Y184149D01*
Y184763D01*
X62399D01*
Y185575D01*
X64484D01*
Y183651D01*
X64470Y183636D01*
X64426Y183600D01*
X64360Y183549D01*
X64257Y183475D01*
X64133Y183395D01*
X63980Y183307D01*
X63804Y183219D01*
X63599Y183132D01*
X63592D01*
X63570Y183124D01*
X63541Y183110D01*
X63497Y183095D01*
X63446Y183081D01*
X63387Y183066D01*
X63314Y183044D01*
X63233Y183022D01*
X63058Y182985D01*
X62860Y182949D01*
X62648Y182920D01*
X62429Y182912D01*
X62355D01*
X62304Y182920D01*
X62238D01*
X62158Y182927D01*
X62077Y182941D01*
X61982Y182949D01*
X61778Y182993D01*
X61558Y183044D01*
X61331Y183124D01*
X61222Y183168D01*
X61112Y183227D01*
X61105Y183234D01*
X61090Y183241D01*
X61061Y183263D01*
X61024Y183285D01*
X60973Y183314D01*
X60922Y183358D01*
X60797Y183461D01*
X60666Y183585D01*
X60527Y183739D01*
X60395Y183922D01*
X60278Y184126D01*
Y184134D01*
X60263Y184156D01*
X60256Y184185D01*
X60234Y184229D01*
X60212Y184287D01*
X60190Y184353D01*
X60168Y184426D01*
X60139Y184507D01*
X60110Y184602D01*
X60088Y184704D01*
X60044Y184917D01*
X60015Y185158D01*
X60000Y185414D01*
Y185421D01*
Y185451D01*
Y185487D01*
X60007Y185538D01*
Y185604D01*
X60015Y185685D01*
X60029Y185765D01*
X60037Y185860D01*
X60073Y186065D01*
X60132Y186292D01*
X60205Y186519D01*
X60307Y186745D01*
X60315Y186753D01*
X60322Y186775D01*
X60344Y186804D01*
X60366Y186840D01*
X60402Y186892D01*
X60439Y186950D01*
X60541Y187075D01*
X60673Y187221D01*
X60827Y187374D01*
X61017Y187514D01*
X61229Y187645D01*
X61236D01*
X61251Y187652D01*
X61273Y187667D01*
X61309Y187682D01*
X61361Y187704D01*
X61412Y187718D01*
X61478Y187740D01*
X61543Y187770D01*
X61624Y187791D01*
X61712Y187813D01*
X61807Y187828D01*
X61909Y187850D01*
X62129Y187879D01*
X62377Y187887D01*
X62465D01*
X62524Y187879D01*
D02*
G37*
G36*
X69202Y183000D02*
X68230D01*
X66284Y186153D01*
Y183000D01*
X65384D01*
Y187806D01*
X66320D01*
X68303Y184580D01*
Y187806D01*
X69202D01*
Y183000D01*
D02*
G37*
G36*
X72194Y187799D02*
X72326Y187791D01*
X72480Y187784D01*
X72626Y187770D01*
X72772Y187740D01*
X72904Y187711D01*
X72911D01*
X72926Y187704D01*
X72948Y187696D01*
X72977Y187689D01*
X73050Y187652D01*
X73153Y187609D01*
X73263Y187550D01*
X73380Y187470D01*
X73504Y187374D01*
X73621Y187265D01*
X73628D01*
X73636Y187250D01*
X73672Y187206D01*
X73723Y187140D01*
X73797Y187053D01*
X73870Y186936D01*
X73943Y186804D01*
X74016Y186658D01*
X74082Y186489D01*
Y186482D01*
X74089Y186467D01*
X74096Y186445D01*
X74104Y186409D01*
X74118Y186365D01*
X74133Y186306D01*
X74148Y186248D01*
X74162Y186175D01*
X74177Y186094D01*
X74191Y186014D01*
X74221Y185816D01*
X74235Y185597D01*
X74243Y185355D01*
Y185348D01*
Y185326D01*
Y185297D01*
Y185253D01*
X74235Y185202D01*
Y185143D01*
X74221Y185004D01*
X74206Y184843D01*
X74177Y184675D01*
X74140Y184500D01*
X74089Y184331D01*
Y184324D01*
X74082Y184309D01*
X74075Y184280D01*
X74060Y184244D01*
X74038Y184200D01*
X74016Y184149D01*
X73957Y184031D01*
X73884Y183892D01*
X73797Y183754D01*
X73694Y183615D01*
X73577Y183483D01*
X73562Y183475D01*
X73533Y183439D01*
X73475Y183395D01*
X73401Y183344D01*
X73299Y183278D01*
X73182Y183212D01*
X73050Y183154D01*
X72897Y183095D01*
X72882Y183088D01*
X72838Y183081D01*
X72772Y183066D01*
X72670Y183051D01*
X72553Y183029D01*
X72407Y183015D01*
X72231Y183007D01*
X72041Y183000D01*
X70227D01*
Y187806D01*
X72136D01*
X72194Y187799D01*
D02*
G37*
G36*
X97832Y233879D02*
X97913Y233872D01*
X98001Y233865D01*
X98096Y233850D01*
X98198Y233835D01*
X98418Y233792D01*
X98644Y233718D01*
X98754Y233674D01*
X98856Y233616D01*
X98959Y233557D01*
X99047Y233484D01*
X99054Y233477D01*
X99069Y233462D01*
X99091Y233440D01*
X99120Y233411D01*
X99156Y233375D01*
X99193Y233323D01*
X99237Y233265D01*
X99281Y233199D01*
X99325Y233126D01*
X99361Y233045D01*
X99442Y232870D01*
X99471Y232767D01*
X99500Y232658D01*
X99522Y232541D01*
X99529Y232423D01*
X98557Y232387D01*
Y232394D01*
Y232402D01*
X98542Y232446D01*
X98527Y232511D01*
X98498Y232592D01*
X98462Y232680D01*
X98418Y232767D01*
X98359Y232848D01*
X98286Y232914D01*
X98279Y232921D01*
X98249Y232943D01*
X98205Y232965D01*
X98140Y233001D01*
X98052Y233031D01*
X97949Y233053D01*
X97825Y233075D01*
X97679Y233082D01*
X97613D01*
X97533Y233075D01*
X97437Y233060D01*
X97335Y233038D01*
X97225Y233009D01*
X97115Y232965D01*
X97020Y232906D01*
X97013Y232899D01*
X96999Y232884D01*
X96976Y232862D01*
X96947Y232826D01*
X96918Y232782D01*
X96896Y232731D01*
X96881Y232672D01*
X96874Y232606D01*
Y232599D01*
Y232577D01*
X96881Y232548D01*
X96889Y232504D01*
X96911Y232460D01*
X96933Y232409D01*
X96969Y232365D01*
X97013Y232314D01*
X97020Y232306D01*
X97050Y232285D01*
X97108Y232255D01*
X97145Y232241D01*
X97196Y232219D01*
X97247Y232189D01*
X97313Y232167D01*
X97379Y232138D01*
X97467Y232116D01*
X97554Y232087D01*
X97657Y232058D01*
X97774Y232021D01*
X97898Y231992D01*
X97906D01*
X97928Y231985D01*
X97964Y231977D01*
X98015Y231963D01*
X98074Y231948D01*
X98140Y231926D01*
X98293Y231889D01*
X98469Y231831D01*
X98637Y231780D01*
X98805Y231714D01*
X98878Y231685D01*
X98944Y231648D01*
X98952D01*
X98959Y231641D01*
X99003Y231619D01*
X99061Y231575D01*
X99135Y231524D01*
X99222Y231451D01*
X99310Y231370D01*
X99390Y231268D01*
X99471Y231158D01*
X99478Y231143D01*
X99500Y231107D01*
X99537Y231034D01*
X99573Y230946D01*
X99603Y230836D01*
X99639Y230704D01*
X99661Y230558D01*
X99669Y230397D01*
Y230390D01*
Y230375D01*
Y230353D01*
Y230324D01*
X99654Y230244D01*
X99639Y230141D01*
X99610Y230024D01*
X99573Y229893D01*
X99515Y229753D01*
X99434Y229615D01*
Y229607D01*
X99427Y229600D01*
X99390Y229556D01*
X99339Y229490D01*
X99266Y229417D01*
X99178Y229329D01*
X99061Y229241D01*
X98937Y229154D01*
X98783Y229081D01*
X98776D01*
X98761Y229073D01*
X98740Y229066D01*
X98710Y229051D01*
X98666Y229044D01*
X98622Y229029D01*
X98564Y229015D01*
X98498Y229000D01*
X98344Y228963D01*
X98169Y228941D01*
X97971Y228920D01*
X97745Y228912D01*
X97657D01*
X97591Y228920D01*
X97518Y228927D01*
X97430Y228934D01*
X97335Y228949D01*
X97225Y228963D01*
X96999Y229015D01*
X96881Y229051D01*
X96764Y229088D01*
X96655Y229139D01*
X96545Y229190D01*
X96435Y229256D01*
X96340Y229329D01*
X96333Y229336D01*
X96318Y229351D01*
X96296Y229373D01*
X96260Y229410D01*
X96223Y229454D01*
X96179Y229505D01*
X96135Y229571D01*
X96084Y229636D01*
X96033Y229724D01*
X95982Y229812D01*
X95938Y229914D01*
X95886Y230024D01*
X95850Y230141D01*
X95813Y230273D01*
X95784Y230412D01*
X95762Y230558D01*
X96706Y230653D01*
Y230646D01*
X96713Y230631D01*
Y230609D01*
X96721Y230573D01*
X96742Y230492D01*
X96779Y230383D01*
X96823Y230273D01*
X96881Y230156D01*
X96955Y230046D01*
X97042Y229951D01*
X97057Y229944D01*
X97094Y229914D01*
X97152Y229885D01*
X97233Y229841D01*
X97335Y229805D01*
X97452Y229768D01*
X97591Y229739D01*
X97752Y229732D01*
X97832D01*
X97913Y229739D01*
X98015Y229753D01*
X98132Y229783D01*
X98249Y229812D01*
X98359Y229863D01*
X98454Y229929D01*
X98462Y229936D01*
X98491Y229966D01*
X98527Y230002D01*
X98579Y230061D01*
X98622Y230126D01*
X98659Y230207D01*
X98688Y230295D01*
X98696Y230390D01*
Y230397D01*
Y230419D01*
X98688Y230448D01*
X98681Y230492D01*
X98652Y230580D01*
X98630Y230631D01*
X98593Y230675D01*
X98586Y230683D01*
X98571Y230697D01*
X98549Y230719D01*
X98513Y230748D01*
X98462Y230785D01*
X98403Y230814D01*
X98330Y230851D01*
X98242Y230887D01*
X98235D01*
X98205Y230902D01*
X98154Y230917D01*
X98081Y230938D01*
X98037Y230953D01*
X97979Y230968D01*
X97920Y230982D01*
X97847Y231004D01*
X97767Y231026D01*
X97679Y231048D01*
X97584Y231070D01*
X97474Y231099D01*
X97467D01*
X97437Y231107D01*
X97401Y231121D01*
X97350Y231136D01*
X97284Y231151D01*
X97211Y231173D01*
X97050Y231231D01*
X96867Y231297D01*
X96684Y231377D01*
X96523Y231472D01*
X96450Y231524D01*
X96384Y231575D01*
X96377Y231582D01*
X96362Y231597D01*
X96340Y231619D01*
X96318Y231648D01*
X96282Y231685D01*
X96245Y231729D01*
X96208Y231787D01*
X96165Y231846D01*
X96084Y231985D01*
X96011Y232153D01*
X95989Y232241D01*
X95967Y232336D01*
X95952Y232438D01*
X95945Y232541D01*
Y232548D01*
Y232555D01*
Y232577D01*
Y232606D01*
X95960Y232672D01*
X95974Y232767D01*
X95996Y232870D01*
X96033Y232987D01*
X96084Y233104D01*
X96150Y233228D01*
Y233235D01*
X96157Y233243D01*
X96187Y233279D01*
X96238Y233338D01*
X96304Y233411D01*
X96384Y233491D01*
X96486Y233572D01*
X96603Y233652D01*
X96742Y233718D01*
X96750D01*
X96757Y233726D01*
X96786Y233733D01*
X96816Y233748D01*
X96852Y233755D01*
X96896Y233769D01*
X97006Y233806D01*
X97145Y233835D01*
X97306Y233857D01*
X97489Y233879D01*
X97686Y233887D01*
X97774D01*
X97832Y233879D01*
D02*
G37*
G36*
X93392D02*
X93465Y233872D01*
X93553Y233857D01*
X93648Y233843D01*
X93750Y233821D01*
X93868Y233792D01*
X93977Y233755D01*
X94102Y233718D01*
X94219Y233667D01*
X94336Y233601D01*
X94453Y233535D01*
X94563Y233455D01*
X94672Y233360D01*
X94679D01*
X94687Y233345D01*
X94723Y233301D01*
X94782Y233235D01*
X94855Y233133D01*
X94936Y233009D01*
X95023Y232862D01*
X95104Y232687D01*
X95170Y232482D01*
X94211Y232255D01*
Y232263D01*
X94204Y232270D01*
X94197Y232314D01*
X94167Y232380D01*
X94131Y232467D01*
X94087Y232563D01*
X94021Y232658D01*
X93948Y232753D01*
X93853Y232840D01*
X93838Y232848D01*
X93802Y232877D01*
X93750Y232914D01*
X93670Y232950D01*
X93575Y232994D01*
X93458Y233023D01*
X93334Y233053D01*
X93195Y233060D01*
X93143D01*
X93107Y233053D01*
X93063Y233045D01*
X93012Y233038D01*
X92887Y233009D01*
X92748Y232965D01*
X92602Y232899D01*
X92536Y232855D01*
X92463Y232804D01*
X92397Y232738D01*
X92331Y232672D01*
Y232665D01*
X92317Y232658D01*
X92302Y232628D01*
X92280Y232599D01*
X92258Y232555D01*
X92229Y232504D01*
X92200Y232446D01*
X92170Y232372D01*
X92134Y232292D01*
X92105Y232204D01*
X92075Y232102D01*
X92053Y231985D01*
X92031Y231868D01*
X92017Y231729D01*
X92009Y231582D01*
X92002Y231429D01*
Y231421D01*
Y231392D01*
Y231341D01*
X92009Y231282D01*
Y231202D01*
X92017Y231121D01*
X92031Y231026D01*
X92046Y230924D01*
X92083Y230712D01*
X92141Y230492D01*
X92178Y230390D01*
X92222Y230295D01*
X92266Y230207D01*
X92324Y230126D01*
X92331Y230119D01*
X92339Y230112D01*
X92383Y230068D01*
X92456Y230009D01*
X92551Y229936D01*
X92675Y229863D01*
X92822Y229805D01*
X92990Y229761D01*
X93077Y229753D01*
X93173Y229746D01*
X93209D01*
X93238Y229753D01*
X93312Y229761D01*
X93399Y229775D01*
X93509Y229805D01*
X93619Y229849D01*
X93729Y229907D01*
X93838Y229988D01*
X93853Y230002D01*
X93882Y230031D01*
X93933Y230097D01*
X93992Y230178D01*
X94058Y230287D01*
X94124Y230427D01*
X94189Y230580D01*
X94241Y230770D01*
X95184Y230478D01*
Y230470D01*
X95177Y230441D01*
X95162Y230404D01*
X95140Y230346D01*
X95119Y230280D01*
X95089Y230207D01*
X95053Y230119D01*
X95009Y230031D01*
X94914Y229841D01*
X94789Y229644D01*
X94636Y229461D01*
X94555Y229373D01*
X94460Y229300D01*
X94453Y229293D01*
X94438Y229285D01*
X94409Y229263D01*
X94372Y229241D01*
X94321Y229212D01*
X94263Y229183D01*
X94189Y229146D01*
X94109Y229110D01*
X94021Y229073D01*
X93926Y229037D01*
X93824Y229007D01*
X93714Y228978D01*
X93590Y228956D01*
X93465Y228934D01*
X93326Y228927D01*
X93187Y228920D01*
X93143D01*
X93092Y228927D01*
X93026D01*
X92946Y228941D01*
X92851Y228956D01*
X92748Y228971D01*
X92631Y229000D01*
X92507Y229037D01*
X92383Y229081D01*
X92251Y229132D01*
X92119Y229198D01*
X91987Y229271D01*
X91856Y229358D01*
X91732Y229454D01*
X91615Y229571D01*
X91607Y229578D01*
X91585Y229600D01*
X91556Y229636D01*
X91519Y229688D01*
X91475Y229753D01*
X91417Y229834D01*
X91366Y229929D01*
X91307Y230039D01*
X91249Y230156D01*
X91198Y230295D01*
X91146Y230441D01*
X91095Y230602D01*
X91059Y230770D01*
X91029Y230953D01*
X91007Y231151D01*
X91000Y231355D01*
Y231370D01*
Y231407D01*
X91007Y231472D01*
Y231553D01*
X91022Y231655D01*
X91029Y231772D01*
X91051Y231897D01*
X91081Y232036D01*
X91110Y232189D01*
X91154Y232336D01*
X91198Y232497D01*
X91256Y232650D01*
X91329Y232804D01*
X91410Y232950D01*
X91505Y233089D01*
X91615Y233221D01*
X91622Y233228D01*
X91644Y233250D01*
X91680Y233279D01*
X91724Y233323D01*
X91790Y233375D01*
X91863Y233433D01*
X91951Y233491D01*
X92053Y233557D01*
X92163Y233616D01*
X92288Y233674D01*
X92419Y233733D01*
X92565Y233784D01*
X92719Y233828D01*
X92887Y233857D01*
X93063Y233879D01*
X93246Y233887D01*
X93334D01*
X93392Y233879D01*
D02*
G37*
G36*
X72633D02*
X72714Y233872D01*
X72802Y233865D01*
X72897Y233850D01*
X72999Y233835D01*
X73219Y233792D01*
X73445Y233718D01*
X73555Y233674D01*
X73657Y233616D01*
X73760Y233557D01*
X73848Y233484D01*
X73855Y233477D01*
X73870Y233462D01*
X73892Y233440D01*
X73921Y233411D01*
X73957Y233375D01*
X73994Y233323D01*
X74038Y233265D01*
X74082Y233199D01*
X74126Y233126D01*
X74162Y233045D01*
X74243Y232870D01*
X74272Y232767D01*
X74301Y232658D01*
X74323Y232541D01*
X74331Y232423D01*
X73358Y232387D01*
Y232394D01*
Y232402D01*
X73343Y232446D01*
X73328Y232511D01*
X73299Y232592D01*
X73263Y232680D01*
X73219Y232767D01*
X73160Y232848D01*
X73087Y232914D01*
X73080Y232921D01*
X73050Y232943D01*
X73006Y232965D01*
X72941Y233001D01*
X72853Y233031D01*
X72750Y233053D01*
X72626Y233075D01*
X72480Y233082D01*
X72414D01*
X72333Y233075D01*
X72238Y233060D01*
X72136Y233038D01*
X72026Y233009D01*
X71916Y232965D01*
X71821Y232906D01*
X71814Y232899D01*
X71799Y232884D01*
X71778Y232862D01*
X71748Y232826D01*
X71719Y232782D01*
X71697Y232731D01*
X71682Y232672D01*
X71675Y232606D01*
Y232599D01*
Y232577D01*
X71682Y232548D01*
X71690Y232504D01*
X71712Y232460D01*
X71734Y232409D01*
X71770Y232365D01*
X71814Y232314D01*
X71821Y232306D01*
X71851Y232285D01*
X71909Y232255D01*
X71946Y232241D01*
X71997Y232219D01*
X72048Y232189D01*
X72114Y232167D01*
X72180Y232138D01*
X72268Y232116D01*
X72355Y232087D01*
X72458Y232058D01*
X72575Y232021D01*
X72699Y231992D01*
X72706D01*
X72729Y231985D01*
X72765Y231977D01*
X72816Y231963D01*
X72875Y231948D01*
X72941Y231926D01*
X73094Y231889D01*
X73270Y231831D01*
X73438Y231780D01*
X73606Y231714D01*
X73679Y231685D01*
X73745Y231648D01*
X73753D01*
X73760Y231641D01*
X73804Y231619D01*
X73862Y231575D01*
X73935Y231524D01*
X74023Y231451D01*
X74111Y231370D01*
X74191Y231268D01*
X74272Y231158D01*
X74279Y231143D01*
X74301Y231107D01*
X74338Y231034D01*
X74374Y230946D01*
X74404Y230836D01*
X74440Y230704D01*
X74462Y230558D01*
X74469Y230397D01*
Y230390D01*
Y230375D01*
Y230353D01*
Y230324D01*
X74455Y230244D01*
X74440Y230141D01*
X74411Y230024D01*
X74374Y229893D01*
X74316Y229753D01*
X74235Y229615D01*
Y229607D01*
X74228Y229600D01*
X74191Y229556D01*
X74140Y229490D01*
X74067Y229417D01*
X73979Y229329D01*
X73862Y229241D01*
X73738Y229154D01*
X73584Y229081D01*
X73577D01*
X73562Y229073D01*
X73540Y229066D01*
X73511Y229051D01*
X73467Y229044D01*
X73423Y229029D01*
X73365Y229015D01*
X73299Y229000D01*
X73145Y228963D01*
X72970Y228941D01*
X72772Y228920D01*
X72546Y228912D01*
X72458D01*
X72392Y228920D01*
X72319Y228927D01*
X72231Y228934D01*
X72136Y228949D01*
X72026Y228963D01*
X71799Y229015D01*
X71682Y229051D01*
X71565Y229088D01*
X71456Y229139D01*
X71346Y229190D01*
X71236Y229256D01*
X71141Y229329D01*
X71134Y229336D01*
X71119Y229351D01*
X71097Y229373D01*
X71061Y229410D01*
X71024Y229454D01*
X70980Y229505D01*
X70936Y229571D01*
X70885Y229636D01*
X70834Y229724D01*
X70783Y229812D01*
X70739Y229914D01*
X70687Y230024D01*
X70651Y230141D01*
X70614Y230273D01*
X70585Y230412D01*
X70563Y230558D01*
X71507Y230653D01*
Y230646D01*
X71514Y230631D01*
Y230609D01*
X71521Y230573D01*
X71543Y230492D01*
X71580Y230383D01*
X71624Y230273D01*
X71682Y230156D01*
X71755Y230046D01*
X71843Y229951D01*
X71858Y229944D01*
X71894Y229914D01*
X71953Y229885D01*
X72034Y229841D01*
X72136Y229805D01*
X72253Y229768D01*
X72392Y229739D01*
X72553Y229732D01*
X72633D01*
X72714Y229739D01*
X72816Y229753D01*
X72933Y229783D01*
X73050Y229812D01*
X73160Y229863D01*
X73255Y229929D01*
X73263Y229936D01*
X73292Y229966D01*
X73328Y230002D01*
X73380Y230061D01*
X73423Y230126D01*
X73460Y230207D01*
X73489Y230295D01*
X73497Y230390D01*
Y230397D01*
Y230419D01*
X73489Y230448D01*
X73482Y230492D01*
X73453Y230580D01*
X73431Y230631D01*
X73394Y230675D01*
X73387Y230683D01*
X73372Y230697D01*
X73350Y230719D01*
X73314Y230748D01*
X73263Y230785D01*
X73204Y230814D01*
X73131Y230851D01*
X73043Y230887D01*
X73036D01*
X73006Y230902D01*
X72955Y230917D01*
X72882Y230938D01*
X72838Y230953D01*
X72780Y230968D01*
X72721Y230982D01*
X72648Y231004D01*
X72568Y231026D01*
X72480Y231048D01*
X72385Y231070D01*
X72275Y231099D01*
X72268D01*
X72238Y231107D01*
X72202Y231121D01*
X72151Y231136D01*
X72085Y231151D01*
X72012Y231173D01*
X71851Y231231D01*
X71668Y231297D01*
X71485Y231377D01*
X71324Y231472D01*
X71251Y231524D01*
X71185Y231575D01*
X71178Y231582D01*
X71163Y231597D01*
X71141Y231619D01*
X71119Y231648D01*
X71083Y231685D01*
X71046Y231729D01*
X71009Y231787D01*
X70965Y231846D01*
X70885Y231985D01*
X70812Y232153D01*
X70790Y232241D01*
X70768Y232336D01*
X70753Y232438D01*
X70746Y232541D01*
Y232548D01*
Y232555D01*
Y232577D01*
Y232606D01*
X70761Y232672D01*
X70775Y232767D01*
X70797Y232870D01*
X70834Y232987D01*
X70885Y233104D01*
X70951Y233228D01*
Y233235D01*
X70958Y233243D01*
X70987Y233279D01*
X71039Y233338D01*
X71104Y233411D01*
X71185Y233491D01*
X71287Y233572D01*
X71404Y233652D01*
X71543Y233718D01*
X71551D01*
X71558Y233726D01*
X71587Y233733D01*
X71617Y233748D01*
X71653Y233755D01*
X71697Y233769D01*
X71807Y233806D01*
X71946Y233835D01*
X72107Y233857D01*
X72290Y233879D01*
X72487Y233887D01*
X72575D01*
X72633Y233879D01*
D02*
G37*
G36*
X64638Y229000D02*
X63738D01*
X63731Y232782D01*
X62780Y229000D01*
X61851D01*
X60900Y232782D01*
Y229000D01*
X60000D01*
Y233806D01*
X61448D01*
X62319Y230522D01*
X63175Y233806D01*
X64638D01*
Y229000D01*
D02*
G37*
G36*
X76240D02*
X75267D01*
Y233806D01*
X76240D01*
Y229000D01*
D02*
G37*
G36*
X67827Y233879D02*
X67900D01*
X67988Y233865D01*
X68091Y233850D01*
X68208Y233828D01*
X68332Y233806D01*
X68471Y233769D01*
X68603Y233726D01*
X68749Y233667D01*
X68888Y233609D01*
X69027Y233528D01*
X69166Y233440D01*
X69298Y233338D01*
X69422Y233221D01*
X69429Y233214D01*
X69451Y233192D01*
X69481Y233155D01*
X69524Y233097D01*
X69568Y233031D01*
X69627Y232950D01*
X69678Y232855D01*
X69744Y232745D01*
X69802Y232621D01*
X69861Y232482D01*
X69912Y232336D01*
X69956Y232175D01*
X70000Y231999D01*
X70029Y231809D01*
X70051Y231604D01*
X70058Y231392D01*
Y231377D01*
Y231341D01*
X70051Y231282D01*
Y231202D01*
X70037Y231099D01*
X70022Y230990D01*
X70007Y230858D01*
X69978Y230726D01*
X69949Y230580D01*
X69905Y230434D01*
X69854Y230280D01*
X69788Y230126D01*
X69715Y229980D01*
X69634Y229834D01*
X69532Y229695D01*
X69422Y229563D01*
X69415Y229556D01*
X69393Y229534D01*
X69356Y229505D01*
X69305Y229461D01*
X69246Y229410D01*
X69166Y229358D01*
X69078Y229300D01*
X68976Y229241D01*
X68859Y229176D01*
X68734Y229117D01*
X68595Y229066D01*
X68442Y229015D01*
X68281Y228971D01*
X68113Y228941D01*
X67930Y228920D01*
X67732Y228912D01*
X67688D01*
X67630Y228920D01*
X67557D01*
X67469Y228934D01*
X67359Y228949D01*
X67242Y228963D01*
X67118Y228993D01*
X66986Y229029D01*
X66847Y229073D01*
X66708Y229124D01*
X66569Y229190D01*
X66423Y229263D01*
X66291Y229351D01*
X66159Y229446D01*
X66035Y229563D01*
X66028Y229571D01*
X66006Y229592D01*
X65977Y229629D01*
X65940Y229680D01*
X65889Y229746D01*
X65837Y229827D01*
X65779Y229922D01*
X65721Y230031D01*
X65662Y230156D01*
X65603Y230287D01*
X65552Y230434D01*
X65501Y230595D01*
X65465Y230770D01*
X65435Y230953D01*
X65413Y231151D01*
X65406Y231363D01*
Y231370D01*
Y231399D01*
Y231436D01*
Y231487D01*
X65413Y231553D01*
X65421Y231626D01*
Y231707D01*
X65435Y231794D01*
X65457Y231992D01*
X65494Y232197D01*
X65545Y232402D01*
X65618Y232599D01*
Y232606D01*
X65625Y232614D01*
X65647Y232658D01*
X65684Y232731D01*
X65735Y232819D01*
X65801Y232921D01*
X65874Y233031D01*
X65969Y233148D01*
X66064Y233257D01*
X66079Y233272D01*
X66115Y233309D01*
X66174Y233360D01*
X66247Y233418D01*
X66342Y233491D01*
X66445Y233565D01*
X66562Y233631D01*
X66686Y233689D01*
X66693D01*
X66708Y233696D01*
X66730Y233711D01*
X66767Y233718D01*
X66810Y233733D01*
X66862Y233755D01*
X66920Y233769D01*
X66986Y233792D01*
X67140Y233821D01*
X67315Y233857D01*
X67513Y233879D01*
X67725Y233887D01*
X67769D01*
X67827Y233879D01*
D02*
G37*
G36*
X63070Y258879D02*
X63151Y258872D01*
X63239Y258865D01*
X63334Y258850D01*
X63436Y258835D01*
X63655Y258792D01*
X63882Y258718D01*
X63992Y258674D01*
X64094Y258616D01*
X64197Y258557D01*
X64285Y258484D01*
X64292Y258477D01*
X64307Y258462D01*
X64328Y258440D01*
X64358Y258411D01*
X64394Y258375D01*
X64431Y258323D01*
X64475Y258265D01*
X64519Y258199D01*
X64563Y258126D01*
X64599Y258045D01*
X64680Y257870D01*
X64709Y257767D01*
X64738Y257658D01*
X64760Y257541D01*
X64767Y257423D01*
X63794Y257387D01*
Y257394D01*
Y257402D01*
X63780Y257446D01*
X63765Y257511D01*
X63736Y257592D01*
X63699Y257680D01*
X63655Y257767D01*
X63597Y257848D01*
X63524Y257914D01*
X63516Y257921D01*
X63487Y257943D01*
X63443Y257965D01*
X63377Y258001D01*
X63290Y258031D01*
X63187Y258053D01*
X63063Y258075D01*
X62917Y258082D01*
X62851D01*
X62770Y258075D01*
X62675Y258060D01*
X62573Y258038D01*
X62463Y258009D01*
X62353Y257965D01*
X62258Y257906D01*
X62251Y257899D01*
X62236Y257884D01*
X62214Y257862D01*
X62185Y257826D01*
X62156Y257782D01*
X62134Y257731D01*
X62119Y257672D01*
X62112Y257606D01*
Y257599D01*
Y257577D01*
X62119Y257548D01*
X62126Y257504D01*
X62148Y257460D01*
X62170Y257409D01*
X62207Y257365D01*
X62251Y257314D01*
X62258Y257306D01*
X62288Y257285D01*
X62346Y257255D01*
X62383Y257241D01*
X62434Y257219D01*
X62485Y257189D01*
X62551Y257167D01*
X62617Y257138D01*
X62704Y257116D01*
X62792Y257087D01*
X62895Y257058D01*
X63012Y257021D01*
X63136Y256992D01*
X63143D01*
X63165Y256985D01*
X63202Y256977D01*
X63253Y256963D01*
X63312Y256948D01*
X63377Y256926D01*
X63531Y256889D01*
X63707Y256831D01*
X63875Y256780D01*
X64043Y256714D01*
X64116Y256685D01*
X64182Y256648D01*
X64189D01*
X64197Y256641D01*
X64241Y256619D01*
X64299Y256575D01*
X64372Y256524D01*
X64460Y256451D01*
X64548Y256370D01*
X64628Y256268D01*
X64709Y256158D01*
X64716Y256143D01*
X64738Y256107D01*
X64775Y256034D01*
X64811Y255946D01*
X64840Y255836D01*
X64877Y255704D01*
X64899Y255558D01*
X64906Y255397D01*
Y255390D01*
Y255375D01*
Y255353D01*
Y255324D01*
X64892Y255244D01*
X64877Y255141D01*
X64848Y255024D01*
X64811Y254893D01*
X64753Y254753D01*
X64672Y254615D01*
Y254607D01*
X64665Y254600D01*
X64628Y254556D01*
X64577Y254490D01*
X64504Y254417D01*
X64416Y254329D01*
X64299Y254241D01*
X64175Y254154D01*
X64021Y254081D01*
X64014D01*
X63999Y254073D01*
X63977Y254066D01*
X63948Y254051D01*
X63904Y254044D01*
X63860Y254029D01*
X63802Y254015D01*
X63736Y254000D01*
X63582Y253963D01*
X63407Y253941D01*
X63209Y253920D01*
X62982Y253912D01*
X62895D01*
X62829Y253920D01*
X62756Y253927D01*
X62668Y253934D01*
X62573Y253949D01*
X62463Y253963D01*
X62236Y254015D01*
X62119Y254051D01*
X62002Y254088D01*
X61892Y254139D01*
X61783Y254190D01*
X61673Y254256D01*
X61578Y254329D01*
X61571Y254336D01*
X61556Y254351D01*
X61534Y254373D01*
X61497Y254410D01*
X61461Y254454D01*
X61417Y254505D01*
X61373Y254571D01*
X61322Y254636D01*
X61271Y254724D01*
X61220Y254812D01*
X61176Y254914D01*
X61124Y255024D01*
X61088Y255141D01*
X61051Y255273D01*
X61022Y255412D01*
X61000Y255558D01*
X61944Y255653D01*
Y255646D01*
X61951Y255631D01*
Y255609D01*
X61958Y255573D01*
X61980Y255492D01*
X62017Y255383D01*
X62061Y255273D01*
X62119Y255156D01*
X62192Y255046D01*
X62280Y254951D01*
X62295Y254944D01*
X62331Y254914D01*
X62390Y254885D01*
X62470Y254841D01*
X62573Y254805D01*
X62690Y254768D01*
X62829Y254739D01*
X62990Y254732D01*
X63070D01*
X63151Y254739D01*
X63253Y254753D01*
X63370Y254783D01*
X63487Y254812D01*
X63597Y254863D01*
X63692Y254929D01*
X63699Y254936D01*
X63729Y254966D01*
X63765Y255002D01*
X63816Y255061D01*
X63860Y255126D01*
X63897Y255207D01*
X63926Y255295D01*
X63933Y255390D01*
Y255397D01*
Y255419D01*
X63926Y255448D01*
X63919Y255492D01*
X63889Y255580D01*
X63868Y255631D01*
X63831Y255675D01*
X63824Y255683D01*
X63809Y255697D01*
X63787Y255719D01*
X63751Y255748D01*
X63699Y255785D01*
X63641Y255814D01*
X63568Y255851D01*
X63480Y255887D01*
X63472D01*
X63443Y255902D01*
X63392Y255917D01*
X63319Y255938D01*
X63275Y255953D01*
X63217Y255968D01*
X63158Y255982D01*
X63085Y256004D01*
X63004Y256026D01*
X62917Y256048D01*
X62821Y256070D01*
X62712Y256099D01*
X62704D01*
X62675Y256107D01*
X62639Y256121D01*
X62587Y256136D01*
X62522Y256151D01*
X62448Y256173D01*
X62288Y256231D01*
X62105Y256297D01*
X61922Y256377D01*
X61761Y256472D01*
X61688Y256524D01*
X61622Y256575D01*
X61614Y256582D01*
X61600Y256597D01*
X61578Y256619D01*
X61556Y256648D01*
X61519Y256685D01*
X61483Y256729D01*
X61446Y256787D01*
X61402Y256846D01*
X61322Y256985D01*
X61249Y257153D01*
X61227Y257241D01*
X61205Y257336D01*
X61190Y257438D01*
X61183Y257541D01*
Y257548D01*
Y257555D01*
Y257577D01*
Y257606D01*
X61198Y257672D01*
X61212Y257767D01*
X61234Y257870D01*
X61271Y257987D01*
X61322Y258104D01*
X61388Y258228D01*
Y258235D01*
X61395Y258243D01*
X61424Y258279D01*
X61476Y258338D01*
X61541Y258411D01*
X61622Y258491D01*
X61724Y258572D01*
X61841Y258652D01*
X61980Y258718D01*
X61988D01*
X61995Y258726D01*
X62024Y258733D01*
X62053Y258748D01*
X62090Y258755D01*
X62134Y258769D01*
X62244Y258806D01*
X62383Y258835D01*
X62544Y258857D01*
X62726Y258879D01*
X62924Y258887D01*
X63012D01*
X63070Y258879D01*
D02*
G37*
G36*
X67949D02*
X68023Y258872D01*
X68110Y258857D01*
X68205Y258843D01*
X68308Y258821D01*
X68425Y258792D01*
X68535Y258755D01*
X68659Y258718D01*
X68776Y258667D01*
X68893Y258601D01*
X69010Y258535D01*
X69120Y258455D01*
X69230Y258360D01*
X69237D01*
X69244Y258345D01*
X69281Y258301D01*
X69339Y258235D01*
X69412Y258133D01*
X69493Y258009D01*
X69581Y257862D01*
X69661Y257687D01*
X69727Y257482D01*
X68769Y257255D01*
Y257263D01*
X68761Y257270D01*
X68754Y257314D01*
X68725Y257380D01*
X68688Y257467D01*
X68644Y257563D01*
X68579Y257658D01*
X68505Y257753D01*
X68410Y257840D01*
X68396Y257848D01*
X68359Y257877D01*
X68308Y257914D01*
X68227Y257950D01*
X68132Y257994D01*
X68015Y258023D01*
X67891Y258053D01*
X67752Y258060D01*
X67701D01*
X67664Y258053D01*
X67620Y258045D01*
X67569Y258038D01*
X67445Y258009D01*
X67306Y257965D01*
X67159Y257899D01*
X67094Y257855D01*
X67020Y257804D01*
X66955Y257738D01*
X66889Y257672D01*
Y257665D01*
X66874Y257658D01*
X66859Y257628D01*
X66838Y257599D01*
X66816Y257555D01*
X66786Y257504D01*
X66757Y257446D01*
X66728Y257372D01*
X66691Y257292D01*
X66662Y257204D01*
X66633Y257102D01*
X66611Y256985D01*
X66589Y256868D01*
X66574Y256729D01*
X66567Y256582D01*
X66560Y256429D01*
Y256421D01*
Y256392D01*
Y256341D01*
X66567Y256282D01*
Y256202D01*
X66574Y256121D01*
X66589Y256026D01*
X66603Y255924D01*
X66640Y255712D01*
X66698Y255492D01*
X66735Y255390D01*
X66779Y255295D01*
X66823Y255207D01*
X66881Y255126D01*
X66889Y255119D01*
X66896Y255112D01*
X66940Y255068D01*
X67013Y255009D01*
X67108Y254936D01*
X67233Y254863D01*
X67379Y254805D01*
X67547Y254761D01*
X67635Y254753D01*
X67730Y254746D01*
X67767D01*
X67796Y254753D01*
X67869Y254761D01*
X67957Y254775D01*
X68067Y254805D01*
X68176Y254849D01*
X68286Y254907D01*
X68396Y254988D01*
X68410Y255002D01*
X68440Y255031D01*
X68491Y255097D01*
X68549Y255178D01*
X68615Y255287D01*
X68681Y255427D01*
X68747Y255580D01*
X68798Y255770D01*
X69742Y255478D01*
Y255470D01*
X69734Y255441D01*
X69720Y255404D01*
X69698Y255346D01*
X69676Y255280D01*
X69647Y255207D01*
X69610Y255119D01*
X69566Y255031D01*
X69471Y254841D01*
X69347Y254644D01*
X69193Y254461D01*
X69113Y254373D01*
X69018Y254300D01*
X69010Y254293D01*
X68995Y254285D01*
X68966Y254263D01*
X68930Y254241D01*
X68878Y254212D01*
X68820Y254183D01*
X68747Y254146D01*
X68666Y254110D01*
X68579Y254073D01*
X68484Y254037D01*
X68381Y254007D01*
X68271Y253978D01*
X68147Y253956D01*
X68023Y253934D01*
X67884Y253927D01*
X67745Y253920D01*
X67701D01*
X67649Y253927D01*
X67584D01*
X67503Y253941D01*
X67408Y253956D01*
X67306Y253971D01*
X67189Y254000D01*
X67064Y254037D01*
X66940Y254081D01*
X66808Y254132D01*
X66677Y254198D01*
X66545Y254271D01*
X66413Y254358D01*
X66289Y254454D01*
X66172Y254571D01*
X66164Y254578D01*
X66143Y254600D01*
X66113Y254636D01*
X66077Y254688D01*
X66033Y254753D01*
X65974Y254834D01*
X65923Y254929D01*
X65865Y255039D01*
X65806Y255156D01*
X65755Y255295D01*
X65704Y255441D01*
X65652Y255602D01*
X65616Y255770D01*
X65587Y255953D01*
X65565Y256151D01*
X65557Y256355D01*
Y256370D01*
Y256407D01*
X65565Y256472D01*
Y256553D01*
X65579Y256655D01*
X65587Y256772D01*
X65609Y256897D01*
X65638Y257036D01*
X65667Y257189D01*
X65711Y257336D01*
X65755Y257497D01*
X65813Y257650D01*
X65887Y257804D01*
X65967Y257950D01*
X66062Y258089D01*
X66172Y258221D01*
X66179Y258228D01*
X66201Y258250D01*
X66238Y258279D01*
X66282Y258323D01*
X66347Y258375D01*
X66421Y258433D01*
X66508Y258491D01*
X66611Y258557D01*
X66720Y258616D01*
X66845Y258674D01*
X66976Y258733D01*
X67123Y258784D01*
X67276Y258828D01*
X67445Y258857D01*
X67620Y258879D01*
X67803Y258887D01*
X67891D01*
X67949Y258879D01*
D02*
G37*
G36*
X77108Y256933D02*
X79010Y254000D01*
X77759D01*
X76435Y256253D01*
X75660Y255448D01*
Y254000D01*
X74687D01*
Y258806D01*
X75660D01*
Y256677D01*
X77613Y258806D01*
X78915D01*
X77108Y256933D01*
D02*
G37*
G36*
X71571Y254812D02*
X73977D01*
Y254000D01*
X70598D01*
Y258762D01*
X71571D01*
Y254812D01*
D02*
G37*
G36*
X101129Y285879D02*
X101231Y285872D01*
X101348Y285857D01*
X101480Y285835D01*
X101619Y285806D01*
X101758Y285770D01*
X101633Y285126D01*
X101626D01*
X101597Y285133D01*
X101553Y285148D01*
X101494Y285155D01*
X101428Y285170D01*
X101355Y285177D01*
X101202Y285184D01*
X101173D01*
X101136Y285177D01*
X101092Y285170D01*
X100997Y285148D01*
X100953Y285119D01*
X100917Y285089D01*
Y285082D01*
X100902Y285067D01*
X100887Y285045D01*
X100873Y285009D01*
X100858Y284958D01*
X100843Y284892D01*
X100836Y284818D01*
X100829Y284723D01*
Y284482D01*
X101516D01*
Y283758D01*
X100829D01*
Y281000D01*
X99907D01*
Y283758D01*
X99395D01*
Y284482D01*
X99907D01*
Y284738D01*
Y284745D01*
Y284760D01*
Y284782D01*
Y284811D01*
X99914Y284892D01*
X99922Y284987D01*
X99929Y285089D01*
X99944Y285199D01*
X99965Y285301D01*
X99995Y285389D01*
X100002Y285396D01*
X100017Y285426D01*
X100039Y285470D01*
X100075Y285513D01*
X100119Y285572D01*
X100178Y285630D01*
X100251Y285689D01*
X100339Y285748D01*
X100353Y285755D01*
X100382Y285770D01*
X100441Y285791D01*
X100514Y285821D01*
X100609Y285843D01*
X100719Y285865D01*
X100843Y285879D01*
X100982Y285887D01*
X101048D01*
X101129Y285879D01*
D02*
G37*
G36*
X98897D02*
X99000Y285872D01*
X99117Y285857D01*
X99249Y285835D01*
X99388Y285806D01*
X99527Y285770D01*
X99402Y285126D01*
X99395D01*
X99366Y285133D01*
X99322Y285148D01*
X99263Y285155D01*
X99197Y285170D01*
X99124Y285177D01*
X98971Y285184D01*
X98941D01*
X98905Y285177D01*
X98861Y285170D01*
X98766Y285148D01*
X98722Y285119D01*
X98685Y285089D01*
Y285082D01*
X98671Y285067D01*
X98656Y285045D01*
X98641Y285009D01*
X98627Y284958D01*
X98612Y284892D01*
X98605Y284818D01*
X98597Y284723D01*
Y284482D01*
X99285D01*
Y283758D01*
X98597D01*
Y281000D01*
X97676D01*
Y283758D01*
X97164D01*
Y284482D01*
X97676D01*
Y284738D01*
Y284745D01*
Y284760D01*
Y284782D01*
Y284811D01*
X97683Y284892D01*
X97690Y284987D01*
X97698Y285089D01*
X97712Y285199D01*
X97734Y285301D01*
X97764Y285389D01*
X97771Y285396D01*
X97786Y285426D01*
X97808Y285470D01*
X97844Y285513D01*
X97888Y285572D01*
X97947Y285630D01*
X98020Y285689D01*
X98107Y285748D01*
X98122Y285755D01*
X98151Y285770D01*
X98210Y285791D01*
X98283Y285821D01*
X98378Y285843D01*
X98488Y285865D01*
X98612Y285879D01*
X98751Y285887D01*
X98817D01*
X98897Y285879D01*
D02*
G37*
G36*
X90931Y285799D02*
X91026D01*
X91224Y285791D01*
X91414Y285777D01*
X91502Y285770D01*
X91582Y285755D01*
X91648Y285748D01*
X91707Y285733D01*
X91714D01*
X91729Y285726D01*
X91743Y285718D01*
X91772Y285711D01*
X91853Y285682D01*
X91948Y285630D01*
X92058Y285572D01*
X92168Y285484D01*
X92284Y285382D01*
X92394Y285257D01*
Y285250D01*
X92409Y285243D01*
X92423Y285221D01*
X92438Y285192D01*
X92460Y285155D01*
X92482Y285111D01*
X92541Y285009D01*
X92592Y284870D01*
X92636Y284709D01*
X92665Y284526D01*
X92680Y284321D01*
Y284314D01*
Y284299D01*
Y284277D01*
Y284248D01*
X92672Y284167D01*
X92658Y284065D01*
X92643Y283948D01*
X92614Y283824D01*
X92570Y283699D01*
X92519Y283582D01*
X92511Y283568D01*
X92489Y283531D01*
X92453Y283480D01*
X92409Y283414D01*
X92350Y283333D01*
X92277Y283253D01*
X92197Y283180D01*
X92109Y283107D01*
X92102Y283099D01*
X92065Y283078D01*
X92014Y283048D01*
X91955Y283019D01*
X91875Y282975D01*
X91794Y282938D01*
X91699Y282909D01*
X91604Y282880D01*
X91590D01*
X91568Y282873D01*
X91538D01*
X91502Y282865D01*
X91458Y282858D01*
X91407Y282851D01*
X91348D01*
X91282Y282843D01*
X91209Y282836D01*
X91129Y282829D01*
X91034Y282822D01*
X90939D01*
X90836Y282814D01*
X89973D01*
Y281000D01*
X89000D01*
Y285806D01*
X90843D01*
X90931Y285799D01*
D02*
G37*
G36*
X95174Y284548D02*
X95240Y284541D01*
X95320Y284526D01*
X95401Y284511D01*
X95496Y284489D01*
X95598Y284460D01*
X95701Y284431D01*
X95810Y284387D01*
X95913Y284336D01*
X96023Y284277D01*
X96132Y284204D01*
X96235Y284131D01*
X96330Y284036D01*
X96337Y284028D01*
X96352Y284014D01*
X96374Y283985D01*
X96410Y283941D01*
X96447Y283897D01*
X96491Y283831D01*
X96535Y283765D01*
X96586Y283685D01*
X96630Y283590D01*
X96674Y283494D01*
X96718Y283385D01*
X96754Y283275D01*
X96791Y283151D01*
X96813Y283019D01*
X96827Y282887D01*
X96835Y282741D01*
Y282734D01*
Y282704D01*
Y282668D01*
X96827Y282609D01*
X96820Y282544D01*
X96805Y282463D01*
X96791Y282375D01*
X96769Y282280D01*
X96747Y282178D01*
X96710Y282075D01*
X96666Y281966D01*
X96622Y281856D01*
X96557Y281746D01*
X96491Y281636D01*
X96410Y281534D01*
X96322Y281432D01*
X96315Y281424D01*
X96301Y281410D01*
X96271Y281380D01*
X96235Y281351D01*
X96184Y281315D01*
X96125Y281271D01*
X96052Y281220D01*
X95971Y281176D01*
X95884Y281124D01*
X95788Y281073D01*
X95686Y281029D01*
X95569Y280993D01*
X95452Y280963D01*
X95320Y280934D01*
X95181Y280919D01*
X95042Y280912D01*
X94962D01*
X94918Y280919D01*
X94867Y280927D01*
X94750Y280942D01*
X94611Y280963D01*
X94457Y281000D01*
X94296Y281051D01*
X94135Y281124D01*
X94128D01*
X94113Y281132D01*
X94091Y281146D01*
X94062Y281168D01*
X93989Y281220D01*
X93894Y281285D01*
X93784Y281373D01*
X93674Y281483D01*
X93572Y281614D01*
X93477Y281761D01*
Y281768D01*
X93470Y281783D01*
X93455Y281805D01*
X93440Y281834D01*
X93426Y281878D01*
X93411Y281922D01*
X93389Y281980D01*
X93367Y282046D01*
X93331Y282192D01*
X93294Y282368D01*
X93265Y282565D01*
X93257Y282778D01*
Y282785D01*
Y282799D01*
Y282822D01*
X93265Y282858D01*
Y282895D01*
X93272Y282946D01*
X93287Y283063D01*
X93309Y283202D01*
X93352Y283348D01*
X93404Y283509D01*
X93477Y283670D01*
Y283677D01*
X93484Y283692D01*
X93499Y283714D01*
X93521Y283743D01*
X93572Y283816D01*
X93645Y283911D01*
X93733Y284021D01*
X93843Y284131D01*
X93967Y284233D01*
X94113Y284328D01*
X94121D01*
X94135Y284336D01*
X94157Y284350D01*
X94186Y284365D01*
X94223Y284380D01*
X94274Y284402D01*
X94384Y284445D01*
X94523Y284482D01*
X94684Y284519D01*
X94852Y284548D01*
X95042Y284555D01*
X95115D01*
X95174Y284548D01*
D02*
G37*
G36*
X100658Y309548D02*
X100731Y309541D01*
X100819Y309526D01*
X100914Y309511D01*
X101009Y309482D01*
X101104Y309445D01*
X101119Y309438D01*
X101148Y309424D01*
X101192Y309402D01*
X101243Y309372D01*
X101309Y309328D01*
X101368Y309277D01*
X101434Y309226D01*
X101485Y309160D01*
X101492Y309153D01*
X101507Y309131D01*
X101529Y309094D01*
X101558Y309050D01*
X101587Y308992D01*
X101616Y308926D01*
X101646Y308853D01*
X101668Y308773D01*
Y308765D01*
X101675Y308736D01*
X101682Y308685D01*
X101697Y308619D01*
X101704Y308531D01*
X101712Y308421D01*
X101719Y308297D01*
Y308158D01*
Y306000D01*
X100797D01*
Y307770D01*
Y307778D01*
Y307792D01*
Y307822D01*
Y307858D01*
Y307909D01*
Y307960D01*
X100790Y308070D01*
X100783Y308195D01*
X100768Y308312D01*
X100753Y308414D01*
X100746Y308458D01*
X100731Y308494D01*
Y308502D01*
X100724Y308524D01*
X100709Y308553D01*
X100688Y308590D01*
X100629Y308677D01*
X100541Y308758D01*
X100534Y308765D01*
X100519Y308773D01*
X100490Y308787D01*
X100453Y308809D01*
X100409Y308824D01*
X100351Y308838D01*
X100293Y308846D01*
X100227Y308853D01*
X100183D01*
X100139Y308846D01*
X100080Y308838D01*
X100014Y308824D01*
X99941Y308794D01*
X99868Y308765D01*
X99795Y308721D01*
X99788Y308714D01*
X99766Y308699D01*
X99736Y308670D01*
X99693Y308626D01*
X99656Y308575D01*
X99612Y308516D01*
X99568Y308451D01*
X99539Y308370D01*
Y308363D01*
X99532Y308326D01*
X99517Y308275D01*
X99510Y308195D01*
X99502Y308143D01*
X99495Y308085D01*
X99488Y308019D01*
X99480Y307946D01*
Y307865D01*
X99473Y307778D01*
Y307675D01*
Y307573D01*
Y306000D01*
X98552D01*
Y309482D01*
X99407D01*
Y308970D01*
X99415Y308977D01*
X99429Y308992D01*
X99451Y309021D01*
X99488Y309065D01*
X99532Y309109D01*
X99590Y309153D01*
X99649Y309211D01*
X99722Y309263D01*
X99802Y309314D01*
X99883Y309372D01*
X99978Y309416D01*
X100080Y309467D01*
X100190Y309504D01*
X100300Y309533D01*
X100424Y309548D01*
X100548Y309555D01*
X100600D01*
X100658Y309548D01*
D02*
G37*
G36*
X91931Y310799D02*
X92026D01*
X92224Y310791D01*
X92414Y310777D01*
X92502Y310770D01*
X92582Y310755D01*
X92648Y310748D01*
X92707Y310733D01*
X92714D01*
X92729Y310726D01*
X92743Y310718D01*
X92773Y310711D01*
X92853Y310682D01*
X92948Y310630D01*
X93058Y310572D01*
X93167Y310484D01*
X93285Y310382D01*
X93394Y310257D01*
Y310250D01*
X93409Y310243D01*
X93424Y310221D01*
X93438Y310192D01*
X93460Y310155D01*
X93482Y310111D01*
X93541Y310009D01*
X93592Y309870D01*
X93636Y309709D01*
X93665Y309526D01*
X93680Y309321D01*
Y309314D01*
Y309299D01*
Y309277D01*
Y309248D01*
X93672Y309167D01*
X93658Y309065D01*
X93643Y308948D01*
X93614Y308824D01*
X93570Y308699D01*
X93519Y308582D01*
X93511Y308568D01*
X93489Y308531D01*
X93453Y308480D01*
X93409Y308414D01*
X93350Y308333D01*
X93277Y308253D01*
X93197Y308180D01*
X93109Y308107D01*
X93102Y308099D01*
X93065Y308078D01*
X93014Y308048D01*
X92955Y308019D01*
X92875Y307975D01*
X92794Y307938D01*
X92699Y307909D01*
X92604Y307880D01*
X92590D01*
X92568Y307873D01*
X92538D01*
X92502Y307865D01*
X92458Y307858D01*
X92407Y307851D01*
X92348D01*
X92282Y307843D01*
X92209Y307836D01*
X92129Y307829D01*
X92034Y307822D01*
X91938D01*
X91836Y307814D01*
X90973D01*
Y306000D01*
X90000D01*
Y310806D01*
X91843D01*
X91931Y310799D01*
D02*
G37*
G36*
X96174Y309548D02*
X96240Y309541D01*
X96320Y309526D01*
X96401Y309511D01*
X96496Y309489D01*
X96598Y309460D01*
X96701Y309431D01*
X96810Y309387D01*
X96913Y309336D01*
X97023Y309277D01*
X97132Y309204D01*
X97235Y309131D01*
X97330Y309036D01*
X97337Y309028D01*
X97352Y309014D01*
X97374Y308985D01*
X97410Y308941D01*
X97447Y308897D01*
X97491Y308831D01*
X97535Y308765D01*
X97586Y308685D01*
X97630Y308590D01*
X97674Y308494D01*
X97718Y308385D01*
X97754Y308275D01*
X97791Y308151D01*
X97813Y308019D01*
X97827Y307887D01*
X97835Y307741D01*
Y307734D01*
Y307704D01*
Y307668D01*
X97827Y307609D01*
X97820Y307544D01*
X97805Y307463D01*
X97791Y307375D01*
X97769Y307280D01*
X97747Y307178D01*
X97710Y307075D01*
X97666Y306966D01*
X97622Y306856D01*
X97557Y306746D01*
X97491Y306636D01*
X97410Y306534D01*
X97323Y306432D01*
X97315Y306424D01*
X97301Y306410D01*
X97271Y306380D01*
X97235Y306351D01*
X97184Y306315D01*
X97125Y306271D01*
X97052Y306220D01*
X96971Y306176D01*
X96884Y306124D01*
X96789Y306073D01*
X96686Y306029D01*
X96569Y305993D01*
X96452Y305963D01*
X96320Y305934D01*
X96181Y305919D01*
X96042Y305912D01*
X95962D01*
X95918Y305919D01*
X95867Y305927D01*
X95750Y305942D01*
X95611Y305963D01*
X95457Y306000D01*
X95296Y306051D01*
X95135Y306124D01*
X95128D01*
X95113Y306132D01*
X95091Y306146D01*
X95062Y306168D01*
X94989Y306220D01*
X94894Y306285D01*
X94784Y306373D01*
X94674Y306483D01*
X94572Y306614D01*
X94477Y306761D01*
Y306768D01*
X94470Y306783D01*
X94455Y306805D01*
X94440Y306834D01*
X94426Y306878D01*
X94411Y306922D01*
X94389Y306980D01*
X94367Y307046D01*
X94331Y307192D01*
X94294Y307368D01*
X94265Y307565D01*
X94257Y307778D01*
Y307785D01*
Y307799D01*
Y307822D01*
X94265Y307858D01*
Y307895D01*
X94272Y307946D01*
X94287Y308063D01*
X94309Y308202D01*
X94353Y308348D01*
X94404Y308509D01*
X94477Y308670D01*
Y308677D01*
X94484Y308692D01*
X94499Y308714D01*
X94521Y308743D01*
X94572Y308816D01*
X94645Y308911D01*
X94733Y309021D01*
X94843Y309131D01*
X94967Y309233D01*
X95113Y309328D01*
X95121D01*
X95135Y309336D01*
X95157Y309350D01*
X95187Y309365D01*
X95223Y309380D01*
X95274Y309402D01*
X95384Y309445D01*
X95523Y309482D01*
X95684Y309519D01*
X95852Y309548D01*
X96042Y309555D01*
X96116D01*
X96174Y309548D01*
D02*
G37*
G36*
X75081D02*
X75176Y309533D01*
X75271Y309519D01*
X75381Y309489D01*
X75491Y309445D01*
X75593Y309394D01*
X75608Y309387D01*
X75637Y309365D01*
X75688Y309328D01*
X75747Y309277D01*
X75813Y309219D01*
X75878Y309138D01*
X75944Y309043D01*
X75995Y308941D01*
X76003Y308933D01*
X76010Y308897D01*
X76025Y308846D01*
X76047Y308765D01*
X76061Y308663D01*
X76076Y308538D01*
X76083Y308392D01*
X76090Y308216D01*
Y306000D01*
X75169D01*
Y307982D01*
Y307990D01*
Y308004D01*
Y308034D01*
Y308063D01*
X75161Y308158D01*
X75154Y308260D01*
X75147Y308377D01*
X75132Y308487D01*
X75103Y308582D01*
X75088Y308626D01*
X75074Y308655D01*
X75066Y308663D01*
X75052Y308685D01*
X75015Y308721D01*
X74979Y308758D01*
X74920Y308787D01*
X74854Y308824D01*
X74774Y308846D01*
X74679Y308853D01*
X74649D01*
X74613Y308846D01*
X74562Y308838D01*
X74503Y308824D01*
X74445Y308802D01*
X74379Y308773D01*
X74313Y308729D01*
X74306Y308721D01*
X74284Y308707D01*
X74254Y308677D01*
X74218Y308641D01*
X74181Y308597D01*
X74137Y308531D01*
X74101Y308465D01*
X74071Y308385D01*
Y308377D01*
X74057Y308341D01*
X74050Y308290D01*
X74035Y308209D01*
X74020Y308107D01*
X74013Y307990D01*
X73998Y307836D01*
Y307668D01*
Y306000D01*
X73077D01*
Y307902D01*
Y307909D01*
Y307924D01*
Y307953D01*
Y307982D01*
Y308070D01*
X73069Y308180D01*
X73062Y308290D01*
X73055Y308399D01*
X73040Y308487D01*
X73033Y308531D01*
X73025Y308560D01*
Y308568D01*
X73018Y308582D01*
X73004Y308612D01*
X72989Y308641D01*
X72938Y308714D01*
X72872Y308780D01*
X72864D01*
X72850Y308794D01*
X72828Y308802D01*
X72799Y308816D01*
X72762Y308831D01*
X72711Y308838D01*
X72660Y308853D01*
X72557D01*
X72513Y308846D01*
X72462Y308838D01*
X72404Y308824D01*
X72338Y308802D01*
X72272Y308773D01*
X72206Y308736D01*
X72199Y308729D01*
X72177Y308714D01*
X72148Y308685D01*
X72111Y308648D01*
X72074Y308604D01*
X72031Y308546D01*
X71994Y308480D01*
X71965Y308399D01*
Y308392D01*
X71950Y308356D01*
X71943Y308304D01*
X71928Y308231D01*
X71913Y308136D01*
X71906Y308012D01*
X71892Y307865D01*
Y307690D01*
Y306000D01*
X70970D01*
Y309482D01*
X71818D01*
Y309007D01*
X71826Y309014D01*
X71840Y309028D01*
X71862Y309058D01*
X71899Y309094D01*
X71943Y309131D01*
X71994Y309182D01*
X72052Y309233D01*
X72126Y309284D01*
X72199Y309336D01*
X72279Y309380D01*
X72470Y309467D01*
X72565Y309504D01*
X72674Y309533D01*
X72784Y309548D01*
X72901Y309555D01*
X72960D01*
X73018Y309548D01*
X73099Y309541D01*
X73194Y309519D01*
X73289Y309497D01*
X73384Y309460D01*
X73479Y309416D01*
X73494Y309409D01*
X73523Y309387D01*
X73567Y309358D01*
X73625Y309314D01*
X73691Y309255D01*
X73757Y309182D01*
X73823Y309094D01*
X73889Y308999D01*
X73896Y309014D01*
X73925Y309043D01*
X73976Y309094D01*
X74035Y309153D01*
X74108Y309226D01*
X74188Y309292D01*
X74284Y309358D01*
X74379Y309416D01*
X74393Y309424D01*
X74423Y309438D01*
X74481Y309460D01*
X74554Y309489D01*
X74635Y309511D01*
X74737Y309533D01*
X74840Y309548D01*
X74949Y309555D01*
X75015D01*
X75081Y309548D01*
D02*
G37*
G36*
X79017D02*
X79068Y309541D01*
X79126Y309533D01*
X79273Y309497D01*
X79433Y309438D01*
X79521Y309402D01*
X79609Y309350D01*
X79690Y309299D01*
X79777Y309233D01*
X79865Y309160D01*
X79946Y309072D01*
X79953Y309065D01*
X79968Y309050D01*
X79982Y309021D01*
X80011Y308985D01*
X80041Y308933D01*
X80077Y308875D01*
X80121Y308809D01*
X80158Y308729D01*
X80194Y308641D01*
X80238Y308538D01*
X80275Y308429D01*
X80304Y308312D01*
X80333Y308187D01*
X80355Y308048D01*
X80363Y307902D01*
X80370Y307748D01*
Y307741D01*
Y307712D01*
Y307668D01*
X80363Y307602D01*
X80355Y307529D01*
X80348Y307448D01*
X80333Y307353D01*
X80319Y307251D01*
X80267Y307039D01*
X80231Y306922D01*
X80187Y306812D01*
X80136Y306702D01*
X80085Y306593D01*
X80011Y306490D01*
X79938Y306395D01*
X79931Y306388D01*
X79916Y306373D01*
X79894Y306351D01*
X79865Y306322D01*
X79821Y306285D01*
X79770Y306241D01*
X79711Y306197D01*
X79653Y306154D01*
X79499Y306066D01*
X79324Y305985D01*
X79229Y305956D01*
X79126Y305934D01*
X79017Y305919D01*
X78907Y305912D01*
X78856D01*
X78804Y305919D01*
X78739Y305927D01*
X78658Y305942D01*
X78570Y305956D01*
X78475Y305985D01*
X78387Y306022D01*
X78380Y306029D01*
X78344Y306044D01*
X78300Y306073D01*
X78241Y306117D01*
X78168Y306168D01*
X78080Y306241D01*
X77993Y306322D01*
X77897Y306417D01*
Y304669D01*
X76976D01*
Y309482D01*
X77832D01*
Y308970D01*
X77839Y308985D01*
X77861Y309014D01*
X77897Y309058D01*
X77949Y309116D01*
X78014Y309182D01*
X78088Y309255D01*
X78175Y309321D01*
X78278Y309387D01*
X78292Y309394D01*
X78329Y309416D01*
X78387Y309438D01*
X78468Y309475D01*
X78556Y309504D01*
X78665Y309526D01*
X78790Y309548D01*
X78914Y309555D01*
X78973D01*
X79017Y309548D01*
D02*
G37*
G36*
X68819D02*
X68878D01*
X69017Y309541D01*
X69163Y309519D01*
X69317Y309497D01*
X69463Y309460D01*
X69529Y309438D01*
X69587Y309409D01*
X69602Y309402D01*
X69639Y309380D01*
X69690Y309350D01*
X69756Y309307D01*
X69821Y309255D01*
X69894Y309189D01*
X69960Y309116D01*
X70012Y309036D01*
X70019Y309028D01*
X70033Y308992D01*
X70048Y308933D01*
X70077Y308846D01*
X70085Y308794D01*
X70099Y308736D01*
X70107Y308670D01*
X70114Y308590D01*
X70121Y308509D01*
X70129Y308414D01*
X70136Y308319D01*
Y308209D01*
X70121Y307141D01*
Y307134D01*
Y307119D01*
Y307097D01*
Y307068D01*
Y306987D01*
X70129Y306885D01*
Y306775D01*
X70143Y306658D01*
X70151Y306556D01*
X70165Y306461D01*
Y306453D01*
X70173Y306424D01*
X70187Y306380D01*
X70202Y306322D01*
X70224Y306256D01*
X70253Y306176D01*
X70290Y306095D01*
X70333Y306000D01*
X69426D01*
Y306007D01*
X69419Y306015D01*
X69412Y306037D01*
X69404Y306066D01*
X69390Y306102D01*
X69368Y306146D01*
X69353Y306205D01*
X69331Y306263D01*
Y306271D01*
Y306278D01*
X69317Y306307D01*
X69309Y306344D01*
X69302Y306373D01*
X69295Y306366D01*
X69258Y306336D01*
X69214Y306293D01*
X69148Y306241D01*
X69075Y306183D01*
X68987Y306124D01*
X68900Y306073D01*
X68797Y306022D01*
X68783Y306015D01*
X68753Y306007D01*
X68695Y305985D01*
X68622Y305971D01*
X68541Y305949D01*
X68446Y305927D01*
X68336Y305919D01*
X68227Y305912D01*
X68176D01*
X68139Y305919D01*
X68095D01*
X68036Y305927D01*
X67919Y305949D01*
X67780Y305985D01*
X67641Y306029D01*
X67502Y306102D01*
X67378Y306197D01*
X67364Y306212D01*
X67327Y306249D01*
X67283Y306315D01*
X67224Y306402D01*
X67166Y306512D01*
X67122Y306636D01*
X67085Y306783D01*
X67071Y306944D01*
Y306958D01*
Y306995D01*
X67078Y307046D01*
X67085Y307119D01*
X67107Y307200D01*
X67129Y307288D01*
X67166Y307375D01*
X67210Y307463D01*
X67217Y307470D01*
X67239Y307500D01*
X67268Y307544D01*
X67312Y307595D01*
X67364Y307653D01*
X67429Y307712D01*
X67510Y307770D01*
X67598Y307822D01*
X67612Y307829D01*
X67649Y307843D01*
X67707Y307865D01*
X67788Y307895D01*
X67890Y307931D01*
X68014Y307968D01*
X68161Y308004D01*
X68329Y308041D01*
X68336D01*
X68358Y308048D01*
X68388Y308056D01*
X68432Y308063D01*
X68490Y308070D01*
X68548Y308085D01*
X68688Y308114D01*
X68834Y308151D01*
X68980Y308187D01*
X69119Y308224D01*
X69178Y308246D01*
X69229Y308268D01*
Y308356D01*
Y308370D01*
Y308399D01*
X69222Y308443D01*
X69214Y308502D01*
X69200Y308568D01*
X69170Y308626D01*
X69141Y308685D01*
X69097Y308736D01*
X69090Y308743D01*
X69068Y308758D01*
X69039Y308773D01*
X68987Y308794D01*
X68922Y308816D01*
X68834Y308838D01*
X68724Y308846D01*
X68600Y308853D01*
X68556D01*
X68512Y308846D01*
X68461Y308838D01*
X68329Y308809D01*
X68271Y308787D01*
X68212Y308750D01*
X68205Y308743D01*
X68190Y308729D01*
X68161Y308707D01*
X68132Y308670D01*
X68095Y308626D01*
X68058Y308568D01*
X68022Y308494D01*
X67993Y308414D01*
X67166Y308568D01*
Y308575D01*
X67173Y308590D01*
X67181Y308619D01*
X67195Y308648D01*
X67232Y308736D01*
X67276Y308846D01*
X67341Y308970D01*
X67429Y309087D01*
X67532Y309204D01*
X67649Y309307D01*
X67656D01*
X67663Y309314D01*
X67685Y309328D01*
X67715Y309343D01*
X67751Y309365D01*
X67795Y309387D01*
X67846Y309409D01*
X67905Y309431D01*
X67971Y309453D01*
X68051Y309475D01*
X68132Y309497D01*
X68227Y309519D01*
X68322Y309533D01*
X68432Y309548D01*
X68541Y309555D01*
X68768D01*
X68819Y309548D01*
D02*
G37*
G36*
X64445Y310799D02*
X64576Y310791D01*
X64730Y310784D01*
X64876Y310770D01*
X65023Y310740D01*
X65154Y310711D01*
X65162D01*
X65176Y310704D01*
X65198Y310696D01*
X65227Y310689D01*
X65301Y310653D01*
X65403Y310609D01*
X65513Y310550D01*
X65630Y310470D01*
X65754Y310375D01*
X65871Y310265D01*
X65879D01*
X65886Y310250D01*
X65922Y310206D01*
X65974Y310140D01*
X66047Y310053D01*
X66120Y309936D01*
X66193Y309804D01*
X66266Y309658D01*
X66332Y309489D01*
Y309482D01*
X66339Y309467D01*
X66347Y309445D01*
X66354Y309409D01*
X66369Y309365D01*
X66383Y309307D01*
X66398Y309248D01*
X66413Y309175D01*
X66427Y309094D01*
X66442Y309014D01*
X66471Y308816D01*
X66486Y308597D01*
X66493Y308356D01*
Y308348D01*
Y308326D01*
Y308297D01*
Y308253D01*
X66486Y308202D01*
Y308143D01*
X66471Y308004D01*
X66456Y307843D01*
X66427Y307675D01*
X66391Y307500D01*
X66339Y307331D01*
Y307324D01*
X66332Y307309D01*
X66325Y307280D01*
X66310Y307244D01*
X66288Y307200D01*
X66266Y307148D01*
X66208Y307031D01*
X66135Y306893D01*
X66047Y306754D01*
X65944Y306614D01*
X65827Y306483D01*
X65813Y306476D01*
X65783Y306439D01*
X65725Y306395D01*
X65652Y306344D01*
X65549Y306278D01*
X65432Y306212D01*
X65301Y306154D01*
X65147Y306095D01*
X65132Y306088D01*
X65088Y306080D01*
X65023Y306066D01*
X64920Y306051D01*
X64803Y306029D01*
X64657Y306015D01*
X64481Y306007D01*
X64291Y306000D01*
X62477D01*
Y310806D01*
X64386D01*
X64445Y310799D01*
D02*
G37*
G36*
X59931D02*
X60026D01*
X60224Y310791D01*
X60414Y310777D01*
X60502Y310770D01*
X60582Y310755D01*
X60648Y310748D01*
X60707Y310733D01*
X60714D01*
X60729Y310726D01*
X60743Y310718D01*
X60773Y310711D01*
X60853Y310682D01*
X60948Y310630D01*
X61058Y310572D01*
X61167Y310484D01*
X61284Y310382D01*
X61394Y310257D01*
Y310250D01*
X61409Y310243D01*
X61424Y310221D01*
X61438Y310192D01*
X61460Y310155D01*
X61482Y310111D01*
X61541Y310009D01*
X61592Y309870D01*
X61636Y309709D01*
X61665Y309526D01*
X61680Y309321D01*
Y309314D01*
Y309299D01*
Y309277D01*
Y309248D01*
X61672Y309167D01*
X61658Y309065D01*
X61643Y308948D01*
X61614Y308824D01*
X61570Y308699D01*
X61519Y308582D01*
X61511Y308568D01*
X61489Y308531D01*
X61453Y308480D01*
X61409Y308414D01*
X61350Y308333D01*
X61277Y308253D01*
X61197Y308180D01*
X61109Y308107D01*
X61102Y308099D01*
X61065Y308078D01*
X61014Y308048D01*
X60955Y308019D01*
X60875Y307975D01*
X60794Y307938D01*
X60699Y307909D01*
X60604Y307880D01*
X60590D01*
X60568Y307873D01*
X60538D01*
X60502Y307865D01*
X60458Y307858D01*
X60407Y307851D01*
X60348D01*
X60282Y307843D01*
X60209Y307836D01*
X60129Y307829D01*
X60034Y307822D01*
X59939D01*
X59836Y307814D01*
X58973D01*
Y306000D01*
X58000D01*
Y310806D01*
X59843D01*
X59931Y310799D01*
D02*
G37*
G36*
X90524Y335879D02*
X90597Y335872D01*
X90685Y335865D01*
X90780Y335857D01*
X90890Y335843D01*
X91109Y335792D01*
X91343Y335726D01*
X91453Y335682D01*
X91562Y335630D01*
X91672Y335572D01*
X91767Y335506D01*
X91775Y335499D01*
X91789Y335491D01*
X91819Y335470D01*
X91848Y335440D01*
X91892Y335396D01*
X91936Y335353D01*
X91987Y335301D01*
X92038Y335235D01*
X92097Y335170D01*
X92148Y335089D01*
X92206Y335009D01*
X92257Y334914D01*
X92345Y334716D01*
X92389Y334599D01*
X92418Y334482D01*
X91453Y334299D01*
Y334306D01*
X91446Y334314D01*
X91431Y334358D01*
X91409Y334423D01*
X91365Y334504D01*
X91314Y334592D01*
X91248Y334679D01*
X91167Y334775D01*
X91072Y334855D01*
X91058Y334862D01*
X91021Y334884D01*
X90963Y334921D01*
X90882Y334958D01*
X90780Y334994D01*
X90663Y335031D01*
X90524Y335053D01*
X90377Y335060D01*
X90319D01*
X90275Y335053D01*
X90217Y335045D01*
X90158Y335038D01*
X90012Y335009D01*
X89851Y334958D01*
X89683Y334884D01*
X89602Y334841D01*
X89522Y334789D01*
X89441Y334723D01*
X89368Y334650D01*
X89361Y334643D01*
X89353Y334628D01*
X89331Y334606D01*
X89309Y334577D01*
X89280Y334533D01*
X89251Y334482D01*
X89222Y334423D01*
X89185Y334350D01*
X89149Y334270D01*
X89119Y334182D01*
X89090Y334080D01*
X89061Y333977D01*
X89039Y333860D01*
X89017Y333729D01*
X89010Y333597D01*
X89002Y333451D01*
Y333443D01*
Y333414D01*
Y333370D01*
X89010Y333312D01*
X89017Y333238D01*
X89024Y333158D01*
X89031Y333070D01*
X89046Y332968D01*
X89090Y332763D01*
X89163Y332543D01*
X89200Y332441D01*
X89251Y332346D01*
X89309Y332251D01*
X89375Y332163D01*
X89383Y332156D01*
X89390Y332149D01*
X89412Y332127D01*
X89441Y332097D01*
X89485Y332068D01*
X89529Y332031D01*
X89580Y331988D01*
X89646Y331951D01*
X89785Y331870D01*
X89953Y331805D01*
X90048Y331775D01*
X90151Y331761D01*
X90260Y331746D01*
X90370Y331739D01*
X90421D01*
X90480Y331746D01*
X90560Y331754D01*
X90648Y331768D01*
X90751Y331790D01*
X90860Y331819D01*
X90977Y331856D01*
X90992Y331863D01*
X91028Y331878D01*
X91087Y331900D01*
X91160Y331936D01*
X91241Y331980D01*
X91328Y332031D01*
X91416Y332083D01*
X91504Y332149D01*
Y332763D01*
X90399D01*
Y333575D01*
X92484D01*
Y331651D01*
X92470Y331636D01*
X92426Y331600D01*
X92360Y331549D01*
X92257Y331475D01*
X92133Y331395D01*
X91980Y331307D01*
X91804Y331219D01*
X91599Y331132D01*
X91592D01*
X91570Y331124D01*
X91541Y331110D01*
X91497Y331095D01*
X91446Y331081D01*
X91387Y331066D01*
X91314Y331044D01*
X91233Y331022D01*
X91058Y330985D01*
X90860Y330949D01*
X90648Y330919D01*
X90429Y330912D01*
X90356D01*
X90304Y330919D01*
X90239D01*
X90158Y330927D01*
X90077Y330942D01*
X89982Y330949D01*
X89778Y330993D01*
X89558Y331044D01*
X89331Y331124D01*
X89222Y331168D01*
X89112Y331227D01*
X89105Y331234D01*
X89090Y331241D01*
X89061Y331263D01*
X89024Y331285D01*
X88973Y331315D01*
X88922Y331358D01*
X88797Y331461D01*
X88666Y331585D01*
X88527Y331739D01*
X88395Y331922D01*
X88278Y332127D01*
Y332134D01*
X88263Y332156D01*
X88256Y332185D01*
X88234Y332229D01*
X88212Y332287D01*
X88190Y332353D01*
X88168Y332426D01*
X88139Y332507D01*
X88110Y332602D01*
X88088Y332704D01*
X88044Y332917D01*
X88015Y333158D01*
X88000Y333414D01*
Y333421D01*
Y333451D01*
Y333487D01*
X88007Y333538D01*
Y333604D01*
X88015Y333685D01*
X88029Y333765D01*
X88037Y333860D01*
X88073Y334065D01*
X88132Y334292D01*
X88205Y334519D01*
X88307Y334745D01*
X88315Y334753D01*
X88322Y334775D01*
X88344Y334804D01*
X88366Y334841D01*
X88402Y334892D01*
X88439Y334950D01*
X88541Y335075D01*
X88673Y335221D01*
X88827Y335374D01*
X89017Y335513D01*
X89229Y335645D01*
X89236D01*
X89251Y335653D01*
X89273Y335667D01*
X89309Y335682D01*
X89361Y335704D01*
X89412Y335718D01*
X89478Y335740D01*
X89544Y335770D01*
X89624Y335792D01*
X89712Y335813D01*
X89807Y335828D01*
X89909Y335850D01*
X90129Y335879D01*
X90377Y335887D01*
X90465D01*
X90524Y335879D01*
D02*
G37*
G36*
X97203Y331000D02*
X96230D01*
X94284Y334153D01*
Y331000D01*
X93384D01*
Y335806D01*
X94320D01*
X96303Y332580D01*
Y335806D01*
X97203D01*
Y331000D01*
D02*
G37*
G36*
X100194Y335799D02*
X100326Y335792D01*
X100480Y335784D01*
X100626Y335770D01*
X100772Y335740D01*
X100904Y335711D01*
X100911D01*
X100926Y335704D01*
X100948Y335696D01*
X100977Y335689D01*
X101050Y335653D01*
X101153Y335609D01*
X101263Y335550D01*
X101379Y335470D01*
X101504Y335374D01*
X101621Y335265D01*
X101628D01*
X101636Y335250D01*
X101672Y335206D01*
X101723Y335140D01*
X101797Y335053D01*
X101870Y334936D01*
X101943Y334804D01*
X102016Y334658D01*
X102082Y334489D01*
Y334482D01*
X102089Y334467D01*
X102096Y334445D01*
X102104Y334409D01*
X102118Y334365D01*
X102133Y334306D01*
X102148Y334248D01*
X102162Y334175D01*
X102177Y334094D01*
X102191Y334014D01*
X102221Y333816D01*
X102235Y333597D01*
X102243Y333355D01*
Y333348D01*
Y333326D01*
Y333297D01*
Y333253D01*
X102235Y333202D01*
Y333143D01*
X102221Y333004D01*
X102206Y332843D01*
X102177Y332675D01*
X102140Y332500D01*
X102089Y332331D01*
Y332324D01*
X102082Y332309D01*
X102074Y332280D01*
X102060Y332244D01*
X102038Y332200D01*
X102016Y332149D01*
X101957Y332031D01*
X101884Y331893D01*
X101797Y331754D01*
X101694Y331614D01*
X101577Y331483D01*
X101562Y331475D01*
X101533Y331439D01*
X101475Y331395D01*
X101401Y331344D01*
X101299Y331278D01*
X101182Y331212D01*
X101050Y331154D01*
X100897Y331095D01*
X100882Y331088D01*
X100838Y331081D01*
X100772Y331066D01*
X100670Y331051D01*
X100553Y331029D01*
X100407Y331015D01*
X100231Y331007D01*
X100041Y331000D01*
X98227D01*
Y335806D01*
X100136D01*
X100194Y335799D01*
D02*
G37*
G36*
X59524Y334879D02*
X59597Y334872D01*
X59685Y334865D01*
X59780Y334857D01*
X59889Y334843D01*
X60109Y334791D01*
X60343Y334726D01*
X60453Y334682D01*
X60563Y334631D01*
X60672Y334572D01*
X60767Y334506D01*
X60775Y334499D01*
X60789Y334492D01*
X60819Y334470D01*
X60848Y334440D01*
X60892Y334396D01*
X60936Y334352D01*
X60987Y334301D01*
X61038Y334235D01*
X61097Y334170D01*
X61148Y334089D01*
X61206Y334009D01*
X61257Y333914D01*
X61345Y333716D01*
X61389Y333599D01*
X61418Y333482D01*
X60453Y333299D01*
Y333307D01*
X60445Y333314D01*
X60431Y333358D01*
X60409Y333424D01*
X60365Y333504D01*
X60314Y333592D01*
X60248Y333680D01*
X60167Y333775D01*
X60072Y333855D01*
X60058Y333862D01*
X60021Y333884D01*
X59963Y333921D01*
X59882Y333957D01*
X59780Y333994D01*
X59663Y334031D01*
X59524Y334053D01*
X59377Y334060D01*
X59319D01*
X59275Y334053D01*
X59216Y334045D01*
X59158Y334038D01*
X59012Y334009D01*
X58851Y333957D01*
X58682Y333884D01*
X58602Y333840D01*
X58521Y333789D01*
X58441Y333723D01*
X58368Y333650D01*
X58361Y333643D01*
X58353Y333628D01*
X58331Y333606D01*
X58309Y333577D01*
X58280Y333533D01*
X58251Y333482D01*
X58222Y333424D01*
X58185Y333350D01*
X58148Y333270D01*
X58119Y333182D01*
X58090Y333080D01*
X58061Y332977D01*
X58039Y332860D01*
X58017Y332729D01*
X58010Y332597D01*
X58002Y332451D01*
Y332443D01*
Y332414D01*
Y332370D01*
X58010Y332312D01*
X58017Y332239D01*
X58024Y332158D01*
X58031Y332070D01*
X58046Y331968D01*
X58090Y331763D01*
X58163Y331544D01*
X58200Y331441D01*
X58251Y331346D01*
X58309Y331251D01*
X58375Y331163D01*
X58383Y331156D01*
X58390Y331148D01*
X58412Y331127D01*
X58441Y331097D01*
X58485Y331068D01*
X58529Y331031D01*
X58580Y330988D01*
X58646Y330951D01*
X58785Y330871D01*
X58953Y330805D01*
X59048Y330775D01*
X59151Y330761D01*
X59260Y330746D01*
X59370Y330739D01*
X59421D01*
X59480Y330746D01*
X59560Y330754D01*
X59648Y330768D01*
X59750Y330790D01*
X59860Y330819D01*
X59977Y330856D01*
X59992Y330863D01*
X60029Y330878D01*
X60087Y330900D01*
X60160Y330936D01*
X60241Y330980D01*
X60328Y331031D01*
X60416Y331083D01*
X60504Y331148D01*
Y331763D01*
X59399D01*
Y332575D01*
X61484D01*
Y330651D01*
X61470Y330636D01*
X61426Y330600D01*
X61360Y330549D01*
X61257Y330476D01*
X61133Y330395D01*
X60979Y330307D01*
X60804Y330219D01*
X60599Y330132D01*
X60592D01*
X60570Y330124D01*
X60540Y330110D01*
X60497Y330095D01*
X60445Y330080D01*
X60387Y330066D01*
X60314Y330044D01*
X60233Y330022D01*
X60058Y329985D01*
X59860Y329949D01*
X59648Y329920D01*
X59429Y329912D01*
X59356D01*
X59304Y329920D01*
X59238D01*
X59158Y329927D01*
X59078Y329941D01*
X58982Y329949D01*
X58778Y329993D01*
X58558Y330044D01*
X58331Y330124D01*
X58222Y330168D01*
X58112Y330227D01*
X58105Y330234D01*
X58090Y330241D01*
X58061Y330263D01*
X58024Y330285D01*
X57973Y330315D01*
X57922Y330358D01*
X57797Y330461D01*
X57666Y330585D01*
X57527Y330739D01*
X57395Y330922D01*
X57278Y331127D01*
Y331134D01*
X57263Y331156D01*
X57256Y331185D01*
X57234Y331229D01*
X57212Y331287D01*
X57190Y331353D01*
X57168Y331427D01*
X57139Y331507D01*
X57110Y331602D01*
X57088Y331704D01*
X57044Y331917D01*
X57015Y332158D01*
X57000Y332414D01*
Y332421D01*
Y332451D01*
Y332487D01*
X57007Y332538D01*
Y332604D01*
X57015Y332685D01*
X57029Y332765D01*
X57037Y332860D01*
X57073Y333065D01*
X57132Y333292D01*
X57205Y333519D01*
X57307Y333745D01*
X57315Y333753D01*
X57322Y333775D01*
X57344Y333804D01*
X57366Y333840D01*
X57402Y333892D01*
X57439Y333950D01*
X57541Y334075D01*
X57673Y334221D01*
X57827Y334375D01*
X58017Y334514D01*
X58229Y334645D01*
X58236D01*
X58251Y334652D01*
X58273Y334667D01*
X58309Y334682D01*
X58361Y334704D01*
X58412Y334718D01*
X58478Y334740D01*
X58544Y334770D01*
X58624Y334791D01*
X58712Y334813D01*
X58807Y334828D01*
X58909Y334850D01*
X59129Y334879D01*
X59377Y334887D01*
X59465D01*
X59524Y334879D01*
D02*
G37*
G36*
X66203Y330000D02*
X65230D01*
X63284Y333153D01*
Y330000D01*
X62384D01*
Y334806D01*
X63320D01*
X65303Y331580D01*
Y334806D01*
X66203D01*
Y330000D01*
D02*
G37*
G36*
X69194Y334799D02*
X69326Y334791D01*
X69480Y334784D01*
X69626Y334770D01*
X69772Y334740D01*
X69904Y334711D01*
X69911D01*
X69926Y334704D01*
X69948Y334696D01*
X69977Y334689D01*
X70050Y334652D01*
X70153Y334609D01*
X70262Y334550D01*
X70380Y334470D01*
X70504Y334375D01*
X70621Y334265D01*
X70628D01*
X70635Y334250D01*
X70672Y334206D01*
X70723Y334140D01*
X70796Y334053D01*
X70870Y333936D01*
X70943Y333804D01*
X71016Y333658D01*
X71082Y333489D01*
Y333482D01*
X71089Y333467D01*
X71096Y333446D01*
X71104Y333409D01*
X71118Y333365D01*
X71133Y333307D01*
X71148Y333248D01*
X71162Y333175D01*
X71177Y333094D01*
X71192Y333014D01*
X71221Y332816D01*
X71235Y332597D01*
X71243Y332355D01*
Y332348D01*
Y332326D01*
Y332297D01*
Y332253D01*
X71235Y332202D01*
Y332143D01*
X71221Y332004D01*
X71206Y331843D01*
X71177Y331675D01*
X71140Y331500D01*
X71089Y331331D01*
Y331324D01*
X71082Y331309D01*
X71074Y331280D01*
X71060Y331244D01*
X71038Y331200D01*
X71016Y331148D01*
X70957Y331031D01*
X70884Y330892D01*
X70796Y330754D01*
X70694Y330615D01*
X70577Y330483D01*
X70562Y330476D01*
X70533Y330439D01*
X70475Y330395D01*
X70401Y330344D01*
X70299Y330278D01*
X70182Y330212D01*
X70050Y330154D01*
X69897Y330095D01*
X69882Y330088D01*
X69838Y330080D01*
X69772Y330066D01*
X69670Y330051D01*
X69553Y330029D01*
X69407Y330015D01*
X69231Y330007D01*
X69041Y330000D01*
X67227D01*
Y334806D01*
X69136D01*
X69194Y334799D01*
D02*
G37*
G36*
X93745Y256336D02*
X95950Y253000D01*
X94389D01*
X92975Y255165D01*
X91551Y253000D01*
X90000D01*
X92214Y256336D01*
X90205Y259408D01*
X91717D01*
X92975Y257487D01*
X94243Y259408D01*
X95755D01*
X93745Y256336D01*
D02*
G37*
G36*
X64745Y283336D02*
X66950Y280000D01*
X65389D01*
X63975Y282165D01*
X62551Y280000D01*
X61000D01*
X63214Y283336D01*
X61205Y286408D01*
X62717D01*
X63975Y284487D01*
X65243Y286408D01*
X66755D01*
X64745Y283336D01*
D02*
G37*
G36*
X96745Y356336D02*
X98950Y353000D01*
X97389D01*
X95975Y355165D01*
X94551Y353000D01*
X93000D01*
X95214Y356336D01*
X93205Y359408D01*
X94717D01*
X95975Y357487D01*
X97243Y359408D01*
X98755D01*
X96745Y356336D01*
D02*
G37*
G36*
X70745D02*
X72950Y353000D01*
X71389D01*
X69975Y355165D01*
X68551Y353000D01*
X67000D01*
X69214Y356336D01*
X67205Y359408D01*
X68717D01*
X69975Y357487D01*
X71243Y359408D01*
X72755D01*
X70745Y356336D01*
D02*
G37*
%LPC*%
G36*
X91836Y86994D02*
X91200D01*
Y83812D01*
X92055D01*
X92143Y83819D01*
X92231D01*
X92333Y83834D01*
X92421Y83841D01*
X92494Y83856D01*
X92502D01*
X92538Y83870D01*
X92582Y83885D01*
X92633Y83900D01*
X92765Y83966D01*
X92831Y84002D01*
X92889Y84053D01*
X92897Y84061D01*
X92919Y84083D01*
X92941Y84112D01*
X92977Y84163D01*
X93021Y84229D01*
X93058Y84309D01*
X93102Y84404D01*
X93138Y84514D01*
Y84522D01*
X93145Y84529D01*
Y84551D01*
X93153Y84573D01*
X93167Y84646D01*
X93189Y84748D01*
X93211Y84873D01*
X93226Y85026D01*
X93233Y85202D01*
X93240Y85399D01*
Y85407D01*
Y85421D01*
Y85451D01*
Y85494D01*
Y85538D01*
X93233Y85590D01*
X93226Y85714D01*
X93219Y85853D01*
X93197Y85992D01*
X93175Y86131D01*
X93138Y86248D01*
X93131Y86263D01*
X93124Y86299D01*
X93102Y86350D01*
X93072Y86416D01*
X93028Y86497D01*
X92985Y86570D01*
X92933Y86650D01*
X92867Y86716D01*
X92860Y86723D01*
X92838Y86745D01*
X92794Y86775D01*
X92743Y86811D01*
X92684Y86848D01*
X92604Y86884D01*
X92516Y86914D01*
X92421Y86943D01*
X92414D01*
X92377Y86950D01*
X92326Y86958D01*
X92246Y86972D01*
X92194D01*
X92136Y86980D01*
X92077D01*
X92004Y86987D01*
X91924D01*
X91836Y86994D01*
D02*
G37*
G36*
X71836Y186994D02*
X71200D01*
Y183812D01*
X72056D01*
X72143Y183819D01*
X72231D01*
X72333Y183834D01*
X72421Y183841D01*
X72494Y183856D01*
X72502D01*
X72538Y183871D01*
X72582Y183885D01*
X72633Y183900D01*
X72765Y183966D01*
X72831Y184002D01*
X72889Y184053D01*
X72897Y184061D01*
X72919Y184083D01*
X72941Y184112D01*
X72977Y184163D01*
X73021Y184229D01*
X73058Y184309D01*
X73102Y184405D01*
X73138Y184514D01*
Y184522D01*
X73145Y184529D01*
Y184551D01*
X73153Y184573D01*
X73167Y184646D01*
X73189Y184748D01*
X73211Y184873D01*
X73226Y185026D01*
X73233Y185202D01*
X73240Y185399D01*
Y185407D01*
Y185421D01*
Y185451D01*
Y185494D01*
Y185538D01*
X73233Y185590D01*
X73226Y185714D01*
X73219Y185853D01*
X73197Y185992D01*
X73175Y186131D01*
X73138Y186248D01*
X73131Y186263D01*
X73123Y186299D01*
X73102Y186350D01*
X73072Y186416D01*
X73028Y186497D01*
X72984Y186570D01*
X72933Y186650D01*
X72867Y186716D01*
X72860Y186723D01*
X72838Y186745D01*
X72794Y186775D01*
X72743Y186811D01*
X72685Y186848D01*
X72604Y186884D01*
X72516Y186914D01*
X72421Y186943D01*
X72414D01*
X72377Y186950D01*
X72326Y186957D01*
X72246Y186972D01*
X72194D01*
X72136Y186980D01*
X72077D01*
X72004Y186987D01*
X71924D01*
X71836Y186994D01*
D02*
G37*
G36*
X67732Y233060D02*
X67674D01*
X67630Y233053D01*
X67579Y233045D01*
X67520Y233038D01*
X67388Y233009D01*
X67235Y232957D01*
X67154Y232928D01*
X67074Y232884D01*
X66993Y232833D01*
X66913Y232782D01*
X66840Y232716D01*
X66767Y232643D01*
X66759Y232636D01*
X66752Y232621D01*
X66737Y232599D01*
X66708Y232570D01*
X66686Y232526D01*
X66657Y232467D01*
X66620Y232409D01*
X66591Y232336D01*
X66554Y232255D01*
X66525Y232160D01*
X66489Y232058D01*
X66467Y231948D01*
X66445Y231824D01*
X66423Y231692D01*
X66415Y231553D01*
X66408Y231399D01*
Y231392D01*
Y231363D01*
Y231319D01*
X66415Y231268D01*
X66423Y231195D01*
X66430Y231121D01*
X66437Y231034D01*
X66452Y230938D01*
X66496Y230734D01*
X66569Y230529D01*
X66606Y230427D01*
X66657Y230331D01*
X66715Y230236D01*
X66781Y230156D01*
X66789Y230149D01*
X66796Y230141D01*
X66818Y230119D01*
X66847Y230090D01*
X66884Y230061D01*
X66927Y230024D01*
X67037Y229951D01*
X67176Y229870D01*
X67337Y229805D01*
X67432Y229775D01*
X67527Y229753D01*
X67630Y229746D01*
X67732Y229739D01*
X67791D01*
X67827Y229746D01*
X67878Y229753D01*
X67937Y229761D01*
X68069Y229790D01*
X68215Y229841D01*
X68295Y229878D01*
X68376Y229914D01*
X68456Y229966D01*
X68537Y230017D01*
X68610Y230083D01*
X68683Y230156D01*
X68691Y230163D01*
X68698Y230178D01*
X68720Y230200D01*
X68742Y230236D01*
X68771Y230280D01*
X68800Y230331D01*
X68837Y230397D01*
X68873Y230470D01*
X68903Y230551D01*
X68939Y230646D01*
X68968Y230748D01*
X68998Y230865D01*
X69020Y230982D01*
X69042Y231121D01*
X69049Y231260D01*
X69056Y231414D01*
Y231421D01*
Y231451D01*
Y231495D01*
X69049Y231553D01*
Y231619D01*
X69034Y231699D01*
X69027Y231787D01*
X69012Y231882D01*
X68968Y232080D01*
X68903Y232285D01*
X68859Y232387D01*
X68815Y232482D01*
X68756Y232570D01*
X68691Y232650D01*
X68683Y232658D01*
X68676Y232665D01*
X68654Y232687D01*
X68625Y232716D01*
X68588Y232745D01*
X68544Y232782D01*
X68493Y232819D01*
X68434Y232855D01*
X68303Y232928D01*
X68134Y232994D01*
X67944Y233045D01*
X67842Y233053D01*
X67732Y233060D01*
D02*
G37*
G36*
X90697Y284994D02*
X89973D01*
Y283626D01*
X90639D01*
X90690Y283633D01*
X90807D01*
X90939Y283641D01*
X91063Y283655D01*
X91173Y283677D01*
X91224Y283685D01*
X91260Y283699D01*
X91268Y283707D01*
X91290Y283714D01*
X91326Y283729D01*
X91370Y283758D01*
X91421Y283787D01*
X91473Y283831D01*
X91524Y283875D01*
X91568Y283933D01*
X91575Y283941D01*
X91582Y283963D01*
X91604Y283999D01*
X91626Y284043D01*
X91641Y284094D01*
X91663Y284160D01*
X91670Y284233D01*
X91677Y284307D01*
Y284321D01*
Y284350D01*
X91670Y284402D01*
X91655Y284460D01*
X91641Y284526D01*
X91611Y284599D01*
X91575Y284672D01*
X91524Y284738D01*
X91516Y284745D01*
X91495Y284767D01*
X91465Y284797D01*
X91414Y284833D01*
X91363Y284870D01*
X91290Y284906D01*
X91216Y284936D01*
X91129Y284958D01*
X91121D01*
X91092Y284965D01*
X91048Y284972D01*
X90982Y284979D01*
X90887D01*
X90763Y284987D01*
X90697Y284994D01*
D02*
G37*
G36*
X95042Y283802D02*
X95028D01*
X94984Y283794D01*
X94918Y283787D01*
X94830Y283765D01*
X94735Y283736D01*
X94640Y283685D01*
X94538Y283619D01*
X94443Y283524D01*
X94435Y283509D01*
X94406Y283472D01*
X94369Y283407D01*
X94326Y283319D01*
X94274Y283209D01*
X94238Y283070D01*
X94208Y282917D01*
X94201Y282734D01*
Y282726D01*
Y282712D01*
Y282682D01*
X94208Y282646D01*
Y282602D01*
X94216Y282558D01*
X94230Y282441D01*
X94260Y282309D01*
X94304Y282178D01*
X94362Y282053D01*
X94443Y281936D01*
X94457Y281922D01*
X94486Y281893D01*
X94538Y281849D01*
X94611Y281805D01*
X94698Y281754D01*
X94801Y281710D01*
X94911Y281680D01*
X95042Y281666D01*
X95057D01*
X95101Y281673D01*
X95167Y281680D01*
X95254Y281702D01*
X95350Y281731D01*
X95445Y281783D01*
X95547Y281849D01*
X95642Y281936D01*
X95649Y281951D01*
X95679Y281987D01*
X95723Y282053D01*
X95767Y282141D01*
X95810Y282251D01*
X95854Y282390D01*
X95884Y282551D01*
X95891Y282734D01*
Y282741D01*
Y282756D01*
Y282785D01*
Y282822D01*
X95884Y282858D01*
X95876Y282909D01*
X95862Y283026D01*
X95832Y283151D01*
X95788Y283282D01*
X95723Y283407D01*
X95642Y283524D01*
X95635Y283538D01*
X95598Y283568D01*
X95547Y283612D01*
X95474Y283663D01*
X95393Y283714D01*
X95291Y283758D01*
X95174Y283787D01*
X95042Y283802D01*
D02*
G37*
G36*
X91697Y309994D02*
X90973D01*
Y308626D01*
X91639D01*
X91690Y308633D01*
X91807D01*
X91938Y308641D01*
X92063Y308655D01*
X92173Y308677D01*
X92224Y308685D01*
X92260Y308699D01*
X92268Y308707D01*
X92290Y308714D01*
X92326Y308729D01*
X92370Y308758D01*
X92421Y308787D01*
X92472Y308831D01*
X92524Y308875D01*
X92568Y308933D01*
X92575Y308941D01*
X92582Y308963D01*
X92604Y308999D01*
X92626Y309043D01*
X92641Y309094D01*
X92663Y309160D01*
X92670Y309233D01*
X92677Y309307D01*
Y309321D01*
Y309350D01*
X92670Y309402D01*
X92655Y309460D01*
X92641Y309526D01*
X92612Y309599D01*
X92575Y309672D01*
X92524Y309738D01*
X92516Y309745D01*
X92494Y309767D01*
X92465Y309797D01*
X92414Y309833D01*
X92363Y309870D01*
X92290Y309906D01*
X92217Y309936D01*
X92129Y309958D01*
X92121D01*
X92092Y309965D01*
X92048Y309972D01*
X91982Y309979D01*
X91887D01*
X91763Y309987D01*
X91697Y309994D01*
D02*
G37*
G36*
X96042Y308802D02*
X96028D01*
X95984Y308794D01*
X95918Y308787D01*
X95830Y308765D01*
X95735Y308736D01*
X95640Y308685D01*
X95538Y308619D01*
X95442Y308524D01*
X95435Y308509D01*
X95406Y308472D01*
X95369Y308407D01*
X95325Y308319D01*
X95274Y308209D01*
X95238Y308070D01*
X95208Y307917D01*
X95201Y307734D01*
Y307726D01*
Y307712D01*
Y307682D01*
X95208Y307646D01*
Y307602D01*
X95216Y307558D01*
X95230Y307441D01*
X95260Y307309D01*
X95303Y307178D01*
X95362Y307053D01*
X95442Y306936D01*
X95457Y306922D01*
X95486Y306893D01*
X95538Y306849D01*
X95611Y306805D01*
X95698Y306754D01*
X95801Y306710D01*
X95911Y306680D01*
X96042Y306666D01*
X96057D01*
X96101Y306673D01*
X96167Y306680D01*
X96255Y306702D01*
X96350Y306731D01*
X96445Y306783D01*
X96547Y306849D01*
X96642Y306936D01*
X96650Y306951D01*
X96679Y306987D01*
X96723Y307053D01*
X96767Y307141D01*
X96810Y307251D01*
X96854Y307390D01*
X96884Y307551D01*
X96891Y307734D01*
Y307741D01*
Y307756D01*
Y307785D01*
Y307822D01*
X96884Y307858D01*
X96876Y307909D01*
X96862Y308026D01*
X96832Y308151D01*
X96789Y308282D01*
X96723Y308407D01*
X96642Y308524D01*
X96635Y308538D01*
X96598Y308568D01*
X96547Y308612D01*
X96474Y308663D01*
X96393Y308714D01*
X96291Y308758D01*
X96174Y308787D01*
X96042Y308802D01*
D02*
G37*
G36*
X78658Y308831D02*
X78643D01*
X78600Y308824D01*
X78541Y308816D01*
X78461Y308802D01*
X78373Y308765D01*
X78285Y308721D01*
X78190Y308655D01*
X78102Y308568D01*
X78095Y308553D01*
X78066Y308516D01*
X78036Y308458D01*
X77993Y308370D01*
X77956Y308260D01*
X77919Y308129D01*
X77890Y307975D01*
X77883Y307792D01*
Y307785D01*
Y307763D01*
Y307734D01*
X77890Y307697D01*
Y307646D01*
X77897Y307587D01*
X77912Y307463D01*
X77941Y307317D01*
X77978Y307178D01*
X78036Y307039D01*
X78073Y306980D01*
X78109Y306922D01*
X78117Y306907D01*
X78153Y306878D01*
X78205Y306834D01*
X78270Y306783D01*
X78351Y306731D01*
X78446Y306688D01*
X78556Y306658D01*
X78680Y306644D01*
X78695D01*
X78731Y306651D01*
X78790Y306658D01*
X78863Y306673D01*
X78951Y306710D01*
X79039Y306754D01*
X79126Y306812D01*
X79207Y306900D01*
X79214Y306914D01*
X79243Y306951D01*
X79280Y307010D01*
X79317Y307105D01*
X79360Y307222D01*
X79375Y307288D01*
X79390Y307368D01*
X79404Y307448D01*
X79419Y307544D01*
X79426Y307639D01*
Y307748D01*
Y307756D01*
Y307770D01*
Y307799D01*
Y307836D01*
X79419Y307887D01*
X79412Y307938D01*
X79397Y308056D01*
X79375Y308187D01*
X79331Y308326D01*
X79280Y308451D01*
X79207Y308560D01*
X79200Y308575D01*
X79170Y308604D01*
X79119Y308648D01*
X79053Y308699D01*
X78980Y308743D01*
X78885Y308787D01*
X78775Y308816D01*
X78658Y308831D01*
D02*
G37*
G36*
X69229Y307668D02*
X69222D01*
X69192Y307653D01*
X69148Y307646D01*
X69090Y307624D01*
X69009Y307602D01*
X68914Y307580D01*
X68797Y307551D01*
X68666Y307522D01*
X68651D01*
X68607Y307507D01*
X68541Y307492D01*
X68461Y307470D01*
X68380Y307448D01*
X68292Y307419D01*
X68227Y307390D01*
X68168Y307361D01*
X68161Y307353D01*
X68139Y307339D01*
X68110Y307309D01*
X68080Y307273D01*
X68051Y307229D01*
X68022Y307170D01*
X68000Y307112D01*
X67993Y307039D01*
Y307031D01*
Y307010D01*
X68000Y306966D01*
X68007Y306922D01*
X68029Y306870D01*
X68051Y306812D01*
X68088Y306754D01*
X68132Y306702D01*
X68139Y306695D01*
X68161Y306680D01*
X68190Y306658D01*
X68234Y306636D01*
X68285Y306607D01*
X68351Y306585D01*
X68417Y306571D01*
X68497Y306563D01*
X68541D01*
X68585Y306571D01*
X68651Y306585D01*
X68724Y306600D01*
X68805Y306629D01*
X68885Y306673D01*
X68973Y306724D01*
X68980Y306731D01*
X69002Y306746D01*
X69024Y306775D01*
X69061Y306812D01*
X69097Y306856D01*
X69134Y306907D01*
X69163Y306966D01*
X69192Y307031D01*
Y307039D01*
X69200Y307053D01*
X69207Y307083D01*
X69214Y307134D01*
Y307192D01*
X69222Y307273D01*
X69229Y307361D01*
Y307478D01*
Y307668D01*
D02*
G37*
G36*
X64086Y309994D02*
X63450D01*
Y306812D01*
X64306D01*
X64394Y306819D01*
X64481D01*
X64584Y306834D01*
X64672Y306841D01*
X64745Y306856D01*
X64752D01*
X64788Y306870D01*
X64832Y306885D01*
X64884Y306900D01*
X65015Y306966D01*
X65081Y307002D01*
X65140Y307053D01*
X65147Y307061D01*
X65169Y307083D01*
X65191Y307112D01*
X65227Y307163D01*
X65271Y307229D01*
X65308Y307309D01*
X65352Y307404D01*
X65388Y307514D01*
Y307522D01*
X65396Y307529D01*
Y307551D01*
X65403Y307573D01*
X65418Y307646D01*
X65440Y307748D01*
X65462Y307873D01*
X65476Y308026D01*
X65483Y308202D01*
X65491Y308399D01*
Y308407D01*
Y308421D01*
Y308451D01*
Y308494D01*
Y308538D01*
X65483Y308590D01*
X65476Y308714D01*
X65469Y308853D01*
X65447Y308992D01*
X65425Y309131D01*
X65388Y309248D01*
X65381Y309263D01*
X65374Y309299D01*
X65352Y309350D01*
X65322Y309416D01*
X65279Y309497D01*
X65235Y309570D01*
X65184Y309650D01*
X65118Y309716D01*
X65110Y309723D01*
X65088Y309745D01*
X65044Y309775D01*
X64993Y309811D01*
X64935Y309848D01*
X64854Y309884D01*
X64767Y309914D01*
X64672Y309943D01*
X64664D01*
X64628Y309950D01*
X64576Y309958D01*
X64496Y309972D01*
X64445D01*
X64386Y309979D01*
X64328D01*
X64254Y309987D01*
X64174D01*
X64086Y309994D01*
D02*
G37*
G36*
X59697D02*
X58973D01*
Y308626D01*
X59639D01*
X59690Y308633D01*
X59807D01*
X59939Y308641D01*
X60063Y308655D01*
X60173Y308677D01*
X60224Y308685D01*
X60260Y308699D01*
X60268Y308707D01*
X60290Y308714D01*
X60326Y308729D01*
X60370Y308758D01*
X60421Y308787D01*
X60472Y308831D01*
X60524Y308875D01*
X60568Y308933D01*
X60575Y308941D01*
X60582Y308963D01*
X60604Y308999D01*
X60626Y309043D01*
X60641Y309094D01*
X60663Y309160D01*
X60670Y309233D01*
X60677Y309307D01*
Y309321D01*
Y309350D01*
X60670Y309402D01*
X60655Y309460D01*
X60641Y309526D01*
X60612Y309599D01*
X60575Y309672D01*
X60524Y309738D01*
X60516Y309745D01*
X60494Y309767D01*
X60465Y309797D01*
X60414Y309833D01*
X60363Y309870D01*
X60290Y309906D01*
X60216Y309936D01*
X60129Y309958D01*
X60121D01*
X60092Y309965D01*
X60048Y309972D01*
X59982Y309979D01*
X59887D01*
X59763Y309987D01*
X59697Y309994D01*
D02*
G37*
G36*
X99836Y334994D02*
X99200D01*
Y331812D01*
X100056D01*
X100143Y331819D01*
X100231D01*
X100333Y331834D01*
X100421Y331841D01*
X100494Y331856D01*
X100502D01*
X100538Y331870D01*
X100582Y331885D01*
X100633Y331900D01*
X100765Y331966D01*
X100831Y332002D01*
X100889Y332053D01*
X100897Y332061D01*
X100919Y332083D01*
X100941Y332112D01*
X100977Y332163D01*
X101021Y332229D01*
X101058Y332309D01*
X101102Y332405D01*
X101138Y332514D01*
Y332522D01*
X101145Y332529D01*
Y332551D01*
X101153Y332573D01*
X101167Y332646D01*
X101189Y332748D01*
X101211Y332873D01*
X101226Y333026D01*
X101233Y333202D01*
X101241Y333399D01*
Y333407D01*
Y333421D01*
Y333451D01*
Y333494D01*
Y333538D01*
X101233Y333590D01*
X101226Y333714D01*
X101219Y333853D01*
X101197Y333992D01*
X101175Y334131D01*
X101138Y334248D01*
X101131Y334263D01*
X101124Y334299D01*
X101102Y334350D01*
X101072Y334416D01*
X101028Y334497D01*
X100984Y334570D01*
X100933Y334650D01*
X100867Y334716D01*
X100860Y334723D01*
X100838Y334745D01*
X100794Y334775D01*
X100743Y334811D01*
X100685Y334848D01*
X100604Y334884D01*
X100516Y334914D01*
X100421Y334943D01*
X100414D01*
X100377Y334950D01*
X100326Y334958D01*
X100246Y334972D01*
X100194D01*
X100136Y334980D01*
X100077D01*
X100004Y334987D01*
X99924D01*
X99836Y334994D01*
D02*
G37*
G36*
X68836Y333994D02*
X68200D01*
Y330812D01*
X69055D01*
X69143Y330819D01*
X69231D01*
X69333Y330834D01*
X69421Y330841D01*
X69494Y330856D01*
X69502D01*
X69538Y330871D01*
X69582Y330885D01*
X69633Y330900D01*
X69765Y330966D01*
X69831Y331002D01*
X69889Y331053D01*
X69897Y331061D01*
X69919Y331083D01*
X69941Y331112D01*
X69977Y331163D01*
X70021Y331229D01*
X70058Y331309D01*
X70101Y331404D01*
X70138Y331514D01*
Y331522D01*
X70145Y331529D01*
Y331551D01*
X70153Y331573D01*
X70167Y331646D01*
X70189Y331748D01*
X70211Y331873D01*
X70226Y332026D01*
X70233Y332202D01*
X70241Y332399D01*
Y332407D01*
Y332421D01*
Y332451D01*
Y332495D01*
Y332538D01*
X70233Y332590D01*
X70226Y332714D01*
X70219Y332853D01*
X70197Y332992D01*
X70175Y333131D01*
X70138Y333248D01*
X70131Y333263D01*
X70124Y333299D01*
X70101Y333350D01*
X70072Y333416D01*
X70028Y333497D01*
X69984Y333570D01*
X69933Y333650D01*
X69867Y333716D01*
X69860Y333723D01*
X69838Y333745D01*
X69794Y333775D01*
X69743Y333811D01*
X69685Y333848D01*
X69604Y333884D01*
X69516Y333914D01*
X69421Y333943D01*
X69414D01*
X69377Y333950D01*
X69326Y333957D01*
X69246Y333972D01*
X69194D01*
X69136Y333979D01*
X69077D01*
X69004Y333987D01*
X68924D01*
X68836Y333994D01*
D02*
G37*
%LPD*%
D12*
X77000Y73000D02*
Y200000D01*
X97000Y73000D02*
Y200000D01*
X57000Y73000D02*
X97000D01*
X57000Y97000D02*
X96000D01*
X57000Y123000D02*
X96000D01*
X57000Y148000D02*
X96000D01*
X57000Y174000D02*
X96000D01*
X57000Y73000D02*
Y200000D01*
X97000D01*
X55000Y245000D02*
X107000D01*
X55000Y270000D02*
X107000D01*
X55000Y296000D02*
X108000D01*
X55000Y321000D02*
X108000D01*
X55000Y346000D02*
X108000D01*
X82500Y218000D02*
X83000Y366000D01*
X55000Y218000D02*
Y366000D01*
X108385D01*
X107385Y218000D02*
X108385Y366000D01*
X55000Y218000D02*
X107385D01*
M02*
