G04*
G04 #@! TF.GenerationSoftware,Altium Limited,Altium Designer,19.1.7 (138)*
G04*
G04 Layer_Physical_Order=3*
G04 Layer_Color=16440176*
%FSLAX44Y44*%
%MOMM*%
G71*
G01*
G75*
%ADD93C,0.3000*%
%ADD96C,1.4250*%
%ADD101C,0.3500*%
G36*
X566392Y433012D02*
X569075Y431900D01*
X571489Y430287D01*
X572516Y429260D01*
X573663Y428112D01*
X575467Y425414D01*
X576709Y422415D01*
X577342Y419232D01*
X577342Y417609D01*
X577342D01*
X577342Y417609D01*
Y347218D01*
X537972D01*
X530352Y341122D01*
X530305Y339061D01*
X530180Y338926D01*
X529974Y338374D01*
X529744Y337831D01*
X529571Y311621D01*
X529637Y311460D01*
X529604Y311289D01*
X529674Y311184D01*
X528828Y273812D01*
X528066Y217424D01*
X509778Y217170D01*
X509994Y210898D01*
X508737Y210493D01*
X508311Y211131D01*
X507236Y211849D01*
X505968Y212102D01*
X504700Y211849D01*
X503625Y211131D01*
X502907Y210056D01*
X502887Y209959D01*
X498348Y210058D01*
X417576Y209550D01*
X416560Y210566D01*
X405892D01*
Y176350D01*
X404622Y176052D01*
X404093Y176843D01*
X403018Y177561D01*
X401750Y177814D01*
X400482Y177561D01*
X399407Y176843D01*
X398689Y175768D01*
X398436Y174500D01*
X398689Y173232D01*
X399407Y172157D01*
X400482Y171439D01*
X401750Y171186D01*
X403018Y171439D01*
X404093Y172157D01*
X404622Y172948D01*
X405892Y172650D01*
Y83312D01*
X405762Y83023D01*
X247279Y82553D01*
X246380Y83449D01*
Y99060D01*
X245114Y100367D01*
X245750Y101535D01*
X245936Y101498D01*
X247204Y101751D01*
X248279Y102469D01*
X248997Y103544D01*
X249250Y104812D01*
X248997Y106080D01*
X248279Y107155D01*
X247204Y107873D01*
X245936Y108126D01*
X244668Y107873D01*
X243593Y107155D01*
X242875Y106080D01*
X242622Y104812D01*
X242635Y104750D01*
X241462Y104135D01*
X217256Y129116D01*
X214677Y129112D01*
X214630Y129132D01*
X214623Y129129D01*
X214616Y129131D01*
X211934Y129108D01*
X183904Y129070D01*
X183205Y130339D01*
X183400Y131318D01*
X183147Y132586D01*
X182743Y133192D01*
X183156Y134501D01*
X183226Y134581D01*
X183768Y134689D01*
X184843Y135407D01*
X185561Y136482D01*
X185814Y137750D01*
X185561Y139018D01*
X184843Y140093D01*
X183768Y140811D01*
X182500Y141064D01*
X181232Y140811D01*
X180157Y140093D01*
X179439Y139018D01*
X179186Y137750D01*
X179439Y136482D01*
X179843Y135876D01*
X179430Y134567D01*
X179360Y134487D01*
X178818Y134379D01*
X177743Y133661D01*
X177025Y132586D01*
X176772Y131318D01*
X176969Y130330D01*
X176275Y129059D01*
X156464Y129032D01*
X152590Y132906D01*
Y146494D01*
X156210Y150114D01*
X162642D01*
X163028Y148844D01*
X162805Y148695D01*
X162087Y147620D01*
X161834Y146352D01*
X162087Y145084D01*
X162805Y144009D01*
X163880Y143291D01*
X165148Y143038D01*
X166416Y143291D01*
X167491Y144009D01*
X168209Y145084D01*
X168462Y146352D01*
X168209Y147620D01*
X167491Y148695D01*
X167268Y148844D01*
X167654Y150114D01*
X168656D01*
X171238Y152696D01*
X172568Y152230D01*
X173171Y151327D01*
X174246Y150609D01*
X175514Y150356D01*
X176782Y150609D01*
X177857Y151327D01*
X178575Y152402D01*
X178828Y153670D01*
X178575Y154938D01*
X177969Y155845D01*
X178161Y156539D01*
X178494Y157115D01*
X178562D01*
X178564Y182116D01*
X166878Y193802D01*
X166624D01*
X151638Y208788D01*
X136398Y222758D01*
X100403Y222056D01*
X100311Y222518D01*
X99593Y223593D01*
X98518Y224311D01*
X97250Y224564D01*
X95982Y224311D01*
X94907Y223593D01*
X94189Y222518D01*
X94072Y221932D01*
X84328Y221742D01*
X65786Y239776D01*
X66548Y272034D01*
X85344Y290068D01*
X214630Y289306D01*
X219964Y290068D01*
X219639Y310404D01*
X220894Y311383D01*
X221298Y311302D01*
X222566Y311555D01*
X223641Y312273D01*
X224359Y313348D01*
X224612Y314616D01*
X224359Y315884D01*
X223641Y316959D01*
X222566Y317677D01*
X221298Y317930D01*
X220791Y317829D01*
X219506Y318739D01*
X219114Y343328D01*
X219787Y344336D01*
X220040Y345604D01*
X219787Y346872D01*
X219069Y347947D01*
X219040Y347966D01*
X218413Y387253D01*
X218516Y387768D01*
X218395Y388373D01*
X217694Y432308D01*
X218847Y433578D01*
X562091Y433578D01*
X563543Y433578D01*
X566392Y433012D01*
D02*
G37*
G36*
X214376Y431038D02*
X214867Y391015D01*
X213934Y390829D01*
X212859Y390111D01*
X212141Y389036D01*
X211888Y387768D01*
X212141Y386500D01*
X212859Y385425D01*
X213934Y384707D01*
X214947Y384505D01*
X215387Y348618D01*
X214383Y347947D01*
X213665Y346872D01*
X213412Y345604D01*
X213665Y344336D01*
X214383Y343261D01*
X215458Y342543D01*
X215462Y342542D01*
X216050Y294567D01*
X215158Y293663D01*
X95021D01*
X94636Y294933D01*
X95117Y295255D01*
X95835Y296330D01*
X96088Y297598D01*
X95835Y298866D01*
X95117Y299941D01*
X94042Y300659D01*
X92774Y300912D01*
X91506Y300659D01*
X90431Y299941D01*
X89713Y298866D01*
X89460Y297598D01*
X89713Y296330D01*
X90431Y295255D01*
X90912Y294933D01*
X90527Y293663D01*
X85129D01*
X64008Y272542D01*
Y236220D01*
X82550Y217678D01*
X136144D01*
X163576Y190246D01*
Y189992D01*
X173990Y179578D01*
Y160020D01*
X161209Y152573D01*
X153100D01*
X153061Y152768D01*
X152343Y153843D01*
X151268Y154561D01*
X150000Y154814D01*
X148732Y154561D01*
X147657Y153843D01*
X146939Y152768D01*
X146686Y151500D01*
X146939Y150232D01*
X147049Y150066D01*
X146050Y149067D01*
Y132450D01*
X148452Y130048D01*
X148844D01*
X153924Y124968D01*
X155956Y127000D01*
X214630Y127508D01*
X242824Y99314D01*
Y80518D01*
X504698D01*
X510667Y86487D01*
Y132828D01*
X511713Y133525D01*
X511937Y133566D01*
X513080Y133338D01*
X514348Y133591D01*
X515423Y134309D01*
X516141Y135384D01*
X516394Y136652D01*
X516141Y137920D01*
X515423Y138995D01*
X514348Y139713D01*
X513080Y139966D01*
X511937Y139738D01*
X511713Y139780D01*
X510667Y140476D01*
Y143810D01*
X510807Y144020D01*
X511060Y145288D01*
X510807Y146556D01*
X510667Y146766D01*
Y183197D01*
X507937Y185928D01*
X505206D01*
X503682Y187452D01*
Y204879D01*
X504075Y205206D01*
X504952Y205676D01*
X505968Y205474D01*
X507236Y205727D01*
X508311Y206445D01*
X508858Y207264D01*
X512826D01*
Y214630D01*
X513334Y215138D01*
X530860D01*
Y260858D01*
X531142Y303613D01*
X532418Y304425D01*
X533146Y304280D01*
X534414Y304533D01*
X535489Y305251D01*
X536207Y306326D01*
X536460Y307594D01*
X536207Y308862D01*
X535489Y309937D01*
X534414Y310655D01*
X533146Y310908D01*
X532459Y310771D01*
X531195Y311610D01*
X531368Y337820D01*
X538226Y345186D01*
X577088D01*
X577342Y18034D01*
X577342Y14848D01*
X577342Y13310D01*
X576742Y10294D01*
X575565Y7454D01*
X573857Y4897D01*
X572770Y3810D01*
Y3810D01*
X572770Y3810D01*
X572770D01*
X571872Y2912D01*
X570604Y1644D01*
X568093Y-33D01*
X565303Y-1189D01*
X562342Y-1778D01*
X560832Y-1778D01*
X14445D01*
X12822Y-1778D01*
X9639Y-1145D01*
X6640Y97D01*
X3941Y1900D01*
X1707Y4135D01*
X-2Y6692D01*
X-1178Y9532D01*
X-1778Y12548D01*
X-1778Y14086D01*
Y417565D01*
X-1778Y419138D01*
X-1164Y422223D01*
X39Y425129D01*
X1787Y427745D01*
X4567Y430525D01*
X5293Y431251D01*
X7000Y432392D01*
X8897Y433177D01*
X10911Y433578D01*
X11938Y433578D01*
X11938Y433578D01*
X214376Y433578D01*
Y431038D01*
D02*
G37*
G36*
X502412Y205733D02*
X502322Y205517D01*
X502065Y205027D01*
X502089Y204952D01*
X502058Y204879D01*
Y192752D01*
X500788Y192627D01*
X500561Y193768D01*
X499843Y194843D01*
X498768Y195561D01*
X497500Y195814D01*
X496232Y195561D01*
X495157Y194843D01*
X494439Y193768D01*
X494186Y192500D01*
X494439Y191232D01*
X495157Y190157D01*
X496232Y189439D01*
X497500Y189186D01*
X498768Y189439D01*
X499843Y190157D01*
X500561Y191232D01*
X500788Y192373D01*
X502058Y192248D01*
Y187452D01*
X502412Y186598D01*
Y184477D01*
X501939Y183768D01*
X501686Y182500D01*
X501939Y181232D01*
X502657Y180157D01*
X503732Y179439D01*
X505000Y179186D01*
X506268Y179439D01*
X506437Y179552D01*
X507492Y178497D01*
Y140083D01*
X506730Y139458D01*
X505462Y139205D01*
X504387Y138487D01*
X503669Y137412D01*
X503416Y136144D01*
X503669Y134876D01*
X504387Y133801D01*
X505462Y133083D01*
X506730Y132830D01*
X507492Y132205D01*
Y93472D01*
X496824Y82804D01*
X410718D01*
X407670Y85598D01*
Y148776D01*
X408940Y149695D01*
X409448Y149594D01*
X410716Y149847D01*
X411791Y150565D01*
X412509Y151640D01*
X412762Y152908D01*
X412509Y154176D01*
X411791Y155251D01*
X410716Y155969D01*
X409448Y156222D01*
X408940Y156121D01*
X407670Y157040D01*
Y207264D01*
X408178Y207772D01*
X473916D01*
X474595Y206502D01*
X474439Y206268D01*
X474186Y205000D01*
X474439Y203732D01*
X475157Y202657D01*
X476232Y201939D01*
X477500Y201686D01*
X478768Y201939D01*
X479843Y202657D01*
X480561Y203732D01*
X480814Y205000D01*
X480561Y206268D01*
X480405Y206502D01*
X481084Y207772D01*
X502412D01*
Y205733D01*
D02*
G37*
%LPC*%
G36*
X444564Y427658D02*
X443296Y427405D01*
X442221Y426687D01*
X441503Y425612D01*
X441250Y424344D01*
X441503Y423076D01*
X442221Y422001D01*
X443296Y421283D01*
X444564Y421030D01*
X445832Y421283D01*
X446907Y422001D01*
X447625Y423076D01*
X447878Y424344D01*
X447625Y425612D01*
X446907Y426687D01*
X445832Y427405D01*
X444564Y427658D01*
D02*
G37*
G36*
X503746Y426896D02*
X502478Y426643D01*
X501403Y425925D01*
X500685Y424850D01*
X500432Y423582D01*
X500685Y422314D01*
X501403Y421239D01*
X502478Y420521D01*
X503746Y420268D01*
X505014Y420521D01*
X506089Y421239D01*
X506807Y422314D01*
X507060Y423582D01*
X506807Y424850D01*
X506089Y425925D01*
X505014Y426643D01*
X503746Y426896D01*
D02*
G37*
G36*
X300546Y426134D02*
X299278Y425881D01*
X298203Y425163D01*
X297485Y424088D01*
X297232Y422820D01*
X297485Y421552D01*
X298203Y420477D01*
X299278Y419759D01*
X300546Y419506D01*
X301814Y419759D01*
X302889Y420477D01*
X303607Y421552D01*
X303860Y422820D01*
X303607Y424088D01*
X302889Y425163D01*
X301814Y425881D01*
X300546Y426134D01*
D02*
G37*
G36*
X356172Y425372D02*
X354904Y425119D01*
X353829Y424401D01*
X353111Y423326D01*
X352858Y422058D01*
X353111Y420790D01*
X353829Y419715D01*
X354904Y418997D01*
X356172Y418744D01*
X357440Y418997D01*
X358515Y419715D01*
X359233Y420790D01*
X359486Y422058D01*
X359233Y423326D01*
X358515Y424401D01*
X357440Y425119D01*
X356172Y425372D01*
D02*
G37*
G36*
X246190Y424356D02*
X244922Y424103D01*
X243847Y423385D01*
X243129Y422310D01*
X242876Y421042D01*
X243129Y419774D01*
X243847Y418699D01*
X244922Y417981D01*
X246190Y417728D01*
X247458Y417981D01*
X248533Y418699D01*
X249251Y419774D01*
X249504Y421042D01*
X249251Y422310D01*
X248533Y423385D01*
X247458Y424103D01*
X246190Y424356D01*
D02*
G37*
G36*
X560134Y424102D02*
X558866Y423849D01*
X557791Y423131D01*
X557073Y422056D01*
X556820Y420788D01*
X557073Y419520D01*
X557791Y418445D01*
X558866Y417727D01*
X560134Y417474D01*
X561402Y417727D01*
X562477Y418445D01*
X563195Y419520D01*
X563448Y420788D01*
X563195Y422056D01*
X562477Y423131D01*
X561402Y423849D01*
X560134Y424102D01*
D02*
G37*
G36*
X399098Y410132D02*
X397830Y409879D01*
X396755Y409161D01*
X396037Y408086D01*
X395784Y406818D01*
X396037Y405550D01*
X396755Y404475D01*
X397830Y403757D01*
X399098Y403504D01*
X400366Y403757D01*
X401441Y404475D01*
X402159Y405550D01*
X402412Y406818D01*
X402159Y408086D01*
X401441Y409161D01*
X400366Y409879D01*
X399098Y410132D01*
D02*
G37*
G36*
X349504Y407428D02*
X348236Y407175D01*
X347161Y406457D01*
X346443Y405382D01*
X346190Y404114D01*
X346443Y402846D01*
X347161Y401771D01*
X348236Y401053D01*
X349504Y400800D01*
X350772Y401053D01*
X351847Y401771D01*
X352565Y402846D01*
X352818Y404114D01*
X352565Y405382D01*
X351847Y406457D01*
X350772Y407175D01*
X349504Y407428D01*
D02*
G37*
G36*
X451866Y407174D02*
X450598Y406921D01*
X449523Y406203D01*
X448805Y405128D01*
X448552Y403860D01*
X448805Y402592D01*
X449523Y401517D01*
X450598Y400799D01*
X451866Y400546D01*
X453134Y400799D01*
X454209Y401517D01*
X454927Y402592D01*
X455180Y403860D01*
X454927Y405128D01*
X454209Y406203D01*
X453134Y406921D01*
X451866Y407174D01*
D02*
G37*
G36*
X267716Y406920D02*
X266448Y406667D01*
X265373Y405949D01*
X264655Y404874D01*
X264402Y403606D01*
X264655Y402338D01*
X265373Y401263D01*
X266448Y400545D01*
X267716Y400292D01*
X268984Y400545D01*
X270059Y401263D01*
X270777Y402338D01*
X271030Y403606D01*
X270777Y404874D01*
X270059Y405949D01*
X268984Y406667D01*
X267716Y406920D01*
D02*
G37*
G36*
X536258Y405560D02*
X534990Y405307D01*
X533915Y404589D01*
X533197Y403514D01*
X532944Y402246D01*
X533197Y400978D01*
X533915Y399903D01*
X534990Y399185D01*
X536258Y398932D01*
X537526Y399185D01*
X538601Y399903D01*
X539319Y400978D01*
X539572Y402246D01*
X539319Y403514D01*
X538601Y404589D01*
X537526Y405307D01*
X536258Y405560D01*
D02*
G37*
G36*
X486728Y401750D02*
X485460Y401497D01*
X484385Y400779D01*
X483667Y399704D01*
X483414Y398436D01*
X483667Y397168D01*
X484385Y396093D01*
X485460Y395375D01*
X486728Y395122D01*
X487996Y395375D01*
X489071Y396093D01*
X489789Y397168D01*
X490042Y398436D01*
X489789Y399704D01*
X489071Y400779D01*
X487996Y401497D01*
X486728Y401750D01*
D02*
G37*
G36*
X505968Y381012D02*
X504700Y380759D01*
X503625Y380041D01*
X502907Y378966D01*
X502654Y377698D01*
X502907Y376430D01*
X503625Y375355D01*
X504700Y374637D01*
X505968Y374384D01*
X507236Y374637D01*
X508311Y375355D01*
X509029Y376430D01*
X509282Y377698D01*
X509029Y378966D01*
X508311Y380041D01*
X507236Y380759D01*
X505968Y381012D01*
D02*
G37*
G36*
X256604Y379652D02*
X255336Y379399D01*
X254261Y378681D01*
X253543Y377606D01*
X253290Y376338D01*
X253543Y375070D01*
X254261Y373995D01*
X255336Y373277D01*
X256604Y373024D01*
X257872Y373277D01*
X258947Y373995D01*
X259665Y375070D01*
X259918Y376338D01*
X259665Y377606D01*
X258947Y378681D01*
X257872Y379399D01*
X256604Y379652D01*
D02*
G37*
G36*
X568516Y378636D02*
X567248Y378383D01*
X566173Y377665D01*
X565455Y376590D01*
X565202Y375322D01*
X565455Y374054D01*
X566173Y372979D01*
X567248Y372261D01*
X568516Y372008D01*
X569784Y372261D01*
X570859Y372979D01*
X571577Y374054D01*
X571830Y375322D01*
X571577Y376590D01*
X570859Y377665D01*
X569784Y378383D01*
X568516Y378636D01*
D02*
G37*
G36*
X372428Y369238D02*
X371160Y368985D01*
X370085Y368267D01*
X369367Y367192D01*
X369114Y365924D01*
X369367Y364656D01*
X370085Y363581D01*
X371160Y362863D01*
X372428Y362610D01*
X373696Y362863D01*
X374771Y363581D01*
X375489Y364656D01*
X375742Y365924D01*
X375489Y367192D01*
X374771Y368267D01*
X373696Y368985D01*
X372428Y369238D01*
D02*
G37*
G36*
X421196Y365428D02*
X419928Y365175D01*
X418853Y364457D01*
X418135Y363382D01*
X417882Y362114D01*
X418135Y360846D01*
X418853Y359771D01*
X419928Y359053D01*
X421196Y358800D01*
X422464Y359053D01*
X423539Y359771D01*
X424257Y360846D01*
X424510Y362114D01*
X424257Y363382D01*
X423539Y364457D01*
X422464Y365175D01*
X421196Y365428D01*
D02*
G37*
G36*
X240856Y363650D02*
X239588Y363397D01*
X238513Y362679D01*
X237795Y361604D01*
X237542Y360336D01*
X237795Y359068D01*
X238513Y357993D01*
X239588Y357275D01*
X240856Y357022D01*
X242124Y357275D01*
X243199Y357993D01*
X243917Y359068D01*
X244170Y360336D01*
X243917Y361604D01*
X243199Y362679D01*
X242124Y363397D01*
X240856Y363650D01*
D02*
G37*
G36*
X519684Y357898D02*
X518416Y357645D01*
X517341Y356927D01*
X516623Y355852D01*
X516370Y354584D01*
X516623Y353316D01*
X517341Y352241D01*
X518416Y351523D01*
X519684Y351270D01*
X520952Y351523D01*
X522027Y352241D01*
X522745Y353316D01*
X522998Y354584D01*
X522745Y355852D01*
X522027Y356927D01*
X520952Y357645D01*
X519684Y357898D01*
D02*
G37*
G36*
X485394Y357644D02*
X484126Y357391D01*
X483051Y356673D01*
X482333Y355598D01*
X482080Y354330D01*
X482333Y353062D01*
X483051Y351987D01*
X484126Y351269D01*
X485394Y351016D01*
X486662Y351269D01*
X487737Y351987D01*
X488455Y353062D01*
X488708Y354330D01*
X488455Y355598D01*
X487737Y356673D01*
X486662Y357391D01*
X485394Y357644D01*
D02*
G37*
G36*
X255588Y331138D02*
X254320Y330885D01*
X253245Y330167D01*
X252527Y329092D01*
X252274Y327824D01*
X252527Y326556D01*
X253245Y325481D01*
X254320Y324763D01*
X255588Y324510D01*
X256856Y324763D01*
X257931Y325481D01*
X258649Y326556D01*
X258902Y327824D01*
X258649Y329092D01*
X257931Y330167D01*
X256856Y330885D01*
X255588Y331138D01*
D02*
G37*
G36*
X476504Y327926D02*
X475236Y327673D01*
X474161Y326955D01*
X473443Y325880D01*
X473190Y324612D01*
X473443Y323344D01*
X474161Y322269D01*
X475236Y321551D01*
X476504Y321298D01*
X477772Y321551D01*
X478847Y322269D01*
X479565Y323344D01*
X479818Y324612D01*
X479565Y325880D01*
X478847Y326955D01*
X477772Y327673D01*
X476504Y327926D01*
D02*
G37*
G36*
X485902Y327418D02*
X484634Y327165D01*
X483559Y326447D01*
X482841Y325372D01*
X482588Y324104D01*
X482841Y322836D01*
X483559Y321761D01*
X484634Y321043D01*
X485902Y320790D01*
X487170Y321043D01*
X488245Y321761D01*
X488963Y322836D01*
X489216Y324104D01*
X488963Y325372D01*
X488245Y326447D01*
X487170Y327165D01*
X485902Y327418D01*
D02*
G37*
G36*
X298196D02*
X296928Y327165D01*
X295853Y326447D01*
X295135Y325372D01*
X294882Y324104D01*
X295135Y322836D01*
X295853Y321761D01*
X296928Y321043D01*
X298196Y320790D01*
X299464Y321043D01*
X300539Y321761D01*
X301257Y322836D01*
X301510Y324104D01*
X301257Y325372D01*
X300539Y326447D01*
X299464Y327165D01*
X298196Y327418D01*
D02*
G37*
G36*
X340360Y327164D02*
X339092Y326911D01*
X338017Y326193D01*
X337299Y325118D01*
X337046Y323850D01*
X337299Y322582D01*
X338017Y321507D01*
X339092Y320789D01*
X340360Y320536D01*
X341628Y320789D01*
X342703Y321507D01*
X343421Y322582D01*
X343674Y323850D01*
X343421Y325118D01*
X342703Y326193D01*
X341628Y326911D01*
X340360Y327164D01*
D02*
G37*
G36*
X318516Y326910D02*
X317248Y326657D01*
X316173Y325939D01*
X315455Y324864D01*
X315202Y323596D01*
X315455Y322328D01*
X316173Y321253D01*
X317248Y320535D01*
X318516Y320282D01*
X319784Y320535D01*
X320859Y321253D01*
X321577Y322328D01*
X321830Y323596D01*
X321577Y324864D01*
X320859Y325939D01*
X319784Y326657D01*
X318516Y326910D01*
D02*
G37*
G36*
X276352D02*
X275084Y326657D01*
X274009Y325939D01*
X273291Y324864D01*
X273038Y323596D01*
X273291Y322328D01*
X274009Y321253D01*
X275084Y320535D01*
X276352Y320282D01*
X277620Y320535D01*
X278695Y321253D01*
X279413Y322328D01*
X279666Y323596D01*
X279413Y324864D01*
X278695Y325939D01*
X277620Y326657D01*
X276352Y326910D01*
D02*
G37*
G36*
X523748Y322084D02*
X522480Y321831D01*
X521405Y321113D01*
X520687Y320038D01*
X520434Y318770D01*
X520687Y317502D01*
X521405Y316427D01*
X522480Y315709D01*
X523748Y315456D01*
X525016Y315709D01*
X526091Y316427D01*
X526809Y317502D01*
X527062Y318770D01*
X526809Y320038D01*
X526091Y321113D01*
X525016Y321831D01*
X523748Y322084D01*
D02*
G37*
G36*
X433324Y320814D02*
X432056Y320561D01*
X430981Y319843D01*
X430263Y318768D01*
X430010Y317500D01*
X430263Y316232D01*
X430981Y315157D01*
X432056Y314439D01*
X433324Y314186D01*
X434592Y314439D01*
X435667Y315157D01*
X436385Y316232D01*
X436638Y317500D01*
X436385Y318768D01*
X435667Y319843D01*
X434592Y320561D01*
X433324Y320814D01*
D02*
G37*
G36*
X455930Y320560D02*
X454662Y320307D01*
X453587Y319589D01*
X452869Y318514D01*
X452616Y317246D01*
X452869Y315978D01*
X453587Y314903D01*
X454662Y314185D01*
X455930Y313932D01*
X457198Y314185D01*
X458273Y314903D01*
X458991Y315978D01*
X459244Y317246D01*
X458991Y318514D01*
X458273Y319589D01*
X457198Y320307D01*
X455930Y320560D01*
D02*
G37*
G36*
X361506Y317168D02*
X360238Y316915D01*
X359163Y316197D01*
X358445Y315122D01*
X358192Y313854D01*
X358445Y312586D01*
X359163Y311511D01*
X360238Y310793D01*
X361506Y310540D01*
X362774Y310793D01*
X363849Y311511D01*
X364567Y312586D01*
X364820Y313854D01*
X364567Y315122D01*
X363849Y316197D01*
X362774Y316915D01*
X361506Y317168D01*
D02*
G37*
G36*
X401066Y309384D02*
X399798Y309131D01*
X398723Y308413D01*
X398005Y307338D01*
X397752Y306070D01*
X398005Y304802D01*
X398723Y303727D01*
X399798Y303009D01*
X401066Y302756D01*
X402334Y303009D01*
X403409Y303727D01*
X404127Y304802D01*
X404380Y306070D01*
X404127Y307338D01*
X403409Y308413D01*
X402334Y309131D01*
X401066Y309384D01*
D02*
G37*
G36*
X446443Y308457D02*
X445175Y308204D01*
X444100Y307486D01*
X443382Y306411D01*
X443129Y305143D01*
X443382Y303875D01*
X444100Y302800D01*
X445175Y302082D01*
X446443Y301829D01*
X447711Y302082D01*
X448786Y302800D01*
X449504Y303875D01*
X449757Y305143D01*
X449504Y306411D01*
X448786Y307486D01*
X447711Y308204D01*
X446443Y308457D01*
D02*
G37*
G36*
X458978Y310400D02*
X457710Y310147D01*
X456635Y309429D01*
X455917Y308354D01*
X455664Y307086D01*
X455917Y305818D01*
X456635Y304743D01*
X457710Y304025D01*
X458745Y303819D01*
X459982Y303530D01*
X460235Y302262D01*
X460953Y301187D01*
X462028Y300469D01*
X463296Y300216D01*
X464564Y300469D01*
X465501Y301095D01*
X465779Y300679D01*
X466854Y299961D01*
X468122Y299708D01*
X469390Y299961D01*
X470258Y300541D01*
X470395Y300484D01*
X471113Y299409D01*
X472188Y298691D01*
X473456Y298438D01*
X474724Y298691D01*
X475799Y299409D01*
X476517Y300484D01*
X476770Y301752D01*
X476517Y303020D01*
X475799Y304095D01*
X474724Y304813D01*
X473456Y305066D01*
X472188Y304813D01*
X471320Y304233D01*
X471183Y304290D01*
X470465Y305365D01*
X469390Y306083D01*
X468122Y306336D01*
X466854Y306083D01*
X465917Y305457D01*
X465639Y305873D01*
X464564Y306591D01*
X463529Y306797D01*
X463284Y306854D01*
X462128Y307906D01*
X462039Y308354D01*
X461321Y309429D01*
X460246Y310147D01*
X458978Y310400D01*
D02*
G37*
G36*
X292926Y302944D02*
X291658Y302691D01*
X290583Y301973D01*
X289865Y300898D01*
X289612Y299630D01*
X289865Y298362D01*
X290583Y297287D01*
X291658Y296569D01*
X292926Y296316D01*
X294194Y296569D01*
X295269Y297287D01*
X295987Y298362D01*
X296240Y299630D01*
X295987Y300898D01*
X295269Y301973D01*
X294194Y302691D01*
X292926Y302944D01*
D02*
G37*
G36*
X490474Y300240D02*
X489206Y299987D01*
X488131Y299269D01*
X487413Y298194D01*
X487160Y296926D01*
X487413Y295658D01*
X488131Y294583D01*
X489206Y293865D01*
X490474Y293612D01*
X491742Y293865D01*
X492817Y294583D01*
X493535Y295658D01*
X493788Y296926D01*
X493535Y298194D01*
X492817Y299269D01*
X491742Y299987D01*
X490474Y300240D01*
D02*
G37*
G36*
X414020D02*
X412752Y299987D01*
X411677Y299269D01*
X410959Y298194D01*
X410706Y296926D01*
X410959Y295658D01*
X411677Y294583D01*
X412752Y293865D01*
X414020Y293612D01*
X415288Y293865D01*
X416363Y294583D01*
X417081Y295658D01*
X417334Y296926D01*
X417081Y298194D01*
X416363Y299269D01*
X415288Y299987D01*
X414020Y300240D01*
D02*
G37*
G36*
X341440Y294308D02*
X340172Y294055D01*
X339097Y293337D01*
X338379Y292262D01*
X338126Y290994D01*
X338379Y289726D01*
X339097Y288651D01*
X340172Y287933D01*
X341440Y287680D01*
X342708Y287933D01*
X343783Y288651D01*
X344501Y289726D01*
X344754Y290994D01*
X344501Y292262D01*
X343783Y293337D01*
X342708Y294055D01*
X341440Y294308D01*
D02*
G37*
G36*
X257620Y293800D02*
X256352Y293547D01*
X255277Y292829D01*
X254559Y291754D01*
X254306Y290486D01*
X254559Y289218D01*
X255277Y288143D01*
X256352Y287425D01*
X257620Y287172D01*
X258888Y287425D01*
X259963Y288143D01*
X260681Y289218D01*
X260934Y290486D01*
X260681Y291754D01*
X259963Y292829D01*
X258888Y293547D01*
X257620Y293800D01*
D02*
G37*
G36*
X471992Y288314D02*
X470724Y288061D01*
X469649Y287343D01*
X468931Y286268D01*
X468889Y286061D01*
X467595D01*
X467553Y286268D01*
X466835Y287343D01*
X465760Y288061D01*
X464492Y288314D01*
X463224Y288061D01*
X462149Y287343D01*
X461431Y286268D01*
X461390Y286061D01*
X460095D01*
X460053Y286268D01*
X459335Y287343D01*
X458260Y288061D01*
X456992Y288314D01*
X455724Y288061D01*
X454649Y287343D01*
X453931Y286268D01*
X453889Y286061D01*
X452594D01*
X452553Y286268D01*
X451835Y287343D01*
X450760Y288061D01*
X449492Y288314D01*
X448224Y288061D01*
X447149Y287343D01*
X446431Y286268D01*
X446389Y286061D01*
X445095D01*
X445053Y286268D01*
X444335Y287343D01*
X443260Y288061D01*
X441992Y288314D01*
X440724Y288061D01*
X439649Y287343D01*
X438931Y286268D01*
X438678Y285000D01*
X438931Y283732D01*
X439649Y282657D01*
X440724Y281939D01*
X440931Y281897D01*
Y280603D01*
X440724Y280561D01*
X439649Y279843D01*
X438931Y278768D01*
X438678Y277500D01*
X438931Y276232D01*
X439649Y275157D01*
X440724Y274439D01*
X440931Y274397D01*
Y273103D01*
X440724Y273061D01*
X439649Y272343D01*
X438931Y271268D01*
X438678Y270000D01*
X438931Y268732D01*
X439649Y267657D01*
X440724Y266939D01*
X440931Y266897D01*
Y265603D01*
X440724Y265561D01*
X439649Y264843D01*
X438931Y263768D01*
X438678Y262500D01*
X438931Y261232D01*
X439649Y260157D01*
X440724Y259439D01*
X440931Y259397D01*
Y258103D01*
X440724Y258061D01*
X439649Y257343D01*
X438931Y256268D01*
X438678Y255000D01*
X438931Y253732D01*
X439649Y252657D01*
X440724Y251939D01*
X441992Y251686D01*
X443260Y251939D01*
X444335Y252657D01*
X445053Y253732D01*
X445095Y253939D01*
X446389D01*
X446431Y253732D01*
X447149Y252657D01*
X448224Y251939D01*
X449492Y251686D01*
X450760Y251939D01*
X451835Y252657D01*
X452553Y253732D01*
X452594Y253939D01*
X453889D01*
X453931Y253732D01*
X454649Y252657D01*
X455724Y251939D01*
X456992Y251686D01*
X458260Y251939D01*
X459335Y252657D01*
X460053Y253732D01*
X460095Y253939D01*
X461390D01*
X461431Y253732D01*
X462149Y252657D01*
X463224Y251939D01*
X464492Y251686D01*
X465760Y251939D01*
X466835Y252657D01*
X467553Y253732D01*
X467595Y253939D01*
X468889D01*
X468931Y253732D01*
X469649Y252657D01*
X470724Y251939D01*
X471992Y251686D01*
X473260Y251939D01*
X474335Y252657D01*
X475053Y253732D01*
X475306Y255000D01*
X475053Y256268D01*
X474335Y257343D01*
X473260Y258061D01*
X473053Y258103D01*
Y259397D01*
X473260Y259439D01*
X474335Y260157D01*
X475053Y261232D01*
X475306Y262500D01*
X475053Y263768D01*
X474335Y264843D01*
X473260Y265561D01*
X473053Y265603D01*
Y266897D01*
X473260Y266939D01*
X474335Y267657D01*
X475053Y268732D01*
X475306Y270000D01*
X475053Y271268D01*
X474335Y272343D01*
X473260Y273061D01*
X473053Y273103D01*
Y274397D01*
X473260Y274439D01*
X474335Y275157D01*
X475053Y276232D01*
X475306Y277500D01*
X475053Y278768D01*
X474335Y279843D01*
X473260Y280561D01*
X473053Y280603D01*
Y281897D01*
X473260Y281939D01*
X474335Y282657D01*
X475053Y283732D01*
X475306Y285000D01*
X475053Y286268D01*
X474335Y287343D01*
X473260Y288061D01*
X471992Y288314D01*
D02*
G37*
G36*
X413766Y290080D02*
X412498Y289827D01*
X411423Y289109D01*
X410705Y288034D01*
X410452Y286766D01*
X410705Y285498D01*
X411423Y284423D01*
X412498Y283705D01*
X413766Y283452D01*
X415034Y283705D01*
X416109Y284423D01*
X416827Y285498D01*
X417080Y286766D01*
X416827Y288034D01*
X416109Y289109D01*
X415034Y289827D01*
X413766Y290080D01*
D02*
G37*
G36*
X508508Y287032D02*
X507240Y286779D01*
X506165Y286061D01*
X505447Y284986D01*
X505194Y283718D01*
X505447Y282450D01*
X506165Y281375D01*
X507240Y280657D01*
X508508Y280404D01*
X509776Y280657D01*
X510851Y281375D01*
X511569Y282450D01*
X511822Y283718D01*
X511569Y284986D01*
X510851Y286061D01*
X509776Y286779D01*
X508508Y287032D01*
D02*
G37*
G36*
X228664Y284656D02*
X227396Y284403D01*
X226321Y283685D01*
X225603Y282610D01*
X225350Y281342D01*
X225603Y280074D01*
X226321Y278999D01*
X227396Y278281D01*
X228664Y278028D01*
X229932Y278281D01*
X231007Y278999D01*
X231725Y280074D01*
X231978Y281342D01*
X231725Y282610D01*
X231007Y283685D01*
X229932Y284403D01*
X228664Y284656D01*
D02*
G37*
G36*
X196088Y281952D02*
X194820Y281699D01*
X193745Y280981D01*
X193027Y279906D01*
X192774Y278638D01*
X193027Y277370D01*
X193745Y276295D01*
X194820Y275577D01*
X196088Y275324D01*
X197356Y275577D01*
X198431Y276295D01*
X199149Y277370D01*
X199402Y278638D01*
X199149Y279906D01*
X198431Y280981D01*
X197356Y281699D01*
X196088Y281952D01*
D02*
G37*
G36*
X183642Y280682D02*
X182374Y280429D01*
X181299Y279711D01*
X180581Y278636D01*
X180328Y277368D01*
X180581Y276100D01*
X181299Y275025D01*
X182374Y274307D01*
X183642Y274054D01*
X184910Y274307D01*
X185985Y275025D01*
X186703Y276100D01*
X186956Y277368D01*
X186703Y278636D01*
X185985Y279711D01*
X184910Y280429D01*
X183642Y280682D01*
D02*
G37*
G36*
X413766Y280428D02*
X412498Y280175D01*
X411423Y279457D01*
X410705Y278382D01*
X410452Y277114D01*
X410705Y275846D01*
X411423Y274771D01*
X412498Y274053D01*
X413766Y273800D01*
X415034Y274053D01*
X416109Y274771D01*
X416827Y275846D01*
X417080Y277114D01*
X416827Y278382D01*
X416109Y279457D01*
X415034Y280175D01*
X413766Y280428D01*
D02*
G37*
G36*
X170180Y279666D02*
X168912Y279413D01*
X167837Y278695D01*
X167119Y277620D01*
X166866Y276352D01*
X167119Y275084D01*
X167837Y274009D01*
X168912Y273291D01*
X170180Y273038D01*
X171448Y273291D01*
X172523Y274009D01*
X173241Y275084D01*
X173494Y276352D01*
X173241Y277620D01*
X172523Y278695D01*
X171448Y279413D01*
X170180Y279666D01*
D02*
G37*
G36*
X382842Y273734D02*
X381574Y273481D01*
X380499Y272763D01*
X379781Y271688D01*
X379528Y270420D01*
X379781Y269152D01*
X380499Y268077D01*
X381574Y267359D01*
X382842Y267106D01*
X384110Y267359D01*
X385185Y268077D01*
X385903Y269152D01*
X386156Y270420D01*
X385903Y271688D01*
X385185Y272763D01*
X384110Y273481D01*
X382842Y273734D01*
D02*
G37*
G36*
X145542Y272300D02*
X144274Y272047D01*
X143199Y271329D01*
X142481Y270254D01*
X142228Y268986D01*
X142481Y267718D01*
X143199Y266643D01*
X144274Y265925D01*
X145542Y265672D01*
X146810Y265925D01*
X147885Y266643D01*
X148603Y267718D01*
X148856Y268986D01*
X148603Y270254D01*
X147885Y271329D01*
X146810Y272047D01*
X145542Y272300D01*
D02*
G37*
G36*
X523240Y271538D02*
X521972Y271285D01*
X520897Y270567D01*
X520179Y269492D01*
X519926Y268224D01*
X520179Y266956D01*
X520897Y265881D01*
X521972Y265163D01*
X523240Y264910D01*
X524508Y265163D01*
X525583Y265881D01*
X526301Y266956D01*
X526554Y268224D01*
X526301Y269492D01*
X525583Y270567D01*
X524508Y271285D01*
X523240Y271538D01*
D02*
G37*
G36*
X414020Y270014D02*
X412752Y269761D01*
X411677Y269043D01*
X410959Y267968D01*
X410706Y266700D01*
X410959Y265432D01*
X411677Y264357D01*
X412752Y263639D01*
X414020Y263386D01*
X415288Y263639D01*
X416363Y264357D01*
X417081Y265432D01*
X417334Y266700D01*
X417081Y267968D01*
X416363Y269043D01*
X415288Y269761D01*
X414020Y270014D01*
D02*
G37*
G36*
X306388Y267892D02*
X305120Y267639D01*
X304045Y266921D01*
X303327Y265846D01*
X303074Y264578D01*
X303327Y263310D01*
X304045Y262235D01*
X305120Y261517D01*
X306388Y261264D01*
X307656Y261517D01*
X308731Y262235D01*
X309449Y263310D01*
X309702Y264578D01*
X309449Y265846D01*
X308731Y266921D01*
X307656Y267639D01*
X306388Y267892D01*
D02*
G37*
G36*
X407162Y264426D02*
X405894Y264173D01*
X404819Y263455D01*
X404101Y262380D01*
X403848Y261112D01*
X404101Y259844D01*
X404819Y258769D01*
X405894Y258051D01*
X407162Y257798D01*
X408430Y258051D01*
X409505Y258769D01*
X410223Y259844D01*
X410476Y261112D01*
X410223Y262380D01*
X409505Y263455D01*
X408430Y264173D01*
X407162Y264426D01*
D02*
G37*
G36*
X254826Y262812D02*
X253558Y262559D01*
X252483Y261841D01*
X251765Y260766D01*
X251512Y259498D01*
X251765Y258230D01*
X252483Y257155D01*
X253558Y256437D01*
X254826Y256184D01*
X256094Y256437D01*
X257169Y257155D01*
X257887Y258230D01*
X258140Y259498D01*
X257887Y260766D01*
X257169Y261841D01*
X256094Y262559D01*
X254826Y262812D01*
D02*
G37*
G36*
X123190Y262394D02*
X121922Y262141D01*
X120847Y261423D01*
X120129Y260348D01*
X119876Y259080D01*
X120129Y257812D01*
X120847Y256737D01*
X121922Y256019D01*
X123190Y255766D01*
X124458Y256019D01*
X125533Y256737D01*
X126251Y257812D01*
X126504Y259080D01*
X126251Y260348D01*
X125533Y261423D01*
X124458Y262141D01*
X123190Y262394D01*
D02*
G37*
G36*
X501142Y262140D02*
X499874Y261887D01*
X498799Y261169D01*
X498081Y260094D01*
X497828Y258826D01*
X498081Y257558D01*
X498799Y256483D01*
X499874Y255765D01*
X501142Y255512D01*
X502410Y255765D01*
X503485Y256483D01*
X504203Y257558D01*
X504456Y258826D01*
X504203Y260094D01*
X503485Y261169D01*
X502410Y261887D01*
X501142Y262140D01*
D02*
G37*
G36*
X238760Y258076D02*
X237492Y257823D01*
X236417Y257105D01*
X235699Y256030D01*
X235446Y254762D01*
X235699Y253494D01*
X236417Y252419D01*
X237492Y251701D01*
X238760Y251448D01*
X240028Y251701D01*
X241103Y252419D01*
X241821Y253494D01*
X242074Y254762D01*
X241821Y256030D01*
X241103Y257105D01*
X240028Y257823D01*
X238760Y258076D01*
D02*
G37*
G36*
X122936Y249186D02*
X121668Y248933D01*
X120593Y248215D01*
X119875Y247140D01*
X119622Y245872D01*
X119875Y244604D01*
X120593Y243529D01*
X121668Y242811D01*
X122936Y242558D01*
X124204Y242811D01*
X125279Y243529D01*
X125997Y244604D01*
X126250Y245872D01*
X125997Y247140D01*
X125279Y248215D01*
X124204Y248933D01*
X122936Y249186D01*
D02*
G37*
G36*
X349822Y247572D02*
X348554Y247319D01*
X347479Y246601D01*
X346761Y245526D01*
X346508Y244258D01*
X346761Y242990D01*
X347479Y241915D01*
X348554Y241197D01*
X349822Y240944D01*
X351090Y241197D01*
X352165Y241915D01*
X352883Y242990D01*
X353136Y244258D01*
X352883Y245526D01*
X352165Y246601D01*
X351090Y247319D01*
X349822Y247572D01*
D02*
G37*
G36*
X310000Y247314D02*
X308732Y247061D01*
X307657Y246343D01*
X306939Y245268D01*
X306686Y244000D01*
X306939Y242732D01*
X307657Y241657D01*
X308732Y240939D01*
X310000Y240686D01*
X311268Y240939D01*
X312343Y241657D01*
X313061Y242732D01*
X313314Y244000D01*
X313061Y245268D01*
X312343Y246343D01*
X311268Y247061D01*
X310000Y247314D01*
D02*
G37*
G36*
X259500D02*
X258232Y247061D01*
X257157Y246343D01*
X256439Y245268D01*
X256186Y244000D01*
X256439Y242732D01*
X257157Y241657D01*
X258232Y240939D01*
X259500Y240686D01*
X260768Y240939D01*
X261843Y241657D01*
X262561Y242732D01*
X262814Y244000D01*
X262561Y245268D01*
X261843Y246343D01*
X260768Y247061D01*
X259500Y247314D01*
D02*
G37*
G36*
X300000Y246564D02*
X298732Y246311D01*
X297657Y245593D01*
X296939Y244518D01*
X296686Y243250D01*
X296939Y241982D01*
X297657Y240907D01*
X298732Y240189D01*
X300000Y239936D01*
X301268Y240189D01*
X302343Y240907D01*
X303061Y241982D01*
X303314Y243250D01*
X303061Y244518D01*
X302343Y245593D01*
X301268Y246311D01*
X300000Y246564D01*
D02*
G37*
G36*
X496189Y249567D02*
X494921Y249314D01*
X493846Y248596D01*
X493128Y247521D01*
X492875Y246253D01*
X493128Y244985D01*
X493846Y243910D01*
X494921Y243192D01*
X496079Y242961D01*
X496310Y241803D01*
X497028Y240728D01*
X498103Y240010D01*
X499371Y239757D01*
X500639Y240010D01*
X501714Y240728D01*
X502432Y241803D01*
X502685Y243071D01*
X502432Y244339D01*
X501714Y245414D01*
X500639Y246132D01*
X499481Y246363D01*
X499250Y247521D01*
X498532Y248596D01*
X497457Y249314D01*
X496189Y249567D01*
D02*
G37*
G36*
X523748Y251218D02*
X522480Y250965D01*
X521405Y250247D01*
X520687Y249172D01*
X520434Y247904D01*
X520687Y246636D01*
X519825Y245639D01*
X519119Y245167D01*
X518401Y244092D01*
X518148Y242824D01*
X518401Y241556D01*
X519119Y240481D01*
X520194Y239763D01*
X521462Y239510D01*
X522730Y239763D01*
X523805Y240481D01*
X524523Y241556D01*
X524776Y242824D01*
X524523Y244092D01*
X525385Y245089D01*
X526091Y245561D01*
X526809Y246636D01*
X527062Y247904D01*
X526809Y249172D01*
X526091Y250247D01*
X525016Y250965D01*
X523748Y251218D01*
D02*
G37*
G36*
X438404Y245376D02*
X437136Y245123D01*
X436061Y244405D01*
X435343Y243330D01*
X435090Y242062D01*
X435343Y240794D01*
X436061Y239719D01*
X437136Y239001D01*
X438404Y238748D01*
X439672Y239001D01*
X440598Y239619D01*
X440887Y239187D01*
X441962Y238469D01*
X443230Y238216D01*
X444498Y238469D01*
X445036Y238828D01*
X445459Y238195D01*
X446534Y237477D01*
X447802Y237224D01*
X449070Y237477D01*
X450145Y238195D01*
X450736Y239079D01*
X451614Y238493D01*
X452882Y238240D01*
X454150Y238493D01*
X455225Y239211D01*
X455943Y240286D01*
X456196Y241554D01*
X455943Y242822D01*
X455225Y243897D01*
X454150Y244615D01*
X452882Y244868D01*
X451614Y244615D01*
X450539Y243897D01*
X449948Y243013D01*
X449070Y243599D01*
X447802Y243852D01*
X446534Y243599D01*
X445996Y243240D01*
X445573Y243873D01*
X444498Y244591D01*
X443230Y244844D01*
X441962Y244591D01*
X441036Y243973D01*
X440747Y244405D01*
X439672Y245123D01*
X438404Y245376D01*
D02*
G37*
G36*
X469900Y241058D02*
X468632Y240805D01*
X467557Y240087D01*
X466839Y239012D01*
X466586Y237744D01*
X466839Y236476D01*
X467557Y235401D01*
X468632Y234683D01*
X469900Y234430D01*
X471168Y234683D01*
X472243Y235401D01*
X472961Y236476D01*
X473214Y237744D01*
X472961Y239012D01*
X472243Y240087D01*
X471168Y240805D01*
X469900Y241058D01*
D02*
G37*
G36*
X191750Y240064D02*
X190482Y239811D01*
X189407Y239093D01*
X188689Y238018D01*
X188436Y236750D01*
X188689Y235482D01*
X189407Y234407D01*
X190482Y233689D01*
X191750Y233436D01*
X193018Y233689D01*
X194093Y234407D01*
X194811Y235482D01*
X195064Y236750D01*
X194811Y238018D01*
X194093Y239093D01*
X193018Y239811D01*
X191750Y240064D01*
D02*
G37*
G36*
X506222Y240042D02*
X504954Y239789D01*
X503879Y239071D01*
X503161Y237996D01*
X502908Y236728D01*
X503161Y235460D01*
X503879Y234385D01*
X504954Y233667D01*
X506222Y233414D01*
X507490Y233667D01*
X508565Y234385D01*
X509283Y235460D01*
X509536Y236728D01*
X509283Y237996D01*
X508565Y239071D01*
X507490Y239789D01*
X506222Y240042D01*
D02*
G37*
G36*
X211500Y239814D02*
X210232Y239561D01*
X209157Y238843D01*
X208439Y237768D01*
X208186Y236500D01*
X208439Y235232D01*
X209157Y234157D01*
X210232Y233439D01*
X211500Y233186D01*
X212768Y233439D01*
X213843Y234157D01*
X214561Y235232D01*
X214814Y236500D01*
X214561Y237768D01*
X213843Y238843D01*
X212768Y239561D01*
X211500Y239814D01*
D02*
G37*
G36*
X499697Y228436D02*
X498428Y228184D01*
X497354Y227466D01*
X496635Y226391D01*
X496405Y225232D01*
X495247Y225002D01*
X494171Y224284D01*
X493727Y223618D01*
X493270Y223215D01*
X492166Y223250D01*
X491742Y223533D01*
X490474Y223786D01*
X489206Y223533D01*
X488131Y222815D01*
X487413Y221740D01*
X487160Y220472D01*
X487413Y219204D01*
X488131Y218129D01*
X489206Y217411D01*
X490474Y217158D01*
X491742Y217411D01*
X492817Y218129D01*
X493262Y218794D01*
X493719Y219198D01*
X494822Y219163D01*
X495247Y218879D01*
X496515Y218627D01*
X497783Y218879D01*
X498858Y219597D01*
X499576Y220673D01*
X499806Y221831D01*
X500965Y222061D01*
X502040Y222780D01*
X502758Y223855D01*
X503010Y225123D01*
X502758Y226391D01*
X502040Y227466D01*
X500965Y228184D01*
X499697Y228436D01*
D02*
G37*
G36*
X437134Y227088D02*
X435866Y226835D01*
X434791Y226117D01*
X434073Y225042D01*
X433820Y223774D01*
X434073Y222506D01*
X434791Y221431D01*
X435866Y220713D01*
X437134Y220460D01*
X438402Y220713D01*
X439477Y221431D01*
X440195Y222506D01*
X440448Y223774D01*
X440195Y225042D01*
X439477Y226117D01*
X438402Y226835D01*
X437134Y227088D01*
D02*
G37*
G36*
X379794Y224458D02*
X378526Y224205D01*
X377451Y223487D01*
X376733Y222412D01*
X376480Y221144D01*
X376733Y219876D01*
X377451Y218801D01*
X378526Y218083D01*
X379794Y217830D01*
X381062Y218083D01*
X382137Y218801D01*
X382855Y219876D01*
X383108Y221144D01*
X382855Y222412D01*
X382137Y223487D01*
X381062Y224205D01*
X379794Y224458D01*
D02*
G37*
G36*
X240000Y217314D02*
X238732Y217061D01*
X237657Y216343D01*
X236939Y215268D01*
X236686Y214000D01*
X236939Y212732D01*
X237657Y211657D01*
X238732Y210939D01*
X240000Y210686D01*
X241268Y210939D01*
X242343Y211657D01*
X243061Y212732D01*
X243314Y214000D01*
X243061Y215268D01*
X242343Y216343D01*
X241268Y217061D01*
X240000Y217314D01*
D02*
G37*
G36*
X218250D02*
X216982Y217061D01*
X215907Y216343D01*
X215189Y215268D01*
X214936Y214000D01*
X215189Y212732D01*
X215907Y211657D01*
X216982Y210939D01*
X218250Y210686D01*
X219518Y210939D01*
X220593Y211657D01*
X221311Y212732D01*
X221564Y214000D01*
X221311Y215268D01*
X220593Y216343D01*
X219518Y217061D01*
X218250Y217314D01*
D02*
G37*
G36*
X401250Y206814D02*
X399982Y206561D01*
X398907Y205843D01*
X398189Y204768D01*
X397936Y203500D01*
X398189Y202232D01*
X398907Y201157D01*
X399982Y200439D01*
X401250Y200186D01*
X402518Y200439D01*
X403593Y201157D01*
X404311Y202232D01*
X404564Y203500D01*
X404311Y204768D01*
X403593Y205843D01*
X402518Y206561D01*
X401250Y206814D01*
D02*
G37*
G36*
X314250Y204314D02*
X312982Y204061D01*
X311907Y203343D01*
X311189Y202268D01*
X310936Y201000D01*
X311189Y199732D01*
X311907Y198657D01*
X312982Y197939D01*
X314250Y197686D01*
X315518Y197939D01*
X316593Y198657D01*
X317311Y199732D01*
X317564Y201000D01*
X317311Y202268D01*
X316593Y203343D01*
X315518Y204061D01*
X314250Y204314D01*
D02*
G37*
G36*
X182000Y190564D02*
X180732Y190311D01*
X179657Y189593D01*
X178939Y188518D01*
X178686Y187250D01*
X178939Y185982D01*
X179657Y184907D01*
X180732Y184189D01*
X182000Y183936D01*
X183268Y184189D01*
X184343Y184907D01*
X185061Y185982D01*
X185314Y187250D01*
X185061Y188518D01*
X184343Y189593D01*
X183268Y190311D01*
X182000Y190564D01*
D02*
G37*
G36*
X292250Y185314D02*
X290982Y185061D01*
X289907Y184343D01*
X289189Y183268D01*
X288936Y182000D01*
X289189Y180732D01*
X289907Y179657D01*
X290982Y178939D01*
X292250Y178686D01*
X293518Y178939D01*
X294593Y179657D01*
X295311Y180732D01*
X295564Y182000D01*
X295311Y183268D01*
X294593Y184343D01*
X293518Y185061D01*
X292250Y185314D01*
D02*
G37*
G36*
X184500Y176314D02*
X183232Y176061D01*
X182157Y175343D01*
X181439Y174268D01*
X181186Y173000D01*
X181439Y171732D01*
X182157Y170657D01*
X183232Y169939D01*
X184500Y169686D01*
X185768Y169939D01*
X186843Y170657D01*
X187561Y171732D01*
X187814Y173000D01*
X187561Y174268D01*
X186843Y175343D01*
X185768Y176061D01*
X184500Y176314D01*
D02*
G37*
G36*
X261500Y172564D02*
X260232Y172311D01*
X259157Y171593D01*
X258439Y170518D01*
X258186Y169250D01*
X258439Y167982D01*
X259157Y166907D01*
X260232Y166189D01*
X261500Y165936D01*
X262768Y166189D01*
X263843Y166907D01*
X264561Y167982D01*
X264814Y169250D01*
X264561Y170518D01*
X263843Y171593D01*
X262768Y172311D01*
X261500Y172564D01*
D02*
G37*
G36*
X390750Y169564D02*
X389482Y169311D01*
X388407Y168593D01*
X387689Y167518D01*
X387436Y166250D01*
X387689Y164982D01*
X388407Y163907D01*
X389482Y163189D01*
X390750Y162936D01*
X392018Y163189D01*
X393093Y163907D01*
X393811Y164982D01*
X394064Y166250D01*
X393811Y167518D01*
X393093Y168593D01*
X392018Y169311D01*
X390750Y169564D01*
D02*
G37*
G36*
X184750Y166064D02*
X183482Y165811D01*
X182407Y165093D01*
X181689Y164018D01*
X181436Y162750D01*
X181689Y161482D01*
X182407Y160407D01*
X183482Y159689D01*
X184750Y159436D01*
X186018Y159689D01*
X187093Y160407D01*
X187811Y161482D01*
X188064Y162750D01*
X187811Y164018D01*
X187093Y165093D01*
X186018Y165811D01*
X184750Y166064D01*
D02*
G37*
G36*
X332740Y192544D02*
X331472Y192291D01*
X330397Y191573D01*
X329679Y190498D01*
X329678Y190493D01*
X329600Y190416D01*
X328937Y189424D01*
X328704Y188253D01*
X328704Y188253D01*
Y158117D01*
X328702Y158113D01*
X328449Y156845D01*
X328702Y155577D01*
X329420Y154502D01*
X330495Y153784D01*
X331763Y153531D01*
X333031Y153784D01*
X334106Y154502D01*
X334824Y155577D01*
X335077Y156845D01*
X334824Y158113D01*
X334822Y158117D01*
Y186712D01*
X335083Y186887D01*
X335801Y187962D01*
X336054Y189230D01*
X335801Y190498D01*
X335083Y191573D01*
X334008Y192291D01*
X332740Y192544D01*
D02*
G37*
G36*
X279972Y156640D02*
X278704Y156387D01*
X277629Y155669D01*
X276911Y154594D01*
X276658Y153326D01*
X276911Y152058D01*
X277629Y150983D01*
X278704Y150265D01*
X279972Y150012D01*
X281240Y150265D01*
X282315Y150983D01*
X283033Y152058D01*
X283286Y153326D01*
X283033Y154594D01*
X282315Y155669D01*
X281240Y156387D01*
X279972Y156640D01*
D02*
G37*
G36*
X260750Y153064D02*
X259482Y152811D01*
X258407Y152093D01*
X257689Y151018D01*
X257436Y149750D01*
X257689Y148482D01*
X258407Y147407D01*
X259482Y146689D01*
X260750Y146436D01*
X262018Y146689D01*
X263093Y147407D01*
X263811Y148482D01*
X264064Y149750D01*
X263811Y151018D01*
X263093Y152093D01*
X262018Y152811D01*
X260750Y153064D01*
D02*
G37*
G36*
X182250Y151564D02*
X180982Y151311D01*
X179907Y150593D01*
X179189Y149518D01*
X178936Y148250D01*
X179189Y146982D01*
X179907Y145907D01*
X180982Y145189D01*
X182250Y144936D01*
X183518Y145189D01*
X184593Y145907D01*
X185311Y146982D01*
X185564Y148250D01*
X185311Y149518D01*
X184593Y150593D01*
X183518Y151311D01*
X182250Y151564D01*
D02*
G37*
G36*
X206312Y143432D02*
X205044Y143179D01*
X203969Y142461D01*
X203251Y141386D01*
X202998Y140118D01*
X203251Y138850D01*
X203969Y137775D01*
X205044Y137057D01*
X206312Y136804D01*
X207580Y137057D01*
X208655Y137775D01*
X209373Y138850D01*
X209626Y140118D01*
X209373Y141386D01*
X208655Y142461D01*
X207580Y143179D01*
X206312Y143432D01*
D02*
G37*
G36*
X249682Y140796D02*
X248414Y140543D01*
X247339Y139825D01*
X246621Y138750D01*
X246368Y137482D01*
X246621Y136214D01*
X247339Y135139D01*
X248414Y134421D01*
X249682Y134169D01*
X250950Y134421D01*
X252025Y135139D01*
X252743Y136214D01*
X252996Y137482D01*
X252743Y138750D01*
X252025Y139825D01*
X250950Y140543D01*
X249682Y140796D01*
D02*
G37*
G36*
X234750Y134814D02*
X233482Y134561D01*
X232407Y133843D01*
X231689Y132768D01*
X231436Y131500D01*
X231689Y130232D01*
X232407Y129157D01*
X233482Y128439D01*
X234750Y128186D01*
X236018Y128439D01*
X237093Y129157D01*
X237811Y130232D01*
X238064Y131500D01*
X237811Y132768D01*
X237093Y133843D01*
X236018Y134561D01*
X234750Y134814D01*
D02*
G37*
G36*
X298750Y125814D02*
X297482Y125561D01*
X296407Y124843D01*
X295689Y123768D01*
X295436Y122500D01*
X295689Y121232D01*
X296407Y120157D01*
X297482Y119439D01*
X298750Y119186D01*
X300018Y119439D01*
X301093Y120157D01*
X301811Y121232D01*
X302064Y122500D01*
X301811Y123768D01*
X301093Y124843D01*
X300018Y125561D01*
X298750Y125814D01*
D02*
G37*
G36*
X339250Y125314D02*
X337982Y125061D01*
X336907Y124343D01*
X336189Y123268D01*
X335936Y122000D01*
X336189Y120732D01*
X336907Y119657D01*
X337982Y118939D01*
X339250Y118686D01*
X340518Y118939D01*
X341593Y119657D01*
X342311Y120732D01*
X342564Y122000D01*
X342311Y123268D01*
X341593Y124343D01*
X340518Y125061D01*
X339250Y125314D01*
D02*
G37*
G36*
X358204Y123366D02*
X356936Y123113D01*
X355861Y122395D01*
X355143Y121320D01*
X354890Y120052D01*
X355143Y118784D01*
X355861Y117709D01*
X356936Y116991D01*
X358204Y116738D01*
X359472Y116991D01*
X360547Y117709D01*
X361265Y118784D01*
X361518Y120052D01*
X361265Y121320D01*
X360547Y122395D01*
X359472Y123113D01*
X358204Y123366D01*
D02*
G37*
G36*
X296482Y92886D02*
X295214Y92633D01*
X294139Y91915D01*
X293421Y90840D01*
X293168Y89572D01*
X293421Y88304D01*
X294139Y87229D01*
X295214Y86511D01*
X296482Y86258D01*
X297750Y86511D01*
X298825Y87229D01*
X299543Y88304D01*
X299796Y89572D01*
X299543Y90840D01*
X298825Y91915D01*
X297750Y92633D01*
X296482Y92886D01*
D02*
G37*
G36*
X381826Y92378D02*
X380558Y92125D01*
X379483Y91407D01*
X378765Y90332D01*
X378512Y89064D01*
X378765Y87796D01*
X379483Y86721D01*
X380558Y86003D01*
X381826Y85750D01*
X383094Y86003D01*
X384169Y86721D01*
X384887Y87796D01*
X385140Y89064D01*
X384887Y90332D01*
X384169Y91407D01*
X383094Y92125D01*
X381826Y92378D01*
D02*
G37*
G36*
X136970Y422070D02*
X135702Y421817D01*
X134627Y421099D01*
X133909Y420024D01*
X133656Y418756D01*
X133909Y417488D01*
X134627Y416413D01*
X135702Y415695D01*
X136970Y415442D01*
X138238Y415695D01*
X139313Y416413D01*
X140031Y417488D01*
X140284Y418756D01*
X140031Y420024D01*
X139313Y421099D01*
X138238Y421817D01*
X136970Y422070D01*
D02*
G37*
G36*
X188786Y421562D02*
X187518Y421309D01*
X186443Y420591D01*
X185725Y419516D01*
X185472Y418248D01*
X185725Y416980D01*
X186443Y415905D01*
X187518Y415187D01*
X188786Y414934D01*
X190054Y415187D01*
X191129Y415905D01*
X191847Y416980D01*
X192100Y418248D01*
X191847Y419516D01*
X191129Y420591D01*
X190054Y421309D01*
X188786Y421562D01*
D02*
G37*
G36*
X83630Y417498D02*
X82362Y417245D01*
X81287Y416527D01*
X80569Y415452D01*
X80316Y414184D01*
X80569Y412916D01*
X81287Y411841D01*
X82362Y411123D01*
X83630Y410870D01*
X84898Y411123D01*
X85973Y411841D01*
X86691Y412916D01*
X86944Y414184D01*
X86691Y415452D01*
X85973Y416527D01*
X84898Y417245D01*
X83630Y417498D01*
D02*
G37*
G36*
X28512Y404544D02*
X27244Y404291D01*
X26169Y403573D01*
X25451Y402498D01*
X25198Y401230D01*
X25451Y399962D01*
X26169Y398887D01*
X27244Y398169D01*
X28512Y397916D01*
X29780Y398169D01*
X30855Y398887D01*
X31573Y399962D01*
X31826Y401230D01*
X31573Y402498D01*
X30855Y403573D01*
X29780Y404291D01*
X28512Y404544D01*
D02*
G37*
G36*
X134938Y396924D02*
X133670Y396671D01*
X132595Y395953D01*
X131877Y394878D01*
X131624Y393610D01*
X131877Y392342D01*
X132595Y391267D01*
X133670Y390549D01*
X134938Y390296D01*
X136206Y390549D01*
X137281Y391267D01*
X137999Y392342D01*
X138252Y393610D01*
X137999Y394878D01*
X137281Y395953D01*
X136206Y396671D01*
X134938Y396924D01*
D02*
G37*
G36*
X76264Y377366D02*
X74996Y377113D01*
X73921Y376395D01*
X73203Y375320D01*
X72950Y374052D01*
X73203Y372784D01*
X73921Y371709D01*
X74996Y370991D01*
X76264Y370738D01*
X77532Y370991D01*
X78607Y371709D01*
X79325Y372784D01*
X79578Y374052D01*
X79325Y375320D01*
X78607Y376395D01*
X77532Y377113D01*
X76264Y377366D01*
D02*
G37*
G36*
X43000Y368584D02*
X40455Y368249D01*
X38083Y367267D01*
X36046Y365704D01*
X34483Y363667D01*
X33501Y361295D01*
X33166Y358750D01*
X33501Y356205D01*
X34483Y353833D01*
X36046Y351796D01*
X38083Y350233D01*
X40455Y349251D01*
X43000Y348916D01*
X45545Y349251D01*
X47917Y350233D01*
X49954Y351796D01*
X51517Y353833D01*
X52499Y356205D01*
X52834Y358750D01*
X52499Y361295D01*
X51517Y363667D01*
X49954Y365704D01*
X47917Y367267D01*
X45545Y368249D01*
X43000Y368584D01*
D02*
G37*
G36*
X17600D02*
X15055Y368249D01*
X12683Y367267D01*
X10646Y365704D01*
X9083Y363667D01*
X8101Y361295D01*
X7766Y358750D01*
X8101Y356205D01*
X9083Y353833D01*
X10646Y351796D01*
X12683Y350233D01*
X15055Y349251D01*
X17600Y348916D01*
X20145Y349251D01*
X22517Y350233D01*
X24554Y351796D01*
X26117Y353833D01*
X27099Y356205D01*
X27434Y358750D01*
X27099Y361295D01*
X26117Y363667D01*
X24554Y365704D01*
X22517Y367267D01*
X20145Y368249D01*
X17600Y368584D01*
D02*
G37*
G36*
X196342Y349008D02*
X195074Y348755D01*
X193999Y348037D01*
X193281Y346962D01*
X193028Y345694D01*
X193281Y344426D01*
X193999Y343351D01*
X195074Y342633D01*
X196342Y342380D01*
X197610Y342633D01*
X198685Y343351D01*
X199403Y344426D01*
X199656Y345694D01*
X199403Y346962D01*
X198685Y348037D01*
X197610Y348755D01*
X196342Y349008D01*
D02*
G37*
G36*
X132600Y347750D02*
X131332Y347497D01*
X130257Y346779D01*
X129539Y345704D01*
X129286Y344436D01*
X129539Y343168D01*
X130257Y342093D01*
X131332Y341375D01*
X132600Y341122D01*
X133868Y341375D01*
X134943Y342093D01*
X135661Y343168D01*
X135914Y344436D01*
X135661Y345704D01*
X134943Y346779D01*
X133868Y347497D01*
X132600Y347750D01*
D02*
G37*
G36*
X76454Y337832D02*
X75186Y337579D01*
X74111Y336861D01*
X73393Y335786D01*
X73140Y334518D01*
X73393Y333250D01*
X74111Y332175D01*
X75186Y331457D01*
X76454Y331204D01*
X77722Y331457D01*
X78797Y332175D01*
X79515Y333250D01*
X79768Y334518D01*
X79515Y335786D01*
X78797Y336861D01*
X77722Y337579D01*
X76454Y337832D01*
D02*
G37*
G36*
X43000Y343184D02*
X40455Y342849D01*
X38083Y341867D01*
X36046Y340304D01*
X34483Y338267D01*
X33501Y335895D01*
X33166Y333350D01*
X33501Y330805D01*
X34483Y328433D01*
X36046Y326396D01*
X38083Y324833D01*
X40455Y323851D01*
X43000Y323516D01*
X45545Y323851D01*
X47917Y324833D01*
X49954Y326396D01*
X51517Y328433D01*
X52499Y330805D01*
X52834Y333350D01*
X52499Y335895D01*
X51517Y338267D01*
X49954Y340304D01*
X47917Y341867D01*
X45545Y342849D01*
X43000Y343184D01*
D02*
G37*
G36*
X17600D02*
X15055Y342849D01*
X12683Y341867D01*
X10646Y340304D01*
X9083Y338267D01*
X8101Y335895D01*
X7766Y333350D01*
X8101Y330805D01*
X9083Y328433D01*
X10646Y326396D01*
X12683Y324833D01*
X15055Y323851D01*
X17600Y323516D01*
X20145Y323851D01*
X22517Y324833D01*
X24554Y326396D01*
X26117Y328433D01*
X27099Y330805D01*
X27434Y333350D01*
X27099Y335895D01*
X26117Y338267D01*
X24554Y340304D01*
X22517Y341867D01*
X20145Y342849D01*
X17600Y343184D01*
D02*
G37*
G36*
X570040Y325550D02*
X568772Y325297D01*
X567697Y324579D01*
X566979Y323504D01*
X566726Y322236D01*
X566979Y320968D01*
X567697Y319893D01*
X568772Y319175D01*
X570040Y318922D01*
X571308Y319175D01*
X572383Y319893D01*
X573101Y320968D01*
X573354Y322236D01*
X573101Y323504D01*
X572383Y324579D01*
X571308Y325297D01*
X570040Y325550D01*
D02*
G37*
G36*
X157988Y312686D02*
X156720Y312433D01*
X155645Y311715D01*
X154927Y310640D01*
X154674Y309372D01*
X154927Y308104D01*
X155645Y307029D01*
X156720Y306311D01*
X157988Y306058D01*
X159256Y306311D01*
X160331Y307029D01*
X161049Y308104D01*
X161302Y309372D01*
X161049Y310640D01*
X160331Y311715D01*
X159256Y312433D01*
X157988Y312686D01*
D02*
G37*
G36*
X119634Y308622D02*
X118366Y308369D01*
X117291Y307651D01*
X116573Y306576D01*
X116320Y305308D01*
X116573Y304040D01*
X117291Y302965D01*
X118366Y302247D01*
X119634Y301994D01*
X120902Y302247D01*
X121977Y302965D01*
X122695Y304040D01*
X122948Y305308D01*
X122695Y306576D01*
X121977Y307651D01*
X120902Y308369D01*
X119634Y308622D01*
D02*
G37*
G36*
X43000Y317784D02*
X40455Y317449D01*
X38083Y316467D01*
X36046Y314904D01*
X34483Y312867D01*
X33501Y310495D01*
X33166Y307950D01*
X33501Y305405D01*
X34483Y303033D01*
X36046Y300996D01*
X38083Y299433D01*
X40455Y298451D01*
X43000Y298116D01*
X45545Y298451D01*
X47917Y299433D01*
X49954Y300996D01*
X51517Y303033D01*
X52499Y305405D01*
X52834Y307950D01*
X52499Y310495D01*
X51517Y312867D01*
X49954Y314904D01*
X47917Y316467D01*
X45545Y317449D01*
X43000Y317784D01*
D02*
G37*
G36*
X17600D02*
X15055Y317449D01*
X12683Y316467D01*
X10646Y314904D01*
X9083Y312867D01*
X8101Y310495D01*
X7766Y307950D01*
X8101Y305405D01*
X9083Y303033D01*
X10646Y300996D01*
X12683Y299433D01*
X15055Y298451D01*
X17600Y298116D01*
X20145Y298451D01*
X22517Y299433D01*
X24554Y300996D01*
X26117Y303033D01*
X27099Y305405D01*
X27434Y307950D01*
X27099Y310495D01*
X26117Y312867D01*
X24554Y314904D01*
X22517Y316467D01*
X20145Y317449D01*
X17600Y317784D01*
D02*
G37*
G36*
X547434Y292022D02*
X546166Y291769D01*
X545091Y291051D01*
X544373Y289976D01*
X544120Y288708D01*
X544373Y287440D01*
X545091Y286365D01*
X546166Y285647D01*
X547434Y285394D01*
X548702Y285647D01*
X549777Y286365D01*
X550495Y287440D01*
X550748Y288708D01*
X550495Y289976D01*
X549777Y291051D01*
X548702Y291769D01*
X547434Y292022D01*
D02*
G37*
G36*
X72390Y291350D02*
X71122Y291097D01*
X70047Y290379D01*
X69329Y289304D01*
X69076Y288036D01*
X69329Y286768D01*
X70047Y285693D01*
X71122Y284975D01*
X72390Y284722D01*
X73658Y284975D01*
X74733Y285693D01*
X75451Y286768D01*
X75704Y288036D01*
X75451Y289304D01*
X74733Y290379D01*
X73658Y291097D01*
X72390Y291350D01*
D02*
G37*
G36*
X43000Y292384D02*
X40455Y292049D01*
X38083Y291067D01*
X36046Y289504D01*
X34483Y287467D01*
X33501Y285095D01*
X33166Y282550D01*
X33501Y280005D01*
X34483Y277633D01*
X36046Y275596D01*
X38083Y274033D01*
X40455Y273051D01*
X43000Y272716D01*
X45545Y273051D01*
X47917Y274033D01*
X49954Y275596D01*
X51517Y277633D01*
X52499Y280005D01*
X52834Y282550D01*
X52499Y285095D01*
X51517Y287467D01*
X49954Y289504D01*
X47917Y291067D01*
X45545Y292049D01*
X43000Y292384D01*
D02*
G37*
G36*
X17600D02*
X15055Y292049D01*
X12683Y291067D01*
X10646Y289504D01*
X9083Y287467D01*
X8101Y285095D01*
X7766Y282550D01*
X8101Y280005D01*
X9083Y277633D01*
X10646Y275596D01*
X12683Y274033D01*
X15055Y273051D01*
X17600Y272716D01*
X20145Y273051D01*
X22517Y274033D01*
X24554Y275596D01*
X26117Y277633D01*
X27099Y280005D01*
X27434Y282550D01*
X27099Y285095D01*
X26117Y287467D01*
X24554Y289504D01*
X22517Y291067D01*
X20145Y292049D01*
X17600Y292384D01*
D02*
G37*
G36*
X569278Y270178D02*
X568010Y269925D01*
X566935Y269207D01*
X566217Y268132D01*
X565964Y266864D01*
X566217Y265596D01*
X566935Y264521D01*
X568010Y263803D01*
X569278Y263550D01*
X570546Y263803D01*
X571621Y264521D01*
X572339Y265596D01*
X572592Y266864D01*
X572339Y268132D01*
X571621Y269207D01*
X570546Y269925D01*
X569278Y270178D01*
D02*
G37*
G36*
X547950Y270347D02*
X545013Y269960D01*
X542276Y268827D01*
X539926Y267024D01*
X538123Y264674D01*
X536990Y261937D01*
X536603Y259000D01*
X536990Y256063D01*
X538123Y253326D01*
X539926Y250976D01*
X542276Y249173D01*
X545013Y248040D01*
X547950Y247653D01*
X550887Y248040D01*
X553624Y249173D01*
X555974Y250976D01*
X557777Y253326D01*
X558910Y256063D01*
X559297Y259000D01*
X558910Y261937D01*
X557777Y264674D01*
X555974Y267024D01*
X553624Y268827D01*
X550887Y269960D01*
X547950Y270347D01*
D02*
G37*
G36*
X43000Y266984D02*
X40455Y266649D01*
X38083Y265667D01*
X36046Y264104D01*
X34483Y262067D01*
X33501Y259695D01*
X33166Y257150D01*
X33501Y254605D01*
X34483Y252233D01*
X36046Y250196D01*
X38083Y248633D01*
X40455Y247651D01*
X43000Y247316D01*
X45545Y247651D01*
X47917Y248633D01*
X49954Y250196D01*
X51517Y252233D01*
X52499Y254605D01*
X52834Y257150D01*
X52499Y259695D01*
X51517Y262067D01*
X49954Y264104D01*
X47917Y265667D01*
X45545Y266649D01*
X43000Y266984D01*
D02*
G37*
G36*
X17600D02*
X15055Y266649D01*
X12683Y265667D01*
X10646Y264104D01*
X9083Y262067D01*
X8101Y259695D01*
X7766Y257150D01*
X8101Y254605D01*
X9083Y252233D01*
X10646Y250196D01*
X12683Y248633D01*
X15055Y247651D01*
X17600Y247316D01*
X20145Y247651D01*
X22517Y248633D01*
X24554Y250196D01*
X26117Y252233D01*
X27099Y254605D01*
X27434Y257150D01*
X27099Y259695D01*
X26117Y262067D01*
X24554Y264104D01*
X22517Y265667D01*
X20145Y266649D01*
X17600Y266984D01*
D02*
G37*
G36*
X559308Y241312D02*
X558040Y241059D01*
X556965Y240341D01*
X556247Y239266D01*
X555994Y237998D01*
X556247Y236730D01*
X556965Y235655D01*
X558040Y234937D01*
X559308Y234684D01*
X560576Y234937D01*
X561651Y235655D01*
X562369Y236730D01*
X562622Y237998D01*
X562369Y239266D01*
X561651Y240341D01*
X560576Y241059D01*
X559308Y241312D01*
D02*
G37*
G36*
X52750Y241500D02*
X33250D01*
Y222000D01*
X52750D01*
Y241500D01*
D02*
G37*
G36*
X17600Y241584D02*
X15055Y241249D01*
X12683Y240267D01*
X10646Y238704D01*
X9083Y236667D01*
X8101Y234295D01*
X7766Y231750D01*
X8101Y229205D01*
X9083Y226833D01*
X10646Y224796D01*
X12683Y223233D01*
X15055Y222251D01*
X17600Y221916D01*
X20145Y222251D01*
X22517Y223233D01*
X24554Y224796D01*
X26117Y226833D01*
X27099Y229205D01*
X27434Y231750D01*
X27099Y234295D01*
X26117Y236667D01*
X24554Y238704D01*
X22517Y240267D01*
X20145Y241249D01*
X17600Y241584D01*
D02*
G37*
G36*
X559562Y217182D02*
X558294Y216929D01*
X557219Y216211D01*
X556501Y215136D01*
X556248Y213868D01*
X556501Y212600D01*
X557219Y211525D01*
X558294Y210807D01*
X559562Y210554D01*
X560830Y210807D01*
X561905Y211525D01*
X562623Y212600D01*
X562876Y213868D01*
X562623Y215136D01*
X561905Y216211D01*
X560830Y216929D01*
X559562Y217182D01*
D02*
G37*
G36*
X65596Y207694D02*
X64328Y207441D01*
X63253Y206723D01*
X62535Y205648D01*
X62282Y204380D01*
X62535Y203112D01*
X63253Y202037D01*
X64328Y201319D01*
X65596Y201066D01*
X66864Y201319D01*
X67939Y202037D01*
X68657Y203112D01*
X68910Y204380D01*
X68657Y205648D01*
X67939Y206723D01*
X66864Y207441D01*
X65596Y207694D01*
D02*
G37*
G36*
X105250Y199564D02*
X103982Y199311D01*
X102907Y198593D01*
X102189Y197518D01*
X101936Y196250D01*
X102189Y194982D01*
X102907Y193907D01*
X103982Y193189D01*
X105250Y192936D01*
X106518Y193189D01*
X107593Y193907D01*
X108311Y194982D01*
X108564Y196250D01*
X108311Y197518D01*
X107593Y198593D01*
X106518Y199311D01*
X105250Y199564D01*
D02*
G37*
G36*
X137668Y199402D02*
X136400Y199149D01*
X135325Y198431D01*
X134607Y197356D01*
X134354Y196088D01*
X134607Y194820D01*
X135325Y193745D01*
X136400Y193027D01*
X137668Y192774D01*
X138936Y193027D01*
X140011Y193745D01*
X140729Y194820D01*
X140982Y196088D01*
X140729Y197356D01*
X140011Y198431D01*
X138936Y199149D01*
X137668Y199402D01*
D02*
G37*
G36*
X154750Y190064D02*
X153482Y189811D01*
X152407Y189093D01*
X151689Y188018D01*
X151436Y186750D01*
X151689Y185482D01*
X152407Y184407D01*
X153003Y184008D01*
X152508Y182812D01*
X152500Y182814D01*
X151232Y182561D01*
X150157Y181843D01*
X149439Y180768D01*
X149186Y179500D01*
X149439Y178232D01*
X150157Y177157D01*
X151232Y176439D01*
X152500Y176186D01*
X153768Y176439D01*
X154843Y177157D01*
X155561Y178232D01*
X155814Y179500D01*
X155561Y180768D01*
X154843Y181843D01*
X154247Y182241D01*
X154742Y183438D01*
X154750Y183436D01*
X156018Y183689D01*
X157093Y184407D01*
X157811Y185482D01*
X158064Y186750D01*
X157811Y188018D01*
X157093Y189093D01*
X156018Y189811D01*
X154750Y190064D01*
D02*
G37*
G36*
X95500D02*
X94232Y189811D01*
X93157Y189093D01*
X92439Y188018D01*
X92186Y186750D01*
X92439Y185482D01*
X93157Y184407D01*
X94232Y183689D01*
X95500Y183436D01*
X96768Y183689D01*
X97843Y184407D01*
X98561Y185482D01*
X98814Y186750D01*
X98561Y188018D01*
X97843Y189093D01*
X96768Y189811D01*
X95500Y190064D01*
D02*
G37*
G36*
X547950Y204347D02*
X545013Y203960D01*
X542276Y202827D01*
X539926Y201024D01*
X538123Y198673D01*
X536990Y195937D01*
X536603Y193000D01*
X536990Y190063D01*
X538123Y187327D01*
X539926Y184976D01*
X542276Y183173D01*
X545013Y182040D01*
X547950Y181653D01*
X550887Y182040D01*
X553624Y183173D01*
X555974Y184976D01*
X557777Y187327D01*
X558910Y190063D01*
X559297Y193000D01*
X558910Y195937D01*
X557777Y198673D01*
X555974Y201024D01*
X553624Y202827D01*
X550887Y203960D01*
X547950Y204347D01*
D02*
G37*
G36*
X522500Y185814D02*
X521232Y185561D01*
X520157Y184843D01*
X519439Y183768D01*
X519186Y182500D01*
X519439Y181232D01*
X520157Y180157D01*
X521232Y179439D01*
X522500Y179186D01*
X523768Y179439D01*
X524843Y180157D01*
X525561Y181232D01*
X525814Y182500D01*
X525561Y183768D01*
X524843Y184843D01*
X523768Y185561D01*
X522500Y185814D01*
D02*
G37*
G36*
X24875Y195125D02*
X7625D01*
Y177875D01*
X24875D01*
Y195125D01*
D02*
G37*
G36*
X155500Y175064D02*
X154232Y174811D01*
X153157Y174093D01*
X152439Y173018D01*
X152186Y171750D01*
X152439Y170482D01*
X153157Y169407D01*
X154232Y168689D01*
X155500Y168436D01*
X156768Y168689D01*
X157843Y169407D01*
X158561Y170482D01*
X158814Y171750D01*
X158561Y173018D01*
X157843Y174093D01*
X156768Y174811D01*
X155500Y175064D01*
D02*
G37*
G36*
X95250D02*
X93982Y174811D01*
X92907Y174093D01*
X92189Y173018D01*
X91936Y171750D01*
X92189Y170482D01*
X92907Y169407D01*
X93982Y168689D01*
X95250Y168436D01*
X96518Y168689D01*
X97593Y169407D01*
X98311Y170482D01*
X98564Y171750D01*
X98311Y173018D01*
X97593Y174093D01*
X96518Y174811D01*
X95250Y175064D01*
D02*
G37*
G36*
X135000Y160064D02*
X133732Y159811D01*
X132657Y159093D01*
X131939Y158018D01*
X131686Y156750D01*
X131939Y155482D01*
X132657Y154407D01*
X133732Y153689D01*
X135000Y153436D01*
X136268Y153689D01*
X137343Y154407D01*
X138061Y155482D01*
X138314Y156750D01*
X138061Y158018D01*
X137343Y159093D01*
X136268Y159811D01*
X135000Y160064D01*
D02*
G37*
G36*
X539052Y159942D02*
X537784Y159689D01*
X536709Y158971D01*
X535991Y157896D01*
X535738Y156628D01*
X535991Y155360D01*
X536709Y154285D01*
X537784Y153567D01*
X539052Y153314D01*
X540320Y153567D01*
X541395Y154285D01*
X542113Y155360D01*
X542366Y156628D01*
X542113Y157896D01*
X541395Y158971D01*
X540320Y159689D01*
X539052Y159942D01*
D02*
G37*
G36*
X41650Y169799D02*
X39398Y169503D01*
X37300Y168634D01*
X35499Y167251D01*
X34116Y165450D01*
X33247Y163352D01*
X32951Y161100D01*
X33247Y158848D01*
X34116Y156750D01*
X35499Y154949D01*
X37300Y153566D01*
X39398Y152697D01*
X41650Y152401D01*
X43902Y152697D01*
X46000Y153566D01*
X47801Y154949D01*
X49184Y156750D01*
X50053Y158848D01*
X50349Y161100D01*
X50053Y163352D01*
X49184Y165450D01*
X47801Y167251D01*
X46000Y168634D01*
X43902Y169503D01*
X41650Y169799D01*
D02*
G37*
G36*
X16250D02*
X13998Y169503D01*
X11900Y168634D01*
X10099Y167251D01*
X8716Y165450D01*
X7847Y163352D01*
X7551Y161100D01*
X7847Y158848D01*
X8716Y156750D01*
X10099Y154949D01*
X11900Y153566D01*
X13998Y152697D01*
X16250Y152401D01*
X18502Y152697D01*
X20600Y153566D01*
X22401Y154949D01*
X23784Y156750D01*
X24653Y158848D01*
X24949Y161100D01*
X24653Y163352D01*
X23784Y165450D01*
X22401Y167251D01*
X20600Y168634D01*
X18502Y169503D01*
X16250Y169799D01*
D02*
G37*
G36*
X82250Y150314D02*
X80982Y150061D01*
X79907Y149343D01*
X79189Y148268D01*
X78936Y147000D01*
X79189Y145732D01*
X79907Y144657D01*
X80982Y143939D01*
X82250Y143686D01*
X83518Y143939D01*
X84593Y144657D01*
X85311Y145732D01*
X85564Y147000D01*
X85311Y148268D01*
X84593Y149343D01*
X83518Y150061D01*
X82250Y150314D01*
D02*
G37*
G36*
X68000Y144314D02*
X66732Y144061D01*
X65657Y143343D01*
X64939Y142268D01*
X64686Y141000D01*
X64939Y139732D01*
X65657Y138657D01*
X66732Y137939D01*
X68000Y137686D01*
X69268Y137939D01*
X70343Y138657D01*
X71061Y139732D01*
X71314Y141000D01*
X71061Y142268D01*
X70343Y143343D01*
X69268Y144061D01*
X68000Y144314D01*
D02*
G37*
G36*
X78000Y138814D02*
X76732Y138561D01*
X75657Y137843D01*
X74939Y136768D01*
X74686Y135500D01*
X74939Y134232D01*
X75657Y133157D01*
X76732Y132439D01*
X78000Y132186D01*
X79268Y132439D01*
X80343Y133157D01*
X81061Y134232D01*
X81314Y135500D01*
X81061Y136768D01*
X80343Y137843D01*
X79268Y138561D01*
X78000Y138814D01*
D02*
G37*
G36*
X526000Y134064D02*
X524732Y133811D01*
X523657Y133093D01*
X522939Y132018D01*
X522686Y130750D01*
X522939Y129482D01*
X523657Y128407D01*
X524732Y127689D01*
X526000Y127436D01*
X527268Y127689D01*
X528343Y128407D01*
X529061Y129482D01*
X529314Y130750D01*
X529061Y132018D01*
X528343Y133093D01*
X527268Y133811D01*
X526000Y134064D01*
D02*
G37*
G36*
X16250Y144399D02*
X13998Y144103D01*
X11900Y143234D01*
X10099Y141851D01*
X8716Y140050D01*
X7847Y137952D01*
X7551Y135700D01*
X7847Y133448D01*
X8716Y131350D01*
X10099Y129549D01*
X11900Y128166D01*
X13998Y127297D01*
X16250Y127001D01*
X18502Y127297D01*
X20600Y128166D01*
X22401Y129549D01*
X23784Y131350D01*
X24653Y133448D01*
X24949Y135700D01*
X24653Y137952D01*
X23784Y140050D01*
X22401Y141851D01*
X20600Y143234D01*
X18502Y144103D01*
X16250Y144399D01*
D02*
G37*
G36*
X164846Y122694D02*
X163578Y122441D01*
X162503Y121723D01*
X161785Y120648D01*
X161532Y119380D01*
X161785Y118112D01*
X162503Y117037D01*
X163578Y116319D01*
X164846Y116066D01*
X166114Y116319D01*
X167189Y117037D01*
X167907Y118112D01*
X168160Y119380D01*
X167907Y120648D01*
X167189Y121723D01*
X166114Y122441D01*
X164846Y122694D01*
D02*
G37*
G36*
X143422D02*
X142154Y122441D01*
X141079Y121723D01*
X140361Y120648D01*
X140108Y119380D01*
X140361Y118112D01*
X141079Y117037D01*
X142154Y116319D01*
X143422Y116066D01*
X144690Y116319D01*
X145765Y117037D01*
X146483Y118112D01*
X146736Y119380D01*
X146483Y120648D01*
X145765Y121723D01*
X144690Y122441D01*
X143422Y122694D01*
D02*
G37*
G36*
X41650Y118999D02*
X39398Y118703D01*
X37300Y117834D01*
X35499Y116451D01*
X34116Y114650D01*
X33247Y112552D01*
X32951Y110300D01*
X33247Y108048D01*
X34116Y105950D01*
X35499Y104149D01*
X37300Y102766D01*
X39398Y101897D01*
X41650Y101601D01*
X43902Y101897D01*
X46000Y102766D01*
X47801Y104149D01*
X49184Y105950D01*
X50053Y108048D01*
X50349Y110300D01*
X50053Y112552D01*
X49184Y114650D01*
X47801Y116451D01*
X46000Y117834D01*
X43902Y118703D01*
X41650Y118999D01*
D02*
G37*
G36*
X16250D02*
X13998Y118703D01*
X11900Y117834D01*
X10099Y116451D01*
X8716Y114650D01*
X7847Y112552D01*
X7551Y110300D01*
X7847Y108048D01*
X8716Y105950D01*
X10099Y104149D01*
X11900Y102766D01*
X13998Y101897D01*
X16250Y101601D01*
X18502Y101897D01*
X20600Y102766D01*
X22401Y104149D01*
X23784Y105950D01*
X24653Y108048D01*
X24949Y110300D01*
X24653Y112552D01*
X23784Y114650D01*
X22401Y116451D01*
X20600Y117834D01*
X18502Y118703D01*
X16250Y118999D01*
D02*
G37*
G36*
X519250Y102064D02*
X517982Y101811D01*
X516907Y101093D01*
X516189Y100018D01*
X515936Y98750D01*
X516189Y97482D01*
X516907Y96407D01*
X517982Y95689D01*
X519250Y95436D01*
X520518Y95689D01*
X521593Y96407D01*
X522311Y97482D01*
X522564Y98750D01*
X522311Y100018D01*
X521593Y101093D01*
X520518Y101811D01*
X519250Y102064D01*
D02*
G37*
G36*
X91500Y99814D02*
X90232Y99561D01*
X89157Y98843D01*
X88439Y97768D01*
X88186Y96500D01*
X88439Y95232D01*
X89157Y94157D01*
X90232Y93439D01*
X91500Y93186D01*
X92768Y93439D01*
X93843Y94157D01*
X94561Y95232D01*
X94814Y96500D01*
X94561Y97768D01*
X93843Y98843D01*
X92768Y99561D01*
X91500Y99814D01*
D02*
G37*
G36*
X41650Y93599D02*
X39398Y93303D01*
X37300Y92434D01*
X35499Y91051D01*
X34116Y89250D01*
X33247Y87152D01*
X32951Y84900D01*
X33247Y82648D01*
X34116Y80550D01*
X35499Y78749D01*
X37300Y77366D01*
X39398Y76497D01*
X41650Y76201D01*
X43902Y76497D01*
X46000Y77366D01*
X47801Y78749D01*
X49184Y80550D01*
X50053Y82648D01*
X50349Y84900D01*
X50053Y87152D01*
X49184Y89250D01*
X47801Y91051D01*
X46000Y92434D01*
X43902Y93303D01*
X41650Y93599D01*
D02*
G37*
G36*
X16250D02*
X13998Y93303D01*
X11900Y92434D01*
X10099Y91051D01*
X8716Y89250D01*
X7847Y87152D01*
X7551Y84900D01*
X7847Y82648D01*
X8716Y80550D01*
X10099Y78749D01*
X11900Y77366D01*
X13998Y76497D01*
X16250Y76201D01*
X18502Y76497D01*
X20600Y77366D01*
X22401Y78749D01*
X23784Y80550D01*
X24653Y82648D01*
X24949Y84900D01*
X24653Y87152D01*
X23784Y89250D01*
X22401Y91051D01*
X20600Y92434D01*
X18502Y93303D01*
X16250Y93599D01*
D02*
G37*
G36*
X489500Y77814D02*
X488232Y77561D01*
X487157Y76843D01*
X486439Y75768D01*
X486186Y74500D01*
X486439Y73232D01*
X487157Y72157D01*
X488232Y71439D01*
X489500Y71186D01*
X490768Y71439D01*
X491843Y72157D01*
X492561Y73232D01*
X492814Y74500D01*
X492561Y75768D01*
X491843Y76843D01*
X490768Y77561D01*
X489500Y77814D01*
D02*
G37*
G36*
X93500Y73314D02*
X92232Y73061D01*
X91157Y72343D01*
X90439Y71268D01*
X90186Y70000D01*
X90439Y68732D01*
X91157Y67657D01*
X92232Y66939D01*
X93500Y66686D01*
X94768Y66939D01*
X95843Y67657D01*
X96561Y68732D01*
X96814Y70000D01*
X96561Y71268D01*
X95843Y72343D01*
X94768Y73061D01*
X93500Y73314D01*
D02*
G37*
G36*
X178500Y72814D02*
X177232Y72561D01*
X176157Y71843D01*
X175439Y70768D01*
X175186Y69500D01*
X175439Y68232D01*
X176157Y67157D01*
X177232Y66439D01*
X178500Y66186D01*
X179768Y66439D01*
X180843Y67157D01*
X181561Y68232D01*
X181814Y69500D01*
X181561Y70768D01*
X180843Y71843D01*
X179768Y72561D01*
X178500Y72814D01*
D02*
G37*
G36*
X206750Y72814D02*
X205482Y72561D01*
X204407Y71843D01*
X203689Y70768D01*
X203436Y69500D01*
X203689Y68232D01*
X204407Y67157D01*
X205482Y66439D01*
X206750Y66186D01*
X208018Y66439D01*
X209093Y67157D01*
X209811Y68232D01*
X210064Y69500D01*
X209811Y70768D01*
X209093Y71843D01*
X208018Y72561D01*
X206750Y72814D01*
D02*
G37*
G36*
X292250Y71564D02*
X290982Y71311D01*
X289907Y70593D01*
X289189Y69518D01*
X288936Y68250D01*
X289189Y66982D01*
X289907Y65907D01*
X290982Y65189D01*
X292250Y64936D01*
X293518Y65189D01*
X294593Y65907D01*
X295311Y66982D01*
X295564Y68250D01*
X295311Y69518D01*
X294593Y70593D01*
X293518Y71311D01*
X292250Y71564D01*
D02*
G37*
G36*
X336614Y63422D02*
X335346Y63169D01*
X334271Y62451D01*
X333553Y61376D01*
X333300Y60108D01*
X333553Y58840D01*
X334271Y57765D01*
X335346Y57047D01*
X336614Y56794D01*
X337882Y57047D01*
X338957Y57765D01*
X339675Y58840D01*
X339928Y60108D01*
X339675Y61376D01*
X338957Y62451D01*
X337882Y63169D01*
X336614Y63422D01*
D02*
G37*
G36*
X420434Y56564D02*
X419166Y56311D01*
X418091Y55593D01*
X417373Y54518D01*
X417120Y53250D01*
X417373Y51982D01*
X418091Y50907D01*
X419166Y50189D01*
X420434Y49936D01*
X421702Y50189D01*
X422777Y50907D01*
X423495Y51982D01*
X423748Y53250D01*
X423495Y54518D01*
X422777Y55593D01*
X421702Y56311D01*
X420434Y56564D01*
D02*
G37*
G36*
X475806Y48436D02*
X474538Y48183D01*
X473463Y47465D01*
X472745Y46390D01*
X472492Y45122D01*
X472745Y43854D01*
X473463Y42779D01*
X474538Y42061D01*
X475806Y41808D01*
X477074Y42061D01*
X478149Y42779D01*
X478867Y43854D01*
X479120Y45122D01*
X478867Y46390D01*
X478149Y47465D01*
X477074Y48183D01*
X475806Y48436D01*
D02*
G37*
G36*
X71184Y42086D02*
X69916Y41833D01*
X68841Y41115D01*
X68123Y40040D01*
X67870Y38772D01*
X68123Y37504D01*
X68841Y36429D01*
X69916Y35711D01*
X71184Y35458D01*
X72452Y35711D01*
X73527Y36429D01*
X74245Y37504D01*
X74498Y38772D01*
X74245Y40040D01*
X73527Y41115D01*
X72452Y41833D01*
X71184Y42086D01*
D02*
G37*
G36*
X193104Y40562D02*
X191836Y40309D01*
X190761Y39591D01*
X190043Y38516D01*
X189790Y37248D01*
X190043Y35980D01*
X190761Y34905D01*
X191836Y34187D01*
X193104Y33934D01*
X194372Y34187D01*
X195447Y34905D01*
X196165Y35980D01*
X196418Y37248D01*
X196165Y38516D01*
X195447Y39591D01*
X194372Y40309D01*
X193104Y40562D01*
D02*
G37*
G36*
X155004Y39292D02*
X153736Y39039D01*
X152661Y38321D01*
X151943Y37246D01*
X151690Y35978D01*
X151943Y34710D01*
X152661Y33635D01*
X153736Y32917D01*
X155004Y32664D01*
X156272Y32917D01*
X157347Y33635D01*
X158065Y34710D01*
X158318Y35978D01*
X158065Y37246D01*
X157347Y38321D01*
X156272Y39039D01*
X155004Y39292D01*
D02*
G37*
G36*
X23686Y36752D02*
X22418Y36499D01*
X21343Y35781D01*
X20625Y34706D01*
X20372Y33438D01*
X20625Y32170D01*
X21343Y31095D01*
X22418Y30377D01*
X23686Y30124D01*
X24954Y30377D01*
X26029Y31095D01*
X26747Y32170D01*
X27000Y33438D01*
X26747Y34706D01*
X26029Y35781D01*
X24954Y36499D01*
X23686Y36752D01*
D02*
G37*
G36*
X525336Y30656D02*
X524068Y30403D01*
X522993Y29685D01*
X522275Y28610D01*
X522022Y27342D01*
X522275Y26074D01*
X522993Y24999D01*
X524068Y24281D01*
X525336Y24028D01*
X526604Y24281D01*
X527679Y24999D01*
X528397Y26074D01*
X528650Y27342D01*
X528397Y28610D01*
X527679Y29685D01*
X526604Y30403D01*
X525336Y30656D01*
D02*
G37*
G36*
X369380Y26592D02*
X368112Y26339D01*
X367037Y25621D01*
X366319Y24546D01*
X366066Y23278D01*
X366319Y22010D01*
X367037Y20935D01*
X368112Y20217D01*
X369380Y19964D01*
X370648Y20217D01*
X371723Y20935D01*
X372441Y22010D01*
X372694Y23278D01*
X372441Y24546D01*
X371723Y25621D01*
X370648Y26339D01*
X369380Y26592D01*
D02*
G37*
G36*
X296990Y22528D02*
X295722Y22275D01*
X294647Y21557D01*
X293929Y20482D01*
X293676Y19214D01*
X293929Y17946D01*
X294647Y16871D01*
X295722Y16153D01*
X296990Y15900D01*
X298258Y16153D01*
X299333Y16871D01*
X300051Y17946D01*
X300304Y19214D01*
X300051Y20482D01*
X299333Y21557D01*
X298258Y22275D01*
X296990Y22528D01*
D02*
G37*
G36*
X439992Y19480D02*
X438724Y19227D01*
X437649Y18509D01*
X436931Y17434D01*
X436678Y16166D01*
X436931Y14898D01*
X437649Y13823D01*
X438724Y13105D01*
X439992Y12852D01*
X441260Y13105D01*
X442335Y13823D01*
X443053Y14898D01*
X443306Y16166D01*
X443053Y17434D01*
X442335Y18509D01*
X441260Y19227D01*
X439992Y19480D01*
D02*
G37*
G36*
X481330Y201180D02*
X480062Y200927D01*
X478987Y200209D01*
X478269Y199134D01*
X478016Y197866D01*
X478269Y196598D01*
X478987Y195523D01*
X478280Y194577D01*
X477012Y194830D01*
X475744Y194577D01*
X474669Y193859D01*
X473951Y192784D01*
X473698Y191516D01*
X473951Y190248D01*
X474669Y189173D01*
X475744Y188455D01*
X477012Y188202D01*
X478280Y188455D01*
X479355Y189173D01*
X480073Y190248D01*
X480326Y191516D01*
X480073Y192784D01*
X479355Y193859D01*
X480062Y194805D01*
X481330Y194552D01*
X482598Y194805D01*
X483673Y195523D01*
X484391Y196598D01*
X484644Y197866D01*
X484391Y199134D01*
X483673Y200209D01*
X482598Y200927D01*
X481330Y201180D01*
D02*
G37*
G36*
X487934Y186702D02*
X486666Y186449D01*
X485591Y185731D01*
X484873Y184656D01*
X484620Y183388D01*
X484873Y182120D01*
X485591Y181045D01*
X486666Y180327D01*
X487934Y180074D01*
X489202Y180327D01*
X490277Y181045D01*
X490995Y182120D01*
X491248Y183388D01*
X490995Y184656D01*
X490277Y185731D01*
X489202Y186449D01*
X487934Y186702D01*
D02*
G37*
G36*
X417923Y181529D02*
X416654Y181277D01*
X415579Y180559D01*
X414861Y179484D01*
X414609Y178216D01*
X414861Y176947D01*
X415579Y175872D01*
X416654Y175154D01*
X417923Y174902D01*
X419191Y175154D01*
X420266Y175872D01*
X420984Y176947D01*
X421236Y178216D01*
X420984Y179484D01*
X420266Y180559D01*
X419191Y181277D01*
X417923Y181529D01*
D02*
G37*
G36*
X478008Y173314D02*
X476740Y173061D01*
X475665Y172343D01*
X474947Y171268D01*
X474694Y170000D01*
X474947Y168732D01*
X475665Y167657D01*
X476740Y166939D01*
X478008Y166686D01*
X479276Y166939D01*
X480351Y167657D01*
X481069Y168732D01*
X481322Y170000D01*
X481069Y171268D01*
X480351Y172343D01*
X479276Y173061D01*
X478008Y173314D01*
D02*
G37*
G36*
X460000D02*
X458732Y173061D01*
X457657Y172343D01*
X456939Y171268D01*
X456686Y170000D01*
X456939Y168732D01*
X457657Y167657D01*
X458732Y166939D01*
X460000Y166686D01*
X461268Y166939D01*
X462343Y167657D01*
X463061Y168732D01*
X463314Y170000D01*
X463061Y171268D01*
X462343Y172343D01*
X461268Y173061D01*
X460000Y173314D01*
D02*
G37*
G36*
X450000D02*
X448732Y173061D01*
X447657Y172343D01*
X446939Y171268D01*
X446686Y170000D01*
X446939Y168732D01*
X447657Y167657D01*
X448732Y166939D01*
X450000Y166686D01*
X451268Y166939D01*
X452343Y167657D01*
X453061Y168732D01*
X453314Y170000D01*
X453061Y171268D01*
X452343Y172343D01*
X451268Y173061D01*
X450000Y173314D01*
D02*
G37*
G36*
X440508D02*
X439240Y173061D01*
X438165Y172343D01*
X437447Y171268D01*
X437194Y170000D01*
X437447Y168732D01*
X438165Y167657D01*
X439240Y166939D01*
X440508Y166686D01*
X441776Y166939D01*
X442851Y167657D01*
X443569Y168732D01*
X443822Y170000D01*
X443569Y171268D01*
X442851Y172343D01*
X441776Y173061D01*
X440508Y173314D01*
D02*
G37*
G36*
X478008Y163314D02*
X476740Y163061D01*
X475665Y162343D01*
X474947Y161268D01*
X474694Y160000D01*
X474947Y158732D01*
X475665Y157657D01*
X476740Y156939D01*
X478008Y156686D01*
X479276Y156939D01*
X480351Y157657D01*
X481069Y158732D01*
X481322Y160000D01*
X481069Y161268D01*
X480351Y162343D01*
X479276Y163061D01*
X478008Y163314D01*
D02*
G37*
G36*
X460000D02*
X458732Y163061D01*
X457657Y162343D01*
X456939Y161268D01*
X456686Y160000D01*
X456939Y158732D01*
X457657Y157657D01*
X458732Y156939D01*
X460000Y156686D01*
X461268Y156939D01*
X462343Y157657D01*
X463061Y158732D01*
X463314Y160000D01*
X463061Y161268D01*
X462343Y162343D01*
X461268Y163061D01*
X460000Y163314D01*
D02*
G37*
G36*
X450000D02*
X448732Y163061D01*
X447657Y162343D01*
X446939Y161268D01*
X446686Y160000D01*
X446939Y158732D01*
X447657Y157657D01*
X448732Y156939D01*
X450000Y156686D01*
X451268Y156939D01*
X452343Y157657D01*
X453061Y158732D01*
X453314Y160000D01*
X453061Y161268D01*
X452343Y162343D01*
X451268Y163061D01*
X450000Y163314D01*
D02*
G37*
G36*
X440508D02*
X439240Y163061D01*
X438165Y162343D01*
X437447Y161268D01*
X437194Y160000D01*
X437447Y158732D01*
X438165Y157657D01*
X439240Y156939D01*
X440508Y156686D01*
X441776Y156939D01*
X442851Y157657D01*
X443569Y158732D01*
X443822Y160000D01*
X443569Y161268D01*
X442851Y162343D01*
X441776Y163061D01*
X440508Y163314D01*
D02*
G37*
G36*
X418084Y170700D02*
X416816Y170447D01*
X415741Y169729D01*
X415023Y168654D01*
X414770Y167386D01*
X415023Y166118D01*
X415741Y165043D01*
X416816Y164325D01*
X417944Y164100D01*
X418089Y164066D01*
X418910Y162942D01*
X418834Y162560D01*
X419087Y161292D01*
X419666Y160424D01*
X419610Y160287D01*
X418535Y159569D01*
X417817Y158494D01*
X417564Y157226D01*
X417817Y155958D01*
X418535Y154883D01*
X419610Y154165D01*
X420878Y153912D01*
X422146Y154165D01*
X423221Y154883D01*
X423939Y155958D01*
X424192Y157226D01*
X423939Y158494D01*
X423359Y159362D01*
X423416Y159499D01*
X424491Y160217D01*
X425209Y161292D01*
X425462Y162560D01*
X425209Y163828D01*
X424491Y164903D01*
X423416Y165621D01*
X422288Y165846D01*
X422143Y165880D01*
X421322Y167004D01*
X421398Y167386D01*
X421145Y168654D01*
X420427Y169729D01*
X419352Y170447D01*
X418084Y170700D01*
D02*
G37*
G36*
X478008Y153314D02*
X476740Y153061D01*
X475665Y152343D01*
X474947Y151268D01*
X474694Y150000D01*
X474947Y148732D01*
X475665Y147657D01*
X476740Y146939D01*
X478008Y146686D01*
X479276Y146939D01*
X480351Y147657D01*
X481069Y148732D01*
X481322Y150000D01*
X481069Y151268D01*
X480351Y152343D01*
X479276Y153061D01*
X478008Y153314D01*
D02*
G37*
G36*
X460000D02*
X458732Y153061D01*
X457657Y152343D01*
X456939Y151268D01*
X456686Y150000D01*
X456939Y148732D01*
X457657Y147657D01*
X458732Y146939D01*
X460000Y146686D01*
X461268Y146939D01*
X462343Y147657D01*
X463061Y148732D01*
X463314Y150000D01*
X463061Y151268D01*
X462343Y152343D01*
X461268Y153061D01*
X460000Y153314D01*
D02*
G37*
G36*
X450000D02*
X448732Y153061D01*
X447657Y152343D01*
X446939Y151268D01*
X446686Y150000D01*
X446939Y148732D01*
X447657Y147657D01*
X448732Y146939D01*
X450000Y146686D01*
X451268Y146939D01*
X452343Y147657D01*
X453061Y148732D01*
X453314Y150000D01*
X453061Y151268D01*
X452343Y152343D01*
X451268Y153061D01*
X450000Y153314D01*
D02*
G37*
G36*
X440508D02*
X439240Y153061D01*
X438165Y152343D01*
X437447Y151268D01*
X437194Y150000D01*
X437447Y148732D01*
X438165Y147657D01*
X439240Y146939D01*
X440508Y146686D01*
X441776Y146939D01*
X442851Y147657D01*
X443569Y148732D01*
X443822Y150000D01*
X443569Y151268D01*
X442851Y152343D01*
X441776Y153061D01*
X440508Y153314D01*
D02*
G37*
G36*
X460000Y143314D02*
X458732Y143061D01*
X457657Y142343D01*
X456939Y141268D01*
X456686Y140000D01*
X456939Y138732D01*
X457657Y137657D01*
X458732Y136939D01*
X460000Y136686D01*
X461268Y136939D01*
X462343Y137657D01*
X463061Y138732D01*
X463314Y140000D01*
X463061Y141268D01*
X462343Y142343D01*
X461268Y143061D01*
X460000Y143314D01*
D02*
G37*
G36*
X450000D02*
X448732Y143061D01*
X447657Y142343D01*
X446939Y141268D01*
X446686Y140000D01*
X446939Y138732D01*
X447657Y137657D01*
X448732Y136939D01*
X450000Y136686D01*
X451268Y136939D01*
X452343Y137657D01*
X453061Y138732D01*
X453314Y140000D01*
X453061Y141268D01*
X452343Y142343D01*
X451268Y143061D01*
X450000Y143314D01*
D02*
G37*
G36*
X440000D02*
X438732Y143061D01*
X437657Y142343D01*
X436939Y141268D01*
X436686Y140000D01*
X436939Y138732D01*
X437657Y137657D01*
X438732Y136939D01*
X440000Y136686D01*
X441268Y136939D01*
X442343Y137657D01*
X443061Y138732D01*
X443314Y140000D01*
X443061Y141268D01*
X442343Y142343D01*
X441268Y143061D01*
X440000Y143314D01*
D02*
G37*
G36*
X494538Y140728D02*
X493270Y140475D01*
X492195Y139757D01*
X491477Y138682D01*
X491224Y137414D01*
X491477Y136146D01*
X492103Y135209D01*
X491687Y134931D01*
X490969Y133856D01*
X490716Y132588D01*
X490969Y131320D01*
X491687Y130245D01*
X492762Y129527D01*
X494030Y129274D01*
X495298Y129527D01*
X496373Y130245D01*
X497091Y131320D01*
X497344Y132588D01*
X497091Y133856D01*
X496465Y134793D01*
X496881Y135071D01*
X497599Y136146D01*
X497852Y137414D01*
X497599Y138682D01*
X496881Y139757D01*
X495806Y140475D01*
X494538Y140728D01*
D02*
G37*
G36*
X421220Y135814D02*
X419952Y135561D01*
X418877Y134843D01*
X418159Y133768D01*
X417906Y132500D01*
X418159Y131232D01*
X418877Y130157D01*
X419952Y129439D01*
X421220Y129186D01*
X422488Y129439D01*
X423563Y130157D01*
X424281Y131232D01*
X424534Y132500D01*
X424281Y133768D01*
X423563Y134843D01*
X422488Y135561D01*
X421220Y135814D01*
D02*
G37*
G36*
X496500Y125064D02*
X495232Y124811D01*
X494157Y124093D01*
X493439Y123018D01*
X493186Y121750D01*
X493439Y120482D01*
X494157Y119407D01*
X495232Y118689D01*
X496500Y118436D01*
X497768Y118689D01*
X498843Y119407D01*
X499561Y120482D01*
X499814Y121750D01*
X499561Y123018D01*
X498843Y124093D01*
X497768Y124811D01*
X496500Y125064D01*
D02*
G37*
G36*
X466500Y108064D02*
X465232Y107811D01*
X464157Y107093D01*
X463439Y106018D01*
X463186Y104750D01*
X463439Y103482D01*
X464157Y102407D01*
X465232Y101689D01*
X466500Y101436D01*
X467768Y101689D01*
X468843Y102407D01*
X469561Y103482D01*
X469814Y104750D01*
X469561Y106018D01*
X468843Y107093D01*
X467768Y107811D01*
X466500Y108064D01*
D02*
G37*
G36*
X432500Y107814D02*
X431232Y107561D01*
X430157Y106843D01*
X429439Y105768D01*
X429186Y104500D01*
X429439Y103232D01*
X430157Y102157D01*
X431232Y101439D01*
X432500Y101186D01*
X433768Y101439D01*
X434843Y102157D01*
X435561Y103232D01*
X435814Y104500D01*
X435561Y105768D01*
X434843Y106843D01*
X433768Y107561D01*
X432500Y107814D01*
D02*
G37*
%LPD*%
D93*
X331763Y188253D02*
X332740Y189230D01*
X331763Y156845D02*
Y188253D01*
D96*
X41650Y135700D02*
D03*
Y186500D02*
D03*
D101*
X432308Y309626D02*
D03*
X435864Y232410D02*
D03*
X466090Y197104D02*
D03*
X166878Y172720D02*
D03*
X160274Y138430D02*
D03*
X507746Y145288D02*
D03*
X410718Y203962D02*
D03*
X485648Y258826D02*
D03*
X501396Y267462D02*
D03*
X461500Y237517D02*
D03*
X465836Y113030D02*
D03*
X444246Y113538D02*
D03*
X505460Y173228D02*
D03*
X410718Y165100D02*
D03*
X422402Y152400D02*
D03*
X112268Y362458D02*
D03*
X92202Y334518D02*
D03*
X84836Y277876D02*
D03*
X553212Y123444D02*
D03*
X506476Y191770D02*
D03*
X521716Y208280D02*
D03*
X545084Y320040D02*
D03*
X484886Y345694D02*
D03*
X462026Y352044D02*
D03*
X135636Y171958D02*
D03*
X332740Y189230D02*
D03*
X331763Y156845D02*
D03*
M02*
