G04*
G04 #@! TF.GenerationSoftware,Altium Limited,Altium Designer,19.1.7 (138)*
G04*
G04 Layer_Color=8421504*
%FSLAX44Y44*%
%MOMM*%
G71*
G01*
G75*
%ADD14C,0.8000*%
%ADD15R,0.4750X0.3000*%
%ADD16R,1.1000X0.6500*%
%ADD17R,1.1500X0.6000*%
%ADD18R,0.6000X0.8500*%
%ADD19R,0.6000X1.4000*%
%ADD20R,0.6000X1.8000*%
%ADD21R,1.4000X0.4500*%
%ADD22R,1.5200X0.4400*%
%ADD23C,1.0000*%
%ADD24R,0.7000X1.7750*%
%ADD25R,0.8000X0.8000*%
%ADD26R,0.8000X0.8000*%
%ADD27R,4.2500X4.2500*%
%ADD28R,0.8500X0.3000*%
%ADD29R,0.3000X0.8500*%
%ADD30R,0.7500X0.3000*%
%ADD31R,3.8500X3.8500*%
%ADD32R,0.3000X0.7500*%
%ADD33R,0.9500X0.9000*%
%ADD34R,1.2000X1.4500*%
%ADD35R,0.6000X0.3500*%
%ADD36R,1.4500X1.1500*%
%ADD37C,0.2000*%
%ADD38R,1.6000X4.9000*%
%ADD39R,0.7000X2.3500*%
%ADD40R,1.2000X1.4000*%
%ADD41R,1.3500X0.4000*%
%ADD42R,1.4000X1.6000*%
%ADD43R,1.9000X1.9000*%
%ADD44R,0.7000X0.6000*%
%ADD45R,0.6500X0.6400*%
%ADD46R,0.6400X0.6500*%
%ADD47R,0.6000X0.7000*%
%ADD48R,1.4500X1.2000*%
%ADD49R,0.6500X1.1000*%
G36*
X170250Y249750D02*
Y230750D01*
X163750Y224250D01*
X157750D01*
X151250Y230750D01*
Y249750D01*
X157750Y256250D01*
X163750D01*
X170250Y249750D01*
D02*
G37*
D14*
X276500Y333750D02*
D03*
X355500Y333500D02*
D03*
X340250D02*
D03*
X319000D02*
D03*
X298000D02*
D03*
D15*
X87882Y339518D02*
D03*
Y334518D02*
D03*
Y329518D02*
D03*
X71122D02*
D03*
Y334518D02*
D03*
Y339518D02*
D03*
D16*
X126250Y212000D02*
D03*
X105250Y202400D02*
D03*
Y221600D02*
D03*
D17*
X504226Y345284D02*
D03*
Y364284D02*
D03*
X529226D02*
D03*
Y354784D02*
D03*
Y345284D02*
D03*
X502500Y89500D02*
D03*
Y108500D02*
D03*
X527500D02*
D03*
Y99000D02*
D03*
Y89500D02*
D03*
D18*
X202000Y205000D02*
D03*
X192500Y229000D02*
D03*
X211500D02*
D03*
D19*
X175750Y213250D02*
D03*
X145750D02*
D03*
D20*
X160750Y215250D02*
D03*
D21*
X69500Y265500D02*
D03*
Y259000D02*
D03*
Y252500D02*
D03*
Y246000D02*
D03*
X113500D02*
D03*
Y252500D02*
D03*
Y259000D02*
D03*
Y265500D02*
D03*
D22*
X304150Y201050D02*
D03*
Y194650D02*
D03*
Y188250D02*
D03*
Y181850D02*
D03*
Y175450D02*
D03*
Y169050D02*
D03*
Y162650D02*
D03*
Y156250D02*
D03*
Y149850D02*
D03*
Y143450D02*
D03*
X249850D02*
D03*
Y149850D02*
D03*
Y156250D02*
D03*
Y162650D02*
D03*
Y169050D02*
D03*
Y175450D02*
D03*
Y181850D02*
D03*
Y188250D02*
D03*
Y194650D02*
D03*
Y201050D02*
D03*
D23*
X290750Y115500D02*
D03*
D24*
X119900Y291120D02*
D03*
X132600D02*
D03*
X145300D02*
D03*
X158000D02*
D03*
X170700D02*
D03*
X183400D02*
D03*
X196100D02*
D03*
Y361880D02*
D03*
X183400D02*
D03*
X170700D02*
D03*
X158000D02*
D03*
X145300D02*
D03*
X132600D02*
D03*
X119900D02*
D03*
D25*
X272001Y230000D02*
D03*
Y247500D02*
D03*
X544501Y89749D02*
D03*
Y107249D02*
D03*
X545225Y345034D02*
D03*
Y327534D02*
D03*
X201751Y168249D02*
D03*
Y185749D02*
D03*
X287999Y247751D02*
D03*
Y230251D02*
D03*
D26*
X530976Y377785D02*
D03*
X513476D02*
D03*
X544250Y123501D02*
D03*
X526750D02*
D03*
D27*
X458500Y155000D02*
D03*
D28*
X429000Y132500D02*
D03*
X429000Y137500D02*
D03*
Y142500D02*
D03*
Y147500D02*
D03*
Y152500D02*
D03*
Y157500D02*
D03*
Y162500D02*
D03*
Y167500D02*
D03*
Y172500D02*
D03*
X429000Y177500D02*
D03*
X488000D02*
D03*
X488000Y172500D02*
D03*
Y167500D02*
D03*
Y162500D02*
D03*
Y157500D02*
D03*
Y152500D02*
D03*
Y147500D02*
D03*
Y142500D02*
D03*
Y137500D02*
D03*
X488000Y132500D02*
D03*
D29*
X436000Y184500D02*
D03*
X441000Y184500D02*
D03*
X446000D02*
D03*
X451000D02*
D03*
X456000D02*
D03*
X461000D02*
D03*
X466000D02*
D03*
X471000D02*
D03*
X476000D02*
D03*
X481000Y184500D02*
D03*
Y125500D02*
D03*
X476000Y125500D02*
D03*
X471000D02*
D03*
X466000D02*
D03*
X461000D02*
D03*
X456000D02*
D03*
X451000D02*
D03*
X446000D02*
D03*
X441000D02*
D03*
X436000Y125500D02*
D03*
D30*
X480750Y264000D02*
D03*
Y269000D02*
D03*
Y289000D02*
D03*
Y284000D02*
D03*
Y279000D02*
D03*
Y274000D02*
D03*
Y259000D02*
D03*
Y254000D02*
D03*
X430750D02*
D03*
Y259000D02*
D03*
Y264000D02*
D03*
Y269000D02*
D03*
Y274000D02*
D03*
Y279000D02*
D03*
Y284000D02*
D03*
Y289000D02*
D03*
D31*
X455750Y271500D02*
D03*
D32*
X438250Y296500D02*
D03*
X443250D02*
D03*
X448250D02*
D03*
X453250D02*
D03*
X458250D02*
D03*
X463250D02*
D03*
X468250D02*
D03*
X473250D02*
D03*
Y246500D02*
D03*
X468250D02*
D03*
X463250D02*
D03*
X458250D02*
D03*
X453250D02*
D03*
X448250D02*
D03*
X443250D02*
D03*
X438250D02*
D03*
D33*
X461500Y404000D02*
D03*
Y389000D02*
D03*
X340750Y403750D02*
D03*
Y388750D02*
D03*
X319250Y403750D02*
D03*
Y388750D02*
D03*
X298000Y403750D02*
D03*
Y388750D02*
D03*
X276500Y403750D02*
D03*
Y388750D02*
D03*
D34*
X364000Y180750D02*
D03*
X381000D02*
D03*
D35*
X506000Y219550D02*
D03*
Y212950D02*
D03*
Y225950D02*
D03*
Y232550D02*
D03*
D36*
X91750Y123000D02*
D03*
Y105000D02*
D03*
X67750Y144000D02*
D03*
Y162000D02*
D03*
D37*
X92500Y146750D02*
D03*
Y151750D02*
D03*
Y156750D02*
D03*
Y161750D02*
D03*
Y166750D02*
D03*
Y171750D02*
D03*
Y176750D02*
D03*
Y181750D02*
D03*
Y186750D02*
D03*
X127500Y171750D02*
D03*
X132500Y156750D02*
D03*
Y171750D02*
D03*
X152500Y151750D02*
D03*
Y181750D02*
D03*
X157500Y146750D02*
D03*
Y151750D02*
D03*
Y156750D02*
D03*
Y161750D02*
D03*
Y171750D02*
D03*
Y176750D02*
D03*
Y181750D02*
D03*
Y186750D02*
D03*
D38*
X207250Y42250D02*
D03*
X292250D02*
D03*
X93250Y43000D02*
D03*
X178250D02*
D03*
D39*
X249750Y26500D02*
D03*
X135750Y27250D02*
D03*
D40*
X515250Y296500D02*
D03*
Y318500D02*
D03*
X498250D02*
D03*
Y296500D02*
D03*
D41*
X521200Y213000D02*
D03*
Y219500D02*
D03*
Y226000D02*
D03*
Y232500D02*
D03*
Y239000D02*
D03*
D42*
X523450Y194000D02*
D03*
Y258000D02*
D03*
D43*
X547950Y214000D02*
D03*
Y238000D02*
D03*
D44*
X181014Y119380D02*
D03*
X170014D02*
D03*
X508750Y279000D02*
D03*
X497750D02*
D03*
X418250Y296500D02*
D03*
X407250D02*
D03*
X418250Y286750D02*
D03*
X407250D02*
D03*
Y277000D02*
D03*
X418250D02*
D03*
X332906Y198374D02*
D03*
X321906D02*
D03*
X233250Y181750D02*
D03*
X222250D02*
D03*
X332906Y189230D02*
D03*
X321906D02*
D03*
X331890Y156972D02*
D03*
X320890D02*
D03*
X331636Y148082D02*
D03*
X320636D02*
D03*
X407250Y266250D02*
D03*
X418250D02*
D03*
X502500Y122000D02*
D03*
X513500D02*
D03*
X331636Y168148D02*
D03*
X320636D02*
D03*
X393750Y143750D02*
D03*
X382750D02*
D03*
X332652Y180086D02*
D03*
X321652D02*
D03*
X393750Y153750D02*
D03*
X382750D02*
D03*
X171500Y142750D02*
D03*
X182500D02*
D03*
X171500Y153750D02*
D03*
X182500D02*
D03*
X171250Y183250D02*
D03*
X182250D02*
D03*
X132422Y119380D02*
D03*
X143422D02*
D03*
D45*
X506750Y198000D02*
D03*
X497750D02*
D03*
X401500Y198500D02*
D03*
X410500D02*
D03*
X405000Y166000D02*
D03*
X396000D02*
D03*
X401500Y188750D02*
D03*
X410500D02*
D03*
X224500Y192500D02*
D03*
X233500D02*
D03*
X401500Y179250D02*
D03*
X410500Y179250D02*
D03*
X407234Y305816D02*
D03*
X416234D02*
D03*
X438332Y197612D02*
D03*
X429332D02*
D03*
X249500Y131500D02*
D03*
X240500D02*
D03*
X429840Y209550D02*
D03*
X438840D02*
D03*
X342718Y167640D02*
D03*
X351718D02*
D03*
X342500Y180000D02*
D03*
X351500D02*
D03*
X83000Y135750D02*
D03*
X92000D02*
D03*
X171250Y173000D02*
D03*
X180250D02*
D03*
X171250Y163000D02*
D03*
X180250D02*
D03*
X165680Y133604D02*
D03*
X174680D02*
D03*
D46*
X438250Y318250D02*
D03*
Y309250D02*
D03*
X450250Y318000D02*
D03*
Y309000D02*
D03*
X507000Y267500D02*
D03*
Y258500D02*
D03*
X234250Y205250D02*
D03*
Y214250D02*
D03*
X216500Y171000D02*
D03*
Y162000D02*
D03*
X224250Y205250D02*
D03*
Y214250D02*
D03*
X438750Y113750D02*
D03*
Y104750D02*
D03*
X235250Y171000D02*
D03*
Y162000D02*
D03*
X226000Y171000D02*
D03*
Y162000D02*
D03*
X448310Y196160D02*
D03*
Y205160D02*
D03*
X323088Y133024D02*
D03*
Y124024D02*
D03*
X304250Y122500D02*
D03*
Y131500D02*
D03*
X476500Y311000D02*
D03*
Y320000D02*
D03*
X259500Y229500D02*
D03*
Y238500D02*
D03*
X250000Y229500D02*
D03*
Y238500D02*
D03*
X310000Y230000D02*
D03*
Y239000D02*
D03*
X300250Y230000D02*
D03*
Y239000D02*
D03*
X489000Y233000D02*
D03*
Y224000D02*
D03*
X528000Y298500D02*
D03*
Y307500D02*
D03*
X77750Y279000D02*
D03*
Y288000D02*
D03*
X418750Y247000D02*
D03*
Y256000D02*
D03*
X471000Y197201D02*
D03*
Y206201D02*
D03*
X486250Y320000D02*
D03*
Y311000D02*
D03*
X491476Y345534D02*
D03*
Y354534D02*
D03*
X440500Y233000D02*
D03*
Y224000D02*
D03*
X499500Y173000D02*
D03*
Y182000D02*
D03*
X471750Y113750D02*
D03*
Y104750D02*
D03*
X405250Y153000D02*
D03*
Y144000D02*
D03*
X501396Y145216D02*
D03*
Y136216D02*
D03*
X450000Y233000D02*
D03*
Y224000D02*
D03*
X459750Y233000D02*
D03*
Y224000D02*
D03*
X469500Y233000D02*
D03*
Y224000D02*
D03*
X479250Y233000D02*
D03*
Y224000D02*
D03*
X489750Y88500D02*
D03*
Y79500D02*
D03*
X82000Y151750D02*
D03*
Y160750D02*
D03*
D47*
X458216Y207684D02*
D03*
Y196684D02*
D03*
X313500Y133500D02*
D03*
Y122500D02*
D03*
X334000Y121750D02*
D03*
Y132750D02*
D03*
X341000Y367500D02*
D03*
Y356500D02*
D03*
X319500Y367500D02*
D03*
Y356500D02*
D03*
X298000Y367500D02*
D03*
Y356500D02*
D03*
X276250Y367250D02*
D03*
Y356250D02*
D03*
X462000Y369000D02*
D03*
Y358000D02*
D03*
D48*
X365500Y161750D02*
D03*
Y144750D02*
D03*
D49*
X123250Y82500D02*
D03*
X113650Y103500D02*
D03*
X132850D02*
D03*
X160750Y81250D02*
D03*
X151150Y102250D02*
D03*
X170350D02*
D03*
M02*
