G04*
G04 #@! TF.GenerationSoftware,Altium Limited,Altium Designer,19.1.7 (138)*
G04*
G04 Layer_Color=16711935*
%FSLAX44Y44*%
%MOMM*%
G71*
G01*
G75*
%ADD10C,0.1000*%
G36*
X-2003Y14455D02*
X-2004Y14466D01*
X-2004Y14465D01*
X-2004Y14462D01*
X-2003Y14459D01*
X-2003Y14457D01*
X-2003Y14455D01*
Y14455D01*
D02*
G37*
D10*
X560784Y-2004D02*
G03*
X577256Y14750I-284J16753D01*
G01*
X-2003Y14455D02*
G03*
X15014Y-2004I16753J295D01*
G01*
D02*
G03*
X15034Y-2004I-264J16754D01*
G01*
X-2004Y14466D02*
G03*
X-2003Y14455I16753J284D01*
G01*
X577253Y417284D02*
G03*
X560436Y433756I-16753J-284D01*
G01*
X14500Y433804D02*
G03*
X13994Y433739I0J-2004D01*
G01*
X-2004Y14500D02*
G03*
X-2003Y14455I2004J0D01*
G01*
X560375Y-1968D02*
G03*
X560784Y-2004I375J1968D01*
G01*
X560436Y433756D02*
G03*
X560000Y433804I-436J-1956D01*
G01*
X577254Y417250D02*
G03*
X577253Y417284I-2004J0D01*
G01*
X560000Y-2004D02*
G03*
X560375Y-1968I0J2004D01*
G01*
X13994Y433739D02*
G03*
X-2004Y416736I756J-16739D01*
G01*
X577256Y14750D02*
G03*
X577254Y15019I-16756J0D01*
G01*
X-2004Y413000D02*
Y416736D01*
X14500Y433804D02*
X560000Y433804D01*
X560436Y433756D02*
Y433756D01*
X577254Y15019D02*
X577254Y417250D01*
X577253Y417284D02*
X577253D01*
X-2004Y14500D02*
X-2004Y413000D01*
X15014Y-2004D02*
X15034Y-2004D01*
X-2004Y14466D02*
X-2003Y14455D01*
X560784Y-2004D02*
Y-2004D01*
X15014Y-2004D02*
X560000Y-2004D01*
M02*
