M48
; DRILL file {KiCad 8.0.0} date 2024-02-29T15:38:22+0700
; FORMAT={-:-/ absolute / metric / decimal}
; #@! TF.CreationDate,2024-02-29T15:38:22+07:00
; #@! TF.GenerationSoftware,Kicad,Pcbnew,8.0.0
; #@! TF.FileFunction,Plated,1,2,PTH
FMAT,2
METRIC
; #@! TA.AperFunction,Plated,PTH,ViaDrill
T1C0.400
; #@! TA.AperFunction,Plated,PTH,ComponentDrill
T2C0.500
; #@! TA.AperFunction,Plated,PTH,ComponentDrill
T3C1.000
; #@! TA.AperFunction,Plated,PTH,ComponentDrill
T4C3.200
%
G90
G05
T1
X1.75Y46.25
X1.75Y43.71
X1.75Y41.17
X1.75Y38.63
X1.75Y36.09
X1.75Y33.55
X1.75Y31.01
X1.75Y28.47
X1.75Y25.93
X1.75Y23.39
X1.75Y20.85
X1.75Y18.31
X1.75Y15.77
X1.75Y13.23
X1.75Y10.69
X1.75Y8.15
X15.5Y6.25
X15.5Y4.25
X15.75Y22.5
X15.75Y21.35
X17.0Y42.5
X17.5Y47.0
X17.5Y45.5
X17.6Y49.65
X17.6Y33.2
X17.75Y43.75
X18.75Y44.5
X18.75Y34.25
X19.75Y12.0
X25.25Y50.5
X25.25Y46.75
X25.25Y43.75
X25.25Y40.0
X25.25Y36.5
X25.25Y33.4
X25.25Y30.25
X25.25Y27.0
X25.25Y22.0
X25.25Y19.5
X25.25Y17.25
X25.25Y12.25
X25.25Y10.25
X25.25Y6.5
X25.25Y2.25
X27.75Y50.5
X30.0Y12.25
X30.0Y10.25
X30.25Y22.0
X32.0Y46.75
X32.0Y43.75
X32.0Y40.0
X32.0Y36.5
X32.0Y33.5
X32.0Y30.25
X32.0Y27.0
X32.25Y49.0
X32.75Y24.5
X33.0Y19.5
X35.0Y12.25
X35.0Y10.25
X35.25Y17.25
X36.25Y21.25
X39.25Y46.75
X39.25Y43.75
X39.25Y40.0
X39.25Y36.5
X39.25Y33.25
X39.25Y30.25
X39.25Y27.0
X39.25Y23.75
X39.25Y21.25
X39.25Y12.25
X39.25Y10.25
X39.25Y8.25
X39.25Y6.25
X44.5Y44.5
X44.5Y41.5
X44.5Y39.0
X44.5Y31.75
X44.5Y26.75
X44.5Y24.25
X44.75Y49.5
X44.75Y47.0
X44.75Y11.5
X44.75Y9.0
X44.95Y6.75
X44.95Y4.0
X45.25Y17.0
X45.25Y14.5
X46.75Y48.25
X47.25Y3.75
X47.8Y35.55
X48.25Y48.25
X48.25Y42.25
X48.25Y39.75
X48.25Y37.0
X49.0Y32.5
X49.0Y2.5
X50.8Y27.95
X50.965Y39.75
X51.0Y38.5
X51.0Y34.5
X51.0Y31.5
X51.25Y48.25
X51.75Y24.75
X53.0Y2.5
X53.25Y24.75
X54.5Y24.75
X55.8Y18.7
X56.0Y48.75
X56.25Y2.5
X57.0Y27.25
X57.0Y24.75
X58.5Y48.75
X58.5Y38.0
X58.5Y2.5
X58.75Y40.0
X58.75Y33.25
X59.5Y31.0
X59.5Y24.5
X59.65Y7.6
X60.0Y11.4
X60.2Y32.35
X60.3Y33.75
X60.75Y52.5
X60.75Y50.5
X60.75Y48.75
X60.875Y8.225
X61.25Y44.75
X61.25Y43.0
X61.25Y41.5
X61.95Y6.5
X62.05Y8.65
X62.5Y24.5
X62.65Y19.3
X62.65Y17.8
X62.75Y11.0
X64.0Y24.5
X64.15Y12.0
X64.2Y17.8
X64.5Y51.25
X64.5Y7.5
X65.1Y11.4
X65.75Y51.75
X66.25Y14.0
X66.25Y12.75
X66.3Y10.45
X66.5Y45.25
X66.5Y43.5
X66.5Y41.5
X66.65Y11.8
X67.5Y6.5
X67.6Y2.6
X68.05Y7.45
X68.25Y52.25
X68.25Y50.25
X68.5Y2.6
X68.75Y45.25
X69.0Y30.5
X69.0Y29.0
X69.117Y32.325
X69.25Y40.0
X69.75Y2.0
X70.25Y46.75
X71.0Y27.0
X71.25Y23.75
X71.25Y20.5
X71.25Y17.75
X71.25Y15.0
X72.25Y3.75
X72.25Y1.6
X72.75Y10.25
X78.5Y46.25
X78.5Y43.71
X78.5Y41.17
X78.5Y38.63
X78.5Y36.09
X78.5Y33.55
X78.5Y31.01
X78.5Y28.47
X78.5Y25.93
X78.5Y23.39
X78.5Y20.85
X78.5Y18.31
X78.5Y15.77
X78.5Y13.23
X78.5Y10.69
X78.5Y8.15
T2
X1.1Y50.5
X1.1Y3.5
X1.803Y52.197
X1.803Y48.803
X1.803Y5.197
X1.803Y1.803
X3.5Y52.9
X3.5Y48.1
X3.5Y5.9
X3.5Y1.1
X5.197Y52.197
X5.197Y48.803
X5.197Y5.197
X5.197Y1.803
X5.9Y50.5
X5.9Y3.5
X74.35Y50.5
X74.35Y3.5
X75.053Y52.197
X75.053Y48.803
X75.053Y5.197
X75.053Y1.803
X76.75Y52.9
X76.75Y48.1
X76.75Y5.9
X76.75Y1.1
X78.447Y52.197
X78.447Y48.803
X78.447Y5.197
X78.447Y1.803
X79.15Y50.5
X79.15Y3.5
T3
X10.21Y49.83
X10.21Y44.78
X10.21Y42.24
X10.21Y39.7
X10.21Y37.16
X10.21Y34.62
X10.21Y32.08
X10.21Y27.0
X10.21Y21.92
X10.21Y19.38
X10.21Y16.84
X10.21Y14.3
X10.21Y11.76
X10.21Y9.22
X10.21Y4.17
X12.75Y49.83
X12.75Y44.78
X12.75Y42.24
X12.75Y39.7
X12.75Y37.16
X12.75Y34.62
X12.75Y32.08
X12.75Y27.0
X12.75Y21.92
X12.75Y19.38
X12.75Y16.84
X12.75Y14.3
X12.75Y11.76
X12.75Y9.22
X12.75Y4.17
X47.96Y51.25
X50.5Y51.25
X53.04Y51.25
X55.58Y51.25
T4
X3.5Y50.5
X3.5Y3.5
X76.75Y50.5
X76.75Y3.5
M30
