%TF.GenerationSoftware,KiCad,Pcbnew,8.0.0*%
%TF.CreationDate,2024-02-29T15:38:19+07:00*%
%TF.ProjectId,PicoRX-ADC,5069636f-5258-42d4-9144-432e6b696361,rev?*%
%TF.SameCoordinates,PX79d4f70PY6146580*%
%TF.FileFunction,Paste,Top*%
%TF.FilePolarity,Positive*%
%FSLAX46Y46*%
G04 Gerber Fmt 4.6, Leading zero omitted, Abs format (unit mm)*
G04 Created by KiCad (PCBNEW 8.0.0) date 2024-02-29 15:38:19*
%MOMM*%
%LPD*%
G01*
G04 APERTURE LIST*
G04 Aperture macros list*
%AMRoundRect*
0 Rectangle with rounded corners*
0 $1 Rounding radius*
0 $2 $3 $4 $5 $6 $7 $8 $9 X,Y pos of 4 corners*
0 Add a 4 corners polygon primitive as box body*
4,1,4,$2,$3,$4,$5,$6,$7,$8,$9,$2,$3,0*
0 Add four circle primitives for the rounded corners*
1,1,$1+$1,$2,$3*
1,1,$1+$1,$4,$5*
1,1,$1+$1,$6,$7*
1,1,$1+$1,$8,$9*
0 Add four rect primitives between the rounded corners*
20,1,$1+$1,$2,$3,$4,$5,0*
20,1,$1+$1,$4,$5,$6,$7,0*
20,1,$1+$1,$6,$7,$8,$9,0*
20,1,$1+$1,$8,$9,$2,$3,0*%
%AMFreePoly0*
4,1,9,3.862500,-0.866500,0.737500,-0.866500,0.737500,-0.450000,-0.737500,-0.450000,-0.737500,0.450000,0.737500,0.450000,0.737500,0.866500,3.862500,0.866500,3.862500,-0.866500,3.862500,-0.866500,$1*%
G04 Aperture macros list end*
%ADD10RoundRect,0.250000X-0.625000X0.312500X-0.625000X-0.312500X0.625000X-0.312500X0.625000X0.312500X0*%
%ADD11RoundRect,0.250000X-0.312500X-0.625000X0.312500X-0.625000X0.312500X0.625000X-0.312500X0.625000X0*%
%ADD12RoundRect,0.250000X-0.325000X-0.650000X0.325000X-0.650000X0.325000X0.650000X-0.325000X0.650000X0*%
%ADD13RoundRect,0.250000X0.625000X-0.312500X0.625000X0.312500X-0.625000X0.312500X-0.625000X-0.312500X0*%
%ADD14RoundRect,0.250000X0.312500X0.625000X-0.312500X0.625000X-0.312500X-0.625000X0.312500X-0.625000X0*%
%ADD15R,0.300000X0.850000*%
%ADD16R,0.850000X0.300000*%
%ADD17R,1.250000X1.250000*%
%ADD18RoundRect,0.250000X0.650000X-0.325000X0.650000X0.325000X-0.650000X0.325000X-0.650000X-0.325000X0*%
%ADD19R,0.600000X0.850000*%
%ADD20RoundRect,0.250000X0.375000X0.625000X-0.375000X0.625000X-0.375000X-0.625000X0.375000X-0.625000X0*%
%ADD21RoundRect,0.250000X-0.650000X0.325000X-0.650000X-0.325000X0.650000X-0.325000X0.650000X0.325000X0*%
%ADD22RoundRect,0.150000X-0.150000X0.725000X-0.150000X-0.725000X0.150000X-0.725000X0.150000X0.725000X0*%
%ADD23RoundRect,0.150000X0.825000X0.150000X-0.825000X0.150000X-0.825000X-0.150000X0.825000X-0.150000X0*%
%ADD24RoundRect,0.225000X-0.425000X-0.225000X0.425000X-0.225000X0.425000X0.225000X-0.425000X0.225000X0*%
%ADD25FreePoly0,0.000000*%
%ADD26R,0.300000X1.400000*%
%ADD27RoundRect,0.250000X0.325000X0.650000X-0.325000X0.650000X-0.325000X-0.650000X0.325000X-0.650000X0*%
%ADD28RoundRect,0.170000X0.170000X0.210000X-0.170000X0.210000X-0.170000X-0.210000X0.170000X-0.210000X0*%
%ADD29RoundRect,0.100000X0.625000X0.100000X-0.625000X0.100000X-0.625000X-0.100000X0.625000X-0.100000X0*%
%ADD30R,0.700000X2.350000*%
%ADD31R,1.600000X4.900000*%
%ADD32RoundRect,0.250000X0.275000X0.700000X-0.275000X0.700000X-0.275000X-0.700000X0.275000X-0.700000X0*%
G04 APERTURE END LIST*
D10*
%TO.C,R11*%
X56750000Y44712500D03*
X56750000Y41787500D03*
%TD*%
D11*
%TO.C,R18*%
X65287500Y20500000D03*
X68212500Y20500000D03*
%TD*%
D12*
%TO.C,C25*%
X58195000Y18630000D03*
X61145000Y18630000D03*
%TD*%
D10*
%TO.C,R26*%
X46750000Y46687500D03*
X46750000Y43762500D03*
%TD*%
D11*
%TO.C,R19*%
X65287500Y22750000D03*
X68212500Y22750000D03*
%TD*%
D13*
%TO.C,R12*%
X51250000Y43762500D03*
X51250000Y46687500D03*
%TD*%
D14*
%TO.C,R7*%
X53462500Y20500000D03*
X50537500Y20500000D03*
%TD*%
D15*
%TO.C,IC1*%
X65250000Y8950000D03*
X64750000Y8950000D03*
X64250000Y8950000D03*
X63750000Y8950000D03*
D16*
X63050000Y8250000D03*
X63050000Y7750000D03*
X63050000Y7250000D03*
X63050000Y6750000D03*
D15*
X63750000Y6050000D03*
X64250000Y6050000D03*
X64750000Y6050000D03*
X65250000Y6050000D03*
D16*
X65950000Y6750000D03*
X65950000Y7250000D03*
X65950000Y7750000D03*
X65950000Y8250000D03*
D17*
X64500000Y7500000D03*
%TD*%
D10*
%TO.C,R9*%
X55500000Y16212500D03*
X55500000Y13287500D03*
%TD*%
D18*
%TO.C,C7*%
X65750000Y1525000D03*
X65750000Y4475000D03*
%TD*%
D14*
%TO.C,R8*%
X53462500Y22750000D03*
X50537500Y22750000D03*
%TD*%
D19*
%TO.C,D1*%
X63300000Y42300000D03*
X65200000Y42300000D03*
X64250000Y44700000D03*
%TD*%
D20*
%TO.C,D2*%
X54710000Y8500000D03*
X51910000Y8500000D03*
%TD*%
D21*
%TO.C,C4*%
X68250000Y13475000D03*
X68250000Y10525000D03*
%TD*%
D18*
%TO.C,C20*%
X53000000Y29025000D03*
X53000000Y31975000D03*
%TD*%
D21*
%TO.C,C6*%
X60000000Y16225000D03*
X60000000Y13275000D03*
%TD*%
D18*
%TO.C,C1*%
X63250000Y1525000D03*
X63250000Y4475000D03*
%TD*%
D22*
%TO.C,U6*%
X54775000Y41800000D03*
X53505000Y41800000D03*
X52235000Y41800000D03*
X50965000Y41800000D03*
X50965000Y36650000D03*
X52235000Y36650000D03*
X53505000Y36650000D03*
X54775000Y36650000D03*
%TD*%
D11*
%TO.C,R6*%
X50537500Y18250000D03*
X53462500Y18250000D03*
%TD*%
D23*
%TO.C,U5*%
X67117500Y31130000D03*
X67117500Y32400000D03*
X67117500Y33670000D03*
X67117500Y34940000D03*
X67117500Y36210000D03*
X67117500Y37480000D03*
X67117500Y38750000D03*
X67117500Y40020000D03*
X62167500Y40020000D03*
X62167500Y38750000D03*
X62167500Y37480000D03*
X62167500Y36210000D03*
X62167500Y34940000D03*
X62167500Y33670000D03*
X62167500Y32400000D03*
X62167500Y31130000D03*
%TD*%
D24*
%TO.C,U8*%
X65250000Y49750000D03*
D25*
X65337500Y48250000D03*
D24*
X65250000Y46750000D03*
%TD*%
D18*
%TO.C,C21*%
X57000000Y29025000D03*
X57000000Y31975000D03*
%TD*%
D21*
%TO.C,C3*%
X70750000Y13475000D03*
X70750000Y10525000D03*
%TD*%
D10*
%TO.C,R2*%
X56750000Y8962500D03*
X56750000Y6037500D03*
%TD*%
D21*
%TO.C,C5*%
X59250000Y44700000D03*
X59250000Y41750000D03*
%TD*%
D26*
%TO.C,IC2*%
X59000000Y5300000D03*
X59500000Y5300000D03*
X60000000Y5300000D03*
X60500000Y5300000D03*
X61000000Y5300000D03*
X61000000Y9700000D03*
X60500000Y9700000D03*
X60000000Y9700000D03*
X59500000Y9700000D03*
X59000000Y9700000D03*
%TD*%
D18*
%TO.C,C31*%
X67000000Y26275000D03*
X67000000Y29225000D03*
%TD*%
D12*
%TO.C,C19*%
X50525000Y16000000D03*
X53475000Y16000000D03*
%TD*%
D27*
%TO.C,C8*%
X72475000Y8250000D03*
X69525000Y8250000D03*
%TD*%
D13*
%TO.C,R27*%
X49000000Y43762500D03*
X49000000Y46687500D03*
%TD*%
D11*
%TO.C,R4*%
X51787500Y6250000D03*
X54712500Y6250000D03*
%TD*%
D21*
%TO.C,C42*%
X56750000Y39987500D03*
X56750000Y37037500D03*
%TD*%
%TO.C,C24*%
X59500000Y29225000D03*
X59500000Y26275000D03*
%TD*%
D10*
%TO.C,R10*%
X57750000Y16212500D03*
X57750000Y13287500D03*
%TD*%
%TO.C,R13*%
X64250000Y16212500D03*
X64250000Y13287500D03*
%TD*%
D14*
%TO.C,R14*%
X69462500Y18250000D03*
X66537500Y18250000D03*
%TD*%
D28*
%TO.C,U4*%
X60170000Y21030000D03*
X60170000Y21970000D03*
X59330000Y21030000D03*
X59330000Y21970000D03*
D29*
X61900000Y20525000D03*
X61900000Y21175000D03*
X61900000Y21825000D03*
X61900000Y22475000D03*
X57600000Y22475000D03*
X57600000Y21825000D03*
X57600000Y21175000D03*
X57600000Y20525000D03*
%TD*%
D30*
%TO.C,J7*%
X67000000Y53000000D03*
D31*
X71250000Y51425000D03*
X62750000Y51425000D03*
%TD*%
D10*
%TO.C,R15*%
X62250000Y16212500D03*
X62250000Y13287500D03*
%TD*%
D32*
%TO.C,FB1*%
X63325000Y46750000D03*
X60175000Y46750000D03*
%TD*%
D27*
%TO.C,C23*%
X69475000Y16000000D03*
X66525000Y16000000D03*
%TD*%
D12*
%TO.C,C44*%
X55525000Y46725000D03*
X58475000Y46725000D03*
%TD*%
D27*
%TO.C,C2*%
X72475000Y6000000D03*
X69525000Y6000000D03*
%TD*%
D10*
%TO.C,R1*%
X53500000Y46687500D03*
X53500000Y43762500D03*
%TD*%
D18*
%TO.C,C32*%
X62500000Y26275000D03*
X62500000Y29225000D03*
%TD*%
M02*
