%TF.GenerationSoftware,KiCad,Pcbnew,8.0.0*%
%TF.CreationDate,2024-02-29T15:38:19+07:00*%
%TF.ProjectId,PicoRX-ADC,5069636f-5258-42d4-9144-432e6b696361,rev?*%
%TF.SameCoordinates,PX79d4f70PY6146580*%
%TF.FileFunction,Copper,L1,Top*%
%TF.FilePolarity,Positive*%
%FSLAX46Y46*%
G04 Gerber Fmt 4.6, Leading zero omitted, Abs format (unit mm)*
G04 Created by KiCad (PCBNEW 8.0.0) date 2024-02-29 15:38:19*
%MOMM*%
%LPD*%
G01*
G04 APERTURE LIST*
G04 Aperture macros list*
%AMRoundRect*
0 Rectangle with rounded corners*
0 $1 Rounding radius*
0 $2 $3 $4 $5 $6 $7 $8 $9 X,Y pos of 4 corners*
0 Add a 4 corners polygon primitive as box body*
4,1,4,$2,$3,$4,$5,$6,$7,$8,$9,$2,$3,0*
0 Add four circle primitives for the rounded corners*
1,1,$1+$1,$2,$3*
1,1,$1+$1,$4,$5*
1,1,$1+$1,$6,$7*
1,1,$1+$1,$8,$9*
0 Add four rect primitives between the rounded corners*
20,1,$1+$1,$2,$3,$4,$5,0*
20,1,$1+$1,$4,$5,$6,$7,0*
20,1,$1+$1,$6,$7,$8,$9,0*
20,1,$1+$1,$8,$9,$2,$3,0*%
%AMFreePoly0*
4,1,9,3.862500,-0.866500,0.737500,-0.866500,0.737500,-0.450000,-0.737500,-0.450000,-0.737500,0.450000,0.737500,0.450000,0.737500,0.866500,3.862500,0.866500,3.862500,-0.866500,3.862500,-0.866500,$1*%
G04 Aperture macros list end*
%TA.AperFunction,SMDPad,CuDef*%
%ADD10RoundRect,0.250000X-0.625000X0.312500X-0.625000X-0.312500X0.625000X-0.312500X0.625000X0.312500X0*%
%TD*%
%TA.AperFunction,SMDPad,CuDef*%
%ADD11RoundRect,0.250000X-0.312500X-0.625000X0.312500X-0.625000X0.312500X0.625000X-0.312500X0.625000X0*%
%TD*%
%TA.AperFunction,SMDPad,CuDef*%
%ADD12RoundRect,0.250000X-0.325000X-0.650000X0.325000X-0.650000X0.325000X0.650000X-0.325000X0.650000X0*%
%TD*%
%TA.AperFunction,ComponentPad*%
%ADD13C,0.800000*%
%TD*%
%TA.AperFunction,ComponentPad*%
%ADD14C,6.400000*%
%TD*%
%TA.AperFunction,SMDPad,CuDef*%
%ADD15RoundRect,0.425000X1.325000X0.425000X-1.325000X0.425000X-1.325000X-0.425000X1.325000X-0.425000X0*%
%TD*%
%TA.AperFunction,SMDPad,CuDef*%
%ADD16RoundRect,0.425000X-0.425000X1.325000X-0.425000X-1.325000X0.425000X-1.325000X0.425000X1.325000X0*%
%TD*%
%TA.AperFunction,SMDPad,CuDef*%
%ADD17RoundRect,0.250000X0.625000X-0.312500X0.625000X0.312500X-0.625000X0.312500X-0.625000X-0.312500X0*%
%TD*%
%TA.AperFunction,SMDPad,CuDef*%
%ADD18RoundRect,0.250000X0.312500X0.625000X-0.312500X0.625000X-0.312500X-0.625000X0.312500X-0.625000X0*%
%TD*%
%TA.AperFunction,SMDPad,CuDef*%
%ADD19R,0.300000X0.850000*%
%TD*%
%TA.AperFunction,SMDPad,CuDef*%
%ADD20R,0.850000X0.300000*%
%TD*%
%TA.AperFunction,SMDPad,CuDef*%
%ADD21R,1.250000X1.250000*%
%TD*%
%TA.AperFunction,ComponentPad*%
%ADD22R,1.700000X1.700000*%
%TD*%
%TA.AperFunction,ComponentPad*%
%ADD23O,1.700000X1.700000*%
%TD*%
%TA.AperFunction,SMDPad,CuDef*%
%ADD24RoundRect,0.250000X0.650000X-0.325000X0.650000X0.325000X-0.650000X0.325000X-0.650000X-0.325000X0*%
%TD*%
%TA.AperFunction,SMDPad,CuDef*%
%ADD25R,0.600000X0.850000*%
%TD*%
%TA.AperFunction,SMDPad,CuDef*%
%ADD26RoundRect,0.250000X0.375000X0.625000X-0.375000X0.625000X-0.375000X-0.625000X0.375000X-0.625000X0*%
%TD*%
%TA.AperFunction,SMDPad,CuDef*%
%ADD27RoundRect,0.250000X-0.650000X0.325000X-0.650000X-0.325000X0.650000X-0.325000X0.650000X0.325000X0*%
%TD*%
%TA.AperFunction,SMDPad,CuDef*%
%ADD28RoundRect,0.150000X-0.150000X0.725000X-0.150000X-0.725000X0.150000X-0.725000X0.150000X0.725000X0*%
%TD*%
%TA.AperFunction,SMDPad,CuDef*%
%ADD29RoundRect,0.150000X0.825000X0.150000X-0.825000X0.150000X-0.825000X-0.150000X0.825000X-0.150000X0*%
%TD*%
%TA.AperFunction,SMDPad,CuDef*%
%ADD30RoundRect,0.225000X-0.425000X-0.225000X0.425000X-0.225000X0.425000X0.225000X-0.425000X0.225000X0*%
%TD*%
%TA.AperFunction,SMDPad,CuDef*%
%ADD31FreePoly0,0.000000*%
%TD*%
%TA.AperFunction,SMDPad,CuDef*%
%ADD32R,0.300000X1.400000*%
%TD*%
%TA.AperFunction,SMDPad,CuDef*%
%ADD33RoundRect,0.250000X0.325000X0.650000X-0.325000X0.650000X-0.325000X-0.650000X0.325000X-0.650000X0*%
%TD*%
%TA.AperFunction,SMDPad,CuDef*%
%ADD34RoundRect,0.100000X0.625000X0.100000X-0.625000X0.100000X-0.625000X-0.100000X0.625000X-0.100000X0*%
%TD*%
%TA.AperFunction,HeatsinkPad*%
%ADD35R,1.680000X1.880000*%
%TD*%
%TA.AperFunction,SMDPad,CuDef*%
%ADD36R,0.700000X2.350000*%
%TD*%
%TA.AperFunction,SMDPad,CuDef*%
%ADD37R,1.600000X4.900000*%
%TD*%
%TA.AperFunction,SMDPad,CuDef*%
%ADD38RoundRect,0.250000X0.275000X0.700000X-0.275000X0.700000X-0.275000X-0.700000X0.275000X-0.700000X0*%
%TD*%
%TA.AperFunction,ViaPad*%
%ADD39C,0.800000*%
%TD*%
%TA.AperFunction,Conductor*%
%ADD40C,0.300000*%
%TD*%
%TA.AperFunction,Conductor*%
%ADD41C,0.500000*%
%TD*%
%TA.AperFunction,Conductor*%
%ADD42C,1.000000*%
%TD*%
%TA.AperFunction,Conductor*%
%ADD43C,0.250000*%
%TD*%
%TA.AperFunction,Conductor*%
%ADD44C,0.200000*%
%TD*%
G04 APERTURE END LIST*
D10*
%TO.P,R11,1*%
%TO.N,Net-(U6--)*%
X56750000Y44712500D03*
%TO.P,R11,2*%
%TO.N,RF_PREAMP*%
X56750000Y41787500D03*
%TD*%
D11*
%TO.P,R18,1*%
%TO.N,Net-(U4A--)*%
X65287500Y20500000D03*
%TO.P,R18,2*%
%TO.N,Net-(U5-2B1)*%
X68212500Y20500000D03*
%TD*%
D12*
%TO.P,C25,1*%
%TO.N,+5V*%
X58195000Y18630000D03*
%TO.P,C25,2*%
%TO.N,GND*%
X61145000Y18630000D03*
%TD*%
D10*
%TO.P,R26,1*%
%TO.N,+3.3V*%
X46750000Y46687500D03*
%TO.P,R26,2*%
%TO.N,Net-(U6-+)*%
X46750000Y43762500D03*
%TD*%
D13*
%TO.P,REF\u002A\u002A,1*%
%TO.N,N/C*%
X1100000Y3500000D03*
X1802944Y5197056D03*
X1802944Y1802944D03*
X3500000Y5900000D03*
D14*
X3500000Y3500000D03*
D13*
X3500000Y1100000D03*
X5197056Y5197056D03*
X5197056Y1802944D03*
X5900000Y3500000D03*
%TD*%
D11*
%TO.P,R19,1*%
%TO.N,Net-(U4A-+)*%
X65287500Y22750000D03*
%TO.P,R19,2*%
%TO.N,Net-(U5-2B4)*%
X68212500Y22750000D03*
%TD*%
D15*
%TO.P,U1,1,GPIO0*%
%TO.N,LO_Q*%
X42040000Y2870000D03*
%TO.P,U1,2,GPIO1*%
%TO.N,LO_I*%
X42040000Y5410000D03*
%TO.P,U1,3,GND*%
%TO.N,GND*%
X42040000Y7950000D03*
%TO.P,U1,4,GPIO2*%
%TO.N,GPIO2*%
X42040000Y10490000D03*
%TO.P,U1,5,GPIO3*%
%TO.N,GPIO3*%
X42040000Y13030000D03*
%TO.P,U1,6,GPIO4*%
%TO.N,GPIO4*%
X42040000Y15570000D03*
%TO.P,U1,7,GPIO5*%
%TO.N,GPIO5*%
X42040000Y18110000D03*
%TO.P,U1,8,GND*%
%TO.N,GND*%
X42040000Y20650000D03*
%TO.P,U1,9,GPIO6*%
%TO.N,GPIO6*%
X42040000Y23190000D03*
%TO.P,U1,10,GPIO7*%
%TO.N,GPIO7*%
X42040000Y25730000D03*
%TO.P,U1,11,GPIO8*%
%TO.N,IN_CH*%
X42040000Y28270000D03*
%TO.P,U1,12,GPIO9*%
%TO.N,CHSEL*%
X42040000Y30810000D03*
%TO.P,U1,13,GND*%
%TO.N,GND*%
X42040000Y33350000D03*
%TO.P,U1,14,GPIO10*%
%TO.N,SDATA_B*%
X42040000Y35890000D03*
%TO.P,U1,15,GPIO11*%
%TO.N,GPIO11*%
X42040000Y38430000D03*
%TO.P,U1,16,GPIO12*%
%TO.N,GPIO12*%
X42040000Y40970000D03*
%TO.P,U1,17,GPIO13*%
%TO.N,~{CS}*%
X42040000Y43510000D03*
%TO.P,U1,18,GND*%
%TO.N,GND*%
X42040000Y46050000D03*
%TO.P,U1,19,GPIO14*%
%TO.N,SCLK*%
X42040000Y48590000D03*
%TO.P,U1,20,GPIO15*%
%TO.N,SDATA_A*%
X42040000Y51130000D03*
%TO.P,U1,21,GPIO16*%
%TO.N,GPIO16*%
X22460000Y51130000D03*
%TO.P,U1,22,GPIO17*%
%TO.N,GPIO17*%
X22460000Y48590000D03*
%TO.P,U1,23,GND*%
%TO.N,GND*%
X22460000Y46050000D03*
%TO.P,U1,24,GPIO18*%
%TO.N,GPIO18*%
X22460000Y43510000D03*
%TO.P,U1,25,GPIO19*%
%TO.N,GPIO19*%
X22460000Y40970000D03*
%TO.P,U1,26,GPIO20*%
%TO.N,GPIO20*%
X22460000Y38430000D03*
%TO.P,U1,27,GPIO21*%
%TO.N,GPIO21*%
X22460000Y35890000D03*
%TO.P,U1,28,GND*%
%TO.N,GND*%
X22460000Y33350000D03*
%TO.P,U1,29,GPIO22*%
%TO.N,GPIO22*%
X22460000Y30810000D03*
%TO.P,U1,30,RUN*%
%TO.N,unconnected-(U1-RUN-Pad30)*%
X22460000Y28270000D03*
%TO.P,U1,31,GPIO26_ADC0*%
%TO.N,PICO_RX_I*%
X22460000Y25730000D03*
%TO.P,U1,32,GPIO27_ADC1*%
%TO.N,PICO_RX_Q*%
X22460000Y23190000D03*
%TO.P,U1,33,AGND*%
%TO.N,GND*%
X22460000Y20650000D03*
%TO.P,U1,34,GPIO28_ADC2*%
%TO.N,GPIO28*%
X22460000Y18110000D03*
%TO.P,U1,35,ADC_VREF*%
%TO.N,unconnected-(U1-ADC_VREF-Pad35)*%
X22460000Y15570000D03*
%TO.P,U1,36,3V3*%
%TO.N,+3.3V*%
X22460000Y13030000D03*
%TO.P,U1,37,3V3_EN*%
%TO.N,unconnected-(U1-3V3_EN-Pad37)*%
X22460000Y10490000D03*
%TO.P,U1,38,GND*%
%TO.N,GND*%
X22460000Y7950000D03*
%TO.P,U1,39,VSYS*%
%TO.N,unconnected-(U1-VSYS-Pad39)*%
X22460000Y5410000D03*
%TO.P,U1,40,VBUS*%
%TO.N,+5V*%
X22460000Y2870000D03*
D16*
%TO.P,U1,41,SWCLK*%
%TO.N,SWCLK*%
X34790000Y51800000D03*
%TO.P,U1,42,GND*%
%TO.N,GND*%
X32250000Y51800000D03*
%TO.P,U1,43,SWDIO*%
%TO.N,SWDIO*%
X29710000Y51800000D03*
%TD*%
D17*
%TO.P,R12,1*%
%TO.N,Net-(U6-+)*%
X51250000Y43762500D03*
%TO.P,R12,2*%
%TO.N,Net-(C44-Pad1)*%
X51250000Y46687500D03*
%TD*%
D18*
%TO.P,R7,1*%
%TO.N,Net-(U4B--)*%
X53462500Y20500000D03*
%TO.P,R7,2*%
%TO.N,Net-(U5-2B2)*%
X50537500Y20500000D03*
%TD*%
D19*
%TO.P,IC1,1,DOUTA*%
%TO.N,SDATA_A*%
X65250000Y8950000D03*
%TO.P,IC1,2,DOUTB*%
%TO.N,SDATA_B*%
X64750000Y8950000D03*
%TO.P,IC1,3,SCLK*%
%TO.N,SCLK*%
X64250000Y8950000D03*
%TO.P,IC1,4,GND_1*%
%TO.N,GND*%
X63750000Y8950000D03*
D20*
%TO.P,IC1,5,AIN1A*%
%TO.N,ADC_RX_I*%
X63050000Y8250000D03*
%TO.P,IC1,6,AIN1B*%
%TO.N,ADC_RX_Q*%
X63050000Y7750000D03*
%TO.P,IC1,7,AIN2A*%
%TO.N,ADC_RX_I*%
X63050000Y7250000D03*
%TO.P,IC1,8,AIN2B*%
%TO.N,ADC_RX_Q*%
X63050000Y6750000D03*
D19*
%TO.P,IC1,9,REFA*%
%TO.N,+3.3V*%
X63750000Y6050000D03*
%TO.P,IC1,10,REFB*%
X64250000Y6050000D03*
%TO.P,IC1,11,VDD_1*%
X64750000Y6050000D03*
%TO.P,IC1,12,VDD_2*%
X65250000Y6050000D03*
D20*
%TO.P,IC1,13,GND_2*%
%TO.N,GND*%
X65950000Y6750000D03*
%TO.P,IC1,14,~{CS}*%
%TO.N,~{CS}*%
X65950000Y7250000D03*
%TO.P,IC1,15,CHSEL*%
%TO.N,CHSEL*%
X65950000Y7750000D03*
%TO.P,IC1,16,OVDD*%
%TO.N,+3.3V*%
X65950000Y8250000D03*
D21*
%TO.P,IC1,17,EP*%
%TO.N,GND*%
X64500000Y7500000D03*
%TD*%
D10*
%TO.P,R9,1*%
%TO.N,Net-(C19-Pad2)*%
X55500000Y16212500D03*
%TO.P,R9,2*%
%TO.N,RX_I*%
X55500000Y13287500D03*
%TD*%
D22*
%TO.P,J4,1,Pin_1*%
%TO.N,GND*%
X10210000Y49830000D03*
D23*
%TO.P,J4,2,Pin_2*%
%TO.N,+5V*%
X12750000Y49830000D03*
%TD*%
D24*
%TO.P,C7,1*%
%TO.N,GND*%
X65750000Y1525000D03*
%TO.P,C7,2*%
%TO.N,+3.3V*%
X65750000Y4475000D03*
%TD*%
D18*
%TO.P,R8,1*%
%TO.N,Net-(U4B-+)*%
X53462500Y22750000D03*
%TO.P,R8,2*%
%TO.N,Net-(U5-2B3)*%
X50537500Y22750000D03*
%TD*%
D25*
%TO.P,D1,1*%
%TO.N,GND*%
X63300000Y42300000D03*
%TO.P,D1,2*%
X65200000Y42300000D03*
%TO.P,D1,3*%
%TO.N,Net-(U8-B)*%
X64250000Y44700000D03*
%TD*%
D26*
%TO.P,D2,1,K*%
%TO.N,GND*%
X54710000Y8500000D03*
%TO.P,D2,2,A*%
%TO.N,Net-(D2-A)*%
X51910000Y8500000D03*
%TD*%
D27*
%TO.P,C4,1*%
%TO.N,GND*%
X68250000Y13475000D03*
%TO.P,C4,2*%
%TO.N,+3.3V*%
X68250000Y10525000D03*
%TD*%
D22*
%TO.P,J3,1,Pin_1*%
%TO.N,+3.3V*%
X12750000Y21920000D03*
D23*
%TO.P,J3,2,Pin_2*%
X10210000Y21920000D03*
%TO.P,J3,3,Pin_3*%
%TO.N,GND*%
X12750000Y19380000D03*
%TO.P,J3,4,Pin_4*%
X10210000Y19380000D03*
%TO.P,J3,5,Pin_5*%
%TO.N,GPIO2*%
X12750000Y16840000D03*
%TO.P,J3,6,Pin_6*%
%TO.N,GPIO3*%
X10210000Y16840000D03*
%TO.P,J3,7,Pin_7*%
%TO.N,GPIO4*%
X12750000Y14300000D03*
%TO.P,J3,8,Pin_8*%
%TO.N,GPIO5*%
X10210000Y14300000D03*
%TO.P,J3,9,Pin_9*%
%TO.N,GPIO6*%
X12750000Y11760000D03*
%TO.P,J3,10,Pin_10*%
%TO.N,GPIO7*%
X10210000Y11760000D03*
%TO.P,J3,11,Pin_11*%
%TO.N,GPIO16*%
X12750000Y9220000D03*
%TO.P,J3,12,Pin_12*%
%TO.N,GPIO17*%
X10210000Y9220000D03*
%TD*%
D13*
%TO.P,REF\u002A\u002A,1*%
%TO.N,N/C*%
X74350000Y50500000D03*
X75052944Y52197056D03*
X75052944Y48802944D03*
X76750000Y52900000D03*
D14*
X76750000Y50500000D03*
D13*
X76750000Y48100000D03*
X78447056Y52197056D03*
X78447056Y48802944D03*
X79150000Y50500000D03*
%TD*%
D24*
%TO.P,C20,1*%
%TO.N,GND*%
X53000000Y29025000D03*
%TO.P,C20,2*%
%TO.N,Net-(U5-2B2)*%
X53000000Y31975000D03*
%TD*%
D27*
%TO.P,C6,1*%
%TO.N,GND*%
X60000000Y16225000D03*
%TO.P,C6,2*%
%TO.N,+3.3V*%
X60000000Y13275000D03*
%TD*%
D24*
%TO.P,C1,1*%
%TO.N,GND*%
X63250000Y1525000D03*
%TO.P,C1,2*%
%TO.N,+3.3V*%
X63250000Y4475000D03*
%TD*%
D28*
%TO.P,U6,1,FB*%
%TO.N,RF_PREAMP*%
X54775000Y41800000D03*
%TO.P,U6,2,-*%
%TO.N,Net-(U6--)*%
X53505000Y41800000D03*
%TO.P,U6,3,+*%
%TO.N,Net-(U6-+)*%
X52235000Y41800000D03*
%TO.P,U6,4,V-*%
%TO.N,GND*%
X50965000Y41800000D03*
%TO.P,U6,5,V-*%
X50965000Y36650000D03*
%TO.P,U6,6*%
%TO.N,RF_PREAMP*%
X52235000Y36650000D03*
%TO.P,U6,7,V+*%
%TO.N,+5V*%
X53505000Y36650000D03*
%TO.P,U6,8,~{SHDN}*%
%TO.N,unconnected-(U6-~{SHDN}-Pad8)*%
X54775000Y36650000D03*
%TD*%
D11*
%TO.P,R6,1*%
%TO.N,Net-(U4B--)*%
X50537500Y18250000D03*
%TO.P,R6,2*%
%TO.N,Net-(C19-Pad2)*%
X53462500Y18250000D03*
%TD*%
D29*
%TO.P,U5,1,1~{OE}*%
%TO.N,GND*%
X67117500Y31130000D03*
%TO.P,U5,2,S1*%
%TO.N,LO_Q*%
X67117500Y32400000D03*
%TO.P,U5,3,1B4*%
%TO.N,unconnected-(U5-1B4-Pad3)*%
X67117500Y33670000D03*
%TO.P,U5,4,1B3*%
%TO.N,unconnected-(U5-1B3-Pad4)*%
X67117500Y34940000D03*
%TO.P,U5,5,1B2*%
%TO.N,unconnected-(U5-1B2-Pad5)*%
X67117500Y36210000D03*
%TO.P,U5,6,1B1*%
%TO.N,unconnected-(U5-1B1-Pad6)*%
X67117500Y37480000D03*
%TO.P,U5,7,1A*%
%TO.N,unconnected-(U5-1A-Pad7)*%
X67117500Y38750000D03*
%TO.P,U5,8,GND*%
%TO.N,GND*%
X67117500Y40020000D03*
%TO.P,U5,9,2A*%
%TO.N,RF_PREAMP*%
X62167500Y40020000D03*
%TO.P,U5,10,2B1*%
%TO.N,Net-(U5-2B1)*%
X62167500Y38750000D03*
%TO.P,U5,11,2B2*%
%TO.N,Net-(U5-2B2)*%
X62167500Y37480000D03*
%TO.P,U5,12,2B3*%
%TO.N,Net-(U5-2B3)*%
X62167500Y36210000D03*
%TO.P,U5,13,2B4*%
%TO.N,Net-(U5-2B4)*%
X62167500Y34940000D03*
%TO.P,U5,14,S0*%
%TO.N,LO_I*%
X62167500Y33670000D03*
%TO.P,U5,15,2~{OE}*%
%TO.N,GND*%
X62167500Y32400000D03*
%TO.P,U5,16,VCC*%
%TO.N,+5V*%
X62167500Y31130000D03*
%TD*%
D22*
%TO.P,J1,1,Pin_1*%
%TO.N,+5V*%
X47960000Y51250000D03*
D23*
%TO.P,J1,2,Pin_2*%
%TO.N,SWCLK*%
X50500000Y51250000D03*
%TO.P,J1,3,Pin_3*%
%TO.N,SWDIO*%
X53040000Y51250000D03*
%TO.P,J1,4,Pin_4*%
%TO.N,GND*%
X55580000Y51250000D03*
%TD*%
D30*
%TO.P,U8,1,A*%
%TO.N,Net-(U8-A)*%
X65250000Y49750000D03*
D31*
%TO.P,U8,2,COM*%
%TO.N,unconnected-(U8-COM-Pad2)*%
X65337500Y48250000D03*
D30*
%TO.P,U8,3,B*%
%TO.N,Net-(U8-B)*%
X65250000Y46750000D03*
%TD*%
D24*
%TO.P,C21,1*%
%TO.N,GND*%
X57000000Y29025000D03*
%TO.P,C21,2*%
%TO.N,Net-(U5-2B3)*%
X57000000Y31975000D03*
%TD*%
D27*
%TO.P,C3,1*%
%TO.N,GND*%
X70750000Y13475000D03*
%TO.P,C3,2*%
%TO.N,+3.3V*%
X70750000Y10525000D03*
%TD*%
D10*
%TO.P,R2,1*%
%TO.N,GND*%
X56750000Y8962500D03*
%TO.P,R2,2*%
%TO.N,IN_CH*%
X56750000Y6037500D03*
%TD*%
D27*
%TO.P,C5,1*%
%TO.N,Net-(U6--)*%
X59250000Y44700000D03*
%TO.P,C5,2*%
%TO.N,RF_PREAMP*%
X59250000Y41750000D03*
%TD*%
D32*
%TO.P,IC2,1,IN1*%
%TO.N,IN_CH*%
X59000000Y5300000D03*
%TO.P,IC2,2,NO1*%
%TO.N,PICO_RX_I*%
X59500000Y5300000D03*
%TO.P,IC2,3,GND*%
%TO.N,GND*%
X60000000Y5300000D03*
%TO.P,IC2,4,NO2*%
%TO.N,PICO_RX_Q*%
X60500000Y5300000D03*
%TO.P,IC2,5,IN2*%
%TO.N,IN_CH*%
X61000000Y5300000D03*
%TO.P,IC2,6,COM2*%
%TO.N,RX_Q*%
X61000000Y9700000D03*
%TO.P,IC2,7,NC2*%
%TO.N,ADC_RX_Q*%
X60500000Y9700000D03*
%TO.P,IC2,8,VCC*%
%TO.N,+3.3V*%
X60000000Y9700000D03*
%TO.P,IC2,9,NC1*%
%TO.N,ADC_RX_I*%
X59500000Y9700000D03*
%TO.P,IC2,10,COM1*%
%TO.N,RX_I*%
X59000000Y9700000D03*
%TD*%
D24*
%TO.P,C31,1*%
%TO.N,GND*%
X67000000Y26275000D03*
%TO.P,C31,2*%
%TO.N,Net-(U5-2B1)*%
X67000000Y29225000D03*
%TD*%
D12*
%TO.P,C19,1*%
%TO.N,Net-(U4B--)*%
X50525000Y16000000D03*
%TO.P,C19,2*%
%TO.N,Net-(C19-Pad2)*%
X53475000Y16000000D03*
%TD*%
D33*
%TO.P,C8,1*%
%TO.N,GND*%
X72475000Y8250000D03*
%TO.P,C8,2*%
%TO.N,+3.3V*%
X69525000Y8250000D03*
%TD*%
D13*
%TO.P,REF\u002A\u002A,1*%
%TO.N,N/C*%
X1100000Y50500000D03*
X1802944Y52197056D03*
X1802944Y48802944D03*
X3500000Y52900000D03*
D14*
X3500000Y50500000D03*
D13*
X3500000Y48100000D03*
X5197056Y52197056D03*
X5197056Y48802944D03*
X5900000Y50500000D03*
%TD*%
%TO.P,REF\u002A\u002A,1*%
%TO.N,N/C*%
X74350000Y3500000D03*
X75052944Y5197056D03*
X75052944Y1802944D03*
X76750000Y5900000D03*
D14*
X76750000Y3500000D03*
D13*
X76750000Y1100000D03*
X78447056Y5197056D03*
X78447056Y1802944D03*
X79150000Y3500000D03*
%TD*%
D17*
%TO.P,R27,1*%
%TO.N,Net-(U6-+)*%
X49000000Y43762500D03*
%TO.P,R27,2*%
%TO.N,GND*%
X49000000Y46687500D03*
%TD*%
D11*
%TO.P,R4,1*%
%TO.N,Net-(D2-A)*%
X51787500Y6250000D03*
%TO.P,R4,2*%
%TO.N,IN_CH*%
X54712500Y6250000D03*
%TD*%
D27*
%TO.P,C42,1*%
%TO.N,+5V*%
X56750000Y39987500D03*
%TO.P,C42,2*%
%TO.N,GND*%
X56750000Y37037500D03*
%TD*%
%TO.P,C24,1*%
%TO.N,+5V*%
X59500000Y29225000D03*
%TO.P,C24,2*%
%TO.N,GND*%
X59500000Y26275000D03*
%TD*%
D10*
%TO.P,R10,1*%
%TO.N,GND*%
X57750000Y16212500D03*
%TO.P,R10,2*%
%TO.N,RX_I*%
X57750000Y13287500D03*
%TD*%
D22*
%TO.P,J5,1,Pin_1*%
%TO.N,+3.3V*%
X12750000Y44780000D03*
D23*
%TO.P,J5,2,Pin_2*%
X10210000Y44780000D03*
%TO.P,J5,3,Pin_3*%
%TO.N,GND*%
X12750000Y42240000D03*
%TO.P,J5,4,Pin_4*%
X10210000Y42240000D03*
%TO.P,J5,5,Pin_5*%
%TO.N,GPIO11*%
X12750000Y39700000D03*
%TO.P,J5,6,Pin_6*%
%TO.N,GPIO12*%
X10210000Y39700000D03*
%TO.P,J5,7,Pin_7*%
%TO.N,GPIO18*%
X12750000Y37160000D03*
%TO.P,J5,8,Pin_8*%
%TO.N,GPIO19*%
X10210000Y37160000D03*
%TO.P,J5,9,Pin_9*%
%TO.N,GPIO20*%
X12750000Y34620000D03*
%TO.P,J5,10,Pin_10*%
%TO.N,GPIO21*%
X10210000Y34620000D03*
%TO.P,J5,11,Pin_11*%
%TO.N,GPIO22*%
X12750000Y32080000D03*
%TO.P,J5,12,Pin_12*%
%TO.N,GPIO28*%
X10210000Y32080000D03*
%TD*%
D10*
%TO.P,R13,1*%
%TO.N,Net-(C23-Pad2)*%
X64250000Y16212500D03*
%TO.P,R13,2*%
%TO.N,RX_Q*%
X64250000Y13287500D03*
%TD*%
D18*
%TO.P,R14,1*%
%TO.N,Net-(U4A--)*%
X69462500Y18250000D03*
%TO.P,R14,2*%
%TO.N,Net-(C23-Pad2)*%
X66537500Y18250000D03*
%TD*%
D34*
%TO.P,U4,1*%
%TO.N,Net-(C23-Pad2)*%
X61900000Y20525000D03*
%TO.P,U4,2,-*%
%TO.N,Net-(U4A--)*%
X61900000Y21175000D03*
%TO.P,U4,3,+*%
%TO.N,Net-(U4A-+)*%
X61900000Y21825000D03*
%TO.P,U4,4,V-*%
%TO.N,GND*%
X61900000Y22475000D03*
%TO.P,U4,5,+*%
%TO.N,Net-(U4B-+)*%
X57600000Y22475000D03*
%TO.P,U4,6,-*%
%TO.N,Net-(U4B--)*%
X57600000Y21825000D03*
%TO.P,U4,7*%
%TO.N,Net-(C19-Pad2)*%
X57600000Y21175000D03*
%TO.P,U4,8,V+*%
%TO.N,+5V*%
X57600000Y20525000D03*
D35*
%TO.P,U4,9*%
%TO.N,GND*%
X59750000Y21500000D03*
%TD*%
D36*
%TO.P,J7,1,1*%
%TO.N,Net-(U8-A)*%
X67000000Y53000000D03*
D37*
%TO.P,J7,2,2*%
%TO.N,GND*%
X71250000Y51425000D03*
X62750000Y51425000D03*
%TD*%
D10*
%TO.P,R15,1*%
%TO.N,GND*%
X62250000Y16212500D03*
%TO.P,R15,2*%
%TO.N,RX_Q*%
X62250000Y13287500D03*
%TD*%
D22*
%TO.P,J6,1,Pin_1*%
%TO.N,GND*%
X10210000Y4170000D03*
D23*
%TO.P,J6,2,Pin_2*%
%TO.N,+5V*%
X12750000Y4170000D03*
%TD*%
D38*
%TO.P,FB1,1*%
%TO.N,Net-(U8-B)*%
X63325000Y46750000D03*
%TO.P,FB1,2*%
%TO.N,Net-(C44-Pad2)*%
X60175000Y46750000D03*
%TD*%
D33*
%TO.P,C23,1*%
%TO.N,Net-(U4A--)*%
X69475000Y16000000D03*
%TO.P,C23,2*%
%TO.N,Net-(C23-Pad2)*%
X66525000Y16000000D03*
%TD*%
D12*
%TO.P,C44,1*%
%TO.N,Net-(C44-Pad1)*%
X55525000Y46725000D03*
%TO.P,C44,2*%
%TO.N,Net-(C44-Pad2)*%
X58475000Y46725000D03*
%TD*%
D22*
%TO.P,J2,1,Pin_1*%
%TO.N,GND*%
X10210000Y27000000D03*
D23*
%TO.P,J2,2,Pin_2*%
%TO.N,+5V*%
X12750000Y27000000D03*
%TD*%
D33*
%TO.P,C2,1*%
%TO.N,GND*%
X72475000Y6000000D03*
%TO.P,C2,2*%
%TO.N,+3.3V*%
X69525000Y6000000D03*
%TD*%
D10*
%TO.P,R1,1*%
%TO.N,Net-(C44-Pad1)*%
X53500000Y46687500D03*
%TO.P,R1,2*%
%TO.N,Net-(U6--)*%
X53500000Y43762500D03*
%TD*%
D24*
%TO.P,C32,1*%
%TO.N,GND*%
X62500000Y26275000D03*
%TO.P,C32,2*%
%TO.N,Net-(U5-2B4)*%
X62500000Y29225000D03*
%TD*%
D39*
%TO.N,+3.3V*%
X60000000Y11400000D03*
X66300000Y10450000D03*
X69750000Y2000000D03*
X19750000Y12000000D03*
X46750000Y48250000D03*
%TO.N,+5V*%
X59500000Y31000000D03*
X58750000Y40000000D03*
X55800000Y18700000D03*
%TO.N,ADC_RX_I*%
X59650000Y7600000D03*
X62050000Y8650000D03*
%TO.N,SCLK*%
X44750000Y47000000D03*
X62750000Y11000000D03*
%TO.N,ADC_RX_Q*%
X60875000Y8225000D03*
X61950000Y6500000D03*
%TO.N,~{CS}*%
X44500000Y44500000D03*
X67500000Y6500000D03*
%TO.N,CHSEL*%
X68050000Y7450000D03*
X44500000Y31750000D03*
%TO.N,SDATA_B*%
X47800000Y35550000D03*
X64150000Y12000000D03*
%TO.N,SDATA_A*%
X65100000Y11400000D03*
X44750000Y49500000D03*
%TO.N,GND*%
X50800000Y27950000D03*
X78500000Y28470000D03*
X64200000Y17800000D03*
X65750000Y51750000D03*
X58750000Y33250000D03*
X78500000Y31010000D03*
X50965000Y39750000D03*
X1750000Y20850000D03*
X1750000Y43710000D03*
X17600000Y33200000D03*
X69250000Y40000000D03*
X25250000Y10250000D03*
X1750000Y28470000D03*
X68750000Y45250000D03*
X71250000Y15000000D03*
X25250000Y22000000D03*
X36250000Y21250000D03*
X25250000Y17250000D03*
X18750000Y44500000D03*
X48250000Y48250000D03*
X78500000Y38630000D03*
X35000000Y12250000D03*
X39250000Y36500000D03*
X78500000Y20850000D03*
X32750000Y24500000D03*
X72750000Y10250000D03*
X39250000Y46750000D03*
X66500000Y43500000D03*
X58500000Y2500000D03*
X1750000Y15770000D03*
X39250000Y21250000D03*
X39250000Y8250000D03*
X39250000Y23750000D03*
X78500000Y18310000D03*
X78500000Y8150000D03*
X25250000Y40000000D03*
X47250000Y3750000D03*
X54500000Y24750000D03*
X78500000Y25930000D03*
X17750000Y43750000D03*
X56000000Y48750000D03*
X78500000Y33550000D03*
X64500000Y51250000D03*
X57000000Y24750000D03*
X71000000Y27000000D03*
X60750000Y48750000D03*
X48250000Y39750000D03*
X35000000Y10250000D03*
X66650000Y11800000D03*
X60750000Y50500000D03*
X32000000Y36500000D03*
X58500000Y48750000D03*
X32000000Y30250000D03*
X39250000Y6250000D03*
X62500000Y24500000D03*
X1750000Y41170000D03*
X39250000Y27000000D03*
X78500000Y41170000D03*
X66500000Y41500000D03*
X27750000Y50500000D03*
X15500000Y4250000D03*
X56250000Y2500000D03*
X61250000Y41500000D03*
X78500000Y23390000D03*
X1750000Y38630000D03*
X62650000Y17800000D03*
X30000000Y12250000D03*
X62650000Y19300000D03*
X39250000Y30250000D03*
X68250000Y50250000D03*
X25250000Y50500000D03*
X78500000Y36090000D03*
X1750000Y31010000D03*
X39250000Y10250000D03*
X17000000Y42500000D03*
X51000000Y31500000D03*
X78500000Y15770000D03*
X78500000Y43710000D03*
X18750000Y34250000D03*
X69000000Y30500000D03*
X64000000Y24500000D03*
X53250000Y24750000D03*
X58500000Y38000000D03*
X57000000Y27250000D03*
X30250000Y22000000D03*
X1750000Y23390000D03*
X25250000Y12250000D03*
X25250000Y33400000D03*
X1750000Y8150000D03*
X1750000Y10690000D03*
X78500000Y46250000D03*
X39250000Y12250000D03*
X1750000Y13230000D03*
X48250000Y37000000D03*
X51000000Y38500000D03*
X32000000Y33500000D03*
X32000000Y46750000D03*
X25250000Y2250000D03*
X66250000Y14000000D03*
X25250000Y30250000D03*
X17600000Y49650000D03*
X66500000Y45250000D03*
X30000000Y10250000D03*
X66250000Y12750000D03*
X1750000Y18310000D03*
X1750000Y33550000D03*
X71250000Y17750000D03*
X59500000Y24500000D03*
X1750000Y46250000D03*
X32000000Y40000000D03*
X25250000Y43750000D03*
X15500000Y6250000D03*
X71250000Y23750000D03*
X53000000Y2500000D03*
X61250000Y44750000D03*
X60200000Y32350000D03*
X1750000Y36090000D03*
X25250000Y6500000D03*
X72250000Y3750000D03*
X35250000Y17250000D03*
X48250000Y42250000D03*
X32250000Y49000000D03*
X25250000Y46750000D03*
X25250000Y19500000D03*
X67600000Y2600000D03*
X78500000Y13230000D03*
X39250000Y40000000D03*
X39250000Y33250000D03*
X51000000Y34500000D03*
X32000000Y27000000D03*
X78500000Y10690000D03*
X68250000Y52250000D03*
X51250000Y48250000D03*
X51750000Y24750000D03*
X25250000Y36500000D03*
X39250000Y43750000D03*
X1750000Y25930000D03*
X69000000Y29000000D03*
X64500000Y7500000D03*
X25250000Y27000000D03*
X72250000Y1600000D03*
X60750000Y52500000D03*
X71250000Y20500000D03*
X33000000Y19500000D03*
X61250000Y43000000D03*
X68500000Y2600000D03*
X32000000Y43750000D03*
X49000000Y32500000D03*
X70250000Y46750000D03*
X49000000Y2500000D03*
%TO.N,GPIO4*%
X45250000Y14500000D03*
%TO.N,GPIO16*%
X15750000Y22500000D03*
X17500000Y47000000D03*
%TO.N,GPIO5*%
X45250000Y17000000D03*
%TO.N,GPIO12*%
X44500000Y41500000D03*
%TO.N,GPIO2*%
X44750000Y9000000D03*
%TO.N,GPIO3*%
X44750000Y11500000D03*
%TO.N,GPIO11*%
X44500000Y39000000D03*
%TO.N,GPIO17*%
X15750000Y21350000D03*
X17500000Y45500000D03*
%TO.N,GPIO7*%
X44500000Y26750000D03*
%TO.N,GPIO6*%
X44500000Y24250000D03*
%TO.N,LO_I*%
X44950000Y6750000D03*
X60300000Y33750000D03*
%TO.N,LO_Q*%
X44950000Y4000000D03*
X69117500Y32325000D03*
%TD*%
D40*
%TO.N,+3.3V*%
X66100000Y8250000D02*
X65950000Y8250000D01*
D41*
X69750000Y4475000D02*
X69050000Y4475000D01*
X69750000Y3950000D02*
X69750000Y4475000D01*
X69050000Y4475000D02*
X69225000Y4475000D01*
X68750000Y4475000D02*
X65750000Y4475000D01*
X69750000Y5000000D02*
X69750000Y5300000D01*
X69050000Y4475000D02*
X68750000Y4475000D01*
X12750000Y21920000D02*
X10210000Y21920000D01*
X46750000Y46687500D02*
X46750000Y48250000D01*
X69525000Y8250000D02*
X69525000Y6000000D01*
X69525000Y10500000D02*
X69500000Y10525000D01*
D40*
X66500000Y8750000D02*
X66500000Y10250000D01*
X65950000Y8250000D02*
X66500000Y8250000D01*
X65950000Y8250000D02*
X66450000Y8250000D01*
D41*
X68250000Y10525000D02*
X69500000Y10525000D01*
D42*
X65750000Y4475000D02*
X64250000Y4475000D01*
D41*
X69750000Y2000000D02*
X69750000Y3950000D01*
X20280000Y13030000D02*
X23360000Y13030000D01*
X69225000Y4475000D02*
X69750000Y5000000D01*
X69525000Y8250000D02*
X69525000Y10500000D01*
X69225000Y4475000D02*
X69750000Y3950000D01*
X19750000Y12500000D02*
X20280000Y13030000D01*
D40*
X60000000Y9700000D02*
X60000000Y11400000D01*
X65250000Y4975000D02*
X65750000Y4475000D01*
D41*
X69750000Y2000000D02*
X69750000Y5000000D01*
D40*
X64750000Y4475000D02*
X64250000Y4475000D01*
X66500000Y8250000D02*
X66500000Y8750000D01*
D41*
X60000000Y11400000D02*
X60000000Y13275000D01*
X19750000Y12000000D02*
X19750000Y12500000D01*
X69500000Y10525000D02*
X70750000Y10525000D01*
X69525000Y5525000D02*
X69525000Y6000000D01*
D42*
X64250000Y4475000D02*
X63250000Y4475000D01*
D41*
X12750000Y44780000D02*
X10210000Y44780000D01*
X66300000Y10450000D02*
X66375000Y10525000D01*
X69750000Y5300000D02*
X69525000Y5525000D01*
X66375000Y10525000D02*
X68250000Y10525000D01*
D40*
X64250000Y6050000D02*
X64250000Y4475000D01*
D41*
X68750000Y4475000D02*
X69225000Y4475000D01*
D40*
X65250000Y6050000D02*
X65250000Y4975000D01*
X66500000Y8750000D02*
X66500000Y8650000D01*
X64750000Y6050000D02*
X64750000Y4475000D01*
X63750000Y6050000D02*
X63750000Y4975000D01*
X66500000Y8650000D02*
X66100000Y8250000D01*
X66500000Y10250000D02*
X66300000Y10450000D01*
X63750000Y4975000D02*
X63250000Y4475000D01*
%TO.N,RF_PREAMP*%
X54775000Y41800000D02*
X56737500Y41800000D01*
X56737500Y41800000D02*
X56750000Y41787500D01*
X52235000Y36650000D02*
X52235000Y35515000D01*
X52865000Y34885000D02*
X56885000Y34885000D01*
X60770000Y40020000D02*
X62167500Y40020000D01*
X54775000Y41800000D02*
X54775000Y40275000D01*
X59250000Y41750000D02*
X56787500Y41750000D01*
X52235000Y35515000D02*
X52865000Y34885000D01*
X54775000Y40275000D02*
X52235000Y37735000D01*
X60000000Y39250000D02*
X60770000Y40020000D01*
X56885000Y34885000D02*
X60000000Y38000000D01*
X52235000Y37735000D02*
X52235000Y36650000D01*
X60000000Y38000000D02*
X60000000Y39250000D01*
X56787500Y41750000D02*
X56750000Y41787500D01*
D43*
%TO.N,Net-(U6--)*%
X53505000Y43757500D02*
X53500000Y43762500D01*
D40*
X54450000Y44712500D02*
X53500000Y43762500D01*
X56762500Y44700000D02*
X56750000Y44712500D01*
X59250000Y44700000D02*
X56762500Y44700000D01*
X56750000Y44712500D02*
X54450000Y44712500D01*
X53505000Y41800000D02*
X53505000Y43757500D01*
%TO.N,Net-(C19-Pad2)*%
X55675000Y21175000D02*
X54750000Y20250000D01*
X53475000Y16000000D02*
X55287500Y16000000D01*
X53462500Y18250000D02*
X53475000Y18237500D01*
X54750000Y19537500D02*
X53462500Y18250000D01*
X54750000Y20250000D02*
X54750000Y19537500D01*
X57600000Y21175000D02*
X55675000Y21175000D01*
X53475000Y18237500D02*
X53475000Y16000000D01*
X55287500Y16000000D02*
X55500000Y16212500D01*
%TO.N,Net-(U4B--)*%
X50537500Y16012500D02*
X50525000Y16000000D01*
X52500000Y19500000D02*
X53462500Y20462500D01*
X53462500Y20462500D02*
X53462500Y20500000D01*
X50537500Y18250000D02*
X50537500Y16012500D01*
X50537500Y18250000D02*
X51787500Y19500000D01*
X53462500Y20500000D02*
X54787500Y21825000D01*
X54787500Y21825000D02*
X57600000Y21825000D01*
X51787500Y19500000D02*
X52500000Y19500000D01*
%TO.N,Net-(U5-2B2)*%
X51500000Y27000000D02*
X49500000Y25000000D01*
X49500000Y25000000D02*
X49500000Y21500000D01*
X53000000Y31975000D02*
X53025000Y31975000D01*
X54250000Y27000000D02*
X51500000Y27000000D01*
X54700000Y30300000D02*
X54700000Y27450000D01*
X53025000Y31975000D02*
X54700000Y30300000D01*
X49500000Y21500000D02*
X50500000Y20500000D01*
X54000000Y34250000D02*
X53000000Y33250000D01*
X50500000Y20500000D02*
X50537500Y20500000D01*
X62167500Y37480000D02*
X60480000Y37480000D01*
X57250000Y34250000D02*
X54000000Y34250000D01*
X53000000Y33250000D02*
X53000000Y31975000D01*
X54700000Y27450000D02*
X54250000Y27000000D01*
X60480000Y37480000D02*
X57250000Y34250000D01*
%TO.N,Net-(U5-2B3)*%
X57000000Y31975000D02*
X57000000Y33000000D01*
X54650000Y26450000D02*
X55250000Y27050000D01*
X55250000Y30250000D02*
X56975000Y31975000D01*
X50537500Y25187500D02*
X51800000Y26450000D01*
X56975000Y31975000D02*
X57000000Y31975000D01*
X50537500Y22750000D02*
X50537500Y25187500D01*
X55250000Y27050000D02*
X55250000Y30250000D01*
X57000000Y33000000D02*
X60210000Y36210000D01*
X60210000Y36210000D02*
X62167500Y36210000D01*
X51800000Y26450000D02*
X54650000Y26450000D01*
%TO.N,Net-(U4A--)*%
X64612500Y21175000D02*
X65287500Y20500000D01*
X67750000Y18250000D02*
X69462500Y18250000D01*
X61900000Y21175000D02*
X64612500Y21175000D01*
X69462500Y18250000D02*
X69462500Y16012500D01*
X65500000Y20500000D02*
X67750000Y18250000D01*
X65287500Y20500000D02*
X65500000Y20500000D01*
X69462500Y16012500D02*
X69475000Y16000000D01*
%TO.N,Net-(C23-Pad2)*%
X65287500Y18250000D02*
X66537500Y18250000D01*
X63012500Y20525000D02*
X65287500Y18250000D01*
X61900000Y20525000D02*
X63012500Y20525000D01*
X63712500Y16000000D02*
X66525000Y16000000D01*
X66525000Y18237500D02*
X66525000Y16000000D01*
X66537500Y18250000D02*
X66525000Y18237500D01*
D41*
%TO.N,+5V*%
X55870000Y18630000D02*
X58195000Y18630000D01*
X23360000Y2870000D02*
X14050000Y2870000D01*
X57600000Y20325000D02*
X57600000Y19025000D01*
X14050000Y2870000D02*
X12750000Y4170000D01*
X55760292Y39987500D02*
X56750000Y39987500D01*
X57600000Y19225000D02*
X58195000Y18630000D01*
X62167500Y31130000D02*
X59630000Y31130000D01*
X53505000Y36650000D02*
X53505000Y37732208D01*
X59500000Y29225000D02*
X59500000Y31000000D01*
X56750000Y39987500D02*
X58737500Y39987500D01*
X55800000Y18700000D02*
X55870000Y18630000D01*
X53505000Y37732208D02*
X55760292Y39987500D01*
X59630000Y31130000D02*
X59500000Y31000000D01*
X58737500Y39987500D02*
X58750000Y40000000D01*
D40*
%TO.N,Net-(U5-2B1)*%
X65500000Y29225000D02*
X67000000Y29225000D01*
X65500000Y29225000D02*
X65475000Y29225000D01*
X62167500Y38750000D02*
X63750000Y38750000D01*
X65025000Y29225000D02*
X65500000Y29225000D01*
X65500000Y29225000D02*
X65500000Y29200000D01*
X65000000Y26000000D02*
X66150000Y24850000D01*
X69500000Y20500000D02*
X68212500Y20500000D01*
X65500000Y29200000D02*
X65000000Y28700000D01*
X63750000Y38750000D02*
X65000000Y37500000D01*
X70000000Y21000000D02*
X69500000Y20500000D01*
X65000000Y29250000D02*
X65025000Y29225000D01*
X65000000Y29200000D02*
X65000000Y28700000D01*
X65475000Y29225000D02*
X65000000Y29700000D01*
X65000000Y37500000D02*
X65000000Y29700000D01*
X65000000Y28700000D02*
X65000000Y26000000D01*
X65025000Y29225000D02*
X65000000Y29200000D01*
X65000000Y29700000D02*
X65000000Y29250000D01*
X68650000Y24850000D02*
X70000000Y23500000D01*
X66150000Y24850000D02*
X68650000Y24850000D01*
X70000000Y23500000D02*
X70000000Y21000000D01*
%TO.N,Net-(U5-2B4)*%
X63560000Y34940000D02*
X62167500Y34940000D01*
X63875000Y29225000D02*
X64250000Y28850000D01*
X65800000Y24250000D02*
X64250000Y25800000D01*
X63875000Y29225000D02*
X64250000Y29600000D01*
X68212500Y22750000D02*
X66712500Y24250000D01*
X66712500Y24250000D02*
X65800000Y24250000D01*
X63700000Y29225000D02*
X63875000Y29225000D01*
X64250000Y34250000D02*
X63560000Y34940000D01*
X64250000Y29225000D02*
X63700000Y29225000D01*
X63700000Y29225000D02*
X62500000Y29225000D01*
X64250000Y25800000D02*
X64250000Y28850000D01*
X64250000Y29600000D02*
X64250000Y34250000D01*
X64250000Y28850000D02*
X64250000Y29600000D01*
%TO.N,Net-(C44-Pad2)*%
X58475000Y46725000D02*
X60150000Y46725000D01*
D43*
X60150000Y46725000D02*
X60175000Y46750000D01*
D40*
%TO.N,Net-(C44-Pad1)*%
X55525000Y46725000D02*
X53537500Y46725000D01*
X53537500Y46725000D02*
X53500000Y46687500D01*
X51250000Y46687500D02*
X53500000Y46687500D01*
D43*
%TO.N,Net-(U8-B)*%
X64250000Y46500000D02*
X64500000Y46750000D01*
X64000000Y46750000D02*
X64250000Y46750000D01*
X63325000Y46750000D02*
X64000000Y46750000D01*
X64250000Y46750000D02*
X64500000Y46750000D01*
X64250000Y44700000D02*
X64250000Y46250000D01*
X64250000Y46250000D02*
X64250000Y46500000D01*
X64250000Y46250000D02*
X64250000Y46750000D01*
X64500000Y46750000D02*
X65250000Y46750000D01*
X64250000Y46500000D02*
X64000000Y46750000D01*
D40*
%TO.N,ADC_RX_I*%
X63050000Y8250000D02*
X62450000Y8250000D01*
X59650000Y7600000D02*
X60000000Y7250000D01*
X60000000Y7250000D02*
X63050000Y7250000D01*
X59500000Y9700000D02*
X59500000Y7750000D01*
X62450000Y8250000D02*
X62050000Y8650000D01*
X59500000Y7750000D02*
X59650000Y7600000D01*
%TO.N,SCLK*%
X44750000Y47000000D02*
X43160000Y48590000D01*
X62750000Y11000000D02*
X63000000Y11000000D01*
X63000000Y11000000D02*
X64250000Y9750000D01*
X64250000Y9750000D02*
X64250000Y8950000D01*
X43160000Y48590000D02*
X41140000Y48590000D01*
%TO.N,ADC_RX_Q*%
X60500000Y9700000D02*
X60500000Y8600000D01*
X61350000Y7750000D02*
X63050000Y7750000D01*
X60500000Y8600000D02*
X60875000Y8225000D01*
X60875000Y8225000D02*
X61350000Y7750000D01*
X63050000Y6750000D02*
X62200000Y6750000D01*
X62200000Y6750000D02*
X61950000Y6500000D01*
%TO.N,~{CS}*%
X65950000Y7250000D02*
X66750000Y7250000D01*
X43510000Y43510000D02*
X44500000Y44500000D01*
X41140000Y43510000D02*
X43510000Y43510000D01*
X66750000Y7250000D02*
X67500000Y6500000D01*
%TO.N,CHSEL*%
X43560000Y30810000D02*
X44500000Y31750000D01*
X67750000Y7750000D02*
X65950000Y7750000D01*
X68050000Y7450000D02*
X67750000Y7750000D01*
X41140000Y30810000D02*
X43560000Y30810000D01*
%TO.N,SDATA_B*%
X64150000Y10900000D02*
X64750000Y10300000D01*
X41480000Y35550000D02*
X41140000Y35890000D01*
X47800000Y35550000D02*
X41480000Y35550000D01*
X64150000Y12000000D02*
X64150000Y10900000D01*
X64750000Y10300000D02*
X64750000Y8950000D01*
%TO.N,SDATA_A*%
X44750000Y49500000D02*
X43120000Y51130000D01*
X43120000Y51130000D02*
X41140000Y51130000D01*
X65100000Y11400000D02*
X65250000Y11250000D01*
X65250000Y11250000D02*
X65250000Y8950000D01*
%TO.N,IN_CH*%
X59500000Y6500000D02*
X58250000Y6500000D01*
X54712500Y6250000D02*
X56537500Y6250000D01*
X59150000Y6500000D02*
X58900000Y6250000D01*
X56537500Y6250000D02*
X56750000Y6037500D01*
X58650000Y6500000D02*
X58250000Y6500000D01*
X54712500Y6250000D02*
X54712500Y4962500D01*
X57212500Y6500000D02*
X56750000Y6037500D01*
X49227818Y4300000D02*
X47050000Y6477818D01*
X47050000Y25950000D02*
X44730000Y28270000D01*
X47050000Y6477818D02*
X47050000Y25950000D01*
X54050000Y4300000D02*
X49227818Y4300000D01*
X60700000Y6500000D02*
X59500000Y6500000D01*
X59500000Y6500000D02*
X59150000Y6500000D01*
X61000000Y6200000D02*
X60700000Y6500000D01*
X61000000Y5300000D02*
X61000000Y6200000D01*
X58900000Y6250000D02*
X58650000Y6500000D01*
X54712500Y4962500D02*
X54050000Y4300000D01*
X44730000Y28270000D02*
X41140000Y28270000D01*
X59000000Y5300000D02*
X59000000Y6150000D01*
X58250000Y6500000D02*
X57212500Y6500000D01*
X59000000Y6150000D02*
X58900000Y6250000D01*
%TO.N,RX_I*%
X57750000Y12000000D02*
X57750000Y13287500D01*
X59000000Y10750000D02*
X57750000Y12000000D01*
X59000000Y9700000D02*
X59000000Y10750000D01*
X55500000Y13287500D02*
X57750000Y13287500D01*
%TO.N,PICO_RX_I*%
X59500000Y5300000D02*
X59500000Y4500000D01*
X59500000Y4500000D02*
X58750000Y3750000D01*
X38700000Y16800000D02*
X29770000Y25730000D01*
X58750000Y3750000D02*
X49000000Y3750000D01*
X49000000Y3750000D02*
X46500000Y6250000D01*
X29770000Y25730000D02*
X28700000Y25730000D01*
X46500000Y6250000D02*
X46500000Y14500000D01*
X23360000Y25730000D02*
X28700000Y25730000D01*
X46500000Y14500000D02*
X44200000Y16800000D01*
D44*
X43800000Y16800000D02*
X38700000Y16800000D01*
D40*
X44200000Y16800000D02*
X43800000Y16800000D01*
%TO.N,PICO_RX_Q*%
X23420000Y23250000D02*
X23360000Y23190000D01*
X45750000Y12750000D02*
X45750000Y3550000D01*
X39900000Y14300000D02*
X30950000Y23250000D01*
X43650000Y14300000D02*
X44200000Y14300000D01*
X47900000Y1400000D02*
X59775000Y1400000D01*
D44*
X43650000Y14300000D02*
X39900000Y14300000D01*
D40*
X30950000Y23250000D02*
X25850000Y23250000D01*
X25850000Y23250000D02*
X23420000Y23250000D01*
X60500000Y2125000D02*
X60500000Y5300000D01*
X44200000Y14300000D02*
X45750000Y12750000D01*
X59775000Y1400000D02*
X60500000Y2125000D01*
X45750000Y3550000D02*
X47900000Y1400000D01*
%TO.N,RX_Q*%
X62250000Y12000000D02*
X62250000Y13287500D01*
X61000000Y9700000D02*
X61000000Y10750000D01*
X61000000Y10750000D02*
X62250000Y12000000D01*
X62250000Y13287500D02*
X64250000Y13287500D01*
%TO.N,SWCLK*%
X39800000Y53050000D02*
X48700000Y53050000D01*
X34790000Y50900000D02*
X34790000Y49660000D01*
X35200000Y49250000D02*
X36000000Y49250000D01*
X34790000Y49660000D02*
X35200000Y49250000D01*
X48700000Y53050000D02*
X50500000Y51250000D01*
X36000000Y49250000D02*
X39800000Y53050000D01*
%TO.N,GND*%
X63750000Y8450000D02*
X64500000Y7700000D01*
X64650000Y7500000D02*
X64500000Y7500000D01*
D41*
X70750000Y13475000D02*
X70750000Y14500000D01*
X57000000Y29025000D02*
X57000000Y27250000D01*
D40*
X57537500Y37037500D02*
X56750000Y37037500D01*
D41*
X45900000Y33350000D02*
X46250000Y33000000D01*
X50965000Y36650000D02*
X50965000Y34535000D01*
D40*
X60000000Y3500000D02*
X60000000Y5300000D01*
D41*
X60000000Y17000000D02*
X60000000Y16225000D01*
X66250000Y14000000D02*
X66775000Y13475000D01*
X25250000Y33400000D02*
X25200000Y33350000D01*
X69230000Y40020000D02*
X69250000Y40000000D01*
D40*
X59250000Y2750000D02*
X60000000Y3500000D01*
D42*
X41140000Y33350000D02*
X45900000Y33350000D01*
D40*
X64500000Y7700000D02*
X64500000Y7500000D01*
D41*
X61145000Y18630000D02*
X62770000Y18630000D01*
D40*
X63750000Y8950000D02*
X63750000Y8450000D01*
D41*
X72475000Y6000000D02*
X72475000Y3975000D01*
X65200000Y42300000D02*
X65250000Y42250000D01*
X49000000Y46687500D02*
X49000000Y48250000D01*
D40*
X65400000Y6750000D02*
X64650000Y7500000D01*
D41*
X72475000Y3975000D02*
X72250000Y3750000D01*
X50965000Y38465000D02*
X51000000Y38500000D01*
X63250000Y42250000D02*
X62000000Y42250000D01*
X62770000Y18630000D02*
X62800000Y18600000D01*
X50965000Y39750000D02*
X50965000Y41800000D01*
D40*
X65950000Y6750000D02*
X65400000Y6750000D01*
X61900000Y22475000D02*
X63125000Y22475000D01*
D41*
X59500000Y26275000D02*
X59500000Y24500000D01*
X32250000Y50900000D02*
X32250000Y49000000D01*
X56750000Y8962500D02*
X56750000Y10750000D01*
X62800000Y18600000D02*
X62800000Y18550000D01*
X50965000Y36650000D02*
X50965000Y38465000D01*
X72475000Y8250000D02*
X72475000Y6000000D01*
X50965000Y34535000D02*
X51000000Y34500000D01*
X62800000Y18550000D02*
X62750000Y18500000D01*
X61145000Y18145000D02*
X60000000Y17000000D01*
X70750000Y14500000D02*
X71250000Y15000000D01*
D42*
X37910000Y33350000D02*
X42670000Y33350000D01*
D41*
X61145000Y18630000D02*
X61145000Y18145000D01*
X66775000Y13475000D02*
X68250000Y13475000D01*
X62500000Y24500000D02*
X62500000Y26275000D01*
D40*
X63125000Y22475000D02*
X63650000Y23000000D01*
D41*
X58500000Y38000000D02*
X57537500Y37037500D01*
X25200000Y33350000D02*
X23360000Y33350000D01*
X63300000Y42300000D02*
X63250000Y42250000D01*
D40*
%TO.N,SWDIO*%
X43800000Y52450000D02*
X40200000Y52450000D01*
X53000000Y51250000D02*
X51400000Y49650000D01*
X40200000Y52450000D02*
X35700000Y47950000D01*
X29710000Y49390000D02*
X29710000Y50900000D01*
X46600000Y49650000D02*
X43800000Y52450000D01*
X35700000Y47950000D02*
X31150000Y47950000D01*
X51400000Y49650000D02*
X46600000Y49650000D01*
X53040000Y51250000D02*
X53000000Y51250000D01*
X31150000Y47950000D02*
X29710000Y49390000D01*
%TO.N,GPIO4*%
X44180000Y15570000D02*
X41140000Y15570000D01*
X45250000Y14500000D02*
X44180000Y15570000D01*
%TO.N,GPIO16*%
X17500000Y47000000D02*
X21630000Y51130000D01*
D43*
X15750000Y22500000D02*
X16550000Y21700000D01*
X16550000Y21700000D02*
X16550000Y11342894D01*
X14427106Y9220000D02*
X12750000Y9220000D01*
D40*
X21630000Y51130000D02*
X23360000Y51130000D01*
D43*
X16550000Y11342894D02*
X14427106Y9220000D01*
D40*
%TO.N,GPIO5*%
X44140000Y18110000D02*
X41140000Y18110000D01*
X45250000Y17000000D02*
X44140000Y18110000D01*
%TO.N,GPIO12*%
X41140000Y40970000D02*
X43970000Y40970000D01*
X43970000Y40970000D02*
X44500000Y41500000D01*
%TO.N,GPIO2*%
X41140000Y10490000D02*
X43260000Y10490000D01*
X43260000Y10490000D02*
X44750000Y9000000D01*
%TO.N,GPIO3*%
X41140000Y13030000D02*
X43220000Y13030000D01*
X43220000Y13030000D02*
X44750000Y11500000D01*
%TO.N,GPIO11*%
X43930000Y38430000D02*
X44500000Y39000000D01*
X41140000Y38430000D02*
X43930000Y38430000D01*
D43*
%TO.N,GPIO17*%
X10470000Y9220000D02*
X10210000Y9220000D01*
X16000000Y21100000D02*
X16000000Y11500000D01*
X16000000Y11500000D02*
X15000000Y10500000D01*
X15000000Y10500000D02*
X11750000Y10500000D01*
X11750000Y10500000D02*
X10470000Y9220000D01*
D40*
X17500000Y45500000D02*
X20590000Y48590000D01*
X20590000Y48590000D02*
X23360000Y48590000D01*
D43*
X15750000Y21350000D02*
X16000000Y21100000D01*
D40*
%TO.N,GPIO7*%
X41140000Y25730000D02*
X43480000Y25730000D01*
X43480000Y25730000D02*
X44500000Y26750000D01*
%TO.N,GPIO18*%
X12750000Y37160000D02*
X14160000Y37160000D01*
X20510000Y43510000D02*
X23360000Y43510000D01*
X14160000Y37160000D02*
X20510000Y43510000D01*
%TO.N,GPIO20*%
X14870000Y34620000D02*
X18680000Y38430000D01*
X18680000Y38430000D02*
X23360000Y38430000D01*
X12750000Y34620000D02*
X14870000Y34620000D01*
%TO.N,GPIO6*%
X43440000Y23190000D02*
X44500000Y24250000D01*
X41140000Y23190000D02*
X43440000Y23190000D01*
%TO.N,GPIO21*%
X11000000Y33750000D02*
X11500000Y33250000D01*
X16000000Y33250000D02*
X18500000Y35750000D01*
X23220000Y35750000D02*
X23360000Y35890000D01*
X10210000Y34620000D02*
X11000000Y33830000D01*
X11000000Y33830000D02*
X11000000Y33750000D01*
X18500000Y35750000D02*
X23220000Y35750000D01*
X11500000Y33250000D02*
X16000000Y33250000D01*
%TO.N,GPIO28*%
X20640000Y18110000D02*
X23360000Y18110000D01*
X17750000Y30750000D02*
X19250000Y29250000D01*
X19250000Y19500000D02*
X20640000Y18110000D01*
X19250000Y29250000D02*
X19250000Y19500000D01*
X10210000Y32080000D02*
X10210000Y32040000D01*
X20610000Y18110000D02*
X23360000Y18110000D01*
X11500000Y30750000D02*
X17750000Y30750000D01*
X10210000Y32040000D02*
X11500000Y30750000D01*
%TO.N,GPIO19*%
X19220000Y40970000D02*
X23360000Y40970000D01*
X10210000Y37160000D02*
X10340000Y37160000D01*
X11500000Y36000000D02*
X14250000Y36000000D01*
X10340000Y37160000D02*
X11500000Y36000000D01*
X14250000Y36000000D02*
X19220000Y40970000D01*
%TO.N,GPIO22*%
X20440000Y30810000D02*
X23360000Y30810000D01*
X19170000Y32080000D02*
X20440000Y30810000D01*
X12750000Y32080000D02*
X19170000Y32080000D01*
%TO.N,Net-(D2-A)*%
X51787500Y6250000D02*
X51787500Y8377500D01*
X51787500Y8377500D02*
X51910000Y8500000D01*
%TO.N,Net-(U4B-+)*%
X57525000Y22475000D02*
X57250000Y22750000D01*
X57250000Y22750000D02*
X53462500Y22750000D01*
X57600000Y22475000D02*
X57525000Y22475000D01*
%TO.N,Net-(U6-+)*%
X52235000Y41800000D02*
X52235000Y42777500D01*
X52235000Y42777500D02*
X51250000Y43762500D01*
X46750000Y43762500D02*
X49000000Y43762500D01*
X49000000Y43762500D02*
X51250000Y43762500D01*
%TO.N,Net-(U4A-+)*%
X64362500Y21825000D02*
X65287500Y22750000D01*
X61900000Y21825000D02*
X64362500Y21825000D01*
%TO.N,LO_I*%
X60632500Y33750000D02*
X60712500Y33670000D01*
X60300000Y33750000D02*
X60632500Y33750000D01*
X43610000Y5410000D02*
X41140000Y5410000D01*
X60712500Y33670000D02*
X62167500Y33670000D01*
X44950000Y6750000D02*
X43610000Y5410000D01*
%TO.N,LO_Q*%
X69042500Y32400000D02*
X69117500Y32325000D01*
X67117500Y32400000D02*
X69042500Y32400000D01*
X43820000Y2870000D02*
X41140000Y2870000D01*
X44950000Y4000000D02*
X43820000Y2870000D01*
%TO.N,Net-(U8-A)*%
X67000000Y51500000D02*
X65250000Y49750000D01*
X67000000Y53000000D02*
X67000000Y51500000D01*
%TD*%
%TA.AperFunction,Conductor*%
%TO.N,GND*%
G36*
X12284075Y19572993D02*
G01*
X12250000Y19445826D01*
X12250000Y19314174D01*
X12284075Y19187007D01*
X12316988Y19130000D01*
X10643012Y19130000D01*
X10675925Y19187007D01*
X10710000Y19314174D01*
X10710000Y19445826D01*
X10675925Y19572993D01*
X10643012Y19630000D01*
X12316988Y19630000D01*
X12284075Y19572993D01*
G37*
%TD.AperFunction*%
%TA.AperFunction,Conductor*%
G36*
X17846288Y52855546D02*
G01*
X17927070Y52801570D01*
X17981046Y52720788D01*
X18000000Y52625500D01*
X18000000Y48523086D01*
X17981046Y48427798D01*
X17927070Y48347016D01*
X17551736Y47971682D01*
X17470954Y47917706D01*
X17417901Y47904231D01*
X17418118Y47903213D01*
X17220203Y47861146D01*
X17220189Y47861142D01*
X17047271Y47784153D01*
X16894126Y47672886D01*
X16767469Y47532220D01*
X16681609Y47383505D01*
X16672821Y47368284D01*
X16658594Y47324499D01*
X16614325Y47188256D01*
X16594540Y47000000D01*
X16614325Y46811745D01*
X16619954Y46794422D01*
X16672821Y46631716D01*
X16767467Y46467784D01*
X16813541Y46416614D01*
X16863216Y46333118D01*
X16877157Y46236969D01*
X16853242Y46142803D01*
X16813541Y46083386D01*
X16767467Y46032217D01*
X16672822Y45868286D01*
X16672821Y45868284D01*
X16666370Y45848430D01*
X16614325Y45688256D01*
X16594540Y45500000D01*
X16614325Y45311745D01*
X16624571Y45280213D01*
X16672821Y45131716D01*
X16739975Y45015402D01*
X16767469Y44967781D01*
X16857057Y44868284D01*
X16894129Y44827112D01*
X16986756Y44759815D01*
X17047271Y44715848D01*
X17220189Y44638859D01*
X17220192Y44638858D01*
X17220197Y44638856D01*
X17405354Y44599500D01*
X17594645Y44599500D01*
X17594646Y44599500D01*
X17779803Y44638856D01*
X17830723Y44661527D01*
X17952728Y44715848D01*
X17952728Y44715849D01*
X17952730Y44715849D01*
X18105871Y44827112D01*
X18232533Y44967784D01*
X18327179Y45131716D01*
X18385674Y45311744D01*
X18394541Y45396121D01*
X18423350Y45488903D01*
X18466108Y45546163D01*
X19147016Y46227070D01*
X19227797Y46281046D01*
X19323085Y46300000D01*
X24709999Y46300000D01*
X24710000Y46300001D01*
X24710000Y46539737D01*
X24709999Y46539752D01*
X24703645Y46620492D01*
X24703643Y46620502D01*
X24653319Y46808313D01*
X24653318Y46808315D01*
X24565042Y46981568D01*
X24442676Y47132675D01*
X24433448Y47141903D01*
X24435730Y47144186D01*
X24388600Y47200840D01*
X24359779Y47293622D01*
X24368658Y47390370D01*
X24413884Y47476356D01*
X24434537Y47497008D01*
X24433804Y47497741D01*
X24443021Y47506960D01*
X24443032Y47506968D01*
X24565465Y47658160D01*
X24653788Y47831504D01*
X24704141Y48019422D01*
X24710500Y48100222D01*
X24710500Y49079778D01*
X24704141Y49160578D01*
X24653788Y49348496D01*
X24565465Y49521840D01*
X24564531Y49522993D01*
X24443036Y49673027D01*
X24443032Y49673032D01*
X24443026Y49673037D01*
X24433804Y49682259D01*
X24436094Y49684550D01*
X24388998Y49741162D01*
X24360177Y49833944D01*
X24369056Y49930692D01*
X24414283Y50016678D01*
X24434575Y50036970D01*
X24433804Y50037741D01*
X24443021Y50046960D01*
X24443032Y50046968D01*
X24565465Y50198160D01*
X24653788Y50371504D01*
X24704141Y50559422D01*
X24710500Y50640222D01*
X24710500Y50751000D01*
X24729454Y50846288D01*
X24783430Y50927070D01*
X24864212Y50981046D01*
X24959500Y51000000D01*
X28110500Y51000000D01*
X28205788Y50981046D01*
X28286570Y50927070D01*
X28340546Y50846288D01*
X28359500Y50751000D01*
X28359500Y50410222D01*
X28361989Y50378599D01*
X28365859Y50329423D01*
X28365860Y50329416D01*
X28416210Y50141510D01*
X28416211Y50141506D01*
X28504534Y49968161D01*
X28504537Y49968157D01*
X28592121Y49860000D01*
X28626968Y49816968D01*
X28626973Y49816964D01*
X28778156Y49694538D01*
X28778163Y49694533D01*
X28818619Y49673920D01*
X28923544Y49620459D01*
X28999840Y49560313D01*
X29047313Y49475546D01*
X29059500Y49398599D01*
X29059500Y49325931D01*
X29083456Y49205501D01*
X29083458Y49205490D01*
X29084498Y49200258D01*
X29084499Y49200255D01*
X29133535Y49081872D01*
X29204723Y48975331D01*
X30735331Y47444723D01*
X30841874Y47373534D01*
X30895159Y47351463D01*
X30960256Y47324499D01*
X30960259Y47324499D01*
X30960260Y47324498D01*
X30986221Y47319334D01*
X31085929Y47299501D01*
X31085930Y47299500D01*
X35579241Y47299500D01*
X35671656Y47281118D01*
X35742529Y47295215D01*
X35791107Y47300000D01*
X39690876Y47300000D01*
X39786164Y47281046D01*
X39866946Y47227070D01*
X39920922Y47146288D01*
X39939876Y47051000D01*
X39920922Y46955712D01*
X39912737Y46937957D01*
X39846681Y46808316D01*
X39846680Y46808313D01*
X39796356Y46620502D01*
X39796354Y46620492D01*
X39790000Y46539752D01*
X39790000Y46300001D01*
X39790001Y46300000D01*
X42041000Y46300000D01*
X42136288Y46281046D01*
X42217070Y46227070D01*
X42271046Y46146288D01*
X42290000Y46051000D01*
X42290000Y46049000D01*
X42271046Y45953712D01*
X42217070Y45872930D01*
X42136288Y45818954D01*
X42041000Y45800000D01*
X39790001Y45800000D01*
X39790000Y45799999D01*
X39790000Y45560249D01*
X39796354Y45479509D01*
X39796356Y45479499D01*
X39846680Y45291688D01*
X39846681Y45291686D01*
X39934957Y45118433D01*
X40057323Y44967326D01*
X40066552Y44958097D01*
X40064268Y44955814D01*
X40111392Y44899173D01*
X40140219Y44806393D01*
X40131345Y44709644D01*
X40086123Y44623655D01*
X40065465Y44602990D01*
X40066196Y44602259D01*
X40056963Y44593027D01*
X39934537Y44441844D01*
X39934534Y44441840D01*
X39846211Y44268495D01*
X39846210Y44268491D01*
X39795860Y44080585D01*
X39795859Y44080578D01*
X39789500Y43999778D01*
X39789500Y43020222D01*
X39795859Y42939423D01*
X39795860Y42939416D01*
X39846210Y42751510D01*
X39846211Y42751506D01*
X39934534Y42578161D01*
X39934537Y42578157D01*
X40019344Y42473430D01*
X40056968Y42426968D01*
X40056973Y42426964D01*
X40066196Y42417741D01*
X40063909Y42415455D01*
X40111029Y42358786D01*
X40139828Y42265997D01*
X40130927Y42169251D01*
X40085679Y42083276D01*
X40065429Y42063026D01*
X40066196Y42062259D01*
X40056963Y42053027D01*
X39934537Y41901844D01*
X39934534Y41901840D01*
X39846211Y41728495D01*
X39846210Y41728491D01*
X39795860Y41540585D01*
X39795859Y41540578D01*
X39789500Y41459778D01*
X39789500Y40480222D01*
X39795377Y40405546D01*
X39795859Y40399423D01*
X39795860Y40399416D01*
X39846210Y40211510D01*
X39846211Y40211506D01*
X39934534Y40038161D01*
X39934536Y40038158D01*
X40056968Y39886968D01*
X40056973Y39886964D01*
X40066196Y39877741D01*
X40063909Y39875455D01*
X40111029Y39818786D01*
X40139828Y39725997D01*
X40130927Y39629251D01*
X40085679Y39543276D01*
X40065429Y39523026D01*
X40066196Y39522259D01*
X40056963Y39513027D01*
X39934537Y39361844D01*
X39934534Y39361840D01*
X39846211Y39188495D01*
X39846210Y39188491D01*
X39795860Y39000585D01*
X39795859Y39000578D01*
X39789500Y38919778D01*
X39789500Y37940222D01*
X39795310Y37866400D01*
X39795859Y37859423D01*
X39795860Y37859416D01*
X39846210Y37671510D01*
X39846211Y37671506D01*
X39934534Y37498161D01*
X39934537Y37498157D01*
X40010493Y37404360D01*
X40056968Y37346968D01*
X40056973Y37346964D01*
X40066196Y37337741D01*
X40063909Y37335455D01*
X40111029Y37278786D01*
X40139828Y37185997D01*
X40130927Y37089251D01*
X40085679Y37003276D01*
X40065429Y36983026D01*
X40066196Y36982259D01*
X40056963Y36973027D01*
X39934537Y36821844D01*
X39934534Y36821840D01*
X39846211Y36648495D01*
X39846210Y36648491D01*
X39795860Y36460585D01*
X39795859Y36460578D01*
X39789500Y36379778D01*
X39789500Y35400222D01*
X39793421Y35350401D01*
X39795859Y35319423D01*
X39795860Y35319416D01*
X39846210Y35131510D01*
X39846211Y35131506D01*
X39934534Y34958161D01*
X39934537Y34958157D01*
X40056963Y34806974D01*
X40056968Y34806968D01*
X40056973Y34806964D01*
X40066196Y34797741D01*
X40063979Y34795525D01*
X40111416Y34738484D01*
X40140224Y34645698D01*
X40131331Y34548951D01*
X40086092Y34462971D01*
X40065788Y34442667D01*
X40066552Y34441903D01*
X40057323Y34432675D01*
X39934957Y34281568D01*
X39846681Y34108315D01*
X39846680Y34108313D01*
X39796356Y33920502D01*
X39796354Y33920492D01*
X39790000Y33839752D01*
X39790000Y33600001D01*
X39790001Y33600000D01*
X44289999Y33600000D01*
X44290000Y33600001D01*
X44290000Y33621541D01*
X44300000Y33671815D01*
X44300000Y34650500D01*
X44318954Y34745788D01*
X44372930Y34826570D01*
X44453712Y34880546D01*
X44549000Y34899500D01*
X47082409Y34899500D01*
X47177697Y34880546D01*
X47228767Y34851946D01*
X47347270Y34765849D01*
X47347271Y34765849D01*
X47347272Y34765848D01*
X47520189Y34688859D01*
X47520192Y34688858D01*
X47520197Y34688856D01*
X47705354Y34649500D01*
X47894645Y34649500D01*
X47894646Y34649500D01*
X48079803Y34688856D01*
X48083204Y34690370D01*
X48252728Y34765848D01*
X48252728Y34765849D01*
X48252730Y34765849D01*
X48405871Y34877112D01*
X48532533Y35017784D01*
X48627179Y35181716D01*
X48685674Y35361744D01*
X48705460Y35550000D01*
X48685674Y35738256D01*
X48646328Y35859350D01*
X50165000Y35859350D01*
X50167899Y35822514D01*
X50167901Y35822502D01*
X50213716Y35664805D01*
X50297315Y35523447D01*
X50413446Y35407316D01*
X50554805Y35323717D01*
X50712507Y35277901D01*
X50714999Y35277704D01*
X50715000Y35277705D01*
X50715000Y36399999D01*
X50714999Y36400000D01*
X50165001Y36400000D01*
X50165000Y36399999D01*
X50165000Y35859350D01*
X48646328Y35859350D01*
X48627179Y35918284D01*
X48532533Y36082216D01*
X48532531Y36082219D01*
X48532530Y36082220D01*
X48405873Y36222886D01*
X48405872Y36222887D01*
X48405871Y36222888D01*
X48308807Y36293409D01*
X48252728Y36334153D01*
X48079810Y36411142D01*
X48079796Y36411146D01*
X47894646Y36450500D01*
X47705354Y36450500D01*
X47699000Y36450500D01*
X47603712Y36469454D01*
X47522930Y36523430D01*
X47468954Y36604212D01*
X47450000Y36699500D01*
X47450000Y36900001D01*
X50165000Y36900001D01*
X50165001Y36900000D01*
X50714999Y36900000D01*
X50715000Y36900001D01*
X50715000Y38022298D01*
X50714999Y38022298D01*
X50712513Y38022101D01*
X50712502Y38022099D01*
X50554806Y37976284D01*
X50554804Y37976284D01*
X50413446Y37892685D01*
X50297315Y37776554D01*
X50213716Y37635196D01*
X50167901Y37477499D01*
X50167899Y37477487D01*
X50165000Y37440651D01*
X50165000Y36900001D01*
X47450000Y36900001D01*
X47450000Y41009350D01*
X50165000Y41009350D01*
X50167899Y40972514D01*
X50167901Y40972502D01*
X50213716Y40814805D01*
X50297315Y40673447D01*
X50413446Y40557316D01*
X50554805Y40473717D01*
X50712507Y40427901D01*
X50714999Y40427704D01*
X50715000Y40427705D01*
X50715000Y41549999D01*
X50714999Y41550000D01*
X50165001Y41550000D01*
X50165000Y41549999D01*
X50165000Y41009350D01*
X47450000Y41009350D01*
X47450000Y42504418D01*
X47468954Y42599706D01*
X47522930Y42680488D01*
X47603712Y42734464D01*
X47620666Y42740775D01*
X47694334Y42765186D01*
X47744285Y42795996D01*
X47835332Y42829886D01*
X47932422Y42826354D01*
X48005713Y42795997D01*
X48055666Y42765186D01*
X48222203Y42710001D01*
X48324991Y42699500D01*
X49675008Y42699501D01*
X49777797Y42710001D01*
X49795892Y42715997D01*
X49837677Y42729843D01*
X49934091Y42741824D01*
X50027750Y42715997D01*
X50104396Y42656294D01*
X50152361Y42571805D01*
X50165000Y42493482D01*
X50165000Y42050001D01*
X50165001Y42050000D01*
X50966000Y42050000D01*
X51061288Y42031046D01*
X51142070Y41977070D01*
X51196046Y41896288D01*
X51215000Y41801000D01*
X51215000Y40427705D01*
X51270023Y40376841D01*
X51327129Y40298240D01*
X51349808Y40203769D01*
X51350000Y40193996D01*
X51350000Y38255986D01*
X51331046Y38160698D01*
X51277070Y38079916D01*
X51269987Y38073108D01*
X51215000Y38022298D01*
X51215000Y35277704D01*
X51217487Y35277900D01*
X51281529Y35296506D01*
X51378322Y35304890D01*
X51470955Y35275594D01*
X51545326Y35213080D01*
X51590113Y35126864D01*
X51600000Y35057393D01*
X51600000Y32366161D01*
X51599677Y32353491D01*
X51599500Y32350018D01*
X51599500Y31600001D01*
X51599678Y31596526D01*
X51600000Y31583857D01*
X51600000Y29275001D01*
X51600001Y29275000D01*
X53001000Y29275000D01*
X53096288Y29256046D01*
X53177070Y29202070D01*
X53231046Y29121288D01*
X53250000Y29026000D01*
X53250000Y29024000D01*
X53231046Y28928712D01*
X53177070Y28847930D01*
X53096288Y28793954D01*
X53001000Y28775000D01*
X51600001Y28775000D01*
X51600000Y28774999D01*
X51600000Y27887485D01*
X51581046Y27792197D01*
X51527070Y27711415D01*
X51446288Y27657439D01*
X51399581Y27643270D01*
X51334889Y27630402D01*
X51315102Y27626466D01*
X51310255Y27625501D01*
X51310252Y27625501D01*
X51191877Y27576468D01*
X51191872Y27576465D01*
X51085334Y27505279D01*
X48994723Y25414670D01*
X48923534Y25308128D01*
X48874498Y25189742D01*
X48849500Y25064072D01*
X48849500Y25064069D01*
X48849500Y21435931D01*
X48866593Y21350000D01*
X48872614Y21319735D01*
X48872615Y21319718D01*
X48872617Y21319718D01*
X48874497Y21310260D01*
X48887942Y21277801D01*
X48923535Y21191873D01*
X48938484Y21169500D01*
X48994723Y21085331D01*
X49401570Y20678484D01*
X49455546Y20597702D01*
X49474500Y20502414D01*
X49474500Y19824994D01*
X49485001Y19722200D01*
X49540185Y19555668D01*
X49570994Y19505718D01*
X49604885Y19414666D01*
X49601353Y19317575D01*
X49570994Y19244282D01*
X49540184Y19194332D01*
X49485002Y19027803D01*
X49485001Y19027796D01*
X49474500Y18925012D01*
X49474500Y17574994D01*
X49485001Y17472200D01*
X49538076Y17312033D01*
X49540186Y17305666D01*
X49542764Y17301487D01*
X49550784Y17288484D01*
X49584675Y17197432D01*
X49581143Y17100341D01*
X49550784Y17027049D01*
X49515186Y16969336D01*
X49515184Y16969333D01*
X49460002Y16802803D01*
X49460001Y16802796D01*
X49449500Y16700012D01*
X49449500Y15299994D01*
X49460001Y15197200D01*
X49515184Y15030671D01*
X49515186Y15030666D01*
X49607288Y14881344D01*
X49731344Y14757288D01*
X49880666Y14665186D01*
X49880669Y14665185D01*
X49880667Y14665185D01*
X50044310Y14610960D01*
X50047203Y14610001D01*
X50149991Y14599500D01*
X50900008Y14599501D01*
X51002797Y14610001D01*
X51002799Y14610002D01*
X51002801Y14610002D01*
X51002801Y14610003D01*
X51026879Y14617982D01*
X51033567Y14620197D01*
X51129980Y14632179D01*
X51223640Y14606353D01*
X51231796Y14600000D01*
X53083836Y14600000D01*
X53096503Y14599678D01*
X53099965Y14599503D01*
X53099991Y14599500D01*
X53850008Y14599501D01*
X53850015Y14599501D01*
X53853470Y14599677D01*
X53866140Y14600000D01*
X54001000Y14600000D01*
X54096288Y14581046D01*
X54177070Y14527070D01*
X54231046Y14446288D01*
X54250000Y14351000D01*
X54250000Y14086925D01*
X54231046Y13991637D01*
X54212930Y13956209D01*
X54190185Y13919334D01*
X54190184Y13919333D01*
X54135002Y13752803D01*
X54135001Y13752796D01*
X54124500Y13650012D01*
X54124500Y12924994D01*
X54135001Y12822200D01*
X54190185Y12655668D01*
X54267124Y12530928D01*
X54282288Y12506344D01*
X54406344Y12382288D01*
X54555666Y12290186D01*
X54555669Y12290185D01*
X54555667Y12290185D01*
X54678822Y12249376D01*
X54722203Y12235001D01*
X54824991Y12224500D01*
X56175008Y12224501D01*
X56277797Y12235001D01*
X56444334Y12290186D01*
X56494285Y12320996D01*
X56585332Y12354886D01*
X56682422Y12351354D01*
X56755713Y12320997D01*
X56805666Y12290186D01*
X56805668Y12290186D01*
X56805669Y12290185D01*
X56928822Y12249376D01*
X57013311Y12201412D01*
X57073015Y12124766D01*
X57098842Y12031107D01*
X57099500Y12013015D01*
X57099500Y11935931D01*
X57114160Y11862230D01*
X57118483Y11840501D01*
X57118484Y11840497D01*
X57124499Y11810256D01*
X57178216Y11680571D01*
X57175973Y11679643D01*
X57198800Y11604406D01*
X57200000Y11579989D01*
X57200000Y10274000D01*
X57181046Y10178712D01*
X57127070Y10097930D01*
X57046288Y10043954D01*
X57012168Y10037168D01*
X57000000Y10024999D01*
X57000000Y8760715D01*
X56500000Y8796429D01*
X56500000Y10024999D01*
X56499999Y10025000D01*
X56075024Y10025000D01*
X55972300Y10014506D01*
X55972297Y10014505D01*
X55805880Y9959360D01*
X55805878Y9959359D01*
X55656658Y9867319D01*
X55645276Y9858319D01*
X55644175Y9859712D01*
X55578074Y9815550D01*
X55482785Y9796602D01*
X55404479Y9809240D01*
X55237694Y9864506D01*
X55134981Y9875000D01*
X54960001Y9875000D01*
X54960000Y9874999D01*
X54960000Y8499000D01*
X54941046Y8403712D01*
X54887070Y8322930D01*
X54806288Y8268954D01*
X54711000Y8250000D01*
X54434468Y8250000D01*
X54279149Y8750000D01*
X54459999Y8750000D01*
X54460000Y8750001D01*
X54460000Y9875001D01*
X54285024Y9875000D01*
X54182302Y9864506D01*
X54176667Y9862638D01*
X54098347Y9850000D01*
X52523241Y9850000D01*
X52444919Y9862639D01*
X52437797Y9864999D01*
X52335009Y9875500D01*
X52335005Y9875500D01*
X51484993Y9875500D01*
X51382200Y9864999D01*
X51375084Y9862640D01*
X51296758Y9850000D01*
X47949500Y9850000D01*
X47854212Y9868954D01*
X47773430Y9922930D01*
X47719454Y10003712D01*
X47700500Y10099000D01*
X47700500Y26014070D01*
X47700499Y26014072D01*
X47698920Y26022009D01*
X47675501Y26139744D01*
X47626465Y26258127D01*
X47598100Y26300578D01*
X47555276Y26364670D01*
X45472930Y28447016D01*
X45418954Y28527798D01*
X45400000Y28623086D01*
X45400000Y31566450D01*
X45400251Y31568036D01*
X45400000Y31571618D01*
X45400000Y31685002D01*
X45401364Y31711029D01*
X45405460Y31750000D01*
X45385674Y31938256D01*
X45327179Y32118284D01*
X45232533Y32282216D01*
X45232531Y32282219D01*
X45232530Y32282220D01*
X45105873Y32422886D01*
X45105872Y32422887D01*
X45105871Y32422888D01*
X44981490Y32513256D01*
X44952728Y32534153D01*
X44779810Y32611142D01*
X44779796Y32611146D01*
X44594646Y32650500D01*
X44539000Y32650500D01*
X44443712Y32669454D01*
X44362930Y32723430D01*
X44308954Y32804212D01*
X44290000Y32899500D01*
X44290000Y33099999D01*
X44289999Y33100000D01*
X39790001Y33100000D01*
X39790000Y33099999D01*
X39790000Y32860249D01*
X39796354Y32779509D01*
X39796356Y32779499D01*
X39846680Y32591688D01*
X39846681Y32591686D01*
X39934957Y32418433D01*
X40057323Y32267326D01*
X40066552Y32258097D01*
X40064268Y32255814D01*
X40111392Y32199173D01*
X40140219Y32106393D01*
X40131345Y32009644D01*
X40086123Y31923655D01*
X40065465Y31902990D01*
X40066196Y31902259D01*
X40056963Y31893027D01*
X39934537Y31741844D01*
X39934534Y31741840D01*
X39846211Y31568495D01*
X39846210Y31568491D01*
X39795860Y31380585D01*
X39795859Y31380578D01*
X39789500Y31299778D01*
X39789500Y30320222D01*
X39795442Y30244725D01*
X39795859Y30239423D01*
X39795860Y30239416D01*
X39846210Y30051510D01*
X39846211Y30051506D01*
X39888022Y29969446D01*
X39934535Y29878160D01*
X40056968Y29726968D01*
X40056973Y29726964D01*
X40066196Y29717741D01*
X40063909Y29715455D01*
X40111029Y29658786D01*
X40139828Y29565997D01*
X40130927Y29469251D01*
X40085679Y29383276D01*
X40065429Y29363026D01*
X40066196Y29362259D01*
X40056963Y29353027D01*
X39934537Y29201844D01*
X39934534Y29201840D01*
X39846211Y29028495D01*
X39846210Y29028491D01*
X39795860Y28840585D01*
X39795859Y28840578D01*
X39789500Y28759778D01*
X39789500Y27780222D01*
X39794915Y27711415D01*
X39795859Y27699423D01*
X39795860Y27699416D01*
X39846210Y27511510D01*
X39846211Y27511506D01*
X39934534Y27338161D01*
X39934537Y27338157D01*
X40017742Y27235408D01*
X40056968Y27186968D01*
X40056973Y27186964D01*
X40066196Y27177741D01*
X40063909Y27175455D01*
X40111029Y27118786D01*
X40139828Y27025997D01*
X40130927Y26929251D01*
X40085679Y26843276D01*
X40065429Y26823026D01*
X40066196Y26822259D01*
X40056963Y26813027D01*
X39934537Y26661844D01*
X39934534Y26661840D01*
X39846211Y26488495D01*
X39846210Y26488491D01*
X39795860Y26300585D01*
X39795859Y26300578D01*
X39789500Y26219778D01*
X39789500Y25240222D01*
X39795859Y25159423D01*
X39795860Y25159416D01*
X39846210Y24971510D01*
X39846211Y24971506D01*
X39934534Y24798161D01*
X39934536Y24798158D01*
X40056968Y24646968D01*
X40056973Y24646964D01*
X40066196Y24637741D01*
X40063909Y24635455D01*
X40111029Y24578786D01*
X40139828Y24485997D01*
X40130927Y24389251D01*
X40085679Y24303276D01*
X40065429Y24283026D01*
X40066196Y24282259D01*
X40056963Y24273027D01*
X39934537Y24121844D01*
X39934534Y24121840D01*
X39846211Y23948495D01*
X39846210Y23948491D01*
X39795860Y23760585D01*
X39795859Y23760578D01*
X39789500Y23679778D01*
X39789500Y22700222D01*
X39795089Y22629212D01*
X39795859Y22619423D01*
X39795860Y22619416D01*
X39846210Y22431510D01*
X39846211Y22431506D01*
X39934534Y22258161D01*
X39934537Y22258157D01*
X40036932Y22131710D01*
X40056968Y22106968D01*
X40056973Y22106964D01*
X40066196Y22097741D01*
X40063979Y22095525D01*
X40111416Y22038484D01*
X40140224Y21945698D01*
X40131331Y21848951D01*
X40086092Y21762971D01*
X40065788Y21742667D01*
X40066552Y21741903D01*
X40057323Y21732675D01*
X39934957Y21581568D01*
X39846681Y21408315D01*
X39846680Y21408313D01*
X39796356Y21220502D01*
X39796354Y21220492D01*
X39790000Y21139752D01*
X39790000Y20900001D01*
X39790001Y20900000D01*
X42041000Y20900000D01*
X42136288Y20881046D01*
X42217070Y20827070D01*
X42271046Y20746288D01*
X42290000Y20651000D01*
X42290000Y20649000D01*
X42271046Y20553712D01*
X42217070Y20472930D01*
X42136288Y20418954D01*
X42041000Y20400000D01*
X36123086Y20400000D01*
X36027798Y20418954D01*
X35947016Y20472930D01*
X30184669Y26235277D01*
X30078127Y26306466D01*
X29982857Y26345927D01*
X29959744Y26355501D01*
X29959742Y26355502D01*
X29959741Y26355502D01*
X29834071Y26380500D01*
X29834069Y26380500D01*
X28764069Y26380500D01*
X24861402Y26380500D01*
X24766114Y26399454D01*
X24685332Y26453430D01*
X24639543Y26516453D01*
X24565465Y26661840D01*
X24500655Y26741873D01*
X24443036Y26813027D01*
X24443032Y26813032D01*
X24443026Y26813037D01*
X24433804Y26822259D01*
X24436094Y26824550D01*
X24388998Y26881162D01*
X24360177Y26973944D01*
X24369056Y27070692D01*
X24414283Y27156678D01*
X24434575Y27176970D01*
X24433804Y27177741D01*
X24443021Y27186960D01*
X24443032Y27186968D01*
X24565465Y27338160D01*
X24653788Y27511504D01*
X24704141Y27699422D01*
X24710500Y27780222D01*
X24710500Y28759778D01*
X24704141Y28840578D01*
X24653788Y29028496D01*
X24565465Y29201840D01*
X24443032Y29353032D01*
X24443026Y29353037D01*
X24433804Y29362259D01*
X24436094Y29364550D01*
X24388998Y29421162D01*
X24360177Y29513944D01*
X24369056Y29610692D01*
X24414283Y29696678D01*
X24434575Y29716970D01*
X24433804Y29717741D01*
X24443021Y29726960D01*
X24443032Y29726968D01*
X24565465Y29878160D01*
X24653788Y30051504D01*
X24704141Y30239422D01*
X24710500Y30320222D01*
X24710500Y31299778D01*
X24704141Y31380578D01*
X24653788Y31568496D01*
X24565465Y31741840D01*
X24558856Y31750001D01*
X24443036Y31893027D01*
X24443032Y31893032D01*
X24443026Y31893037D01*
X24433804Y31902259D01*
X24436019Y31904475D01*
X24388577Y31961527D01*
X24359774Y32054314D01*
X24368671Y32151061D01*
X24413915Y32237039D01*
X24434215Y32257330D01*
X24433448Y32258097D01*
X24442676Y32267326D01*
X24565042Y32418433D01*
X24653318Y32591686D01*
X24653319Y32591688D01*
X24703643Y32779499D01*
X24703645Y32779509D01*
X24709999Y32860249D01*
X24710000Y32860263D01*
X24710000Y33099999D01*
X24709999Y33100000D01*
X20210001Y33100000D01*
X20210000Y33099999D01*
X20210000Y32949000D01*
X20191046Y32853712D01*
X20137070Y32772930D01*
X20056288Y32718954D01*
X19961000Y32700000D01*
X19411924Y32700000D01*
X19363345Y32704785D01*
X19234071Y32730500D01*
X19234069Y32730500D01*
X17449000Y32730500D01*
X17353712Y32749454D01*
X17272930Y32803430D01*
X17218954Y32884212D01*
X17200000Y32979500D01*
X17200000Y33426914D01*
X17218954Y33522202D01*
X17272930Y33602984D01*
X18696516Y35026570D01*
X18777298Y35080546D01*
X18872586Y35099500D01*
X19951000Y35099500D01*
X20046288Y35080546D01*
X20127070Y35026570D01*
X20181046Y34945788D01*
X20200000Y34850500D01*
X20200000Y33892240D01*
X20195393Y33857255D01*
X20200000Y33810791D01*
X20200000Y33610001D01*
X20210001Y33600000D01*
X24709999Y33600000D01*
X24710000Y33600001D01*
X24710000Y33839737D01*
X24709999Y33839752D01*
X24703645Y33920492D01*
X24703643Y33920502D01*
X24653319Y34108313D01*
X24653318Y34108315D01*
X24565042Y34281568D01*
X24442676Y34432675D01*
X24433448Y34441903D01*
X24435730Y34444186D01*
X24388600Y34500840D01*
X24359779Y34593622D01*
X24368658Y34690370D01*
X24413884Y34776356D01*
X24434537Y34797008D01*
X24433804Y34797741D01*
X24443021Y34806960D01*
X24443032Y34806968D01*
X24565465Y34958160D01*
X24653788Y35131504D01*
X24704141Y35319422D01*
X24710500Y35400222D01*
X24710500Y36379778D01*
X24704141Y36460578D01*
X24653788Y36648496D01*
X24565465Y36821840D01*
X24546710Y36845000D01*
X24463828Y36947351D01*
X24443032Y36973032D01*
X24443026Y36973037D01*
X24433804Y36982259D01*
X24436094Y36984550D01*
X24388998Y37041162D01*
X24360177Y37133944D01*
X24369056Y37230692D01*
X24414283Y37316678D01*
X24434575Y37336970D01*
X24433804Y37337741D01*
X24443021Y37346960D01*
X24443032Y37346968D01*
X24565465Y37498160D01*
X24653788Y37671504D01*
X24704141Y37859422D01*
X24710500Y37940222D01*
X24710500Y38919778D01*
X24704141Y39000578D01*
X24653788Y39188496D01*
X24565465Y39361840D01*
X24496168Y39447414D01*
X24443036Y39513027D01*
X24443032Y39513032D01*
X24443026Y39513037D01*
X24433804Y39522259D01*
X24436094Y39524550D01*
X24388998Y39581162D01*
X24360177Y39673944D01*
X24369056Y39770692D01*
X24414283Y39856678D01*
X24434575Y39876970D01*
X24433804Y39877741D01*
X24443021Y39886960D01*
X24443032Y39886968D01*
X24565465Y40038160D01*
X24653788Y40211504D01*
X24704141Y40399422D01*
X24710500Y40480222D01*
X24710500Y41459778D01*
X24704141Y41540578D01*
X24653788Y41728496D01*
X24565465Y41901840D01*
X24443032Y42053032D01*
X24443026Y42053037D01*
X24433804Y42062259D01*
X24436094Y42064550D01*
X24388998Y42121162D01*
X24360177Y42213944D01*
X24369056Y42310692D01*
X24414283Y42396678D01*
X24434575Y42416970D01*
X24433804Y42417741D01*
X24443021Y42426960D01*
X24443032Y42426968D01*
X24565465Y42578160D01*
X24653788Y42751504D01*
X24704141Y42939422D01*
X24710500Y43020222D01*
X24710500Y43999778D01*
X24704141Y44080578D01*
X24653788Y44268496D01*
X24565465Y44441840D01*
X24443032Y44593032D01*
X24443026Y44593037D01*
X24433804Y44602259D01*
X24436019Y44604475D01*
X24388577Y44661527D01*
X24359774Y44754314D01*
X24368671Y44851061D01*
X24413915Y44937039D01*
X24434215Y44957330D01*
X24433448Y44958097D01*
X24442676Y44967326D01*
X24565042Y45118433D01*
X24653318Y45291686D01*
X24653319Y45291688D01*
X24703643Y45479499D01*
X24703645Y45479509D01*
X24709999Y45560249D01*
X24710000Y45560263D01*
X24710000Y45799999D01*
X24709999Y45800000D01*
X20210001Y45800000D01*
X20210000Y45799999D01*
X20210000Y45560249D01*
X20216354Y45479509D01*
X20216356Y45479499D01*
X20266680Y45291688D01*
X20266681Y45291686D01*
X20354957Y45118433D01*
X20477323Y44967326D01*
X20486552Y44958097D01*
X20484268Y44955814D01*
X20531392Y44899173D01*
X20560219Y44806393D01*
X20551345Y44709644D01*
X20506123Y44623655D01*
X20485465Y44602990D01*
X20486196Y44602259D01*
X20476963Y44593027D01*
X20354537Y44441844D01*
X20354532Y44441836D01*
X20266212Y44268500D01*
X20266212Y44268498D01*
X20245085Y44189653D01*
X20202113Y44102518D01*
X20142909Y44047067D01*
X20095333Y44015278D01*
X18102984Y42022930D01*
X18022202Y41968954D01*
X17926914Y41950000D01*
X14234122Y41950000D01*
X14138834Y41968954D01*
X14107336Y41990000D01*
X13183012Y41990000D01*
X13215925Y42047007D01*
X13250000Y42174174D01*
X13250000Y42305826D01*
X13215925Y42432993D01*
X13183012Y42490000D01*
X14080636Y42490000D01*
X14080636Y42490002D01*
X14023433Y42703484D01*
X14023429Y42703495D01*
X13923603Y42917572D01*
X13923599Y42917580D01*
X13788106Y43111082D01*
X13784704Y43115137D01*
X13782665Y43118853D01*
X13781874Y43119983D01*
X13781997Y43120070D01*
X13737974Y43200315D01*
X13727398Y43296893D01*
X13754585Y43390166D01*
X13815397Y43465936D01*
X13828540Y43474907D01*
X13828073Y43475531D01*
X13842329Y43486204D01*
X13842331Y43486204D01*
X13957546Y43572454D01*
X14043796Y43687669D01*
X14094091Y43822517D01*
X14100500Y43882127D01*
X14100499Y45677872D01*
X14094091Y45737483D01*
X14043796Y45872331D01*
X13957546Y45987546D01*
X13842331Y46073796D01*
X13762117Y46103714D01*
X13707481Y46124092D01*
X13647873Y46130500D01*
X11852134Y46130500D01*
X11852130Y46130500D01*
X11852128Y46130499D01*
X11839314Y46129122D01*
X11792519Y46124092D01*
X11792515Y46124091D01*
X11657670Y46073797D01*
X11542455Y45987547D01*
X11542453Y45987545D01*
X11517371Y45954039D01*
X11456653Y45872930D01*
X11445531Y45858073D01*
X11442234Y45860541D01*
X11401587Y45811949D01*
X11315478Y45766956D01*
X11218706Y45758340D01*
X11126003Y45787413D01*
X11085387Y45815151D01*
X11081403Y45818493D01*
X11081401Y45818495D01*
X10887830Y45954035D01*
X10673663Y46053903D01*
X10673660Y46053904D01*
X10445401Y46115065D01*
X10210005Y46135659D01*
X10209995Y46135659D01*
X9974598Y46115065D01*
X9746335Y46053903D01*
X9746333Y46053902D01*
X9532177Y45954039D01*
X9532169Y45954035D01*
X9338600Y45818496D01*
X9171504Y45651400D01*
X9035965Y45457831D01*
X9035961Y45457823D01*
X8936098Y45243667D01*
X8936097Y45243665D01*
X8874935Y45015402D01*
X8854341Y44780006D01*
X8854341Y44779995D01*
X8874935Y44544599D01*
X8874937Y44544592D01*
X8936097Y44316337D01*
X8977698Y44227124D01*
X9035965Y44102170D01*
X9165304Y43917454D01*
X9171505Y43908599D01*
X9338599Y43741505D01*
X9378362Y43713662D01*
X9445544Y43643483D01*
X9480757Y43552933D01*
X9478638Y43455802D01*
X9439509Y43366874D01*
X9378364Y43305728D01*
X9338923Y43278111D01*
X9171889Y43111077D01*
X9036400Y42917580D01*
X9036396Y42917572D01*
X8936570Y42703495D01*
X8936566Y42703484D01*
X8879363Y42490002D01*
X8879364Y42490000D01*
X9776988Y42490000D01*
X9744075Y42432993D01*
X9710000Y42305826D01*
X9710000Y42174174D01*
X9744075Y42047007D01*
X9776988Y41990000D01*
X8879364Y41990000D01*
X8879363Y41989999D01*
X8936566Y41776517D01*
X8936566Y41776515D01*
X9036399Y41562424D01*
X9171889Y41368924D01*
X9338923Y41201890D01*
X9378361Y41174275D01*
X9445545Y41104093D01*
X9480757Y41013544D01*
X9478638Y40916412D01*
X9439509Y40827485D01*
X9378363Y40766339D01*
X9338602Y40738498D01*
X9171504Y40571400D01*
X9035965Y40377831D01*
X9035961Y40377823D01*
X8936098Y40163667D01*
X8936097Y40163665D01*
X8874935Y39935402D01*
X8854341Y39700006D01*
X8854341Y39699995D01*
X8874935Y39464599D01*
X8912633Y39323905D01*
X8936097Y39236337D01*
X9030391Y39034124D01*
X9035965Y39022170D01*
X9110795Y38915301D01*
X9171505Y38828599D01*
X9338599Y38661505D01*
X9377925Y38633969D01*
X9445107Y38563791D01*
X9480321Y38473242D01*
X9478202Y38376110D01*
X9439074Y38287182D01*
X9377928Y38226035D01*
X9338603Y38198499D01*
X9171504Y38031400D01*
X9035965Y37837831D01*
X9035961Y37837823D01*
X8936098Y37623667D01*
X8936097Y37623665D01*
X8874935Y37395402D01*
X8854341Y37160006D01*
X8854341Y37159995D01*
X8874935Y36924599D01*
X8936096Y36696340D01*
X9035965Y36482170D01*
X9110655Y36375501D01*
X9171505Y36288599D01*
X9338599Y36121505D01*
X9377925Y36093969D01*
X9445107Y36023791D01*
X9480321Y35933242D01*
X9478202Y35836110D01*
X9439074Y35747182D01*
X9377928Y35686035D01*
X9338603Y35658499D01*
X9171504Y35491400D01*
X9035965Y35297831D01*
X9035961Y35297823D01*
X8936098Y35083667D01*
X8936097Y35083665D01*
X8874935Y34855402D01*
X8854341Y34620006D01*
X8854341Y34619995D01*
X8874935Y34384599D01*
X8917219Y34226789D01*
X8936097Y34156337D01*
X9035965Y33942170D01*
X9171505Y33748599D01*
X9338599Y33581505D01*
X9377925Y33553969D01*
X9445107Y33483791D01*
X9480321Y33393242D01*
X9478202Y33296110D01*
X9439074Y33207182D01*
X9377928Y33146035D01*
X9338603Y33118499D01*
X9171504Y32951400D01*
X9035965Y32757831D01*
X9035961Y32757823D01*
X8936098Y32543667D01*
X8936097Y32543665D01*
X8874935Y32315402D01*
X8854341Y32080006D01*
X8854341Y32079995D01*
X8874935Y31844599D01*
X8910724Y31711029D01*
X8936097Y31616337D01*
X8977616Y31527299D01*
X9035965Y31402170D01*
X9165073Y31217784D01*
X9171505Y31208599D01*
X9338599Y31041505D01*
X9532170Y30905965D01*
X9746337Y30806097D01*
X9974592Y30744937D01*
X9974595Y30744937D01*
X9974598Y30744936D01*
X10209995Y30724341D01*
X10210000Y30724341D01*
X10210005Y30724341D01*
X10456238Y30745884D01*
X10456497Y30742919D01*
X10533513Y30741283D01*
X10622463Y30702205D01*
X10655830Y30674224D01*
X11085330Y30244724D01*
X11144369Y30205276D01*
X11191873Y30173535D01*
X11191875Y30173534D01*
X11191877Y30173533D01*
X11221201Y30161387D01*
X11310256Y30124499D01*
X11435929Y30099501D01*
X11435930Y30099500D01*
X11435931Y30099500D01*
X17377414Y30099500D01*
X17472702Y30080546D01*
X17553484Y30026570D01*
X18526570Y29053484D01*
X18580546Y28972702D01*
X18599500Y28877414D01*
X18599500Y19435931D01*
X18615735Y19354314D01*
X18617039Y19347762D01*
X18617039Y19347759D01*
X18624498Y19310259D01*
X18624499Y19310255D01*
X18673534Y19191873D01*
X18744723Y19085331D01*
X19927070Y17902984D01*
X19981046Y17822202D01*
X20000000Y17726914D01*
X20000000Y13878622D01*
X19981046Y13783334D01*
X19927070Y13702552D01*
X19889337Y13671586D01*
X19801585Y13612953D01*
X19801583Y13612951D01*
X19167050Y12978419D01*
X19167049Y12978418D01*
X19117812Y12904728D01*
X19084917Y12855498D01*
X19084915Y12855493D01*
X19028341Y12718912D01*
X18999500Y12573921D01*
X18999500Y12567816D01*
X18998309Y12561831D01*
X18998301Y12561745D01*
X18998292Y12561746D01*
X18980546Y12472528D01*
X18966141Y12443318D01*
X18922823Y12368289D01*
X18864325Y12188256D01*
X18844540Y12000000D01*
X18864325Y11811745D01*
X18881140Y11759995D01*
X18922821Y11631716D01*
X19017467Y11467784D01*
X19017469Y11467781D01*
X19106004Y11369454D01*
X19144129Y11327112D01*
X19252342Y11248491D01*
X19297271Y11215848D01*
X19470189Y11138859D01*
X19470192Y11138858D01*
X19470197Y11138856D01*
X19655354Y11099500D01*
X19844643Y11099500D01*
X19844646Y11099500D01*
X19908733Y11113123D01*
X20005876Y11114394D01*
X20096114Y11078392D01*
X20165707Y11010599D01*
X20204059Y10921334D01*
X20209500Y10869563D01*
X20209500Y10000222D01*
X20212716Y9959360D01*
X20215859Y9919423D01*
X20215860Y9919416D01*
X20266210Y9731510D01*
X20266211Y9731506D01*
X20354534Y9558161D01*
X20354537Y9558157D01*
X20476963Y9406974D01*
X20476968Y9406968D01*
X20476973Y9406964D01*
X20486196Y9397741D01*
X20483979Y9395525D01*
X20531416Y9338484D01*
X20560224Y9245698D01*
X20551331Y9148951D01*
X20506092Y9062971D01*
X20485788Y9042667D01*
X20486552Y9041903D01*
X20477323Y9032675D01*
X20354957Y8881568D01*
X20266681Y8708315D01*
X20266680Y8708313D01*
X20216356Y8520502D01*
X20216354Y8520492D01*
X20210000Y8439752D01*
X20210000Y8200001D01*
X20210001Y8200000D01*
X24709999Y8200000D01*
X24710000Y8200001D01*
X24710000Y8439737D01*
X24709999Y8439752D01*
X24703645Y8520492D01*
X24703643Y8520502D01*
X24653319Y8708313D01*
X24653318Y8708315D01*
X24565042Y8881568D01*
X24442676Y9032675D01*
X24433448Y9041903D01*
X24435730Y9044186D01*
X24388600Y9100840D01*
X24359779Y9193622D01*
X24368658Y9290370D01*
X24413884Y9376356D01*
X24434537Y9397008D01*
X24433804Y9397741D01*
X24443021Y9406960D01*
X24443032Y9406968D01*
X24565465Y9558160D01*
X24653788Y9731504D01*
X24704141Y9919422D01*
X24710500Y10000222D01*
X24710500Y10979778D01*
X24704141Y11060578D01*
X24653788Y11248496D01*
X24565465Y11421840D01*
X24564177Y11423430D01*
X24443036Y11573027D01*
X24443032Y11573032D01*
X24443026Y11573037D01*
X24433804Y11582259D01*
X24436094Y11584550D01*
X24388998Y11641162D01*
X24360177Y11733944D01*
X24369056Y11830692D01*
X24414283Y11916678D01*
X24434575Y11936970D01*
X24433804Y11937741D01*
X24443021Y11946960D01*
X24443032Y11946968D01*
X24565465Y12098160D01*
X24653788Y12271504D01*
X24704141Y12459422D01*
X24710500Y12540222D01*
X24710500Y13519778D01*
X24704141Y13600578D01*
X24653788Y13788496D01*
X24565465Y13961840D01*
X24443032Y14113032D01*
X24443026Y14113037D01*
X24433804Y14122259D01*
X24436094Y14124550D01*
X24388998Y14181162D01*
X24360177Y14273944D01*
X24369056Y14370692D01*
X24414283Y14456678D01*
X24434575Y14476970D01*
X24433804Y14477741D01*
X24443021Y14486960D01*
X24443032Y14486968D01*
X24565465Y14638160D01*
X24653788Y14811504D01*
X24704141Y14999422D01*
X24710500Y15080222D01*
X24710500Y16059778D01*
X24704141Y16140578D01*
X24653788Y16328496D01*
X24565465Y16501840D01*
X24443032Y16653032D01*
X24443026Y16653037D01*
X24433804Y16662259D01*
X24436094Y16664550D01*
X24388998Y16721162D01*
X24360177Y16813944D01*
X24369056Y16910692D01*
X24414283Y16996678D01*
X24434575Y17016970D01*
X24433804Y17017741D01*
X24443021Y17026960D01*
X24443032Y17026968D01*
X24565465Y17178160D01*
X24653788Y17351504D01*
X24704141Y17539422D01*
X24710500Y17620222D01*
X24710500Y18599778D01*
X24704141Y18680578D01*
X24653788Y18868496D01*
X24565465Y19041840D01*
X24550401Y19060442D01*
X24447911Y19187007D01*
X24443032Y19193032D01*
X24443026Y19193037D01*
X24433804Y19202259D01*
X24436019Y19204475D01*
X24388577Y19261527D01*
X24359774Y19354314D01*
X24368671Y19451061D01*
X24413915Y19537039D01*
X24434215Y19557330D01*
X24433448Y19558097D01*
X24442676Y19567326D01*
X24565042Y19718433D01*
X24653318Y19891686D01*
X24653319Y19891688D01*
X24703643Y20079499D01*
X24703645Y20079509D01*
X24709999Y20160249D01*
X24710000Y20160263D01*
X24710000Y20399999D01*
X24709999Y20400000D01*
X22459000Y20400000D01*
X22363712Y20418954D01*
X22282930Y20472930D01*
X22228954Y20553712D01*
X22210000Y20649000D01*
X22210000Y20651000D01*
X22228954Y20746288D01*
X22282930Y20827070D01*
X22363712Y20881046D01*
X22459000Y20900000D01*
X24709999Y20900000D01*
X24710000Y20900001D01*
X24710000Y21139737D01*
X24709999Y21139752D01*
X24703645Y21220492D01*
X24703643Y21220502D01*
X24653319Y21408313D01*
X24653318Y21408315D01*
X24565042Y21581568D01*
X24442676Y21732675D01*
X24433448Y21741903D01*
X24435730Y21744186D01*
X24388600Y21800840D01*
X24359779Y21893622D01*
X24368658Y21990370D01*
X24413884Y22076356D01*
X24434537Y22097008D01*
X24433804Y22097741D01*
X24443021Y22106960D01*
X24443032Y22106968D01*
X24565465Y22258160D01*
X24653788Y22431504D01*
X24653790Y22431510D01*
X24653791Y22431512D01*
X24656950Y22439739D01*
X24708795Y22521905D01*
X24788137Y22577975D01*
X24882897Y22599415D01*
X24889409Y22599500D01*
X25785931Y22599500D01*
X30577414Y22599500D01*
X30672702Y22580546D01*
X30753484Y22526570D01*
X39485330Y13794724D01*
X39591873Y13723535D01*
X39635787Y13705345D01*
X39716568Y13651370D01*
X39770545Y13570589D01*
X39789500Y13475301D01*
X39789500Y12540222D01*
X39793311Y12491799D01*
X39795859Y12459423D01*
X39795860Y12459416D01*
X39846210Y12271510D01*
X39846211Y12271506D01*
X39934534Y12098161D01*
X39934537Y12098157D01*
X40003484Y12013015D01*
X40056968Y11946968D01*
X40056973Y11946964D01*
X40066196Y11937741D01*
X40063909Y11935455D01*
X40111029Y11878786D01*
X40139828Y11785997D01*
X40130927Y11689251D01*
X40085679Y11603276D01*
X40065429Y11583026D01*
X40066196Y11582259D01*
X40056963Y11573027D01*
X39934537Y11421844D01*
X39934534Y11421840D01*
X39846211Y11248495D01*
X39846210Y11248491D01*
X39795860Y11060585D01*
X39795859Y11060578D01*
X39789500Y10979778D01*
X39789500Y10000222D01*
X39792716Y9959360D01*
X39795859Y9919423D01*
X39795860Y9919416D01*
X39846210Y9731510D01*
X39846211Y9731506D01*
X39934534Y9558161D01*
X39934537Y9558157D01*
X40056963Y9406974D01*
X40056968Y9406968D01*
X40056973Y9406964D01*
X40066196Y9397741D01*
X40063979Y9395525D01*
X40111416Y9338484D01*
X40140224Y9245698D01*
X40131331Y9148951D01*
X40086092Y9062971D01*
X40065788Y9042667D01*
X40066552Y9041903D01*
X40057323Y9032675D01*
X39934957Y8881568D01*
X39846681Y8708315D01*
X39846680Y8708313D01*
X39796356Y8520502D01*
X39796354Y8520492D01*
X39790000Y8439752D01*
X39790000Y8200001D01*
X39790001Y8200000D01*
X42041000Y8200000D01*
X42136288Y8181046D01*
X42217070Y8127070D01*
X42271046Y8046288D01*
X42290000Y7951000D01*
X42290000Y7949000D01*
X42271046Y7853712D01*
X42217070Y7772930D01*
X42136288Y7718954D01*
X42041000Y7700000D01*
X39790001Y7700000D01*
X39790000Y7699999D01*
X39790000Y7460249D01*
X39796354Y7379509D01*
X39796356Y7379499D01*
X39846680Y7191688D01*
X39846681Y7191686D01*
X39934957Y7018433D01*
X40057323Y6867326D01*
X40066552Y6858097D01*
X40064268Y6855814D01*
X40111392Y6799173D01*
X40140219Y6706393D01*
X40131345Y6609644D01*
X40086123Y6523655D01*
X40065465Y6502990D01*
X40066196Y6502259D01*
X40056963Y6493027D01*
X39934537Y6341844D01*
X39934534Y6341840D01*
X39846212Y6168498D01*
X39836357Y6131716D01*
X39810320Y6034550D01*
X39767352Y5947419D01*
X39694307Y5883360D01*
X39602308Y5852130D01*
X39569807Y5850000D01*
X36174192Y5850000D01*
X36078904Y5868954D01*
X35998122Y5922930D01*
X35944146Y6003712D01*
X35926140Y6077298D01*
X35911208Y6247965D01*
X35911207Y6247977D01*
X35854575Y6459330D01*
X35762102Y6657638D01*
X35750411Y6674334D01*
X35693847Y6755116D01*
X35636598Y6836877D01*
X35481877Y6991598D01*
X35374113Y7067055D01*
X35302639Y7117102D01*
X35104328Y7209576D01*
X34980340Y7242798D01*
X34892977Y7266207D01*
X34675000Y7285277D01*
X34457023Y7266207D01*
X34457021Y7266207D01*
X34457016Y7266206D01*
X34434029Y7260046D01*
X34428203Y7258485D01*
X34363758Y7250000D01*
X30136242Y7250000D01*
X30071796Y7258485D01*
X30064089Y7260550D01*
X30042983Y7266206D01*
X30042979Y7266207D01*
X30042977Y7266207D01*
X29825000Y7285277D01*
X29607023Y7266207D01*
X29567893Y7255722D01*
X29395666Y7209574D01*
X29197368Y7117106D01*
X29197360Y7117102D01*
X29018124Y6991599D01*
X28863401Y6836876D01*
X28737898Y6657640D01*
X28737894Y6657632D01*
X28645426Y6459334D01*
X28645425Y6459330D01*
X28588793Y6247977D01*
X28581839Y6168491D01*
X28569723Y6030000D01*
X28588793Y5812022D01*
X28591515Y5801865D01*
X28600000Y5737417D01*
X28600000Y4160169D01*
X28581046Y4064881D01*
X28534196Y3991526D01*
X28416018Y3863151D01*
X28289074Y3668847D01*
X28195842Y3456298D01*
X28195841Y3456294D01*
X28138868Y3231316D01*
X28138866Y3231309D01*
X28119700Y3000000D01*
X28138866Y2768692D01*
X28138868Y2768685D01*
X28195841Y2543707D01*
X28195845Y2543693D01*
X28229027Y2468048D01*
X28249947Y2373172D01*
X28250000Y2368026D01*
X28250000Y1374500D01*
X28231046Y1279212D01*
X28177070Y1198430D01*
X28096288Y1144454D01*
X28001000Y1125500D01*
X24949000Y1125500D01*
X24853712Y1144454D01*
X24772930Y1198430D01*
X24718954Y1279212D01*
X24700000Y1374500D01*
X24700000Y2254085D01*
X24703597Y2296256D01*
X24704140Y2299419D01*
X24704141Y2299422D01*
X24710500Y2380222D01*
X24710500Y3359778D01*
X24706547Y3410001D01*
X24704141Y3440579D01*
X24703596Y3443754D01*
X24700000Y3485917D01*
X24700000Y4794085D01*
X24703597Y4836256D01*
X24704140Y4839419D01*
X24704141Y4839422D01*
X24710500Y4920222D01*
X24710500Y5899778D01*
X24704141Y5980578D01*
X24704141Y5980579D01*
X24703596Y5983754D01*
X24700000Y6025917D01*
X24700000Y7337056D01*
X24703598Y7379230D01*
X24703645Y7379504D01*
X24709999Y7460249D01*
X24710000Y7460263D01*
X24710000Y7699999D01*
X24709999Y7700000D01*
X20210001Y7700000D01*
X20210000Y7699999D01*
X20210000Y7460249D01*
X20216354Y7379509D01*
X20216356Y7379499D01*
X20266680Y7191688D01*
X20266681Y7191686D01*
X20354957Y7018433D01*
X20477323Y6867326D01*
X20486552Y6858097D01*
X20484268Y6855814D01*
X20531392Y6799173D01*
X20560219Y6706393D01*
X20551345Y6609644D01*
X20506123Y6523655D01*
X20485465Y6502990D01*
X20486196Y6502259D01*
X20476963Y6493027D01*
X20354537Y6341844D01*
X20354534Y6341840D01*
X20266211Y6168495D01*
X20266210Y6168491D01*
X20215860Y5980585D01*
X20215859Y5980579D01*
X20215859Y5980578D01*
X20209500Y5899778D01*
X20209500Y4920222D01*
X20215198Y4847823D01*
X20215859Y4839423D01*
X20215860Y4839416D01*
X20266210Y4651510D01*
X20266211Y4651506D01*
X20354534Y4478161D01*
X20354537Y4478157D01*
X20380344Y4446288D01*
X20476968Y4326968D01*
X20476973Y4326964D01*
X20486196Y4317741D01*
X20483909Y4315455D01*
X20531029Y4258786D01*
X20559828Y4165997D01*
X20550927Y4069251D01*
X20505679Y3983276D01*
X20485429Y3963026D01*
X20486196Y3962259D01*
X20476963Y3953027D01*
X20354537Y3801844D01*
X20354532Y3801837D01*
X20331412Y3756458D01*
X20271265Y3680160D01*
X20186498Y3632688D01*
X20109551Y3620500D01*
X14464007Y3620500D01*
X14368719Y3639454D01*
X14287937Y3693430D01*
X14164085Y3817282D01*
X14110109Y3898064D01*
X14091155Y3993352D01*
X14092103Y4015054D01*
X14105659Y4169995D01*
X14105659Y4170006D01*
X14085064Y4405402D01*
X14085063Y4405405D01*
X14085063Y4405408D01*
X14023903Y4633663D01*
X13959042Y4772756D01*
X13924038Y4847823D01*
X13924034Y4847831D01*
X13850536Y4952797D01*
X13788495Y5041401D01*
X13621401Y5208495D01*
X13614877Y5213063D01*
X13427830Y5344035D01*
X13323442Y5392712D01*
X13213663Y5443903D01*
X13213660Y5443904D01*
X12985401Y5505065D01*
X12750005Y5525659D01*
X12749995Y5525659D01*
X12514598Y5505065D01*
X12286335Y5443903D01*
X12286333Y5443902D01*
X12072177Y5344039D01*
X12072169Y5344035D01*
X11878592Y5208490D01*
X11874215Y5204817D01*
X11870208Y5202620D01*
X11869694Y5202259D01*
X11869654Y5202316D01*
X11789034Y5158091D01*
X11692456Y5147519D01*
X11599184Y5174710D01*
X11523417Y5235525D01*
X11514681Y5248322D01*
X11514026Y5247831D01*
X11417189Y5377188D01*
X11417187Y5377190D01*
X11302087Y5463354D01*
X11167378Y5513597D01*
X11167371Y5513599D01*
X11107832Y5520000D01*
X10460001Y5520000D01*
X10460000Y5519999D01*
X10460000Y4603012D01*
X10402993Y4635925D01*
X10275826Y4670000D01*
X10144174Y4670000D01*
X10017007Y4635925D01*
X9960000Y4603012D01*
X9960000Y5519999D01*
X9959999Y5520000D01*
X9312167Y5520000D01*
X9252628Y5513599D01*
X9252621Y5513597D01*
X9117912Y5463354D01*
X9002812Y5377190D01*
X9002810Y5377188D01*
X8916646Y5262088D01*
X8866403Y5127379D01*
X8866401Y5127372D01*
X8860000Y5067833D01*
X8860000Y4420001D01*
X8860001Y4420000D01*
X9776988Y4420000D01*
X9744075Y4362993D01*
X9710000Y4235826D01*
X9710000Y4104174D01*
X9744075Y3977007D01*
X9776988Y3920000D01*
X8833714Y3920000D01*
X8832149Y3918954D01*
X8736861Y3900000D01*
X7395939Y3900000D01*
X7300651Y3918954D01*
X7219869Y3972930D01*
X7165893Y4053712D01*
X7150005Y4110047D01*
X7134734Y4206464D01*
X7124602Y4270433D01*
X7024214Y4645087D01*
X6885214Y5007194D01*
X6872427Y5032289D01*
X6736026Y5299992D01*
X6709125Y5352789D01*
X6564825Y5574992D01*
X6497875Y5678086D01*
X6253786Y5979510D01*
X6253785Y5979511D01*
X6253781Y5979516D01*
X5979516Y6253781D01*
X5907938Y6311744D01*
X5678085Y6497876D01*
X5352789Y6709125D01*
X5352784Y6709128D01*
X5007195Y6885214D01*
X4826140Y6954714D01*
X4645087Y7024214D01*
X4270433Y7124602D01*
X4270429Y7124603D01*
X4270428Y7124603D01*
X3918951Y7180271D01*
X3887344Y7185277D01*
X3887345Y7185277D01*
X3887343Y7185278D01*
X3887338Y7185278D01*
X3500000Y7205578D01*
X3499999Y7205578D01*
X3400074Y7200341D01*
X3387043Y7200000D01*
X1374500Y7200000D01*
X1279212Y7218954D01*
X1198430Y7272930D01*
X1144454Y7353712D01*
X1125500Y7449000D01*
X1125500Y9219995D01*
X8854341Y9219995D01*
X8874935Y8984599D01*
X8925354Y8796429D01*
X8936097Y8756337D01*
X9013327Y8590717D01*
X9035965Y8542170D01*
X9073670Y8488321D01*
X9171505Y8348599D01*
X9338599Y8181505D01*
X9532170Y8045965D01*
X9746337Y7946097D01*
X9974592Y7884937D01*
X9974595Y7884937D01*
X9974598Y7884936D01*
X10209995Y7864341D01*
X10210000Y7864341D01*
X10210005Y7864341D01*
X10445401Y7884936D01*
X10445403Y7884937D01*
X10445408Y7884937D01*
X10673663Y7946097D01*
X10887830Y8045965D01*
X11081401Y8181505D01*
X11248495Y8348599D01*
X11276032Y8387926D01*
X11346211Y8455109D01*
X11436760Y8490322D01*
X11533892Y8488203D01*
X11622819Y8449075D01*
X11683967Y8387927D01*
X11711505Y8348599D01*
X11878599Y8181505D01*
X12072170Y8045965D01*
X12286337Y7946097D01*
X12514592Y7884937D01*
X12514595Y7884937D01*
X12514598Y7884936D01*
X12749995Y7864341D01*
X12750000Y7864341D01*
X12750005Y7864341D01*
X12985401Y7884936D01*
X12985403Y7884937D01*
X12985408Y7884937D01*
X13213663Y7946097D01*
X13427830Y8045965D01*
X13621401Y8181505D01*
X13788495Y8348599D01*
X13886330Y8488323D01*
X13956511Y8555505D01*
X14047060Y8590717D01*
X14090298Y8594500D01*
X14488713Y8594500D01*
X14549135Y8606519D01*
X14609558Y8618537D01*
X14609563Y8618539D01*
X14665893Y8641871D01*
X14665896Y8641873D01*
X14668286Y8642863D01*
X14723392Y8665688D01*
X14774615Y8699916D01*
X14825839Y8734142D01*
X14912964Y8821267D01*
X14912965Y8821270D01*
X17035857Y10944160D01*
X17040094Y10950500D01*
X17104311Y11046608D01*
X17151463Y11160442D01*
X17162484Y11215849D01*
X17168613Y11246659D01*
X17175499Y11281284D01*
X17175500Y11281289D01*
X17175500Y21761606D01*
X17167955Y21799534D01*
X17167954Y21799542D01*
X17159865Y21840212D01*
X17151465Y21882445D01*
X17151464Y21882449D01*
X17124842Y21946721D01*
X17124842Y21946722D01*
X17104311Y21996287D01*
X17068754Y22049500D01*
X17053614Y22072159D01*
X17035858Y22098733D01*
X17035855Y22098736D01*
X17035853Y22098739D01*
X16942485Y22192106D01*
X16942484Y22192106D01*
X16720260Y22414330D01*
X16666284Y22495112D01*
X16648694Y22564374D01*
X16643440Y22614360D01*
X16635674Y22688256D01*
X16577179Y22868284D01*
X16482533Y23032216D01*
X16482531Y23032219D01*
X16482530Y23032220D01*
X16355873Y23172886D01*
X16355872Y23172887D01*
X16355871Y23172888D01*
X16251896Y23248430D01*
X16202728Y23284153D01*
X16029810Y23361142D01*
X16029796Y23361146D01*
X15844646Y23400500D01*
X15655354Y23400500D01*
X15470203Y23361146D01*
X15470189Y23361142D01*
X15297271Y23284153D01*
X15144126Y23172886D01*
X15017469Y23032220D01*
X14922822Y22868286D01*
X14864325Y22688256D01*
X14844540Y22500000D01*
X14864325Y22311745D01*
X14891588Y22227841D01*
X14922821Y22131716D01*
X14922822Y22131714D01*
X14922823Y22131712D01*
X14922824Y22131710D01*
X14970288Y22049500D01*
X15001518Y21957501D01*
X14995163Y21860554D01*
X14970288Y21800500D01*
X14922824Y21718291D01*
X14922823Y21718289D01*
X14864325Y21538256D01*
X14844540Y21350000D01*
X14864325Y21161745D01*
X14889154Y21085331D01*
X14922821Y20981716D01*
X15011760Y20827669D01*
X15017469Y20817781D01*
X15144125Y20677116D01*
X15144129Y20677112D01*
X15271861Y20584310D01*
X15337807Y20512970D01*
X15371434Y20421820D01*
X15374500Y20382867D01*
X15374500Y19349000D01*
X15355546Y19253712D01*
X15301570Y19172930D01*
X15220788Y19118954D01*
X15125500Y19100000D01*
X14226450Y19100000D01*
X14131162Y19118954D01*
X14114630Y19130000D01*
X13183012Y19130000D01*
X13215925Y19187007D01*
X13250000Y19314174D01*
X13250000Y19445826D01*
X13215925Y19572993D01*
X13183012Y19630000D01*
X14080636Y19630000D01*
X14080636Y19630002D01*
X14023433Y19843484D01*
X14023429Y19843495D01*
X13923603Y20057572D01*
X13923599Y20057580D01*
X13788106Y20251082D01*
X13784704Y20255137D01*
X13782665Y20258853D01*
X13781874Y20259983D01*
X13781997Y20260070D01*
X13737974Y20340315D01*
X13727398Y20436893D01*
X13754585Y20530166D01*
X13815397Y20605936D01*
X13828540Y20614907D01*
X13828073Y20615531D01*
X13842329Y20626204D01*
X13842331Y20626204D01*
X13957546Y20712454D01*
X14043796Y20827669D01*
X14094091Y20962517D01*
X14100500Y21022127D01*
X14100499Y22817872D01*
X14094091Y22877483D01*
X14043796Y23012331D01*
X13957546Y23127546D01*
X13842331Y23213796D01*
X13762117Y23243714D01*
X13707481Y23264092D01*
X13647873Y23270500D01*
X11852134Y23270500D01*
X11852130Y23270500D01*
X11852128Y23270499D01*
X11839314Y23269122D01*
X11792519Y23264092D01*
X11792515Y23264091D01*
X11657670Y23213797D01*
X11542455Y23127547D01*
X11542453Y23127545D01*
X11521157Y23099097D01*
X11460010Y23017414D01*
X11445531Y22998073D01*
X11442234Y23000541D01*
X11401587Y22951949D01*
X11315478Y22906956D01*
X11218706Y22898340D01*
X11126003Y22927413D01*
X11085387Y22955151D01*
X11081403Y22958493D01*
X11081401Y22958495D01*
X10887830Y23094035D01*
X10673663Y23193903D01*
X10673660Y23193904D01*
X10445401Y23255065D01*
X10210005Y23275659D01*
X10209995Y23275659D01*
X9974598Y23255065D01*
X9746335Y23193903D01*
X9746333Y23193902D01*
X9532177Y23094039D01*
X9532169Y23094035D01*
X9338600Y22958496D01*
X9171504Y22791400D01*
X9035965Y22597831D01*
X9035961Y22597823D01*
X8936098Y22383667D01*
X8936097Y22383665D01*
X8874935Y22155402D01*
X8854341Y21920006D01*
X8854341Y21919995D01*
X8874935Y21684599D01*
X8924397Y21500000D01*
X8936097Y21456337D01*
X9035965Y21242170D01*
X9171505Y21048599D01*
X9338599Y20881505D01*
X9378362Y20853662D01*
X9445544Y20783483D01*
X9480757Y20692933D01*
X9478638Y20595802D01*
X9439509Y20506874D01*
X9378364Y20445728D01*
X9338923Y20418111D01*
X9171889Y20251077D01*
X9036400Y20057580D01*
X9036396Y20057572D01*
X8936570Y19843495D01*
X8936566Y19843484D01*
X8879363Y19630002D01*
X8879364Y19630000D01*
X9776988Y19630000D01*
X9744075Y19572993D01*
X9710000Y19445826D01*
X9710000Y19314174D01*
X9744075Y19187007D01*
X9776988Y19130000D01*
X8879364Y19130000D01*
X8879363Y19129999D01*
X8936566Y18916517D01*
X8936566Y18916515D01*
X9036399Y18702424D01*
X9171889Y18508924D01*
X9338923Y18341890D01*
X9378361Y18314275D01*
X9445545Y18244093D01*
X9480757Y18153544D01*
X9478638Y18056412D01*
X9439509Y17967485D01*
X9378363Y17906339D01*
X9338602Y17878498D01*
X9171504Y17711400D01*
X9035965Y17517831D01*
X9035961Y17517823D01*
X8936098Y17303667D01*
X8936097Y17303665D01*
X8874935Y17075402D01*
X8854341Y16840006D01*
X8854341Y16839995D01*
X8874935Y16604599D01*
X8918088Y16443546D01*
X8936097Y16376337D01*
X9035965Y16162170D01*
X9171505Y15968599D01*
X9338599Y15801505D01*
X9377925Y15773969D01*
X9445107Y15703791D01*
X9480321Y15613242D01*
X9478202Y15516110D01*
X9439074Y15427182D01*
X9377928Y15366035D01*
X9338603Y15338499D01*
X9171504Y15171400D01*
X9035965Y14977831D01*
X9035961Y14977823D01*
X8936098Y14763667D01*
X8936097Y14763665D01*
X8874935Y14535402D01*
X8854341Y14300006D01*
X8854341Y14299995D01*
X8874935Y14064599D01*
X8932444Y13849968D01*
X8936097Y13836337D01*
X9035965Y13622170D01*
X9171505Y13428599D01*
X9338599Y13261505D01*
X9377925Y13233969D01*
X9445107Y13163791D01*
X9480321Y13073242D01*
X9478202Y12976110D01*
X9439074Y12887182D01*
X9377928Y12826035D01*
X9338603Y12798499D01*
X9171504Y12631400D01*
X9035965Y12437831D01*
X9035961Y12437823D01*
X8936098Y12223667D01*
X8936097Y12223665D01*
X8874935Y11995402D01*
X8854341Y11760006D01*
X8854341Y11759995D01*
X8874935Y11524599D01*
X8935142Y11299899D01*
X8936097Y11296337D01*
X9035965Y11082170D01*
X9171505Y10888599D01*
X9338599Y10721505D01*
X9377925Y10693969D01*
X9445107Y10623791D01*
X9480321Y10533242D01*
X9478202Y10436110D01*
X9439074Y10347182D01*
X9377928Y10286035D01*
X9338603Y10258499D01*
X9171504Y10091400D01*
X9035965Y9897831D01*
X9035961Y9897823D01*
X8936098Y9683667D01*
X8936097Y9683665D01*
X8874935Y9455402D01*
X8854341Y9220006D01*
X8854341Y9219995D01*
X1125500Y9219995D01*
X1125500Y26102168D01*
X8860000Y26102168D01*
X8866401Y26042629D01*
X8866403Y26042622D01*
X8916646Y25907913D01*
X9002810Y25792813D01*
X9002812Y25792811D01*
X9117912Y25706647D01*
X9252621Y25656404D01*
X9252628Y25656402D01*
X9312167Y25650001D01*
X9312175Y25650000D01*
X9959999Y25650000D01*
X9960000Y25650001D01*
X9960000Y26566988D01*
X10017007Y26534075D01*
X10144174Y26500000D01*
X10275826Y26500000D01*
X10402993Y26534075D01*
X10460000Y26566988D01*
X10460000Y25650001D01*
X10460001Y25650000D01*
X11107825Y25650000D01*
X11107832Y25650001D01*
X11167371Y25656402D01*
X11167378Y25656404D01*
X11302087Y25706647D01*
X11417187Y25792811D01*
X11417189Y25792813D01*
X11514026Y25922169D01*
X11517313Y25919709D01*
X11557897Y25968286D01*
X11643978Y26013333D01*
X11740745Y26022009D01*
X11833466Y25992993D01*
X11874223Y25965177D01*
X11878593Y25961511D01*
X11878599Y25961505D01*
X12072170Y25825965D01*
X12286337Y25726097D01*
X12514592Y25664937D01*
X12514595Y25664937D01*
X12514598Y25664936D01*
X12749995Y25644341D01*
X12750000Y25644341D01*
X12750005Y25644341D01*
X12985401Y25664936D01*
X12985403Y25664937D01*
X12985408Y25664937D01*
X13213663Y25726097D01*
X13427830Y25825965D01*
X13621401Y25961505D01*
X13788495Y26128599D01*
X13924035Y26322170D01*
X14023903Y26536337D01*
X14085063Y26764592D01*
X14089301Y26813032D01*
X14105659Y26999995D01*
X14105659Y27000006D01*
X14085064Y27235402D01*
X14085063Y27235405D01*
X14085063Y27235408D01*
X14023903Y27463663D01*
X13924035Y27677829D01*
X13908915Y27699422D01*
X13830525Y27811375D01*
X13788495Y27871401D01*
X13621401Y28038495D01*
X13565223Y28077831D01*
X13427830Y28174035D01*
X13356729Y28207190D01*
X13213663Y28273903D01*
X13213660Y28273904D01*
X12985401Y28335065D01*
X12750005Y28355659D01*
X12749995Y28355659D01*
X12514598Y28335065D01*
X12286335Y28273903D01*
X12286333Y28273902D01*
X12072177Y28174039D01*
X12072169Y28174035D01*
X11878592Y28038490D01*
X11874215Y28034817D01*
X11870208Y28032620D01*
X11869694Y28032259D01*
X11869654Y28032316D01*
X11789034Y27988091D01*
X11692456Y27977519D01*
X11599184Y28004710D01*
X11523417Y28065525D01*
X11514681Y28078322D01*
X11514026Y28077831D01*
X11417189Y28207188D01*
X11417187Y28207190D01*
X11302087Y28293354D01*
X11167378Y28343597D01*
X11167371Y28343599D01*
X11107832Y28350000D01*
X10460001Y28350000D01*
X10460000Y28349999D01*
X10460000Y27433012D01*
X10402993Y27465925D01*
X10275826Y27500000D01*
X10144174Y27500000D01*
X10017007Y27465925D01*
X9960000Y27433012D01*
X9960000Y28349999D01*
X9959999Y28350000D01*
X9312167Y28350000D01*
X9252628Y28343599D01*
X9252621Y28343597D01*
X9117912Y28293354D01*
X9002812Y28207190D01*
X9002810Y28207188D01*
X8916646Y28092088D01*
X8866403Y27957379D01*
X8866401Y27957372D01*
X8860000Y27897833D01*
X8860000Y27250001D01*
X8860001Y27250000D01*
X9776988Y27250000D01*
X9744075Y27192993D01*
X9710000Y27065826D01*
X9710000Y26934174D01*
X9744075Y26807007D01*
X9776988Y26750000D01*
X8860001Y26750000D01*
X8860000Y26749999D01*
X8860000Y26102168D01*
X1125500Y26102168D01*
X1125500Y46551000D01*
X1144454Y46646288D01*
X1198430Y46727070D01*
X1279212Y46781046D01*
X1374500Y46800000D01*
X3387043Y46800000D01*
X3400074Y46799659D01*
X3500000Y46794422D01*
X3887338Y46814722D01*
X4270433Y46875398D01*
X4645087Y46975786D01*
X5007194Y47114786D01*
X5352789Y47290875D01*
X5678084Y47502124D01*
X5979516Y47746219D01*
X6253781Y48020484D01*
X6497876Y48321916D01*
X6709125Y48647211D01*
X6854317Y48932168D01*
X8860000Y48932168D01*
X8866401Y48872629D01*
X8866403Y48872622D01*
X8916646Y48737913D01*
X9002810Y48622813D01*
X9002812Y48622811D01*
X9117912Y48536647D01*
X9252621Y48486404D01*
X9252628Y48486402D01*
X9312167Y48480001D01*
X9312175Y48480000D01*
X9959999Y48480000D01*
X9960000Y48480001D01*
X9960000Y49396988D01*
X10017007Y49364075D01*
X10144174Y49330000D01*
X10275826Y49330000D01*
X10402993Y49364075D01*
X10460000Y49396988D01*
X10460000Y48480001D01*
X10460001Y48480000D01*
X11107825Y48480000D01*
X11107832Y48480001D01*
X11167371Y48486402D01*
X11167378Y48486404D01*
X11302087Y48536647D01*
X11417187Y48622811D01*
X11417189Y48622813D01*
X11514026Y48752169D01*
X11517313Y48749709D01*
X11557897Y48798286D01*
X11643978Y48843333D01*
X11740745Y48852009D01*
X11833466Y48822993D01*
X11874223Y48795177D01*
X11878593Y48791511D01*
X11878599Y48791505D01*
X12072170Y48655965D01*
X12286337Y48556097D01*
X12514592Y48494937D01*
X12514595Y48494937D01*
X12514598Y48494936D01*
X12749995Y48474341D01*
X12750000Y48474341D01*
X12750005Y48474341D01*
X12985401Y48494936D01*
X12985403Y48494937D01*
X12985408Y48494937D01*
X13213663Y48556097D01*
X13427830Y48655965D01*
X13621401Y48791505D01*
X13788495Y48958599D01*
X13924035Y49152170D01*
X14023903Y49366337D01*
X14085063Y49594592D01*
X14085064Y49594599D01*
X14105659Y49829995D01*
X14105659Y49830006D01*
X14085064Y50065402D01*
X14085063Y50065405D01*
X14085063Y50065408D01*
X14023903Y50293663D01*
X13930232Y50494540D01*
X13924038Y50507823D01*
X13924034Y50507831D01*
X13838327Y50630233D01*
X13788495Y50701401D01*
X13621401Y50868495D01*
X13605761Y50879446D01*
X13427830Y51004035D01*
X13410678Y51012033D01*
X13213663Y51103903D01*
X13213660Y51103904D01*
X12985401Y51165065D01*
X12750005Y51185659D01*
X12749995Y51185659D01*
X12514598Y51165065D01*
X12286335Y51103903D01*
X12286333Y51103902D01*
X12072177Y51004039D01*
X12072169Y51004035D01*
X11878592Y50868490D01*
X11874215Y50864817D01*
X11870208Y50862620D01*
X11869694Y50862259D01*
X11869654Y50862316D01*
X11789034Y50818091D01*
X11692456Y50807519D01*
X11599184Y50834710D01*
X11523417Y50895525D01*
X11514681Y50908322D01*
X11514026Y50907831D01*
X11417189Y51037188D01*
X11417187Y51037190D01*
X11302087Y51123354D01*
X11167378Y51173597D01*
X11167371Y51173599D01*
X11107832Y51180000D01*
X10460001Y51180000D01*
X10460000Y51179999D01*
X10460000Y50263012D01*
X10402993Y50295925D01*
X10275826Y50330000D01*
X10144174Y50330000D01*
X10017007Y50295925D01*
X9960000Y50263012D01*
X9960000Y51179999D01*
X9959999Y51180000D01*
X9312167Y51180000D01*
X9252628Y51173599D01*
X9252621Y51173597D01*
X9117912Y51123354D01*
X9002812Y51037190D01*
X9002810Y51037188D01*
X8916646Y50922088D01*
X8866403Y50787379D01*
X8866401Y50787372D01*
X8860000Y50727833D01*
X8860000Y50080001D01*
X8860001Y50080000D01*
X9776988Y50080000D01*
X9744075Y50022993D01*
X9710000Y49895826D01*
X9710000Y49764174D01*
X9744075Y49637007D01*
X9776988Y49580000D01*
X8860001Y49580000D01*
X8860000Y49579999D01*
X8860000Y48932168D01*
X6854317Y48932168D01*
X6885214Y48992806D01*
X7024214Y49354913D01*
X7124602Y49729567D01*
X7185278Y50112662D01*
X7205578Y50500000D01*
X7200341Y50599928D01*
X7200000Y50612959D01*
X7200000Y52625500D01*
X7218954Y52720788D01*
X7272930Y52801570D01*
X7353712Y52855546D01*
X7449000Y52874500D01*
X17751000Y52874500D01*
X17846288Y52855546D01*
G37*
%TD.AperFunction*%
%TA.AperFunction,Conductor*%
G36*
X68845788Y3705546D02*
G01*
X68926570Y3651570D01*
X68980546Y3570788D01*
X68999500Y3475500D01*
X68999500Y2567816D01*
X68980546Y2472528D01*
X68966141Y2443318D01*
X68922823Y2368289D01*
X68922821Y2368286D01*
X68922821Y2368284D01*
X68911167Y2332417D01*
X68864325Y2188256D01*
X68844540Y2000000D01*
X68864325Y1811745D01*
X68882423Y1756046D01*
X68922821Y1631716D01*
X68922822Y1631714D01*
X68922823Y1631712D01*
X68922824Y1631710D01*
X68999444Y1499000D01*
X69030674Y1407001D01*
X69024319Y1310054D01*
X68981349Y1222918D01*
X68908304Y1158860D01*
X68816305Y1127630D01*
X68783804Y1125500D01*
X67399000Y1125500D01*
X67303712Y1144454D01*
X67222930Y1198430D01*
X67215602Y1209397D01*
X67149999Y1275000D01*
X63249000Y1275000D01*
X63153712Y1293954D01*
X63091162Y1335748D01*
X63004176Y1546999D01*
X63018954Y1621288D01*
X63072930Y1702070D01*
X63153712Y1756046D01*
X63249000Y1775000D01*
X67149998Y1775000D01*
X67150000Y1775002D01*
X67150000Y3475500D01*
X67168954Y3570788D01*
X67222930Y3651570D01*
X67303712Y3705546D01*
X67399000Y3724500D01*
X68676082Y3724500D01*
X68750500Y3724500D01*
X68845788Y3705546D01*
G37*
%TD.AperFunction*%
%TA.AperFunction,Conductor*%
G36*
X69980378Y52861032D02*
G01*
X70048087Y52874500D01*
X70050913Y52874500D01*
X70146201Y52855546D01*
X70226983Y52801570D01*
X71250000Y51778554D01*
X72273017Y52801570D01*
X72353799Y52855546D01*
X72449087Y52874500D01*
X72451913Y52874500D01*
X72519621Y52861032D01*
X72587330Y52874500D01*
X72801000Y52874500D01*
X72896288Y52855546D01*
X72977070Y52801570D01*
X73031046Y52720788D01*
X73050000Y52625500D01*
X73050000Y50612959D01*
X73049659Y50599928D01*
X73047659Y50561764D01*
X73032878Y50503564D01*
X73047658Y50438246D01*
X73064722Y50112662D01*
X73064722Y50112657D01*
X73064723Y50112655D01*
X73123561Y49741162D01*
X73125398Y49729567D01*
X73225786Y49354913D01*
X73279839Y49214101D01*
X73364786Y48992805D01*
X73540872Y48647216D01*
X73540875Y48647211D01*
X73752124Y48321915D01*
X73931648Y48100222D01*
X73996219Y48020484D01*
X74270484Y47746219D01*
X74270489Y47746215D01*
X74270490Y47746214D01*
X74571914Y47502125D01*
X74697019Y47420881D01*
X74897211Y47290875D01*
X75242806Y47114786D01*
X75604913Y46975786D01*
X75979567Y46875398D01*
X76362662Y46814722D01*
X76750000Y46794422D01*
X76849926Y46799659D01*
X76862957Y46800000D01*
X78875500Y46800000D01*
X78970788Y46781046D01*
X79051570Y46727070D01*
X79105546Y46646288D01*
X79124500Y46551000D01*
X79124500Y7449000D01*
X79105546Y7353712D01*
X79051570Y7272930D01*
X78970788Y7218954D01*
X78875500Y7200000D01*
X76862957Y7200000D01*
X76849926Y7200341D01*
X76750000Y7205578D01*
X76362662Y7185278D01*
X76362656Y7185278D01*
X76362654Y7185277D01*
X75979571Y7124603D01*
X75979567Y7124603D01*
X75979567Y7124602D01*
X75951577Y7117102D01*
X75604913Y7024214D01*
X75242804Y6885214D01*
X74897215Y6709128D01*
X74897210Y6709125D01*
X74571914Y6497876D01*
X74270490Y6253787D01*
X73996212Y5979509D01*
X73867894Y5821051D01*
X73793197Y5758927D01*
X73700412Y5730117D01*
X73603664Y5739007D01*
X73582771Y5750000D01*
X72725001Y5750000D01*
X72725000Y5749999D01*
X72725000Y4600002D01*
X72725001Y4600001D01*
X72801000Y4600001D01*
X72896288Y4581047D01*
X72977070Y4527071D01*
X73031046Y4446289D01*
X73050000Y4351001D01*
X73050000Y3612959D01*
X73049659Y3599928D01*
X73044422Y3500001D01*
X73049659Y3400074D01*
X73050000Y3387043D01*
X73050000Y1374500D01*
X73031046Y1279212D01*
X72977070Y1198430D01*
X72896288Y1144454D01*
X72801000Y1125500D01*
X70716196Y1125500D01*
X70620908Y1144454D01*
X70540126Y1198430D01*
X70486150Y1279212D01*
X70467196Y1374500D01*
X70486150Y1469788D01*
X70500556Y1499000D01*
X70561492Y1604546D01*
X70577179Y1631716D01*
X70635674Y1811744D01*
X70655460Y2000000D01*
X70635674Y2188256D01*
X70577179Y2368284D01*
X70563727Y2391584D01*
X70533859Y2443318D01*
X70502630Y2535317D01*
X70500500Y2567816D01*
X70500500Y4351000D01*
X70519454Y4446288D01*
X70573430Y4527070D01*
X70654212Y4581046D01*
X70749500Y4600000D01*
X72224998Y4600000D01*
X72225000Y4600002D01*
X72225000Y6250001D01*
X72725000Y6250001D01*
X72725001Y6250000D01*
X73549998Y6250000D01*
X73549999Y6250001D01*
X73549999Y6699968D01*
X73549998Y6699985D01*
X73539505Y6802700D01*
X73539504Y6802703D01*
X73484359Y6969120D01*
X73468841Y6994278D01*
X73434948Y7085329D01*
X73438478Y7182420D01*
X73468841Y7255722D01*
X73484359Y7280880D01*
X73539504Y7447299D01*
X73539505Y7447306D01*
X73549999Y7550019D01*
X73550000Y7550029D01*
X73550000Y7999999D01*
X73549999Y8000000D01*
X72725001Y8000000D01*
X72725000Y7999999D01*
X72725000Y6250001D01*
X72225000Y6250001D01*
X72225000Y7999999D01*
X72224999Y8000000D01*
X72100000Y8000000D01*
X72100000Y8500000D01*
X72224999Y8500000D01*
X72225000Y8500001D01*
X72725000Y8500001D01*
X72725001Y8500000D01*
X73549998Y8500000D01*
X73549999Y8500001D01*
X73549999Y8949968D01*
X73549998Y8949985D01*
X73539505Y9052700D01*
X73539504Y9052703D01*
X73484359Y9219120D01*
X73484358Y9219122D01*
X73392318Y9368342D01*
X73392315Y9368346D01*
X73268345Y9492316D01*
X73268341Y9492319D01*
X73119121Y9584359D01*
X73119120Y9584360D01*
X72952701Y9639505D01*
X72952694Y9639506D01*
X72849981Y9650000D01*
X72725001Y9650000D01*
X72725000Y9649999D01*
X72725000Y8500001D01*
X72225000Y8500001D01*
X72225000Y9650001D01*
X72170896Y9704104D01*
X72116919Y9784885D01*
X72097965Y9880173D01*
X72110603Y9958493D01*
X72139999Y10047203D01*
X72150500Y10149991D01*
X72150499Y10900008D01*
X72150497Y10900018D01*
X72150322Y10903472D01*
X72150000Y10916141D01*
X72150000Y13224999D01*
X72149999Y13225000D01*
X66850002Y13225000D01*
X66850001Y13224999D01*
X66850001Y13100016D01*
X66860494Y12997301D01*
X66860495Y12997298D01*
X66915640Y12830881D01*
X66915641Y12830879D01*
X67007681Y12681659D01*
X67007684Y12681655D01*
X67027070Y12662269D01*
X67081046Y12581487D01*
X67100000Y12486199D01*
X67100000Y11524500D01*
X67081046Y11429212D01*
X67027070Y11348430D01*
X66946288Y11294454D01*
X66851000Y11275500D01*
X66712786Y11275500D01*
X66617498Y11294454D01*
X66611528Y11297019D01*
X66579803Y11311144D01*
X66579800Y11311145D01*
X66579796Y11311146D01*
X66394646Y11350500D01*
X66234864Y11350500D01*
X66139576Y11369454D01*
X66058794Y11423430D01*
X66004818Y11504212D01*
X65987228Y11573471D01*
X65986304Y11582259D01*
X65985674Y11588256D01*
X65927179Y11768284D01*
X65832533Y11932216D01*
X65713955Y12063909D01*
X65664283Y12147402D01*
X65650000Y12230521D01*
X65650000Y14396797D01*
X65668954Y14492085D01*
X65722930Y14572867D01*
X65803712Y14626843D01*
X65899000Y14645797D01*
X65977316Y14633160D01*
X66047203Y14610001D01*
X66149991Y14599500D01*
X66765801Y14599501D01*
X66861089Y14580547D01*
X66941870Y14526571D01*
X66995847Y14445790D01*
X67014801Y14350501D01*
X66995847Y14255213D01*
X66977730Y14219783D01*
X66915640Y14119120D01*
X66860495Y13952702D01*
X66860494Y13952695D01*
X66850000Y13849982D01*
X66850000Y13725001D01*
X66850001Y13725000D01*
X67999999Y13725000D01*
X68000000Y13725001D01*
X68000000Y13812500D01*
X68450000Y13850000D01*
X68500000Y13910000D01*
X68500000Y13725001D01*
X68500001Y13725000D01*
X70499999Y13725000D01*
X70500000Y13725001D01*
X71000000Y13725001D01*
X71000001Y13725000D01*
X72149998Y13725000D01*
X72149999Y13725001D01*
X72149999Y13849968D01*
X72149998Y13849985D01*
X72139505Y13952700D01*
X72139504Y13952703D01*
X72084359Y14119120D01*
X72084358Y14119122D01*
X71992318Y14268342D01*
X71992315Y14268346D01*
X71868345Y14392316D01*
X71868341Y14392319D01*
X71719121Y14484359D01*
X71719120Y14484360D01*
X71552701Y14539505D01*
X71552694Y14539506D01*
X71449981Y14550000D01*
X71000001Y14550000D01*
X71000000Y14549999D01*
X71000000Y13725001D01*
X70500000Y13725001D01*
X70500000Y14549999D01*
X70446452Y14603547D01*
X70392476Y14684329D01*
X70373522Y14779617D01*
X70392476Y14874905D01*
X70410594Y14910336D01*
X70414416Y14916532D01*
X70484814Y15030666D01*
X70485190Y15031799D01*
X70527672Y15160002D01*
X70539999Y15197203D01*
X70550500Y15299991D01*
X70550499Y16700008D01*
X70550497Y16700018D01*
X70550322Y16703472D01*
X70550000Y16716141D01*
X70550000Y20579989D01*
X70568954Y20675277D01*
X70574080Y20686115D01*
X70584990Y20712453D01*
X70599005Y20746288D01*
X70625501Y20810256D01*
X70650500Y20935931D01*
X70650500Y23564069D01*
X70625501Y23689744D01*
X70594851Y23763739D01*
X70576467Y23808123D01*
X70576464Y23808128D01*
X70554834Y23840500D01*
X70554833Y23840502D01*
X70505277Y23914669D01*
X69064669Y25355277D01*
X68958127Y25426466D01*
X68862857Y25465927D01*
X68839744Y25475501D01*
X68839742Y25475502D01*
X68839741Y25475502D01*
X68714071Y25500500D01*
X68714069Y25500500D01*
X68633914Y25500500D01*
X68538626Y25519454D01*
X68457844Y25573430D01*
X68403868Y25654212D01*
X68384914Y25749500D01*
X68388537Y25783738D01*
X68388124Y25783780D01*
X68399999Y25900019D01*
X68400000Y25900029D01*
X68400000Y26024999D01*
X68399999Y26025000D01*
X66999000Y26025000D01*
X66903712Y26043954D01*
X66822930Y26097930D01*
X66768954Y26178712D01*
X66750000Y26274000D01*
X66750000Y26276000D01*
X66768954Y26371288D01*
X66822930Y26452070D01*
X66903712Y26506046D01*
X66999000Y26525000D01*
X68399998Y26525000D01*
X68400000Y26525002D01*
X68400000Y28833837D01*
X68400322Y28846505D01*
X68400497Y28849964D01*
X68400500Y28849991D01*
X68400499Y29600008D01*
X68389999Y29702797D01*
X68334814Y29869334D01*
X68242712Y30018656D01*
X68228570Y30032798D01*
X68174597Y30113576D01*
X68155643Y30208864D01*
X68174597Y30304152D01*
X68228573Y30384934D01*
X68277894Y30423190D01*
X68344053Y30462316D01*
X68460184Y30578447D01*
X68543783Y30719805D01*
X68543783Y30719807D01*
X68589599Y30877508D01*
X68589796Y30880000D01*
X67116500Y30880000D01*
X67021212Y30898954D01*
X66940430Y30952930D01*
X66886454Y31033712D01*
X66867500Y31129000D01*
X66867500Y31131000D01*
X66886454Y31226288D01*
X66940430Y31307070D01*
X67021212Y31361046D01*
X67116500Y31380000D01*
X68589795Y31380000D01*
X68599178Y31390150D01*
X68677779Y31447256D01*
X68772249Y31469935D01*
X68833793Y31464686D01*
X68837696Y31463857D01*
X68837697Y31463856D01*
X69022854Y31424500D01*
X69022855Y31424500D01*
X69212145Y31424500D01*
X69212146Y31424500D01*
X69397303Y31463856D01*
X69410957Y31469935D01*
X69570228Y31540848D01*
X69570228Y31540849D01*
X69570230Y31540849D01*
X69723371Y31652112D01*
X69850033Y31792784D01*
X69944679Y31956716D01*
X70003174Y32136744D01*
X70022960Y32325000D01*
X70003174Y32513256D01*
X69944679Y32693284D01*
X69850033Y32857216D01*
X69850031Y32857219D01*
X69850030Y32857220D01*
X69723373Y32997886D01*
X69723372Y32997887D01*
X69723371Y32997888D01*
X69605338Y33083644D01*
X69570228Y33109153D01*
X69397310Y33186142D01*
X69397296Y33186146D01*
X69212146Y33225500D01*
X69022854Y33225500D01*
X68893460Y33197997D01*
X68796313Y33196726D01*
X68706075Y33232728D01*
X68636483Y33300522D01*
X68598132Y33389787D01*
X68593047Y33449416D01*
X68593000Y33449416D01*
X68593000Y33449966D01*
X68592883Y33451337D01*
X68593000Y33454314D01*
X68593000Y33885692D01*
X68592999Y33885705D01*
X68590261Y33920492D01*
X68590098Y33922569D01*
X68544244Y34080398D01*
X68486373Y34178252D01*
X68454183Y34269915D01*
X68459522Y34366923D01*
X68486372Y34431747D01*
X68544244Y34529602D01*
X68590098Y34687431D01*
X68593000Y34724306D01*
X68593000Y35155694D01*
X68590098Y35192569D01*
X68544244Y35350398D01*
X68486373Y35448252D01*
X68454183Y35539915D01*
X68459522Y35636923D01*
X68486372Y35701747D01*
X68544244Y35799602D01*
X68590098Y35957431D01*
X68593000Y35994306D01*
X68593000Y36425694D01*
X68590098Y36462569D01*
X68544244Y36620398D01*
X68486373Y36718252D01*
X68454183Y36809915D01*
X68459522Y36906923D01*
X68486372Y36971747D01*
X68544244Y37069602D01*
X68590098Y37227431D01*
X68593000Y37264306D01*
X68593000Y37695694D01*
X68590098Y37732569D01*
X68544244Y37890398D01*
X68486373Y37988252D01*
X68454183Y38079915D01*
X68459522Y38176923D01*
X68486372Y38241747D01*
X68544244Y38339602D01*
X68590098Y38497431D01*
X68593000Y38534306D01*
X68593000Y38965694D01*
X68590098Y39002569D01*
X68544244Y39160398D01*
X68486081Y39258746D01*
X68453893Y39350406D01*
X68459232Y39447414D01*
X68486085Y39512243D01*
X68543782Y39609803D01*
X68543783Y39609807D01*
X68589599Y39767508D01*
X68589796Y39770000D01*
X65610085Y39770000D01*
X65527577Y39750192D01*
X65517803Y39750000D01*
X63892000Y39750000D01*
X63796712Y39768954D01*
X63715930Y39822930D01*
X63661954Y39903712D01*
X63643000Y39999000D01*
X63643000Y40235692D01*
X63642999Y40235705D01*
X63640300Y40270001D01*
X65645203Y40270001D01*
X65645204Y40270000D01*
X66867499Y40270000D01*
X66867500Y40270001D01*
X67367500Y40270001D01*
X67367501Y40270000D01*
X68589796Y40270000D01*
X68589796Y40270001D01*
X68589599Y40272493D01*
X68543783Y40430194D01*
X68543783Y40430196D01*
X68460184Y40571554D01*
X68344053Y40687685D01*
X68202695Y40771284D01*
X68044998Y40817099D01*
X68044986Y40817101D01*
X68008150Y40820000D01*
X67367501Y40820000D01*
X67367500Y40819999D01*
X67367500Y40270001D01*
X66867500Y40270001D01*
X66867500Y40819999D01*
X66867499Y40820000D01*
X66226849Y40820000D01*
X66190013Y40817101D01*
X66190001Y40817099D01*
X66032304Y40771284D01*
X65890946Y40687685D01*
X65774815Y40571554D01*
X65691216Y40430196D01*
X65691216Y40430194D01*
X65645400Y40272493D01*
X65645203Y40270001D01*
X63640300Y40270001D01*
X63640098Y40272564D01*
X63640098Y40272569D01*
X63594244Y40430398D01*
X63510581Y40571865D01*
X63394365Y40688081D01*
X63252898Y40771744D01*
X63095069Y40817598D01*
X63095066Y40817599D01*
X63095063Y40817599D01*
X63058204Y40820500D01*
X63058194Y40820500D01*
X61276806Y40820500D01*
X61276795Y40820500D01*
X61239936Y40817599D01*
X61239927Y40817597D01*
X61082101Y40771744D01*
X61025751Y40738418D01*
X60934084Y40706227D01*
X60837075Y40711566D01*
X60749495Y40753622D01*
X60684675Y40825992D01*
X60652484Y40917659D01*
X60650000Y40952743D01*
X60650000Y41358837D01*
X60650322Y41371505D01*
X60650500Y41375000D01*
X60650499Y41827168D01*
X62500000Y41827168D01*
X62506401Y41767629D01*
X62506403Y41767622D01*
X62556646Y41632913D01*
X62642810Y41517813D01*
X62642812Y41517811D01*
X62757912Y41431647D01*
X62892621Y41381404D01*
X62892628Y41381402D01*
X62952167Y41375001D01*
X62952175Y41375000D01*
X63049999Y41375000D01*
X63050000Y41375001D01*
X63550000Y41375001D01*
X63550001Y41375000D01*
X63647825Y41375000D01*
X63647832Y41375001D01*
X63707371Y41381402D01*
X63707378Y41381404D01*
X63842087Y41431647D01*
X63957187Y41517811D01*
X63957192Y41517816D01*
X64050666Y41642680D01*
X64122944Y41707603D01*
X64214565Y41739925D01*
X64311581Y41734724D01*
X64399221Y41692793D01*
X64449334Y41642680D01*
X64542807Y41517816D01*
X64542812Y41517811D01*
X64657912Y41431647D01*
X64792621Y41381404D01*
X64792628Y41381402D01*
X64852167Y41375001D01*
X64852175Y41375000D01*
X64949999Y41375000D01*
X64950000Y41375001D01*
X65450000Y41375001D01*
X65450001Y41375000D01*
X65547825Y41375000D01*
X65547832Y41375001D01*
X65607371Y41381402D01*
X65607378Y41381404D01*
X65742087Y41431647D01*
X65857187Y41517811D01*
X65857189Y41517813D01*
X65943353Y41632913D01*
X65993596Y41767622D01*
X65993598Y41767629D01*
X65999999Y41827168D01*
X66000000Y41827175D01*
X66000000Y42049999D01*
X65999999Y42050000D01*
X65450001Y42050000D01*
X65450000Y42049999D01*
X65450000Y41375001D01*
X64950000Y41375001D01*
X64950000Y42550001D01*
X65450000Y42550001D01*
X65450001Y42550000D01*
X65999999Y42550000D01*
X66000000Y42550001D01*
X66000000Y42772825D01*
X65999999Y42772833D01*
X65993598Y42832372D01*
X65993596Y42832379D01*
X65943353Y42967088D01*
X65857189Y43082188D01*
X65857187Y43082190D01*
X65742087Y43168354D01*
X65607378Y43218597D01*
X65607371Y43218599D01*
X65547832Y43225000D01*
X65450001Y43225000D01*
X65450000Y43224999D01*
X65450000Y42550001D01*
X64950000Y42550001D01*
X64950000Y43224999D01*
X64949999Y43225000D01*
X64852167Y43225000D01*
X64792628Y43218599D01*
X64792621Y43218597D01*
X64657912Y43168354D01*
X64542812Y43082190D01*
X64542806Y43082184D01*
X64449333Y42957320D01*
X64377055Y42892397D01*
X64285434Y42860076D01*
X64188418Y42865277D01*
X64100778Y42907209D01*
X64050667Y42957320D01*
X63957193Y43082184D01*
X63957187Y43082190D01*
X63842087Y43168354D01*
X63707378Y43218597D01*
X63707371Y43218599D01*
X63647832Y43225000D01*
X63550001Y43225000D01*
X63550000Y43224999D01*
X63550000Y41375001D01*
X63050000Y41375001D01*
X63050000Y42049999D01*
X63049999Y42050000D01*
X62500001Y42050000D01*
X62500000Y42049999D01*
X62500000Y41827168D01*
X60650499Y41827168D01*
X60650499Y42124998D01*
X60650499Y42125008D01*
X60650497Y42125018D01*
X60650322Y42128472D01*
X60650000Y42141141D01*
X60650000Y42550001D01*
X62500000Y42550001D01*
X62500001Y42550000D01*
X63049999Y42550000D01*
X63050000Y42550001D01*
X63050000Y43224999D01*
X63049999Y43225000D01*
X62952167Y43225000D01*
X62892628Y43218599D01*
X62892621Y43218597D01*
X62757912Y43168354D01*
X62642812Y43082190D01*
X62642810Y43082188D01*
X62556646Y42967088D01*
X62506403Y42832379D01*
X62506401Y42832372D01*
X62500000Y42772833D01*
X62500000Y42550001D01*
X60650000Y42550001D01*
X60650000Y44308837D01*
X60650322Y44321505D01*
X60650497Y44324964D01*
X60650500Y44324991D01*
X60650499Y45051001D01*
X60669453Y45146288D01*
X60723429Y45227069D01*
X60804211Y45281046D01*
X60899499Y45300000D01*
X62983836Y45300000D01*
X62996503Y45299678D01*
X62999966Y45299503D01*
X62999991Y45299500D01*
X63200501Y45299501D01*
X63295787Y45280547D01*
X63376569Y45226571D01*
X63430546Y45145790D01*
X63449500Y45050502D01*
X63449500Y44227135D01*
X63449500Y44227132D01*
X63449501Y44227128D01*
X63451567Y44207907D01*
X63455908Y44167520D01*
X63455909Y44167516D01*
X63506203Y44032671D01*
X63506204Y44032669D01*
X63592454Y43917454D01*
X63707669Y43831204D01*
X63842517Y43780909D01*
X63902127Y43774500D01*
X64597872Y43774501D01*
X64657483Y43780909D01*
X64792331Y43831204D01*
X64907546Y43917454D01*
X64993796Y44032669D01*
X65044091Y44167517D01*
X65050500Y44227127D01*
X65050499Y45172872D01*
X65044091Y45232483D01*
X64993796Y45367331D01*
X64985836Y45377964D01*
X64968382Y45401280D01*
X64926451Y45488920D01*
X64921250Y45585936D01*
X64953572Y45677557D01*
X65018495Y45749835D01*
X65106135Y45791766D01*
X65167716Y45799501D01*
X65723342Y45799501D01*
X65723344Y45799501D01*
X65822708Y45809651D01*
X65983697Y45862997D01*
X66128044Y45952032D01*
X66247968Y46071956D01*
X66337003Y46216303D01*
X66390349Y46377292D01*
X66400500Y46476655D01*
X66400500Y46629000D01*
X66419454Y46724288D01*
X66473430Y46805070D01*
X66554212Y46859046D01*
X66649500Y46878000D01*
X69199994Y46878000D01*
X69200000Y46878000D01*
X69271940Y46883145D01*
X69409992Y46923681D01*
X69531032Y47001469D01*
X69625254Y47110206D01*
X69685024Y47241084D01*
X69705500Y47383500D01*
X69705500Y48410310D01*
X69724454Y48505598D01*
X69778430Y48586380D01*
X69859212Y48640356D01*
X69954500Y48659310D01*
X70049788Y48640356D01*
X70103722Y48609643D01*
X70207909Y48531648D01*
X70342621Y48481404D01*
X70342628Y48481402D01*
X70402167Y48475001D01*
X70402175Y48475000D01*
X72097825Y48475000D01*
X72097832Y48475001D01*
X72157371Y48481402D01*
X72157378Y48481404D01*
X72292087Y48531647D01*
X72407187Y48617811D01*
X72407189Y48617813D01*
X72493353Y48732913D01*
X72543596Y48867622D01*
X72543598Y48867629D01*
X72549999Y48927168D01*
X72550000Y48927175D01*
X72550000Y49771446D01*
X71250000Y51071446D01*
X69950000Y49771446D01*
X69950000Y49673920D01*
X69931046Y49578632D01*
X69877070Y49497850D01*
X69796288Y49443874D01*
X69701000Y49424920D01*
X69605712Y49443874D01*
X69537940Y49485738D01*
X69473293Y49541755D01*
X69473291Y49541756D01*
X69342418Y49601524D01*
X69301725Y49607375D01*
X69200000Y49622000D01*
X69199995Y49622000D01*
X68099000Y49622000D01*
X68003712Y49640954D01*
X67922930Y49694930D01*
X67868954Y49775712D01*
X67850000Y49871000D01*
X67850000Y51761130D01*
X67850357Y51774459D01*
X67850500Y51777127D01*
X67850500Y52371447D01*
X69950000Y52371447D01*
X69950000Y50478554D01*
X70896446Y51425001D01*
X71603553Y51425001D01*
X72549999Y50478554D01*
X72561563Y50483344D01*
X72563790Y50494540D01*
X72550000Y50574795D01*
X72550000Y52371447D01*
X72549999Y52371447D01*
X71603553Y51425001D01*
X70896446Y51425001D01*
X69950000Y52371447D01*
X67850500Y52371447D01*
X67850500Y52625500D01*
X67869454Y52720788D01*
X67923430Y52801570D01*
X68004212Y52855546D01*
X68099500Y52874500D01*
X69912670Y52874500D01*
X69980378Y52861032D01*
G37*
%TD.AperFunction*%
%TA.AperFunction,Conductor*%
G36*
X47572202Y4231046D02*
G01*
X47652984Y4177070D01*
X48585331Y3244723D01*
X48605407Y3231309D01*
X48691872Y3173535D01*
X48731334Y3157190D01*
X48810256Y3124499D01*
X48935929Y3099501D01*
X48935930Y3099500D01*
X48935931Y3099500D01*
X58814070Y3099500D01*
X58814070Y3099501D01*
X58939744Y3124499D01*
X59058127Y3173535D01*
X59164669Y3244723D01*
X59424431Y3504485D01*
X59505211Y3558461D01*
X59600500Y3577415D01*
X59695788Y3558461D01*
X59776569Y3504485D01*
X59830546Y3423704D01*
X59849500Y3328415D01*
X59849500Y2497586D01*
X59830546Y2402298D01*
X59776570Y2321516D01*
X59578484Y2123430D01*
X59497702Y2069454D01*
X59402414Y2050500D01*
X48272585Y2050500D01*
X48177297Y2069454D01*
X48096515Y2123430D01*
X46473430Y3746516D01*
X46419454Y3827298D01*
X46400500Y3922586D01*
X46400500Y4001000D01*
X46419454Y4096288D01*
X46473430Y4177070D01*
X46554212Y4231046D01*
X46649500Y4250000D01*
X47476914Y4250000D01*
X47572202Y4231046D01*
G37*
%TD.AperFunction*%
%TA.AperFunction,Conductor*%
G36*
X10460000Y3484929D02*
G01*
X9960000Y3622370D01*
X9960000Y3736988D01*
X10017007Y3704075D01*
X10144174Y3670000D01*
X10275826Y3670000D01*
X10402993Y3704075D01*
X10460000Y3736988D01*
X10460000Y3484929D01*
G37*
%TD.AperFunction*%
%TA.AperFunction,Conductor*%
G36*
X62741654Y19828723D02*
G01*
X62828790Y19785751D01*
X62853276Y19764278D01*
X64577070Y18040484D01*
X64631046Y17959702D01*
X64650000Y17864414D01*
X64650000Y17524500D01*
X64631046Y17429212D01*
X64577070Y17348430D01*
X64496288Y17294454D01*
X64401000Y17275500D01*
X63575002Y17275500D01*
X63574985Y17275499D01*
X63472198Y17264999D01*
X63472196Y17264998D01*
X63327527Y17217059D01*
X63231114Y17205078D01*
X63170883Y17217059D01*
X63027701Y17264505D01*
X63027694Y17264506D01*
X62924981Y17275000D01*
X62500000Y17275000D01*
X62500000Y16211500D01*
X62481046Y16116212D01*
X62427070Y16035430D01*
X62346288Y15981454D01*
X62251000Y15962500D01*
X60947639Y15962500D01*
X60884797Y15975000D01*
X59115203Y15975000D01*
X59052361Y15962500D01*
X57749000Y15962500D01*
X57653712Y15981454D01*
X57572930Y16035430D01*
X57518954Y16116212D01*
X57500000Y16211500D01*
X57500000Y16213500D01*
X57518954Y16308788D01*
X57572930Y16389570D01*
X57653712Y16443546D01*
X57749000Y16462500D01*
X58609797Y16462500D01*
X58672639Y16475000D01*
X61327361Y16475000D01*
X61390203Y16462500D01*
X61999999Y16462500D01*
X62000000Y16462501D01*
X62000000Y17346294D01*
X62018954Y17441582D01*
X62053663Y17500711D01*
X62055663Y17503241D01*
X62075177Y17519864D01*
X62077112Y17529586D01*
X62095229Y17565017D01*
X62154359Y17660882D01*
X62209504Y17827299D01*
X62209505Y17827306D01*
X62219999Y17930019D01*
X62220000Y17930029D01*
X62220000Y18379999D01*
X62219999Y18380000D01*
X61101858Y18380000D01*
X61145000Y18630000D01*
X61043566Y18880000D01*
X62219998Y18880000D01*
X62219999Y18880001D01*
X62219999Y19329968D01*
X62219998Y19329985D01*
X62209505Y19432700D01*
X62188139Y19497178D01*
X62176158Y19593592D01*
X62201985Y19687251D01*
X62261688Y19763897D01*
X62346177Y19811862D01*
X62424499Y19824501D01*
X62564360Y19824501D01*
X62644707Y19835078D01*
X62741654Y19828723D01*
G37*
%TD.AperFunction*%
%TA.AperFunction,Conductor*%
G36*
X57250000Y28953704D02*
G01*
X57250000Y27950002D01*
X57250001Y27950001D01*
X57699968Y27950001D01*
X57699984Y27950002D01*
X57816220Y27961876D01*
X57816418Y27959931D01*
X57896005Y27961093D01*
X57986298Y27925228D01*
X58055993Y27857540D01*
X58094480Y27768333D01*
X58100000Y27716194D01*
X58100000Y26525001D01*
X58100001Y26525000D01*
X59501000Y26525000D01*
X59596288Y26506046D01*
X59677070Y26452070D01*
X59731046Y26371288D01*
X59750000Y26276000D01*
X59750000Y25200002D01*
X59750001Y25200001D01*
X59866020Y25200001D01*
X59866025Y25200000D01*
X61900000Y25200000D01*
X62003135Y25200000D01*
X62003140Y25200001D01*
X62249999Y25200001D01*
X62250000Y25200002D01*
X62250000Y26315117D01*
X62750000Y26297675D01*
X62750000Y25200002D01*
X62750001Y25200001D01*
X63199968Y25200001D01*
X63199984Y25200002D01*
X63302699Y25210495D01*
X63302702Y25210496D01*
X63469119Y25265641D01*
X63469120Y25265642D01*
X63546039Y25313085D01*
X63637091Y25346977D01*
X63734181Y25343445D01*
X63822530Y25303027D01*
X63852828Y25277226D01*
X64689404Y24440649D01*
X64743380Y24359868D01*
X64762334Y24264580D01*
X64743380Y24169292D01*
X64689403Y24088510D01*
X64644053Y24052652D01*
X64506347Y23967715D01*
X64382286Y23843654D01*
X64290184Y23694332D01*
X64235002Y23527803D01*
X64235001Y23527796D01*
X64224500Y23425012D01*
X64224500Y22724500D01*
X64205546Y22629212D01*
X64151570Y22548430D01*
X64070788Y22494454D01*
X63975500Y22475500D01*
X63361643Y22475500D01*
X63266355Y22494454D01*
X63185573Y22548430D01*
X63131597Y22629212D01*
X63114773Y22692002D01*
X63109556Y22731629D01*
X63109556Y22731630D01*
X63049098Y22877589D01*
X63049096Y22877593D01*
X62952929Y23002921D01*
X62952920Y23002930D01*
X62827592Y23099097D01*
X62827588Y23099099D01*
X62681627Y23159557D01*
X62681629Y23159557D01*
X62564323Y23175000D01*
X61235676Y23175000D01*
X61118370Y23159557D01*
X60972411Y23099099D01*
X60972407Y23099097D01*
X60847079Y23002930D01*
X60847070Y23002921D01*
X60750903Y22877593D01*
X60750901Y22877589D01*
X60690443Y22731629D01*
X60675000Y22614324D01*
X60675000Y22335677D01*
X60690444Y22218364D01*
X60691235Y22215413D01*
X60691633Y22209336D01*
X60692574Y22202188D01*
X60692105Y22202127D01*
X60697585Y22118465D01*
X60691236Y22086543D01*
X60689956Y22081768D01*
X60674500Y21964362D01*
X60674500Y21685639D01*
X60689956Y21568235D01*
X60690972Y21564444D01*
X60691484Y21556630D01*
X60692086Y21552057D01*
X60691786Y21552018D01*
X60697325Y21467497D01*
X60690973Y21435561D01*
X60689956Y21431768D01*
X60674500Y21314362D01*
X60674500Y21035639D01*
X60689956Y20918235D01*
X60690972Y20914444D01*
X60691484Y20906630D01*
X60692086Y20902057D01*
X60691786Y20902018D01*
X60697325Y20817497D01*
X60690973Y20785561D01*
X60689956Y20781768D01*
X60674500Y20664362D01*
X60674500Y20385641D01*
X60675046Y20381500D01*
X60674909Y20379411D01*
X60675034Y20377504D01*
X60674782Y20377488D01*
X60668691Y20284553D01*
X60625720Y20197418D01*
X60552675Y20133359D01*
X60460676Y20102130D01*
X60428176Y20100000D01*
X59071825Y20100000D01*
X58976537Y20118954D01*
X58895755Y20172930D01*
X58841779Y20253712D01*
X58822825Y20349000D01*
X58824956Y20381505D01*
X58825135Y20382867D01*
X58825500Y20385639D01*
X58825499Y20664360D01*
X58823820Y20677112D01*
X58810044Y20781760D01*
X58810044Y20781762D01*
X58810042Y20781768D01*
X58809028Y20785553D01*
X58808515Y20793377D01*
X58807914Y20797943D01*
X58808213Y20797983D01*
X58802673Y20882500D01*
X58809028Y20914450D01*
X58810039Y20918228D01*
X58810044Y20918238D01*
X58825500Y21035639D01*
X58825499Y21314360D01*
X58824791Y21319735D01*
X58813131Y21408313D01*
X58810044Y21431762D01*
X58810042Y21431768D01*
X58809028Y21435553D01*
X58808515Y21443377D01*
X58807914Y21447943D01*
X58808213Y21447983D01*
X58802673Y21532500D01*
X58809028Y21564450D01*
X58810039Y21568228D01*
X58810044Y21568238D01*
X58825500Y21685639D01*
X58825499Y21964360D01*
X58825048Y21967784D01*
X58814291Y22049500D01*
X58810044Y22081762D01*
X58810042Y22081768D01*
X58809028Y22085553D01*
X58808515Y22093377D01*
X58807914Y22097943D01*
X58808213Y22097983D01*
X58802673Y22182500D01*
X58809028Y22214450D01*
X58810039Y22218228D01*
X58810044Y22218238D01*
X58825500Y22335639D01*
X58825499Y22614360D01*
X58824833Y22619416D01*
X58810044Y22731762D01*
X58749536Y22877841D01*
X58687648Y22958495D01*
X58653286Y23003277D01*
X58653285Y23003278D01*
X58653282Y23003282D01*
X58653277Y23003286D01*
X58653276Y23003287D01*
X58527844Y23099534D01*
X58527843Y23099535D01*
X58527841Y23099536D01*
X58381762Y23160044D01*
X58381760Y23160045D01*
X58264362Y23175500D01*
X58264361Y23175500D01*
X57847586Y23175500D01*
X57752298Y23194454D01*
X57671516Y23248430D01*
X57664669Y23255277D01*
X57558127Y23326466D01*
X57462857Y23365927D01*
X57439744Y23375501D01*
X57439742Y23375502D01*
X57439741Y23375502D01*
X57314071Y23400500D01*
X57314069Y23400500D01*
X54736986Y23400500D01*
X54641698Y23419454D01*
X54560916Y23473430D01*
X54506940Y23554212D01*
X54500625Y23571177D01*
X54461335Y23689744D01*
X54459814Y23694334D01*
X54367712Y23843656D01*
X54243656Y23967712D01*
X54243653Y23967714D01*
X54243649Y23967718D01*
X54241538Y23969387D01*
X54239001Y23972366D01*
X54233400Y23977967D01*
X54233848Y23978416D01*
X54178547Y24043355D01*
X54160232Y24100000D01*
X54150000Y24100000D01*
X54013241Y24100000D01*
X53934919Y24112639D01*
X53927797Y24114999D01*
X53825009Y24125500D01*
X53825005Y24125500D01*
X53099993Y24125500D01*
X52997200Y24114999D01*
X52990084Y24112640D01*
X52911758Y24100000D01*
X51650000Y24100000D01*
X51643189Y24089940D01*
X51574072Y24021661D01*
X51484088Y23985029D01*
X51386935Y23985621D01*
X51297404Y24023347D01*
X51229125Y24092464D01*
X51192493Y24182448D01*
X51188000Y24229536D01*
X51188000Y24814914D01*
X51206954Y24910202D01*
X51260930Y24990984D01*
X51996516Y25726570D01*
X52077298Y25780546D01*
X52172586Y25799500D01*
X54714070Y25799500D01*
X54714070Y25799501D01*
X54839744Y25824499D01*
X54958127Y25873535D01*
X54997759Y25900016D01*
X58100001Y25900016D01*
X58110494Y25797301D01*
X58110495Y25797298D01*
X58165640Y25630881D01*
X58165641Y25630879D01*
X58257681Y25481659D01*
X58257684Y25481655D01*
X58381654Y25357685D01*
X58381658Y25357682D01*
X58530878Y25265642D01*
X58530879Y25265641D01*
X58697298Y25210496D01*
X58697305Y25210495D01*
X58800023Y25200001D01*
X59250000Y25200001D01*
X59250000Y26024999D01*
X59249999Y26025000D01*
X58100002Y26025000D01*
X58100001Y26024999D01*
X58100001Y25900016D01*
X54997759Y25900016D01*
X55064669Y25944723D01*
X55755276Y26635331D01*
X55826465Y26741873D01*
X55875501Y26860256D01*
X55883697Y26901459D01*
X55900500Y26985931D01*
X55900500Y27716087D01*
X55919454Y27811375D01*
X55973430Y27892157D01*
X56054212Y27946133D01*
X56149500Y27965087D01*
X56183737Y27961462D01*
X56183780Y27961876D01*
X56300023Y27950001D01*
X56750000Y27950001D01*
X56750000Y29083334D01*
X57250000Y28953704D01*
G37*
%TD.AperFunction*%
%TA.AperFunction,Conductor*%
G36*
X59300029Y33631046D02*
G01*
X59380811Y33577070D01*
X59434787Y33496288D01*
X59441549Y33477960D01*
X59472821Y33381716D01*
X59567467Y33217784D01*
X59567469Y33217781D01*
X59694126Y33077115D01*
X59694129Y33077112D01*
X59797624Y33001919D01*
X59847271Y32965848D01*
X60020189Y32888859D01*
X60020192Y32888858D01*
X60020197Y32888856D01*
X60205354Y32849500D01*
X60394646Y32849500D01*
X60407624Y32850864D01*
X60407844Y32848770D01*
X60487252Y32849813D01*
X60577493Y32813817D01*
X60647090Y32746028D01*
X60682403Y32663848D01*
X60695204Y32650000D01*
X62168500Y32650000D01*
X62263788Y32631046D01*
X62344570Y32577070D01*
X62398546Y32496288D01*
X62417500Y32401000D01*
X62417500Y32399000D01*
X62398546Y32303712D01*
X62344570Y32222930D01*
X62263788Y32168954D01*
X62168500Y32150000D01*
X60695203Y32150000D01*
X60695280Y32149031D01*
X60683858Y32052549D01*
X60636384Y31967783D01*
X60560086Y31907637D01*
X60466578Y31881267D01*
X60447047Y31880500D01*
X59714911Y31880500D01*
X59663142Y31885941D01*
X59594646Y31900500D01*
X59405354Y31900500D01*
X59397083Y31900500D01*
X59387547Y31900000D01*
X58649499Y31900000D01*
X58554211Y31918954D01*
X58473429Y31972930D01*
X58419453Y32053712D01*
X58400499Y32149000D01*
X58400499Y32350007D01*
X58400499Y32350009D01*
X58389999Y32452797D01*
X58375587Y32496288D01*
X58346099Y32585277D01*
X58334814Y32619334D01*
X58242712Y32768656D01*
X58141723Y32869645D01*
X58087750Y32950423D01*
X58068796Y33045711D01*
X58087750Y33140999D01*
X58141726Y33221781D01*
X58497015Y33577070D01*
X58577797Y33631046D01*
X58673085Y33650000D01*
X59204741Y33650000D01*
X59300029Y33631046D01*
G37*
%TD.AperFunction*%
%TA.AperFunction,Conductor*%
G36*
X58292125Y39218046D02*
G01*
X58298100Y39215480D01*
X58470197Y39138856D01*
X58655354Y39099500D01*
X58844645Y39099500D01*
X58844646Y39099500D01*
X58949946Y39121882D01*
X59042568Y39141569D01*
X59043085Y39139136D01*
X59120017Y39148247D01*
X59213527Y39121882D01*
X59289829Y39061740D01*
X59337307Y38976976D01*
X59349500Y38900013D01*
X59349500Y38372587D01*
X59330546Y38277299D01*
X59276570Y38196517D01*
X59276569Y38196517D01*
X58538387Y37458336D01*
X58457606Y37404360D01*
X58362318Y37385406D01*
X58267030Y37404360D01*
X58186248Y37458337D01*
X58132272Y37539118D01*
X58125956Y37556085D01*
X58084357Y37681624D01*
X57992318Y37830842D01*
X57992315Y37830846D01*
X57868345Y37954816D01*
X57868341Y37954819D01*
X57719121Y38046859D01*
X57719120Y38046860D01*
X57552701Y38102005D01*
X57552694Y38102006D01*
X57449981Y38112500D01*
X57000001Y38112500D01*
X57000000Y38112499D01*
X57000000Y37036500D01*
X56981046Y36941212D01*
X56927070Y36860430D01*
X56846288Y36806454D01*
X56751000Y36787500D01*
X56749000Y36787500D01*
X56653712Y36806454D01*
X56572930Y36860430D01*
X56518954Y36941212D01*
X56500000Y37036500D01*
X56500000Y38663001D01*
X56518954Y38758289D01*
X56572930Y38839071D01*
X56653712Y38893047D01*
X56748997Y38912001D01*
X57450008Y38912001D01*
X57552797Y38922501D01*
X57719334Y38977686D01*
X57868656Y39069788D01*
X57962940Y39164073D01*
X58043719Y39218046D01*
X58139007Y39237000D01*
X58196837Y39237000D01*
X58292125Y39218046D01*
G37*
%TD.AperFunction*%
%TA.AperFunction,Conductor*%
G36*
X12284075Y42432993D02*
G01*
X12250000Y42305826D01*
X12250000Y42174174D01*
X12284075Y42047007D01*
X12316988Y41990000D01*
X10643012Y41990000D01*
X10675925Y42047007D01*
X10710000Y42174174D01*
X10710000Y42305826D01*
X10675925Y42432993D01*
X10643012Y42490000D01*
X12316988Y42490000D01*
X12284075Y42432993D01*
G37*
%TD.AperFunction*%
%TA.AperFunction,Conductor*%
G36*
X61480378Y52861032D02*
G01*
X61548087Y52874500D01*
X61550913Y52874500D01*
X61646201Y52855546D01*
X61726983Y52801570D01*
X62750000Y51778554D01*
X63773017Y52801570D01*
X63853799Y52855546D01*
X63949087Y52874500D01*
X63951913Y52874500D01*
X64019621Y52861032D01*
X64087330Y52874500D01*
X65900501Y52874500D01*
X65995789Y52855546D01*
X66076571Y52801570D01*
X66130547Y52720788D01*
X66149501Y52625500D01*
X66149501Y51777126D01*
X66156926Y51708050D01*
X66148264Y51611282D01*
X66103230Y51525195D01*
X66085422Y51505370D01*
X65353482Y50773430D01*
X65272700Y50719454D01*
X65177413Y50700500D01*
X64776657Y50700500D01*
X64707222Y50693407D01*
X64677292Y50690349D01*
X64677290Y50690349D01*
X64677286Y50690348D01*
X64516306Y50637005D01*
X64516305Y50637005D01*
X64429719Y50583597D01*
X64338667Y50549705D01*
X64241577Y50553237D01*
X64153228Y50593655D01*
X64087072Y50664806D01*
X64053180Y50755858D01*
X64050000Y50795525D01*
X64050000Y52371447D01*
X64049999Y52371447D01*
X62750000Y51071447D01*
X61450000Y49771447D01*
X61450000Y48449000D01*
X61431046Y48353712D01*
X61377070Y48272930D01*
X61296288Y48218954D01*
X61201000Y48200000D01*
X60516164Y48200000D01*
X60503497Y48200322D01*
X60500015Y48200500D01*
X60500009Y48200500D01*
X60500002Y48200500D01*
X59849993Y48200500D01*
X59747199Y48189999D01*
X59580665Y48134815D01*
X59567524Y48128686D01*
X59566677Y48130502D01*
X59493267Y48103179D01*
X59453607Y48100000D01*
X59038241Y48100000D01*
X58959919Y48112639D01*
X58952797Y48114999D01*
X58850009Y48125500D01*
X58850005Y48125500D01*
X58099993Y48125500D01*
X57997200Y48114999D01*
X57990084Y48112640D01*
X57911758Y48100000D01*
X56088241Y48100000D01*
X56009919Y48112639D01*
X56002797Y48114999D01*
X55900009Y48125500D01*
X55900005Y48125500D01*
X55149993Y48125500D01*
X55047199Y48114999D01*
X54880667Y48059815D01*
X54731346Y47967714D01*
X54607284Y47843652D01*
X54601644Y47834507D01*
X54535488Y47763356D01*
X54447139Y47722939D01*
X54350048Y47719407D01*
X54311400Y47728864D01*
X54277797Y47739999D01*
X54175009Y47750500D01*
X54175005Y47750500D01*
X52824984Y47750500D01*
X52821530Y47750323D01*
X52808860Y47750000D01*
X51941164Y47750000D01*
X51928497Y47750322D01*
X51925015Y47750500D01*
X51925009Y47750500D01*
X51925002Y47750500D01*
X50574984Y47750500D01*
X50571530Y47750323D01*
X50558860Y47750000D01*
X49250001Y47750000D01*
X49250000Y47749999D01*
X49250000Y46539584D01*
X48750000Y46518750D01*
X48750000Y47749999D01*
X48749999Y47750000D01*
X48325024Y47750000D01*
X48222300Y47739506D01*
X48222297Y47739505D01*
X48077322Y47691465D01*
X47980908Y47679484D01*
X47887249Y47705312D01*
X47810603Y47765015D01*
X47762639Y47849504D01*
X47750000Y47927826D01*
X47750000Y48750500D01*
X47768954Y48845788D01*
X47822930Y48926570D01*
X47903712Y48980546D01*
X47999000Y48999500D01*
X51464070Y48999500D01*
X51464070Y48999501D01*
X51589744Y49024499D01*
X51708127Y49073535D01*
X51740665Y49095276D01*
X51814669Y49144723D01*
X52529658Y49859714D01*
X52610440Y49913690D01*
X52705728Y49932644D01*
X52770168Y49924161D01*
X52804592Y49914937D01*
X52818845Y49913690D01*
X53039995Y49894341D01*
X53040000Y49894341D01*
X53040005Y49894341D01*
X53219139Y49910015D01*
X53275408Y49914937D01*
X53374603Y49941517D01*
X53439048Y49950000D01*
X55182885Y49950000D01*
X55247329Y49941516D01*
X55329999Y49919366D01*
X55330000Y49919366D01*
X55330000Y50816988D01*
X55387007Y50784075D01*
X55514174Y50750000D01*
X55645826Y50750000D01*
X55772993Y50784075D01*
X55830000Y50816988D01*
X55830000Y49919365D01*
X56043488Y49976569D01*
X56257576Y50076400D01*
X56451076Y50211890D01*
X56618110Y50378924D01*
X56753600Y50572424D01*
X56853433Y50786515D01*
X56853433Y50786517D01*
X56910636Y50999999D01*
X56910636Y51000000D01*
X56013012Y51000000D01*
X56045925Y51057007D01*
X56080000Y51184174D01*
X56080000Y51315826D01*
X56045925Y51442993D01*
X56013012Y51500000D01*
X56910636Y51500000D01*
X56908484Y51508031D01*
X56900000Y51572477D01*
X56900000Y52371447D01*
X61450000Y52371447D01*
X61450000Y50478554D01*
X62396446Y51425001D01*
X61450000Y52371447D01*
X56900000Y52371447D01*
X56900000Y52625500D01*
X56918954Y52720788D01*
X56972930Y52801570D01*
X57053712Y52855546D01*
X57149000Y52874500D01*
X61412670Y52874500D01*
X61480378Y52861032D01*
G37*
%TD.AperFunction*%
%TD*%
M02*
