%TF.GenerationSoftware,KiCad,Pcbnew,8.0.2*%
%TF.CreationDate,2024-05-26T23:16:47+07:00*%
%TF.ProjectId,FT600_RP2040,46543630-305f-4525-9032-3034302e6b69,rev?*%
%TF.SameCoordinates,PX7735940PY61c06a0*%
%TF.FileFunction,Legend,Top*%
%TF.FilePolarity,Positive*%
%FSLAX46Y46*%
G04 Gerber Fmt 4.6, Leading zero omitted, Abs format (unit mm)*
G04 Created by KiCad (PCBNEW 8.0.2) date 2024-05-26 23:16:47*
%MOMM*%
%LPD*%
G01*
G04 APERTURE LIST*
%ADD10C,0.100000*%
%ADD11C,0.150000*%
%ADD12C,0.254000*%
%ADD13C,0.200000*%
%ADD14C,0.120000*%
G04 APERTURE END LIST*
D10*
G36*
X47303758Y52961962D02*
G01*
X45445785Y52961962D01*
X45445785Y53326334D01*
X45512452Y53326334D01*
X45512452Y53288066D01*
X45539512Y53261006D01*
X45558646Y53257200D01*
X45739431Y53258645D01*
X45741023Y53059495D01*
X45768083Y53032435D01*
X45806351Y53032435D01*
X45833411Y53059495D01*
X45837217Y53078629D01*
X45835772Y53259415D01*
X46034923Y53261006D01*
X46061983Y53288066D01*
X46061983Y53326334D01*
X46034923Y53353394D01*
X46015789Y53357200D01*
X45835002Y53355756D01*
X45834821Y53378473D01*
X46225062Y53378473D01*
X46226737Y53376426D01*
X46226737Y53373781D01*
X46238638Y53361880D01*
X46249295Y53348854D01*
X46251926Y53348591D01*
X46253796Y53346721D01*
X46270624Y53346721D01*
X46287373Y53345046D01*
X46289420Y53346721D01*
X46292065Y53346721D01*
X46308286Y53357559D01*
X46326460Y53378216D01*
X46365862Y53400228D01*
X46484378Y53403013D01*
X46524198Y53385333D01*
X46543946Y53367958D01*
X46565957Y53328556D01*
X46568742Y53210040D01*
X46551063Y53170222D01*
X46533686Y53150471D01*
X46494287Y53128460D01*
X46375770Y53125675D01*
X46335949Y53143355D01*
X46292065Y53181966D01*
X46253797Y53181966D01*
X46226737Y53154906D01*
X46226737Y53116638D01*
X46237576Y53100417D01*
X46262332Y53078635D01*
X46263731Y53074440D01*
X46279143Y53062478D01*
X46282277Y53061087D01*
X46282369Y53061006D01*
X46282459Y53061006D01*
X46333682Y53038265D01*
X46339512Y53032435D01*
X46352739Y53029804D01*
X46355102Y53028755D01*
X46356189Y53029118D01*
X46358646Y53028629D01*
X46495760Y53031851D01*
X46505047Y53028755D01*
X46518285Y53032380D01*
X46520637Y53032435D01*
X46521447Y53033246D01*
X46523863Y53033907D01*
X46572372Y53061006D01*
X46577781Y53061006D01*
X46594002Y53071845D01*
X46596155Y53074293D01*
X46596419Y53074440D01*
X46596500Y53074686D01*
X46615783Y53096603D01*
X46619977Y53098000D01*
X46631939Y53113412D01*
X46633330Y53116547D01*
X46633411Y53116638D01*
X46633410Y53116728D01*
X46656152Y53167952D01*
X46661982Y53173781D01*
X46664613Y53187009D01*
X46665662Y53189371D01*
X46665299Y53190459D01*
X46665788Y53192915D01*
X46662566Y53330029D01*
X46665662Y53339316D01*
X46662037Y53352555D01*
X46661982Y53354906D01*
X46661171Y53355717D01*
X46660510Y53358132D01*
X46633411Y53406640D01*
X46633411Y53412050D01*
X46622572Y53428271D01*
X46620122Y53430426D01*
X46619977Y53430687D01*
X46619733Y53430769D01*
X46597817Y53450051D01*
X46596419Y53454246D01*
X46581007Y53466207D01*
X46577872Y53467599D01*
X46577780Y53467680D01*
X46577689Y53467680D01*
X46526466Y53490423D01*
X46520637Y53496252D01*
X46507411Y53498883D01*
X46505048Y53499932D01*
X46503959Y53499570D01*
X46501503Y53500058D01*
X46364388Y53496837D01*
X46355101Y53499932D01*
X46341865Y53496308D01*
X46339512Y53496252D01*
X46338700Y53495441D01*
X46336285Y53494779D01*
X46331809Y53492279D01*
X46343781Y53629157D01*
X46606351Y53632435D01*
X46633411Y53659495D01*
X46633411Y53682173D01*
X46737343Y53682173D01*
X46739783Y53662818D01*
X46938408Y53078344D01*
X46937343Y53075085D01*
X46944125Y53061521D01*
X46949444Y53045869D01*
X46952786Y53044198D01*
X46954457Y53040856D01*
X46969493Y53035844D01*
X46983673Y53028754D01*
X46987218Y53029936D01*
X46990761Y53028755D01*
X47004934Y53035842D01*
X47019977Y53040856D01*
X47021648Y53044199D01*
X47024990Y53045869D01*
X47034651Y53062818D01*
X47237091Y53682174D01*
X47219977Y53716402D01*
X47183673Y53728504D01*
X47149444Y53711389D01*
X47139783Y53694441D01*
X46988274Y53230908D01*
X46824990Y53711389D01*
X46790761Y53728503D01*
X46754457Y53716402D01*
X46737343Y53682173D01*
X46633411Y53682173D01*
X46633411Y53697763D01*
X46606351Y53724823D01*
X46587217Y53728629D01*
X46301430Y53725061D01*
X46287061Y53726498D01*
X46285054Y53724857D01*
X46282369Y53724823D01*
X46270469Y53712924D01*
X46257442Y53702265D01*
X46256402Y53698857D01*
X46255309Y53697763D01*
X46255309Y53695271D01*
X46251751Y53683604D01*
X46228138Y53413643D01*
X46226737Y53412050D01*
X46226737Y53397624D01*
X46225062Y53378473D01*
X45834821Y53378473D01*
X45833411Y53554906D01*
X45806351Y53581966D01*
X45768083Y53581966D01*
X45741023Y53554906D01*
X45737217Y53535772D01*
X45738661Y53354986D01*
X45539512Y53353394D01*
X45512452Y53326334D01*
X45445785Y53326334D01*
X45445785Y53795296D01*
X47303758Y53795296D01*
X47303758Y52961962D01*
G37*
G36*
X52092835Y53631195D02*
G01*
X52163815Y53610246D01*
X52206924Y53570299D01*
X52231431Y53526430D01*
X52231567Y53523645D01*
X52259269Y53424619D01*
X52258646Y53421486D01*
X52261233Y53350216D01*
X52260139Y53347899D01*
X52237902Y53247132D01*
X52235353Y53243847D01*
X52215388Y53198880D01*
X52172198Y53152270D01*
X52108693Y53128620D01*
X52108646Y53128629D01*
X52015495Y53126441D01*
X52012401Y53629725D01*
X52092129Y53631598D01*
X52092835Y53631195D01*
G37*
G36*
X53102682Y53613943D02*
G01*
X53148439Y53571542D01*
X53173554Y53481762D01*
X53172931Y53478629D01*
X53176131Y53294370D01*
X53174424Y53290755D01*
X53152869Y53193079D01*
X53114600Y53151779D01*
X53072790Y53128422D01*
X52982526Y53125847D01*
X52943182Y53143315D01*
X52897423Y53185716D01*
X52872308Y53275498D01*
X52872931Y53278629D01*
X52869730Y53462888D01*
X52871438Y53466502D01*
X52892993Y53564182D01*
X52931263Y53605481D01*
X52973072Y53628837D01*
X53063334Y53631412D01*
X53102682Y53613943D01*
G37*
G36*
X53339598Y52961962D02*
G01*
X50563407Y52961962D01*
X50563407Y53564343D01*
X50630074Y53564343D01*
X50632724Y53511229D01*
X50630200Y53503655D01*
X50633748Y53490697D01*
X50633880Y53488066D01*
X50634691Y53487255D01*
X50635353Y53484839D01*
X50662452Y53436332D01*
X50662452Y53430924D01*
X50673290Y53414703D01*
X50675738Y53412549D01*
X50675886Y53412285D01*
X50676131Y53412204D01*
X50698046Y53392922D01*
X50699445Y53388726D01*
X50714857Y53376764D01*
X50717992Y53375373D01*
X50718082Y53375293D01*
X50718170Y53375293D01*
X50763004Y53355389D01*
X50764593Y53352741D01*
X50782233Y53344408D01*
X50883000Y53322172D01*
X50886286Y53319621D01*
X50931340Y53299619D01*
X50951089Y53282243D01*
X50973309Y53242468D01*
X50975024Y53208102D01*
X50958206Y53170222D01*
X50940829Y53150471D01*
X50901430Y53128460D01*
X50782305Y53125661D01*
X50781600Y53126063D01*
X50676529Y53157074D01*
X50642301Y53139960D01*
X50630200Y53103655D01*
X50647314Y53069427D01*
X50664263Y53059766D01*
X50742379Y53036711D01*
X50746655Y53032435D01*
X50765789Y53028629D01*
X50902903Y53031851D01*
X50912190Y53028755D01*
X50925428Y53032380D01*
X50927780Y53032435D01*
X50928590Y53033246D01*
X50931006Y53033907D01*
X50979515Y53061006D01*
X50984924Y53061006D01*
X51001145Y53071845D01*
X51003298Y53074293D01*
X51003562Y53074440D01*
X51003643Y53074686D01*
X51022926Y53096603D01*
X51027120Y53098000D01*
X51039082Y53113412D01*
X51040473Y53116547D01*
X51040554Y53116638D01*
X51040553Y53116728D01*
X51063295Y53167952D01*
X51069125Y53173781D01*
X51071756Y53187009D01*
X51072805Y53189371D01*
X51072442Y53190459D01*
X51072931Y53192915D01*
X51070280Y53246030D01*
X51072805Y53253602D01*
X51069256Y53266560D01*
X51069125Y53269192D01*
X51068313Y53270004D01*
X51067652Y53272418D01*
X51040553Y53320926D01*
X51040554Y53326334D01*
X51029716Y53342555D01*
X51027267Y53344710D01*
X51027120Y53344973D01*
X51026875Y53345055D01*
X51004960Y53364337D01*
X51003562Y53368532D01*
X50988150Y53380493D01*
X50985017Y53381884D01*
X50984924Y53381966D01*
X50984832Y53381966D01*
X50940000Y53401871D01*
X50938412Y53404517D01*
X50920773Y53412850D01*
X50820005Y53435087D01*
X50816721Y53437636D01*
X50771665Y53457640D01*
X50751915Y53475017D01*
X50729695Y53514792D01*
X50727980Y53549157D01*
X50744798Y53587037D01*
X50762176Y53606788D01*
X50801576Y53628799D01*
X50920700Y53631598D01*
X50921406Y53631195D01*
X51026475Y53600184D01*
X51060704Y53617298D01*
X51072805Y53653603D01*
X51056334Y53686543D01*
X51173562Y53686543D01*
X51174292Y53667048D01*
X51318023Y53079018D01*
X51316225Y53072044D01*
X51322287Y53061574D01*
X51325283Y53049316D01*
X51331652Y53045397D01*
X51335399Y53038925D01*
X51347346Y53035740D01*
X51357875Y53029260D01*
X51365148Y53030992D01*
X51372374Y53029065D01*
X51383073Y53035260D01*
X51395102Y53038123D01*
X51399021Y53044493D01*
X51405493Y53048239D01*
X51414101Y53065746D01*
X51479724Y53320225D01*
X51546577Y53077564D01*
X51544990Y53070715D01*
X51551279Y53060495D01*
X51554656Y53048239D01*
X51561127Y53044493D01*
X51565047Y53038123D01*
X51577075Y53035259D01*
X51587774Y53029065D01*
X51594998Y53030992D01*
X51602274Y53029259D01*
X51612805Y53035740D01*
X51624750Y53038925D01*
X51628496Y53045397D01*
X51634866Y53049316D01*
X51643000Y53067048D01*
X51784753Y53678629D01*
X51915789Y53678629D01*
X51919595Y53059495D01*
X51946655Y53032435D01*
X51965789Y53028629D01*
X52099089Y53031761D01*
X52105102Y53028755D01*
X52124457Y53031195D01*
X52204507Y53061006D01*
X52213494Y53061006D01*
X52224808Y53068567D01*
X52227119Y53069427D01*
X52227632Y53070454D01*
X52229715Y53071845D01*
X52278712Y53124721D01*
X52284263Y53126571D01*
X52296225Y53141983D01*
X52297619Y53145125D01*
X52297697Y53145208D01*
X52297697Y53145299D01*
X52317600Y53190131D01*
X52320248Y53191719D01*
X52328581Y53209359D01*
X52351522Y53313321D01*
X52354840Y53316638D01*
X52358646Y53335772D01*
X52355932Y53410515D01*
X52358101Y53414128D01*
X52357153Y53433613D01*
X52328662Y53535460D01*
X52329948Y53539316D01*
X52324796Y53558132D01*
X52297697Y53606640D01*
X52297697Y53612050D01*
X52286858Y53628271D01*
X52284276Y53630664D01*
X52284263Y53630687D01*
X52284243Y53630694D01*
X52232512Y53678629D01*
X52515789Y53678629D01*
X52519595Y53059495D01*
X52546655Y53032435D01*
X52584923Y53032435D01*
X52611983Y53059495D01*
X52615789Y53078629D01*
X52613330Y53478629D01*
X52772931Y53478629D01*
X52776198Y53290525D01*
X52773476Y53285988D01*
X52774424Y53266502D01*
X52805309Y53156097D01*
X52805309Y53145209D01*
X52810548Y53137369D01*
X52811329Y53134577D01*
X52813139Y53133491D01*
X52816148Y53128988D01*
X52869022Y53079992D01*
X52870873Y53074440D01*
X52886285Y53062479D01*
X52889426Y53061085D01*
X52889511Y53061006D01*
X52889603Y53061006D01*
X52940824Y53038265D01*
X52946654Y53032435D01*
X52959881Y53029804D01*
X52962244Y53028755D01*
X52963331Y53029118D01*
X52965788Y53028629D01*
X53074677Y53031736D01*
X53083618Y53028755D01*
X53096807Y53032367D01*
X53099208Y53032435D01*
X53100018Y53033246D01*
X53102434Y53033907D01*
X53150943Y53061006D01*
X53156351Y53061006D01*
X53172572Y53071845D01*
X53174962Y53074425D01*
X53174990Y53074440D01*
X53174997Y53074463D01*
X53225905Y53129400D01*
X53234534Y53134577D01*
X53238518Y53143012D01*
X53240554Y53145208D01*
X53240554Y53147320D01*
X53242867Y53152216D01*
X53265807Y53256178D01*
X53269125Y53259495D01*
X53272931Y53278629D01*
X53269663Y53466734D01*
X53272386Y53471270D01*
X53271438Y53490756D01*
X53240554Y53601161D01*
X53240554Y53612050D01*
X53235314Y53619892D01*
X53234534Y53622681D01*
X53232725Y53623767D01*
X53229715Y53628271D01*
X53176840Y53677266D01*
X53174990Y53682818D01*
X53159578Y53694779D01*
X53156434Y53696175D01*
X53156351Y53696252D01*
X53156260Y53696252D01*
X53105037Y53718994D01*
X53099208Y53724823D01*
X53085980Y53727455D01*
X53083618Y53728503D01*
X53082530Y53728141D01*
X53080074Y53728629D01*
X52971184Y53725523D01*
X52962244Y53728503D01*
X52949056Y53724892D01*
X52946654Y53724823D01*
X52945842Y53724012D01*
X52943428Y53723350D01*
X52894921Y53696252D01*
X52889511Y53696252D01*
X52873290Y53685413D01*
X52870898Y53682833D01*
X52870873Y53682818D01*
X52870866Y53682798D01*
X52819958Y53627859D01*
X52811329Y53622681D01*
X52807343Y53614245D01*
X52805309Y53612049D01*
X52805309Y53609939D01*
X52802996Y53605042D01*
X52780054Y53501081D01*
X52776737Y53497763D01*
X52772931Y53478629D01*
X52613330Y53478629D01*
X52611983Y53697763D01*
X52584923Y53724823D01*
X52546655Y53724823D01*
X52519595Y53697763D01*
X52515789Y53678629D01*
X52232512Y53678629D01*
X52231036Y53679997D01*
X52227119Y53687831D01*
X52215328Y53694552D01*
X52213494Y53696252D01*
X52212346Y53696252D01*
X52210171Y53697492D01*
X52132055Y53720548D01*
X52127780Y53724823D01*
X52108646Y53728629D01*
X51946655Y53724823D01*
X51919595Y53697763D01*
X51915789Y53678629D01*
X51784753Y53678629D01*
X51786588Y53686544D01*
X51766531Y53719135D01*
X51729304Y53727999D01*
X51696712Y53707943D01*
X51688578Y53690211D01*
X51592240Y53274571D01*
X51528043Y53507594D01*
X51529640Y53513786D01*
X51523338Y53524672D01*
X51519779Y53537590D01*
X51513882Y53541004D01*
X51510466Y53546905D01*
X51497903Y53550255D01*
X51486661Y53556764D01*
X51480077Y53555009D01*
X51473490Y53556765D01*
X51462240Y53550252D01*
X51449685Y53546904D01*
X51446270Y53541007D01*
X51440371Y53537591D01*
X51431763Y53520084D01*
X51368920Y53276392D01*
X51263438Y53707942D01*
X51230846Y53727999D01*
X51193619Y53719135D01*
X51173562Y53686543D01*
X51056334Y53686543D01*
X51055690Y53687831D01*
X51038742Y53697492D01*
X50960626Y53720548D01*
X50956351Y53724823D01*
X50937217Y53728629D01*
X50800103Y53725408D01*
X50790816Y53728503D01*
X50777577Y53724879D01*
X50775226Y53724823D01*
X50774415Y53724013D01*
X50772000Y53723351D01*
X50723490Y53696252D01*
X50718082Y53696251D01*
X50701861Y53685413D01*
X50699706Y53682965D01*
X50699445Y53682818D01*
X50699363Y53682575D01*
X50680080Y53660658D01*
X50675886Y53659259D01*
X50663925Y53643847D01*
X50662533Y53640713D01*
X50662452Y53640620D01*
X50662452Y53640530D01*
X50639709Y53589307D01*
X50633880Y53583477D01*
X50631249Y53570252D01*
X50630200Y53567888D01*
X50630562Y53566800D01*
X50630074Y53564343D01*
X50563407Y53564343D01*
X50563407Y53795296D01*
X53339598Y53795296D01*
X53339598Y52961962D01*
G37*
G36*
X50409462Y52961962D02*
G01*
X47463407Y52961962D01*
X47463407Y53564343D01*
X47530074Y53564343D01*
X47532724Y53511229D01*
X47530200Y53503655D01*
X47533748Y53490697D01*
X47533880Y53488066D01*
X47534691Y53487255D01*
X47535353Y53484839D01*
X47562452Y53436332D01*
X47562452Y53430924D01*
X47573290Y53414703D01*
X47575738Y53412549D01*
X47575886Y53412285D01*
X47576131Y53412204D01*
X47598046Y53392922D01*
X47599445Y53388726D01*
X47614857Y53376764D01*
X47617992Y53375373D01*
X47618082Y53375293D01*
X47618170Y53375293D01*
X47663004Y53355389D01*
X47664593Y53352741D01*
X47682233Y53344408D01*
X47783000Y53322172D01*
X47786286Y53319621D01*
X47831340Y53299619D01*
X47851089Y53282243D01*
X47873309Y53242468D01*
X47875024Y53208102D01*
X47858206Y53170222D01*
X47840829Y53150471D01*
X47801430Y53128460D01*
X47682305Y53125661D01*
X47681600Y53126063D01*
X47576529Y53157074D01*
X47542301Y53139960D01*
X47530200Y53103655D01*
X47547314Y53069427D01*
X47564263Y53059766D01*
X47642379Y53036711D01*
X47646655Y53032435D01*
X47665789Y53028629D01*
X47802903Y53031851D01*
X47812190Y53028755D01*
X47825428Y53032380D01*
X47827780Y53032435D01*
X47828590Y53033246D01*
X47831006Y53033907D01*
X47879515Y53061006D01*
X47884924Y53061006D01*
X47901145Y53071845D01*
X47903298Y53074293D01*
X47903562Y53074440D01*
X47903643Y53074686D01*
X47922926Y53096603D01*
X47927120Y53098000D01*
X47939082Y53113412D01*
X47940473Y53116547D01*
X47940554Y53116638D01*
X47940553Y53116728D01*
X47963295Y53167952D01*
X47969125Y53173781D01*
X47971756Y53187009D01*
X47972805Y53189371D01*
X47972442Y53190459D01*
X47972931Y53192915D01*
X47970280Y53246030D01*
X47972805Y53253602D01*
X47969256Y53266560D01*
X47969125Y53269192D01*
X47968313Y53270004D01*
X47967652Y53272418D01*
X47940553Y53320926D01*
X47940554Y53326334D01*
X47929716Y53342555D01*
X47927267Y53344710D01*
X47927120Y53344973D01*
X47926875Y53345055D01*
X47904960Y53364337D01*
X47903562Y53368532D01*
X47888150Y53380493D01*
X47885017Y53381884D01*
X47884924Y53381966D01*
X47884832Y53381966D01*
X47840000Y53401871D01*
X47838412Y53404517D01*
X47820773Y53412850D01*
X47720005Y53435087D01*
X47716721Y53437636D01*
X47671665Y53457640D01*
X47651915Y53475017D01*
X47629695Y53514792D01*
X47627980Y53549157D01*
X47644798Y53587037D01*
X47662176Y53606788D01*
X47701576Y53628799D01*
X47820700Y53631598D01*
X47821406Y53631195D01*
X47926475Y53600184D01*
X47960704Y53617298D01*
X47972805Y53653603D01*
X47956334Y53686543D01*
X48073562Y53686543D01*
X48074292Y53667048D01*
X48218023Y53079018D01*
X48216225Y53072044D01*
X48222287Y53061574D01*
X48225283Y53049316D01*
X48231652Y53045397D01*
X48235399Y53038925D01*
X48247346Y53035740D01*
X48257875Y53029260D01*
X48265148Y53030992D01*
X48272374Y53029065D01*
X48283073Y53035260D01*
X48295102Y53038123D01*
X48299021Y53044493D01*
X48305493Y53048239D01*
X48314101Y53065746D01*
X48379724Y53320225D01*
X48446577Y53077564D01*
X48444990Y53070715D01*
X48451279Y53060495D01*
X48454656Y53048239D01*
X48461127Y53044493D01*
X48465047Y53038123D01*
X48477075Y53035259D01*
X48487774Y53029065D01*
X48494998Y53030992D01*
X48502274Y53029259D01*
X48512805Y53035740D01*
X48524750Y53038925D01*
X48528496Y53045397D01*
X48534866Y53049316D01*
X48543000Y53067048D01*
X48625152Y53421486D01*
X48787217Y53421486D01*
X48789930Y53346745D01*
X48787762Y53343131D01*
X48788710Y53323645D01*
X48817200Y53221799D01*
X48815915Y53217942D01*
X48821067Y53199126D01*
X48848166Y53150618D01*
X48848166Y53145209D01*
X48859005Y53128988D01*
X48861584Y53126598D01*
X48861600Y53126570D01*
X48861622Y53126563D01*
X48914825Y53077262D01*
X48918743Y53069427D01*
X48930532Y53062708D01*
X48932368Y53061006D01*
X48933517Y53061006D01*
X48935692Y53059766D01*
X49013807Y53036711D01*
X49018083Y53032435D01*
X49037217Y53028629D01*
X49040613Y53028799D01*
X49040761Y53028755D01*
X49040873Y53028812D01*
X49086181Y53031073D01*
X49090816Y53028755D01*
X49110171Y53031195D01*
X49190221Y53061006D01*
X49199208Y53061006D01*
X49210522Y53068567D01*
X49212833Y53069427D01*
X49213346Y53070454D01*
X49215429Y53071845D01*
X49254840Y53116638D01*
X49254840Y53154906D01*
X49227780Y53181966D01*
X49189512Y53181966D01*
X49173291Y53171127D01*
X49156107Y53151598D01*
X49094407Y53128620D01*
X49094360Y53128629D01*
X49051568Y53126494D01*
X48982048Y53147013D01*
X48938938Y53186960D01*
X48914431Y53230828D01*
X48914296Y53233613D01*
X48886594Y53332641D01*
X48887217Y53335772D01*
X48884629Y53407043D01*
X48885724Y53409359D01*
X48907960Y53510127D01*
X48910511Y53513412D01*
X48930475Y53558381D01*
X48973665Y53604990D01*
X49037169Y53628639D01*
X49037217Y53628629D01*
X49080008Y53630765D01*
X49149914Y53610132D01*
X49189512Y53575292D01*
X49227780Y53575292D01*
X49254840Y53602352D01*
X49254840Y53640620D01*
X49244001Y53656841D01*
X49219238Y53678629D01*
X49415789Y53678629D01*
X49419595Y53059495D01*
X49446655Y53032435D01*
X49465789Y53028629D01*
X49770637Y53032435D01*
X49797697Y53059495D01*
X49797697Y53097763D01*
X49770637Y53124823D01*
X49751503Y53128629D01*
X49515499Y53125683D01*
X49512101Y53678629D01*
X49901503Y53678629D01*
X49905309Y53059495D01*
X49932369Y53032435D01*
X49970637Y53032435D01*
X49997697Y53059495D01*
X50001503Y53078629D01*
X50000057Y53313818D01*
X50031860Y53346105D01*
X50268885Y53035606D01*
X50306769Y53030194D01*
X50337383Y53053155D01*
X50342795Y53091039D01*
X50334360Y53108629D01*
X50100153Y53415437D01*
X50340554Y53659495D01*
X50340554Y53697763D01*
X50313494Y53724823D01*
X50275226Y53724823D01*
X50259005Y53713984D01*
X50001049Y53452104D01*
X49999215Y53450728D01*
X49997697Y53697763D01*
X49970637Y53724823D01*
X49932369Y53724823D01*
X49905309Y53697763D01*
X49901503Y53678629D01*
X49512101Y53678629D01*
X49511983Y53697763D01*
X49484923Y53724823D01*
X49446655Y53724823D01*
X49419595Y53697763D01*
X49415789Y53678629D01*
X49219238Y53678629D01*
X49216017Y53681463D01*
X49212833Y53687831D01*
X49201319Y53694394D01*
X49199208Y53696252D01*
X49198060Y53696252D01*
X49195885Y53697492D01*
X49117769Y53720548D01*
X49113494Y53724823D01*
X49094360Y53728629D01*
X49090963Y53728460D01*
X49090816Y53728503D01*
X49090703Y53728447D01*
X49045395Y53726186D01*
X49040761Y53728503D01*
X49021405Y53726063D01*
X48941355Y53696252D01*
X48932368Y53696252D01*
X48921053Y53688692D01*
X48918743Y53687831D01*
X48918229Y53686805D01*
X48916147Y53685413D01*
X48867152Y53632539D01*
X48861600Y53630688D01*
X48849639Y53615276D01*
X48848243Y53612133D01*
X48848166Y53612049D01*
X48848166Y53611959D01*
X48828261Y53567127D01*
X48825615Y53565538D01*
X48817282Y53547899D01*
X48794340Y53443938D01*
X48791023Y53440620D01*
X48787217Y53421486D01*
X48625152Y53421486D01*
X48686588Y53686544D01*
X48666531Y53719135D01*
X48629304Y53727999D01*
X48596712Y53707943D01*
X48588578Y53690211D01*
X48492240Y53274571D01*
X48428043Y53507594D01*
X48429640Y53513786D01*
X48423338Y53524672D01*
X48419779Y53537590D01*
X48413882Y53541004D01*
X48410466Y53546905D01*
X48397903Y53550255D01*
X48386661Y53556764D01*
X48380077Y53555009D01*
X48373490Y53556765D01*
X48362240Y53550252D01*
X48349685Y53546904D01*
X48346270Y53541007D01*
X48340371Y53537591D01*
X48331763Y53520084D01*
X48268920Y53276392D01*
X48163438Y53707942D01*
X48130846Y53727999D01*
X48093619Y53719135D01*
X48073562Y53686543D01*
X47956334Y53686543D01*
X47955690Y53687831D01*
X47938742Y53697492D01*
X47860626Y53720548D01*
X47856351Y53724823D01*
X47837217Y53728629D01*
X47700103Y53725408D01*
X47690816Y53728503D01*
X47677577Y53724879D01*
X47675226Y53724823D01*
X47674415Y53724013D01*
X47672000Y53723351D01*
X47623490Y53696252D01*
X47618082Y53696251D01*
X47601861Y53685413D01*
X47599706Y53682965D01*
X47599445Y53682818D01*
X47599363Y53682575D01*
X47580080Y53660658D01*
X47575886Y53659259D01*
X47563925Y53643847D01*
X47562533Y53640713D01*
X47562452Y53640620D01*
X47562452Y53640530D01*
X47539709Y53589307D01*
X47533880Y53583477D01*
X47531249Y53570252D01*
X47530200Y53567888D01*
X47530562Y53566800D01*
X47530074Y53564343D01*
X47463407Y53564343D01*
X47463407Y53795296D01*
X50409462Y53795296D01*
X50409462Y52961962D01*
G37*
G36*
X54964263Y53631195D02*
G01*
X55035243Y53610246D01*
X55078352Y53570299D01*
X55102859Y53526430D01*
X55102995Y53523645D01*
X55130697Y53424619D01*
X55130074Y53421486D01*
X55132661Y53350216D01*
X55131567Y53347899D01*
X55109330Y53247132D01*
X55106781Y53243847D01*
X55086816Y53198880D01*
X55043626Y53152270D01*
X54980121Y53128620D01*
X54980074Y53128629D01*
X54886923Y53126441D01*
X54883829Y53629725D01*
X54963557Y53631598D01*
X54964263Y53631195D01*
G37*
G36*
X55296741Y52961962D02*
G01*
X53463407Y52961962D01*
X53463407Y53421486D01*
X53530074Y53421486D01*
X53532787Y53346745D01*
X53530619Y53343131D01*
X53531567Y53323645D01*
X53560057Y53221799D01*
X53558772Y53217942D01*
X53563924Y53199126D01*
X53591023Y53150618D01*
X53591023Y53145209D01*
X53601862Y53128988D01*
X53604441Y53126598D01*
X53604457Y53126570D01*
X53604479Y53126563D01*
X53657682Y53077262D01*
X53661600Y53069427D01*
X53673389Y53062708D01*
X53675225Y53061006D01*
X53676374Y53061006D01*
X53678549Y53059766D01*
X53756664Y53036711D01*
X53760940Y53032435D01*
X53780074Y53028629D01*
X53783470Y53028799D01*
X53783618Y53028755D01*
X53783730Y53028812D01*
X53829038Y53031073D01*
X53833673Y53028755D01*
X53853028Y53031195D01*
X53933078Y53061006D01*
X53942065Y53061006D01*
X53953379Y53068567D01*
X53955690Y53069427D01*
X53956203Y53070454D01*
X53958286Y53071845D01*
X53997697Y53116638D01*
X54001503Y53135772D01*
X53997697Y53354906D01*
X53970637Y53381966D01*
X53951503Y53385772D01*
X53818083Y53381966D01*
X53791023Y53354906D01*
X53791023Y53316638D01*
X53818083Y53289578D01*
X53837217Y53285772D01*
X53902339Y53287630D01*
X53904590Y53157992D01*
X53898964Y53151598D01*
X53837264Y53128620D01*
X53837217Y53128629D01*
X53794425Y53126494D01*
X53724905Y53147013D01*
X53681795Y53186960D01*
X53657288Y53230828D01*
X53657153Y53233613D01*
X53629451Y53332641D01*
X53630074Y53335772D01*
X53627486Y53407043D01*
X53628581Y53409359D01*
X53650817Y53510127D01*
X53653368Y53513412D01*
X53673332Y53558381D01*
X53716522Y53604990D01*
X53780026Y53628639D01*
X53780074Y53628629D01*
X53849631Y53631154D01*
X53919387Y53600184D01*
X53955691Y53612285D01*
X53972805Y53646513D01*
X53962100Y53678629D01*
X54158646Y53678629D01*
X54162452Y53059495D01*
X54189512Y53032435D01*
X54227780Y53032435D01*
X54254840Y53059495D01*
X54258646Y53078629D01*
X54256075Y53496810D01*
X54505268Y53066097D01*
X54505309Y53059495D01*
X54514274Y53050530D01*
X54520889Y53039097D01*
X54527513Y53037291D01*
X54532369Y53032435D01*
X54545317Y53032435D01*
X54557809Y53029028D01*
X54563771Y53032435D01*
X54570637Y53032435D01*
X54579790Y53041589D01*
X54591035Y53048014D01*
X54592842Y53054641D01*
X54597697Y53059495D01*
X54601503Y53078629D01*
X54597815Y53678629D01*
X54787217Y53678629D01*
X54791023Y53059495D01*
X54818083Y53032435D01*
X54837217Y53028629D01*
X54970517Y53031761D01*
X54976530Y53028755D01*
X54995885Y53031195D01*
X55075935Y53061006D01*
X55084922Y53061006D01*
X55096236Y53068567D01*
X55098547Y53069427D01*
X55099060Y53070454D01*
X55101143Y53071845D01*
X55150140Y53124721D01*
X55155691Y53126571D01*
X55167653Y53141983D01*
X55169047Y53145125D01*
X55169125Y53145208D01*
X55169125Y53145299D01*
X55189028Y53190131D01*
X55191676Y53191719D01*
X55200009Y53209359D01*
X55222950Y53313321D01*
X55226268Y53316638D01*
X55230074Y53335772D01*
X55227360Y53410515D01*
X55229529Y53414128D01*
X55228581Y53433613D01*
X55200090Y53535460D01*
X55201376Y53539316D01*
X55196224Y53558132D01*
X55169125Y53606640D01*
X55169125Y53612050D01*
X55158286Y53628271D01*
X55155704Y53630664D01*
X55155691Y53630687D01*
X55155671Y53630694D01*
X55102464Y53679997D01*
X55098547Y53687831D01*
X55086756Y53694552D01*
X55084922Y53696252D01*
X55083774Y53696252D01*
X55081599Y53697492D01*
X55003483Y53720548D01*
X54999208Y53724823D01*
X54980074Y53728629D01*
X54818083Y53724823D01*
X54791023Y53697763D01*
X54787217Y53678629D01*
X54597815Y53678629D01*
X54597697Y53697763D01*
X54570637Y53724823D01*
X54532369Y53724823D01*
X54505309Y53697763D01*
X54501503Y53678629D01*
X54504073Y53260450D01*
X54254880Y53691164D01*
X54254840Y53697763D01*
X54245876Y53706727D01*
X54239261Y53718161D01*
X54232634Y53719969D01*
X54227780Y53724823D01*
X54214833Y53724823D01*
X54202340Y53728230D01*
X54196378Y53724823D01*
X54189512Y53724823D01*
X54180358Y53715670D01*
X54169114Y53709244D01*
X54167306Y53702618D01*
X54162452Y53697763D01*
X54158646Y53678629D01*
X53962100Y53678629D01*
X53960704Y53682818D01*
X53945292Y53694779D01*
X53890752Y53718994D01*
X53884923Y53724823D01*
X53871697Y53727454D01*
X53869334Y53728503D01*
X53868245Y53728141D01*
X53865789Y53728629D01*
X53788945Y53725840D01*
X53783618Y53728503D01*
X53764262Y53726063D01*
X53684212Y53696252D01*
X53675225Y53696252D01*
X53663910Y53688692D01*
X53661600Y53687831D01*
X53661086Y53686805D01*
X53659004Y53685413D01*
X53610009Y53632539D01*
X53604457Y53630688D01*
X53592496Y53615276D01*
X53591100Y53612133D01*
X53591023Y53612049D01*
X53591023Y53611959D01*
X53571118Y53567127D01*
X53568472Y53565538D01*
X53560139Y53547899D01*
X53537197Y53443938D01*
X53533880Y53440620D01*
X53530074Y53421486D01*
X53463407Y53421486D01*
X53463407Y53795296D01*
X55296741Y53795296D01*
X55296741Y52961962D01*
G37*
D11*
X48833333Y15140420D02*
X48785714Y15092800D01*
X48785714Y15092800D02*
X48642857Y15045181D01*
X48642857Y15045181D02*
X48547619Y15045181D01*
X48547619Y15045181D02*
X48404762Y15092800D01*
X48404762Y15092800D02*
X48309524Y15188039D01*
X48309524Y15188039D02*
X48261905Y15283277D01*
X48261905Y15283277D02*
X48214286Y15473753D01*
X48214286Y15473753D02*
X48214286Y15616610D01*
X48214286Y15616610D02*
X48261905Y15807086D01*
X48261905Y15807086D02*
X48309524Y15902324D01*
X48309524Y15902324D02*
X48404762Y15997562D01*
X48404762Y15997562D02*
X48547619Y16045181D01*
X48547619Y16045181D02*
X48642857Y16045181D01*
X48642857Y16045181D02*
X48785714Y15997562D01*
X48785714Y15997562D02*
X48833333Y15949943D01*
X49738095Y16045181D02*
X49261905Y16045181D01*
X49261905Y16045181D02*
X49214286Y15568991D01*
X49214286Y15568991D02*
X49261905Y15616610D01*
X49261905Y15616610D02*
X49357143Y15664229D01*
X49357143Y15664229D02*
X49595238Y15664229D01*
X49595238Y15664229D02*
X49690476Y15616610D01*
X49690476Y15616610D02*
X49738095Y15568991D01*
X49738095Y15568991D02*
X49785714Y15473753D01*
X49785714Y15473753D02*
X49785714Y15235658D01*
X49785714Y15235658D02*
X49738095Y15140420D01*
X49738095Y15140420D02*
X49690476Y15092800D01*
X49690476Y15092800D02*
X49595238Y15045181D01*
X49595238Y15045181D02*
X49357143Y15045181D01*
X49357143Y15045181D02*
X49261905Y15092800D01*
X49261905Y15092800D02*
X49214286Y15140420D01*
D12*
X77076667Y22195682D02*
X77076667Y21288539D01*
X77076667Y21288539D02*
X77016190Y21107111D01*
X77016190Y21107111D02*
X76895238Y20986158D01*
X76895238Y20986158D02*
X76713809Y20925682D01*
X76713809Y20925682D02*
X76592857Y20925682D01*
X77862857Y21651397D02*
X77741905Y21711873D01*
X77741905Y21711873D02*
X77681428Y21772349D01*
X77681428Y21772349D02*
X77620952Y21893301D01*
X77620952Y21893301D02*
X77620952Y21953778D01*
X77620952Y21953778D02*
X77681428Y22074730D01*
X77681428Y22074730D02*
X77741905Y22135206D01*
X77741905Y22135206D02*
X77862857Y22195682D01*
X77862857Y22195682D02*
X78104762Y22195682D01*
X78104762Y22195682D02*
X78225714Y22135206D01*
X78225714Y22135206D02*
X78286190Y22074730D01*
X78286190Y22074730D02*
X78346667Y21953778D01*
X78346667Y21953778D02*
X78346667Y21893301D01*
X78346667Y21893301D02*
X78286190Y21772349D01*
X78286190Y21772349D02*
X78225714Y21711873D01*
X78225714Y21711873D02*
X78104762Y21651397D01*
X78104762Y21651397D02*
X77862857Y21651397D01*
X77862857Y21651397D02*
X77741905Y21590920D01*
X77741905Y21590920D02*
X77681428Y21530444D01*
X77681428Y21530444D02*
X77620952Y21409492D01*
X77620952Y21409492D02*
X77620952Y21167587D01*
X77620952Y21167587D02*
X77681428Y21046635D01*
X77681428Y21046635D02*
X77741905Y20986158D01*
X77741905Y20986158D02*
X77862857Y20925682D01*
X77862857Y20925682D02*
X78104762Y20925682D01*
X78104762Y20925682D02*
X78225714Y20986158D01*
X78225714Y20986158D02*
X78286190Y21046635D01*
X78286190Y21046635D02*
X78346667Y21167587D01*
X78346667Y21167587D02*
X78346667Y21409492D01*
X78346667Y21409492D02*
X78286190Y21530444D01*
X78286190Y21530444D02*
X78225714Y21590920D01*
X78225714Y21590920D02*
X78104762Y21651397D01*
D13*
X27738095Y27547781D02*
X27738095Y26738258D01*
X27738095Y26738258D02*
X27785714Y26643020D01*
X27785714Y26643020D02*
X27833333Y26595400D01*
X27833333Y26595400D02*
X27928571Y26547781D01*
X27928571Y26547781D02*
X28119047Y26547781D01*
X28119047Y26547781D02*
X28214285Y26595400D01*
X28214285Y26595400D02*
X28261904Y26643020D01*
X28261904Y26643020D02*
X28309523Y26738258D01*
X28309523Y26738258D02*
X28309523Y27547781D01*
X29309523Y26547781D02*
X28738095Y26547781D01*
X29023809Y26547781D02*
X29023809Y27547781D01*
X29023809Y27547781D02*
X28928571Y27404924D01*
X28928571Y27404924D02*
X28833333Y27309686D01*
X28833333Y27309686D02*
X28738095Y27262067D01*
D11*
X40597998Y50739132D02*
X40517185Y50712195D01*
X40517185Y50712195D02*
X40436373Y50631382D01*
X40436373Y50631382D02*
X40382498Y50523633D01*
X40382498Y50523633D02*
X40382498Y50415883D01*
X40382498Y50415883D02*
X40409436Y50335071D01*
X40409436Y50335071D02*
X40490248Y50200384D01*
X40490248Y50200384D02*
X40571060Y50119572D01*
X40571060Y50119572D02*
X40705747Y50038759D01*
X40705747Y50038759D02*
X40786560Y50011822D01*
X40786560Y50011822D02*
X40894309Y50011822D01*
X40894309Y50011822D02*
X41002059Y50065697D01*
X41002059Y50065697D02*
X41055934Y50119572D01*
X41055934Y50119572D02*
X41109808Y50227321D01*
X41109808Y50227321D02*
X41109808Y50281196D01*
X41109808Y50281196D02*
X40921247Y50469758D01*
X40921247Y50469758D02*
X40813497Y50362008D01*
X41406120Y50469758D02*
X40840434Y51035443D01*
X40840434Y51035443D02*
X41055934Y51250943D01*
X41055934Y51250943D02*
X41136746Y51277880D01*
X41136746Y51277880D02*
X41190621Y51277880D01*
X41190621Y51277880D02*
X41271433Y51250943D01*
X41271433Y51250943D02*
X41352245Y51170130D01*
X41352245Y51170130D02*
X41379182Y51089318D01*
X41379182Y51089318D02*
X41379182Y51035443D01*
X41379182Y51035443D02*
X41352245Y50954631D01*
X41352245Y50954631D02*
X41136746Y50739132D01*
X42268117Y51331755D02*
X41944868Y51008506D01*
X42106492Y51170130D02*
X41540807Y51735816D01*
X41540807Y51735816D02*
X41567744Y51601129D01*
X41567744Y51601129D02*
X41567744Y51493379D01*
X41567744Y51493379D02*
X41540807Y51412567D01*
X42214242Y52409251D02*
X41944868Y52139877D01*
X41944868Y52139877D02*
X42187305Y51843566D01*
X42187305Y51843566D02*
X42187305Y51897440D01*
X42187305Y51897440D02*
X42214242Y51978253D01*
X42214242Y51978253D02*
X42348929Y52112940D01*
X42348929Y52112940D02*
X42429741Y52139877D01*
X42429741Y52139877D02*
X42483616Y52139877D01*
X42483616Y52139877D02*
X42564428Y52112940D01*
X42564428Y52112940D02*
X42699115Y51978253D01*
X42699115Y51978253D02*
X42726053Y51897440D01*
X42726053Y51897440D02*
X42726053Y51843566D01*
X42726053Y51843566D02*
X42699115Y51762753D01*
X42699115Y51762753D02*
X42564428Y51628066D01*
X42564428Y51628066D02*
X42483616Y51601129D01*
X42483616Y51601129D02*
X42429741Y51601129D01*
X14986435Y45901569D02*
X14905623Y45874632D01*
X14905623Y45874632D02*
X14824811Y45793820D01*
X14824811Y45793820D02*
X14770936Y45686070D01*
X14770936Y45686070D02*
X14770936Y45578320D01*
X14770936Y45578320D02*
X14797873Y45497508D01*
X14797873Y45497508D02*
X14878685Y45362821D01*
X14878685Y45362821D02*
X14959498Y45282009D01*
X14959498Y45282009D02*
X15094185Y45201197D01*
X15094185Y45201197D02*
X15174997Y45174259D01*
X15174997Y45174259D02*
X15282746Y45174259D01*
X15282746Y45174259D02*
X15390496Y45228134D01*
X15390496Y45228134D02*
X15444371Y45282009D01*
X15444371Y45282009D02*
X15498246Y45389759D01*
X15498246Y45389759D02*
X15498246Y45443633D01*
X15498246Y45443633D02*
X15309684Y45632195D01*
X15309684Y45632195D02*
X15201934Y45524446D01*
X15794557Y45632195D02*
X15228872Y46197881D01*
X15228872Y46197881D02*
X16117806Y45955444D01*
X16117806Y45955444D02*
X15552120Y46521129D01*
X16387180Y46224818D02*
X15821494Y46790503D01*
X15821494Y46790503D02*
X15956181Y46925190D01*
X15956181Y46925190D02*
X16063931Y46979065D01*
X16063931Y46979065D02*
X16171680Y46979065D01*
X16171680Y46979065D02*
X16252493Y46952128D01*
X16252493Y46952128D02*
X16387180Y46871315D01*
X16387180Y46871315D02*
X16467992Y46790503D01*
X16467992Y46790503D02*
X16548804Y46655816D01*
X16548804Y46655816D02*
X16575741Y46575004D01*
X16575741Y46575004D02*
X16575741Y46467254D01*
X16575741Y46467254D02*
X16521867Y46359505D01*
X16521867Y46359505D02*
X16387180Y46224818D01*
X14489998Y40579132D02*
X14409185Y40552195D01*
X14409185Y40552195D02*
X14328373Y40471382D01*
X14328373Y40471382D02*
X14274498Y40363633D01*
X14274498Y40363633D02*
X14274498Y40255883D01*
X14274498Y40255883D02*
X14301436Y40175071D01*
X14301436Y40175071D02*
X14382248Y40040384D01*
X14382248Y40040384D02*
X14463060Y39959572D01*
X14463060Y39959572D02*
X14597747Y39878759D01*
X14597747Y39878759D02*
X14678560Y39851822D01*
X14678560Y39851822D02*
X14786309Y39851822D01*
X14786309Y39851822D02*
X14894059Y39905697D01*
X14894059Y39905697D02*
X14947934Y39959572D01*
X14947934Y39959572D02*
X15001808Y40067321D01*
X15001808Y40067321D02*
X15001808Y40121196D01*
X15001808Y40121196D02*
X14813247Y40309758D01*
X14813247Y40309758D02*
X14705497Y40202008D01*
X15298120Y40309758D02*
X14732434Y40875443D01*
X14732434Y40875443D02*
X14947934Y41090943D01*
X14947934Y41090943D02*
X15028746Y41117880D01*
X15028746Y41117880D02*
X15082621Y41117880D01*
X15082621Y41117880D02*
X15163433Y41090943D01*
X15163433Y41090943D02*
X15244245Y41010130D01*
X15244245Y41010130D02*
X15271182Y40929318D01*
X15271182Y40929318D02*
X15271182Y40875443D01*
X15271182Y40875443D02*
X15244245Y40794631D01*
X15244245Y40794631D02*
X15028746Y40579132D01*
X16160117Y41171755D02*
X15836868Y40848506D01*
X15998492Y41010130D02*
X15432807Y41575816D01*
X15432807Y41575816D02*
X15459744Y41441129D01*
X15459744Y41441129D02*
X15459744Y41333379D01*
X15459744Y41333379D02*
X15432807Y41252567D01*
X16429491Y41441129D02*
X16537240Y41548879D01*
X16537240Y41548879D02*
X16564178Y41629691D01*
X16564178Y41629691D02*
X16564178Y41683566D01*
X16564178Y41683566D02*
X16537240Y41818253D01*
X16537240Y41818253D02*
X16456428Y41952940D01*
X16456428Y41952940D02*
X16240929Y42168439D01*
X16240929Y42168439D02*
X16160117Y42195376D01*
X16160117Y42195376D02*
X16106242Y42195376D01*
X16106242Y42195376D02*
X16025430Y42168439D01*
X16025430Y42168439D02*
X15917680Y42060689D01*
X15917680Y42060689D02*
X15890743Y41979877D01*
X15890743Y41979877D02*
X15890743Y41926002D01*
X15890743Y41926002D02*
X15917680Y41845190D01*
X15917680Y41845190D02*
X16052367Y41710503D01*
X16052367Y41710503D02*
X16133179Y41683566D01*
X16133179Y41683566D02*
X16187054Y41683566D01*
X16187054Y41683566D02*
X16267866Y41710503D01*
X16267866Y41710503D02*
X16375616Y41818253D01*
X16375616Y41818253D02*
X16402553Y41899065D01*
X16402553Y41899065D02*
X16402553Y41952940D01*
X16402553Y41952940D02*
X16375616Y42033752D01*
X40586435Y33201569D02*
X40505623Y33174632D01*
X40505623Y33174632D02*
X40424811Y33093820D01*
X40424811Y33093820D02*
X40370936Y32986070D01*
X40370936Y32986070D02*
X40370936Y32878320D01*
X40370936Y32878320D02*
X40397873Y32797508D01*
X40397873Y32797508D02*
X40478685Y32662821D01*
X40478685Y32662821D02*
X40559498Y32582009D01*
X40559498Y32582009D02*
X40694185Y32501197D01*
X40694185Y32501197D02*
X40774997Y32474259D01*
X40774997Y32474259D02*
X40882746Y32474259D01*
X40882746Y32474259D02*
X40990496Y32528134D01*
X40990496Y32528134D02*
X41044371Y32582009D01*
X41044371Y32582009D02*
X41098246Y32689759D01*
X41098246Y32689759D02*
X41098246Y32743633D01*
X41098246Y32743633D02*
X40909684Y32932195D01*
X40909684Y32932195D02*
X40801934Y32824446D01*
X41394557Y32932195D02*
X40828872Y33497881D01*
X40828872Y33497881D02*
X41717806Y33255444D01*
X41717806Y33255444D02*
X41152120Y33821129D01*
X41987180Y33524818D02*
X41421494Y34090503D01*
X41421494Y34090503D02*
X41556181Y34225190D01*
X41556181Y34225190D02*
X41663931Y34279065D01*
X41663931Y34279065D02*
X41771680Y34279065D01*
X41771680Y34279065D02*
X41852493Y34252128D01*
X41852493Y34252128D02*
X41987180Y34171315D01*
X41987180Y34171315D02*
X42067992Y34090503D01*
X42067992Y34090503D02*
X42148804Y33955816D01*
X42148804Y33955816D02*
X42175741Y33875004D01*
X42175741Y33875004D02*
X42175741Y33767254D01*
X42175741Y33767254D02*
X42121867Y33659505D01*
X42121867Y33659505D02*
X41987180Y33524818D01*
X40043998Y42609132D02*
X39963185Y42582195D01*
X39963185Y42582195D02*
X39882373Y42501382D01*
X39882373Y42501382D02*
X39828498Y42393633D01*
X39828498Y42393633D02*
X39828498Y42285883D01*
X39828498Y42285883D02*
X39855436Y42205071D01*
X39855436Y42205071D02*
X39936248Y42070384D01*
X39936248Y42070384D02*
X40017060Y41989572D01*
X40017060Y41989572D02*
X40151747Y41908759D01*
X40151747Y41908759D02*
X40232560Y41881822D01*
X40232560Y41881822D02*
X40340309Y41881822D01*
X40340309Y41881822D02*
X40448059Y41935697D01*
X40448059Y41935697D02*
X40501934Y41989572D01*
X40501934Y41989572D02*
X40555808Y42097321D01*
X40555808Y42097321D02*
X40555808Y42151196D01*
X40555808Y42151196D02*
X40367247Y42339758D01*
X40367247Y42339758D02*
X40259497Y42232008D01*
X40852120Y42339758D02*
X40286434Y42905443D01*
X40286434Y42905443D02*
X40501934Y43120943D01*
X40501934Y43120943D02*
X40582746Y43147880D01*
X40582746Y43147880D02*
X40636621Y43147880D01*
X40636621Y43147880D02*
X40717433Y43120943D01*
X40717433Y43120943D02*
X40798245Y43040130D01*
X40798245Y43040130D02*
X40825182Y42959318D01*
X40825182Y42959318D02*
X40825182Y42905443D01*
X40825182Y42905443D02*
X40798245Y42824631D01*
X40798245Y42824631D02*
X40582746Y42609132D01*
X41714117Y43201755D02*
X41390868Y42878506D01*
X41552492Y43040130D02*
X40986807Y43605816D01*
X40986807Y43605816D02*
X41013744Y43471129D01*
X41013744Y43471129D02*
X41013744Y43363379D01*
X41013744Y43363379D02*
X40986807Y43282567D01*
X41336993Y43956002D02*
X41687179Y44306188D01*
X41687179Y44306188D02*
X41714117Y43902127D01*
X41714117Y43902127D02*
X41794929Y43982940D01*
X41794929Y43982940D02*
X41875741Y44009877D01*
X41875741Y44009877D02*
X41929616Y44009877D01*
X41929616Y44009877D02*
X42010428Y43982940D01*
X42010428Y43982940D02*
X42145115Y43848253D01*
X42145115Y43848253D02*
X42172053Y43767440D01*
X42172053Y43767440D02*
X42172053Y43713566D01*
X42172053Y43713566D02*
X42145115Y43632753D01*
X42145115Y43632753D02*
X41983491Y43471129D01*
X41983491Y43471129D02*
X41902679Y43444192D01*
X41902679Y43444192D02*
X41848804Y43444192D01*
X14489998Y43119132D02*
X14409185Y43092195D01*
X14409185Y43092195D02*
X14328373Y43011382D01*
X14328373Y43011382D02*
X14274498Y42903633D01*
X14274498Y42903633D02*
X14274498Y42795883D01*
X14274498Y42795883D02*
X14301436Y42715071D01*
X14301436Y42715071D02*
X14382248Y42580384D01*
X14382248Y42580384D02*
X14463060Y42499572D01*
X14463060Y42499572D02*
X14597747Y42418759D01*
X14597747Y42418759D02*
X14678560Y42391822D01*
X14678560Y42391822D02*
X14786309Y42391822D01*
X14786309Y42391822D02*
X14894059Y42445697D01*
X14894059Y42445697D02*
X14947934Y42499572D01*
X14947934Y42499572D02*
X15001808Y42607321D01*
X15001808Y42607321D02*
X15001808Y42661196D01*
X15001808Y42661196D02*
X14813247Y42849758D01*
X14813247Y42849758D02*
X14705497Y42742008D01*
X15298120Y42849758D02*
X14732434Y43415443D01*
X14732434Y43415443D02*
X14947934Y43630943D01*
X14947934Y43630943D02*
X15028746Y43657880D01*
X15028746Y43657880D02*
X15082621Y43657880D01*
X15082621Y43657880D02*
X15163433Y43630943D01*
X15163433Y43630943D02*
X15244245Y43550130D01*
X15244245Y43550130D02*
X15271182Y43469318D01*
X15271182Y43469318D02*
X15271182Y43415443D01*
X15271182Y43415443D02*
X15244245Y43334631D01*
X15244245Y43334631D02*
X15028746Y43119132D01*
X16160117Y43711755D02*
X15836868Y43388506D01*
X15998492Y43550130D02*
X15432807Y44115816D01*
X15432807Y44115816D02*
X15459744Y43981129D01*
X15459744Y43981129D02*
X15459744Y43873379D01*
X15459744Y43873379D02*
X15432807Y43792567D01*
X16160117Y44358253D02*
X16079305Y44331315D01*
X16079305Y44331315D02*
X16025430Y44331315D01*
X16025430Y44331315D02*
X15944618Y44358253D01*
X15944618Y44358253D02*
X15917680Y44385190D01*
X15917680Y44385190D02*
X15890743Y44466002D01*
X15890743Y44466002D02*
X15890743Y44519877D01*
X15890743Y44519877D02*
X15917680Y44600689D01*
X15917680Y44600689D02*
X16025430Y44708439D01*
X16025430Y44708439D02*
X16106242Y44735376D01*
X16106242Y44735376D02*
X16160117Y44735376D01*
X16160117Y44735376D02*
X16240929Y44708439D01*
X16240929Y44708439D02*
X16267866Y44681501D01*
X16267866Y44681501D02*
X16294804Y44600689D01*
X16294804Y44600689D02*
X16294804Y44546814D01*
X16294804Y44546814D02*
X16267866Y44466002D01*
X16267866Y44466002D02*
X16160117Y44358253D01*
X16160117Y44358253D02*
X16133179Y44277440D01*
X16133179Y44277440D02*
X16133179Y44223566D01*
X16133179Y44223566D02*
X16160117Y44142753D01*
X16160117Y44142753D02*
X16267866Y44035004D01*
X16267866Y44035004D02*
X16348679Y44008066D01*
X16348679Y44008066D02*
X16402553Y44008066D01*
X16402553Y44008066D02*
X16483366Y44035004D01*
X16483366Y44035004D02*
X16591115Y44142753D01*
X16591115Y44142753D02*
X16618053Y44223566D01*
X16618053Y44223566D02*
X16618053Y44277440D01*
X16618053Y44277440D02*
X16591115Y44358253D01*
X16591115Y44358253D02*
X16483366Y44466002D01*
X16483366Y44466002D02*
X16402553Y44492940D01*
X16402553Y44492940D02*
X16348679Y44492940D01*
X16348679Y44492940D02*
X16267866Y44466002D01*
X14220749Y5089758D02*
X14974996Y4712634D01*
X14974996Y4712634D02*
X14597873Y5466882D01*
X15298245Y5089758D02*
X15405995Y5143633D01*
X15405995Y5143633D02*
X15540682Y5278320D01*
X15540682Y5278320D02*
X15567619Y5359132D01*
X15567619Y5359132D02*
X15567619Y5413007D01*
X15567619Y5413007D02*
X15540682Y5493819D01*
X15540682Y5493819D02*
X15486807Y5547694D01*
X15486807Y5547694D02*
X15405995Y5574631D01*
X15405995Y5574631D02*
X15352120Y5574631D01*
X15352120Y5574631D02*
X15271308Y5547694D01*
X15271308Y5547694D02*
X15136621Y5466882D01*
X15136621Y5466882D02*
X15055808Y5439944D01*
X15055808Y5439944D02*
X15001934Y5439944D01*
X15001934Y5439944D02*
X14921121Y5466882D01*
X14921121Y5466882D02*
X14867247Y5520756D01*
X14867247Y5520756D02*
X14840309Y5601569D01*
X14840309Y5601569D02*
X14840309Y5655443D01*
X14840309Y5655443D02*
X14867247Y5736256D01*
X14867247Y5736256D02*
X15001934Y5870943D01*
X15001934Y5870943D02*
X15109683Y5924817D01*
X15729244Y6005630D02*
X15998618Y5736256D01*
X15244370Y6113379D02*
X15729244Y6005630D01*
X15729244Y6005630D02*
X15621494Y6490503D01*
X16321866Y6113379D02*
X16429616Y6167254D01*
X16429616Y6167254D02*
X16564303Y6301941D01*
X16564303Y6301941D02*
X16591240Y6382753D01*
X16591240Y6382753D02*
X16591240Y6436628D01*
X16591240Y6436628D02*
X16564303Y6517440D01*
X16564303Y6517440D02*
X16510428Y6571315D01*
X16510428Y6571315D02*
X16429616Y6598252D01*
X16429616Y6598252D02*
X16375741Y6598252D01*
X16375741Y6598252D02*
X16294929Y6571315D01*
X16294929Y6571315D02*
X16160242Y6490503D01*
X16160242Y6490503D02*
X16079430Y6463565D01*
X16079430Y6463565D02*
X16025555Y6463565D01*
X16025555Y6463565D02*
X15944743Y6490503D01*
X15944743Y6490503D02*
X15890868Y6544378D01*
X15890868Y6544378D02*
X15863930Y6625190D01*
X15863930Y6625190D02*
X15863930Y6679065D01*
X15863930Y6679065D02*
X15890868Y6759877D01*
X15890868Y6759877D02*
X16025555Y6894564D01*
X16025555Y6894564D02*
X16133304Y6948439D01*
X40613372Y30688506D02*
X40532560Y30661569D01*
X40532560Y30661569D02*
X40451748Y30580757D01*
X40451748Y30580757D02*
X40397873Y30473007D01*
X40397873Y30473007D02*
X40397873Y30365258D01*
X40397873Y30365258D02*
X40424810Y30284445D01*
X40424810Y30284445D02*
X40505623Y30149758D01*
X40505623Y30149758D02*
X40586435Y30068946D01*
X40586435Y30068946D02*
X40721122Y29988134D01*
X40721122Y29988134D02*
X40801934Y29961197D01*
X40801934Y29961197D02*
X40909684Y29961197D01*
X40909684Y29961197D02*
X41017433Y30015071D01*
X41017433Y30015071D02*
X41071308Y30068946D01*
X41071308Y30068946D02*
X41125183Y30176696D01*
X41125183Y30176696D02*
X41125183Y30230571D01*
X41125183Y30230571D02*
X40936621Y30419132D01*
X40936621Y30419132D02*
X40828871Y30311383D01*
X41421494Y30419132D02*
X40855809Y30984818D01*
X40855809Y30984818D02*
X41071308Y31200317D01*
X41071308Y31200317D02*
X41152120Y31227254D01*
X41152120Y31227254D02*
X41205995Y31227254D01*
X41205995Y31227254D02*
X41286807Y31200317D01*
X41286807Y31200317D02*
X41367619Y31119505D01*
X41367619Y31119505D02*
X41394557Y31038693D01*
X41394557Y31038693D02*
X41394557Y30984818D01*
X41394557Y30984818D02*
X41367619Y30904006D01*
X41367619Y30904006D02*
X41152120Y30688506D01*
X42014117Y31011755D02*
X42121867Y31119505D01*
X42121867Y31119505D02*
X42148804Y31200317D01*
X42148804Y31200317D02*
X42148804Y31254192D01*
X42148804Y31254192D02*
X42121867Y31388879D01*
X42121867Y31388879D02*
X42041054Y31523566D01*
X42041054Y31523566D02*
X41825555Y31739065D01*
X41825555Y31739065D02*
X41744743Y31766002D01*
X41744743Y31766002D02*
X41690868Y31766002D01*
X41690868Y31766002D02*
X41610056Y31739065D01*
X41610056Y31739065D02*
X41502306Y31631315D01*
X41502306Y31631315D02*
X41475369Y31550503D01*
X41475369Y31550503D02*
X41475369Y31496628D01*
X41475369Y31496628D02*
X41502306Y31415816D01*
X41502306Y31415816D02*
X41636993Y31281129D01*
X41636993Y31281129D02*
X41717806Y31254192D01*
X41717806Y31254192D02*
X41771680Y31254192D01*
X41771680Y31254192D02*
X41852493Y31281129D01*
X41852493Y31281129D02*
X41960242Y31388879D01*
X41960242Y31388879D02*
X41987180Y31469691D01*
X41987180Y31469691D02*
X41987180Y31523566D01*
X41987180Y31523566D02*
X41960242Y31604378D01*
X40586435Y20501569D02*
X40505623Y20474632D01*
X40505623Y20474632D02*
X40424811Y20393820D01*
X40424811Y20393820D02*
X40370936Y20286070D01*
X40370936Y20286070D02*
X40370936Y20178320D01*
X40370936Y20178320D02*
X40397873Y20097508D01*
X40397873Y20097508D02*
X40478685Y19962821D01*
X40478685Y19962821D02*
X40559498Y19882009D01*
X40559498Y19882009D02*
X40694185Y19801197D01*
X40694185Y19801197D02*
X40774997Y19774259D01*
X40774997Y19774259D02*
X40882746Y19774259D01*
X40882746Y19774259D02*
X40990496Y19828134D01*
X40990496Y19828134D02*
X41044371Y19882009D01*
X41044371Y19882009D02*
X41098246Y19989759D01*
X41098246Y19989759D02*
X41098246Y20043633D01*
X41098246Y20043633D02*
X40909684Y20232195D01*
X40909684Y20232195D02*
X40801934Y20124446D01*
X41394557Y20232195D02*
X40828872Y20797881D01*
X40828872Y20797881D02*
X41717806Y20555444D01*
X41717806Y20555444D02*
X41152120Y21121129D01*
X41987180Y20824818D02*
X41421494Y21390503D01*
X41421494Y21390503D02*
X41556181Y21525190D01*
X41556181Y21525190D02*
X41663931Y21579065D01*
X41663931Y21579065D02*
X41771680Y21579065D01*
X41771680Y21579065D02*
X41852493Y21552128D01*
X41852493Y21552128D02*
X41987180Y21471315D01*
X41987180Y21471315D02*
X42067992Y21390503D01*
X42067992Y21390503D02*
X42148804Y21255816D01*
X42148804Y21255816D02*
X42175741Y21175004D01*
X42175741Y21175004D02*
X42175741Y21067254D01*
X42175741Y21067254D02*
X42121867Y20959505D01*
X42121867Y20959505D02*
X41987180Y20824818D01*
X14489998Y17465132D02*
X14409185Y17438195D01*
X14409185Y17438195D02*
X14328373Y17357382D01*
X14328373Y17357382D02*
X14274498Y17249633D01*
X14274498Y17249633D02*
X14274498Y17141883D01*
X14274498Y17141883D02*
X14301436Y17061071D01*
X14301436Y17061071D02*
X14382248Y16926384D01*
X14382248Y16926384D02*
X14463060Y16845572D01*
X14463060Y16845572D02*
X14597747Y16764759D01*
X14597747Y16764759D02*
X14678560Y16737822D01*
X14678560Y16737822D02*
X14786309Y16737822D01*
X14786309Y16737822D02*
X14894059Y16791697D01*
X14894059Y16791697D02*
X14947934Y16845572D01*
X14947934Y16845572D02*
X15001808Y16953321D01*
X15001808Y16953321D02*
X15001808Y17007196D01*
X15001808Y17007196D02*
X14813247Y17195758D01*
X14813247Y17195758D02*
X14705497Y17088008D01*
X15298120Y17195758D02*
X14732434Y17761443D01*
X14732434Y17761443D02*
X14947934Y17976943D01*
X14947934Y17976943D02*
X15028746Y18003880D01*
X15028746Y18003880D02*
X15082621Y18003880D01*
X15082621Y18003880D02*
X15163433Y17976943D01*
X15163433Y17976943D02*
X15244245Y17896130D01*
X15244245Y17896130D02*
X15271182Y17815318D01*
X15271182Y17815318D02*
X15271182Y17761443D01*
X15271182Y17761443D02*
X15244245Y17680631D01*
X15244245Y17680631D02*
X15028746Y17465132D01*
X15325057Y18246317D02*
X15325057Y18300191D01*
X15325057Y18300191D02*
X15351995Y18381004D01*
X15351995Y18381004D02*
X15486682Y18515691D01*
X15486682Y18515691D02*
X15567494Y18542628D01*
X15567494Y18542628D02*
X15621369Y18542628D01*
X15621369Y18542628D02*
X15702181Y18515691D01*
X15702181Y18515691D02*
X15756056Y18461816D01*
X15756056Y18461816D02*
X15809930Y18354066D01*
X15809930Y18354066D02*
X15809930Y17707569D01*
X15809930Y17707569D02*
X16160117Y18057755D01*
X16160117Y18704253D02*
X16079305Y18677315D01*
X16079305Y18677315D02*
X16025430Y18677315D01*
X16025430Y18677315D02*
X15944618Y18704253D01*
X15944618Y18704253D02*
X15917680Y18731190D01*
X15917680Y18731190D02*
X15890743Y18812002D01*
X15890743Y18812002D02*
X15890743Y18865877D01*
X15890743Y18865877D02*
X15917680Y18946689D01*
X15917680Y18946689D02*
X16025430Y19054439D01*
X16025430Y19054439D02*
X16106242Y19081376D01*
X16106242Y19081376D02*
X16160117Y19081376D01*
X16160117Y19081376D02*
X16240929Y19054439D01*
X16240929Y19054439D02*
X16267866Y19027501D01*
X16267866Y19027501D02*
X16294804Y18946689D01*
X16294804Y18946689D02*
X16294804Y18892814D01*
X16294804Y18892814D02*
X16267866Y18812002D01*
X16267866Y18812002D02*
X16160117Y18704253D01*
X16160117Y18704253D02*
X16133179Y18623440D01*
X16133179Y18623440D02*
X16133179Y18569566D01*
X16133179Y18569566D02*
X16160117Y18488753D01*
X16160117Y18488753D02*
X16267866Y18381004D01*
X16267866Y18381004D02*
X16348679Y18354066D01*
X16348679Y18354066D02*
X16402553Y18354066D01*
X16402553Y18354066D02*
X16483366Y18381004D01*
X16483366Y18381004D02*
X16591115Y18488753D01*
X16591115Y18488753D02*
X16618053Y18569566D01*
X16618053Y18569566D02*
X16618053Y18623440D01*
X16618053Y18623440D02*
X16591115Y18704253D01*
X16591115Y18704253D02*
X16483366Y18812002D01*
X16483366Y18812002D02*
X16402553Y18838940D01*
X16402553Y18838940D02*
X16348679Y18838940D01*
X16348679Y18838940D02*
X16267866Y18812002D01*
X40613372Y2748506D02*
X40532560Y2721569D01*
X40532560Y2721569D02*
X40451748Y2640757D01*
X40451748Y2640757D02*
X40397873Y2533007D01*
X40397873Y2533007D02*
X40397873Y2425258D01*
X40397873Y2425258D02*
X40424810Y2344445D01*
X40424810Y2344445D02*
X40505623Y2209758D01*
X40505623Y2209758D02*
X40586435Y2128946D01*
X40586435Y2128946D02*
X40721122Y2048134D01*
X40721122Y2048134D02*
X40801934Y2021197D01*
X40801934Y2021197D02*
X40909684Y2021197D01*
X40909684Y2021197D02*
X41017433Y2075071D01*
X41017433Y2075071D02*
X41071308Y2128946D01*
X41071308Y2128946D02*
X41125183Y2236696D01*
X41125183Y2236696D02*
X41125183Y2290571D01*
X41125183Y2290571D02*
X40936621Y2479132D01*
X40936621Y2479132D02*
X40828871Y2371383D01*
X41421494Y2479132D02*
X40855809Y3044818D01*
X40855809Y3044818D02*
X41071308Y3260317D01*
X41071308Y3260317D02*
X41152120Y3287254D01*
X41152120Y3287254D02*
X41205995Y3287254D01*
X41205995Y3287254D02*
X41286807Y3260317D01*
X41286807Y3260317D02*
X41367619Y3179505D01*
X41367619Y3179505D02*
X41394557Y3098693D01*
X41394557Y3098693D02*
X41394557Y3044818D01*
X41394557Y3044818D02*
X41367619Y2964006D01*
X41367619Y2964006D02*
X41152120Y2748506D01*
X41529244Y3718253D02*
X41583119Y3772128D01*
X41583119Y3772128D02*
X41663931Y3799065D01*
X41663931Y3799065D02*
X41717806Y3799065D01*
X41717806Y3799065D02*
X41798618Y3772128D01*
X41798618Y3772128D02*
X41933305Y3691315D01*
X41933305Y3691315D02*
X42067992Y3556628D01*
X42067992Y3556628D02*
X42148804Y3421941D01*
X42148804Y3421941D02*
X42175741Y3341129D01*
X42175741Y3341129D02*
X42175741Y3287254D01*
X42175741Y3287254D02*
X42148804Y3206442D01*
X42148804Y3206442D02*
X42094929Y3152567D01*
X42094929Y3152567D02*
X42014117Y3125630D01*
X42014117Y3125630D02*
X41960242Y3125630D01*
X41960242Y3125630D02*
X41879430Y3152567D01*
X41879430Y3152567D02*
X41744743Y3233380D01*
X41744743Y3233380D02*
X41610056Y3368067D01*
X41610056Y3368067D02*
X41529244Y3502754D01*
X41529244Y3502754D02*
X41502306Y3583566D01*
X41502306Y3583566D02*
X41502306Y3637441D01*
X41502306Y3637441D02*
X41529244Y3718253D01*
X40513372Y25578506D02*
X40432560Y25551569D01*
X40432560Y25551569D02*
X40351748Y25470757D01*
X40351748Y25470757D02*
X40297873Y25363007D01*
X40297873Y25363007D02*
X40297873Y25255258D01*
X40297873Y25255258D02*
X40324810Y25174445D01*
X40324810Y25174445D02*
X40405623Y25039758D01*
X40405623Y25039758D02*
X40486435Y24958946D01*
X40486435Y24958946D02*
X40621122Y24878134D01*
X40621122Y24878134D02*
X40701934Y24851197D01*
X40701934Y24851197D02*
X40809684Y24851197D01*
X40809684Y24851197D02*
X40917433Y24905071D01*
X40917433Y24905071D02*
X40971308Y24958946D01*
X40971308Y24958946D02*
X41025183Y25066696D01*
X41025183Y25066696D02*
X41025183Y25120571D01*
X41025183Y25120571D02*
X40836621Y25309132D01*
X40836621Y25309132D02*
X40728871Y25201383D01*
X41321494Y25309132D02*
X40755809Y25874818D01*
X40755809Y25874818D02*
X40971308Y26090317D01*
X40971308Y26090317D02*
X41052120Y26117254D01*
X41052120Y26117254D02*
X41105995Y26117254D01*
X41105995Y26117254D02*
X41186807Y26090317D01*
X41186807Y26090317D02*
X41267619Y26009505D01*
X41267619Y26009505D02*
X41294557Y25928693D01*
X41294557Y25928693D02*
X41294557Y25874818D01*
X41294557Y25874818D02*
X41267619Y25794006D01*
X41267619Y25794006D02*
X41052120Y25578506D01*
X41267619Y26386628D02*
X41644743Y26763752D01*
X41644743Y26763752D02*
X41967992Y25955630D01*
X14489998Y35509132D02*
X14409185Y35482195D01*
X14409185Y35482195D02*
X14328373Y35401382D01*
X14328373Y35401382D02*
X14274498Y35293633D01*
X14274498Y35293633D02*
X14274498Y35185883D01*
X14274498Y35185883D02*
X14301436Y35105071D01*
X14301436Y35105071D02*
X14382248Y34970384D01*
X14382248Y34970384D02*
X14463060Y34889572D01*
X14463060Y34889572D02*
X14597747Y34808759D01*
X14597747Y34808759D02*
X14678560Y34781822D01*
X14678560Y34781822D02*
X14786309Y34781822D01*
X14786309Y34781822D02*
X14894059Y34835697D01*
X14894059Y34835697D02*
X14947934Y34889572D01*
X14947934Y34889572D02*
X15001808Y34997321D01*
X15001808Y34997321D02*
X15001808Y35051196D01*
X15001808Y35051196D02*
X14813247Y35239758D01*
X14813247Y35239758D02*
X14705497Y35132008D01*
X15298120Y35239758D02*
X14732434Y35805443D01*
X14732434Y35805443D02*
X14947934Y36020943D01*
X14947934Y36020943D02*
X15028746Y36047880D01*
X15028746Y36047880D02*
X15082621Y36047880D01*
X15082621Y36047880D02*
X15163433Y36020943D01*
X15163433Y36020943D02*
X15244245Y35940130D01*
X15244245Y35940130D02*
X15271182Y35859318D01*
X15271182Y35859318D02*
X15271182Y35805443D01*
X15271182Y35805443D02*
X15244245Y35724631D01*
X15244245Y35724631D02*
X15028746Y35509132D01*
X15325057Y36290317D02*
X15325057Y36344191D01*
X15325057Y36344191D02*
X15351995Y36425004D01*
X15351995Y36425004D02*
X15486682Y36559691D01*
X15486682Y36559691D02*
X15567494Y36586628D01*
X15567494Y36586628D02*
X15621369Y36586628D01*
X15621369Y36586628D02*
X15702181Y36559691D01*
X15702181Y36559691D02*
X15756056Y36505816D01*
X15756056Y36505816D02*
X15809930Y36398066D01*
X15809930Y36398066D02*
X15809930Y35751569D01*
X15809930Y35751569D02*
X16160117Y36101755D01*
X16698865Y36640503D02*
X16375616Y36317254D01*
X16537240Y36478879D02*
X15971555Y37044564D01*
X15971555Y37044564D02*
X15998492Y36909877D01*
X15998492Y36909877D02*
X15998492Y36802127D01*
X15998492Y36802127D02*
X15971555Y36721315D01*
X32390475Y52875800D02*
X32504761Y52837705D01*
X32504761Y52837705D02*
X32695237Y52837705D01*
X32695237Y52837705D02*
X32771428Y52875800D01*
X32771428Y52875800D02*
X32809523Y52913896D01*
X32809523Y52913896D02*
X32847618Y52990086D01*
X32847618Y52990086D02*
X32847618Y53066277D01*
X32847618Y53066277D02*
X32809523Y53142467D01*
X32809523Y53142467D02*
X32771428Y53180562D01*
X32771428Y53180562D02*
X32695237Y53218658D01*
X32695237Y53218658D02*
X32542856Y53256753D01*
X32542856Y53256753D02*
X32466666Y53294848D01*
X32466666Y53294848D02*
X32428571Y53332943D01*
X32428571Y53332943D02*
X32390475Y53409134D01*
X32390475Y53409134D02*
X32390475Y53485324D01*
X32390475Y53485324D02*
X32428571Y53561515D01*
X32428571Y53561515D02*
X32466666Y53599610D01*
X32466666Y53599610D02*
X32542856Y53637705D01*
X32542856Y53637705D02*
X32733333Y53637705D01*
X32733333Y53637705D02*
X32847618Y53599610D01*
X33114285Y53637705D02*
X33304761Y52837705D01*
X33304761Y52837705D02*
X33457142Y53409134D01*
X33457142Y53409134D02*
X33609523Y52837705D01*
X33609523Y52837705D02*
X33800000Y53637705D01*
X34561905Y52913896D02*
X34523809Y52875800D01*
X34523809Y52875800D02*
X34409524Y52837705D01*
X34409524Y52837705D02*
X34333333Y52837705D01*
X34333333Y52837705D02*
X34219047Y52875800D01*
X34219047Y52875800D02*
X34142857Y52951991D01*
X34142857Y52951991D02*
X34104762Y53028181D01*
X34104762Y53028181D02*
X34066666Y53180562D01*
X34066666Y53180562D02*
X34066666Y53294848D01*
X34066666Y53294848D02*
X34104762Y53447229D01*
X34104762Y53447229D02*
X34142857Y53523420D01*
X34142857Y53523420D02*
X34219047Y53599610D01*
X34219047Y53599610D02*
X34333333Y53637705D01*
X34333333Y53637705D02*
X34409524Y53637705D01*
X34409524Y53637705D02*
X34523809Y53599610D01*
X34523809Y53599610D02*
X34561905Y53561515D01*
X35285714Y52837705D02*
X34904762Y52837705D01*
X34904762Y52837705D02*
X34904762Y53637705D01*
X35552381Y52837705D02*
X35552381Y53637705D01*
X36009524Y52837705D02*
X35666666Y53294848D01*
X36009524Y53637705D02*
X35552381Y53180562D01*
X14489998Y25339132D02*
X14409185Y25312195D01*
X14409185Y25312195D02*
X14328373Y25231382D01*
X14328373Y25231382D02*
X14274498Y25123633D01*
X14274498Y25123633D02*
X14274498Y25015883D01*
X14274498Y25015883D02*
X14301436Y24935071D01*
X14301436Y24935071D02*
X14382248Y24800384D01*
X14382248Y24800384D02*
X14463060Y24719572D01*
X14463060Y24719572D02*
X14597747Y24638759D01*
X14597747Y24638759D02*
X14678560Y24611822D01*
X14678560Y24611822D02*
X14786309Y24611822D01*
X14786309Y24611822D02*
X14894059Y24665697D01*
X14894059Y24665697D02*
X14947934Y24719572D01*
X14947934Y24719572D02*
X15001808Y24827321D01*
X15001808Y24827321D02*
X15001808Y24881196D01*
X15001808Y24881196D02*
X14813247Y25069758D01*
X14813247Y25069758D02*
X14705497Y24962008D01*
X15298120Y25069758D02*
X14732434Y25635443D01*
X14732434Y25635443D02*
X14947934Y25850943D01*
X14947934Y25850943D02*
X15028746Y25877880D01*
X15028746Y25877880D02*
X15082621Y25877880D01*
X15082621Y25877880D02*
X15163433Y25850943D01*
X15163433Y25850943D02*
X15244245Y25770130D01*
X15244245Y25770130D02*
X15271182Y25689318D01*
X15271182Y25689318D02*
X15271182Y25635443D01*
X15271182Y25635443D02*
X15244245Y25554631D01*
X15244245Y25554631D02*
X15028746Y25339132D01*
X15325057Y26120317D02*
X15325057Y26174191D01*
X15325057Y26174191D02*
X15351995Y26255004D01*
X15351995Y26255004D02*
X15486682Y26389691D01*
X15486682Y26389691D02*
X15567494Y26416628D01*
X15567494Y26416628D02*
X15621369Y26416628D01*
X15621369Y26416628D02*
X15702181Y26389691D01*
X15702181Y26389691D02*
X15756056Y26335816D01*
X15756056Y26335816D02*
X15809930Y26228066D01*
X15809930Y26228066D02*
X15809930Y25581569D01*
X15809930Y25581569D02*
X16160117Y25931755D01*
X16079305Y26982314D02*
X15971555Y26874564D01*
X15971555Y26874564D02*
X15944618Y26793752D01*
X15944618Y26793752D02*
X15944618Y26739877D01*
X15944618Y26739877D02*
X15971555Y26605190D01*
X15971555Y26605190D02*
X16052367Y26470503D01*
X16052367Y26470503D02*
X16267866Y26255004D01*
X16267866Y26255004D02*
X16348679Y26228066D01*
X16348679Y26228066D02*
X16402553Y26228066D01*
X16402553Y26228066D02*
X16483366Y26255004D01*
X16483366Y26255004D02*
X16591115Y26362753D01*
X16591115Y26362753D02*
X16618053Y26443566D01*
X16618053Y26443566D02*
X16618053Y26497440D01*
X16618053Y26497440D02*
X16591115Y26578253D01*
X16591115Y26578253D02*
X16456428Y26712940D01*
X16456428Y26712940D02*
X16375616Y26739877D01*
X16375616Y26739877D02*
X16321741Y26739877D01*
X16321741Y26739877D02*
X16240929Y26712940D01*
X16240929Y26712940D02*
X16133179Y26605190D01*
X16133179Y26605190D02*
X16106242Y26524378D01*
X16106242Y26524378D02*
X16106242Y26470503D01*
X16106242Y26470503D02*
X16133179Y26389691D01*
X40597998Y35499132D02*
X40517185Y35472195D01*
X40517185Y35472195D02*
X40436373Y35391382D01*
X40436373Y35391382D02*
X40382498Y35283633D01*
X40382498Y35283633D02*
X40382498Y35175883D01*
X40382498Y35175883D02*
X40409436Y35095071D01*
X40409436Y35095071D02*
X40490248Y34960384D01*
X40490248Y34960384D02*
X40571060Y34879572D01*
X40571060Y34879572D02*
X40705747Y34798759D01*
X40705747Y34798759D02*
X40786560Y34771822D01*
X40786560Y34771822D02*
X40894309Y34771822D01*
X40894309Y34771822D02*
X41002059Y34825697D01*
X41002059Y34825697D02*
X41055934Y34879572D01*
X41055934Y34879572D02*
X41109808Y34987321D01*
X41109808Y34987321D02*
X41109808Y35041196D01*
X41109808Y35041196D02*
X40921247Y35229758D01*
X40921247Y35229758D02*
X40813497Y35122008D01*
X41406120Y35229758D02*
X40840434Y35795443D01*
X40840434Y35795443D02*
X41055934Y36010943D01*
X41055934Y36010943D02*
X41136746Y36037880D01*
X41136746Y36037880D02*
X41190621Y36037880D01*
X41190621Y36037880D02*
X41271433Y36010943D01*
X41271433Y36010943D02*
X41352245Y35930130D01*
X41352245Y35930130D02*
X41379182Y35849318D01*
X41379182Y35849318D02*
X41379182Y35795443D01*
X41379182Y35795443D02*
X41352245Y35714631D01*
X41352245Y35714631D02*
X41136746Y35499132D01*
X42268117Y36091755D02*
X41944868Y35768506D01*
X42106492Y35930130D02*
X41540807Y36495816D01*
X41540807Y36495816D02*
X41567744Y36361129D01*
X41567744Y36361129D02*
X41567744Y36253379D01*
X41567744Y36253379D02*
X41540807Y36172567D01*
X42052618Y37007627D02*
X42106492Y37061501D01*
X42106492Y37061501D02*
X42187305Y37088439D01*
X42187305Y37088439D02*
X42241179Y37088439D01*
X42241179Y37088439D02*
X42321992Y37061501D01*
X42321992Y37061501D02*
X42456679Y36980689D01*
X42456679Y36980689D02*
X42591366Y36846002D01*
X42591366Y36846002D02*
X42672178Y36711315D01*
X42672178Y36711315D02*
X42699115Y36630503D01*
X42699115Y36630503D02*
X42699115Y36576628D01*
X42699115Y36576628D02*
X42672178Y36495816D01*
X42672178Y36495816D02*
X42618303Y36441941D01*
X42618303Y36441941D02*
X42537491Y36415004D01*
X42537491Y36415004D02*
X42483616Y36415004D01*
X42483616Y36415004D02*
X42402804Y36441941D01*
X42402804Y36441941D02*
X42268117Y36522753D01*
X42268117Y36522753D02*
X42133430Y36657440D01*
X42133430Y36657440D02*
X42052618Y36792127D01*
X42052618Y36792127D02*
X42025680Y36872940D01*
X42025680Y36872940D02*
X42025680Y36926814D01*
X42025680Y36926814D02*
X42052618Y37007627D01*
X14489998Y50739132D02*
X14409185Y50712195D01*
X14409185Y50712195D02*
X14328373Y50631382D01*
X14328373Y50631382D02*
X14274498Y50523633D01*
X14274498Y50523633D02*
X14274498Y50415883D01*
X14274498Y50415883D02*
X14301436Y50335071D01*
X14301436Y50335071D02*
X14382248Y50200384D01*
X14382248Y50200384D02*
X14463060Y50119572D01*
X14463060Y50119572D02*
X14597747Y50038759D01*
X14597747Y50038759D02*
X14678560Y50011822D01*
X14678560Y50011822D02*
X14786309Y50011822D01*
X14786309Y50011822D02*
X14894059Y50065697D01*
X14894059Y50065697D02*
X14947934Y50119572D01*
X14947934Y50119572D02*
X15001808Y50227321D01*
X15001808Y50227321D02*
X15001808Y50281196D01*
X15001808Y50281196D02*
X14813247Y50469758D01*
X14813247Y50469758D02*
X14705497Y50362008D01*
X15298120Y50469758D02*
X14732434Y51035443D01*
X14732434Y51035443D02*
X14947934Y51250943D01*
X14947934Y51250943D02*
X15028746Y51277880D01*
X15028746Y51277880D02*
X15082621Y51277880D01*
X15082621Y51277880D02*
X15163433Y51250943D01*
X15163433Y51250943D02*
X15244245Y51170130D01*
X15244245Y51170130D02*
X15271182Y51089318D01*
X15271182Y51089318D02*
X15271182Y51035443D01*
X15271182Y51035443D02*
X15244245Y50954631D01*
X15244245Y50954631D02*
X15028746Y50739132D01*
X16160117Y51331755D02*
X15836868Y51008506D01*
X15998492Y51170130D02*
X15432807Y51735816D01*
X15432807Y51735816D02*
X15459744Y51601129D01*
X15459744Y51601129D02*
X15459744Y51493379D01*
X15459744Y51493379D02*
X15432807Y51412567D01*
X16079305Y52382314D02*
X15971555Y52274564D01*
X15971555Y52274564D02*
X15944618Y52193752D01*
X15944618Y52193752D02*
X15944618Y52139877D01*
X15944618Y52139877D02*
X15971555Y52005190D01*
X15971555Y52005190D02*
X16052367Y51870503D01*
X16052367Y51870503D02*
X16267866Y51655004D01*
X16267866Y51655004D02*
X16348679Y51628066D01*
X16348679Y51628066D02*
X16402553Y51628066D01*
X16402553Y51628066D02*
X16483366Y51655004D01*
X16483366Y51655004D02*
X16591115Y51762753D01*
X16591115Y51762753D02*
X16618053Y51843566D01*
X16618053Y51843566D02*
X16618053Y51897440D01*
X16618053Y51897440D02*
X16591115Y51978253D01*
X16591115Y51978253D02*
X16456428Y52112940D01*
X16456428Y52112940D02*
X16375616Y52139877D01*
X16375616Y52139877D02*
X16321741Y52139877D01*
X16321741Y52139877D02*
X16240929Y52112940D01*
X16240929Y52112940D02*
X16133179Y52005190D01*
X16133179Y52005190D02*
X16106242Y51924378D01*
X16106242Y51924378D02*
X16106242Y51870503D01*
X16106242Y51870503D02*
X16133179Y51789691D01*
X13472407Y8591416D02*
X13822593Y8941602D01*
X13822593Y8941602D02*
X13849531Y8537541D01*
X13849531Y8537541D02*
X13930343Y8618354D01*
X13930343Y8618354D02*
X14011155Y8645291D01*
X14011155Y8645291D02*
X14065030Y8645291D01*
X14065030Y8645291D02*
X14145842Y8618354D01*
X14145842Y8618354D02*
X14280529Y8483667D01*
X14280529Y8483667D02*
X14307467Y8402854D01*
X14307467Y8402854D02*
X14307467Y8348980D01*
X14307467Y8348980D02*
X14280529Y8268167D01*
X14280529Y8268167D02*
X14118905Y8106543D01*
X14118905Y8106543D02*
X14038093Y8079606D01*
X14038093Y8079606D02*
X13984218Y8079606D01*
X13984218Y9103227D02*
X14738465Y8726103D01*
X14738465Y8726103D02*
X14361342Y9480351D01*
X14496028Y9615037D02*
X14846215Y9965224D01*
X14846215Y9965224D02*
X14873152Y9561163D01*
X14873152Y9561163D02*
X14953964Y9641975D01*
X14953964Y9641975D02*
X15034776Y9668912D01*
X15034776Y9668912D02*
X15088651Y9668912D01*
X15088651Y9668912D02*
X15169464Y9641975D01*
X15169464Y9641975D02*
X15304151Y9507288D01*
X15304151Y9507288D02*
X15331088Y9426476D01*
X15331088Y9426476D02*
X15331088Y9372601D01*
X15331088Y9372601D02*
X15304151Y9291789D01*
X15304151Y9291789D02*
X15142526Y9130164D01*
X15142526Y9130164D02*
X15061714Y9103227D01*
X15061714Y9103227D02*
X15007839Y9103227D01*
X15573525Y9453413D02*
X16004523Y9884412D01*
X15789024Y10369285D02*
X15977586Y10557847D01*
X16354709Y10342348D02*
X16085335Y10072974D01*
X16085335Y10072974D02*
X15519650Y10638659D01*
X15519650Y10638659D02*
X15789024Y10908033D01*
X16597146Y10584785D02*
X16031461Y11150470D01*
X16031461Y11150470D02*
X16920395Y10908033D01*
X16920395Y10908033D02*
X16354710Y11473719D01*
X13903406Y13464293D02*
X14172780Y13733667D01*
X14011155Y13248793D02*
X13634032Y14003041D01*
X13634032Y14003041D02*
X14388279Y13625917D01*
X14576841Y13814479D02*
X14011155Y14380164D01*
X14011155Y14380164D02*
X14145842Y14514851D01*
X14145842Y14514851D02*
X14253592Y14568726D01*
X14253592Y14568726D02*
X14361341Y14568726D01*
X14361341Y14568726D02*
X14442154Y14541789D01*
X14442154Y14541789D02*
X14576841Y14460976D01*
X14576841Y14460976D02*
X14657653Y14380164D01*
X14657653Y14380164D02*
X14738465Y14245477D01*
X14738465Y14245477D02*
X14765402Y14164665D01*
X14765402Y14164665D02*
X14765402Y14056915D01*
X14765402Y14056915D02*
X14711528Y13949166D01*
X14711528Y13949166D02*
X14576841Y13814479D01*
X15411900Y14757288D02*
X15411900Y14703413D01*
X15411900Y14703413D02*
X15358025Y14595663D01*
X15358025Y14595663D02*
X15304150Y14541789D01*
X15304150Y14541789D02*
X15196401Y14487914D01*
X15196401Y14487914D02*
X15088651Y14487914D01*
X15088651Y14487914D02*
X15007839Y14514851D01*
X15007839Y14514851D02*
X14873152Y14595663D01*
X14873152Y14595663D02*
X14792340Y14676476D01*
X14792340Y14676476D02*
X14711528Y14811163D01*
X14711528Y14811163D02*
X14684590Y14891975D01*
X14684590Y14891975D02*
X14684590Y14999724D01*
X14684590Y14999724D02*
X14738465Y15107474D01*
X14738465Y15107474D02*
X14792340Y15161349D01*
X14792340Y15161349D02*
X14900089Y15215224D01*
X14900089Y15215224D02*
X14953964Y15215224D01*
X15627399Y14757288D02*
X16058398Y15188286D01*
X15492712Y15861721D02*
X16246960Y15484598D01*
X16246960Y15484598D02*
X15869836Y16238845D01*
X16947332Y16184970D02*
X16489396Y16265782D01*
X16624083Y15861721D02*
X16058398Y16427407D01*
X16058398Y16427407D02*
X16273897Y16642906D01*
X16273897Y16642906D02*
X16354709Y16669843D01*
X16354709Y16669843D02*
X16408584Y16669843D01*
X16408584Y16669843D02*
X16489396Y16642906D01*
X16489396Y16642906D02*
X16570208Y16562094D01*
X16570208Y16562094D02*
X16597146Y16481281D01*
X16597146Y16481281D02*
X16597146Y16427407D01*
X16597146Y16427407D02*
X16570208Y16346594D01*
X16570208Y16346594D02*
X16354709Y16131095D01*
X14489998Y22809132D02*
X14409185Y22782195D01*
X14409185Y22782195D02*
X14328373Y22701382D01*
X14328373Y22701382D02*
X14274498Y22593633D01*
X14274498Y22593633D02*
X14274498Y22485883D01*
X14274498Y22485883D02*
X14301436Y22405071D01*
X14301436Y22405071D02*
X14382248Y22270384D01*
X14382248Y22270384D02*
X14463060Y22189572D01*
X14463060Y22189572D02*
X14597747Y22108759D01*
X14597747Y22108759D02*
X14678560Y22081822D01*
X14678560Y22081822D02*
X14786309Y22081822D01*
X14786309Y22081822D02*
X14894059Y22135697D01*
X14894059Y22135697D02*
X14947934Y22189572D01*
X14947934Y22189572D02*
X15001808Y22297321D01*
X15001808Y22297321D02*
X15001808Y22351196D01*
X15001808Y22351196D02*
X14813247Y22539758D01*
X14813247Y22539758D02*
X14705497Y22432008D01*
X15298120Y22539758D02*
X14732434Y23105443D01*
X14732434Y23105443D02*
X14947934Y23320943D01*
X14947934Y23320943D02*
X15028746Y23347880D01*
X15028746Y23347880D02*
X15082621Y23347880D01*
X15082621Y23347880D02*
X15163433Y23320943D01*
X15163433Y23320943D02*
X15244245Y23240130D01*
X15244245Y23240130D02*
X15271182Y23159318D01*
X15271182Y23159318D02*
X15271182Y23105443D01*
X15271182Y23105443D02*
X15244245Y23024631D01*
X15244245Y23024631D02*
X15028746Y22809132D01*
X15325057Y23590317D02*
X15325057Y23644191D01*
X15325057Y23644191D02*
X15351995Y23725004D01*
X15351995Y23725004D02*
X15486682Y23859691D01*
X15486682Y23859691D02*
X15567494Y23886628D01*
X15567494Y23886628D02*
X15621369Y23886628D01*
X15621369Y23886628D02*
X15702181Y23859691D01*
X15702181Y23859691D02*
X15756056Y23805816D01*
X15756056Y23805816D02*
X15809930Y23698066D01*
X15809930Y23698066D02*
X15809930Y23051569D01*
X15809930Y23051569D02*
X16160117Y23401755D01*
X15782993Y24156002D02*
X16160117Y24533126D01*
X16160117Y24533126D02*
X16483366Y23725004D01*
X40613372Y23068506D02*
X40532560Y23041569D01*
X40532560Y23041569D02*
X40451748Y22960757D01*
X40451748Y22960757D02*
X40397873Y22853007D01*
X40397873Y22853007D02*
X40397873Y22745258D01*
X40397873Y22745258D02*
X40424810Y22664445D01*
X40424810Y22664445D02*
X40505623Y22529758D01*
X40505623Y22529758D02*
X40586435Y22448946D01*
X40586435Y22448946D02*
X40721122Y22368134D01*
X40721122Y22368134D02*
X40801934Y22341197D01*
X40801934Y22341197D02*
X40909684Y22341197D01*
X40909684Y22341197D02*
X41017433Y22395071D01*
X41017433Y22395071D02*
X41071308Y22448946D01*
X41071308Y22448946D02*
X41125183Y22556696D01*
X41125183Y22556696D02*
X41125183Y22610571D01*
X41125183Y22610571D02*
X40936621Y22799132D01*
X40936621Y22799132D02*
X40828871Y22691383D01*
X41421494Y22799132D02*
X40855809Y23364818D01*
X40855809Y23364818D02*
X41071308Y23580317D01*
X41071308Y23580317D02*
X41152120Y23607254D01*
X41152120Y23607254D02*
X41205995Y23607254D01*
X41205995Y23607254D02*
X41286807Y23580317D01*
X41286807Y23580317D02*
X41367619Y23499505D01*
X41367619Y23499505D02*
X41394557Y23418693D01*
X41394557Y23418693D02*
X41394557Y23364818D01*
X41394557Y23364818D02*
X41367619Y23284006D01*
X41367619Y23284006D02*
X41152120Y23068506D01*
X41663931Y24172940D02*
X41556181Y24065190D01*
X41556181Y24065190D02*
X41529244Y23984378D01*
X41529244Y23984378D02*
X41529244Y23930503D01*
X41529244Y23930503D02*
X41556181Y23795816D01*
X41556181Y23795816D02*
X41636993Y23661129D01*
X41636993Y23661129D02*
X41852493Y23445630D01*
X41852493Y23445630D02*
X41933305Y23418693D01*
X41933305Y23418693D02*
X41987180Y23418693D01*
X41987180Y23418693D02*
X42067992Y23445630D01*
X42067992Y23445630D02*
X42175741Y23553380D01*
X42175741Y23553380D02*
X42202679Y23634192D01*
X42202679Y23634192D02*
X42202679Y23688067D01*
X42202679Y23688067D02*
X42175741Y23768879D01*
X42175741Y23768879D02*
X42041054Y23903566D01*
X42041054Y23903566D02*
X41960242Y23930503D01*
X41960242Y23930503D02*
X41906367Y23930503D01*
X41906367Y23930503D02*
X41825555Y23903566D01*
X41825555Y23903566D02*
X41717806Y23795816D01*
X41717806Y23795816D02*
X41690868Y23715004D01*
X41690868Y23715004D02*
X41690868Y23661129D01*
X41690868Y23661129D02*
X41717806Y23580317D01*
X14986435Y7801569D02*
X14905623Y7774632D01*
X14905623Y7774632D02*
X14824811Y7693820D01*
X14824811Y7693820D02*
X14770936Y7586070D01*
X14770936Y7586070D02*
X14770936Y7478320D01*
X14770936Y7478320D02*
X14797873Y7397508D01*
X14797873Y7397508D02*
X14878685Y7262821D01*
X14878685Y7262821D02*
X14959498Y7182009D01*
X14959498Y7182009D02*
X15094185Y7101197D01*
X15094185Y7101197D02*
X15174997Y7074259D01*
X15174997Y7074259D02*
X15282746Y7074259D01*
X15282746Y7074259D02*
X15390496Y7128134D01*
X15390496Y7128134D02*
X15444371Y7182009D01*
X15444371Y7182009D02*
X15498246Y7289759D01*
X15498246Y7289759D02*
X15498246Y7343633D01*
X15498246Y7343633D02*
X15309684Y7532195D01*
X15309684Y7532195D02*
X15201934Y7424446D01*
X15794557Y7532195D02*
X15228872Y8097881D01*
X15228872Y8097881D02*
X16117806Y7855444D01*
X16117806Y7855444D02*
X15552120Y8421129D01*
X16387180Y8124818D02*
X15821494Y8690503D01*
X15821494Y8690503D02*
X15956181Y8825190D01*
X15956181Y8825190D02*
X16063931Y8879065D01*
X16063931Y8879065D02*
X16171680Y8879065D01*
X16171680Y8879065D02*
X16252493Y8852128D01*
X16252493Y8852128D02*
X16387180Y8771315D01*
X16387180Y8771315D02*
X16467992Y8690503D01*
X16467992Y8690503D02*
X16548804Y8555816D01*
X16548804Y8555816D02*
X16575741Y8475004D01*
X16575741Y8475004D02*
X16575741Y8367254D01*
X16575741Y8367254D02*
X16521867Y8259505D01*
X16521867Y8259505D02*
X16387180Y8124818D01*
X40586435Y7801569D02*
X40505623Y7774632D01*
X40505623Y7774632D02*
X40424811Y7693820D01*
X40424811Y7693820D02*
X40370936Y7586070D01*
X40370936Y7586070D02*
X40370936Y7478320D01*
X40370936Y7478320D02*
X40397873Y7397508D01*
X40397873Y7397508D02*
X40478685Y7262821D01*
X40478685Y7262821D02*
X40559498Y7182009D01*
X40559498Y7182009D02*
X40694185Y7101197D01*
X40694185Y7101197D02*
X40774997Y7074259D01*
X40774997Y7074259D02*
X40882746Y7074259D01*
X40882746Y7074259D02*
X40990496Y7128134D01*
X40990496Y7128134D02*
X41044371Y7182009D01*
X41044371Y7182009D02*
X41098246Y7289759D01*
X41098246Y7289759D02*
X41098246Y7343633D01*
X41098246Y7343633D02*
X40909684Y7532195D01*
X40909684Y7532195D02*
X40801934Y7424446D01*
X41394557Y7532195D02*
X40828872Y8097881D01*
X40828872Y8097881D02*
X41717806Y7855444D01*
X41717806Y7855444D02*
X41152120Y8421129D01*
X41987180Y8124818D02*
X41421494Y8690503D01*
X41421494Y8690503D02*
X41556181Y8825190D01*
X41556181Y8825190D02*
X41663931Y8879065D01*
X41663931Y8879065D02*
X41771680Y8879065D01*
X41771680Y8879065D02*
X41852493Y8852128D01*
X41852493Y8852128D02*
X41987180Y8771315D01*
X41987180Y8771315D02*
X42067992Y8690503D01*
X42067992Y8690503D02*
X42148804Y8555816D01*
X42148804Y8555816D02*
X42175741Y8475004D01*
X42175741Y8475004D02*
X42175741Y8367254D01*
X42175741Y8367254D02*
X42121867Y8259505D01*
X42121867Y8259505D02*
X41987180Y8124818D01*
X40743998Y40579132D02*
X40663185Y40552195D01*
X40663185Y40552195D02*
X40582373Y40471382D01*
X40582373Y40471382D02*
X40528498Y40363633D01*
X40528498Y40363633D02*
X40528498Y40255883D01*
X40528498Y40255883D02*
X40555436Y40175071D01*
X40555436Y40175071D02*
X40636248Y40040384D01*
X40636248Y40040384D02*
X40717060Y39959572D01*
X40717060Y39959572D02*
X40851747Y39878759D01*
X40851747Y39878759D02*
X40932560Y39851822D01*
X40932560Y39851822D02*
X41040309Y39851822D01*
X41040309Y39851822D02*
X41148059Y39905697D01*
X41148059Y39905697D02*
X41201934Y39959572D01*
X41201934Y39959572D02*
X41255808Y40067321D01*
X41255808Y40067321D02*
X41255808Y40121196D01*
X41255808Y40121196D02*
X41067247Y40309758D01*
X41067247Y40309758D02*
X40959497Y40202008D01*
X41552120Y40309758D02*
X40986434Y40875443D01*
X40986434Y40875443D02*
X41201934Y41090943D01*
X41201934Y41090943D02*
X41282746Y41117880D01*
X41282746Y41117880D02*
X41336621Y41117880D01*
X41336621Y41117880D02*
X41417433Y41090943D01*
X41417433Y41090943D02*
X41498245Y41010130D01*
X41498245Y41010130D02*
X41525182Y40929318D01*
X41525182Y40929318D02*
X41525182Y40875443D01*
X41525182Y40875443D02*
X41498245Y40794631D01*
X41498245Y40794631D02*
X41282746Y40579132D01*
X42414117Y41171755D02*
X42090868Y40848506D01*
X42252492Y41010130D02*
X41686807Y41575816D01*
X41686807Y41575816D02*
X41713744Y41441129D01*
X41713744Y41441129D02*
X41713744Y41333379D01*
X41713744Y41333379D02*
X41686807Y41252567D01*
X42117805Y41899065D02*
X42117805Y41952940D01*
X42117805Y41952940D02*
X42144743Y42033752D01*
X42144743Y42033752D02*
X42279430Y42168439D01*
X42279430Y42168439D02*
X42360242Y42195376D01*
X42360242Y42195376D02*
X42414117Y42195376D01*
X42414117Y42195376D02*
X42494929Y42168439D01*
X42494929Y42168439D02*
X42548804Y42114564D01*
X42548804Y42114564D02*
X42602679Y42006814D01*
X42602679Y42006814D02*
X42602679Y41360317D01*
X42602679Y41360317D02*
X42952865Y41710503D01*
X14590123Y12709132D02*
X14940309Y13059318D01*
X14940309Y13059318D02*
X14967247Y12655257D01*
X14967247Y12655257D02*
X15048059Y12736069D01*
X15048059Y12736069D02*
X15128871Y12763007D01*
X15128871Y12763007D02*
X15182746Y12763007D01*
X15182746Y12763007D02*
X15263558Y12736069D01*
X15263558Y12736069D02*
X15398245Y12601382D01*
X15398245Y12601382D02*
X15425182Y12520570D01*
X15425182Y12520570D02*
X15425182Y12466695D01*
X15425182Y12466695D02*
X15398245Y12385883D01*
X15398245Y12385883D02*
X15236621Y12224259D01*
X15236621Y12224259D02*
X15155808Y12197321D01*
X15155808Y12197321D02*
X15101934Y12197321D01*
X15101934Y13220943D02*
X15856181Y12843819D01*
X15856181Y12843819D02*
X15479057Y13598066D01*
X15613744Y13732753D02*
X15963930Y14082939D01*
X15963930Y14082939D02*
X15990868Y13678878D01*
X15990868Y13678878D02*
X16071680Y13759691D01*
X16071680Y13759691D02*
X16152492Y13786628D01*
X16152492Y13786628D02*
X16206367Y13786628D01*
X16206367Y13786628D02*
X16287179Y13759691D01*
X16287179Y13759691D02*
X16421866Y13625004D01*
X16421866Y13625004D02*
X16448804Y13544191D01*
X16448804Y13544191D02*
X16448804Y13490317D01*
X16448804Y13490317D02*
X16421866Y13409504D01*
X16421866Y13409504D02*
X16260242Y13247880D01*
X16260242Y13247880D02*
X16179430Y13220943D01*
X16179430Y13220943D02*
X16125555Y13220943D01*
X40543998Y48199132D02*
X40463185Y48172195D01*
X40463185Y48172195D02*
X40382373Y48091382D01*
X40382373Y48091382D02*
X40328498Y47983633D01*
X40328498Y47983633D02*
X40328498Y47875883D01*
X40328498Y47875883D02*
X40355436Y47795071D01*
X40355436Y47795071D02*
X40436248Y47660384D01*
X40436248Y47660384D02*
X40517060Y47579572D01*
X40517060Y47579572D02*
X40651747Y47498759D01*
X40651747Y47498759D02*
X40732560Y47471822D01*
X40732560Y47471822D02*
X40840309Y47471822D01*
X40840309Y47471822D02*
X40948059Y47525697D01*
X40948059Y47525697D02*
X41001934Y47579572D01*
X41001934Y47579572D02*
X41055808Y47687321D01*
X41055808Y47687321D02*
X41055808Y47741196D01*
X41055808Y47741196D02*
X40867247Y47929758D01*
X40867247Y47929758D02*
X40759497Y47822008D01*
X41352120Y47929758D02*
X40786434Y48495443D01*
X40786434Y48495443D02*
X41001934Y48710943D01*
X41001934Y48710943D02*
X41082746Y48737880D01*
X41082746Y48737880D02*
X41136621Y48737880D01*
X41136621Y48737880D02*
X41217433Y48710943D01*
X41217433Y48710943D02*
X41298245Y48630130D01*
X41298245Y48630130D02*
X41325182Y48549318D01*
X41325182Y48549318D02*
X41325182Y48495443D01*
X41325182Y48495443D02*
X41298245Y48414631D01*
X41298245Y48414631D02*
X41082746Y48199132D01*
X42214117Y48791755D02*
X41890868Y48468506D01*
X42052492Y48630130D02*
X41486807Y49195816D01*
X41486807Y49195816D02*
X41513744Y49061129D01*
X41513744Y49061129D02*
X41513744Y48953379D01*
X41513744Y48953379D02*
X41486807Y48872567D01*
X42321866Y49653752D02*
X42698990Y49276628D01*
X41971680Y49734564D02*
X42241054Y49195816D01*
X42241054Y49195816D02*
X42591240Y49546002D01*
X40613372Y12908506D02*
X40532560Y12881569D01*
X40532560Y12881569D02*
X40451748Y12800757D01*
X40451748Y12800757D02*
X40397873Y12693007D01*
X40397873Y12693007D02*
X40397873Y12585258D01*
X40397873Y12585258D02*
X40424810Y12504445D01*
X40424810Y12504445D02*
X40505623Y12369758D01*
X40505623Y12369758D02*
X40586435Y12288946D01*
X40586435Y12288946D02*
X40721122Y12208134D01*
X40721122Y12208134D02*
X40801934Y12181197D01*
X40801934Y12181197D02*
X40909684Y12181197D01*
X40909684Y12181197D02*
X41017433Y12235071D01*
X41017433Y12235071D02*
X41071308Y12288946D01*
X41071308Y12288946D02*
X41125183Y12396696D01*
X41125183Y12396696D02*
X41125183Y12450571D01*
X41125183Y12450571D02*
X40936621Y12639132D01*
X40936621Y12639132D02*
X40828871Y12531383D01*
X41421494Y12639132D02*
X40855809Y13204818D01*
X40855809Y13204818D02*
X41071308Y13420317D01*
X41071308Y13420317D02*
X41152120Y13447254D01*
X41152120Y13447254D02*
X41205995Y13447254D01*
X41205995Y13447254D02*
X41286807Y13420317D01*
X41286807Y13420317D02*
X41367619Y13339505D01*
X41367619Y13339505D02*
X41394557Y13258693D01*
X41394557Y13258693D02*
X41394557Y13204818D01*
X41394557Y13204818D02*
X41367619Y13124006D01*
X41367619Y13124006D02*
X41152120Y12908506D01*
X41367619Y13716628D02*
X41717806Y14066815D01*
X41717806Y14066815D02*
X41744743Y13662754D01*
X41744743Y13662754D02*
X41825555Y13743566D01*
X41825555Y13743566D02*
X41906367Y13770503D01*
X41906367Y13770503D02*
X41960242Y13770503D01*
X41960242Y13770503D02*
X42041054Y13743566D01*
X42041054Y13743566D02*
X42175741Y13608879D01*
X42175741Y13608879D02*
X42202679Y13528067D01*
X42202679Y13528067D02*
X42202679Y13474192D01*
X42202679Y13474192D02*
X42175741Y13393380D01*
X42175741Y13393380D02*
X42014117Y13231755D01*
X42014117Y13231755D02*
X41933305Y13204818D01*
X41933305Y13204818D02*
X41879430Y13204818D01*
X14489998Y48199132D02*
X14409185Y48172195D01*
X14409185Y48172195D02*
X14328373Y48091382D01*
X14328373Y48091382D02*
X14274498Y47983633D01*
X14274498Y47983633D02*
X14274498Y47875883D01*
X14274498Y47875883D02*
X14301436Y47795071D01*
X14301436Y47795071D02*
X14382248Y47660384D01*
X14382248Y47660384D02*
X14463060Y47579572D01*
X14463060Y47579572D02*
X14597747Y47498759D01*
X14597747Y47498759D02*
X14678560Y47471822D01*
X14678560Y47471822D02*
X14786309Y47471822D01*
X14786309Y47471822D02*
X14894059Y47525697D01*
X14894059Y47525697D02*
X14947934Y47579572D01*
X14947934Y47579572D02*
X15001808Y47687321D01*
X15001808Y47687321D02*
X15001808Y47741196D01*
X15001808Y47741196D02*
X14813247Y47929758D01*
X14813247Y47929758D02*
X14705497Y47822008D01*
X15298120Y47929758D02*
X14732434Y48495443D01*
X14732434Y48495443D02*
X14947934Y48710943D01*
X14947934Y48710943D02*
X15028746Y48737880D01*
X15028746Y48737880D02*
X15082621Y48737880D01*
X15082621Y48737880D02*
X15163433Y48710943D01*
X15163433Y48710943D02*
X15244245Y48630130D01*
X15244245Y48630130D02*
X15271182Y48549318D01*
X15271182Y48549318D02*
X15271182Y48495443D01*
X15271182Y48495443D02*
X15244245Y48414631D01*
X15244245Y48414631D02*
X15028746Y48199132D01*
X16160117Y48791755D02*
X15836868Y48468506D01*
X15998492Y48630130D02*
X15432807Y49195816D01*
X15432807Y49195816D02*
X15459744Y49061129D01*
X15459744Y49061129D02*
X15459744Y48953379D01*
X15459744Y48953379D02*
X15432807Y48872567D01*
X15782993Y49546002D02*
X16160117Y49923126D01*
X16160117Y49923126D02*
X16483366Y49115004D01*
X14543873Y19558760D02*
X14813247Y19828134D01*
X14651623Y19343261D02*
X14274499Y20097508D01*
X14274499Y20097508D02*
X15028746Y19720385D01*
X14974871Y20744006D02*
X14894059Y20717068D01*
X14894059Y20717068D02*
X14813247Y20636256D01*
X14813247Y20636256D02*
X14759372Y20528506D01*
X14759372Y20528506D02*
X14759372Y20420757D01*
X14759372Y20420757D02*
X14786310Y20339945D01*
X14786310Y20339945D02*
X14867122Y20205258D01*
X14867122Y20205258D02*
X14947934Y20124445D01*
X14947934Y20124445D02*
X15082621Y20043633D01*
X15082621Y20043633D02*
X15163433Y20016696D01*
X15163433Y20016696D02*
X15271183Y20016696D01*
X15271183Y20016696D02*
X15378932Y20070571D01*
X15378932Y20070571D02*
X15432807Y20124445D01*
X15432807Y20124445D02*
X15486682Y20232195D01*
X15486682Y20232195D02*
X15486682Y20286070D01*
X15486682Y20286070D02*
X15298120Y20474632D01*
X15298120Y20474632D02*
X15190371Y20366882D01*
X15782993Y20474632D02*
X15217308Y21040317D01*
X15217308Y21040317D02*
X16106242Y20797880D01*
X16106242Y20797880D02*
X15540557Y21363566D01*
X16375616Y21067254D02*
X15809931Y21632940D01*
X15809931Y21632940D02*
X15944618Y21767627D01*
X15944618Y21767627D02*
X16052367Y21821502D01*
X16052367Y21821502D02*
X16160117Y21821502D01*
X16160117Y21821502D02*
X16240929Y21794564D01*
X16240929Y21794564D02*
X16375616Y21713752D01*
X16375616Y21713752D02*
X16456428Y21632940D01*
X16456428Y21632940D02*
X16537241Y21498253D01*
X16537241Y21498253D02*
X16564178Y21417440D01*
X16564178Y21417440D02*
X16564178Y21309691D01*
X16564178Y21309691D02*
X16510303Y21201941D01*
X16510303Y21201941D02*
X16375616Y21067254D01*
X14489998Y38039132D02*
X14409185Y38012195D01*
X14409185Y38012195D02*
X14328373Y37931382D01*
X14328373Y37931382D02*
X14274498Y37823633D01*
X14274498Y37823633D02*
X14274498Y37715883D01*
X14274498Y37715883D02*
X14301436Y37635071D01*
X14301436Y37635071D02*
X14382248Y37500384D01*
X14382248Y37500384D02*
X14463060Y37419572D01*
X14463060Y37419572D02*
X14597747Y37338759D01*
X14597747Y37338759D02*
X14678560Y37311822D01*
X14678560Y37311822D02*
X14786309Y37311822D01*
X14786309Y37311822D02*
X14894059Y37365697D01*
X14894059Y37365697D02*
X14947934Y37419572D01*
X14947934Y37419572D02*
X15001808Y37527321D01*
X15001808Y37527321D02*
X15001808Y37581196D01*
X15001808Y37581196D02*
X14813247Y37769758D01*
X14813247Y37769758D02*
X14705497Y37662008D01*
X15298120Y37769758D02*
X14732434Y38335443D01*
X14732434Y38335443D02*
X14947934Y38550943D01*
X14947934Y38550943D02*
X15028746Y38577880D01*
X15028746Y38577880D02*
X15082621Y38577880D01*
X15082621Y38577880D02*
X15163433Y38550943D01*
X15163433Y38550943D02*
X15244245Y38470130D01*
X15244245Y38470130D02*
X15271182Y38389318D01*
X15271182Y38389318D02*
X15271182Y38335443D01*
X15271182Y38335443D02*
X15244245Y38254631D01*
X15244245Y38254631D02*
X15028746Y38039132D01*
X15325057Y38820317D02*
X15325057Y38874191D01*
X15325057Y38874191D02*
X15351995Y38955004D01*
X15351995Y38955004D02*
X15486682Y39089691D01*
X15486682Y39089691D02*
X15567494Y39116628D01*
X15567494Y39116628D02*
X15621369Y39116628D01*
X15621369Y39116628D02*
X15702181Y39089691D01*
X15702181Y39089691D02*
X15756056Y39035816D01*
X15756056Y39035816D02*
X15809930Y38928066D01*
X15809930Y38928066D02*
X15809930Y38281569D01*
X15809930Y38281569D02*
X16160117Y38631755D01*
X15944618Y39547627D02*
X15998492Y39601501D01*
X15998492Y39601501D02*
X16079305Y39628439D01*
X16079305Y39628439D02*
X16133179Y39628439D01*
X16133179Y39628439D02*
X16213992Y39601501D01*
X16213992Y39601501D02*
X16348679Y39520689D01*
X16348679Y39520689D02*
X16483366Y39386002D01*
X16483366Y39386002D02*
X16564178Y39251315D01*
X16564178Y39251315D02*
X16591115Y39170503D01*
X16591115Y39170503D02*
X16591115Y39116628D01*
X16591115Y39116628D02*
X16564178Y39035816D01*
X16564178Y39035816D02*
X16510303Y38981941D01*
X16510303Y38981941D02*
X16429491Y38955004D01*
X16429491Y38955004D02*
X16375616Y38955004D01*
X16375616Y38955004D02*
X16294804Y38981941D01*
X16294804Y38981941D02*
X16160117Y39062753D01*
X16160117Y39062753D02*
X16025430Y39197440D01*
X16025430Y39197440D02*
X15944618Y39332127D01*
X15944618Y39332127D02*
X15917680Y39412940D01*
X15917680Y39412940D02*
X15917680Y39466814D01*
X15917680Y39466814D02*
X15944618Y39547627D01*
X40613372Y15448506D02*
X40532560Y15421569D01*
X40532560Y15421569D02*
X40451748Y15340757D01*
X40451748Y15340757D02*
X40397873Y15233007D01*
X40397873Y15233007D02*
X40397873Y15125258D01*
X40397873Y15125258D02*
X40424810Y15044445D01*
X40424810Y15044445D02*
X40505623Y14909758D01*
X40505623Y14909758D02*
X40586435Y14828946D01*
X40586435Y14828946D02*
X40721122Y14748134D01*
X40721122Y14748134D02*
X40801934Y14721197D01*
X40801934Y14721197D02*
X40909684Y14721197D01*
X40909684Y14721197D02*
X41017433Y14775071D01*
X41017433Y14775071D02*
X41071308Y14828946D01*
X41071308Y14828946D02*
X41125183Y14936696D01*
X41125183Y14936696D02*
X41125183Y14990571D01*
X41125183Y14990571D02*
X40936621Y15179132D01*
X40936621Y15179132D02*
X40828871Y15071383D01*
X41421494Y15179132D02*
X40855809Y15744818D01*
X40855809Y15744818D02*
X41071308Y15960317D01*
X41071308Y15960317D02*
X41152120Y15987254D01*
X41152120Y15987254D02*
X41205995Y15987254D01*
X41205995Y15987254D02*
X41286807Y15960317D01*
X41286807Y15960317D02*
X41367619Y15879505D01*
X41367619Y15879505D02*
X41394557Y15798693D01*
X41394557Y15798693D02*
X41394557Y15744818D01*
X41394557Y15744818D02*
X41367619Y15664006D01*
X41367619Y15664006D02*
X41152120Y15448506D01*
X41852493Y16364378D02*
X42229616Y15987254D01*
X41502306Y16445190D02*
X41771680Y15906442D01*
X41771680Y15906442D02*
X42121867Y16256628D01*
X13853406Y2072415D02*
X14607653Y1695291D01*
X14607653Y1695291D02*
X14230529Y2449538D01*
X14877027Y2557288D02*
X14984776Y2611162D01*
X14984776Y2611162D02*
X15038651Y2611162D01*
X15038651Y2611162D02*
X15119463Y2584225D01*
X15119463Y2584225D02*
X15200276Y2503413D01*
X15200276Y2503413D02*
X15227213Y2422601D01*
X15227213Y2422601D02*
X15227213Y2368726D01*
X15227213Y2368726D02*
X15200276Y2287914D01*
X15200276Y2287914D02*
X14984776Y2072414D01*
X14984776Y2072414D02*
X14419091Y2638100D01*
X14419091Y2638100D02*
X14607653Y2826662D01*
X14607653Y2826662D02*
X14688465Y2853599D01*
X14688465Y2853599D02*
X14742340Y2853599D01*
X14742340Y2853599D02*
X14823152Y2826662D01*
X14823152Y2826662D02*
X14877027Y2772787D01*
X14877027Y2772787D02*
X14903964Y2691975D01*
X14903964Y2691975D02*
X14903964Y2638100D01*
X14903964Y2638100D02*
X14877027Y2557288D01*
X14877027Y2557288D02*
X14688465Y2368726D01*
X14984776Y3203785D02*
X15442712Y2745849D01*
X15442712Y2745849D02*
X15523524Y2718912D01*
X15523524Y2718912D02*
X15577399Y2718912D01*
X15577399Y2718912D02*
X15658211Y2745849D01*
X15658211Y2745849D02*
X15765961Y2853599D01*
X15765961Y2853599D02*
X15792898Y2934411D01*
X15792898Y2934411D02*
X15792898Y2988286D01*
X15792898Y2988286D02*
X15765961Y3069098D01*
X15765961Y3069098D02*
X15308025Y3527034D01*
X16089210Y3230723D02*
X16196959Y3284597D01*
X16196959Y3284597D02*
X16331646Y3419284D01*
X16331646Y3419284D02*
X16358584Y3500097D01*
X16358584Y3500097D02*
X16358584Y3553971D01*
X16358584Y3553971D02*
X16331646Y3634784D01*
X16331646Y3634784D02*
X16277771Y3688658D01*
X16277771Y3688658D02*
X16196959Y3715596D01*
X16196959Y3715596D02*
X16143084Y3715596D01*
X16143084Y3715596D02*
X16062272Y3688658D01*
X16062272Y3688658D02*
X15927585Y3607846D01*
X15927585Y3607846D02*
X15846773Y3580909D01*
X15846773Y3580909D02*
X15792898Y3580909D01*
X15792898Y3580909D02*
X15712086Y3607846D01*
X15712086Y3607846D02*
X15658211Y3661721D01*
X15658211Y3661721D02*
X15631274Y3742533D01*
X15631274Y3742533D02*
X15631274Y3796408D01*
X15631274Y3796408D02*
X15658211Y3877220D01*
X15658211Y3877220D02*
X15792898Y4011907D01*
X15792898Y4011907D02*
X15900648Y4065782D01*
X14489998Y30419132D02*
X14409185Y30392195D01*
X14409185Y30392195D02*
X14328373Y30311382D01*
X14328373Y30311382D02*
X14274498Y30203633D01*
X14274498Y30203633D02*
X14274498Y30095883D01*
X14274498Y30095883D02*
X14301436Y30015071D01*
X14301436Y30015071D02*
X14382248Y29880384D01*
X14382248Y29880384D02*
X14463060Y29799572D01*
X14463060Y29799572D02*
X14597747Y29718759D01*
X14597747Y29718759D02*
X14678560Y29691822D01*
X14678560Y29691822D02*
X14786309Y29691822D01*
X14786309Y29691822D02*
X14894059Y29745697D01*
X14894059Y29745697D02*
X14947934Y29799572D01*
X14947934Y29799572D02*
X15001808Y29907321D01*
X15001808Y29907321D02*
X15001808Y29961196D01*
X15001808Y29961196D02*
X14813247Y30149758D01*
X14813247Y30149758D02*
X14705497Y30042008D01*
X15298120Y30149758D02*
X14732434Y30715443D01*
X14732434Y30715443D02*
X14947934Y30930943D01*
X14947934Y30930943D02*
X15028746Y30957880D01*
X15028746Y30957880D02*
X15082621Y30957880D01*
X15082621Y30957880D02*
X15163433Y30930943D01*
X15163433Y30930943D02*
X15244245Y30850130D01*
X15244245Y30850130D02*
X15271182Y30769318D01*
X15271182Y30769318D02*
X15271182Y30715443D01*
X15271182Y30715443D02*
X15244245Y30634631D01*
X15244245Y30634631D02*
X15028746Y30419132D01*
X15325057Y31200317D02*
X15325057Y31254191D01*
X15325057Y31254191D02*
X15351995Y31335004D01*
X15351995Y31335004D02*
X15486682Y31469691D01*
X15486682Y31469691D02*
X15567494Y31496628D01*
X15567494Y31496628D02*
X15621369Y31496628D01*
X15621369Y31496628D02*
X15702181Y31469691D01*
X15702181Y31469691D02*
X15756056Y31415816D01*
X15756056Y31415816D02*
X15809930Y31308066D01*
X15809930Y31308066D02*
X15809930Y30661569D01*
X15809930Y30661569D02*
X16160117Y31011755D01*
X15863805Y31739065D02*
X15863805Y31792940D01*
X15863805Y31792940D02*
X15890743Y31873752D01*
X15890743Y31873752D02*
X16025430Y32008439D01*
X16025430Y32008439D02*
X16106242Y32035376D01*
X16106242Y32035376D02*
X16160117Y32035376D01*
X16160117Y32035376D02*
X16240929Y32008439D01*
X16240929Y32008439D02*
X16294804Y31954564D01*
X16294804Y31954564D02*
X16348679Y31846814D01*
X16348679Y31846814D02*
X16348679Y31200317D01*
X16348679Y31200317D02*
X16698865Y31550503D01*
X40613372Y28148506D02*
X40532560Y28121569D01*
X40532560Y28121569D02*
X40451748Y28040757D01*
X40451748Y28040757D02*
X40397873Y27933007D01*
X40397873Y27933007D02*
X40397873Y27825258D01*
X40397873Y27825258D02*
X40424810Y27744445D01*
X40424810Y27744445D02*
X40505623Y27609758D01*
X40505623Y27609758D02*
X40586435Y27528946D01*
X40586435Y27528946D02*
X40721122Y27448134D01*
X40721122Y27448134D02*
X40801934Y27421197D01*
X40801934Y27421197D02*
X40909684Y27421197D01*
X40909684Y27421197D02*
X41017433Y27475071D01*
X41017433Y27475071D02*
X41071308Y27528946D01*
X41071308Y27528946D02*
X41125183Y27636696D01*
X41125183Y27636696D02*
X41125183Y27690571D01*
X41125183Y27690571D02*
X40936621Y27879132D01*
X40936621Y27879132D02*
X40828871Y27771383D01*
X41421494Y27879132D02*
X40855809Y28444818D01*
X40855809Y28444818D02*
X41071308Y28660317D01*
X41071308Y28660317D02*
X41152120Y28687254D01*
X41152120Y28687254D02*
X41205995Y28687254D01*
X41205995Y28687254D02*
X41286807Y28660317D01*
X41286807Y28660317D02*
X41367619Y28579505D01*
X41367619Y28579505D02*
X41394557Y28498693D01*
X41394557Y28498693D02*
X41394557Y28444818D01*
X41394557Y28444818D02*
X41367619Y28364006D01*
X41367619Y28364006D02*
X41152120Y28148506D01*
X41744743Y28848879D02*
X41663931Y28821941D01*
X41663931Y28821941D02*
X41610056Y28821941D01*
X41610056Y28821941D02*
X41529244Y28848879D01*
X41529244Y28848879D02*
X41502306Y28875816D01*
X41502306Y28875816D02*
X41475369Y28956628D01*
X41475369Y28956628D02*
X41475369Y29010503D01*
X41475369Y29010503D02*
X41502306Y29091315D01*
X41502306Y29091315D02*
X41610056Y29199065D01*
X41610056Y29199065D02*
X41690868Y29226002D01*
X41690868Y29226002D02*
X41744743Y29226002D01*
X41744743Y29226002D02*
X41825555Y29199065D01*
X41825555Y29199065D02*
X41852493Y29172128D01*
X41852493Y29172128D02*
X41879430Y29091315D01*
X41879430Y29091315D02*
X41879430Y29037441D01*
X41879430Y29037441D02*
X41852493Y28956628D01*
X41852493Y28956628D02*
X41744743Y28848879D01*
X41744743Y28848879D02*
X41717806Y28768067D01*
X41717806Y28768067D02*
X41717806Y28714192D01*
X41717806Y28714192D02*
X41744743Y28633380D01*
X41744743Y28633380D02*
X41852493Y28525630D01*
X41852493Y28525630D02*
X41933305Y28498693D01*
X41933305Y28498693D02*
X41987180Y28498693D01*
X41987180Y28498693D02*
X42067992Y28525630D01*
X42067992Y28525630D02*
X42175741Y28633380D01*
X42175741Y28633380D02*
X42202679Y28714192D01*
X42202679Y28714192D02*
X42202679Y28768067D01*
X42202679Y28768067D02*
X42175741Y28848879D01*
X42175741Y28848879D02*
X42067992Y28956628D01*
X42067992Y28956628D02*
X41987180Y28983566D01*
X41987180Y28983566D02*
X41933305Y28983566D01*
X41933305Y28983566D02*
X41852493Y28956628D01*
X40286435Y45851569D02*
X40205623Y45824632D01*
X40205623Y45824632D02*
X40124811Y45743820D01*
X40124811Y45743820D02*
X40070936Y45636070D01*
X40070936Y45636070D02*
X40070936Y45528320D01*
X40070936Y45528320D02*
X40097873Y45447508D01*
X40097873Y45447508D02*
X40178685Y45312821D01*
X40178685Y45312821D02*
X40259498Y45232009D01*
X40259498Y45232009D02*
X40394185Y45151197D01*
X40394185Y45151197D02*
X40474997Y45124259D01*
X40474997Y45124259D02*
X40582746Y45124259D01*
X40582746Y45124259D02*
X40690496Y45178134D01*
X40690496Y45178134D02*
X40744371Y45232009D01*
X40744371Y45232009D02*
X40798246Y45339759D01*
X40798246Y45339759D02*
X40798246Y45393633D01*
X40798246Y45393633D02*
X40609684Y45582195D01*
X40609684Y45582195D02*
X40501934Y45474446D01*
X41094557Y45582195D02*
X40528872Y46147881D01*
X40528872Y46147881D02*
X41417806Y45905444D01*
X41417806Y45905444D02*
X40852120Y46471129D01*
X41687180Y46174818D02*
X41121494Y46740503D01*
X41121494Y46740503D02*
X41256181Y46875190D01*
X41256181Y46875190D02*
X41363931Y46929065D01*
X41363931Y46929065D02*
X41471680Y46929065D01*
X41471680Y46929065D02*
X41552493Y46902128D01*
X41552493Y46902128D02*
X41687180Y46821315D01*
X41687180Y46821315D02*
X41767992Y46740503D01*
X41767992Y46740503D02*
X41848804Y46605816D01*
X41848804Y46605816D02*
X41875741Y46525004D01*
X41875741Y46525004D02*
X41875741Y46417254D01*
X41875741Y46417254D02*
X41821867Y46309505D01*
X41821867Y46309505D02*
X41687180Y46174818D01*
X40743998Y38039132D02*
X40663185Y38012195D01*
X40663185Y38012195D02*
X40582373Y37931382D01*
X40582373Y37931382D02*
X40528498Y37823633D01*
X40528498Y37823633D02*
X40528498Y37715883D01*
X40528498Y37715883D02*
X40555436Y37635071D01*
X40555436Y37635071D02*
X40636248Y37500384D01*
X40636248Y37500384D02*
X40717060Y37419572D01*
X40717060Y37419572D02*
X40851747Y37338759D01*
X40851747Y37338759D02*
X40932560Y37311822D01*
X40932560Y37311822D02*
X41040309Y37311822D01*
X41040309Y37311822D02*
X41148059Y37365697D01*
X41148059Y37365697D02*
X41201934Y37419572D01*
X41201934Y37419572D02*
X41255808Y37527321D01*
X41255808Y37527321D02*
X41255808Y37581196D01*
X41255808Y37581196D02*
X41067247Y37769758D01*
X41067247Y37769758D02*
X40959497Y37662008D01*
X41552120Y37769758D02*
X40986434Y38335443D01*
X40986434Y38335443D02*
X41201934Y38550943D01*
X41201934Y38550943D02*
X41282746Y38577880D01*
X41282746Y38577880D02*
X41336621Y38577880D01*
X41336621Y38577880D02*
X41417433Y38550943D01*
X41417433Y38550943D02*
X41498245Y38470130D01*
X41498245Y38470130D02*
X41525182Y38389318D01*
X41525182Y38389318D02*
X41525182Y38335443D01*
X41525182Y38335443D02*
X41498245Y38254631D01*
X41498245Y38254631D02*
X41282746Y38039132D01*
X42414117Y38631755D02*
X42090868Y38308506D01*
X42252492Y38470130D02*
X41686807Y39035816D01*
X41686807Y39035816D02*
X41713744Y38901129D01*
X41713744Y38901129D02*
X41713744Y38793379D01*
X41713744Y38793379D02*
X41686807Y38712567D01*
X42952865Y39170503D02*
X42629616Y38847254D01*
X42791240Y39008879D02*
X42225555Y39574564D01*
X42225555Y39574564D02*
X42252492Y39439877D01*
X42252492Y39439877D02*
X42252492Y39332127D01*
X42252492Y39332127D02*
X42225555Y39251315D01*
X14986435Y33201569D02*
X14905623Y33174632D01*
X14905623Y33174632D02*
X14824811Y33093820D01*
X14824811Y33093820D02*
X14770936Y32986070D01*
X14770936Y32986070D02*
X14770936Y32878320D01*
X14770936Y32878320D02*
X14797873Y32797508D01*
X14797873Y32797508D02*
X14878685Y32662821D01*
X14878685Y32662821D02*
X14959498Y32582009D01*
X14959498Y32582009D02*
X15094185Y32501197D01*
X15094185Y32501197D02*
X15174997Y32474259D01*
X15174997Y32474259D02*
X15282746Y32474259D01*
X15282746Y32474259D02*
X15390496Y32528134D01*
X15390496Y32528134D02*
X15444371Y32582009D01*
X15444371Y32582009D02*
X15498246Y32689759D01*
X15498246Y32689759D02*
X15498246Y32743633D01*
X15498246Y32743633D02*
X15309684Y32932195D01*
X15309684Y32932195D02*
X15201934Y32824446D01*
X15794557Y32932195D02*
X15228872Y33497881D01*
X15228872Y33497881D02*
X16117806Y33255444D01*
X16117806Y33255444D02*
X15552120Y33821129D01*
X16387180Y33524818D02*
X15821494Y34090503D01*
X15821494Y34090503D02*
X15956181Y34225190D01*
X15956181Y34225190D02*
X16063931Y34279065D01*
X16063931Y34279065D02*
X16171680Y34279065D01*
X16171680Y34279065D02*
X16252493Y34252128D01*
X16252493Y34252128D02*
X16387180Y34171315D01*
X16387180Y34171315D02*
X16467992Y34090503D01*
X16467992Y34090503D02*
X16548804Y33955816D01*
X16548804Y33955816D02*
X16575741Y33875004D01*
X16575741Y33875004D02*
X16575741Y33767254D01*
X16575741Y33767254D02*
X16521867Y33659505D01*
X16521867Y33659505D02*
X16387180Y33524818D01*
X40713372Y5278506D02*
X40632560Y5251569D01*
X40632560Y5251569D02*
X40551748Y5170757D01*
X40551748Y5170757D02*
X40497873Y5063007D01*
X40497873Y5063007D02*
X40497873Y4955258D01*
X40497873Y4955258D02*
X40524810Y4874445D01*
X40524810Y4874445D02*
X40605623Y4739758D01*
X40605623Y4739758D02*
X40686435Y4658946D01*
X40686435Y4658946D02*
X40821122Y4578134D01*
X40821122Y4578134D02*
X40901934Y4551197D01*
X40901934Y4551197D02*
X41009684Y4551197D01*
X41009684Y4551197D02*
X41117433Y4605071D01*
X41117433Y4605071D02*
X41171308Y4658946D01*
X41171308Y4658946D02*
X41225183Y4766696D01*
X41225183Y4766696D02*
X41225183Y4820571D01*
X41225183Y4820571D02*
X41036621Y5009132D01*
X41036621Y5009132D02*
X40928871Y4901383D01*
X41521494Y5009132D02*
X40955809Y5574818D01*
X40955809Y5574818D02*
X41171308Y5790317D01*
X41171308Y5790317D02*
X41252120Y5817254D01*
X41252120Y5817254D02*
X41305995Y5817254D01*
X41305995Y5817254D02*
X41386807Y5790317D01*
X41386807Y5790317D02*
X41467619Y5709505D01*
X41467619Y5709505D02*
X41494557Y5628693D01*
X41494557Y5628693D02*
X41494557Y5574818D01*
X41494557Y5574818D02*
X41467619Y5494006D01*
X41467619Y5494006D02*
X41252120Y5278506D01*
X42383491Y5871129D02*
X42060242Y5547880D01*
X42221867Y5709505D02*
X41656181Y6275190D01*
X41656181Y6275190D02*
X41683119Y6140503D01*
X41683119Y6140503D02*
X41683119Y6032754D01*
X41683119Y6032754D02*
X41656181Y5951941D01*
X21204761Y52875800D02*
X21319047Y52837705D01*
X21319047Y52837705D02*
X21509523Y52837705D01*
X21509523Y52837705D02*
X21585714Y52875800D01*
X21585714Y52875800D02*
X21623809Y52913896D01*
X21623809Y52913896D02*
X21661904Y52990086D01*
X21661904Y52990086D02*
X21661904Y53066277D01*
X21661904Y53066277D02*
X21623809Y53142467D01*
X21623809Y53142467D02*
X21585714Y53180562D01*
X21585714Y53180562D02*
X21509523Y53218658D01*
X21509523Y53218658D02*
X21357142Y53256753D01*
X21357142Y53256753D02*
X21280952Y53294848D01*
X21280952Y53294848D02*
X21242857Y53332943D01*
X21242857Y53332943D02*
X21204761Y53409134D01*
X21204761Y53409134D02*
X21204761Y53485324D01*
X21204761Y53485324D02*
X21242857Y53561515D01*
X21242857Y53561515D02*
X21280952Y53599610D01*
X21280952Y53599610D02*
X21357142Y53637705D01*
X21357142Y53637705D02*
X21547619Y53637705D01*
X21547619Y53637705D02*
X21661904Y53599610D01*
X21928571Y53637705D02*
X22119047Y52837705D01*
X22119047Y52837705D02*
X22271428Y53409134D01*
X22271428Y53409134D02*
X22423809Y52837705D01*
X22423809Y52837705D02*
X22614286Y53637705D01*
X22919048Y52837705D02*
X22919048Y53637705D01*
X22919048Y53637705D02*
X23109524Y53637705D01*
X23109524Y53637705D02*
X23223810Y53599610D01*
X23223810Y53599610D02*
X23300000Y53523420D01*
X23300000Y53523420D02*
X23338095Y53447229D01*
X23338095Y53447229D02*
X23376191Y53294848D01*
X23376191Y53294848D02*
X23376191Y53180562D01*
X23376191Y53180562D02*
X23338095Y53028181D01*
X23338095Y53028181D02*
X23300000Y52951991D01*
X23300000Y52951991D02*
X23223810Y52875800D01*
X23223810Y52875800D02*
X23109524Y52837705D01*
X23109524Y52837705D02*
X22919048Y52837705D01*
X23719048Y52837705D02*
X23719048Y53637705D01*
X24252381Y53637705D02*
X24404762Y53637705D01*
X24404762Y53637705D02*
X24480952Y53599610D01*
X24480952Y53599610D02*
X24557143Y53523420D01*
X24557143Y53523420D02*
X24595238Y53371039D01*
X24595238Y53371039D02*
X24595238Y53104372D01*
X24595238Y53104372D02*
X24557143Y52951991D01*
X24557143Y52951991D02*
X24480952Y52875800D01*
X24480952Y52875800D02*
X24404762Y52837705D01*
X24404762Y52837705D02*
X24252381Y52837705D01*
X24252381Y52837705D02*
X24176190Y52875800D01*
X24176190Y52875800D02*
X24100000Y52951991D01*
X24100000Y52951991D02*
X24061904Y53104372D01*
X24061904Y53104372D02*
X24061904Y53371039D01*
X24061904Y53371039D02*
X24100000Y53523420D01*
X24100000Y53523420D02*
X24176190Y53599610D01*
X24176190Y53599610D02*
X24252381Y53637705D01*
X15338651Y27596290D02*
X14880716Y27677102D01*
X15015403Y27273041D02*
X14449717Y27838726D01*
X14449717Y27838726D02*
X14665216Y28054225D01*
X14665216Y28054225D02*
X14746029Y28081163D01*
X14746029Y28081163D02*
X14799903Y28081163D01*
X14799903Y28081163D02*
X14880716Y28054225D01*
X14880716Y28054225D02*
X14961528Y27973413D01*
X14961528Y27973413D02*
X14988465Y27892601D01*
X14988465Y27892601D02*
X14988465Y27838726D01*
X14988465Y27838726D02*
X14961528Y27757914D01*
X14961528Y27757914D02*
X14746029Y27542415D01*
X15015403Y28404412D02*
X15473338Y27946476D01*
X15473338Y27946476D02*
X15554151Y27919538D01*
X15554151Y27919538D02*
X15608025Y27919538D01*
X15608025Y27919538D02*
X15688838Y27946476D01*
X15688838Y27946476D02*
X15796587Y28054225D01*
X15796587Y28054225D02*
X15823525Y28135038D01*
X15823525Y28135038D02*
X15823525Y28188912D01*
X15823525Y28188912D02*
X15796587Y28269725D01*
X15796587Y28269725D02*
X15338651Y28727660D01*
X16173711Y28431349D02*
X15608025Y28997034D01*
X15608025Y28997034D02*
X16496959Y28754598D01*
X16496959Y28754598D02*
X15931274Y29320283D01*
X40613372Y17988506D02*
X40532560Y17961569D01*
X40532560Y17961569D02*
X40451748Y17880757D01*
X40451748Y17880757D02*
X40397873Y17773007D01*
X40397873Y17773007D02*
X40397873Y17665258D01*
X40397873Y17665258D02*
X40424810Y17584445D01*
X40424810Y17584445D02*
X40505623Y17449758D01*
X40505623Y17449758D02*
X40586435Y17368946D01*
X40586435Y17368946D02*
X40721122Y17288134D01*
X40721122Y17288134D02*
X40801934Y17261197D01*
X40801934Y17261197D02*
X40909684Y17261197D01*
X40909684Y17261197D02*
X41017433Y17315071D01*
X41017433Y17315071D02*
X41071308Y17368946D01*
X41071308Y17368946D02*
X41125183Y17476696D01*
X41125183Y17476696D02*
X41125183Y17530571D01*
X41125183Y17530571D02*
X40936621Y17719132D01*
X40936621Y17719132D02*
X40828871Y17611383D01*
X41421494Y17719132D02*
X40855809Y18284818D01*
X40855809Y18284818D02*
X41071308Y18500317D01*
X41071308Y18500317D02*
X41152120Y18527254D01*
X41152120Y18527254D02*
X41205995Y18527254D01*
X41205995Y18527254D02*
X41286807Y18500317D01*
X41286807Y18500317D02*
X41367619Y18419505D01*
X41367619Y18419505D02*
X41394557Y18338693D01*
X41394557Y18338693D02*
X41394557Y18284818D01*
X41394557Y18284818D02*
X41367619Y18204006D01*
X41367619Y18204006D02*
X41152120Y17988506D01*
X41690868Y19119877D02*
X41421494Y18850503D01*
X41421494Y18850503D02*
X41663931Y18554192D01*
X41663931Y18554192D02*
X41663931Y18608067D01*
X41663931Y18608067D02*
X41690868Y18688879D01*
X41690868Y18688879D02*
X41825555Y18823566D01*
X41825555Y18823566D02*
X41906367Y18850503D01*
X41906367Y18850503D02*
X41960242Y18850503D01*
X41960242Y18850503D02*
X42041054Y18823566D01*
X42041054Y18823566D02*
X42175741Y18688879D01*
X42175741Y18688879D02*
X42202679Y18608067D01*
X42202679Y18608067D02*
X42202679Y18554192D01*
X42202679Y18554192D02*
X42175741Y18473380D01*
X42175741Y18473380D02*
X42041054Y18338693D01*
X42041054Y18338693D02*
X41960242Y18311755D01*
X41960242Y18311755D02*
X41906367Y18311755D01*
X40713372Y10368506D02*
X40632560Y10341569D01*
X40632560Y10341569D02*
X40551748Y10260757D01*
X40551748Y10260757D02*
X40497873Y10153007D01*
X40497873Y10153007D02*
X40497873Y10045258D01*
X40497873Y10045258D02*
X40524810Y9964445D01*
X40524810Y9964445D02*
X40605623Y9829758D01*
X40605623Y9829758D02*
X40686435Y9748946D01*
X40686435Y9748946D02*
X40821122Y9668134D01*
X40821122Y9668134D02*
X40901934Y9641197D01*
X40901934Y9641197D02*
X41009684Y9641197D01*
X41009684Y9641197D02*
X41117433Y9695071D01*
X41117433Y9695071D02*
X41171308Y9748946D01*
X41171308Y9748946D02*
X41225183Y9856696D01*
X41225183Y9856696D02*
X41225183Y9910571D01*
X41225183Y9910571D02*
X41036621Y10099132D01*
X41036621Y10099132D02*
X40928871Y9991383D01*
X41521494Y10099132D02*
X40955809Y10664818D01*
X40955809Y10664818D02*
X41171308Y10880317D01*
X41171308Y10880317D02*
X41252120Y10907254D01*
X41252120Y10907254D02*
X41305995Y10907254D01*
X41305995Y10907254D02*
X41386807Y10880317D01*
X41386807Y10880317D02*
X41467619Y10799505D01*
X41467619Y10799505D02*
X41494557Y10718693D01*
X41494557Y10718693D02*
X41494557Y10664818D01*
X41494557Y10664818D02*
X41467619Y10584006D01*
X41467619Y10584006D02*
X41252120Y10368506D01*
X41548432Y11149691D02*
X41548432Y11203566D01*
X41548432Y11203566D02*
X41575369Y11284378D01*
X41575369Y11284378D02*
X41710056Y11419065D01*
X41710056Y11419065D02*
X41790868Y11446002D01*
X41790868Y11446002D02*
X41844743Y11446002D01*
X41844743Y11446002D02*
X41925555Y11419065D01*
X41925555Y11419065D02*
X41979430Y11365190D01*
X41979430Y11365190D02*
X42033305Y11257441D01*
X42033305Y11257441D02*
X42033305Y10610943D01*
X42033305Y10610943D02*
X42383491Y10961129D01*
X49607142Y3640420D02*
X49559523Y3592800D01*
X49559523Y3592800D02*
X49416666Y3545181D01*
X49416666Y3545181D02*
X49321428Y3545181D01*
X49321428Y3545181D02*
X49178571Y3592800D01*
X49178571Y3592800D02*
X49083333Y3688039D01*
X49083333Y3688039D02*
X49035714Y3783277D01*
X49035714Y3783277D02*
X48988095Y3973753D01*
X48988095Y3973753D02*
X48988095Y4116610D01*
X48988095Y4116610D02*
X49035714Y4307086D01*
X49035714Y4307086D02*
X49083333Y4402324D01*
X49083333Y4402324D02*
X49178571Y4497562D01*
X49178571Y4497562D02*
X49321428Y4545181D01*
X49321428Y4545181D02*
X49416666Y4545181D01*
X49416666Y4545181D02*
X49559523Y4497562D01*
X49559523Y4497562D02*
X49607142Y4449943D01*
X50559523Y3545181D02*
X49988095Y3545181D01*
X50273809Y3545181D02*
X50273809Y4545181D01*
X50273809Y4545181D02*
X50178571Y4402324D01*
X50178571Y4402324D02*
X50083333Y4307086D01*
X50083333Y4307086D02*
X49988095Y4259467D01*
X50892857Y4545181D02*
X51511904Y4545181D01*
X51511904Y4545181D02*
X51178571Y4164229D01*
X51178571Y4164229D02*
X51321428Y4164229D01*
X51321428Y4164229D02*
X51416666Y4116610D01*
X51416666Y4116610D02*
X51464285Y4068991D01*
X51464285Y4068991D02*
X51511904Y3973753D01*
X51511904Y3973753D02*
X51511904Y3735658D01*
X51511904Y3735658D02*
X51464285Y3640420D01*
X51464285Y3640420D02*
X51416666Y3592800D01*
X51416666Y3592800D02*
X51321428Y3545181D01*
X51321428Y3545181D02*
X51035714Y3545181D01*
X51035714Y3545181D02*
X50940476Y3592800D01*
X50940476Y3592800D02*
X50892857Y3640420D01*
D13*
X7166666Y50377781D02*
X7166666Y49663496D01*
X7166666Y49663496D02*
X7119047Y49520639D01*
X7119047Y49520639D02*
X7023809Y49425400D01*
X7023809Y49425400D02*
X6880952Y49377781D01*
X6880952Y49377781D02*
X6785714Y49377781D01*
X8071428Y50044448D02*
X8071428Y49377781D01*
X7833333Y50425400D02*
X7595238Y49711115D01*
X7595238Y49711115D02*
X8214285Y49711115D01*
D11*
X57773809Y10271372D02*
X57773809Y9795181D01*
X57440476Y10795181D02*
X57773809Y10271372D01*
X57773809Y10271372D02*
X58107142Y10795181D01*
X58964285Y9795181D02*
X58392857Y9795181D01*
X58678571Y9795181D02*
X58678571Y10795181D01*
X58678571Y10795181D02*
X58583333Y10652324D01*
X58583333Y10652324D02*
X58488095Y10557086D01*
X58488095Y10557086D02*
X58392857Y10509467D01*
X61454819Y45833334D02*
X60978628Y45500001D01*
X61454819Y45261906D02*
X60454819Y45261906D01*
X60454819Y45261906D02*
X60454819Y45642858D01*
X60454819Y45642858D02*
X60502438Y45738096D01*
X60502438Y45738096D02*
X60550057Y45785715D01*
X60550057Y45785715D02*
X60645295Y45833334D01*
X60645295Y45833334D02*
X60788152Y45833334D01*
X60788152Y45833334D02*
X60883390Y45785715D01*
X60883390Y45785715D02*
X60931009Y45738096D01*
X60931009Y45738096D02*
X60978628Y45642858D01*
X60978628Y45642858D02*
X60978628Y45261906D01*
X61454819Y46785715D02*
X61454819Y46214287D01*
X61454819Y46500001D02*
X60454819Y46500001D01*
X60454819Y46500001D02*
X60597676Y46404763D01*
X60597676Y46404763D02*
X60692914Y46309525D01*
X60692914Y46309525D02*
X60740533Y46214287D01*
D13*
X6806666Y25237781D02*
X6806666Y24523496D01*
X6806666Y24523496D02*
X6759047Y24380639D01*
X6759047Y24380639D02*
X6663809Y24285400D01*
X6663809Y24285400D02*
X6520952Y24237781D01*
X6520952Y24237781D02*
X6425714Y24237781D01*
X7187619Y25237781D02*
X7806666Y25237781D01*
X7806666Y25237781D02*
X7473333Y24856829D01*
X7473333Y24856829D02*
X7616190Y24856829D01*
X7616190Y24856829D02*
X7711428Y24809210D01*
X7711428Y24809210D02*
X7759047Y24761591D01*
X7759047Y24761591D02*
X7806666Y24666353D01*
X7806666Y24666353D02*
X7806666Y24428258D01*
X7806666Y24428258D02*
X7759047Y24333020D01*
X7759047Y24333020D02*
X7711428Y24285400D01*
X7711428Y24285400D02*
X7616190Y24237781D01*
X7616190Y24237781D02*
X7330476Y24237781D01*
X7330476Y24237781D02*
X7235238Y24285400D01*
X7235238Y24285400D02*
X7187619Y24333020D01*
D11*
X58954819Y41083334D02*
X58478628Y40750001D01*
X58954819Y40511906D02*
X57954819Y40511906D01*
X57954819Y40511906D02*
X57954819Y40892858D01*
X57954819Y40892858D02*
X58002438Y40988096D01*
X58002438Y40988096D02*
X58050057Y41035715D01*
X58050057Y41035715D02*
X58145295Y41083334D01*
X58145295Y41083334D02*
X58288152Y41083334D01*
X58288152Y41083334D02*
X58383390Y41035715D01*
X58383390Y41035715D02*
X58431009Y40988096D01*
X58431009Y40988096D02*
X58478628Y40892858D01*
X58478628Y40892858D02*
X58478628Y40511906D01*
X58288152Y41940477D02*
X58954819Y41940477D01*
X57907200Y41702382D02*
X58621485Y41464287D01*
X58621485Y41464287D02*
X58621485Y42083334D01*
X56359580Y32833334D02*
X56407200Y32785715D01*
X56407200Y32785715D02*
X56454819Y32642858D01*
X56454819Y32642858D02*
X56454819Y32547620D01*
X56454819Y32547620D02*
X56407200Y32404763D01*
X56407200Y32404763D02*
X56311961Y32309525D01*
X56311961Y32309525D02*
X56216723Y32261906D01*
X56216723Y32261906D02*
X56026247Y32214287D01*
X56026247Y32214287D02*
X55883390Y32214287D01*
X55883390Y32214287D02*
X55692914Y32261906D01*
X55692914Y32261906D02*
X55597676Y32309525D01*
X55597676Y32309525D02*
X55502438Y32404763D01*
X55502438Y32404763D02*
X55454819Y32547620D01*
X55454819Y32547620D02*
X55454819Y32642858D01*
X55454819Y32642858D02*
X55502438Y32785715D01*
X55502438Y32785715D02*
X55550057Y32833334D01*
X56454819Y33309525D02*
X56454819Y33500001D01*
X56454819Y33500001D02*
X56407200Y33595239D01*
X56407200Y33595239D02*
X56359580Y33642858D01*
X56359580Y33642858D02*
X56216723Y33738096D01*
X56216723Y33738096D02*
X56026247Y33785715D01*
X56026247Y33785715D02*
X55645295Y33785715D01*
X55645295Y33785715D02*
X55550057Y33738096D01*
X55550057Y33738096D02*
X55502438Y33690477D01*
X55502438Y33690477D02*
X55454819Y33595239D01*
X55454819Y33595239D02*
X55454819Y33404763D01*
X55454819Y33404763D02*
X55502438Y33309525D01*
X55502438Y33309525D02*
X55550057Y33261906D01*
X55550057Y33261906D02*
X55645295Y33214287D01*
X55645295Y33214287D02*
X55883390Y33214287D01*
X55883390Y33214287D02*
X55978628Y33261906D01*
X55978628Y33261906D02*
X56026247Y33309525D01*
X56026247Y33309525D02*
X56073866Y33404763D01*
X56073866Y33404763D02*
X56073866Y33595239D01*
X56073866Y33595239D02*
X56026247Y33690477D01*
X56026247Y33690477D02*
X55978628Y33738096D01*
X55978628Y33738096D02*
X55883390Y33785715D01*
X56359580Y35607143D02*
X56407200Y35559524D01*
X56407200Y35559524D02*
X56454819Y35416667D01*
X56454819Y35416667D02*
X56454819Y35321429D01*
X56454819Y35321429D02*
X56407200Y35178572D01*
X56407200Y35178572D02*
X56311961Y35083334D01*
X56311961Y35083334D02*
X56216723Y35035715D01*
X56216723Y35035715D02*
X56026247Y34988096D01*
X56026247Y34988096D02*
X55883390Y34988096D01*
X55883390Y34988096D02*
X55692914Y35035715D01*
X55692914Y35035715D02*
X55597676Y35083334D01*
X55597676Y35083334D02*
X55502438Y35178572D01*
X55502438Y35178572D02*
X55454819Y35321429D01*
X55454819Y35321429D02*
X55454819Y35416667D01*
X55454819Y35416667D02*
X55502438Y35559524D01*
X55502438Y35559524D02*
X55550057Y35607143D01*
X56454819Y36559524D02*
X56454819Y35988096D01*
X56454819Y36273810D02*
X55454819Y36273810D01*
X55454819Y36273810D02*
X55597676Y36178572D01*
X55597676Y36178572D02*
X55692914Y36083334D01*
X55692914Y36083334D02*
X55740533Y35988096D01*
X55550057Y36940477D02*
X55502438Y36988096D01*
X55502438Y36988096D02*
X55454819Y37083334D01*
X55454819Y37083334D02*
X55454819Y37321429D01*
X55454819Y37321429D02*
X55502438Y37416667D01*
X55502438Y37416667D02*
X55550057Y37464286D01*
X55550057Y37464286D02*
X55645295Y37511905D01*
X55645295Y37511905D02*
X55740533Y37511905D01*
X55740533Y37511905D02*
X55883390Y37464286D01*
X55883390Y37464286D02*
X56454819Y36892858D01*
X56454819Y36892858D02*
X56454819Y37511905D01*
X73872493Y51130181D02*
X73872493Y50415896D01*
X73872493Y50415896D02*
X73824874Y50273039D01*
X73824874Y50273039D02*
X73729636Y50177800D01*
X73729636Y50177800D02*
X73586779Y50130181D01*
X73586779Y50130181D02*
X73491541Y50130181D01*
X74253446Y51130181D02*
X74920112Y51130181D01*
X74920112Y51130181D02*
X74491541Y50130181D01*
X73204819Y28083334D02*
X72728628Y27750001D01*
X73204819Y27511906D02*
X72204819Y27511906D01*
X72204819Y27511906D02*
X72204819Y27892858D01*
X72204819Y27892858D02*
X72252438Y27988096D01*
X72252438Y27988096D02*
X72300057Y28035715D01*
X72300057Y28035715D02*
X72395295Y28083334D01*
X72395295Y28083334D02*
X72538152Y28083334D01*
X72538152Y28083334D02*
X72633390Y28035715D01*
X72633390Y28035715D02*
X72681009Y27988096D01*
X72681009Y27988096D02*
X72728628Y27892858D01*
X72728628Y27892858D02*
X72728628Y27511906D01*
X72204819Y28416668D02*
X72204819Y29083334D01*
X72204819Y29083334D02*
X73204819Y28654763D01*
X76666666Y12568991D02*
X76333333Y12568991D01*
X76333333Y12045181D02*
X76333333Y13045181D01*
X76333333Y13045181D02*
X76809523Y13045181D01*
X77523809Y12568991D02*
X77666666Y12521372D01*
X77666666Y12521372D02*
X77714285Y12473753D01*
X77714285Y12473753D02*
X77761904Y12378515D01*
X77761904Y12378515D02*
X77761904Y12235658D01*
X77761904Y12235658D02*
X77714285Y12140420D01*
X77714285Y12140420D02*
X77666666Y12092800D01*
X77666666Y12092800D02*
X77571428Y12045181D01*
X77571428Y12045181D02*
X77190476Y12045181D01*
X77190476Y12045181D02*
X77190476Y13045181D01*
X77190476Y13045181D02*
X77523809Y13045181D01*
X77523809Y13045181D02*
X77619047Y12997562D01*
X77619047Y12997562D02*
X77666666Y12949943D01*
X77666666Y12949943D02*
X77714285Y12854705D01*
X77714285Y12854705D02*
X77714285Y12759467D01*
X77714285Y12759467D02*
X77666666Y12664229D01*
X77666666Y12664229D02*
X77619047Y12616610D01*
X77619047Y12616610D02*
X77523809Y12568991D01*
X77523809Y12568991D02*
X77190476Y12568991D01*
X78714285Y12045181D02*
X78142857Y12045181D01*
X78428571Y12045181D02*
X78428571Y13045181D01*
X78428571Y13045181D02*
X78333333Y12902324D01*
X78333333Y12902324D02*
X78238095Y12807086D01*
X78238095Y12807086D02*
X78142857Y12759467D01*
X58859580Y35607143D02*
X58907200Y35559524D01*
X58907200Y35559524D02*
X58954819Y35416667D01*
X58954819Y35416667D02*
X58954819Y35321429D01*
X58954819Y35321429D02*
X58907200Y35178572D01*
X58907200Y35178572D02*
X58811961Y35083334D01*
X58811961Y35083334D02*
X58716723Y35035715D01*
X58716723Y35035715D02*
X58526247Y34988096D01*
X58526247Y34988096D02*
X58383390Y34988096D01*
X58383390Y34988096D02*
X58192914Y35035715D01*
X58192914Y35035715D02*
X58097676Y35083334D01*
X58097676Y35083334D02*
X58002438Y35178572D01*
X58002438Y35178572D02*
X57954819Y35321429D01*
X57954819Y35321429D02*
X57954819Y35416667D01*
X57954819Y35416667D02*
X58002438Y35559524D01*
X58002438Y35559524D02*
X58050057Y35607143D01*
X58954819Y36559524D02*
X58954819Y35988096D01*
X58954819Y36273810D02*
X57954819Y36273810D01*
X57954819Y36273810D02*
X58097676Y36178572D01*
X58097676Y36178572D02*
X58192914Y36083334D01*
X58192914Y36083334D02*
X58240533Y35988096D01*
X57954819Y37178572D02*
X57954819Y37273810D01*
X57954819Y37273810D02*
X58002438Y37369048D01*
X58002438Y37369048D02*
X58050057Y37416667D01*
X58050057Y37416667D02*
X58145295Y37464286D01*
X58145295Y37464286D02*
X58335771Y37511905D01*
X58335771Y37511905D02*
X58573866Y37511905D01*
X58573866Y37511905D02*
X58764342Y37464286D01*
X58764342Y37464286D02*
X58859580Y37416667D01*
X58859580Y37416667D02*
X58907200Y37369048D01*
X58907200Y37369048D02*
X58954819Y37273810D01*
X58954819Y37273810D02*
X58954819Y37178572D01*
X58954819Y37178572D02*
X58907200Y37083334D01*
X58907200Y37083334D02*
X58859580Y37035715D01*
X58859580Y37035715D02*
X58764342Y36988096D01*
X58764342Y36988096D02*
X58573866Y36940477D01*
X58573866Y36940477D02*
X58335771Y36940477D01*
X58335771Y36940477D02*
X58145295Y36988096D01*
X58145295Y36988096D02*
X58050057Y37035715D01*
X58050057Y37035715D02*
X58002438Y37083334D01*
X58002438Y37083334D02*
X57954819Y37178572D01*
X65357142Y3640420D02*
X65309523Y3592800D01*
X65309523Y3592800D02*
X65166666Y3545181D01*
X65166666Y3545181D02*
X65071428Y3545181D01*
X65071428Y3545181D02*
X64928571Y3592800D01*
X64928571Y3592800D02*
X64833333Y3688039D01*
X64833333Y3688039D02*
X64785714Y3783277D01*
X64785714Y3783277D02*
X64738095Y3973753D01*
X64738095Y3973753D02*
X64738095Y4116610D01*
X64738095Y4116610D02*
X64785714Y4307086D01*
X64785714Y4307086D02*
X64833333Y4402324D01*
X64833333Y4402324D02*
X64928571Y4497562D01*
X64928571Y4497562D02*
X65071428Y4545181D01*
X65071428Y4545181D02*
X65166666Y4545181D01*
X65166666Y4545181D02*
X65309523Y4497562D01*
X65309523Y4497562D02*
X65357142Y4449943D01*
X66309523Y3545181D02*
X65738095Y3545181D01*
X66023809Y3545181D02*
X66023809Y4545181D01*
X66023809Y4545181D02*
X65928571Y4402324D01*
X65928571Y4402324D02*
X65833333Y4307086D01*
X65833333Y4307086D02*
X65738095Y4259467D01*
X67214285Y4545181D02*
X66738095Y4545181D01*
X66738095Y4545181D02*
X66690476Y4068991D01*
X66690476Y4068991D02*
X66738095Y4116610D01*
X66738095Y4116610D02*
X66833333Y4164229D01*
X66833333Y4164229D02*
X67071428Y4164229D01*
X67071428Y4164229D02*
X67166666Y4116610D01*
X67166666Y4116610D02*
X67214285Y4068991D01*
X67214285Y4068991D02*
X67261904Y3973753D01*
X67261904Y3973753D02*
X67261904Y3735658D01*
X67261904Y3735658D02*
X67214285Y3640420D01*
X67214285Y3640420D02*
X67166666Y3592800D01*
X67166666Y3592800D02*
X67071428Y3545181D01*
X67071428Y3545181D02*
X66833333Y3545181D01*
X66833333Y3545181D02*
X66738095Y3592800D01*
X66738095Y3592800D02*
X66690476Y3640420D01*
X55109580Y32857143D02*
X55157200Y32809524D01*
X55157200Y32809524D02*
X55204819Y32666667D01*
X55204819Y32666667D02*
X55204819Y32571429D01*
X55204819Y32571429D02*
X55157200Y32428572D01*
X55157200Y32428572D02*
X55061961Y32333334D01*
X55061961Y32333334D02*
X54966723Y32285715D01*
X54966723Y32285715D02*
X54776247Y32238096D01*
X54776247Y32238096D02*
X54633390Y32238096D01*
X54633390Y32238096D02*
X54442914Y32285715D01*
X54442914Y32285715D02*
X54347676Y32333334D01*
X54347676Y32333334D02*
X54252438Y32428572D01*
X54252438Y32428572D02*
X54204819Y32571429D01*
X54204819Y32571429D02*
X54204819Y32666667D01*
X54204819Y32666667D02*
X54252438Y32809524D01*
X54252438Y32809524D02*
X54300057Y32857143D01*
X55204819Y33809524D02*
X55204819Y33238096D01*
X55204819Y33523810D02*
X54204819Y33523810D01*
X54204819Y33523810D02*
X54347676Y33428572D01*
X54347676Y33428572D02*
X54442914Y33333334D01*
X54442914Y33333334D02*
X54490533Y33238096D01*
X55204819Y34761905D02*
X55204819Y34190477D01*
X55204819Y34476191D02*
X54204819Y34476191D01*
X54204819Y34476191D02*
X54347676Y34380953D01*
X54347676Y34380953D02*
X54442914Y34285715D01*
X54442914Y34285715D02*
X54490533Y34190477D01*
X71857142Y2890420D02*
X71809523Y2842800D01*
X71809523Y2842800D02*
X71666666Y2795181D01*
X71666666Y2795181D02*
X71571428Y2795181D01*
X71571428Y2795181D02*
X71428571Y2842800D01*
X71428571Y2842800D02*
X71333333Y2938039D01*
X71333333Y2938039D02*
X71285714Y3033277D01*
X71285714Y3033277D02*
X71238095Y3223753D01*
X71238095Y3223753D02*
X71238095Y3366610D01*
X71238095Y3366610D02*
X71285714Y3557086D01*
X71285714Y3557086D02*
X71333333Y3652324D01*
X71333333Y3652324D02*
X71428571Y3747562D01*
X71428571Y3747562D02*
X71571428Y3795181D01*
X71571428Y3795181D02*
X71666666Y3795181D01*
X71666666Y3795181D02*
X71809523Y3747562D01*
X71809523Y3747562D02*
X71857142Y3699943D01*
X72809523Y2795181D02*
X72238095Y2795181D01*
X72523809Y2795181D02*
X72523809Y3795181D01*
X72523809Y3795181D02*
X72428571Y3652324D01*
X72428571Y3652324D02*
X72333333Y3557086D01*
X72333333Y3557086D02*
X72238095Y3509467D01*
X73666666Y3795181D02*
X73476190Y3795181D01*
X73476190Y3795181D02*
X73380952Y3747562D01*
X73380952Y3747562D02*
X73333333Y3699943D01*
X73333333Y3699943D02*
X73238095Y3557086D01*
X73238095Y3557086D02*
X73190476Y3366610D01*
X73190476Y3366610D02*
X73190476Y2985658D01*
X73190476Y2985658D02*
X73238095Y2890420D01*
X73238095Y2890420D02*
X73285714Y2842800D01*
X73285714Y2842800D02*
X73380952Y2795181D01*
X73380952Y2795181D02*
X73571428Y2795181D01*
X73571428Y2795181D02*
X73666666Y2842800D01*
X73666666Y2842800D02*
X73714285Y2890420D01*
X73714285Y2890420D02*
X73761904Y2985658D01*
X73761904Y2985658D02*
X73761904Y3223753D01*
X73761904Y3223753D02*
X73714285Y3318991D01*
X73714285Y3318991D02*
X73666666Y3366610D01*
X73666666Y3366610D02*
X73571428Y3414229D01*
X73571428Y3414229D02*
X73380952Y3414229D01*
X73380952Y3414229D02*
X73285714Y3366610D01*
X73285714Y3366610D02*
X73238095Y3318991D01*
X73238095Y3318991D02*
X73190476Y3223753D01*
X71857142Y4390420D02*
X71809523Y4342800D01*
X71809523Y4342800D02*
X71666666Y4295181D01*
X71666666Y4295181D02*
X71571428Y4295181D01*
X71571428Y4295181D02*
X71428571Y4342800D01*
X71428571Y4342800D02*
X71333333Y4438039D01*
X71333333Y4438039D02*
X71285714Y4533277D01*
X71285714Y4533277D02*
X71238095Y4723753D01*
X71238095Y4723753D02*
X71238095Y4866610D01*
X71238095Y4866610D02*
X71285714Y5057086D01*
X71285714Y5057086D02*
X71333333Y5152324D01*
X71333333Y5152324D02*
X71428571Y5247562D01*
X71428571Y5247562D02*
X71571428Y5295181D01*
X71571428Y5295181D02*
X71666666Y5295181D01*
X71666666Y5295181D02*
X71809523Y5247562D01*
X71809523Y5247562D02*
X71857142Y5199943D01*
X72809523Y4295181D02*
X72238095Y4295181D01*
X72523809Y4295181D02*
X72523809Y5295181D01*
X72523809Y5295181D02*
X72428571Y5152324D01*
X72428571Y5152324D02*
X72333333Y5057086D01*
X72333333Y5057086D02*
X72238095Y5009467D01*
X73380952Y4866610D02*
X73285714Y4914229D01*
X73285714Y4914229D02*
X73238095Y4961848D01*
X73238095Y4961848D02*
X73190476Y5057086D01*
X73190476Y5057086D02*
X73190476Y5104705D01*
X73190476Y5104705D02*
X73238095Y5199943D01*
X73238095Y5199943D02*
X73285714Y5247562D01*
X73285714Y5247562D02*
X73380952Y5295181D01*
X73380952Y5295181D02*
X73571428Y5295181D01*
X73571428Y5295181D02*
X73666666Y5247562D01*
X73666666Y5247562D02*
X73714285Y5199943D01*
X73714285Y5199943D02*
X73761904Y5104705D01*
X73761904Y5104705D02*
X73761904Y5057086D01*
X73761904Y5057086D02*
X73714285Y4961848D01*
X73714285Y4961848D02*
X73666666Y4914229D01*
X73666666Y4914229D02*
X73571428Y4866610D01*
X73571428Y4866610D02*
X73380952Y4866610D01*
X73380952Y4866610D02*
X73285714Y4818991D01*
X73285714Y4818991D02*
X73238095Y4771372D01*
X73238095Y4771372D02*
X73190476Y4676134D01*
X73190476Y4676134D02*
X73190476Y4485658D01*
X73190476Y4485658D02*
X73238095Y4390420D01*
X73238095Y4390420D02*
X73285714Y4342800D01*
X73285714Y4342800D02*
X73380952Y4295181D01*
X73380952Y4295181D02*
X73571428Y4295181D01*
X73571428Y4295181D02*
X73666666Y4342800D01*
X73666666Y4342800D02*
X73714285Y4390420D01*
X73714285Y4390420D02*
X73761904Y4485658D01*
X73761904Y4485658D02*
X73761904Y4676134D01*
X73761904Y4676134D02*
X73714285Y4771372D01*
X73714285Y4771372D02*
X73666666Y4818991D01*
X73666666Y4818991D02*
X73571428Y4866610D01*
X57609580Y35607143D02*
X57657200Y35559524D01*
X57657200Y35559524D02*
X57704819Y35416667D01*
X57704819Y35416667D02*
X57704819Y35321429D01*
X57704819Y35321429D02*
X57657200Y35178572D01*
X57657200Y35178572D02*
X57561961Y35083334D01*
X57561961Y35083334D02*
X57466723Y35035715D01*
X57466723Y35035715D02*
X57276247Y34988096D01*
X57276247Y34988096D02*
X57133390Y34988096D01*
X57133390Y34988096D02*
X56942914Y35035715D01*
X56942914Y35035715D02*
X56847676Y35083334D01*
X56847676Y35083334D02*
X56752438Y35178572D01*
X56752438Y35178572D02*
X56704819Y35321429D01*
X56704819Y35321429D02*
X56704819Y35416667D01*
X56704819Y35416667D02*
X56752438Y35559524D01*
X56752438Y35559524D02*
X56800057Y35607143D01*
X57704819Y36559524D02*
X57704819Y35988096D01*
X57704819Y36273810D02*
X56704819Y36273810D01*
X56704819Y36273810D02*
X56847676Y36178572D01*
X56847676Y36178572D02*
X56942914Y36083334D01*
X56942914Y36083334D02*
X56990533Y35988096D01*
X56704819Y36892858D02*
X56704819Y37559524D01*
X56704819Y37559524D02*
X57704819Y37130953D01*
X69488095Y25295181D02*
X69488095Y24485658D01*
X69488095Y24485658D02*
X69535714Y24390420D01*
X69535714Y24390420D02*
X69583333Y24342800D01*
X69583333Y24342800D02*
X69678571Y24295181D01*
X69678571Y24295181D02*
X69869047Y24295181D01*
X69869047Y24295181D02*
X69964285Y24342800D01*
X69964285Y24342800D02*
X70011904Y24390420D01*
X70011904Y24390420D02*
X70059523Y24485658D01*
X70059523Y24485658D02*
X70059523Y25295181D01*
X70964285Y24961848D02*
X70964285Y24295181D01*
X70726190Y25342800D02*
X70488095Y24628515D01*
X70488095Y24628515D02*
X71107142Y24628515D01*
X83431009Y30666667D02*
X83431009Y30333334D01*
X83954819Y30333334D02*
X82954819Y30333334D01*
X82954819Y30333334D02*
X82954819Y30809524D01*
X83431009Y31523810D02*
X83478628Y31666667D01*
X83478628Y31666667D02*
X83526247Y31714286D01*
X83526247Y31714286D02*
X83621485Y31761905D01*
X83621485Y31761905D02*
X83764342Y31761905D01*
X83764342Y31761905D02*
X83859580Y31714286D01*
X83859580Y31714286D02*
X83907200Y31666667D01*
X83907200Y31666667D02*
X83954819Y31571429D01*
X83954819Y31571429D02*
X83954819Y31190477D01*
X83954819Y31190477D02*
X82954819Y31190477D01*
X82954819Y31190477D02*
X82954819Y31523810D01*
X82954819Y31523810D02*
X83002438Y31619048D01*
X83002438Y31619048D02*
X83050057Y31666667D01*
X83050057Y31666667D02*
X83145295Y31714286D01*
X83145295Y31714286D02*
X83240533Y31714286D01*
X83240533Y31714286D02*
X83335771Y31666667D01*
X83335771Y31666667D02*
X83383390Y31619048D01*
X83383390Y31619048D02*
X83431009Y31523810D01*
X83431009Y31523810D02*
X83431009Y31190477D01*
X82954819Y32095239D02*
X82954819Y32714286D01*
X82954819Y32714286D02*
X83335771Y32380953D01*
X83335771Y32380953D02*
X83335771Y32523810D01*
X83335771Y32523810D02*
X83383390Y32619048D01*
X83383390Y32619048D02*
X83431009Y32666667D01*
X83431009Y32666667D02*
X83526247Y32714286D01*
X83526247Y32714286D02*
X83764342Y32714286D01*
X83764342Y32714286D02*
X83859580Y32666667D01*
X83859580Y32666667D02*
X83907200Y32619048D01*
X83907200Y32619048D02*
X83954819Y32523810D01*
X83954819Y32523810D02*
X83954819Y32238096D01*
X83954819Y32238096D02*
X83907200Y32142858D01*
X83907200Y32142858D02*
X83859580Y32095239D01*
X81359580Y45357143D02*
X81407200Y45309524D01*
X81407200Y45309524D02*
X81454819Y45166667D01*
X81454819Y45166667D02*
X81454819Y45071429D01*
X81454819Y45071429D02*
X81407200Y44928572D01*
X81407200Y44928572D02*
X81311961Y44833334D01*
X81311961Y44833334D02*
X81216723Y44785715D01*
X81216723Y44785715D02*
X81026247Y44738096D01*
X81026247Y44738096D02*
X80883390Y44738096D01*
X80883390Y44738096D02*
X80692914Y44785715D01*
X80692914Y44785715D02*
X80597676Y44833334D01*
X80597676Y44833334D02*
X80502438Y44928572D01*
X80502438Y44928572D02*
X80454819Y45071429D01*
X80454819Y45071429D02*
X80454819Y45166667D01*
X80454819Y45166667D02*
X80502438Y45309524D01*
X80502438Y45309524D02*
X80550057Y45357143D01*
X80550057Y45738096D02*
X80502438Y45785715D01*
X80502438Y45785715D02*
X80454819Y45880953D01*
X80454819Y45880953D02*
X80454819Y46119048D01*
X80454819Y46119048D02*
X80502438Y46214286D01*
X80502438Y46214286D02*
X80550057Y46261905D01*
X80550057Y46261905D02*
X80645295Y46309524D01*
X80645295Y46309524D02*
X80740533Y46309524D01*
X80740533Y46309524D02*
X80883390Y46261905D01*
X80883390Y46261905D02*
X81454819Y45690477D01*
X81454819Y45690477D02*
X81454819Y46309524D01*
X80454819Y46928572D02*
X80454819Y47023810D01*
X80454819Y47023810D02*
X80502438Y47119048D01*
X80502438Y47119048D02*
X80550057Y47166667D01*
X80550057Y47166667D02*
X80645295Y47214286D01*
X80645295Y47214286D02*
X80835771Y47261905D01*
X80835771Y47261905D02*
X81073866Y47261905D01*
X81073866Y47261905D02*
X81264342Y47214286D01*
X81264342Y47214286D02*
X81359580Y47166667D01*
X81359580Y47166667D02*
X81407200Y47119048D01*
X81407200Y47119048D02*
X81454819Y47023810D01*
X81454819Y47023810D02*
X81454819Y46928572D01*
X81454819Y46928572D02*
X81407200Y46833334D01*
X81407200Y46833334D02*
X81359580Y46785715D01*
X81359580Y46785715D02*
X81264342Y46738096D01*
X81264342Y46738096D02*
X81073866Y46690477D01*
X81073866Y46690477D02*
X80835771Y46690477D01*
X80835771Y46690477D02*
X80645295Y46738096D01*
X80645295Y46738096D02*
X80550057Y46785715D01*
X80550057Y46785715D02*
X80502438Y46833334D01*
X80502438Y46833334D02*
X80454819Y46928572D01*
X78954819Y45583334D02*
X78478628Y45250001D01*
X78954819Y45011906D02*
X77954819Y45011906D01*
X77954819Y45011906D02*
X77954819Y45392858D01*
X77954819Y45392858D02*
X78002438Y45488096D01*
X78002438Y45488096D02*
X78050057Y45535715D01*
X78050057Y45535715D02*
X78145295Y45583334D01*
X78145295Y45583334D02*
X78288152Y45583334D01*
X78288152Y45583334D02*
X78383390Y45535715D01*
X78383390Y45535715D02*
X78431009Y45488096D01*
X78431009Y45488096D02*
X78478628Y45392858D01*
X78478628Y45392858D02*
X78478628Y45011906D01*
X78383390Y46154763D02*
X78335771Y46059525D01*
X78335771Y46059525D02*
X78288152Y46011906D01*
X78288152Y46011906D02*
X78192914Y45964287D01*
X78192914Y45964287D02*
X78145295Y45964287D01*
X78145295Y45964287D02*
X78050057Y46011906D01*
X78050057Y46011906D02*
X78002438Y46059525D01*
X78002438Y46059525D02*
X77954819Y46154763D01*
X77954819Y46154763D02*
X77954819Y46345239D01*
X77954819Y46345239D02*
X78002438Y46440477D01*
X78002438Y46440477D02*
X78050057Y46488096D01*
X78050057Y46488096D02*
X78145295Y46535715D01*
X78145295Y46535715D02*
X78192914Y46535715D01*
X78192914Y46535715D02*
X78288152Y46488096D01*
X78288152Y46488096D02*
X78335771Y46440477D01*
X78335771Y46440477D02*
X78383390Y46345239D01*
X78383390Y46345239D02*
X78383390Y46154763D01*
X78383390Y46154763D02*
X78431009Y46059525D01*
X78431009Y46059525D02*
X78478628Y46011906D01*
X78478628Y46011906D02*
X78573866Y45964287D01*
X78573866Y45964287D02*
X78764342Y45964287D01*
X78764342Y45964287D02*
X78859580Y46011906D01*
X78859580Y46011906D02*
X78907200Y46059525D01*
X78907200Y46059525D02*
X78954819Y46154763D01*
X78954819Y46154763D02*
X78954819Y46345239D01*
X78954819Y46345239D02*
X78907200Y46440477D01*
X78907200Y46440477D02*
X78859580Y46488096D01*
X78859580Y46488096D02*
X78764342Y46535715D01*
X78764342Y46535715D02*
X78573866Y46535715D01*
X78573866Y46535715D02*
X78478628Y46488096D01*
X78478628Y46488096D02*
X78431009Y46440477D01*
X78431009Y46440477D02*
X78383390Y46345239D01*
X78859580Y31083334D02*
X78907200Y31035715D01*
X78907200Y31035715D02*
X78954819Y30892858D01*
X78954819Y30892858D02*
X78954819Y30797620D01*
X78954819Y30797620D02*
X78907200Y30654763D01*
X78907200Y30654763D02*
X78811961Y30559525D01*
X78811961Y30559525D02*
X78716723Y30511906D01*
X78716723Y30511906D02*
X78526247Y30464287D01*
X78526247Y30464287D02*
X78383390Y30464287D01*
X78383390Y30464287D02*
X78192914Y30511906D01*
X78192914Y30511906D02*
X78097676Y30559525D01*
X78097676Y30559525D02*
X78002438Y30654763D01*
X78002438Y30654763D02*
X77954819Y30797620D01*
X77954819Y30797620D02*
X77954819Y30892858D01*
X77954819Y30892858D02*
X78002438Y31035715D01*
X78002438Y31035715D02*
X78050057Y31083334D01*
X77954819Y31940477D02*
X77954819Y31750001D01*
X77954819Y31750001D02*
X78002438Y31654763D01*
X78002438Y31654763D02*
X78050057Y31607144D01*
X78050057Y31607144D02*
X78192914Y31511906D01*
X78192914Y31511906D02*
X78383390Y31464287D01*
X78383390Y31464287D02*
X78764342Y31464287D01*
X78764342Y31464287D02*
X78859580Y31511906D01*
X78859580Y31511906D02*
X78907200Y31559525D01*
X78907200Y31559525D02*
X78954819Y31654763D01*
X78954819Y31654763D02*
X78954819Y31845239D01*
X78954819Y31845239D02*
X78907200Y31940477D01*
X78907200Y31940477D02*
X78859580Y31988096D01*
X78859580Y31988096D02*
X78764342Y32035715D01*
X78764342Y32035715D02*
X78526247Y32035715D01*
X78526247Y32035715D02*
X78431009Y31988096D01*
X78431009Y31988096D02*
X78383390Y31940477D01*
X78383390Y31940477D02*
X78335771Y31845239D01*
X78335771Y31845239D02*
X78335771Y31654763D01*
X78335771Y31654763D02*
X78383390Y31559525D01*
X78383390Y31559525D02*
X78431009Y31511906D01*
X78431009Y31511906D02*
X78526247Y31464287D01*
X60023056Y20294824D02*
X60023056Y21295596D01*
X61071483Y20390135D02*
X61023827Y20342479D01*
X61023827Y20342479D02*
X60880860Y20294824D01*
X60880860Y20294824D02*
X60785548Y20294824D01*
X60785548Y20294824D02*
X60642581Y20342479D01*
X60642581Y20342479D02*
X60547269Y20437791D01*
X60547269Y20437791D02*
X60499614Y20533103D01*
X60499614Y20533103D02*
X60451958Y20723726D01*
X60451958Y20723726D02*
X60451958Y20866693D01*
X60451958Y20866693D02*
X60499614Y21057317D01*
X60499614Y21057317D02*
X60547269Y21152628D01*
X60547269Y21152628D02*
X60642581Y21247940D01*
X60642581Y21247940D02*
X60785548Y21295596D01*
X60785548Y21295596D02*
X60880860Y21295596D01*
X60880860Y21295596D02*
X61023827Y21247940D01*
X61023827Y21247940D02*
X61071483Y21200284D01*
X61452730Y21200284D02*
X61500386Y21247940D01*
X61500386Y21247940D02*
X61595697Y21295596D01*
X61595697Y21295596D02*
X61833976Y21295596D01*
X61833976Y21295596D02*
X61929288Y21247940D01*
X61929288Y21247940D02*
X61976944Y21200284D01*
X61976944Y21200284D02*
X62024599Y21104972D01*
X62024599Y21104972D02*
X62024599Y21009661D01*
X62024599Y21009661D02*
X61976944Y20866693D01*
X61976944Y20866693D02*
X61405074Y20294824D01*
X61405074Y20294824D02*
X62024599Y20294824D01*
X52609580Y32857143D02*
X52657200Y32809524D01*
X52657200Y32809524D02*
X52704819Y32666667D01*
X52704819Y32666667D02*
X52704819Y32571429D01*
X52704819Y32571429D02*
X52657200Y32428572D01*
X52657200Y32428572D02*
X52561961Y32333334D01*
X52561961Y32333334D02*
X52466723Y32285715D01*
X52466723Y32285715D02*
X52276247Y32238096D01*
X52276247Y32238096D02*
X52133390Y32238096D01*
X52133390Y32238096D02*
X51942914Y32285715D01*
X51942914Y32285715D02*
X51847676Y32333334D01*
X51847676Y32333334D02*
X51752438Y32428572D01*
X51752438Y32428572D02*
X51704819Y32571429D01*
X51704819Y32571429D02*
X51704819Y32666667D01*
X51704819Y32666667D02*
X51752438Y32809524D01*
X51752438Y32809524D02*
X51800057Y32857143D01*
X52704819Y33809524D02*
X52704819Y33238096D01*
X52704819Y33523810D02*
X51704819Y33523810D01*
X51704819Y33523810D02*
X51847676Y33428572D01*
X51847676Y33428572D02*
X51942914Y33333334D01*
X51942914Y33333334D02*
X51990533Y33238096D01*
X52038152Y34666667D02*
X52704819Y34666667D01*
X51657200Y34428572D02*
X52371485Y34190477D01*
X52371485Y34190477D02*
X52371485Y34809524D01*
X83704819Y45333334D02*
X83228628Y45000001D01*
X83704819Y44761906D02*
X82704819Y44761906D01*
X82704819Y44761906D02*
X82704819Y45142858D01*
X82704819Y45142858D02*
X82752438Y45238096D01*
X82752438Y45238096D02*
X82800057Y45285715D01*
X82800057Y45285715D02*
X82895295Y45333334D01*
X82895295Y45333334D02*
X83038152Y45333334D01*
X83038152Y45333334D02*
X83133390Y45285715D01*
X83133390Y45285715D02*
X83181009Y45238096D01*
X83181009Y45238096D02*
X83228628Y45142858D01*
X83228628Y45142858D02*
X83228628Y44761906D01*
X83704819Y45809525D02*
X83704819Y46000001D01*
X83704819Y46000001D02*
X83657200Y46095239D01*
X83657200Y46095239D02*
X83609580Y46142858D01*
X83609580Y46142858D02*
X83466723Y46238096D01*
X83466723Y46238096D02*
X83276247Y46285715D01*
X83276247Y46285715D02*
X82895295Y46285715D01*
X82895295Y46285715D02*
X82800057Y46238096D01*
X82800057Y46238096D02*
X82752438Y46190477D01*
X82752438Y46190477D02*
X82704819Y46095239D01*
X82704819Y46095239D02*
X82704819Y45904763D01*
X82704819Y45904763D02*
X82752438Y45809525D01*
X82752438Y45809525D02*
X82800057Y45761906D01*
X82800057Y45761906D02*
X82895295Y45714287D01*
X82895295Y45714287D02*
X83133390Y45714287D01*
X83133390Y45714287D02*
X83228628Y45761906D01*
X83228628Y45761906D02*
X83276247Y45809525D01*
X83276247Y45809525D02*
X83323866Y45904763D01*
X83323866Y45904763D02*
X83323866Y46095239D01*
X83323866Y46095239D02*
X83276247Y46190477D01*
X83276247Y46190477D02*
X83228628Y46238096D01*
X83228628Y46238096D02*
X83133390Y46285715D01*
X49083333Y12295181D02*
X48750000Y12771372D01*
X48511905Y12295181D02*
X48511905Y13295181D01*
X48511905Y13295181D02*
X48892857Y13295181D01*
X48892857Y13295181D02*
X48988095Y13247562D01*
X48988095Y13247562D02*
X49035714Y13199943D01*
X49035714Y13199943D02*
X49083333Y13104705D01*
X49083333Y13104705D02*
X49083333Y12961848D01*
X49083333Y12961848D02*
X49035714Y12866610D01*
X49035714Y12866610D02*
X48988095Y12818991D01*
X48988095Y12818991D02*
X48892857Y12771372D01*
X48892857Y12771372D02*
X48511905Y12771372D01*
X49940476Y13295181D02*
X49750000Y13295181D01*
X49750000Y13295181D02*
X49654762Y13247562D01*
X49654762Y13247562D02*
X49607143Y13199943D01*
X49607143Y13199943D02*
X49511905Y13057086D01*
X49511905Y13057086D02*
X49464286Y12866610D01*
X49464286Y12866610D02*
X49464286Y12485658D01*
X49464286Y12485658D02*
X49511905Y12390420D01*
X49511905Y12390420D02*
X49559524Y12342800D01*
X49559524Y12342800D02*
X49654762Y12295181D01*
X49654762Y12295181D02*
X49845238Y12295181D01*
X49845238Y12295181D02*
X49940476Y12342800D01*
X49940476Y12342800D02*
X49988095Y12390420D01*
X49988095Y12390420D02*
X50035714Y12485658D01*
X50035714Y12485658D02*
X50035714Y12723753D01*
X50035714Y12723753D02*
X49988095Y12818991D01*
X49988095Y12818991D02*
X49940476Y12866610D01*
X49940476Y12866610D02*
X49845238Y12914229D01*
X49845238Y12914229D02*
X49654762Y12914229D01*
X49654762Y12914229D02*
X49559524Y12866610D01*
X49559524Y12866610D02*
X49511905Y12818991D01*
X49511905Y12818991D02*
X49464286Y12723753D01*
X57704819Y41083334D02*
X57228628Y40750001D01*
X57704819Y40511906D02*
X56704819Y40511906D01*
X56704819Y40511906D02*
X56704819Y40892858D01*
X56704819Y40892858D02*
X56752438Y40988096D01*
X56752438Y40988096D02*
X56800057Y41035715D01*
X56800057Y41035715D02*
X56895295Y41083334D01*
X56895295Y41083334D02*
X57038152Y41083334D01*
X57038152Y41083334D02*
X57133390Y41035715D01*
X57133390Y41035715D02*
X57181009Y40988096D01*
X57181009Y40988096D02*
X57228628Y40892858D01*
X57228628Y40892858D02*
X57228628Y40511906D01*
X56800057Y41464287D02*
X56752438Y41511906D01*
X56752438Y41511906D02*
X56704819Y41607144D01*
X56704819Y41607144D02*
X56704819Y41845239D01*
X56704819Y41845239D02*
X56752438Y41940477D01*
X56752438Y41940477D02*
X56800057Y41988096D01*
X56800057Y41988096D02*
X56895295Y42035715D01*
X56895295Y42035715D02*
X56990533Y42035715D01*
X56990533Y42035715D02*
X57133390Y41988096D01*
X57133390Y41988096D02*
X57704819Y41416668D01*
X57704819Y41416668D02*
X57704819Y42035715D01*
X60109580Y45833334D02*
X60157200Y45785715D01*
X60157200Y45785715D02*
X60204819Y45642858D01*
X60204819Y45642858D02*
X60204819Y45547620D01*
X60204819Y45547620D02*
X60157200Y45404763D01*
X60157200Y45404763D02*
X60061961Y45309525D01*
X60061961Y45309525D02*
X59966723Y45261906D01*
X59966723Y45261906D02*
X59776247Y45214287D01*
X59776247Y45214287D02*
X59633390Y45214287D01*
X59633390Y45214287D02*
X59442914Y45261906D01*
X59442914Y45261906D02*
X59347676Y45309525D01*
X59347676Y45309525D02*
X59252438Y45404763D01*
X59252438Y45404763D02*
X59204819Y45547620D01*
X59204819Y45547620D02*
X59204819Y45642858D01*
X59204819Y45642858D02*
X59252438Y45785715D01*
X59252438Y45785715D02*
X59300057Y45833334D01*
X60204819Y46785715D02*
X60204819Y46214287D01*
X60204819Y46500001D02*
X59204819Y46500001D01*
X59204819Y46500001D02*
X59347676Y46404763D01*
X59347676Y46404763D02*
X59442914Y46309525D01*
X59442914Y46309525D02*
X59490533Y46214287D01*
X76857142Y10640420D02*
X76809523Y10592800D01*
X76809523Y10592800D02*
X76666666Y10545181D01*
X76666666Y10545181D02*
X76571428Y10545181D01*
X76571428Y10545181D02*
X76428571Y10592800D01*
X76428571Y10592800D02*
X76333333Y10688039D01*
X76333333Y10688039D02*
X76285714Y10783277D01*
X76285714Y10783277D02*
X76238095Y10973753D01*
X76238095Y10973753D02*
X76238095Y11116610D01*
X76238095Y11116610D02*
X76285714Y11307086D01*
X76285714Y11307086D02*
X76333333Y11402324D01*
X76333333Y11402324D02*
X76428571Y11497562D01*
X76428571Y11497562D02*
X76571428Y11545181D01*
X76571428Y11545181D02*
X76666666Y11545181D01*
X76666666Y11545181D02*
X76809523Y11497562D01*
X76809523Y11497562D02*
X76857142Y11449943D01*
X77238095Y11449943D02*
X77285714Y11497562D01*
X77285714Y11497562D02*
X77380952Y11545181D01*
X77380952Y11545181D02*
X77619047Y11545181D01*
X77619047Y11545181D02*
X77714285Y11497562D01*
X77714285Y11497562D02*
X77761904Y11449943D01*
X77761904Y11449943D02*
X77809523Y11354705D01*
X77809523Y11354705D02*
X77809523Y11259467D01*
X77809523Y11259467D02*
X77761904Y11116610D01*
X77761904Y11116610D02*
X77190476Y10545181D01*
X77190476Y10545181D02*
X77809523Y10545181D01*
X78761904Y10545181D02*
X78190476Y10545181D01*
X78476190Y10545181D02*
X78476190Y11545181D01*
X78476190Y11545181D02*
X78380952Y11402324D01*
X78380952Y11402324D02*
X78285714Y11307086D01*
X78285714Y11307086D02*
X78190476Y11259467D01*
D13*
X7166666Y47797781D02*
X7166666Y47083496D01*
X7166666Y47083496D02*
X7119047Y46940639D01*
X7119047Y46940639D02*
X7023809Y46845400D01*
X7023809Y46845400D02*
X6880952Y46797781D01*
X6880952Y46797781D02*
X6785714Y46797781D01*
X8119047Y47797781D02*
X7642857Y47797781D01*
X7642857Y47797781D02*
X7595238Y47321591D01*
X7595238Y47321591D02*
X7642857Y47369210D01*
X7642857Y47369210D02*
X7738095Y47416829D01*
X7738095Y47416829D02*
X7976190Y47416829D01*
X7976190Y47416829D02*
X8071428Y47369210D01*
X8071428Y47369210D02*
X8119047Y47321591D01*
X8119047Y47321591D02*
X8166666Y47226353D01*
X8166666Y47226353D02*
X8166666Y46988258D01*
X8166666Y46988258D02*
X8119047Y46893020D01*
X8119047Y46893020D02*
X8071428Y46845400D01*
X8071428Y46845400D02*
X7976190Y46797781D01*
X7976190Y46797781D02*
X7738095Y46797781D01*
X7738095Y46797781D02*
X7642857Y46845400D01*
X7642857Y46845400D02*
X7595238Y46893020D01*
D11*
X53431009Y32666667D02*
X53431009Y32333334D01*
X53954819Y32333334D02*
X52954819Y32333334D01*
X52954819Y32333334D02*
X52954819Y32809524D01*
X53431009Y33523810D02*
X53478628Y33666667D01*
X53478628Y33666667D02*
X53526247Y33714286D01*
X53526247Y33714286D02*
X53621485Y33761905D01*
X53621485Y33761905D02*
X53764342Y33761905D01*
X53764342Y33761905D02*
X53859580Y33714286D01*
X53859580Y33714286D02*
X53907200Y33666667D01*
X53907200Y33666667D02*
X53954819Y33571429D01*
X53954819Y33571429D02*
X53954819Y33190477D01*
X53954819Y33190477D02*
X52954819Y33190477D01*
X52954819Y33190477D02*
X52954819Y33523810D01*
X52954819Y33523810D02*
X53002438Y33619048D01*
X53002438Y33619048D02*
X53050057Y33666667D01*
X53050057Y33666667D02*
X53145295Y33714286D01*
X53145295Y33714286D02*
X53240533Y33714286D01*
X53240533Y33714286D02*
X53335771Y33666667D01*
X53335771Y33666667D02*
X53383390Y33619048D01*
X53383390Y33619048D02*
X53431009Y33523810D01*
X53431009Y33523810D02*
X53431009Y33190477D01*
X53050057Y34142858D02*
X53002438Y34190477D01*
X53002438Y34190477D02*
X52954819Y34285715D01*
X52954819Y34285715D02*
X52954819Y34523810D01*
X52954819Y34523810D02*
X53002438Y34619048D01*
X53002438Y34619048D02*
X53050057Y34666667D01*
X53050057Y34666667D02*
X53145295Y34714286D01*
X53145295Y34714286D02*
X53240533Y34714286D01*
X53240533Y34714286D02*
X53383390Y34666667D01*
X53383390Y34666667D02*
X53954819Y34095239D01*
X53954819Y34095239D02*
X53954819Y34714286D01*
X76609580Y31083334D02*
X76657200Y31035715D01*
X76657200Y31035715D02*
X76704819Y30892858D01*
X76704819Y30892858D02*
X76704819Y30797620D01*
X76704819Y30797620D02*
X76657200Y30654763D01*
X76657200Y30654763D02*
X76561961Y30559525D01*
X76561961Y30559525D02*
X76466723Y30511906D01*
X76466723Y30511906D02*
X76276247Y30464287D01*
X76276247Y30464287D02*
X76133390Y30464287D01*
X76133390Y30464287D02*
X75942914Y30511906D01*
X75942914Y30511906D02*
X75847676Y30559525D01*
X75847676Y30559525D02*
X75752438Y30654763D01*
X75752438Y30654763D02*
X75704819Y30797620D01*
X75704819Y30797620D02*
X75704819Y30892858D01*
X75704819Y30892858D02*
X75752438Y31035715D01*
X75752438Y31035715D02*
X75800057Y31083334D01*
X76133390Y31654763D02*
X76085771Y31559525D01*
X76085771Y31559525D02*
X76038152Y31511906D01*
X76038152Y31511906D02*
X75942914Y31464287D01*
X75942914Y31464287D02*
X75895295Y31464287D01*
X75895295Y31464287D02*
X75800057Y31511906D01*
X75800057Y31511906D02*
X75752438Y31559525D01*
X75752438Y31559525D02*
X75704819Y31654763D01*
X75704819Y31654763D02*
X75704819Y31845239D01*
X75704819Y31845239D02*
X75752438Y31940477D01*
X75752438Y31940477D02*
X75800057Y31988096D01*
X75800057Y31988096D02*
X75895295Y32035715D01*
X75895295Y32035715D02*
X75942914Y32035715D01*
X75942914Y32035715D02*
X76038152Y31988096D01*
X76038152Y31988096D02*
X76085771Y31940477D01*
X76085771Y31940477D02*
X76133390Y31845239D01*
X76133390Y31845239D02*
X76133390Y31654763D01*
X76133390Y31654763D02*
X76181009Y31559525D01*
X76181009Y31559525D02*
X76228628Y31511906D01*
X76228628Y31511906D02*
X76323866Y31464287D01*
X76323866Y31464287D02*
X76514342Y31464287D01*
X76514342Y31464287D02*
X76609580Y31511906D01*
X76609580Y31511906D02*
X76657200Y31559525D01*
X76657200Y31559525D02*
X76704819Y31654763D01*
X76704819Y31654763D02*
X76704819Y31845239D01*
X76704819Y31845239D02*
X76657200Y31940477D01*
X76657200Y31940477D02*
X76609580Y31988096D01*
X76609580Y31988096D02*
X76514342Y32035715D01*
X76514342Y32035715D02*
X76323866Y32035715D01*
X76323866Y32035715D02*
X76228628Y31988096D01*
X76228628Y31988096D02*
X76181009Y31940477D01*
X76181009Y31940477D02*
X76133390Y31845239D01*
X61454819Y41083334D02*
X60978628Y40750001D01*
X61454819Y40511906D02*
X60454819Y40511906D01*
X60454819Y40511906D02*
X60454819Y40892858D01*
X60454819Y40892858D02*
X60502438Y40988096D01*
X60502438Y40988096D02*
X60550057Y41035715D01*
X60550057Y41035715D02*
X60645295Y41083334D01*
X60645295Y41083334D02*
X60788152Y41083334D01*
X60788152Y41083334D02*
X60883390Y41035715D01*
X60883390Y41035715D02*
X60931009Y40988096D01*
X60931009Y40988096D02*
X60978628Y40892858D01*
X60978628Y40892858D02*
X60978628Y40511906D01*
X60454819Y41416668D02*
X60454819Y42035715D01*
X60454819Y42035715D02*
X60835771Y41702382D01*
X60835771Y41702382D02*
X60835771Y41845239D01*
X60835771Y41845239D02*
X60883390Y41940477D01*
X60883390Y41940477D02*
X60931009Y41988096D01*
X60931009Y41988096D02*
X61026247Y42035715D01*
X61026247Y42035715D02*
X61264342Y42035715D01*
X61264342Y42035715D02*
X61359580Y41988096D01*
X61359580Y41988096D02*
X61407200Y41940477D01*
X61407200Y41940477D02*
X61454819Y41845239D01*
X61454819Y41845239D02*
X61454819Y41559525D01*
X61454819Y41559525D02*
X61407200Y41464287D01*
X61407200Y41464287D02*
X61359580Y41416668D01*
D13*
X7561666Y6547781D02*
X7561666Y5833496D01*
X7561666Y5833496D02*
X7514047Y5690639D01*
X7514047Y5690639D02*
X7418809Y5595400D01*
X7418809Y5595400D02*
X7275952Y5547781D01*
X7275952Y5547781D02*
X7180714Y5547781D01*
X8466428Y6547781D02*
X8275952Y6547781D01*
X8275952Y6547781D02*
X8180714Y6500162D01*
X8180714Y6500162D02*
X8133095Y6452543D01*
X8133095Y6452543D02*
X8037857Y6309686D01*
X8037857Y6309686D02*
X7990238Y6119210D01*
X7990238Y6119210D02*
X7990238Y5738258D01*
X7990238Y5738258D02*
X8037857Y5643020D01*
X8037857Y5643020D02*
X8085476Y5595400D01*
X8085476Y5595400D02*
X8180714Y5547781D01*
X8180714Y5547781D02*
X8371190Y5547781D01*
X8371190Y5547781D02*
X8466428Y5595400D01*
X8466428Y5595400D02*
X8514047Y5643020D01*
X8514047Y5643020D02*
X8561666Y5738258D01*
X8561666Y5738258D02*
X8561666Y5976353D01*
X8561666Y5976353D02*
X8514047Y6071591D01*
X8514047Y6071591D02*
X8466428Y6119210D01*
X8466428Y6119210D02*
X8371190Y6166829D01*
X8371190Y6166829D02*
X8180714Y6166829D01*
X8180714Y6166829D02*
X8085476Y6119210D01*
X8085476Y6119210D02*
X8037857Y6071591D01*
X8037857Y6071591D02*
X7990238Y5976353D01*
D11*
X76609580Y45607143D02*
X76657200Y45559524D01*
X76657200Y45559524D02*
X76704819Y45416667D01*
X76704819Y45416667D02*
X76704819Y45321429D01*
X76704819Y45321429D02*
X76657200Y45178572D01*
X76657200Y45178572D02*
X76561961Y45083334D01*
X76561961Y45083334D02*
X76466723Y45035715D01*
X76466723Y45035715D02*
X76276247Y44988096D01*
X76276247Y44988096D02*
X76133390Y44988096D01*
X76133390Y44988096D02*
X75942914Y45035715D01*
X75942914Y45035715D02*
X75847676Y45083334D01*
X75847676Y45083334D02*
X75752438Y45178572D01*
X75752438Y45178572D02*
X75704819Y45321429D01*
X75704819Y45321429D02*
X75704819Y45416667D01*
X75704819Y45416667D02*
X75752438Y45559524D01*
X75752438Y45559524D02*
X75800057Y45607143D01*
X76704819Y46559524D02*
X76704819Y45988096D01*
X76704819Y46273810D02*
X75704819Y46273810D01*
X75704819Y46273810D02*
X75847676Y46178572D01*
X75847676Y46178572D02*
X75942914Y46083334D01*
X75942914Y46083334D02*
X75990533Y45988096D01*
X76704819Y47035715D02*
X76704819Y47226191D01*
X76704819Y47226191D02*
X76657200Y47321429D01*
X76657200Y47321429D02*
X76609580Y47369048D01*
X76609580Y47369048D02*
X76466723Y47464286D01*
X76466723Y47464286D02*
X76276247Y47511905D01*
X76276247Y47511905D02*
X75895295Y47511905D01*
X75895295Y47511905D02*
X75800057Y47464286D01*
X75800057Y47464286D02*
X75752438Y47416667D01*
X75752438Y47416667D02*
X75704819Y47321429D01*
X75704819Y47321429D02*
X75704819Y47130953D01*
X75704819Y47130953D02*
X75752438Y47035715D01*
X75752438Y47035715D02*
X75800057Y46988096D01*
X75800057Y46988096D02*
X75895295Y46940477D01*
X75895295Y46940477D02*
X76133390Y46940477D01*
X76133390Y46940477D02*
X76228628Y46988096D01*
X76228628Y46988096D02*
X76276247Y47035715D01*
X76276247Y47035715D02*
X76323866Y47130953D01*
X76323866Y47130953D02*
X76323866Y47321429D01*
X76323866Y47321429D02*
X76276247Y47416667D01*
X76276247Y47416667D02*
X76228628Y47464286D01*
X76228628Y47464286D02*
X76133390Y47511905D01*
X60109580Y41083334D02*
X60157200Y41035715D01*
X60157200Y41035715D02*
X60204819Y40892858D01*
X60204819Y40892858D02*
X60204819Y40797620D01*
X60204819Y40797620D02*
X60157200Y40654763D01*
X60157200Y40654763D02*
X60061961Y40559525D01*
X60061961Y40559525D02*
X59966723Y40511906D01*
X59966723Y40511906D02*
X59776247Y40464287D01*
X59776247Y40464287D02*
X59633390Y40464287D01*
X59633390Y40464287D02*
X59442914Y40511906D01*
X59442914Y40511906D02*
X59347676Y40559525D01*
X59347676Y40559525D02*
X59252438Y40654763D01*
X59252438Y40654763D02*
X59204819Y40797620D01*
X59204819Y40797620D02*
X59204819Y40892858D01*
X59204819Y40892858D02*
X59252438Y41035715D01*
X59252438Y41035715D02*
X59300057Y41083334D01*
X59300057Y41464287D02*
X59252438Y41511906D01*
X59252438Y41511906D02*
X59204819Y41607144D01*
X59204819Y41607144D02*
X59204819Y41845239D01*
X59204819Y41845239D02*
X59252438Y41940477D01*
X59252438Y41940477D02*
X59300057Y41988096D01*
X59300057Y41988096D02*
X59395295Y42035715D01*
X59395295Y42035715D02*
X59490533Y42035715D01*
X59490533Y42035715D02*
X59633390Y41988096D01*
X59633390Y41988096D02*
X60204819Y41416668D01*
X60204819Y41416668D02*
X60204819Y42035715D01*
X81359580Y31083334D02*
X81407200Y31035715D01*
X81407200Y31035715D02*
X81454819Y30892858D01*
X81454819Y30892858D02*
X81454819Y30797620D01*
X81454819Y30797620D02*
X81407200Y30654763D01*
X81407200Y30654763D02*
X81311961Y30559525D01*
X81311961Y30559525D02*
X81216723Y30511906D01*
X81216723Y30511906D02*
X81026247Y30464287D01*
X81026247Y30464287D02*
X80883390Y30464287D01*
X80883390Y30464287D02*
X80692914Y30511906D01*
X80692914Y30511906D02*
X80597676Y30559525D01*
X80597676Y30559525D02*
X80502438Y30654763D01*
X80502438Y30654763D02*
X80454819Y30797620D01*
X80454819Y30797620D02*
X80454819Y30892858D01*
X80454819Y30892858D02*
X80502438Y31035715D01*
X80502438Y31035715D02*
X80550057Y31083334D01*
X80454819Y31416668D02*
X80454819Y32083334D01*
X80454819Y32083334D02*
X81454819Y31654763D01*
D13*
X43986666Y53797781D02*
X43986666Y53083496D01*
X43986666Y53083496D02*
X43939047Y52940639D01*
X43939047Y52940639D02*
X43843809Y52845400D01*
X43843809Y52845400D02*
X43700952Y52797781D01*
X43700952Y52797781D02*
X43605714Y52797781D01*
X44986666Y52797781D02*
X44415238Y52797781D01*
X44700952Y52797781D02*
X44700952Y53797781D01*
X44700952Y53797781D02*
X44605714Y53654924D01*
X44605714Y53654924D02*
X44510476Y53559686D01*
X44510476Y53559686D02*
X44415238Y53512067D01*
X6931666Y27547781D02*
X6931666Y26833496D01*
X6931666Y26833496D02*
X6884047Y26690639D01*
X6884047Y26690639D02*
X6788809Y26595400D01*
X6788809Y26595400D02*
X6645952Y26547781D01*
X6645952Y26547781D02*
X6550714Y26547781D01*
X7360238Y27452543D02*
X7407857Y27500162D01*
X7407857Y27500162D02*
X7503095Y27547781D01*
X7503095Y27547781D02*
X7741190Y27547781D01*
X7741190Y27547781D02*
X7836428Y27500162D01*
X7836428Y27500162D02*
X7884047Y27452543D01*
X7884047Y27452543D02*
X7931666Y27357305D01*
X7931666Y27357305D02*
X7931666Y27262067D01*
X7931666Y27262067D02*
X7884047Y27119210D01*
X7884047Y27119210D02*
X7312619Y26547781D01*
X7312619Y26547781D02*
X7931666Y26547781D01*
D14*
%TO.C,C5*%
X51400000Y14300000D02*
X55600000Y14300000D01*
X55600000Y16700000D02*
X51400000Y16700000D01*
X51400000Y14300000D02*
G75*
G02*
X51400000Y16700000I1408120J1200000D01*
G01*
X55600000Y16700000D02*
G75*
G02*
X55600000Y14300000I-1474352J-1200000D01*
G01*
D10*
%TO.C,J8*%
X79500000Y17285000D02*
X79500000Y17285000D01*
X79600000Y17285000D02*
X79600000Y17285000D01*
D13*
X80500000Y20450000D02*
X80500000Y23450000D01*
X85000000Y14825000D02*
X85500000Y14850000D01*
X85500000Y27675000D02*
X85000000Y27675000D01*
X85500000Y14850000D02*
X85500000Y27675000D01*
D10*
X79500000Y17285000D02*
G75*
G02*
X79600000Y17285000I50000J0D01*
G01*
X79600000Y17285000D02*
G75*
G02*
X79500000Y17285000I-50000J0D01*
G01*
D14*
%TO.C,U1*%
X18000000Y52500000D02*
X24800000Y52500000D01*
X18000000Y49700000D02*
X18000000Y50100000D01*
X18000000Y47100000D02*
X18000000Y47500000D01*
X18000000Y44600000D02*
X18000000Y45000000D01*
X18000000Y42100000D02*
X18000000Y42500000D01*
X18000000Y39500000D02*
X18000000Y39900000D01*
X18000000Y37000000D02*
X18000000Y37400000D01*
X18000000Y34400000D02*
X18000000Y34800000D01*
X18000000Y31900000D02*
X18000000Y32300000D01*
X18000000Y29300000D02*
X18000000Y29700000D01*
X18000000Y26800000D02*
X18000000Y27200000D01*
X18000000Y24300000D02*
X18000000Y24700000D01*
X18000000Y21700000D02*
X18000000Y22100000D01*
X18000000Y19200000D02*
X18000000Y19600000D01*
X18000000Y16600000D02*
X18000000Y17000000D01*
X18000000Y14100000D02*
X18000000Y14500000D01*
X18000000Y11600000D02*
X18000000Y12000000D01*
X18000000Y9000000D02*
X18000000Y9400000D01*
X18000000Y6500000D02*
X18000000Y6900000D01*
X18000000Y3900000D02*
X18000000Y4300000D01*
X18000000Y1500000D02*
X18000000Y1800000D01*
X27400000Y52500000D02*
X27000000Y52500000D01*
X30000000Y52500000D02*
X29600000Y52500000D01*
X32200000Y52500000D02*
X39000000Y52500000D01*
X35993000Y4167000D02*
X35993000Y1500000D01*
X39000000Y49700000D02*
X39000000Y50100000D01*
X39000000Y47100000D02*
X39000000Y47500000D01*
X39000000Y44600000D02*
X39000000Y45000000D01*
X39000000Y42100000D02*
X39000000Y42500000D01*
X39000000Y39500000D02*
X39000000Y39900000D01*
X39000000Y37000000D02*
X39000000Y37400000D01*
X39000000Y34400000D02*
X39000000Y34800000D01*
X39000000Y31900000D02*
X39000000Y32300000D01*
X39000000Y29300000D02*
X39000000Y29700000D01*
X39000000Y26800000D02*
X39000000Y27200000D01*
X39000000Y24300000D02*
X39000000Y24700000D01*
X39000000Y21700000D02*
X39000000Y22100000D01*
X39000000Y19200000D02*
X39000000Y19600000D01*
X39000000Y16600000D02*
X39000000Y17000000D01*
X39000000Y14100000D02*
X39000000Y14500000D01*
X39000000Y11600000D02*
X39000000Y12000000D01*
X39000000Y9000000D02*
X39000000Y9400000D01*
X39000000Y6500000D02*
X39000000Y6900000D01*
X39000000Y4167000D02*
X35993000Y4167000D01*
X39000000Y3900000D02*
X39000000Y4300000D01*
X39000000Y1500000D02*
X18000000Y1500000D01*
X39000000Y1500000D02*
X39000000Y1800000D01*
%TO.C,C13*%
X53875000Y2925000D02*
X58075000Y2925000D01*
X58075000Y5325000D02*
X53875000Y5325000D01*
X53875000Y2925000D02*
G75*
G02*
X53875000Y5325000I1408120J1200000D01*
G01*
X58075000Y5325000D02*
G75*
G02*
X58075000Y2925000I-1474352J-1200000D01*
G01*
%TO.C,J4*%
X8895000Y48500000D02*
X8895000Y49830000D01*
X10225000Y48500000D02*
X8895000Y48500000D01*
X11495000Y51160000D02*
X14095000Y51160000D01*
X11495000Y48500000D02*
X11495000Y51160000D01*
X11495000Y48500000D02*
X14095000Y48500000D01*
X14095000Y48500000D02*
X14095000Y51160000D01*
%TO.C,Y1*%
X55400000Y9160000D02*
X61400000Y9160000D01*
X55400000Y5440000D02*
X61400000Y5440000D01*
%TO.C,R1*%
X65550000Y48300000D02*
X65550000Y43700000D01*
X65550000Y43700000D02*
X67950000Y43700000D01*
X67950000Y48300000D02*
X65550000Y48300000D01*
X67950000Y43700000D02*
X67950000Y48300000D01*
%TO.C,J3*%
X160000Y23250000D02*
X160000Y7890000D01*
X160000Y23250000D02*
X8790000Y23250000D01*
X160000Y23130000D02*
X8790000Y23130000D01*
X160000Y23011905D02*
X8790000Y23011905D01*
X160000Y22893810D02*
X8790000Y22893810D01*
X160000Y22775715D02*
X8790000Y22775715D01*
X160000Y22657620D02*
X8790000Y22657620D01*
X160000Y22539525D02*
X8790000Y22539525D01*
X160000Y22421430D02*
X8790000Y22421430D01*
X160000Y22303335D02*
X8790000Y22303335D01*
X160000Y22185240D02*
X8790000Y22185240D01*
X160000Y22067145D02*
X8790000Y22067145D01*
X160000Y21949050D02*
X8790000Y21949050D01*
X160000Y21830955D02*
X8790000Y21830955D01*
X160000Y21712860D02*
X8790000Y21712860D01*
X160000Y21594765D02*
X8790000Y21594765D01*
X160000Y21476670D02*
X8790000Y21476670D01*
X160000Y21358575D02*
X8790000Y21358575D01*
X160000Y21240480D02*
X8790000Y21240480D01*
X160000Y21122385D02*
X8790000Y21122385D01*
X160000Y21004290D02*
X8790000Y21004290D01*
X160000Y20886195D02*
X8790000Y20886195D01*
X160000Y20768100D02*
X8790000Y20768100D01*
X160000Y20650000D02*
X8790000Y20650000D01*
X160000Y18110000D02*
X8790000Y18110000D01*
X160000Y15570000D02*
X8790000Y15570000D01*
X160000Y13030000D02*
X8790000Y13030000D01*
X160000Y10490000D02*
X8790000Y10490000D01*
X160000Y7890000D02*
X8790000Y7890000D01*
X8790000Y23250000D02*
X8790000Y7890000D01*
X8790000Y22280000D02*
X9200000Y22280000D01*
X8790000Y21560000D02*
X9200000Y21560000D01*
X8790000Y19740000D02*
X9200000Y19740000D01*
X8790000Y19020000D02*
X9200000Y19020000D01*
X8790000Y17200000D02*
X9200000Y17200000D01*
X8790000Y16480000D02*
X9200000Y16480000D01*
X8790000Y14660000D02*
X9200000Y14660000D01*
X8790000Y13940000D02*
X9200000Y13940000D01*
X8790000Y12120000D02*
X9200000Y12120000D01*
X8790000Y11400000D02*
X9200000Y11400000D01*
X8790000Y9580000D02*
X9200000Y9580000D01*
X8790000Y8860000D02*
X9200000Y8860000D01*
X11300000Y22280000D02*
X11680000Y22280000D01*
X11300000Y21560000D02*
X11680000Y21560000D01*
X11300000Y19740000D02*
X11740000Y19740000D01*
X11300000Y19020000D02*
X11740000Y19020000D01*
X11300000Y17200000D02*
X11740000Y17200000D01*
X11300000Y16480000D02*
X11740000Y16480000D01*
X11300000Y14660000D02*
X11740000Y14660000D01*
X11300000Y13940000D02*
X11740000Y13940000D01*
X11300000Y12120000D02*
X11740000Y12120000D01*
X11300000Y11400000D02*
X11740000Y11400000D01*
X11300000Y9580000D02*
X11740000Y9580000D01*
X11300000Y8860000D02*
X11740000Y8860000D01*
X12790000Y23250000D02*
X13900000Y23250000D01*
X13900000Y23250000D02*
X13900000Y21920000D01*
%TO.C,R4*%
X65550000Y43550000D02*
X65550000Y38950000D01*
X65550000Y38950000D02*
X67950000Y38950000D01*
X67950000Y43550000D02*
X65550000Y43550000D01*
X67950000Y38950000D02*
X67950000Y43550000D01*
%TO.C,C9*%
X58050000Y30350000D02*
X58050000Y26150000D01*
X60450000Y26150000D02*
X60450000Y30350000D01*
X58050000Y30350000D02*
G75*
G02*
X60450000Y30350000I1200000J-1408120D01*
G01*
X60450000Y26150000D02*
G75*
G02*
X58050000Y26150000I-1200000J1474352D01*
G01*
%TO.C,C12*%
X59550000Y38100000D02*
X59550000Y33900000D01*
X61950000Y33900000D02*
X61950000Y38100000D01*
X59550000Y38100000D02*
G75*
G02*
X61950000Y38100000I1200000J-1408120D01*
G01*
X61950000Y33900000D02*
G75*
G02*
X59550000Y33900000I-1200000J1474352D01*
G01*
D13*
%TO.C,J7*%
X59490000Y54025000D02*
X59490000Y55675000D01*
X61156000Y62629000D02*
X61585000Y62840000D01*
X61156000Y62491000D02*
X61156000Y62629000D01*
X61156000Y62069010D02*
X61535000Y62280010D01*
X61156000Y61931000D02*
X61156000Y62069010D01*
X61156000Y61509000D02*
X61535000Y61720000D01*
X61156000Y61371000D02*
X61156000Y61509000D01*
X61156000Y60949000D02*
X61535000Y61160000D01*
X61156000Y60811000D02*
X61156000Y60949000D01*
X61156000Y60389000D02*
X61535000Y60600000D01*
X61156000Y60251000D02*
X61156000Y60389000D01*
X61156000Y59829000D02*
X61535000Y60040000D01*
X61156000Y59691000D02*
X61156000Y59829000D01*
X61156000Y59269000D02*
X61535000Y59480000D01*
X61156000Y59131000D02*
X61156000Y59269000D01*
X61535000Y62280010D02*
X61156000Y62491000D01*
X61535000Y61720000D02*
X61156000Y61931000D01*
X61535000Y61160000D02*
X61156000Y61371000D01*
X61535000Y60600000D02*
X61156000Y60811000D01*
X61535000Y60040000D02*
X61156000Y60251000D01*
X61535000Y59480000D02*
X61156000Y59691000D01*
X61535000Y58920000D02*
X61156000Y59131000D01*
X61585000Y62840000D02*
X61585000Y63555000D01*
X61796730Y58545000D02*
X61585000Y58920000D01*
X61796730Y55675000D02*
X61796730Y58545000D01*
X63112700Y54025000D02*
X59490000Y54025000D01*
X66697390Y58545000D02*
X61796720Y58545000D01*
X66697390Y58545000D02*
X66915000Y58920000D01*
X66697390Y55675000D02*
X66697390Y58545000D01*
X66915000Y63555000D02*
X61585000Y63555000D01*
X66915000Y62840000D02*
X66915000Y63555000D01*
X66915000Y58920000D02*
X61156000Y59131000D01*
X66962690Y58920000D02*
X61156000Y59269000D01*
X66962690Y58920000D02*
X61535000Y59480000D01*
X66962690Y58920000D02*
X61535000Y58920000D01*
X66962690Y58920000D02*
X67344000Y59131000D01*
X66965000Y62840000D02*
X61585000Y62840000D01*
X66965000Y62280010D02*
X61585000Y62840000D01*
X66965000Y62280010D02*
X67344000Y62491000D01*
X66965000Y61720000D02*
X61535000Y62280010D01*
X66965000Y61720000D02*
X67344000Y61931000D01*
X66965000Y61160000D02*
X61535000Y61720000D01*
X66965000Y61160000D02*
X67344000Y61371000D01*
X66965000Y60600000D02*
X61535000Y61160000D01*
X66965000Y60600000D02*
X67344000Y60811000D01*
X66965000Y60040000D02*
X61535000Y60600000D01*
X66965000Y60040000D02*
X67344000Y60251000D01*
X66965000Y59480000D02*
X61535000Y60040000D01*
X66965000Y59480000D02*
X67344000Y59691000D01*
X67344000Y62629000D02*
X61585000Y62840000D01*
X67344000Y62629000D02*
X66965000Y62840000D01*
X67344000Y62491000D02*
X61585000Y62840000D01*
X67344000Y62491000D02*
X67344000Y62629000D01*
X67344000Y62069010D02*
X61156000Y62629000D01*
X67344000Y62069010D02*
X66965000Y62280010D01*
X67344000Y61931000D02*
X61156000Y62491000D01*
X67344000Y61931000D02*
X67344000Y62069010D01*
X67344000Y61509000D02*
X61156000Y62069010D01*
X67344000Y61509000D02*
X66965000Y61720000D01*
X67344000Y61371000D02*
X61156000Y61931000D01*
X67344000Y61371000D02*
X67344000Y61509000D01*
X67344000Y60949000D02*
X61156000Y61509000D01*
X67344000Y60949000D02*
X66965000Y61160000D01*
X67344000Y60811000D02*
X61156000Y61371000D01*
X67344000Y60811000D02*
X67344000Y60949000D01*
X67344000Y60389000D02*
X61156000Y60949000D01*
X67344000Y60389000D02*
X66965000Y60600000D01*
X67344000Y60251000D02*
X61156000Y60811000D01*
X67344000Y60251000D02*
X67344000Y60389000D01*
X67344000Y59829000D02*
X61156000Y60389000D01*
X67344000Y59829000D02*
X66965000Y60040000D01*
X67344000Y59691000D02*
X61156000Y60251000D01*
X67344000Y59691000D02*
X67344000Y59829000D01*
X67344000Y59269000D02*
X61156000Y59829000D01*
X67344000Y59269000D02*
X66965000Y59480000D01*
X67344000Y59131000D02*
X61156000Y59691000D01*
X67344000Y59131000D02*
X67344000Y59269000D01*
X69010000Y55675000D02*
X59490000Y55675000D01*
X69010000Y54025000D02*
X65387300Y54025000D01*
X69010000Y54025000D02*
X69010000Y55675000D01*
D14*
%TO.C,R7*%
X69550000Y30550000D02*
X69550000Y25950000D01*
X69550000Y25950000D02*
X71950000Y25950000D01*
X71950000Y30550000D02*
X69550000Y30550000D01*
X71950000Y25950000D02*
X71950000Y30550000D01*
%TO.C,FB1*%
X79250000Y12050000D02*
X79250000Y9450000D01*
X79250000Y9450000D02*
X84250000Y9450000D01*
X84250000Y12050000D02*
X79250000Y12050000D01*
X84250000Y9450000D02*
X84250000Y12050000D01*
%TO.C,C10*%
X65550000Y38600000D02*
X65550000Y34400000D01*
X67950000Y34400000D02*
X67950000Y38600000D01*
X65550000Y38600000D02*
G75*
G02*
X67950000Y38600000I1200000J-1408120D01*
G01*
X67950000Y34400000D02*
G75*
G02*
X65550000Y34400000I-1200000J1474352D01*
G01*
%TO.C,C15*%
X58875000Y2925000D02*
X63075000Y2925000D01*
X63075000Y5325000D02*
X58875000Y5325000D01*
X58875000Y2925000D02*
G75*
G02*
X58875000Y5325000I1474352J1200000D01*
G01*
X63075000Y5325000D02*
G75*
G02*
X63075000Y2925000I-1408120J-1200000D01*
G01*
%TO.C,C11*%
X55550000Y30350000D02*
X55550000Y26150000D01*
X57950000Y26150000D02*
X57950000Y30350000D01*
X55550000Y30350000D02*
G75*
G02*
X57950000Y30350000I1200000J-1408120D01*
G01*
X57950000Y26150000D02*
G75*
G02*
X55550000Y26150000I-1200000J1474352D01*
G01*
%TO.C,C16*%
X70400000Y5550000D02*
X74600000Y5550000D01*
X74600000Y7950000D02*
X70400000Y7950000D01*
X70400000Y5550000D02*
G75*
G02*
X70400000Y7950000I1408120J1200000D01*
G01*
X74600000Y7950000D02*
G75*
G02*
X74600000Y5550000I-1474352J-1200000D01*
G01*
%TO.C,C18*%
X70400000Y8050000D02*
X74600000Y8050000D01*
X74600000Y10450000D02*
X70400000Y10450000D01*
X70400000Y8050000D02*
G75*
G02*
X70400000Y10450000I1408120J1200000D01*
G01*
X74600000Y10450000D02*
G75*
G02*
X74600000Y8050000I-1474352J-1200000D01*
G01*
%TO.C,C17*%
X62050000Y38100000D02*
X62050000Y33900000D01*
X64450000Y33900000D02*
X64450000Y38100000D01*
X62050000Y38100000D02*
G75*
G02*
X64450000Y38100000I1200000J-1408120D01*
G01*
X64450000Y33900000D02*
G75*
G02*
X62050000Y33900000I-1200000J1474352D01*
G01*
%TO.C,U4*%
X60715000Y28250000D02*
X60715000Y30450000D01*
X60715000Y28250000D02*
X60715000Y26050000D01*
X68785000Y28250000D02*
X68785000Y30450000D01*
X68785000Y28250000D02*
X68785000Y26050000D01*
X68325000Y32110000D02*
X68085000Y32440000D01*
X68565000Y32440000D01*
X68325000Y32110000D01*
G36*
X68325000Y32110000D02*
G01*
X68085000Y32440000D01*
X68565000Y32440000D01*
X68325000Y32110000D01*
G37*
%TO.C,FB3*%
X81950000Y38250000D02*
X81950000Y33250000D01*
X81950000Y33250000D02*
X84550000Y33250000D01*
X84550000Y38250000D02*
X81950000Y38250000D01*
X84550000Y33250000D02*
X84550000Y38250000D01*
%TO.C,C20*%
X79800000Y43100000D02*
X79800000Y38900000D01*
X82200000Y38900000D02*
X82200000Y43100000D01*
X79800000Y43100000D02*
G75*
G02*
X82200000Y43100000I1200000J-1408120D01*
G01*
X82200000Y38900000D02*
G75*
G02*
X79800000Y38900000I-1200000J1474352D01*
G01*
%TO.C,R8*%
X77300000Y43300000D02*
X77300000Y38700000D01*
X77300000Y38700000D02*
X79700000Y38700000D01*
X79700000Y43300000D02*
X77300000Y43300000D01*
X79700000Y38700000D02*
X79700000Y43300000D01*
%TO.C,C6*%
X77300000Y37850000D02*
X77300000Y33650000D01*
X79700000Y33650000D02*
X79700000Y37850000D01*
X77300000Y37850000D02*
G75*
G02*
X79700000Y37850000I1200000J-1474352D01*
G01*
X79700000Y33650000D02*
G75*
G02*
X77300000Y33650000I-1200000J1408120D01*
G01*
%TO.C,C14*%
X50300000Y30350000D02*
X50300000Y26150000D01*
X52700000Y26150000D02*
X52700000Y30350000D01*
X50300000Y30350000D02*
G75*
G02*
X52700000Y30350000I1200000J-1408120D01*
G01*
X52700000Y26150000D02*
G75*
G02*
X50300000Y26150000I-1200000J1474352D01*
G01*
%TO.C,R9*%
X82050000Y43300000D02*
X82050000Y38700000D01*
X82050000Y38700000D02*
X84450000Y38700000D01*
X84450000Y43300000D02*
X82050000Y43300000D01*
X84450000Y38700000D02*
X84450000Y43300000D01*
%TO.C,R6*%
X51200000Y14200000D02*
X51200000Y11800000D01*
X51200000Y11800000D02*
X55800000Y11800000D01*
X55800000Y14200000D02*
X51200000Y14200000D01*
X55800000Y11800000D02*
X55800000Y14200000D01*
%TO.C,R2*%
X63050000Y43550000D02*
X63050000Y38950000D01*
X63050000Y38950000D02*
X65450000Y38950000D01*
X65450000Y43550000D02*
X63050000Y43550000D01*
X65450000Y38950000D02*
X65450000Y43550000D01*
%TO.C,C1*%
X63050000Y48100000D02*
X63050000Y43900000D01*
X65450000Y43900000D02*
X65450000Y48100000D01*
X63050000Y48100000D02*
G75*
G02*
X65450000Y48100000I1200000J-1474352D01*
G01*
X65450000Y43900000D02*
G75*
G02*
X63050000Y43900000I-1200000J1408120D01*
G01*
%TO.C,C21*%
X79400000Y7050000D02*
X83600000Y7050000D01*
X83600000Y9450000D02*
X79400000Y9450000D01*
X79400000Y7050000D02*
G75*
G02*
X79400000Y9450000I1474352J1200000D01*
G01*
X83600000Y9450000D02*
G75*
G02*
X83600000Y7050000I-1408120J-1200000D01*
G01*
%TO.C,J5*%
X160000Y46110000D02*
X160000Y30750000D01*
X160000Y46110000D02*
X8790000Y46110000D01*
X160000Y45990000D02*
X8790000Y45990000D01*
X160000Y45871905D02*
X8790000Y45871905D01*
X160000Y45753810D02*
X8790000Y45753810D01*
X160000Y45635715D02*
X8790000Y45635715D01*
X160000Y45517620D02*
X8790000Y45517620D01*
X160000Y45399525D02*
X8790000Y45399525D01*
X160000Y45281430D02*
X8790000Y45281430D01*
X160000Y45163335D02*
X8790000Y45163335D01*
X160000Y45045240D02*
X8790000Y45045240D01*
X160000Y44927145D02*
X8790000Y44927145D01*
X160000Y44809050D02*
X8790000Y44809050D01*
X160000Y44690955D02*
X8790000Y44690955D01*
X160000Y44572860D02*
X8790000Y44572860D01*
X160000Y44454765D02*
X8790000Y44454765D01*
X160000Y44336670D02*
X8790000Y44336670D01*
X160000Y44218575D02*
X8790000Y44218575D01*
X160000Y44100480D02*
X8790000Y44100480D01*
X160000Y43982385D02*
X8790000Y43982385D01*
X160000Y43864290D02*
X8790000Y43864290D01*
X160000Y43746195D02*
X8790000Y43746195D01*
X160000Y43628100D02*
X8790000Y43628100D01*
X160000Y43510000D02*
X8790000Y43510000D01*
X160000Y40970000D02*
X8790000Y40970000D01*
X160000Y38430000D02*
X8790000Y38430000D01*
X160000Y35890000D02*
X8790000Y35890000D01*
X160000Y33350000D02*
X8790000Y33350000D01*
X160000Y30750000D02*
X8790000Y30750000D01*
X8790000Y46110000D02*
X8790000Y30750000D01*
X8790000Y45140000D02*
X9200000Y45140000D01*
X8790000Y44420000D02*
X9200000Y44420000D01*
X8790000Y42600000D02*
X9200000Y42600000D01*
X8790000Y41880000D02*
X9200000Y41880000D01*
X8790000Y40060000D02*
X9200000Y40060000D01*
X8790000Y39340000D02*
X9200000Y39340000D01*
X8790000Y37520000D02*
X9200000Y37520000D01*
X8790000Y36800000D02*
X9200000Y36800000D01*
X8790000Y34980000D02*
X9200000Y34980000D01*
X8790000Y34260000D02*
X9200000Y34260000D01*
X8790000Y32440000D02*
X9200000Y32440000D01*
X8790000Y31720000D02*
X9200000Y31720000D01*
X11300000Y45140000D02*
X11680000Y45140000D01*
X11300000Y44420000D02*
X11680000Y44420000D01*
X11300000Y42600000D02*
X11740000Y42600000D01*
X11300000Y41880000D02*
X11740000Y41880000D01*
X11300000Y40060000D02*
X11740000Y40060000D01*
X11300000Y39340000D02*
X11740000Y39340000D01*
X11300000Y37520000D02*
X11740000Y37520000D01*
X11300000Y36800000D02*
X11740000Y36800000D01*
X11300000Y34980000D02*
X11740000Y34980000D01*
X11300000Y34260000D02*
X11740000Y34260000D01*
X11300000Y32440000D02*
X11740000Y32440000D01*
X11300000Y31720000D02*
X11740000Y31720000D01*
X12790000Y46110000D02*
X13900000Y46110000D01*
X13900000Y46110000D02*
X13900000Y44780000D01*
%TO.C,FB2*%
X52950000Y30750000D02*
X52950000Y25750000D01*
X52950000Y25750000D02*
X55550000Y25750000D01*
X55550000Y30750000D02*
X52950000Y30750000D01*
X55550000Y25750000D02*
X55550000Y30750000D01*
%TO.C,C8*%
X75050000Y37850000D02*
X75050000Y33650000D01*
X77450000Y33650000D02*
X77450000Y37850000D01*
X75050000Y37850000D02*
G75*
G02*
X77450000Y37850000I1200000J-1474352D01*
G01*
X77450000Y33650000D02*
G75*
G02*
X75050000Y33650000I-1200000J1408120D01*
G01*
%TO.C,R3*%
X70550000Y43550000D02*
X70550000Y38950000D01*
X70550000Y38950000D02*
X72950000Y38950000D01*
X72950000Y43550000D02*
X70550000Y43550000D01*
X72950000Y38950000D02*
X72950000Y43550000D01*
%TO.C,J6*%
X8895000Y2840000D02*
X8895000Y4170000D01*
X10225000Y2840000D02*
X8895000Y2840000D01*
X11495000Y5500000D02*
X14095000Y5500000D01*
X11495000Y2840000D02*
X11495000Y5500000D01*
X11495000Y2840000D02*
X14095000Y2840000D01*
X14095000Y2840000D02*
X14095000Y5500000D01*
%TO.C,C19*%
X75050000Y43100000D02*
X75050000Y38900000D01*
X77450000Y38900000D02*
X77450000Y43100000D01*
X75050000Y43100000D02*
G75*
G02*
X77450000Y43100000I1200000J-1408120D01*
G01*
X77450000Y38900000D02*
G75*
G02*
X75050000Y38900000I-1200000J1474352D01*
G01*
%TO.C,C2*%
X68050000Y43350000D02*
X68050000Y39150000D01*
X70450000Y39150000D02*
X70450000Y43350000D01*
X68050000Y43350000D02*
G75*
G02*
X70450000Y43350000I1200000J-1408120D01*
G01*
X70450000Y39150000D02*
G75*
G02*
X68050000Y39150000I-1200000J1474352D01*
G01*
%TO.C,C7*%
X79800000Y37850000D02*
X79800000Y33650000D01*
X82200000Y33650000D02*
X82200000Y37850000D01*
X79800000Y37850000D02*
G75*
G02*
X82200000Y37850000I1200000J-1474352D01*
G01*
X82200000Y33650000D02*
G75*
G02*
X79800000Y33650000I-1200000J1408120D01*
G01*
%TO.C,J1*%
X45370000Y49920000D02*
X45370000Y51250000D01*
X46700000Y49920000D02*
X45370000Y49920000D01*
X47970000Y52580000D02*
X55650000Y52580000D01*
X47970000Y49920000D02*
X47970000Y52580000D01*
X47970000Y49920000D02*
X55650000Y49920000D01*
X55650000Y49920000D02*
X55650000Y52580000D01*
%TO.C,J2*%
X8895000Y25670000D02*
X8895000Y27000000D01*
X10225000Y25670000D02*
X8895000Y25670000D01*
X11495000Y28330000D02*
X14095000Y28330000D01*
X11495000Y25670000D02*
X11495000Y28330000D01*
X11495000Y25670000D02*
X14095000Y25670000D01*
X14095000Y25670000D02*
X14095000Y28330000D01*
%TD*%
M02*
