%TF.GenerationSoftware,KiCad,Pcbnew,8.0.3-8.0.3-0~ubuntu22.04.1*%
%TF.CreationDate,2025-01-19T16:45:59+01:00*%
%TF.ProjectId,FT600_RP2040,46543630-305f-4525-9032-3034302e6b69,rev?*%
%TF.SameCoordinates,PX7735940PY61c06a0*%
%TF.FileFunction,Copper,L1,Top*%
%TF.FilePolarity,Positive*%
%FSLAX46Y46*%
G04 Gerber Fmt 4.6, Leading zero omitted, Abs format (unit mm)*
G04 Created by KiCad (PCBNEW 8.0.3-8.0.3-0~ubuntu22.04.1) date 2025-01-19 16:45:59*
%MOMM*%
%LPD*%
G01*
G04 APERTURE LIST*
G04 Aperture macros list*
%AMRoundRect*
0 Rectangle with rounded corners*
0 $1 Rounding radius*
0 $2 $3 $4 $5 $6 $7 $8 $9 X,Y pos of 4 corners*
0 Add a 4 corners polygon primitive as box body*
4,1,4,$2,$3,$4,$5,$6,$7,$8,$9,$2,$3,0*
0 Add four circle primitives for the rounded corners*
1,1,$1+$1,$2,$3*
1,1,$1+$1,$4,$5*
1,1,$1+$1,$6,$7*
1,1,$1+$1,$8,$9*
0 Add four rect primitives between the rounded corners*
20,1,$1+$1,$2,$3,$4,$5,0*
20,1,$1+$1,$4,$5,$6,$7,0*
20,1,$1+$1,$6,$7,$8,$9,0*
20,1,$1+$1,$8,$9,$2,$3,0*%
G04 Aperture macros list end*
%TA.AperFunction,SMDPad,CuDef*%
%ADD10RoundRect,0.250000X0.325000X0.650000X-0.325000X0.650000X-0.325000X-0.650000X0.325000X-0.650000X0*%
%TD*%
%TA.AperFunction,SMDPad,CuDef*%
%ADD11R,1.350000X0.400000*%
%TD*%
%TA.AperFunction,ComponentPad*%
%ADD12C,2.580000*%
%TD*%
%TA.AperFunction,SMDPad,CuDef*%
%ADD13R,1.900000X1.900000*%
%TD*%
%TA.AperFunction,SMDPad,CuDef*%
%ADD14R,1.900000X1.800000*%
%TD*%
%TA.AperFunction,SMDPad,CuDef*%
%ADD15R,1.600000X1.000000*%
%TD*%
%TA.AperFunction,SMDPad,CuDef*%
%ADD16R,1.600000X2.100000*%
%TD*%
%TA.AperFunction,SMDPad,CuDef*%
%ADD17RoundRect,0.243750X-0.243750X-0.456250X0.243750X-0.456250X0.243750X0.456250X-0.243750X0.456250X0*%
%TD*%
%TA.AperFunction,ComponentPad*%
%ADD18C,0.800000*%
%TD*%
%TA.AperFunction,ComponentPad*%
%ADD19C,6.400000*%
%TD*%
%TA.AperFunction,SMDPad,CuDef*%
%ADD20RoundRect,0.250000X-0.312500X-0.625000X0.312500X-0.625000X0.312500X0.625000X-0.312500X0.625000X0*%
%TD*%
%TA.AperFunction,SMDPad,CuDef*%
%ADD21RoundRect,0.425000X1.325000X0.425000X-1.325000X0.425000X-1.325000X-0.425000X1.325000X-0.425000X0*%
%TD*%
%TA.AperFunction,SMDPad,CuDef*%
%ADD22RoundRect,0.425000X-0.425000X1.325000X-0.425000X-1.325000X0.425000X-1.325000X0.425000X1.325000X0*%
%TD*%
%TA.AperFunction,SMDPad,CuDef*%
%ADD23RoundRect,0.250000X0.312500X0.625000X-0.312500X0.625000X-0.312500X-0.625000X0.312500X-0.625000X0*%
%TD*%
%TA.AperFunction,ComponentPad*%
%ADD24R,1.700000X1.700000*%
%TD*%
%TA.AperFunction,ComponentPad*%
%ADD25O,1.700000X1.700000*%
%TD*%
%TA.AperFunction,SMDPad,CuDef*%
%ADD26R,1.900000X2.600000*%
%TD*%
%TA.AperFunction,SMDPad,CuDef*%
%ADD27RoundRect,0.250000X0.625000X-0.312500X0.625000X0.312500X-0.625000X0.312500X-0.625000X-0.312500X0*%
%TD*%
%TA.AperFunction,SMDPad,CuDef*%
%ADD28RoundRect,0.250000X0.650000X-0.325000X0.650000X0.325000X-0.650000X0.325000X-0.650000X-0.325000X0*%
%TD*%
%TA.AperFunction,SMDPad,CuDef*%
%ADD29R,0.700000X4.000000*%
%TD*%
%TA.AperFunction,SMDPad,CuDef*%
%ADD30R,3.200000X4.900000*%
%TD*%
%TA.AperFunction,ComponentPad*%
%ADD31C,1.000000*%
%TD*%
%TA.AperFunction,SMDPad,CuDef*%
%ADD32RoundRect,0.093750X-0.156250X-0.031250X0.156250X-0.031250X0.156250X0.031250X-0.156250X0.031250X0*%
%TD*%
%TA.AperFunction,SMDPad,CuDef*%
%ADD33RoundRect,0.093750X0.031250X-0.156250X0.031250X0.156250X-0.031250X0.156250X-0.031250X-0.156250X0*%
%TD*%
%TA.AperFunction,SMDPad,CuDef*%
%ADD34RoundRect,0.093750X0.156250X0.031250X-0.156250X0.031250X-0.156250X-0.031250X0.156250X-0.031250X0*%
%TD*%
%TA.AperFunction,SMDPad,CuDef*%
%ADD35RoundRect,0.093750X-0.031250X0.156250X-0.031250X-0.156250X0.031250X-0.156250X0.031250X0.156250X0*%
%TD*%
%TA.AperFunction,SMDPad,CuDef*%
%ADD36RoundRect,0.195000X-1.755000X-2.155000X1.755000X-2.155000X1.755000X2.155000X-1.755000X2.155000X0*%
%TD*%
%TA.AperFunction,SMDPad,CuDef*%
%ADD37RoundRect,0.250000X-0.275000X-0.700000X0.275000X-0.700000X0.275000X0.700000X-0.275000X0.700000X0*%
%TD*%
%TA.AperFunction,SMDPad,CuDef*%
%ADD38RoundRect,0.250000X-0.325000X-0.650000X0.325000X-0.650000X0.325000X0.650000X-0.325000X0.650000X0*%
%TD*%
%TA.AperFunction,SMDPad,CuDef*%
%ADD39RoundRect,0.100000X-0.100000X0.637500X-0.100000X-0.637500X0.100000X-0.637500X0.100000X0.637500X0*%
%TD*%
%TA.AperFunction,SMDPad,CuDef*%
%ADD40RoundRect,0.250000X0.700000X-0.275000X0.700000X0.275000X-0.700000X0.275000X-0.700000X-0.275000X0*%
%TD*%
%TA.AperFunction,SMDPad,CuDef*%
%ADD41RoundRect,0.250000X-0.625000X0.312500X-0.625000X-0.312500X0.625000X-0.312500X0.625000X0.312500X0*%
%TD*%
%TA.AperFunction,SMDPad,CuDef*%
%ADD42RoundRect,0.250000X-0.650000X0.325000X-0.650000X-0.325000X0.650000X-0.325000X0.650000X0.325000X0*%
%TD*%
%TA.AperFunction,SMDPad,CuDef*%
%ADD43RoundRect,0.250000X-0.700000X0.275000X-0.700000X-0.275000X0.700000X-0.275000X0.700000X0.275000X0*%
%TD*%
%TA.AperFunction,ViaPad*%
%ADD44C,0.600000*%
%TD*%
%TA.AperFunction,Conductor*%
%ADD45C,0.200000*%
%TD*%
%TA.AperFunction,Conductor*%
%ADD46C,0.500000*%
%TD*%
%TA.AperFunction,Conductor*%
%ADD47C,0.250000*%
%TD*%
%TA.AperFunction,Conductor*%
%ADD48C,0.400000*%
%TD*%
%TA.AperFunction,Conductor*%
%ADD49C,1.000000*%
%TD*%
%TA.AperFunction,Conductor*%
%ADD50C,0.300000*%
%TD*%
G04 APERTURE END LIST*
D10*
%TO.P,C5,1*%
%TO.N,~{RESET_N}*%
X51975000Y17000000D03*
%TO.P,C5,2*%
%TO.N,GNDD*%
X49025000Y17000000D03*
%TD*%
D11*
%TO.P,J8,1,1*%
%TO.N,Net-(C21-Pad2)*%
X80675000Y17285000D03*
%TO.P,J8,2,2*%
%TO.N,D-*%
X80675000Y17935000D03*
%TO.P,J8,3,3*%
%TO.N,D+*%
X80675000Y18585000D03*
%TO.P,J8,4,4*%
%TO.N,unconnected-(J8-Pad4)*%
X80675000Y19235000D03*
%TO.P,J8,5,5*%
%TO.N,GNDD*%
X80675000Y19885000D03*
%TO.P,J8,6,6*%
%TO.N,SSTX-*%
X80675000Y23985000D03*
%TO.P,J8,7,7*%
%TO.N,SSTX+*%
X80675000Y24635000D03*
%TO.P,J8,8,8*%
%TO.N,GNDD*%
X80675000Y25285000D03*
%TO.P,J8,9,9*%
%TO.N,SSRX-*%
X80675000Y25935000D03*
%TO.P,J8,10,10*%
%TO.N,SSRX+*%
X80675000Y26585000D03*
D12*
%TO.P,J8,MH1,MH1*%
%TO.N,GNDD*%
X83350000Y14950000D03*
%TO.P,J8,MH2,MH2*%
X83350000Y27550000D03*
D13*
%TO.P,J8,MP1,MP1*%
X83350000Y17385000D03*
%TO.P,J8,MP2,MP2*%
X83350000Y19785000D03*
D14*
%TO.P,J8,MP3,MP3*%
X83350000Y22585000D03*
%TO.P,J8,MP4,MP4*%
X83350000Y25085000D03*
D15*
%TO.P,J8,MP5,MP5*%
X80800000Y27835000D03*
D16*
%TO.P,J8,MP6,MP6*%
X80800000Y15485000D03*
%TD*%
D17*
%TO.P,D1,1,K*%
%TO.N,GNDD*%
X70812500Y4000000D03*
%TO.P,D1,2,A*%
%TO.N,Net-(D1-A)*%
X72687500Y4000000D03*
%TD*%
D18*
%TO.P,REF\u002A\u002A,1*%
%TO.N,N/C*%
X1100000Y3500000D03*
X1802944Y5197056D03*
X1802944Y1802944D03*
X3500000Y5900000D03*
D19*
X3500000Y3500000D03*
D18*
X3500000Y1100000D03*
X5197056Y5197056D03*
X5197056Y1802944D03*
X5900000Y3500000D03*
%TD*%
D20*
%TO.P,R12,1*%
%TO.N,Net-(D1-A)*%
X74537500Y4000000D03*
%TO.P,R12,2*%
%TO.N,+5V*%
X77462500Y4000000D03*
%TD*%
D21*
%TO.P,U1,1,GPIO0*%
%TO.N,DATA_0*%
X38290000Y2870000D03*
%TO.P,U1,2,GPIO1*%
%TO.N,DATA_1*%
X38290000Y5410000D03*
%TO.P,U1,3,GND*%
%TO.N,GNDD*%
X38290000Y7950000D03*
%TO.P,U1,4,GPIO2*%
%TO.N,DATA_2*%
X38290000Y10490000D03*
%TO.P,U1,5,GPIO3*%
%TO.N,DATA_3*%
X38290000Y13030000D03*
%TO.P,U1,6,GPIO4*%
%TO.N,DATA_4*%
X38290000Y15570000D03*
%TO.P,U1,7,GPIO5*%
%TO.N,DATA_5*%
X38290000Y18110000D03*
%TO.P,U1,8,GND*%
%TO.N,GNDD*%
X38290000Y20650000D03*
%TO.P,U1,9,GPIO6*%
%TO.N,DATA_6*%
X38290000Y23190000D03*
%TO.P,U1,10,GPIO7*%
%TO.N,DATA_7*%
X38290000Y25730000D03*
%TO.P,U1,11,GPIO8*%
%TO.N,CLK*%
X38290000Y28270000D03*
%TO.P,U1,12,GPIO9*%
%TO.N,OE_N*%
X38290000Y30810000D03*
%TO.P,U1,13,GND*%
%TO.N,GNDD*%
X38290000Y33350000D03*
%TO.P,U1,14,GPIO10*%
%TO.N,RD_N*%
X38290000Y35890000D03*
%TO.P,U1,15,GPIO11*%
%TO.N,WR_N*%
X38290000Y38430000D03*
%TO.P,U1,16,GPIO12*%
%TO.N,RXF_N*%
X38290000Y40970000D03*
%TO.P,U1,17,GPIO13*%
%TO.N,TXE_N*%
X38290000Y43510000D03*
%TO.P,U1,18,GND*%
%TO.N,GNDD*%
X38290000Y46050000D03*
%TO.P,U1,19,GPIO14*%
%TO.N,BE_1*%
X38290000Y48590000D03*
%TO.P,U1,20,GPIO15*%
%TO.N,BE_0*%
X38290000Y51130000D03*
%TO.P,U1,21,GPIO16*%
%TO.N,GPIO1*%
X18710000Y51130000D03*
%TO.P,U1,22,GPIO17*%
%TO.N,GPIO0*%
X18710000Y48590000D03*
%TO.P,U1,23,GND*%
%TO.N,GNDD*%
X18710000Y46050000D03*
%TO.P,U1,24,GPIO18*%
%TO.N,~{RESET_N}*%
X18710000Y43510000D03*
%TO.P,U1,25,GPIO19*%
%TO.N,unconnected-(U1-GPIO19-Pad25)*%
X18710000Y40970000D03*
%TO.P,U1,26,GPIO20*%
%TO.N,unconnected-(U1-GPIO20-Pad26)*%
X18710000Y38430000D03*
%TO.P,U1,27,GPIO21*%
%TO.N,unconnected-(U1-GPIO21-Pad27)*%
X18710000Y35890000D03*
%TO.P,U1,28,GND*%
%TO.N,GNDD*%
X18710000Y33350000D03*
%TO.P,U1,29,GPIO22*%
%TO.N,unconnected-(U1-GPIO22-Pad29)*%
X18710000Y30810000D03*
%TO.P,U1,30,RUN*%
%TO.N,unconnected-(U1-RUN-Pad30)*%
X18710000Y28270000D03*
%TO.P,U1,31,GPIO26_ADC0*%
%TO.N,unconnected-(U1-GPIO26_ADC0-Pad31)*%
X18710000Y25730000D03*
%TO.P,U1,32,GPIO27_ADC1*%
%TO.N,unconnected-(U1-GPIO27_ADC1-Pad32)*%
X18710000Y23190000D03*
%TO.P,U1,33,AGND*%
%TO.N,GNDD*%
X18710000Y20650000D03*
%TO.P,U1,34,GPIO28_ADC2*%
%TO.N,unconnected-(U1-GPIO28_ADC2-Pad34)*%
X18710000Y18110000D03*
%TO.P,U1,35,ADC_VREF*%
%TO.N,unconnected-(U1-ADC_VREF-Pad35)*%
X18710000Y15570000D03*
%TO.P,U1,36,3V3*%
%TO.N,+3.3V*%
X18710000Y13030000D03*
%TO.P,U1,37,3V3_EN*%
%TO.N,unconnected-(U1-3V3_EN-Pad37)*%
X18710000Y10490000D03*
%TO.P,U1,38,GND*%
%TO.N,GNDD*%
X18710000Y7950000D03*
%TO.P,U1,39,VSYS*%
%TO.N,unconnected-(U1-VSYS-Pad39)*%
X18710000Y5410000D03*
%TO.P,U1,40,VBUS*%
%TO.N,+5V*%
X18710000Y2870000D03*
D22*
%TO.P,U1,41,SWCLK*%
%TO.N,SWCLK*%
X31040000Y51800000D03*
%TO.P,U1,42,GND*%
%TO.N,GNDD*%
X28500000Y51800000D03*
%TO.P,U1,43,SWDIO*%
%TO.N,SWDIO*%
X25960000Y51800000D03*
%TD*%
D10*
%TO.P,C13,1*%
%TO.N,Net-(U2-XI)*%
X57450000Y4125000D03*
%TO.P,C13,2*%
%TO.N,GNDD*%
X54500000Y4125000D03*
%TD*%
D23*
%TO.P,R10,1*%
%TO.N,Net-(U2-WAKEUP_N)*%
X52000000Y12500000D03*
%TO.P,R10,2*%
%TO.N,+3.3V*%
X49075000Y12500000D03*
%TD*%
D24*
%TO.P,J4,1,Pin_1*%
%TO.N,GNDD*%
X10225000Y49830000D03*
D25*
%TO.P,J4,2,Pin_2*%
%TO.N,+5V*%
X12765000Y49830000D03*
%TD*%
D26*
%TO.P,Y1,1,1*%
%TO.N,Net-(U2-XI)*%
X56250000Y7300000D03*
%TO.P,Y1,2,2*%
%TO.N,Net-(U2-XO)*%
X60550000Y7300000D03*
%TD*%
D27*
%TO.P,R1,1*%
%TO.N,Net-(C1-Pad2)*%
X66750000Y44537500D03*
%TO.P,R1,2*%
%TO.N,GNDA*%
X66750000Y47462500D03*
%TD*%
D23*
%TO.P,R11,1*%
%TO.N,Net-(U2-SIWU_N)*%
X51962500Y7500000D03*
%TO.P,R11,2*%
%TO.N,+3.3V*%
X49037500Y7500000D03*
%TD*%
D24*
%TO.P,J3,1,1*%
%TO.N,+3.3V*%
X12790000Y21920000D03*
D25*
%TO.P,J3,2,2*%
X10250000Y21920000D03*
%TO.P,J3,3,3*%
%TO.N,GNDD*%
X12790000Y19380000D03*
%TO.P,J3,4,4*%
X10250000Y19380000D03*
%TO.P,J3,5,5*%
%TO.N,DATA_7*%
X12790000Y16840000D03*
%TO.P,J3,6,6*%
%TO.N,DATA_6*%
X10250000Y16840000D03*
%TO.P,J3,7,7*%
%TO.N,DATA_5*%
X12790000Y14300000D03*
%TO.P,J3,8,8*%
%TO.N,DATA_4*%
X10250000Y14300000D03*
%TO.P,J3,9,9*%
%TO.N,DATA_3*%
X12790000Y11760000D03*
%TO.P,J3,10,10*%
%TO.N,DATA_2*%
X10250000Y11760000D03*
%TO.P,J3,11,11*%
%TO.N,DATA_1*%
X12790000Y9220000D03*
%TO.P,J3,12,12*%
%TO.N,DATA_0*%
X10250000Y9220000D03*
%TD*%
D27*
%TO.P,R4,1*%
%TO.N,Net-(U4-VIN)*%
X66750000Y39787500D03*
%TO.P,R4,2*%
%TO.N,Net-(C2-Pad2)*%
X66750000Y42712500D03*
%TD*%
D18*
%TO.P,REF\u002A\u002A,1*%
%TO.N,N/C*%
X79652944Y50552944D03*
X80355888Y52250000D03*
X80355888Y48855888D03*
X82052944Y52952944D03*
D19*
X82052944Y50552944D03*
D18*
X82052944Y48152944D03*
X83750000Y52250000D03*
X83750000Y48855888D03*
X84452944Y50552944D03*
%TD*%
D28*
%TO.P,C9,1*%
%TO.N,/DRVD*%
X59250000Y26775000D03*
%TO.P,C9,2*%
%TO.N,GNDA*%
X59250000Y29725000D03*
%TD*%
%TO.P,C12,1*%
%TO.N,/VA*%
X60750000Y34525000D03*
%TO.P,C12,2*%
%TO.N,GNDA*%
X60750000Y37475000D03*
%TD*%
D29*
%TO.P,J7,1,In*%
%TO.N,Net-(J7-In)*%
X64250000Y51500000D03*
D30*
%TO.P,J7,2,Ext*%
%TO.N,GNDA*%
X68500000Y51175000D03*
X60000000Y51175000D03*
%TD*%
D31*
%TO.P,REF\u002A\u002A,1*%
%TO.N,N/C*%
X64250000Y50250000D03*
%TD*%
D27*
%TO.P,R7,1*%
%TO.N,Net-(U4-PD)*%
X70750000Y26787500D03*
%TO.P,R7,2*%
%TO.N,GNDA*%
X70750000Y29712500D03*
%TD*%
D32*
%TO.P,U2,1,AVDD*%
%TO.N,Net-(U2-AVDD)*%
X61500000Y18850000D03*
%TO.P,U2,2,BE_0*%
%TO.N,BE_0*%
X61500000Y18450000D03*
%TO.P,U2,3,BE_1*%
%TO.N,BE_1*%
X61500000Y18050000D03*
%TO.P,U2,4,TXE_N*%
%TO.N,TXE_N*%
X61500000Y17650000D03*
%TO.P,U2,5,RXF_N*%
%TO.N,RXF_N*%
X61500000Y17250000D03*
%TO.P,U2,6,SIWU_N*%
%TO.N,Net-(U2-SIWU_N)*%
X61500000Y16850000D03*
%TO.P,U2,7,WR_N*%
%TO.N,WR_N*%
X61500000Y16450000D03*
%TO.P,U2,8,RD_N*%
%TO.N,RD_N*%
X61500000Y16050000D03*
%TO.P,U2,9,OE_N*%
%TO.N,OE_N*%
X61500000Y15650000D03*
%TO.P,U2,10,RESET_N*%
%TO.N,~{RESET_N}*%
X61500000Y15250000D03*
%TO.P,U2,11,WAKEUP_N*%
%TO.N,Net-(U2-WAKEUP_N)*%
X61500000Y14850000D03*
%TO.P,U2,12,GPIO0*%
%TO.N,GPIO0*%
X61500000Y14450000D03*
%TO.P,U2,13,GPIO1*%
%TO.N,GPIO1*%
X61500000Y14050000D03*
%TO.P,U2,14,RESERVE*%
%TO.N,unconnected-(U2-RESERVE-Pad14)*%
X61500000Y13650000D03*
D33*
%TO.P,U2,15,VCC33*%
%TO.N,+3.3V*%
X62150000Y13000000D03*
%TO.P,U2,16,XI*%
%TO.N,Net-(U2-XI)*%
X62550000Y13000000D03*
%TO.P,U2,17,XO*%
%TO.N,Net-(U2-XO)*%
X62950000Y13000000D03*
%TO.P,U2,18,DP*%
%TO.N,D+*%
X63350000Y13000000D03*
%TO.P,U2,19,VCC33*%
%TO.N,+3.3V*%
X63750000Y13000000D03*
%TO.P,U2,20,DM*%
%TO.N,D-*%
X64150000Y13000000D03*
%TO.P,U2,21,RREF*%
%TO.N,Net-(U2-RREF)*%
X64550000Y13000000D03*
%TO.P,U2,22,VDDA*%
%TO.N,+3.3V*%
X64950000Y13000000D03*
%TO.P,U2,23,VD10*%
%TO.N,Net-(U2-AVDD)*%
X65350000Y13000000D03*
%TO.P,U2,24,TODN*%
%TO.N,/TODN*%
X65750000Y13000000D03*
%TO.P,U2,25,TODP*%
%TO.N,/TODP*%
X66150000Y13000000D03*
%TO.P,U2,26,VD10*%
%TO.N,Net-(U2-AVDD)*%
X66550000Y13000000D03*
%TO.P,U2,27,RIDN*%
%TO.N,SSRX-*%
X66950000Y13000000D03*
%TO.P,U2,28,RIDP*%
%TO.N,SSRX+*%
X67350000Y13000000D03*
D34*
%TO.P,U2,29,VBUS*%
%TO.N,+5V*%
X68000000Y13650000D03*
%TO.P,U2,30,VCC33*%
%TO.N,+3.3V*%
X68000000Y14050000D03*
%TO.P,U2,31,DV10*%
%TO.N,Net-(U2-AVDD)*%
X68000000Y14450000D03*
%TO.P,U2,32,GND*%
%TO.N,GNDD*%
X68000000Y14850000D03*
%TO.P,U2,33,DATA_0*%
%TO.N,DATA_0*%
X68000000Y15250000D03*
%TO.P,U2,34,DATA_1*%
%TO.N,DATA_1*%
X68000000Y15650000D03*
%TO.P,U2,35,DATA_2*%
%TO.N,DATA_2*%
X68000000Y16050000D03*
%TO.P,U2,36,DATA_3*%
%TO.N,DATA_3*%
X68000000Y16450000D03*
%TO.P,U2,37,VD10*%
%TO.N,Net-(U2-AVDD)*%
X68000000Y16850000D03*
%TO.P,U2,38,VCCIO*%
%TO.N,+3.3V*%
X68000000Y17250000D03*
%TO.P,U2,39,DATA_4*%
%TO.N,DATA_4*%
X68000000Y17650000D03*
%TO.P,U2,40,DATA_5*%
%TO.N,DATA_5*%
X68000000Y18050000D03*
%TO.P,U2,41,DATA_6*%
%TO.N,DATA_6*%
X68000000Y18450000D03*
%TO.P,U2,42,DATA_7*%
%TO.N,DATA_7*%
X68000000Y18850000D03*
D35*
%TO.P,U2,43,CLK*%
%TO.N,CLK*%
X67350000Y19500000D03*
%TO.P,U2,44,VCCIO*%
%TO.N,+3.3V*%
X66950000Y19500000D03*
%TO.P,U2,45,DATA_8*%
%TO.N,DATA_8*%
X66550000Y19500000D03*
%TO.P,U2,46,DATA_9*%
%TO.N,DATA_9*%
X66150000Y19500000D03*
%TO.P,U2,47,DATA_10*%
%TO.N,DATA_10*%
X65750000Y19500000D03*
%TO.P,U2,48,DATA_11*%
%TO.N,DATA_11*%
X65350000Y19500000D03*
%TO.P,U2,49,GND*%
%TO.N,GNDD*%
X64950000Y19500000D03*
%TO.P,U2,50,VD10*%
%TO.N,Net-(U2-AVDD)*%
X64550000Y19500000D03*
%TO.P,U2,51,GND*%
%TO.N,GNDD*%
X64150000Y19500000D03*
%TO.P,U2,52,VCCIO*%
%TO.N,+3.3V*%
X63750000Y19500000D03*
%TO.P,U2,53,DATA_12*%
%TO.N,DATA_12*%
X63350000Y19500000D03*
%TO.P,U2,54,DATA_13*%
%TO.N,DATA_13*%
X62950000Y19500000D03*
%TO.P,U2,55,DATA_14*%
%TO.N,DATA_14*%
X62550000Y19500000D03*
%TO.P,U2,56,DATA_15*%
%TO.N,DATA_15*%
X62150000Y19500000D03*
D36*
%TO.P,U2,57,EP*%
%TO.N,GNDD*%
X64750000Y16250000D03*
%TD*%
D37*
%TO.P,FB1,1*%
%TO.N,+5V*%
X80175000Y10750000D03*
%TO.P,FB1,2*%
%TO.N,Net-(C21-Pad2)*%
X83325000Y10750000D03*
%TD*%
D23*
%TO.P,R5,1*%
%TO.N,GNDD*%
X68962500Y4000000D03*
%TO.P,R5,2*%
%TO.N,Net-(U2-RREF)*%
X66037500Y4000000D03*
%TD*%
D28*
%TO.P,C10,1*%
%TO.N,/VA*%
X66750000Y35025000D03*
%TO.P,C10,2*%
%TO.N,GNDA*%
X66750000Y37975000D03*
%TD*%
D38*
%TO.P,C15,1*%
%TO.N,Net-(U2-XO)*%
X59500000Y4125000D03*
%TO.P,C15,2*%
%TO.N,GNDD*%
X62450000Y4125000D03*
%TD*%
D28*
%TO.P,C11,1*%
%TO.N,/DRVD*%
X56750000Y26775000D03*
%TO.P,C11,2*%
%TO.N,GNDA*%
X56750000Y29725000D03*
%TD*%
D10*
%TO.P,C16,1*%
%TO.N,SSTX-*%
X73975000Y6750000D03*
%TO.P,C16,2*%
%TO.N,/TODN*%
X71025000Y6750000D03*
%TD*%
%TO.P,C18,1*%
%TO.N,SSTX+*%
X73975000Y9250000D03*
%TO.P,C18,2*%
%TO.N,/TODP*%
X71025000Y9250000D03*
%TD*%
D28*
%TO.P,C17,1*%
%TO.N,Net-(U4-VRM)*%
X63250000Y34525000D03*
%TO.P,C17,2*%
%TO.N,GNDA*%
X63250000Y37475000D03*
%TD*%
D39*
%TO.P,U4,1,VA*%
%TO.N,/VA*%
X68325000Y31112500D03*
%TO.P,U4,2,AGND*%
%TO.N,GNDA*%
X67675000Y31112500D03*
%TO.P,U4,3,VRT*%
%TO.N,/VRT*%
X67025000Y31112500D03*
%TO.P,U4,4,VA*%
%TO.N,/VA*%
X66375000Y31112500D03*
%TO.P,U4,5,AGND*%
%TO.N,GNDA*%
X65725000Y31112500D03*
%TO.P,U4,6,VIN*%
%TO.N,Net-(U4-VIN)*%
X65075000Y31112500D03*
%TO.P,U4,7,GND*%
%TO.N,GNDA*%
X64425000Y31112500D03*
%TO.P,U4,8,AGND*%
X63775000Y31112500D03*
%TO.P,U4,9,VRM*%
%TO.N,Net-(U4-VRM)*%
X63125000Y31112500D03*
%TO.P,U4,10,VRB*%
%TO.N,GNDA*%
X62475000Y31112500D03*
%TO.P,U4,11,AGND*%
X61825000Y31112500D03*
%TO.P,U4,12,VA*%
%TO.N,/VA*%
X61175000Y31112500D03*
%TO.P,U4,13,D7*%
%TO.N,DATA_15*%
X61175000Y25387500D03*
%TO.P,U4,14,D6*%
%TO.N,DATA_14*%
X61825000Y25387500D03*
%TO.P,U4,15,D5*%
%TO.N,DATA_13*%
X62475000Y25387500D03*
%TO.P,U4,16,D4*%
%TO.N,DATA_12*%
X63125000Y25387500D03*
%TO.P,U4,17,DRGND*%
%TO.N,GNDA*%
X63775000Y25387500D03*
%TO.P,U4,18,DRVD*%
%TO.N,/DRVD*%
X64425000Y25387500D03*
%TO.P,U4,19,D3*%
%TO.N,DATA_11*%
X65075000Y25387500D03*
%TO.P,U4,20,D2*%
%TO.N,DATA_10*%
X65725000Y25387500D03*
%TO.P,U4,21,D1*%
%TO.N,DATA_9*%
X66375000Y25387500D03*
%TO.P,U4,22,D0*%
%TO.N,DATA_8*%
X67025000Y25387500D03*
%TO.P,U4,23,PD*%
%TO.N,Net-(U4-PD)*%
X67675000Y25387500D03*
%TO.P,U4,24,CLK*%
%TO.N,CLK*%
X68325000Y25387500D03*
%TD*%
D40*
%TO.P,FB3,1*%
%TO.N,+3.3V*%
X83250000Y34175000D03*
%TO.P,FB3,2*%
%TO.N,/VA*%
X83250000Y37325000D03*
%TD*%
D28*
%TO.P,C20,1*%
%TO.N,/VRT*%
X81000000Y39525000D03*
%TO.P,C20,2*%
%TO.N,GNDA*%
X81000000Y42475000D03*
%TD*%
D41*
%TO.P,R8,1*%
%TO.N,GNDA*%
X78500000Y42462500D03*
%TO.P,R8,2*%
%TO.N,/VRT*%
X78500000Y39537500D03*
%TD*%
D42*
%TO.P,C6,1*%
%TO.N,/VA*%
X78500000Y37225000D03*
%TO.P,C6,2*%
%TO.N,GNDA*%
X78500000Y34275000D03*
%TD*%
D18*
%TO.P,REF\u002A\u002A,1*%
%TO.N,N/C*%
X1100000Y50500000D03*
X1802944Y52197056D03*
X1802944Y48802944D03*
X3500000Y52900000D03*
D19*
X3500000Y50500000D03*
D18*
X3500000Y48100000D03*
X5197056Y52197056D03*
X5197056Y48802944D03*
X5900000Y50500000D03*
%TD*%
D28*
%TO.P,C14,1*%
%TO.N,Net-(U2-AVDD)*%
X51500000Y26775000D03*
%TO.P,C14,2*%
%TO.N,GNDD*%
X51500000Y29725000D03*
%TD*%
D18*
%TO.P,REF\u002A\u002A,1*%
%TO.N,N/C*%
X79600000Y3500000D03*
X80302944Y5197056D03*
X80302944Y1802944D03*
X82000000Y5900000D03*
D19*
X82000000Y3500000D03*
D18*
X82000000Y1100000D03*
X83697056Y5197056D03*
X83697056Y1802944D03*
X84400000Y3500000D03*
%TD*%
D41*
%TO.P,R9,1*%
%TO.N,+3.3V*%
X83250000Y42462500D03*
%TO.P,R9,2*%
%TO.N,/VRT*%
X83250000Y39537500D03*
%TD*%
D23*
%TO.P,R6,1*%
%TO.N,~{RESET_N}*%
X51962500Y14750000D03*
%TO.P,R6,2*%
%TO.N,+3.3V*%
X49037500Y14750000D03*
%TD*%
D41*
%TO.P,R2,1*%
%TO.N,Net-(C1-Pad2)*%
X64250000Y42712500D03*
%TO.P,R2,2*%
%TO.N,Net-(U4-VIN)*%
X64250000Y39787500D03*
%TD*%
D42*
%TO.P,C1,1*%
%TO.N,Net-(J7-In)*%
X64250000Y47475000D03*
%TO.P,C1,2*%
%TO.N,Net-(C1-Pad2)*%
X64250000Y44525000D03*
%TD*%
D38*
%TO.P,C21,1*%
%TO.N,GNDD*%
X80275000Y8250000D03*
%TO.P,C21,2*%
%TO.N,Net-(C21-Pad2)*%
X83225000Y8250000D03*
%TD*%
D24*
%TO.P,J5,1,1*%
%TO.N,+3.3V*%
X12790000Y44780000D03*
D25*
%TO.P,J5,2,2*%
X10250000Y44780000D03*
%TO.P,J5,3,3*%
%TO.N,GNDD*%
X12790000Y42240000D03*
%TO.P,J5,4,4*%
X10250000Y42240000D03*
%TO.P,J5,5,5*%
%TO.N,BE_0*%
X12790000Y39700000D03*
%TO.P,J5,6,6*%
%TO.N,BE_1*%
X10250000Y39700000D03*
%TO.P,J5,7,7*%
%TO.N,TXE_N*%
X12790000Y37160000D03*
%TO.P,J5,8,8*%
%TO.N,RXF_N*%
X10250000Y37160000D03*
%TO.P,J5,9,9*%
%TO.N,WR_N*%
X12790000Y34620000D03*
%TO.P,J5,10,10*%
%TO.N,RD_N*%
X10250000Y34620000D03*
%TO.P,J5,11,11*%
%TO.N,OE_N*%
X12790000Y32080000D03*
%TO.P,J5,12,12*%
%TO.N,CLK*%
X10250000Y32080000D03*
%TD*%
D43*
%TO.P,FB2,1*%
%TO.N,+3.3V*%
X54250000Y29825000D03*
%TO.P,FB2,2*%
%TO.N,/DRVD*%
X54250000Y26675000D03*
%TD*%
D42*
%TO.P,C8,1*%
%TO.N,/VA*%
X76250000Y37225000D03*
%TO.P,C8,2*%
%TO.N,GNDA*%
X76250000Y34275000D03*
%TD*%
D41*
%TO.P,R3,1*%
%TO.N,Net-(C2-Pad2)*%
X71750000Y42712500D03*
%TO.P,R3,2*%
%TO.N,+3.3V*%
X71750000Y39787500D03*
%TD*%
D24*
%TO.P,J6,1,Pin_1*%
%TO.N,GNDD*%
X10225000Y4170000D03*
D25*
%TO.P,J6,2,Pin_2*%
%TO.N,+5V*%
X12765000Y4170000D03*
%TD*%
D28*
%TO.P,C19,1*%
%TO.N,/VRT*%
X76250000Y39525000D03*
%TO.P,C19,2*%
%TO.N,GNDA*%
X76250000Y42475000D03*
%TD*%
%TO.P,C2,1*%
%TO.N,GNDA*%
X69250000Y39775000D03*
%TO.P,C2,2*%
%TO.N,Net-(C2-Pad2)*%
X69250000Y42725000D03*
%TD*%
D42*
%TO.P,C7,1*%
%TO.N,/VA*%
X81000000Y37225000D03*
%TO.P,C7,2*%
%TO.N,GNDA*%
X81000000Y34275000D03*
%TD*%
D24*
%TO.P,J1,1,Pin_1*%
%TO.N,+5V*%
X46700000Y51250000D03*
D25*
%TO.P,J1,2,Pin_2*%
%TO.N,SWCLK*%
X49240000Y51250000D03*
%TO.P,J1,3,Pin_3*%
%TO.N,SWDIO*%
X51780000Y51250000D03*
%TO.P,J1,4,Pin_4*%
%TO.N,GNDD*%
X54320000Y51250000D03*
%TD*%
D24*
%TO.P,J2,1,Pin_1*%
%TO.N,GNDD*%
X10225000Y27000000D03*
D25*
%TO.P,J2,2,Pin_2*%
%TO.N,+5V*%
X12765000Y27000000D03*
%TD*%
D44*
%TO.N,+3.3V*%
X59500000Y12500000D03*
X44500000Y4000000D03*
X67425000Y21875000D03*
X22750000Y5250000D03*
X72750000Y31500000D03*
X69400000Y21900000D03*
X64000000Y21900000D03*
X83250000Y44000000D03*
X50250000Y11500000D03*
X58000000Y33500000D03*
X83250000Y32250000D03*
X49000000Y6000000D03*
%TO.N,DATA_5*%
X40800000Y16500000D03*
X71675000Y19100000D03*
%TO.N,BE_0*%
X33250000Y42750000D03*
%TO.N,+5V*%
X55000000Y40250000D03*
X74250000Y30000000D03*
%TO.N,DATA_4*%
X72750000Y19050000D03*
X40800000Y13900000D03*
%TO.N,BE_1*%
X34500000Y42750000D03*
%TO.N,SSRX-*%
X69250000Y9725000D03*
X77000000Y25735000D03*
%TO.N,TXE_N*%
X35600000Y42300000D03*
%TO.N,SWCLK*%
X31200000Y49100000D03*
%TO.N,SWDIO*%
X26000000Y49100000D03*
%TO.N,GPIO0*%
X45250000Y21500000D03*
X21250000Y47500000D03*
%TO.N,CLK*%
X40750000Y27750000D03*
X35600000Y27100000D03*
X68050000Y20975000D03*
%TO.N,DATA_2*%
X40800000Y9100000D03*
X74150000Y15550000D03*
%TO.N,DATA_7*%
X70750000Y21000000D03*
X40800000Y24100000D03*
%TO.N,~{RESET_N}*%
X43050000Y25225000D03*
X21250000Y42900000D03*
%TO.N,D-*%
X78300000Y17735000D03*
X64275000Y9500000D03*
%TO.N,GPIO1*%
X45250000Y22500000D03*
X21250000Y49500000D03*
%TO.N,RXF_N*%
X35600000Y39900000D03*
%TO.N,D+*%
X63225000Y9500000D03*
X78300000Y18785000D03*
%TO.N,WR_N*%
X35600000Y37100000D03*
%TO.N,DATA_6*%
X40800000Y21700000D03*
X71550000Y20150000D03*
%TO.N,DATA_3*%
X40800000Y11300000D03*
X74450000Y17300000D03*
%TO.N,DATA_0*%
X40800000Y3900000D03*
X71750000Y14500000D03*
%TO.N,SSRX+*%
X69250000Y10775000D03*
X77000000Y26785000D03*
%TO.N,GNDD*%
X32250000Y25750000D03*
X81500000Y21750000D03*
X28500000Y49500000D03*
X44750000Y2000000D03*
X24250000Y21250000D03*
X52500000Y44500000D03*
X25500000Y41250000D03*
X79000000Y6500000D03*
X35500000Y25500000D03*
X68250000Y2000000D03*
X77750000Y2000000D03*
X52800000Y4100000D03*
X28250000Y25750000D03*
X21750000Y45250000D03*
X53750000Y49000000D03*
X63250000Y14250000D03*
X62500000Y6000000D03*
X42500000Y2000000D03*
X32250000Y21250000D03*
X47250000Y7250000D03*
X35500000Y2000000D03*
X62500000Y2000000D03*
X31500000Y29500000D03*
X53000000Y38250000D03*
X50750000Y46250000D03*
X35500000Y4500000D03*
X8000000Y8500000D03*
X53750000Y46000000D03*
X65500000Y15000000D03*
X53750000Y43500000D03*
X50250000Y4250000D03*
X77750000Y30250000D03*
X49500000Y49250000D03*
X58500000Y2000000D03*
X66500000Y2000000D03*
X64750000Y14250000D03*
X50750000Y40750000D03*
X30250000Y46250000D03*
X24250000Y25750000D03*
X53000000Y31500000D03*
X41750000Y32500000D03*
X50750000Y2000000D03*
X33250000Y6000000D03*
X48000000Y49250000D03*
X33250000Y2000000D03*
X77750000Y28250000D03*
X26250000Y46750000D03*
X75750000Y2000000D03*
X24250000Y29500000D03*
X59150000Y10450000D03*
X80500000Y22750000D03*
X45500000Y7250000D03*
X53000000Y35250000D03*
X54000000Y6250000D03*
X56550000Y9450000D03*
X76000000Y6000000D03*
X47000000Y2000000D03*
X73750000Y2000000D03*
X47250000Y8500000D03*
X52750000Y2000000D03*
X54000000Y7750000D03*
X66350000Y14300000D03*
X67250000Y6000000D03*
X50750000Y38250000D03*
X26750000Y42750000D03*
X54750000Y2000000D03*
X56750000Y2000000D03*
X60500000Y2000000D03*
X64000000Y4100000D03*
X8250000Y30500000D03*
X50750000Y35250000D03*
X29000000Y40750000D03*
X70000000Y2000000D03*
X45500000Y9000000D03*
X28250000Y21250000D03*
X28250000Y46250000D03*
X64500000Y2000000D03*
X47500000Y21750000D03*
X71750000Y2000000D03*
X50750000Y31500000D03*
X64000000Y15000000D03*
X15750000Y42750000D03*
X45500000Y5750000D03*
X42250000Y45000000D03*
X69250000Y6000000D03*
X47500000Y4250000D03*
X31250000Y42750000D03*
X47750000Y11000000D03*
X28250000Y29500000D03*
X30250000Y42000000D03*
X48750000Y2000000D03*
%TO.N,GNDA*%
X74250000Y46250000D03*
X56500000Y47500000D03*
X56250000Y41500000D03*
X68525000Y47475000D03*
X78500000Y44000000D03*
X56250000Y37500000D03*
X64125000Y32875000D03*
X74000000Y49250000D03*
X62250000Y39000000D03*
X77750000Y50000000D03*
X56250000Y43500000D03*
X70750000Y38000000D03*
X58750000Y37500000D03*
X70750000Y47500000D03*
X72250000Y38000000D03*
X62750000Y52250000D03*
X68750000Y46000000D03*
X65750000Y49500000D03*
X56500000Y49500000D03*
X71250000Y49250000D03*
X62250000Y41500000D03*
X81000000Y44000000D03*
X76250000Y33000000D03*
X71250000Y52250000D03*
X60775000Y38925000D03*
X62125000Y32875000D03*
X56500000Y52400000D03*
X65250000Y29250000D03*
X56250000Y45500000D03*
X69750000Y34000000D03*
X56750000Y31000000D03*
X68975000Y37975000D03*
X56250000Y32250000D03*
X56500000Y51000000D03*
X62750000Y51000000D03*
X62250000Y43500000D03*
X74000000Y52250000D03*
X57500000Y48000000D03*
X71500000Y44500000D03*
X62750000Y49500000D03*
X71250000Y51000000D03*
X78500000Y33000000D03*
X77750000Y48500000D03*
X77750000Y47000000D03*
X70750000Y31250000D03*
X64000000Y24100000D03*
X81000000Y33000000D03*
X77750000Y52250000D03*
X76250000Y44050000D03*
X62250000Y45500000D03*
X59250000Y31500000D03*
X62250000Y47500000D03*
X68750000Y44500000D03*
X65750000Y52250000D03*
%TO.N,RD_N*%
X35600000Y34700000D03*
%TO.N,DATA_1*%
X73050000Y15000000D03*
X40800000Y6300000D03*
%TO.N,OE_N*%
X35600000Y29900000D03*
%TO.N,SSTX-*%
X76250000Y7475000D03*
X78250000Y23785000D03*
%TO.N,SSTX+*%
X78250000Y24835000D03*
X76250000Y8525000D03*
%TO.N,Net-(U2-AVDD)*%
X70500000Y14500000D03*
X65800000Y6950000D03*
X59900000Y22250000D03*
X67900000Y9600000D03*
X64550000Y21150000D03*
%TD*%
D45*
%TO.N,+3.3V*%
X62400000Y13600000D02*
X62150000Y13350000D01*
D46*
X72750000Y21900000D02*
X71900000Y21900000D01*
X72750000Y30750000D02*
X73500000Y31500000D01*
X22070000Y13220000D02*
X22700000Y13850000D01*
X14500000Y22250000D02*
X14170000Y21920000D01*
X10250000Y21920000D02*
X12790000Y21920000D01*
X13830000Y21920000D02*
X14500000Y21250000D01*
X22705000Y13030000D02*
X22700000Y13035000D01*
X54250000Y32750000D02*
X54250000Y34250000D01*
D45*
X67425000Y21875000D02*
X66950000Y21400000D01*
D46*
X50250000Y11500000D02*
X50075000Y11500000D01*
X14500000Y44735000D02*
X14500000Y23250000D01*
X73750000Y41250000D02*
X73750000Y43750000D01*
D45*
X67500000Y17250000D02*
X68000000Y17250000D01*
D46*
X81750000Y45500000D02*
X83250000Y44000000D01*
D45*
X72100000Y17250000D02*
X68000000Y17250000D01*
D46*
X22075000Y13030000D02*
X22070000Y13030000D01*
X72750000Y21900000D02*
X72750000Y22550000D01*
D45*
X64000000Y21900000D02*
X63750000Y21650000D01*
D46*
X71750000Y39787500D02*
X72287500Y39787500D01*
X14500000Y14900000D02*
X14500000Y21250000D01*
D45*
X61750000Y11850000D02*
X62150000Y12250000D01*
D46*
X72100000Y21900000D02*
X72750000Y22550000D01*
X49037500Y14212500D02*
X49037500Y14750000D01*
X60950000Y11850000D02*
X60150000Y11850000D01*
X49037500Y6037500D02*
X49037500Y7500000D01*
X14170000Y21920000D02*
X12790000Y21920000D01*
X22070000Y13030000D02*
X22700000Y12400000D01*
X19610000Y13030000D02*
X21750000Y13030000D01*
X22075000Y13030000D02*
X22705000Y13030000D01*
X22700000Y13035000D02*
X22700000Y13850000D01*
X72287500Y39787500D02*
X73750000Y41250000D01*
X12790000Y44780000D02*
X14545000Y44780000D01*
X54250000Y33500000D02*
X54250000Y32000000D01*
X55000000Y33500000D02*
X54250000Y33500000D01*
X72750000Y20600000D02*
X73800000Y19550000D01*
X14500000Y22500000D02*
X14500000Y23250000D01*
D45*
X62150000Y12250000D02*
X62150000Y12700000D01*
X63750000Y21650000D02*
X63750000Y19500000D01*
D46*
X55000000Y33500000D02*
X54250000Y34250000D01*
X49075000Y14175000D02*
X49037500Y14212500D01*
X49000000Y6000000D02*
X49037500Y6037500D01*
X54250000Y31000000D02*
X54250000Y32250000D01*
X22700000Y13025000D02*
X22700000Y12400000D01*
D45*
X64950000Y13600000D02*
X67000000Y13600000D01*
D46*
X58000000Y33500000D02*
X55000000Y33500000D01*
X71900000Y21900000D02*
X69400000Y21900000D01*
D45*
X64950000Y13600000D02*
X63750000Y13600000D01*
D46*
X14545000Y44780000D02*
X14500000Y44735000D01*
X21750000Y13030000D02*
X22070000Y13030000D01*
D45*
X67250000Y17500000D02*
X67500000Y17250000D01*
D46*
X83250000Y32250000D02*
X83250000Y34175000D01*
X22070000Y13030000D02*
X22070000Y13220000D01*
X22750000Y5250000D02*
X22700000Y5300000D01*
X45500000Y4000000D02*
X44500000Y4000000D01*
X12790000Y21920000D02*
X13830000Y21920000D01*
X60150000Y11850000D02*
X59500000Y12500000D01*
X10250000Y44780000D02*
X12790000Y44780000D01*
X22705000Y13030000D02*
X22700000Y13025000D01*
X13900000Y21920000D02*
X14230000Y21920000D01*
X72200000Y21900000D02*
X72750000Y21350000D01*
X54250000Y39250000D02*
X40425000Y53075000D01*
X50075000Y11500000D02*
X49075000Y12500000D01*
X71900000Y21900000D02*
X72100000Y21900000D01*
D47*
X62150000Y12700000D02*
X62150000Y12800000D01*
D46*
X73500000Y31500000D02*
X82500000Y31500000D01*
X32750000Y50125000D02*
X32750000Y46425000D01*
X49075000Y12500000D02*
X49075000Y14175000D01*
X47500000Y6000000D02*
X45500000Y4000000D01*
X54250000Y32000000D02*
X54250000Y32750000D01*
X14500000Y21250000D02*
X14500000Y22500000D01*
D45*
X67000000Y13600000D02*
X67450000Y14050000D01*
D46*
X72750000Y21900000D02*
X72750000Y21350000D01*
X35700000Y53075000D02*
X32750000Y50125000D01*
D45*
X66950000Y19089704D02*
X67250000Y18789704D01*
D46*
X72750000Y31500000D02*
X73500000Y31500000D01*
D45*
X64950000Y13000000D02*
X64950000Y13600000D01*
D46*
X16370000Y13030000D02*
X14500000Y14900000D01*
X14275000Y21920000D02*
X13900000Y21920000D01*
X73750000Y43750000D02*
X75500000Y45500000D01*
X22700000Y5300000D02*
X22700000Y12400000D01*
X22700000Y36375000D02*
X22700000Y13850000D01*
D47*
X60950000Y11850000D02*
X61750000Y11850000D01*
D45*
X66950000Y19500000D02*
X66950000Y19089704D01*
X73825000Y18975000D02*
X72100000Y17250000D01*
D46*
X19610000Y13030000D02*
X16370000Y13030000D01*
X55000000Y33500000D02*
X54250000Y32750000D01*
X40425000Y53075000D02*
X35700000Y53075000D01*
X71900000Y21900000D02*
X72200000Y21900000D01*
X75500000Y45500000D02*
X81750000Y45500000D01*
X82500000Y31500000D02*
X83250000Y32250000D01*
X72750000Y21350000D02*
X72750000Y20600000D01*
D45*
X67450000Y14050000D02*
X68000000Y14050000D01*
D46*
X21750000Y13030000D02*
X22075000Y13030000D01*
X72750000Y22550000D02*
X72750000Y30750000D01*
X72750000Y30750000D02*
X72750000Y31500000D01*
X49000000Y6000000D02*
X47500000Y6000000D01*
X73800000Y19550000D02*
X73800000Y19000000D01*
D47*
X62150000Y13350000D02*
X62150000Y13000000D01*
D45*
X67250000Y18789704D02*
X67250000Y17500000D01*
D46*
X83250000Y44000000D02*
X83250000Y42462500D01*
D45*
X63750000Y13600000D02*
X62400000Y13600000D01*
D46*
X12790000Y21920000D02*
X13920000Y21920000D01*
X54250000Y31000000D02*
X54250000Y29825000D01*
D45*
X66950000Y21400000D02*
X66950000Y19500000D01*
D46*
X54250000Y32000000D02*
X54250000Y31000000D01*
X13920000Y21920000D02*
X14500000Y22500000D01*
D45*
X62150000Y12900000D02*
X62150000Y13000000D01*
D46*
X54250000Y34250000D02*
X54250000Y39250000D01*
X32750000Y46425000D02*
X22700000Y36375000D01*
D45*
X63750000Y13600000D02*
X63750000Y13000000D01*
D47*
%TO.N,DATA_5*%
X70912500Y18337500D02*
X71675000Y19100000D01*
D45*
X70912500Y18337500D02*
X70625000Y18050000D01*
D47*
X39190000Y18110000D02*
X37390000Y18110000D01*
D45*
X70625000Y18050000D02*
X68000000Y18050000D01*
D47*
X40800000Y16500000D02*
X39190000Y18110000D01*
%TO.N,BE_0*%
X49500000Y42300000D02*
X40670000Y51130000D01*
X55500000Y20500000D02*
X49500000Y26500000D01*
X49500000Y26500000D02*
X49500000Y42300000D01*
X59400000Y18600000D02*
X57500000Y20500000D01*
X33750000Y47490000D02*
X37390000Y51130000D01*
X57500000Y20500000D02*
X55500000Y20500000D01*
X33750000Y43250000D02*
X33750000Y47490000D01*
D45*
X59550000Y18450000D02*
X61500000Y18450000D01*
D47*
X40670000Y51130000D02*
X37390000Y51130000D01*
D45*
X59400000Y18600000D02*
X59550000Y18450000D01*
D47*
X33250000Y42750000D02*
X33750000Y43250000D01*
D45*
%TO.N,DATA_9*%
X66375000Y22775000D02*
X66150000Y22550000D01*
D47*
X66375000Y23250000D02*
X66375000Y25387500D01*
D45*
X66375000Y23250000D02*
X66375000Y22775000D01*
X66150000Y22550000D02*
X66150000Y19500000D01*
%TO.N,DATA_13*%
X62950000Y20500000D02*
X62950000Y19500000D01*
X62475000Y20975000D02*
X62950000Y20500000D01*
X62475000Y21900000D02*
X62475000Y20975000D01*
D47*
X62475000Y21900000D02*
X62475000Y25387500D01*
D46*
%TO.N,+5V*%
X74250000Y23500000D02*
X74250000Y30000000D01*
X77500000Y4037500D02*
X77462500Y4000000D01*
X6600000Y29175000D02*
X6625000Y29200000D01*
X75000000Y22750000D02*
X74250000Y23500000D01*
D47*
X70200000Y13100000D02*
X69650000Y13650000D01*
D46*
X76250000Y21500000D02*
X75000000Y22750000D01*
X6625000Y29200000D02*
X7575000Y29200000D01*
X76900000Y12250000D02*
X78650000Y12250000D01*
X78650000Y12250000D02*
X80150000Y10750000D01*
X76250000Y13050000D02*
X76250000Y12900000D01*
X12100000Y29200000D02*
X12765000Y28535000D01*
X77500000Y9250000D02*
X77500000Y4037500D01*
X7325000Y29200000D02*
X6600000Y28475000D01*
X6600000Y45900000D02*
X6600000Y29975000D01*
X7575000Y29200000D02*
X7325000Y29200000D01*
X8400000Y6250000D02*
X6600000Y8050000D01*
X12765000Y48440000D02*
X11500000Y47175000D01*
X12765000Y49830000D02*
X12765000Y48440000D01*
X76250000Y12250000D02*
X76250000Y13050000D01*
X76250000Y13050000D02*
X76250000Y21500000D01*
X55000000Y40250000D02*
X46700000Y48550000D01*
X7575000Y29200000D02*
X12100000Y29200000D01*
X7875000Y47175000D02*
X6600000Y45900000D01*
X7575000Y29200000D02*
X7400000Y29200000D01*
X76250000Y12250000D02*
X76900000Y12250000D01*
X14065000Y2870000D02*
X12765000Y4170000D01*
X80150000Y10750000D02*
X80175000Y10750000D01*
X11500000Y47175000D02*
X7875000Y47175000D01*
X75650000Y12250000D02*
X76250000Y12250000D01*
X12765000Y4170000D02*
X12765000Y5610000D01*
X6600000Y28475000D02*
X6600000Y29975000D01*
X71050000Y12250000D02*
X75650000Y12250000D01*
D47*
X69650000Y13650000D02*
X68000000Y13650000D01*
D46*
X6625000Y29975000D02*
X6600000Y29975000D01*
X70200000Y13100000D02*
X71050000Y12250000D01*
X76250000Y12850000D02*
X75650000Y12250000D01*
X12125000Y6250000D02*
X8400000Y6250000D01*
X19610000Y2870000D02*
X14065000Y2870000D01*
X12765000Y28535000D02*
X12765000Y27000000D01*
X76250000Y12900000D02*
X76900000Y12250000D01*
X7400000Y29200000D02*
X6625000Y29975000D01*
X6600000Y8050000D02*
X6600000Y28475000D01*
X78000000Y9750000D02*
X77500000Y9250000D01*
X12765000Y5610000D02*
X12125000Y6250000D01*
X76250000Y13050000D02*
X76250000Y12850000D01*
X80175000Y10750000D02*
X79175000Y9750000D01*
X46700000Y48550000D02*
X46700000Y51250000D01*
X79175000Y9750000D02*
X78000000Y9750000D01*
D47*
%TO.N,DATA_4*%
X39130000Y15570000D02*
X37390000Y15570000D01*
D45*
X71350000Y17650000D02*
X68000000Y17650000D01*
D47*
X72750000Y19050000D02*
X71550000Y17850000D01*
D45*
X71550000Y17850000D02*
X71350000Y17650000D01*
D47*
X40800000Y13900000D02*
X39130000Y15570000D01*
%TO.N,DATA_10*%
X65750000Y21200000D02*
X65750000Y25362500D01*
X65750000Y25362500D02*
X65725000Y25387500D01*
D45*
X65750000Y19800000D02*
X65750000Y21200000D01*
%TO.N,DATA_14*%
X62550000Y20300000D02*
X62550000Y19500000D01*
D47*
X61825000Y25387500D02*
X61825000Y21850000D01*
D45*
X61825000Y21025000D02*
X62550000Y20300000D01*
X61825000Y21850000D02*
X61825000Y21025000D01*
D47*
%TO.N,BE_1*%
X34500000Y42750000D02*
X34500000Y45700000D01*
X45363185Y44649661D02*
X45276467Y44562944D01*
X55250000Y20000000D02*
X49000000Y26250000D01*
X44852204Y44647796D02*
X44250000Y45250000D01*
X45359475Y43288299D02*
X45274619Y43373155D01*
X45531027Y43968973D02*
X45700732Y44138679D01*
D45*
X61500000Y18050000D02*
X59200000Y18050000D01*
D47*
X40910000Y48590000D02*
X37390000Y48590000D01*
X59050000Y18200000D02*
X57250000Y20000000D01*
X49000000Y40500000D02*
X46125000Y43375000D01*
X45531025Y43968973D02*
X45531027Y43968973D01*
X57250000Y20000000D02*
X55250000Y20000000D01*
X44937056Y44562944D02*
X44852204Y44647796D01*
X45700732Y44138679D02*
X45787450Y44225397D01*
X45787450Y44564808D02*
X45702597Y44649661D01*
X44250000Y45250000D02*
X40910000Y48590000D01*
X45785588Y43375000D02*
X45698885Y43288300D01*
X45361320Y43799268D02*
X45531025Y43968973D01*
X45274618Y43712567D02*
X45361320Y43799268D01*
D45*
X59200000Y18050000D02*
X59050000Y18200000D01*
D47*
X34500000Y45700000D02*
X37390000Y48590000D01*
X49000000Y26250000D02*
X49000000Y40500000D01*
X46125000Y43375000D02*
G75*
G03*
X45785588Y43375000I-169706J-169701D01*
G01*
X45698885Y43288300D02*
G75*
G02*
X45359496Y43288319I-169685J169700D01*
G01*
X45276467Y44562944D02*
G75*
G02*
X44937055Y44562943I-169706J169703D01*
G01*
X45787450Y44225397D02*
G75*
G03*
X45787448Y44564806I-169750J169703D01*
G01*
X45274619Y43373155D02*
G75*
G02*
X45274579Y43712606I169681J169745D01*
G01*
X45702597Y44649661D02*
G75*
G03*
X45363185Y44649661I-169706J-169704D01*
G01*
D45*
%TO.N,DATA_12*%
X63125000Y21025000D02*
X63350000Y20800000D01*
D47*
X63125000Y25387500D02*
X63125000Y21900000D01*
D45*
X63350000Y20800000D02*
X63350000Y19500000D01*
X63125000Y21900000D02*
X63125000Y21025000D01*
%TO.N,SSRX-*%
X77299999Y26034999D02*
X77000000Y25735000D01*
X66950000Y13000000D02*
X66950000Y11731800D01*
X80575001Y26034999D02*
X77299999Y26034999D01*
X68950001Y10024999D02*
X69250000Y9725000D01*
X68656801Y10024999D02*
X68950001Y10024999D01*
X80675000Y25935000D02*
X80575001Y26034999D01*
X66950000Y11731800D02*
X68656801Y10024999D01*
D47*
%TO.N,TXE_N*%
X58700000Y17800000D02*
X57000000Y19500000D01*
X57000000Y19500000D02*
X55000000Y19500000D01*
X45765281Y41074130D02*
X46118003Y41426855D01*
X45497429Y39618345D02*
X45582281Y39533493D01*
X55000000Y19500000D02*
X48500000Y26000000D01*
X46542267Y41002590D02*
X46189542Y40649868D01*
D45*
X61500000Y17650000D02*
X58850000Y17650000D01*
D47*
X48500000Y26000000D02*
X48500000Y38000000D01*
X46444100Y40055901D02*
X46444100Y40055900D01*
D45*
X58700000Y17800000D02*
X58850000Y17650000D01*
D47*
X47038068Y39461932D02*
X47122921Y39377079D01*
X35600000Y42300000D02*
X36810000Y43510000D01*
X48500000Y38000000D02*
X47896985Y38603015D01*
X46613804Y40225607D02*
X46966609Y40578412D01*
X46444100Y40055900D02*
X46613804Y40225607D01*
X46189542Y40649868D02*
X46019837Y40480163D01*
X47390873Y40154147D02*
X47038069Y39801342D01*
X45921693Y39533493D02*
X46444100Y40055901D01*
X47122921Y39377079D02*
X47896985Y38603015D01*
X47306021Y40578411D02*
X47390873Y40493559D01*
X36810000Y43510000D02*
X37390000Y43510000D01*
X46457415Y41426854D02*
X46542267Y41342002D01*
X46019837Y40480163D02*
X45497429Y39957756D01*
X37390000Y43510000D02*
X42990000Y43510000D01*
X42990000Y43510000D02*
X45425869Y41074131D01*
X47038069Y39801342D02*
G75*
G03*
X47038031Y39461896I169731J-169742D01*
G01*
X46966609Y40578412D02*
G75*
G02*
X47306006Y40578397I169691J-169712D01*
G01*
X47390873Y40493559D02*
G75*
G02*
X47390826Y40154194I-169673J-169659D01*
G01*
X46118003Y41426855D02*
G75*
G02*
X46457407Y41426846I169697J-169755D01*
G01*
X45582281Y39533493D02*
G75*
G03*
X45921693Y39533493I169706J169704D01*
G01*
X46542267Y41342002D02*
G75*
G02*
X46542263Y41002594I-169667J-169702D01*
G01*
X45425869Y41074131D02*
G75*
G03*
X45765306Y41074105I169731J169669D01*
G01*
X45497429Y39957756D02*
G75*
G03*
X45497478Y39618395I169671J-169656D01*
G01*
%TO.N,SWCLK*%
X31040000Y49260000D02*
X31200000Y49100000D01*
X31040000Y50900000D02*
X31040000Y49260000D01*
%TO.N,SWDIO*%
X26000000Y50860000D02*
X26000000Y49100000D01*
X25960000Y50900000D02*
X26000000Y50860000D01*
%TO.N,GPIO0*%
X21250000Y47500000D02*
X20160000Y48590000D01*
X20160000Y48590000D02*
X19610000Y48590000D01*
X52050000Y10000000D02*
X47000000Y10000000D01*
D45*
X56500000Y14450000D02*
X61500000Y14450000D01*
D47*
X56125000Y14075000D02*
X52050000Y10000000D01*
X45250000Y11750000D02*
X45250000Y21500000D01*
D45*
X56125000Y14075000D02*
X56500000Y14450000D01*
D47*
X47000000Y10000000D02*
X45250000Y11750000D01*
D45*
%TO.N,DATA_15*%
X61175000Y21875000D02*
X61175000Y21025000D01*
X62150000Y20050000D02*
X62150000Y19500000D01*
D47*
X61175000Y21875000D02*
X61175000Y25387500D01*
D45*
X61175000Y21025000D02*
X62150000Y20050000D01*
D47*
%TO.N,CLK*%
X68325000Y21275000D02*
X68050000Y21000000D01*
X35600000Y27100000D02*
X36770000Y28270000D01*
D45*
X67350000Y20275000D02*
X67350000Y19500000D01*
D47*
X68050000Y21000000D02*
X68050000Y20975000D01*
X40230000Y28270000D02*
X37390000Y28270000D01*
D45*
X68050000Y20975000D02*
X67350000Y20275000D01*
D47*
X40750000Y27750000D02*
X40230000Y28270000D01*
X36770000Y28270000D02*
X37390000Y28270000D01*
X68325000Y25387500D02*
X68325000Y21275000D01*
%TO.N,DATA_2*%
X39410000Y10490000D02*
X37390000Y10490000D01*
X74150000Y15550000D02*
X73750000Y15950000D01*
X40800000Y9100000D02*
X39410000Y10490000D01*
D45*
X73750000Y15950000D02*
X73650000Y16050000D01*
X73650000Y16050000D02*
X68000000Y16050000D01*
%TO.N,DATA_7*%
X68800000Y19050000D02*
X68600000Y18850000D01*
D47*
X39170000Y25730000D02*
X37390000Y25730000D01*
X68800000Y19050000D02*
X70750000Y21000000D01*
X40800000Y24100000D02*
X39170000Y25730000D01*
D45*
X68600000Y18850000D02*
X68000000Y18850000D01*
D47*
%TO.N,~{RESET_N}*%
X20220000Y42900000D02*
X19610000Y43510000D01*
X44775000Y25225000D02*
X43050000Y25225000D01*
D45*
X53250000Y14750000D02*
X51962500Y14750000D01*
D47*
X51962500Y16987500D02*
X51962500Y14750000D01*
X51975000Y18775000D02*
X45750000Y25000000D01*
X21250000Y42900000D02*
X20220000Y42900000D01*
X45000000Y25000000D02*
X44775000Y25225000D01*
D45*
X61500000Y15250000D02*
X53750000Y15250000D01*
X53750000Y15250000D02*
X53250000Y14750000D01*
D47*
X51975000Y17000000D02*
X51975000Y18775000D01*
X45750000Y25000000D02*
X45000000Y25000000D01*
X51975000Y17000000D02*
X51962500Y16987500D01*
D45*
%TO.N,D-*%
X63975000Y11000000D02*
X63975001Y10999999D01*
X64150000Y12099999D02*
X63975000Y11924999D01*
X80675000Y17935000D02*
X80575001Y18034999D01*
X64150000Y12800000D02*
X64150000Y12099999D01*
X63975001Y9799999D02*
X64275000Y9500000D01*
X63975001Y10999999D02*
X63975001Y9799999D01*
X80575001Y18034999D02*
X78599999Y18034999D01*
X63975000Y11924999D02*
X63975000Y11000000D01*
X78599999Y18034999D02*
X78300000Y17735000D01*
D47*
%TO.N,DATA_11*%
X65075000Y22600000D02*
X65075000Y25387500D01*
D45*
X65350000Y22325000D02*
X65350000Y19500000D01*
X65075000Y22600000D02*
X65350000Y22325000D01*
%TO.N,GPIO1*%
X56600000Y13750000D02*
X56900000Y14050000D01*
D47*
X21250000Y49500000D02*
X21240000Y49500000D01*
X44475000Y11775000D02*
X46750000Y9500000D01*
D45*
X56900000Y14050000D02*
X61500000Y14050000D01*
D47*
X21240000Y49500000D02*
X19610000Y51130000D01*
X44475000Y21725000D02*
X44475000Y11775000D01*
X46750000Y9500000D02*
X52350000Y9500000D01*
X45250000Y22500000D02*
X44475000Y21725000D01*
X52350000Y9500000D02*
X56600000Y13750000D01*
%TO.N,RXF_N*%
X44698429Y38551571D02*
X44613577Y38636423D01*
X45122693Y37787896D02*
X44893911Y37559114D01*
X45716665Y37533335D02*
X45716666Y37533334D01*
X45318140Y37134811D02*
X45716665Y37533335D01*
X45716666Y37533334D02*
X46221252Y38037921D01*
X46819760Y36090828D02*
X46590901Y35861972D01*
X47069777Y37528791D02*
X46984922Y37613646D01*
X36670000Y40970000D02*
X37390000Y40970000D01*
X46645511Y37613646D02*
X46140932Y37109068D01*
X44469648Y37983378D02*
X44698428Y38212161D01*
X46140932Y37109068D02*
X46140933Y37109067D01*
D45*
X58500000Y17250000D02*
X58350000Y17400000D01*
D47*
X46221252Y38377332D02*
X46136397Y38462187D01*
X44613577Y38636423D02*
X42280000Y40970000D01*
X48000000Y25750000D02*
X48000000Y35250000D01*
X46565196Y36684803D02*
X46565199Y36684801D01*
D45*
X61500000Y17250000D02*
X58500000Y17250000D01*
D47*
X44554501Y37559113D02*
X44469648Y37643966D01*
X45292400Y37957600D02*
X45122693Y37787896D01*
X45796986Y38462187D02*
X45292399Y37957601D01*
X58350000Y17400000D02*
X56750000Y19000000D01*
X35600000Y39900000D02*
X36670000Y40970000D01*
X42280000Y40970000D02*
X41996255Y40970000D01*
X46166634Y36286238D02*
X46395490Y36515097D01*
X46140933Y37109067D02*
X45742407Y36710544D01*
X56750000Y19000000D02*
X54750000Y19000000D01*
X45402997Y36710543D02*
X45318141Y36795399D01*
X54750000Y19000000D02*
X48000000Y25750000D01*
X46251489Y35861972D02*
X46166633Y35946828D01*
X45292399Y37957601D02*
X45292400Y37957600D01*
X41996255Y40970000D02*
X37390000Y40970000D01*
X46395490Y36515097D02*
X46565196Y36684803D01*
X48000000Y35250000D02*
X47159172Y36090828D01*
X46565199Y36684801D02*
X47069777Y37189380D01*
X46590901Y35861972D02*
G75*
G02*
X46251489Y35861972I-169706J169701D01*
G01*
X44469648Y37643966D02*
G75*
G02*
X44469620Y37983406I169652J169734D01*
G01*
X46221252Y38037921D02*
G75*
G03*
X46221226Y38377306I-169752J169679D01*
G01*
X44893911Y37559114D02*
G75*
G02*
X44554495Y37559107I-169711J169686D01*
G01*
X46166633Y35946828D02*
G75*
G02*
X46166666Y36286205I169667J169672D01*
G01*
X44698428Y38212161D02*
G75*
G03*
X44698463Y38551604I-169728J169739D01*
G01*
X45742407Y36710544D02*
G75*
G02*
X45402995Y36710541I-169707J169656D01*
G01*
X46984922Y37613646D02*
G75*
G03*
X46645510Y37613647I-169706J-169703D01*
G01*
X47159172Y36090828D02*
G75*
G03*
X46819760Y36090828I-169706J-169701D01*
G01*
X46136397Y38462187D02*
G75*
G03*
X45796985Y38462188I-169706J-169703D01*
G01*
X47069777Y37189380D02*
G75*
G03*
X47069792Y37528806I-169677J169720D01*
G01*
X45318141Y36795399D02*
G75*
G02*
X45318145Y37134805I169659J169701D01*
G01*
D45*
%TO.N,D+*%
X63525000Y11924999D02*
X63525000Y11000000D01*
X63350000Y12800000D02*
X63350000Y12099999D01*
X63524999Y9799999D02*
X63225000Y9500000D01*
X63524999Y10999999D02*
X63524999Y9799999D01*
X63525000Y11000000D02*
X63524999Y10999999D01*
X80575001Y18485001D02*
X78599999Y18485001D01*
X80675000Y18585000D02*
X80575001Y18485001D01*
X63350000Y12099999D02*
X63525000Y11924999D01*
X78599999Y18485001D02*
X78300000Y18785000D01*
D47*
%TO.N,WR_N*%
X47500000Y32500000D02*
X46341284Y33658716D01*
X56500000Y18500000D02*
X54500000Y18500000D01*
X46227385Y35072175D02*
X46142530Y35157030D01*
X45352090Y33348349D02*
X45267234Y33433205D01*
X43570189Y35469701D02*
X44050242Y35949757D01*
X44898778Y35101222D02*
X45378852Y35581297D01*
X45577602Y34082985D02*
X45747308Y34252691D01*
X44954586Y36005563D02*
X44474511Y35525489D01*
X43655044Y35045435D02*
X43570188Y35130291D01*
X44898775Y35101224D02*
X44898778Y35101222D01*
D45*
X61500000Y16450000D02*
X58550000Y16450000D01*
D47*
X58400000Y16600000D02*
X56500000Y18500000D01*
X44474511Y35525489D02*
X44474512Y35525488D01*
X45747308Y34252691D02*
X45747311Y34252689D01*
X45323044Y34676956D02*
X45323045Y34676955D01*
X44050242Y35949757D02*
X44050245Y35949755D01*
X54500000Y18500000D02*
X47500000Y25500000D01*
X44418686Y34621132D02*
X44898775Y35101224D01*
X45803119Y35157030D02*
X45323044Y34676956D01*
X44050245Y35949755D02*
X44219950Y36119461D01*
X44503541Y34196866D02*
X44418685Y34281722D01*
X45323045Y34676955D02*
X44842953Y34196866D01*
X35600000Y37100000D02*
X36930000Y38430000D01*
X41637416Y38362584D02*
X41570000Y38430000D01*
X44474512Y35525488D02*
X43994456Y35045435D01*
X45267235Y33772615D02*
X45577602Y34082985D01*
X47500000Y25500000D02*
X47500000Y32500000D01*
X43371422Y36628578D02*
X41637416Y38362584D01*
X44219950Y36119461D02*
X44530352Y36429863D01*
X36930000Y38430000D02*
X37390000Y38430000D01*
X44530352Y36769274D02*
X44445499Y36854127D01*
X45378852Y35920708D02*
X45293997Y36005563D01*
X46001872Y33658716D02*
X45691502Y33348349D01*
X45747311Y34252689D02*
X46227385Y34732764D01*
X43456274Y36543726D02*
X43371422Y36628578D01*
D45*
X58550000Y16450000D02*
X58400000Y16600000D01*
D47*
X41570000Y38430000D02*
X37390000Y38430000D01*
X44106087Y36854127D02*
X43795685Y36543726D01*
X44418685Y34281722D02*
G75*
G02*
X44418712Y34621105I169715J169678D01*
G01*
X43795685Y36543726D02*
G75*
G02*
X43456273Y36543725I-169706J169703D01*
G01*
X45293997Y36005563D02*
G75*
G03*
X44954585Y36005564I-169706J-169703D01*
G01*
X43994456Y35045435D02*
G75*
G02*
X43655044Y35045435I-169706J169701D01*
G01*
X46227385Y34732764D02*
G75*
G03*
X46227416Y35072206I-169685J169736D01*
G01*
X46142530Y35157030D02*
G75*
G03*
X45803120Y35157030I-169705J-169703D01*
G01*
X44842953Y34196866D02*
G75*
G02*
X44503541Y34196866I-169706J169701D01*
G01*
X44445499Y36854127D02*
G75*
G03*
X44106087Y36854127I-169706J-169704D01*
G01*
X44530352Y36429863D02*
G75*
G03*
X44530384Y36769305I-169752J169737D01*
G01*
X45378852Y35581297D02*
G75*
G03*
X45378850Y35920706I-169752J169703D01*
G01*
X46341284Y33658716D02*
G75*
G03*
X46001872Y33658716I-169706J-169701D01*
G01*
X45691502Y33348349D02*
G75*
G02*
X45352090Y33348349I-169706J169701D01*
G01*
X45267234Y33433205D02*
G75*
G02*
X45267244Y33772605I169666J169695D01*
G01*
X43570188Y35130291D02*
G75*
G02*
X43570184Y35469705I169712J169709D01*
G01*
%TO.N,DATA_8*%
X67025000Y23200000D02*
X67025000Y25387500D01*
D45*
X67025000Y23200000D02*
X67025000Y22875000D01*
X66550000Y22400000D02*
X66550000Y19500000D01*
X67025000Y22875000D02*
X66550000Y22400000D01*
D47*
%TO.N,DATA_6*%
X40800000Y21700000D02*
X39310000Y23190000D01*
D45*
X69850000Y18450000D02*
X68000000Y18450000D01*
X70050000Y18650000D02*
X69850000Y18450000D01*
D47*
X70050000Y18650000D02*
X71550000Y20150000D01*
X39310000Y23190000D02*
X37390000Y23190000D01*
D45*
%TO.N,DATA_3*%
X73850000Y16700000D02*
X73600000Y16450000D01*
X73600000Y16450000D02*
X68000000Y16450000D01*
D47*
X73850000Y16700000D02*
X74450000Y17300000D01*
X39070000Y13030000D02*
X37390000Y13030000D01*
X40800000Y11300000D02*
X39070000Y13030000D01*
D45*
%TO.N,DATA_0*%
X71200000Y15050000D02*
X71000000Y15250000D01*
D47*
X71750000Y14500000D02*
X71200000Y15050000D01*
X39770000Y2870000D02*
X37390000Y2870000D01*
X40800000Y3900000D02*
X39770000Y2870000D01*
D45*
X71000000Y15250000D02*
X68000000Y15250000D01*
%TO.N,SSRX+*%
X80675000Y26585000D02*
X80575001Y26485001D01*
X67350000Y11968200D02*
X68843199Y10475001D01*
X77299999Y26485001D02*
X77000000Y26785000D01*
X80575001Y26485001D02*
X77299999Y26485001D01*
X67350000Y13000000D02*
X67350000Y11968200D01*
X68843199Y10475001D02*
X68950001Y10475001D01*
X68950001Y10475001D02*
X69250000Y10775000D01*
D46*
%TO.N,GNDD*%
X82815000Y15485000D02*
X83350000Y14950000D01*
D45*
X64150000Y16850000D02*
X64750000Y16250000D01*
D46*
X42250000Y45000000D02*
X41200000Y46050000D01*
D48*
X80675000Y25285000D02*
X83150000Y25285000D01*
D46*
X79000000Y6500000D02*
X79375000Y6500000D01*
X83350000Y27550000D02*
X83350000Y30000000D01*
X83065000Y27835000D02*
X83350000Y27550000D01*
X15750000Y42750000D02*
X15750000Y45250000D01*
X80800000Y27835000D02*
X83065000Y27835000D01*
D45*
X66100000Y14850000D02*
X66075000Y14850000D01*
D49*
X39850000Y20650000D02*
X41250000Y19250000D01*
D46*
X79375000Y6500000D02*
X80275000Y7400000D01*
X83350000Y19785000D02*
X83350000Y17385000D01*
D48*
X80675000Y19885000D02*
X83250000Y19885000D01*
D46*
X80800000Y15485000D02*
X82815000Y15485000D01*
X54475000Y4100000D02*
X54500000Y4125000D01*
X21375000Y20650000D02*
X21400000Y20625000D01*
X19610000Y20650000D02*
X16350000Y20650000D01*
X83350000Y22585000D02*
X83350000Y19785000D01*
X83350000Y17385000D02*
X83350000Y14950000D01*
D49*
X37390000Y20650000D02*
X39850000Y20650000D01*
D46*
X16350000Y20650000D02*
X15750000Y21250000D01*
D45*
X66400000Y14850000D02*
X66250000Y15000000D01*
D46*
X80275000Y7400000D02*
X80275000Y8250000D01*
X52800000Y4100000D02*
X54475000Y4100000D01*
X83350000Y25485000D02*
X83150000Y25285000D01*
X28500000Y50900000D02*
X28500000Y49500000D01*
X62475000Y4100000D02*
X62450000Y4125000D01*
X51500000Y29725000D02*
X51500000Y31250000D01*
X41200000Y46050000D02*
X37390000Y46050000D01*
D45*
X64950000Y19500000D02*
X64950000Y16450000D01*
D46*
X15750000Y42750000D02*
X15750000Y32250000D01*
X83150000Y25285000D02*
X83350000Y25085000D01*
D45*
X64150000Y19500000D02*
X64150000Y16850000D01*
D46*
X16550000Y46050000D02*
X19610000Y46050000D01*
X15750000Y33350000D02*
X19610000Y33350000D01*
X64000000Y4100000D02*
X62475000Y4100000D01*
X83350000Y25085000D02*
X83350000Y22585000D01*
X37390000Y33350000D02*
X40900000Y33350000D01*
X83250000Y19885000D02*
X83350000Y19785000D01*
D47*
X68000000Y14850000D02*
X66400000Y14850000D01*
D46*
X83350000Y30350000D02*
X83500000Y30500000D01*
X19610000Y20650000D02*
X21375000Y20650000D01*
X15750000Y45250000D02*
X16550000Y46050000D01*
X40900000Y33350000D02*
X41750000Y32500000D01*
X15750000Y32250000D02*
X15750000Y33350000D01*
D45*
X64950000Y16450000D02*
X64750000Y16250000D01*
D46*
X83350000Y27550000D02*
X83350000Y25485000D01*
D49*
X37390000Y20650000D02*
X34650000Y20650000D01*
D46*
X15750000Y21250000D02*
X15750000Y32250000D01*
D45*
X66250000Y15000000D02*
X66100000Y14850000D01*
D48*
%TO.N,GNDA*%
X62500000Y29250000D02*
X63750000Y29250000D01*
X62475000Y31112500D02*
X62475000Y29275000D01*
X63750000Y29250000D02*
X64250000Y29250000D01*
D46*
X81000000Y34275000D02*
X81000000Y33000000D01*
X69412500Y51000000D02*
X71087500Y51000000D01*
D48*
X62125000Y32875000D02*
X61825000Y32575000D01*
D46*
X78500000Y42462500D02*
X80987500Y42462500D01*
X78500000Y34275000D02*
X81000000Y34275000D01*
X59250000Y29725000D02*
X59250000Y31500000D01*
X61075000Y52250000D02*
X60000000Y51175000D01*
D48*
X62125000Y32875000D02*
X62475000Y32525000D01*
D46*
X62750000Y52250000D02*
X61075000Y52250000D01*
D48*
X64425000Y32575000D02*
X64425000Y31112500D01*
X64425000Y29425000D02*
X64250000Y29250000D01*
D46*
X66750000Y47462500D02*
X68512500Y47462500D01*
X62837500Y49250000D02*
X61162500Y49250000D01*
D48*
X64125000Y32875000D02*
X63775000Y32525000D01*
D50*
X64125000Y32875000D02*
X64425000Y32575000D01*
D46*
X78500000Y34275000D02*
X78500000Y33000000D01*
X56250000Y32250000D02*
X56750000Y31750000D01*
X59162500Y52250000D02*
X57487500Y52250000D01*
D48*
X63775000Y29275000D02*
X63750000Y29250000D01*
X63775000Y32525000D02*
X63775000Y31112500D01*
D46*
X70750000Y29712500D02*
X70750000Y31250000D01*
D48*
X62475000Y32525000D02*
X62475000Y31112500D01*
D46*
X59087500Y51000000D02*
X57412500Y51000000D01*
X68975000Y37975000D02*
X69250000Y38250000D01*
D48*
X69631370Y34000000D02*
X67675000Y32043630D01*
X65725000Y29725000D02*
X65725000Y31112500D01*
D46*
X80987500Y42462500D02*
X81000000Y42475000D01*
D48*
X61825000Y32575000D02*
X61825000Y31112500D01*
X63775000Y24325000D02*
X63775000Y25387500D01*
D46*
X56750000Y29725000D02*
X59250000Y29725000D01*
X81000000Y42475000D02*
X81000000Y44000000D01*
X68512500Y47462500D02*
X68525000Y47475000D01*
D48*
X64000000Y24100000D02*
X63775000Y24325000D01*
X63775000Y31112500D02*
X63775000Y29275000D01*
D46*
X78487500Y42475000D02*
X78500000Y42462500D01*
X60750000Y37475000D02*
X60750000Y38900000D01*
X59087500Y49250000D02*
X57412500Y49250000D01*
D48*
X67675000Y32043630D02*
X67675000Y31112500D01*
D46*
X76250000Y42475000D02*
X78487500Y42475000D01*
D48*
X69750000Y34000000D02*
X69631370Y34000000D01*
X65250000Y29250000D02*
X64250000Y29250000D01*
D46*
X76250000Y42475000D02*
X76250000Y44050000D01*
X71337500Y49250000D02*
X69662500Y49250000D01*
X62837500Y51000000D02*
X61162500Y51000000D01*
X68500000Y47662500D02*
X68500000Y49337500D01*
D48*
X65250000Y29250000D02*
X65725000Y29725000D01*
D46*
X68975000Y37975000D02*
X66750000Y37975000D01*
X69250000Y38250000D02*
X69250000Y39775000D01*
X69412500Y52250000D02*
X71087500Y52250000D01*
X60750000Y38900000D02*
X60775000Y38925000D01*
X65912500Y52250000D02*
X67587500Y52250000D01*
X76250000Y34275000D02*
X78500000Y34275000D01*
D48*
X61825000Y29925000D02*
X62500000Y29250000D01*
X64425000Y31112500D02*
X64425000Y29425000D01*
D46*
X65662500Y51000000D02*
X67337500Y51000000D01*
X61000000Y49337500D02*
X61000000Y47662500D01*
X63250000Y37475000D02*
X60750000Y37475000D01*
X56750000Y31000000D02*
X56750000Y29725000D01*
X78500000Y42462500D02*
X78500000Y44000000D01*
D48*
X61825000Y31112500D02*
X61825000Y29925000D01*
D46*
X67587500Y49250000D02*
X65912500Y49250000D01*
D48*
X62475000Y29275000D02*
X62500000Y29250000D01*
D46*
X76250000Y34275000D02*
X76250000Y33000000D01*
X69750000Y47662500D02*
X69750000Y49337500D01*
X56750000Y31750000D02*
X56750000Y31000000D01*
X59250000Y49337500D02*
X59250000Y47662500D01*
D47*
%TO.N,RD_N*%
X44457476Y32042524D02*
X44981264Y32566313D01*
X44457473Y32042526D02*
X44457476Y32042524D01*
X43354387Y33145613D02*
X41863380Y34636620D01*
X44556998Y32990579D02*
X44033209Y32466791D01*
X43863503Y32297086D02*
X43509452Y31943035D01*
X45829813Y32057208D02*
X45744958Y32142063D01*
X43933670Y31518720D02*
X44457473Y32042526D01*
X43170042Y31943034D02*
X43085189Y32027887D01*
X43085189Y32367299D02*
X43439238Y32721351D01*
X54250000Y18000000D02*
X47000000Y25250000D01*
X45405547Y32142063D02*
X44881742Y31618259D01*
X46154539Y30345460D02*
X46154542Y30345458D01*
X36790000Y35890000D02*
X37390000Y35890000D01*
X44881742Y31618259D02*
X44881743Y31618257D01*
X45730276Y30769724D02*
X45206486Y30245937D01*
X45984833Y30175754D02*
X46154539Y30345460D01*
X44018525Y31094454D02*
X43933669Y31179310D01*
X43439239Y33060761D02*
X43354387Y33145613D01*
X45630768Y29821686D02*
X45984833Y30175754D01*
X45306009Y31193991D02*
X45829813Y31717796D01*
X46678330Y31208658D02*
X46593475Y31293513D01*
X46409103Y29751485D02*
X46055035Y29397420D01*
X44881743Y31618257D02*
X44357937Y31094454D01*
D45*
X58200000Y16050000D02*
X58050000Y16200000D01*
D47*
X35600000Y34700000D02*
X36790000Y35890000D01*
D45*
X61500000Y16050000D02*
X58200000Y16050000D01*
D47*
X45730275Y30769725D02*
X45730276Y30769724D01*
X44033209Y32466791D02*
X44033210Y32466790D01*
X46154542Y30345458D02*
X46678330Y30869247D01*
X41863380Y34636620D02*
X40610000Y35890000D01*
X40610000Y35890000D02*
X37390000Y35890000D01*
X56250000Y18000000D02*
X54250000Y18000000D01*
X45715623Y29397420D02*
X45630767Y29482276D01*
X58050000Y16200000D02*
X56250000Y18000000D01*
X44033210Y32466790D02*
X43863503Y32297086D01*
X44867076Y30245936D02*
X44782220Y30330792D01*
X44981264Y32905724D02*
X44896409Y32990579D01*
X47000000Y29500000D02*
X46748515Y29751485D01*
X47000000Y25250000D02*
X47000000Y29500000D01*
X44782219Y30670204D02*
X45306008Y31193992D01*
X45306008Y31193992D02*
X45306009Y31193991D01*
X46254064Y31293513D02*
X45730275Y30769725D01*
X43933669Y31179310D02*
G75*
G02*
X43933684Y31518706I169731J169690D01*
G01*
X43509452Y31943035D02*
G75*
G02*
X43169995Y31942987I-169752J169665D01*
G01*
X43085189Y32027887D02*
G75*
G02*
X43085182Y32367306I169711J169713D01*
G01*
X46593475Y31293513D02*
G75*
G03*
X46254065Y31293513I-169705J-169703D01*
G01*
X43439238Y32721351D02*
G75*
G03*
X43439283Y33060804I-169738J169749D01*
G01*
X46678330Y30869247D02*
G75*
G03*
X46678378Y31208705I-169730J169753D01*
G01*
X44981264Y32566313D02*
G75*
G03*
X44981246Y32905705I-169664J169687D01*
G01*
X44357937Y31094454D02*
G75*
G02*
X44018525Y31094454I-169706J169701D01*
G01*
X46748515Y29751485D02*
G75*
G03*
X46409103Y29751485I-169706J-169701D01*
G01*
X45206486Y30245937D02*
G75*
G02*
X44867096Y30245955I-169686J169663D01*
G01*
X44782220Y30330792D02*
G75*
G02*
X44782217Y30670206I169680J169708D01*
G01*
X45744958Y32142063D02*
G75*
G03*
X45405546Y32142064I-169706J-169703D01*
G01*
X46055035Y29397420D02*
G75*
G02*
X45715623Y29397420I-169706J169701D01*
G01*
X45829813Y31717796D02*
G75*
G03*
X45829811Y32057206I-169713J169704D01*
G01*
X45630767Y29482276D02*
G75*
G02*
X45630748Y29821705I169733J169724D01*
G01*
X44896409Y32990579D02*
G75*
G03*
X44556997Y32990580I-169706J-169703D01*
G01*
%TO.N,DATA_1*%
X39910000Y5410000D02*
X37390000Y5410000D01*
X73050000Y15000000D02*
X72550000Y15500000D01*
X40800000Y6300000D02*
X39910000Y5410000D01*
D45*
X72550000Y15500000D02*
X72400000Y15650000D01*
X72400000Y15650000D02*
X68000000Y15650000D01*
D47*
%TO.N,OE_N*%
X43373507Y28126493D02*
X43373508Y28126492D01*
X42100708Y29399292D02*
X42100709Y29399291D01*
X35600000Y29900000D02*
X36510000Y30810000D01*
X45592991Y27291255D02*
X45508136Y27376110D01*
X41153995Y29301114D02*
X41676441Y29823559D01*
X44222041Y27277959D02*
X44744502Y27800421D01*
X44744502Y28139832D02*
X44659647Y28224687D01*
X56000000Y17500000D02*
X54000000Y17500000D01*
X36510000Y30810000D02*
X37390000Y30810000D01*
X44830963Y26189817D02*
X44900866Y26259723D01*
X42002545Y28452597D02*
X42524972Y28975027D01*
X43784451Y26331247D02*
X43699595Y26416103D01*
X42524975Y28975025D02*
X43047394Y29497445D01*
X42949242Y28550758D02*
X42426812Y28028331D01*
D45*
X61500000Y15650000D02*
X57850000Y15650000D01*
D47*
X45070574Y26429426D02*
X45592991Y26951844D01*
X43797775Y27702225D02*
X43275312Y27179765D01*
X44915818Y25765550D02*
X44830963Y25850405D01*
X42087400Y28028331D02*
X42002544Y28113187D01*
X41082471Y30417529D02*
X40997619Y30502381D01*
X43895956Y28988352D02*
X43811101Y29073207D01*
X45070572Y26429429D02*
X45070574Y26429426D01*
X42949241Y28550759D02*
X42949242Y28550758D01*
X44646307Y26853693D02*
X44646308Y26853692D01*
X41676442Y29823558D02*
X41846147Y29993264D01*
X43471690Y29073207D02*
X42949241Y28550759D01*
X43047394Y29836856D02*
X42962539Y29921711D01*
X45168725Y27376110D02*
X44646307Y26853693D01*
X41846147Y29993264D02*
X42198887Y30346004D01*
X42935902Y27179764D02*
X42851046Y27264620D01*
X44646308Y26853692D02*
X44123861Y26331248D01*
X40690000Y30810000D02*
X37390000Y30810000D01*
D45*
X57850000Y15650000D02*
X57700000Y15800000D01*
D47*
X41774622Y30770268D02*
X41421882Y30417529D01*
X57700000Y15800000D02*
X56000000Y17500000D01*
X54000000Y17500000D02*
X45664546Y25835454D01*
X42198887Y30685415D02*
X42114034Y30770268D01*
X43699594Y26755515D02*
X44222040Y27277960D01*
X44222040Y27277960D02*
X44222041Y27277959D01*
X42851045Y27604032D02*
X43373507Y28126493D01*
X40997619Y30502381D02*
X40690000Y30810000D01*
X44320236Y28224687D02*
X43797774Y27702226D01*
X42524972Y28975027D02*
X42524975Y28975025D01*
X43797774Y27702226D02*
X43797775Y27702225D01*
X45325134Y25835454D02*
X45255228Y25765551D01*
X41676441Y29823559D02*
X41676442Y29823558D01*
X41238852Y28876846D02*
X41153996Y28961702D01*
X43373508Y28126492D02*
X43895956Y28648941D01*
X44900866Y26259723D02*
X45070572Y26429429D01*
X42623128Y29921711D02*
X42100708Y29399292D01*
X42100709Y29399291D02*
X41578262Y28876847D01*
X41421882Y30417529D02*
G75*
G02*
X41082472Y30417529I-169705J169703D01*
G01*
X44123861Y26331248D02*
G75*
G02*
X43784496Y26331291I-169661J169652D01*
G01*
X45255228Y25765551D02*
G75*
G02*
X44915796Y25765527I-169728J169749D01*
G01*
X43275312Y27179765D02*
G75*
G02*
X42935896Y27179757I-169712J169735D01*
G01*
X44659647Y28224687D02*
G75*
G03*
X44320237Y28224687I-169705J-169703D01*
G01*
X42114034Y30770268D02*
G75*
G03*
X41774622Y30770268I-169706J-169704D01*
G01*
X41578262Y28876847D02*
G75*
G02*
X41238896Y28876889I-169662J169653D01*
G01*
X45664546Y25835454D02*
G75*
G03*
X45325134Y25835454I-169706J-169701D01*
G01*
X43047394Y29497445D02*
G75*
G03*
X43047444Y29836905I-169694J169755D01*
G01*
X45592991Y26951844D02*
G75*
G03*
X45592942Y27291205I-169691J169656D01*
G01*
X42962539Y29921711D02*
G75*
G03*
X42623129Y29921711I-169705J-169703D01*
G01*
X43895956Y28648941D02*
G75*
G03*
X43895910Y28988305I-169656J169659D01*
G01*
X44830963Y25850405D02*
G75*
G02*
X44830974Y26189806I169737J169695D01*
G01*
X42002544Y28113187D02*
G75*
G02*
X42002536Y28452606I169656J169713D01*
G01*
X42851046Y27264620D02*
G75*
G02*
X42851071Y27604006I169754J169680D01*
G01*
X43699595Y26416103D02*
G75*
G02*
X43699603Y26755505I169705J169697D01*
G01*
X42198887Y30346004D02*
G75*
G03*
X42198878Y30685405I-169687J169696D01*
G01*
X41153996Y28961702D02*
G75*
G02*
X41154003Y29301105I169704J169698D01*
G01*
X45508136Y27376110D02*
G75*
G03*
X45168724Y27376111I-169706J-169703D01*
G01*
X43811101Y29073207D02*
G75*
G03*
X43471691Y29073207I-169705J-169703D01*
G01*
X44744502Y27800421D02*
G75*
G03*
X44744476Y28139805I-169702J169679D01*
G01*
X42426812Y28028331D02*
G75*
G02*
X42087400Y28028331I-169706J169701D01*
G01*
%TO.N,Net-(J7-In)*%
X64250000Y52750000D02*
X64250000Y47475000D01*
D45*
%TO.N,SSTX-*%
X75950001Y7774999D02*
X76250000Y7475000D01*
X73975000Y6750000D02*
X74999999Y7774999D01*
X80675000Y23985000D02*
X80575001Y24084999D01*
X78549999Y24084999D02*
X78250000Y23785000D01*
X80575001Y24084999D02*
X78549999Y24084999D01*
X74999999Y7774999D02*
X75950001Y7774999D01*
D47*
%TO.N,Net-(U4-PD)*%
X67675000Y25387500D02*
X67675000Y26425000D01*
X67675000Y26425000D02*
X68000000Y26750000D01*
X68000000Y26750000D02*
X70712500Y26750000D01*
X70712500Y26750000D02*
X70750000Y26787500D01*
%TO.N,Net-(U4-VIN)*%
X64250000Y38750000D02*
X64250000Y39787500D01*
X65075000Y37925000D02*
X64250000Y38750000D01*
X66750000Y39787500D02*
X64250000Y39787500D01*
X65075000Y31112500D02*
X65075000Y37925000D01*
D46*
%TO.N,/VA*%
X76000000Y37250000D02*
X71500000Y32750000D01*
D50*
X68325000Y31575000D02*
X68325000Y31112500D01*
D48*
X67950000Y29500000D02*
X67950000Y29515858D01*
X67750000Y28000000D02*
X68325000Y28575000D01*
D47*
X66375000Y34150000D02*
X66375000Y34650000D01*
D46*
X61175000Y34100000D02*
X60750000Y34525000D01*
D48*
X67950000Y29500000D02*
X67975000Y29500000D01*
X61175000Y31112500D02*
X61175000Y29325000D01*
X68325000Y29500000D02*
X68325000Y31112500D01*
D50*
X76000000Y37325000D02*
X76000000Y37250000D01*
D47*
X66375000Y33500000D02*
X66375000Y34150000D01*
D48*
X68325000Y29150000D02*
X68325000Y29500000D01*
D50*
X71500000Y32750000D02*
X69500000Y32750000D01*
D48*
X67950000Y29500000D02*
X68325000Y29500000D01*
X66375000Y30125000D02*
X67000000Y29500000D01*
D50*
X69500000Y32750000D02*
X68325000Y31575000D01*
D46*
X76350000Y37325000D02*
X76250000Y37225000D01*
D48*
X67950000Y29515858D02*
X68329571Y29895429D01*
X67000000Y29500000D02*
X67950000Y29500000D01*
X61175000Y29325000D02*
X62500000Y28000000D01*
D46*
X83250000Y37325000D02*
X76350000Y37325000D01*
D48*
X61175000Y31112500D02*
X61175000Y34100000D01*
X66375000Y31112500D02*
X66375000Y30125000D01*
X62500000Y28000000D02*
X67750000Y28000000D01*
X68325000Y28575000D02*
X68325000Y29150000D01*
X67975000Y29500000D02*
X68325000Y29150000D01*
D47*
X66750000Y35025000D02*
X66375000Y34650000D01*
X66375000Y31112500D02*
X66375000Y34150000D01*
D46*
%TO.N,/VRT*%
X73500000Y37250000D02*
X73500000Y38750000D01*
X72250000Y36000000D02*
X73500000Y37250000D01*
X74287500Y39537500D02*
X76000000Y39537500D01*
X73500000Y38750000D02*
X74287500Y39537500D01*
D50*
X67025000Y32775000D02*
X70250000Y36000000D01*
D46*
X70250000Y36000000D02*
X72250000Y36000000D01*
D50*
X67025000Y31112500D02*
X67025000Y32775000D01*
D46*
X83250000Y39537500D02*
X76262500Y39537500D01*
X76262500Y39537500D02*
X76250000Y39525000D01*
D48*
%TO.N,/DRVD*%
X64425000Y25387500D02*
X64425000Y26300000D01*
X59475000Y27000000D02*
X59250000Y26775000D01*
X63725000Y27000000D02*
X59475000Y27000000D01*
X64425000Y26300000D02*
X63725000Y27000000D01*
D46*
X54350000Y26775000D02*
X54250000Y26675000D01*
X56750000Y26775000D02*
X59250000Y26775000D01*
X56750000Y26775000D02*
X54350000Y26775000D01*
D47*
%TO.N,Net-(U4-VRM)*%
X63125000Y31112500D02*
X63125000Y34400000D01*
X63125000Y34400000D02*
X63250000Y34525000D01*
%TO.N,Net-(C1-Pad2)*%
X66750000Y44537500D02*
X66500000Y44287500D01*
X66500000Y44287500D02*
X64487500Y44287500D01*
X64250000Y44525000D02*
X64250000Y42712500D01*
X64487500Y44287500D02*
X64250000Y44525000D01*
%TO.N,Net-(C2-Pad2)*%
X71737500Y42725000D02*
X71750000Y42712500D01*
X69237500Y42712500D02*
X69250000Y42725000D01*
X66750000Y42712500D02*
X69237500Y42712500D01*
X69250000Y42725000D02*
X71737500Y42725000D01*
D45*
%TO.N,SSTX+*%
X80575001Y24535001D02*
X78549999Y24535001D01*
X73975000Y9250000D02*
X74999999Y8225001D01*
X75950001Y8225001D02*
X76250000Y8525000D01*
X74999999Y8225001D02*
X75950001Y8225001D01*
X80675000Y24635000D02*
X80575001Y24535001D01*
X78549999Y24535001D02*
X78250000Y24835000D01*
D46*
%TO.N,Net-(C21-Pad2)*%
X83325000Y10750000D02*
X83325000Y8350000D01*
X83325000Y11675000D02*
X82250000Y12750000D01*
X83325000Y8350000D02*
X83225000Y8250000D01*
X82250000Y12750000D02*
X80000000Y12750000D01*
D48*
X79785000Y17285000D02*
X79000000Y16500000D01*
D46*
X83325000Y10750000D02*
X83325000Y11675000D01*
X79000000Y13750000D02*
X79000000Y16500000D01*
X80000000Y12750000D02*
X79000000Y13750000D01*
D48*
X80675000Y17285000D02*
X79785000Y17285000D01*
D45*
%TO.N,Net-(U2-XI)*%
X62550000Y13000000D02*
X62550000Y11850000D01*
X56775000Y8275000D02*
X56075000Y8275000D01*
X58000000Y9500000D02*
X56775000Y8275000D01*
D47*
X57450000Y4125000D02*
X57450000Y6100000D01*
X57450000Y6100000D02*
X56250000Y7300000D01*
D45*
X60200000Y9500000D02*
X60000000Y9500000D01*
X62550000Y11850000D02*
X60200000Y9500000D01*
X60000000Y9500000D02*
X58000000Y9500000D01*
D46*
%TO.N,Net-(U2-AVDD)*%
X59900000Y19750000D02*
X60425000Y19225000D01*
D47*
X70450000Y14450000D02*
X69050000Y14450000D01*
X72750000Y16850000D02*
X68000000Y16850000D01*
X65800000Y6950000D02*
X65550000Y7200000D01*
D45*
X65550000Y10400000D02*
X65350000Y10600000D01*
D47*
X74750000Y18250000D02*
X74150000Y18250000D01*
D45*
X66550000Y11550000D02*
X66550000Y13000000D01*
X60425000Y19225000D02*
X60800000Y18850000D01*
X60800000Y18850000D02*
X61500000Y18850000D01*
D47*
X75250000Y14750000D02*
X75250000Y17750000D01*
X73750000Y13250000D02*
X75250000Y14750000D01*
D46*
X59900000Y22250000D02*
X59900000Y22350000D01*
D45*
X67900000Y10200000D02*
X66550000Y11550000D01*
D46*
X54500000Y24000000D02*
X51725000Y26775000D01*
D47*
X74150000Y18250000D02*
X72750000Y16850000D01*
X75250000Y17750000D02*
X74750000Y18250000D01*
D46*
X59900000Y22350000D02*
X58250000Y24000000D01*
D45*
X64550000Y21150000D02*
X64550000Y19500000D01*
D47*
X65550000Y7200000D02*
X65550000Y10400000D01*
X70500000Y14500000D02*
X71750000Y13250000D01*
D46*
X58250000Y24000000D02*
X54500000Y24000000D01*
D47*
X69050000Y14450000D02*
X68000000Y14450000D01*
X70500000Y14500000D02*
X70450000Y14450000D01*
X71750000Y13250000D02*
X73750000Y13250000D01*
D45*
X65350000Y10600000D02*
X65350000Y13000000D01*
X67900000Y9600000D02*
X67900000Y10200000D01*
D46*
X51725000Y26775000D02*
X51500000Y26775000D01*
X59900000Y22250000D02*
X59900000Y19750000D01*
D45*
%TO.N,Net-(U2-XO)*%
X60550000Y9200000D02*
X62950000Y11600000D01*
X62950000Y11600000D02*
X62950000Y13000000D01*
D47*
X59500000Y4125000D02*
X59500000Y6500000D01*
D45*
X60550000Y7300000D02*
X60550000Y9200000D01*
D47*
X59500000Y6500000D02*
X60300000Y7300000D01*
X60300000Y7300000D02*
X60550000Y7300000D01*
D45*
%TO.N,Net-(U2-RREF)*%
X64550000Y10400000D02*
X64750000Y10200000D01*
D47*
X64950000Y5350000D02*
X66037500Y4262500D01*
D45*
X64550000Y13000000D02*
X64550000Y10400000D01*
D47*
X66037500Y4262500D02*
X66037500Y4000000D01*
X64950000Y10000000D02*
X64950000Y5350000D01*
X64750000Y10200000D02*
X64950000Y10000000D01*
D45*
%TO.N,Net-(U2-WAKEUP_N)*%
X52750000Y12500000D02*
X52000000Y12500000D01*
X55100000Y14850000D02*
X52750000Y12500000D01*
X61500000Y14850000D02*
X55100000Y14850000D01*
%TO.N,Net-(U2-SIWU_N)*%
X62000000Y16850000D02*
X62200000Y16650000D01*
X57650000Y13650000D02*
X51962500Y7962500D01*
X62200000Y14050000D02*
X61800000Y13650000D01*
X61500000Y16850000D02*
X62000000Y16850000D01*
X51962500Y7962500D02*
X51962500Y7500000D01*
X62200000Y16650000D02*
X62200000Y14050000D01*
X61800000Y13650000D02*
X57650000Y13650000D01*
%TO.N,Net-(D1-A)*%
X72687500Y4000000D02*
X74537500Y4000000D01*
%TO.N,/TODN*%
X69675000Y7775000D02*
X70700000Y6750000D01*
X65750000Y13000000D02*
X65724999Y12974999D01*
X66475000Y9006800D02*
X67706800Y7775000D01*
X65724999Y11006801D02*
X66475000Y10256800D01*
X67706800Y7775000D02*
X69675000Y7775000D01*
X66475000Y10256800D02*
X66475000Y9006800D01*
X70700000Y6750000D02*
X71025000Y6750000D01*
X65724999Y12974999D02*
X65724999Y11006801D01*
%TO.N,/TODP*%
X66175001Y12974999D02*
X66175001Y11193199D01*
X66175001Y11193199D02*
X66925000Y10443200D01*
X67893200Y8225000D02*
X69675000Y8225000D01*
X66925000Y9193200D02*
X67893200Y8225000D01*
X69675000Y8225000D02*
X70700000Y9250000D01*
X70700000Y9250000D02*
X71025000Y9250000D01*
X66925000Y10443200D02*
X66925000Y9193200D01*
X66150000Y13000000D02*
X66175001Y12974999D01*
%TD*%
%TA.AperFunction,Conductor*%
%TO.N,GNDA*%
G36*
X57746288Y52855546D02*
G01*
X57827070Y52801570D01*
X57881046Y52720788D01*
X57900000Y52625500D01*
X57900000Y48677168D01*
X57906401Y48617629D01*
X57906403Y48617622D01*
X57956646Y48482913D01*
X58042810Y48367813D01*
X58042812Y48367811D01*
X58157912Y48281647D01*
X58292621Y48231404D01*
X58292628Y48231402D01*
X58352167Y48225001D01*
X58352175Y48225000D01*
X61647825Y48225000D01*
X61647832Y48225001D01*
X61707371Y48231402D01*
X61707378Y48231404D01*
X61842087Y48281647D01*
X61957187Y48367811D01*
X61957189Y48367813D01*
X62043353Y48482913D01*
X62093596Y48617622D01*
X62093598Y48617629D01*
X62099999Y48677168D01*
X62100000Y48677175D01*
X62100000Y52625500D01*
X62118954Y52720788D01*
X62172930Y52801570D01*
X62253712Y52855546D01*
X62349000Y52874500D01*
X63150500Y52874500D01*
X63245788Y52855546D01*
X63326570Y52801570D01*
X63380546Y52720788D01*
X63399500Y52625500D01*
X63399500Y50843615D01*
X63380546Y50748327D01*
X63370099Y50726239D01*
X63321187Y50634730D01*
X63321186Y50634728D01*
X63263975Y50446132D01*
X63244659Y50250000D01*
X63263975Y50053869D01*
X63321185Y49865275D01*
X63370099Y49773763D01*
X63398301Y49680791D01*
X63399500Y49656387D01*
X63399500Y49452132D01*
X63399643Y49449482D01*
X63400000Y49436151D01*
X63400000Y48697392D01*
X63381046Y48602104D01*
X63327070Y48521322D01*
X63281718Y48485463D01*
X63131346Y48392714D01*
X63007286Y48268654D01*
X62915184Y48119332D01*
X62860002Y47952803D01*
X62860001Y47952796D01*
X62849500Y47850012D01*
X62849500Y47100001D01*
X62849678Y47096526D01*
X62850000Y47083857D01*
X62850000Y44916161D01*
X62849677Y44903491D01*
X62849500Y44900018D01*
X62849500Y44149994D01*
X62860001Y44047200D01*
X62915185Y43880668D01*
X62915186Y43880666D01*
X62964633Y43800499D01*
X63012464Y43722952D01*
X63046355Y43631900D01*
X63042823Y43534809D01*
X63012464Y43461516D01*
X62940184Y43344332D01*
X62885002Y43177803D01*
X62885001Y43177796D01*
X62874500Y43075012D01*
X62874500Y42349994D01*
X62885001Y42247203D01*
X62887361Y42240082D01*
X62900000Y42161759D01*
X62900000Y40338242D01*
X62887362Y40259923D01*
X62885002Y40252804D01*
X62885001Y40252796D01*
X62874500Y40150012D01*
X62874500Y39424994D01*
X62885001Y39322203D01*
X62887361Y39315082D01*
X62900000Y39236759D01*
X62900000Y38799000D01*
X62881046Y38703712D01*
X62827070Y38622930D01*
X62746288Y38568954D01*
X62651002Y38550000D01*
X62550024Y38550000D01*
X62447300Y38539506D01*
X62447297Y38539505D01*
X62280880Y38484360D01*
X62130718Y38391739D01*
X62039666Y38357848D01*
X61942575Y38361380D01*
X61869282Y38391739D01*
X61719118Y38484360D01*
X61719120Y38484360D01*
X61552701Y38539505D01*
X61552694Y38539506D01*
X61449981Y38550000D01*
X61000001Y38550000D01*
X61000000Y38549999D01*
X61000000Y37725001D01*
X61000001Y37725000D01*
X63001000Y37725000D01*
X63096288Y37706046D01*
X63177070Y37652070D01*
X63231046Y37571288D01*
X63250000Y37476000D01*
X63250000Y37474000D01*
X63231046Y37378712D01*
X63177070Y37297930D01*
X63096288Y37243954D01*
X63001000Y37225000D01*
X59350002Y37225000D01*
X59350001Y37224999D01*
X59350001Y37100016D01*
X59357736Y37024305D01*
X59348564Y36927584D01*
X59303076Y36841735D01*
X59228198Y36779829D01*
X59135330Y36751289D01*
X59110025Y36750000D01*
X55499000Y36750000D01*
X55403712Y36768954D01*
X55322930Y36822930D01*
X55268954Y36903712D01*
X55250000Y36999000D01*
X55250000Y37849982D01*
X59350000Y37849982D01*
X59350000Y37725001D01*
X59350001Y37725000D01*
X60499999Y37725000D01*
X60500000Y37725001D01*
X60500000Y38549999D01*
X60499999Y38550000D01*
X60050024Y38550000D01*
X59947300Y38539506D01*
X59947297Y38539505D01*
X59780880Y38484360D01*
X59780878Y38484359D01*
X59631658Y38392319D01*
X59631654Y38392316D01*
X59507684Y38268346D01*
X59507681Y38268342D01*
X59415641Y38119122D01*
X59415640Y38119121D01*
X59360495Y37952702D01*
X59360494Y37952695D01*
X59350000Y37849982D01*
X55250000Y37849982D01*
X55250000Y39324060D01*
X55268954Y39419348D01*
X55322930Y39500130D01*
X55366518Y39534891D01*
X55502262Y39620184D01*
X55629816Y39747738D01*
X55725789Y39900478D01*
X55785368Y40070745D01*
X55805565Y40250000D01*
X55805249Y40252804D01*
X55785369Y40429246D01*
X55785368Y40429255D01*
X55725789Y40599522D01*
X55725786Y40599527D01*
X55725785Y40599530D01*
X55629819Y40752258D01*
X55629817Y40752260D01*
X55629816Y40752262D01*
X55502262Y40879816D01*
X55502259Y40879818D01*
X55366523Y40965107D01*
X55295925Y41031852D01*
X55256243Y41120534D01*
X55250000Y41175941D01*
X55250000Y50166965D01*
X55268954Y50262253D01*
X55322927Y50343032D01*
X55358495Y50378599D01*
X55494035Y50572170D01*
X55593903Y50786337D01*
X55655063Y51014592D01*
X55675659Y51250000D01*
X55675659Y51250006D01*
X55655064Y51485402D01*
X55655063Y51485405D01*
X55655063Y51485408D01*
X55593903Y51713663D01*
X55494035Y51927829D01*
X55358495Y52121401D01*
X55322928Y52156968D01*
X55268953Y52237750D01*
X55250000Y52333036D01*
X55250000Y52625500D01*
X55268954Y52720788D01*
X55322930Y52801570D01*
X55403712Y52855546D01*
X55499000Y52874500D01*
X57651000Y52874500D01*
X57746288Y52855546D01*
G37*
%TD.AperFunction*%
%TA.AperFunction,Conductor*%
G36*
X69500000Y38700002D02*
G01*
X69500001Y38700001D01*
X69618068Y38700001D01*
X69618073Y38700000D01*
X71450000Y38700000D01*
X71463465Y38700000D01*
X71520493Y38721286D01*
X71560372Y38724501D01*
X72425008Y38724501D01*
X72425010Y38724501D01*
X72435686Y38725592D01*
X72475194Y38729628D01*
X72571913Y38720458D01*
X72657762Y38674972D01*
X72719669Y38600095D01*
X72748210Y38507227D01*
X72749500Y38481918D01*
X72749500Y37664008D01*
X72730546Y37568720D01*
X72676570Y37487938D01*
X72012062Y36823430D01*
X71931280Y36769454D01*
X71835992Y36750500D01*
X70168957Y36750500D01*
X70158773Y36750000D01*
X68399000Y36750000D01*
X68303712Y36768954D01*
X68222930Y36822930D01*
X68168954Y36903712D01*
X68150000Y36999000D01*
X68150000Y37724999D01*
X68150000Y38466194D01*
X68168954Y38561482D01*
X68222930Y38642264D01*
X68303712Y38696240D01*
X68399000Y38715194D01*
X68433743Y38711516D01*
X68433780Y38711876D01*
X68550023Y38700001D01*
X69000000Y38700001D01*
X69000000Y39700000D01*
X69500000Y39700000D01*
X69500000Y38700002D01*
G37*
%TD.AperFunction*%
%TA.AperFunction,Conductor*%
G36*
X67904891Y37725000D02*
G01*
X66999000Y37725000D01*
X66903712Y37743954D01*
X66822930Y37797930D01*
X66768954Y37878712D01*
X66750000Y37974000D01*
X66750000Y37976000D01*
X66768954Y38071288D01*
X66822930Y38152070D01*
X66903712Y38206046D01*
X66999000Y38225000D01*
X68024456Y38225000D01*
X67904891Y37725000D01*
G37*
%TD.AperFunction*%
%TA.AperFunction,Conductor*%
G36*
X81296288Y44730546D02*
G01*
X81377070Y44676570D01*
X81431046Y44595788D01*
X81450000Y44500500D01*
X81450000Y43799000D01*
X81431046Y43703712D01*
X81377070Y43622930D01*
X81296288Y43568954D01*
X81262168Y43562168D01*
X81250000Y43549999D01*
X81250000Y42156507D01*
X80750000Y42159932D01*
X80750000Y42224999D01*
X80749999Y42225000D01*
X80077203Y42225000D01*
X80014361Y42212500D01*
X78750001Y42212500D01*
X78750000Y42212499D01*
X78750000Y42173631D01*
X78250000Y42177055D01*
X78250000Y42212499D01*
X78249999Y42212500D01*
X76985639Y42212500D01*
X76922797Y42225000D01*
X76500001Y42225000D01*
X76500000Y42224999D01*
X76500000Y42189042D01*
X76000000Y42192466D01*
X76000000Y43549999D01*
X76500000Y43549999D01*
X76500000Y42725001D01*
X76500001Y42725000D01*
X77789361Y42725000D01*
X77852203Y42712500D01*
X78249999Y42712500D01*
X78250000Y42712501D01*
X78250000Y43524999D01*
X78750000Y43524999D01*
X78750000Y42712501D01*
X78750001Y42712500D01*
X79397797Y42712500D01*
X79460639Y42725000D01*
X80749999Y42725000D01*
X80750000Y42725001D01*
X80750000Y43549999D01*
X80749999Y43550000D01*
X80300024Y43550000D01*
X80197300Y43539506D01*
X80197297Y43539505D01*
X80030880Y43484360D01*
X80030878Y43484359D01*
X79881651Y43392315D01*
X79874301Y43386503D01*
X79787798Y43342274D01*
X79690953Y43334515D01*
X79598511Y43364408D01*
X79589153Y43369902D01*
X79444120Y43459359D01*
X79444120Y43459360D01*
X79277701Y43514505D01*
X79277694Y43514506D01*
X79174981Y43525000D01*
X78750001Y43525000D01*
X78750000Y43524999D01*
X78250000Y43524999D01*
X78249999Y43525000D01*
X77825024Y43525000D01*
X77722300Y43514506D01*
X77722297Y43514505D01*
X77555880Y43459360D01*
X77555878Y43459359D01*
X77538481Y43448628D01*
X77447428Y43414737D01*
X77350338Y43418271D01*
X77277046Y43448630D01*
X77219120Y43484359D01*
X77219120Y43484360D01*
X77052701Y43539505D01*
X77052694Y43539506D01*
X76949981Y43550000D01*
X76500001Y43550000D01*
X76500000Y43549999D01*
X76000000Y43549999D01*
X75987831Y43562168D01*
X75953712Y43568954D01*
X75872930Y43622930D01*
X75818954Y43703712D01*
X75800000Y43799000D01*
X75800000Y44500500D01*
X75818954Y44595788D01*
X75872930Y44676570D01*
X75953712Y44730546D01*
X76049000Y44749500D01*
X81201000Y44749500D01*
X81296288Y44730546D01*
G37*
%TD.AperFunction*%
%TA.AperFunction,Conductor*%
G36*
X78196288Y52855546D02*
G01*
X78277070Y52801570D01*
X78331046Y52720788D01*
X78350000Y52625500D01*
X78350000Y50609728D01*
X78349659Y50596697D01*
X78347366Y50552944D01*
X78349659Y50509192D01*
X78350000Y50496161D01*
X78350000Y46499500D01*
X78331046Y46404212D01*
X78277070Y46323430D01*
X78196288Y46269454D01*
X78101000Y46250500D01*
X75426074Y46250500D01*
X75397244Y46244766D01*
X75397245Y46244765D01*
X75281090Y46221660D01*
X75201076Y46188518D01*
X75144507Y46165086D01*
X75144503Y46165084D01*
X75105171Y46138803D01*
X75095270Y46132187D01*
X75058427Y46107570D01*
X75021582Y46082951D01*
X73167046Y44228414D01*
X73119210Y44156820D01*
X73119208Y44156817D01*
X73088368Y44110662D01*
X73019669Y44041964D01*
X72929910Y44004784D01*
X72881333Y44000000D01*
X68374500Y44000000D01*
X68279212Y44018954D01*
X68198430Y44072930D01*
X68144454Y44153712D01*
X68125500Y44249000D01*
X68125499Y44900007D01*
X68123849Y44916161D01*
X68114999Y45002797D01*
X68059814Y45169334D01*
X67967712Y45318656D01*
X67843656Y45442712D01*
X67694334Y45534814D01*
X67694332Y45534815D01*
X67694330Y45534816D01*
X67694332Y45534816D01*
X67527802Y45589998D01*
X67527798Y45589999D01*
X67527797Y45589999D01*
X67476403Y45595250D01*
X67425011Y45600500D01*
X66749000Y45600500D01*
X66653712Y45619454D01*
X66572930Y45673430D01*
X66518954Y45754212D01*
X66500000Y45849500D01*
X66500000Y46400002D01*
X67000000Y46400002D01*
X67000001Y46400001D01*
X67424968Y46400001D01*
X67424984Y46400002D01*
X67527699Y46410495D01*
X67527702Y46410496D01*
X67694119Y46465641D01*
X67694121Y46465642D01*
X67843341Y46557682D01*
X67843345Y46557685D01*
X67967315Y46681655D01*
X67967318Y46681659D01*
X68059358Y46830879D01*
X68059359Y46830880D01*
X68114504Y46997299D01*
X68114505Y46997306D01*
X68124999Y47100019D01*
X68125000Y47100029D01*
X68125000Y47212499D01*
X68124999Y47212500D01*
X67000000Y47212500D01*
X67000000Y46400002D01*
X66500000Y46400002D01*
X66500000Y47213500D01*
X66518954Y47308788D01*
X66572930Y47389570D01*
X66653712Y47443546D01*
X66749000Y47462500D01*
X66750000Y47462500D01*
X66750000Y47463500D01*
X66768954Y47558788D01*
X66822930Y47639570D01*
X66903712Y47693546D01*
X66999000Y47712500D01*
X68124998Y47712500D01*
X68124999Y47712501D01*
X68124999Y47824968D01*
X68124998Y47824985D01*
X68113124Y47941220D01*
X68115067Y47941419D01*
X68113913Y48021030D01*
X68149786Y48111319D01*
X68217481Y48181008D01*
X68306692Y48219485D01*
X68358807Y48225000D01*
X70147825Y48225000D01*
X70147832Y48225001D01*
X70207371Y48231402D01*
X70207378Y48231404D01*
X70342087Y48281647D01*
X70457187Y48367811D01*
X70457189Y48367813D01*
X70543353Y48482913D01*
X70593596Y48617622D01*
X70593598Y48617629D01*
X70599999Y48677168D01*
X70600000Y48677175D01*
X70600000Y52625500D01*
X70618954Y52720788D01*
X70672930Y52801570D01*
X70753712Y52855546D01*
X70849000Y52874500D01*
X78101000Y52874500D01*
X78196288Y52855546D01*
G37*
%TD.AperFunction*%
%TA.AperFunction,Conductor*%
G36*
X66246288Y52855546D02*
G01*
X66327070Y52801570D01*
X66381046Y52720788D01*
X66400000Y52625500D01*
X66400000Y48774000D01*
X66381046Y48678712D01*
X66327070Y48597930D01*
X66246288Y48543954D01*
X66151003Y48525000D01*
X66075024Y48525000D01*
X65972300Y48514506D01*
X65972297Y48514505D01*
X65805880Y48459360D01*
X65661300Y48370182D01*
X65570248Y48336291D01*
X65473157Y48339823D01*
X65384809Y48380242D01*
X65376142Y48386793D01*
X65368658Y48392711D01*
X65218282Y48485463D01*
X65147131Y48551619D01*
X65106712Y48639968D01*
X65100000Y48697392D01*
X65100000Y49436131D01*
X65100357Y49449460D01*
X65100498Y49452109D01*
X65100500Y49452127D01*
X65100499Y49656388D01*
X65119453Y49751674D01*
X65129902Y49773767D01*
X65134576Y49782511D01*
X65178814Y49865273D01*
X65236024Y50053868D01*
X65255341Y50250000D01*
X65236024Y50446132D01*
X65178814Y50634727D01*
X65129900Y50726237D01*
X65101698Y50819208D01*
X65100499Y50843615D01*
X65100499Y52625500D01*
X65119453Y52720788D01*
X65173429Y52801570D01*
X65254211Y52855546D01*
X65349499Y52874500D01*
X66151000Y52874500D01*
X66246288Y52855546D01*
G37*
%TD.AperFunction*%
%TD*%
%TA.AperFunction,Conductor*%
%TO.N,GNDD*%
G36*
X16346288Y52855546D02*
G01*
X16427070Y52801570D01*
X16481046Y52720788D01*
X16500000Y52625500D01*
X16500000Y51860774D01*
X16491515Y51796328D01*
X16465860Y51700585D01*
X16465859Y51700578D01*
X16459500Y51619778D01*
X16459500Y50640222D01*
X16462246Y50605336D01*
X16465859Y50559420D01*
X16491515Y50463674D01*
X16500000Y50399227D01*
X16500000Y49320774D01*
X16491515Y49256328D01*
X16465860Y49160585D01*
X16465859Y49160578D01*
X16459500Y49079778D01*
X16459500Y48100222D01*
X16462948Y48056409D01*
X16465859Y48019420D01*
X16491515Y47923674D01*
X16500000Y47859227D01*
X16500000Y46778840D01*
X16491515Y46714394D01*
X16466357Y46620506D01*
X16466354Y46620488D01*
X16460000Y46539752D01*
X16460000Y46300001D01*
X16460001Y46300000D01*
X20959999Y46300000D01*
X20960000Y46300001D01*
X20960000Y46448480D01*
X20978954Y46543768D01*
X21032930Y46624550D01*
X21113712Y46678526D01*
X21209000Y46697480D01*
X21236877Y46695914D01*
X21250000Y46694435D01*
X21250000Y46694436D01*
X21250001Y46694435D01*
X21250004Y46694435D01*
X21389908Y46710199D01*
X21429255Y46714632D01*
X21599522Y46774211D01*
X21599527Y46774215D01*
X21599529Y46774215D01*
X21712184Y46845002D01*
X21752262Y46870184D01*
X21879816Y46997738D01*
X21964603Y47132675D01*
X21975785Y47150471D01*
X21975785Y47150473D01*
X21975789Y47150478D01*
X22035368Y47320745D01*
X22055228Y47497008D01*
X22055565Y47499997D01*
X22055565Y47500004D01*
X22035369Y47679246D01*
X22035368Y47679255D01*
X21975789Y47849522D01*
X21975783Y47849532D01*
X21963849Y47868526D01*
X21929202Y47959293D01*
X21931927Y48056409D01*
X21971610Y48145091D01*
X22042210Y48211835D01*
X22132977Y48246482D01*
X22174684Y48250000D01*
X26069722Y48250000D01*
X26073078Y48254748D01*
X26155250Y48306583D01*
X26166101Y48309885D01*
X26166056Y48310014D01*
X26179252Y48314632D01*
X26179255Y48314632D01*
X26349522Y48374211D01*
X26349527Y48374215D01*
X26349529Y48374215D01*
X26492438Y48464011D01*
X26502262Y48470184D01*
X26629816Y48597738D01*
X26677791Y48674090D01*
X26725785Y48750471D01*
X26725785Y48750473D01*
X26725789Y48750478D01*
X26785368Y48920745D01*
X26785369Y48920758D01*
X26788481Y48934384D01*
X26790487Y48933927D01*
X26814359Y49008847D01*
X26877034Y49083083D01*
X26886709Y49090421D01*
X26899999Y49100001D01*
X26900000Y49100000D01*
X26900000Y49301000D01*
X26918954Y49396288D01*
X26972930Y49477070D01*
X27053712Y49531046D01*
X27149000Y49550000D01*
X28249999Y49550000D01*
X28250000Y49550001D01*
X28250000Y51551000D01*
X28268954Y51646288D01*
X28322930Y51727070D01*
X28403712Y51781046D01*
X28499000Y51800000D01*
X28501000Y51800000D01*
X28596288Y51781046D01*
X28677070Y51727070D01*
X28731046Y51646288D01*
X28750000Y51551000D01*
X28750000Y49550001D01*
X28750001Y49550000D01*
X28936809Y49550000D01*
X28999920Y49537447D01*
X29015109Y49541516D01*
X29079554Y49550000D01*
X30165500Y49550000D01*
X30260788Y49531046D01*
X30341570Y49477070D01*
X30395546Y49396288D01*
X30414500Y49301000D01*
X30414500Y49292065D01*
X30412934Y49264186D01*
X30394435Y49100003D01*
X30394435Y49099997D01*
X30414630Y48920755D01*
X30414631Y48920749D01*
X30414632Y48920745D01*
X30474211Y48750478D01*
X30474212Y48750477D01*
X30474214Y48750471D01*
X30570180Y48597743D01*
X30570182Y48597741D01*
X30570184Y48597738D01*
X30697738Y48470184D01*
X30697740Y48470183D01*
X30697742Y48470181D01*
X30850471Y48374215D01*
X30850473Y48374214D01*
X30850478Y48374211D01*
X30850482Y48374210D01*
X30859027Y48370095D01*
X30936658Y48311678D01*
X30986023Y48227999D01*
X31000000Y48145749D01*
X31000000Y45839508D01*
X30981046Y45744220D01*
X30927070Y45663438D01*
X22117046Y36853414D01*
X22086101Y36807100D01*
X22075108Y36790647D01*
X22049730Y36752665D01*
X22034917Y36730496D01*
X22034913Y36730490D01*
X21978341Y36593912D01*
X21949500Y36448921D01*
X21949500Y20249000D01*
X21930546Y20153712D01*
X21876570Y20072930D01*
X21795788Y20018954D01*
X21700500Y20000000D01*
X21209000Y20000000D01*
X21113712Y20018954D01*
X21032930Y20072930D01*
X20978954Y20153712D01*
X20960000Y20249000D01*
X20960000Y20399999D01*
X20959999Y20400000D01*
X16460001Y20400000D01*
X16395404Y20335404D01*
X16387070Y20322930D01*
X16306288Y20268954D01*
X16211000Y20250000D01*
X15499500Y20250000D01*
X15404212Y20268954D01*
X15323430Y20322930D01*
X15269454Y20403712D01*
X15250500Y20499000D01*
X15250500Y31299778D01*
X16459500Y31299778D01*
X16459500Y30320222D01*
X16462527Y30281760D01*
X16465859Y30239420D01*
X16491515Y30143674D01*
X16500000Y30079227D01*
X16500000Y29000774D01*
X16491515Y28936328D01*
X16465860Y28840585D01*
X16465859Y28840579D01*
X16465859Y28840578D01*
X16459500Y28759778D01*
X16459500Y27780222D01*
X16464587Y27715582D01*
X16465859Y27699420D01*
X16491515Y27603674D01*
X16500000Y27539227D01*
X16500000Y26460774D01*
X16491515Y26396328D01*
X16465860Y26300585D01*
X16465859Y26300579D01*
X16465859Y26300578D01*
X16459500Y26219778D01*
X16459500Y25240222D01*
X16460698Y25225000D01*
X16465859Y25159420D01*
X16491515Y25063674D01*
X16500000Y24999227D01*
X16500000Y23920774D01*
X16491515Y23856328D01*
X16465860Y23760585D01*
X16465859Y23760579D01*
X16465859Y23760578D01*
X16459500Y23679778D01*
X16459500Y22700222D01*
X16462637Y22660368D01*
X16465859Y22619420D01*
X16491515Y22523674D01*
X16500000Y22459227D01*
X16500000Y21378840D01*
X16491515Y21314394D01*
X16466357Y21220506D01*
X16466354Y21220488D01*
X16460000Y21139752D01*
X16460000Y20900001D01*
X16460001Y20900000D01*
X20959999Y20900000D01*
X20960000Y20900001D01*
X20960000Y21139737D01*
X20959999Y21139750D01*
X20953645Y21220492D01*
X20953597Y21220772D01*
X20950000Y21262943D01*
X20950000Y22574085D01*
X20953597Y22616256D01*
X20954140Y22619419D01*
X20954140Y22619420D01*
X20954141Y22619422D01*
X20960500Y22700222D01*
X20960500Y23679778D01*
X20954141Y23760578D01*
X20954141Y23760579D01*
X20953596Y23763754D01*
X20950000Y23805917D01*
X20950000Y25114085D01*
X20953597Y25156256D01*
X20954140Y25159419D01*
X20954140Y25159420D01*
X20954141Y25159422D01*
X20960500Y25240222D01*
X20960500Y26219778D01*
X20960034Y26225694D01*
X20954141Y26300579D01*
X20953596Y26303754D01*
X20950000Y26345917D01*
X20950000Y27654085D01*
X20953597Y27696256D01*
X20954140Y27699419D01*
X20954140Y27699420D01*
X20954141Y27699422D01*
X20960500Y27780222D01*
X20960500Y28759778D01*
X20958865Y28780547D01*
X20954141Y28840579D01*
X20953596Y28843754D01*
X20950000Y28885917D01*
X20950000Y30194085D01*
X20953597Y30236256D01*
X20954140Y30239419D01*
X20954140Y30239420D01*
X20954141Y30239422D01*
X20960500Y30320222D01*
X20960500Y31299778D01*
X20959293Y31315109D01*
X20954141Y31380579D01*
X20953596Y31383754D01*
X20950000Y31425917D01*
X20950000Y32737056D01*
X20953598Y32779230D01*
X20953645Y32779504D01*
X20959999Y32860249D01*
X20960000Y32860263D01*
X20960000Y33099999D01*
X20959999Y33100000D01*
X16460001Y33100000D01*
X16460000Y33099999D01*
X16460000Y32860249D01*
X16466354Y32779509D01*
X16466355Y32779502D01*
X16491515Y32685609D01*
X16500000Y32621161D01*
X16500000Y31540774D01*
X16491515Y31476328D01*
X16465860Y31380585D01*
X16465859Y31380579D01*
X16465859Y31380578D01*
X16459500Y31299778D01*
X15250500Y31299778D01*
X15250500Y43999778D01*
X16459500Y43999778D01*
X16459500Y43020222D01*
X16461013Y43001000D01*
X16465859Y42939420D01*
X16491515Y42843674D01*
X16500000Y42779227D01*
X16500000Y41700774D01*
X16491515Y41636328D01*
X16465860Y41540585D01*
X16465859Y41540579D01*
X16465859Y41540578D01*
X16459500Y41459778D01*
X16459500Y40480222D01*
X16463311Y40431799D01*
X16465859Y40399420D01*
X16491515Y40303674D01*
X16500000Y40239227D01*
X16500000Y39160774D01*
X16491515Y39096328D01*
X16465860Y39000585D01*
X16465859Y39000579D01*
X16465859Y39000578D01*
X16459500Y38919778D01*
X16459500Y37940222D01*
X16462753Y37898890D01*
X16465859Y37859420D01*
X16466707Y37856256D01*
X16490071Y37769061D01*
X16491515Y37763674D01*
X16500000Y37699227D01*
X16500000Y36620774D01*
X16491515Y36556328D01*
X16465860Y36460585D01*
X16465859Y36460579D01*
X16465859Y36460578D01*
X16459500Y36379778D01*
X16459500Y35400222D01*
X16463311Y35351799D01*
X16465859Y35319420D01*
X16491515Y35223674D01*
X16500000Y35159227D01*
X16500000Y34078840D01*
X16491515Y34014394D01*
X16466357Y33920506D01*
X16466354Y33920488D01*
X16460000Y33839752D01*
X16460000Y33600001D01*
X16460001Y33600000D01*
X20959999Y33600000D01*
X20960000Y33600001D01*
X20960000Y33839737D01*
X20959999Y33839750D01*
X20953645Y33920492D01*
X20953597Y33920772D01*
X20950000Y33962943D01*
X20950000Y35274085D01*
X20953597Y35316256D01*
X20954140Y35319419D01*
X20954140Y35319420D01*
X20954141Y35319422D01*
X20960500Y35400222D01*
X20960500Y36379778D01*
X20959293Y36395109D01*
X20954141Y36460579D01*
X20953596Y36463754D01*
X20950000Y36505917D01*
X20950000Y37814085D01*
X20953597Y37856256D01*
X20954140Y37859419D01*
X20954140Y37859420D01*
X20954141Y37859422D01*
X20960500Y37940222D01*
X20960500Y38919778D01*
X20959293Y38935109D01*
X20954141Y39000579D01*
X20953596Y39003754D01*
X20950000Y39045917D01*
X20950000Y40354085D01*
X20953597Y40396256D01*
X20954140Y40399419D01*
X20954140Y40399420D01*
X20954141Y40399422D01*
X20960500Y40480222D01*
X20960500Y41459778D01*
X20957772Y41494435D01*
X20954141Y41540579D01*
X20953596Y41543754D01*
X20950000Y41585917D01*
X20950000Y41849606D01*
X20968954Y41944894D01*
X21022930Y42025676D01*
X21103712Y42079652D01*
X21199000Y42098606D01*
X21226880Y42097040D01*
X21249999Y42094435D01*
X21250000Y42094435D01*
X21250004Y42094435D01*
X21389908Y42110199D01*
X21429255Y42114632D01*
X21599522Y42174211D01*
X21599527Y42174215D01*
X21599529Y42174215D01*
X21752257Y42270181D01*
X21752256Y42270181D01*
X21752262Y42270184D01*
X21879816Y42397738D01*
X21975789Y42550478D01*
X22035368Y42720745D01*
X22044573Y42802441D01*
X22055565Y42899997D01*
X22055565Y42900004D01*
X22035369Y43079246D01*
X22035368Y43079255D01*
X21975789Y43249522D01*
X21975786Y43249527D01*
X21975785Y43249530D01*
X21879819Y43402258D01*
X21879817Y43402260D01*
X21879816Y43402262D01*
X21752262Y43529816D01*
X21752259Y43529818D01*
X21752257Y43529820D01*
X21599529Y43625786D01*
X21599524Y43625788D01*
X21599522Y43625789D01*
X21429255Y43685368D01*
X21429251Y43685369D01*
X21429245Y43685370D01*
X21250004Y43705565D01*
X21249996Y43705565D01*
X21237372Y43704143D01*
X21140561Y43712312D01*
X21054246Y43756906D01*
X20991566Y43831138D01*
X20962065Y43923706D01*
X20960500Y43951578D01*
X20960500Y43999771D01*
X20960500Y43999778D01*
X20954141Y44080578D01*
X20903788Y44268496D01*
X20815465Y44441840D01*
X20750489Y44522078D01*
X20693036Y44593027D01*
X20693032Y44593032D01*
X20693026Y44593037D01*
X20683804Y44602259D01*
X20686019Y44604475D01*
X20638577Y44661527D01*
X20609774Y44754314D01*
X20618671Y44851061D01*
X20663915Y44937039D01*
X20684215Y44957330D01*
X20683448Y44958097D01*
X20692676Y44967326D01*
X20815042Y45118433D01*
X20903318Y45291686D01*
X20903319Y45291688D01*
X20953643Y45479499D01*
X20953645Y45479509D01*
X20959999Y45560249D01*
X20960000Y45560263D01*
X20960000Y45799999D01*
X20959999Y45800000D01*
X16460001Y45800000D01*
X16460000Y45799999D01*
X16460000Y45560249D01*
X16466354Y45479509D01*
X16466355Y45479502D01*
X16491515Y45385609D01*
X16500000Y45321161D01*
X16500000Y44240774D01*
X16491515Y44176328D01*
X16465860Y44080585D01*
X16465859Y44080578D01*
X16459500Y43999778D01*
X15250500Y43999778D01*
X15250500Y44472549D01*
X15265631Y44548622D01*
X15263109Y44549387D01*
X15266655Y44561079D01*
X15266659Y44561088D01*
X15293433Y44695689D01*
X15295500Y44706082D01*
X15295500Y44853918D01*
X15294191Y44860500D01*
X15294071Y44861106D01*
X15294071Y44861107D01*
X15280490Y44929376D01*
X15266659Y44998913D01*
X15266658Y44998915D01*
X15266658Y44998917D01*
X15210085Y45135492D01*
X15210084Y45135495D01*
X15145414Y45232282D01*
X15127953Y45258415D01*
X15023414Y45362954D01*
X14900498Y45445082D01*
X14900497Y45445083D01*
X14900495Y45445084D01*
X14900493Y45445085D01*
X14900491Y45445086D01*
X14763917Y45501658D01*
X14763913Y45501659D01*
X14618918Y45530500D01*
X14618916Y45530500D01*
X14380009Y45530500D01*
X14284721Y45549454D01*
X14203939Y45603430D01*
X14149963Y45684212D01*
X14140097Y45722892D01*
X14137674Y45722319D01*
X14134091Y45737479D01*
X14134091Y45737483D01*
X14083796Y45872331D01*
X14049666Y45917923D01*
X14007735Y46005563D01*
X14000000Y46067144D01*
X14000000Y49227708D01*
X14018954Y49322996D01*
X14023330Y49332941D01*
X14025881Y49338411D01*
X14038903Y49366337D01*
X14100063Y49594592D01*
X14103774Y49637007D01*
X14120659Y49829995D01*
X14120659Y49830006D01*
X14100064Y50065402D01*
X14100063Y50065405D01*
X14100063Y50065408D01*
X14038903Y50293663D01*
X13939035Y50507829D01*
X13803495Y50701401D01*
X13636401Y50868495D01*
X13609490Y50887338D01*
X13442830Y51004035D01*
X13442821Y51004039D01*
X13228663Y51103903D01*
X13228660Y51103904D01*
X13000401Y51165065D01*
X12765005Y51185659D01*
X12764995Y51185659D01*
X12529598Y51165065D01*
X12301335Y51103903D01*
X12301333Y51103902D01*
X12087177Y51004039D01*
X12087169Y51004035D01*
X11893592Y50868490D01*
X11889215Y50864817D01*
X11885208Y50862620D01*
X11884694Y50862259D01*
X11884654Y50862316D01*
X11804034Y50818091D01*
X11707456Y50807519D01*
X11614184Y50834710D01*
X11538417Y50895525D01*
X11529681Y50908322D01*
X11529026Y50907831D01*
X11432189Y51037188D01*
X11432187Y51037190D01*
X11317087Y51123354D01*
X11182378Y51173597D01*
X11182371Y51173599D01*
X11122832Y51180000D01*
X10475001Y51180000D01*
X10475000Y51179999D01*
X10475000Y50263012D01*
X10417993Y50295925D01*
X10290826Y50330000D01*
X10159174Y50330000D01*
X10032007Y50295925D01*
X9975000Y50263012D01*
X9975000Y51179999D01*
X9974999Y51180000D01*
X9327167Y51180000D01*
X9267628Y51173599D01*
X9267621Y51173597D01*
X9132912Y51123354D01*
X9017812Y51037190D01*
X9017810Y51037188D01*
X8931646Y50922088D01*
X8881403Y50787379D01*
X8881401Y50787372D01*
X8875000Y50727833D01*
X8875000Y50080001D01*
X8875001Y50080000D01*
X9791988Y50080000D01*
X9759075Y50022993D01*
X9725000Y49895826D01*
X9725000Y49764174D01*
X9759075Y49637007D01*
X9791988Y49580000D01*
X8875001Y49580000D01*
X8875000Y49579999D01*
X8875000Y48932168D01*
X8881401Y48872629D01*
X8881403Y48872622D01*
X8931646Y48737913D01*
X9017810Y48622813D01*
X9017812Y48622811D01*
X9132912Y48536647D01*
X9267621Y48486404D01*
X9267628Y48486402D01*
X9327167Y48480001D01*
X9327175Y48480000D01*
X9974999Y48480000D01*
X9975000Y48480001D01*
X9975000Y49396988D01*
X10032007Y49364075D01*
X10159174Y49330000D01*
X10290826Y49330000D01*
X10417993Y49364075D01*
X10475000Y49396988D01*
X10475000Y48456198D01*
X10481046Y48447149D01*
X10500000Y48351861D01*
X10500000Y48174500D01*
X10481046Y48079212D01*
X10427070Y47998430D01*
X10346288Y47944454D01*
X10251000Y47925500D01*
X7801079Y47925500D01*
X7656088Y47896659D01*
X7519507Y47840085D01*
X7519503Y47840083D01*
X7396587Y47757954D01*
X6017046Y46378414D01*
X5972690Y46312028D01*
X5972689Y46312026D01*
X5934916Y46255496D01*
X5934912Y46255488D01*
X5878342Y46118915D01*
X5878341Y46118912D01*
X5849500Y45973921D01*
X5849500Y7976080D01*
X5878341Y7831089D01*
X5878342Y7831086D01*
X5934912Y7694513D01*
X5934916Y7694505D01*
X5954348Y7665423D01*
X5954349Y7665421D01*
X6017044Y7571589D01*
X6017045Y7571588D01*
X6017048Y7571584D01*
X6919198Y6669435D01*
X7817049Y5771584D01*
X7817048Y5771584D01*
X7876403Y5712230D01*
X7921584Y5667049D01*
X8044505Y5584916D01*
X8181087Y5528342D01*
X8326080Y5499501D01*
X8326081Y5499500D01*
X8326082Y5499500D01*
X8661569Y5499500D01*
X8756857Y5480546D01*
X8837639Y5426570D01*
X8891615Y5345788D01*
X8910569Y5250500D01*
X8894869Y5163483D01*
X8881403Y5127383D01*
X8881401Y5127372D01*
X8875000Y5067833D01*
X8875000Y4420001D01*
X8875001Y4420000D01*
X9791988Y4420000D01*
X9759075Y4362993D01*
X9725000Y4235826D01*
X9725000Y4104174D01*
X9759075Y3977007D01*
X9791988Y3920000D01*
X8875001Y3920000D01*
X8875000Y3919999D01*
X8875000Y3272168D01*
X8881401Y3212629D01*
X8881403Y3212622D01*
X8931646Y3077913D01*
X9017810Y2962813D01*
X9017812Y2962811D01*
X9132912Y2876647D01*
X9267621Y2826404D01*
X9267628Y2826402D01*
X9327167Y2820001D01*
X9327175Y2820000D01*
X9974999Y2820000D01*
X9975000Y2820001D01*
X9975000Y3736988D01*
X10032007Y3704075D01*
X10159174Y3670000D01*
X10290826Y3670000D01*
X10417993Y3704075D01*
X10475000Y3736988D01*
X10475000Y2796198D01*
X10481046Y2787149D01*
X10500000Y2691861D01*
X10500000Y1624500D01*
X10481046Y1529212D01*
X10427070Y1448430D01*
X10346288Y1394454D01*
X10251000Y1375500D01*
X6977013Y1375500D01*
X6881725Y1394454D01*
X6800943Y1448430D01*
X6746967Y1529212D01*
X6728013Y1624500D01*
X6746967Y1719788D01*
X6755152Y1737543D01*
X6857369Y1938157D01*
X6885214Y1992806D01*
X7024214Y2354913D01*
X7124602Y2729567D01*
X7185278Y3112662D01*
X7205578Y3500000D01*
X7185278Y3887338D01*
X7124602Y4270433D01*
X7024214Y4645087D01*
X6885214Y5007194D01*
X6709125Y5352789D01*
X6549234Y5599000D01*
X6497875Y5678086D01*
X6253786Y5979510D01*
X6253785Y5979511D01*
X6253781Y5979516D01*
X5979516Y6253781D01*
X5979509Y6253787D01*
X5678085Y6497876D01*
X5352789Y6709125D01*
X5352784Y6709128D01*
X5007195Y6885214D01*
X4769998Y6976265D01*
X4645087Y7024214D01*
X4270433Y7124602D01*
X4270429Y7124603D01*
X4270428Y7124603D01*
X3887344Y7185277D01*
X3887345Y7185277D01*
X3887343Y7185278D01*
X3887338Y7185278D01*
X3500000Y7205578D01*
X3112662Y7185278D01*
X3112656Y7185278D01*
X3112654Y7185277D01*
X2744747Y7127007D01*
X2647666Y7130821D01*
X2559436Y7171496D01*
X2493487Y7242839D01*
X2459861Y7333989D01*
X2463675Y7431070D01*
X2481451Y7480971D01*
X2522895Y7567031D01*
X2550500Y7687974D01*
X2550500Y7750000D01*
X2550500Y7766408D01*
X2550500Y46270918D01*
X2550500Y46312026D01*
X2550467Y46312169D01*
X2535347Y46378414D01*
X2522895Y46432969D01*
X2522893Y46432974D01*
X2522893Y46432975D01*
X2481454Y46519023D01*
X2457187Y46613098D01*
X2470768Y46709299D01*
X2520130Y46792980D01*
X2597758Y46851401D01*
X2691833Y46875668D01*
X2744744Y46872995D01*
X3112662Y46814722D01*
X3500000Y46794422D01*
X3887338Y46814722D01*
X4270433Y46875398D01*
X4645087Y46975786D01*
X5007194Y47114786D01*
X5352789Y47290875D01*
X5678084Y47502124D01*
X5979516Y47746219D01*
X6253781Y48020484D01*
X6497876Y48321916D01*
X6709125Y48647211D01*
X6885214Y48992806D01*
X7024214Y49354913D01*
X7124602Y49729567D01*
X7185278Y50112662D01*
X7205578Y50500000D01*
X7185278Y50887338D01*
X7124602Y51270433D01*
X7024214Y51645087D01*
X6885214Y52007194D01*
X6709125Y52352789D01*
X6631838Y52471801D01*
X6620094Y52489885D01*
X6584092Y52580124D01*
X6585364Y52677270D01*
X6623716Y52766535D01*
X6693308Y52834329D01*
X6783547Y52870331D01*
X6828923Y52874500D01*
X16251000Y52874500D01*
X16346288Y52855546D01*
G37*
%TD.AperFunction*%
%TA.AperFunction,Conductor*%
G36*
X32321221Y43231046D02*
G01*
X32402003Y43177070D01*
X32455979Y43096288D01*
X32474933Y43001000D01*
X32465160Y42943472D01*
X32467743Y42942882D01*
X32464630Y42929246D01*
X32444435Y42750004D01*
X32444435Y42750000D01*
X32464630Y42570755D01*
X32464631Y42570749D01*
X32464632Y42570745D01*
X32524211Y42400478D01*
X32524212Y42400477D01*
X32524214Y42400471D01*
X32620180Y42247743D01*
X32620182Y42247741D01*
X32620184Y42247738D01*
X32747738Y42120184D01*
X32747740Y42120183D01*
X32747742Y42120181D01*
X32900470Y42024215D01*
X32900473Y42024214D01*
X32900478Y42024211D01*
X33070745Y41964632D01*
X33070754Y41964631D01*
X33249996Y41944435D01*
X33250000Y41944435D01*
X33250004Y41944435D01*
X33418906Y41963466D01*
X33429255Y41964632D01*
X33599522Y42024211D01*
X33705017Y42090498D01*
X33742524Y42114065D01*
X33833291Y42148713D01*
X33930407Y42145988D01*
X34007476Y42114065D01*
X34150471Y42024215D01*
X34150472Y42024215D01*
X34150478Y42024211D01*
X34320745Y41964632D01*
X34320754Y41964631D01*
X34499996Y41944435D01*
X34501000Y41944435D01*
X34502311Y41944175D01*
X34513895Y41942869D01*
X34513784Y41941892D01*
X34596288Y41925481D01*
X34677070Y41871505D01*
X34731046Y41790723D01*
X34750000Y41695435D01*
X34750000Y34741121D01*
X34786095Y34687100D01*
X34803483Y34619691D01*
X34814630Y34520755D01*
X34814631Y34520749D01*
X34814632Y34520745D01*
X34874211Y34350478D01*
X34874212Y34350477D01*
X34874214Y34350471D01*
X34970180Y34197743D01*
X34970182Y34197741D01*
X34970184Y34197738D01*
X35097738Y34070184D01*
X35097740Y34070183D01*
X35097742Y34070181D01*
X35250470Y33974215D01*
X35250473Y33974214D01*
X35250478Y33974211D01*
X35420745Y33914632D01*
X35420754Y33914631D01*
X35599996Y33894435D01*
X35600000Y33894435D01*
X35600003Y33894435D01*
X35763121Y33912814D01*
X35859932Y33904648D01*
X35946249Y33860056D01*
X36008931Y33785826D01*
X36038434Y33693259D01*
X36040000Y33665380D01*
X36040000Y33600001D01*
X36040001Y33600000D01*
X40539999Y33600000D01*
X40604595Y33664597D01*
X40612930Y33677070D01*
X40693712Y33731046D01*
X40789000Y33750000D01*
X41762270Y33750000D01*
X41857558Y33731046D01*
X41938340Y33677070D01*
X42177070Y33438340D01*
X42231046Y33357558D01*
X42250000Y33262270D01*
X42250000Y31999000D01*
X42231046Y31903712D01*
X42177070Y31822930D01*
X42096288Y31768954D01*
X42001000Y31750000D01*
X40507624Y31750000D01*
X40412336Y31768954D01*
X40331554Y31822930D01*
X40314115Y31842299D01*
X40273036Y31893027D01*
X40273032Y31893032D01*
X40273026Y31893037D01*
X40263804Y31902259D01*
X40266019Y31904475D01*
X40218577Y31961527D01*
X40189774Y32054314D01*
X40198671Y32151061D01*
X40243915Y32237039D01*
X40264215Y32257330D01*
X40263448Y32258097D01*
X40272676Y32267326D01*
X40395042Y32418433D01*
X40483318Y32591686D01*
X40483319Y32591688D01*
X40533643Y32779499D01*
X40533645Y32779509D01*
X40539999Y32860249D01*
X40540000Y32860263D01*
X40540000Y33099999D01*
X40539999Y33100000D01*
X36040001Y33100000D01*
X36040000Y33099999D01*
X36040000Y32860249D01*
X36046354Y32779504D01*
X36046402Y32779230D01*
X36050000Y32737056D01*
X36050000Y31425917D01*
X36046404Y31383754D01*
X36045858Y31380579D01*
X36040241Y31309204D01*
X36013869Y31215697D01*
X35968079Y31152671D01*
X35572548Y30757140D01*
X35491766Y30703164D01*
X35424360Y30685776D01*
X35420750Y30685370D01*
X35343305Y30658271D01*
X35250478Y30625789D01*
X35250476Y30625789D01*
X35250476Y30625788D01*
X35250470Y30625786D01*
X35097742Y30529820D01*
X34970180Y30402258D01*
X34874214Y30249530D01*
X34874211Y30249524D01*
X34874211Y30249522D01*
X34843262Y30161077D01*
X34793901Y30077398D01*
X34750000Y30044359D01*
X34750000Y30000000D01*
X34750000Y27000000D01*
X34750001Y27000000D01*
X34766575Y26983426D01*
X34820551Y26902644D01*
X34825526Y26889612D01*
X34874211Y26750478D01*
X34874212Y26750477D01*
X34874214Y26750471D01*
X34970180Y26597743D01*
X34970182Y26597741D01*
X34970184Y26597738D01*
X35097738Y26470184D01*
X35097740Y26470183D01*
X35097742Y26470181D01*
X35250470Y26374215D01*
X35250473Y26374214D01*
X35250478Y26374211D01*
X35420745Y26314632D01*
X35420754Y26314631D01*
X35599996Y26294435D01*
X35600000Y26294435D01*
X35600001Y26294435D01*
X35654583Y26300585D01*
X35762621Y26312758D01*
X35859432Y26304593D01*
X35945749Y26260000D01*
X36008430Y26185770D01*
X36037934Y26093204D01*
X36039500Y26065324D01*
X36039500Y25240222D01*
X36040698Y25225000D01*
X36045859Y25159419D01*
X36046403Y25156256D01*
X36050000Y25114085D01*
X36050000Y23805917D01*
X36046404Y23763754D01*
X36045858Y23760579D01*
X36039500Y23679792D01*
X36039500Y23679778D01*
X36039500Y22700222D01*
X36042637Y22660368D01*
X36045859Y22619419D01*
X36046403Y22616256D01*
X36050000Y22574085D01*
X36050000Y21262943D01*
X36046403Y21220772D01*
X36046354Y21220492D01*
X36040000Y21139750D01*
X36040000Y20900001D01*
X36040001Y20900000D01*
X40605011Y20900000D01*
X40652592Y20909467D01*
X40680484Y20907901D01*
X40799997Y20894435D01*
X40800000Y20894435D01*
X40800004Y20894435D01*
X40945848Y20910868D01*
X40979255Y20914632D01*
X41149522Y20974211D01*
X41149527Y20974215D01*
X41149529Y20974215D01*
X41302257Y21070181D01*
X41302256Y21070181D01*
X41302262Y21070184D01*
X41429816Y21197738D01*
X41503116Y21314394D01*
X41525785Y21350471D01*
X41525785Y21350473D01*
X41525789Y21350478D01*
X41585368Y21520745D01*
X41598486Y21637168D01*
X41605565Y21699997D01*
X41605565Y21700004D01*
X41585369Y21879246D01*
X41585368Y21879255D01*
X41525789Y22049522D01*
X41525786Y22049526D01*
X41524655Y22051876D01*
X41523787Y22055241D01*
X41521170Y22062720D01*
X41521801Y22062941D01*
X41500391Y22145953D01*
X41500000Y22159906D01*
X41500000Y23640095D01*
X41518954Y23735383D01*
X41524661Y23748136D01*
X41525784Y23750472D01*
X41525789Y23750478D01*
X41585368Y23920745D01*
X41603044Y24077622D01*
X41605565Y24099997D01*
X41605565Y24100003D01*
X41591693Y24223121D01*
X41599859Y24319932D01*
X41644451Y24406249D01*
X41718681Y24468931D01*
X41811248Y24498434D01*
X41839127Y24500000D01*
X42655916Y24500000D01*
X42738155Y24486027D01*
X42787013Y24468931D01*
X42870745Y24439632D01*
X42870754Y24439631D01*
X43049996Y24419435D01*
X43050000Y24419435D01*
X43050004Y24419435D01*
X43189908Y24435199D01*
X43229255Y24439632D01*
X43399522Y24499211D01*
X43399527Y24499215D01*
X43399529Y24499215D01*
X43498391Y24561334D01*
X43589158Y24595982D01*
X43630867Y24599500D01*
X44412770Y24599500D01*
X44508058Y24580546D01*
X44588836Y24526573D01*
X44601267Y24514142D01*
X44644162Y24485481D01*
X44644165Y24485478D01*
X44644166Y24485478D01*
X44703714Y24445688D01*
X44767093Y24419437D01*
X44767096Y24419434D01*
X44812934Y24400448D01*
X44817548Y24398537D01*
X44874907Y24387128D01*
X44938393Y24374500D01*
X44938394Y24374500D01*
X45387770Y24374500D01*
X45483058Y24355546D01*
X45563840Y24301570D01*
X50927070Y18938340D01*
X50981046Y18857558D01*
X51000000Y18762270D01*
X51000000Y18096393D01*
X50981046Y18001105D01*
X50969176Y17977893D01*
X50965184Y17969333D01*
X50910002Y17802803D01*
X50910001Y17802796D01*
X50902207Y17726503D01*
X50899500Y17700009D01*
X50899500Y17002258D01*
X50899501Y16749000D01*
X50880547Y16653712D01*
X50826571Y16572931D01*
X50745789Y16518954D01*
X50650501Y16500000D01*
X50349000Y16500000D01*
X50253712Y16518954D01*
X50172930Y16572930D01*
X50118954Y16653712D01*
X50100000Y16749000D01*
X50100000Y16749999D01*
X50099999Y16750000D01*
X47950002Y16750000D01*
X47950001Y16749999D01*
X47950001Y16300016D01*
X47960494Y16197301D01*
X47960495Y16197298D01*
X48015640Y16030881D01*
X48051077Y15973429D01*
X48084968Y15882378D01*
X48081436Y15785287D01*
X48051081Y15712000D01*
X48040186Y15694337D01*
X48040184Y15694333D01*
X47985002Y15527803D01*
X47985001Y15527796D01*
X47974500Y15425012D01*
X47974500Y14074994D01*
X47985001Y13972200D01*
X48040185Y13805666D01*
X48040187Y13805663D01*
X48089743Y13725320D01*
X48123635Y13634269D01*
X48120103Y13537178D01*
X48089746Y13463887D01*
X48077684Y13444332D01*
X48022502Y13277803D01*
X48022502Y13277801D01*
X48022501Y13277797D01*
X48019968Y13253004D01*
X48012000Y13175012D01*
X48012000Y11824994D01*
X48022501Y11722200D01*
X48062361Y11601913D01*
X48075000Y11523590D01*
X48075000Y10874500D01*
X48056046Y10779212D01*
X48002070Y10698430D01*
X47921288Y10644454D01*
X47826000Y10625500D01*
X47362230Y10625500D01*
X47266942Y10644454D01*
X47186160Y10698430D01*
X45948430Y11936160D01*
X45894454Y12016942D01*
X45875500Y12112230D01*
X45875500Y17699982D01*
X47950000Y17699982D01*
X47950000Y17250001D01*
X47950001Y17250000D01*
X48774999Y17250000D01*
X48775000Y17250001D01*
X48775000Y18399999D01*
X49275000Y18399999D01*
X49275000Y17250001D01*
X49275001Y17250000D01*
X50099998Y17250000D01*
X50099999Y17250001D01*
X50099999Y17699968D01*
X50099998Y17699985D01*
X50089505Y17802700D01*
X50089504Y17802703D01*
X50034359Y17969120D01*
X50034358Y17969122D01*
X49942318Y18118342D01*
X49942315Y18118346D01*
X49818345Y18242316D01*
X49818341Y18242319D01*
X49669121Y18334359D01*
X49669120Y18334360D01*
X49502701Y18389505D01*
X49502694Y18389506D01*
X49399981Y18400000D01*
X49275001Y18400000D01*
X49275000Y18399999D01*
X48775000Y18399999D01*
X48775000Y18400001D01*
X48650024Y18400000D01*
X48547300Y18389506D01*
X48547297Y18389505D01*
X48380880Y18334360D01*
X48380878Y18334359D01*
X48231658Y18242319D01*
X48231654Y18242316D01*
X48107684Y18118346D01*
X48107681Y18118342D01*
X48015641Y17969122D01*
X48015640Y17969121D01*
X47960495Y17802702D01*
X47960494Y17802695D01*
X47950000Y17699982D01*
X45875500Y17699982D01*
X45875500Y20919134D01*
X45894454Y21014422D01*
X45913662Y21051605D01*
X45975789Y21150478D01*
X46035368Y21320745D01*
X46049133Y21442911D01*
X46055565Y21499997D01*
X46055565Y21500004D01*
X46035369Y21679246D01*
X46035368Y21679255D01*
X45975789Y21849522D01*
X45964478Y21867522D01*
X45929830Y21958285D01*
X45932553Y22055402D01*
X45964478Y22132478D01*
X45975789Y22150478D01*
X46035368Y22320745D01*
X46045191Y22407930D01*
X46055565Y22499997D01*
X46055565Y22500004D01*
X46035369Y22679246D01*
X46035368Y22679255D01*
X45975789Y22849522D01*
X45975786Y22849527D01*
X45975785Y22849530D01*
X45879819Y23002258D01*
X45879817Y23002260D01*
X45879816Y23002262D01*
X45752262Y23129816D01*
X45752259Y23129818D01*
X45752257Y23129820D01*
X45599529Y23225786D01*
X45599524Y23225788D01*
X45599522Y23225789D01*
X45429255Y23285368D01*
X45429251Y23285369D01*
X45429245Y23285370D01*
X45250004Y23305565D01*
X45249996Y23305565D01*
X45070754Y23285370D01*
X45070746Y23285369D01*
X45070745Y23285368D01*
X44900478Y23225789D01*
X44900476Y23225789D01*
X44900476Y23225788D01*
X44900470Y23225786D01*
X44747742Y23129820D01*
X44620180Y23002258D01*
X44524214Y22849530D01*
X44524211Y22849524D01*
X44524211Y22849522D01*
X44471969Y22700222D01*
X44464632Y22679255D01*
X44464225Y22675640D01*
X44462753Y22671022D01*
X44461521Y22665624D01*
X44461065Y22665728D01*
X44434720Y22583073D01*
X44392863Y22527456D01*
X44249076Y22383667D01*
X43989140Y22123732D01*
X43961115Y22081788D01*
X43961113Y22081786D01*
X43920689Y22021291D01*
X43889290Y21945482D01*
X43889287Y21945475D01*
X43873538Y21907458D01*
X43873535Y21907447D01*
X43867372Y21876464D01*
X43867373Y21876463D01*
X43849865Y21788441D01*
X43849859Y21788412D01*
X43849500Y21786611D01*
X43849500Y21786606D01*
X43849500Y11713394D01*
X43873537Y11592548D01*
X43873538Y11592546D01*
X43873539Y11592542D01*
X43884376Y11566379D01*
X43920687Y11478715D01*
X43923451Y11474579D01*
X43943561Y11444483D01*
X43943562Y11444480D01*
X43943563Y11444480D01*
X43966228Y11410559D01*
X43989142Y11376267D01*
X44076267Y11289142D01*
X44076270Y11289140D01*
X46264139Y9101271D01*
X46264142Y9101267D01*
X46351267Y9014142D01*
X46395492Y8984592D01*
X46395493Y8984591D01*
X46409998Y8974899D01*
X46453715Y8945688D01*
X46517096Y8919435D01*
X46567548Y8898537D01*
X46567551Y8898537D01*
X46567552Y8898536D01*
X46579504Y8896159D01*
X46591777Y8893718D01*
X46591784Y8893715D01*
X46591785Y8893716D01*
X46605532Y8890982D01*
X46688393Y8874500D01*
X46688394Y8874500D01*
X47859374Y8874500D01*
X47954662Y8855546D01*
X48035444Y8801570D01*
X48089420Y8720788D01*
X48108374Y8625500D01*
X48089420Y8530212D01*
X48071302Y8494781D01*
X48040185Y8444333D01*
X48040184Y8444333D01*
X47985002Y8277803D01*
X47985001Y8277796D01*
X47975117Y8181046D01*
X47974500Y8175009D01*
X47974500Y7513898D01*
X47974501Y6999500D01*
X47955547Y6904212D01*
X47901571Y6823431D01*
X47820789Y6769454D01*
X47725501Y6750500D01*
X47426079Y6750500D01*
X47281088Y6721659D01*
X47281085Y6721658D01*
X47144512Y6665088D01*
X47144504Y6665084D01*
X47070245Y6615465D01*
X47021583Y6582951D01*
X45262062Y4823430D01*
X45181280Y4769454D01*
X45085992Y4750500D01*
X44821209Y4750500D01*
X44738971Y4764473D01*
X44679259Y4785367D01*
X44679256Y4785368D01*
X44679255Y4785368D01*
X44679253Y4785369D01*
X44679245Y4785370D01*
X44500004Y4805565D01*
X44499996Y4805565D01*
X44320754Y4785370D01*
X44320746Y4785369D01*
X44320745Y4785368D01*
X44150478Y4725789D01*
X44150476Y4725789D01*
X44150476Y4725788D01*
X44150470Y4725786D01*
X43997742Y4629820D01*
X43870180Y4502258D01*
X43774214Y4349530D01*
X43774211Y4349524D01*
X43774211Y4349522D01*
X43725633Y4210692D01*
X43714632Y4179254D01*
X43714630Y4179246D01*
X43694435Y4000004D01*
X43694435Y4000000D01*
X43714630Y3820755D01*
X43714631Y3820749D01*
X43714632Y3820745D01*
X43774211Y3650478D01*
X43774212Y3650477D01*
X43774214Y3650471D01*
X43870180Y3497743D01*
X43870182Y3497741D01*
X43870184Y3497738D01*
X43997738Y3370184D01*
X43997740Y3370183D01*
X43997742Y3370181D01*
X44150470Y3274215D01*
X44150473Y3274214D01*
X44150478Y3274211D01*
X44320745Y3214632D01*
X44320754Y3214631D01*
X44499996Y3194435D01*
X44500000Y3194435D01*
X44500004Y3194435D01*
X44639908Y3210199D01*
X44679255Y3214632D01*
X44714815Y3227075D01*
X44738971Y3235527D01*
X44821209Y3249500D01*
X45573919Y3249500D01*
X45573919Y3249501D01*
X45718913Y3278342D01*
X45855495Y3334916D01*
X45914737Y3374500D01*
X45978416Y3417048D01*
X46436366Y3874999D01*
X53425001Y3874999D01*
X53425001Y3425016D01*
X53435494Y3322301D01*
X53435495Y3322298D01*
X53490640Y3155881D01*
X53490641Y3155879D01*
X53582681Y3006659D01*
X53582684Y3006655D01*
X53706654Y2882685D01*
X53706658Y2882682D01*
X53855878Y2790642D01*
X53855879Y2790641D01*
X54022298Y2735496D01*
X54022305Y2735495D01*
X54125023Y2725001D01*
X54250000Y2725002D01*
X54250000Y3874999D01*
X54249999Y3875000D01*
X53425002Y3875000D01*
X53425001Y3874999D01*
X46436366Y3874999D01*
X47386348Y4824982D01*
X53425000Y4824982D01*
X53425000Y4375001D01*
X53425001Y4375000D01*
X54249999Y4375000D01*
X54250000Y4375001D01*
X54250000Y5525001D01*
X54125024Y5525000D01*
X54022300Y5514506D01*
X54022297Y5514505D01*
X53855880Y5459360D01*
X53855878Y5459359D01*
X53706658Y5367319D01*
X53706654Y5367316D01*
X53582684Y5243346D01*
X53582681Y5243342D01*
X53490641Y5094122D01*
X53490640Y5094121D01*
X53435495Y4927702D01*
X53435494Y4927695D01*
X53425000Y4824982D01*
X47386348Y4824982D01*
X47737937Y5176571D01*
X47818719Y5230546D01*
X47914007Y5249500D01*
X48678791Y5249500D01*
X48761029Y5235527D01*
X48796479Y5223123D01*
X48820745Y5214632D01*
X48820754Y5214631D01*
X48999996Y5194435D01*
X49000000Y5194435D01*
X49000004Y5194435D01*
X49145848Y5210868D01*
X49179255Y5214632D01*
X49349522Y5274211D01*
X49349527Y5274215D01*
X49349529Y5274215D01*
X49486056Y5360001D01*
X49502262Y5370184D01*
X49629816Y5497738D01*
X49689532Y5592775D01*
X49725785Y5650471D01*
X49725785Y5650473D01*
X49725789Y5650478D01*
X49785368Y5820745D01*
X49805565Y6000000D01*
X49805565Y6001000D01*
X49805825Y6002312D01*
X49807131Y6013895D01*
X49808108Y6013785D01*
X49824519Y6096288D01*
X49878495Y6177070D01*
X49959277Y6231046D01*
X50054565Y6250000D01*
X51163076Y6250000D01*
X51258364Y6231046D01*
X51293791Y6212931D01*
X51330666Y6190186D01*
X51330669Y6190185D01*
X51330667Y6190185D01*
X51468733Y6144435D01*
X51497203Y6135001D01*
X51599991Y6124500D01*
X52325008Y6124501D01*
X52427797Y6135001D01*
X52594334Y6190186D01*
X52743656Y6282288D01*
X52867712Y6406344D01*
X52959814Y6555666D01*
X53014999Y6722203D01*
X53025500Y6824991D01*
X53025499Y8073127D01*
X53044453Y8168414D01*
X53098429Y8249195D01*
X56526306Y11677071D01*
X56607087Y11731046D01*
X56702375Y11750000D01*
X59085492Y11750000D01*
X59180780Y11731046D01*
X59261562Y11677070D01*
X59427070Y11511562D01*
X59481046Y11430780D01*
X59500000Y11335492D01*
X59500000Y10349500D01*
X59481046Y10254212D01*
X59427070Y10173430D01*
X59346288Y10119454D01*
X59251000Y10100500D01*
X58094335Y10100500D01*
X58094319Y10100501D01*
X58079058Y10100501D01*
X57920943Y10100501D01*
X57768217Y10059578D01*
X57768212Y10059576D01*
X57631285Y9980521D01*
X57631283Y9980520D01*
X56824193Y9173430D01*
X56743412Y9119454D01*
X56648124Y9100500D01*
X55252134Y9100500D01*
X55252130Y9100500D01*
X55252128Y9100499D01*
X55239314Y9099122D01*
X55192519Y9094092D01*
X55192515Y9094091D01*
X55057670Y9043797D01*
X54942455Y8957547D01*
X54942453Y8957545D01*
X54856204Y8842331D01*
X54805908Y8707482D01*
X54799500Y8647877D01*
X54799500Y5952135D01*
X54799500Y5952132D01*
X54799501Y5952128D01*
X54800543Y5942436D01*
X54805908Y5892520D01*
X54805909Y5892516D01*
X54834638Y5815489D01*
X54850177Y5719585D01*
X54827833Y5625034D01*
X54777406Y5552407D01*
X54750000Y5525001D01*
X54750000Y2725002D01*
X54750001Y2725001D01*
X54874968Y2725001D01*
X54874984Y2725002D01*
X54977697Y2735495D01*
X54983333Y2737362D01*
X55061653Y2750000D01*
X56886759Y2750000D01*
X56965080Y2737362D01*
X56972203Y2735001D01*
X57074991Y2724500D01*
X57825008Y2724501D01*
X57927797Y2735001D01*
X57934916Y2737360D01*
X58013242Y2750000D01*
X58936759Y2750000D01*
X59015080Y2737362D01*
X59022203Y2735001D01*
X59124991Y2724500D01*
X59875008Y2724501D01*
X59977797Y2735001D01*
X59984916Y2737360D01*
X60063242Y2750000D01*
X61888347Y2750000D01*
X61966667Y2737362D01*
X61972300Y2735496D01*
X61972305Y2735495D01*
X62075023Y2725001D01*
X62200000Y2725002D01*
X62200000Y3874999D01*
X62700000Y3874999D01*
X62700000Y2725002D01*
X62700001Y2725001D01*
X62824968Y2725001D01*
X62824984Y2725002D01*
X62927699Y2735495D01*
X62927702Y2735496D01*
X63094119Y2790641D01*
X63094121Y2790642D01*
X63243341Y2882682D01*
X63243345Y2882685D01*
X63367315Y3006655D01*
X63367318Y3006659D01*
X63459358Y3155879D01*
X63459359Y3155880D01*
X63514504Y3322299D01*
X63514505Y3322306D01*
X63524999Y3425019D01*
X63525000Y3425029D01*
X63525000Y3874999D01*
X63524999Y3875000D01*
X62700001Y3875000D01*
X62700000Y3874999D01*
X62200000Y3874999D01*
X62200000Y5524999D01*
X62700000Y5524999D01*
X62700000Y4375001D01*
X62700001Y4375000D01*
X63524998Y4375000D01*
X63524999Y4375001D01*
X63524999Y4824968D01*
X63524998Y4824985D01*
X63514505Y4927700D01*
X63514504Y4927703D01*
X63459359Y5094120D01*
X63459358Y5094122D01*
X63367318Y5243342D01*
X63367315Y5243346D01*
X63243345Y5367316D01*
X63243341Y5367319D01*
X63094121Y5459359D01*
X63094120Y5459360D01*
X62927701Y5514505D01*
X62927694Y5514506D01*
X62824981Y5525000D01*
X62700001Y5525000D01*
X62700000Y5524999D01*
X62200000Y5524999D01*
X62200000Y5525001D01*
X62196115Y5528886D01*
X62120354Y5543955D01*
X62039572Y5597931D01*
X61985596Y5678713D01*
X61966642Y5774001D01*
X61982342Y5861018D01*
X61994091Y5892517D01*
X62000500Y5952127D01*
X62000500Y6251000D01*
X62019454Y6346288D01*
X62073430Y6427070D01*
X62154212Y6481046D01*
X62249500Y6500000D01*
X64075500Y6500000D01*
X64170788Y6481046D01*
X64251570Y6427070D01*
X64305546Y6346288D01*
X64324500Y6251000D01*
X64324500Y5411607D01*
X64324500Y5288393D01*
X64341983Y5200500D01*
X64348537Y5167548D01*
X64395689Y5053712D01*
X64426772Y5007196D01*
X64426773Y5007194D01*
X64464142Y4951267D01*
X64551267Y4864142D01*
X64551270Y4864140D01*
X64901570Y4513840D01*
X64955546Y4433058D01*
X64974500Y4337770D01*
X64974500Y3325003D01*
X64974501Y3324986D01*
X64985001Y3222200D01*
X65040115Y3055879D01*
X65040186Y3055666D01*
X65132288Y2906344D01*
X65256344Y2782288D01*
X65405666Y2690186D01*
X65405669Y2690185D01*
X65405667Y2690185D01*
X65569104Y2636028D01*
X65572203Y2635001D01*
X65674991Y2624500D01*
X66400008Y2624501D01*
X66502797Y2635001D01*
X66669334Y2690186D01*
X66818656Y2782288D01*
X66942712Y2906344D01*
X67034814Y3055666D01*
X67089999Y3222203D01*
X67100500Y3324991D01*
X67100500Y3749999D01*
X67900001Y3749999D01*
X67900001Y3325016D01*
X67910494Y3222301D01*
X67910495Y3222298D01*
X67965640Y3055881D01*
X67965641Y3055879D01*
X68057681Y2906659D01*
X68057684Y2906655D01*
X68181654Y2782685D01*
X68181658Y2782682D01*
X68330878Y2690642D01*
X68330879Y2690641D01*
X68497298Y2635496D01*
X68497305Y2635495D01*
X68600023Y2625001D01*
X68712500Y2625002D01*
X68712500Y3749999D01*
X69212500Y3749999D01*
X69212500Y2625002D01*
X69212501Y2625001D01*
X69324968Y2625001D01*
X69324984Y2625002D01*
X69427699Y2635495D01*
X69427702Y2635496D01*
X69594119Y2690641D01*
X69594121Y2690642D01*
X69743341Y2782682D01*
X69743349Y2782688D01*
X69849259Y2888598D01*
X69930040Y2942575D01*
X70025328Y2961529D01*
X70120616Y2942575D01*
X70156050Y2924456D01*
X70252285Y2865097D01*
X70252287Y2865096D01*
X70417329Y2810408D01*
X70519189Y2800001D01*
X70519200Y2800000D01*
X70562499Y2800000D01*
X70562500Y2800001D01*
X70562500Y3750000D01*
X69212501Y3750000D01*
X69212500Y3749999D01*
X68712500Y3749999D01*
X68712499Y3750000D01*
X67900002Y3750000D01*
X67900001Y3749999D01*
X67100500Y3749999D01*
X67100499Y4674982D01*
X67900000Y4674982D01*
X67900000Y4250001D01*
X67900001Y4250000D01*
X68712499Y4250000D01*
X68712500Y4250001D01*
X68712500Y5375001D01*
X68600024Y5375000D01*
X68497300Y5364506D01*
X68497297Y5364505D01*
X68330880Y5309360D01*
X68330878Y5309359D01*
X68181658Y5217319D01*
X68181654Y5217316D01*
X68057684Y5093346D01*
X68057681Y5093342D01*
X67965641Y4944122D01*
X67965640Y4944121D01*
X67910495Y4777702D01*
X67910494Y4777695D01*
X67900000Y4674982D01*
X67100499Y4674982D01*
X67100499Y4675008D01*
X67089999Y4777797D01*
X67087490Y4785368D01*
X67042545Y4921003D01*
X67034814Y4944334D01*
X66987070Y5021739D01*
X66953180Y5112790D01*
X66950000Y5152456D01*
X66950000Y6251000D01*
X66968954Y6346288D01*
X67022930Y6427070D01*
X67103712Y6481046D01*
X67199000Y6500000D01*
X69700501Y6500000D01*
X69795789Y6481046D01*
X69876571Y6427070D01*
X69930547Y6346288D01*
X69949500Y6251002D01*
X69949501Y6049992D01*
X69949501Y6049984D01*
X69949678Y6046526D01*
X69950000Y6033857D01*
X69950000Y5599000D01*
X69931046Y5503712D01*
X69877070Y5422930D01*
X69796288Y5368954D01*
X69701000Y5350000D01*
X69511653Y5350000D01*
X69433333Y5362638D01*
X69427699Y5364505D01*
X69427694Y5364506D01*
X69324981Y5375000D01*
X69212501Y5375000D01*
X69212500Y5374999D01*
X69212500Y4250001D01*
X69212501Y4250000D01*
X70563500Y4250000D01*
X70658788Y4231046D01*
X70739570Y4177070D01*
X70793546Y4096288D01*
X70812500Y4001000D01*
X70812500Y4000000D01*
X70813500Y4000000D01*
X70908788Y3981046D01*
X70989570Y3927070D01*
X71043546Y3846288D01*
X71062500Y3751000D01*
X71062500Y2800001D01*
X71062501Y2800000D01*
X72377997Y2800000D01*
X72390664Y2799678D01*
X72394146Y2799501D01*
X72394152Y2799500D01*
X72394158Y2799500D01*
X72980842Y2799500D01*
X72980848Y2799500D01*
X72980853Y2799501D01*
X72984336Y2799678D01*
X72997003Y2800000D01*
X73657012Y2800000D01*
X73752300Y2781046D01*
X73787730Y2762929D01*
X73905666Y2690186D01*
X73905669Y2690185D01*
X73905667Y2690185D01*
X74069104Y2636028D01*
X74072203Y2635001D01*
X74174991Y2624500D01*
X74900008Y2624501D01*
X75002797Y2635001D01*
X75169334Y2690186D01*
X75318656Y2782288D01*
X75442712Y2906344D01*
X75534814Y3055666D01*
X75589999Y3222203D01*
X75600500Y3324991D01*
X75600499Y4675008D01*
X75589999Y4777797D01*
X75587490Y4785368D01*
X75542545Y4921003D01*
X75534814Y4944334D01*
X75442712Y5093656D01*
X75318656Y5217712D01*
X75309883Y5223123D01*
X75266313Y5249997D01*
X75169334Y5309814D01*
X75169332Y5309815D01*
X75169330Y5309816D01*
X75169332Y5309816D01*
X75073915Y5341433D01*
X74989426Y5389397D01*
X74929722Y5466043D01*
X74903895Y5559702D01*
X74915876Y5656116D01*
X74940304Y5708504D01*
X74984814Y5780666D01*
X75039999Y5947203D01*
X75050500Y6049991D01*
X75050499Y6351003D01*
X75069453Y6446287D01*
X75123429Y6527069D01*
X75204210Y6581046D01*
X75299498Y6600000D01*
X76248299Y6600000D01*
X76277301Y6634263D01*
X76363671Y6678752D01*
X76404438Y6686836D01*
X76429255Y6689632D01*
X76429262Y6689635D01*
X76442882Y6692743D01*
X76443653Y6689364D01*
X76514382Y6699372D01*
X76608466Y6675135D01*
X76686112Y6616738D01*
X76735501Y6533073D01*
X76749500Y6450759D01*
X76749500Y5389008D01*
X76730546Y5293720D01*
X76676570Y5212939D01*
X76557288Y5093657D01*
X76465184Y4944332D01*
X76410002Y4777803D01*
X76410002Y4777801D01*
X76410001Y4777797D01*
X76409503Y4772925D01*
X76399500Y4675012D01*
X76399500Y3324994D01*
X76410001Y3222200D01*
X76465115Y3055879D01*
X76465186Y3055666D01*
X76557288Y2906344D01*
X76681344Y2782288D01*
X76830666Y2690186D01*
X76830669Y2690185D01*
X76830667Y2690185D01*
X76994104Y2636028D01*
X76997203Y2635001D01*
X77099991Y2624500D01*
X77825008Y2624501D01*
X77927797Y2635001D01*
X77927799Y2635002D01*
X77927801Y2635002D01*
X77927801Y2635003D01*
X77965691Y2647559D01*
X77972675Y2649872D01*
X78069089Y2661854D01*
X78162748Y2636028D01*
X78239395Y2576326D01*
X78287360Y2491837D01*
X78300000Y2413512D01*
X78300000Y1624500D01*
X78281046Y1529212D01*
X78227070Y1448430D01*
X78146288Y1394454D01*
X78051000Y1375500D01*
X41949000Y1375500D01*
X41853712Y1394454D01*
X41772930Y1448430D01*
X41718954Y1529212D01*
X41700000Y1624500D01*
X41700000Y6368309D01*
X41696519Y6369300D01*
X41620371Y6429637D01*
X41575086Y6508637D01*
X41525789Y6649522D01*
X41525786Y6649527D01*
X41525785Y6649530D01*
X41429819Y6802258D01*
X41429817Y6802260D01*
X41429816Y6802262D01*
X41302262Y6929816D01*
X41302259Y6929818D01*
X41302257Y6929820D01*
X41149529Y7025786D01*
X41149524Y7025788D01*
X41149522Y7025789D01*
X40979255Y7085368D01*
X40979251Y7085369D01*
X40979245Y7085370D01*
X40800004Y7105565D01*
X40786017Y7105565D01*
X40786017Y7108570D01*
X40712422Y7114795D01*
X40626116Y7159407D01*
X40563451Y7233652D01*
X40533969Y7326225D01*
X40533178Y7373585D01*
X40539999Y7460256D01*
X40540000Y7460263D01*
X40540000Y7699999D01*
X40539999Y7700000D01*
X36040001Y7700000D01*
X36040000Y7699999D01*
X36040000Y7460249D01*
X36046354Y7379504D01*
X36046402Y7379230D01*
X36050000Y7337056D01*
X36050000Y6025917D01*
X36046404Y5983754D01*
X36045858Y5980579D01*
X36039500Y5899792D01*
X36039500Y5899778D01*
X36039500Y4920222D01*
X36041461Y4895311D01*
X36045859Y4839419D01*
X36046403Y4836256D01*
X36050000Y4794085D01*
X36050000Y3485917D01*
X36046404Y3443754D01*
X36045858Y3440579D01*
X36039500Y3359792D01*
X36039500Y3359778D01*
X36039500Y2380222D01*
X36041492Y2354914D01*
X36045859Y2299419D01*
X36046403Y2296256D01*
X36050000Y2254085D01*
X36050000Y1624500D01*
X36031046Y1529212D01*
X35977070Y1448430D01*
X35896288Y1394454D01*
X35801000Y1375500D01*
X32749000Y1375500D01*
X32653712Y1394454D01*
X32572930Y1448430D01*
X32518954Y1529212D01*
X32500000Y1624500D01*
X32500000Y2368026D01*
X32518954Y2463314D01*
X32520973Y2468048D01*
X32554154Y2543693D01*
X32554154Y2543694D01*
X32554157Y2543700D01*
X32611134Y2768695D01*
X32630300Y3000000D01*
X32611134Y3231305D01*
X32578596Y3359792D01*
X32554158Y3456297D01*
X32554155Y3456305D01*
X32520972Y3531955D01*
X32500053Y3626831D01*
X32500000Y3631977D01*
X32500000Y7249999D01*
X32500000Y7250000D01*
X32499999Y7250000D01*
X31236242Y7250000D01*
X31171796Y7258485D01*
X31164089Y7260550D01*
X31142983Y7266206D01*
X31142979Y7266207D01*
X31142977Y7266207D01*
X30925000Y7285277D01*
X30707023Y7266207D01*
X30707021Y7266207D01*
X30707016Y7266206D01*
X30684029Y7260046D01*
X30678203Y7258485D01*
X30613758Y7250000D01*
X26386242Y7250000D01*
X26321796Y7258485D01*
X26314089Y7260550D01*
X26292983Y7266206D01*
X26292979Y7266207D01*
X26292977Y7266207D01*
X26075000Y7285277D01*
X25857023Y7266207D01*
X25857021Y7266207D01*
X25857016Y7266206D01*
X25834029Y7260046D01*
X25828203Y7258485D01*
X25763758Y7250000D01*
X23699500Y7250000D01*
X23604212Y7268954D01*
X23523430Y7322930D01*
X23469454Y7403712D01*
X23450500Y7499000D01*
X23450500Y12906421D01*
X23455285Y12955003D01*
X23455500Y12956084D01*
X23455500Y13103918D01*
X23455499Y13103923D01*
X23455284Y13105006D01*
X23450500Y13153580D01*
X23450500Y18599792D01*
X36039500Y18599792D01*
X36039500Y18599778D01*
X36039500Y17620222D01*
X36042740Y17579057D01*
X36045859Y17539419D01*
X36046403Y17536256D01*
X36050000Y17494085D01*
X36050000Y16185917D01*
X36046404Y16143754D01*
X36045858Y16140579D01*
X36039500Y16059792D01*
X36039500Y16059778D01*
X36039500Y15080222D01*
X36043311Y15031799D01*
X36045859Y14999419D01*
X36046403Y14996256D01*
X36050000Y14954085D01*
X36050000Y13645917D01*
X36046404Y13603754D01*
X36045858Y13600579D01*
X36039500Y13519792D01*
X36039500Y13519778D01*
X36039500Y12540222D01*
X36042666Y12499997D01*
X36045859Y12459419D01*
X36046403Y12456256D01*
X36050000Y12414085D01*
X36050000Y11105917D01*
X36046404Y11063754D01*
X36045858Y11060579D01*
X36039500Y10979792D01*
X36039500Y10979778D01*
X36039500Y10000222D01*
X36041051Y9980520D01*
X36045859Y9919419D01*
X36046403Y9916256D01*
X36050000Y9874085D01*
X36050000Y8562943D01*
X36046403Y8520772D01*
X36046354Y8520492D01*
X36040000Y8439750D01*
X36040000Y8200001D01*
X36040001Y8200000D01*
X40539999Y8200000D01*
X40566409Y8226410D01*
X40647190Y8280387D01*
X40742478Y8299341D01*
X40770351Y8297776D01*
X40800000Y8294435D01*
X40800001Y8294436D01*
X40800002Y8294435D01*
X40800004Y8294435D01*
X40939908Y8310199D01*
X40979255Y8314632D01*
X41149522Y8374211D01*
X41149527Y8374215D01*
X41149529Y8374215D01*
X41302257Y8470181D01*
X41302256Y8470181D01*
X41302262Y8470184D01*
X41429816Y8597738D01*
X41498773Y8707482D01*
X41525785Y8750471D01*
X41525785Y8750473D01*
X41525789Y8750478D01*
X41585368Y8920745D01*
X41585369Y8920758D01*
X41588481Y8934384D01*
X41592318Y8933508D01*
X41613046Y8999060D01*
X41655184Y9055185D01*
X41699999Y9100000D01*
X41700000Y9100000D01*
X41700000Y16500000D01*
X41700000Y16537061D01*
X41646800Y16573657D01*
X41593920Y16655161D01*
X41590476Y16666228D01*
X41589986Y16666056D01*
X41585368Y16679253D01*
X41585368Y16679255D01*
X41525789Y16849522D01*
X41525786Y16849527D01*
X41525785Y16849530D01*
X41429819Y17002258D01*
X41429817Y17002260D01*
X41429816Y17002262D01*
X41302262Y17129816D01*
X41302259Y17129818D01*
X41302257Y17129820D01*
X41149529Y17225786D01*
X41149524Y17225788D01*
X41149522Y17225789D01*
X40979255Y17285368D01*
X40979251Y17285369D01*
X40979247Y17285370D01*
X40975639Y17285776D01*
X40971028Y17287246D01*
X40965616Y17288481D01*
X40965720Y17288938D01*
X40883073Y17315280D01*
X40827450Y17357140D01*
X40613430Y17571160D01*
X40559454Y17651942D01*
X40540500Y17747230D01*
X40540500Y18599771D01*
X40540500Y18599778D01*
X40534141Y18680578D01*
X40483788Y18868496D01*
X40395465Y19041840D01*
X40344508Y19104766D01*
X40273036Y19193027D01*
X40273032Y19193032D01*
X40273026Y19193037D01*
X40263804Y19202259D01*
X40266019Y19204475D01*
X40218577Y19261527D01*
X40189774Y19354314D01*
X40198671Y19451061D01*
X40243915Y19537039D01*
X40264215Y19557330D01*
X40263448Y19558097D01*
X40272676Y19567326D01*
X40395042Y19718433D01*
X40483318Y19891686D01*
X40483319Y19891688D01*
X40533643Y20079499D01*
X40533645Y20079509D01*
X40539999Y20160249D01*
X40540000Y20160263D01*
X40540000Y20399999D01*
X40539999Y20400000D01*
X36040001Y20400000D01*
X36040000Y20399999D01*
X36040000Y20160249D01*
X36046354Y20079504D01*
X36046402Y20079230D01*
X36050000Y20037056D01*
X36050000Y18725917D01*
X36046404Y18683754D01*
X36045858Y18680579D01*
X36039500Y18599792D01*
X23450500Y18599792D01*
X23450500Y35960993D01*
X23469454Y36056281D01*
X23523430Y36137063D01*
X30563437Y43177070D01*
X30644219Y43231046D01*
X30739507Y43250000D01*
X32225933Y43250000D01*
X32321221Y43231046D01*
G37*
%TD.AperFunction*%
%TA.AperFunction,Conductor*%
G36*
X79046288Y8731046D02*
G01*
X79127070Y8677070D01*
X79181046Y8596288D01*
X79200000Y8501000D01*
X79200000Y8500001D01*
X79200001Y8500000D01*
X80083333Y8500000D01*
X80166667Y8000000D01*
X79200002Y8000000D01*
X79200001Y7999999D01*
X79200001Y7550016D01*
X79210494Y7447301D01*
X79210495Y7447298D01*
X79265640Y7280881D01*
X79265641Y7280879D01*
X79357681Y7131659D01*
X79357687Y7131651D01*
X79427068Y7062271D01*
X79481045Y6981490D01*
X79500000Y6886202D01*
X79500000Y6336437D01*
X79481046Y6241149D01*
X79427070Y6160367D01*
X79339633Y6072930D01*
X79258851Y6018954D01*
X79163563Y6000000D01*
X78499500Y6000000D01*
X78404212Y6018954D01*
X78323430Y6072930D01*
X78269454Y6153712D01*
X78250500Y6249000D01*
X78250500Y8501000D01*
X78269454Y8596288D01*
X78323430Y8677070D01*
X78404212Y8731046D01*
X78499500Y8750000D01*
X78951000Y8750000D01*
X79046288Y8731046D01*
G37*
%TD.AperFunction*%
%TA.AperFunction,Conductor*%
G36*
X9759075Y27192993D02*
G01*
X9725000Y27065826D01*
X9725000Y26934174D01*
X9759075Y26807007D01*
X9791988Y26750000D01*
X8875001Y26750000D01*
X8875000Y26749999D01*
X8875000Y26102168D01*
X8881401Y26042629D01*
X8881403Y26042622D01*
X8931646Y25907913D01*
X9017810Y25792813D01*
X9017812Y25792811D01*
X9132912Y25706647D01*
X9267621Y25656404D01*
X9267628Y25656402D01*
X9327167Y25650001D01*
X9327175Y25650000D01*
X9974999Y25650000D01*
X9975000Y25650001D01*
X9975000Y26566988D01*
X10032007Y26534075D01*
X10159174Y26500000D01*
X10290826Y26500000D01*
X10417993Y26534075D01*
X10475000Y26566988D01*
X10475000Y25650001D01*
X10475001Y25650000D01*
X11122825Y25650000D01*
X11122832Y25650001D01*
X11182371Y25656402D01*
X11182378Y25656404D01*
X11317087Y25706647D01*
X11432187Y25792811D01*
X11432189Y25792813D01*
X11529026Y25922169D01*
X11532313Y25919709D01*
X11572897Y25968286D01*
X11658978Y26013333D01*
X11755745Y26022009D01*
X11848466Y25992993D01*
X11889223Y25965177D01*
X11893593Y25961511D01*
X11893599Y25961505D01*
X12087170Y25825965D01*
X12301337Y25726097D01*
X12529592Y25664937D01*
X12529595Y25664937D01*
X12529598Y25664936D01*
X12764995Y25644341D01*
X12765000Y25644341D01*
X12765005Y25644341D01*
X13000401Y25664936D01*
X13000403Y25664937D01*
X13000408Y25664937D01*
X13228663Y25726097D01*
X13395270Y25803788D01*
X13489638Y25826879D01*
X13585663Y25812100D01*
X13668722Y25761698D01*
X13726171Y25683348D01*
X13749263Y25588978D01*
X13749500Y25578116D01*
X13749500Y23519500D01*
X13730546Y23424212D01*
X13676570Y23343430D01*
X13595788Y23289454D01*
X13500500Y23270500D01*
X11892134Y23270500D01*
X11892130Y23270500D01*
X11892128Y23270499D01*
X11868283Y23267936D01*
X11832514Y23264091D01*
X11817363Y23260510D01*
X11816982Y23262119D01*
X11749815Y23250000D01*
X10535908Y23250000D01*
X10492673Y23253782D01*
X10485401Y23255065D01*
X10250005Y23275659D01*
X10249995Y23275659D01*
X10014598Y23255065D01*
X9786335Y23193903D01*
X9786333Y23193902D01*
X9572177Y23094039D01*
X9572169Y23094035D01*
X9378600Y22958496D01*
X9211504Y22791400D01*
X9075965Y22597831D01*
X9075961Y22597823D01*
X8976098Y22383667D01*
X8976097Y22383665D01*
X8914935Y22155402D01*
X8894341Y21920006D01*
X8894341Y21919998D01*
X8899052Y21866156D01*
X8900000Y21844452D01*
X8900000Y19630000D01*
X9816988Y19630000D01*
X9784075Y19572993D01*
X9750000Y19445826D01*
X9750000Y19314174D01*
X9784075Y19187007D01*
X9816988Y19130000D01*
X8919363Y19130000D01*
X8900000Y19104766D01*
X8900000Y16915550D01*
X8899052Y16893847D01*
X8894341Y16840004D01*
X8894341Y16839998D01*
X8899052Y16786156D01*
X8900000Y16764452D01*
X8900000Y14375550D01*
X8899052Y14353847D01*
X8895715Y14315701D01*
X8894341Y14300000D01*
X8898133Y14256653D01*
X8899052Y14246156D01*
X8900000Y14224452D01*
X8900000Y11835550D01*
X8899052Y11813847D01*
X8894342Y11760006D01*
X8894341Y11760000D01*
X8898418Y11713396D01*
X8899052Y11706156D01*
X8900000Y11684452D01*
X8900000Y9295566D01*
X8899052Y9273862D01*
X8888234Y9150223D01*
X8893324Y9141639D01*
X8906540Y9080558D01*
X8914935Y8984599D01*
X8971306Y8774215D01*
X8976097Y8756337D01*
X9044067Y8610576D01*
X9075965Y8542170D01*
X9144470Y8444334D01*
X9211505Y8348599D01*
X9378599Y8181505D01*
X9572170Y8045965D01*
X9786337Y7946097D01*
X10014592Y7884937D01*
X10014595Y7884937D01*
X10014598Y7884936D01*
X10249995Y7864341D01*
X10250000Y7864341D01*
X10250005Y7864341D01*
X10485401Y7884936D01*
X10485402Y7884937D01*
X10485408Y7884937D01*
X10507449Y7890843D01*
X10509962Y7891516D01*
X10574405Y7900000D01*
X12465595Y7900000D01*
X12530038Y7891516D01*
X12533139Y7890686D01*
X12554592Y7884937D01*
X12554596Y7884937D01*
X12554598Y7884936D01*
X12789995Y7864341D01*
X12790000Y7864341D01*
X12790005Y7864341D01*
X13025401Y7884936D01*
X13025403Y7884937D01*
X13025408Y7884937D01*
X13253663Y7946097D01*
X13467830Y8045965D01*
X13661401Y8181505D01*
X13661406Y8181511D01*
X13669729Y8188493D01*
X13671285Y8186639D01*
X13737747Y8231046D01*
X13833035Y8250000D01*
X16306861Y8250000D01*
X16402149Y8231046D01*
X16448613Y8200000D01*
X18461000Y8200000D01*
X18556288Y8181046D01*
X18637070Y8127070D01*
X18691046Y8046288D01*
X18710000Y7951000D01*
X18710000Y7949000D01*
X18691046Y7853712D01*
X18637070Y7772930D01*
X18556288Y7718954D01*
X18461000Y7700000D01*
X16460001Y7700000D01*
X16460000Y7699999D01*
X16460000Y7460249D01*
X16466354Y7379509D01*
X16466356Y7379499D01*
X16516680Y7191688D01*
X16516681Y7191686D01*
X16557261Y7112043D01*
X16583632Y7018536D01*
X16572213Y6922054D01*
X16524741Y6837287D01*
X16448443Y6777139D01*
X16354936Y6750768D01*
X16335400Y6750000D01*
X12789507Y6750000D01*
X12694219Y6768954D01*
X12613439Y6822929D01*
X12603416Y6832952D01*
X12602277Y6833713D01*
X12567293Y6857088D01*
X12503818Y6899500D01*
X12480495Y6915084D01*
X12480487Y6915088D01*
X12343914Y6971658D01*
X12343911Y6971659D01*
X12198920Y7000500D01*
X12198918Y7000500D01*
X8814007Y7000500D01*
X8718719Y7019454D01*
X8637937Y7073430D01*
X7423430Y8287938D01*
X7369454Y8368720D01*
X7350500Y8464008D01*
X7350500Y27001000D01*
X7369454Y27096288D01*
X7423430Y27177070D01*
X7504212Y27231046D01*
X7599500Y27250000D01*
X9791988Y27250000D01*
X9759075Y27192993D01*
G37*
%TD.AperFunction*%
%TA.AperFunction,Conductor*%
G36*
X84301570Y14351984D02*
G01*
X84355546Y14271202D01*
X84374500Y14175914D01*
X84374500Y14173087D01*
X84355546Y14077799D01*
X84301570Y13997017D01*
X84220788Y13943041D01*
X84125500Y13924087D01*
X84030212Y13943041D01*
X83949430Y13997017D01*
X83758085Y14188362D01*
X83898218Y14281995D01*
X84018005Y14401782D01*
X84111639Y14541915D01*
X84301570Y14351984D01*
G37*
%TD.AperFunction*%
%TA.AperFunction,Conductor*%
G36*
X84220788Y25316046D02*
G01*
X84301570Y25262070D01*
X84355546Y25181288D01*
X84374500Y25086000D01*
X84374500Y25084000D01*
X84355546Y24988712D01*
X84301570Y24907930D01*
X84220788Y24853954D01*
X84125500Y24835000D01*
X83600000Y24835000D01*
X83600000Y22835001D01*
X83600001Y22835000D01*
X84125500Y22835000D01*
X84220788Y22816046D01*
X84301570Y22762070D01*
X84355546Y22681288D01*
X84374500Y22586000D01*
X84374500Y22584000D01*
X84355546Y22488712D01*
X84301570Y22407930D01*
X84220788Y22353954D01*
X84125500Y22335000D01*
X83600001Y22335000D01*
X83600000Y22334999D01*
X83600000Y20035001D01*
X83600001Y20035000D01*
X84125500Y20035000D01*
X84220788Y20016046D01*
X84301570Y19962070D01*
X84355546Y19881288D01*
X84374500Y19786000D01*
X84374500Y19784000D01*
X84355546Y19688712D01*
X84301570Y19607930D01*
X84220788Y19553954D01*
X84125500Y19535000D01*
X83600001Y19535000D01*
X83600000Y19534999D01*
X83600000Y17635000D01*
X84125500Y17635000D01*
X84220788Y17616046D01*
X84301570Y17562070D01*
X84355546Y17481288D01*
X84374500Y17386000D01*
X84374500Y17384000D01*
X84355546Y17288712D01*
X84301570Y17207930D01*
X84220788Y17153954D01*
X84125500Y17135000D01*
X83599000Y17135000D01*
X83503712Y17153954D01*
X83422930Y17207930D01*
X83368954Y17288712D01*
X83350000Y17384000D01*
X83350000Y17385000D01*
X83349000Y17385000D01*
X83253712Y17403954D01*
X83172930Y17457930D01*
X83118954Y17538712D01*
X83100000Y17634000D01*
X83100000Y22334999D01*
X83099999Y22335000D01*
X81900001Y22335000D01*
X81900000Y22334999D01*
X81900000Y21637168D01*
X81906401Y21577629D01*
X81906403Y21577622D01*
X81956647Y21442911D01*
X82019297Y21359221D01*
X82061228Y21271581D01*
X82066429Y21174565D01*
X82034107Y21082944D01*
X82019297Y21060779D01*
X81956647Y20977090D01*
X81906403Y20842379D01*
X81906401Y20842372D01*
X81900000Y20782833D01*
X81900000Y20772137D01*
X81881046Y20676849D01*
X81827070Y20596067D01*
X81746288Y20542091D01*
X81651000Y20523137D01*
X81563985Y20538836D01*
X81457381Y20578597D01*
X81457371Y20578599D01*
X81397832Y20585000D01*
X80249000Y20585000D01*
X80153712Y20603954D01*
X80072930Y20657930D01*
X80018954Y20738712D01*
X80000000Y20834000D01*
X80000000Y23035501D01*
X80018954Y23130789D01*
X80072930Y23211571D01*
X80153712Y23265547D01*
X80248996Y23284501D01*
X81397872Y23284501D01*
X81457483Y23290909D01*
X81563987Y23330633D01*
X81659888Y23346172D01*
X81754439Y23323829D01*
X81833242Y23267003D01*
X81884301Y23184347D01*
X81900000Y23097331D01*
X81900000Y22835001D01*
X81900001Y22835000D01*
X83099999Y22835000D01*
X83100000Y22835001D01*
X83100000Y24836000D01*
X83118954Y24931288D01*
X83172930Y25012070D01*
X83253712Y25066046D01*
X83349000Y25085000D01*
X83350000Y25085000D01*
X83350000Y25086000D01*
X83368954Y25181288D01*
X83422930Y25262070D01*
X83503712Y25316046D01*
X83599000Y25335000D01*
X84125500Y25335000D01*
X84220788Y25316046D01*
G37*
%TD.AperFunction*%
%TA.AperFunction,Conductor*%
G36*
X12324075Y19572993D02*
G01*
X12290000Y19445826D01*
X12290000Y19314174D01*
X12324075Y19187007D01*
X12356988Y19130000D01*
X10683012Y19130000D01*
X10715925Y19187007D01*
X10750000Y19314174D01*
X10750000Y19445826D01*
X10715925Y19572993D01*
X10683012Y19630000D01*
X12356988Y19630000D01*
X12324075Y19572993D01*
G37*
%TD.AperFunction*%
%TA.AperFunction,Conductor*%
G36*
X84301570Y26951984D02*
G01*
X84355546Y26871202D01*
X84374500Y26775914D01*
X84374500Y26773087D01*
X84355546Y26677799D01*
X84301570Y26597017D01*
X84220788Y26543041D01*
X84125500Y26524087D01*
X84030212Y26543041D01*
X83949431Y26597017D01*
X83758086Y26788362D01*
X83898218Y26881995D01*
X84018005Y27001782D01*
X84111639Y27141915D01*
X84301570Y26951984D01*
G37*
%TD.AperFunction*%
%TA.AperFunction,Conductor*%
G36*
X83596288Y31317540D02*
G01*
X83677069Y31263564D01*
X83731046Y31182783D01*
X83750000Y31087495D01*
X83750000Y29588435D01*
X83731046Y29493147D01*
X83677070Y29412365D01*
X83596288Y29358389D01*
X83501000Y29339435D01*
X83485898Y29340000D01*
X83215862Y29340000D01*
X82950570Y29300014D01*
X82694197Y29220933D01*
X82452492Y29104533D01*
X82452487Y29104531D01*
X82272046Y28981508D01*
X82941914Y28311640D01*
X82801782Y28218005D01*
X82681995Y28098218D01*
X82588360Y27958086D01*
X81781082Y28765365D01*
X81749273Y28812972D01*
X81707376Y28828598D01*
X81647832Y28835000D01*
X81050001Y28835000D01*
X81050000Y28834999D01*
X81050000Y28084000D01*
X81031046Y27988712D01*
X80977070Y27907930D01*
X80896288Y27853954D01*
X80801000Y27835000D01*
X80800000Y27835000D01*
X80800000Y27834000D01*
X80781046Y27738712D01*
X80727070Y27657930D01*
X80646288Y27603954D01*
X80551000Y27585000D01*
X79500001Y27585000D01*
X79500000Y27584999D01*
X79500000Y27334501D01*
X79481046Y27239213D01*
X79427070Y27158431D01*
X79346288Y27104455D01*
X79251000Y27085501D01*
X77894209Y27085501D01*
X77798921Y27104455D01*
X77718139Y27158431D01*
X77683375Y27202024D01*
X77629817Y27287260D01*
X77629816Y27287262D01*
X77502262Y27414816D01*
X77502259Y27414818D01*
X77502257Y27414820D01*
X77349529Y27510786D01*
X77349524Y27510788D01*
X77349522Y27510789D01*
X77179255Y27570368D01*
X77179251Y27570369D01*
X77179245Y27570370D01*
X77000004Y27590565D01*
X76999996Y27590565D01*
X76820754Y27570370D01*
X76807118Y27567257D01*
X76806371Y27570528D01*
X76735024Y27560460D01*
X76640950Y27584732D01*
X76563326Y27643157D01*
X76513968Y27726841D01*
X76500000Y27809067D01*
X76500000Y28382833D01*
X79500000Y28382833D01*
X79500000Y28085001D01*
X79500001Y28085000D01*
X80550000Y28085000D01*
X80550000Y28834999D01*
X80549999Y28835000D01*
X79952167Y28835000D01*
X79892628Y28828599D01*
X79892621Y28828597D01*
X79757912Y28778354D01*
X79642812Y28692190D01*
X79642810Y28692188D01*
X79556646Y28577088D01*
X79506403Y28442379D01*
X79506401Y28442372D01*
X79500000Y28382833D01*
X76500000Y28382833D01*
X76500000Y30500500D01*
X76518954Y30595788D01*
X76572930Y30676570D01*
X76653712Y30730546D01*
X76749000Y30749500D01*
X82573919Y30749500D01*
X82573919Y30749501D01*
X82718913Y30778342D01*
X82855495Y30834916D01*
X82910407Y30871607D01*
X82978416Y30917048D01*
X83123053Y31061685D01*
X83324930Y31263563D01*
X83405711Y31317540D01*
X83500999Y31336494D01*
X83596288Y31317540D01*
G37*
%TD.AperFunction*%
%TA.AperFunction,Conductor*%
G36*
X51380781Y41031046D02*
G01*
X51461563Y40977070D01*
X53426570Y39012063D01*
X53480546Y38931281D01*
X53499500Y38835993D01*
X53499500Y31053701D01*
X53480546Y30958413D01*
X53426570Y30877631D01*
X53345788Y30823655D01*
X53328822Y30817340D01*
X53230668Y30784816D01*
X53081346Y30692714D01*
X53081344Y30692713D01*
X53081344Y30692712D01*
X53000713Y30612082D01*
X52919935Y30558108D01*
X52824647Y30539154D01*
X52729359Y30558108D01*
X52648577Y30612084D01*
X52618345Y30642316D01*
X52618341Y30642319D01*
X52469121Y30734359D01*
X52469120Y30734360D01*
X52302701Y30789505D01*
X52302694Y30789506D01*
X52199981Y30800000D01*
X51750001Y30800000D01*
X51750000Y30799999D01*
X51750000Y29500000D01*
X51250000Y29500000D01*
X51250000Y30799999D01*
X51249999Y30800000D01*
X50800024Y30800000D01*
X50697300Y30789506D01*
X50697297Y30789505D01*
X50530881Y30734360D01*
X50505217Y30718530D01*
X50414165Y30684639D01*
X50317074Y30688172D01*
X50228726Y30728592D01*
X50162570Y30799743D01*
X50128679Y30890795D01*
X50125500Y30930460D01*
X50125500Y40801000D01*
X50144454Y40896288D01*
X50198430Y40977070D01*
X50279212Y41031046D01*
X50374500Y41050000D01*
X51285493Y41050000D01*
X51380781Y41031046D01*
G37*
%TD.AperFunction*%
%TA.AperFunction,Conductor*%
G36*
X8759815Y42731046D02*
G01*
X8840597Y42677070D01*
X8894573Y42596288D01*
X8913527Y42501000D01*
X8913145Y42498105D01*
X8919364Y42490000D01*
X9816988Y42490000D01*
X9784075Y42432993D01*
X9750000Y42305826D01*
X9750000Y42174174D01*
X9784075Y42047007D01*
X9816988Y41990000D01*
X8919364Y41990000D01*
X8976569Y41776508D01*
X8976668Y41776296D01*
X8976712Y41776113D01*
X8980286Y41766296D01*
X8979211Y41765905D01*
X8999763Y41681926D01*
X9000000Y41671059D01*
X9000000Y40270125D01*
X8981046Y40174837D01*
X8976671Y40164895D01*
X8976098Y40163668D01*
X8976097Y40163665D01*
X8914935Y39935402D01*
X8894341Y39700006D01*
X8894341Y39699995D01*
X8914935Y39464599D01*
X8932850Y39397738D01*
X8976097Y39236337D01*
X8976668Y39235111D01*
X8976926Y39234059D01*
X8979814Y39226125D01*
X8978945Y39225809D01*
X8999763Y39140744D01*
X9000000Y39129876D01*
X9000000Y37730125D01*
X8981046Y37634837D01*
X8976671Y37624895D01*
X8976098Y37623668D01*
X8976097Y37623665D01*
X8914935Y37395402D01*
X8894341Y37160006D01*
X8894341Y37159995D01*
X8914935Y36924599D01*
X8946956Y36805094D01*
X8976097Y36696337D01*
X8976668Y36695111D01*
X8976926Y36694059D01*
X8979814Y36686125D01*
X8978945Y36685809D01*
X8999763Y36600744D01*
X9000000Y36589876D01*
X9000000Y35190125D01*
X8981046Y35094837D01*
X8976671Y35084895D01*
X8976098Y35083668D01*
X8976097Y35083665D01*
X8914935Y34855402D01*
X8894341Y34620006D01*
X8894341Y34619995D01*
X8914935Y34384599D01*
X8924334Y34349522D01*
X8976097Y34156337D01*
X8976668Y34155111D01*
X8976926Y34154059D01*
X8979814Y34146125D01*
X8978945Y34145809D01*
X8999763Y34060744D01*
X9000000Y34049876D01*
X9000000Y32650125D01*
X8981046Y32554837D01*
X8976671Y32544895D01*
X8976098Y32543668D01*
X8976097Y32543665D01*
X8914935Y32315402D01*
X8894341Y32080006D01*
X8894341Y32079995D01*
X8914935Y31844599D01*
X8940889Y31747738D01*
X8976097Y31616337D01*
X8976668Y31615111D01*
X8976926Y31614059D01*
X8979814Y31606125D01*
X8978945Y31605809D01*
X8999763Y31520744D01*
X9000000Y31509876D01*
X9000000Y30199500D01*
X8981046Y30104212D01*
X8927070Y30023430D01*
X8846288Y29969454D01*
X8751000Y29950500D01*
X7814006Y29950500D01*
X7718718Y29969454D01*
X7637939Y30023428D01*
X7423430Y30237938D01*
X7369454Y30318719D01*
X7350500Y30414007D01*
X7350500Y42501000D01*
X7369454Y42596288D01*
X7423430Y42677070D01*
X7504212Y42731046D01*
X7599500Y42750000D01*
X8664527Y42750000D01*
X8759815Y42731046D01*
G37*
%TD.AperFunction*%
%TA.AperFunction,Conductor*%
G36*
X12324075Y42432993D02*
G01*
X12290000Y42305826D01*
X12290000Y42174174D01*
X12324075Y42047007D01*
X12356988Y41990000D01*
X10683012Y41990000D01*
X10715925Y42047007D01*
X10750000Y42174174D01*
X10750000Y42305826D01*
X10715925Y42432993D01*
X10683012Y42490000D01*
X12356988Y42490000D01*
X12324075Y42432993D01*
G37*
%TD.AperFunction*%
%TA.AperFunction,Conductor*%
G36*
X54570000Y49919366D02*
G01*
X54647081Y49860219D01*
X54711140Y49787174D01*
X54742370Y49695176D01*
X54744500Y49662674D01*
X54744500Y42749000D01*
X54725546Y42653712D01*
X54671570Y42572930D01*
X54590788Y42518954D01*
X54495500Y42500000D01*
X53914508Y42500000D01*
X53819220Y42518954D01*
X53738438Y42572930D01*
X47523430Y48787938D01*
X47469454Y48868720D01*
X47450500Y48964008D01*
X47450500Y49659991D01*
X47469454Y49755279D01*
X47523430Y49836061D01*
X47604212Y49890037D01*
X47642891Y49899903D01*
X47642319Y49902326D01*
X47657477Y49905909D01*
X47657483Y49905909D01*
X47792331Y49956204D01*
X47792333Y49956206D01*
X47807964Y49964740D01*
X47809338Y49962223D01*
X47872131Y49992265D01*
X47933711Y50000000D01*
X48669875Y50000000D01*
X48765163Y49981046D01*
X48775105Y49976671D01*
X48776332Y49976099D01*
X48776334Y49976099D01*
X48776337Y49976097D01*
X49004592Y49914937D01*
X49004595Y49914937D01*
X49004598Y49914936D01*
X49239995Y49894341D01*
X49240000Y49894341D01*
X49240005Y49894341D01*
X49475401Y49914936D01*
X49475403Y49914937D01*
X49475408Y49914937D01*
X49703663Y49976097D01*
X49703930Y49976222D01*
X49704895Y49976671D01*
X49705947Y49976929D01*
X49713875Y49979814D01*
X49714191Y49978946D01*
X49799265Y49999763D01*
X49810125Y50000000D01*
X51209875Y50000000D01*
X51305163Y49981046D01*
X51315105Y49976671D01*
X51316332Y49976099D01*
X51316334Y49976099D01*
X51316337Y49976097D01*
X51544592Y49914937D01*
X51544595Y49914937D01*
X51544598Y49914936D01*
X51779995Y49894341D01*
X51780000Y49894341D01*
X51780005Y49894341D01*
X52015401Y49914936D01*
X52015403Y49914937D01*
X52015408Y49914937D01*
X52243663Y49976097D01*
X52243930Y49976222D01*
X52244895Y49976671D01*
X52245947Y49976929D01*
X52253875Y49979814D01*
X52254191Y49978946D01*
X52339265Y49999763D01*
X52350125Y50000000D01*
X53751059Y50000000D01*
X53846347Y49981046D01*
X53856288Y49976672D01*
X53856505Y49976571D01*
X54070000Y49919366D01*
X54070000Y50816988D01*
X54127007Y50784075D01*
X54254174Y50750000D01*
X54385826Y50750000D01*
X54512993Y50784075D01*
X54570000Y50816988D01*
X54570000Y49919366D01*
G37*
%TD.AperFunction*%
%TA.AperFunction,Conductor*%
G36*
X42107558Y46481046D02*
G01*
X42188340Y46427070D01*
X42677070Y45938340D01*
X42731046Y45857558D01*
X42750000Y45762270D01*
X42750000Y44749000D01*
X42731046Y44653712D01*
X42677070Y44572930D01*
X42596288Y44518954D01*
X42501000Y44500000D01*
X40749000Y44500000D01*
X40653712Y44518954D01*
X40572930Y44572930D01*
X40518954Y44653712D01*
X40500000Y44749000D01*
X40500000Y45321161D01*
X40508485Y45385609D01*
X40533644Y45479502D01*
X40533645Y45479509D01*
X40539999Y45560249D01*
X40540000Y45560263D01*
X40540000Y45799999D01*
X40539999Y45800000D01*
X38539000Y45800000D01*
X38443712Y45818954D01*
X38362930Y45872930D01*
X38308954Y45953712D01*
X38290000Y46049000D01*
X38290000Y46051000D01*
X38308954Y46146288D01*
X38362930Y46227070D01*
X38443712Y46281046D01*
X38539000Y46300000D01*
X40539999Y46300000D01*
X40552167Y46312169D01*
X40558954Y46346288D01*
X40612930Y46427070D01*
X40693712Y46481046D01*
X40789000Y46500000D01*
X42012270Y46500000D01*
X42107558Y46481046D01*
G37*
%TD.AperFunction*%
%TD*%
M02*
