M48
; DRILL file {KiCad 8.0.3} date 2024-07-17T08:28:58+0700
; FORMAT={-:-/ absolute / metric / decimal}
; #@! TF.CreationDate,2024-07-17T08:28:58+07:00
; #@! TF.GenerationSoftware,Kicad,Pcbnew,8.0.3
; #@! TF.FileFunction,Plated,1,4,PTH
FMAT,2
METRIC
; #@! TA.AperFunction,Plated,PTH,ViaDrill
T1C0.400
; #@! TA.AperFunction,Plated,PTH,ComponentDrill
T2C0.500
; #@! TA.AperFunction,Plated,PTH,ComponentDrill
T3C1.000
; #@! TA.AperFunction,Plated,PTH,ComponentDrill
T4C1.070
; #@! TA.AperFunction,Plated,PTH,ComponentDrill
T5C1.710
; #@! TA.AperFunction,Plated,PTH,ComponentDrill
T6C3.200
%
G90
G05
T1
X3.5Y46.25
X3.5Y44.0
X3.5Y41.5
X3.5Y39.0
X3.5Y36.0
X3.5Y33.75
X3.5Y31.25
X3.5Y28.75
X3.5Y26.25
X3.5Y24.0
X3.5Y21.5
X3.5Y19.0
X3.5Y15.75
X3.5Y13.5
X3.5Y11.0
X3.5Y8.5
X8.25Y1.25
X11.0Y1.25
X14.0Y1.25
X15.25Y22.75
X15.25Y19.5
X15.25Y9.75
X16.5Y6.0
X16.75Y38.25
X16.75Y35.25
X16.75Y32.75
X16.75Y29.75
X16.75Y26.5
X17.0Y1.25
X17.5Y50.0
X17.75Y20.75
X17.95Y43.55
X18.25Y10.0
X18.5Y24.0
X18.7Y50.05
X18.75Y40.0
X18.75Y28.75
X19.75Y26.75
X19.75Y5.0
X19.75Y1.25
X20.5Y44.2
X20.5Y37.0
X20.5Y8.25
X20.75Y32.0
X21.0Y13.25
X21.5Y29.5
X21.5Y10.25
X21.75Y8.25
X22.5Y40.0
X22.75Y6.5
X22.75Y4.25
X22.75Y1.25
X23.5Y31.25
X23.5Y13.5
X23.5Y12.5
X24.9Y49.95
X25.25Y35.75
X25.5Y23.5
X25.5Y21.75
X25.75Y26.25
X26.0Y43.5
X26.0Y32.5
X26.0Y12.5
X26.25Y49.95
X26.25Y40.0
X26.75Y27.75
X27.0Y26.5
X27.25Y47.95
X27.25Y31.5
X27.5Y37.75
X28.25Y2.25
X28.475Y12.5
X28.75Y37.0
X28.75Y20.75
X28.75Y19.5
X29.5Y51.0
X29.5Y49.75
X29.5Y43.5
X29.525Y12.5
X29.925Y19.425
X30.0Y28.25
X30.0Y25.75
X30.5Y2.25
X31.025Y19.375
X31.225Y32.5
X31.25Y27.0
X31.75Y13.5
X32.0Y39.25
X32.275Y32.5
X32.5Y51.25
X32.5Y28.25
X32.5Y25.75
X33.5Y11.25
X34.75Y39.25
X35.25Y2.25
X35.25Y1.0
X35.45Y22.65
X35.45Y20.7
X35.45Y19.0
X35.45Y16.8
X35.45Y14.4
X35.5Y49.5
X35.5Y43.5
X35.5Y25.25
X35.5Y24.0
X35.75Y5.25
X36.0Y33.25
X37.0Y49.5
X37.75Y39.5
X37.8Y29.05
X38.05Y24.1
X38.75Y22.75
X38.75Y21.5
X38.75Y20.05
X38.75Y17.8
X38.75Y16.0
X39.15Y27.85
X39.25Y14.75
X39.25Y9.0
X39.8Y23.7
X40.75Y49.5
X40.75Y43.75
X40.75Y38.75
X41.0Y8.75
X42.0Y22.0
X42.25Y15.75
X43.5Y13.0
X43.5Y10.0
X43.75Y23.75
X44.75Y38.75
X45.0Y49.5
X45.0Y11.75
X45.25Y33.25
X45.25Y31.0
X45.25Y28.5
X45.25Y26.0
X45.75Y43.75
X46.0Y17.0
X46.5Y32.0
X46.5Y13.0
X46.5Y10.0
X47.0Y51.5
X47.0Y37.75
X47.5Y25.25
X47.5Y21.5
X47.75Y47.0
X49.25Y49.25
X50.5Y44.25
X50.5Y39.75
X51.0Y52.5
X51.25Y10.25
X51.25Y9.0
X51.75Y29.2
X51.75Y27.4
X52.0Y4.5
X52.0Y1.5
X52.25Y20.0
X52.5Y18.5
X52.5Y8.0
X52.55Y28.3
X52.75Y42.0
X52.75Y24.5
X52.75Y22.0
X53.0Y45.5
X54.112Y36.438
X54.25Y19.0
X54.5Y48.5
X54.75Y39.75
X55.5Y4.475
X55.5Y1.5
X56.5Y46.5
X56.5Y37.0
X56.5Y33.0
X56.5Y30.0
X56.5Y28.5
X56.5Y27.0
X56.75Y52.5
X56.75Y7.75
X57.0Y17.0
X57.25Y41.5
X57.25Y9.0
X58.75Y44.25
X59.0Y13.75
X59.0Y4.5
X59.5Y1.5
X60.25Y52.5
X60.25Y37.75
X60.5Y41.0
X61.0Y9.0
X61.25Y13.75
X61.5Y23.0
X63.25Y52.5
X63.25Y50.5
X63.25Y47.75
X63.5Y36.75
X63.75Y40.75
X63.75Y38.75
X63.75Y24.25
X64.25Y1.5
X65.25Y24.25
X66.25Y36.75
X66.5Y47.75
X66.5Y6.5
X66.75Y24.25
X67.5Y44.75
X67.5Y43.0
X67.5Y41.75
X68.25Y24.25
X69.5Y47.75
X69.5Y46.25
X69.5Y1.5
X69.75Y24.25
X70.75Y13.25
X70.75Y9.25
X71.25Y24.25
X71.5Y45.0
X71.5Y40.25
X71.5Y36.5
X71.75Y21.25
X72.25Y47.75
X73.0Y13.25
X73.0Y11.25
X73.25Y1.5
X74.25Y35.0
X74.25Y32.0
X74.5Y21.25
X74.75Y47.75
X75.75Y13.25
X76.5Y19.5
X77.0Y30.0
X77.0Y28.0
X77.0Y1.5
X77.25Y52.5
X77.25Y47.75
X77.25Y9.25
X78.25Y46.25
X78.25Y43.25
X78.25Y13.25
X79.0Y19.5
X79.5Y21.75
X79.75Y8.0
X80.5Y24.0
X80.5Y13.55
X81.25Y19.5
X83.0Y19.75
X83.5Y46.25
X83.5Y40.75
X83.5Y38.21
X83.5Y35.67
X83.5Y33.13
X83.5Y30.59
X83.5Y28.05
X83.5Y25.51
X83.5Y22.97
X83.5Y12.0
X83.5Y9.46
T2
X1.1Y50.5
X1.1Y3.5
X1.803Y52.197
X1.803Y48.803
X1.803Y5.197
X1.803Y1.803
X3.5Y52.9
X3.5Y48.1
X3.5Y5.9
X3.5Y1.1
X5.197Y52.197
X5.197Y48.803
X5.197Y5.197
X5.197Y1.803
X5.9Y50.5
X5.9Y3.5
X79.1Y50.5
X79.1Y3.5
X79.803Y52.197
X79.803Y48.803
X79.803Y5.197
X79.803Y1.803
X81.5Y52.9
X81.5Y48.1
X81.5Y5.9
X81.5Y1.1
X83.197Y52.197
X83.197Y48.803
X83.197Y5.197
X83.197Y1.803
X83.9Y50.5
X83.9Y3.5
T3
X10.0Y50.12
X10.0Y45.03
X10.0Y42.49
X10.0Y39.95
X10.0Y37.41
X10.0Y34.87
X10.0Y32.33
X10.0Y27.25
X10.0Y22.17
X10.0Y19.63
X10.0Y17.09
X10.0Y14.55
X10.0Y12.01
X10.0Y9.47
X10.0Y4.39
X12.54Y50.12
X12.54Y45.03
X12.54Y42.49
X12.54Y39.95
X12.54Y37.41
X12.54Y34.87
X12.54Y32.33
X12.54Y27.25
X12.54Y22.17
X12.54Y19.63
X12.54Y17.09
X12.54Y14.55
X12.54Y12.01
X12.54Y9.47
X12.54Y4.39
T4
X26.837Y5.25
X31.687Y5.25
T5
X25.75Y2.25
X32.774Y2.25
T6
X3.5Y50.5
X3.5Y3.5
X81.5Y50.5
X81.5Y3.5
M30
