%TF.GenerationSoftware,KiCad,Pcbnew,8.0.3*%
%TF.CreationDate,2024-07-17T08:28:56+07:00*%
%TF.ProjectId,msi_SDR_ADC,6d73695f-5344-4525-9f41-44432e6b6963,R0.1*%
%TF.SameCoordinates,PX72ade90PY75c75e0*%
%TF.FileFunction,Soldermask,Bot*%
%TF.FilePolarity,Negative*%
%FSLAX46Y46*%
G04 Gerber Fmt 4.6, Leading zero omitted, Abs format (unit mm)*
G04 Created by KiCad (PCBNEW 8.0.3) date 2024-07-17 08:28:56*
%MOMM*%
%LPD*%
G01*
G04 APERTURE LIST*
%ADD10R,1.700000X1.700000*%
%ADD11O,1.700000X1.700000*%
%ADD12C,2.425000*%
%ADD13C,1.450000*%
%ADD14C,0.800000*%
%ADD15C,6.400000*%
%ADD16R,4.800000X4.900000*%
G04 APERTURE END LIST*
D10*
%TO.C,J4*%
X12540000Y45030000D03*
D11*
X10000000Y45030000D03*
X12540000Y42490000D03*
X10000000Y42490000D03*
X12540000Y39950000D03*
X10000000Y39950000D03*
X12540000Y37410000D03*
X10000000Y37410000D03*
X12540000Y34870000D03*
X10000000Y34870000D03*
X12540000Y32330000D03*
X10000000Y32330000D03*
%TD*%
D10*
%TO.C,J3*%
X10000000Y50120000D03*
D11*
X12540000Y50120000D03*
%TD*%
D10*
%TO.C,J6*%
X12540000Y22170000D03*
D11*
X10000000Y22170000D03*
X12540000Y19630000D03*
X10000000Y19630000D03*
X12540000Y17090000D03*
X10000000Y17090000D03*
X12540000Y14550000D03*
X10000000Y14550000D03*
X12540000Y12010000D03*
X10000000Y12010000D03*
X12540000Y9470000D03*
X10000000Y9470000D03*
%TD*%
D12*
%TO.C,J2*%
X25750000Y2250000D03*
D13*
X26837000Y5250000D03*
X31687000Y5250000D03*
D12*
X32774000Y2250000D03*
%TD*%
D10*
%TO.C,J7*%
X10000000Y4390000D03*
D11*
X12540000Y4390000D03*
%TD*%
D14*
%TO.C,REF\u002A\u002A*%
X79100000Y3500000D03*
X79802944Y5197056D03*
X79802944Y1802944D03*
X81500000Y5900000D03*
D15*
X81500000Y3500000D03*
D14*
X81500000Y1100000D03*
X83197056Y5197056D03*
X83197056Y1802944D03*
X83900000Y3500000D03*
%TD*%
%TO.C,REF\u002A\u002A*%
X1100000Y3500000D03*
X1802944Y5197056D03*
X1802944Y1802944D03*
X3500000Y5900000D03*
D15*
X3500000Y3500000D03*
D14*
X3500000Y1100000D03*
X5197056Y5197056D03*
X5197056Y1802944D03*
X5900000Y3500000D03*
%TD*%
D16*
%TO.C,J1*%
X75250000Y51175000D03*
X66750000Y51175000D03*
%TD*%
D14*
%TO.C,REF\u002A\u002A*%
X1100000Y50500000D03*
X1802944Y52197056D03*
X1802944Y48802944D03*
X3500000Y52900000D03*
D15*
X3500000Y50500000D03*
D14*
X3500000Y48100000D03*
X5197056Y52197056D03*
X5197056Y48802944D03*
X5900000Y50500000D03*
%TD*%
%TO.C,REF\u002A\u002A*%
X79100000Y50500000D03*
X79802944Y52197056D03*
X79802944Y48802944D03*
X81500000Y52900000D03*
D15*
X81500000Y50500000D03*
D14*
X81500000Y48100000D03*
X83197056Y52197056D03*
X83197056Y48802944D03*
X83900000Y50500000D03*
%TD*%
D10*
%TO.C,J5*%
X10000000Y27250000D03*
D11*
X12540000Y27250000D03*
%TD*%
M02*
