%TF.GenerationSoftware,KiCad,Pcbnew,8.0.3*%
%TF.CreationDate,2024-07-17T08:28:56+07:00*%
%TF.ProjectId,msi_SDR_ADC,6d73695f-5344-4525-9f41-44432e6b6963,R0.1*%
%TF.SameCoordinates,PX72ade90PY75c75e0*%
%TF.FileFunction,Legend,Top*%
%TF.FilePolarity,Positive*%
%FSLAX46Y46*%
G04 Gerber Fmt 4.6, Leading zero omitted, Abs format (unit mm)*
G04 Created by KiCad (PCBNEW 8.0.3) date 2024-07-17 08:28:56*
%MOMM*%
%LPD*%
G01*
G04 APERTURE LIST*
%ADD10C,0.150000*%
%ADD11C,0.254000*%
%ADD12C,0.120000*%
%ADD13C,0.200000*%
%ADD14C,0.100000*%
G04 APERTURE END LIST*
D10*
X73750000Y33500000D02*
X74500000Y34000000D01*
X77750000Y33500000D02*
X73750000Y33500000D01*
X76625000Y13500000D02*
X77375000Y13000000D01*
X76625000Y13500000D02*
X77375000Y14000000D01*
X77750000Y35500000D02*
X77750000Y33500000D01*
X82375000Y13500000D02*
X76625000Y13500000D01*
X73750000Y33500000D02*
X74500000Y33000000D01*
G36*
X45140013Y47268710D02*
G01*
X45214222Y47195920D01*
X45252913Y47120785D01*
X45297531Y46947355D01*
X45298673Y46822583D01*
X45256647Y46649460D01*
X45217922Y46569650D01*
X45143645Y46493924D01*
X45030566Y46455133D01*
X44875959Y46454251D01*
X44874750Y47305602D01*
X45023417Y47306449D01*
X45140013Y47268710D01*
G37*
G36*
X45558604Y46194070D02*
G01*
X42900668Y46194070D01*
X42900668Y47380181D01*
X43011779Y47380181D01*
X43013220Y46365549D01*
X43024419Y46338513D01*
X43045111Y46317821D01*
X43072147Y46306622D01*
X43086779Y46305181D01*
X43577601Y46306622D01*
X43604637Y46317821D01*
X43625329Y46338513D01*
X43636528Y46365549D01*
X43636528Y46394813D01*
X43625329Y46421849D01*
X43604637Y46442541D01*
X43577601Y46453740D01*
X43562969Y46455181D01*
X43161674Y46454003D01*
X43160359Y47380181D01*
X43821303Y47380181D01*
X43822744Y46365549D01*
X43833943Y46338513D01*
X43854635Y46317821D01*
X43881671Y46306622D01*
X43896303Y46305181D01*
X44387125Y46306622D01*
X44414161Y46317821D01*
X44434853Y46338513D01*
X44446052Y46365549D01*
X44446052Y46394813D01*
X44434853Y46421849D01*
X44414161Y46442541D01*
X44387125Y46453740D01*
X44372493Y46455181D01*
X43971198Y46454003D01*
X43970665Y46829299D01*
X44244268Y46830432D01*
X44271304Y46841631D01*
X44291996Y46862323D01*
X44303195Y46889359D01*
X44303195Y46918623D01*
X44291996Y46945659D01*
X44271304Y46966351D01*
X44244268Y46977550D01*
X44229636Y46978991D01*
X43970454Y46977918D01*
X43969988Y47305398D01*
X44387125Y47306622D01*
X44414161Y47317821D01*
X44434853Y47338513D01*
X44446052Y47365549D01*
X44446052Y47380181D01*
X44726065Y47380181D01*
X44727506Y46365549D01*
X44738705Y46338513D01*
X44759397Y46317821D01*
X44786433Y46306622D01*
X44801065Y46305181D01*
X45037834Y46306532D01*
X45048540Y46305770D01*
X45052248Y46306614D01*
X45053792Y46306622D01*
X45055623Y46307381D01*
X45062877Y46309030D01*
X45194667Y46354241D01*
X45196649Y46354241D01*
X45206201Y46358198D01*
X45219159Y46362643D01*
X45221194Y46364409D01*
X45223685Y46365440D01*
X45235050Y46374767D01*
X45328982Y46470532D01*
X45336505Y46477055D01*
X45338517Y46480252D01*
X45339616Y46481372D01*
X45340373Y46483202D01*
X45344337Y46489498D01*
X45388605Y46580731D01*
X45392688Y46586241D01*
X45396623Y46597257D01*
X45397211Y46598467D01*
X45397249Y46599008D01*
X45397635Y46600087D01*
X45442875Y46786453D01*
X45446052Y46794121D01*
X45446949Y46803236D01*
X45447404Y46805107D01*
X45447241Y46806200D01*
X45447493Y46808753D01*
X45446225Y46947333D01*
X45447404Y46955256D01*
X45446069Y46964281D01*
X45446052Y46966242D01*
X45445629Y46967264D01*
X45445254Y46969800D01*
X45397736Y47154499D01*
X45397211Y47161896D01*
X45393007Y47172879D01*
X45392688Y47174122D01*
X45392365Y47174558D01*
X45391956Y47175627D01*
X45343267Y47270177D01*
X45339616Y47278992D01*
X45337231Y47281898D01*
X45336505Y47283308D01*
X45335008Y47284607D01*
X45330288Y47290357D01*
X45242117Y47376842D01*
X45241266Y47378545D01*
X45233623Y47385174D01*
X45223685Y47394922D01*
X45221194Y47395954D01*
X45219159Y47397719D01*
X45205734Y47403713D01*
X45063155Y47449862D01*
X45053792Y47453740D01*
X45050026Y47454111D01*
X45048540Y47454592D01*
X45046565Y47454452D01*
X45039160Y47455181D01*
X44786433Y47453740D01*
X44759397Y47442541D01*
X44738705Y47421849D01*
X44727506Y47394813D01*
X44726065Y47380181D01*
X44446052Y47380181D01*
X44446052Y47394813D01*
X44434853Y47421849D01*
X44414161Y47442541D01*
X44387125Y47453740D01*
X44372493Y47455181D01*
X43881671Y47453740D01*
X43854635Y47442541D01*
X43833943Y47421849D01*
X43822744Y47394813D01*
X43821303Y47380181D01*
X43160359Y47380181D01*
X43160338Y47394813D01*
X43149139Y47421849D01*
X43128447Y47442541D01*
X43101411Y47453740D01*
X43072147Y47453740D01*
X43045111Y47442541D01*
X43024419Y47421849D01*
X43013220Y47394813D01*
X43011779Y47380181D01*
X42900668Y47380181D01*
X42900668Y47566292D01*
X45558604Y47566292D01*
X45558604Y46194070D01*
G37*
G36*
X22271231Y2292434D02*
G01*
X22297892Y2266695D01*
X22333350Y2197838D01*
X22334335Y2090206D01*
X22301155Y2021825D01*
X22270909Y1990496D01*
X22202222Y1955125D01*
X21911674Y1954067D01*
X21911141Y2329299D01*
X22154225Y2330306D01*
X22271231Y2292434D01*
G37*
G36*
X22218946Y2773129D02*
G01*
X22250273Y2742885D01*
X22285795Y2673904D01*
X22286584Y2613743D01*
X22253536Y2545634D01*
X22223291Y2514306D01*
X22154588Y2478927D01*
X21910930Y2477918D01*
X21910464Y2805487D01*
X22150214Y2806480D01*
X22218946Y2773129D01*
G37*
G36*
X22594318Y1694070D02*
G01*
X19650668Y1694070D01*
X19650668Y2880181D01*
X19761779Y2880181D01*
X19763173Y2082457D01*
X19762368Y2080039D01*
X19763198Y2068352D01*
X19763220Y2056026D01*
X19764251Y2053537D01*
X19764442Y2050849D01*
X19769697Y2037117D01*
X19818387Y1942565D01*
X19822037Y1933753D01*
X19824420Y1930849D01*
X19825148Y1929436D01*
X19826646Y1928137D01*
X19831364Y1922388D01*
X19880399Y1875047D01*
X19886033Y1868550D01*
X19889178Y1866571D01*
X19890349Y1865440D01*
X19892176Y1864683D01*
X19898476Y1860718D01*
X19984365Y1819043D01*
X19985587Y1817821D01*
X19994446Y1814152D01*
X20007445Y1807844D01*
X20010134Y1807653D01*
X20012623Y1806622D01*
X20027255Y1805181D01*
X20206342Y1806440D01*
X20208350Y1805770D01*
X20219022Y1806529D01*
X20232363Y1806622D01*
X20234852Y1807654D01*
X20237540Y1807844D01*
X20251272Y1813099D01*
X20345826Y1861791D01*
X20354637Y1865440D01*
X20357539Y1867823D01*
X20358953Y1868550D01*
X20360253Y1870050D01*
X20366003Y1874768D01*
X20413344Y1923805D01*
X20419838Y1929436D01*
X20421817Y1932582D01*
X20422949Y1933753D01*
X20423706Y1935583D01*
X20427670Y1941879D01*
X20469345Y2027769D01*
X20470567Y2028990D01*
X20474236Y2037850D01*
X20480544Y2050848D01*
X20480735Y2053538D01*
X20481766Y2056026D01*
X20483207Y2070658D01*
X20482125Y2689705D01*
X20761779Y2689705D01*
X20762884Y2605399D01*
X20762368Y2603848D01*
X20763026Y2594579D01*
X20763220Y2579835D01*
X20764251Y2577346D01*
X20764442Y2574658D01*
X20769697Y2560926D01*
X20818389Y2466370D01*
X20822038Y2457561D01*
X20824420Y2454659D01*
X20825148Y2453245D01*
X20826646Y2451946D01*
X20831365Y2446196D01*
X20880400Y2398855D01*
X20886033Y2392360D01*
X20889178Y2390381D01*
X20890349Y2389250D01*
X20892176Y2388493D01*
X20898476Y2384528D01*
X20989708Y2340260D01*
X20995219Y2336177D01*
X21006234Y2332242D01*
X21007445Y2331654D01*
X21007985Y2331616D01*
X21009065Y2331230D01*
X21186548Y2288146D01*
X21266565Y2249320D01*
X21297892Y2219076D01*
X21333414Y2150095D01*
X21334203Y2089934D01*
X21301155Y2021825D01*
X21270909Y1990496D01*
X21202159Y1955093D01*
X20995378Y1953914D01*
X20846159Y2002211D01*
X20816969Y2000136D01*
X20790796Y1987050D01*
X20771622Y1964943D01*
X20762368Y1937180D01*
X20764443Y1907990D01*
X20777529Y1881817D01*
X20799636Y1862643D01*
X20813062Y1856649D01*
X20955643Y1810500D01*
X20965004Y1806622D01*
X20968767Y1806252D01*
X20970255Y1805770D01*
X20972229Y1805911D01*
X20979636Y1805181D01*
X21206240Y1806474D01*
X21208350Y1805770D01*
X21219292Y1806548D01*
X21232363Y1806622D01*
X21234852Y1807654D01*
X21237540Y1807844D01*
X21251272Y1813099D01*
X21345826Y1861791D01*
X21354637Y1865440D01*
X21357539Y1867823D01*
X21358953Y1868550D01*
X21360253Y1870050D01*
X21366003Y1874768D01*
X21413344Y1923805D01*
X21419838Y1929436D01*
X21421817Y1932582D01*
X21422949Y1933753D01*
X21423706Y1935583D01*
X21427670Y1941879D01*
X21469345Y2027769D01*
X21470567Y2028990D01*
X21474236Y2037850D01*
X21480544Y2050848D01*
X21480735Y2053538D01*
X21481766Y2056026D01*
X21483207Y2070658D01*
X21482101Y2154966D01*
X21482618Y2156516D01*
X21481959Y2165787D01*
X21481766Y2180528D01*
X21480735Y2183017D01*
X21480544Y2185706D01*
X21475289Y2199437D01*
X21426597Y2293992D01*
X21422948Y2302802D01*
X21420565Y2305705D01*
X21419838Y2307118D01*
X21418339Y2308418D01*
X21413621Y2314167D01*
X21364585Y2361509D01*
X21358953Y2368003D01*
X21355807Y2369983D01*
X21354637Y2371113D01*
X21352809Y2371871D01*
X21346510Y2375835D01*
X21255278Y2420102D01*
X21249767Y2424186D01*
X21238747Y2428124D01*
X21237540Y2428709D01*
X21237000Y2428748D01*
X21235921Y2429133D01*
X21058437Y2472218D01*
X20978421Y2511043D01*
X20947093Y2541288D01*
X20911571Y2610269D01*
X20910782Y2670430D01*
X20943831Y2738540D01*
X20974075Y2769867D01*
X21042826Y2805270D01*
X21249607Y2806449D01*
X21398826Y2758151D01*
X21428016Y2760226D01*
X21454190Y2773312D01*
X21473364Y2795420D01*
X21482618Y2823182D01*
X21480543Y2852372D01*
X21467456Y2878545D01*
X21465570Y2880181D01*
X21761779Y2880181D01*
X21763220Y1865549D01*
X21774419Y1838513D01*
X21795111Y1817821D01*
X21822147Y1806622D01*
X21836779Y1805181D01*
X22206081Y1806527D01*
X22208350Y1805770D01*
X22219691Y1806576D01*
X22232363Y1806622D01*
X22234852Y1807654D01*
X22237540Y1807844D01*
X22251272Y1813099D01*
X22345826Y1861791D01*
X22354637Y1865440D01*
X22357539Y1867823D01*
X22358953Y1868550D01*
X22360253Y1870050D01*
X22366003Y1874768D01*
X22413344Y1923805D01*
X22419838Y1929436D01*
X22421817Y1932582D01*
X22422949Y1933753D01*
X22423706Y1935583D01*
X22427670Y1941879D01*
X22469345Y2027769D01*
X22470567Y2028990D01*
X22474236Y2037850D01*
X22480544Y2050848D01*
X22480735Y2053538D01*
X22481766Y2056026D01*
X22483207Y2070658D01*
X22482002Y2202289D01*
X22482618Y2204135D01*
X22481892Y2214350D01*
X22481766Y2228147D01*
X22480735Y2230636D01*
X22480544Y2233325D01*
X22475289Y2247056D01*
X22426597Y2341611D01*
X22422948Y2350421D01*
X22420565Y2353324D01*
X22419838Y2354737D01*
X22418339Y2356037D01*
X22413621Y2361786D01*
X22372794Y2401202D01*
X22372218Y2402355D01*
X22366138Y2407629D01*
X22354637Y2418732D01*
X22352146Y2419764D01*
X22350111Y2421529D01*
X22343424Y2424515D01*
X22365724Y2447613D01*
X22372219Y2453245D01*
X22374198Y2456391D01*
X22375329Y2457561D01*
X22376086Y2459389D01*
X22380051Y2465688D01*
X22421726Y2551578D01*
X22422948Y2552799D01*
X22426617Y2561659D01*
X22432925Y2574657D01*
X22433116Y2577347D01*
X22434147Y2579835D01*
X22435588Y2594467D01*
X22434482Y2678775D01*
X22434999Y2680325D01*
X22434340Y2689596D01*
X22434147Y2704337D01*
X22433116Y2706826D01*
X22432925Y2709515D01*
X22427670Y2723246D01*
X22378978Y2817801D01*
X22375329Y2826611D01*
X22372946Y2829514D01*
X22372219Y2830927D01*
X22370720Y2832227D01*
X22366002Y2837976D01*
X22316966Y2885318D01*
X22311334Y2891812D01*
X22308188Y2893792D01*
X22307018Y2894922D01*
X22305190Y2895680D01*
X22298891Y2899644D01*
X22213002Y2941319D01*
X22211780Y2942541D01*
X22202914Y2946214D01*
X22189921Y2952518D01*
X22187233Y2952709D01*
X22184744Y2953740D01*
X22170112Y2955181D01*
X21822147Y2953740D01*
X21795111Y2942541D01*
X21774419Y2921849D01*
X21763220Y2894813D01*
X21761779Y2880181D01*
X21465570Y2880181D01*
X21445349Y2897719D01*
X21431924Y2903713D01*
X21289345Y2949862D01*
X21279982Y2953740D01*
X21276216Y2954111D01*
X21274730Y2954592D01*
X21272755Y2954452D01*
X21265350Y2955181D01*
X21038744Y2953889D01*
X21036635Y2954592D01*
X21025692Y2953815D01*
X21012623Y2953740D01*
X21010134Y2952710D01*
X21007445Y2952518D01*
X20993714Y2947263D01*
X20899159Y2898572D01*
X20890349Y2894922D01*
X20887446Y2892540D01*
X20886033Y2891812D01*
X20884733Y2890314D01*
X20878984Y2885595D01*
X20831642Y2836560D01*
X20825148Y2830927D01*
X20823168Y2827782D01*
X20822038Y2826611D01*
X20821280Y2824784D01*
X20817316Y2818484D01*
X20775641Y2732596D01*
X20774419Y2731373D01*
X20770746Y2722508D01*
X20764442Y2709514D01*
X20764251Y2706827D01*
X20763220Y2704337D01*
X20761779Y2689705D01*
X20482125Y2689705D01*
X20481766Y2894813D01*
X20470567Y2921849D01*
X20449875Y2942541D01*
X20422839Y2953740D01*
X20393575Y2953740D01*
X20366539Y2942541D01*
X20345847Y2921849D01*
X20334648Y2894813D01*
X20333207Y2880181D01*
X20334587Y2090726D01*
X20301155Y2021825D01*
X20270909Y1990496D01*
X20202119Y1955072D01*
X20046950Y1953982D01*
X19978421Y1987233D01*
X19947094Y2017479D01*
X19911751Y2086110D01*
X19910338Y2894813D01*
X19899139Y2921849D01*
X19878447Y2942541D01*
X19851411Y2953740D01*
X19822147Y2953740D01*
X19795111Y2942541D01*
X19774419Y2921849D01*
X19763220Y2894813D01*
X19761779Y2880181D01*
X19650668Y2880181D01*
X19650668Y3066292D01*
X22594318Y3066292D01*
X22594318Y1694070D01*
G37*
X35609580Y15857143D02*
X35657200Y15809524D01*
X35657200Y15809524D02*
X35704819Y15666667D01*
X35704819Y15666667D02*
X35704819Y15571429D01*
X35704819Y15571429D02*
X35657200Y15428572D01*
X35657200Y15428572D02*
X35561961Y15333334D01*
X35561961Y15333334D02*
X35466723Y15285715D01*
X35466723Y15285715D02*
X35276247Y15238096D01*
X35276247Y15238096D02*
X35133390Y15238096D01*
X35133390Y15238096D02*
X34942914Y15285715D01*
X34942914Y15285715D02*
X34847676Y15333334D01*
X34847676Y15333334D02*
X34752438Y15428572D01*
X34752438Y15428572D02*
X34704819Y15571429D01*
X34704819Y15571429D02*
X34704819Y15666667D01*
X34704819Y15666667D02*
X34752438Y15809524D01*
X34752438Y15809524D02*
X34800057Y15857143D01*
X35704819Y16809524D02*
X35704819Y16238096D01*
X35704819Y16523810D02*
X34704819Y16523810D01*
X34704819Y16523810D02*
X34847676Y16428572D01*
X34847676Y16428572D02*
X34942914Y16333334D01*
X34942914Y16333334D02*
X34990533Y16238096D01*
X34704819Y17142858D02*
X34704819Y17761905D01*
X34704819Y17761905D02*
X35085771Y17428572D01*
X35085771Y17428572D02*
X35085771Y17571429D01*
X35085771Y17571429D02*
X35133390Y17666667D01*
X35133390Y17666667D02*
X35181009Y17714286D01*
X35181009Y17714286D02*
X35276247Y17761905D01*
X35276247Y17761905D02*
X35514342Y17761905D01*
X35514342Y17761905D02*
X35609580Y17714286D01*
X35609580Y17714286D02*
X35657200Y17666667D01*
X35657200Y17666667D02*
X35704819Y17571429D01*
X35704819Y17571429D02*
X35704819Y17285715D01*
X35704819Y17285715D02*
X35657200Y17190477D01*
X35657200Y17190477D02*
X35609580Y17142858D01*
X69109580Y7833334D02*
X69157200Y7785715D01*
X69157200Y7785715D02*
X69204819Y7642858D01*
X69204819Y7642858D02*
X69204819Y7547620D01*
X69204819Y7547620D02*
X69157200Y7404763D01*
X69157200Y7404763D02*
X69061961Y7309525D01*
X69061961Y7309525D02*
X68966723Y7261906D01*
X68966723Y7261906D02*
X68776247Y7214287D01*
X68776247Y7214287D02*
X68633390Y7214287D01*
X68633390Y7214287D02*
X68442914Y7261906D01*
X68442914Y7261906D02*
X68347676Y7309525D01*
X68347676Y7309525D02*
X68252438Y7404763D01*
X68252438Y7404763D02*
X68204819Y7547620D01*
X68204819Y7547620D02*
X68204819Y7642858D01*
X68204819Y7642858D02*
X68252438Y7785715D01*
X68252438Y7785715D02*
X68300057Y7833334D01*
X69204819Y8309525D02*
X69204819Y8500001D01*
X69204819Y8500001D02*
X69157200Y8595239D01*
X69157200Y8595239D02*
X69109580Y8642858D01*
X69109580Y8642858D02*
X68966723Y8738096D01*
X68966723Y8738096D02*
X68776247Y8785715D01*
X68776247Y8785715D02*
X68395295Y8785715D01*
X68395295Y8785715D02*
X68300057Y8738096D01*
X68300057Y8738096D02*
X68252438Y8690477D01*
X68252438Y8690477D02*
X68204819Y8595239D01*
X68204819Y8595239D02*
X68204819Y8404763D01*
X68204819Y8404763D02*
X68252438Y8309525D01*
X68252438Y8309525D02*
X68300057Y8261906D01*
X68300057Y8261906D02*
X68395295Y8214287D01*
X68395295Y8214287D02*
X68633390Y8214287D01*
X68633390Y8214287D02*
X68728628Y8261906D01*
X68728628Y8261906D02*
X68776247Y8309525D01*
X68776247Y8309525D02*
X68823866Y8404763D01*
X68823866Y8404763D02*
X68823866Y8595239D01*
X68823866Y8595239D02*
X68776247Y8690477D01*
X68776247Y8690477D02*
X68728628Y8738096D01*
X68728628Y8738096D02*
X68633390Y8785715D01*
X45357142Y27890420D02*
X45309523Y27842800D01*
X45309523Y27842800D02*
X45166666Y27795181D01*
X45166666Y27795181D02*
X45071428Y27795181D01*
X45071428Y27795181D02*
X44928571Y27842800D01*
X44928571Y27842800D02*
X44833333Y27938039D01*
X44833333Y27938039D02*
X44785714Y28033277D01*
X44785714Y28033277D02*
X44738095Y28223753D01*
X44738095Y28223753D02*
X44738095Y28366610D01*
X44738095Y28366610D02*
X44785714Y28557086D01*
X44785714Y28557086D02*
X44833333Y28652324D01*
X44833333Y28652324D02*
X44928571Y28747562D01*
X44928571Y28747562D02*
X45071428Y28795181D01*
X45071428Y28795181D02*
X45166666Y28795181D01*
X45166666Y28795181D02*
X45309523Y28747562D01*
X45309523Y28747562D02*
X45357142Y28699943D01*
X45738095Y28699943D02*
X45785714Y28747562D01*
X45785714Y28747562D02*
X45880952Y28795181D01*
X45880952Y28795181D02*
X46119047Y28795181D01*
X46119047Y28795181D02*
X46214285Y28747562D01*
X46214285Y28747562D02*
X46261904Y28699943D01*
X46261904Y28699943D02*
X46309523Y28604705D01*
X46309523Y28604705D02*
X46309523Y28509467D01*
X46309523Y28509467D02*
X46261904Y28366610D01*
X46261904Y28366610D02*
X45690476Y27795181D01*
X45690476Y27795181D02*
X46309523Y27795181D01*
X46785714Y27795181D02*
X46976190Y27795181D01*
X46976190Y27795181D02*
X47071428Y27842800D01*
X47071428Y27842800D02*
X47119047Y27890420D01*
X47119047Y27890420D02*
X47214285Y28033277D01*
X47214285Y28033277D02*
X47261904Y28223753D01*
X47261904Y28223753D02*
X47261904Y28604705D01*
X47261904Y28604705D02*
X47214285Y28699943D01*
X47214285Y28699943D02*
X47166666Y28747562D01*
X47166666Y28747562D02*
X47071428Y28795181D01*
X47071428Y28795181D02*
X46880952Y28795181D01*
X46880952Y28795181D02*
X46785714Y28747562D01*
X46785714Y28747562D02*
X46738095Y28699943D01*
X46738095Y28699943D02*
X46690476Y28604705D01*
X46690476Y28604705D02*
X46690476Y28366610D01*
X46690476Y28366610D02*
X46738095Y28271372D01*
X46738095Y28271372D02*
X46785714Y28223753D01*
X46785714Y28223753D02*
X46880952Y28176134D01*
X46880952Y28176134D02*
X47071428Y28176134D01*
X47071428Y28176134D02*
X47166666Y28223753D01*
X47166666Y28223753D02*
X47214285Y28271372D01*
X47214285Y28271372D02*
X47261904Y28366610D01*
X37859580Y7107143D02*
X37907200Y7059524D01*
X37907200Y7059524D02*
X37954819Y6916667D01*
X37954819Y6916667D02*
X37954819Y6821429D01*
X37954819Y6821429D02*
X37907200Y6678572D01*
X37907200Y6678572D02*
X37811961Y6583334D01*
X37811961Y6583334D02*
X37716723Y6535715D01*
X37716723Y6535715D02*
X37526247Y6488096D01*
X37526247Y6488096D02*
X37383390Y6488096D01*
X37383390Y6488096D02*
X37192914Y6535715D01*
X37192914Y6535715D02*
X37097676Y6583334D01*
X37097676Y6583334D02*
X37002438Y6678572D01*
X37002438Y6678572D02*
X36954819Y6821429D01*
X36954819Y6821429D02*
X36954819Y6916667D01*
X36954819Y6916667D02*
X37002438Y7059524D01*
X37002438Y7059524D02*
X37050057Y7107143D01*
X37288152Y7964286D02*
X37954819Y7964286D01*
X36907200Y7726191D02*
X37621485Y7488096D01*
X37621485Y7488096D02*
X37621485Y8107143D01*
X36954819Y8964286D02*
X36954819Y8488096D01*
X36954819Y8488096D02*
X37431009Y8440477D01*
X37431009Y8440477D02*
X37383390Y8488096D01*
X37383390Y8488096D02*
X37335771Y8583334D01*
X37335771Y8583334D02*
X37335771Y8821429D01*
X37335771Y8821429D02*
X37383390Y8916667D01*
X37383390Y8916667D02*
X37431009Y8964286D01*
X37431009Y8964286D02*
X37526247Y9011905D01*
X37526247Y9011905D02*
X37764342Y9011905D01*
X37764342Y9011905D02*
X37859580Y8964286D01*
X37859580Y8964286D02*
X37907200Y8916667D01*
X37907200Y8916667D02*
X37954819Y8821429D01*
X37954819Y8821429D02*
X37954819Y8583334D01*
X37954819Y8583334D02*
X37907200Y8488096D01*
X37907200Y8488096D02*
X37859580Y8440477D01*
X81109580Y11107143D02*
X81157200Y11059524D01*
X81157200Y11059524D02*
X81204819Y10916667D01*
X81204819Y10916667D02*
X81204819Y10821429D01*
X81204819Y10821429D02*
X81157200Y10678572D01*
X81157200Y10678572D02*
X81061961Y10583334D01*
X81061961Y10583334D02*
X80966723Y10535715D01*
X80966723Y10535715D02*
X80776247Y10488096D01*
X80776247Y10488096D02*
X80633390Y10488096D01*
X80633390Y10488096D02*
X80442914Y10535715D01*
X80442914Y10535715D02*
X80347676Y10583334D01*
X80347676Y10583334D02*
X80252438Y10678572D01*
X80252438Y10678572D02*
X80204819Y10821429D01*
X80204819Y10821429D02*
X80204819Y10916667D01*
X80204819Y10916667D02*
X80252438Y11059524D01*
X80252438Y11059524D02*
X80300057Y11107143D01*
X80300057Y11488096D02*
X80252438Y11535715D01*
X80252438Y11535715D02*
X80204819Y11630953D01*
X80204819Y11630953D02*
X80204819Y11869048D01*
X80204819Y11869048D02*
X80252438Y11964286D01*
X80252438Y11964286D02*
X80300057Y12011905D01*
X80300057Y12011905D02*
X80395295Y12059524D01*
X80395295Y12059524D02*
X80490533Y12059524D01*
X80490533Y12059524D02*
X80633390Y12011905D01*
X80633390Y12011905D02*
X81204819Y11440477D01*
X81204819Y11440477D02*
X81204819Y12059524D01*
X81204819Y13011905D02*
X81204819Y12440477D01*
X81204819Y12726191D02*
X80204819Y12726191D01*
X80204819Y12726191D02*
X80347676Y12630953D01*
X80347676Y12630953D02*
X80442914Y12535715D01*
X80442914Y12535715D02*
X80490533Y12440477D01*
X6556666Y48345181D02*
X6556666Y47630896D01*
X6556666Y47630896D02*
X6509047Y47488039D01*
X6509047Y47488039D02*
X6413809Y47392800D01*
X6413809Y47392800D02*
X6270952Y47345181D01*
X6270952Y47345181D02*
X6175714Y47345181D01*
X7461428Y48011848D02*
X7461428Y47345181D01*
X7223333Y48392800D02*
X6985238Y47678515D01*
X6985238Y47678515D02*
X7604285Y47678515D01*
X45357142Y25390420D02*
X45309523Y25342800D01*
X45309523Y25342800D02*
X45166666Y25295181D01*
X45166666Y25295181D02*
X45071428Y25295181D01*
X45071428Y25295181D02*
X44928571Y25342800D01*
X44928571Y25342800D02*
X44833333Y25438039D01*
X44833333Y25438039D02*
X44785714Y25533277D01*
X44785714Y25533277D02*
X44738095Y25723753D01*
X44738095Y25723753D02*
X44738095Y25866610D01*
X44738095Y25866610D02*
X44785714Y26057086D01*
X44785714Y26057086D02*
X44833333Y26152324D01*
X44833333Y26152324D02*
X44928571Y26247562D01*
X44928571Y26247562D02*
X45071428Y26295181D01*
X45071428Y26295181D02*
X45166666Y26295181D01*
X45166666Y26295181D02*
X45309523Y26247562D01*
X45309523Y26247562D02*
X45357142Y26199943D01*
X45738095Y26199943D02*
X45785714Y26247562D01*
X45785714Y26247562D02*
X45880952Y26295181D01*
X45880952Y26295181D02*
X46119047Y26295181D01*
X46119047Y26295181D02*
X46214285Y26247562D01*
X46214285Y26247562D02*
X46261904Y26199943D01*
X46261904Y26199943D02*
X46309523Y26104705D01*
X46309523Y26104705D02*
X46309523Y26009467D01*
X46309523Y26009467D02*
X46261904Y25866610D01*
X46261904Y25866610D02*
X45690476Y25295181D01*
X45690476Y25295181D02*
X46309523Y25295181D01*
X46642857Y26295181D02*
X47309523Y26295181D01*
X47309523Y26295181D02*
X46880952Y25295181D01*
X48107142Y34140420D02*
X48059523Y34092800D01*
X48059523Y34092800D02*
X47916666Y34045181D01*
X47916666Y34045181D02*
X47821428Y34045181D01*
X47821428Y34045181D02*
X47678571Y34092800D01*
X47678571Y34092800D02*
X47583333Y34188039D01*
X47583333Y34188039D02*
X47535714Y34283277D01*
X47535714Y34283277D02*
X47488095Y34473753D01*
X47488095Y34473753D02*
X47488095Y34616610D01*
X47488095Y34616610D02*
X47535714Y34807086D01*
X47535714Y34807086D02*
X47583333Y34902324D01*
X47583333Y34902324D02*
X47678571Y34997562D01*
X47678571Y34997562D02*
X47821428Y35045181D01*
X47821428Y35045181D02*
X47916666Y35045181D01*
X47916666Y35045181D02*
X48059523Y34997562D01*
X48059523Y34997562D02*
X48107142Y34949943D01*
X48488095Y34949943D02*
X48535714Y34997562D01*
X48535714Y34997562D02*
X48630952Y35045181D01*
X48630952Y35045181D02*
X48869047Y35045181D01*
X48869047Y35045181D02*
X48964285Y34997562D01*
X48964285Y34997562D02*
X49011904Y34949943D01*
X49011904Y34949943D02*
X49059523Y34854705D01*
X49059523Y34854705D02*
X49059523Y34759467D01*
X49059523Y34759467D02*
X49011904Y34616610D01*
X49011904Y34616610D02*
X48440476Y34045181D01*
X48440476Y34045181D02*
X49059523Y34045181D01*
X49916666Y35045181D02*
X49726190Y35045181D01*
X49726190Y35045181D02*
X49630952Y34997562D01*
X49630952Y34997562D02*
X49583333Y34949943D01*
X49583333Y34949943D02*
X49488095Y34807086D01*
X49488095Y34807086D02*
X49440476Y34616610D01*
X49440476Y34616610D02*
X49440476Y34235658D01*
X49440476Y34235658D02*
X49488095Y34140420D01*
X49488095Y34140420D02*
X49535714Y34092800D01*
X49535714Y34092800D02*
X49630952Y34045181D01*
X49630952Y34045181D02*
X49821428Y34045181D01*
X49821428Y34045181D02*
X49916666Y34092800D01*
X49916666Y34092800D02*
X49964285Y34140420D01*
X49964285Y34140420D02*
X50011904Y34235658D01*
X50011904Y34235658D02*
X50011904Y34473753D01*
X50011904Y34473753D02*
X49964285Y34568991D01*
X49964285Y34568991D02*
X49916666Y34616610D01*
X49916666Y34616610D02*
X49821428Y34664229D01*
X49821428Y34664229D02*
X49630952Y34664229D01*
X49630952Y34664229D02*
X49535714Y34616610D01*
X49535714Y34616610D02*
X49488095Y34568991D01*
X49488095Y34568991D02*
X49440476Y34473753D01*
X48107142Y31890420D02*
X48059523Y31842800D01*
X48059523Y31842800D02*
X47916666Y31795181D01*
X47916666Y31795181D02*
X47821428Y31795181D01*
X47821428Y31795181D02*
X47678571Y31842800D01*
X47678571Y31842800D02*
X47583333Y31938039D01*
X47583333Y31938039D02*
X47535714Y32033277D01*
X47535714Y32033277D02*
X47488095Y32223753D01*
X47488095Y32223753D02*
X47488095Y32366610D01*
X47488095Y32366610D02*
X47535714Y32557086D01*
X47535714Y32557086D02*
X47583333Y32652324D01*
X47583333Y32652324D02*
X47678571Y32747562D01*
X47678571Y32747562D02*
X47821428Y32795181D01*
X47821428Y32795181D02*
X47916666Y32795181D01*
X47916666Y32795181D02*
X48059523Y32747562D01*
X48059523Y32747562D02*
X48107142Y32699943D01*
X48488095Y32699943D02*
X48535714Y32747562D01*
X48535714Y32747562D02*
X48630952Y32795181D01*
X48630952Y32795181D02*
X48869047Y32795181D01*
X48869047Y32795181D02*
X48964285Y32747562D01*
X48964285Y32747562D02*
X49011904Y32699943D01*
X49011904Y32699943D02*
X49059523Y32604705D01*
X49059523Y32604705D02*
X49059523Y32509467D01*
X49059523Y32509467D02*
X49011904Y32366610D01*
X49011904Y32366610D02*
X48440476Y31795181D01*
X48440476Y31795181D02*
X49059523Y31795181D01*
X49964285Y32795181D02*
X49488095Y32795181D01*
X49488095Y32795181D02*
X49440476Y32318991D01*
X49440476Y32318991D02*
X49488095Y32366610D01*
X49488095Y32366610D02*
X49583333Y32414229D01*
X49583333Y32414229D02*
X49821428Y32414229D01*
X49821428Y32414229D02*
X49916666Y32366610D01*
X49916666Y32366610D02*
X49964285Y32318991D01*
X49964285Y32318991D02*
X50011904Y32223753D01*
X50011904Y32223753D02*
X50011904Y31985658D01*
X50011904Y31985658D02*
X49964285Y31890420D01*
X49964285Y31890420D02*
X49916666Y31842800D01*
X49916666Y31842800D02*
X49821428Y31795181D01*
X49821428Y31795181D02*
X49583333Y31795181D01*
X49583333Y31795181D02*
X49488095Y31842800D01*
X49488095Y31842800D02*
X49440476Y31890420D01*
X72273810Y27295181D02*
X72273810Y28295181D01*
X73321428Y27390420D02*
X73273809Y27342800D01*
X73273809Y27342800D02*
X73130952Y27295181D01*
X73130952Y27295181D02*
X73035714Y27295181D01*
X73035714Y27295181D02*
X72892857Y27342800D01*
X72892857Y27342800D02*
X72797619Y27438039D01*
X72797619Y27438039D02*
X72750000Y27533277D01*
X72750000Y27533277D02*
X72702381Y27723753D01*
X72702381Y27723753D02*
X72702381Y27866610D01*
X72702381Y27866610D02*
X72750000Y28057086D01*
X72750000Y28057086D02*
X72797619Y28152324D01*
X72797619Y28152324D02*
X72892857Y28247562D01*
X72892857Y28247562D02*
X73035714Y28295181D01*
X73035714Y28295181D02*
X73130952Y28295181D01*
X73130952Y28295181D02*
X73273809Y28247562D01*
X73273809Y28247562D02*
X73321428Y28199943D01*
X73702381Y28199943D02*
X73750000Y28247562D01*
X73750000Y28247562D02*
X73845238Y28295181D01*
X73845238Y28295181D02*
X74083333Y28295181D01*
X74083333Y28295181D02*
X74178571Y28247562D01*
X74178571Y28247562D02*
X74226190Y28199943D01*
X74226190Y28199943D02*
X74273809Y28104705D01*
X74273809Y28104705D02*
X74273809Y28009467D01*
X74273809Y28009467D02*
X74226190Y27866610D01*
X74226190Y27866610D02*
X73654762Y27295181D01*
X73654762Y27295181D02*
X74273809Y27295181D01*
X18833333Y24140420D02*
X18785714Y24092800D01*
X18785714Y24092800D02*
X18642857Y24045181D01*
X18642857Y24045181D02*
X18547619Y24045181D01*
X18547619Y24045181D02*
X18404762Y24092800D01*
X18404762Y24092800D02*
X18309524Y24188039D01*
X18309524Y24188039D02*
X18261905Y24283277D01*
X18261905Y24283277D02*
X18214286Y24473753D01*
X18214286Y24473753D02*
X18214286Y24616610D01*
X18214286Y24616610D02*
X18261905Y24807086D01*
X18261905Y24807086D02*
X18309524Y24902324D01*
X18309524Y24902324D02*
X18404762Y24997562D01*
X18404762Y24997562D02*
X18547619Y25045181D01*
X18547619Y25045181D02*
X18642857Y25045181D01*
X18642857Y25045181D02*
X18785714Y24997562D01*
X18785714Y24997562D02*
X18833333Y24949943D01*
X19166667Y25045181D02*
X19785714Y25045181D01*
X19785714Y25045181D02*
X19452381Y24664229D01*
X19452381Y24664229D02*
X19595238Y24664229D01*
X19595238Y24664229D02*
X19690476Y24616610D01*
X19690476Y24616610D02*
X19738095Y24568991D01*
X19738095Y24568991D02*
X19785714Y24473753D01*
X19785714Y24473753D02*
X19785714Y24235658D01*
X19785714Y24235658D02*
X19738095Y24140420D01*
X19738095Y24140420D02*
X19690476Y24092800D01*
X19690476Y24092800D02*
X19595238Y24045181D01*
X19595238Y24045181D02*
X19309524Y24045181D01*
X19309524Y24045181D02*
X19214286Y24092800D01*
X19214286Y24092800D02*
X19166667Y24140420D01*
X79124819Y36583334D02*
X78648628Y36250001D01*
X79124819Y36011906D02*
X78124819Y36011906D01*
X78124819Y36011906D02*
X78124819Y36392858D01*
X78124819Y36392858D02*
X78172438Y36488096D01*
X78172438Y36488096D02*
X78220057Y36535715D01*
X78220057Y36535715D02*
X78315295Y36583334D01*
X78315295Y36583334D02*
X78458152Y36583334D01*
X78458152Y36583334D02*
X78553390Y36535715D01*
X78553390Y36535715D02*
X78601009Y36488096D01*
X78601009Y36488096D02*
X78648628Y36392858D01*
X78648628Y36392858D02*
X78648628Y36011906D01*
X78124819Y36916668D02*
X78124819Y37583334D01*
X78124819Y37583334D02*
X79124819Y37154763D01*
X17859580Y28333334D02*
X17907200Y28285715D01*
X17907200Y28285715D02*
X17954819Y28142858D01*
X17954819Y28142858D02*
X17954819Y28047620D01*
X17954819Y28047620D02*
X17907200Y27904763D01*
X17907200Y27904763D02*
X17811961Y27809525D01*
X17811961Y27809525D02*
X17716723Y27761906D01*
X17716723Y27761906D02*
X17526247Y27714287D01*
X17526247Y27714287D02*
X17383390Y27714287D01*
X17383390Y27714287D02*
X17192914Y27761906D01*
X17192914Y27761906D02*
X17097676Y27809525D01*
X17097676Y27809525D02*
X17002438Y27904763D01*
X17002438Y27904763D02*
X16954819Y28047620D01*
X16954819Y28047620D02*
X16954819Y28142858D01*
X16954819Y28142858D02*
X17002438Y28285715D01*
X17002438Y28285715D02*
X17050057Y28333334D01*
X16954819Y28666668D02*
X16954819Y29333334D01*
X16954819Y29333334D02*
X17954819Y28904763D01*
X25107142Y49640420D02*
X25059523Y49592800D01*
X25059523Y49592800D02*
X24916666Y49545181D01*
X24916666Y49545181D02*
X24821428Y49545181D01*
X24821428Y49545181D02*
X24678571Y49592800D01*
X24678571Y49592800D02*
X24583333Y49688039D01*
X24583333Y49688039D02*
X24535714Y49783277D01*
X24535714Y49783277D02*
X24488095Y49973753D01*
X24488095Y49973753D02*
X24488095Y50116610D01*
X24488095Y50116610D02*
X24535714Y50307086D01*
X24535714Y50307086D02*
X24583333Y50402324D01*
X24583333Y50402324D02*
X24678571Y50497562D01*
X24678571Y50497562D02*
X24821428Y50545181D01*
X24821428Y50545181D02*
X24916666Y50545181D01*
X24916666Y50545181D02*
X25059523Y50497562D01*
X25059523Y50497562D02*
X25107142Y50449943D01*
X25964285Y50211848D02*
X25964285Y49545181D01*
X25726190Y50592800D02*
X25488095Y49878515D01*
X25488095Y49878515D02*
X26107142Y49878515D01*
X26678571Y50545181D02*
X26773809Y50545181D01*
X26773809Y50545181D02*
X26869047Y50497562D01*
X26869047Y50497562D02*
X26916666Y50449943D01*
X26916666Y50449943D02*
X26964285Y50354705D01*
X26964285Y50354705D02*
X27011904Y50164229D01*
X27011904Y50164229D02*
X27011904Y49926134D01*
X27011904Y49926134D02*
X26964285Y49735658D01*
X26964285Y49735658D02*
X26916666Y49640420D01*
X26916666Y49640420D02*
X26869047Y49592800D01*
X26869047Y49592800D02*
X26773809Y49545181D01*
X26773809Y49545181D02*
X26678571Y49545181D01*
X26678571Y49545181D02*
X26583333Y49592800D01*
X26583333Y49592800D02*
X26535714Y49640420D01*
X26535714Y49640420D02*
X26488095Y49735658D01*
X26488095Y49735658D02*
X26440476Y49926134D01*
X26440476Y49926134D02*
X26440476Y50164229D01*
X26440476Y50164229D02*
X26488095Y50354705D01*
X26488095Y50354705D02*
X26535714Y50449943D01*
X26535714Y50449943D02*
X26583333Y50497562D01*
X26583333Y50497562D02*
X26678571Y50545181D01*
X14916666Y50545181D02*
X14916666Y49830896D01*
X14916666Y49830896D02*
X14869047Y49688039D01*
X14869047Y49688039D02*
X14773809Y49592800D01*
X14773809Y49592800D02*
X14630952Y49545181D01*
X14630952Y49545181D02*
X14535714Y49545181D01*
X15297619Y50545181D02*
X15916666Y50545181D01*
X15916666Y50545181D02*
X15583333Y50164229D01*
X15583333Y50164229D02*
X15726190Y50164229D01*
X15726190Y50164229D02*
X15821428Y50116610D01*
X15821428Y50116610D02*
X15869047Y50068991D01*
X15869047Y50068991D02*
X15916666Y49973753D01*
X15916666Y49973753D02*
X15916666Y49735658D01*
X15916666Y49735658D02*
X15869047Y49640420D01*
X15869047Y49640420D02*
X15821428Y49592800D01*
X15821428Y49592800D02*
X15726190Y49545181D01*
X15726190Y49545181D02*
X15440476Y49545181D01*
X15440476Y49545181D02*
X15345238Y49592800D01*
X15345238Y49592800D02*
X15297619Y49640420D01*
X45959580Y17857143D02*
X46007200Y17809524D01*
X46007200Y17809524D02*
X46054819Y17666667D01*
X46054819Y17666667D02*
X46054819Y17571429D01*
X46054819Y17571429D02*
X46007200Y17428572D01*
X46007200Y17428572D02*
X45911961Y17333334D01*
X45911961Y17333334D02*
X45816723Y17285715D01*
X45816723Y17285715D02*
X45626247Y17238096D01*
X45626247Y17238096D02*
X45483390Y17238096D01*
X45483390Y17238096D02*
X45292914Y17285715D01*
X45292914Y17285715D02*
X45197676Y17333334D01*
X45197676Y17333334D02*
X45102438Y17428572D01*
X45102438Y17428572D02*
X45054819Y17571429D01*
X45054819Y17571429D02*
X45054819Y17666667D01*
X45054819Y17666667D02*
X45102438Y17809524D01*
X45102438Y17809524D02*
X45150057Y17857143D01*
X45388152Y18714286D02*
X46054819Y18714286D01*
X45007200Y18476191D02*
X45721485Y18238096D01*
X45721485Y18238096D02*
X45721485Y18857143D01*
X45054819Y19142858D02*
X45054819Y19809524D01*
X45054819Y19809524D02*
X46054819Y19380953D01*
X54859580Y6357143D02*
X54907200Y6309524D01*
X54907200Y6309524D02*
X54954819Y6166667D01*
X54954819Y6166667D02*
X54954819Y6071429D01*
X54954819Y6071429D02*
X54907200Y5928572D01*
X54907200Y5928572D02*
X54811961Y5833334D01*
X54811961Y5833334D02*
X54716723Y5785715D01*
X54716723Y5785715D02*
X54526247Y5738096D01*
X54526247Y5738096D02*
X54383390Y5738096D01*
X54383390Y5738096D02*
X54192914Y5785715D01*
X54192914Y5785715D02*
X54097676Y5833334D01*
X54097676Y5833334D02*
X54002438Y5928572D01*
X54002438Y5928572D02*
X53954819Y6071429D01*
X53954819Y6071429D02*
X53954819Y6166667D01*
X53954819Y6166667D02*
X54002438Y6309524D01*
X54002438Y6309524D02*
X54050057Y6357143D01*
X53954819Y6690477D02*
X53954819Y7309524D01*
X53954819Y7309524D02*
X54335771Y6976191D01*
X54335771Y6976191D02*
X54335771Y7119048D01*
X54335771Y7119048D02*
X54383390Y7214286D01*
X54383390Y7214286D02*
X54431009Y7261905D01*
X54431009Y7261905D02*
X54526247Y7309524D01*
X54526247Y7309524D02*
X54764342Y7309524D01*
X54764342Y7309524D02*
X54859580Y7261905D01*
X54859580Y7261905D02*
X54907200Y7214286D01*
X54907200Y7214286D02*
X54954819Y7119048D01*
X54954819Y7119048D02*
X54954819Y6833334D01*
X54954819Y6833334D02*
X54907200Y6738096D01*
X54907200Y6738096D02*
X54859580Y6690477D01*
X54288152Y8166667D02*
X54954819Y8166667D01*
X53907200Y7928572D02*
X54621485Y7690477D01*
X54621485Y7690477D02*
X54621485Y8309524D01*
X41859580Y15857143D02*
X41907200Y15809524D01*
X41907200Y15809524D02*
X41954819Y15666667D01*
X41954819Y15666667D02*
X41954819Y15571429D01*
X41954819Y15571429D02*
X41907200Y15428572D01*
X41907200Y15428572D02*
X41811961Y15333334D01*
X41811961Y15333334D02*
X41716723Y15285715D01*
X41716723Y15285715D02*
X41526247Y15238096D01*
X41526247Y15238096D02*
X41383390Y15238096D01*
X41383390Y15238096D02*
X41192914Y15285715D01*
X41192914Y15285715D02*
X41097676Y15333334D01*
X41097676Y15333334D02*
X41002438Y15428572D01*
X41002438Y15428572D02*
X40954819Y15571429D01*
X40954819Y15571429D02*
X40954819Y15666667D01*
X40954819Y15666667D02*
X41002438Y15809524D01*
X41002438Y15809524D02*
X41050057Y15857143D01*
X41954819Y16809524D02*
X41954819Y16238096D01*
X41954819Y16523810D02*
X40954819Y16523810D01*
X40954819Y16523810D02*
X41097676Y16428572D01*
X41097676Y16428572D02*
X41192914Y16333334D01*
X41192914Y16333334D02*
X41240533Y16238096D01*
X40954819Y17714286D02*
X40954819Y17238096D01*
X40954819Y17238096D02*
X41431009Y17190477D01*
X41431009Y17190477D02*
X41383390Y17238096D01*
X41383390Y17238096D02*
X41335771Y17333334D01*
X41335771Y17333334D02*
X41335771Y17571429D01*
X41335771Y17571429D02*
X41383390Y17666667D01*
X41383390Y17666667D02*
X41431009Y17714286D01*
X41431009Y17714286D02*
X41526247Y17761905D01*
X41526247Y17761905D02*
X41764342Y17761905D01*
X41764342Y17761905D02*
X41859580Y17714286D01*
X41859580Y17714286D02*
X41907200Y17666667D01*
X41907200Y17666667D02*
X41954819Y17571429D01*
X41954819Y17571429D02*
X41954819Y17333334D01*
X41954819Y17333334D02*
X41907200Y17238096D01*
X41907200Y17238096D02*
X41859580Y17190477D01*
X26511905Y12295181D02*
X26511905Y13295181D01*
X26511905Y13295181D02*
X26750000Y13295181D01*
X26750000Y13295181D02*
X26892857Y13247562D01*
X26892857Y13247562D02*
X26988095Y13152324D01*
X26988095Y13152324D02*
X27035714Y13057086D01*
X27035714Y13057086D02*
X27083333Y12866610D01*
X27083333Y12866610D02*
X27083333Y12723753D01*
X27083333Y12723753D02*
X27035714Y12533277D01*
X27035714Y12533277D02*
X26988095Y12438039D01*
X26988095Y12438039D02*
X26892857Y12342800D01*
X26892857Y12342800D02*
X26750000Y12295181D01*
X26750000Y12295181D02*
X26511905Y12295181D01*
X27940476Y12961848D02*
X27940476Y12295181D01*
X27702381Y13342800D02*
X27464286Y12628515D01*
X27464286Y12628515D02*
X28083333Y12628515D01*
X49607142Y11890420D02*
X49559523Y11842800D01*
X49559523Y11842800D02*
X49416666Y11795181D01*
X49416666Y11795181D02*
X49321428Y11795181D01*
X49321428Y11795181D02*
X49178571Y11842800D01*
X49178571Y11842800D02*
X49083333Y11938039D01*
X49083333Y11938039D02*
X49035714Y12033277D01*
X49035714Y12033277D02*
X48988095Y12223753D01*
X48988095Y12223753D02*
X48988095Y12366610D01*
X48988095Y12366610D02*
X49035714Y12557086D01*
X49035714Y12557086D02*
X49083333Y12652324D01*
X49083333Y12652324D02*
X49178571Y12747562D01*
X49178571Y12747562D02*
X49321428Y12795181D01*
X49321428Y12795181D02*
X49416666Y12795181D01*
X49416666Y12795181D02*
X49559523Y12747562D01*
X49559523Y12747562D02*
X49607142Y12699943D01*
X49940476Y12795181D02*
X50559523Y12795181D01*
X50559523Y12795181D02*
X50226190Y12414229D01*
X50226190Y12414229D02*
X50369047Y12414229D01*
X50369047Y12414229D02*
X50464285Y12366610D01*
X50464285Y12366610D02*
X50511904Y12318991D01*
X50511904Y12318991D02*
X50559523Y12223753D01*
X50559523Y12223753D02*
X50559523Y11985658D01*
X50559523Y11985658D02*
X50511904Y11890420D01*
X50511904Y11890420D02*
X50464285Y11842800D01*
X50464285Y11842800D02*
X50369047Y11795181D01*
X50369047Y11795181D02*
X50083333Y11795181D01*
X50083333Y11795181D02*
X49988095Y11842800D01*
X49988095Y11842800D02*
X49940476Y11890420D01*
X51464285Y12795181D02*
X50988095Y12795181D01*
X50988095Y12795181D02*
X50940476Y12318991D01*
X50940476Y12318991D02*
X50988095Y12366610D01*
X50988095Y12366610D02*
X51083333Y12414229D01*
X51083333Y12414229D02*
X51321428Y12414229D01*
X51321428Y12414229D02*
X51416666Y12366610D01*
X51416666Y12366610D02*
X51464285Y12318991D01*
X51464285Y12318991D02*
X51511904Y12223753D01*
X51511904Y12223753D02*
X51511904Y11985658D01*
X51511904Y11985658D02*
X51464285Y11890420D01*
X51464285Y11890420D02*
X51416666Y11842800D01*
X51416666Y11842800D02*
X51321428Y11795181D01*
X51321428Y11795181D02*
X51083333Y11795181D01*
X51083333Y11795181D02*
X50988095Y11842800D01*
X50988095Y11842800D02*
X50940476Y11890420D01*
X48988095Y15795181D02*
X48988095Y14985658D01*
X48988095Y14985658D02*
X49035714Y14890420D01*
X49035714Y14890420D02*
X49083333Y14842800D01*
X49083333Y14842800D02*
X49178571Y14795181D01*
X49178571Y14795181D02*
X49369047Y14795181D01*
X49369047Y14795181D02*
X49464285Y14842800D01*
X49464285Y14842800D02*
X49511904Y14890420D01*
X49511904Y14890420D02*
X49559523Y14985658D01*
X49559523Y14985658D02*
X49559523Y15795181D01*
X50464285Y15461848D02*
X50464285Y14795181D01*
X50226190Y15842800D02*
X49988095Y15128515D01*
X49988095Y15128515D02*
X50607142Y15128515D01*
X39204819Y7107143D02*
X38728628Y6773810D01*
X39204819Y6535715D02*
X38204819Y6535715D01*
X38204819Y6535715D02*
X38204819Y6916667D01*
X38204819Y6916667D02*
X38252438Y7011905D01*
X38252438Y7011905D02*
X38300057Y7059524D01*
X38300057Y7059524D02*
X38395295Y7107143D01*
X38395295Y7107143D02*
X38538152Y7107143D01*
X38538152Y7107143D02*
X38633390Y7059524D01*
X38633390Y7059524D02*
X38681009Y7011905D01*
X38681009Y7011905D02*
X38728628Y6916667D01*
X38728628Y6916667D02*
X38728628Y6535715D01*
X39204819Y8059524D02*
X39204819Y7488096D01*
X39204819Y7773810D02*
X38204819Y7773810D01*
X38204819Y7773810D02*
X38347676Y7678572D01*
X38347676Y7678572D02*
X38442914Y7583334D01*
X38442914Y7583334D02*
X38490533Y7488096D01*
X38204819Y8916667D02*
X38204819Y8726191D01*
X38204819Y8726191D02*
X38252438Y8630953D01*
X38252438Y8630953D02*
X38300057Y8583334D01*
X38300057Y8583334D02*
X38442914Y8488096D01*
X38442914Y8488096D02*
X38633390Y8440477D01*
X38633390Y8440477D02*
X39014342Y8440477D01*
X39014342Y8440477D02*
X39109580Y8488096D01*
X39109580Y8488096D02*
X39157200Y8535715D01*
X39157200Y8535715D02*
X39204819Y8630953D01*
X39204819Y8630953D02*
X39204819Y8821429D01*
X39204819Y8821429D02*
X39157200Y8916667D01*
X39157200Y8916667D02*
X39109580Y8964286D01*
X39109580Y8964286D02*
X39014342Y9011905D01*
X39014342Y9011905D02*
X38776247Y9011905D01*
X38776247Y9011905D02*
X38681009Y8964286D01*
X38681009Y8964286D02*
X38633390Y8916667D01*
X38633390Y8916667D02*
X38585771Y8821429D01*
X38585771Y8821429D02*
X38585771Y8630953D01*
X38585771Y8630953D02*
X38633390Y8535715D01*
X38633390Y8535715D02*
X38681009Y8488096D01*
X38681009Y8488096D02*
X38776247Y8440477D01*
X78204819Y11083334D02*
X77728628Y10750001D01*
X78204819Y10511906D02*
X77204819Y10511906D01*
X77204819Y10511906D02*
X77204819Y10892858D01*
X77204819Y10892858D02*
X77252438Y10988096D01*
X77252438Y10988096D02*
X77300057Y11035715D01*
X77300057Y11035715D02*
X77395295Y11083334D01*
X77395295Y11083334D02*
X77538152Y11083334D01*
X77538152Y11083334D02*
X77633390Y11035715D01*
X77633390Y11035715D02*
X77681009Y10988096D01*
X77681009Y10988096D02*
X77728628Y10892858D01*
X77728628Y10892858D02*
X77728628Y10511906D01*
X77204819Y11416668D02*
X77204819Y12035715D01*
X77204819Y12035715D02*
X77585771Y11702382D01*
X77585771Y11702382D02*
X77585771Y11845239D01*
X77585771Y11845239D02*
X77633390Y11940477D01*
X77633390Y11940477D02*
X77681009Y11988096D01*
X77681009Y11988096D02*
X77776247Y12035715D01*
X77776247Y12035715D02*
X78014342Y12035715D01*
X78014342Y12035715D02*
X78109580Y11988096D01*
X78109580Y11988096D02*
X78157200Y11940477D01*
X78157200Y11940477D02*
X78204819Y11845239D01*
X78204819Y11845239D02*
X78204819Y11559525D01*
X78204819Y11559525D02*
X78157200Y11464287D01*
X78157200Y11464287D02*
X78109580Y11416668D01*
X83681009Y10916667D02*
X83681009Y10583334D01*
X84204819Y10583334D02*
X83204819Y10583334D01*
X83204819Y10583334D02*
X83204819Y11059524D01*
X83681009Y11773810D02*
X83728628Y11916667D01*
X83728628Y11916667D02*
X83776247Y11964286D01*
X83776247Y11964286D02*
X83871485Y12011905D01*
X83871485Y12011905D02*
X84014342Y12011905D01*
X84014342Y12011905D02*
X84109580Y11964286D01*
X84109580Y11964286D02*
X84157200Y11916667D01*
X84157200Y11916667D02*
X84204819Y11821429D01*
X84204819Y11821429D02*
X84204819Y11440477D01*
X84204819Y11440477D02*
X83204819Y11440477D01*
X83204819Y11440477D02*
X83204819Y11773810D01*
X83204819Y11773810D02*
X83252438Y11869048D01*
X83252438Y11869048D02*
X83300057Y11916667D01*
X83300057Y11916667D02*
X83395295Y11964286D01*
X83395295Y11964286D02*
X83490533Y11964286D01*
X83490533Y11964286D02*
X83585771Y11916667D01*
X83585771Y11916667D02*
X83633390Y11869048D01*
X83633390Y11869048D02*
X83681009Y11773810D01*
X83681009Y11773810D02*
X83681009Y11440477D01*
X83538152Y12869048D02*
X84204819Y12869048D01*
X83157200Y12630953D02*
X83871485Y12392858D01*
X83871485Y12392858D02*
X83871485Y13011905D01*
X65761905Y41695181D02*
X65761905Y42695181D01*
X65761905Y42695181D02*
X66000000Y42695181D01*
X66000000Y42695181D02*
X66142857Y42647562D01*
X66142857Y42647562D02*
X66238095Y42552324D01*
X66238095Y42552324D02*
X66285714Y42457086D01*
X66285714Y42457086D02*
X66333333Y42266610D01*
X66333333Y42266610D02*
X66333333Y42123753D01*
X66333333Y42123753D02*
X66285714Y41933277D01*
X66285714Y41933277D02*
X66238095Y41838039D01*
X66238095Y41838039D02*
X66142857Y41742800D01*
X66142857Y41742800D02*
X66000000Y41695181D01*
X66000000Y41695181D02*
X65761905Y41695181D01*
X67285714Y41695181D02*
X66714286Y41695181D01*
X67000000Y41695181D02*
X67000000Y42695181D01*
X67000000Y42695181D02*
X66904762Y42552324D01*
X66904762Y42552324D02*
X66809524Y42457086D01*
X66809524Y42457086D02*
X66714286Y42409467D01*
X36359580Y39357143D02*
X36407200Y39309524D01*
X36407200Y39309524D02*
X36454819Y39166667D01*
X36454819Y39166667D02*
X36454819Y39071429D01*
X36454819Y39071429D02*
X36407200Y38928572D01*
X36407200Y38928572D02*
X36311961Y38833334D01*
X36311961Y38833334D02*
X36216723Y38785715D01*
X36216723Y38785715D02*
X36026247Y38738096D01*
X36026247Y38738096D02*
X35883390Y38738096D01*
X35883390Y38738096D02*
X35692914Y38785715D01*
X35692914Y38785715D02*
X35597676Y38833334D01*
X35597676Y38833334D02*
X35502438Y38928572D01*
X35502438Y38928572D02*
X35454819Y39071429D01*
X35454819Y39071429D02*
X35454819Y39166667D01*
X35454819Y39166667D02*
X35502438Y39309524D01*
X35502438Y39309524D02*
X35550057Y39357143D01*
X35550057Y39738096D02*
X35502438Y39785715D01*
X35502438Y39785715D02*
X35454819Y39880953D01*
X35454819Y39880953D02*
X35454819Y40119048D01*
X35454819Y40119048D02*
X35502438Y40214286D01*
X35502438Y40214286D02*
X35550057Y40261905D01*
X35550057Y40261905D02*
X35645295Y40309524D01*
X35645295Y40309524D02*
X35740533Y40309524D01*
X35740533Y40309524D02*
X35883390Y40261905D01*
X35883390Y40261905D02*
X36454819Y39690477D01*
X36454819Y39690477D02*
X36454819Y40309524D01*
X35454819Y40928572D02*
X35454819Y41023810D01*
X35454819Y41023810D02*
X35502438Y41119048D01*
X35502438Y41119048D02*
X35550057Y41166667D01*
X35550057Y41166667D02*
X35645295Y41214286D01*
X35645295Y41214286D02*
X35835771Y41261905D01*
X35835771Y41261905D02*
X36073866Y41261905D01*
X36073866Y41261905D02*
X36264342Y41214286D01*
X36264342Y41214286D02*
X36359580Y41166667D01*
X36359580Y41166667D02*
X36407200Y41119048D01*
X36407200Y41119048D02*
X36454819Y41023810D01*
X36454819Y41023810D02*
X36454819Y40928572D01*
X36454819Y40928572D02*
X36407200Y40833334D01*
X36407200Y40833334D02*
X36359580Y40785715D01*
X36359580Y40785715D02*
X36264342Y40738096D01*
X36264342Y40738096D02*
X36073866Y40690477D01*
X36073866Y40690477D02*
X35835771Y40690477D01*
X35835771Y40690477D02*
X35645295Y40738096D01*
X35645295Y40738096D02*
X35550057Y40785715D01*
X35550057Y40785715D02*
X35502438Y40833334D01*
X35502438Y40833334D02*
X35454819Y40928572D01*
X81681009Y28166667D02*
X81681009Y27833334D01*
X82204819Y27833334D02*
X81204819Y27833334D01*
X81204819Y27833334D02*
X81204819Y28309524D01*
X81681009Y29023810D02*
X81728628Y29166667D01*
X81728628Y29166667D02*
X81776247Y29214286D01*
X81776247Y29214286D02*
X81871485Y29261905D01*
X81871485Y29261905D02*
X82014342Y29261905D01*
X82014342Y29261905D02*
X82109580Y29214286D01*
X82109580Y29214286D02*
X82157200Y29166667D01*
X82157200Y29166667D02*
X82204819Y29071429D01*
X82204819Y29071429D02*
X82204819Y28690477D01*
X82204819Y28690477D02*
X81204819Y28690477D01*
X81204819Y28690477D02*
X81204819Y29023810D01*
X81204819Y29023810D02*
X81252438Y29119048D01*
X81252438Y29119048D02*
X81300057Y29166667D01*
X81300057Y29166667D02*
X81395295Y29214286D01*
X81395295Y29214286D02*
X81490533Y29214286D01*
X81490533Y29214286D02*
X81585771Y29166667D01*
X81585771Y29166667D02*
X81633390Y29119048D01*
X81633390Y29119048D02*
X81681009Y29023810D01*
X81681009Y29023810D02*
X81681009Y28690477D01*
X81204819Y30166667D02*
X81204819Y29690477D01*
X81204819Y29690477D02*
X81681009Y29642858D01*
X81681009Y29642858D02*
X81633390Y29690477D01*
X81633390Y29690477D02*
X81585771Y29785715D01*
X81585771Y29785715D02*
X81585771Y30023810D01*
X81585771Y30023810D02*
X81633390Y30119048D01*
X81633390Y30119048D02*
X81681009Y30166667D01*
X81681009Y30166667D02*
X81776247Y30214286D01*
X81776247Y30214286D02*
X82014342Y30214286D01*
X82014342Y30214286D02*
X82109580Y30166667D01*
X82109580Y30166667D02*
X82157200Y30119048D01*
X82157200Y30119048D02*
X82204819Y30023810D01*
X82204819Y30023810D02*
X82204819Y29785715D01*
X82204819Y29785715D02*
X82157200Y29690477D01*
X82157200Y29690477D02*
X82109580Y29642858D01*
X18833333Y26390420D02*
X18785714Y26342800D01*
X18785714Y26342800D02*
X18642857Y26295181D01*
X18642857Y26295181D02*
X18547619Y26295181D01*
X18547619Y26295181D02*
X18404762Y26342800D01*
X18404762Y26342800D02*
X18309524Y26438039D01*
X18309524Y26438039D02*
X18261905Y26533277D01*
X18261905Y26533277D02*
X18214286Y26723753D01*
X18214286Y26723753D02*
X18214286Y26866610D01*
X18214286Y26866610D02*
X18261905Y27057086D01*
X18261905Y27057086D02*
X18309524Y27152324D01*
X18309524Y27152324D02*
X18404762Y27247562D01*
X18404762Y27247562D02*
X18547619Y27295181D01*
X18547619Y27295181D02*
X18642857Y27295181D01*
X18642857Y27295181D02*
X18785714Y27247562D01*
X18785714Y27247562D02*
X18833333Y27199943D01*
X19404762Y26866610D02*
X19309524Y26914229D01*
X19309524Y26914229D02*
X19261905Y26961848D01*
X19261905Y26961848D02*
X19214286Y27057086D01*
X19214286Y27057086D02*
X19214286Y27104705D01*
X19214286Y27104705D02*
X19261905Y27199943D01*
X19261905Y27199943D02*
X19309524Y27247562D01*
X19309524Y27247562D02*
X19404762Y27295181D01*
X19404762Y27295181D02*
X19595238Y27295181D01*
X19595238Y27295181D02*
X19690476Y27247562D01*
X19690476Y27247562D02*
X19738095Y27199943D01*
X19738095Y27199943D02*
X19785714Y27104705D01*
X19785714Y27104705D02*
X19785714Y27057086D01*
X19785714Y27057086D02*
X19738095Y26961848D01*
X19738095Y26961848D02*
X19690476Y26914229D01*
X19690476Y26914229D02*
X19595238Y26866610D01*
X19595238Y26866610D02*
X19404762Y26866610D01*
X19404762Y26866610D02*
X19309524Y26818991D01*
X19309524Y26818991D02*
X19261905Y26771372D01*
X19261905Y26771372D02*
X19214286Y26676134D01*
X19214286Y26676134D02*
X19214286Y26485658D01*
X19214286Y26485658D02*
X19261905Y26390420D01*
X19261905Y26390420D02*
X19309524Y26342800D01*
X19309524Y26342800D02*
X19404762Y26295181D01*
X19404762Y26295181D02*
X19595238Y26295181D01*
X19595238Y26295181D02*
X19690476Y26342800D01*
X19690476Y26342800D02*
X19738095Y26390420D01*
X19738095Y26390420D02*
X19785714Y26485658D01*
X19785714Y26485658D02*
X19785714Y26676134D01*
X19785714Y26676134D02*
X19738095Y26771372D01*
X19738095Y26771372D02*
X19690476Y26818991D01*
X19690476Y26818991D02*
X19595238Y26866610D01*
X35666666Y1295181D02*
X35666666Y580896D01*
X35666666Y580896D02*
X35619047Y438039D01*
X35619047Y438039D02*
X35523809Y342800D01*
X35523809Y342800D02*
X35380952Y295181D01*
X35380952Y295181D02*
X35285714Y295181D01*
X36095238Y1199943D02*
X36142857Y1247562D01*
X36142857Y1247562D02*
X36238095Y1295181D01*
X36238095Y1295181D02*
X36476190Y1295181D01*
X36476190Y1295181D02*
X36571428Y1247562D01*
X36571428Y1247562D02*
X36619047Y1199943D01*
X36619047Y1199943D02*
X36666666Y1104705D01*
X36666666Y1104705D02*
X36666666Y1009467D01*
X36666666Y1009467D02*
X36619047Y866610D01*
X36619047Y866610D02*
X36047619Y295181D01*
X36047619Y295181D02*
X36666666Y295181D01*
X32738095Y52795181D02*
X32738095Y51985658D01*
X32738095Y51985658D02*
X32785714Y51890420D01*
X32785714Y51890420D02*
X32833333Y51842800D01*
X32833333Y51842800D02*
X32928571Y51795181D01*
X32928571Y51795181D02*
X33119047Y51795181D01*
X33119047Y51795181D02*
X33214285Y51842800D01*
X33214285Y51842800D02*
X33261904Y51890420D01*
X33261904Y51890420D02*
X33309523Y51985658D01*
X33309523Y51985658D02*
X33309523Y52795181D01*
X33690476Y52795181D02*
X34309523Y52795181D01*
X34309523Y52795181D02*
X33976190Y52414229D01*
X33976190Y52414229D02*
X34119047Y52414229D01*
X34119047Y52414229D02*
X34214285Y52366610D01*
X34214285Y52366610D02*
X34261904Y52318991D01*
X34261904Y52318991D02*
X34309523Y52223753D01*
X34309523Y52223753D02*
X34309523Y51985658D01*
X34309523Y51985658D02*
X34261904Y51890420D01*
X34261904Y51890420D02*
X34214285Y51842800D01*
X34214285Y51842800D02*
X34119047Y51795181D01*
X34119047Y51795181D02*
X33833333Y51795181D01*
X33833333Y51795181D02*
X33738095Y51842800D01*
X33738095Y51842800D02*
X33690476Y51890420D01*
X52833333Y19795181D02*
X52500000Y20271372D01*
X52261905Y19795181D02*
X52261905Y20795181D01*
X52261905Y20795181D02*
X52642857Y20795181D01*
X52642857Y20795181D02*
X52738095Y20747562D01*
X52738095Y20747562D02*
X52785714Y20699943D01*
X52785714Y20699943D02*
X52833333Y20604705D01*
X52833333Y20604705D02*
X52833333Y20461848D01*
X52833333Y20461848D02*
X52785714Y20366610D01*
X52785714Y20366610D02*
X52738095Y20318991D01*
X52738095Y20318991D02*
X52642857Y20271372D01*
X52642857Y20271372D02*
X52261905Y20271372D01*
X53309524Y19795181D02*
X53500000Y19795181D01*
X53500000Y19795181D02*
X53595238Y19842800D01*
X53595238Y19842800D02*
X53642857Y19890420D01*
X53642857Y19890420D02*
X53738095Y20033277D01*
X53738095Y20033277D02*
X53785714Y20223753D01*
X53785714Y20223753D02*
X53785714Y20604705D01*
X53785714Y20604705D02*
X53738095Y20699943D01*
X53738095Y20699943D02*
X53690476Y20747562D01*
X53690476Y20747562D02*
X53595238Y20795181D01*
X53595238Y20795181D02*
X53404762Y20795181D01*
X53404762Y20795181D02*
X53309524Y20747562D01*
X53309524Y20747562D02*
X53261905Y20699943D01*
X53261905Y20699943D02*
X53214286Y20604705D01*
X53214286Y20604705D02*
X53214286Y20366610D01*
X53214286Y20366610D02*
X53261905Y20271372D01*
X53261905Y20271372D02*
X53309524Y20223753D01*
X53309524Y20223753D02*
X53404762Y20176134D01*
X53404762Y20176134D02*
X53595238Y20176134D01*
X53595238Y20176134D02*
X53690476Y20223753D01*
X53690476Y20223753D02*
X53738095Y20271372D01*
X53738095Y20271372D02*
X53785714Y20366610D01*
X36609580Y7107143D02*
X36657200Y7059524D01*
X36657200Y7059524D02*
X36704819Y6916667D01*
X36704819Y6916667D02*
X36704819Y6821429D01*
X36704819Y6821429D02*
X36657200Y6678572D01*
X36657200Y6678572D02*
X36561961Y6583334D01*
X36561961Y6583334D02*
X36466723Y6535715D01*
X36466723Y6535715D02*
X36276247Y6488096D01*
X36276247Y6488096D02*
X36133390Y6488096D01*
X36133390Y6488096D02*
X35942914Y6535715D01*
X35942914Y6535715D02*
X35847676Y6583334D01*
X35847676Y6583334D02*
X35752438Y6678572D01*
X35752438Y6678572D02*
X35704819Y6821429D01*
X35704819Y6821429D02*
X35704819Y6916667D01*
X35704819Y6916667D02*
X35752438Y7059524D01*
X35752438Y7059524D02*
X35800057Y7107143D01*
X36038152Y7964286D02*
X36704819Y7964286D01*
X35657200Y7726191D02*
X36371485Y7488096D01*
X36371485Y7488096D02*
X36371485Y8107143D01*
X36133390Y8630953D02*
X36085771Y8535715D01*
X36085771Y8535715D02*
X36038152Y8488096D01*
X36038152Y8488096D02*
X35942914Y8440477D01*
X35942914Y8440477D02*
X35895295Y8440477D01*
X35895295Y8440477D02*
X35800057Y8488096D01*
X35800057Y8488096D02*
X35752438Y8535715D01*
X35752438Y8535715D02*
X35704819Y8630953D01*
X35704819Y8630953D02*
X35704819Y8821429D01*
X35704819Y8821429D02*
X35752438Y8916667D01*
X35752438Y8916667D02*
X35800057Y8964286D01*
X35800057Y8964286D02*
X35895295Y9011905D01*
X35895295Y9011905D02*
X35942914Y9011905D01*
X35942914Y9011905D02*
X36038152Y8964286D01*
X36038152Y8964286D02*
X36085771Y8916667D01*
X36085771Y8916667D02*
X36133390Y8821429D01*
X36133390Y8821429D02*
X36133390Y8630953D01*
X36133390Y8630953D02*
X36181009Y8535715D01*
X36181009Y8535715D02*
X36228628Y8488096D01*
X36228628Y8488096D02*
X36323866Y8440477D01*
X36323866Y8440477D02*
X36514342Y8440477D01*
X36514342Y8440477D02*
X36609580Y8488096D01*
X36609580Y8488096D02*
X36657200Y8535715D01*
X36657200Y8535715D02*
X36704819Y8630953D01*
X36704819Y8630953D02*
X36704819Y8821429D01*
X36704819Y8821429D02*
X36657200Y8916667D01*
X36657200Y8916667D02*
X36609580Y8964286D01*
X36609580Y8964286D02*
X36514342Y9011905D01*
X36514342Y9011905D02*
X36323866Y9011905D01*
X36323866Y9011905D02*
X36228628Y8964286D01*
X36228628Y8964286D02*
X36181009Y8916667D01*
X36181009Y8916667D02*
X36133390Y8821429D01*
X42204819Y49011906D02*
X41204819Y49011906D01*
X41204819Y49011906D02*
X41204819Y49250001D01*
X41204819Y49250001D02*
X41252438Y49392858D01*
X41252438Y49392858D02*
X41347676Y49488096D01*
X41347676Y49488096D02*
X41442914Y49535715D01*
X41442914Y49535715D02*
X41633390Y49583334D01*
X41633390Y49583334D02*
X41776247Y49583334D01*
X41776247Y49583334D02*
X41966723Y49535715D01*
X41966723Y49535715D02*
X42061961Y49488096D01*
X42061961Y49488096D02*
X42157200Y49392858D01*
X42157200Y49392858D02*
X42204819Y49250001D01*
X42204819Y49250001D02*
X42204819Y49011906D01*
X41300057Y49964287D02*
X41252438Y50011906D01*
X41252438Y50011906D02*
X41204819Y50107144D01*
X41204819Y50107144D02*
X41204819Y50345239D01*
X41204819Y50345239D02*
X41252438Y50440477D01*
X41252438Y50440477D02*
X41300057Y50488096D01*
X41300057Y50488096D02*
X41395295Y50535715D01*
X41395295Y50535715D02*
X41490533Y50535715D01*
X41490533Y50535715D02*
X41633390Y50488096D01*
X41633390Y50488096D02*
X42204819Y49916668D01*
X42204819Y49916668D02*
X42204819Y50535715D01*
X74681009Y10916667D02*
X74681009Y10583334D01*
X75204819Y10583334D02*
X74204819Y10583334D01*
X74204819Y10583334D02*
X74204819Y11059524D01*
X74681009Y11773810D02*
X74728628Y11916667D01*
X74728628Y11916667D02*
X74776247Y11964286D01*
X74776247Y11964286D02*
X74871485Y12011905D01*
X74871485Y12011905D02*
X75014342Y12011905D01*
X75014342Y12011905D02*
X75109580Y11964286D01*
X75109580Y11964286D02*
X75157200Y11916667D01*
X75157200Y11916667D02*
X75204819Y11821429D01*
X75204819Y11821429D02*
X75204819Y11440477D01*
X75204819Y11440477D02*
X74204819Y11440477D01*
X74204819Y11440477D02*
X74204819Y11773810D01*
X74204819Y11773810D02*
X74252438Y11869048D01*
X74252438Y11869048D02*
X74300057Y11916667D01*
X74300057Y11916667D02*
X74395295Y11964286D01*
X74395295Y11964286D02*
X74490533Y11964286D01*
X74490533Y11964286D02*
X74585771Y11916667D01*
X74585771Y11916667D02*
X74633390Y11869048D01*
X74633390Y11869048D02*
X74681009Y11773810D01*
X74681009Y11773810D02*
X74681009Y11440477D01*
X74204819Y12345239D02*
X74204819Y12964286D01*
X74204819Y12964286D02*
X74585771Y12630953D01*
X74585771Y12630953D02*
X74585771Y12773810D01*
X74585771Y12773810D02*
X74633390Y12869048D01*
X74633390Y12869048D02*
X74681009Y12916667D01*
X74681009Y12916667D02*
X74776247Y12964286D01*
X74776247Y12964286D02*
X75014342Y12964286D01*
X75014342Y12964286D02*
X75109580Y12916667D01*
X75109580Y12916667D02*
X75157200Y12869048D01*
X75157200Y12869048D02*
X75204819Y12773810D01*
X75204819Y12773810D02*
X75204819Y12488096D01*
X75204819Y12488096D02*
X75157200Y12392858D01*
X75157200Y12392858D02*
X75109580Y12345239D01*
X36359580Y50107143D02*
X36407200Y50059524D01*
X36407200Y50059524D02*
X36454819Y49916667D01*
X36454819Y49916667D02*
X36454819Y49821429D01*
X36454819Y49821429D02*
X36407200Y49678572D01*
X36407200Y49678572D02*
X36311961Y49583334D01*
X36311961Y49583334D02*
X36216723Y49535715D01*
X36216723Y49535715D02*
X36026247Y49488096D01*
X36026247Y49488096D02*
X35883390Y49488096D01*
X35883390Y49488096D02*
X35692914Y49535715D01*
X35692914Y49535715D02*
X35597676Y49583334D01*
X35597676Y49583334D02*
X35502438Y49678572D01*
X35502438Y49678572D02*
X35454819Y49821429D01*
X35454819Y49821429D02*
X35454819Y49916667D01*
X35454819Y49916667D02*
X35502438Y50059524D01*
X35502438Y50059524D02*
X35550057Y50107143D01*
X35454819Y50440477D02*
X35454819Y51059524D01*
X35454819Y51059524D02*
X35835771Y50726191D01*
X35835771Y50726191D02*
X35835771Y50869048D01*
X35835771Y50869048D02*
X35883390Y50964286D01*
X35883390Y50964286D02*
X35931009Y51011905D01*
X35931009Y51011905D02*
X36026247Y51059524D01*
X36026247Y51059524D02*
X36264342Y51059524D01*
X36264342Y51059524D02*
X36359580Y51011905D01*
X36359580Y51011905D02*
X36407200Y50964286D01*
X36407200Y50964286D02*
X36454819Y50869048D01*
X36454819Y50869048D02*
X36454819Y50583334D01*
X36454819Y50583334D02*
X36407200Y50488096D01*
X36407200Y50488096D02*
X36359580Y50440477D01*
X35454819Y51392858D02*
X35454819Y52059524D01*
X35454819Y52059524D02*
X36454819Y51630953D01*
X18359580Y49857143D02*
X18407200Y49809524D01*
X18407200Y49809524D02*
X18454819Y49666667D01*
X18454819Y49666667D02*
X18454819Y49571429D01*
X18454819Y49571429D02*
X18407200Y49428572D01*
X18407200Y49428572D02*
X18311961Y49333334D01*
X18311961Y49333334D02*
X18216723Y49285715D01*
X18216723Y49285715D02*
X18026247Y49238096D01*
X18026247Y49238096D02*
X17883390Y49238096D01*
X17883390Y49238096D02*
X17692914Y49285715D01*
X17692914Y49285715D02*
X17597676Y49333334D01*
X17597676Y49333334D02*
X17502438Y49428572D01*
X17502438Y49428572D02*
X17454819Y49571429D01*
X17454819Y49571429D02*
X17454819Y49666667D01*
X17454819Y49666667D02*
X17502438Y49809524D01*
X17502438Y49809524D02*
X17550057Y49857143D01*
X17454819Y50190477D02*
X17454819Y50809524D01*
X17454819Y50809524D02*
X17835771Y50476191D01*
X17835771Y50476191D02*
X17835771Y50619048D01*
X17835771Y50619048D02*
X17883390Y50714286D01*
X17883390Y50714286D02*
X17931009Y50761905D01*
X17931009Y50761905D02*
X18026247Y50809524D01*
X18026247Y50809524D02*
X18264342Y50809524D01*
X18264342Y50809524D02*
X18359580Y50761905D01*
X18359580Y50761905D02*
X18407200Y50714286D01*
X18407200Y50714286D02*
X18454819Y50619048D01*
X18454819Y50619048D02*
X18454819Y50333334D01*
X18454819Y50333334D02*
X18407200Y50238096D01*
X18407200Y50238096D02*
X18359580Y50190477D01*
X18454819Y51285715D02*
X18454819Y51476191D01*
X18454819Y51476191D02*
X18407200Y51571429D01*
X18407200Y51571429D02*
X18359580Y51619048D01*
X18359580Y51619048D02*
X18216723Y51714286D01*
X18216723Y51714286D02*
X18026247Y51761905D01*
X18026247Y51761905D02*
X17645295Y51761905D01*
X17645295Y51761905D02*
X17550057Y51714286D01*
X17550057Y51714286D02*
X17502438Y51666667D01*
X17502438Y51666667D02*
X17454819Y51571429D01*
X17454819Y51571429D02*
X17454819Y51380953D01*
X17454819Y51380953D02*
X17502438Y51285715D01*
X17502438Y51285715D02*
X17550057Y51238096D01*
X17550057Y51238096D02*
X17645295Y51190477D01*
X17645295Y51190477D02*
X17883390Y51190477D01*
X17883390Y51190477D02*
X17978628Y51238096D01*
X17978628Y51238096D02*
X18026247Y51285715D01*
X18026247Y51285715D02*
X18073866Y51380953D01*
X18073866Y51380953D02*
X18073866Y51571429D01*
X18073866Y51571429D02*
X18026247Y51666667D01*
X18026247Y51666667D02*
X17978628Y51714286D01*
X17978628Y51714286D02*
X17883390Y51761905D01*
X19083333Y21640420D02*
X19035714Y21592800D01*
X19035714Y21592800D02*
X18892857Y21545181D01*
X18892857Y21545181D02*
X18797619Y21545181D01*
X18797619Y21545181D02*
X18654762Y21592800D01*
X18654762Y21592800D02*
X18559524Y21688039D01*
X18559524Y21688039D02*
X18511905Y21783277D01*
X18511905Y21783277D02*
X18464286Y21973753D01*
X18464286Y21973753D02*
X18464286Y22116610D01*
X18464286Y22116610D02*
X18511905Y22307086D01*
X18511905Y22307086D02*
X18559524Y22402324D01*
X18559524Y22402324D02*
X18654762Y22497562D01*
X18654762Y22497562D02*
X18797619Y22545181D01*
X18797619Y22545181D02*
X18892857Y22545181D01*
X18892857Y22545181D02*
X19035714Y22497562D01*
X19035714Y22497562D02*
X19083333Y22449943D01*
X19940476Y22211848D02*
X19940476Y21545181D01*
X19702381Y22592800D02*
X19464286Y21878515D01*
X19464286Y21878515D02*
X20083333Y21878515D01*
X33261905Y9295181D02*
X33261905Y10295181D01*
X33261905Y10295181D02*
X33500000Y10295181D01*
X33500000Y10295181D02*
X33642857Y10247562D01*
X33642857Y10247562D02*
X33738095Y10152324D01*
X33738095Y10152324D02*
X33785714Y10057086D01*
X33785714Y10057086D02*
X33833333Y9866610D01*
X33833333Y9866610D02*
X33833333Y9723753D01*
X33833333Y9723753D02*
X33785714Y9533277D01*
X33785714Y9533277D02*
X33738095Y9438039D01*
X33738095Y9438039D02*
X33642857Y9342800D01*
X33642857Y9342800D02*
X33500000Y9295181D01*
X33500000Y9295181D02*
X33261905Y9295181D01*
X34166667Y10295181D02*
X34785714Y10295181D01*
X34785714Y10295181D02*
X34452381Y9914229D01*
X34452381Y9914229D02*
X34595238Y9914229D01*
X34595238Y9914229D02*
X34690476Y9866610D01*
X34690476Y9866610D02*
X34738095Y9818991D01*
X34738095Y9818991D02*
X34785714Y9723753D01*
X34785714Y9723753D02*
X34785714Y9485658D01*
X34785714Y9485658D02*
X34738095Y9390420D01*
X34738095Y9390420D02*
X34690476Y9342800D01*
X34690476Y9342800D02*
X34595238Y9295181D01*
X34595238Y9295181D02*
X34309524Y9295181D01*
X34309524Y9295181D02*
X34214286Y9342800D01*
X34214286Y9342800D02*
X34166667Y9390420D01*
X7336666Y6295181D02*
X7336666Y5580896D01*
X7336666Y5580896D02*
X7289047Y5438039D01*
X7289047Y5438039D02*
X7193809Y5342800D01*
X7193809Y5342800D02*
X7050952Y5295181D01*
X7050952Y5295181D02*
X6955714Y5295181D01*
X7717619Y6295181D02*
X8384285Y6295181D01*
X8384285Y6295181D02*
X7955714Y5295181D01*
X73181009Y10916667D02*
X73181009Y10583334D01*
X73704819Y10583334D02*
X72704819Y10583334D01*
X72704819Y10583334D02*
X72704819Y11059524D01*
X73181009Y11773810D02*
X73228628Y11916667D01*
X73228628Y11916667D02*
X73276247Y11964286D01*
X73276247Y11964286D02*
X73371485Y12011905D01*
X73371485Y12011905D02*
X73514342Y12011905D01*
X73514342Y12011905D02*
X73609580Y11964286D01*
X73609580Y11964286D02*
X73657200Y11916667D01*
X73657200Y11916667D02*
X73704819Y11821429D01*
X73704819Y11821429D02*
X73704819Y11440477D01*
X73704819Y11440477D02*
X72704819Y11440477D01*
X72704819Y11440477D02*
X72704819Y11773810D01*
X72704819Y11773810D02*
X72752438Y11869048D01*
X72752438Y11869048D02*
X72800057Y11916667D01*
X72800057Y11916667D02*
X72895295Y11964286D01*
X72895295Y11964286D02*
X72990533Y11964286D01*
X72990533Y11964286D02*
X73085771Y11916667D01*
X73085771Y11916667D02*
X73133390Y11869048D01*
X73133390Y11869048D02*
X73181009Y11773810D01*
X73181009Y11773810D02*
X73181009Y11440477D01*
X73704819Y12964286D02*
X73704819Y12392858D01*
X73704819Y12678572D02*
X72704819Y12678572D01*
X72704819Y12678572D02*
X72847676Y12583334D01*
X72847676Y12583334D02*
X72942914Y12488096D01*
X72942914Y12488096D02*
X72990533Y12392858D01*
X80609580Y28357143D02*
X80657200Y28309524D01*
X80657200Y28309524D02*
X80704819Y28166667D01*
X80704819Y28166667D02*
X80704819Y28071429D01*
X80704819Y28071429D02*
X80657200Y27928572D01*
X80657200Y27928572D02*
X80561961Y27833334D01*
X80561961Y27833334D02*
X80466723Y27785715D01*
X80466723Y27785715D02*
X80276247Y27738096D01*
X80276247Y27738096D02*
X80133390Y27738096D01*
X80133390Y27738096D02*
X79942914Y27785715D01*
X79942914Y27785715D02*
X79847676Y27833334D01*
X79847676Y27833334D02*
X79752438Y27928572D01*
X79752438Y27928572D02*
X79704819Y28071429D01*
X79704819Y28071429D02*
X79704819Y28166667D01*
X79704819Y28166667D02*
X79752438Y28309524D01*
X79752438Y28309524D02*
X79800057Y28357143D01*
X79800057Y28738096D02*
X79752438Y28785715D01*
X79752438Y28785715D02*
X79704819Y28880953D01*
X79704819Y28880953D02*
X79704819Y29119048D01*
X79704819Y29119048D02*
X79752438Y29214286D01*
X79752438Y29214286D02*
X79800057Y29261905D01*
X79800057Y29261905D02*
X79895295Y29309524D01*
X79895295Y29309524D02*
X79990533Y29309524D01*
X79990533Y29309524D02*
X80133390Y29261905D01*
X80133390Y29261905D02*
X80704819Y28690477D01*
X80704819Y28690477D02*
X80704819Y29309524D01*
X79704819Y29642858D02*
X79704819Y30261905D01*
X79704819Y30261905D02*
X80085771Y29928572D01*
X80085771Y29928572D02*
X80085771Y30071429D01*
X80085771Y30071429D02*
X80133390Y30166667D01*
X80133390Y30166667D02*
X80181009Y30214286D01*
X80181009Y30214286D02*
X80276247Y30261905D01*
X80276247Y30261905D02*
X80514342Y30261905D01*
X80514342Y30261905D02*
X80609580Y30214286D01*
X80609580Y30214286D02*
X80657200Y30166667D01*
X80657200Y30166667D02*
X80704819Y30071429D01*
X80704819Y30071429D02*
X80704819Y29785715D01*
X80704819Y29785715D02*
X80657200Y29690477D01*
X80657200Y29690477D02*
X80609580Y29642858D01*
X31859580Y42357143D02*
X31907200Y42309524D01*
X31907200Y42309524D02*
X31954819Y42166667D01*
X31954819Y42166667D02*
X31954819Y42071429D01*
X31954819Y42071429D02*
X31907200Y41928572D01*
X31907200Y41928572D02*
X31811961Y41833334D01*
X31811961Y41833334D02*
X31716723Y41785715D01*
X31716723Y41785715D02*
X31526247Y41738096D01*
X31526247Y41738096D02*
X31383390Y41738096D01*
X31383390Y41738096D02*
X31192914Y41785715D01*
X31192914Y41785715D02*
X31097676Y41833334D01*
X31097676Y41833334D02*
X31002438Y41928572D01*
X31002438Y41928572D02*
X30954819Y42071429D01*
X30954819Y42071429D02*
X30954819Y42166667D01*
X30954819Y42166667D02*
X31002438Y42309524D01*
X31002438Y42309524D02*
X31050057Y42357143D01*
X30954819Y42690477D02*
X30954819Y43309524D01*
X30954819Y43309524D02*
X31335771Y42976191D01*
X31335771Y42976191D02*
X31335771Y43119048D01*
X31335771Y43119048D02*
X31383390Y43214286D01*
X31383390Y43214286D02*
X31431009Y43261905D01*
X31431009Y43261905D02*
X31526247Y43309524D01*
X31526247Y43309524D02*
X31764342Y43309524D01*
X31764342Y43309524D02*
X31859580Y43261905D01*
X31859580Y43261905D02*
X31907200Y43214286D01*
X31907200Y43214286D02*
X31954819Y43119048D01*
X31954819Y43119048D02*
X31954819Y42833334D01*
X31954819Y42833334D02*
X31907200Y42738096D01*
X31907200Y42738096D02*
X31859580Y42690477D01*
X30954819Y44166667D02*
X30954819Y43976191D01*
X30954819Y43976191D02*
X31002438Y43880953D01*
X31002438Y43880953D02*
X31050057Y43833334D01*
X31050057Y43833334D02*
X31192914Y43738096D01*
X31192914Y43738096D02*
X31383390Y43690477D01*
X31383390Y43690477D02*
X31764342Y43690477D01*
X31764342Y43690477D02*
X31859580Y43738096D01*
X31859580Y43738096D02*
X31907200Y43785715D01*
X31907200Y43785715D02*
X31954819Y43880953D01*
X31954819Y43880953D02*
X31954819Y44071429D01*
X31954819Y44071429D02*
X31907200Y44166667D01*
X31907200Y44166667D02*
X31859580Y44214286D01*
X31859580Y44214286D02*
X31764342Y44261905D01*
X31764342Y44261905D02*
X31526247Y44261905D01*
X31526247Y44261905D02*
X31431009Y44214286D01*
X31431009Y44214286D02*
X31383390Y44166667D01*
X31383390Y44166667D02*
X31335771Y44071429D01*
X31335771Y44071429D02*
X31335771Y43880953D01*
X31335771Y43880953D02*
X31383390Y43785715D01*
X31383390Y43785715D02*
X31431009Y43738096D01*
X31431009Y43738096D02*
X31526247Y43690477D01*
X22009580Y9107143D02*
X22057200Y9059524D01*
X22057200Y9059524D02*
X22104819Y8916667D01*
X22104819Y8916667D02*
X22104819Y8821429D01*
X22104819Y8821429D02*
X22057200Y8678572D01*
X22057200Y8678572D02*
X21961961Y8583334D01*
X21961961Y8583334D02*
X21866723Y8535715D01*
X21866723Y8535715D02*
X21676247Y8488096D01*
X21676247Y8488096D02*
X21533390Y8488096D01*
X21533390Y8488096D02*
X21342914Y8535715D01*
X21342914Y8535715D02*
X21247676Y8583334D01*
X21247676Y8583334D02*
X21152438Y8678572D01*
X21152438Y8678572D02*
X21104819Y8821429D01*
X21104819Y8821429D02*
X21104819Y8916667D01*
X21104819Y8916667D02*
X21152438Y9059524D01*
X21152438Y9059524D02*
X21200057Y9107143D01*
X21104819Y9440477D02*
X21104819Y10059524D01*
X21104819Y10059524D02*
X21485771Y9726191D01*
X21485771Y9726191D02*
X21485771Y9869048D01*
X21485771Y9869048D02*
X21533390Y9964286D01*
X21533390Y9964286D02*
X21581009Y10011905D01*
X21581009Y10011905D02*
X21676247Y10059524D01*
X21676247Y10059524D02*
X21914342Y10059524D01*
X21914342Y10059524D02*
X22009580Y10011905D01*
X22009580Y10011905D02*
X22057200Y9964286D01*
X22057200Y9964286D02*
X22104819Y9869048D01*
X22104819Y9869048D02*
X22104819Y9583334D01*
X22104819Y9583334D02*
X22057200Y9488096D01*
X22057200Y9488096D02*
X22009580Y9440477D01*
X22104819Y11011905D02*
X22104819Y10440477D01*
X22104819Y10726191D02*
X21104819Y10726191D01*
X21104819Y10726191D02*
X21247676Y10630953D01*
X21247676Y10630953D02*
X21342914Y10535715D01*
X21342914Y10535715D02*
X21390533Y10440477D01*
X36954819Y15857143D02*
X36478628Y15523810D01*
X36954819Y15285715D02*
X35954819Y15285715D01*
X35954819Y15285715D02*
X35954819Y15666667D01*
X35954819Y15666667D02*
X36002438Y15761905D01*
X36002438Y15761905D02*
X36050057Y15809524D01*
X36050057Y15809524D02*
X36145295Y15857143D01*
X36145295Y15857143D02*
X36288152Y15857143D01*
X36288152Y15857143D02*
X36383390Y15809524D01*
X36383390Y15809524D02*
X36431009Y15761905D01*
X36431009Y15761905D02*
X36478628Y15666667D01*
X36478628Y15666667D02*
X36478628Y15285715D01*
X36954819Y16809524D02*
X36954819Y16238096D01*
X36954819Y16523810D02*
X35954819Y16523810D01*
X35954819Y16523810D02*
X36097676Y16428572D01*
X36097676Y16428572D02*
X36192914Y16333334D01*
X36192914Y16333334D02*
X36240533Y16238096D01*
X36050057Y17190477D02*
X36002438Y17238096D01*
X36002438Y17238096D02*
X35954819Y17333334D01*
X35954819Y17333334D02*
X35954819Y17571429D01*
X35954819Y17571429D02*
X36002438Y17666667D01*
X36002438Y17666667D02*
X36050057Y17714286D01*
X36050057Y17714286D02*
X36145295Y17761905D01*
X36145295Y17761905D02*
X36240533Y17761905D01*
X36240533Y17761905D02*
X36383390Y17714286D01*
X36383390Y17714286D02*
X36954819Y17142858D01*
X36954819Y17142858D02*
X36954819Y17761905D01*
X52607142Y22140420D02*
X52559523Y22092800D01*
X52559523Y22092800D02*
X52416666Y22045181D01*
X52416666Y22045181D02*
X52321428Y22045181D01*
X52321428Y22045181D02*
X52178571Y22092800D01*
X52178571Y22092800D02*
X52083333Y22188039D01*
X52083333Y22188039D02*
X52035714Y22283277D01*
X52035714Y22283277D02*
X51988095Y22473753D01*
X51988095Y22473753D02*
X51988095Y22616610D01*
X51988095Y22616610D02*
X52035714Y22807086D01*
X52035714Y22807086D02*
X52083333Y22902324D01*
X52083333Y22902324D02*
X52178571Y22997562D01*
X52178571Y22997562D02*
X52321428Y23045181D01*
X52321428Y23045181D02*
X52416666Y23045181D01*
X52416666Y23045181D02*
X52559523Y22997562D01*
X52559523Y22997562D02*
X52607142Y22949943D01*
X53559523Y22045181D02*
X52988095Y22045181D01*
X53273809Y22045181D02*
X53273809Y23045181D01*
X53273809Y23045181D02*
X53178571Y22902324D01*
X53178571Y22902324D02*
X53083333Y22807086D01*
X53083333Y22807086D02*
X52988095Y22759467D01*
X53892857Y23045181D02*
X54559523Y23045181D01*
X54559523Y23045181D02*
X54130952Y22045181D01*
X50523810Y29545181D02*
X50523810Y30545181D01*
X51571428Y29640420D02*
X51523809Y29592800D01*
X51523809Y29592800D02*
X51380952Y29545181D01*
X51380952Y29545181D02*
X51285714Y29545181D01*
X51285714Y29545181D02*
X51142857Y29592800D01*
X51142857Y29592800D02*
X51047619Y29688039D01*
X51047619Y29688039D02*
X51000000Y29783277D01*
X51000000Y29783277D02*
X50952381Y29973753D01*
X50952381Y29973753D02*
X50952381Y30116610D01*
X50952381Y30116610D02*
X51000000Y30307086D01*
X51000000Y30307086D02*
X51047619Y30402324D01*
X51047619Y30402324D02*
X51142857Y30497562D01*
X51142857Y30497562D02*
X51285714Y30545181D01*
X51285714Y30545181D02*
X51380952Y30545181D01*
X51380952Y30545181D02*
X51523809Y30497562D01*
X51523809Y30497562D02*
X51571428Y30449943D01*
X51904762Y30545181D02*
X52523809Y30545181D01*
X52523809Y30545181D02*
X52190476Y30164229D01*
X52190476Y30164229D02*
X52333333Y30164229D01*
X52333333Y30164229D02*
X52428571Y30116610D01*
X52428571Y30116610D02*
X52476190Y30068991D01*
X52476190Y30068991D02*
X52523809Y29973753D01*
X52523809Y29973753D02*
X52523809Y29735658D01*
X52523809Y29735658D02*
X52476190Y29640420D01*
X52476190Y29640420D02*
X52428571Y29592800D01*
X52428571Y29592800D02*
X52333333Y29545181D01*
X52333333Y29545181D02*
X52047619Y29545181D01*
X52047619Y29545181D02*
X51952381Y29592800D01*
X51952381Y29592800D02*
X51904762Y29640420D01*
X40704819Y15857143D02*
X40228628Y15523810D01*
X40704819Y15285715D02*
X39704819Y15285715D01*
X39704819Y15285715D02*
X39704819Y15666667D01*
X39704819Y15666667D02*
X39752438Y15761905D01*
X39752438Y15761905D02*
X39800057Y15809524D01*
X39800057Y15809524D02*
X39895295Y15857143D01*
X39895295Y15857143D02*
X40038152Y15857143D01*
X40038152Y15857143D02*
X40133390Y15809524D01*
X40133390Y15809524D02*
X40181009Y15761905D01*
X40181009Y15761905D02*
X40228628Y15666667D01*
X40228628Y15666667D02*
X40228628Y15285715D01*
X40704819Y16809524D02*
X40704819Y16238096D01*
X40704819Y16523810D02*
X39704819Y16523810D01*
X39704819Y16523810D02*
X39847676Y16428572D01*
X39847676Y16428572D02*
X39942914Y16333334D01*
X39942914Y16333334D02*
X39990533Y16238096D01*
X39704819Y17714286D02*
X39704819Y17238096D01*
X39704819Y17238096D02*
X40181009Y17190477D01*
X40181009Y17190477D02*
X40133390Y17238096D01*
X40133390Y17238096D02*
X40085771Y17333334D01*
X40085771Y17333334D02*
X40085771Y17571429D01*
X40085771Y17571429D02*
X40133390Y17666667D01*
X40133390Y17666667D02*
X40181009Y17714286D01*
X40181009Y17714286D02*
X40276247Y17761905D01*
X40276247Y17761905D02*
X40514342Y17761905D01*
X40514342Y17761905D02*
X40609580Y17714286D01*
X40609580Y17714286D02*
X40657200Y17666667D01*
X40657200Y17666667D02*
X40704819Y17571429D01*
X40704819Y17571429D02*
X40704819Y17333334D01*
X40704819Y17333334D02*
X40657200Y17238096D01*
X40657200Y17238096D02*
X40609580Y17190477D01*
X74609580Y36607143D02*
X74657200Y36559524D01*
X74657200Y36559524D02*
X74704819Y36416667D01*
X74704819Y36416667D02*
X74704819Y36321429D01*
X74704819Y36321429D02*
X74657200Y36178572D01*
X74657200Y36178572D02*
X74561961Y36083334D01*
X74561961Y36083334D02*
X74466723Y36035715D01*
X74466723Y36035715D02*
X74276247Y35988096D01*
X74276247Y35988096D02*
X74133390Y35988096D01*
X74133390Y35988096D02*
X73942914Y36035715D01*
X73942914Y36035715D02*
X73847676Y36083334D01*
X73847676Y36083334D02*
X73752438Y36178572D01*
X73752438Y36178572D02*
X73704819Y36321429D01*
X73704819Y36321429D02*
X73704819Y36416667D01*
X73704819Y36416667D02*
X73752438Y36559524D01*
X73752438Y36559524D02*
X73800057Y36607143D01*
X74704819Y37559524D02*
X74704819Y36988096D01*
X74704819Y37273810D02*
X73704819Y37273810D01*
X73704819Y37273810D02*
X73847676Y37178572D01*
X73847676Y37178572D02*
X73942914Y37083334D01*
X73942914Y37083334D02*
X73990533Y36988096D01*
X73704819Y38178572D02*
X73704819Y38273810D01*
X73704819Y38273810D02*
X73752438Y38369048D01*
X73752438Y38369048D02*
X73800057Y38416667D01*
X73800057Y38416667D02*
X73895295Y38464286D01*
X73895295Y38464286D02*
X74085771Y38511905D01*
X74085771Y38511905D02*
X74323866Y38511905D01*
X74323866Y38511905D02*
X74514342Y38464286D01*
X74514342Y38464286D02*
X74609580Y38416667D01*
X74609580Y38416667D02*
X74657200Y38369048D01*
X74657200Y38369048D02*
X74704819Y38273810D01*
X74704819Y38273810D02*
X74704819Y38178572D01*
X74704819Y38178572D02*
X74657200Y38083334D01*
X74657200Y38083334D02*
X74609580Y38035715D01*
X74609580Y38035715D02*
X74514342Y37988096D01*
X74514342Y37988096D02*
X74323866Y37940477D01*
X74323866Y37940477D02*
X74085771Y37940477D01*
X74085771Y37940477D02*
X73895295Y37988096D01*
X73895295Y37988096D02*
X73800057Y38035715D01*
X73800057Y38035715D02*
X73752438Y38083334D01*
X73752438Y38083334D02*
X73704819Y38178572D01*
X80359580Y36583334D02*
X80407200Y36535715D01*
X80407200Y36535715D02*
X80454819Y36392858D01*
X80454819Y36392858D02*
X80454819Y36297620D01*
X80454819Y36297620D02*
X80407200Y36154763D01*
X80407200Y36154763D02*
X80311961Y36059525D01*
X80311961Y36059525D02*
X80216723Y36011906D01*
X80216723Y36011906D02*
X80026247Y35964287D01*
X80026247Y35964287D02*
X79883390Y35964287D01*
X79883390Y35964287D02*
X79692914Y36011906D01*
X79692914Y36011906D02*
X79597676Y36059525D01*
X79597676Y36059525D02*
X79502438Y36154763D01*
X79502438Y36154763D02*
X79454819Y36297620D01*
X79454819Y36297620D02*
X79454819Y36392858D01*
X79454819Y36392858D02*
X79502438Y36535715D01*
X79502438Y36535715D02*
X79550057Y36583334D01*
X79454819Y37488096D02*
X79454819Y37011906D01*
X79454819Y37011906D02*
X79931009Y36964287D01*
X79931009Y36964287D02*
X79883390Y37011906D01*
X79883390Y37011906D02*
X79835771Y37107144D01*
X79835771Y37107144D02*
X79835771Y37345239D01*
X79835771Y37345239D02*
X79883390Y37440477D01*
X79883390Y37440477D02*
X79931009Y37488096D01*
X79931009Y37488096D02*
X80026247Y37535715D01*
X80026247Y37535715D02*
X80264342Y37535715D01*
X80264342Y37535715D02*
X80359580Y37488096D01*
X80359580Y37488096D02*
X80407200Y37440477D01*
X80407200Y37440477D02*
X80454819Y37345239D01*
X80454819Y37345239D02*
X80454819Y37107144D01*
X80454819Y37107144D02*
X80407200Y37011906D01*
X80407200Y37011906D02*
X80359580Y36964287D01*
D11*
X20510237Y45925682D02*
X20510237Y47195682D01*
X21840714Y46046635D02*
X21780238Y45986158D01*
X21780238Y45986158D02*
X21598809Y45925682D01*
X21598809Y45925682D02*
X21477857Y45925682D01*
X21477857Y45925682D02*
X21296428Y45986158D01*
X21296428Y45986158D02*
X21175476Y46107111D01*
X21175476Y46107111D02*
X21114999Y46228063D01*
X21114999Y46228063D02*
X21054523Y46469968D01*
X21054523Y46469968D02*
X21054523Y46651397D01*
X21054523Y46651397D02*
X21114999Y46893301D01*
X21114999Y46893301D02*
X21175476Y47014254D01*
X21175476Y47014254D02*
X21296428Y47135206D01*
X21296428Y47135206D02*
X21477857Y47195682D01*
X21477857Y47195682D02*
X21598809Y47195682D01*
X21598809Y47195682D02*
X21780238Y47135206D01*
X21780238Y47135206D02*
X21840714Y47074730D01*
X23050238Y45925682D02*
X22324523Y45925682D01*
X22687380Y45925682D02*
X22687380Y47195682D01*
X22687380Y47195682D02*
X22566428Y47014254D01*
X22566428Y47014254D02*
X22445476Y46893301D01*
X22445476Y46893301D02*
X22324523Y46832825D01*
X23145238Y38780444D02*
X23145238Y38175682D01*
X22721905Y39445682D02*
X23145238Y38780444D01*
X23145238Y38780444D02*
X23568572Y39445682D01*
X24657143Y38175682D02*
X23931428Y38175682D01*
X24294285Y38175682D02*
X24294285Y39445682D01*
X24294285Y39445682D02*
X24173333Y39264254D01*
X24173333Y39264254D02*
X24052381Y39143301D01*
X24052381Y39143301D02*
X23931428Y39082825D01*
D10*
X76109580Y36607143D02*
X76157200Y36559524D01*
X76157200Y36559524D02*
X76204819Y36416667D01*
X76204819Y36416667D02*
X76204819Y36321429D01*
X76204819Y36321429D02*
X76157200Y36178572D01*
X76157200Y36178572D02*
X76061961Y36083334D01*
X76061961Y36083334D02*
X75966723Y36035715D01*
X75966723Y36035715D02*
X75776247Y35988096D01*
X75776247Y35988096D02*
X75633390Y35988096D01*
X75633390Y35988096D02*
X75442914Y36035715D01*
X75442914Y36035715D02*
X75347676Y36083334D01*
X75347676Y36083334D02*
X75252438Y36178572D01*
X75252438Y36178572D02*
X75204819Y36321429D01*
X75204819Y36321429D02*
X75204819Y36416667D01*
X75204819Y36416667D02*
X75252438Y36559524D01*
X75252438Y36559524D02*
X75300057Y36607143D01*
X76204819Y37559524D02*
X76204819Y36988096D01*
X76204819Y37273810D02*
X75204819Y37273810D01*
X75204819Y37273810D02*
X75347676Y37178572D01*
X75347676Y37178572D02*
X75442914Y37083334D01*
X75442914Y37083334D02*
X75490533Y36988096D01*
X76204819Y38511905D02*
X76204819Y37940477D01*
X76204819Y38226191D02*
X75204819Y38226191D01*
X75204819Y38226191D02*
X75347676Y38130953D01*
X75347676Y38130953D02*
X75442914Y38035715D01*
X75442914Y38035715D02*
X75490533Y37940477D01*
X61872493Y52880181D02*
X61872493Y52165896D01*
X61872493Y52165896D02*
X61824874Y52023039D01*
X61824874Y52023039D02*
X61729636Y51927800D01*
X61729636Y51927800D02*
X61586779Y51880181D01*
X61586779Y51880181D02*
X61491541Y51880181D01*
X62872493Y51880181D02*
X62301065Y51880181D01*
X62586779Y51880181D02*
X62586779Y52880181D01*
X62586779Y52880181D02*
X62491541Y52737324D01*
X62491541Y52737324D02*
X62396303Y52642086D01*
X62396303Y52642086D02*
X62301065Y52594467D01*
X77609580Y36583334D02*
X77657200Y36535715D01*
X77657200Y36535715D02*
X77704819Y36392858D01*
X77704819Y36392858D02*
X77704819Y36297620D01*
X77704819Y36297620D02*
X77657200Y36154763D01*
X77657200Y36154763D02*
X77561961Y36059525D01*
X77561961Y36059525D02*
X77466723Y36011906D01*
X77466723Y36011906D02*
X77276247Y35964287D01*
X77276247Y35964287D02*
X77133390Y35964287D01*
X77133390Y35964287D02*
X76942914Y36011906D01*
X76942914Y36011906D02*
X76847676Y36059525D01*
X76847676Y36059525D02*
X76752438Y36154763D01*
X76752438Y36154763D02*
X76704819Y36297620D01*
X76704819Y36297620D02*
X76704819Y36392858D01*
X76704819Y36392858D02*
X76752438Y36535715D01*
X76752438Y36535715D02*
X76800057Y36583334D01*
X76704819Y37440477D02*
X76704819Y37250001D01*
X76704819Y37250001D02*
X76752438Y37154763D01*
X76752438Y37154763D02*
X76800057Y37107144D01*
X76800057Y37107144D02*
X76942914Y37011906D01*
X76942914Y37011906D02*
X77133390Y36964287D01*
X77133390Y36964287D02*
X77514342Y36964287D01*
X77514342Y36964287D02*
X77609580Y37011906D01*
X77609580Y37011906D02*
X77657200Y37059525D01*
X77657200Y37059525D02*
X77704819Y37154763D01*
X77704819Y37154763D02*
X77704819Y37345239D01*
X77704819Y37345239D02*
X77657200Y37440477D01*
X77657200Y37440477D02*
X77609580Y37488096D01*
X77609580Y37488096D02*
X77514342Y37535715D01*
X77514342Y37535715D02*
X77276247Y37535715D01*
X77276247Y37535715D02*
X77181009Y37488096D01*
X77181009Y37488096D02*
X77133390Y37440477D01*
X77133390Y37440477D02*
X77085771Y37345239D01*
X77085771Y37345239D02*
X77085771Y37154763D01*
X77085771Y37154763D02*
X77133390Y37059525D01*
X77133390Y37059525D02*
X77181009Y37011906D01*
X77181009Y37011906D02*
X77276247Y36964287D01*
X74238095Y42045181D02*
X74238095Y41235658D01*
X74238095Y41235658D02*
X74285714Y41140420D01*
X74285714Y41140420D02*
X74333333Y41092800D01*
X74333333Y41092800D02*
X74428571Y41045181D01*
X74428571Y41045181D02*
X74619047Y41045181D01*
X74619047Y41045181D02*
X74714285Y41092800D01*
X74714285Y41092800D02*
X74761904Y41140420D01*
X74761904Y41140420D02*
X74809523Y41235658D01*
X74809523Y41235658D02*
X74809523Y42045181D01*
X75809523Y41045181D02*
X75238095Y41045181D01*
X75523809Y41045181D02*
X75523809Y42045181D01*
X75523809Y42045181D02*
X75428571Y41902324D01*
X75428571Y41902324D02*
X75333333Y41807086D01*
X75333333Y41807086D02*
X75238095Y41759467D01*
X82609580Y11107143D02*
X82657200Y11059524D01*
X82657200Y11059524D02*
X82704819Y10916667D01*
X82704819Y10916667D02*
X82704819Y10821429D01*
X82704819Y10821429D02*
X82657200Y10678572D01*
X82657200Y10678572D02*
X82561961Y10583334D01*
X82561961Y10583334D02*
X82466723Y10535715D01*
X82466723Y10535715D02*
X82276247Y10488096D01*
X82276247Y10488096D02*
X82133390Y10488096D01*
X82133390Y10488096D02*
X81942914Y10535715D01*
X81942914Y10535715D02*
X81847676Y10583334D01*
X81847676Y10583334D02*
X81752438Y10678572D01*
X81752438Y10678572D02*
X81704819Y10821429D01*
X81704819Y10821429D02*
X81704819Y10916667D01*
X81704819Y10916667D02*
X81752438Y11059524D01*
X81752438Y11059524D02*
X81800057Y11107143D01*
X81800057Y11488096D02*
X81752438Y11535715D01*
X81752438Y11535715D02*
X81704819Y11630953D01*
X81704819Y11630953D02*
X81704819Y11869048D01*
X81704819Y11869048D02*
X81752438Y11964286D01*
X81752438Y11964286D02*
X81800057Y12011905D01*
X81800057Y12011905D02*
X81895295Y12059524D01*
X81895295Y12059524D02*
X81990533Y12059524D01*
X81990533Y12059524D02*
X82133390Y12011905D01*
X82133390Y12011905D02*
X82704819Y11440477D01*
X82704819Y11440477D02*
X82704819Y12059524D01*
X81800057Y12440477D02*
X81752438Y12488096D01*
X81752438Y12488096D02*
X81704819Y12583334D01*
X81704819Y12583334D02*
X81704819Y12821429D01*
X81704819Y12821429D02*
X81752438Y12916667D01*
X81752438Y12916667D02*
X81800057Y12964286D01*
X81800057Y12964286D02*
X81895295Y13011905D01*
X81895295Y13011905D02*
X81990533Y13011905D01*
X81990533Y13011905D02*
X82133390Y12964286D01*
X82133390Y12964286D02*
X82704819Y12392858D01*
X82704819Y12392858D02*
X82704819Y13011905D01*
X79109580Y28357143D02*
X79157200Y28309524D01*
X79157200Y28309524D02*
X79204819Y28166667D01*
X79204819Y28166667D02*
X79204819Y28071429D01*
X79204819Y28071429D02*
X79157200Y27928572D01*
X79157200Y27928572D02*
X79061961Y27833334D01*
X79061961Y27833334D02*
X78966723Y27785715D01*
X78966723Y27785715D02*
X78776247Y27738096D01*
X78776247Y27738096D02*
X78633390Y27738096D01*
X78633390Y27738096D02*
X78442914Y27785715D01*
X78442914Y27785715D02*
X78347676Y27833334D01*
X78347676Y27833334D02*
X78252438Y27928572D01*
X78252438Y27928572D02*
X78204819Y28071429D01*
X78204819Y28071429D02*
X78204819Y28166667D01*
X78204819Y28166667D02*
X78252438Y28309524D01*
X78252438Y28309524D02*
X78300057Y28357143D01*
X78300057Y28738096D02*
X78252438Y28785715D01*
X78252438Y28785715D02*
X78204819Y28880953D01*
X78204819Y28880953D02*
X78204819Y29119048D01*
X78204819Y29119048D02*
X78252438Y29214286D01*
X78252438Y29214286D02*
X78300057Y29261905D01*
X78300057Y29261905D02*
X78395295Y29309524D01*
X78395295Y29309524D02*
X78490533Y29309524D01*
X78490533Y29309524D02*
X78633390Y29261905D01*
X78633390Y29261905D02*
X79204819Y28690477D01*
X79204819Y28690477D02*
X79204819Y29309524D01*
X78538152Y30166667D02*
X79204819Y30166667D01*
X78157200Y29928572D02*
X78871485Y29690477D01*
X78871485Y29690477D02*
X78871485Y30309524D01*
X40359580Y7107143D02*
X40407200Y7059524D01*
X40407200Y7059524D02*
X40454819Y6916667D01*
X40454819Y6916667D02*
X40454819Y6821429D01*
X40454819Y6821429D02*
X40407200Y6678572D01*
X40407200Y6678572D02*
X40311961Y6583334D01*
X40311961Y6583334D02*
X40216723Y6535715D01*
X40216723Y6535715D02*
X40026247Y6488096D01*
X40026247Y6488096D02*
X39883390Y6488096D01*
X39883390Y6488096D02*
X39692914Y6535715D01*
X39692914Y6535715D02*
X39597676Y6583334D01*
X39597676Y6583334D02*
X39502438Y6678572D01*
X39502438Y6678572D02*
X39454819Y6821429D01*
X39454819Y6821429D02*
X39454819Y6916667D01*
X39454819Y6916667D02*
X39502438Y7059524D01*
X39502438Y7059524D02*
X39550057Y7107143D01*
X39788152Y7964286D02*
X40454819Y7964286D01*
X39407200Y7726191D02*
X40121485Y7488096D01*
X40121485Y7488096D02*
X40121485Y8107143D01*
X39454819Y8916667D02*
X39454819Y8726191D01*
X39454819Y8726191D02*
X39502438Y8630953D01*
X39502438Y8630953D02*
X39550057Y8583334D01*
X39550057Y8583334D02*
X39692914Y8488096D01*
X39692914Y8488096D02*
X39883390Y8440477D01*
X39883390Y8440477D02*
X40264342Y8440477D01*
X40264342Y8440477D02*
X40359580Y8488096D01*
X40359580Y8488096D02*
X40407200Y8535715D01*
X40407200Y8535715D02*
X40454819Y8630953D01*
X40454819Y8630953D02*
X40454819Y8821429D01*
X40454819Y8821429D02*
X40407200Y8916667D01*
X40407200Y8916667D02*
X40359580Y8964286D01*
X40359580Y8964286D02*
X40264342Y9011905D01*
X40264342Y9011905D02*
X40026247Y9011905D01*
X40026247Y9011905D02*
X39931009Y8964286D01*
X39931009Y8964286D02*
X39883390Y8916667D01*
X39883390Y8916667D02*
X39835771Y8821429D01*
X39835771Y8821429D02*
X39835771Y8630953D01*
X39835771Y8630953D02*
X39883390Y8535715D01*
X39883390Y8535715D02*
X39931009Y8488096D01*
X39931009Y8488096D02*
X40026247Y8440477D01*
X71431009Y37416667D02*
X71431009Y37083334D01*
X71954819Y37083334D02*
X70954819Y37083334D01*
X70954819Y37083334D02*
X70954819Y37559524D01*
X71431009Y38273810D02*
X71478628Y38416667D01*
X71478628Y38416667D02*
X71526247Y38464286D01*
X71526247Y38464286D02*
X71621485Y38511905D01*
X71621485Y38511905D02*
X71764342Y38511905D01*
X71764342Y38511905D02*
X71859580Y38464286D01*
X71859580Y38464286D02*
X71907200Y38416667D01*
X71907200Y38416667D02*
X71954819Y38321429D01*
X71954819Y38321429D02*
X71954819Y37940477D01*
X71954819Y37940477D02*
X70954819Y37940477D01*
X70954819Y37940477D02*
X70954819Y38273810D01*
X70954819Y38273810D02*
X71002438Y38369048D01*
X71002438Y38369048D02*
X71050057Y38416667D01*
X71050057Y38416667D02*
X71145295Y38464286D01*
X71145295Y38464286D02*
X71240533Y38464286D01*
X71240533Y38464286D02*
X71335771Y38416667D01*
X71335771Y38416667D02*
X71383390Y38369048D01*
X71383390Y38369048D02*
X71431009Y38273810D01*
X71431009Y38273810D02*
X71431009Y37940477D01*
X71050057Y38892858D02*
X71002438Y38940477D01*
X71002438Y38940477D02*
X70954819Y39035715D01*
X70954819Y39035715D02*
X70954819Y39273810D01*
X70954819Y39273810D02*
X71002438Y39369048D01*
X71002438Y39369048D02*
X71050057Y39416667D01*
X71050057Y39416667D02*
X71145295Y39464286D01*
X71145295Y39464286D02*
X71240533Y39464286D01*
X71240533Y39464286D02*
X71383390Y39416667D01*
X71383390Y39416667D02*
X71954819Y38845239D01*
X71954819Y38845239D02*
X71954819Y39464286D01*
X81859580Y36607143D02*
X81907200Y36559524D01*
X81907200Y36559524D02*
X81954819Y36416667D01*
X81954819Y36416667D02*
X81954819Y36321429D01*
X81954819Y36321429D02*
X81907200Y36178572D01*
X81907200Y36178572D02*
X81811961Y36083334D01*
X81811961Y36083334D02*
X81716723Y36035715D01*
X81716723Y36035715D02*
X81526247Y35988096D01*
X81526247Y35988096D02*
X81383390Y35988096D01*
X81383390Y35988096D02*
X81192914Y36035715D01*
X81192914Y36035715D02*
X81097676Y36083334D01*
X81097676Y36083334D02*
X81002438Y36178572D01*
X81002438Y36178572D02*
X80954819Y36321429D01*
X80954819Y36321429D02*
X80954819Y36416667D01*
X80954819Y36416667D02*
X81002438Y36559524D01*
X81002438Y36559524D02*
X81050057Y36607143D01*
X81954819Y37559524D02*
X81954819Y36988096D01*
X81954819Y37273810D02*
X80954819Y37273810D01*
X80954819Y37273810D02*
X81097676Y37178572D01*
X81097676Y37178572D02*
X81192914Y37083334D01*
X81192914Y37083334D02*
X81240533Y36988096D01*
X81050057Y37940477D02*
X81002438Y37988096D01*
X81002438Y37988096D02*
X80954819Y38083334D01*
X80954819Y38083334D02*
X80954819Y38321429D01*
X80954819Y38321429D02*
X81002438Y38416667D01*
X81002438Y38416667D02*
X81050057Y38464286D01*
X81050057Y38464286D02*
X81145295Y38511905D01*
X81145295Y38511905D02*
X81240533Y38511905D01*
X81240533Y38511905D02*
X81383390Y38464286D01*
X81383390Y38464286D02*
X81954819Y37892858D01*
X81954819Y37892858D02*
X81954819Y38511905D01*
X45357142Y32890420D02*
X45309523Y32842800D01*
X45309523Y32842800D02*
X45166666Y32795181D01*
X45166666Y32795181D02*
X45071428Y32795181D01*
X45071428Y32795181D02*
X44928571Y32842800D01*
X44928571Y32842800D02*
X44833333Y32938039D01*
X44833333Y32938039D02*
X44785714Y33033277D01*
X44785714Y33033277D02*
X44738095Y33223753D01*
X44738095Y33223753D02*
X44738095Y33366610D01*
X44738095Y33366610D02*
X44785714Y33557086D01*
X44785714Y33557086D02*
X44833333Y33652324D01*
X44833333Y33652324D02*
X44928571Y33747562D01*
X44928571Y33747562D02*
X45071428Y33795181D01*
X45071428Y33795181D02*
X45166666Y33795181D01*
X45166666Y33795181D02*
X45309523Y33747562D01*
X45309523Y33747562D02*
X45357142Y33699943D01*
X45738095Y33699943D02*
X45785714Y33747562D01*
X45785714Y33747562D02*
X45880952Y33795181D01*
X45880952Y33795181D02*
X46119047Y33795181D01*
X46119047Y33795181D02*
X46214285Y33747562D01*
X46214285Y33747562D02*
X46261904Y33699943D01*
X46261904Y33699943D02*
X46309523Y33604705D01*
X46309523Y33604705D02*
X46309523Y33509467D01*
X46309523Y33509467D02*
X46261904Y33366610D01*
X46261904Y33366610D02*
X45690476Y32795181D01*
X45690476Y32795181D02*
X46309523Y32795181D01*
X46880952Y33366610D02*
X46785714Y33414229D01*
X46785714Y33414229D02*
X46738095Y33461848D01*
X46738095Y33461848D02*
X46690476Y33557086D01*
X46690476Y33557086D02*
X46690476Y33604705D01*
X46690476Y33604705D02*
X46738095Y33699943D01*
X46738095Y33699943D02*
X46785714Y33747562D01*
X46785714Y33747562D02*
X46880952Y33795181D01*
X46880952Y33795181D02*
X47071428Y33795181D01*
X47071428Y33795181D02*
X47166666Y33747562D01*
X47166666Y33747562D02*
X47214285Y33699943D01*
X47214285Y33699943D02*
X47261904Y33604705D01*
X47261904Y33604705D02*
X47261904Y33557086D01*
X47261904Y33557086D02*
X47214285Y33461848D01*
X47214285Y33461848D02*
X47166666Y33414229D01*
X47166666Y33414229D02*
X47071428Y33366610D01*
X47071428Y33366610D02*
X46880952Y33366610D01*
X46880952Y33366610D02*
X46785714Y33318991D01*
X46785714Y33318991D02*
X46738095Y33271372D01*
X46738095Y33271372D02*
X46690476Y33176134D01*
X46690476Y33176134D02*
X46690476Y32985658D01*
X46690476Y32985658D02*
X46738095Y32890420D01*
X46738095Y32890420D02*
X46785714Y32842800D01*
X46785714Y32842800D02*
X46880952Y32795181D01*
X46880952Y32795181D02*
X47071428Y32795181D01*
X47071428Y32795181D02*
X47166666Y32842800D01*
X47166666Y32842800D02*
X47214285Y32890420D01*
X47214285Y32890420D02*
X47261904Y32985658D01*
X47261904Y32985658D02*
X47261904Y33176134D01*
X47261904Y33176134D02*
X47214285Y33271372D01*
X47214285Y33271372D02*
X47166666Y33318991D01*
X47166666Y33318991D02*
X47071428Y33366610D01*
X61454819Y12345834D02*
X60978628Y12012501D01*
X61454819Y11774406D02*
X60454819Y11774406D01*
X60454819Y11774406D02*
X60454819Y12155358D01*
X60454819Y12155358D02*
X60502438Y12250596D01*
X60502438Y12250596D02*
X60550057Y12298215D01*
X60550057Y12298215D02*
X60645295Y12345834D01*
X60645295Y12345834D02*
X60788152Y12345834D01*
X60788152Y12345834D02*
X60883390Y12298215D01*
X60883390Y12298215D02*
X60931009Y12250596D01*
X60931009Y12250596D02*
X60978628Y12155358D01*
X60978628Y12155358D02*
X60978628Y11774406D01*
X60454819Y13250596D02*
X60454819Y12774406D01*
X60454819Y12774406D02*
X60931009Y12726787D01*
X60931009Y12726787D02*
X60883390Y12774406D01*
X60883390Y12774406D02*
X60835771Y12869644D01*
X60835771Y12869644D02*
X60835771Y13107739D01*
X60835771Y13107739D02*
X60883390Y13202977D01*
X60883390Y13202977D02*
X60931009Y13250596D01*
X60931009Y13250596D02*
X61026247Y13298215D01*
X61026247Y13298215D02*
X61264342Y13298215D01*
X61264342Y13298215D02*
X61359580Y13250596D01*
X61359580Y13250596D02*
X61407200Y13202977D01*
X61407200Y13202977D02*
X61454819Y13107739D01*
X61454819Y13107739D02*
X61454819Y12869644D01*
X61454819Y12869644D02*
X61407200Y12774406D01*
X61407200Y12774406D02*
X61359580Y12726787D01*
X38954819Y49857143D02*
X38478628Y49523810D01*
X38954819Y49285715D02*
X37954819Y49285715D01*
X37954819Y49285715D02*
X37954819Y49666667D01*
X37954819Y49666667D02*
X38002438Y49761905D01*
X38002438Y49761905D02*
X38050057Y49809524D01*
X38050057Y49809524D02*
X38145295Y49857143D01*
X38145295Y49857143D02*
X38288152Y49857143D01*
X38288152Y49857143D02*
X38383390Y49809524D01*
X38383390Y49809524D02*
X38431009Y49761905D01*
X38431009Y49761905D02*
X38478628Y49666667D01*
X38478628Y49666667D02*
X38478628Y49285715D01*
X38954819Y50809524D02*
X38954819Y50238096D01*
X38954819Y50523810D02*
X37954819Y50523810D01*
X37954819Y50523810D02*
X38097676Y50428572D01*
X38097676Y50428572D02*
X38192914Y50333334D01*
X38192914Y50333334D02*
X38240533Y50238096D01*
X37954819Y51428572D02*
X37954819Y51523810D01*
X37954819Y51523810D02*
X38002438Y51619048D01*
X38002438Y51619048D02*
X38050057Y51666667D01*
X38050057Y51666667D02*
X38145295Y51714286D01*
X38145295Y51714286D02*
X38335771Y51761905D01*
X38335771Y51761905D02*
X38573866Y51761905D01*
X38573866Y51761905D02*
X38764342Y51714286D01*
X38764342Y51714286D02*
X38859580Y51666667D01*
X38859580Y51666667D02*
X38907200Y51619048D01*
X38907200Y51619048D02*
X38954819Y51523810D01*
X38954819Y51523810D02*
X38954819Y51428572D01*
X38954819Y51428572D02*
X38907200Y51333334D01*
X38907200Y51333334D02*
X38859580Y51285715D01*
X38859580Y51285715D02*
X38764342Y51238096D01*
X38764342Y51238096D02*
X38573866Y51190477D01*
X38573866Y51190477D02*
X38335771Y51190477D01*
X38335771Y51190477D02*
X38145295Y51238096D01*
X38145295Y51238096D02*
X38050057Y51285715D01*
X38050057Y51285715D02*
X38002438Y51333334D01*
X38002438Y51333334D02*
X37954819Y51428572D01*
X61109580Y21607143D02*
X61157200Y21559524D01*
X61157200Y21559524D02*
X61204819Y21416667D01*
X61204819Y21416667D02*
X61204819Y21321429D01*
X61204819Y21321429D02*
X61157200Y21178572D01*
X61157200Y21178572D02*
X61061961Y21083334D01*
X61061961Y21083334D02*
X60966723Y21035715D01*
X60966723Y21035715D02*
X60776247Y20988096D01*
X60776247Y20988096D02*
X60633390Y20988096D01*
X60633390Y20988096D02*
X60442914Y21035715D01*
X60442914Y21035715D02*
X60347676Y21083334D01*
X60347676Y21083334D02*
X60252438Y21178572D01*
X60252438Y21178572D02*
X60204819Y21321429D01*
X60204819Y21321429D02*
X60204819Y21416667D01*
X60204819Y21416667D02*
X60252438Y21559524D01*
X60252438Y21559524D02*
X60300057Y21607143D01*
X61204819Y22559524D02*
X61204819Y21988096D01*
X61204819Y22273810D02*
X60204819Y22273810D01*
X60204819Y22273810D02*
X60347676Y22178572D01*
X60347676Y22178572D02*
X60442914Y22083334D01*
X60442914Y22083334D02*
X60490533Y21988096D01*
X60633390Y23130953D02*
X60585771Y23035715D01*
X60585771Y23035715D02*
X60538152Y22988096D01*
X60538152Y22988096D02*
X60442914Y22940477D01*
X60442914Y22940477D02*
X60395295Y22940477D01*
X60395295Y22940477D02*
X60300057Y22988096D01*
X60300057Y22988096D02*
X60252438Y23035715D01*
X60252438Y23035715D02*
X60204819Y23130953D01*
X60204819Y23130953D02*
X60204819Y23321429D01*
X60204819Y23321429D02*
X60252438Y23416667D01*
X60252438Y23416667D02*
X60300057Y23464286D01*
X60300057Y23464286D02*
X60395295Y23511905D01*
X60395295Y23511905D02*
X60442914Y23511905D01*
X60442914Y23511905D02*
X60538152Y23464286D01*
X60538152Y23464286D02*
X60585771Y23416667D01*
X60585771Y23416667D02*
X60633390Y23321429D01*
X60633390Y23321429D02*
X60633390Y23130953D01*
X60633390Y23130953D02*
X60681009Y23035715D01*
X60681009Y23035715D02*
X60728628Y22988096D01*
X60728628Y22988096D02*
X60823866Y22940477D01*
X60823866Y22940477D02*
X61014342Y22940477D01*
X61014342Y22940477D02*
X61109580Y22988096D01*
X61109580Y22988096D02*
X61157200Y23035715D01*
X61157200Y23035715D02*
X61204819Y23130953D01*
X61204819Y23130953D02*
X61204819Y23321429D01*
X61204819Y23321429D02*
X61157200Y23416667D01*
X61157200Y23416667D02*
X61109580Y23464286D01*
X61109580Y23464286D02*
X61014342Y23511905D01*
X61014342Y23511905D02*
X60823866Y23511905D01*
X60823866Y23511905D02*
X60728628Y23464286D01*
X60728628Y23464286D02*
X60681009Y23416667D01*
X60681009Y23416667D02*
X60633390Y23321429D01*
X38859580Y39357143D02*
X38907200Y39309524D01*
X38907200Y39309524D02*
X38954819Y39166667D01*
X38954819Y39166667D02*
X38954819Y39071429D01*
X38954819Y39071429D02*
X38907200Y38928572D01*
X38907200Y38928572D02*
X38811961Y38833334D01*
X38811961Y38833334D02*
X38716723Y38785715D01*
X38716723Y38785715D02*
X38526247Y38738096D01*
X38526247Y38738096D02*
X38383390Y38738096D01*
X38383390Y38738096D02*
X38192914Y38785715D01*
X38192914Y38785715D02*
X38097676Y38833334D01*
X38097676Y38833334D02*
X38002438Y38928572D01*
X38002438Y38928572D02*
X37954819Y39071429D01*
X37954819Y39071429D02*
X37954819Y39166667D01*
X37954819Y39166667D02*
X38002438Y39309524D01*
X38002438Y39309524D02*
X38050057Y39357143D01*
X38954819Y40309524D02*
X38954819Y39738096D01*
X38954819Y40023810D02*
X37954819Y40023810D01*
X37954819Y40023810D02*
X38097676Y39928572D01*
X38097676Y39928572D02*
X38192914Y39833334D01*
X38192914Y39833334D02*
X38240533Y39738096D01*
X37954819Y41166667D02*
X37954819Y40976191D01*
X37954819Y40976191D02*
X38002438Y40880953D01*
X38002438Y40880953D02*
X38050057Y40833334D01*
X38050057Y40833334D02*
X38192914Y40738096D01*
X38192914Y40738096D02*
X38383390Y40690477D01*
X38383390Y40690477D02*
X38764342Y40690477D01*
X38764342Y40690477D02*
X38859580Y40738096D01*
X38859580Y40738096D02*
X38907200Y40785715D01*
X38907200Y40785715D02*
X38954819Y40880953D01*
X38954819Y40880953D02*
X38954819Y41071429D01*
X38954819Y41071429D02*
X38907200Y41166667D01*
X38907200Y41166667D02*
X38859580Y41214286D01*
X38859580Y41214286D02*
X38764342Y41261905D01*
X38764342Y41261905D02*
X38526247Y41261905D01*
X38526247Y41261905D02*
X38431009Y41214286D01*
X38431009Y41214286D02*
X38383390Y41166667D01*
X38383390Y41166667D02*
X38335771Y41071429D01*
X38335771Y41071429D02*
X38335771Y40880953D01*
X38335771Y40880953D02*
X38383390Y40785715D01*
X38383390Y40785715D02*
X38431009Y40738096D01*
X38431009Y40738096D02*
X38526247Y40690477D01*
X45357142Y30390420D02*
X45309523Y30342800D01*
X45309523Y30342800D02*
X45166666Y30295181D01*
X45166666Y30295181D02*
X45071428Y30295181D01*
X45071428Y30295181D02*
X44928571Y30342800D01*
X44928571Y30342800D02*
X44833333Y30438039D01*
X44833333Y30438039D02*
X44785714Y30533277D01*
X44785714Y30533277D02*
X44738095Y30723753D01*
X44738095Y30723753D02*
X44738095Y30866610D01*
X44738095Y30866610D02*
X44785714Y31057086D01*
X44785714Y31057086D02*
X44833333Y31152324D01*
X44833333Y31152324D02*
X44928571Y31247562D01*
X44928571Y31247562D02*
X45071428Y31295181D01*
X45071428Y31295181D02*
X45166666Y31295181D01*
X45166666Y31295181D02*
X45309523Y31247562D01*
X45309523Y31247562D02*
X45357142Y31199943D01*
X45690476Y31295181D02*
X46309523Y31295181D01*
X46309523Y31295181D02*
X45976190Y30914229D01*
X45976190Y30914229D02*
X46119047Y30914229D01*
X46119047Y30914229D02*
X46214285Y30866610D01*
X46214285Y30866610D02*
X46261904Y30818991D01*
X46261904Y30818991D02*
X46309523Y30723753D01*
X46309523Y30723753D02*
X46309523Y30485658D01*
X46309523Y30485658D02*
X46261904Y30390420D01*
X46261904Y30390420D02*
X46214285Y30342800D01*
X46214285Y30342800D02*
X46119047Y30295181D01*
X46119047Y30295181D02*
X45833333Y30295181D01*
X45833333Y30295181D02*
X45738095Y30342800D01*
X45738095Y30342800D02*
X45690476Y30390420D01*
X46928571Y31295181D02*
X47023809Y31295181D01*
X47023809Y31295181D02*
X47119047Y31247562D01*
X47119047Y31247562D02*
X47166666Y31199943D01*
X47166666Y31199943D02*
X47214285Y31104705D01*
X47214285Y31104705D02*
X47261904Y30914229D01*
X47261904Y30914229D02*
X47261904Y30676134D01*
X47261904Y30676134D02*
X47214285Y30485658D01*
X47214285Y30485658D02*
X47166666Y30390420D01*
X47166666Y30390420D02*
X47119047Y30342800D01*
X47119047Y30342800D02*
X47023809Y30295181D01*
X47023809Y30295181D02*
X46928571Y30295181D01*
X46928571Y30295181D02*
X46833333Y30342800D01*
X46833333Y30342800D02*
X46785714Y30390420D01*
X46785714Y30390420D02*
X46738095Y30485658D01*
X46738095Y30485658D02*
X46690476Y30676134D01*
X46690476Y30676134D02*
X46690476Y30914229D01*
X46690476Y30914229D02*
X46738095Y31104705D01*
X46738095Y31104705D02*
X46785714Y31199943D01*
X46785714Y31199943D02*
X46833333Y31247562D01*
X46833333Y31247562D02*
X46928571Y31295181D01*
X52857142Y16640420D02*
X52809523Y16592800D01*
X52809523Y16592800D02*
X52666666Y16545181D01*
X52666666Y16545181D02*
X52571428Y16545181D01*
X52571428Y16545181D02*
X52428571Y16592800D01*
X52428571Y16592800D02*
X52333333Y16688039D01*
X52333333Y16688039D02*
X52285714Y16783277D01*
X52285714Y16783277D02*
X52238095Y16973753D01*
X52238095Y16973753D02*
X52238095Y17116610D01*
X52238095Y17116610D02*
X52285714Y17307086D01*
X52285714Y17307086D02*
X52333333Y17402324D01*
X52333333Y17402324D02*
X52428571Y17497562D01*
X52428571Y17497562D02*
X52571428Y17545181D01*
X52571428Y17545181D02*
X52666666Y17545181D01*
X52666666Y17545181D02*
X52809523Y17497562D01*
X52809523Y17497562D02*
X52857142Y17449943D01*
X53190476Y17545181D02*
X53809523Y17545181D01*
X53809523Y17545181D02*
X53476190Y17164229D01*
X53476190Y17164229D02*
X53619047Y17164229D01*
X53619047Y17164229D02*
X53714285Y17116610D01*
X53714285Y17116610D02*
X53761904Y17068991D01*
X53761904Y17068991D02*
X53809523Y16973753D01*
X53809523Y16973753D02*
X53809523Y16735658D01*
X53809523Y16735658D02*
X53761904Y16640420D01*
X53761904Y16640420D02*
X53714285Y16592800D01*
X53714285Y16592800D02*
X53619047Y16545181D01*
X53619047Y16545181D02*
X53333333Y16545181D01*
X53333333Y16545181D02*
X53238095Y16592800D01*
X53238095Y16592800D02*
X53190476Y16640420D01*
X54380952Y17116610D02*
X54285714Y17164229D01*
X54285714Y17164229D02*
X54238095Y17211848D01*
X54238095Y17211848D02*
X54190476Y17307086D01*
X54190476Y17307086D02*
X54190476Y17354705D01*
X54190476Y17354705D02*
X54238095Y17449943D01*
X54238095Y17449943D02*
X54285714Y17497562D01*
X54285714Y17497562D02*
X54380952Y17545181D01*
X54380952Y17545181D02*
X54571428Y17545181D01*
X54571428Y17545181D02*
X54666666Y17497562D01*
X54666666Y17497562D02*
X54714285Y17449943D01*
X54714285Y17449943D02*
X54761904Y17354705D01*
X54761904Y17354705D02*
X54761904Y17307086D01*
X54761904Y17307086D02*
X54714285Y17211848D01*
X54714285Y17211848D02*
X54666666Y17164229D01*
X54666666Y17164229D02*
X54571428Y17116610D01*
X54571428Y17116610D02*
X54380952Y17116610D01*
X54380952Y17116610D02*
X54285714Y17068991D01*
X54285714Y17068991D02*
X54238095Y17021372D01*
X54238095Y17021372D02*
X54190476Y16926134D01*
X54190476Y16926134D02*
X54190476Y16735658D01*
X54190476Y16735658D02*
X54238095Y16640420D01*
X54238095Y16640420D02*
X54285714Y16592800D01*
X54285714Y16592800D02*
X54380952Y16545181D01*
X54380952Y16545181D02*
X54571428Y16545181D01*
X54571428Y16545181D02*
X54666666Y16592800D01*
X54666666Y16592800D02*
X54714285Y16640420D01*
X54714285Y16640420D02*
X54761904Y16735658D01*
X54761904Y16735658D02*
X54761904Y16926134D01*
X54761904Y16926134D02*
X54714285Y17021372D01*
X54714285Y17021372D02*
X54666666Y17068991D01*
X54666666Y17068991D02*
X54571428Y17116610D01*
X37759580Y11107143D02*
X37807200Y11059524D01*
X37807200Y11059524D02*
X37854819Y10916667D01*
X37854819Y10916667D02*
X37854819Y10821429D01*
X37854819Y10821429D02*
X37807200Y10678572D01*
X37807200Y10678572D02*
X37711961Y10583334D01*
X37711961Y10583334D02*
X37616723Y10535715D01*
X37616723Y10535715D02*
X37426247Y10488096D01*
X37426247Y10488096D02*
X37283390Y10488096D01*
X37283390Y10488096D02*
X37092914Y10535715D01*
X37092914Y10535715D02*
X36997676Y10583334D01*
X36997676Y10583334D02*
X36902438Y10678572D01*
X36902438Y10678572D02*
X36854819Y10821429D01*
X36854819Y10821429D02*
X36854819Y10916667D01*
X36854819Y10916667D02*
X36902438Y11059524D01*
X36902438Y11059524D02*
X36950057Y11107143D01*
X37188152Y11964286D02*
X37854819Y11964286D01*
X36807200Y11726191D02*
X37521485Y11488096D01*
X37521485Y11488096D02*
X37521485Y12107143D01*
X37854819Y12535715D02*
X37854819Y12726191D01*
X37854819Y12726191D02*
X37807200Y12821429D01*
X37807200Y12821429D02*
X37759580Y12869048D01*
X37759580Y12869048D02*
X37616723Y12964286D01*
X37616723Y12964286D02*
X37426247Y13011905D01*
X37426247Y13011905D02*
X37045295Y13011905D01*
X37045295Y13011905D02*
X36950057Y12964286D01*
X36950057Y12964286D02*
X36902438Y12916667D01*
X36902438Y12916667D02*
X36854819Y12821429D01*
X36854819Y12821429D02*
X36854819Y12630953D01*
X36854819Y12630953D02*
X36902438Y12535715D01*
X36902438Y12535715D02*
X36950057Y12488096D01*
X36950057Y12488096D02*
X37045295Y12440477D01*
X37045295Y12440477D02*
X37283390Y12440477D01*
X37283390Y12440477D02*
X37378628Y12488096D01*
X37378628Y12488096D02*
X37426247Y12535715D01*
X37426247Y12535715D02*
X37473866Y12630953D01*
X37473866Y12630953D02*
X37473866Y12821429D01*
X37473866Y12821429D02*
X37426247Y12916667D01*
X37426247Y12916667D02*
X37378628Y12964286D01*
X37378628Y12964286D02*
X37283390Y13011905D01*
X59954819Y12333334D02*
X59478628Y12000001D01*
X59954819Y11761906D02*
X58954819Y11761906D01*
X58954819Y11761906D02*
X58954819Y12142858D01*
X58954819Y12142858D02*
X59002438Y12238096D01*
X59002438Y12238096D02*
X59050057Y12285715D01*
X59050057Y12285715D02*
X59145295Y12333334D01*
X59145295Y12333334D02*
X59288152Y12333334D01*
X59288152Y12333334D02*
X59383390Y12285715D01*
X59383390Y12285715D02*
X59431009Y12238096D01*
X59431009Y12238096D02*
X59478628Y12142858D01*
X59478628Y12142858D02*
X59478628Y11761906D01*
X58954819Y13190477D02*
X58954819Y13000001D01*
X58954819Y13000001D02*
X59002438Y12904763D01*
X59002438Y12904763D02*
X59050057Y12857144D01*
X59050057Y12857144D02*
X59192914Y12761906D01*
X59192914Y12761906D02*
X59383390Y12714287D01*
X59383390Y12714287D02*
X59764342Y12714287D01*
X59764342Y12714287D02*
X59859580Y12761906D01*
X59859580Y12761906D02*
X59907200Y12809525D01*
X59907200Y12809525D02*
X59954819Y12904763D01*
X59954819Y12904763D02*
X59954819Y13095239D01*
X59954819Y13095239D02*
X59907200Y13190477D01*
X59907200Y13190477D02*
X59859580Y13238096D01*
X59859580Y13238096D02*
X59764342Y13285715D01*
X59764342Y13285715D02*
X59526247Y13285715D01*
X59526247Y13285715D02*
X59431009Y13238096D01*
X59431009Y13238096D02*
X59383390Y13190477D01*
X59383390Y13190477D02*
X59335771Y13095239D01*
X59335771Y13095239D02*
X59335771Y12904763D01*
X59335771Y12904763D02*
X59383390Y12809525D01*
X59383390Y12809525D02*
X59431009Y12761906D01*
X59431009Y12761906D02*
X59526247Y12714287D01*
X39454819Y15819643D02*
X38978628Y15486310D01*
X39454819Y15248215D02*
X38454819Y15248215D01*
X38454819Y15248215D02*
X38454819Y15629167D01*
X38454819Y15629167D02*
X38502438Y15724405D01*
X38502438Y15724405D02*
X38550057Y15772024D01*
X38550057Y15772024D02*
X38645295Y15819643D01*
X38645295Y15819643D02*
X38788152Y15819643D01*
X38788152Y15819643D02*
X38883390Y15772024D01*
X38883390Y15772024D02*
X38931009Y15724405D01*
X38931009Y15724405D02*
X38978628Y15629167D01*
X38978628Y15629167D02*
X38978628Y15248215D01*
X39454819Y16772024D02*
X39454819Y16200596D01*
X39454819Y16486310D02*
X38454819Y16486310D01*
X38454819Y16486310D02*
X38597676Y16391072D01*
X38597676Y16391072D02*
X38692914Y16295834D01*
X38692914Y16295834D02*
X38740533Y16200596D01*
X38788152Y17629167D02*
X39454819Y17629167D01*
X38407200Y17391072D02*
X39121485Y17152977D01*
X39121485Y17152977D02*
X39121485Y17772024D01*
X72204819Y11083334D02*
X71728628Y10750001D01*
X72204819Y10511906D02*
X71204819Y10511906D01*
X71204819Y10511906D02*
X71204819Y10892858D01*
X71204819Y10892858D02*
X71252438Y10988096D01*
X71252438Y10988096D02*
X71300057Y11035715D01*
X71300057Y11035715D02*
X71395295Y11083334D01*
X71395295Y11083334D02*
X71538152Y11083334D01*
X71538152Y11083334D02*
X71633390Y11035715D01*
X71633390Y11035715D02*
X71681009Y10988096D01*
X71681009Y10988096D02*
X71728628Y10892858D01*
X71728628Y10892858D02*
X71728628Y10511906D01*
X71538152Y11940477D02*
X72204819Y11940477D01*
X71157200Y11702382D02*
X71871485Y11464287D01*
X71871485Y11464287D02*
X71871485Y12083334D01*
X27609580Y42607143D02*
X27657200Y42559524D01*
X27657200Y42559524D02*
X27704819Y42416667D01*
X27704819Y42416667D02*
X27704819Y42321429D01*
X27704819Y42321429D02*
X27657200Y42178572D01*
X27657200Y42178572D02*
X27561961Y42083334D01*
X27561961Y42083334D02*
X27466723Y42035715D01*
X27466723Y42035715D02*
X27276247Y41988096D01*
X27276247Y41988096D02*
X27133390Y41988096D01*
X27133390Y41988096D02*
X26942914Y42035715D01*
X26942914Y42035715D02*
X26847676Y42083334D01*
X26847676Y42083334D02*
X26752438Y42178572D01*
X26752438Y42178572D02*
X26704819Y42321429D01*
X26704819Y42321429D02*
X26704819Y42416667D01*
X26704819Y42416667D02*
X26752438Y42559524D01*
X26752438Y42559524D02*
X26800057Y42607143D01*
X27038152Y43464286D02*
X27704819Y43464286D01*
X26657200Y43226191D02*
X27371485Y42988096D01*
X27371485Y42988096D02*
X27371485Y43607143D01*
X27704819Y44511905D02*
X27704819Y43940477D01*
X27704819Y44226191D02*
X26704819Y44226191D01*
X26704819Y44226191D02*
X26847676Y44130953D01*
X26847676Y44130953D02*
X26942914Y44035715D01*
X26942914Y44035715D02*
X26990533Y43940477D01*
X76704819Y11083334D02*
X76228628Y10750001D01*
X76704819Y10511906D02*
X75704819Y10511906D01*
X75704819Y10511906D02*
X75704819Y10892858D01*
X75704819Y10892858D02*
X75752438Y10988096D01*
X75752438Y10988096D02*
X75800057Y11035715D01*
X75800057Y11035715D02*
X75895295Y11083334D01*
X75895295Y11083334D02*
X76038152Y11083334D01*
X76038152Y11083334D02*
X76133390Y11035715D01*
X76133390Y11035715D02*
X76181009Y10988096D01*
X76181009Y10988096D02*
X76228628Y10892858D01*
X76228628Y10892858D02*
X76228628Y10511906D01*
X76133390Y11654763D02*
X76085771Y11559525D01*
X76085771Y11559525D02*
X76038152Y11511906D01*
X76038152Y11511906D02*
X75942914Y11464287D01*
X75942914Y11464287D02*
X75895295Y11464287D01*
X75895295Y11464287D02*
X75800057Y11511906D01*
X75800057Y11511906D02*
X75752438Y11559525D01*
X75752438Y11559525D02*
X75704819Y11654763D01*
X75704819Y11654763D02*
X75704819Y11845239D01*
X75704819Y11845239D02*
X75752438Y11940477D01*
X75752438Y11940477D02*
X75800057Y11988096D01*
X75800057Y11988096D02*
X75895295Y12035715D01*
X75895295Y12035715D02*
X75942914Y12035715D01*
X75942914Y12035715D02*
X76038152Y11988096D01*
X76038152Y11988096D02*
X76085771Y11940477D01*
X76085771Y11940477D02*
X76133390Y11845239D01*
X76133390Y11845239D02*
X76133390Y11654763D01*
X76133390Y11654763D02*
X76181009Y11559525D01*
X76181009Y11559525D02*
X76228628Y11511906D01*
X76228628Y11511906D02*
X76323866Y11464287D01*
X76323866Y11464287D02*
X76514342Y11464287D01*
X76514342Y11464287D02*
X76609580Y11511906D01*
X76609580Y11511906D02*
X76657200Y11559525D01*
X76657200Y11559525D02*
X76704819Y11654763D01*
X76704819Y11654763D02*
X76704819Y11845239D01*
X76704819Y11845239D02*
X76657200Y11940477D01*
X76657200Y11940477D02*
X76609580Y11988096D01*
X76609580Y11988096D02*
X76514342Y12035715D01*
X76514342Y12035715D02*
X76323866Y12035715D01*
X76323866Y12035715D02*
X76228628Y11988096D01*
X76228628Y11988096D02*
X76181009Y11940477D01*
X76181009Y11940477D02*
X76133390Y11845239D01*
X28738095Y23295181D02*
X28738095Y22485658D01*
X28738095Y22485658D02*
X28785714Y22390420D01*
X28785714Y22390420D02*
X28833333Y22342800D01*
X28833333Y22342800D02*
X28928571Y22295181D01*
X28928571Y22295181D02*
X29119047Y22295181D01*
X29119047Y22295181D02*
X29214285Y22342800D01*
X29214285Y22342800D02*
X29261904Y22390420D01*
X29261904Y22390420D02*
X29309523Y22485658D01*
X29309523Y22485658D02*
X29309523Y23295181D01*
X29738095Y23199943D02*
X29785714Y23247562D01*
X29785714Y23247562D02*
X29880952Y23295181D01*
X29880952Y23295181D02*
X30119047Y23295181D01*
X30119047Y23295181D02*
X30214285Y23247562D01*
X30214285Y23247562D02*
X30261904Y23199943D01*
X30261904Y23199943D02*
X30309523Y23104705D01*
X30309523Y23104705D02*
X30309523Y23009467D01*
X30309523Y23009467D02*
X30261904Y22866610D01*
X30261904Y22866610D02*
X29690476Y22295181D01*
X29690476Y22295181D02*
X30309523Y22295181D01*
X52109580Y6357143D02*
X52157200Y6309524D01*
X52157200Y6309524D02*
X52204819Y6166667D01*
X52204819Y6166667D02*
X52204819Y6071429D01*
X52204819Y6071429D02*
X52157200Y5928572D01*
X52157200Y5928572D02*
X52061961Y5833334D01*
X52061961Y5833334D02*
X51966723Y5785715D01*
X51966723Y5785715D02*
X51776247Y5738096D01*
X51776247Y5738096D02*
X51633390Y5738096D01*
X51633390Y5738096D02*
X51442914Y5785715D01*
X51442914Y5785715D02*
X51347676Y5833334D01*
X51347676Y5833334D02*
X51252438Y5928572D01*
X51252438Y5928572D02*
X51204819Y6071429D01*
X51204819Y6071429D02*
X51204819Y6166667D01*
X51204819Y6166667D02*
X51252438Y6309524D01*
X51252438Y6309524D02*
X51300057Y6357143D01*
X51538152Y7214286D02*
X52204819Y7214286D01*
X51157200Y6976191D02*
X51871485Y6738096D01*
X51871485Y6738096D02*
X51871485Y7357143D01*
X51300057Y7690477D02*
X51252438Y7738096D01*
X51252438Y7738096D02*
X51204819Y7833334D01*
X51204819Y7833334D02*
X51204819Y8071429D01*
X51204819Y8071429D02*
X51252438Y8166667D01*
X51252438Y8166667D02*
X51300057Y8214286D01*
X51300057Y8214286D02*
X51395295Y8261905D01*
X51395295Y8261905D02*
X51490533Y8261905D01*
X51490533Y8261905D02*
X51633390Y8214286D01*
X51633390Y8214286D02*
X52204819Y7642858D01*
X52204819Y7642858D02*
X52204819Y8261905D01*
X7336666Y27795181D02*
X7336666Y27080896D01*
X7336666Y27080896D02*
X7289047Y26938039D01*
X7289047Y26938039D02*
X7193809Y26842800D01*
X7193809Y26842800D02*
X7050952Y26795181D01*
X7050952Y26795181D02*
X6955714Y26795181D01*
X8289047Y27795181D02*
X7812857Y27795181D01*
X7812857Y27795181D02*
X7765238Y27318991D01*
X7765238Y27318991D02*
X7812857Y27366610D01*
X7812857Y27366610D02*
X7908095Y27414229D01*
X7908095Y27414229D02*
X8146190Y27414229D01*
X8146190Y27414229D02*
X8241428Y27366610D01*
X8241428Y27366610D02*
X8289047Y27318991D01*
X8289047Y27318991D02*
X8336666Y27223753D01*
X8336666Y27223753D02*
X8336666Y26985658D01*
X8336666Y26985658D02*
X8289047Y26890420D01*
X8289047Y26890420D02*
X8241428Y26842800D01*
X8241428Y26842800D02*
X8146190Y26795181D01*
X8146190Y26795181D02*
X7908095Y26795181D01*
X7908095Y26795181D02*
X7812857Y26842800D01*
X7812857Y26842800D02*
X7765238Y26890420D01*
X49607142Y9390420D02*
X49559523Y9342800D01*
X49559523Y9342800D02*
X49416666Y9295181D01*
X49416666Y9295181D02*
X49321428Y9295181D01*
X49321428Y9295181D02*
X49178571Y9342800D01*
X49178571Y9342800D02*
X49083333Y9438039D01*
X49083333Y9438039D02*
X49035714Y9533277D01*
X49035714Y9533277D02*
X48988095Y9723753D01*
X48988095Y9723753D02*
X48988095Y9866610D01*
X48988095Y9866610D02*
X49035714Y10057086D01*
X49035714Y10057086D02*
X49083333Y10152324D01*
X49083333Y10152324D02*
X49178571Y10247562D01*
X49178571Y10247562D02*
X49321428Y10295181D01*
X49321428Y10295181D02*
X49416666Y10295181D01*
X49416666Y10295181D02*
X49559523Y10247562D01*
X49559523Y10247562D02*
X49607142Y10199943D01*
X49940476Y10295181D02*
X50559523Y10295181D01*
X50559523Y10295181D02*
X50226190Y9914229D01*
X50226190Y9914229D02*
X50369047Y9914229D01*
X50369047Y9914229D02*
X50464285Y9866610D01*
X50464285Y9866610D02*
X50511904Y9818991D01*
X50511904Y9818991D02*
X50559523Y9723753D01*
X50559523Y9723753D02*
X50559523Y9485658D01*
X50559523Y9485658D02*
X50511904Y9390420D01*
X50511904Y9390420D02*
X50464285Y9342800D01*
X50464285Y9342800D02*
X50369047Y9295181D01*
X50369047Y9295181D02*
X50083333Y9295181D01*
X50083333Y9295181D02*
X49988095Y9342800D01*
X49988095Y9342800D02*
X49940476Y9390420D01*
X50940476Y10199943D02*
X50988095Y10247562D01*
X50988095Y10247562D02*
X51083333Y10295181D01*
X51083333Y10295181D02*
X51321428Y10295181D01*
X51321428Y10295181D02*
X51416666Y10247562D01*
X51416666Y10247562D02*
X51464285Y10199943D01*
X51464285Y10199943D02*
X51511904Y10104705D01*
X51511904Y10104705D02*
X51511904Y10009467D01*
X51511904Y10009467D02*
X51464285Y9866610D01*
X51464285Y9866610D02*
X50892857Y9295181D01*
X50892857Y9295181D02*
X51511904Y9295181D01*
X52357142Y24640420D02*
X52309523Y24592800D01*
X52309523Y24592800D02*
X52166666Y24545181D01*
X52166666Y24545181D02*
X52071428Y24545181D01*
X52071428Y24545181D02*
X51928571Y24592800D01*
X51928571Y24592800D02*
X51833333Y24688039D01*
X51833333Y24688039D02*
X51785714Y24783277D01*
X51785714Y24783277D02*
X51738095Y24973753D01*
X51738095Y24973753D02*
X51738095Y25116610D01*
X51738095Y25116610D02*
X51785714Y25307086D01*
X51785714Y25307086D02*
X51833333Y25402324D01*
X51833333Y25402324D02*
X51928571Y25497562D01*
X51928571Y25497562D02*
X52071428Y25545181D01*
X52071428Y25545181D02*
X52166666Y25545181D01*
X52166666Y25545181D02*
X52309523Y25497562D01*
X52309523Y25497562D02*
X52357142Y25449943D01*
X53309523Y24545181D02*
X52738095Y24545181D01*
X53023809Y24545181D02*
X53023809Y25545181D01*
X53023809Y25545181D02*
X52928571Y25402324D01*
X52928571Y25402324D02*
X52833333Y25307086D01*
X52833333Y25307086D02*
X52738095Y25259467D01*
X53785714Y24545181D02*
X53976190Y24545181D01*
X53976190Y24545181D02*
X54071428Y24592800D01*
X54071428Y24592800D02*
X54119047Y24640420D01*
X54119047Y24640420D02*
X54214285Y24783277D01*
X54214285Y24783277D02*
X54261904Y24973753D01*
X54261904Y24973753D02*
X54261904Y25354705D01*
X54261904Y25354705D02*
X54214285Y25449943D01*
X54214285Y25449943D02*
X54166666Y25497562D01*
X54166666Y25497562D02*
X54071428Y25545181D01*
X54071428Y25545181D02*
X53880952Y25545181D01*
X53880952Y25545181D02*
X53785714Y25497562D01*
X53785714Y25497562D02*
X53738095Y25449943D01*
X53738095Y25449943D02*
X53690476Y25354705D01*
X53690476Y25354705D02*
X53690476Y25116610D01*
X53690476Y25116610D02*
X53738095Y25021372D01*
X53738095Y25021372D02*
X53785714Y24973753D01*
X53785714Y24973753D02*
X53880952Y24926134D01*
X53880952Y24926134D02*
X54071428Y24926134D01*
X54071428Y24926134D02*
X54166666Y24973753D01*
X54166666Y24973753D02*
X54214285Y25021372D01*
X54214285Y25021372D02*
X54261904Y25116610D01*
X17359580Y39857143D02*
X17407200Y39809524D01*
X17407200Y39809524D02*
X17454819Y39666667D01*
X17454819Y39666667D02*
X17454819Y39571429D01*
X17454819Y39571429D02*
X17407200Y39428572D01*
X17407200Y39428572D02*
X17311961Y39333334D01*
X17311961Y39333334D02*
X17216723Y39285715D01*
X17216723Y39285715D02*
X17026247Y39238096D01*
X17026247Y39238096D02*
X16883390Y39238096D01*
X16883390Y39238096D02*
X16692914Y39285715D01*
X16692914Y39285715D02*
X16597676Y39333334D01*
X16597676Y39333334D02*
X16502438Y39428572D01*
X16502438Y39428572D02*
X16454819Y39571429D01*
X16454819Y39571429D02*
X16454819Y39666667D01*
X16454819Y39666667D02*
X16502438Y39809524D01*
X16502438Y39809524D02*
X16550057Y39857143D01*
X17454819Y40809524D02*
X17454819Y40238096D01*
X17454819Y40523810D02*
X16454819Y40523810D01*
X16454819Y40523810D02*
X16597676Y40428572D01*
X16597676Y40428572D02*
X16692914Y40333334D01*
X16692914Y40333334D02*
X16740533Y40238096D01*
X16788152Y41666667D02*
X17454819Y41666667D01*
X16407200Y41428572D02*
X17121485Y41190477D01*
X17121485Y41190477D02*
X17121485Y41809524D01*
X50459580Y17857143D02*
X50507200Y17809524D01*
X50507200Y17809524D02*
X50554819Y17666667D01*
X50554819Y17666667D02*
X50554819Y17571429D01*
X50554819Y17571429D02*
X50507200Y17428572D01*
X50507200Y17428572D02*
X50411961Y17333334D01*
X50411961Y17333334D02*
X50316723Y17285715D01*
X50316723Y17285715D02*
X50126247Y17238096D01*
X50126247Y17238096D02*
X49983390Y17238096D01*
X49983390Y17238096D02*
X49792914Y17285715D01*
X49792914Y17285715D02*
X49697676Y17333334D01*
X49697676Y17333334D02*
X49602438Y17428572D01*
X49602438Y17428572D02*
X49554819Y17571429D01*
X49554819Y17571429D02*
X49554819Y17666667D01*
X49554819Y17666667D02*
X49602438Y17809524D01*
X49602438Y17809524D02*
X49650057Y17857143D01*
X49888152Y18714286D02*
X50554819Y18714286D01*
X49507200Y18476191D02*
X50221485Y18238096D01*
X50221485Y18238096D02*
X50221485Y18857143D01*
X49554819Y19142858D02*
X49554819Y19761905D01*
X49554819Y19761905D02*
X49935771Y19428572D01*
X49935771Y19428572D02*
X49935771Y19571429D01*
X49935771Y19571429D02*
X49983390Y19666667D01*
X49983390Y19666667D02*
X50031009Y19714286D01*
X50031009Y19714286D02*
X50126247Y19761905D01*
X50126247Y19761905D02*
X50364342Y19761905D01*
X50364342Y19761905D02*
X50459580Y19714286D01*
X50459580Y19714286D02*
X50507200Y19666667D01*
X50507200Y19666667D02*
X50554819Y19571429D01*
X50554819Y19571429D02*
X50554819Y19285715D01*
X50554819Y19285715D02*
X50507200Y19190477D01*
X50507200Y19190477D02*
X50459580Y19142858D01*
X33954819Y39607143D02*
X33478628Y39273810D01*
X33954819Y39035715D02*
X32954819Y39035715D01*
X32954819Y39035715D02*
X32954819Y39416667D01*
X32954819Y39416667D02*
X33002438Y39511905D01*
X33002438Y39511905D02*
X33050057Y39559524D01*
X33050057Y39559524D02*
X33145295Y39607143D01*
X33145295Y39607143D02*
X33288152Y39607143D01*
X33288152Y39607143D02*
X33383390Y39559524D01*
X33383390Y39559524D02*
X33431009Y39511905D01*
X33431009Y39511905D02*
X33478628Y39416667D01*
X33478628Y39416667D02*
X33478628Y39035715D01*
X33954819Y40559524D02*
X33954819Y39988096D01*
X33954819Y40273810D02*
X32954819Y40273810D01*
X32954819Y40273810D02*
X33097676Y40178572D01*
X33097676Y40178572D02*
X33192914Y40083334D01*
X33192914Y40083334D02*
X33240533Y39988096D01*
X33954819Y41511905D02*
X33954819Y40940477D01*
X33954819Y41226191D02*
X32954819Y41226191D01*
X32954819Y41226191D02*
X33097676Y41130953D01*
X33097676Y41130953D02*
X33192914Y41035715D01*
X33192914Y41035715D02*
X33240533Y40940477D01*
X66859580Y7833334D02*
X66907200Y7785715D01*
X66907200Y7785715D02*
X66954819Y7642858D01*
X66954819Y7642858D02*
X66954819Y7547620D01*
X66954819Y7547620D02*
X66907200Y7404763D01*
X66907200Y7404763D02*
X66811961Y7309525D01*
X66811961Y7309525D02*
X66716723Y7261906D01*
X66716723Y7261906D02*
X66526247Y7214287D01*
X66526247Y7214287D02*
X66383390Y7214287D01*
X66383390Y7214287D02*
X66192914Y7261906D01*
X66192914Y7261906D02*
X66097676Y7309525D01*
X66097676Y7309525D02*
X66002438Y7404763D01*
X66002438Y7404763D02*
X65954819Y7547620D01*
X65954819Y7547620D02*
X65954819Y7642858D01*
X65954819Y7642858D02*
X66002438Y7785715D01*
X66002438Y7785715D02*
X66050057Y7833334D01*
X66050057Y8214287D02*
X66002438Y8261906D01*
X66002438Y8261906D02*
X65954819Y8357144D01*
X65954819Y8357144D02*
X65954819Y8595239D01*
X65954819Y8595239D02*
X66002438Y8690477D01*
X66002438Y8690477D02*
X66050057Y8738096D01*
X66050057Y8738096D02*
X66145295Y8785715D01*
X66145295Y8785715D02*
X66240533Y8785715D01*
X66240533Y8785715D02*
X66383390Y8738096D01*
X66383390Y8738096D02*
X66954819Y8166668D01*
X66954819Y8166668D02*
X66954819Y8785715D01*
X79704819Y11083334D02*
X79228628Y10750001D01*
X79704819Y10511906D02*
X78704819Y10511906D01*
X78704819Y10511906D02*
X78704819Y10892858D01*
X78704819Y10892858D02*
X78752438Y10988096D01*
X78752438Y10988096D02*
X78800057Y11035715D01*
X78800057Y11035715D02*
X78895295Y11083334D01*
X78895295Y11083334D02*
X79038152Y11083334D01*
X79038152Y11083334D02*
X79133390Y11035715D01*
X79133390Y11035715D02*
X79181009Y10988096D01*
X79181009Y10988096D02*
X79228628Y10892858D01*
X79228628Y10892858D02*
X79228628Y10511906D01*
X78800057Y11464287D02*
X78752438Y11511906D01*
X78752438Y11511906D02*
X78704819Y11607144D01*
X78704819Y11607144D02*
X78704819Y11845239D01*
X78704819Y11845239D02*
X78752438Y11940477D01*
X78752438Y11940477D02*
X78800057Y11988096D01*
X78800057Y11988096D02*
X78895295Y12035715D01*
X78895295Y12035715D02*
X78990533Y12035715D01*
X78990533Y12035715D02*
X79133390Y11988096D01*
X79133390Y11988096D02*
X79704819Y11416668D01*
X79704819Y11416668D02*
X79704819Y12035715D01*
X57359580Y6357143D02*
X57407200Y6309524D01*
X57407200Y6309524D02*
X57454819Y6166667D01*
X57454819Y6166667D02*
X57454819Y6071429D01*
X57454819Y6071429D02*
X57407200Y5928572D01*
X57407200Y5928572D02*
X57311961Y5833334D01*
X57311961Y5833334D02*
X57216723Y5785715D01*
X57216723Y5785715D02*
X57026247Y5738096D01*
X57026247Y5738096D02*
X56883390Y5738096D01*
X56883390Y5738096D02*
X56692914Y5785715D01*
X56692914Y5785715D02*
X56597676Y5833334D01*
X56597676Y5833334D02*
X56502438Y5928572D01*
X56502438Y5928572D02*
X56454819Y6071429D01*
X56454819Y6071429D02*
X56454819Y6166667D01*
X56454819Y6166667D02*
X56502438Y6309524D01*
X56502438Y6309524D02*
X56550057Y6357143D01*
X56454819Y6690477D02*
X56454819Y7309524D01*
X56454819Y7309524D02*
X56835771Y6976191D01*
X56835771Y6976191D02*
X56835771Y7119048D01*
X56835771Y7119048D02*
X56883390Y7214286D01*
X56883390Y7214286D02*
X56931009Y7261905D01*
X56931009Y7261905D02*
X57026247Y7309524D01*
X57026247Y7309524D02*
X57264342Y7309524D01*
X57264342Y7309524D02*
X57359580Y7261905D01*
X57359580Y7261905D02*
X57407200Y7214286D01*
X57407200Y7214286D02*
X57454819Y7119048D01*
X57454819Y7119048D02*
X57454819Y6833334D01*
X57454819Y6833334D02*
X57407200Y6738096D01*
X57407200Y6738096D02*
X57359580Y6690477D01*
X56454819Y7642858D02*
X56454819Y8261905D01*
X56454819Y8261905D02*
X56835771Y7928572D01*
X56835771Y7928572D02*
X56835771Y8071429D01*
X56835771Y8071429D02*
X56883390Y8166667D01*
X56883390Y8166667D02*
X56931009Y8214286D01*
X56931009Y8214286D02*
X57026247Y8261905D01*
X57026247Y8261905D02*
X57264342Y8261905D01*
X57264342Y8261905D02*
X57359580Y8214286D01*
X57359580Y8214286D02*
X57407200Y8166667D01*
X57407200Y8166667D02*
X57454819Y8071429D01*
X57454819Y8071429D02*
X57454819Y7785715D01*
X57454819Y7785715D02*
X57407200Y7690477D01*
X57407200Y7690477D02*
X57359580Y7642858D01*
X49859580Y6607143D02*
X49907200Y6559524D01*
X49907200Y6559524D02*
X49954819Y6416667D01*
X49954819Y6416667D02*
X49954819Y6321429D01*
X49954819Y6321429D02*
X49907200Y6178572D01*
X49907200Y6178572D02*
X49811961Y6083334D01*
X49811961Y6083334D02*
X49716723Y6035715D01*
X49716723Y6035715D02*
X49526247Y5988096D01*
X49526247Y5988096D02*
X49383390Y5988096D01*
X49383390Y5988096D02*
X49192914Y6035715D01*
X49192914Y6035715D02*
X49097676Y6083334D01*
X49097676Y6083334D02*
X49002438Y6178572D01*
X49002438Y6178572D02*
X48954819Y6321429D01*
X48954819Y6321429D02*
X48954819Y6416667D01*
X48954819Y6416667D02*
X49002438Y6559524D01*
X49002438Y6559524D02*
X49050057Y6607143D01*
X49288152Y7464286D02*
X49954819Y7464286D01*
X48907200Y7226191D02*
X49621485Y6988096D01*
X49621485Y6988096D02*
X49621485Y7607143D01*
X49288152Y8416667D02*
X49954819Y8416667D01*
X48907200Y8178572D02*
X49621485Y7940477D01*
X49621485Y7940477D02*
X49621485Y8559524D01*
X38204819Y15857143D02*
X37728628Y15523810D01*
X38204819Y15285715D02*
X37204819Y15285715D01*
X37204819Y15285715D02*
X37204819Y15666667D01*
X37204819Y15666667D02*
X37252438Y15761905D01*
X37252438Y15761905D02*
X37300057Y15809524D01*
X37300057Y15809524D02*
X37395295Y15857143D01*
X37395295Y15857143D02*
X37538152Y15857143D01*
X37538152Y15857143D02*
X37633390Y15809524D01*
X37633390Y15809524D02*
X37681009Y15761905D01*
X37681009Y15761905D02*
X37728628Y15666667D01*
X37728628Y15666667D02*
X37728628Y15285715D01*
X38204819Y16809524D02*
X38204819Y16238096D01*
X38204819Y16523810D02*
X37204819Y16523810D01*
X37204819Y16523810D02*
X37347676Y16428572D01*
X37347676Y16428572D02*
X37442914Y16333334D01*
X37442914Y16333334D02*
X37490533Y16238096D01*
X37204819Y17142858D02*
X37204819Y17761905D01*
X37204819Y17761905D02*
X37585771Y17428572D01*
X37585771Y17428572D02*
X37585771Y17571429D01*
X37585771Y17571429D02*
X37633390Y17666667D01*
X37633390Y17666667D02*
X37681009Y17714286D01*
X37681009Y17714286D02*
X37776247Y17761905D01*
X37776247Y17761905D02*
X38014342Y17761905D01*
X38014342Y17761905D02*
X38109580Y17714286D01*
X38109580Y17714286D02*
X38157200Y17666667D01*
X38157200Y17666667D02*
X38204819Y17571429D01*
X38204819Y17571429D02*
X38204819Y17285715D01*
X38204819Y17285715D02*
X38157200Y17190477D01*
X38157200Y17190477D02*
X38109580Y17142858D01*
X76583333Y31640420D02*
X76535714Y31592800D01*
X76535714Y31592800D02*
X76392857Y31545181D01*
X76392857Y31545181D02*
X76297619Y31545181D01*
X76297619Y31545181D02*
X76154762Y31592800D01*
X76154762Y31592800D02*
X76059524Y31688039D01*
X76059524Y31688039D02*
X76011905Y31783277D01*
X76011905Y31783277D02*
X75964286Y31973753D01*
X75964286Y31973753D02*
X75964286Y32116610D01*
X75964286Y32116610D02*
X76011905Y32307086D01*
X76011905Y32307086D02*
X76059524Y32402324D01*
X76059524Y32402324D02*
X76154762Y32497562D01*
X76154762Y32497562D02*
X76297619Y32545181D01*
X76297619Y32545181D02*
X76392857Y32545181D01*
X76392857Y32545181D02*
X76535714Y32497562D01*
X76535714Y32497562D02*
X76583333Y32449943D01*
X77535714Y31545181D02*
X76964286Y31545181D01*
X77250000Y31545181D02*
X77250000Y32545181D01*
X77250000Y32545181D02*
X77154762Y32402324D01*
X77154762Y32402324D02*
X77059524Y32307086D01*
X77059524Y32307086D02*
X76964286Y32259467D01*
D12*
%TO.C,C13*%
X20090000Y15788748D02*
X20090000Y17211252D01*
X21910000Y15788748D02*
X21910000Y17211252D01*
%TO.C,C9*%
X67840000Y12461252D02*
X67840000Y11038748D01*
X69660000Y12461252D02*
X69660000Y11038748D01*
%TO.C,C29*%
X41438748Y29410000D02*
X42861252Y29410000D01*
X41438748Y27590000D02*
X42861252Y27590000D01*
%TO.C,C45*%
X38590000Y4461252D02*
X38590000Y3038748D01*
X40410000Y4461252D02*
X40410000Y3038748D01*
%TO.C,C21*%
X77090000Y15788748D02*
X77090000Y17211252D01*
X78910000Y15788748D02*
X78910000Y17211252D01*
%TO.C,J4*%
X-90000Y46360000D02*
X-90000Y31000000D01*
X-90000Y46360000D02*
X8540000Y46360000D01*
X-90000Y46240000D02*
X8540000Y46240000D01*
X-90000Y46121905D02*
X8540000Y46121905D01*
X-90000Y46003810D02*
X8540000Y46003810D01*
X-90000Y45885715D02*
X8540000Y45885715D01*
X-90000Y45767620D02*
X8540000Y45767620D01*
X-90000Y45649525D02*
X8540000Y45649525D01*
X-90000Y45531430D02*
X8540000Y45531430D01*
X-90000Y45413335D02*
X8540000Y45413335D01*
X-90000Y45295240D02*
X8540000Y45295240D01*
X-90000Y45177145D02*
X8540000Y45177145D01*
X-90000Y45059050D02*
X8540000Y45059050D01*
X-90000Y44940955D02*
X8540000Y44940955D01*
X-90000Y44822860D02*
X8540000Y44822860D01*
X-90000Y44704765D02*
X8540000Y44704765D01*
X-90000Y44586670D02*
X8540000Y44586670D01*
X-90000Y44468575D02*
X8540000Y44468575D01*
X-90000Y44350480D02*
X8540000Y44350480D01*
X-90000Y44232385D02*
X8540000Y44232385D01*
X-90000Y44114290D02*
X8540000Y44114290D01*
X-90000Y43996195D02*
X8540000Y43996195D01*
X-90000Y43878100D02*
X8540000Y43878100D01*
X-90000Y43760000D02*
X8540000Y43760000D01*
X-90000Y41220000D02*
X8540000Y41220000D01*
X-90000Y38680000D02*
X8540000Y38680000D01*
X-90000Y36140000D02*
X8540000Y36140000D01*
X-90000Y33600000D02*
X8540000Y33600000D01*
X-90000Y31000000D02*
X8540000Y31000000D01*
X8540000Y46360000D02*
X8540000Y31000000D01*
X8540000Y45390000D02*
X8950000Y45390000D01*
X8540000Y44670000D02*
X8950000Y44670000D01*
X8540000Y42850000D02*
X8950000Y42850000D01*
X8540000Y42130000D02*
X8950000Y42130000D01*
X8540000Y40310000D02*
X8950000Y40310000D01*
X8540000Y39590000D02*
X8950000Y39590000D01*
X8540000Y37770000D02*
X8950000Y37770000D01*
X8540000Y37050000D02*
X8950000Y37050000D01*
X8540000Y35230000D02*
X8950000Y35230000D01*
X8540000Y34510000D02*
X8950000Y34510000D01*
X8540000Y32690000D02*
X8950000Y32690000D01*
X8540000Y31970000D02*
X8950000Y31970000D01*
X11050000Y45390000D02*
X11430000Y45390000D01*
X11050000Y44670000D02*
X11430000Y44670000D01*
X11050000Y42850000D02*
X11490000Y42850000D01*
X11050000Y42130000D02*
X11490000Y42130000D01*
X11050000Y40310000D02*
X11490000Y40310000D01*
X11050000Y39590000D02*
X11490000Y39590000D01*
X11050000Y37770000D02*
X11490000Y37770000D01*
X11050000Y37050000D02*
X11490000Y37050000D01*
X11050000Y35230000D02*
X11490000Y35230000D01*
X11050000Y34510000D02*
X11490000Y34510000D01*
X11050000Y32690000D02*
X11490000Y32690000D01*
X11050000Y31970000D02*
X11490000Y31970000D01*
X12540000Y46360000D02*
X13650000Y46360000D01*
X13650000Y46360000D02*
X13650000Y45030000D01*
%TO.C,C27*%
X41438748Y26910000D02*
X42861252Y26910000D01*
X41438748Y25090000D02*
X42861252Y25090000D01*
%TO.C,C26*%
X53348752Y35422500D02*
X51926248Y35422500D01*
X53348752Y33602500D02*
X51926248Y33602500D01*
%TO.C,C25*%
X53323752Y33072500D02*
X51901248Y33072500D01*
X53323752Y31252500D02*
X51901248Y31252500D01*
D13*
%TO.C,IC2*%
X62922000Y26355000D02*
X71578000Y26355000D01*
X62922000Y23145000D02*
X62922000Y26355000D01*
X70700000Y28225000D02*
X70700000Y26705000D01*
X71578000Y26355000D02*
X71578000Y23145000D01*
X71578000Y23145000D02*
X62922000Y23145000D01*
D12*
%TO.C,C3*%
X23461252Y25160000D02*
X22038748Y25160000D01*
X23461252Y23340000D02*
X22038748Y23340000D01*
%TO.C,R7*%
X63840000Y34227064D02*
X63840000Y32772936D01*
X65660000Y34227064D02*
X65660000Y32772936D01*
%TO.C,C7*%
X17840000Y32561252D02*
X17840000Y31138748D01*
X19660000Y32561252D02*
X19660000Y31138748D01*
%TO.C,C40*%
X22461252Y50910000D02*
X21038748Y50910000D01*
X22461252Y49090000D02*
X21038748Y49090000D01*
%TO.C,J3*%
X8670000Y48790000D02*
X8670000Y50120000D01*
X10000000Y48790000D02*
X8670000Y48790000D01*
X11270000Y51450000D02*
X13870000Y51450000D01*
X11270000Y48790000D02*
X11270000Y51450000D01*
X11270000Y48790000D02*
X13870000Y48790000D01*
X13870000Y48790000D02*
X13870000Y51450000D01*
%TO.C,C47*%
X42840000Y19211252D02*
X42840000Y17788748D01*
X44660000Y19211252D02*
X44660000Y17788748D01*
%TO.C,C34*%
X52840000Y2288748D02*
X52840000Y3711252D01*
X54660000Y2288748D02*
X54660000Y3711252D01*
%TO.C,C15*%
X32090000Y17211252D02*
X32090000Y15788748D01*
X33910000Y17211252D02*
X33910000Y15788748D01*
%TO.C,D4*%
X27000000Y11810000D02*
X26350000Y11810000D01*
X27000000Y11810000D02*
X27650000Y11810000D01*
X27000000Y8690000D02*
X26350000Y8690000D01*
X27000000Y8690000D02*
X27650000Y8690000D01*
X25837500Y11760000D02*
X25597500Y12090000D01*
X26077500Y12090000D01*
X25837500Y11760000D01*
G36*
X25837500Y11760000D02*
G01*
X25597500Y12090000D01*
X26077500Y12090000D01*
X25837500Y11760000D01*
G37*
%TO.C,C35*%
X54961252Y13410000D02*
X53538748Y13410000D01*
X54961252Y11590000D02*
X53538748Y11590000D01*
%TO.C,U4*%
X41890000Y14610000D02*
X42365000Y14610000D01*
X41890000Y14135000D02*
X41890000Y14610000D01*
X41890000Y8865000D02*
X41890000Y8390000D01*
X41890000Y8390000D02*
X42365000Y8390000D01*
X47635000Y14610000D02*
X47870000Y14610000D01*
X48110000Y14135000D02*
X48110000Y14310000D01*
X48110000Y8865000D02*
X48110000Y8390000D01*
X48110000Y8390000D02*
X47635000Y8390000D01*
X48440000Y14370000D02*
X48110000Y14610000D01*
X48440000Y14850000D01*
X48440000Y14370000D01*
G36*
X48440000Y14370000D02*
G01*
X48110000Y14610000D01*
X48440000Y14850000D01*
X48440000Y14370000D01*
G37*
%TO.C,R16*%
X40840000Y3022936D02*
X40840000Y4477064D01*
X42660000Y3022936D02*
X42660000Y4477064D01*
%TO.C,R3*%
X72340000Y15772936D02*
X72340000Y17227064D01*
X74160000Y15772936D02*
X74160000Y17227064D01*
%TO.C,FB4*%
X82090000Y15664758D02*
X82090000Y17335242D01*
X83910000Y15664758D02*
X83910000Y17335242D01*
%TO.C,D1*%
X66500000Y41310000D02*
X65850000Y41310000D01*
X66500000Y41310000D02*
X67150000Y41310000D01*
X66500000Y38190000D02*
X65850000Y38190000D01*
X66500000Y38190000D02*
X67150000Y38190000D01*
X65337500Y41260000D02*
X65097500Y41590000D01*
X65577500Y41590000D01*
X65337500Y41260000D01*
G36*
X65337500Y41260000D02*
G01*
X65097500Y41590000D01*
X65577500Y41590000D01*
X65337500Y41260000D01*
G37*
%TO.C,C20*%
X35090000Y35288748D02*
X35090000Y36711252D01*
X36910000Y35288748D02*
X36910000Y36711252D01*
%TO.C,FB5*%
X77090000Y23939758D02*
X77090000Y25610242D01*
X78910000Y23939758D02*
X78910000Y25610242D01*
%TO.C,C8*%
X22038748Y27660000D02*
X23461252Y27660000D01*
X22038748Y25840000D02*
X23461252Y25840000D01*
%TO.C,J6*%
X-90000Y23500000D02*
X-90000Y8140000D01*
X-90000Y23500000D02*
X8540000Y23500000D01*
X-90000Y23380000D02*
X8540000Y23380000D01*
X-90000Y23261905D02*
X8540000Y23261905D01*
X-90000Y23143810D02*
X8540000Y23143810D01*
X-90000Y23025715D02*
X8540000Y23025715D01*
X-90000Y22907620D02*
X8540000Y22907620D01*
X-90000Y22789525D02*
X8540000Y22789525D01*
X-90000Y22671430D02*
X8540000Y22671430D01*
X-90000Y22553335D02*
X8540000Y22553335D01*
X-90000Y22435240D02*
X8540000Y22435240D01*
X-90000Y22317145D02*
X8540000Y22317145D01*
X-90000Y22199050D02*
X8540000Y22199050D01*
X-90000Y22080955D02*
X8540000Y22080955D01*
X-90000Y21962860D02*
X8540000Y21962860D01*
X-90000Y21844765D02*
X8540000Y21844765D01*
X-90000Y21726670D02*
X8540000Y21726670D01*
X-90000Y21608575D02*
X8540000Y21608575D01*
X-90000Y21490480D02*
X8540000Y21490480D01*
X-90000Y21372385D02*
X8540000Y21372385D01*
X-90000Y21254290D02*
X8540000Y21254290D01*
X-90000Y21136195D02*
X8540000Y21136195D01*
X-90000Y21018100D02*
X8540000Y21018100D01*
X-90000Y20900000D02*
X8540000Y20900000D01*
X-90000Y18360000D02*
X8540000Y18360000D01*
X-90000Y15820000D02*
X8540000Y15820000D01*
X-90000Y13280000D02*
X8540000Y13280000D01*
X-90000Y10740000D02*
X8540000Y10740000D01*
X-90000Y8140000D02*
X8540000Y8140000D01*
X8540000Y23500000D02*
X8540000Y8140000D01*
X8540000Y22530000D02*
X8950000Y22530000D01*
X8540000Y21810000D02*
X8950000Y21810000D01*
X8540000Y19990000D02*
X8950000Y19990000D01*
X8540000Y19270000D02*
X8950000Y19270000D01*
X8540000Y17450000D02*
X8950000Y17450000D01*
X8540000Y16730000D02*
X8950000Y16730000D01*
X8540000Y14910000D02*
X8950000Y14910000D01*
X8540000Y14190000D02*
X8950000Y14190000D01*
X8540000Y12370000D02*
X8950000Y12370000D01*
X8540000Y11650000D02*
X8950000Y11650000D01*
X8540000Y9830000D02*
X8950000Y9830000D01*
X8540000Y9110000D02*
X8950000Y9110000D01*
X11050000Y22530000D02*
X11430000Y22530000D01*
X11050000Y21810000D02*
X11430000Y21810000D01*
X11050000Y19990000D02*
X11490000Y19990000D01*
X11050000Y19270000D02*
X11490000Y19270000D01*
X11050000Y17450000D02*
X11490000Y17450000D01*
X11050000Y16730000D02*
X11490000Y16730000D01*
X11050000Y14910000D02*
X11490000Y14910000D01*
X11050000Y14190000D02*
X11490000Y14190000D01*
X11050000Y12370000D02*
X11490000Y12370000D01*
X11050000Y11650000D02*
X11490000Y11650000D01*
X11050000Y9830000D02*
X11490000Y9830000D01*
X11050000Y9110000D02*
X11490000Y9110000D01*
X12540000Y23500000D02*
X13650000Y23500000D01*
X13650000Y23500000D02*
X13650000Y22170000D01*
D13*
%TO.C,J2*%
X25212000Y5100000D02*
X25862000Y5100000D01*
X25212000Y3700000D02*
X25212000Y5100000D01*
X25212000Y900000D02*
X25212000Y-500000D01*
X25212000Y-500000D02*
X33312000Y-500000D01*
D14*
X27962000Y6500000D02*
X27962000Y6500000D01*
X27962000Y6400000D02*
X27962000Y6400000D01*
D13*
X32662000Y5100000D02*
X33312000Y5100000D01*
X33312000Y5100000D02*
X33312000Y3700000D01*
X33312000Y-500000D02*
X33312000Y900000D01*
D14*
X27962000Y6500000D02*
G75*
G02*
X27962000Y6400000I0J-50000D01*
G01*
X27962000Y6400000D02*
G75*
G02*
X27962000Y6500000I0J50000D01*
G01*
D12*
%TO.C,U3*%
X30940000Y48750000D02*
X30940000Y49400000D01*
X30940000Y48750000D02*
X30940000Y48100000D01*
X34060000Y48750000D02*
X34060000Y49400000D01*
X34060000Y48750000D02*
X34060000Y48100000D01*
X30990000Y47587500D02*
X30660000Y47347500D01*
X30660000Y47827500D01*
X30990000Y47587500D01*
G36*
X30990000Y47587500D02*
G01*
X30660000Y47347500D01*
X30660000Y47827500D01*
X30990000Y47587500D01*
G37*
%TO.C,R9*%
X57977064Y21160000D02*
X56522936Y21160000D01*
X57977064Y19340000D02*
X56522936Y19340000D01*
%TO.C,C48*%
X36340000Y4461252D02*
X36340000Y3038748D01*
X38160000Y4461252D02*
X38160000Y3038748D01*
%TO.C,D2*%
X39790000Y48185000D02*
X39790000Y45500000D01*
X41710000Y48185000D02*
X39790000Y48185000D01*
X41710000Y45500000D02*
X41710000Y48185000D01*
%TO.C,FB3*%
X67590000Y17335242D02*
X67590000Y15664758D01*
X69410000Y17335242D02*
X69410000Y15664758D01*
%TO.C,C37*%
X34590000Y47211252D02*
X34590000Y45788748D01*
X36410000Y47211252D02*
X36410000Y45788748D01*
%TO.C,C39*%
X17090000Y47211252D02*
X17090000Y45788748D01*
X18910000Y47211252D02*
X18910000Y45788748D01*
%TO.C,C4*%
X23461252Y22660000D02*
X22038748Y22660000D01*
X23461252Y20840000D02*
X22038748Y20840000D01*
%TO.C,D3*%
X31000000Y11810000D02*
X30350000Y11810000D01*
X31000000Y11810000D02*
X31650000Y11810000D01*
X31000000Y8690000D02*
X30350000Y8690000D01*
X31000000Y8690000D02*
X31650000Y8690000D01*
X32402500Y8410000D02*
X31922500Y8410000D01*
X32162500Y8740000D01*
X32402500Y8410000D01*
G36*
X32402500Y8410000D02*
G01*
X31922500Y8410000D01*
X32162500Y8740000D01*
X32402500Y8410000D01*
G37*
%TO.C,J7*%
X8670000Y3060000D02*
X8670000Y4390000D01*
X10000000Y3060000D02*
X8670000Y3060000D01*
X11270000Y5720000D02*
X13870000Y5720000D01*
X11270000Y3060000D02*
X11270000Y5720000D01*
X11270000Y3060000D02*
X13870000Y3060000D01*
X13870000Y3060000D02*
X13870000Y5720000D01*
%TO.C,FB1*%
X65090000Y17335242D02*
X65090000Y15664758D01*
X66910000Y17335242D02*
X66910000Y15664758D01*
%TO.C,C23*%
X74840000Y25461252D02*
X74840000Y24038748D01*
X76660000Y25461252D02*
X76660000Y24038748D01*
%TO.C,C36*%
X28590000Y47211252D02*
X28590000Y45788748D01*
X30410000Y47211252D02*
X30410000Y45788748D01*
%TO.C,C31*%
X22590000Y9038748D02*
X22590000Y10461252D01*
X24410000Y9038748D02*
X24410000Y10461252D01*
%TO.C,R12*%
X22670000Y17264564D02*
X22670000Y15810436D01*
X24490000Y17264564D02*
X24490000Y15810436D01*
%TO.C,C17*%
X57961252Y23410000D02*
X56538748Y23410000D01*
X57961252Y21590000D02*
X56538748Y21590000D01*
D13*
%TO.C,IC3*%
X53550000Y30425000D02*
X54950000Y30425000D01*
X55300000Y30375000D02*
X57600000Y30375000D01*
X55300000Y27375000D02*
X55300000Y30375000D01*
X57600000Y30375000D02*
X57600000Y27375000D01*
X57600000Y27375000D02*
X55300000Y27375000D01*
D12*
%TO.C,R15*%
X29670000Y17264564D02*
X29670000Y15810436D01*
X31490000Y17264564D02*
X31490000Y15810436D01*
%TO.C,C10*%
X57890000Y34186252D02*
X57890000Y32763748D01*
X59710000Y34186252D02*
X59710000Y32763748D01*
%TO.C,C5*%
X68590000Y34211252D02*
X68590000Y32788748D01*
X70410000Y34211252D02*
X70410000Y32788748D01*
D13*
%TO.C,IC1*%
X19875000Y48014000D02*
X21125000Y48014000D01*
X21475000Y47948000D02*
X22025000Y47948000D01*
X21475000Y45052000D02*
X21475000Y47948000D01*
X22025000Y47948000D02*
X22025000Y45052000D01*
X22025000Y45052000D02*
X21475000Y45052000D01*
D14*
%TO.C,Y1*%
X20650000Y35850000D02*
X20650000Y35850000D01*
X20750000Y35850000D02*
X20750000Y35850000D01*
X20650000Y35850000D02*
G75*
G02*
X20750000Y35850000I50000J0D01*
G01*
X20750000Y35850000D02*
G75*
G02*
X20650000Y35850000I-50000J0D01*
G01*
D12*
%TO.C,C11*%
X60290000Y34186252D02*
X60290000Y32763748D01*
X62110000Y34186252D02*
X62110000Y32763748D01*
D13*
%TO.C,J1*%
X66240000Y54025000D02*
X66240000Y55675000D01*
X67906000Y62629000D02*
X68335000Y62840000D01*
X67906000Y62491000D02*
X67906000Y62629000D01*
X67906000Y62069010D02*
X68285000Y62280010D01*
X67906000Y61931000D02*
X67906000Y62069010D01*
X67906000Y61509000D02*
X68285000Y61720000D01*
X67906000Y61371000D02*
X67906000Y61509000D01*
X67906000Y60949000D02*
X68285000Y61160000D01*
X67906000Y60811000D02*
X67906000Y60949000D01*
X67906000Y60389000D02*
X68285000Y60600000D01*
X67906000Y60251000D02*
X67906000Y60389000D01*
X67906000Y59829000D02*
X68285000Y60040000D01*
X67906000Y59691000D02*
X67906000Y59829000D01*
X67906000Y59269000D02*
X68285000Y59480000D01*
X67906000Y59131000D02*
X67906000Y59269000D01*
X68285000Y62280010D02*
X67906000Y62491000D01*
X68285000Y61720000D02*
X67906000Y61931000D01*
X68285000Y61160000D02*
X67906000Y61371000D01*
X68285000Y60600000D02*
X67906000Y60811000D01*
X68285000Y60040000D02*
X67906000Y60251000D01*
X68285000Y59480000D02*
X67906000Y59691000D01*
X68285000Y58920000D02*
X67906000Y59131000D01*
X68335000Y62840000D02*
X68335000Y63555000D01*
X68546730Y58545000D02*
X68335000Y58920000D01*
X68546730Y55675000D02*
X68546730Y58545000D01*
X69862700Y54025000D02*
X66240000Y54025000D01*
X73447390Y58545000D02*
X68546720Y58545000D01*
X73447390Y58545000D02*
X73665000Y58920000D01*
X73447390Y55675000D02*
X73447390Y58545000D01*
X73665000Y63555000D02*
X68335000Y63555000D01*
X73665000Y62840000D02*
X73665000Y63555000D01*
X73665000Y58920000D02*
X67906000Y59131000D01*
X73712690Y58920000D02*
X67906000Y59269000D01*
X73712690Y58920000D02*
X68285000Y59480000D01*
X73712690Y58920000D02*
X68285000Y58920000D01*
X73712690Y58920000D02*
X74094000Y59131000D01*
X73715000Y62840000D02*
X68335000Y62840000D01*
X73715000Y62280010D02*
X68335000Y62840000D01*
X73715000Y62280010D02*
X74094000Y62491000D01*
X73715000Y61720000D02*
X68285000Y62280010D01*
X73715000Y61720000D02*
X74094000Y61931000D01*
X73715000Y61160000D02*
X68285000Y61720000D01*
X73715000Y61160000D02*
X74094000Y61371000D01*
X73715000Y60600000D02*
X68285000Y61160000D01*
X73715000Y60600000D02*
X74094000Y60811000D01*
X73715000Y60040000D02*
X68285000Y60600000D01*
X73715000Y60040000D02*
X74094000Y60251000D01*
X73715000Y59480000D02*
X68285000Y60040000D01*
X73715000Y59480000D02*
X74094000Y59691000D01*
X74094000Y62629000D02*
X68335000Y62840000D01*
X74094000Y62629000D02*
X73715000Y62840000D01*
X74094000Y62491000D02*
X68335000Y62840000D01*
X74094000Y62491000D02*
X74094000Y62629000D01*
X74094000Y62069010D02*
X67906000Y62629000D01*
X74094000Y62069010D02*
X73715000Y62280010D01*
X74094000Y61931000D02*
X67906000Y62491000D01*
X74094000Y61931000D02*
X74094000Y62069010D01*
X74094000Y61509000D02*
X67906000Y62069010D01*
X74094000Y61509000D02*
X73715000Y61720000D01*
X74094000Y61371000D02*
X67906000Y61931000D01*
X74094000Y61371000D02*
X74094000Y61509000D01*
X74094000Y60949000D02*
X67906000Y61509000D01*
X74094000Y60949000D02*
X73715000Y61160000D01*
X74094000Y60811000D02*
X67906000Y61371000D01*
X74094000Y60811000D02*
X74094000Y60949000D01*
X74094000Y60389000D02*
X67906000Y60949000D01*
X74094000Y60389000D02*
X73715000Y60600000D01*
X74094000Y60251000D02*
X67906000Y60811000D01*
X74094000Y60251000D02*
X74094000Y60389000D01*
X74094000Y59829000D02*
X67906000Y60389000D01*
X74094000Y59829000D02*
X73715000Y60040000D01*
X74094000Y59691000D02*
X67906000Y60251000D01*
X74094000Y59691000D02*
X74094000Y59829000D01*
X74094000Y59269000D02*
X67906000Y59829000D01*
X74094000Y59269000D02*
X73715000Y59480000D01*
X74094000Y59131000D02*
X67906000Y59691000D01*
X74094000Y59131000D02*
X74094000Y59269000D01*
X75760000Y55675000D02*
X66240000Y55675000D01*
X75760000Y54025000D02*
X72137300Y54025000D01*
X75760000Y54025000D02*
X75760000Y55675000D01*
D12*
%TO.C,C6*%
X66090000Y32788748D02*
X66090000Y34211252D01*
X67910000Y32788748D02*
X67910000Y34211252D01*
%TO.C,U1*%
X70142500Y45360000D02*
X72722500Y45360000D01*
X72722500Y44380000D02*
X72722500Y45360000D01*
X72722500Y41620000D02*
X72722500Y40640000D01*
X72722500Y40640000D02*
X70002500Y40640000D01*
X69592500Y45210000D02*
X69352500Y45540000D01*
X69832500Y45540000D01*
X69592500Y45210000D01*
G36*
X69592500Y45210000D02*
G01*
X69352500Y45540000D01*
X69832500Y45540000D01*
X69592500Y45210000D01*
G37*
%TO.C,C22*%
X79590000Y15788748D02*
X79590000Y17211252D01*
X81410000Y15788748D02*
X81410000Y17211252D01*
%TO.C,C24*%
X72590000Y25461252D02*
X72590000Y24038748D01*
X74410000Y25461252D02*
X74410000Y24038748D01*
%TO.C,C46*%
X43090000Y3038748D02*
X43090000Y4461252D01*
X44910000Y3038748D02*
X44910000Y4461252D01*
%TO.C,FB2*%
X68590000Y39085242D02*
X68590000Y37414758D01*
X70410000Y39085242D02*
X70410000Y37414758D01*
%TO.C,C12*%
X71090000Y32788748D02*
X71090000Y34211252D01*
X72910000Y32788748D02*
X72910000Y34211252D01*
%TO.C,C28*%
X41438748Y34410000D02*
X42861252Y34410000D01*
X41438748Y32590000D02*
X42861252Y32590000D01*
%TO.C,R5*%
X60340000Y15772936D02*
X60340000Y17227064D01*
X62160000Y15772936D02*
X62160000Y17227064D01*
%TO.C,R10*%
X37590000Y47227064D02*
X37590000Y45772936D01*
X39410000Y47227064D02*
X39410000Y45772936D01*
%TO.C,C18*%
X60590000Y26961252D02*
X60590000Y25538748D01*
X62410000Y26961252D02*
X62410000Y25538748D01*
%TO.C,C16*%
X37590000Y35288748D02*
X37590000Y36711252D01*
X39410000Y35288748D02*
X39410000Y36711252D01*
%TO.C,C30*%
X41438748Y31910000D02*
X42861252Y31910000D01*
X41438748Y30090000D02*
X42861252Y30090000D01*
%TO.C,C38*%
X54961252Y15910000D02*
X53538748Y15910000D01*
X54961252Y14090000D02*
X53538748Y14090000D01*
%TO.C,C49*%
X38340000Y11038748D02*
X38340000Y12461252D01*
X40160000Y11038748D02*
X40160000Y12461252D01*
%TO.C,R6*%
X58090000Y15772936D02*
X58090000Y17227064D01*
X59910000Y15772936D02*
X59910000Y17227064D01*
%TO.C,R14*%
X27420000Y17227064D02*
X27420000Y15772936D01*
X29240000Y17227064D02*
X29240000Y15772936D01*
%TO.C,R4*%
X62840000Y17227064D02*
X62840000Y15772936D01*
X64660000Y17227064D02*
X64660000Y15772936D01*
%TO.C,C41*%
X24340000Y45788748D02*
X24340000Y47211252D01*
X26160000Y45788748D02*
X26160000Y47211252D01*
%TO.C,R8*%
X70090000Y17227064D02*
X70090000Y15772936D01*
X71910000Y17227064D02*
X71910000Y15772936D01*
%TO.C,U2*%
X28640000Y29560000D02*
X29115000Y29560000D01*
X28640000Y29085000D02*
X28640000Y29560000D01*
X28640000Y24815000D02*
X28640000Y24640000D01*
X29115000Y24340000D02*
X28880000Y24340000D01*
X33860000Y29560000D02*
X33385000Y29560000D01*
X33860000Y29085000D02*
X33860000Y29560000D01*
X33860000Y24815000D02*
X33860000Y24340000D01*
X33860000Y24340000D02*
X33385000Y24340000D01*
X28640000Y24340000D02*
X28310000Y24100000D01*
X28310000Y24580000D01*
X28640000Y24340000D01*
G36*
X28640000Y24340000D02*
G01*
X28310000Y24100000D01*
X28310000Y24580000D01*
X28640000Y24340000D01*
G37*
%TO.C,C42*%
X49590000Y2288748D02*
X49590000Y3711252D01*
X51410000Y2288748D02*
X51410000Y3711252D01*
%TO.C,J5*%
X8670000Y25920000D02*
X8670000Y27250000D01*
X10000000Y25920000D02*
X8670000Y25920000D01*
X11270000Y28580000D02*
X13870000Y28580000D01*
X11270000Y25920000D02*
X11270000Y28580000D01*
X11270000Y25920000D02*
X13870000Y25920000D01*
X13870000Y25920000D02*
X13870000Y28580000D01*
%TO.C,C32*%
X54961252Y10910000D02*
X53538748Y10910000D01*
X54961252Y9090000D02*
X53538748Y9090000D01*
%TO.C,C19*%
X57961252Y25910000D02*
X56538748Y25910000D01*
X57961252Y24090000D02*
X56538748Y24090000D01*
%TO.C,C14*%
X17840000Y37536252D02*
X17840000Y36113748D01*
X19660000Y37536252D02*
X19660000Y36113748D01*
%TO.C,C43*%
X47340000Y19211252D02*
X47340000Y17788748D01*
X49160000Y19211252D02*
X49160000Y17788748D01*
%TO.C,R11*%
X32590000Y36727064D02*
X32590000Y35272936D01*
X34410000Y36727064D02*
X34410000Y35272936D01*
%TO.C,C2*%
X65340000Y12461252D02*
X65340000Y11038748D01*
X67160000Y12461252D02*
X67160000Y11038748D01*
%TO.C,R2*%
X74590000Y15772936D02*
X74590000Y17227064D01*
X76410000Y15772936D02*
X76410000Y17227064D01*
%TO.C,C33*%
X56340000Y2288748D02*
X56340000Y3711252D01*
X58160000Y2288748D02*
X58160000Y3711252D01*
%TO.C,C44*%
X46590000Y3038748D02*
X46590000Y4461252D01*
X48410000Y3038748D02*
X48410000Y4461252D01*
%TO.C,R13*%
X25090000Y17227064D02*
X25090000Y15772936D01*
X26910000Y17227064D02*
X26910000Y15772936D01*
%TO.C,C1*%
X74211252Y30910000D02*
X72788748Y30910000D01*
X74211252Y29090000D02*
X72788748Y29090000D01*
%TD*%
M02*
