M48
; DRILL file {KiCad 8.0.2} date 2024-05-26T23:16:49+0700
; FORMAT={-:-/ absolute / metric / decimal}
; #@! TF.CreationDate,2024-05-26T23:16:49+07:00
; #@! TF.GenerationSoftware,Kicad,Pcbnew,8.0.2
; #@! TF.FileFunction,Plated,1,2,PTH
FMAT,2
METRIC
; #@! TA.AperFunction,Plated,PTH,ViaDrill
T1C0.400
; #@! TA.AperFunction,Plated,PTH,ComponentDrill
T2C0.500
; #@! TA.AperFunction,Plated,PTH,ComponentDrill
T3C1.000
; #@! TA.AperFunction,Plated,PTH,ComponentDrill
T4C1.720
; #@! TA.AperFunction,Plated,PTH,ComponentDrill
T5C3.200
%
G90
G05
T1
X8.0Y8.5
X8.25Y30.5
X15.75Y42.75
X21.25Y49.5
X21.25Y47.5
X21.25Y42.9
X21.75Y45.25
X22.75Y5.25
X24.25Y29.5
X24.25Y25.75
X24.25Y21.25
X25.5Y41.25
X26.0Y49.1
X26.25Y46.75
X26.75Y42.75
X28.25Y46.25
X28.25Y29.5
X28.25Y25.75
X28.25Y21.25
X28.5Y49.5
X29.0Y40.75
X30.25Y46.25
X30.25Y42.0
X31.2Y49.1
X31.25Y42.75
X31.5Y29.5
X32.25Y25.75
X32.25Y21.25
X33.25Y42.75
X33.25Y6.0
X33.25Y2.0
X34.5Y42.75
X35.5Y25.5
X35.5Y4.5
X35.5Y2.0
X35.6Y42.3
X35.6Y39.9
X35.6Y37.1
X35.6Y34.7
X35.6Y29.9
X35.6Y27.1
X40.75Y27.75
X40.8Y24.1
X40.8Y21.7
X40.8Y16.5
X40.8Y13.9
X40.8Y11.3
X40.8Y9.1
X40.8Y6.3
X40.8Y3.9
X41.75Y32.5
X42.25Y45.0
X43.05Y25.225
X44.5Y4.0
X45.25Y23.0
X45.25Y21.5
X45.5Y5.75
X46.75Y7.0
X47.5Y49.25
X47.95Y11.6
X48.0Y21.75
X50.4Y14.35
X50.425Y11.55
X50.75Y46.0
X50.75Y41.5
X50.75Y38.75
X50.75Y35.25
X50.75Y31.5
X52.0Y11.25
X52.0Y7.75
X52.5Y44.25
X52.8Y4.1
X53.0Y38.75
X53.0Y35.25
X53.0Y31.5
X54.0Y48.5
X54.0Y46.0
X54.0Y43.0
X54.0Y7.75
X54.0Y6.25
X55.75Y47.5
X55.75Y45.5
X55.75Y43.5
X55.75Y41.5
X55.75Y37.5
X56.25Y31.5
X56.5Y52.4
X56.5Y51.0
X56.5Y49.5
X57.5Y48.0
X58.0Y33.5
X58.75Y37.5
X59.25Y31.5
X59.9Y22.25
X60.75Y12.5
X60.775Y38.925
X62.125Y32.875
X62.25Y47.5
X62.25Y45.5
X62.25Y43.5
X62.25Y41.5
X62.25Y39.0
X62.75Y52.25
X62.75Y51.0
X62.75Y49.5
X63.225Y9.875
X63.25Y14.5
X64.0Y4.1
X64.1Y23.625
X64.125Y32.875
X64.275Y9.875
X64.75Y14.5
X65.25Y29.25
X65.45Y7.35
X65.75Y52.25
X65.75Y49.5
X66.25Y14.5
X66.475Y8.775
X68.05Y20.975
X68.525Y47.475
X68.75Y46.0
X68.75Y44.5
X68.975Y37.975
X69.25Y10.775
X69.25Y9.725
X69.75Y34.0
X70.5Y13.975
X70.75Y47.5
X70.75Y38.0
X70.75Y31.25
X70.75Y21.0
X71.25Y52.25
X71.25Y51.0
X71.25Y49.25
X71.5Y44.5
X71.55Y20.15
X71.675Y19.1
X72.125Y14.375
X72.25Y38.0
X72.75Y31.5
X72.75Y19.05
X73.25Y14.5
X74.0Y52.25
X74.2Y15.9
X74.3Y14.7
X76.25Y44.05
X76.25Y33.0
X76.25Y8.525
X76.25Y7.475
X77.0Y26.785
X77.0Y25.735
X77.75Y52.25
X77.75Y30.25
X77.75Y28.25
X78.25Y24.835
X78.25Y23.785
X78.3Y18.785
X78.3Y17.735
X78.5Y44.0
X78.5Y33.0
X78.75Y6.825
X81.0Y44.0
X81.0Y33.0
X81.0Y22.5
X83.25Y44.0
X83.25Y32.25
T2
X1.1Y50.5
X1.1Y3.5
X1.803Y52.197
X1.803Y48.803
X1.803Y5.197
X1.803Y1.803
X3.5Y52.9
X3.5Y48.1
X3.5Y5.9
X3.5Y1.1
X5.197Y52.197
X5.197Y48.803
X5.197Y5.197
X5.197Y1.803
X5.9Y50.5
X5.9Y3.5
X79.6Y3.5
X79.653Y50.553
X80.303Y5.197
X80.303Y1.803
X80.356Y52.25
X80.356Y48.856
X82.0Y5.9
X82.0Y1.1
X82.053Y52.953
X82.053Y48.153
X83.697Y5.197
X83.697Y1.803
X83.75Y52.25
X83.75Y48.856
X84.4Y3.5
X84.453Y50.553
T3
X10.225Y49.83
X10.225Y27.0
X10.225Y4.17
X10.25Y44.78
X10.25Y42.24
X10.25Y39.7
X10.25Y37.16
X10.25Y34.62
X10.25Y32.08
X10.25Y21.92
X10.25Y19.38
X10.25Y16.84
X10.25Y14.3
X10.25Y11.76
X10.25Y9.22
X12.765Y49.83
X12.765Y27.0
X12.765Y4.17
X12.79Y44.78
X12.79Y42.24
X12.79Y39.7
X12.79Y37.16
X12.79Y34.62
X12.79Y32.08
X12.79Y21.92
X12.79Y19.38
X12.79Y16.84
X12.79Y14.3
X12.79Y11.76
X12.79Y9.22
X46.7Y51.25
X49.24Y51.25
X51.78Y51.25
X54.32Y51.25
T4
X83.35Y27.55
X83.35Y14.95
T5
X3.5Y50.5
X3.5Y3.5
X82.0Y3.5
X82.053Y50.553
M30
