%TF.GenerationSoftware,Altium Limited,Altium Designer,19.1.7 (138)*%
G04 Layer_Physical_Order=3*
G04 Layer_Color=16440176*
%FSLAX45Y45*%
%MOMM*%
%TF.FileFunction,Copper,L3,Inr,Signal*%
%TF.Part,Single*%
G01*
G75*
%TA.AperFunction,Conductor*%
%ADD49C,0.30000*%
%TA.AperFunction,ComponentPad*%
%ADD53C,1.95000*%
%ADD54R,1.42500X1.42500*%
%ADD55C,1.42500*%
%ADD56R,1.65000X1.65000*%
%ADD57C,1.65000*%
%TA.AperFunction,ViaPad*%
%ADD58C,0.35000*%
G36*
X5663917Y4330115D02*
X5690747Y4319002D01*
X5714893Y4302867D01*
X5725159Y4292599D01*
X5736635Y4281125D01*
X5754668Y4254138D01*
X5767089Y4224152D01*
X5773420Y4192318D01*
X5773419Y4176090D01*
X5773419D01*
X5773420Y4176089D01*
Y3472180D01*
X5379720D01*
X5303520Y3411220D01*
X5303053Y3390613D01*
X5301797Y3389263D01*
X5299737Y3383741D01*
X5297444Y3378307D01*
X5295714Y3116210D01*
X5296371Y3114595D01*
X5296036Y3112885D01*
X5296742Y3111836D01*
X5288280Y2738120D01*
X5280660Y2174240D01*
X5097780Y2171700D01*
X5099943Y2108980D01*
X5087375Y2104930D01*
X5083111Y2111311D01*
X5072361Y2118494D01*
X5059680Y2121017D01*
X5046999Y2118494D01*
X5036249Y2111311D01*
X5029066Y2100561D01*
X5028873Y2099593D01*
X4983480Y2100580D01*
X4175760Y2095500D01*
X4165600Y2105660D01*
X4058920D01*
Y1763499D01*
X4046220Y1760516D01*
X4040931Y1768431D01*
X4030181Y1775614D01*
X4017500Y1778137D01*
X4004819Y1775614D01*
X3994069Y1768431D01*
X3986886Y1757681D01*
X3984363Y1745000D01*
X3986886Y1732319D01*
X3994069Y1721569D01*
X4004819Y1714386D01*
X4017500Y1711863D01*
X4030181Y1714386D01*
X4040931Y1721569D01*
X4046220Y1729484D01*
X4058920Y1726501D01*
Y833120D01*
X4057621Y830229D01*
X2472794Y825527D01*
X2463800Y834494D01*
Y990600D01*
X2451135Y1003671D01*
X2457498Y1015354D01*
X2459360Y1014983D01*
X2472041Y1017506D01*
X2482791Y1024689D01*
X2489974Y1035439D01*
X2492497Y1048120D01*
X2489974Y1060801D01*
X2482791Y1071551D01*
X2472041Y1078734D01*
X2459360Y1081257D01*
X2446679Y1078734D01*
X2435929Y1071551D01*
X2428746Y1060801D01*
X2426223Y1048120D01*
X2426346Y1047502D01*
X2414621Y1041353D01*
X2172563Y1291156D01*
X2146771Y1291121D01*
X2146300Y1291316D01*
X2146230Y1291287D01*
X2146160Y1291315D01*
X2119336Y1291083D01*
X1839036Y1290697D01*
X1832049Y1303388D01*
X1833997Y1313180D01*
X1831474Y1325861D01*
X1827427Y1331917D01*
X1831564Y1345006D01*
X1832258Y1345807D01*
X1837681Y1346886D01*
X1848431Y1354069D01*
X1855614Y1364819D01*
X1858136Y1377500D01*
X1855614Y1390181D01*
X1848431Y1400931D01*
X1837681Y1408114D01*
X1825000Y1410636D01*
X1812319Y1408114D01*
X1801569Y1400931D01*
X1794386Y1390181D01*
X1791863Y1377500D01*
X1794386Y1364819D01*
X1798433Y1358763D01*
X1794296Y1345674D01*
X1793602Y1344873D01*
X1788179Y1343794D01*
X1777429Y1336611D01*
X1770246Y1325861D01*
X1767723Y1313180D01*
X1769688Y1303302D01*
X1762754Y1290593D01*
X1564640Y1290320D01*
X1525904Y1329056D01*
Y1464944D01*
X1562100Y1501140D01*
X1626424D01*
X1630277Y1488440D01*
X1628049Y1486951D01*
X1620866Y1476201D01*
X1618343Y1463520D01*
X1620866Y1450839D01*
X1628049Y1440089D01*
X1638799Y1432906D01*
X1651480Y1430383D01*
X1664161Y1432906D01*
X1674911Y1440089D01*
X1682094Y1450839D01*
X1684616Y1463520D01*
X1682094Y1476201D01*
X1674911Y1486951D01*
X1672682Y1488440D01*
X1676535Y1501140D01*
X1686560D01*
X1712378Y1526958D01*
X1725677Y1522296D01*
X1731709Y1513269D01*
X1742459Y1506086D01*
X1755140Y1503563D01*
X1767821Y1506086D01*
X1778571Y1513269D01*
X1785754Y1524019D01*
X1788277Y1536700D01*
X1785754Y1549381D01*
X1779695Y1558448D01*
X1781612Y1565389D01*
X1784942Y1571148D01*
X1785619D01*
X1785636Y1821163D01*
X1668780Y1938020D01*
X1666240D01*
X1516380Y2087880D01*
X1363980Y2227580D01*
X1004034Y2220557D01*
X1003114Y2225181D01*
X995931Y2235931D01*
X985181Y2243114D01*
X972500Y2245637D01*
X959819Y2243114D01*
X949069Y2235931D01*
X941886Y2225181D01*
X940720Y2219321D01*
X843280Y2217420D01*
X657860Y2397760D01*
X665480Y2720340D01*
X853440Y2900680D01*
X2146300Y2893060D01*
X2199640Y2900680D01*
X2196395Y3104043D01*
X2208940Y3113827D01*
X2212980Y3113023D01*
X2225661Y3115546D01*
X2236411Y3122729D01*
X2243594Y3133479D01*
X2246117Y3146160D01*
X2243594Y3158841D01*
X2236411Y3169591D01*
X2225661Y3176774D01*
X2212980Y3179297D01*
X2207912Y3178289D01*
X2195065Y3187388D01*
X2191141Y3433282D01*
X2197874Y3443359D01*
X2200397Y3456040D01*
X2197874Y3468721D01*
X2190691Y3479471D01*
X2190401Y3479665D01*
X2184132Y3872528D01*
X2185157Y3877680D01*
X2183953Y3883731D01*
X2176942Y4323079D01*
X2188467Y4335780D01*
X5620914Y4335779D01*
X5635434Y4335780D01*
X5663917Y4330115D01*
D02*
G37*
G36*
X2143760Y4310380D02*
X2148671Y3910150D01*
X2139339Y3908294D01*
X2128589Y3901111D01*
X2121406Y3890361D01*
X2118883Y3877680D01*
X2121406Y3864999D01*
X2128589Y3854249D01*
X2139339Y3847066D01*
X2149469Y3845051D01*
X2153873Y3486182D01*
X2143829Y3479471D01*
X2136646Y3468721D01*
X2134123Y3456040D01*
X2136646Y3443359D01*
X2143829Y3432609D01*
X2154579Y3425426D01*
X2154618Y3425418D01*
X2160505Y2945669D01*
X2151580Y2936634D01*
X950211D01*
X946359Y2949334D01*
X951171Y2952549D01*
X958354Y2963299D01*
X960877Y2975980D01*
X958354Y2988661D01*
X951171Y2999411D01*
X940421Y3006594D01*
X927740Y3009117D01*
X915059Y3006594D01*
X904309Y2999411D01*
X897126Y2988661D01*
X894603Y2975980D01*
X897126Y2963299D01*
X904309Y2952549D01*
X909121Y2949334D01*
X905269Y2936634D01*
X851294D01*
X640080Y2725420D01*
Y2362200D01*
X825500Y2176780D01*
X1361440D01*
X1635760Y1902460D01*
Y1899920D01*
X1739900Y1795780D01*
Y1600200D01*
X1612090Y1525730D01*
X1531002D01*
X1530614Y1527681D01*
X1523431Y1538431D01*
X1512681Y1545614D01*
X1500000Y1548137D01*
X1487319Y1545614D01*
X1476569Y1538431D01*
X1469386Y1527681D01*
X1466863Y1515000D01*
X1469386Y1502319D01*
X1470491Y1500665D01*
X1460500Y1490674D01*
Y1324500D01*
X1484520Y1300480D01*
X1488440D01*
X1539240Y1249680D01*
X1559560Y1270000D01*
X2146300Y1275080D01*
X2428240Y993140D01*
Y805180D01*
X5046980D01*
X5106670Y864870D01*
Y1328282D01*
X5117126Y1335245D01*
X5119370Y1335657D01*
X5130800Y1333383D01*
X5143481Y1335906D01*
X5154231Y1343089D01*
X5161414Y1353839D01*
X5163937Y1366520D01*
X5161414Y1379201D01*
X5154231Y1389951D01*
X5143481Y1397134D01*
X5130800Y1399657D01*
X5119370Y1397383D01*
X5117126Y1397795D01*
X5106670Y1404758D01*
Y1438098D01*
X5108074Y1440199D01*
X5110597Y1452880D01*
X5108074Y1465561D01*
X5106670Y1467662D01*
Y1831975D01*
X5079365Y1859280D01*
X5052060D01*
X5036820Y1874520D01*
Y2048793D01*
X5040745Y2052060D01*
X5049520Y2056764D01*
X5059680Y2054743D01*
X5072361Y2057266D01*
X5083111Y2064449D01*
X5088584Y2072640D01*
X5128260D01*
Y2146300D01*
X5133340Y2151380D01*
X5308600D01*
Y2608580D01*
X5311422Y3036130D01*
X5324176Y3044252D01*
X5331460Y3042803D01*
X5344141Y3045326D01*
X5354891Y3052509D01*
X5362074Y3063259D01*
X5364597Y3075940D01*
X5362074Y3088621D01*
X5354891Y3099371D01*
X5344141Y3106554D01*
X5331460Y3109077D01*
X5324595Y3107711D01*
X5311950Y3116102D01*
X5313680Y3378200D01*
X5382260Y3451860D01*
X5770880D01*
X5773420Y180340D01*
X5773418Y148476D01*
X5773419Y133102D01*
X5767421Y102944D01*
X5755654Y74536D01*
X5738570Y48969D01*
X5727698Y38099D01*
Y38099D01*
X5727698Y38099D01*
X5727697D01*
X5718718Y29119D01*
X5706043Y16443D01*
X5680935Y-334D01*
X5653035Y-11891D01*
X5623418Y-17781D01*
X5608318Y-17780D01*
X144449D01*
X128220Y-17781D01*
X96387Y-11449D01*
X66401Y971D01*
X39414Y19003D01*
X17067Y41350D01*
X-15Y66916D01*
X-11782Y95324D01*
X-17780Y125482D01*
X-17780Y140856D01*
Y4175653D01*
X-17781Y4191381D01*
X-11644Y4222233D01*
X393Y4251294D01*
X17869Y4277449D01*
X45667Y4305246D01*
X52926Y4312506D01*
X70000Y4323915D01*
X88971Y4331772D01*
X109111Y4335777D01*
X119378Y4335776D01*
X119378Y4335777D01*
X2143760Y4335780D01*
Y4310380D01*
D02*
G37*
G36*
X5024120Y2057330D02*
X5023224Y2055166D01*
X5020652Y2050273D01*
X5020885Y2049521D01*
X5020584Y2048793D01*
Y1927521D01*
X5007884Y1926270D01*
X5005614Y1937681D01*
X4998431Y1948431D01*
X4987681Y1955614D01*
X4975000Y1958137D01*
X4962319Y1955614D01*
X4951569Y1948431D01*
X4944386Y1937681D01*
X4941863Y1925000D01*
X4944386Y1912319D01*
X4951569Y1901569D01*
X4962319Y1894386D01*
X4975000Y1891863D01*
X4987681Y1894386D01*
X4998431Y1901569D01*
X5005614Y1912319D01*
X5007884Y1923730D01*
X5020584Y1922479D01*
Y1874520D01*
X5024120Y1865984D01*
Y1844766D01*
X5019386Y1837681D01*
X5016863Y1825000D01*
X5019386Y1812319D01*
X5026569Y1801569D01*
X5037319Y1794386D01*
X5050000Y1791863D01*
X5062681Y1794386D01*
X5064371Y1795515D01*
X5074920Y1784966D01*
Y1400830D01*
X5067300Y1394577D01*
X5054619Y1392054D01*
X5043869Y1384871D01*
X5036686Y1374121D01*
X5034163Y1361440D01*
X5036686Y1348759D01*
X5043869Y1338009D01*
X5054619Y1330826D01*
X5067300Y1328303D01*
X5074920Y1322050D01*
Y934720D01*
X4968240Y828040D01*
X4107180D01*
X4076700Y855980D01*
Y1487762D01*
X4089400Y1496954D01*
X4094480Y1495943D01*
X4107161Y1498466D01*
X4117911Y1505649D01*
X4125094Y1516399D01*
X4127617Y1529080D01*
X4125094Y1541761D01*
X4117911Y1552511D01*
X4107161Y1559694D01*
X4094480Y1562217D01*
X4089400Y1561206D01*
X4076700Y1570398D01*
Y2072640D01*
X4081780Y2077720D01*
X4739161D01*
X4745949Y2065020D01*
X4744386Y2062681D01*
X4741864Y2050000D01*
X4744386Y2037319D01*
X4751569Y2026569D01*
X4762319Y2019386D01*
X4775000Y2016863D01*
X4787681Y2019386D01*
X4798431Y2026569D01*
X4805614Y2037319D01*
X4808137Y2050000D01*
X4805614Y2062681D01*
X4804051Y2065020D01*
X4810840Y2077720D01*
X5024120D01*
Y2057330D01*
D02*
G37*
%LPC*%
G36*
X4445640Y4276577D02*
X4432959Y4274054D01*
X4422209Y4266871D01*
X4415026Y4256121D01*
X4412503Y4243440D01*
X4415026Y4230759D01*
X4422209Y4220009D01*
X4432959Y4212826D01*
X4445640Y4210303D01*
X4458321Y4212826D01*
X4469071Y4220009D01*
X4476254Y4230759D01*
X4478777Y4243440D01*
X4476254Y4256121D01*
X4469071Y4266871D01*
X4458321Y4274054D01*
X4445640Y4276577D01*
D02*
G37*
G36*
X5037460Y4268957D02*
X5024779Y4266434D01*
X5014029Y4259251D01*
X5006846Y4248501D01*
X5004323Y4235820D01*
X5006846Y4223139D01*
X5014029Y4212389D01*
X5024779Y4205206D01*
X5037460Y4202683D01*
X5050141Y4205206D01*
X5060891Y4212389D01*
X5068074Y4223139D01*
X5070597Y4235820D01*
X5068074Y4248501D01*
X5060891Y4259251D01*
X5050141Y4266434D01*
X5037460Y4268957D01*
D02*
G37*
G36*
X3005460Y4261337D02*
X2992779Y4258814D01*
X2982029Y4251631D01*
X2974846Y4240881D01*
X2972323Y4228200D01*
X2974846Y4215519D01*
X2982029Y4204769D01*
X2992779Y4197586D01*
X3005460Y4195063D01*
X3018141Y4197586D01*
X3028891Y4204769D01*
X3036074Y4215519D01*
X3038597Y4228200D01*
X3036074Y4240881D01*
X3028891Y4251631D01*
X3018141Y4258814D01*
X3005460Y4261337D01*
D02*
G37*
G36*
X3561720Y4253717D02*
X3549039Y4251194D01*
X3538289Y4244011D01*
X3531106Y4233261D01*
X3528583Y4220580D01*
X3531106Y4207899D01*
X3538289Y4197149D01*
X3549039Y4189966D01*
X3561720Y4187443D01*
X3574401Y4189966D01*
X3585151Y4197149D01*
X3592334Y4207899D01*
X3594857Y4220580D01*
X3592334Y4233261D01*
X3585151Y4244011D01*
X3574401Y4251194D01*
X3561720Y4253717D01*
D02*
G37*
G36*
X2461900Y4243557D02*
X2449219Y4241034D01*
X2438469Y4233851D01*
X2431286Y4223101D01*
X2428763Y4210420D01*
X2431286Y4197739D01*
X2438469Y4186989D01*
X2449219Y4179806D01*
X2461900Y4177283D01*
X2474581Y4179806D01*
X2485331Y4186989D01*
X2492514Y4197739D01*
X2495037Y4210420D01*
X2492514Y4223101D01*
X2485331Y4233851D01*
X2474581Y4241034D01*
X2461900Y4243557D01*
D02*
G37*
G36*
X5601340Y4241017D02*
X5588659Y4238494D01*
X5577909Y4231311D01*
X5570726Y4220561D01*
X5568203Y4207880D01*
X5570726Y4195199D01*
X5577909Y4184449D01*
X5588659Y4177266D01*
X5601340Y4174743D01*
X5614021Y4177266D01*
X5624771Y4184449D01*
X5631954Y4195199D01*
X5634477Y4207880D01*
X5631954Y4220561D01*
X5624771Y4231311D01*
X5614021Y4238494D01*
X5601340Y4241017D01*
D02*
G37*
G36*
X3990980Y4101317D02*
X3978299Y4098794D01*
X3967549Y4091611D01*
X3960366Y4080861D01*
X3957843Y4068180D01*
X3960366Y4055499D01*
X3967549Y4044749D01*
X3978299Y4037566D01*
X3990980Y4035043D01*
X4003661Y4037566D01*
X4014411Y4044749D01*
X4021594Y4055499D01*
X4024117Y4068180D01*
X4021594Y4080861D01*
X4014411Y4091611D01*
X4003661Y4098794D01*
X3990980Y4101317D01*
D02*
G37*
G36*
X3495040Y4074277D02*
X3482359Y4071754D01*
X3471609Y4064571D01*
X3464426Y4053821D01*
X3461903Y4041140D01*
X3464426Y4028459D01*
X3471609Y4017709D01*
X3482359Y4010526D01*
X3495040Y4008003D01*
X3507721Y4010526D01*
X3518471Y4017709D01*
X3525654Y4028459D01*
X3528177Y4041140D01*
X3525654Y4053821D01*
X3518471Y4064571D01*
X3507721Y4071754D01*
X3495040Y4074277D01*
D02*
G37*
G36*
X4518660Y4071737D02*
X4505979Y4069214D01*
X4495229Y4062031D01*
X4488046Y4051281D01*
X4485523Y4038600D01*
X4488046Y4025919D01*
X4495229Y4015169D01*
X4505979Y4007986D01*
X4518660Y4005463D01*
X4531341Y4007986D01*
X4542091Y4015169D01*
X4549274Y4025919D01*
X4551797Y4038600D01*
X4549274Y4051281D01*
X4542091Y4062031D01*
X4531341Y4069214D01*
X4518660Y4071737D01*
D02*
G37*
G36*
X2677160Y4069197D02*
X2664479Y4066674D01*
X2653729Y4059491D01*
X2646546Y4048741D01*
X2644023Y4036060D01*
X2646546Y4023379D01*
X2653729Y4012629D01*
X2664479Y4005446D01*
X2677160Y4002923D01*
X2689841Y4005446D01*
X2700591Y4012629D01*
X2707774Y4023379D01*
X2710297Y4036060D01*
X2707774Y4048741D01*
X2700591Y4059491D01*
X2689841Y4066674D01*
X2677160Y4069197D01*
D02*
G37*
G36*
X5362580Y4055597D02*
X5349899Y4053074D01*
X5339149Y4045891D01*
X5331966Y4035141D01*
X5329443Y4022460D01*
X5331966Y4009779D01*
X5339149Y3999029D01*
X5349899Y3991846D01*
X5362580Y3989323D01*
X5375261Y3991846D01*
X5386011Y3999029D01*
X5393194Y4009779D01*
X5395717Y4022460D01*
X5393194Y4035141D01*
X5386011Y4045891D01*
X5375261Y4053074D01*
X5362580Y4055597D01*
D02*
G37*
G36*
X4867280Y4017497D02*
X4854599Y4014974D01*
X4843849Y4007791D01*
X4836666Y3997041D01*
X4834143Y3984360D01*
X4836666Y3971679D01*
X4843849Y3960929D01*
X4854599Y3953746D01*
X4867280Y3951223D01*
X4879961Y3953746D01*
X4890711Y3960929D01*
X4897894Y3971679D01*
X4900417Y3984360D01*
X4897894Y3997041D01*
X4890711Y4007791D01*
X4879961Y4014974D01*
X4867280Y4017497D01*
D02*
G37*
G36*
X5059680Y3810117D02*
X5046999Y3807594D01*
X5036249Y3800411D01*
X5029066Y3789661D01*
X5026543Y3776980D01*
X5029066Y3764299D01*
X5036249Y3753549D01*
X5046999Y3746366D01*
X5059680Y3743843D01*
X5072361Y3746366D01*
X5083111Y3753549D01*
X5090294Y3764299D01*
X5092817Y3776980D01*
X5090294Y3789661D01*
X5083111Y3800411D01*
X5072361Y3807594D01*
X5059680Y3810117D01*
D02*
G37*
G36*
X2566040Y3796517D02*
X2553359Y3793994D01*
X2542609Y3786811D01*
X2535426Y3776061D01*
X2532903Y3763380D01*
X2535426Y3750699D01*
X2542609Y3739949D01*
X2553359Y3732766D01*
X2566040Y3730243D01*
X2578721Y3732766D01*
X2589471Y3739949D01*
X2596654Y3750699D01*
X2599177Y3763380D01*
X2596654Y3776061D01*
X2589471Y3786811D01*
X2578721Y3793994D01*
X2566040Y3796517D01*
D02*
G37*
G36*
X5685160Y3786357D02*
X5672479Y3783834D01*
X5661729Y3776651D01*
X5654546Y3765901D01*
X5652023Y3753220D01*
X5654546Y3740539D01*
X5661729Y3729789D01*
X5672479Y3722606D01*
X5685160Y3720083D01*
X5697841Y3722606D01*
X5708591Y3729789D01*
X5715774Y3740539D01*
X5718297Y3753220D01*
X5715774Y3765901D01*
X5708591Y3776651D01*
X5697841Y3783834D01*
X5685160Y3786357D01*
D02*
G37*
G36*
X3724280Y3692377D02*
X3711599Y3689854D01*
X3700849Y3682671D01*
X3693666Y3671921D01*
X3691143Y3659240D01*
X3693666Y3646559D01*
X3700849Y3635809D01*
X3711599Y3628626D01*
X3724280Y3626103D01*
X3736961Y3628626D01*
X3747711Y3635809D01*
X3754894Y3646559D01*
X3757417Y3659240D01*
X3754894Y3671921D01*
X3747711Y3682671D01*
X3736961Y3689854D01*
X3724280Y3692377D01*
D02*
G37*
G36*
X4211960Y3654277D02*
X4199279Y3651754D01*
X4188529Y3644571D01*
X4181346Y3633821D01*
X4178823Y3621140D01*
X4181346Y3608459D01*
X4188529Y3597709D01*
X4199279Y3590526D01*
X4211960Y3588003D01*
X4224641Y3590526D01*
X4235391Y3597709D01*
X4242574Y3608459D01*
X4245097Y3621140D01*
X4242574Y3633821D01*
X4235391Y3644571D01*
X4224641Y3651754D01*
X4211960Y3654277D01*
D02*
G37*
G36*
X2408560Y3636497D02*
X2395879Y3633974D01*
X2385129Y3626791D01*
X2377946Y3616041D01*
X2375423Y3603360D01*
X2377946Y3590679D01*
X2385129Y3579929D01*
X2395879Y3572746D01*
X2408560Y3570223D01*
X2421241Y3572746D01*
X2431991Y3579929D01*
X2439174Y3590679D01*
X2441697Y3603360D01*
X2439174Y3616041D01*
X2431991Y3626791D01*
X2421241Y3633974D01*
X2408560Y3636497D01*
D02*
G37*
G36*
X5196840Y3578977D02*
X5184159Y3576454D01*
X5173409Y3569271D01*
X5166226Y3558521D01*
X5163703Y3545840D01*
X5166226Y3533159D01*
X5173409Y3522409D01*
X5184159Y3515226D01*
X5196840Y3512703D01*
X5209521Y3515226D01*
X5220271Y3522409D01*
X5227454Y3533159D01*
X5229977Y3545840D01*
X5227454Y3558521D01*
X5220271Y3569271D01*
X5209521Y3576454D01*
X5196840Y3578977D01*
D02*
G37*
G36*
X4853940Y3576437D02*
X4841259Y3573914D01*
X4830509Y3566731D01*
X4823326Y3555981D01*
X4820803Y3543300D01*
X4823326Y3530619D01*
X4830509Y3519869D01*
X4841259Y3512686D01*
X4853940Y3510163D01*
X4866621Y3512686D01*
X4877371Y3519869D01*
X4884554Y3530619D01*
X4887077Y3543300D01*
X4884554Y3555981D01*
X4877371Y3566731D01*
X4866621Y3573914D01*
X4853940Y3576437D01*
D02*
G37*
G36*
X2555880Y3311377D02*
X2543199Y3308854D01*
X2532449Y3301671D01*
X2525266Y3290921D01*
X2522743Y3278240D01*
X2525266Y3265559D01*
X2532449Y3254809D01*
X2543199Y3247626D01*
X2555880Y3245103D01*
X2568561Y3247626D01*
X2579311Y3254809D01*
X2586494Y3265559D01*
X2589017Y3278240D01*
X2586494Y3290921D01*
X2579311Y3301671D01*
X2568561Y3308854D01*
X2555880Y3311377D01*
D02*
G37*
G36*
X4765040Y3279257D02*
X4752359Y3276734D01*
X4741609Y3269551D01*
X4734426Y3258801D01*
X4731903Y3246120D01*
X4734426Y3233439D01*
X4741609Y3222689D01*
X4752359Y3215506D01*
X4765040Y3212983D01*
X4777721Y3215506D01*
X4788471Y3222689D01*
X4795654Y3233439D01*
X4798177Y3246120D01*
X4795654Y3258801D01*
X4788471Y3269551D01*
X4777721Y3276734D01*
X4765040Y3279257D01*
D02*
G37*
G36*
X4859020Y3274177D02*
X4846339Y3271654D01*
X4835589Y3264471D01*
X4828406Y3253721D01*
X4825883Y3241040D01*
X4828406Y3228359D01*
X4835589Y3217609D01*
X4846339Y3210426D01*
X4859020Y3207903D01*
X4871701Y3210426D01*
X4882451Y3217609D01*
X4889634Y3228359D01*
X4892157Y3241040D01*
X4889634Y3253721D01*
X4882451Y3264471D01*
X4871701Y3271654D01*
X4859020Y3274177D01*
D02*
G37*
G36*
X2981960D02*
X2969279Y3271654D01*
X2958529Y3264471D01*
X2951346Y3253721D01*
X2948823Y3241040D01*
X2951346Y3228359D01*
X2958529Y3217609D01*
X2969279Y3210426D01*
X2981960Y3207903D01*
X2994641Y3210426D01*
X3005391Y3217609D01*
X3012574Y3228359D01*
X3015097Y3241040D01*
X3012574Y3253721D01*
X3005391Y3264471D01*
X2994641Y3271654D01*
X2981960Y3274177D01*
D02*
G37*
G36*
X3403600Y3271637D02*
X3390919Y3269114D01*
X3380169Y3261931D01*
X3372986Y3251181D01*
X3370463Y3238500D01*
X3372986Y3225819D01*
X3380169Y3215069D01*
X3390919Y3207886D01*
X3403600Y3205363D01*
X3416281Y3207886D01*
X3427031Y3215069D01*
X3434214Y3225819D01*
X3436737Y3238500D01*
X3434214Y3251181D01*
X3427031Y3261931D01*
X3416281Y3269114D01*
X3403600Y3271637D01*
D02*
G37*
G36*
X3185160Y3269097D02*
X3172479Y3266574D01*
X3161729Y3259391D01*
X3154546Y3248641D01*
X3152023Y3235960D01*
X3154546Y3223279D01*
X3161729Y3212529D01*
X3172479Y3205346D01*
X3185160Y3202823D01*
X3197841Y3205346D01*
X3208591Y3212529D01*
X3215774Y3223279D01*
X3218297Y3235960D01*
X3215774Y3248641D01*
X3208591Y3259391D01*
X3197841Y3266574D01*
X3185160Y3269097D01*
D02*
G37*
G36*
X2763520D02*
X2750839Y3266574D01*
X2740089Y3259391D01*
X2732906Y3248641D01*
X2730383Y3235960D01*
X2732906Y3223279D01*
X2740089Y3212529D01*
X2750839Y3205346D01*
X2763520Y3202823D01*
X2776201Y3205346D01*
X2786951Y3212529D01*
X2794134Y3223279D01*
X2796657Y3235960D01*
X2794134Y3248641D01*
X2786951Y3259391D01*
X2776201Y3266574D01*
X2763520Y3269097D01*
D02*
G37*
G36*
X5237480Y3220837D02*
X5224799Y3218314D01*
X5214049Y3211131D01*
X5206866Y3200381D01*
X5204343Y3187700D01*
X5206866Y3175019D01*
X5214049Y3164269D01*
X5224799Y3157086D01*
X5237480Y3154563D01*
X5250161Y3157086D01*
X5260911Y3164269D01*
X5268094Y3175019D01*
X5270617Y3187700D01*
X5268094Y3200381D01*
X5260911Y3211131D01*
X5250161Y3218314D01*
X5237480Y3220837D01*
D02*
G37*
G36*
X4333240Y3208137D02*
X4320559Y3205614D01*
X4309809Y3198431D01*
X4302626Y3187681D01*
X4300103Y3175000D01*
X4302626Y3162319D01*
X4309809Y3151569D01*
X4320559Y3144386D01*
X4333240Y3141863D01*
X4345921Y3144386D01*
X4356671Y3151569D01*
X4363854Y3162319D01*
X4366377Y3175000D01*
X4363854Y3187681D01*
X4356671Y3198431D01*
X4345921Y3205614D01*
X4333240Y3208137D01*
D02*
G37*
G36*
X4559300Y3205597D02*
X4546619Y3203074D01*
X4535869Y3195891D01*
X4528686Y3185141D01*
X4526163Y3172460D01*
X4528686Y3159779D01*
X4535869Y3149029D01*
X4546619Y3141846D01*
X4559300Y3139323D01*
X4571981Y3141846D01*
X4582731Y3149029D01*
X4589914Y3159779D01*
X4592437Y3172460D01*
X4589914Y3185141D01*
X4582731Y3195891D01*
X4571981Y3203074D01*
X4559300Y3205597D01*
D02*
G37*
G36*
X3615060Y3171677D02*
X3602379Y3169154D01*
X3591629Y3161971D01*
X3584446Y3151221D01*
X3581923Y3138540D01*
X3584446Y3125859D01*
X3591629Y3115109D01*
X3602379Y3107926D01*
X3615060Y3105403D01*
X3627741Y3107926D01*
X3638491Y3115109D01*
X3645674Y3125859D01*
X3648197Y3138540D01*
X3645674Y3151221D01*
X3638491Y3161971D01*
X3627741Y3169154D01*
X3615060Y3171677D01*
D02*
G37*
G36*
X4010660Y3093837D02*
X3997979Y3091314D01*
X3987229Y3084131D01*
X3980046Y3073381D01*
X3977523Y3060700D01*
X3980046Y3048019D01*
X3987229Y3037269D01*
X3997979Y3030086D01*
X4010660Y3027563D01*
X4023341Y3030086D01*
X4034091Y3037269D01*
X4041274Y3048019D01*
X4043797Y3060700D01*
X4041274Y3073381D01*
X4034091Y3084131D01*
X4023341Y3091314D01*
X4010660Y3093837D01*
D02*
G37*
G36*
X4464430Y3084567D02*
X4451749Y3082044D01*
X4440999Y3074861D01*
X4433816Y3064111D01*
X4431293Y3051430D01*
X4433816Y3038750D01*
X4440999Y3027999D01*
X4451749Y3020816D01*
X4464430Y3018294D01*
X4477111Y3020816D01*
X4487861Y3027999D01*
X4495044Y3038750D01*
X4497567Y3051430D01*
X4495044Y3064111D01*
X4487861Y3074861D01*
X4477111Y3082044D01*
X4464430Y3084567D01*
D02*
G37*
G36*
X4589780Y3103997D02*
X4577099Y3101474D01*
X4566349Y3094291D01*
X4559166Y3083541D01*
X4556643Y3070860D01*
X4559166Y3058179D01*
X4566349Y3047429D01*
X4577099Y3040246D01*
X4587449Y3038187D01*
X4599823Y3035300D01*
X4602346Y3022619D01*
X4609529Y3011869D01*
X4620279Y3004686D01*
X4632960Y3002163D01*
X4645641Y3004686D01*
X4655011Y3010947D01*
X4657789Y3006789D01*
X4668539Y2999606D01*
X4681220Y2997083D01*
X4693901Y2999606D01*
X4702580Y3005405D01*
X4703946Y3004839D01*
X4711129Y2994089D01*
X4721879Y2986906D01*
X4734560Y2984383D01*
X4747241Y2986906D01*
X4757991Y2994089D01*
X4765174Y3004839D01*
X4767697Y3017520D01*
X4765174Y3030201D01*
X4757991Y3040951D01*
X4747241Y3048134D01*
X4734560Y3050657D01*
X4721879Y3048134D01*
X4713200Y3042335D01*
X4711834Y3042901D01*
X4704651Y3053651D01*
X4693901Y3060834D01*
X4681220Y3063357D01*
X4668539Y3060834D01*
X4659169Y3054573D01*
X4656391Y3058731D01*
X4645641Y3065914D01*
X4635291Y3067973D01*
X4632842Y3068544D01*
X4621285Y3079063D01*
X4620394Y3083541D01*
X4613211Y3094291D01*
X4602461Y3101474D01*
X4589780Y3103997D01*
D02*
G37*
G36*
X2929260Y3029437D02*
X2916579Y3026914D01*
X2905829Y3019731D01*
X2898646Y3008981D01*
X2896123Y2996300D01*
X2898646Y2983619D01*
X2905829Y2972869D01*
X2916579Y2965686D01*
X2929260Y2963163D01*
X2941941Y2965686D01*
X2952691Y2972869D01*
X2959874Y2983619D01*
X2962397Y2996300D01*
X2959874Y3008981D01*
X2952691Y3019731D01*
X2941941Y3026914D01*
X2929260Y3029437D01*
D02*
G37*
G36*
X4904740Y3002397D02*
X4892059Y2999874D01*
X4881309Y2992691D01*
X4874126Y2981941D01*
X4871603Y2969260D01*
X4874126Y2956579D01*
X4881309Y2945829D01*
X4892059Y2938646D01*
X4904740Y2936123D01*
X4917421Y2938646D01*
X4928171Y2945829D01*
X4935354Y2956579D01*
X4937877Y2969260D01*
X4935354Y2981941D01*
X4928171Y2992691D01*
X4917421Y2999874D01*
X4904740Y3002397D01*
D02*
G37*
G36*
X4140200D02*
X4127519Y2999874D01*
X4116769Y2992691D01*
X4109586Y2981941D01*
X4107063Y2969260D01*
X4109586Y2956579D01*
X4116769Y2945829D01*
X4127519Y2938646D01*
X4140200Y2936123D01*
X4152881Y2938646D01*
X4163631Y2945829D01*
X4170814Y2956579D01*
X4173337Y2969260D01*
X4170814Y2981941D01*
X4163631Y2992691D01*
X4152881Y2999874D01*
X4140200Y3002397D01*
D02*
G37*
G36*
X2576200Y2937997D02*
X2563519Y2935474D01*
X2552769Y2928291D01*
X2545586Y2917541D01*
X2543063Y2904860D01*
X2545586Y2892179D01*
X2552769Y2881429D01*
X2563519Y2874246D01*
X2576200Y2871723D01*
X2588881Y2874246D01*
X2599631Y2881429D01*
X2606814Y2892179D01*
X2609337Y2904860D01*
X2606814Y2917541D01*
X2599631Y2928291D01*
X2588881Y2935474D01*
X2576200Y2937997D01*
D02*
G37*
G36*
X4719920Y2883136D02*
X4707239Y2880614D01*
X4696489Y2873431D01*
X4689306Y2862681D01*
X4688894Y2860613D01*
X4675946D01*
X4675534Y2862681D01*
X4668351Y2873431D01*
X4657601Y2880614D01*
X4644920Y2883136D01*
X4632239Y2880614D01*
X4621489Y2873431D01*
X4614306Y2862681D01*
X4613895Y2860612D01*
X4600946D01*
X4600534Y2862681D01*
X4593351Y2873431D01*
X4582601Y2880614D01*
X4569920Y2883136D01*
X4557239Y2880614D01*
X4546489Y2873431D01*
X4539306Y2862681D01*
X4538894Y2860612D01*
X4525945D01*
X4525534Y2862681D01*
X4518351Y2873431D01*
X4507601Y2880614D01*
X4494920Y2883136D01*
X4482239Y2880614D01*
X4471489Y2873431D01*
X4464306Y2862681D01*
X4463894Y2860613D01*
X4450946D01*
X4450534Y2862681D01*
X4443351Y2873431D01*
X4432601Y2880614D01*
X4419920Y2883136D01*
X4407239Y2880614D01*
X4396489Y2873431D01*
X4389306Y2862681D01*
X4386783Y2850000D01*
X4389306Y2837319D01*
X4396489Y2826569D01*
X4407239Y2819386D01*
X4409307Y2818974D01*
Y2806026D01*
X4407239Y2805614D01*
X4396489Y2798431D01*
X4389306Y2787681D01*
X4386783Y2775000D01*
X4389306Y2762319D01*
X4396489Y2751569D01*
X4407239Y2744386D01*
X4409308Y2743974D01*
Y2731026D01*
X4407239Y2730614D01*
X4396489Y2723431D01*
X4389306Y2712681D01*
X4386783Y2700000D01*
X4389306Y2687319D01*
X4396489Y2676569D01*
X4407239Y2669386D01*
X4409307Y2668974D01*
Y2656026D01*
X4407239Y2655614D01*
X4396489Y2648431D01*
X4389306Y2637681D01*
X4386783Y2625000D01*
X4389306Y2612319D01*
X4396489Y2601569D01*
X4407239Y2594386D01*
X4409308Y2593974D01*
Y2581026D01*
X4407239Y2580614D01*
X4396489Y2573431D01*
X4389306Y2562681D01*
X4386783Y2550000D01*
X4389306Y2537319D01*
X4396489Y2526569D01*
X4407239Y2519386D01*
X4419920Y2516863D01*
X4432601Y2519386D01*
X4443351Y2526569D01*
X4450534Y2537319D01*
X4450946Y2539387D01*
X4463894D01*
X4464306Y2537319D01*
X4471489Y2526569D01*
X4482239Y2519386D01*
X4494920Y2516863D01*
X4507601Y2519386D01*
X4518351Y2526569D01*
X4525534Y2537319D01*
X4525945Y2539388D01*
X4538894D01*
X4539306Y2537319D01*
X4546489Y2526569D01*
X4557239Y2519386D01*
X4569920Y2516863D01*
X4582601Y2519386D01*
X4593351Y2526569D01*
X4600534Y2537319D01*
X4600946Y2539388D01*
X4613895D01*
X4614306Y2537319D01*
X4621489Y2526569D01*
X4632239Y2519386D01*
X4644920Y2516863D01*
X4657601Y2519386D01*
X4668351Y2526569D01*
X4675534Y2537319D01*
X4675946Y2539387D01*
X4688894D01*
X4689306Y2537319D01*
X4696489Y2526569D01*
X4707239Y2519386D01*
X4719920Y2516863D01*
X4732601Y2519386D01*
X4743351Y2526569D01*
X4750534Y2537319D01*
X4753057Y2550000D01*
X4750534Y2562681D01*
X4743351Y2573431D01*
X4732601Y2580614D01*
X4730532Y2581026D01*
Y2593974D01*
X4732601Y2594386D01*
X4743351Y2601569D01*
X4750534Y2612319D01*
X4753057Y2625000D01*
X4750534Y2637681D01*
X4743351Y2648431D01*
X4732601Y2655614D01*
X4730533Y2656026D01*
Y2668974D01*
X4732601Y2669386D01*
X4743351Y2676569D01*
X4750534Y2687319D01*
X4753057Y2700000D01*
X4750534Y2712681D01*
X4743351Y2723431D01*
X4732601Y2730614D01*
X4730532Y2731026D01*
Y2743974D01*
X4732601Y2744386D01*
X4743351Y2751569D01*
X4750534Y2762319D01*
X4753057Y2775000D01*
X4750534Y2787681D01*
X4743351Y2798431D01*
X4732601Y2805614D01*
X4730533Y2806026D01*
Y2818974D01*
X4732601Y2819386D01*
X4743351Y2826569D01*
X4750534Y2837319D01*
X4753057Y2850000D01*
X4750534Y2862681D01*
X4743351Y2873431D01*
X4732601Y2880614D01*
X4719920Y2883136D01*
D02*
G37*
G36*
X4137660Y2900797D02*
X4124979Y2898274D01*
X4114229Y2891091D01*
X4107046Y2880341D01*
X4104523Y2867660D01*
X4107046Y2854979D01*
X4114229Y2844229D01*
X4124979Y2837046D01*
X4137660Y2834523D01*
X4150341Y2837046D01*
X4161091Y2844229D01*
X4168274Y2854979D01*
X4170797Y2867660D01*
X4168274Y2880341D01*
X4161091Y2891091D01*
X4150341Y2898274D01*
X4137660Y2900797D01*
D02*
G37*
G36*
X5085080Y2870317D02*
X5072399Y2867794D01*
X5061649Y2860611D01*
X5054466Y2849861D01*
X5051943Y2837180D01*
X5054466Y2824499D01*
X5061649Y2813749D01*
X5072399Y2806566D01*
X5085080Y2804043D01*
X5097761Y2806566D01*
X5108511Y2813749D01*
X5115694Y2824499D01*
X5118217Y2837180D01*
X5115694Y2849861D01*
X5108511Y2860611D01*
X5097761Y2867794D01*
X5085080Y2870317D01*
D02*
G37*
G36*
X2286640Y2846557D02*
X2273959Y2844034D01*
X2263209Y2836851D01*
X2256026Y2826101D01*
X2253503Y2813420D01*
X2256026Y2800739D01*
X2263209Y2789989D01*
X2273959Y2782806D01*
X2286640Y2780283D01*
X2299321Y2782806D01*
X2310071Y2789989D01*
X2317254Y2800739D01*
X2319777Y2813420D01*
X2317254Y2826101D01*
X2310071Y2836851D01*
X2299321Y2844034D01*
X2286640Y2846557D01*
D02*
G37*
G36*
X1960880Y2819517D02*
X1948199Y2816994D01*
X1937449Y2809811D01*
X1930266Y2799061D01*
X1927743Y2786380D01*
X1930266Y2773699D01*
X1937449Y2762949D01*
X1948199Y2755766D01*
X1960880Y2753243D01*
X1973561Y2755766D01*
X1984311Y2762949D01*
X1991494Y2773699D01*
X1994017Y2786380D01*
X1991494Y2799061D01*
X1984311Y2809811D01*
X1973561Y2816994D01*
X1960880Y2819517D01*
D02*
G37*
G36*
X1836420Y2806817D02*
X1823739Y2804294D01*
X1812989Y2797111D01*
X1805806Y2786361D01*
X1803283Y2773680D01*
X1805806Y2760999D01*
X1812989Y2750249D01*
X1823739Y2743066D01*
X1836420Y2740543D01*
X1849101Y2743066D01*
X1859851Y2750249D01*
X1867034Y2760999D01*
X1869557Y2773680D01*
X1867034Y2786361D01*
X1859851Y2797111D01*
X1849101Y2804294D01*
X1836420Y2806817D01*
D02*
G37*
G36*
X4137660Y2804277D02*
X4124979Y2801754D01*
X4114229Y2794571D01*
X4107046Y2783821D01*
X4104523Y2771140D01*
X4107046Y2758459D01*
X4114229Y2747709D01*
X4124979Y2740526D01*
X4137660Y2738003D01*
X4150341Y2740526D01*
X4161091Y2747709D01*
X4168274Y2758459D01*
X4170797Y2771140D01*
X4168274Y2783821D01*
X4161091Y2794571D01*
X4150341Y2801754D01*
X4137660Y2804277D01*
D02*
G37*
G36*
X1701800Y2796657D02*
X1689119Y2794134D01*
X1678369Y2786951D01*
X1671186Y2776201D01*
X1668663Y2763520D01*
X1671186Y2750839D01*
X1678369Y2740089D01*
X1689119Y2732906D01*
X1701800Y2730383D01*
X1714481Y2732906D01*
X1725231Y2740089D01*
X1732414Y2750839D01*
X1734937Y2763520D01*
X1732414Y2776201D01*
X1725231Y2786951D01*
X1714481Y2794134D01*
X1701800Y2796657D01*
D02*
G37*
G36*
X1455420Y2722997D02*
X1442739Y2720474D01*
X1431989Y2713291D01*
X1424806Y2702541D01*
X1422283Y2689860D01*
X1424806Y2677179D01*
X1431989Y2666429D01*
X1442739Y2659246D01*
X1455420Y2656723D01*
X1468101Y2659246D01*
X1478851Y2666429D01*
X1486034Y2677179D01*
X1488557Y2689860D01*
X1486034Y2702541D01*
X1478851Y2713291D01*
X1468101Y2720474D01*
X1455420Y2722997D01*
D02*
G37*
G36*
X5232400Y2715377D02*
X5219719Y2712854D01*
X5208969Y2705671D01*
X5201786Y2694921D01*
X5199263Y2682240D01*
X5201786Y2669559D01*
X5208969Y2658809D01*
X5219719Y2651626D01*
X5232400Y2649103D01*
X5245081Y2651626D01*
X5255831Y2658809D01*
X5263014Y2669559D01*
X5265537Y2682240D01*
X5263014Y2694921D01*
X5255831Y2705671D01*
X5245081Y2712854D01*
X5232400Y2715377D01*
D02*
G37*
G36*
X4140200Y2700137D02*
X4127519Y2697614D01*
X4116769Y2690431D01*
X4109586Y2679681D01*
X4107063Y2667000D01*
X4109586Y2654319D01*
X4116769Y2643569D01*
X4127519Y2636386D01*
X4140200Y2633863D01*
X4152881Y2636386D01*
X4163631Y2643569D01*
X4170814Y2654319D01*
X4173337Y2667000D01*
X4170814Y2679681D01*
X4163631Y2690431D01*
X4152881Y2697614D01*
X4140200Y2700137D01*
D02*
G37*
G36*
X4071620Y2644257D02*
X4058939Y2641734D01*
X4048189Y2634551D01*
X4041006Y2623801D01*
X4038483Y2611120D01*
X4041006Y2598439D01*
X4048189Y2587689D01*
X4058939Y2580506D01*
X4071620Y2577983D01*
X4084301Y2580506D01*
X4095051Y2587689D01*
X4102234Y2598439D01*
X4104757Y2611120D01*
X4102234Y2623801D01*
X4095051Y2634551D01*
X4084301Y2641734D01*
X4071620Y2644257D01*
D02*
G37*
G36*
X2548260Y2628117D02*
X2535579Y2625594D01*
X2524829Y2618411D01*
X2517646Y2607661D01*
X2515123Y2594980D01*
X2517646Y2582299D01*
X2524829Y2571549D01*
X2535579Y2564366D01*
X2548260Y2561843D01*
X2560941Y2564366D01*
X2571691Y2571549D01*
X2578874Y2582299D01*
X2581397Y2594980D01*
X2578874Y2607661D01*
X2571691Y2618411D01*
X2560941Y2625594D01*
X2548260Y2628117D01*
D02*
G37*
G36*
X1231900Y2623937D02*
X1219219Y2621414D01*
X1208469Y2614231D01*
X1201286Y2603481D01*
X1198763Y2590800D01*
X1201286Y2578119D01*
X1208469Y2567369D01*
X1219219Y2560186D01*
X1231900Y2557663D01*
X1244581Y2560186D01*
X1255331Y2567369D01*
X1262514Y2578119D01*
X1265037Y2590800D01*
X1262514Y2603481D01*
X1255331Y2614231D01*
X1244581Y2621414D01*
X1231900Y2623937D01*
D02*
G37*
G36*
X5011420Y2621397D02*
X4998739Y2618874D01*
X4987989Y2611691D01*
X4980806Y2600941D01*
X4978283Y2588260D01*
X4980806Y2575579D01*
X4987989Y2564829D01*
X4998739Y2557646D01*
X5011420Y2555123D01*
X5024101Y2557646D01*
X5034851Y2564829D01*
X5042034Y2575579D01*
X5044557Y2588260D01*
X5042034Y2600941D01*
X5034851Y2611691D01*
X5024101Y2618874D01*
X5011420Y2621397D01*
D02*
G37*
G36*
X2387600Y2580757D02*
X2374919Y2578234D01*
X2364169Y2571051D01*
X2356986Y2560301D01*
X2354463Y2547620D01*
X2356986Y2534939D01*
X2364169Y2524189D01*
X2374919Y2517006D01*
X2387600Y2514483D01*
X2400281Y2517006D01*
X2411031Y2524189D01*
X2418214Y2534939D01*
X2420737Y2547620D01*
X2418214Y2560301D01*
X2411031Y2571051D01*
X2400281Y2578234D01*
X2387600Y2580757D01*
D02*
G37*
G36*
X1229360Y2491857D02*
X1216679Y2489334D01*
X1205929Y2482151D01*
X1198746Y2471401D01*
X1196223Y2458720D01*
X1198746Y2446039D01*
X1205929Y2435289D01*
X1216679Y2428106D01*
X1229360Y2425583D01*
X1242041Y2428106D01*
X1252791Y2435289D01*
X1259974Y2446039D01*
X1262497Y2458720D01*
X1259974Y2471401D01*
X1252791Y2482151D01*
X1242041Y2489334D01*
X1229360Y2491857D01*
D02*
G37*
G36*
X3498220Y2475717D02*
X3485539Y2473194D01*
X3474789Y2466011D01*
X3467606Y2455261D01*
X3465083Y2442580D01*
X3467606Y2429899D01*
X3474789Y2419149D01*
X3485539Y2411966D01*
X3498220Y2409443D01*
X3510901Y2411966D01*
X3521651Y2419149D01*
X3528834Y2429899D01*
X3531357Y2442580D01*
X3528834Y2455261D01*
X3521651Y2466011D01*
X3510901Y2473194D01*
X3498220Y2475717D01*
D02*
G37*
G36*
X3100000Y2473137D02*
X3087319Y2470614D01*
X3076569Y2463431D01*
X3069386Y2452681D01*
X3066863Y2440000D01*
X3069386Y2427319D01*
X3076569Y2416569D01*
X3087319Y2409386D01*
X3100000Y2406863D01*
X3112681Y2409386D01*
X3123431Y2416569D01*
X3130614Y2427319D01*
X3133136Y2440000D01*
X3130614Y2452681D01*
X3123431Y2463431D01*
X3112681Y2470614D01*
X3100000Y2473137D01*
D02*
G37*
G36*
X2595000D02*
X2582319Y2470614D01*
X2571569Y2463431D01*
X2564386Y2452681D01*
X2561863Y2440000D01*
X2564386Y2427319D01*
X2571569Y2416569D01*
X2582319Y2409386D01*
X2595000Y2406863D01*
X2607681Y2409386D01*
X2618431Y2416569D01*
X2625614Y2427319D01*
X2628136Y2440000D01*
X2625614Y2452681D01*
X2618431Y2463431D01*
X2607681Y2470614D01*
X2595000Y2473137D01*
D02*
G37*
G36*
X3000000Y2465637D02*
X2987319Y2463114D01*
X2976569Y2455931D01*
X2969386Y2445181D01*
X2966864Y2432500D01*
X2969386Y2419819D01*
X2976569Y2409069D01*
X2987319Y2401886D01*
X3000000Y2399364D01*
X3012681Y2401886D01*
X3023431Y2409069D01*
X3030614Y2419819D01*
X3033137Y2432500D01*
X3030614Y2445181D01*
X3023431Y2455931D01*
X3012681Y2463114D01*
X3000000Y2465637D01*
D02*
G37*
G36*
X4961890Y2495667D02*
X4949209Y2493144D01*
X4938459Y2485961D01*
X4931276Y2475211D01*
X4928753Y2462530D01*
X4931276Y2449849D01*
X4938459Y2439099D01*
X4949209Y2431916D01*
X4960792Y2429612D01*
X4963096Y2418029D01*
X4970279Y2407279D01*
X4981029Y2400096D01*
X4993710Y2397574D01*
X5006391Y2400096D01*
X5017141Y2407279D01*
X5024324Y2418029D01*
X5026846Y2430710D01*
X5024324Y2443391D01*
X5017141Y2454141D01*
X5006391Y2461324D01*
X4994808Y2463628D01*
X4992504Y2475211D01*
X4985321Y2485961D01*
X4974571Y2493144D01*
X4961890Y2495667D01*
D02*
G37*
G36*
X5237480Y2512177D02*
X5224799Y2509654D01*
X5214049Y2502471D01*
X5206866Y2491721D01*
X5204343Y2479040D01*
X5206866Y2466360D01*
X5198252Y2456391D01*
X5191189Y2451671D01*
X5184006Y2440921D01*
X5181483Y2428240D01*
X5184006Y2415559D01*
X5191189Y2404809D01*
X5201939Y2397626D01*
X5214620Y2395103D01*
X5227301Y2397626D01*
X5238051Y2404809D01*
X5245234Y2415559D01*
X5247757Y2428240D01*
X5245234Y2440920D01*
X5253848Y2450889D01*
X5260911Y2455609D01*
X5268094Y2466359D01*
X5270617Y2479040D01*
X5268094Y2491721D01*
X5260911Y2502471D01*
X5250161Y2509654D01*
X5237480Y2512177D01*
D02*
G37*
G36*
X4384040Y2453757D02*
X4371359Y2451234D01*
X4360609Y2444051D01*
X4353426Y2433301D01*
X4350903Y2420620D01*
X4353426Y2407939D01*
X4360609Y2397189D01*
X4371359Y2390006D01*
X4384040Y2387483D01*
X4396721Y2390006D01*
X4405980Y2396193D01*
X4408869Y2391869D01*
X4419619Y2384686D01*
X4432300Y2382164D01*
X4444981Y2384686D01*
X4450359Y2388280D01*
X4454589Y2381949D01*
X4465339Y2374766D01*
X4478020Y2372243D01*
X4490701Y2374766D01*
X4501451Y2381949D01*
X4507360Y2390792D01*
X4516139Y2384926D01*
X4528820Y2382403D01*
X4541501Y2384926D01*
X4552251Y2392109D01*
X4559434Y2402859D01*
X4561957Y2415540D01*
X4559434Y2428221D01*
X4552251Y2438971D01*
X4541501Y2446154D01*
X4528820Y2448677D01*
X4516139Y2446154D01*
X4505389Y2438971D01*
X4499480Y2430128D01*
X4490701Y2435994D01*
X4478020Y2438517D01*
X4465339Y2435994D01*
X4459961Y2432401D01*
X4455731Y2438731D01*
X4444981Y2445914D01*
X4432300Y2448437D01*
X4419619Y2445914D01*
X4410360Y2439727D01*
X4407471Y2444051D01*
X4396721Y2451234D01*
X4384040Y2453757D01*
D02*
G37*
G36*
X4699000Y2410577D02*
X4686319Y2408054D01*
X4675569Y2400871D01*
X4668386Y2390121D01*
X4665863Y2377440D01*
X4668386Y2364759D01*
X4675569Y2354009D01*
X4686319Y2346826D01*
X4699000Y2344303D01*
X4711681Y2346826D01*
X4722431Y2354009D01*
X4729614Y2364759D01*
X4732137Y2377440D01*
X4729614Y2390121D01*
X4722431Y2400871D01*
X4711681Y2408054D01*
X4699000Y2410577D01*
D02*
G37*
G36*
X1917500Y2400637D02*
X1904819Y2398114D01*
X1894069Y2390931D01*
X1886886Y2380181D01*
X1884364Y2367500D01*
X1886886Y2354819D01*
X1894069Y2344069D01*
X1904819Y2336886D01*
X1917500Y2334363D01*
X1930181Y2336886D01*
X1940931Y2344069D01*
X1948114Y2354819D01*
X1950637Y2367500D01*
X1948114Y2380181D01*
X1940931Y2390931D01*
X1930181Y2398114D01*
X1917500Y2400637D01*
D02*
G37*
G36*
X5062220Y2400417D02*
X5049539Y2397894D01*
X5038789Y2390711D01*
X5031606Y2379961D01*
X5029083Y2367280D01*
X5031606Y2354599D01*
X5038789Y2343849D01*
X5049539Y2336666D01*
X5062220Y2334143D01*
X5074901Y2336666D01*
X5085651Y2343849D01*
X5092834Y2354599D01*
X5095357Y2367280D01*
X5092834Y2379961D01*
X5085651Y2390711D01*
X5074901Y2397894D01*
X5062220Y2400417D01*
D02*
G37*
G36*
X2115000Y2398137D02*
X2102319Y2395614D01*
X2091569Y2388431D01*
X2084386Y2377681D01*
X2081864Y2365000D01*
X2084386Y2352319D01*
X2091569Y2341569D01*
X2102319Y2334386D01*
X2115000Y2331864D01*
X2127681Y2334386D01*
X2138431Y2341569D01*
X2145614Y2352319D01*
X2148137Y2365000D01*
X2145614Y2377681D01*
X2138431Y2388431D01*
X2127681Y2395614D01*
X2115000Y2398137D01*
D02*
G37*
G36*
X4996966Y2284363D02*
X4984285Y2281840D01*
X4973535Y2274657D01*
X4966352Y2263907D01*
X4964048Y2252324D01*
X4952466Y2250020D01*
X4941715Y2242837D01*
X4937269Y2236183D01*
X4932696Y2232146D01*
X4921665Y2232498D01*
X4917421Y2235334D01*
X4904740Y2237857D01*
X4892059Y2235334D01*
X4881309Y2228151D01*
X4874126Y2217401D01*
X4871603Y2204720D01*
X4874126Y2192039D01*
X4881309Y2181289D01*
X4892059Y2174106D01*
X4904740Y2171583D01*
X4917421Y2174106D01*
X4928171Y2181289D01*
X4932617Y2187943D01*
X4937191Y2191980D01*
X4948221Y2191628D01*
X4952466Y2188792D01*
X4965146Y2186270D01*
X4977827Y2188792D01*
X4988577Y2195975D01*
X4995760Y2206726D01*
X4998064Y2218308D01*
X5009647Y2220612D01*
X5020397Y2227795D01*
X5027580Y2238545D01*
X5030103Y2251226D01*
X5027580Y2263907D01*
X5020397Y2274657D01*
X5009647Y2281840D01*
X4996966Y2284363D01*
D02*
G37*
G36*
X4371340Y2270877D02*
X4358659Y2268354D01*
X4347909Y2261171D01*
X4340726Y2250421D01*
X4338203Y2237740D01*
X4340726Y2225059D01*
X4347909Y2214309D01*
X4358659Y2207126D01*
X4371340Y2204603D01*
X4384021Y2207126D01*
X4394771Y2214309D01*
X4401954Y2225059D01*
X4404477Y2237740D01*
X4401954Y2250421D01*
X4394771Y2261171D01*
X4384021Y2268354D01*
X4371340Y2270877D01*
D02*
G37*
G36*
X3797940Y2244577D02*
X3785259Y2242054D01*
X3774509Y2234871D01*
X3767326Y2224121D01*
X3764803Y2211440D01*
X3767326Y2198759D01*
X3774509Y2188009D01*
X3785259Y2180826D01*
X3797940Y2178303D01*
X3810621Y2180826D01*
X3821371Y2188009D01*
X3828554Y2198759D01*
X3831077Y2211440D01*
X3828554Y2224121D01*
X3821371Y2234871D01*
X3810621Y2242054D01*
X3797940Y2244577D01*
D02*
G37*
G36*
X2400000Y2173137D02*
X2387319Y2170614D01*
X2376569Y2163431D01*
X2369386Y2152681D01*
X2366863Y2140000D01*
X2369386Y2127319D01*
X2376569Y2116569D01*
X2387319Y2109386D01*
X2400000Y2106863D01*
X2412681Y2109386D01*
X2423431Y2116569D01*
X2430614Y2127319D01*
X2433137Y2140000D01*
X2430614Y2152681D01*
X2423431Y2163431D01*
X2412681Y2170614D01*
X2400000Y2173137D01*
D02*
G37*
G36*
X2182500D02*
X2169819Y2170614D01*
X2159069Y2163431D01*
X2151886Y2152681D01*
X2149363Y2140000D01*
X2151886Y2127319D01*
X2159069Y2116569D01*
X2169819Y2109386D01*
X2182500Y2106863D01*
X2195181Y2109386D01*
X2205931Y2116569D01*
X2213114Y2127319D01*
X2215637Y2140000D01*
X2213114Y2152681D01*
X2205931Y2163431D01*
X2195181Y2170614D01*
X2182500Y2173137D01*
D02*
G37*
G36*
X4012500Y2068137D02*
X3999819Y2065614D01*
X3989069Y2058431D01*
X3981886Y2047681D01*
X3979363Y2035000D01*
X3981886Y2022319D01*
X3989069Y2011569D01*
X3999819Y2004386D01*
X4012500Y2001863D01*
X4025181Y2004386D01*
X4035931Y2011569D01*
X4043114Y2022319D01*
X4045637Y2035000D01*
X4043114Y2047681D01*
X4035931Y2058431D01*
X4025181Y2065614D01*
X4012500Y2068137D01*
D02*
G37*
G36*
X3142500Y2043137D02*
X3129819Y2040614D01*
X3119069Y2033431D01*
X3111886Y2022681D01*
X3109363Y2010000D01*
X3111886Y1997319D01*
X3119069Y1986569D01*
X3129819Y1979386D01*
X3142500Y1976863D01*
X3155181Y1979386D01*
X3165931Y1986569D01*
X3173114Y1997319D01*
X3175637Y2010000D01*
X3173114Y2022681D01*
X3165931Y2033431D01*
X3155181Y2040614D01*
X3142500Y2043137D01*
D02*
G37*
G36*
X1820000Y1905637D02*
X1807319Y1903114D01*
X1796569Y1895931D01*
X1789386Y1885181D01*
X1786863Y1872500D01*
X1789386Y1859819D01*
X1796569Y1849069D01*
X1807319Y1841886D01*
X1820000Y1839363D01*
X1832681Y1841886D01*
X1843431Y1849069D01*
X1850614Y1859819D01*
X1853137Y1872500D01*
X1850614Y1885181D01*
X1843431Y1895931D01*
X1832681Y1903114D01*
X1820000Y1905637D01*
D02*
G37*
G36*
X2922500Y1853137D02*
X2909819Y1850614D01*
X2899069Y1843431D01*
X2891886Y1832681D01*
X2889364Y1820000D01*
X2891886Y1807319D01*
X2899069Y1796569D01*
X2909819Y1789386D01*
X2922500Y1786863D01*
X2935181Y1789386D01*
X2945931Y1796569D01*
X2953114Y1807319D01*
X2955637Y1820000D01*
X2953114Y1832681D01*
X2945931Y1843431D01*
X2935181Y1850614D01*
X2922500Y1853137D01*
D02*
G37*
G36*
X1845000Y1763137D02*
X1832319Y1760614D01*
X1821569Y1753431D01*
X1814386Y1742681D01*
X1811864Y1730000D01*
X1814386Y1717319D01*
X1821569Y1706569D01*
X1832319Y1699386D01*
X1845000Y1696864D01*
X1857681Y1699386D01*
X1868431Y1706569D01*
X1875614Y1717319D01*
X1878137Y1730000D01*
X1875614Y1742681D01*
X1868431Y1753431D01*
X1857681Y1760614D01*
X1845000Y1763137D01*
D02*
G37*
G36*
X2615000Y1725637D02*
X2602319Y1723114D01*
X2591569Y1715931D01*
X2584386Y1705181D01*
X2581864Y1692500D01*
X2584386Y1679819D01*
X2591569Y1669069D01*
X2602319Y1661886D01*
X2615000Y1659363D01*
X2627681Y1661886D01*
X2638431Y1669069D01*
X2645614Y1679819D01*
X2648137Y1692500D01*
X2645614Y1705181D01*
X2638431Y1715931D01*
X2627681Y1723114D01*
X2615000Y1725637D01*
D02*
G37*
G36*
X3907500Y1695637D02*
X3894819Y1693114D01*
X3884069Y1685931D01*
X3876886Y1675181D01*
X3874363Y1662500D01*
X3876886Y1649819D01*
X3884069Y1639069D01*
X3894819Y1631886D01*
X3907500Y1629364D01*
X3920181Y1631886D01*
X3930931Y1639069D01*
X3938114Y1649819D01*
X3940637Y1662500D01*
X3938114Y1675181D01*
X3930931Y1685931D01*
X3920181Y1693114D01*
X3907500Y1695637D01*
D02*
G37*
G36*
X1847500Y1660637D02*
X1834819Y1658114D01*
X1824069Y1650931D01*
X1816886Y1640181D01*
X1814363Y1627500D01*
X1816886Y1614819D01*
X1824069Y1604069D01*
X1834819Y1596886D01*
X1847500Y1594363D01*
X1860181Y1596886D01*
X1870931Y1604069D01*
X1878114Y1614819D01*
X1880637Y1627500D01*
X1878114Y1640181D01*
X1870931Y1650931D01*
X1860181Y1658114D01*
X1847500Y1660637D01*
D02*
G37*
G36*
X3327400Y1925437D02*
X3314719Y1922914D01*
X3303969Y1915731D01*
X3296786Y1904981D01*
X3296777Y1904934D01*
X3296001Y1904159D01*
X3289371Y1894235D01*
X3287042Y1882530D01*
X3287042Y1882529D01*
Y1581170D01*
X3287016Y1581131D01*
X3284493Y1568450D01*
X3287016Y1555769D01*
X3294199Y1545019D01*
X3304949Y1537836D01*
X3317630Y1535313D01*
X3330311Y1537836D01*
X3341061Y1545019D01*
X3348244Y1555769D01*
X3350766Y1568450D01*
X3348244Y1581131D01*
X3348218Y1581170D01*
Y1867123D01*
X3350831Y1868869D01*
X3358014Y1879619D01*
X3360537Y1892300D01*
X3358014Y1904981D01*
X3350831Y1915731D01*
X3340081Y1922914D01*
X3327400Y1925437D01*
D02*
G37*
G36*
X2799720Y1566397D02*
X2787039Y1563874D01*
X2776289Y1556691D01*
X2769106Y1545941D01*
X2766583Y1533260D01*
X2769106Y1520579D01*
X2776289Y1509829D01*
X2787039Y1502646D01*
X2799720Y1500123D01*
X2812401Y1502646D01*
X2823151Y1509829D01*
X2830334Y1520579D01*
X2832857Y1533260D01*
X2830334Y1545941D01*
X2823151Y1556691D01*
X2812401Y1563874D01*
X2799720Y1566397D01*
D02*
G37*
G36*
X2607500Y1530637D02*
X2594819Y1528114D01*
X2584069Y1520931D01*
X2576886Y1510181D01*
X2574363Y1497500D01*
X2576886Y1484819D01*
X2584069Y1474069D01*
X2594819Y1466886D01*
X2607500Y1464363D01*
X2620181Y1466886D01*
X2630931Y1474069D01*
X2638114Y1484819D01*
X2640637Y1497500D01*
X2638114Y1510181D01*
X2630931Y1520931D01*
X2620181Y1528114D01*
X2607500Y1530637D01*
D02*
G37*
G36*
X1822500Y1515637D02*
X1809819Y1513114D01*
X1799069Y1505931D01*
X1791886Y1495181D01*
X1789363Y1482500D01*
X1791886Y1469819D01*
X1799069Y1459069D01*
X1809819Y1451886D01*
X1822500Y1449363D01*
X1835181Y1451886D01*
X1845931Y1459069D01*
X1853114Y1469819D01*
X1855637Y1482500D01*
X1853114Y1495181D01*
X1845931Y1505931D01*
X1835181Y1513114D01*
X1822500Y1515637D01*
D02*
G37*
G36*
X2063120Y1434317D02*
X2050439Y1431794D01*
X2039689Y1424611D01*
X2032506Y1413861D01*
X2029983Y1401180D01*
X2032506Y1388499D01*
X2039689Y1377749D01*
X2050439Y1370566D01*
X2063120Y1368043D01*
X2075801Y1370566D01*
X2086551Y1377749D01*
X2093734Y1388499D01*
X2096257Y1401180D01*
X2093734Y1413861D01*
X2086551Y1424611D01*
X2075801Y1431794D01*
X2063120Y1434317D01*
D02*
G37*
G36*
X2496820Y1407958D02*
X2484139Y1405435D01*
X2473389Y1398252D01*
X2466206Y1387502D01*
X2463683Y1374821D01*
X2466206Y1362141D01*
X2473389Y1351390D01*
X2484139Y1344207D01*
X2496820Y1341685D01*
X2509501Y1344207D01*
X2520251Y1351390D01*
X2527434Y1362141D01*
X2529957Y1374821D01*
X2527434Y1387502D01*
X2520251Y1398252D01*
X2509501Y1405435D01*
X2496820Y1407958D01*
D02*
G37*
G36*
X2347500Y1348136D02*
X2334819Y1345614D01*
X2324069Y1338431D01*
X2316886Y1327681D01*
X2314363Y1315000D01*
X2316886Y1302319D01*
X2324069Y1291569D01*
X2334819Y1284386D01*
X2347500Y1281863D01*
X2360181Y1284386D01*
X2370931Y1291569D01*
X2378114Y1302319D01*
X2380637Y1315000D01*
X2378114Y1327681D01*
X2370931Y1338431D01*
X2360181Y1345614D01*
X2347500Y1348136D01*
D02*
G37*
G36*
X2987500Y1258137D02*
X2974819Y1255614D01*
X2964069Y1248431D01*
X2956886Y1237681D01*
X2954363Y1225000D01*
X2956886Y1212319D01*
X2964069Y1201569D01*
X2974819Y1194386D01*
X2987500Y1191864D01*
X3000181Y1194386D01*
X3010931Y1201569D01*
X3018114Y1212319D01*
X3020637Y1225000D01*
X3018114Y1237681D01*
X3010931Y1248431D01*
X3000181Y1255614D01*
X2987500Y1258137D01*
D02*
G37*
G36*
X3392500Y1253137D02*
X3379819Y1250614D01*
X3369069Y1243431D01*
X3361886Y1232681D01*
X3359363Y1220000D01*
X3361886Y1207319D01*
X3369069Y1196569D01*
X3379819Y1189386D01*
X3392500Y1186864D01*
X3405181Y1189386D01*
X3415931Y1196569D01*
X3423114Y1207319D01*
X3425637Y1220000D01*
X3423114Y1232681D01*
X3415931Y1243431D01*
X3405181Y1250614D01*
X3392500Y1253137D01*
D02*
G37*
G36*
X3582040Y1233657D02*
X3569359Y1231134D01*
X3558609Y1223951D01*
X3551426Y1213201D01*
X3548903Y1200520D01*
X3551426Y1187839D01*
X3558609Y1177089D01*
X3569359Y1169906D01*
X3582040Y1167383D01*
X3594721Y1169906D01*
X3605471Y1177089D01*
X3612654Y1187839D01*
X3615177Y1200520D01*
X3612654Y1213201D01*
X3605471Y1223951D01*
X3594721Y1231134D01*
X3582040Y1233657D01*
D02*
G37*
G36*
X2964820Y928857D02*
X2952139Y926334D01*
X2941389Y919151D01*
X2934206Y908401D01*
X2931683Y895720D01*
X2934206Y883039D01*
X2941389Y872289D01*
X2952139Y865106D01*
X2964820Y862583D01*
X2977501Y865106D01*
X2988251Y872289D01*
X2995434Y883039D01*
X2997957Y895720D01*
X2995434Y908401D01*
X2988251Y919151D01*
X2977501Y926334D01*
X2964820Y928857D01*
D02*
G37*
G36*
X3818260Y923777D02*
X3805579Y921254D01*
X3794829Y914071D01*
X3787646Y903321D01*
X3785123Y890640D01*
X3787646Y877959D01*
X3794829Y867209D01*
X3805579Y860026D01*
X3818260Y857503D01*
X3830941Y860026D01*
X3841691Y867209D01*
X3848874Y877959D01*
X3851397Y890640D01*
X3848874Y903321D01*
X3841691Y914071D01*
X3830941Y921254D01*
X3818260Y923777D01*
D02*
G37*
G36*
X1369700Y4220697D02*
X1357019Y4218174D01*
X1346269Y4210991D01*
X1339086Y4200241D01*
X1336563Y4187560D01*
X1339086Y4174879D01*
X1346269Y4164129D01*
X1357019Y4156946D01*
X1369700Y4154423D01*
X1382381Y4156946D01*
X1393131Y4164129D01*
X1400314Y4174879D01*
X1402837Y4187560D01*
X1400314Y4200241D01*
X1393131Y4210991D01*
X1382381Y4218174D01*
X1369700Y4220697D01*
D02*
G37*
G36*
X1887860Y4215617D02*
X1875179Y4213094D01*
X1864429Y4205911D01*
X1857246Y4195161D01*
X1854723Y4182480D01*
X1857246Y4169799D01*
X1864429Y4159049D01*
X1875179Y4151866D01*
X1887860Y4149343D01*
X1900541Y4151866D01*
X1911291Y4159049D01*
X1918474Y4169799D01*
X1920997Y4182480D01*
X1918474Y4195161D01*
X1911291Y4205911D01*
X1900541Y4213094D01*
X1887860Y4215617D01*
D02*
G37*
G36*
X836300Y4174977D02*
X823619Y4172454D01*
X812869Y4165271D01*
X805686Y4154521D01*
X803163Y4141840D01*
X805686Y4129159D01*
X812869Y4118409D01*
X823619Y4111226D01*
X836300Y4108703D01*
X848981Y4111226D01*
X859731Y4118409D01*
X866914Y4129159D01*
X869437Y4141840D01*
X866914Y4154521D01*
X859731Y4165271D01*
X848981Y4172454D01*
X836300Y4174977D01*
D02*
G37*
G36*
X285120Y4045437D02*
X272439Y4042914D01*
X261689Y4035731D01*
X254506Y4024981D01*
X251983Y4012300D01*
X254506Y3999619D01*
X261689Y3988869D01*
X272439Y3981686D01*
X285120Y3979163D01*
X297801Y3981686D01*
X308551Y3988869D01*
X315734Y3999619D01*
X318257Y4012300D01*
X315734Y4024981D01*
X308551Y4035731D01*
X297801Y4042914D01*
X285120Y4045437D01*
D02*
G37*
G36*
X1349380Y3969237D02*
X1336699Y3966714D01*
X1325949Y3959531D01*
X1318766Y3948781D01*
X1316243Y3936100D01*
X1318766Y3923419D01*
X1325949Y3912669D01*
X1336699Y3905486D01*
X1349380Y3902963D01*
X1362061Y3905486D01*
X1372811Y3912669D01*
X1379994Y3923419D01*
X1382517Y3936100D01*
X1379994Y3948781D01*
X1372811Y3959531D01*
X1362061Y3966714D01*
X1349380Y3969237D01*
D02*
G37*
G36*
X762640Y3773657D02*
X749959Y3771134D01*
X739209Y3763951D01*
X732026Y3753201D01*
X729503Y3740520D01*
X732026Y3727839D01*
X739209Y3717089D01*
X749959Y3709906D01*
X762640Y3707383D01*
X775321Y3709906D01*
X786071Y3717089D01*
X793254Y3727839D01*
X795777Y3740520D01*
X793254Y3753201D01*
X786071Y3763951D01*
X775321Y3771134D01*
X762640Y3773657D01*
D02*
G37*
G36*
X430000Y3685841D02*
X404547Y3682490D01*
X380829Y3672666D01*
X360462Y3657038D01*
X344834Y3636671D01*
X335009Y3612953D01*
X331659Y3587500D01*
X335009Y3562047D01*
X344834Y3538329D01*
X360462Y3517962D01*
X380829Y3502334D01*
X404547Y3492510D01*
X430000Y3489159D01*
X455452Y3492510D01*
X479170Y3502334D01*
X499538Y3517962D01*
X515166Y3538329D01*
X524990Y3562047D01*
X528341Y3587500D01*
X524990Y3612953D01*
X515166Y3636671D01*
X499538Y3657038D01*
X479170Y3672666D01*
X455452Y3682490D01*
X430000Y3685841D01*
D02*
G37*
G36*
X176000D02*
X150547Y3682490D01*
X126829Y3672666D01*
X106462Y3657038D01*
X90834Y3636671D01*
X81009Y3612953D01*
X77659Y3587500D01*
X81009Y3562047D01*
X90834Y3538329D01*
X106462Y3517962D01*
X126829Y3502334D01*
X150547Y3492510D01*
X176000Y3489159D01*
X201452Y3492510D01*
X225170Y3502334D01*
X245538Y3517962D01*
X261166Y3538329D01*
X270990Y3562047D01*
X274341Y3587500D01*
X270990Y3612953D01*
X261166Y3636671D01*
X245538Y3657038D01*
X225170Y3672666D01*
X201452Y3682490D01*
X176000Y3685841D01*
D02*
G37*
G36*
X1963420Y3490077D02*
X1950739Y3487554D01*
X1939989Y3480371D01*
X1932806Y3469621D01*
X1930283Y3456940D01*
X1932806Y3444259D01*
X1939989Y3433509D01*
X1950739Y3426326D01*
X1963420Y3423803D01*
X1976101Y3426326D01*
X1986851Y3433509D01*
X1994034Y3444259D01*
X1996557Y3456940D01*
X1994034Y3469621D01*
X1986851Y3480371D01*
X1976101Y3487554D01*
X1963420Y3490077D01*
D02*
G37*
G36*
X1326000Y3477496D02*
X1313319Y3474974D01*
X1302569Y3467791D01*
X1295386Y3457041D01*
X1292863Y3444360D01*
X1295386Y3431679D01*
X1302569Y3420929D01*
X1313319Y3413746D01*
X1326000Y3411223D01*
X1338681Y3413746D01*
X1349431Y3420929D01*
X1356614Y3431679D01*
X1359136Y3444360D01*
X1356614Y3457041D01*
X1349431Y3467791D01*
X1338681Y3474974D01*
X1326000Y3477496D01*
D02*
G37*
G36*
X764540Y3378317D02*
X751859Y3375794D01*
X741109Y3368611D01*
X733926Y3357861D01*
X731403Y3345180D01*
X733926Y3332499D01*
X741109Y3321749D01*
X751859Y3314566D01*
X764540Y3312043D01*
X777221Y3314566D01*
X787971Y3321749D01*
X795154Y3332499D01*
X797677Y3345180D01*
X795154Y3357861D01*
X787971Y3368611D01*
X777221Y3375794D01*
X764540Y3378317D01*
D02*
G37*
G36*
X430000Y3431841D02*
X404547Y3428490D01*
X380829Y3418666D01*
X360462Y3403038D01*
X344834Y3382671D01*
X335009Y3358953D01*
X331659Y3333500D01*
X335009Y3308047D01*
X344834Y3284329D01*
X360462Y3263962D01*
X380829Y3248334D01*
X404547Y3238510D01*
X430000Y3235159D01*
X455452Y3238510D01*
X479170Y3248334D01*
X499538Y3263962D01*
X515166Y3284329D01*
X524990Y3308047D01*
X528341Y3333500D01*
X524990Y3358953D01*
X515166Y3382671D01*
X499538Y3403038D01*
X479170Y3418666D01*
X455452Y3428490D01*
X430000Y3431841D01*
D02*
G37*
G36*
X176000D02*
X150547Y3428490D01*
X126829Y3418666D01*
X106462Y3403038D01*
X90834Y3382671D01*
X81009Y3358953D01*
X77659Y3333500D01*
X81009Y3308047D01*
X90834Y3284329D01*
X106462Y3263962D01*
X126829Y3248334D01*
X150547Y3238510D01*
X176000Y3235159D01*
X201452Y3238510D01*
X225170Y3248334D01*
X245538Y3263962D01*
X261166Y3284329D01*
X270990Y3308047D01*
X274341Y3333500D01*
X270990Y3358953D01*
X261166Y3382671D01*
X245538Y3403038D01*
X225170Y3418666D01*
X201452Y3428490D01*
X176000Y3431841D01*
D02*
G37*
G36*
X5700400Y3255497D02*
X5687719Y3252974D01*
X5676969Y3245791D01*
X5669786Y3235041D01*
X5667263Y3222360D01*
X5669786Y3209679D01*
X5676969Y3198929D01*
X5687719Y3191746D01*
X5700400Y3189223D01*
X5713081Y3191746D01*
X5723831Y3198929D01*
X5731014Y3209679D01*
X5733537Y3222360D01*
X5731014Y3235041D01*
X5723831Y3245791D01*
X5713081Y3252974D01*
X5700400Y3255497D01*
D02*
G37*
G36*
X1579880Y3126857D02*
X1567199Y3124334D01*
X1556449Y3117151D01*
X1549266Y3106401D01*
X1546743Y3093720D01*
X1549266Y3081039D01*
X1556449Y3070289D01*
X1567199Y3063106D01*
X1579880Y3060583D01*
X1592561Y3063106D01*
X1603311Y3070289D01*
X1610494Y3081039D01*
X1613017Y3093720D01*
X1610494Y3106401D01*
X1603311Y3117151D01*
X1592561Y3124334D01*
X1579880Y3126857D01*
D02*
G37*
G36*
X1196340Y3086217D02*
X1183659Y3083694D01*
X1172909Y3076511D01*
X1165726Y3065761D01*
X1163203Y3053080D01*
X1165726Y3040399D01*
X1172909Y3029649D01*
X1183659Y3022466D01*
X1196340Y3019943D01*
X1209021Y3022466D01*
X1219771Y3029649D01*
X1226954Y3040399D01*
X1229477Y3053080D01*
X1226954Y3065761D01*
X1219771Y3076511D01*
X1209021Y3083694D01*
X1196340Y3086217D01*
D02*
G37*
G36*
X430000Y3177841D02*
X404547Y3174490D01*
X380829Y3164666D01*
X360462Y3149038D01*
X344834Y3128671D01*
X335009Y3104953D01*
X331659Y3079500D01*
X335009Y3054047D01*
X344834Y3030329D01*
X360462Y3009962D01*
X380829Y2994334D01*
X404547Y2984510D01*
X430000Y2981159D01*
X455452Y2984510D01*
X479170Y2994334D01*
X499538Y3009962D01*
X515166Y3030329D01*
X524990Y3054047D01*
X528341Y3079500D01*
X524990Y3104953D01*
X515166Y3128671D01*
X499538Y3149038D01*
X479170Y3164666D01*
X455452Y3174490D01*
X430000Y3177841D01*
D02*
G37*
G36*
X176000D02*
X150547Y3174490D01*
X126829Y3164666D01*
X106462Y3149038D01*
X90834Y3128671D01*
X81009Y3104953D01*
X77659Y3079500D01*
X81009Y3054047D01*
X90834Y3030329D01*
X106462Y3009962D01*
X126829Y2994334D01*
X150547Y2984510D01*
X176000Y2981159D01*
X201452Y2984510D01*
X225170Y2994334D01*
X245538Y3009962D01*
X261166Y3030329D01*
X270990Y3054047D01*
X274341Y3079500D01*
X270990Y3104953D01*
X261166Y3128671D01*
X245538Y3149038D01*
X225170Y3164666D01*
X201452Y3174490D01*
X176000Y3177841D01*
D02*
G37*
G36*
X5474340Y2920217D02*
X5461659Y2917694D01*
X5450909Y2910511D01*
X5443726Y2899761D01*
X5441203Y2887080D01*
X5443726Y2874399D01*
X5450909Y2863649D01*
X5461659Y2856466D01*
X5474340Y2853943D01*
X5487021Y2856466D01*
X5497771Y2863649D01*
X5504954Y2874399D01*
X5507477Y2887080D01*
X5504954Y2899761D01*
X5497771Y2910511D01*
X5487021Y2917694D01*
X5474340Y2920217D01*
D02*
G37*
G36*
X723900Y2913497D02*
X711219Y2910974D01*
X700469Y2903791D01*
X693286Y2893041D01*
X690763Y2880360D01*
X693286Y2867679D01*
X700469Y2856929D01*
X711219Y2849746D01*
X723900Y2847223D01*
X736581Y2849746D01*
X747331Y2856929D01*
X754514Y2867679D01*
X757037Y2880360D01*
X754514Y2893041D01*
X747331Y2903791D01*
X736581Y2910974D01*
X723900Y2913497D01*
D02*
G37*
G36*
X430000Y2923841D02*
X404547Y2920490D01*
X380829Y2910666D01*
X360462Y2895038D01*
X344834Y2874671D01*
X335009Y2850953D01*
X331659Y2825500D01*
X335009Y2800047D01*
X344834Y2776329D01*
X360462Y2755962D01*
X380829Y2740334D01*
X404547Y2730510D01*
X430000Y2727159D01*
X455452Y2730510D01*
X479170Y2740334D01*
X499538Y2755962D01*
X515166Y2776329D01*
X524990Y2800047D01*
X528341Y2825500D01*
X524990Y2850953D01*
X515166Y2874671D01*
X499538Y2895038D01*
X479170Y2910666D01*
X455452Y2920490D01*
X430000Y2923841D01*
D02*
G37*
G36*
X176000D02*
X150547Y2920490D01*
X126829Y2910666D01*
X106462Y2895038D01*
X90834Y2874671D01*
X81009Y2850953D01*
X77659Y2825500D01*
X81009Y2800047D01*
X90834Y2776329D01*
X106462Y2755962D01*
X126829Y2740334D01*
X150547Y2730510D01*
X176000Y2727159D01*
X201452Y2730510D01*
X225170Y2740334D01*
X245538Y2755962D01*
X261166Y2776329D01*
X270990Y2800047D01*
X274341Y2825500D01*
X270990Y2850953D01*
X261166Y2874671D01*
X245538Y2895038D01*
X225170Y2910666D01*
X201452Y2920490D01*
X176000Y2923841D01*
D02*
G37*
G36*
X5692780Y2701777D02*
X5680099Y2699254D01*
X5669349Y2692071D01*
X5662166Y2681321D01*
X5659643Y2668640D01*
X5662166Y2655959D01*
X5669349Y2645209D01*
X5680099Y2638026D01*
X5692780Y2635503D01*
X5705461Y2638026D01*
X5716211Y2645209D01*
X5723394Y2655959D01*
X5725917Y2668640D01*
X5723394Y2681321D01*
X5716211Y2692071D01*
X5705461Y2699254D01*
X5692780Y2701777D01*
D02*
G37*
G36*
X5479500Y2703471D02*
X5450132Y2699604D01*
X5422765Y2688269D01*
X5399264Y2670236D01*
X5381232Y2646735D01*
X5369896Y2619369D01*
X5366029Y2590000D01*
X5369896Y2560632D01*
X5381232Y2533265D01*
X5399264Y2509764D01*
X5422765Y2491732D01*
X5450132Y2480396D01*
X5479500Y2476529D01*
X5508869Y2480396D01*
X5536235Y2491732D01*
X5559736Y2509764D01*
X5577769Y2533265D01*
X5589104Y2560632D01*
X5592971Y2590000D01*
X5589104Y2619369D01*
X5577769Y2646735D01*
X5559736Y2670236D01*
X5536235Y2688269D01*
X5508869Y2699604D01*
X5479500Y2703471D01*
D02*
G37*
G36*
X430000Y2669841D02*
X404547Y2666490D01*
X380829Y2656666D01*
X360462Y2641038D01*
X344834Y2620671D01*
X335009Y2596953D01*
X331659Y2571500D01*
X335009Y2546047D01*
X344834Y2522329D01*
X360462Y2501962D01*
X380829Y2486334D01*
X404547Y2476510D01*
X430000Y2473159D01*
X455452Y2476510D01*
X479170Y2486334D01*
X499538Y2501962D01*
X515166Y2522329D01*
X524990Y2546047D01*
X528341Y2571500D01*
X524990Y2596953D01*
X515166Y2620671D01*
X499538Y2641038D01*
X479170Y2656666D01*
X455452Y2666490D01*
X430000Y2669841D01*
D02*
G37*
G36*
X176000D02*
X150547Y2666490D01*
X126829Y2656666D01*
X106462Y2641038D01*
X90834Y2620671D01*
X81009Y2596953D01*
X77659Y2571500D01*
X81009Y2546047D01*
X90834Y2522329D01*
X106462Y2501962D01*
X126829Y2486334D01*
X150547Y2476510D01*
X176000Y2473159D01*
X201452Y2476510D01*
X225170Y2486334D01*
X245538Y2501962D01*
X261166Y2522329D01*
X270990Y2546047D01*
X274341Y2571500D01*
X270990Y2596953D01*
X261166Y2620671D01*
X245538Y2641038D01*
X225170Y2656666D01*
X201452Y2666490D01*
X176000Y2669841D01*
D02*
G37*
G36*
X5593080Y2413117D02*
X5580399Y2410594D01*
X5569649Y2403411D01*
X5562466Y2392661D01*
X5559943Y2379980D01*
X5562466Y2367299D01*
X5569649Y2356549D01*
X5580399Y2349366D01*
X5593080Y2346843D01*
X5605761Y2349366D01*
X5616511Y2356549D01*
X5623694Y2367299D01*
X5626217Y2379980D01*
X5623694Y2392661D01*
X5616511Y2403411D01*
X5605761Y2410594D01*
X5593080Y2413117D01*
D02*
G37*
G36*
X527500Y2415000D02*
X332500D01*
Y2220000D01*
X527500D01*
Y2415000D01*
D02*
G37*
G36*
X176000Y2415841D02*
X150547Y2412490D01*
X126829Y2402666D01*
X106462Y2387038D01*
X90834Y2366671D01*
X81009Y2342953D01*
X77659Y2317500D01*
X81009Y2292047D01*
X90834Y2268329D01*
X106462Y2247962D01*
X126829Y2232334D01*
X150547Y2222510D01*
X176000Y2219159D01*
X201452Y2222510D01*
X225170Y2232334D01*
X245538Y2247962D01*
X261166Y2268329D01*
X270990Y2292047D01*
X274341Y2317500D01*
X270990Y2342953D01*
X261166Y2366671D01*
X245538Y2387038D01*
X225170Y2402666D01*
X201452Y2412490D01*
X176000Y2415841D01*
D02*
G37*
G36*
X5595620Y2171817D02*
X5582939Y2169294D01*
X5572189Y2162111D01*
X5565006Y2151361D01*
X5562483Y2138680D01*
X5565006Y2125999D01*
X5572189Y2115249D01*
X5582939Y2108066D01*
X5595620Y2105543D01*
X5608301Y2108066D01*
X5619051Y2115249D01*
X5626234Y2125999D01*
X5628757Y2138680D01*
X5626234Y2151361D01*
X5619051Y2162111D01*
X5608301Y2169294D01*
X5595620Y2171817D01*
D02*
G37*
G36*
X655960Y2076937D02*
X643279Y2074414D01*
X632529Y2067231D01*
X625346Y2056481D01*
X622823Y2043800D01*
X625346Y2031119D01*
X632529Y2020369D01*
X643279Y2013186D01*
X655960Y2010663D01*
X668641Y2013186D01*
X679391Y2020369D01*
X686574Y2031119D01*
X689097Y2043800D01*
X686574Y2056481D01*
X679391Y2067231D01*
X668641Y2074414D01*
X655960Y2076937D01*
D02*
G37*
G36*
X1052500Y1995637D02*
X1039819Y1993114D01*
X1029069Y1985931D01*
X1021886Y1975181D01*
X1019363Y1962500D01*
X1021886Y1949819D01*
X1029069Y1939069D01*
X1039819Y1931886D01*
X1052500Y1929363D01*
X1065181Y1931886D01*
X1075931Y1939069D01*
X1083114Y1949819D01*
X1085637Y1962500D01*
X1083114Y1975181D01*
X1075931Y1985931D01*
X1065181Y1993114D01*
X1052500Y1995637D01*
D02*
G37*
G36*
X1376680Y1994017D02*
X1363999Y1991494D01*
X1353249Y1984311D01*
X1346066Y1973561D01*
X1343543Y1960880D01*
X1346066Y1948199D01*
X1353249Y1937449D01*
X1363999Y1930266D01*
X1376680Y1927743D01*
X1389361Y1930266D01*
X1400111Y1937449D01*
X1407294Y1948199D01*
X1409817Y1960880D01*
X1407294Y1973561D01*
X1400111Y1984311D01*
X1389361Y1991494D01*
X1376680Y1994017D01*
D02*
G37*
G36*
X1547500Y1900637D02*
X1534819Y1898114D01*
X1524069Y1890931D01*
X1516886Y1880181D01*
X1514363Y1867500D01*
X1516886Y1854819D01*
X1524069Y1844069D01*
X1530033Y1840084D01*
X1525077Y1828121D01*
X1525000Y1828137D01*
X1512319Y1825614D01*
X1501569Y1818431D01*
X1494386Y1807681D01*
X1491863Y1795000D01*
X1494386Y1782319D01*
X1501569Y1771569D01*
X1512319Y1764386D01*
X1525000Y1761863D01*
X1537681Y1764386D01*
X1548431Y1771569D01*
X1555614Y1782319D01*
X1558137Y1795000D01*
X1555614Y1807681D01*
X1548431Y1818431D01*
X1542468Y1822415D01*
X1547423Y1834379D01*
X1547500Y1834363D01*
X1560181Y1836886D01*
X1570931Y1844069D01*
X1578114Y1854819D01*
X1580637Y1867500D01*
X1578114Y1880181D01*
X1570931Y1890931D01*
X1560181Y1898114D01*
X1547500Y1900637D01*
D02*
G37*
G36*
X955000D02*
X942319Y1898114D01*
X931569Y1890931D01*
X924386Y1880181D01*
X921864Y1867500D01*
X924386Y1854819D01*
X931569Y1844069D01*
X942319Y1836886D01*
X955000Y1834363D01*
X967681Y1836886D01*
X978431Y1844069D01*
X985614Y1854819D01*
X988137Y1867500D01*
X985614Y1880181D01*
X978431Y1890931D01*
X967681Y1898114D01*
X955000Y1900637D01*
D02*
G37*
G36*
X5479500Y2043471D02*
X5450132Y2039604D01*
X5422765Y2028268D01*
X5399264Y2010236D01*
X5381232Y1986735D01*
X5369896Y1959368D01*
X5366029Y1930000D01*
X5369896Y1900631D01*
X5381232Y1873265D01*
X5399264Y1849764D01*
X5422765Y1831731D01*
X5450132Y1820396D01*
X5479500Y1816529D01*
X5508869Y1820396D01*
X5536235Y1831731D01*
X5559736Y1849764D01*
X5577769Y1873265D01*
X5589104Y1900631D01*
X5592971Y1930000D01*
X5589104Y1959368D01*
X5577769Y1986735D01*
X5559736Y2010236D01*
X5536235Y2028268D01*
X5508869Y2039604D01*
X5479500Y2043471D01*
D02*
G37*
G36*
X5225000Y1858136D02*
X5212319Y1855614D01*
X5201569Y1848431D01*
X5194386Y1837681D01*
X5191863Y1825000D01*
X5194386Y1812319D01*
X5201569Y1801569D01*
X5212319Y1794386D01*
X5225000Y1791863D01*
X5237681Y1794386D01*
X5248431Y1801569D01*
X5255614Y1812319D01*
X5258137Y1825000D01*
X5255614Y1837681D01*
X5248431Y1848431D01*
X5237681Y1855614D01*
X5225000Y1858136D01*
D02*
G37*
G36*
X248750Y1951250D02*
X76250D01*
Y1778750D01*
X248750D01*
Y1951250D01*
D02*
G37*
G36*
X1555000Y1750637D02*
X1542319Y1748114D01*
X1531569Y1740931D01*
X1524386Y1730181D01*
X1521863Y1717500D01*
X1524386Y1704819D01*
X1531569Y1694069D01*
X1542319Y1686886D01*
X1555000Y1684363D01*
X1567681Y1686886D01*
X1578431Y1694069D01*
X1585614Y1704819D01*
X1588137Y1717500D01*
X1585614Y1730181D01*
X1578431Y1740931D01*
X1567681Y1748114D01*
X1555000Y1750637D01*
D02*
G37*
G36*
X952500D02*
X939819Y1748114D01*
X929069Y1740931D01*
X921886Y1730181D01*
X919363Y1717500D01*
X921886Y1704819D01*
X929069Y1694069D01*
X939819Y1686886D01*
X952500Y1684363D01*
X965181Y1686886D01*
X975931Y1694069D01*
X983114Y1704819D01*
X985637Y1717500D01*
X983114Y1730181D01*
X975931Y1740931D01*
X965181Y1748114D01*
X952500Y1750637D01*
D02*
G37*
G36*
X1350000Y1600637D02*
X1337319Y1598114D01*
X1326569Y1590931D01*
X1319386Y1580181D01*
X1316864Y1567500D01*
X1319386Y1554819D01*
X1326569Y1544069D01*
X1337319Y1536886D01*
X1350000Y1534363D01*
X1362681Y1536886D01*
X1373431Y1544069D01*
X1380614Y1554819D01*
X1383137Y1567500D01*
X1380614Y1580181D01*
X1373431Y1590931D01*
X1362681Y1598114D01*
X1350000Y1600637D01*
D02*
G37*
G36*
X5390520Y1599417D02*
X5377839Y1596894D01*
X5367089Y1589711D01*
X5359906Y1578961D01*
X5357383Y1566280D01*
X5359906Y1553599D01*
X5367089Y1542849D01*
X5377839Y1535666D01*
X5390520Y1533143D01*
X5403201Y1535666D01*
X5413951Y1542849D01*
X5421134Y1553599D01*
X5423657Y1566280D01*
X5421134Y1578961D01*
X5413951Y1589711D01*
X5403201Y1596894D01*
X5390520Y1599417D01*
D02*
G37*
G36*
X416500Y1697994D02*
X393984Y1695030D01*
X373003Y1686339D01*
X354986Y1672514D01*
X341161Y1654497D01*
X332470Y1633516D01*
X329506Y1611000D01*
X332470Y1588484D01*
X341161Y1567503D01*
X354986Y1549486D01*
X373003Y1535661D01*
X393984Y1526970D01*
X416500Y1524006D01*
X439016Y1526970D01*
X459997Y1535661D01*
X478014Y1549486D01*
X491839Y1567503D01*
X500530Y1588484D01*
X503494Y1611000D01*
X500530Y1633516D01*
X491839Y1654497D01*
X478014Y1672514D01*
X459997Y1686339D01*
X439016Y1695030D01*
X416500Y1697994D01*
D02*
G37*
G36*
X162500D02*
X139984Y1695030D01*
X119003Y1686339D01*
X100986Y1672514D01*
X87161Y1654497D01*
X78470Y1633516D01*
X75506Y1611000D01*
X78470Y1588484D01*
X87161Y1567503D01*
X100986Y1549486D01*
X119003Y1535661D01*
X139984Y1526970D01*
X162500Y1524006D01*
X185016Y1526970D01*
X205997Y1535661D01*
X224014Y1549486D01*
X237839Y1567503D01*
X246530Y1588484D01*
X249494Y1611000D01*
X246530Y1633516D01*
X237839Y1654497D01*
X224014Y1672514D01*
X205997Y1686339D01*
X185016Y1695030D01*
X162500Y1697994D01*
D02*
G37*
G36*
X822500Y1503137D02*
X809819Y1500614D01*
X799069Y1493431D01*
X791886Y1482681D01*
X789363Y1470000D01*
X791886Y1457319D01*
X799069Y1446569D01*
X809819Y1439386D01*
X822500Y1436864D01*
X835181Y1439386D01*
X845931Y1446569D01*
X853114Y1457319D01*
X855637Y1470000D01*
X853114Y1482681D01*
X845931Y1493431D01*
X835181Y1500614D01*
X822500Y1503137D01*
D02*
G37*
G36*
X680000Y1443137D02*
X667319Y1440614D01*
X656569Y1433431D01*
X649386Y1422681D01*
X646863Y1410000D01*
X649386Y1397319D01*
X656569Y1386569D01*
X667319Y1379386D01*
X680000Y1376863D01*
X692681Y1379386D01*
X703431Y1386569D01*
X710614Y1397319D01*
X713136Y1410000D01*
X710614Y1422681D01*
X703431Y1433431D01*
X692681Y1440614D01*
X680000Y1443137D01*
D02*
G37*
G36*
X780000Y1388137D02*
X767319Y1385614D01*
X756569Y1378431D01*
X749386Y1367681D01*
X746863Y1355000D01*
X749386Y1342319D01*
X756569Y1331569D01*
X767319Y1324386D01*
X780000Y1321863D01*
X792681Y1324386D01*
X803431Y1331569D01*
X810614Y1342319D01*
X813137Y1355000D01*
X810614Y1367681D01*
X803431Y1378431D01*
X792681Y1385614D01*
X780000Y1388137D01*
D02*
G37*
G36*
X5260000Y1340637D02*
X5247319Y1338114D01*
X5236569Y1330931D01*
X5229386Y1320181D01*
X5226863Y1307500D01*
X5229386Y1294819D01*
X5236569Y1284069D01*
X5247319Y1276886D01*
X5260000Y1274363D01*
X5272681Y1276886D01*
X5283431Y1284069D01*
X5290614Y1294819D01*
X5293136Y1307500D01*
X5290614Y1320181D01*
X5283431Y1330931D01*
X5272681Y1338114D01*
X5260000Y1340637D01*
D02*
G37*
G36*
X162500Y1443994D02*
X139984Y1441030D01*
X119003Y1432339D01*
X100986Y1418514D01*
X87161Y1400497D01*
X78470Y1379516D01*
X75506Y1357000D01*
X78470Y1334484D01*
X87161Y1313503D01*
X100986Y1295486D01*
X119003Y1281661D01*
X139984Y1272970D01*
X162500Y1270006D01*
X185016Y1272970D01*
X205997Y1281661D01*
X224014Y1295486D01*
X237839Y1313503D01*
X246530Y1334484D01*
X249494Y1357000D01*
X246530Y1379516D01*
X237839Y1400497D01*
X224014Y1418514D01*
X205997Y1432339D01*
X185016Y1441030D01*
X162500Y1443994D01*
D02*
G37*
G36*
X1648460Y1226937D02*
X1635779Y1224414D01*
X1625029Y1217231D01*
X1617846Y1206481D01*
X1615323Y1193800D01*
X1617846Y1181119D01*
X1625029Y1170369D01*
X1635779Y1163186D01*
X1648460Y1160663D01*
X1661141Y1163186D01*
X1671891Y1170369D01*
X1679074Y1181119D01*
X1681597Y1193800D01*
X1679074Y1206481D01*
X1671891Y1217231D01*
X1661141Y1224414D01*
X1648460Y1226937D01*
D02*
G37*
G36*
X1434220D02*
X1421539Y1224414D01*
X1410789Y1217231D01*
X1403606Y1206481D01*
X1401083Y1193800D01*
X1403606Y1181119D01*
X1410789Y1170369D01*
X1421539Y1163186D01*
X1434220Y1160663D01*
X1446901Y1163186D01*
X1457651Y1170369D01*
X1464834Y1181119D01*
X1467356Y1193800D01*
X1464834Y1206481D01*
X1457651Y1217231D01*
X1446901Y1224414D01*
X1434220Y1226937D01*
D02*
G37*
G36*
X416500Y1189994D02*
X393984Y1187030D01*
X373003Y1178339D01*
X354986Y1164514D01*
X341161Y1146497D01*
X332470Y1125516D01*
X329506Y1103000D01*
X332470Y1080484D01*
X341161Y1059503D01*
X354986Y1041486D01*
X373003Y1027661D01*
X393984Y1018970D01*
X416500Y1016006D01*
X439016Y1018970D01*
X459997Y1027661D01*
X478014Y1041486D01*
X491839Y1059503D01*
X500530Y1080484D01*
X503494Y1103000D01*
X500530Y1125516D01*
X491839Y1146497D01*
X478014Y1164514D01*
X459997Y1178339D01*
X439016Y1187030D01*
X416500Y1189994D01*
D02*
G37*
G36*
X162500D02*
X139984Y1187030D01*
X119003Y1178339D01*
X100986Y1164514D01*
X87161Y1146497D01*
X78470Y1125516D01*
X75506Y1103000D01*
X78470Y1080484D01*
X87161Y1059503D01*
X100986Y1041486D01*
X119003Y1027661D01*
X139984Y1018970D01*
X162500Y1016006D01*
X185016Y1018970D01*
X205997Y1027661D01*
X224014Y1041486D01*
X237839Y1059503D01*
X246530Y1080484D01*
X249494Y1103000D01*
X246530Y1125516D01*
X237839Y1146497D01*
X224014Y1164514D01*
X205997Y1178339D01*
X185016Y1187030D01*
X162500Y1189994D01*
D02*
G37*
G36*
X5192500Y1020637D02*
X5179819Y1018114D01*
X5169069Y1010931D01*
X5161886Y1000181D01*
X5159363Y987500D01*
X5161886Y974819D01*
X5169069Y964069D01*
X5179819Y956886D01*
X5192500Y954363D01*
X5205181Y956886D01*
X5215931Y964069D01*
X5223114Y974819D01*
X5225636Y987500D01*
X5223114Y1000181D01*
X5215931Y1010931D01*
X5205181Y1018114D01*
X5192500Y1020637D01*
D02*
G37*
G36*
X915000Y998137D02*
X902319Y995614D01*
X891569Y988431D01*
X884386Y977681D01*
X881863Y965000D01*
X884386Y952319D01*
X891569Y941569D01*
X902319Y934386D01*
X915000Y931864D01*
X927681Y934386D01*
X938431Y941569D01*
X945614Y952319D01*
X948137Y965000D01*
X945614Y977681D01*
X938431Y988431D01*
X927681Y995614D01*
X915000Y998137D01*
D02*
G37*
G36*
X416500Y935994D02*
X393984Y933030D01*
X373003Y924339D01*
X354986Y910514D01*
X341161Y892497D01*
X332470Y871516D01*
X329506Y849000D01*
X332470Y826484D01*
X341161Y805503D01*
X354986Y787486D01*
X373003Y773661D01*
X393984Y764970D01*
X416500Y762006D01*
X439016Y764970D01*
X459997Y773661D01*
X478014Y787486D01*
X491839Y805503D01*
X500530Y826484D01*
X503494Y849000D01*
X500530Y871516D01*
X491839Y892497D01*
X478014Y910514D01*
X459997Y924339D01*
X439016Y933030D01*
X416500Y935994D01*
D02*
G37*
G36*
X162500D02*
X139984Y933030D01*
X119003Y924339D01*
X100986Y910514D01*
X87161Y892497D01*
X78470Y871516D01*
X75506Y849000D01*
X78470Y826484D01*
X87161Y805503D01*
X100986Y787486D01*
X119003Y773661D01*
X139984Y764970D01*
X162500Y762006D01*
X185016Y764970D01*
X205997Y773661D01*
X224014Y787486D01*
X237839Y805503D01*
X246530Y826484D01*
X249494Y849000D01*
X246530Y871516D01*
X237839Y892497D01*
X224014Y910514D01*
X205997Y924339D01*
X185016Y933030D01*
X162500Y935994D01*
D02*
G37*
G36*
X4895000Y778137D02*
X4882319Y775614D01*
X4871569Y768431D01*
X4864386Y757681D01*
X4861864Y745000D01*
X4864386Y732319D01*
X4871569Y721569D01*
X4882319Y714386D01*
X4895000Y711863D01*
X4907681Y714386D01*
X4918431Y721569D01*
X4925614Y732319D01*
X4928137Y745000D01*
X4925614Y757681D01*
X4918431Y768431D01*
X4907681Y775614D01*
X4895000Y778137D01*
D02*
G37*
G36*
X935000Y733137D02*
X922319Y730614D01*
X911569Y723431D01*
X904386Y712681D01*
X901863Y700000D01*
X904386Y687319D01*
X911569Y676569D01*
X922319Y669386D01*
X935000Y666864D01*
X947681Y669386D01*
X958431Y676569D01*
X965614Y687319D01*
X968136Y700000D01*
X965614Y712681D01*
X958431Y723431D01*
X947681Y730614D01*
X935000Y733137D01*
D02*
G37*
G36*
X1785000Y728137D02*
X1772319Y725614D01*
X1761569Y718431D01*
X1754386Y707681D01*
X1751863Y695000D01*
X1754386Y682319D01*
X1761569Y671569D01*
X1772319Y664386D01*
X1785000Y661864D01*
X1797681Y664386D01*
X1808431Y671569D01*
X1815614Y682319D01*
X1818137Y695000D01*
X1815614Y707681D01*
X1808431Y718431D01*
X1797681Y725614D01*
X1785000Y728137D01*
D02*
G37*
G36*
X2067500Y728136D02*
X2054819Y725614D01*
X2044069Y718431D01*
X2036886Y707681D01*
X2034363Y695000D01*
X2036886Y682319D01*
X2044069Y671569D01*
X2054819Y664386D01*
X2067500Y661863D01*
X2080181Y664386D01*
X2090931Y671569D01*
X2098114Y682319D01*
X2100637Y695000D01*
X2098114Y707681D01*
X2090931Y718431D01*
X2080181Y725614D01*
X2067500Y728136D01*
D02*
G37*
G36*
X2922500Y715637D02*
X2909819Y713114D01*
X2899069Y705931D01*
X2891886Y695181D01*
X2889364Y682500D01*
X2891886Y669819D01*
X2899069Y659069D01*
X2909819Y651886D01*
X2922500Y649363D01*
X2935181Y651886D01*
X2945931Y659069D01*
X2953114Y669819D01*
X2955637Y682500D01*
X2953114Y695181D01*
X2945931Y705931D01*
X2935181Y713114D01*
X2922500Y715637D01*
D02*
G37*
G36*
X3366140Y634217D02*
X3353459Y631694D01*
X3342709Y624511D01*
X3335526Y613761D01*
X3333003Y601080D01*
X3335526Y588399D01*
X3342709Y577649D01*
X3353459Y570466D01*
X3366140Y567943D01*
X3378821Y570466D01*
X3389571Y577649D01*
X3396754Y588399D01*
X3399277Y601080D01*
X3396754Y613761D01*
X3389571Y624511D01*
X3378821Y631694D01*
X3366140Y634217D01*
D02*
G37*
G36*
X4204340Y565637D02*
X4191659Y563114D01*
X4180909Y555931D01*
X4173726Y545181D01*
X4171203Y532500D01*
X4173726Y519819D01*
X4180909Y509069D01*
X4191659Y501886D01*
X4204340Y499363D01*
X4217021Y501886D01*
X4227771Y509069D01*
X4234954Y519819D01*
X4237477Y532500D01*
X4234954Y545181D01*
X4227771Y555931D01*
X4217021Y563114D01*
X4204340Y565637D01*
D02*
G37*
G36*
X4758060Y484357D02*
X4745379Y481834D01*
X4734629Y474651D01*
X4727446Y463901D01*
X4724923Y451220D01*
X4727446Y438539D01*
X4734629Y427789D01*
X4745379Y420606D01*
X4758060Y418083D01*
X4770741Y420606D01*
X4781491Y427789D01*
X4788674Y438539D01*
X4791197Y451220D01*
X4788674Y463901D01*
X4781491Y474651D01*
X4770741Y481834D01*
X4758060Y484357D01*
D02*
G37*
G36*
X711840Y420857D02*
X699159Y418334D01*
X688409Y411151D01*
X681226Y400401D01*
X678703Y387720D01*
X681226Y375039D01*
X688409Y364289D01*
X699159Y357106D01*
X711840Y354583D01*
X724521Y357106D01*
X735271Y364289D01*
X742454Y375039D01*
X744977Y387720D01*
X742454Y400401D01*
X735271Y411151D01*
X724521Y418334D01*
X711840Y420857D01*
D02*
G37*
G36*
X1931040Y405617D02*
X1918359Y403094D01*
X1907609Y395911D01*
X1900426Y385161D01*
X1897903Y372480D01*
X1900426Y359799D01*
X1907609Y349049D01*
X1918359Y341866D01*
X1931040Y339343D01*
X1943721Y341866D01*
X1954471Y349049D01*
X1961654Y359799D01*
X1964177Y372480D01*
X1961654Y385161D01*
X1954471Y395911D01*
X1943721Y403094D01*
X1931040Y405617D01*
D02*
G37*
G36*
X1550040Y392917D02*
X1537359Y390394D01*
X1526609Y383211D01*
X1519426Y372461D01*
X1516903Y359780D01*
X1519426Y347099D01*
X1526609Y336349D01*
X1537359Y329166D01*
X1550040Y326643D01*
X1562721Y329166D01*
X1573471Y336349D01*
X1580654Y347099D01*
X1583177Y359780D01*
X1580654Y372461D01*
X1573471Y383211D01*
X1562721Y390394D01*
X1550040Y392917D01*
D02*
G37*
G36*
X236860Y367517D02*
X224179Y364994D01*
X213429Y357811D01*
X206246Y347061D01*
X203723Y334380D01*
X206246Y321699D01*
X213429Y310949D01*
X224179Y303766D01*
X236860Y301243D01*
X249541Y303766D01*
X260291Y310949D01*
X267474Y321699D01*
X269997Y334380D01*
X267474Y347061D01*
X260291Y357811D01*
X249541Y364994D01*
X236860Y367517D01*
D02*
G37*
G36*
X5253360Y306557D02*
X5240679Y304034D01*
X5229929Y296851D01*
X5222746Y286101D01*
X5220223Y273420D01*
X5222746Y260739D01*
X5229929Y249989D01*
X5240679Y242806D01*
X5253360Y240283D01*
X5266041Y242806D01*
X5276791Y249989D01*
X5283974Y260739D01*
X5286497Y273420D01*
X5283974Y286101D01*
X5276791Y296851D01*
X5266041Y304034D01*
X5253360Y306557D01*
D02*
G37*
G36*
X3693800Y265917D02*
X3681119Y263394D01*
X3670369Y256211D01*
X3663186Y245461D01*
X3660663Y232780D01*
X3663186Y220099D01*
X3670369Y209349D01*
X3681119Y202166D01*
X3693800Y199643D01*
X3706481Y202166D01*
X3717231Y209349D01*
X3724414Y220099D01*
X3726937Y232780D01*
X3724414Y245461D01*
X3717231Y256211D01*
X3706481Y263394D01*
X3693800Y265917D01*
D02*
G37*
G36*
X2969900Y225277D02*
X2957219Y222754D01*
X2946469Y215571D01*
X2939286Y204821D01*
X2936763Y192140D01*
X2939286Y179459D01*
X2946469Y168709D01*
X2957219Y161526D01*
X2969900Y159003D01*
X2982581Y161526D01*
X2993331Y168709D01*
X3000514Y179459D01*
X3003037Y192140D01*
X3000514Y204821D01*
X2993331Y215571D01*
X2982581Y222754D01*
X2969900Y225277D01*
D02*
G37*
G36*
X4399920Y194797D02*
X4387239Y192274D01*
X4376489Y185091D01*
X4369306Y174341D01*
X4366783Y161660D01*
X4369306Y148979D01*
X4376489Y138229D01*
X4387239Y131046D01*
X4399920Y128523D01*
X4412601Y131046D01*
X4423351Y138229D01*
X4430534Y148979D01*
X4433057Y161660D01*
X4430534Y174341D01*
X4423351Y185091D01*
X4412601Y192274D01*
X4399920Y194797D01*
D02*
G37*
G36*
X4813300Y2011797D02*
X4800619Y2009274D01*
X4789869Y2002091D01*
X4782686Y1991341D01*
X4780163Y1978660D01*
X4782686Y1965979D01*
X4789869Y1955229D01*
X4782800Y1945774D01*
X4770120Y1948297D01*
X4757439Y1945774D01*
X4746689Y1938591D01*
X4739506Y1927841D01*
X4736983Y1915160D01*
X4739506Y1902479D01*
X4746689Y1891729D01*
X4757439Y1884546D01*
X4770120Y1882023D01*
X4782801Y1884546D01*
X4793551Y1891729D01*
X4800734Y1902479D01*
X4803257Y1915160D01*
X4800734Y1927841D01*
X4793551Y1938591D01*
X4800620Y1948046D01*
X4813300Y1945523D01*
X4825981Y1948046D01*
X4836731Y1955229D01*
X4843914Y1965979D01*
X4846437Y1978660D01*
X4843914Y1991341D01*
X4836731Y2002091D01*
X4825981Y2009274D01*
X4813300Y2011797D01*
D02*
G37*
G36*
X4879340Y1867017D02*
X4866659Y1864494D01*
X4855909Y1857311D01*
X4848726Y1846561D01*
X4846203Y1833880D01*
X4848726Y1821199D01*
X4855909Y1810449D01*
X4866659Y1803266D01*
X4879340Y1800743D01*
X4892021Y1803266D01*
X4902771Y1810449D01*
X4909954Y1821199D01*
X4912477Y1833880D01*
X4909954Y1846561D01*
X4902771Y1857311D01*
X4892021Y1864494D01*
X4879340Y1867017D01*
D02*
G37*
G36*
X4179225Y1815292D02*
X4166544Y1812769D01*
X4155794Y1805586D01*
X4148611Y1794836D01*
X4146088Y1782155D01*
X4148611Y1769474D01*
X4155794Y1758724D01*
X4166544Y1751541D01*
X4179225Y1749019D01*
X4191906Y1751541D01*
X4202656Y1758724D01*
X4209839Y1769474D01*
X4212362Y1782155D01*
X4209839Y1794836D01*
X4202656Y1805586D01*
X4191906Y1812769D01*
X4179225Y1815292D01*
D02*
G37*
G36*
X4780080Y1733136D02*
X4767399Y1730614D01*
X4756649Y1723431D01*
X4749466Y1712681D01*
X4746944Y1700000D01*
X4749466Y1687319D01*
X4756649Y1676569D01*
X4767399Y1669386D01*
X4780080Y1666863D01*
X4792761Y1669386D01*
X4803511Y1676569D01*
X4810694Y1687319D01*
X4813217Y1700000D01*
X4810694Y1712681D01*
X4803511Y1723431D01*
X4792761Y1730614D01*
X4780080Y1733136D01*
D02*
G37*
G36*
X4600000D02*
X4587319Y1730614D01*
X4576569Y1723431D01*
X4569386Y1712681D01*
X4566863Y1700000D01*
X4569386Y1687319D01*
X4576569Y1676569D01*
X4587319Y1669386D01*
X4600000Y1666863D01*
X4612681Y1669386D01*
X4623431Y1676569D01*
X4630614Y1687319D01*
X4633137Y1700000D01*
X4630614Y1712681D01*
X4623431Y1723431D01*
X4612681Y1730614D01*
X4600000Y1733136D01*
D02*
G37*
G36*
X4500000D02*
X4487319Y1730614D01*
X4476569Y1723431D01*
X4469386Y1712681D01*
X4466863Y1700000D01*
X4469386Y1687319D01*
X4476569Y1676569D01*
X4487319Y1669386D01*
X4500000Y1666863D01*
X4512681Y1669386D01*
X4523431Y1676569D01*
X4530614Y1687319D01*
X4533136Y1700000D01*
X4530614Y1712681D01*
X4523431Y1723431D01*
X4512681Y1730614D01*
X4500000Y1733136D01*
D02*
G37*
G36*
X4405080D02*
X4392399Y1730614D01*
X4381649Y1723431D01*
X4374466Y1712681D01*
X4371944Y1700000D01*
X4374466Y1687319D01*
X4381649Y1676569D01*
X4392399Y1669386D01*
X4405080Y1666863D01*
X4417761Y1669386D01*
X4428511Y1676569D01*
X4435694Y1687319D01*
X4438217Y1700000D01*
X4435694Y1712681D01*
X4428511Y1723431D01*
X4417761Y1730614D01*
X4405080Y1733136D01*
D02*
G37*
G36*
X4780080Y1633137D02*
X4767399Y1630614D01*
X4756649Y1623431D01*
X4749466Y1612681D01*
X4746944Y1600000D01*
X4749466Y1587319D01*
X4756649Y1576569D01*
X4767399Y1569386D01*
X4780080Y1566864D01*
X4792761Y1569386D01*
X4803511Y1576569D01*
X4810694Y1587319D01*
X4813217Y1600000D01*
X4810694Y1612681D01*
X4803511Y1623431D01*
X4792761Y1630614D01*
X4780080Y1633137D01*
D02*
G37*
G36*
X4600000D02*
X4587319Y1630614D01*
X4576569Y1623431D01*
X4569386Y1612681D01*
X4566863Y1600000D01*
X4569386Y1587319D01*
X4576569Y1576569D01*
X4587319Y1569386D01*
X4600000Y1566864D01*
X4612681Y1569386D01*
X4623431Y1576569D01*
X4630614Y1587319D01*
X4633137Y1600000D01*
X4630614Y1612681D01*
X4623431Y1623431D01*
X4612681Y1630614D01*
X4600000Y1633137D01*
D02*
G37*
G36*
X4500000D02*
X4487319Y1630614D01*
X4476569Y1623431D01*
X4469386Y1612681D01*
X4466863Y1600000D01*
X4469386Y1587319D01*
X4476569Y1576569D01*
X4487319Y1569386D01*
X4500000Y1566864D01*
X4512681Y1569386D01*
X4523431Y1576569D01*
X4530614Y1587319D01*
X4533136Y1600000D01*
X4530614Y1612681D01*
X4523431Y1623431D01*
X4512681Y1630614D01*
X4500000Y1633137D01*
D02*
G37*
G36*
X4405080D02*
X4392399Y1630614D01*
X4381649Y1623431D01*
X4374466Y1612681D01*
X4371944Y1600000D01*
X4374466Y1587319D01*
X4381649Y1576569D01*
X4392399Y1569386D01*
X4405080Y1566864D01*
X4417761Y1569386D01*
X4428511Y1576569D01*
X4435694Y1587319D01*
X4438217Y1600000D01*
X4435694Y1612681D01*
X4428511Y1623431D01*
X4417761Y1630614D01*
X4405080Y1633137D01*
D02*
G37*
G36*
X4180840Y1706997D02*
X4168159Y1704474D01*
X4157409Y1697291D01*
X4150226Y1686541D01*
X4147703Y1673860D01*
X4150226Y1661179D01*
X4157409Y1650429D01*
X4168159Y1643246D01*
X4179444Y1641001D01*
X4180888Y1640657D01*
X4189103Y1629418D01*
X4188343Y1625600D01*
X4190866Y1612919D01*
X4196665Y1604240D01*
X4196099Y1602874D01*
X4185349Y1595691D01*
X4178166Y1584941D01*
X4175643Y1572260D01*
X4178166Y1559579D01*
X4185349Y1548829D01*
X4196099Y1541646D01*
X4208780Y1539123D01*
X4221461Y1541646D01*
X4232211Y1548829D01*
X4239394Y1559579D01*
X4241917Y1572260D01*
X4239394Y1584941D01*
X4233595Y1593620D01*
X4234161Y1594986D01*
X4244911Y1602169D01*
X4252094Y1612919D01*
X4254617Y1625600D01*
X4252094Y1638281D01*
X4244911Y1649031D01*
X4234161Y1656214D01*
X4222876Y1658459D01*
X4221432Y1658803D01*
X4213217Y1670042D01*
X4213977Y1673860D01*
X4211454Y1686541D01*
X4204271Y1697291D01*
X4193521Y1704474D01*
X4180840Y1706997D01*
D02*
G37*
G36*
X4780080Y1533137D02*
X4767399Y1530614D01*
X4756649Y1523431D01*
X4749466Y1512681D01*
X4746944Y1500000D01*
X4749466Y1487319D01*
X4756649Y1476569D01*
X4767399Y1469386D01*
X4780080Y1466863D01*
X4792761Y1469386D01*
X4803511Y1476569D01*
X4810694Y1487319D01*
X4813217Y1500000D01*
X4810694Y1512681D01*
X4803511Y1523431D01*
X4792761Y1530614D01*
X4780080Y1533137D01*
D02*
G37*
G36*
X4600000D02*
X4587319Y1530614D01*
X4576569Y1523431D01*
X4569386Y1512681D01*
X4566863Y1500000D01*
X4569386Y1487319D01*
X4576569Y1476569D01*
X4587319Y1469386D01*
X4600000Y1466863D01*
X4612681Y1469386D01*
X4623431Y1476569D01*
X4630614Y1487319D01*
X4633137Y1500000D01*
X4630614Y1512681D01*
X4623431Y1523431D01*
X4612681Y1530614D01*
X4600000Y1533137D01*
D02*
G37*
G36*
X4500000D02*
X4487319Y1530614D01*
X4476569Y1523431D01*
X4469386Y1512681D01*
X4466863Y1500000D01*
X4469386Y1487319D01*
X4476569Y1476569D01*
X4487319Y1469386D01*
X4500000Y1466863D01*
X4512681Y1469386D01*
X4523431Y1476569D01*
X4530614Y1487319D01*
X4533136Y1500000D01*
X4530614Y1512681D01*
X4523431Y1523431D01*
X4512681Y1530614D01*
X4500000Y1533137D01*
D02*
G37*
G36*
X4405080D02*
X4392399Y1530614D01*
X4381649Y1523431D01*
X4374466Y1512681D01*
X4371944Y1500000D01*
X4374466Y1487319D01*
X4381649Y1476569D01*
X4392399Y1469386D01*
X4405080Y1466863D01*
X4417761Y1469386D01*
X4428511Y1476569D01*
X4435694Y1487319D01*
X4438217Y1500000D01*
X4435694Y1512681D01*
X4428511Y1523431D01*
X4417761Y1530614D01*
X4405080Y1533137D01*
D02*
G37*
G36*
X4600000Y1433137D02*
X4587319Y1430614D01*
X4576569Y1423431D01*
X4569386Y1412681D01*
X4566863Y1400000D01*
X4569386Y1387319D01*
X4576569Y1376569D01*
X4587319Y1369386D01*
X4600000Y1366863D01*
X4612681Y1369386D01*
X4623431Y1376569D01*
X4630614Y1387319D01*
X4633137Y1400000D01*
X4630614Y1412681D01*
X4623431Y1423431D01*
X4612681Y1430614D01*
X4600000Y1433137D01*
D02*
G37*
G36*
X4500000D02*
X4487319Y1430614D01*
X4476569Y1423431D01*
X4469386Y1412681D01*
X4466863Y1400000D01*
X4469386Y1387319D01*
X4476569Y1376569D01*
X4487319Y1369386D01*
X4500000Y1366863D01*
X4512681Y1369386D01*
X4523431Y1376569D01*
X4530614Y1387319D01*
X4533136Y1400000D01*
X4530614Y1412681D01*
X4523431Y1423431D01*
X4512681Y1430614D01*
X4500000Y1433137D01*
D02*
G37*
G36*
X4400000D02*
X4387319Y1430614D01*
X4376569Y1423431D01*
X4369386Y1412681D01*
X4366864Y1400000D01*
X4369386Y1387319D01*
X4376569Y1376569D01*
X4387319Y1369386D01*
X4400000Y1366863D01*
X4412681Y1369386D01*
X4423431Y1376569D01*
X4430614Y1387319D01*
X4433137Y1400000D01*
X4430614Y1412681D01*
X4423431Y1423431D01*
X4412681Y1430614D01*
X4400000Y1433137D01*
D02*
G37*
G36*
X4945380Y1407277D02*
X4932699Y1404754D01*
X4921949Y1397571D01*
X4914766Y1386821D01*
X4912243Y1374140D01*
X4914766Y1361459D01*
X4921027Y1352089D01*
X4916869Y1349311D01*
X4909686Y1338561D01*
X4907163Y1325880D01*
X4909686Y1313199D01*
X4916869Y1302449D01*
X4927619Y1295266D01*
X4940300Y1292743D01*
X4952981Y1295266D01*
X4963731Y1302449D01*
X4970914Y1313199D01*
X4973437Y1325880D01*
X4970914Y1338561D01*
X4964653Y1347931D01*
X4968811Y1350709D01*
X4975994Y1361459D01*
X4978517Y1374140D01*
X4975994Y1386821D01*
X4968811Y1397571D01*
X4958061Y1404754D01*
X4945380Y1407277D01*
D02*
G37*
G36*
X4212200Y1358137D02*
X4199519Y1355614D01*
X4188769Y1348431D01*
X4181586Y1337681D01*
X4179063Y1325000D01*
X4181586Y1312319D01*
X4188769Y1301569D01*
X4199519Y1294386D01*
X4212200Y1291864D01*
X4224881Y1294386D01*
X4235631Y1301569D01*
X4242814Y1312319D01*
X4245336Y1325000D01*
X4242814Y1337681D01*
X4235631Y1348431D01*
X4224881Y1355614D01*
X4212200Y1358137D01*
D02*
G37*
G36*
X4965000Y1250637D02*
X4952319Y1248114D01*
X4941569Y1240931D01*
X4934386Y1230181D01*
X4931863Y1217500D01*
X4934386Y1204819D01*
X4941569Y1194069D01*
X4952319Y1186886D01*
X4965000Y1184363D01*
X4977681Y1186886D01*
X4988431Y1194069D01*
X4995614Y1204819D01*
X4998137Y1217500D01*
X4995614Y1230181D01*
X4988431Y1240931D01*
X4977681Y1248114D01*
X4965000Y1250637D01*
D02*
G37*
G36*
X4665000Y1080637D02*
X4652319Y1078114D01*
X4641569Y1070931D01*
X4634386Y1060181D01*
X4631863Y1047500D01*
X4634386Y1034819D01*
X4641569Y1024069D01*
X4652319Y1016886D01*
X4665000Y1014363D01*
X4677681Y1016886D01*
X4688431Y1024069D01*
X4695614Y1034819D01*
X4698137Y1047500D01*
X4695614Y1060181D01*
X4688431Y1070931D01*
X4677681Y1078114D01*
X4665000Y1080637D01*
D02*
G37*
G36*
X4325000Y1078137D02*
X4312319Y1075614D01*
X4301569Y1068431D01*
X4294386Y1057681D01*
X4291863Y1045000D01*
X4294386Y1032319D01*
X4301569Y1021569D01*
X4312319Y1014386D01*
X4325000Y1011863D01*
X4337681Y1014386D01*
X4348431Y1021569D01*
X4355614Y1032319D01*
X4358137Y1045000D01*
X4355614Y1057681D01*
X4348431Y1068431D01*
X4337681Y1075614D01*
X4325000Y1078137D01*
D02*
G37*
%LPD*%
D49*
X3317630Y1882530D02*
X3327400Y1892300D01*
X3317630Y1568450D02*
Y1882530D01*
D53*
X5479500Y2590000D02*
D03*
Y1930000D02*
D03*
D54*
X162500Y1865000D02*
D03*
D55*
X416500D02*
D03*
X162500Y1611000D02*
D03*
X416500D02*
D03*
X162500Y1357000D02*
D03*
X416500D02*
D03*
X162500Y1103000D02*
D03*
X416500D02*
D03*
X162500Y849000D02*
D03*
X416500D02*
D03*
D56*
X430000Y2317500D02*
D03*
D57*
X176000D02*
D03*
X430000Y2571500D02*
D03*
X176000D02*
D03*
X430000Y2825500D02*
D03*
X176000D02*
D03*
X430000Y3079500D02*
D03*
X176000D02*
D03*
X430000Y3333500D02*
D03*
X176000D02*
D03*
X430000Y3587500D02*
D03*
X176000D02*
D03*
D58*
X4478020Y2405380D02*
D03*
X4528820Y2415540D02*
D03*
X4681220Y3030220D02*
D03*
X4432300Y2415300D02*
D03*
X4137660Y2771140D02*
D03*
Y2867660D02*
D03*
X4140200Y2969260D02*
D03*
X4996966Y2251226D02*
D03*
X4993710Y2430710D02*
D03*
X4961890Y2462530D02*
D03*
X4384040Y2420620D02*
D03*
X4211960Y3621140D02*
D03*
X4867280Y3984360D02*
D03*
X5362580Y4022460D02*
D03*
X5692780Y2668640D02*
D03*
X5700400Y3222360D02*
D03*
X5685160Y3753220D02*
D03*
X5601340Y4207880D02*
D03*
X5037460Y4235820D02*
D03*
X4445640Y4243440D02*
D03*
X3990980Y4068180D02*
D03*
X3724280Y3659240D02*
D03*
X3561720Y4220580D02*
D03*
X3005460Y4228200D02*
D03*
X2461900Y4210420D02*
D03*
X2555880Y3278240D02*
D03*
X2566040Y3763380D02*
D03*
X2167260Y3456040D02*
D03*
X1369700Y4187560D02*
D03*
X2152020Y3877680D02*
D03*
X1887860Y4182480D02*
D03*
X1349380Y3936100D02*
D03*
X836300Y4141840D02*
D03*
X762640Y3740520D02*
D03*
X285120Y4012300D02*
D03*
X927740Y2975980D02*
D03*
X655960Y2043800D02*
D03*
X3615060Y3138540D02*
D03*
X5474340Y2887080D02*
D03*
X5390520Y1566280D02*
D03*
X2964820Y895720D02*
D03*
X3582040Y1200520D02*
D03*
X2063120Y1401180D02*
D03*
X2799720Y1533260D02*
D03*
X236860Y334380D02*
D03*
X711840Y387720D02*
D03*
X1550040Y359780D02*
D03*
X1931040Y372480D02*
D03*
X2459360Y1048120D02*
D03*
X5253360Y273420D02*
D03*
X4758060Y451220D02*
D03*
X4399920Y161660D02*
D03*
X4204340Y532500D02*
D03*
X3693800Y232780D02*
D03*
X2969900Y192140D02*
D03*
X3366140Y601080D02*
D03*
X3818260Y890640D02*
D03*
X3797940Y2211440D02*
D03*
X3498220Y2442580D02*
D03*
X2929260Y2996300D02*
D03*
X2408560Y3603360D02*
D03*
X2212980Y3146160D02*
D03*
X2576200Y2904860D02*
D03*
X2286640Y2813420D02*
D03*
X2548260Y2594980D02*
D03*
X4940300Y1325880D02*
D03*
X4734560Y3017520D02*
D03*
X4632960Y3035300D02*
D03*
X4323080Y3096260D02*
D03*
X4358640Y2324100D02*
D03*
X4813300Y1978660D02*
D03*
X4770120Y1915160D02*
D03*
X4660900Y1971040D02*
D03*
X4775000Y2050000D02*
D03*
X1668780Y1727200D02*
D03*
X680000Y1410000D02*
D03*
X1648460Y1193800D02*
D03*
X1434220D02*
D03*
X1602740Y1384300D02*
D03*
X1800860Y1313180D02*
D03*
X4965146Y2219406D02*
D03*
X4904740Y2204720D02*
D03*
X4094480Y1529080D02*
D03*
X4945380Y1374140D02*
D03*
X5077460Y1452880D02*
D03*
X5067300Y1361440D02*
D03*
X4180840Y1673860D02*
D03*
X4107180Y2039620D02*
D03*
X4179225Y1782155D02*
D03*
X4371340Y2237740D02*
D03*
X4589780Y3070860D02*
D03*
X4208780Y1572260D02*
D03*
X4221480Y1625600D02*
D03*
X5130800Y1366520D02*
D03*
X4699000Y2377440D02*
D03*
X4879340Y1833880D02*
D03*
X4765040Y3246120D02*
D03*
X4464430Y3051430D02*
D03*
X4856480Y2588260D02*
D03*
X5013960Y2674620D02*
D03*
X4615000Y2375170D02*
D03*
X2496820Y1374821D02*
D03*
X2387600Y2547620D02*
D03*
X1455420Y2689860D02*
D03*
X4658360Y1130300D02*
D03*
X4442460Y1135380D02*
D03*
X5054600Y1732280D02*
D03*
X4107180Y1651000D02*
D03*
X4224020Y1524000D02*
D03*
X1122680Y3624580D02*
D03*
X922020Y3345180D02*
D03*
X848360Y2778760D02*
D03*
X1525000Y1795000D02*
D03*
X5532120Y1234440D02*
D03*
X5064760Y1917700D02*
D03*
X5217160Y2082800D02*
D03*
X5450840Y3200400D02*
D03*
X4848860Y3456940D02*
D03*
X4620260Y3520440D02*
D03*
X1356360Y1719580D02*
D03*
X1376680Y1960880D02*
D03*
X4494920Y2625000D02*
D03*
X4569920D02*
D03*
X4644920D02*
D03*
Y2700000D02*
D03*
X4569920D02*
D03*
X4494920D02*
D03*
Y2775000D02*
D03*
X4569920D02*
D03*
X4644920D02*
D03*
X4719920D02*
D03*
Y2700000D02*
D03*
Y2625000D02*
D03*
Y2550000D02*
D03*
X4644920D02*
D03*
X4569920D02*
D03*
X4494920D02*
D03*
X4419920D02*
D03*
Y2625000D02*
D03*
Y2700000D02*
D03*
Y2775000D02*
D03*
X4719920Y2850000D02*
D03*
X4644920D02*
D03*
X4569920D02*
D03*
X4494920D02*
D03*
X4419920D02*
D03*
X4212200Y1325000D02*
D03*
X1963420Y3456940D02*
D03*
X1755140Y1536700D02*
D03*
X1836420Y2773680D02*
D03*
X1651480Y1463520D02*
D03*
X1196340Y3053080D02*
D03*
X1579880Y3093720D02*
D03*
X1326000Y3444360D02*
D03*
X1701800Y2763520D02*
D03*
X2763520Y3235960D02*
D03*
X4140200Y2667000D02*
D03*
X2981960Y3241040D02*
D03*
X3185160Y3235960D02*
D03*
X3403600Y3238500D02*
D03*
X3327400Y1892300D02*
D03*
X3317630Y1568450D02*
D03*
X764540Y3345180D02*
D03*
X1960880Y2786380D02*
D03*
X723900Y2880360D02*
D03*
X1231900Y2590800D02*
D03*
X1229360Y2458720D02*
D03*
X3495040Y4041140D02*
D03*
X2677160Y4036060D02*
D03*
X4518660Y4038600D02*
D03*
X5059680Y3776980D02*
D03*
X5196840Y3545840D02*
D03*
X4853940Y3543300D02*
D03*
X5331460Y3075940D02*
D03*
X5237480Y3187700D02*
D03*
X5059680Y2087880D02*
D03*
X5062220Y2367280D02*
D03*
X5237480Y2479040D02*
D03*
X5214620Y2428240D02*
D03*
X5595620Y2138680D02*
D03*
X5593080Y2379980D02*
D03*
X5232400Y2682240D02*
D03*
X5011420Y2588260D02*
D03*
X5085080Y2837180D02*
D03*
X4904740Y2969260D02*
D03*
X4859020Y3241040D02*
D03*
X4559300Y3172460D02*
D03*
X4333240Y3175000D02*
D03*
X4010660Y3060700D02*
D03*
X4071620Y2611120D02*
D03*
X5225000Y1825000D02*
D03*
X4975000Y1925000D02*
D03*
X5050000Y1825000D02*
D03*
X4600000Y1500000D02*
D03*
X4500000D02*
D03*
Y1600000D02*
D03*
X4600000D02*
D03*
X4780080D02*
D03*
Y1500000D02*
D03*
X4600000Y1400000D02*
D03*
X4500000D02*
D03*
X4400000D02*
D03*
X4405080Y1500000D02*
D03*
Y1600000D02*
D03*
X4780080Y1700000D02*
D03*
X4600000D02*
D03*
X4500000D02*
D03*
X4405080D02*
D03*
X5260000Y1307500D02*
D03*
X4965000Y1217500D02*
D03*
X5192500Y987500D02*
D03*
X4895000Y745000D02*
D03*
X4665000Y1047500D02*
D03*
X4325000Y1045000D02*
D03*
X4012500Y2035000D02*
D03*
X4017500Y1745000D02*
D03*
X3907500Y1662500D02*
D03*
X3392500Y1220000D02*
D03*
X2987500Y1225000D02*
D03*
X2922500Y1820000D02*
D03*
X3142500Y2010000D02*
D03*
X3000000Y2432500D02*
D03*
X3100000Y2440000D02*
D03*
X2595000D02*
D03*
X2347500Y1315000D02*
D03*
X2607500Y1497500D02*
D03*
X2615000Y1692500D02*
D03*
X2400000Y2140000D02*
D03*
X2182500D02*
D03*
X2115000Y2365000D02*
D03*
X1917500Y2367500D02*
D03*
X972500Y2212500D02*
D03*
X1052500Y1962500D02*
D03*
X955000Y1867500D02*
D03*
X1547500D02*
D03*
X1500000Y1515000D02*
D03*
X1350000Y1567500D02*
D03*
X1555000Y1717500D02*
D03*
X1820000Y1872500D02*
D03*
X1845000Y1730000D02*
D03*
X1847500Y1627500D02*
D03*
X1822500Y1482500D02*
D03*
X1825000Y1377500D02*
D03*
X2922500Y682500D02*
D03*
X2067500Y695000D02*
D03*
X1785000Y695000D02*
D03*
X935000Y700000D02*
D03*
X915000Y965000D02*
D03*
X952500Y1717500D02*
D03*
X822500Y1470000D02*
D03*
X780000Y1355000D02*
D03*
%TF.MD5,ea4f82efc66a401d572c5bd49daefc2b*%
M02*
