%TF.GenerationSoftware,Altium Limited,Altium Designer,19.1.7 (138)*%
G04 Layer_Color=32896*
%FSLAX45Y45*%
%MOMM*%
%TF.FileFunction,Legend,Bot*%
%TF.Part,Single*%
G01*
G75*
%TA.AperFunction,NonConductor*%
%ADD59C,0.20000*%
G36*
X825237Y878793D02*
X825969Y878719D01*
X826847Y878646D01*
X827798Y878573D01*
X828895Y878427D01*
X831090Y877915D01*
X833430Y877256D01*
X834528Y876817D01*
X835625Y876305D01*
X836722Y875720D01*
X837673Y875062D01*
X837746Y874989D01*
X837893Y874915D01*
X838185Y874696D01*
X838478Y874403D01*
X838917Y873964D01*
X839356Y873526D01*
X839868Y873013D01*
X840380Y872355D01*
X840965Y871697D01*
X841477Y870892D01*
X842062Y870087D01*
X842574Y869136D01*
X843452Y867161D01*
X843891Y865991D01*
X844184Y864820D01*
X834528Y862992D01*
Y863065D01*
X834455Y863138D01*
X834308Y863577D01*
X834089Y864235D01*
X833650Y865040D01*
X833138Y865918D01*
X832479Y866796D01*
X831675Y867747D01*
X830724Y868551D01*
X830577Y868624D01*
X830212Y868844D01*
X829626Y869210D01*
X828822Y869575D01*
X827798Y869941D01*
X826627Y870307D01*
X825237Y870526D01*
X823774Y870599D01*
X823189D01*
X822750Y870526D01*
X822165Y870453D01*
X821580Y870380D01*
X820117Y870087D01*
X818507Y869575D01*
X816825Y868844D01*
X816020Y868405D01*
X815216Y867893D01*
X814411Y867234D01*
X813679Y866503D01*
X813606Y866430D01*
X813533Y866284D01*
X813314Y866064D01*
X813094Y865771D01*
X812802Y865333D01*
X812509Y864820D01*
X812216Y864235D01*
X811851Y863504D01*
X811485Y862699D01*
X811192Y861821D01*
X810900Y860797D01*
X810607Y859773D01*
X810388Y858603D01*
X810168Y857286D01*
X810095Y855969D01*
X810022Y854506D01*
Y854433D01*
Y854140D01*
Y853701D01*
X810095Y853116D01*
X810168Y852385D01*
X810241Y851580D01*
X810314Y850702D01*
X810461Y849678D01*
X810900Y847630D01*
X811631Y845435D01*
X811997Y844411D01*
X812509Y843460D01*
X813094Y842509D01*
X813753Y841631D01*
X813826Y841558D01*
X813899Y841485D01*
X814118Y841266D01*
X814411Y840973D01*
X814850Y840680D01*
X815289Y840315D01*
X815801Y839876D01*
X816459Y839510D01*
X817849Y838705D01*
X819532Y838047D01*
X820482Y837754D01*
X821507Y837608D01*
X822604Y837462D01*
X823701Y837388D01*
X824213D01*
X824798Y837462D01*
X825603Y837535D01*
X826481Y837681D01*
X827505Y837901D01*
X828602Y838193D01*
X829773Y838559D01*
X829919Y838632D01*
X830285Y838778D01*
X830870Y838998D01*
X831602Y839364D01*
X832406Y839802D01*
X833284Y840315D01*
X834162Y840827D01*
X835040Y841485D01*
Y847630D01*
X823994D01*
Y855750D01*
X844842D01*
Y836511D01*
X844696Y836364D01*
X844257Y835999D01*
X843599Y835487D01*
X842574Y834755D01*
X841331Y833950D01*
X839795Y833073D01*
X838039Y832195D01*
X835991Y831317D01*
X835918D01*
X835698Y831244D01*
X835405Y831097D01*
X834967Y830951D01*
X834455Y830805D01*
X833869Y830658D01*
X833138Y830439D01*
X832333Y830220D01*
X830577Y829854D01*
X828602Y829488D01*
X826481Y829195D01*
X824286Y829122D01*
X823555D01*
X823043Y829195D01*
X822384D01*
X821580Y829269D01*
X820775Y829415D01*
X819824Y829488D01*
X817776Y829927D01*
X815581Y830439D01*
X813314Y831244D01*
X812216Y831683D01*
X811119Y832268D01*
X811046Y832341D01*
X810900Y832414D01*
X810607Y832634D01*
X810241Y832853D01*
X809729Y833146D01*
X809217Y833585D01*
X807973Y834609D01*
X806657Y835852D01*
X805267Y837388D01*
X803950Y839217D01*
X802780Y841266D01*
Y841339D01*
X802633Y841558D01*
X802560Y841851D01*
X802341Y842290D01*
X802121Y842875D01*
X801902Y843533D01*
X801682Y844265D01*
X801390Y845069D01*
X801097Y846020D01*
X800878Y847045D01*
X800439Y849166D01*
X800146Y851580D01*
X800000Y854140D01*
Y854213D01*
Y854506D01*
Y854872D01*
X800073Y855384D01*
Y856042D01*
X800146Y856847D01*
X800293Y857652D01*
X800366Y858603D01*
X800731Y860651D01*
X801317Y862919D01*
X802048Y865186D01*
X803072Y867454D01*
X803145Y867527D01*
X803219Y867747D01*
X803438Y868039D01*
X803658Y868405D01*
X804023Y868917D01*
X804389Y869502D01*
X805413Y870746D01*
X806730Y872209D01*
X808266Y873745D01*
X810168Y875135D01*
X812289Y876452D01*
X812363D01*
X812509Y876525D01*
X812728Y876671D01*
X813094Y876817D01*
X813606Y877037D01*
X814118Y877183D01*
X814777Y877403D01*
X815435Y877695D01*
X816240Y877915D01*
X817117Y878134D01*
X818068Y878280D01*
X819093Y878500D01*
X821287Y878793D01*
X823774Y878866D01*
X824652D01*
X825237Y878793D01*
D02*
G37*
G36*
X892025Y830000D02*
X882296D01*
X862837Y861529D01*
Y830000D01*
X853840D01*
Y878061D01*
X863203D01*
X883027Y845801D01*
Y878061D01*
X892025D01*
Y830000D01*
D02*
G37*
G36*
X921944Y877988D02*
X923261Y877915D01*
X924797Y877842D01*
X926260Y877695D01*
X927723Y877403D01*
X929040Y877110D01*
X929113D01*
X929260Y877037D01*
X929479Y876964D01*
X929772Y876891D01*
X930503Y876525D01*
X931527Y876086D01*
X932625Y875501D01*
X933795Y874696D01*
X935039Y873745D01*
X936209Y872648D01*
X936282D01*
X936355Y872501D01*
X936721Y872063D01*
X937233Y871404D01*
X937965Y870526D01*
X938696Y869356D01*
X939428Y868039D01*
X940159Y866576D01*
X940818Y864894D01*
Y864820D01*
X940891Y864674D01*
X940964Y864455D01*
X941037Y864089D01*
X941183Y863650D01*
X941330Y863065D01*
X941476Y862480D01*
X941622Y861748D01*
X941768Y860943D01*
X941915Y860139D01*
X942207Y858164D01*
X942354Y855969D01*
X942427Y853555D01*
Y853482D01*
Y853262D01*
Y852970D01*
Y852531D01*
X942354Y852019D01*
Y851434D01*
X942207Y850044D01*
X942061Y848434D01*
X941768Y846752D01*
X941403Y844996D01*
X940891Y843314D01*
Y843241D01*
X940818Y843094D01*
X940744Y842802D01*
X940598Y842436D01*
X940379Y841997D01*
X940159Y841485D01*
X939574Y840315D01*
X938842Y838925D01*
X937965Y837535D01*
X936940Y836145D01*
X935770Y834828D01*
X935624Y834755D01*
X935331Y834389D01*
X934746Y833950D01*
X934014Y833438D01*
X932990Y832780D01*
X931820Y832122D01*
X930503Y831536D01*
X928967Y830951D01*
X928821Y830878D01*
X928382Y830805D01*
X927723Y830658D01*
X926699Y830512D01*
X925529Y830293D01*
X924066Y830146D01*
X922310Y830073D01*
X920408Y830000D01*
X902266D01*
Y878061D01*
X921359D01*
X921944Y877988D01*
D02*
G37*
G36*
X671887Y830000D02*
X662157D01*
Y850995D01*
X643211D01*
Y830000D01*
X633482D01*
Y878061D01*
X643211D01*
Y859115D01*
X662157D01*
Y878061D01*
X671887D01*
Y830000D01*
D02*
G37*
G36*
X628069Y842802D02*
X610000D01*
Y852019D01*
X628069D01*
Y842802D01*
D02*
G37*
G36*
X704659Y830000D02*
X694198D01*
X677007Y878061D01*
X687468D01*
X699684Y842509D01*
X711389Y878061D01*
X721776D01*
X704659Y830000D01*
D02*
G37*
G36*
X877454Y1103357D02*
X899497Y1070000D01*
X883891D01*
X869749Y1091653D01*
X855508Y1070000D01*
X840000D01*
X862141Y1103357D01*
X842048Y1134081D01*
X857166D01*
X869749Y1114866D01*
X882428Y1134081D01*
X897546D01*
X877454Y1103357D01*
D02*
G37*
G36*
X677454D02*
X699497Y1070000D01*
X683891D01*
X669748Y1091653D01*
X655508Y1070000D01*
X640000D01*
X662141Y1103357D01*
X642048Y1134081D01*
X657166D01*
X669748Y1114866D01*
X682428Y1134081D01*
X697546D01*
X677454Y1103357D01*
D02*
G37*
G36*
X891960Y1330000D02*
X881499D01*
X864308Y1378061D01*
X874769D01*
X886986Y1342509D01*
X898690Y1378061D01*
X909077D01*
X891960Y1330000D01*
D02*
G37*
G36*
X860139Y1368697D02*
X842729D01*
X841266Y1360577D01*
X841412Y1360651D01*
X841778Y1360797D01*
X842436Y1361089D01*
X843241Y1361382D01*
X844118Y1361602D01*
X845216Y1361894D01*
X846386Y1362040D01*
X847557Y1362114D01*
X848142D01*
X848581Y1362040D01*
X849093Y1361967D01*
X849751Y1361894D01*
X850410Y1361748D01*
X851141Y1361528D01*
X852824Y1361016D01*
X853628Y1360651D01*
X854506Y1360212D01*
X855384Y1359700D01*
X856262Y1359114D01*
X857140Y1358456D01*
X857944Y1357651D01*
X858017Y1357578D01*
X858164Y1357432D01*
X858310Y1357212D01*
X858603Y1356847D01*
X858968Y1356408D01*
X859334Y1355896D01*
X859700Y1355237D01*
X860139Y1354506D01*
X860505Y1353701D01*
X860870Y1352823D01*
X861236Y1351872D01*
X861602Y1350848D01*
X861894Y1349751D01*
X862041Y1348580D01*
X862187Y1347337D01*
X862260Y1346020D01*
Y1345947D01*
Y1345728D01*
Y1345435D01*
X862187Y1344996D01*
Y1344484D01*
X862114Y1343899D01*
X861968Y1343240D01*
X861821Y1342509D01*
X861455Y1340826D01*
X860797Y1339071D01*
X859992Y1337242D01*
X859407Y1336291D01*
X858822Y1335413D01*
X858749Y1335340D01*
X858603Y1335121D01*
X858310Y1334828D01*
X857944Y1334462D01*
X857505Y1333950D01*
X856920Y1333438D01*
X856189Y1332853D01*
X855457Y1332268D01*
X854579Y1331682D01*
X853555Y1331097D01*
X852531Y1330585D01*
X851361Y1330073D01*
X850117Y1329707D01*
X848727Y1329415D01*
X847337Y1329195D01*
X845801Y1329122D01*
X845143D01*
X844704Y1329195D01*
X844118D01*
X843460Y1329342D01*
X842729Y1329415D01*
X841924Y1329561D01*
X840241Y1330000D01*
X838413Y1330585D01*
X836657Y1331463D01*
X835779Y1332048D01*
X834974Y1332633D01*
X834901Y1332707D01*
X834828Y1332780D01*
X834609Y1332999D01*
X834316Y1333292D01*
X833950Y1333657D01*
X833585Y1334096D01*
X833219Y1334608D01*
X832780Y1335194D01*
X831902Y1336584D01*
X831097Y1338193D01*
X830439Y1340168D01*
X830220Y1341192D01*
X830000Y1342289D01*
X839144Y1343240D01*
Y1343094D01*
X839217Y1342728D01*
X839364Y1342143D01*
X839583Y1341412D01*
X839876Y1340680D01*
X840241Y1339802D01*
X840753Y1338998D01*
X841412Y1338266D01*
X841485Y1338193D01*
X841778Y1337973D01*
X842143Y1337681D01*
X842729Y1337388D01*
X843387Y1337096D01*
X844118Y1336803D01*
X844996Y1336584D01*
X845874Y1336510D01*
X846020D01*
X846386Y1336584D01*
X846898Y1336657D01*
X847557Y1336803D01*
X848361Y1337096D01*
X849166Y1337535D01*
X849971Y1338047D01*
X850775Y1338851D01*
X850848Y1338998D01*
X851068Y1339290D01*
X851434Y1339875D01*
X851799Y1340607D01*
X852165Y1341631D01*
X852531Y1342801D01*
X852750Y1344265D01*
X852824Y1345874D01*
Y1345947D01*
Y1346093D01*
Y1346313D01*
Y1346605D01*
X852750Y1347410D01*
X852604Y1348361D01*
X852311Y1349458D01*
X851946Y1350556D01*
X851434Y1351653D01*
X850775Y1352531D01*
X850702Y1352604D01*
X850410Y1352896D01*
X849971Y1353262D01*
X849385Y1353701D01*
X848654Y1354067D01*
X847776Y1354433D01*
X846752Y1354725D01*
X845655Y1354798D01*
X845289D01*
X844996Y1354725D01*
X844192Y1354652D01*
X843241Y1354359D01*
X842143Y1353921D01*
X840900Y1353335D01*
X839729Y1352458D01*
X839071Y1351872D01*
X838486Y1351287D01*
X831097Y1352311D01*
X835779Y1377329D01*
X860139D01*
Y1368697D01*
D02*
G37*
G36*
X679736Y1330000D02*
X670007D01*
Y1350995D01*
X651060D01*
Y1330000D01*
X641331D01*
Y1378061D01*
X651060D01*
Y1359114D01*
X670007D01*
Y1378061D01*
X679736D01*
Y1330000D01*
D02*
G37*
G36*
X712508D02*
X702047D01*
X684856Y1378061D01*
X695317D01*
X707534Y1342509D01*
X719238Y1378061D01*
X729625D01*
X712508Y1330000D01*
D02*
G37*
G36*
X620995Y1357798D02*
X633577D01*
Y1349312D01*
X620995D01*
Y1336876D01*
X612582D01*
Y1349312D01*
X600000D01*
Y1357798D01*
X612582D01*
Y1370233D01*
X620995D01*
Y1357798D01*
D02*
G37*
G36*
X877454Y1613357D02*
X899497Y1580000D01*
X883891D01*
X869749Y1601653D01*
X855508Y1580000D01*
X840000D01*
X862141Y1613357D01*
X842048Y1644081D01*
X857166D01*
X869749Y1624866D01*
X882428Y1644081D01*
X897546D01*
X877454Y1613357D01*
D02*
G37*
G36*
X677454D02*
X699497Y1580000D01*
X683891D01*
X669748Y1601653D01*
X655508Y1580000D01*
X640000D01*
X662141Y1613357D01*
X642048Y1644081D01*
X657166D01*
X669748Y1624866D01*
X682428Y1644081D01*
X697546D01*
X677454Y1613357D01*
D02*
G37*
G36*
X891960Y1830000D02*
X881499D01*
X864308Y1878061D01*
X874769D01*
X886986Y1842509D01*
X898690Y1878061D01*
X909077D01*
X891960Y1830000D01*
D02*
G37*
G36*
X860139Y1868697D02*
X842729D01*
X841266Y1860577D01*
X841412Y1860651D01*
X841778Y1860797D01*
X842436Y1861089D01*
X843241Y1861382D01*
X844118Y1861602D01*
X845216Y1861894D01*
X846386Y1862040D01*
X847557Y1862114D01*
X848142D01*
X848581Y1862040D01*
X849093Y1861967D01*
X849751Y1861894D01*
X850410Y1861748D01*
X851141Y1861528D01*
X852824Y1861016D01*
X853628Y1860651D01*
X854506Y1860212D01*
X855384Y1859700D01*
X856262Y1859114D01*
X857140Y1858456D01*
X857944Y1857651D01*
X858017Y1857578D01*
X858164Y1857432D01*
X858310Y1857212D01*
X858603Y1856847D01*
X858968Y1856408D01*
X859334Y1855896D01*
X859700Y1855237D01*
X860139Y1854506D01*
X860505Y1853701D01*
X860870Y1852823D01*
X861236Y1851872D01*
X861602Y1850848D01*
X861894Y1849751D01*
X862041Y1848581D01*
X862187Y1847337D01*
X862260Y1846020D01*
Y1845947D01*
Y1845728D01*
Y1845435D01*
X862187Y1844996D01*
Y1844484D01*
X862114Y1843899D01*
X861968Y1843240D01*
X861821Y1842509D01*
X861455Y1840826D01*
X860797Y1839071D01*
X859992Y1837242D01*
X859407Y1836291D01*
X858822Y1835413D01*
X858749Y1835340D01*
X858603Y1835121D01*
X858310Y1834828D01*
X857944Y1834462D01*
X857505Y1833950D01*
X856920Y1833438D01*
X856189Y1832853D01*
X855457Y1832268D01*
X854579Y1831682D01*
X853555Y1831097D01*
X852531Y1830585D01*
X851361Y1830073D01*
X850117Y1829707D01*
X848727Y1829415D01*
X847337Y1829195D01*
X845801Y1829122D01*
X845143D01*
X844704Y1829195D01*
X844118D01*
X843460Y1829342D01*
X842729Y1829415D01*
X841924Y1829561D01*
X840241Y1830000D01*
X838413Y1830585D01*
X836657Y1831463D01*
X835779Y1832048D01*
X834974Y1832633D01*
X834901Y1832707D01*
X834828Y1832780D01*
X834609Y1832999D01*
X834316Y1833292D01*
X833950Y1833657D01*
X833585Y1834096D01*
X833219Y1834608D01*
X832780Y1835194D01*
X831902Y1836584D01*
X831097Y1838193D01*
X830439Y1840168D01*
X830220Y1841192D01*
X830000Y1842289D01*
X839144Y1843240D01*
Y1843094D01*
X839217Y1842728D01*
X839364Y1842143D01*
X839583Y1841412D01*
X839876Y1840680D01*
X840241Y1839802D01*
X840753Y1838998D01*
X841412Y1838266D01*
X841485Y1838193D01*
X841778Y1837973D01*
X842143Y1837681D01*
X842729Y1837388D01*
X843387Y1837096D01*
X844118Y1836803D01*
X844996Y1836584D01*
X845874Y1836510D01*
X846020D01*
X846386Y1836584D01*
X846898Y1836657D01*
X847557Y1836803D01*
X848361Y1837096D01*
X849166Y1837535D01*
X849971Y1838047D01*
X850775Y1838851D01*
X850848Y1838998D01*
X851068Y1839290D01*
X851434Y1839875D01*
X851799Y1840607D01*
X852165Y1841631D01*
X852531Y1842801D01*
X852750Y1844265D01*
X852824Y1845874D01*
Y1845947D01*
Y1846093D01*
Y1846313D01*
Y1846605D01*
X852750Y1847410D01*
X852604Y1848361D01*
X852311Y1849458D01*
X851946Y1850556D01*
X851434Y1851653D01*
X850775Y1852531D01*
X850702Y1852604D01*
X850410Y1852896D01*
X849971Y1853262D01*
X849385Y1853701D01*
X848654Y1854067D01*
X847776Y1854433D01*
X846752Y1854725D01*
X845655Y1854798D01*
X845289D01*
X844996Y1854725D01*
X844192Y1854652D01*
X843241Y1854360D01*
X842143Y1853921D01*
X840900Y1853335D01*
X839729Y1852458D01*
X839071Y1851872D01*
X838486Y1851287D01*
X831097Y1852311D01*
X835779Y1877329D01*
X860139D01*
Y1868697D01*
D02*
G37*
G36*
X625238Y1878792D02*
X625969Y1878719D01*
X626847Y1878646D01*
X627798Y1878573D01*
X628895Y1878427D01*
X631090Y1877914D01*
X633431Y1877256D01*
X634528Y1876817D01*
X635625Y1876305D01*
X636722Y1875720D01*
X637673Y1875062D01*
X637747Y1874988D01*
X637893Y1874915D01*
X638185Y1874696D01*
X638478Y1874403D01*
X638917Y1873964D01*
X639356Y1873525D01*
X639868Y1873013D01*
X640380Y1872355D01*
X640965Y1871697D01*
X641477Y1870892D01*
X642062Y1870087D01*
X642575Y1869136D01*
X643452Y1867161D01*
X643891Y1865991D01*
X644184Y1864820D01*
X634528Y1862991D01*
Y1863065D01*
X634455Y1863138D01*
X634308Y1863577D01*
X634089Y1864235D01*
X633650Y1865040D01*
X633138Y1865918D01*
X632480Y1866795D01*
X631675Y1867746D01*
X630724Y1868551D01*
X630578Y1868624D01*
X630212Y1868844D01*
X629627Y1869209D01*
X628822Y1869575D01*
X627798Y1869941D01*
X626627Y1870307D01*
X625238Y1870526D01*
X623774Y1870599D01*
X623189D01*
X622750Y1870526D01*
X622165Y1870453D01*
X621580Y1870380D01*
X620117Y1870087D01*
X618508Y1869575D01*
X616825Y1868844D01*
X616020Y1868405D01*
X615216Y1867893D01*
X614411Y1867234D01*
X613679Y1866503D01*
X613606Y1866430D01*
X613533Y1866283D01*
X613314Y1866064D01*
X613094Y1865771D01*
X612802Y1865332D01*
X612509Y1864820D01*
X612216Y1864235D01*
X611851Y1863504D01*
X611485Y1862699D01*
X611192Y1861821D01*
X610900Y1860797D01*
X610607Y1859773D01*
X610388Y1858602D01*
X610168Y1857286D01*
X610095Y1855969D01*
X610022Y1854506D01*
Y1854433D01*
Y1854140D01*
Y1853701D01*
X610095Y1853116D01*
X610168Y1852384D01*
X610241Y1851580D01*
X610315Y1850702D01*
X610461Y1849678D01*
X610900Y1847630D01*
X611631Y1845435D01*
X611997Y1844411D01*
X612509Y1843460D01*
X613094Y1842509D01*
X613753Y1841631D01*
X613826Y1841558D01*
X613899Y1841485D01*
X614118Y1841265D01*
X614411Y1840973D01*
X614850Y1840680D01*
X615289Y1840314D01*
X615801Y1839875D01*
X616459Y1839510D01*
X617849Y1838705D01*
X619532Y1838047D01*
X620483Y1837754D01*
X621507Y1837608D01*
X622604Y1837461D01*
X623701Y1837388D01*
X624213D01*
X624799Y1837461D01*
X625603Y1837535D01*
X626481Y1837681D01*
X627505Y1837900D01*
X628603Y1838193D01*
X629773Y1838559D01*
X629919Y1838632D01*
X630285Y1838778D01*
X630870Y1838998D01*
X631602Y1839363D01*
X632406Y1839802D01*
X633284Y1840314D01*
X634162Y1840826D01*
X635040Y1841485D01*
Y1847630D01*
X623994D01*
Y1855749D01*
X644842D01*
Y1836510D01*
X644696Y1836364D01*
X644257Y1835998D01*
X643599Y1835486D01*
X642575Y1834755D01*
X641331Y1833950D01*
X639795Y1833072D01*
X638039Y1832194D01*
X635991Y1831317D01*
X635918D01*
X635698Y1831243D01*
X635406Y1831097D01*
X634967Y1830951D01*
X634455Y1830805D01*
X633869Y1830658D01*
X633138Y1830439D01*
X632333Y1830219D01*
X630578Y1829854D01*
X628603Y1829488D01*
X626481Y1829195D01*
X624287Y1829122D01*
X623555D01*
X623043Y1829195D01*
X622385D01*
X621580Y1829268D01*
X620775Y1829415D01*
X619824Y1829488D01*
X617776Y1829927D01*
X615581Y1830439D01*
X613314Y1831243D01*
X612216Y1831682D01*
X611119Y1832268D01*
X611046Y1832341D01*
X610900Y1832414D01*
X610607Y1832633D01*
X610241Y1832853D01*
X609729Y1833145D01*
X609217Y1833584D01*
X607974Y1834608D01*
X606657Y1835852D01*
X605267Y1837388D01*
X603950Y1839217D01*
X602780Y1841265D01*
Y1841338D01*
X602634Y1841558D01*
X602560Y1841851D01*
X602341Y1842289D01*
X602121Y1842875D01*
X601902Y1843533D01*
X601683Y1844265D01*
X601390Y1845069D01*
X601097Y1846020D01*
X600878Y1847044D01*
X600439Y1849166D01*
X600146Y1851580D01*
X600000Y1854140D01*
Y1854213D01*
Y1854506D01*
Y1854872D01*
X600073Y1855384D01*
Y1856042D01*
X600146Y1856847D01*
X600293Y1857651D01*
X600366Y1858602D01*
X600732Y1860651D01*
X601317Y1862918D01*
X602048Y1865186D01*
X603072Y1867454D01*
X603146Y1867527D01*
X603219Y1867746D01*
X603438Y1868039D01*
X603658Y1868405D01*
X604023Y1868917D01*
X604389Y1869502D01*
X605413Y1870746D01*
X606730Y1872209D01*
X608266Y1873745D01*
X610168Y1875135D01*
X612290Y1876451D01*
X612363D01*
X612509Y1876525D01*
X612729Y1876671D01*
X613094Y1876817D01*
X613606Y1877037D01*
X614118Y1877183D01*
X614777Y1877402D01*
X615435Y1877695D01*
X616240Y1877914D01*
X617118Y1878134D01*
X618069Y1878280D01*
X619093Y1878500D01*
X621287Y1878792D01*
X623774Y1878865D01*
X624652D01*
X625238Y1878792D01*
D02*
G37*
G36*
X692025Y1830000D02*
X682296D01*
X662838Y1861528D01*
Y1830000D01*
X653840D01*
Y1878061D01*
X663203D01*
X683028Y1845801D01*
Y1878061D01*
X692025D01*
Y1830000D01*
D02*
G37*
G36*
X721944Y1877988D02*
X723261Y1877914D01*
X724797Y1877841D01*
X726260Y1877695D01*
X727723Y1877402D01*
X729040Y1877110D01*
X729113D01*
X729260Y1877037D01*
X729479Y1876963D01*
X729772Y1876890D01*
X730503Y1876525D01*
X731527Y1876086D01*
X732625Y1875500D01*
X733795Y1874696D01*
X735039Y1873745D01*
X736209Y1872648D01*
X736282D01*
X736355Y1872501D01*
X736721Y1872062D01*
X737233Y1871404D01*
X737965Y1870526D01*
X738696Y1869356D01*
X739428Y1868039D01*
X740159Y1866576D01*
X740818Y1864893D01*
Y1864820D01*
X740891Y1864674D01*
X740964Y1864454D01*
X741037Y1864089D01*
X741183Y1863650D01*
X741330Y1863065D01*
X741476Y1862479D01*
X741622Y1861748D01*
X741769Y1860943D01*
X741915Y1860139D01*
X742208Y1858163D01*
X742354Y1855969D01*
X742427Y1853555D01*
Y1853482D01*
Y1853262D01*
Y1852970D01*
Y1852531D01*
X742354Y1852019D01*
Y1851433D01*
X742208Y1850044D01*
X742061Y1848434D01*
X741769Y1846752D01*
X741403Y1844996D01*
X740891Y1843314D01*
Y1843240D01*
X740818Y1843094D01*
X740745Y1842801D01*
X740598Y1842436D01*
X740379Y1841997D01*
X740159Y1841485D01*
X739574Y1840314D01*
X738843Y1838924D01*
X737965Y1837535D01*
X736941Y1836145D01*
X735770Y1834828D01*
X735624Y1834755D01*
X735331Y1834389D01*
X734746Y1833950D01*
X734015Y1833438D01*
X732990Y1832780D01*
X731820Y1832121D01*
X730503Y1831536D01*
X728967Y1830951D01*
X728821Y1830878D01*
X728382Y1830805D01*
X727723Y1830658D01*
X726699Y1830512D01*
X725529Y1830293D01*
X724066Y1830146D01*
X722310Y1830073D01*
X720408Y1830000D01*
X702267D01*
Y1878061D01*
X721359D01*
X721944Y1877988D01*
D02*
G37*
G36*
X978324Y2338792D02*
X979129Y2338719D01*
X980006Y2338646D01*
X980957Y2338500D01*
X981982Y2338353D01*
X984176Y2337915D01*
X986444Y2337183D01*
X987541Y2336744D01*
X988565Y2336159D01*
X989589Y2335574D01*
X990467Y2334842D01*
X990540Y2334769D01*
X990687Y2334623D01*
X990906Y2334403D01*
X991199Y2334111D01*
X991564Y2333745D01*
X991930Y2333233D01*
X992369Y2332648D01*
X992808Y2331989D01*
X993247Y2331258D01*
X993613Y2330453D01*
X994417Y2328697D01*
X994710Y2327673D01*
X995003Y2326576D01*
X995222Y2325406D01*
X995295Y2324235D01*
X985566Y2323869D01*
Y2323943D01*
Y2324016D01*
X985420Y2324455D01*
X985273Y2325113D01*
X984981Y2325918D01*
X984615Y2326795D01*
X984176Y2327673D01*
X983591Y2328478D01*
X982859Y2329136D01*
X982786Y2329209D01*
X982494Y2329429D01*
X982055Y2329648D01*
X981396Y2330014D01*
X980518Y2330307D01*
X979494Y2330526D01*
X978251Y2330746D01*
X976788Y2330819D01*
X976129D01*
X975325Y2330746D01*
X974374Y2330599D01*
X973350Y2330380D01*
X972252Y2330087D01*
X971155Y2329648D01*
X970204Y2329063D01*
X970131Y2328990D01*
X969985Y2328844D01*
X969765Y2328624D01*
X969473Y2328258D01*
X969180Y2327820D01*
X968960Y2327308D01*
X968814Y2326722D01*
X968741Y2326064D01*
Y2325991D01*
Y2325771D01*
X968814Y2325479D01*
X968887Y2325040D01*
X969107Y2324601D01*
X969326Y2324089D01*
X969692Y2323650D01*
X970131Y2323138D01*
X970204Y2323065D01*
X970497Y2322845D01*
X971082Y2322553D01*
X971448Y2322406D01*
X971960Y2322187D01*
X972472Y2321894D01*
X973130Y2321675D01*
X973789Y2321382D01*
X974666Y2321163D01*
X975544Y2320870D01*
X976568Y2320578D01*
X977739Y2320212D01*
X978982Y2319919D01*
X979055D01*
X979275Y2319846D01*
X979641Y2319773D01*
X980153Y2319627D01*
X980738Y2319480D01*
X981396Y2319261D01*
X982933Y2318895D01*
X984688Y2318310D01*
X986371Y2317798D01*
X988053Y2317139D01*
X988785Y2316847D01*
X989443Y2316481D01*
X989516D01*
X989589Y2316408D01*
X990028Y2316188D01*
X990613Y2315749D01*
X991345Y2315237D01*
X992223Y2314506D01*
X993101Y2313701D01*
X993905Y2312677D01*
X994710Y2311580D01*
X994783Y2311434D01*
X995003Y2311068D01*
X995368Y2310336D01*
X995734Y2309458D01*
X996027Y2308361D01*
X996392Y2307044D01*
X996612Y2305581D01*
X996685Y2303972D01*
Y2303899D01*
Y2303753D01*
Y2303533D01*
Y2303241D01*
X996539Y2302436D01*
X996392Y2301412D01*
X996100Y2300241D01*
X995734Y2298925D01*
X995149Y2297535D01*
X994344Y2296145D01*
Y2296072D01*
X994271Y2295998D01*
X993905Y2295560D01*
X993393Y2294901D01*
X992662Y2294170D01*
X991784Y2293292D01*
X990613Y2292414D01*
X989370Y2291536D01*
X987834Y2290805D01*
X987761D01*
X987614Y2290732D01*
X987395Y2290658D01*
X987102Y2290512D01*
X986663Y2290439D01*
X986224Y2290293D01*
X985639Y2290146D01*
X984981Y2290000D01*
X983445Y2289634D01*
X981689Y2289415D01*
X979714Y2289195D01*
X977446Y2289122D01*
X976568D01*
X975910Y2289195D01*
X975178Y2289268D01*
X974301Y2289342D01*
X973350Y2289488D01*
X972252Y2289634D01*
X969985Y2290146D01*
X968814Y2290512D01*
X967644Y2290878D01*
X966546Y2291390D01*
X965449Y2291902D01*
X964352Y2292560D01*
X963401Y2293292D01*
X963328Y2293365D01*
X963181Y2293511D01*
X962962Y2293731D01*
X962596Y2294097D01*
X962230Y2294535D01*
X961792Y2295047D01*
X961353Y2295706D01*
X960841Y2296364D01*
X960329Y2297242D01*
X959816Y2298120D01*
X959378Y2299144D01*
X958865Y2300241D01*
X958500Y2301412D01*
X958134Y2302728D01*
X957841Y2304118D01*
X957622Y2305581D01*
X967059Y2306532D01*
Y2306459D01*
X967132Y2306313D01*
Y2306093D01*
X967205Y2305728D01*
X967424Y2304923D01*
X967790Y2303826D01*
X968229Y2302728D01*
X968814Y2301558D01*
X969546Y2300461D01*
X970424Y2299510D01*
X970570Y2299437D01*
X970936Y2299144D01*
X971521Y2298851D01*
X972325Y2298412D01*
X973350Y2298047D01*
X974520Y2297681D01*
X975910Y2297388D01*
X977519Y2297315D01*
X978324D01*
X979129Y2297388D01*
X980153Y2297535D01*
X981323Y2297827D01*
X982494Y2298120D01*
X983591Y2298632D01*
X984542Y2299290D01*
X984615Y2299363D01*
X984908Y2299656D01*
X985273Y2300022D01*
X985785Y2300607D01*
X986224Y2301265D01*
X986590Y2302070D01*
X986883Y2302948D01*
X986956Y2303899D01*
Y2303972D01*
Y2304191D01*
X986883Y2304484D01*
X986810Y2304923D01*
X986517Y2305801D01*
X986297Y2306313D01*
X985932Y2306752D01*
X985859Y2306825D01*
X985712Y2306971D01*
X985493Y2307191D01*
X985127Y2307483D01*
X984615Y2307849D01*
X984030Y2308142D01*
X983298Y2308507D01*
X982420Y2308873D01*
X982347D01*
X982055Y2309020D01*
X981543Y2309166D01*
X980811Y2309385D01*
X980372Y2309532D01*
X979787Y2309678D01*
X979202Y2309824D01*
X978470Y2310044D01*
X977666Y2310263D01*
X976788Y2310483D01*
X975837Y2310702D01*
X974739Y2310995D01*
X974666D01*
X974374Y2311068D01*
X974008Y2311214D01*
X973496Y2311360D01*
X972838Y2311507D01*
X972106Y2311726D01*
X970497Y2312311D01*
X968668Y2312970D01*
X966839Y2313774D01*
X965230Y2314725D01*
X964498Y2315237D01*
X963840Y2315749D01*
X963767Y2315823D01*
X963620Y2315969D01*
X963401Y2316188D01*
X963181Y2316481D01*
X962816Y2316847D01*
X962450Y2317286D01*
X962084Y2317871D01*
X961645Y2318456D01*
X960841Y2319846D01*
X960109Y2321529D01*
X959890Y2322406D01*
X959670Y2323357D01*
X959524Y2324381D01*
X959451Y2325406D01*
Y2325479D01*
Y2325552D01*
Y2325771D01*
Y2326064D01*
X959597Y2326722D01*
X959743Y2327673D01*
X959963Y2328697D01*
X960329Y2329868D01*
X960841Y2331038D01*
X961499Y2332282D01*
Y2332355D01*
X961572Y2332428D01*
X961865Y2332794D01*
X962377Y2333379D01*
X963035Y2334111D01*
X963840Y2334915D01*
X964864Y2335720D01*
X966034Y2336525D01*
X967424Y2337183D01*
X967497D01*
X967571Y2337256D01*
X967863Y2337329D01*
X968156Y2337476D01*
X968522Y2337549D01*
X968960Y2337695D01*
X970058Y2338061D01*
X971448Y2338353D01*
X973057Y2338573D01*
X974886Y2338792D01*
X976861Y2338866D01*
X977739D01*
X978324Y2338792D01*
D02*
G37*
G36*
X933921D02*
X934652Y2338719D01*
X935530Y2338573D01*
X936481Y2338427D01*
X937505Y2338207D01*
X938676Y2337915D01*
X939773Y2337549D01*
X941016Y2337183D01*
X942187Y2336671D01*
X943357Y2336013D01*
X944528Y2335354D01*
X945625Y2334550D01*
X946722Y2333599D01*
X946795D01*
X946869Y2333452D01*
X947234Y2333013D01*
X947820Y2332355D01*
X948551Y2331331D01*
X949356Y2330087D01*
X950234Y2328624D01*
X951038Y2326869D01*
X951697Y2324820D01*
X942114Y2322553D01*
Y2322626D01*
X942041Y2322699D01*
X941967Y2323138D01*
X941675Y2323796D01*
X941309Y2324674D01*
X940870Y2325625D01*
X940212Y2326576D01*
X939480Y2327527D01*
X938529Y2328405D01*
X938383Y2328478D01*
X938017Y2328771D01*
X937505Y2329136D01*
X936700Y2329502D01*
X935749Y2329941D01*
X934579Y2330234D01*
X933335Y2330526D01*
X931946Y2330599D01*
X931433D01*
X931068Y2330526D01*
X930629Y2330453D01*
X930117Y2330380D01*
X928873Y2330087D01*
X927483Y2329648D01*
X926020Y2328990D01*
X925362Y2328551D01*
X924630Y2328039D01*
X923972Y2327381D01*
X923314Y2326722D01*
Y2326649D01*
X923167Y2326576D01*
X923021Y2326283D01*
X922802Y2325991D01*
X922582Y2325552D01*
X922289Y2325040D01*
X921997Y2324455D01*
X921704Y2323723D01*
X921339Y2322918D01*
X921046Y2322041D01*
X920753Y2321016D01*
X920534Y2319846D01*
X920314Y2318676D01*
X920168Y2317286D01*
X920095Y2315823D01*
X920022Y2314286D01*
Y2314213D01*
Y2313921D01*
Y2313409D01*
X920095Y2312823D01*
Y2312019D01*
X920168Y2311214D01*
X920314Y2310263D01*
X920461Y2309239D01*
X920826Y2307118D01*
X921412Y2304923D01*
X921777Y2303899D01*
X922216Y2302948D01*
X922655Y2302070D01*
X923240Y2301265D01*
X923314Y2301192D01*
X923387Y2301119D01*
X923826Y2300680D01*
X924557Y2300095D01*
X925508Y2299363D01*
X926752Y2298632D01*
X928215Y2298047D01*
X929897Y2297608D01*
X930775Y2297535D01*
X931726Y2297461D01*
X932092D01*
X932384Y2297535D01*
X933116Y2297608D01*
X933994Y2297754D01*
X935091Y2298047D01*
X936188Y2298486D01*
X937286Y2299071D01*
X938383Y2299876D01*
X938529Y2300022D01*
X938822Y2300314D01*
X939334Y2300973D01*
X939919Y2301777D01*
X940577Y2302875D01*
X941236Y2304265D01*
X941894Y2305801D01*
X942406Y2307703D01*
X951843Y2304777D01*
Y2304704D01*
X951770Y2304411D01*
X951623Y2304045D01*
X951404Y2303460D01*
X951185Y2302802D01*
X950892Y2302070D01*
X950526Y2301192D01*
X950087Y2300314D01*
X949136Y2298412D01*
X947893Y2296437D01*
X946357Y2294609D01*
X945552Y2293731D01*
X944601Y2292999D01*
X944528Y2292926D01*
X944381Y2292853D01*
X944089Y2292633D01*
X943723Y2292414D01*
X943211Y2292121D01*
X942626Y2291829D01*
X941894Y2291463D01*
X941090Y2291097D01*
X940212Y2290732D01*
X939261Y2290366D01*
X938237Y2290073D01*
X937139Y2289781D01*
X935896Y2289561D01*
X934652Y2289342D01*
X933262Y2289268D01*
X931872Y2289195D01*
X931433D01*
X930921Y2289268D01*
X930263D01*
X929458Y2289415D01*
X928507Y2289561D01*
X927483Y2289707D01*
X926313Y2290000D01*
X925069Y2290366D01*
X923826Y2290805D01*
X922509Y2291317D01*
X921192Y2291975D01*
X919875Y2292707D01*
X918559Y2293584D01*
X917315Y2294535D01*
X916145Y2295706D01*
X916072Y2295779D01*
X915852Y2295998D01*
X915560Y2296364D01*
X915194Y2296876D01*
X914755Y2297535D01*
X914170Y2298339D01*
X913658Y2299290D01*
X913072Y2300388D01*
X912487Y2301558D01*
X911975Y2302948D01*
X911463Y2304411D01*
X910951Y2306020D01*
X910585Y2307703D01*
X910293Y2309532D01*
X910073Y2311507D01*
X910000Y2313555D01*
Y2313701D01*
Y2314067D01*
X910073Y2314725D01*
Y2315530D01*
X910219Y2316554D01*
X910293Y2317725D01*
X910512Y2318968D01*
X910805Y2320358D01*
X911097Y2321894D01*
X911536Y2323357D01*
X911975Y2324967D01*
X912560Y2326503D01*
X913292Y2328039D01*
X914096Y2329502D01*
X915047Y2330892D01*
X916145Y2332209D01*
X916218Y2332282D01*
X916437Y2332501D01*
X916803Y2332794D01*
X917242Y2333233D01*
X917900Y2333745D01*
X918632Y2334330D01*
X919510Y2334915D01*
X920534Y2335574D01*
X921631Y2336159D01*
X922875Y2336744D01*
X924191Y2337329D01*
X925654Y2337841D01*
X927191Y2338280D01*
X928873Y2338573D01*
X930629Y2338792D01*
X932458Y2338866D01*
X933335D01*
X933921Y2338792D01*
D02*
G37*
G36*
X726334D02*
X727138Y2338719D01*
X728016Y2338646D01*
X728967Y2338500D01*
X729991Y2338353D01*
X732186Y2337915D01*
X734453Y2337183D01*
X735551Y2336744D01*
X736575Y2336159D01*
X737599Y2335574D01*
X738477Y2334842D01*
X738550Y2334769D01*
X738696Y2334623D01*
X738916Y2334403D01*
X739208Y2334111D01*
X739574Y2333745D01*
X739940Y2333233D01*
X740379Y2332648D01*
X740818Y2331989D01*
X741257Y2331258D01*
X741622Y2330453D01*
X742427Y2328697D01*
X742720Y2327673D01*
X743012Y2326576D01*
X743232Y2325406D01*
X743305Y2324235D01*
X733576Y2323869D01*
Y2323943D01*
Y2324016D01*
X733429Y2324455D01*
X733283Y2325113D01*
X732990Y2325918D01*
X732625Y2326795D01*
X732186Y2327673D01*
X731601Y2328478D01*
X730869Y2329136D01*
X730796Y2329209D01*
X730503Y2329429D01*
X730064Y2329648D01*
X729406Y2330014D01*
X728528Y2330307D01*
X727504Y2330526D01*
X726260Y2330746D01*
X724797Y2330819D01*
X724139D01*
X723334Y2330746D01*
X722383Y2330599D01*
X721359Y2330380D01*
X720262Y2330087D01*
X719165Y2329648D01*
X718214Y2329063D01*
X718141Y2328990D01*
X717994Y2328844D01*
X717775Y2328624D01*
X717482Y2328258D01*
X717190Y2327820D01*
X716970Y2327308D01*
X716824Y2326722D01*
X716751Y2326064D01*
Y2325991D01*
Y2325771D01*
X716824Y2325479D01*
X716897Y2325040D01*
X717116Y2324601D01*
X717336Y2324089D01*
X717702Y2323650D01*
X718141Y2323138D01*
X718214Y2323065D01*
X718506Y2322845D01*
X719092Y2322553D01*
X719457Y2322406D01*
X719969Y2322187D01*
X720481Y2321894D01*
X721140Y2321675D01*
X721798Y2321382D01*
X722676Y2321163D01*
X723554Y2320870D01*
X724578Y2320578D01*
X725748Y2320212D01*
X726992Y2319919D01*
X727065D01*
X727285Y2319846D01*
X727650Y2319773D01*
X728162Y2319627D01*
X728748Y2319480D01*
X729406Y2319261D01*
X730942Y2318895D01*
X732698Y2318310D01*
X734380Y2317798D01*
X736063Y2317139D01*
X736794Y2316847D01*
X737453Y2316481D01*
X737526D01*
X737599Y2316408D01*
X738038Y2316188D01*
X738623Y2315749D01*
X739355Y2315237D01*
X740232Y2314506D01*
X741110Y2313701D01*
X741915Y2312677D01*
X742720Y2311580D01*
X742793Y2311434D01*
X743012Y2311068D01*
X743378Y2310336D01*
X743744Y2309458D01*
X744036Y2308361D01*
X744402Y2307044D01*
X744622Y2305581D01*
X744695Y2303972D01*
Y2303899D01*
Y2303753D01*
Y2303533D01*
Y2303241D01*
X744548Y2302436D01*
X744402Y2301412D01*
X744110Y2300241D01*
X743744Y2298925D01*
X743159Y2297535D01*
X742354Y2296145D01*
Y2296072D01*
X742281Y2295998D01*
X741915Y2295560D01*
X741403Y2294901D01*
X740671Y2294170D01*
X739794Y2293292D01*
X738623Y2292414D01*
X737380Y2291536D01*
X735843Y2290805D01*
X735770D01*
X735624Y2290732D01*
X735404Y2290658D01*
X735112Y2290512D01*
X734673Y2290439D01*
X734234Y2290293D01*
X733649Y2290146D01*
X732990Y2290000D01*
X731454Y2289634D01*
X729699Y2289415D01*
X727723Y2289195D01*
X725456Y2289122D01*
X724578D01*
X723920Y2289195D01*
X723188Y2289268D01*
X722310Y2289342D01*
X721359Y2289488D01*
X720262Y2289634D01*
X717994Y2290146D01*
X716824Y2290512D01*
X715653Y2290878D01*
X714556Y2291390D01*
X713459Y2291902D01*
X712362Y2292560D01*
X711411Y2293292D01*
X711337Y2293365D01*
X711191Y2293511D01*
X710972Y2293731D01*
X710606Y2294097D01*
X710240Y2294535D01*
X709801Y2295047D01*
X709362Y2295706D01*
X708850Y2296364D01*
X708338Y2297242D01*
X707826Y2298120D01*
X707387Y2299144D01*
X706875Y2300241D01*
X706509Y2301412D01*
X706144Y2302728D01*
X705851Y2304118D01*
X705632Y2305581D01*
X715068Y2306532D01*
Y2306459D01*
X715141Y2306313D01*
Y2306093D01*
X715214Y2305728D01*
X715434Y2304923D01*
X715800Y2303826D01*
X716239Y2302728D01*
X716824Y2301558D01*
X717555Y2300461D01*
X718433Y2299510D01*
X718579Y2299437D01*
X718945Y2299144D01*
X719530Y2298851D01*
X720335Y2298412D01*
X721359Y2298047D01*
X722530Y2297681D01*
X723920Y2297388D01*
X725529Y2297315D01*
X726334D01*
X727138Y2297388D01*
X728162Y2297535D01*
X729333Y2297827D01*
X730503Y2298120D01*
X731601Y2298632D01*
X732551Y2299290D01*
X732625Y2299363D01*
X732917Y2299656D01*
X733283Y2300022D01*
X733795Y2300607D01*
X734234Y2301265D01*
X734600Y2302070D01*
X734892Y2302948D01*
X734966Y2303899D01*
Y2303972D01*
Y2304191D01*
X734892Y2304484D01*
X734819Y2304923D01*
X734527Y2305801D01*
X734307Y2306313D01*
X733941Y2306752D01*
X733868Y2306825D01*
X733722Y2306971D01*
X733502Y2307191D01*
X733137Y2307483D01*
X732625Y2307849D01*
X732039Y2308142D01*
X731308Y2308507D01*
X730430Y2308873D01*
X730357D01*
X730064Y2309020D01*
X729552Y2309166D01*
X728821Y2309385D01*
X728382Y2309532D01*
X727797Y2309678D01*
X727211Y2309824D01*
X726480Y2310044D01*
X725675Y2310263D01*
X724797Y2310483D01*
X723846Y2310702D01*
X722749Y2310995D01*
X722676D01*
X722383Y2311068D01*
X722018Y2311214D01*
X721506Y2311360D01*
X720847Y2311507D01*
X720116Y2311726D01*
X718506Y2312311D01*
X716678Y2312970D01*
X714849Y2313774D01*
X713239Y2314725D01*
X712508Y2315237D01*
X711849Y2315749D01*
X711776Y2315823D01*
X711630Y2315969D01*
X711411Y2316188D01*
X711191Y2316481D01*
X710825Y2316847D01*
X710460Y2317286D01*
X710094Y2317871D01*
X709655Y2318456D01*
X708850Y2319846D01*
X708119Y2321529D01*
X707899Y2322406D01*
X707680Y2323357D01*
X707534Y2324381D01*
X707460Y2325406D01*
Y2325479D01*
Y2325552D01*
Y2325771D01*
Y2326064D01*
X707607Y2326722D01*
X707753Y2327673D01*
X707972Y2328697D01*
X708338Y2329868D01*
X708850Y2331038D01*
X709509Y2332282D01*
Y2332355D01*
X709582Y2332428D01*
X709874Y2332794D01*
X710386Y2333379D01*
X711045Y2334111D01*
X711849Y2334915D01*
X712874Y2335720D01*
X714044Y2336525D01*
X715434Y2337183D01*
X715507D01*
X715580Y2337256D01*
X715873Y2337329D01*
X716165Y2337476D01*
X716531Y2337549D01*
X716970Y2337695D01*
X718067Y2338061D01*
X719457Y2338353D01*
X721067Y2338573D01*
X722895Y2338792D01*
X724871Y2338866D01*
X725748D01*
X726334Y2338792D01*
D02*
G37*
G36*
X646378Y2290000D02*
X637381D01*
X637308Y2327820D01*
X627798Y2290000D01*
X618508D01*
X608998Y2327820D01*
Y2290000D01*
X600000D01*
Y2338061D01*
X614484D01*
X623189Y2305216D01*
X631748Y2338061D01*
X646378D01*
Y2290000D01*
D02*
G37*
G36*
X762398D02*
X752668D01*
Y2338061D01*
X762398D01*
Y2290000D01*
D02*
G37*
G36*
X678273Y2338792D02*
X679004D01*
X679882Y2338646D01*
X680906Y2338500D01*
X682077Y2338280D01*
X683320Y2338061D01*
X684710Y2337695D01*
X686027Y2337256D01*
X687490Y2336671D01*
X688880Y2336086D01*
X690270Y2335281D01*
X691660Y2334403D01*
X692976Y2333379D01*
X694220Y2332209D01*
X694293Y2332136D01*
X694512Y2331916D01*
X694805Y2331550D01*
X695244Y2330965D01*
X695683Y2330307D01*
X696268Y2329502D01*
X696780Y2328551D01*
X697439Y2327454D01*
X698024Y2326210D01*
X698609Y2324820D01*
X699121Y2323357D01*
X699560Y2321748D01*
X699999Y2319992D01*
X700291Y2318090D01*
X700511Y2316042D01*
X700584Y2313921D01*
Y2313774D01*
Y2313409D01*
X700511Y2312823D01*
Y2312019D01*
X700365Y2310995D01*
X700218Y2309897D01*
X700072Y2308581D01*
X699779Y2307264D01*
X699487Y2305801D01*
X699048Y2304338D01*
X698536Y2302802D01*
X697877Y2301265D01*
X697146Y2299802D01*
X696341Y2298339D01*
X695317Y2296949D01*
X694220Y2295633D01*
X694147Y2295560D01*
X693927Y2295340D01*
X693561Y2295047D01*
X693049Y2294609D01*
X692464Y2294097D01*
X691660Y2293584D01*
X690782Y2292999D01*
X689758Y2292414D01*
X688587Y2291756D01*
X687344Y2291170D01*
X685954Y2290658D01*
X684417Y2290146D01*
X682808Y2289707D01*
X681126Y2289415D01*
X679297Y2289195D01*
X677322Y2289122D01*
X676883D01*
X676298Y2289195D01*
X675566D01*
X674688Y2289342D01*
X673591Y2289488D01*
X672421Y2289634D01*
X671177Y2289927D01*
X669860Y2290293D01*
X668470Y2290732D01*
X667080Y2291244D01*
X665691Y2291902D01*
X664228Y2292633D01*
X662911Y2293511D01*
X661594Y2294462D01*
X660350Y2295633D01*
X660277Y2295706D01*
X660058Y2295925D01*
X659765Y2296291D01*
X659399Y2296803D01*
X658887Y2297461D01*
X658375Y2298266D01*
X657790Y2299217D01*
X657205Y2300314D01*
X656620Y2301558D01*
X656035Y2302875D01*
X655522Y2304338D01*
X655010Y2305947D01*
X654645Y2307703D01*
X654352Y2309532D01*
X654133Y2311507D01*
X654059Y2313628D01*
Y2313701D01*
Y2313994D01*
Y2314360D01*
Y2314872D01*
X654133Y2315530D01*
X654206Y2316262D01*
Y2317066D01*
X654352Y2317944D01*
X654571Y2319919D01*
X654937Y2321967D01*
X655449Y2324016D01*
X656181Y2325991D01*
Y2326064D01*
X656254Y2326137D01*
X656473Y2326576D01*
X656839Y2327308D01*
X657351Y2328185D01*
X658010Y2329209D01*
X658741Y2330307D01*
X659692Y2331477D01*
X660643Y2332574D01*
X660789Y2332721D01*
X661155Y2333087D01*
X661740Y2333599D01*
X662472Y2334184D01*
X663423Y2334915D01*
X664447Y2335647D01*
X665617Y2336305D01*
X666861Y2336890D01*
X666934D01*
X667080Y2336964D01*
X667300Y2337110D01*
X667666Y2337183D01*
X668105Y2337329D01*
X668617Y2337549D01*
X669202Y2337695D01*
X669860Y2337915D01*
X671396Y2338207D01*
X673152Y2338573D01*
X675127Y2338792D01*
X677249Y2338866D01*
X677687D01*
X678273Y2338792D01*
D02*
G37*
G36*
X630702Y2588792D02*
X631507Y2588719D01*
X632385Y2588646D01*
X633336Y2588500D01*
X634360Y2588353D01*
X636554Y2587915D01*
X638822Y2587183D01*
X639919Y2586744D01*
X640943Y2586159D01*
X641967Y2585574D01*
X642845Y2584842D01*
X642918Y2584769D01*
X643065Y2584623D01*
X643284Y2584403D01*
X643577Y2584111D01*
X643943Y2583745D01*
X644308Y2583233D01*
X644747Y2582648D01*
X645186Y2581989D01*
X645625Y2581258D01*
X645991Y2580453D01*
X646796Y2578697D01*
X647088Y2577673D01*
X647381Y2576576D01*
X647600Y2575406D01*
X647673Y2574235D01*
X637944Y2573869D01*
Y2573943D01*
Y2574016D01*
X637798Y2574455D01*
X637652Y2575113D01*
X637359Y2575918D01*
X636993Y2576795D01*
X636554Y2577673D01*
X635969Y2578478D01*
X635237Y2579136D01*
X635164Y2579209D01*
X634872Y2579429D01*
X634433Y2579648D01*
X633774Y2580014D01*
X632897Y2580307D01*
X631872Y2580526D01*
X630629Y2580746D01*
X629166Y2580819D01*
X628508D01*
X627703Y2580746D01*
X626752Y2580599D01*
X625728Y2580380D01*
X624630Y2580087D01*
X623533Y2579648D01*
X622582Y2579063D01*
X622509Y2578990D01*
X622363Y2578844D01*
X622143Y2578624D01*
X621851Y2578258D01*
X621558Y2577820D01*
X621339Y2577308D01*
X621192Y2576722D01*
X621119Y2576064D01*
Y2575991D01*
Y2575771D01*
X621192Y2575479D01*
X621265Y2575040D01*
X621485Y2574601D01*
X621704Y2574089D01*
X622070Y2573650D01*
X622509Y2573138D01*
X622582Y2573065D01*
X622875Y2572845D01*
X623460Y2572553D01*
X623826Y2572406D01*
X624338Y2572187D01*
X624850Y2571894D01*
X625508Y2571675D01*
X626167Y2571382D01*
X627044Y2571163D01*
X627922Y2570870D01*
X628946Y2570578D01*
X630117Y2570212D01*
X631360Y2569919D01*
X631434D01*
X631653Y2569846D01*
X632019Y2569773D01*
X632531Y2569627D01*
X633116Y2569480D01*
X633774Y2569261D01*
X635311Y2568895D01*
X637066Y2568310D01*
X638749Y2567798D01*
X640431Y2567139D01*
X641163Y2566847D01*
X641821Y2566481D01*
X641894D01*
X641967Y2566408D01*
X642406Y2566188D01*
X642992Y2565750D01*
X643723Y2565237D01*
X644601Y2564506D01*
X645479Y2563701D01*
X646283Y2562677D01*
X647088Y2561580D01*
X647161Y2561434D01*
X647381Y2561068D01*
X647746Y2560336D01*
X648112Y2559458D01*
X648405Y2558361D01*
X648771Y2557044D01*
X648990Y2555581D01*
X649063Y2553972D01*
Y2553899D01*
Y2553753D01*
Y2553533D01*
Y2553241D01*
X648917Y2552436D01*
X648771Y2551412D01*
X648478Y2550241D01*
X648112Y2548925D01*
X647527Y2547535D01*
X646722Y2546145D01*
Y2546072D01*
X646649Y2545998D01*
X646283Y2545560D01*
X645771Y2544901D01*
X645040Y2544170D01*
X644162Y2543292D01*
X642992Y2542414D01*
X641748Y2541536D01*
X640212Y2540805D01*
X640139D01*
X639992Y2540732D01*
X639773Y2540658D01*
X639480Y2540512D01*
X639041Y2540439D01*
X638602Y2540293D01*
X638017Y2540146D01*
X637359Y2540000D01*
X635823Y2539634D01*
X634067Y2539415D01*
X632092Y2539195D01*
X629824Y2539122D01*
X628946D01*
X628288Y2539195D01*
X627557Y2539268D01*
X626679Y2539342D01*
X625728Y2539488D01*
X624630Y2539634D01*
X622363Y2540146D01*
X621192Y2540512D01*
X620022Y2540878D01*
X618925Y2541390D01*
X617827Y2541902D01*
X616730Y2542560D01*
X615779Y2543292D01*
X615706Y2543365D01*
X615560Y2543511D01*
X615340Y2543731D01*
X614974Y2544097D01*
X614609Y2544535D01*
X614170Y2545047D01*
X613731Y2545706D01*
X613219Y2546364D01*
X612707Y2547242D01*
X612195Y2548120D01*
X611756Y2549144D01*
X611244Y2550241D01*
X610878Y2551412D01*
X610512Y2552728D01*
X610220Y2554118D01*
X610000Y2555581D01*
X619437Y2556532D01*
Y2556459D01*
X619510Y2556313D01*
Y2556093D01*
X619583Y2555728D01*
X619802Y2554923D01*
X620168Y2553826D01*
X620607Y2552728D01*
X621192Y2551558D01*
X621924Y2550461D01*
X622802Y2549510D01*
X622948Y2549437D01*
X623314Y2549144D01*
X623899Y2548851D01*
X624704Y2548412D01*
X625728Y2548047D01*
X626898Y2547681D01*
X628288Y2547388D01*
X629897Y2547315D01*
X630702D01*
X631507Y2547388D01*
X632531Y2547535D01*
X633701Y2547827D01*
X634872Y2548120D01*
X635969Y2548632D01*
X636920Y2549290D01*
X636993Y2549363D01*
X637286Y2549656D01*
X637652Y2550022D01*
X638164Y2550607D01*
X638602Y2551265D01*
X638968Y2552070D01*
X639261Y2552948D01*
X639334Y2553899D01*
Y2553972D01*
Y2554191D01*
X639261Y2554484D01*
X639188Y2554923D01*
X638895Y2555801D01*
X638676Y2556313D01*
X638310Y2556752D01*
X638237Y2556825D01*
X638090Y2556971D01*
X637871Y2557191D01*
X637505Y2557483D01*
X636993Y2557849D01*
X636408Y2558142D01*
X635676Y2558507D01*
X634799Y2558873D01*
X634725D01*
X634433Y2559020D01*
X633921Y2559166D01*
X633189Y2559385D01*
X632750Y2559532D01*
X632165Y2559678D01*
X631580Y2559824D01*
X630848Y2560044D01*
X630044Y2560263D01*
X629166Y2560483D01*
X628215Y2560702D01*
X627118Y2560995D01*
X627044D01*
X626752Y2561068D01*
X626386Y2561214D01*
X625874Y2561360D01*
X625216Y2561507D01*
X624484Y2561726D01*
X622875Y2562311D01*
X621046Y2562970D01*
X619217Y2563774D01*
X617608Y2564725D01*
X616876Y2565237D01*
X616218Y2565750D01*
X616145Y2565823D01*
X615999Y2565969D01*
X615779Y2566188D01*
X615560Y2566481D01*
X615194Y2566847D01*
X614828Y2567286D01*
X614462Y2567871D01*
X614023Y2568456D01*
X613219Y2569846D01*
X612487Y2571529D01*
X612268Y2572406D01*
X612048Y2573357D01*
X611902Y2574381D01*
X611829Y2575406D01*
Y2575479D01*
Y2575552D01*
Y2575771D01*
Y2576064D01*
X611975Y2576722D01*
X612121Y2577673D01*
X612341Y2578697D01*
X612707Y2579868D01*
X613219Y2581038D01*
X613877Y2582282D01*
Y2582355D01*
X613950Y2582428D01*
X614243Y2582794D01*
X614755Y2583379D01*
X615413Y2584111D01*
X616218Y2584915D01*
X617242Y2585720D01*
X618413Y2586525D01*
X619802Y2587183D01*
X619876D01*
X619949Y2587256D01*
X620241Y2587329D01*
X620534Y2587476D01*
X620900Y2587549D01*
X621339Y2587695D01*
X622436Y2588061D01*
X623826Y2588353D01*
X625435Y2588573D01*
X627264Y2588792D01*
X629239Y2588866D01*
X630117D01*
X630702Y2588792D01*
D02*
G37*
G36*
X679494D02*
X680226Y2588719D01*
X681104Y2588573D01*
X682055Y2588427D01*
X683079Y2588207D01*
X684249Y2587915D01*
X685347Y2587549D01*
X686590Y2587183D01*
X687761Y2586671D01*
X688931Y2586013D01*
X690101Y2585354D01*
X691199Y2584550D01*
X692296Y2583599D01*
X692369D01*
X692442Y2583452D01*
X692808Y2583013D01*
X693393Y2582355D01*
X694125Y2581331D01*
X694930Y2580087D01*
X695807Y2578624D01*
X696612Y2576869D01*
X697270Y2574820D01*
X687687Y2572553D01*
Y2572626D01*
X687614Y2572699D01*
X687541Y2573138D01*
X687249Y2573796D01*
X686883Y2574674D01*
X686444Y2575625D01*
X685786Y2576576D01*
X685054Y2577527D01*
X684103Y2578405D01*
X683957Y2578478D01*
X683591Y2578771D01*
X683079Y2579136D01*
X682274Y2579502D01*
X681323Y2579941D01*
X680153Y2580234D01*
X678909Y2580526D01*
X677519Y2580599D01*
X677007D01*
X676642Y2580526D01*
X676203Y2580453D01*
X675691Y2580380D01*
X674447Y2580087D01*
X673057Y2579648D01*
X671594Y2578990D01*
X670936Y2578551D01*
X670204Y2578039D01*
X669546Y2577381D01*
X668887Y2576722D01*
Y2576649D01*
X668741Y2576576D01*
X668595Y2576283D01*
X668375Y2575991D01*
X668156Y2575552D01*
X667863Y2575040D01*
X667571Y2574455D01*
X667278Y2573723D01*
X666912Y2572918D01*
X666620Y2572041D01*
X666327Y2571016D01*
X666108Y2569846D01*
X665888Y2568676D01*
X665742Y2567286D01*
X665669Y2565823D01*
X665596Y2564286D01*
Y2564213D01*
Y2563921D01*
Y2563409D01*
X665669Y2562823D01*
Y2562019D01*
X665742Y2561214D01*
X665888Y2560263D01*
X666034Y2559239D01*
X666400Y2557118D01*
X666985Y2554923D01*
X667351Y2553899D01*
X667790Y2552948D01*
X668229Y2552070D01*
X668814Y2551265D01*
X668887Y2551192D01*
X668961Y2551119D01*
X669399Y2550680D01*
X670131Y2550095D01*
X671082Y2549363D01*
X672326Y2548632D01*
X673789Y2548047D01*
X675471Y2547608D01*
X676349Y2547535D01*
X677300Y2547462D01*
X677666D01*
X677958Y2547535D01*
X678690Y2547608D01*
X679568Y2547754D01*
X680665Y2548047D01*
X681762Y2548486D01*
X682859Y2549071D01*
X683957Y2549876D01*
X684103Y2550022D01*
X684396Y2550314D01*
X684908Y2550973D01*
X685493Y2551777D01*
X686151Y2552875D01*
X686810Y2554265D01*
X687468Y2555801D01*
X687980Y2557703D01*
X697417Y2554777D01*
Y2554704D01*
X697344Y2554411D01*
X697197Y2554045D01*
X696978Y2553460D01*
X696758Y2552802D01*
X696466Y2552070D01*
X696100Y2551192D01*
X695661Y2550314D01*
X694710Y2548412D01*
X693466Y2546437D01*
X691930Y2544609D01*
X691126Y2543731D01*
X690175Y2542999D01*
X690101Y2542926D01*
X689955Y2542853D01*
X689663Y2542633D01*
X689297Y2542414D01*
X688785Y2542121D01*
X688200Y2541829D01*
X687468Y2541463D01*
X686663Y2541097D01*
X685786Y2540732D01*
X684835Y2540366D01*
X683810Y2540073D01*
X682713Y2539781D01*
X681470Y2539561D01*
X680226Y2539342D01*
X678836Y2539268D01*
X677446Y2539195D01*
X677007D01*
X676495Y2539268D01*
X675837D01*
X675032Y2539415D01*
X674081Y2539561D01*
X673057Y2539707D01*
X671887Y2540000D01*
X670643Y2540366D01*
X669399Y2540805D01*
X668083Y2541317D01*
X666766Y2541975D01*
X665449Y2542707D01*
X664133Y2543584D01*
X662889Y2544535D01*
X661719Y2545706D01*
X661645Y2545779D01*
X661426Y2545998D01*
X661133Y2546364D01*
X660768Y2546876D01*
X660329Y2547535D01*
X659743Y2548339D01*
X659231Y2549290D01*
X658646Y2550388D01*
X658061Y2551558D01*
X657549Y2552948D01*
X657037Y2554411D01*
X656525Y2556020D01*
X656159Y2557703D01*
X655866Y2559532D01*
X655647Y2561507D01*
X655574Y2563555D01*
Y2563701D01*
Y2564067D01*
X655647Y2564725D01*
Y2565530D01*
X655793Y2566554D01*
X655866Y2567725D01*
X656086Y2568968D01*
X656378Y2570358D01*
X656671Y2571894D01*
X657110Y2573357D01*
X657549Y2574967D01*
X658134Y2576503D01*
X658866Y2578039D01*
X659670Y2579502D01*
X660621Y2580892D01*
X661719Y2582209D01*
X661792Y2582282D01*
X662011Y2582501D01*
X662377Y2582794D01*
X662816Y2583233D01*
X663474Y2583745D01*
X664206Y2584330D01*
X665084Y2584915D01*
X666108Y2585574D01*
X667205Y2586159D01*
X668448Y2586744D01*
X669765Y2587329D01*
X671228Y2587841D01*
X672764Y2588280D01*
X674447Y2588573D01*
X676203Y2588792D01*
X678031Y2588866D01*
X678909D01*
X679494Y2588792D01*
D02*
G37*
G36*
X771081Y2569334D02*
X790100Y2540000D01*
X777591D01*
X764351Y2562531D01*
X756597Y2554484D01*
Y2540000D01*
X746867D01*
Y2588061D01*
X756597D01*
Y2566774D01*
X776128Y2588061D01*
X789149D01*
X771081Y2569334D01*
D02*
G37*
G36*
X715705Y2548120D02*
X739772D01*
Y2540000D01*
X705975D01*
Y2587622D01*
X715705D01*
Y2548120D01*
D02*
G37*
G36*
X1011286Y2858792D02*
X1012310Y2858719D01*
X1013481Y2858573D01*
X1014797Y2858353D01*
X1016187Y2858061D01*
X1017577Y2857695D01*
X1016334Y2851258D01*
X1016260D01*
X1015968Y2851331D01*
X1015529Y2851477D01*
X1014944Y2851550D01*
X1014285Y2851697D01*
X1013554Y2851770D01*
X1012018Y2851843D01*
X1011725D01*
X1011359Y2851770D01*
X1010920Y2851697D01*
X1009969Y2851477D01*
X1009530Y2851185D01*
X1009165Y2850892D01*
Y2850819D01*
X1009018Y2850672D01*
X1008872Y2850453D01*
X1008726Y2850087D01*
X1008579Y2849575D01*
X1008433Y2848917D01*
X1008360Y2848185D01*
X1008287Y2847234D01*
Y2844820D01*
X1015163D01*
Y2837578D01*
X1008287D01*
Y2810000D01*
X999070D01*
Y2837578D01*
X993949D01*
Y2844820D01*
X999070D01*
Y2847381D01*
Y2847454D01*
Y2847600D01*
Y2847820D01*
Y2848112D01*
X999143Y2848917D01*
X999216Y2849868D01*
X999289Y2850892D01*
X999435Y2851989D01*
X999655Y2853013D01*
X999947Y2853891D01*
X1000021Y2853964D01*
X1000167Y2854257D01*
X1000386Y2854696D01*
X1000752Y2855135D01*
X1001191Y2855720D01*
X1001776Y2856305D01*
X1002508Y2856890D01*
X1003386Y2857476D01*
X1003532Y2857549D01*
X1003825Y2857695D01*
X1004410Y2857915D01*
X1005141Y2858207D01*
X1006092Y2858427D01*
X1007190Y2858646D01*
X1008433Y2858792D01*
X1009823Y2858866D01*
X1010481D01*
X1011286Y2858792D01*
D02*
G37*
G36*
X988975D02*
X989999Y2858719D01*
X991169Y2858573D01*
X992486Y2858353D01*
X993876Y2858061D01*
X995266Y2857695D01*
X994022Y2851258D01*
X993949D01*
X993656Y2851331D01*
X993217Y2851477D01*
X992632Y2851550D01*
X991974Y2851697D01*
X991242Y2851770D01*
X989706Y2851843D01*
X989414D01*
X989048Y2851770D01*
X988609Y2851697D01*
X987658Y2851477D01*
X987219Y2851185D01*
X986853Y2850892D01*
Y2850819D01*
X986707Y2850672D01*
X986561Y2850453D01*
X986414Y2850087D01*
X986268Y2849575D01*
X986122Y2848917D01*
X986049Y2848185D01*
X985975Y2847234D01*
Y2844820D01*
X992852D01*
Y2837578D01*
X985975D01*
Y2810000D01*
X976758D01*
Y2837578D01*
X971638D01*
Y2844820D01*
X976758D01*
Y2847381D01*
Y2847454D01*
Y2847600D01*
Y2847820D01*
Y2848112D01*
X976831Y2848917D01*
X976905Y2849868D01*
X976978Y2850892D01*
X977124Y2851989D01*
X977343Y2853013D01*
X977636Y2853891D01*
X977709Y2853964D01*
X977856Y2854257D01*
X978075Y2854696D01*
X978441Y2855135D01*
X978880Y2855720D01*
X979465Y2856305D01*
X980196Y2856890D01*
X981074Y2857476D01*
X981221Y2857549D01*
X981513Y2857695D01*
X982098Y2857915D01*
X982830Y2858207D01*
X983781Y2858427D01*
X984878Y2858646D01*
X986122Y2858792D01*
X987512Y2858866D01*
X988170D01*
X988975Y2858792D01*
D02*
G37*
G36*
X909312Y2857988D02*
X910263D01*
X912238Y2857915D01*
X914140Y2857768D01*
X915018Y2857695D01*
X915823Y2857549D01*
X916481Y2857476D01*
X917066Y2857329D01*
X917139D01*
X917286Y2857256D01*
X917432Y2857183D01*
X917725Y2857110D01*
X918529Y2856817D01*
X919480Y2856305D01*
X920578Y2855720D01*
X921675Y2854842D01*
X922845Y2853818D01*
X923943Y2852574D01*
Y2852501D01*
X924089Y2852428D01*
X924235Y2852209D01*
X924381Y2851916D01*
X924601Y2851550D01*
X924820Y2851111D01*
X925406Y2850087D01*
X925918Y2848697D01*
X926357Y2847088D01*
X926649Y2845259D01*
X926795Y2843211D01*
Y2843138D01*
Y2842992D01*
Y2842772D01*
Y2842479D01*
X926722Y2841675D01*
X926576Y2840651D01*
X926430Y2839480D01*
X926137Y2838237D01*
X925698Y2836993D01*
X925186Y2835823D01*
X925113Y2835676D01*
X924894Y2835311D01*
X924528Y2834798D01*
X924089Y2834140D01*
X923504Y2833335D01*
X922772Y2832531D01*
X921967Y2831799D01*
X921090Y2831068D01*
X921016Y2830995D01*
X920651Y2830775D01*
X920139Y2830483D01*
X919553Y2830190D01*
X918749Y2829751D01*
X917944Y2829385D01*
X916993Y2829093D01*
X916042Y2828800D01*
X915896D01*
X915676Y2828727D01*
X915384D01*
X915018Y2828654D01*
X914579Y2828581D01*
X914067Y2828507D01*
X913482D01*
X912823Y2828434D01*
X912092Y2828361D01*
X911287Y2828288D01*
X910336Y2828215D01*
X909385D01*
X908361Y2828142D01*
X899729D01*
Y2810000D01*
X890000D01*
Y2858061D01*
X908434D01*
X909312Y2857988D01*
D02*
G37*
G36*
X951740Y2845479D02*
X952399Y2845406D01*
X953203Y2845259D01*
X954008Y2845113D01*
X954959Y2844893D01*
X955983Y2844601D01*
X957007Y2844308D01*
X958105Y2843869D01*
X959129Y2843357D01*
X960226Y2842772D01*
X961323Y2842041D01*
X962347Y2841309D01*
X963298Y2840358D01*
X963371Y2840285D01*
X963518Y2840139D01*
X963737Y2839846D01*
X964103Y2839407D01*
X964469Y2838968D01*
X964908Y2838310D01*
X965347Y2837651D01*
X965859Y2836847D01*
X966298Y2835896D01*
X966736Y2834945D01*
X967175Y2833848D01*
X967541Y2832750D01*
X967907Y2831507D01*
X968126Y2830190D01*
X968273Y2828873D01*
X968346Y2827410D01*
Y2827337D01*
Y2827044D01*
Y2826679D01*
X968273Y2826093D01*
X968199Y2825435D01*
X968053Y2824630D01*
X967907Y2823753D01*
X967687Y2822802D01*
X967468Y2821777D01*
X967102Y2820753D01*
X966663Y2819656D01*
X966224Y2818559D01*
X965566Y2817461D01*
X964908Y2816364D01*
X964103Y2815340D01*
X963225Y2814316D01*
X963152Y2814243D01*
X963006Y2814096D01*
X962713Y2813804D01*
X962347Y2813511D01*
X961835Y2813146D01*
X961250Y2812707D01*
X960519Y2812195D01*
X959714Y2811756D01*
X958836Y2811244D01*
X957885Y2810731D01*
X956861Y2810293D01*
X955690Y2809927D01*
X954520Y2809634D01*
X953203Y2809342D01*
X951813Y2809195D01*
X950424Y2809122D01*
X949619D01*
X949180Y2809195D01*
X948668Y2809268D01*
X947497Y2809415D01*
X946108Y2809634D01*
X944571Y2810000D01*
X942962Y2810512D01*
X941353Y2811244D01*
X941280D01*
X941133Y2811317D01*
X940914Y2811463D01*
X940621Y2811682D01*
X939890Y2812195D01*
X938939Y2812853D01*
X937841Y2813731D01*
X936744Y2814828D01*
X935720Y2816145D01*
X934769Y2817608D01*
Y2817681D01*
X934696Y2817827D01*
X934550Y2818047D01*
X934403Y2818339D01*
X934257Y2818778D01*
X934111Y2819217D01*
X933891Y2819802D01*
X933672Y2820461D01*
X933306Y2821924D01*
X932940Y2823679D01*
X932648Y2825654D01*
X932574Y2827776D01*
Y2827849D01*
Y2827995D01*
Y2828215D01*
X932648Y2828581D01*
Y2828946D01*
X932721Y2829458D01*
X932867Y2830629D01*
X933087Y2832019D01*
X933525Y2833482D01*
X934038Y2835091D01*
X934769Y2836700D01*
Y2836774D01*
X934842Y2836920D01*
X934988Y2837139D01*
X935208Y2837432D01*
X935720Y2838163D01*
X936452Y2839114D01*
X937329Y2840212D01*
X938427Y2841309D01*
X939670Y2842333D01*
X941133Y2843284D01*
X941206D01*
X941353Y2843357D01*
X941572Y2843504D01*
X941865Y2843650D01*
X942231Y2843796D01*
X942743Y2844016D01*
X943840Y2844455D01*
X945230Y2844820D01*
X946839Y2845186D01*
X948522Y2845479D01*
X950424Y2845552D01*
X951155D01*
X951740Y2845479D01*
D02*
G37*
G36*
X1006582Y3095479D02*
X1007314Y3095406D01*
X1008192Y3095259D01*
X1009143Y3095113D01*
X1010094Y3094820D01*
X1011045Y3094455D01*
X1011191Y3094381D01*
X1011484Y3094235D01*
X1011923Y3094016D01*
X1012435Y3093723D01*
X1013093Y3093284D01*
X1013678Y3092772D01*
X1014337Y3092260D01*
X1014849Y3091602D01*
X1014922Y3091528D01*
X1015068Y3091309D01*
X1015288Y3090943D01*
X1015580Y3090504D01*
X1015873Y3089919D01*
X1016165Y3089261D01*
X1016458Y3088529D01*
X1016677Y3087725D01*
Y3087651D01*
X1016751Y3087359D01*
X1016824Y3086847D01*
X1016970Y3086188D01*
X1017043Y3085311D01*
X1017116Y3084213D01*
X1017189Y3082970D01*
Y3081580D01*
Y3060000D01*
X1007972D01*
Y3077703D01*
Y3077776D01*
Y3077922D01*
Y3078215D01*
Y3078581D01*
Y3079093D01*
Y3079605D01*
X1007899Y3080702D01*
X1007826Y3081946D01*
X1007680Y3083116D01*
X1007533Y3084140D01*
X1007460Y3084579D01*
X1007314Y3084945D01*
Y3085018D01*
X1007241Y3085237D01*
X1007095Y3085530D01*
X1006875Y3085896D01*
X1006290Y3086774D01*
X1005412Y3087578D01*
X1005339Y3087651D01*
X1005193Y3087725D01*
X1004900Y3087871D01*
X1004534Y3088090D01*
X1004095Y3088237D01*
X1003510Y3088383D01*
X1002925Y3088456D01*
X1002266Y3088529D01*
X1001828D01*
X1001389Y3088456D01*
X1000803Y3088383D01*
X1000145Y3088237D01*
X999414Y3087944D01*
X998682Y3087651D01*
X997951Y3087213D01*
X997877Y3087139D01*
X997658Y3086993D01*
X997365Y3086700D01*
X996926Y3086262D01*
X996561Y3085749D01*
X996122Y3085164D01*
X995683Y3084506D01*
X995390Y3083701D01*
Y3083628D01*
X995317Y3083262D01*
X995171Y3082750D01*
X995098Y3081946D01*
X995024Y3081434D01*
X994951Y3080848D01*
X994878Y3080190D01*
X994805Y3079458D01*
Y3078654D01*
X994732Y3077776D01*
Y3076752D01*
Y3075728D01*
Y3060000D01*
X985515D01*
Y3094820D01*
X994073D01*
Y3089700D01*
X994147Y3089773D01*
X994293Y3089919D01*
X994512Y3090212D01*
X994878Y3090651D01*
X995317Y3091090D01*
X995902Y3091528D01*
X996487Y3092114D01*
X997219Y3092626D01*
X998024Y3093138D01*
X998828Y3093723D01*
X999779Y3094162D01*
X1000803Y3094674D01*
X1001901Y3095040D01*
X1002998Y3095332D01*
X1004242Y3095479D01*
X1005485Y3095552D01*
X1005997D01*
X1006582Y3095479D01*
D02*
G37*
G36*
X919312Y3107988D02*
X920263D01*
X922238Y3107915D01*
X924140Y3107768D01*
X925018Y3107695D01*
X925823Y3107549D01*
X926481Y3107476D01*
X927066Y3107329D01*
X927139D01*
X927286Y3107256D01*
X927432Y3107183D01*
X927725Y3107110D01*
X928529Y3106817D01*
X929480Y3106305D01*
X930578Y3105720D01*
X931675Y3104842D01*
X932845Y3103818D01*
X933943Y3102574D01*
Y3102501D01*
X934089Y3102428D01*
X934235Y3102209D01*
X934381Y3101916D01*
X934601Y3101550D01*
X934820Y3101111D01*
X935406Y3100087D01*
X935918Y3098697D01*
X936357Y3097088D01*
X936649Y3095259D01*
X936795Y3093211D01*
Y3093138D01*
Y3092992D01*
Y3092772D01*
Y3092479D01*
X936722Y3091675D01*
X936576Y3090651D01*
X936430Y3089480D01*
X936137Y3088237D01*
X935698Y3086993D01*
X935186Y3085823D01*
X935113Y3085676D01*
X934893Y3085311D01*
X934528Y3084799D01*
X934089Y3084140D01*
X933504Y3083335D01*
X932772Y3082531D01*
X931967Y3081799D01*
X931090Y3081068D01*
X931016Y3080995D01*
X930651Y3080775D01*
X930139Y3080483D01*
X929553Y3080190D01*
X928749Y3079751D01*
X927944Y3079385D01*
X926993Y3079093D01*
X926042Y3078800D01*
X925896D01*
X925676Y3078727D01*
X925384D01*
X925018Y3078654D01*
X924579Y3078581D01*
X924067Y3078507D01*
X923482D01*
X922823Y3078434D01*
X922092Y3078361D01*
X921287Y3078288D01*
X920336Y3078215D01*
X919385D01*
X918361Y3078142D01*
X909729D01*
Y3060000D01*
X900000D01*
Y3108061D01*
X918434D01*
X919312Y3107988D01*
D02*
G37*
G36*
X961740Y3095479D02*
X962399Y3095406D01*
X963203Y3095259D01*
X964008Y3095113D01*
X964959Y3094893D01*
X965983Y3094601D01*
X967007Y3094308D01*
X968104Y3093869D01*
X969129Y3093357D01*
X970226Y3092772D01*
X971323Y3092041D01*
X972347Y3091309D01*
X973298Y3090358D01*
X973371Y3090285D01*
X973518Y3090139D01*
X973737Y3089846D01*
X974103Y3089407D01*
X974469Y3088968D01*
X974908Y3088310D01*
X975347Y3087651D01*
X975859Y3086847D01*
X976298Y3085896D01*
X976736Y3084945D01*
X977175Y3083848D01*
X977541Y3082750D01*
X977907Y3081507D01*
X978126Y3080190D01*
X978273Y3078873D01*
X978346Y3077410D01*
Y3077337D01*
Y3077044D01*
Y3076679D01*
X978273Y3076093D01*
X978199Y3075435D01*
X978053Y3074630D01*
X977907Y3073753D01*
X977687Y3072802D01*
X977468Y3071777D01*
X977102Y3070753D01*
X976663Y3069656D01*
X976224Y3068559D01*
X975566Y3067461D01*
X974908Y3066364D01*
X974103Y3065340D01*
X973225Y3064316D01*
X973152Y3064243D01*
X973006Y3064096D01*
X972713Y3063804D01*
X972347Y3063511D01*
X971835Y3063146D01*
X971250Y3062707D01*
X970519Y3062195D01*
X969714Y3061756D01*
X968836Y3061244D01*
X967885Y3060731D01*
X966861Y3060293D01*
X965690Y3059927D01*
X964520Y3059634D01*
X963203Y3059342D01*
X961813Y3059195D01*
X960424Y3059122D01*
X959619D01*
X959180Y3059195D01*
X958668Y3059268D01*
X957497Y3059415D01*
X956108Y3059634D01*
X954571Y3060000D01*
X952962Y3060512D01*
X951353Y3061244D01*
X951280D01*
X951133Y3061317D01*
X950914Y3061463D01*
X950621Y3061682D01*
X949890Y3062195D01*
X948939Y3062853D01*
X947841Y3063731D01*
X946744Y3064828D01*
X945720Y3066145D01*
X944769Y3067608D01*
Y3067681D01*
X944696Y3067827D01*
X944550Y3068047D01*
X944403Y3068339D01*
X944257Y3068778D01*
X944111Y3069217D01*
X943891Y3069802D01*
X943672Y3070461D01*
X943306Y3071924D01*
X942940Y3073679D01*
X942648Y3075655D01*
X942574Y3077776D01*
Y3077849D01*
Y3077995D01*
Y3078215D01*
X942648Y3078581D01*
Y3078946D01*
X942721Y3079458D01*
X942867Y3080629D01*
X943087Y3082019D01*
X943525Y3083482D01*
X944037Y3085091D01*
X944769Y3086700D01*
Y3086774D01*
X944842Y3086920D01*
X944988Y3087139D01*
X945208Y3087432D01*
X945720Y3088163D01*
X946451Y3089114D01*
X947329Y3090212D01*
X948427Y3091309D01*
X949670Y3092333D01*
X951133Y3093284D01*
X951206D01*
X951353Y3093357D01*
X951572Y3093504D01*
X951865Y3093650D01*
X952231Y3093796D01*
X952743Y3094016D01*
X953840Y3094455D01*
X955230Y3094820D01*
X956839Y3095186D01*
X958522Y3095479D01*
X960424Y3095552D01*
X961155D01*
X961740Y3095479D01*
D02*
G37*
G36*
X750810D02*
X751761Y3095332D01*
X752712Y3095186D01*
X753809Y3094893D01*
X754907Y3094455D01*
X755931Y3093943D01*
X756077Y3093869D01*
X756370Y3093650D01*
X756882Y3093284D01*
X757467Y3092772D01*
X758125Y3092187D01*
X758784Y3091382D01*
X759442Y3090431D01*
X759954Y3089407D01*
X760027Y3089334D01*
X760100Y3088968D01*
X760247Y3088456D01*
X760466Y3087651D01*
X760612Y3086627D01*
X760759Y3085384D01*
X760832Y3083921D01*
X760905Y3082165D01*
Y3060000D01*
X751688D01*
Y3079824D01*
Y3079897D01*
Y3080044D01*
Y3080336D01*
Y3080629D01*
X751615Y3081580D01*
X751542Y3082604D01*
X751468Y3083774D01*
X751322Y3084872D01*
X751029Y3085823D01*
X750883Y3086262D01*
X750737Y3086554D01*
X750664Y3086627D01*
X750517Y3086847D01*
X750152Y3087213D01*
X749786Y3087578D01*
X749201Y3087871D01*
X748542Y3088237D01*
X747738Y3088456D01*
X746787Y3088529D01*
X746494D01*
X746128Y3088456D01*
X745616Y3088383D01*
X745031Y3088237D01*
X744446Y3088017D01*
X743787Y3087725D01*
X743129Y3087286D01*
X743056Y3087213D01*
X742836Y3087066D01*
X742544Y3086774D01*
X742178Y3086408D01*
X741812Y3085969D01*
X741373Y3085311D01*
X741008Y3084652D01*
X740715Y3083848D01*
Y3083774D01*
X740569Y3083409D01*
X740496Y3082897D01*
X740349Y3082092D01*
X740203Y3081068D01*
X740130Y3079897D01*
X739984Y3078361D01*
Y3076679D01*
Y3060000D01*
X730766D01*
Y3079019D01*
Y3079093D01*
Y3079239D01*
Y3079532D01*
Y3079824D01*
Y3080702D01*
X730693Y3081799D01*
X730620Y3082897D01*
X730547Y3083994D01*
X730401Y3084872D01*
X730327Y3085311D01*
X730254Y3085603D01*
Y3085676D01*
X730181Y3085823D01*
X730035Y3086115D01*
X729889Y3086408D01*
X729376Y3087139D01*
X728718Y3087798D01*
X728645D01*
X728499Y3087944D01*
X728279Y3088017D01*
X727987Y3088163D01*
X727621Y3088310D01*
X727109Y3088383D01*
X726597Y3088529D01*
X725573D01*
X725134Y3088456D01*
X724622Y3088383D01*
X724036Y3088237D01*
X723378Y3088017D01*
X722720Y3087725D01*
X722061Y3087359D01*
X721988Y3087286D01*
X721769Y3087139D01*
X721476Y3086847D01*
X721110Y3086481D01*
X720745Y3086042D01*
X720306Y3085457D01*
X719940Y3084799D01*
X719647Y3083994D01*
Y3083921D01*
X719501Y3083555D01*
X719428Y3083043D01*
X719282Y3082311D01*
X719135Y3081360D01*
X719062Y3080117D01*
X718916Y3078654D01*
Y3076898D01*
Y3060000D01*
X709699D01*
Y3094820D01*
X718184D01*
Y3090065D01*
X718257Y3090139D01*
X718404Y3090285D01*
X718623Y3090578D01*
X718989Y3090943D01*
X719428Y3091309D01*
X719940Y3091821D01*
X720525Y3092333D01*
X721257Y3092845D01*
X721988Y3093357D01*
X722793Y3093796D01*
X724695Y3094674D01*
X725646Y3095040D01*
X726743Y3095332D01*
X727840Y3095479D01*
X729011Y3095552D01*
X729596D01*
X730181Y3095479D01*
X730986Y3095406D01*
X731937Y3095186D01*
X732888Y3094967D01*
X733839Y3094601D01*
X734790Y3094162D01*
X734936Y3094089D01*
X735229Y3093869D01*
X735668Y3093577D01*
X736253Y3093138D01*
X736911Y3092553D01*
X737570Y3091821D01*
X738228Y3090943D01*
X738886Y3089992D01*
X738959Y3090139D01*
X739252Y3090431D01*
X739764Y3090943D01*
X740349Y3091528D01*
X741081Y3092260D01*
X741885Y3092918D01*
X742836Y3093577D01*
X743787Y3094162D01*
X743934Y3094235D01*
X744226Y3094381D01*
X744812Y3094601D01*
X745543Y3094893D01*
X746348Y3095113D01*
X747372Y3095332D01*
X748396Y3095479D01*
X749493Y3095552D01*
X750152D01*
X750810Y3095479D01*
D02*
G37*
G36*
X790166D02*
X790678Y3095406D01*
X791263Y3095332D01*
X792726Y3094967D01*
X794335Y3094381D01*
X795213Y3094016D01*
X796091Y3093504D01*
X796896Y3092992D01*
X797774Y3092333D01*
X798651Y3091602D01*
X799456Y3090724D01*
X799529Y3090651D01*
X799676Y3090504D01*
X799822Y3090212D01*
X800114Y3089846D01*
X800407Y3089334D01*
X800773Y3088749D01*
X801212Y3088090D01*
X801578Y3087286D01*
X801943Y3086408D01*
X802382Y3085384D01*
X802748Y3084286D01*
X803041Y3083116D01*
X803333Y3081872D01*
X803553Y3080483D01*
X803626Y3079019D01*
X803699Y3077483D01*
Y3077410D01*
Y3077118D01*
Y3076679D01*
X803626Y3076020D01*
X803553Y3075289D01*
X803479Y3074484D01*
X803333Y3073533D01*
X803187Y3072509D01*
X802675Y3070388D01*
X802309Y3069217D01*
X801870Y3068120D01*
X801358Y3067023D01*
X800846Y3065925D01*
X800114Y3064901D01*
X799383Y3063950D01*
X799310Y3063877D01*
X799164Y3063731D01*
X798944Y3063511D01*
X798651Y3063219D01*
X798213Y3062853D01*
X797700Y3062414D01*
X797115Y3061975D01*
X796530Y3061536D01*
X794994Y3060658D01*
X793238Y3059854D01*
X792287Y3059561D01*
X791263Y3059342D01*
X790166Y3059195D01*
X789069Y3059122D01*
X788556D01*
X788044Y3059195D01*
X787386Y3059268D01*
X786581Y3059415D01*
X785704Y3059561D01*
X784753Y3059854D01*
X783875Y3060219D01*
X783802Y3060293D01*
X783436Y3060439D01*
X782997Y3060731D01*
X782412Y3061170D01*
X781680Y3061682D01*
X780802Y3062414D01*
X779925Y3063219D01*
X778974Y3064170D01*
Y3046686D01*
X769756D01*
Y3094820D01*
X778315D01*
Y3089700D01*
X778388Y3089846D01*
X778608Y3090139D01*
X778974Y3090578D01*
X779486Y3091163D01*
X780144Y3091821D01*
X780876Y3092553D01*
X781753Y3093211D01*
X782777Y3093869D01*
X782924Y3093943D01*
X783290Y3094162D01*
X783875Y3094381D01*
X784679Y3094747D01*
X785557Y3095040D01*
X786655Y3095259D01*
X787898Y3095479D01*
X789142Y3095552D01*
X789727D01*
X790166Y3095479D01*
D02*
G37*
G36*
X688192D02*
X688777D01*
X690167Y3095406D01*
X691630Y3095186D01*
X693166Y3094967D01*
X694629Y3094601D01*
X695288Y3094381D01*
X695873Y3094089D01*
X696019Y3094016D01*
X696385Y3093796D01*
X696897Y3093504D01*
X697555Y3093065D01*
X698214Y3092553D01*
X698945Y3091894D01*
X699604Y3091163D01*
X700116Y3090358D01*
X700189Y3090285D01*
X700335Y3089919D01*
X700481Y3089334D01*
X700774Y3088456D01*
X700847Y3087944D01*
X700994Y3087359D01*
X701067Y3086700D01*
X701140Y3085896D01*
X701213Y3085091D01*
X701286Y3084140D01*
X701359Y3083189D01*
Y3082092D01*
X701213Y3071412D01*
Y3071339D01*
Y3071192D01*
Y3070973D01*
Y3070680D01*
Y3069875D01*
X701286Y3068851D01*
Y3067754D01*
X701432Y3066584D01*
X701506Y3065560D01*
X701652Y3064609D01*
Y3064535D01*
X701725Y3064243D01*
X701871Y3063804D01*
X702018Y3063219D01*
X702237Y3062560D01*
X702530Y3061756D01*
X702895Y3060951D01*
X703334Y3060000D01*
X694264D01*
Y3060073D01*
X694190Y3060146D01*
X694117Y3060366D01*
X694044Y3060658D01*
X693898Y3061024D01*
X693678Y3061463D01*
X693532Y3062048D01*
X693313Y3062633D01*
Y3062707D01*
Y3062780D01*
X693166Y3063072D01*
X693093Y3063438D01*
X693020Y3063731D01*
X692947Y3063658D01*
X692581Y3063365D01*
X692142Y3062926D01*
X691484Y3062414D01*
X690752Y3061829D01*
X689874Y3061244D01*
X688997Y3060731D01*
X687972Y3060219D01*
X687826Y3060146D01*
X687534Y3060073D01*
X686948Y3059854D01*
X686217Y3059707D01*
X685412Y3059488D01*
X684461Y3059268D01*
X683364Y3059195D01*
X682267Y3059122D01*
X681755D01*
X681389Y3059195D01*
X680950D01*
X680365Y3059268D01*
X679194Y3059488D01*
X677804Y3059854D01*
X676414Y3060293D01*
X675025Y3061024D01*
X673781Y3061975D01*
X673635Y3062121D01*
X673269Y3062487D01*
X672830Y3063146D01*
X672245Y3064023D01*
X671660Y3065121D01*
X671221Y3066364D01*
X670855Y3067827D01*
X670709Y3069437D01*
Y3069583D01*
Y3069949D01*
X670782Y3070461D01*
X670855Y3071192D01*
X671074Y3071997D01*
X671294Y3072875D01*
X671660Y3073753D01*
X672098Y3074630D01*
X672172Y3074704D01*
X672391Y3074996D01*
X672684Y3075435D01*
X673123Y3075947D01*
X673635Y3076532D01*
X674293Y3077118D01*
X675098Y3077703D01*
X675976Y3078215D01*
X676122Y3078288D01*
X676488Y3078434D01*
X677073Y3078654D01*
X677877Y3078946D01*
X678902Y3079312D01*
X680145Y3079678D01*
X681608Y3080044D01*
X683291Y3080409D01*
X683364D01*
X683583Y3080483D01*
X683876Y3080556D01*
X684315Y3080629D01*
X684900Y3080702D01*
X685485Y3080848D01*
X686875Y3081141D01*
X688338Y3081507D01*
X689801Y3081872D01*
X691191Y3082238D01*
X691776Y3082458D01*
X692288Y3082677D01*
Y3083555D01*
Y3083701D01*
Y3083994D01*
X692215Y3084433D01*
X692142Y3085018D01*
X691996Y3085676D01*
X691703Y3086262D01*
X691411Y3086847D01*
X690972Y3087359D01*
X690899Y3087432D01*
X690679Y3087578D01*
X690386Y3087725D01*
X689874Y3087944D01*
X689216Y3088163D01*
X688338Y3088383D01*
X687241Y3088456D01*
X685997Y3088529D01*
X685558D01*
X685120Y3088456D01*
X684607Y3088383D01*
X683291Y3088090D01*
X682706Y3087871D01*
X682120Y3087505D01*
X682047Y3087432D01*
X681901Y3087286D01*
X681608Y3087066D01*
X681316Y3086700D01*
X680950Y3086262D01*
X680584Y3085676D01*
X680218Y3084945D01*
X679926Y3084140D01*
X671660Y3085676D01*
Y3085749D01*
X671733Y3085896D01*
X671806Y3086188D01*
X671952Y3086481D01*
X672318Y3087359D01*
X672757Y3088456D01*
X673415Y3089700D01*
X674293Y3090870D01*
X675317Y3092041D01*
X676488Y3093065D01*
X676561D01*
X676634Y3093138D01*
X676853Y3093284D01*
X677146Y3093430D01*
X677512Y3093650D01*
X677951Y3093869D01*
X678463Y3094089D01*
X679048Y3094308D01*
X679706Y3094528D01*
X680511Y3094747D01*
X681316Y3094967D01*
X682267Y3095186D01*
X683218Y3095332D01*
X684315Y3095479D01*
X685412Y3095552D01*
X687680D01*
X688192Y3095479D01*
D02*
G37*
G36*
X644447Y3107988D02*
X645764Y3107915D01*
X647300Y3107841D01*
X648763Y3107695D01*
X650226Y3107402D01*
X651543Y3107110D01*
X651616D01*
X651762Y3107037D01*
X651982Y3106964D01*
X652274Y3106890D01*
X653006Y3106525D01*
X654030Y3106086D01*
X655127Y3105501D01*
X656298Y3104696D01*
X657541Y3103745D01*
X658712Y3102648D01*
X658785D01*
X658858Y3102501D01*
X659224Y3102062D01*
X659736Y3101404D01*
X660467Y3100526D01*
X661199Y3099356D01*
X661930Y3098039D01*
X662662Y3096576D01*
X663320Y3094893D01*
Y3094820D01*
X663393Y3094674D01*
X663467Y3094455D01*
X663540Y3094089D01*
X663686Y3093650D01*
X663832Y3093065D01*
X663979Y3092479D01*
X664125Y3091748D01*
X664271Y3090943D01*
X664418Y3090139D01*
X664710Y3088163D01*
X664856Y3085969D01*
X664930Y3083555D01*
Y3083482D01*
Y3083262D01*
Y3082970D01*
Y3082531D01*
X664856Y3082019D01*
Y3081434D01*
X664710Y3080044D01*
X664564Y3078434D01*
X664271Y3076752D01*
X663905Y3074996D01*
X663393Y3073314D01*
Y3073240D01*
X663320Y3073094D01*
X663247Y3072802D01*
X663101Y3072436D01*
X662881Y3071997D01*
X662662Y3071485D01*
X662077Y3070314D01*
X661345Y3068925D01*
X660467Y3067535D01*
X659443Y3066145D01*
X658273Y3064828D01*
X658126Y3064755D01*
X657834Y3064389D01*
X657249Y3063950D01*
X656517Y3063438D01*
X655493Y3062780D01*
X654323Y3062121D01*
X653006Y3061536D01*
X651470Y3060951D01*
X651323Y3060878D01*
X650884Y3060805D01*
X650226Y3060658D01*
X649202Y3060512D01*
X648031Y3060293D01*
X646568Y3060146D01*
X644813Y3060073D01*
X642911Y3060000D01*
X624769D01*
Y3108061D01*
X643862D01*
X644447Y3107988D01*
D02*
G37*
G36*
X599312D02*
X600263D01*
X602238Y3107915D01*
X604140Y3107768D01*
X605018Y3107695D01*
X605823Y3107549D01*
X606481Y3107476D01*
X607066Y3107329D01*
X607140D01*
X607286Y3107256D01*
X607432Y3107183D01*
X607725Y3107110D01*
X608529Y3106817D01*
X609480Y3106305D01*
X610578Y3105720D01*
X611675Y3104842D01*
X612845Y3103818D01*
X613943Y3102574D01*
Y3102501D01*
X614089Y3102428D01*
X614235Y3102209D01*
X614382Y3101916D01*
X614601Y3101550D01*
X614820Y3101111D01*
X615406Y3100087D01*
X615918Y3098697D01*
X616357Y3097088D01*
X616649Y3095259D01*
X616796Y3093211D01*
Y3093138D01*
Y3092992D01*
Y3092772D01*
Y3092479D01*
X616722Y3091675D01*
X616576Y3090651D01*
X616430Y3089480D01*
X616137Y3088237D01*
X615698Y3086993D01*
X615186Y3085823D01*
X615113Y3085676D01*
X614894Y3085311D01*
X614528Y3084799D01*
X614089Y3084140D01*
X613504Y3083335D01*
X612772Y3082531D01*
X611968Y3081799D01*
X611090Y3081068D01*
X611017Y3080995D01*
X610651Y3080775D01*
X610139Y3080483D01*
X609554Y3080190D01*
X608749Y3079751D01*
X607944Y3079385D01*
X606993Y3079093D01*
X606042Y3078800D01*
X605896D01*
X605676Y3078727D01*
X605384D01*
X605018Y3078654D01*
X604579Y3078581D01*
X604067Y3078507D01*
X603482D01*
X602824Y3078434D01*
X602092Y3078361D01*
X601287Y3078288D01*
X600336Y3078215D01*
X599385D01*
X598361Y3078142D01*
X589729D01*
Y3060000D01*
X580000D01*
Y3108061D01*
X598434D01*
X599312Y3107988D01*
D02*
G37*
G36*
X905237Y3358792D02*
X905969Y3358719D01*
X906847Y3358646D01*
X907798Y3358573D01*
X908895Y3358427D01*
X911090Y3357915D01*
X913430Y3357256D01*
X914528Y3356817D01*
X915625Y3356305D01*
X916722Y3355720D01*
X917673Y3355062D01*
X917746Y3354988D01*
X917893Y3354915D01*
X918185Y3354696D01*
X918478Y3354403D01*
X918917Y3353964D01*
X919356Y3353525D01*
X919868Y3353013D01*
X920380Y3352355D01*
X920965Y3351697D01*
X921477Y3350892D01*
X922062Y3350087D01*
X922574Y3349136D01*
X923452Y3347161D01*
X923891Y3345991D01*
X924184Y3344820D01*
X914528Y3342992D01*
Y3343065D01*
X914455Y3343138D01*
X914308Y3343577D01*
X914089Y3344235D01*
X913650Y3345040D01*
X913138Y3345918D01*
X912480Y3346795D01*
X911675Y3347746D01*
X910724Y3348551D01*
X910578Y3348624D01*
X910212Y3348844D01*
X909627Y3349209D01*
X908822Y3349575D01*
X907798Y3349941D01*
X906627Y3350307D01*
X905237Y3350526D01*
X903774Y3350599D01*
X903189D01*
X902750Y3350526D01*
X902165Y3350453D01*
X901580Y3350380D01*
X900117Y3350087D01*
X898507Y3349575D01*
X896825Y3348844D01*
X896020Y3348405D01*
X895216Y3347893D01*
X894411Y3347234D01*
X893679Y3346503D01*
X893606Y3346430D01*
X893533Y3346283D01*
X893314Y3346064D01*
X893094Y3345771D01*
X892802Y3345332D01*
X892509Y3344820D01*
X892216Y3344235D01*
X891851Y3343504D01*
X891485Y3342699D01*
X891192Y3341821D01*
X890900Y3340797D01*
X890607Y3339773D01*
X890388Y3338602D01*
X890168Y3337286D01*
X890095Y3335969D01*
X890022Y3334506D01*
Y3334433D01*
Y3334140D01*
Y3333701D01*
X890095Y3333116D01*
X890168Y3332384D01*
X890241Y3331580D01*
X890314Y3330702D01*
X890461Y3329678D01*
X890900Y3327630D01*
X891631Y3325435D01*
X891997Y3324411D01*
X892509Y3323460D01*
X893094Y3322509D01*
X893753Y3321631D01*
X893826Y3321558D01*
X893899Y3321485D01*
X894118Y3321265D01*
X894411Y3320973D01*
X894850Y3320680D01*
X895289Y3320314D01*
X895801Y3319876D01*
X896459Y3319510D01*
X897849Y3318705D01*
X899532Y3318047D01*
X900483Y3317754D01*
X901507Y3317608D01*
X902604Y3317461D01*
X903701Y3317388D01*
X904213D01*
X904799Y3317461D01*
X905603Y3317535D01*
X906481Y3317681D01*
X907505Y3317900D01*
X908602Y3318193D01*
X909773Y3318559D01*
X909919Y3318632D01*
X910285Y3318778D01*
X910870Y3318998D01*
X911602Y3319363D01*
X912406Y3319802D01*
X913284Y3320314D01*
X914162Y3320826D01*
X915040Y3321485D01*
Y3327630D01*
X903994D01*
Y3335749D01*
X924842D01*
Y3316511D01*
X924696Y3316364D01*
X924257Y3315998D01*
X923599Y3315486D01*
X922574Y3314755D01*
X921331Y3313950D01*
X919795Y3313072D01*
X918039Y3312195D01*
X915991Y3311317D01*
X915918D01*
X915698Y3311244D01*
X915406Y3311097D01*
X914967Y3310951D01*
X914455Y3310805D01*
X913869Y3310658D01*
X913138Y3310439D01*
X912333Y3310219D01*
X910578Y3309854D01*
X908602Y3309488D01*
X906481Y3309195D01*
X904286Y3309122D01*
X903555D01*
X903043Y3309195D01*
X902385D01*
X901580Y3309268D01*
X900775Y3309415D01*
X899824Y3309488D01*
X897776Y3309927D01*
X895581Y3310439D01*
X893314Y3311244D01*
X892216Y3311682D01*
X891119Y3312268D01*
X891046Y3312341D01*
X890900Y3312414D01*
X890607Y3312633D01*
X890241Y3312853D01*
X889729Y3313146D01*
X889217Y3313584D01*
X887974Y3314609D01*
X886657Y3315852D01*
X885267Y3317388D01*
X883950Y3319217D01*
X882780Y3321265D01*
Y3321339D01*
X882633Y3321558D01*
X882560Y3321851D01*
X882341Y3322290D01*
X882121Y3322875D01*
X881902Y3323533D01*
X881683Y3324265D01*
X881390Y3325069D01*
X881097Y3326020D01*
X880878Y3327044D01*
X880439Y3329166D01*
X880146Y3331580D01*
X880000Y3334140D01*
Y3334213D01*
Y3334506D01*
Y3334872D01*
X880073Y3335384D01*
Y3336042D01*
X880146Y3336847D01*
X880293Y3337651D01*
X880366Y3338602D01*
X880732Y3340651D01*
X881317Y3342918D01*
X882048Y3345186D01*
X883072Y3347454D01*
X883146Y3347527D01*
X883219Y3347746D01*
X883438Y3348039D01*
X883658Y3348405D01*
X884023Y3348917D01*
X884389Y3349502D01*
X885413Y3350746D01*
X886730Y3352209D01*
X888266Y3353745D01*
X890168Y3355135D01*
X892290Y3356452D01*
X892363D01*
X892509Y3356525D01*
X892728Y3356671D01*
X893094Y3356817D01*
X893606Y3357037D01*
X894118Y3357183D01*
X894777Y3357402D01*
X895435Y3357695D01*
X896240Y3357915D01*
X897118Y3358134D01*
X898069Y3358280D01*
X899093Y3358500D01*
X901287Y3358792D01*
X903774Y3358866D01*
X904652D01*
X905237Y3358792D01*
D02*
G37*
G36*
X972025Y3310000D02*
X962296D01*
X942838Y3341528D01*
Y3310000D01*
X933840D01*
Y3358061D01*
X943203D01*
X963028Y3325801D01*
Y3358061D01*
X972025D01*
Y3310000D01*
D02*
G37*
G36*
X1001944Y3357988D02*
X1003261Y3357915D01*
X1004797Y3357841D01*
X1006260Y3357695D01*
X1007723Y3357402D01*
X1009040Y3357110D01*
X1009113D01*
X1009260Y3357037D01*
X1009479Y3356964D01*
X1009772Y3356890D01*
X1010503Y3356525D01*
X1011527Y3356086D01*
X1012625Y3355501D01*
X1013795Y3354696D01*
X1015039Y3353745D01*
X1016209Y3352648D01*
X1016282D01*
X1016355Y3352501D01*
X1016721Y3352062D01*
X1017233Y3351404D01*
X1017965Y3350526D01*
X1018696Y3349356D01*
X1019428Y3348039D01*
X1020159Y3346576D01*
X1020818Y3344893D01*
Y3344820D01*
X1020891Y3344674D01*
X1020964Y3344455D01*
X1021037Y3344089D01*
X1021183Y3343650D01*
X1021330Y3343065D01*
X1021476Y3342479D01*
X1021622Y3341748D01*
X1021769Y3340943D01*
X1021915Y3340139D01*
X1022208Y3338164D01*
X1022354Y3335969D01*
X1022427Y3333555D01*
Y3333482D01*
Y3333262D01*
Y3332970D01*
Y3332531D01*
X1022354Y3332019D01*
Y3331434D01*
X1022208Y3330044D01*
X1022061Y3328434D01*
X1021769Y3326752D01*
X1021403Y3324996D01*
X1020891Y3323314D01*
Y3323240D01*
X1020818Y3323094D01*
X1020744Y3322802D01*
X1020598Y3322436D01*
X1020379Y3321997D01*
X1020159Y3321485D01*
X1019574Y3320314D01*
X1018843Y3318925D01*
X1017965Y3317535D01*
X1016941Y3316145D01*
X1015770Y3314828D01*
X1015624Y3314755D01*
X1015331Y3314389D01*
X1014746Y3313950D01*
X1014014Y3313438D01*
X1012990Y3312780D01*
X1011820Y3312121D01*
X1010503Y3311536D01*
X1008967Y3310951D01*
X1008821Y3310878D01*
X1008382Y3310805D01*
X1007723Y3310658D01*
X1006699Y3310512D01*
X1005529Y3310293D01*
X1004066Y3310146D01*
X1002310Y3310073D01*
X1000408Y3310000D01*
X982267D01*
Y3358061D01*
X1001359D01*
X1001944Y3357988D01*
D02*
G37*
G36*
X595237Y3348792D02*
X595969Y3348719D01*
X596847Y3348646D01*
X597798Y3348573D01*
X598895Y3348427D01*
X601089Y3347915D01*
X603430Y3347256D01*
X604528Y3346817D01*
X605625Y3346305D01*
X606722Y3345720D01*
X607673Y3345062D01*
X607746Y3344988D01*
X607893Y3344915D01*
X608185Y3344696D01*
X608478Y3344403D01*
X608917Y3343964D01*
X609356Y3343525D01*
X609868Y3343013D01*
X610380Y3342355D01*
X610965Y3341697D01*
X611477Y3340892D01*
X612062Y3340087D01*
X612574Y3339136D01*
X613452Y3337161D01*
X613891Y3335991D01*
X614184Y3334820D01*
X604528Y3332992D01*
Y3333065D01*
X604454Y3333138D01*
X604308Y3333577D01*
X604089Y3334235D01*
X603650Y3335040D01*
X603138Y3335918D01*
X602479Y3336795D01*
X601675Y3337746D01*
X600724Y3338551D01*
X600577Y3338624D01*
X600212Y3338844D01*
X599626Y3339209D01*
X598822Y3339575D01*
X597798Y3339941D01*
X596627Y3340307D01*
X595237Y3340526D01*
X593774Y3340599D01*
X593189D01*
X592750Y3340526D01*
X592165Y3340453D01*
X591580Y3340380D01*
X590117Y3340087D01*
X588507Y3339575D01*
X586825Y3338844D01*
X586020Y3338405D01*
X585215Y3337893D01*
X584411Y3337234D01*
X583679Y3336503D01*
X583606Y3336430D01*
X583533Y3336283D01*
X583314Y3336064D01*
X583094Y3335771D01*
X582801Y3335332D01*
X582509Y3334820D01*
X582216Y3334235D01*
X581850Y3333504D01*
X581485Y3332699D01*
X581192Y3331821D01*
X580900Y3330797D01*
X580607Y3329773D01*
X580387Y3328602D01*
X580168Y3327286D01*
X580095Y3325969D01*
X580022Y3324506D01*
Y3324433D01*
Y3324140D01*
Y3323701D01*
X580095Y3323116D01*
X580168Y3322385D01*
X580241Y3321580D01*
X580314Y3320702D01*
X580461Y3319678D01*
X580900Y3317630D01*
X581631Y3315435D01*
X581997Y3314411D01*
X582509Y3313460D01*
X583094Y3312509D01*
X583752Y3311631D01*
X583826Y3311558D01*
X583899Y3311485D01*
X584118Y3311265D01*
X584411Y3310973D01*
X584850Y3310680D01*
X585289Y3310314D01*
X585801Y3309876D01*
X586459Y3309510D01*
X587849Y3308705D01*
X589531Y3308047D01*
X590482Y3307754D01*
X591507Y3307608D01*
X592604Y3307462D01*
X593701Y3307388D01*
X594213D01*
X594798Y3307462D01*
X595603Y3307535D01*
X596481Y3307681D01*
X597505Y3307900D01*
X598602Y3308193D01*
X599773Y3308559D01*
X599919Y3308632D01*
X600285Y3308778D01*
X600870Y3308998D01*
X601602Y3309363D01*
X602406Y3309802D01*
X603284Y3310314D01*
X604162Y3310826D01*
X605040Y3311485D01*
Y3317630D01*
X593994D01*
Y3325750D01*
X614842D01*
Y3306511D01*
X614696Y3306364D01*
X614257Y3305998D01*
X613598Y3305486D01*
X612574Y3304755D01*
X611331Y3303950D01*
X609795Y3303072D01*
X608039Y3302195D01*
X605991Y3301317D01*
X605918D01*
X605698Y3301244D01*
X605405Y3301097D01*
X604967Y3300951D01*
X604454Y3300805D01*
X603869Y3300658D01*
X603138Y3300439D01*
X602333Y3300219D01*
X600577Y3299854D01*
X598602Y3299488D01*
X596481Y3299195D01*
X594286Y3299122D01*
X593555D01*
X593043Y3299195D01*
X592384D01*
X591580Y3299268D01*
X590775Y3299415D01*
X589824Y3299488D01*
X587776Y3299927D01*
X585581Y3300439D01*
X583314Y3301244D01*
X582216Y3301682D01*
X581119Y3302268D01*
X581046Y3302341D01*
X580900Y3302414D01*
X580607Y3302633D01*
X580241Y3302853D01*
X579729Y3303146D01*
X579217Y3303584D01*
X577973Y3304609D01*
X576657Y3305852D01*
X575267Y3307388D01*
X573950Y3309217D01*
X572780Y3311265D01*
Y3311339D01*
X572633Y3311558D01*
X572560Y3311851D01*
X572341Y3312290D01*
X572121Y3312875D01*
X571902Y3313533D01*
X571682Y3314265D01*
X571390Y3315069D01*
X571097Y3316020D01*
X570878Y3317044D01*
X570439Y3319166D01*
X570146Y3321580D01*
X570000Y3324140D01*
Y3324213D01*
Y3324506D01*
Y3324872D01*
X570073Y3325384D01*
Y3326042D01*
X570146Y3326847D01*
X570292Y3327651D01*
X570366Y3328602D01*
X570731Y3330651D01*
X571317Y3332918D01*
X572048Y3335186D01*
X573072Y3337454D01*
X573145Y3337527D01*
X573219Y3337746D01*
X573438Y3338039D01*
X573657Y3338405D01*
X574023Y3338917D01*
X574389Y3339502D01*
X575413Y3340746D01*
X576730Y3342209D01*
X578266Y3343745D01*
X580168Y3345135D01*
X582289Y3346452D01*
X582363D01*
X582509Y3346525D01*
X582728Y3346671D01*
X583094Y3346817D01*
X583606Y3347037D01*
X584118Y3347183D01*
X584777Y3347402D01*
X585435Y3347695D01*
X586240Y3347915D01*
X587117Y3348134D01*
X588068Y3348280D01*
X589093Y3348500D01*
X591287Y3348792D01*
X593774Y3348866D01*
X594652D01*
X595237Y3348792D01*
D02*
G37*
G36*
X662025Y3300000D02*
X652296D01*
X632837Y3331529D01*
Y3300000D01*
X623840D01*
Y3348061D01*
X633203D01*
X653027Y3315801D01*
Y3348061D01*
X662025D01*
Y3300000D01*
D02*
G37*
G36*
X691944Y3347988D02*
X693261Y3347915D01*
X694797Y3347841D01*
X696260Y3347695D01*
X697723Y3347402D01*
X699040Y3347110D01*
X699113D01*
X699259Y3347037D01*
X699479Y3346964D01*
X699772Y3346890D01*
X700503Y3346525D01*
X701527Y3346086D01*
X702624Y3345501D01*
X703795Y3344696D01*
X705038Y3343745D01*
X706209Y3342648D01*
X706282D01*
X706355Y3342501D01*
X706721Y3342062D01*
X707233Y3341404D01*
X707965Y3340526D01*
X708696Y3339356D01*
X709428Y3338039D01*
X710159Y3336576D01*
X710817Y3334894D01*
Y3334820D01*
X710891Y3334674D01*
X710964Y3334455D01*
X711037Y3334089D01*
X711183Y3333650D01*
X711330Y3333065D01*
X711476Y3332479D01*
X711622Y3331748D01*
X711768Y3330943D01*
X711915Y3330139D01*
X712207Y3328164D01*
X712354Y3325969D01*
X712427Y3323555D01*
Y3323482D01*
Y3323262D01*
Y3322970D01*
Y3322531D01*
X712354Y3322019D01*
Y3321434D01*
X712207Y3320044D01*
X712061Y3318434D01*
X711768Y3316752D01*
X711403Y3314996D01*
X710891Y3313314D01*
Y3313241D01*
X710817Y3313094D01*
X710744Y3312802D01*
X710598Y3312436D01*
X710379Y3311997D01*
X710159Y3311485D01*
X709574Y3310314D01*
X708842Y3308925D01*
X707965Y3307535D01*
X706940Y3306145D01*
X705770Y3304828D01*
X705624Y3304755D01*
X705331Y3304389D01*
X704746Y3303950D01*
X704014Y3303438D01*
X702990Y3302780D01*
X701820Y3302121D01*
X700503Y3301536D01*
X698967Y3300951D01*
X698821Y3300878D01*
X698382Y3300805D01*
X697723Y3300658D01*
X696699Y3300512D01*
X695529Y3300293D01*
X694066Y3300146D01*
X692310Y3300073D01*
X690408Y3300000D01*
X672266D01*
Y3348061D01*
X691359D01*
X691944Y3347988D01*
D02*
G37*
G36*
X937454Y2563357D02*
X959497Y2530000D01*
X943891D01*
X929748Y2551653D01*
X915508Y2530000D01*
X900000D01*
X922141Y2563357D01*
X902048Y2594081D01*
X917166D01*
X929748Y2574867D01*
X942428Y2594081D01*
X957546D01*
X937454Y2563357D01*
D02*
G37*
G36*
X647454Y2833357D02*
X669497Y2800000D01*
X653891D01*
X639749Y2821653D01*
X625508Y2800000D01*
X610000D01*
X632141Y2833357D01*
X612048Y2864081D01*
X627166D01*
X639749Y2844867D01*
X652428Y2864081D01*
X667546D01*
X647454Y2833357D01*
D02*
G37*
G36*
X967454Y3563357D02*
X989497Y3530000D01*
X973891D01*
X959748Y3551653D01*
X945508Y3530000D01*
X930000D01*
X952141Y3563357D01*
X932048Y3594081D01*
X947166D01*
X959748Y3574867D01*
X972428Y3594081D01*
X987546D01*
X967454Y3563357D01*
D02*
G37*
G36*
X707454D02*
X729497Y3530000D01*
X713891D01*
X699748Y3551653D01*
X685508Y3530000D01*
X670000D01*
X692141Y3563357D01*
X672048Y3594081D01*
X687166D01*
X699748Y3574867D01*
X712428Y3594081D01*
X727546D01*
X707454Y3563357D01*
D02*
G37*
%LPC*%
G36*
X918360Y869941D02*
X911996D01*
Y838120D01*
X920554D01*
X921432Y838193D01*
X922310D01*
X923334Y838339D01*
X924212Y838413D01*
X924944Y838559D01*
X925017D01*
X925382Y838705D01*
X925821Y838852D01*
X926333Y838998D01*
X927650Y839656D01*
X928309Y840022D01*
X928894Y840534D01*
X928967Y840607D01*
X929186Y840827D01*
X929406Y841119D01*
X929772Y841631D01*
X930210Y842290D01*
X930576Y843094D01*
X931015Y844045D01*
X931381Y845143D01*
Y845216D01*
X931454Y845289D01*
Y845508D01*
X931527Y845728D01*
X931674Y846459D01*
X931893Y847483D01*
X932112Y848727D01*
X932259Y850263D01*
X932332Y852019D01*
X932405Y853994D01*
Y854067D01*
Y854213D01*
Y854506D01*
Y854945D01*
Y855384D01*
X932332Y855896D01*
X932259Y857140D01*
X932186Y858529D01*
X931966Y859919D01*
X931747Y861309D01*
X931381Y862480D01*
X931308Y862626D01*
X931235Y862992D01*
X931015Y863504D01*
X930723Y864162D01*
X930284Y864967D01*
X929845Y865698D01*
X929333Y866503D01*
X928674Y867161D01*
X928601Y867234D01*
X928382Y867454D01*
X927943Y867747D01*
X927431Y868112D01*
X926845Y868478D01*
X926041Y868844D01*
X925163Y869136D01*
X924212Y869429D01*
X924139D01*
X923773Y869502D01*
X923261Y869575D01*
X922456Y869722D01*
X921944D01*
X921359Y869795D01*
X920774D01*
X920042Y869868D01*
X919238D01*
X918360Y869941D01*
D02*
G37*
G36*
X718360Y1869941D02*
X711996D01*
Y1838120D01*
X720555D01*
X721432Y1838193D01*
X722310D01*
X723334Y1838339D01*
X724212Y1838412D01*
X724944Y1838559D01*
X725017D01*
X725383Y1838705D01*
X725822Y1838851D01*
X726334Y1838998D01*
X727650Y1839656D01*
X728309Y1840022D01*
X728894Y1840534D01*
X728967Y1840607D01*
X729187Y1840826D01*
X729406Y1841119D01*
X729772Y1841631D01*
X730211Y1842289D01*
X730576Y1843094D01*
X731015Y1844045D01*
X731381Y1845142D01*
Y1845216D01*
X731454Y1845289D01*
Y1845508D01*
X731527Y1845728D01*
X731674Y1846459D01*
X731893Y1847483D01*
X732113Y1848727D01*
X732259Y1850263D01*
X732332Y1852019D01*
X732405Y1853994D01*
Y1854067D01*
Y1854213D01*
Y1854506D01*
Y1854945D01*
Y1855384D01*
X732332Y1855896D01*
X732259Y1857139D01*
X732186Y1858529D01*
X731966Y1859919D01*
X731747Y1861309D01*
X731381Y1862479D01*
X731308Y1862626D01*
X731235Y1862991D01*
X731015Y1863504D01*
X730723Y1864162D01*
X730284Y1864967D01*
X729845Y1865698D01*
X729333Y1866503D01*
X728674Y1867161D01*
X728601Y1867234D01*
X728382Y1867454D01*
X727943Y1867746D01*
X727431Y1868112D01*
X726846Y1868478D01*
X726041Y1868844D01*
X725163Y1869136D01*
X724212Y1869429D01*
X724139D01*
X723773Y1869502D01*
X723261Y1869575D01*
X722457Y1869721D01*
X721944D01*
X721359Y1869795D01*
X720774D01*
X720043Y1869868D01*
X719238D01*
X718360Y1869941D01*
D02*
G37*
G36*
X677322Y2330599D02*
X676737D01*
X676298Y2330526D01*
X675786Y2330453D01*
X675200Y2330380D01*
X673884Y2330087D01*
X672347Y2329575D01*
X671543Y2329283D01*
X670738Y2328844D01*
X669933Y2328332D01*
X669129Y2327820D01*
X668397Y2327161D01*
X667666Y2326430D01*
X667593Y2326357D01*
X667519Y2326210D01*
X667373Y2325991D01*
X667080Y2325698D01*
X666861Y2325259D01*
X666568Y2324674D01*
X666203Y2324089D01*
X665910Y2323357D01*
X665544Y2322553D01*
X665252Y2321602D01*
X664886Y2320578D01*
X664666Y2319480D01*
X664447Y2318237D01*
X664228Y2316920D01*
X664154Y2315530D01*
X664081Y2313994D01*
Y2313921D01*
Y2313628D01*
Y2313189D01*
X664154Y2312677D01*
X664228Y2311946D01*
X664301Y2311214D01*
X664374Y2310336D01*
X664520Y2309385D01*
X664959Y2307337D01*
X665691Y2305289D01*
X666056Y2304265D01*
X666568Y2303314D01*
X667154Y2302363D01*
X667812Y2301558D01*
X667885Y2301485D01*
X667958Y2301412D01*
X668178Y2301192D01*
X668470Y2300900D01*
X668836Y2300607D01*
X669275Y2300241D01*
X670372Y2299510D01*
X671762Y2298705D01*
X673372Y2298047D01*
X674323Y2297754D01*
X675273Y2297535D01*
X676298Y2297461D01*
X677322Y2297388D01*
X677907D01*
X678273Y2297461D01*
X678785Y2297535D01*
X679370Y2297608D01*
X680687Y2297900D01*
X682150Y2298412D01*
X682954Y2298778D01*
X683759Y2299144D01*
X684564Y2299656D01*
X685368Y2300168D01*
X686100Y2300826D01*
X686831Y2301558D01*
X686905Y2301631D01*
X686978Y2301777D01*
X687197Y2301997D01*
X687417Y2302363D01*
X687709Y2302802D01*
X688002Y2303314D01*
X688368Y2303972D01*
X688733Y2304704D01*
X689026Y2305508D01*
X689392Y2306459D01*
X689684Y2307483D01*
X689977Y2308654D01*
X690196Y2309824D01*
X690416Y2311214D01*
X690489Y2312604D01*
X690562Y2314140D01*
Y2314213D01*
Y2314506D01*
Y2314945D01*
X690489Y2315530D01*
Y2316188D01*
X690343Y2316993D01*
X690270Y2317871D01*
X690123Y2318822D01*
X689684Y2320797D01*
X689026Y2322845D01*
X688587Y2323869D01*
X688148Y2324820D01*
X687563Y2325698D01*
X686905Y2326503D01*
X686831Y2326576D01*
X686758Y2326649D01*
X686539Y2326869D01*
X686246Y2327161D01*
X685881Y2327454D01*
X685442Y2327820D01*
X684930Y2328185D01*
X684344Y2328551D01*
X683028Y2329283D01*
X681345Y2329941D01*
X679443Y2330453D01*
X678419Y2330526D01*
X677322Y2330599D01*
D02*
G37*
G36*
X906971Y2849941D02*
X899729D01*
Y2836262D01*
X906386D01*
X906898Y2836335D01*
X908069D01*
X909385Y2836408D01*
X910629Y2836554D01*
X911726Y2836774D01*
X912238Y2836847D01*
X912604Y2836993D01*
X912677Y2837066D01*
X912897Y2837139D01*
X913262Y2837286D01*
X913701Y2837578D01*
X914213Y2837871D01*
X914725Y2838310D01*
X915237Y2838749D01*
X915676Y2839334D01*
X915750Y2839407D01*
X915823Y2839627D01*
X916042Y2839992D01*
X916262Y2840431D01*
X916408Y2840943D01*
X916627Y2841602D01*
X916700Y2842333D01*
X916774Y2843065D01*
Y2843211D01*
Y2843504D01*
X916700Y2844016D01*
X916554Y2844601D01*
X916408Y2845259D01*
X916115Y2845991D01*
X915750Y2846722D01*
X915237Y2847381D01*
X915164Y2847454D01*
X914945Y2847673D01*
X914652Y2847966D01*
X914140Y2848332D01*
X913628Y2848697D01*
X912897Y2849063D01*
X912165Y2849356D01*
X911287Y2849575D01*
X911214D01*
X910921Y2849648D01*
X910483Y2849722D01*
X909824Y2849795D01*
X908873D01*
X907630Y2849868D01*
X906971Y2849941D01*
D02*
G37*
G36*
X950424Y2838017D02*
X950277D01*
X949838Y2837944D01*
X949180Y2837871D01*
X948302Y2837651D01*
X947351Y2837359D01*
X946400Y2836847D01*
X945376Y2836188D01*
X944425Y2835237D01*
X944352Y2835091D01*
X944059Y2834725D01*
X943694Y2834067D01*
X943255Y2833189D01*
X942743Y2832092D01*
X942377Y2830702D01*
X942084Y2829166D01*
X942011Y2827337D01*
Y2827264D01*
Y2827118D01*
Y2826825D01*
X942084Y2826459D01*
Y2826020D01*
X942157Y2825581D01*
X942304Y2824411D01*
X942596Y2823094D01*
X943035Y2821777D01*
X943620Y2820534D01*
X944425Y2819363D01*
X944571Y2819217D01*
X944864Y2818925D01*
X945376Y2818486D01*
X946108Y2818047D01*
X946985Y2817535D01*
X948010Y2817096D01*
X949107Y2816803D01*
X950424Y2816657D01*
X950570D01*
X951009Y2816730D01*
X951667Y2816803D01*
X952545Y2817023D01*
X953496Y2817315D01*
X954447Y2817827D01*
X955471Y2818486D01*
X956422Y2819363D01*
X956495Y2819510D01*
X956788Y2819875D01*
X957227Y2820534D01*
X957666Y2821412D01*
X958105Y2822509D01*
X958543Y2823899D01*
X958836Y2825508D01*
X958909Y2827337D01*
Y2827410D01*
Y2827556D01*
Y2827849D01*
Y2828215D01*
X958836Y2828581D01*
X958763Y2829093D01*
X958617Y2830263D01*
X958324Y2831507D01*
X957885Y2832823D01*
X957227Y2834067D01*
X956422Y2835237D01*
X956349Y2835384D01*
X955983Y2835676D01*
X955471Y2836115D01*
X954740Y2836627D01*
X953935Y2837139D01*
X952911Y2837578D01*
X951740Y2837871D01*
X950424Y2838017D01*
D02*
G37*
G36*
X916971Y3099941D02*
X909729D01*
Y3086262D01*
X916386D01*
X916898Y3086335D01*
X918069D01*
X919385Y3086408D01*
X920629Y3086554D01*
X921726Y3086774D01*
X922238Y3086847D01*
X922604Y3086993D01*
X922677Y3087066D01*
X922897Y3087139D01*
X923262Y3087286D01*
X923701Y3087578D01*
X924213Y3087871D01*
X924725Y3088310D01*
X925237Y3088749D01*
X925676Y3089334D01*
X925749Y3089407D01*
X925823Y3089627D01*
X926042Y3089992D01*
X926262Y3090431D01*
X926408Y3090943D01*
X926627Y3091602D01*
X926700Y3092333D01*
X926774Y3093065D01*
Y3093211D01*
Y3093504D01*
X926700Y3094016D01*
X926554Y3094601D01*
X926408Y3095259D01*
X926115Y3095991D01*
X925749Y3096722D01*
X925237Y3097381D01*
X925164Y3097454D01*
X924945Y3097673D01*
X924652Y3097966D01*
X924140Y3098332D01*
X923628Y3098697D01*
X922897Y3099063D01*
X922165Y3099356D01*
X921287Y3099575D01*
X921214D01*
X920921Y3099648D01*
X920483Y3099722D01*
X919824Y3099795D01*
X918873D01*
X917630Y3099868D01*
X916971Y3099941D01*
D02*
G37*
G36*
X960424Y3088017D02*
X960277D01*
X959838Y3087944D01*
X959180Y3087871D01*
X958302Y3087651D01*
X957351Y3087359D01*
X956400Y3086847D01*
X955376Y3086188D01*
X954425Y3085237D01*
X954352Y3085091D01*
X954059Y3084725D01*
X953694Y3084067D01*
X953255Y3083189D01*
X952743Y3082092D01*
X952377Y3080702D01*
X952084Y3079166D01*
X952011Y3077337D01*
Y3077264D01*
Y3077118D01*
Y3076825D01*
X952084Y3076459D01*
Y3076020D01*
X952157Y3075581D01*
X952304Y3074411D01*
X952596Y3073094D01*
X953035Y3071777D01*
X953620Y3070534D01*
X954425Y3069363D01*
X954571Y3069217D01*
X954864Y3068925D01*
X955376Y3068486D01*
X956108Y3068047D01*
X956985Y3067535D01*
X958010Y3067096D01*
X959107Y3066803D01*
X960424Y3066657D01*
X960570D01*
X961009Y3066730D01*
X961667Y3066803D01*
X962545Y3067023D01*
X963496Y3067315D01*
X964447Y3067827D01*
X965471Y3068486D01*
X966422Y3069363D01*
X966495Y3069510D01*
X966788Y3069875D01*
X967227Y3070534D01*
X967666Y3071412D01*
X968104Y3072509D01*
X968543Y3073899D01*
X968836Y3075508D01*
X968909Y3077337D01*
Y3077410D01*
Y3077556D01*
Y3077849D01*
Y3078215D01*
X968836Y3078581D01*
X968763Y3079093D01*
X968617Y3080263D01*
X968324Y3081507D01*
X967885Y3082823D01*
X967227Y3084067D01*
X966422Y3085237D01*
X966349Y3085384D01*
X965983Y3085676D01*
X965471Y3086115D01*
X964739Y3086627D01*
X963935Y3087139D01*
X962911Y3087578D01*
X961740Y3087871D01*
X960424Y3088017D01*
D02*
G37*
G36*
X786581Y3088310D02*
X786435D01*
X785996Y3088237D01*
X785411Y3088163D01*
X784606Y3088017D01*
X783728Y3087651D01*
X782851Y3087213D01*
X781900Y3086554D01*
X781022Y3085676D01*
X780949Y3085530D01*
X780656Y3085164D01*
X780363Y3084579D01*
X779925Y3083701D01*
X779559Y3082604D01*
X779193Y3081287D01*
X778900Y3079751D01*
X778827Y3077922D01*
Y3077849D01*
Y3077630D01*
Y3077337D01*
X778900Y3076971D01*
Y3076459D01*
X778974Y3075874D01*
X779120Y3074630D01*
X779412Y3073167D01*
X779778Y3071777D01*
X780363Y3070388D01*
X780729Y3069802D01*
X781095Y3069217D01*
X781168Y3069071D01*
X781534Y3068778D01*
X782046Y3068339D01*
X782704Y3067827D01*
X783509Y3067315D01*
X784460Y3066876D01*
X785557Y3066584D01*
X786801Y3066437D01*
X786947D01*
X787313Y3066511D01*
X787898Y3066584D01*
X788630Y3066730D01*
X789507Y3067096D01*
X790385Y3067535D01*
X791263Y3068120D01*
X792068Y3068998D01*
X792141Y3069144D01*
X792434Y3069510D01*
X792799Y3070095D01*
X793165Y3071046D01*
X793604Y3072216D01*
X793750Y3072875D01*
X793897Y3073679D01*
X794043Y3074484D01*
X794189Y3075435D01*
X794262Y3076386D01*
Y3077483D01*
Y3077556D01*
Y3077703D01*
Y3077995D01*
Y3078361D01*
X794189Y3078873D01*
X794116Y3079385D01*
X793970Y3080556D01*
X793750Y3081872D01*
X793311Y3083262D01*
X792799Y3084506D01*
X792068Y3085603D01*
X791995Y3085749D01*
X791702Y3086042D01*
X791190Y3086481D01*
X790532Y3086993D01*
X789800Y3087432D01*
X788849Y3087871D01*
X787752Y3088163D01*
X786581Y3088310D01*
D02*
G37*
G36*
X692288Y3076679D02*
X692215D01*
X691923Y3076532D01*
X691484Y3076459D01*
X690899Y3076240D01*
X690094Y3076020D01*
X689143Y3075801D01*
X687972Y3075508D01*
X686656Y3075216D01*
X686509D01*
X686071Y3075069D01*
X685412Y3074923D01*
X684607Y3074704D01*
X683803Y3074484D01*
X682925Y3074191D01*
X682267Y3073899D01*
X681681Y3073606D01*
X681608Y3073533D01*
X681389Y3073387D01*
X681096Y3073094D01*
X680804Y3072728D01*
X680511Y3072290D01*
X680218Y3071704D01*
X679999Y3071119D01*
X679926Y3070388D01*
Y3070314D01*
Y3070095D01*
X679999Y3069656D01*
X680072Y3069217D01*
X680292Y3068705D01*
X680511Y3068120D01*
X680877Y3067535D01*
X681316Y3067023D01*
X681389Y3066949D01*
X681608Y3066803D01*
X681901Y3066584D01*
X682340Y3066364D01*
X682852Y3066072D01*
X683510Y3065852D01*
X684169Y3065706D01*
X684973Y3065633D01*
X685412D01*
X685851Y3065706D01*
X686509Y3065852D01*
X687241Y3065998D01*
X688046Y3066291D01*
X688850Y3066730D01*
X689728Y3067242D01*
X689801Y3067315D01*
X690021Y3067461D01*
X690240Y3067754D01*
X690606Y3068120D01*
X690972Y3068559D01*
X691337Y3069071D01*
X691630Y3069656D01*
X691923Y3070314D01*
Y3070388D01*
X691996Y3070534D01*
X692069Y3070826D01*
X692142Y3071339D01*
Y3071924D01*
X692215Y3072728D01*
X692288Y3073606D01*
Y3074777D01*
Y3076679D01*
D02*
G37*
G36*
X640863Y3099941D02*
X634498D01*
Y3068120D01*
X643057D01*
X643935Y3068193D01*
X644813D01*
X645837Y3068339D01*
X646715Y3068412D01*
X647446Y3068559D01*
X647519D01*
X647885Y3068705D01*
X648324Y3068851D01*
X648836Y3068998D01*
X650153Y3069656D01*
X650811Y3070022D01*
X651396Y3070534D01*
X651470Y3070607D01*
X651689Y3070826D01*
X651909Y3071119D01*
X652274Y3071631D01*
X652713Y3072290D01*
X653079Y3073094D01*
X653518Y3074045D01*
X653884Y3075142D01*
Y3075216D01*
X653957Y3075289D01*
Y3075508D01*
X654030Y3075728D01*
X654176Y3076459D01*
X654396Y3077483D01*
X654615Y3078727D01*
X654761Y3080263D01*
X654835Y3082019D01*
X654908Y3083994D01*
Y3084067D01*
Y3084213D01*
Y3084506D01*
Y3084945D01*
Y3085384D01*
X654835Y3085896D01*
X654761Y3087139D01*
X654688Y3088529D01*
X654469Y3089919D01*
X654249Y3091309D01*
X653884Y3092479D01*
X653810Y3092626D01*
X653737Y3092992D01*
X653518Y3093504D01*
X653225Y3094162D01*
X652786Y3094967D01*
X652347Y3095698D01*
X651835Y3096503D01*
X651177Y3097161D01*
X651104Y3097234D01*
X650884Y3097454D01*
X650445Y3097746D01*
X649933Y3098112D01*
X649348Y3098478D01*
X648544Y3098844D01*
X647666Y3099136D01*
X646715Y3099429D01*
X646642D01*
X646276Y3099502D01*
X645764Y3099575D01*
X644959Y3099722D01*
X644447D01*
X643862Y3099795D01*
X643277D01*
X642545Y3099868D01*
X641740D01*
X640863Y3099941D01*
D02*
G37*
G36*
X596971D02*
X589729D01*
Y3086262D01*
X596386D01*
X596898Y3086335D01*
X598069D01*
X599385Y3086408D01*
X600629Y3086554D01*
X601726Y3086774D01*
X602238Y3086847D01*
X602604Y3086993D01*
X602677Y3087066D01*
X602897Y3087139D01*
X603262Y3087286D01*
X603701Y3087578D01*
X604213Y3087871D01*
X604725Y3088310D01*
X605238Y3088749D01*
X605676Y3089334D01*
X605750Y3089407D01*
X605823Y3089627D01*
X606042Y3089992D01*
X606262Y3090431D01*
X606408Y3090943D01*
X606627Y3091602D01*
X606701Y3092333D01*
X606774Y3093065D01*
Y3093211D01*
Y3093504D01*
X606701Y3094016D01*
X606554Y3094601D01*
X606408Y3095259D01*
X606115Y3095991D01*
X605750Y3096722D01*
X605238Y3097381D01*
X605164Y3097454D01*
X604945Y3097673D01*
X604652Y3097966D01*
X604140Y3098332D01*
X603628Y3098697D01*
X602897Y3099063D01*
X602165Y3099356D01*
X601287Y3099575D01*
X601214D01*
X600922Y3099648D01*
X600483Y3099722D01*
X599824Y3099795D01*
X598873D01*
X597630Y3099868D01*
X596971Y3099941D01*
D02*
G37*
G36*
X998360Y3349941D02*
X991996D01*
Y3318120D01*
X1000555D01*
X1001432Y3318193D01*
X1002310D01*
X1003334Y3318339D01*
X1004212Y3318412D01*
X1004944Y3318559D01*
X1005017D01*
X1005383Y3318705D01*
X1005821Y3318851D01*
X1006334Y3318998D01*
X1007650Y3319656D01*
X1008309Y3320022D01*
X1008894Y3320534D01*
X1008967Y3320607D01*
X1009186Y3320826D01*
X1009406Y3321119D01*
X1009772Y3321631D01*
X1010211Y3322290D01*
X1010576Y3323094D01*
X1011015Y3324045D01*
X1011381Y3325142D01*
Y3325216D01*
X1011454Y3325289D01*
Y3325508D01*
X1011527Y3325728D01*
X1011674Y3326459D01*
X1011893Y3327483D01*
X1012113Y3328727D01*
X1012259Y3330263D01*
X1012332Y3332019D01*
X1012405Y3333994D01*
Y3334067D01*
Y3334213D01*
Y3334506D01*
Y3334945D01*
Y3335384D01*
X1012332Y3335896D01*
X1012259Y3337139D01*
X1012186Y3338529D01*
X1011966Y3339919D01*
X1011747Y3341309D01*
X1011381Y3342479D01*
X1011308Y3342626D01*
X1011235Y3342992D01*
X1011015Y3343504D01*
X1010723Y3344162D01*
X1010284Y3344967D01*
X1009845Y3345698D01*
X1009333Y3346503D01*
X1008674Y3347161D01*
X1008601Y3347234D01*
X1008382Y3347454D01*
X1007943Y3347746D01*
X1007431Y3348112D01*
X1006846Y3348478D01*
X1006041Y3348844D01*
X1005163Y3349136D01*
X1004212Y3349429D01*
X1004139D01*
X1003773Y3349502D01*
X1003261Y3349575D01*
X1002456Y3349722D01*
X1001944D01*
X1001359Y3349795D01*
X1000774D01*
X1000042Y3349868D01*
X999238D01*
X998360Y3349941D01*
D02*
G37*
G36*
X688360Y3339941D02*
X681996D01*
Y3308120D01*
X690554D01*
X691432Y3308193D01*
X692310D01*
X693334Y3308339D01*
X694212Y3308412D01*
X694943Y3308559D01*
X695017D01*
X695382Y3308705D01*
X695821Y3308851D01*
X696333Y3308998D01*
X697650Y3309656D01*
X698308Y3310022D01*
X698894Y3310534D01*
X698967Y3310607D01*
X699186Y3310826D01*
X699406Y3311119D01*
X699772Y3311631D01*
X700210Y3312290D01*
X700576Y3313094D01*
X701015Y3314045D01*
X701381Y3315142D01*
Y3315216D01*
X701454Y3315289D01*
Y3315508D01*
X701527Y3315728D01*
X701673Y3316459D01*
X701893Y3317483D01*
X702112Y3318727D01*
X702259Y3320263D01*
X702332Y3322019D01*
X702405Y3323994D01*
Y3324067D01*
Y3324213D01*
Y3324506D01*
Y3324945D01*
Y3325384D01*
X702332Y3325896D01*
X702259Y3327139D01*
X702186Y3328529D01*
X701966Y3329919D01*
X701747Y3331309D01*
X701381Y3332479D01*
X701308Y3332626D01*
X701235Y3332992D01*
X701015Y3333504D01*
X700723Y3334162D01*
X700284Y3334967D01*
X699845Y3335698D01*
X699333Y3336503D01*
X698674Y3337161D01*
X698601Y3337234D01*
X698382Y3337454D01*
X697943Y3337746D01*
X697431Y3338112D01*
X696845Y3338478D01*
X696041Y3338844D01*
X695163Y3339136D01*
X694212Y3339429D01*
X694139D01*
X693773Y3339502D01*
X693261Y3339575D01*
X692456Y3339722D01*
X691944D01*
X691359Y3339795D01*
X690774D01*
X690042Y3339868D01*
X689238D01*
X688360Y3339941D01*
D02*
G37*
%LPD*%
D59*
X770000Y730000D02*
Y2000000D01*
X970000Y730000D02*
Y2000000D01*
X570000Y730000D02*
X970000D01*
X570000Y970000D02*
X960000D01*
X570000Y1230000D02*
X960000D01*
X570000Y1480000D02*
X960000D01*
X570000Y1740000D02*
X960000D01*
X570000Y730000D02*
Y2000000D01*
X970000D01*
X550000Y2450000D02*
X1070000D01*
X550000Y2700000D02*
X1070000D01*
X550000Y2960000D02*
X1080000D01*
X550000Y3210000D02*
X1080000D01*
X550000Y3460000D02*
X1080000D01*
X825000Y2180000D02*
X830000Y3660000D01*
X550000Y2180000D02*
Y3660000D01*
X1083852D01*
X1073852Y2180000D02*
X1083852Y3660000D01*
X550000Y2180000D02*
X1073852D01*
%TF.MD5,e9f3d2e2bef60eed42bdd387cac2f586*%
M02*
