%TF.GenerationSoftware,Altium Limited,Altium Designer,19.1.7 (138)*%
G04 Layer_Color=16711935*
%FSLAX45Y45*%
%MOMM*%
%TF.FileFunction,Soldermask,Bot*%
%TF.Part,Single*%
G01*
G75*
%TA.AperFunction,ConnectorPad*%
%ADD60R,1.80320X5.10320*%
%TA.AperFunction,ComponentPad*%
%ADD61C,2.15320*%
%ADD62R,1.62820X1.62820*%
%ADD63C,1.62820*%
%ADD64R,1.85320X1.85320*%
%ADD65C,1.85320*%
D60*
X1782500Y430000D02*
D03*
X932500D02*
D03*
X2922500Y422500D02*
D03*
X2072500D02*
D03*
D61*
X5479500Y2590000D02*
D03*
Y1930000D02*
D03*
D62*
X162500Y1865000D02*
D03*
D63*
X416500D02*
D03*
X162500Y1611000D02*
D03*
X416500D02*
D03*
X162500Y1357000D02*
D03*
X416500D02*
D03*
X162500Y1103000D02*
D03*
X416500D02*
D03*
X162500Y849000D02*
D03*
X416500D02*
D03*
D64*
X430000Y2317500D02*
D03*
D65*
X176000D02*
D03*
X430000Y2571500D02*
D03*
X176000D02*
D03*
X430000Y2825500D02*
D03*
X176000D02*
D03*
X430000Y3079500D02*
D03*
X176000D02*
D03*
X430000Y3333500D02*
D03*
X176000D02*
D03*
X430000Y3587500D02*
D03*
X176000D02*
D03*
%TF.MD5,a60e9a037921770638bf199404fcb5ba*%
M02*
