%TF.GenerationSoftware,Altium Limited,Altium Designer,19.1.7 (138)*%
G04 Layer_Physical_Order=1*
G04 Layer_Color=255*
%FSLAX45Y45*%
%MOMM*%
%TF.FileFunction,Copper,L1,Top,Signal*%
%TF.Part,Single*%
G01*
G75*
%TA.AperFunction,SMDPad,CuDef*%
%ADD10R,0.60000X0.35000*%
%ADD11R,0.75000X0.30000*%
%ADD12R,1.45000X1.15000*%
%ADD13R,0.65000X1.10000*%
%ADD14R,0.70000X0.60000*%
%ADD15R,0.70000X1.77500*%
%ADD16R,0.47500X0.30000*%
%ADD17R,1.40000X0.45000*%
%ADD18R,0.64000X0.65000*%
%ADD19R,0.60000X0.70000*%
%ADD20R,0.95000X0.90000*%
%ADD21R,1.15000X0.60000*%
%ADD22R,0.80000X0.80000*%
%ADD23R,1.10000X0.65000*%
%ADD24C,0.80000*%
%ADD25R,0.30000X0.75000*%
%ADD26R,3.85000X3.85000*%
%ADD27R,0.65000X0.64000*%
%ADD28R,1.20000X1.40000*%
%ADD29R,1.90000X1.90000*%
%ADD30R,1.40000X1.60000*%
%ADD31R,1.35000X0.40000*%
%ADD32R,1.20000X1.45000*%
%ADD33R,1.45000X1.20000*%
%TA.AperFunction,ConnectorPad*%
%ADD34R,1.60000X4.90000*%
%ADD35R,0.70000X2.35000*%
%TA.AperFunction,BGAPad,CuDef*%
%ADD36C,0.20000*%
%TA.AperFunction,SMDPad,CuDef*%
%ADD37R,0.30000X0.85000*%
%ADD38R,0.85000X0.30000*%
%ADD39R,4.25000X4.25000*%
%ADD40R,0.60000X0.85000*%
%ADD41R,0.60000X1.40000*%
%ADD42R,0.60000X1.80000*%
%ADD43R,0.80000X0.80000*%
%ADD44C,1.00000*%
%ADD45R,1.52000X0.44000*%
%TA.AperFunction,Conductor*%
%ADD46C,0.20000*%
%ADD47C,0.15000*%
%ADD48C,0.12000*%
%ADD49C,0.30000*%
%ADD50C,0.25000*%
%ADD51C,0.17000*%
%ADD52C,0.40000*%
%TA.AperFunction,ComponentPad*%
%ADD53C,1.95000*%
%ADD54R,1.42500X1.42500*%
%ADD55C,1.42500*%
%ADD56R,1.65000X1.65000*%
%ADD57C,1.65000*%
%TA.AperFunction,ViaPad*%
%ADD58C,0.35000*%
G36*
X5600078Y4338076D02*
X5601175Y4338015D01*
X5602267Y4337895D01*
X5603352Y4337715D01*
X5603888Y4337596D01*
X5620252Y4337658D01*
X5652386Y4331449D01*
X5682712Y4319139D01*
X5710083Y4301195D01*
X5733464Y4278293D01*
X5751973Y4251301D01*
X5764910Y4221238D01*
X5771786Y4189240D01*
X5772063Y4172878D01*
X5772063Y4172877D01*
X5772064Y4172835D01*
X5772065Y4172750D01*
X5772066Y4172580D01*
X5772065Y150228D01*
X5772071Y149891D01*
X5772079Y149219D01*
X5772084Y148547D01*
X5772087Y147874D01*
Y131214D01*
X5765786Y99180D01*
X5753420Y68965D01*
X5735454Y41704D01*
X5712565Y18424D01*
X5685613Y-1D01*
X5655611Y-12877D01*
X5623689Y-19721D01*
X5606853Y-20006D01*
X5605826Y-19971D01*
X5604801Y-19883D01*
X5603783Y-19742D01*
X5603277Y-19646D01*
X5602814Y-19735D01*
X5601881Y-19867D01*
X5600942Y-19956D01*
X5600000Y-20000D01*
X162567Y-20000D01*
X149868Y-19997D01*
X133188Y-20260D01*
X100755Y-14346D01*
X70096Y-2226D01*
X42387Y15636D01*
X18690Y38556D01*
X-87Y65654D01*
X-13223Y95892D01*
X-20215Y128109D01*
X-20505Y144591D01*
X-20510Y157066D01*
X-20510Y4167396D01*
X-20509Y4167396D01*
X-20510Y4167397D01*
X-20765Y4183587D01*
X-15066Y4215467D01*
X-3367Y4245665D01*
X13898Y4273064D01*
X36089Y4296651D01*
X62387Y4315551D01*
X91817Y4329067D01*
X123291Y4336696D01*
X139467Y4337427D01*
X140086Y4337588D01*
X141342Y4337832D01*
X142612Y4337995D01*
X143889Y4338076D01*
X5600078Y4338076D01*
D02*
G37*
%LPC*%
G36*
X4615000Y4065490D02*
X4520060D01*
X4510305Y4063549D01*
X4502036Y4058024D01*
X4500636Y4056624D01*
X4495111Y4048355D01*
X4493170Y4038600D01*
X4495111Y4028845D01*
X4500636Y4020576D01*
X4508905Y4015051D01*
X4518660Y4013110D01*
X4525699Y4014510D01*
X4615000D01*
X4624754Y4016451D01*
X4633024Y4021976D01*
X4638549Y4030246D01*
X4640490Y4040000D01*
X4638549Y4049754D01*
X4633024Y4058024D01*
X4624754Y4063549D01*
X4615000Y4065490D01*
D02*
G37*
G36*
X3495040Y4066629D02*
X3485285Y4064689D01*
X3483099Y4063229D01*
X3481899Y4062990D01*
X2678600D01*
X2668846Y4061050D01*
X2660576Y4055524D01*
X2659136Y4054084D01*
X2653611Y4045815D01*
X2651670Y4036060D01*
X2653611Y4026305D01*
X2659136Y4018036D01*
X2667405Y4012511D01*
X2677160Y4010570D01*
X2684400Y4012011D01*
X3485000D01*
X3488870Y4012780D01*
X3492170D01*
X3501925Y4014721D01*
X3510194Y4020246D01*
X3513064Y4023116D01*
X3518589Y4031385D01*
X3520529Y4041140D01*
X3518589Y4050895D01*
X3513064Y4059164D01*
X3504795Y4064689D01*
X3495040Y4066629D01*
D02*
G37*
G36*
X5134764Y3803338D02*
X5060548D01*
X5050794Y3801398D01*
X5042524Y3795872D01*
X5041656Y3795004D01*
X5036131Y3786735D01*
X5034190Y3776980D01*
X5036131Y3767225D01*
X5041656Y3758956D01*
X5049925Y3753431D01*
X5059680Y3751490D01*
X5064045Y3752359D01*
X5134764D01*
X5144519Y3754299D01*
X5152788Y3759824D01*
X5158314Y3768094D01*
X5160254Y3777848D01*
X5158314Y3787603D01*
X5152788Y3795872D01*
X5144519Y3801398D01*
X5134764Y3803338D01*
D02*
G37*
G36*
X1249000Y3722550D02*
X1149000D01*
Y3655168D01*
X1135400D01*
X1135361Y3655194D01*
X1122680Y3657717D01*
X1109999Y3655194D01*
X1099249Y3648011D01*
X1092066Y3637261D01*
X1089543Y3624580D01*
X1092066Y3611899D01*
X1099249Y3601149D01*
X1109999Y3593966D01*
X1122680Y3591443D01*
X1135361Y3593966D01*
X1135400Y3593992D01*
X1149000D01*
Y3515050D01*
X1249000D01*
Y3722550D01*
D02*
G37*
G36*
X1757000D02*
X1657000D01*
Y3644290D01*
X1630000D01*
Y3722550D01*
X1530000D01*
Y3515050D01*
X1630000D01*
Y3593310D01*
X1657000D01*
Y3515050D01*
X1757000D01*
Y3722550D01*
D02*
G37*
G36*
X5114760Y3687840D02*
X4969760D01*
Y3597840D01*
X5114760D01*
Y3687840D01*
D02*
G37*
G36*
X5292260Y3573330D02*
X5198840D01*
X5189086Y3571389D01*
X5180816Y3565864D01*
X5178816Y3563864D01*
X5173291Y3555595D01*
X5171350Y3545840D01*
X5173291Y3536085D01*
X5178816Y3527816D01*
X5187085Y3522291D01*
X5196840Y3520350D01*
X5206595Y3522291D01*
X5206684Y3522350D01*
X5292260D01*
X5302014Y3524291D01*
X5310284Y3529816D01*
X5315809Y3538086D01*
X5317750Y3547840D01*
X5315809Y3557594D01*
X5310284Y3565864D01*
X5302014Y3571389D01*
X5292260Y3573330D01*
D02*
G37*
G36*
X4914760Y3570830D02*
X4905006Y3568889D01*
X4904857Y3568790D01*
X4853940D01*
X4844186Y3566849D01*
X4835916Y3561324D01*
X4830391Y3553054D01*
X4828450Y3543300D01*
X4830391Y3533546D01*
X4835916Y3525276D01*
X4844186Y3519751D01*
X4853940Y3517810D01*
X4912720D01*
X4922475Y3519751D01*
X4930744Y3525276D01*
X4932784Y3527316D01*
X4938309Y3535586D01*
X4940250Y3545340D01*
X4938309Y3555094D01*
X4932784Y3563364D01*
X4924515Y3568889D01*
X4914760Y3570830D01*
D02*
G37*
G36*
X430000Y3685841D02*
X404547Y3682490D01*
X380829Y3672666D01*
X360462Y3657038D01*
X344834Y3636671D01*
X335009Y3612953D01*
X331659Y3587500D01*
X335009Y3562047D01*
X344834Y3538329D01*
X360462Y3517962D01*
X380829Y3502334D01*
X404547Y3492510D01*
X430000Y3489159D01*
X455452Y3492510D01*
X479170Y3502334D01*
X499538Y3517962D01*
X515166Y3538329D01*
X524990Y3562047D01*
X528341Y3587500D01*
X524990Y3612953D01*
X515166Y3636671D01*
X499538Y3657038D01*
X479170Y3672666D01*
X455452Y3682490D01*
X430000Y3685841D01*
D02*
G37*
G36*
X176000D02*
X150547Y3682490D01*
X126829Y3672666D01*
X106462Y3657038D01*
X90834Y3636671D01*
X81009Y3612953D01*
X77659Y3587500D01*
X81009Y3562047D01*
X90834Y3538329D01*
X106462Y3517962D01*
X126829Y3502334D01*
X150547Y3492510D01*
X176000Y3489159D01*
X201452Y3492510D01*
X225170Y3502334D01*
X245538Y3517962D01*
X261166Y3538329D01*
X270990Y3562047D01*
X274341Y3587500D01*
X270990Y3612953D01*
X261166Y3636671D01*
X245538Y3657038D01*
X225170Y3672666D01*
X201452Y3682490D01*
X176000Y3685841D01*
D02*
G37*
G36*
X4961760Y3502840D02*
Y3502840D01*
X4867760D01*
Y3498280D01*
X4867021Y3497006D01*
X4855060Y3488843D01*
X4848860Y3490077D01*
X4836179Y3487554D01*
X4825429Y3480371D01*
X4818246Y3469621D01*
X4815723Y3456940D01*
X4818246Y3444259D01*
X4825429Y3433509D01*
X4836179Y3426326D01*
X4848860Y3423803D01*
X4855060Y3425037D01*
X4867021Y3416874D01*
X4867760Y3415600D01*
Y3407840D01*
X4961759D01*
Y3407840D01*
X4969760D01*
Y3407840D01*
X5114760D01*
Y3497840D01*
X4969760D01*
X4961760Y3502840D01*
D02*
G37*
G36*
X4677500Y3950000D02*
X4552500D01*
Y3830000D01*
X4597059D01*
Y3740000D01*
X4575000D01*
Y3642700D01*
X4575000Y3640000D01*
Y3630000D01*
X4575000Y3627300D01*
Y3530000D01*
X4579277D01*
X4587123Y3520440D01*
X4589646Y3507759D01*
X4596829Y3497009D01*
X4607579Y3489826D01*
X4620260Y3487303D01*
X4632941Y3489826D01*
X4643691Y3497009D01*
X4650874Y3507759D01*
X4653397Y3520440D01*
X4661243Y3530000D01*
X4665000D01*
Y3627300D01*
X4665000Y3630000D01*
Y3640000D01*
X4665000Y3642700D01*
Y3740000D01*
X4642940D01*
Y3830000D01*
X4677500D01*
Y3950000D01*
D02*
G37*
G36*
X5364764Y3832848D02*
X5254764D01*
Y3722848D01*
X5279177D01*
Y3687840D01*
X5219760D01*
Y3597840D01*
X5364760D01*
Y3612252D01*
X5414830D01*
X5421666Y3605416D01*
Y3505345D01*
X5397254D01*
Y3482180D01*
X5364760D01*
Y3497840D01*
X5219760D01*
Y3407840D01*
X5364760D01*
Y3421005D01*
X5397254D01*
Y3395345D01*
X5507254D01*
Y3505345D01*
X5482841D01*
Y3618085D01*
X5482842Y3618086D01*
X5480513Y3629792D01*
X5473883Y3639715D01*
X5473882Y3639716D01*
X5449129Y3664469D01*
X5439205Y3671099D01*
X5427500Y3673428D01*
X5427499Y3673428D01*
X5364760D01*
Y3687840D01*
X5340352D01*
Y3722848D01*
X5364764D01*
Y3832848D01*
D02*
G37*
G36*
X2011000Y3722550D02*
X1911000D01*
Y3515050D01*
X1937930D01*
Y3477290D01*
X1932806Y3469621D01*
X1930283Y3456940D01*
X1932806Y3444259D01*
X1939989Y3433509D01*
X1950739Y3426326D01*
X1963420Y3423803D01*
X1976101Y3426326D01*
X1986851Y3433509D01*
X1994034Y3444259D01*
X1996557Y3456940D01*
X1994034Y3469621D01*
X1988910Y3477290D01*
Y3515050D01*
X2011000D01*
Y3722550D01*
D02*
G37*
G36*
X1503000D02*
X1403000D01*
Y3515050D01*
X1427510D01*
Y3381258D01*
X1366922Y3320670D01*
X960004D01*
X952855Y3332144D01*
X952807Y3333370D01*
X955157Y3345180D01*
X952807Y3356990D01*
X952855Y3358216D01*
X960004Y3369690D01*
X1276820D01*
X1286575Y3371631D01*
X1294844Y3377156D01*
X1329634Y3411946D01*
X1338681Y3413746D01*
X1349431Y3420929D01*
X1356614Y3431679D01*
X1359136Y3444360D01*
X1356614Y3457041D01*
X1351490Y3464710D01*
Y3515050D01*
X1376000D01*
Y3722550D01*
X1276000D01*
Y3515050D01*
X1300510D01*
Y3464710D01*
X1295386Y3457041D01*
X1293586Y3447994D01*
X1266262Y3420670D01*
X917570D01*
Y3425180D01*
X840070D01*
Y3365180D01*
Y3265180D01*
X917570D01*
Y3269690D01*
X1377480D01*
X1387235Y3271631D01*
X1395504Y3277156D01*
X1471024Y3352676D01*
X1476549Y3360945D01*
X1478490Y3370700D01*
Y3515050D01*
X1503000D01*
Y3722550D01*
D02*
G37*
G36*
X3042500Y3947500D02*
X2917500D01*
Y3827500D01*
X2954510D01*
Y3725000D01*
X2935000D01*
Y3627700D01*
X2935000Y3625000D01*
Y3615000D01*
X2935000Y3612300D01*
Y3515000D01*
X2954510D01*
Y3384116D01*
X2940347Y3374653D01*
X2928192Y3356460D01*
X2923923Y3335000D01*
X2928192Y3313540D01*
X2940347Y3295347D01*
X2955490Y3285229D01*
Y3259923D01*
X2951346Y3253721D01*
X2948823Y3241040D01*
X2951346Y3228359D01*
X2958529Y3217609D01*
X2969279Y3210426D01*
X2981960Y3207903D01*
X2994641Y3210426D01*
X3005391Y3217609D01*
X3012574Y3228359D01*
X3015097Y3241040D01*
X3012574Y3253721D01*
X3006470Y3262857D01*
Y3286539D01*
X3019653Y3295347D01*
X3031809Y3313540D01*
X3036077Y3335000D01*
X3031809Y3356460D01*
X3019653Y3374653D01*
X3005490Y3384116D01*
Y3515000D01*
X3025000D01*
Y3612300D01*
X3025000Y3615000D01*
Y3625000D01*
X3025000Y3627700D01*
Y3725000D01*
X3005490D01*
Y3827500D01*
X3042500D01*
Y3947500D01*
D02*
G37*
G36*
X3470000D02*
X3345000D01*
Y3827500D01*
X3384510D01*
Y3725000D01*
X3365000D01*
Y3627700D01*
X3365000Y3625000D01*
Y3615000D01*
X3365000Y3612300D01*
Y3515000D01*
X3377010D01*
Y3384116D01*
X3362847Y3374653D01*
X3350691Y3356460D01*
X3346423Y3335000D01*
X3350691Y3313540D01*
X3362847Y3295347D01*
X3377560Y3285517D01*
Y3258027D01*
X3372986Y3251181D01*
X3370463Y3238500D01*
X3372986Y3225819D01*
X3380169Y3215069D01*
X3390919Y3207886D01*
X3403600Y3205363D01*
X3416281Y3207886D01*
X3427031Y3215069D01*
X3434214Y3225819D01*
X3436737Y3238500D01*
X3434214Y3251181D01*
X3428539Y3259673D01*
Y3286251D01*
X3442153Y3295347D01*
X3454309Y3313540D01*
X3458577Y3335000D01*
X3454309Y3356460D01*
X3442153Y3374653D01*
X3427990Y3384116D01*
Y3515000D01*
X3455000D01*
Y3612300D01*
X3455000Y3615000D01*
Y3625000D01*
X3455000Y3627700D01*
Y3725000D01*
X3435490D01*
Y3827500D01*
X3470000D01*
Y3947500D01*
D02*
G37*
G36*
X3255000D02*
X3130000D01*
Y3827500D01*
X3169510D01*
Y3725000D01*
X3150000D01*
Y3627700D01*
X3150000Y3625000D01*
Y3615000D01*
X3150000Y3612300D01*
Y3515000D01*
X3164510D01*
Y3384116D01*
X3150347Y3374653D01*
X3138191Y3356460D01*
X3133923Y3335000D01*
X3138191Y3313540D01*
X3150347Y3295347D01*
X3162090Y3287501D01*
Y3259632D01*
X3161729Y3259391D01*
X3154546Y3248641D01*
X3152023Y3235960D01*
X3154546Y3223279D01*
X3161729Y3212529D01*
X3172479Y3205346D01*
X3185160Y3202823D01*
X3197841Y3205346D01*
X3208591Y3212529D01*
X3215774Y3223279D01*
X3218297Y3235960D01*
X3215774Y3248641D01*
X3213070Y3252688D01*
Y3284267D01*
X3229653Y3295347D01*
X3241809Y3313540D01*
X3246077Y3335000D01*
X3241809Y3356460D01*
X3229653Y3374653D01*
X3215490Y3384116D01*
Y3515000D01*
X3240000D01*
Y3612300D01*
X3240000Y3615000D01*
Y3625000D01*
X3240000Y3627700D01*
Y3725000D01*
X3220490D01*
Y3827500D01*
X3255000D01*
Y3947500D01*
D02*
G37*
G36*
X2827499D02*
X2702499D01*
Y3827500D01*
X2737010D01*
Y3722500D01*
X2717500D01*
Y3625200D01*
X2717500Y3622500D01*
Y3612500D01*
X2717500Y3609800D01*
Y3512500D01*
X2739510D01*
Y3386616D01*
X2725347Y3377153D01*
X2713191Y3358960D01*
X2708923Y3337500D01*
X2713191Y3316040D01*
X2725347Y3297847D01*
X2738770Y3288878D01*
Y3257418D01*
X2732906Y3248641D01*
X2730383Y3235960D01*
X2732906Y3223279D01*
X2740089Y3212529D01*
X2750839Y3205346D01*
X2763520Y3202823D01*
X2776201Y3205346D01*
X2786951Y3212529D01*
X2794134Y3223279D01*
X2796657Y3235960D01*
X2794134Y3248641D01*
X2789750Y3255202D01*
Y3287890D01*
X2804653Y3297847D01*
X2816809Y3316040D01*
X2821077Y3337500D01*
X2816809Y3358960D01*
X2804653Y3377153D01*
X2790490Y3386616D01*
Y3512500D01*
X2807500D01*
Y3609800D01*
X2807500Y3612500D01*
Y3622500D01*
X2807500Y3625200D01*
Y3722500D01*
X2787990D01*
Y3827500D01*
X2827499D01*
Y3947500D01*
D02*
G37*
G36*
X4859020Y3266530D02*
X4849266Y3264589D01*
X4840996Y3259064D01*
X4835471Y3250794D01*
X4833530Y3241040D01*
Y3203480D01*
X4835471Y3193725D01*
X4840996Y3185456D01*
X4844476Y3181976D01*
X4852745Y3176451D01*
X4862500Y3174511D01*
X4872255Y3176451D01*
X4880524Y3181976D01*
X4886049Y3190245D01*
X4887989Y3200000D01*
X4886049Y3209755D01*
X4884510Y3212059D01*
Y3241040D01*
X4882569Y3250794D01*
X4877044Y3259064D01*
X4868774Y3264589D01*
X4859020Y3266530D01*
D02*
G37*
G36*
X5507254Y3330345D02*
X5397254D01*
Y3220345D01*
X5409946D01*
X5411822Y3219020D01*
X5419145Y3207645D01*
X5417703Y3200400D01*
X5420226Y3187719D01*
X5427409Y3176969D01*
X5438159Y3169786D01*
X5450840Y3167263D01*
X5463521Y3169786D01*
X5474271Y3176969D01*
X5481454Y3187719D01*
X5483977Y3200400D01*
X5482535Y3207645D01*
X5489858Y3219020D01*
X5491734Y3220345D01*
X5507254D01*
Y3330345D01*
D02*
G37*
G36*
X5237480Y3213190D02*
X5155200D01*
X5145445Y3211249D01*
X5137176Y3205724D01*
X5134476Y3203024D01*
X5128951Y3194755D01*
X5127010Y3185000D01*
X5128951Y3175245D01*
X5134476Y3166976D01*
X5142745Y3161451D01*
X5152500Y3159510D01*
X5162255Y3161451D01*
X5163392Y3162210D01*
X5237480D01*
X5247234Y3164151D01*
X5255504Y3169676D01*
X5261029Y3177946D01*
X5262970Y3187700D01*
X5261029Y3197454D01*
X5255504Y3205724D01*
X5247234Y3211249D01*
X5237480Y3213190D01*
D02*
G37*
G36*
X5331460Y3101430D02*
X5280940D01*
X5271186Y3099489D01*
X5262916Y3093964D01*
X5261976Y3093024D01*
X5256451Y3084755D01*
X5254510Y3075000D01*
X5256451Y3065245D01*
X5261976Y3056976D01*
X5270245Y3051451D01*
X5280000Y3049510D01*
X5284726Y3050450D01*
X5331460D01*
X5341214Y3052391D01*
X5349484Y3057916D01*
X5355009Y3066186D01*
X5356950Y3075940D01*
X5355009Y3085694D01*
X5349484Y3093964D01*
X5341214Y3099489D01*
X5331460Y3101430D01*
D02*
G37*
G36*
X3555000Y3391078D02*
X3533540Y3386809D01*
X3515347Y3374653D01*
X3503191Y3356460D01*
X3498923Y3335000D01*
X3503191Y3313540D01*
X3515347Y3295347D01*
X3533540Y3283192D01*
X3555000Y3278923D01*
X3576460Y3283192D01*
X3594653Y3295347D01*
X3604116Y3309511D01*
X3984882D01*
X4136850Y3157542D01*
Y3105160D01*
X4114840D01*
Y3011160D01*
X4120280D01*
X4123401Y3010864D01*
X4124421Y3008143D01*
X4125403Y2998460D01*
X4116769Y2992691D01*
X4110690Y2983593D01*
X4104193Y2983692D01*
X4097990Y2985705D01*
Y3058000D01*
X4096049Y3067755D01*
X4090524Y3076024D01*
X4090364Y3076184D01*
X4087824Y3078724D01*
X4079555Y3084249D01*
X4069800Y3086190D01*
X4010660D01*
X4000906Y3084249D01*
X3992636Y3078724D01*
X3987111Y3070454D01*
X3985170Y3060700D01*
X3987111Y3050946D01*
X3992636Y3042676D01*
X4000906Y3037151D01*
X4010660Y3035210D01*
X4047010D01*
Y2965000D01*
Y2867500D01*
Y2770000D01*
Y2666045D01*
X4046130Y2661620D01*
Y2611120D01*
X4048071Y2601366D01*
X4053596Y2593096D01*
X4061866Y2587571D01*
X4071620Y2585630D01*
X4081374Y2587571D01*
X4089644Y2593096D01*
X4095169Y2601366D01*
X4097110Y2611120D01*
Y2651943D01*
X4109586Y2654319D01*
X4116769Y2643569D01*
X4127519Y2636386D01*
X4132500Y2635395D01*
Y2617500D01*
X4133982D01*
X4140500Y2607500D01*
Y2512500D01*
Y2422500D01*
X4234500D01*
Y2477934D01*
X4239610Y2478951D01*
X4247879Y2484476D01*
X4262774Y2499371D01*
X4268299Y2507640D01*
X4270240Y2517395D01*
Y2534077D01*
X4282940Y2535327D01*
X4283951Y2530245D01*
X4289476Y2521976D01*
X4310290Y2501162D01*
Y2499360D01*
X4312231Y2489606D01*
X4317756Y2481336D01*
X4326026Y2475811D01*
X4335780Y2473870D01*
X4339800Y2474670D01*
X4352500Y2466353D01*
Y2428646D01*
X4350903Y2420620D01*
X4352500Y2412499D01*
X4352519D01*
X4353426Y2407939D01*
X4360609Y2397189D01*
X4371359Y2390006D01*
X4369133Y2377500D01*
X4358000D01*
Y2357109D01*
X4345959Y2354714D01*
X4335209Y2347531D01*
X4328026Y2336781D01*
X4325503Y2324100D01*
X4328026Y2311419D01*
X4335209Y2300669D01*
X4345959Y2293486D01*
X4358000Y2291091D01*
Y2282500D01*
X4370150D01*
X4375390Y2269800D01*
X4370057Y2262974D01*
X4361586Y2261289D01*
X4353316Y2255764D01*
X4347791Y2247494D01*
X4345850Y2237740D01*
X4347791Y2227986D01*
X4353316Y2219716D01*
X4361586Y2214191D01*
X4371340Y2212250D01*
X4382740D01*
X4392495Y2214191D01*
X4395732Y2216354D01*
X4405000Y2214510D01*
X4879250D01*
Y2204720D01*
X4881191Y2194966D01*
X4886716Y2186696D01*
X4894986Y2181171D01*
X4904740Y2179230D01*
X4914494Y2181171D01*
X4922764Y2186696D01*
X4927702Y2194087D01*
X4932959Y2195435D01*
X4941502Y2196294D01*
X4941715Y2195975D01*
X4952466Y2188792D01*
X4965146Y2186270D01*
X4969524Y2187140D01*
X4976304Y2180360D01*
X4983251Y2175719D01*
X4991445Y2174089D01*
X5015000D01*
Y2163000D01*
X5042278D01*
X5046131Y2150300D01*
X5041976Y2147524D01*
X5041656Y2147204D01*
X5036131Y2138935D01*
X5034190Y2129180D01*
Y2087880D01*
X5036131Y2078126D01*
X5041656Y2069856D01*
X5049926Y2064331D01*
X5059680Y2062390D01*
X5069434Y2064331D01*
X5077704Y2069856D01*
X5083229Y2078126D01*
X5085170Y2087880D01*
Y2127891D01*
X5085490Y2129500D01*
X5083549Y2139255D01*
X5078024Y2147524D01*
X5073869Y2150300D01*
X5077722Y2163000D01*
X5105000D01*
Y2177926D01*
X5106000Y2190089D01*
X5129500D01*
Y2095000D01*
X5176440D01*
X5184497Y2085183D01*
X5184023Y2082800D01*
X5186546Y2070119D01*
X5193729Y2059369D01*
X5204479Y2052186D01*
X5217160Y2049663D01*
X5229841Y2052186D01*
X5240591Y2059369D01*
X5247774Y2070119D01*
X5250297Y2082800D01*
X5249823Y2085183D01*
X5257880Y2095000D01*
X5294500D01*
Y2160000D01*
Y2225000D01*
Y2290000D01*
Y2360000D01*
X5234960D01*
X5230996Y2369617D01*
X5230748Y2372700D01*
X5232644Y2374596D01*
X5238169Y2382866D01*
X5240110Y2392620D01*
Y2428240D01*
X5238169Y2437994D01*
X5235969Y2441287D01*
X5236237Y2443460D01*
X5241625Y2454375D01*
X5247234Y2455491D01*
X5255504Y2461016D01*
X5261029Y2469286D01*
X5262970Y2479040D01*
Y2577020D01*
X5261029Y2586775D01*
X5257890Y2591474D01*
Y2682240D01*
X5255949Y2691994D01*
X5250424Y2700264D01*
X5242154Y2705789D01*
X5232400Y2707730D01*
X5222646Y2705789D01*
X5214376Y2700264D01*
X5208851Y2691994D01*
X5206910Y2682240D01*
Y2582100D01*
X5208851Y2572346D01*
X5211990Y2567647D01*
Y2479040D01*
X5213931Y2469286D01*
X5216131Y2465993D01*
X5215863Y2463820D01*
X5210475Y2452905D01*
X5204866Y2451789D01*
X5196596Y2446264D01*
X5191071Y2437994D01*
X5189130Y2428240D01*
Y2400772D01*
X5188451Y2399755D01*
X5186510Y2390000D01*
X5188451Y2380245D01*
X5193492Y2372700D01*
X5192652Y2368763D01*
X5189040Y2360000D01*
X5129500D01*
Y2272178D01*
X5119254Y2264912D01*
X5105000D01*
Y2292000D01*
X5077722D01*
X5073869Y2304700D01*
X5078024Y2307476D01*
X5080244Y2309696D01*
X5085769Y2317965D01*
X5087710Y2327720D01*
Y2367280D01*
X5085769Y2377034D01*
X5080244Y2385304D01*
X5071974Y2390829D01*
X5062220Y2392770D01*
X5052466Y2390829D01*
X5044196Y2385304D01*
X5038671Y2377034D01*
X5036730Y2367280D01*
Y2335673D01*
X5036451Y2335255D01*
X5034510Y2325500D01*
X5036451Y2315745D01*
X5041976Y2307476D01*
X5046131Y2304700D01*
X5042278Y2292000D01*
X5015000D01*
Y2292000D01*
X5002300Y2283302D01*
X4996966Y2284363D01*
X4984285Y2281840D01*
X4973535Y2274657D01*
X4966352Y2263907D01*
X4964048Y2252324D01*
X4952466Y2250020D01*
X4941715Y2242837D01*
X4941013Y2241786D01*
X4936309Y2241368D01*
X4926636Y2243129D01*
X4922764Y2248924D01*
X4910845Y2260843D01*
X4910844Y2260844D01*
X4902574Y2266369D01*
X4892820Y2268310D01*
X4883065Y2266369D01*
X4881749Y2265490D01*
X4422008D01*
X4418439Y2269800D01*
X4424413Y2282500D01*
X4452000Y2282500D01*
X4464700Y2282500D01*
X4537800D01*
X4546999Y2282500D01*
Y2282499D01*
X4550501D01*
Y2282500D01*
X4635300D01*
X4644499Y2282500D01*
Y2282499D01*
X4648001D01*
Y2282500D01*
X4741999D01*
Y2282499D01*
X4745501D01*
Y2282500D01*
X4839499D01*
Y2282499D01*
X4843000D01*
Y2282500D01*
X4937000D01*
Y2377500D01*
X4915490D01*
Y2404880D01*
X4915151Y2406580D01*
X4926856Y2412837D01*
X4930803Y2408890D01*
X4937749Y2404248D01*
X4945943Y2402619D01*
X4977254D01*
X4981029Y2400096D01*
X4993710Y2397574D01*
X5006391Y2400096D01*
X5017141Y2407279D01*
X5024324Y2418029D01*
X5026846Y2430710D01*
X5024324Y2443391D01*
X5017141Y2454141D01*
X5006391Y2461324D01*
X4994808Y2463628D01*
X4992504Y2475211D01*
X4985321Y2485961D01*
X4974571Y2493144D01*
X4973391Y2493379D01*
Y2655225D01*
X4973603Y2655279D01*
D01*
X4975720Y2655826D01*
Y2655826D01*
X4975722Y2655827D01*
X4975722Y2655826D01*
X4987479Y2655753D01*
X4990529Y2651189D01*
X5001279Y2644006D01*
X5013960Y2641483D01*
X5023000Y2634064D01*
Y2627500D01*
X5117000D01*
Y2722500D01*
X5023000D01*
Y2715176D01*
X5013960Y2707757D01*
X5001279Y2705234D01*
X4990529Y2698051D01*
X4983346Y2687301D01*
X4980929Y2675152D01*
X4971685Y2667901D01*
X4969540Y2667013D01*
X4967120Y2670366D01*
X4961721Y2675765D01*
X4941345Y2696140D01*
X4934399Y2700781D01*
X4926205Y2702411D01*
X4875574D01*
X4869493Y2715111D01*
X4871060Y2717059D01*
X4879839Y2718806D01*
X4887281Y2723778D01*
X4915767Y2752264D01*
X4927500Y2747404D01*
Y2745000D01*
X5027500D01*
Y2835000D01*
X5034696Y2844719D01*
X5046980D01*
X5048189Y2844960D01*
X5054465Y2840677D01*
X5059590Y2834914D01*
Y2792420D01*
X5061531Y2782665D01*
X5067056Y2774396D01*
X5069476Y2771976D01*
X5077745Y2766451D01*
X5087500Y2764511D01*
X5097254Y2766451D01*
X5105524Y2771976D01*
X5111049Y2780245D01*
X5112989Y2790000D01*
X5111049Y2799755D01*
X5110570Y2800472D01*
Y2837180D01*
X5108629Y2846934D01*
X5103104Y2855204D01*
X5101402Y2870838D01*
X5110008Y2880000D01*
X5227500D01*
Y2927078D01*
X5233000Y2937500D01*
X5327000D01*
Y3032500D01*
X5233000D01*
X5227500Y3042922D01*
Y3050000D01*
X5077500D01*
Y2912443D01*
X5065178Y2900120D01*
X5056501D01*
X5056500Y2900121D01*
X5047721Y2898374D01*
X5040278Y2893401D01*
X5037478Y2890601D01*
X4942840D01*
X4934061Y2888854D01*
X4926619Y2883881D01*
X4903141Y2860403D01*
X4890441Y2865664D01*
Y2934636D01*
X4900504Y2943532D01*
X4902649Y2944186D01*
X4904740Y2943770D01*
X4969274D01*
X4972745Y2941451D01*
X4982500Y2939511D01*
X4992254Y2941451D01*
X5000524Y2946976D01*
X5006049Y2955245D01*
X5007989Y2965000D01*
X5006049Y2974755D01*
X5000524Y2983024D01*
X4996264Y2987284D01*
X4987994Y2992809D01*
X4978240Y2994750D01*
X4904740D01*
X4899741Y2993755D01*
X4887041Y3001612D01*
Y3062500D01*
X4909500D01*
Y3100000D01*
X5057500D01*
Y3270000D01*
X4907500D01*
Y3157500D01*
X4815500D01*
X4812000Y3168751D01*
Y3247500D01*
X4797902D01*
X4795654Y3258801D01*
X4788471Y3269551D01*
X4777721Y3276734D01*
X4765040Y3279257D01*
X4752359Y3276734D01*
X4741609Y3269551D01*
X4734426Y3258801D01*
X4732178Y3247500D01*
X4718000D01*
Y3152500D01*
Y3062500D01*
X4727354D01*
X4729074Y3061794D01*
X4730255Y3049801D01*
X4726811Y3049115D01*
X4721879Y3048134D01*
X4713200Y3042335D01*
X4711834Y3042901D01*
X4704651Y3053651D01*
X4693901Y3060834D01*
X4681220Y3063357D01*
X4668539Y3060834D01*
X4659169Y3054573D01*
X4656391Y3058731D01*
X4645641Y3065914D01*
X4632960Y3068437D01*
X4627521Y3067355D01*
X4625353Y3067975D01*
X4614668Y3075692D01*
X4614118Y3076652D01*
X4613329Y3080615D01*
X4607804Y3088884D01*
X4599535Y3094409D01*
X4589780Y3096349D01*
X4580025Y3094409D01*
X4571756Y3088884D01*
X4564476Y3081604D01*
X4562200Y3078198D01*
X4549500Y3082050D01*
Y3134270D01*
X4549500Y3137500D01*
X4557298Y3146970D01*
X4559300D01*
X4569054Y3148911D01*
X4577324Y3154436D01*
X4582849Y3162706D01*
X4584790Y3172460D01*
X4582849Y3182214D01*
X4577324Y3190484D01*
X4569054Y3196009D01*
X4559300Y3197950D01*
X4520598D01*
X4520524Y3198024D01*
X4512255Y3203549D01*
X4502500Y3205490D01*
X4492745Y3203549D01*
X4488167Y3200490D01*
X4333240D01*
X4323486Y3198549D01*
X4315216Y3193024D01*
X4309691Y3184754D01*
X4307750Y3175000D01*
X4309691Y3165246D01*
X4315216Y3156976D01*
X4323486Y3151451D01*
X4329564Y3150242D01*
X4334906Y3141025D01*
X4335500Y3137998D01*
X4335500Y3136936D01*
X4325683Y3128879D01*
X4323080Y3129397D01*
X4310399Y3126874D01*
X4299649Y3119691D01*
X4292466Y3108941D01*
X4289943Y3096260D01*
X4292466Y3083579D01*
X4299649Y3072829D01*
X4310399Y3065646D01*
X4323080Y3063123D01*
X4325683Y3063641D01*
X4335500Y3055584D01*
Y3045000D01*
X4351912D01*
Y2965000D01*
X4352500Y2962045D01*
Y2920000D01*
X4332990D01*
Y2984840D01*
X4331049Y2994595D01*
X4325524Y3002864D01*
X4252204Y3076184D01*
X4243935Y3081709D01*
X4234180Y3083650D01*
X4209840D01*
Y3105160D01*
X4187829D01*
Y3168100D01*
X4185889Y3177855D01*
X4180363Y3186124D01*
X4013464Y3353024D01*
X4005194Y3358550D01*
X3995440Y3360490D01*
X3604116D01*
X3594653Y3374653D01*
X3576460Y3386809D01*
X3555000Y3391078D01*
D02*
G37*
G36*
X749970Y3425180D02*
X672470D01*
Y3420670D01*
X646900D01*
X637146Y3418729D01*
X628876Y3413204D01*
X586496Y3370824D01*
X580971Y3362555D01*
X579030Y3352800D01*
Y3259218D01*
X550782Y3230970D01*
X301980D01*
X292225Y3229029D01*
X283956Y3223504D01*
X225133Y3164681D01*
X201452Y3174490D01*
X176000Y3177841D01*
X150547Y3174490D01*
X126829Y3164666D01*
X106462Y3149038D01*
X90834Y3128671D01*
X81009Y3104953D01*
X77659Y3079500D01*
X81009Y3054047D01*
X90834Y3030329D01*
X106462Y3009962D01*
X126829Y2994334D01*
X150547Y2984510D01*
X176000Y2981159D01*
X201452Y2984510D01*
X225170Y2994334D01*
X245538Y3009962D01*
X261166Y3030329D01*
X270990Y3054047D01*
X274341Y3079500D01*
X270990Y3104953D01*
X261181Y3128634D01*
X312538Y3179990D01*
X384639D01*
X387165Y3167290D01*
X380829Y3164666D01*
X360462Y3149038D01*
X344834Y3128671D01*
X335009Y3104953D01*
X331659Y3079500D01*
X335009Y3054047D01*
X344834Y3030329D01*
X360462Y3009962D01*
X380829Y2994334D01*
X404547Y2984510D01*
X430000Y2981159D01*
X455452Y2984510D01*
X479170Y2994334D01*
X499538Y3009962D01*
X515166Y3030329D01*
X524975Y3054010D01*
X574670D01*
X584425Y3055951D01*
X592694Y3061476D01*
X729244Y3198026D01*
X734769Y3206296D01*
X736710Y3216050D01*
Y3265180D01*
X749970D01*
Y3319690D01*
X764540D01*
X774294Y3321631D01*
X782564Y3327156D01*
X788089Y3335426D01*
X790030Y3345180D01*
X788089Y3354934D01*
X782564Y3363204D01*
X774294Y3368729D01*
X764540Y3370670D01*
X749970D01*
Y3425180D01*
D02*
G37*
G36*
X1884000Y3722550D02*
X1784000D01*
Y3515050D01*
X1808510D01*
Y3391418D01*
X1635362Y3218270D01*
X836516D01*
X826762Y3216329D01*
X818493Y3210804D01*
X502531Y2894842D01*
X499537Y2895038D01*
X479170Y2910666D01*
X455452Y2920490D01*
X430000Y2923841D01*
X404547Y2920490D01*
X380829Y2910666D01*
X360462Y2895038D01*
X344834Y2874671D01*
X335009Y2850953D01*
X331659Y2825500D01*
X335009Y2800047D01*
X344834Y2776329D01*
X360462Y2755962D01*
X380829Y2740334D01*
X385936Y2738219D01*
X383410Y2725519D01*
X302260D01*
X291530Y2723384D01*
X282434Y2717306D01*
X222783Y2657655D01*
X201452Y2666490D01*
X176000Y2669841D01*
X150547Y2666490D01*
X126829Y2656666D01*
X106462Y2641038D01*
X90834Y2620671D01*
X81009Y2596953D01*
X77659Y2571500D01*
X81009Y2546047D01*
X90834Y2522329D01*
X106462Y2501962D01*
X126829Y2486334D01*
X150547Y2476510D01*
X176000Y2473159D01*
X201452Y2476510D01*
X225170Y2486334D01*
X245538Y2501962D01*
X261166Y2522329D01*
X270990Y2546047D01*
X274341Y2571500D01*
X270990Y2596953D01*
X262319Y2617887D01*
X313874Y2669441D01*
X378485D01*
X381011Y2656741D01*
X380829Y2656666D01*
X360462Y2641038D01*
X344834Y2620671D01*
X335009Y2596953D01*
X331659Y2571500D01*
X335009Y2546047D01*
X344834Y2522329D01*
X360462Y2501962D01*
X380829Y2486334D01*
X398201Y2479139D01*
X395674Y2466439D01*
X296900D01*
X286170Y2464304D01*
X277074Y2458226D01*
X222585Y2403737D01*
X201452Y2412490D01*
X176000Y2415841D01*
X150547Y2412490D01*
X126829Y2402666D01*
X106462Y2387038D01*
X90834Y2366671D01*
X81009Y2342953D01*
X77659Y2317500D01*
X81009Y2292047D01*
X90834Y2268329D01*
X106462Y2247962D01*
X126829Y2232334D01*
X150547Y2222510D01*
X176000Y2219159D01*
X201452Y2222510D01*
X225170Y2232334D01*
X245538Y2247962D01*
X261166Y2268329D01*
X270990Y2292047D01*
X274341Y2317500D01*
X270990Y2342953D01*
X262237Y2364085D01*
X308514Y2410361D01*
X332500D01*
Y2220000D01*
X527500D01*
Y2289462D01*
X765560D01*
X776290Y2291596D01*
X785386Y2297674D01*
X860566Y2372854D01*
X866644Y2381950D01*
X868779Y2392680D01*
Y2565400D01*
X866644Y2576130D01*
X860566Y2585226D01*
X835966Y2609826D01*
X826870Y2615904D01*
X816140Y2618039D01*
X780000D01*
Y2692500D01*
X741718D01*
X736458Y2705200D01*
X773757Y2742500D01*
X824500D01*
Y2743725D01*
X828907Y2745468D01*
X837200Y2747843D01*
X848360Y2745623D01*
X861041Y2748146D01*
X871791Y2755329D01*
X878974Y2766079D01*
X881497Y2778760D01*
X878974Y2791441D01*
X871791Y2802191D01*
X861041Y2809374D01*
X848360Y2811897D01*
X837200Y2809677D01*
X828907Y2812052D01*
X824500Y2813795D01*
Y2837500D01*
X730500D01*
Y2785758D01*
X674331Y2729589D01*
X667701Y2719665D01*
X665372Y2707960D01*
X665372Y2707959D01*
Y2692500D01*
X610000D01*
Y2666804D01*
X597404Y2665030D01*
X591326Y2674126D01*
X548146Y2717306D01*
X539050Y2723384D01*
X528320Y2725519D01*
X476590D01*
X474063Y2738219D01*
X479170Y2740334D01*
X499538Y2755962D01*
X515166Y2776329D01*
X524990Y2800047D01*
X528341Y2825500D01*
X525659Y2845875D01*
X847075Y3167290D01*
X1645920D01*
X1655675Y3169231D01*
X1663944Y3174756D01*
X1852024Y3362836D01*
X1857549Y3371106D01*
X1859490Y3380860D01*
Y3515050D01*
X1884000D01*
Y3722550D01*
D02*
G37*
G36*
X777140Y2905850D02*
X723900D01*
X714146Y2903909D01*
X705876Y2898384D01*
X700351Y2890114D01*
X698410Y2880360D01*
X700351Y2870606D01*
X705876Y2862336D01*
X714146Y2856811D01*
X723900Y2854870D01*
X775691D01*
X777500Y2854510D01*
X787254Y2856451D01*
X795524Y2861976D01*
X801049Y2870245D01*
X802990Y2880000D01*
X801049Y2889754D01*
X795524Y2898024D01*
X795164Y2898384D01*
X786895Y2903909D01*
X777140Y2905850D01*
D02*
G37*
G36*
X1579880Y3126857D02*
X1567199Y3124334D01*
X1556449Y3117151D01*
X1549266Y3106401D01*
X1546743Y3093720D01*
X1549266Y3081039D01*
X1554510Y3073191D01*
Y3014950D01*
X1530000D01*
Y2807450D01*
X1630000D01*
Y3014950D01*
X1605490D01*
Y3073549D01*
X1610494Y3081039D01*
X1613017Y3093720D01*
X1610494Y3106401D01*
X1603311Y3117151D01*
X1592561Y3124334D01*
X1579880Y3126857D01*
D02*
G37*
G36*
X1196340Y3086217D02*
X1183659Y3083694D01*
X1172909Y3076511D01*
X1165726Y3065761D01*
X1163203Y3053080D01*
X1165726Y3040399D01*
X1172909Y3029649D01*
X1173510Y3029247D01*
Y3014950D01*
X1149000D01*
Y2807450D01*
X1249000D01*
Y2885711D01*
X1276000D01*
Y2807450D01*
X1376000D01*
Y3014950D01*
X1276000D01*
Y2936690D01*
X1249000D01*
Y3014950D01*
X1224490D01*
Y3036711D01*
X1226954Y3040399D01*
X1229477Y3053080D01*
X1226954Y3065761D01*
X1219771Y3076511D01*
X1209021Y3083694D01*
X1196340Y3086217D01*
D02*
G37*
G36*
X1961000Y2936690D02*
X1951246Y2934750D01*
X1942976Y2929224D01*
X1937451Y2920955D01*
X1935510Y2911200D01*
Y2786983D01*
X1935390Y2786380D01*
X1937331Y2776625D01*
X1942856Y2768356D01*
X1951125Y2762831D01*
X1960880Y2760890D01*
X1970635Y2762831D01*
X1978904Y2768356D01*
X1979024Y2768476D01*
X1984549Y2776746D01*
X1986490Y2786500D01*
Y2911200D01*
X1984549Y2920955D01*
X1979024Y2929224D01*
X1970754Y2934750D01*
X1961000Y2936690D01*
D02*
G37*
G36*
X1884000Y3014950D02*
X1784000D01*
Y2807450D01*
X1810930D01*
Y2794030D01*
X1805806Y2786361D01*
X1803283Y2773680D01*
X1805806Y2760999D01*
X1812989Y2750249D01*
X1823739Y2743066D01*
X1836420Y2740543D01*
X1849101Y2743066D01*
X1859851Y2750249D01*
X1867034Y2760999D01*
X1869557Y2773680D01*
X1867034Y2786361D01*
X1861910Y2794030D01*
Y2807450D01*
X1884000D01*
Y3014950D01*
D02*
G37*
G36*
X1757000D02*
X1657000D01*
Y2807450D01*
X1676310D01*
Y2783870D01*
X1671186Y2776201D01*
X1668663Y2763520D01*
X1671186Y2750839D01*
X1678369Y2740089D01*
X1689119Y2732906D01*
X1701800Y2730383D01*
X1714481Y2732906D01*
X1725231Y2740089D01*
X1732414Y2750839D01*
X1734937Y2763520D01*
X1732414Y2776201D01*
X1727290Y2783870D01*
Y2807450D01*
X1757000D01*
Y3014950D01*
D02*
G37*
G36*
X176000Y2923841D02*
X150547Y2920490D01*
X126829Y2910666D01*
X106462Y2895038D01*
X90834Y2874671D01*
X81009Y2850953D01*
X77659Y2825500D01*
X81009Y2800047D01*
X90834Y2776329D01*
X106462Y2755962D01*
X126829Y2740334D01*
X150547Y2730510D01*
X176000Y2727159D01*
X201452Y2730510D01*
X225170Y2740334D01*
X245538Y2755962D01*
X261166Y2776329D01*
X270990Y2800047D01*
X274341Y2825500D01*
X270990Y2850953D01*
X261166Y2874671D01*
X245538Y2895038D01*
X225170Y2910666D01*
X201452Y2920490D01*
X176000Y2923841D01*
D02*
G37*
G36*
X1503000Y3014950D02*
X1403000D01*
Y2807450D01*
X1429930D01*
Y2710210D01*
X1424806Y2702541D01*
X1422283Y2689860D01*
X1424806Y2677179D01*
X1431989Y2666429D01*
X1442739Y2659246D01*
X1455420Y2656723D01*
X1468101Y2659246D01*
X1478851Y2666429D01*
X1486034Y2677179D01*
X1488557Y2689860D01*
X1486034Y2702541D01*
X1480910Y2710210D01*
Y2807450D01*
X1503000D01*
Y3014950D01*
D02*
G37*
G36*
X5066740Y2613750D02*
X5011420D01*
X5001666Y2611809D01*
X4993396Y2606284D01*
X4987871Y2598014D01*
X4985930Y2588260D01*
X4987871Y2578506D01*
X4993396Y2570236D01*
X5001666Y2564711D01*
X5011420Y2562770D01*
X5058271D01*
X5060245Y2561451D01*
X5070000Y2559511D01*
X5079755Y2561451D01*
X5088024Y2566976D01*
X5093549Y2575246D01*
X5095490Y2585000D01*
X5093549Y2594755D01*
X5088024Y2603024D01*
X5084764Y2606284D01*
X5076495Y2611809D01*
X5066740Y2613750D01*
D02*
G37*
G36*
X1220000Y2692500D02*
X1050000D01*
Y2617500D01*
X1108492D01*
X1111162Y2614517D01*
X1114822Y2604800D01*
X1111451Y2599755D01*
X1109510Y2590000D01*
X1111451Y2580246D01*
X1114822Y2575200D01*
X1110754Y2564397D01*
X1109196Y2562500D01*
X1050000D01*
Y2487500D01*
X1109196D01*
X1110753Y2485604D01*
X1114822Y2474800D01*
X1111451Y2469755D01*
X1109510Y2460000D01*
X1111451Y2450246D01*
X1116976Y2441976D01*
X1118256Y2440696D01*
X1126526Y2435171D01*
X1136280Y2433230D01*
X1229360D01*
X1239114Y2435171D01*
X1247384Y2440696D01*
X1252909Y2448966D01*
X1254850Y2458720D01*
X1252909Y2468474D01*
X1247384Y2476744D01*
X1239114Y2482269D01*
X1231187Y2483846D01*
X1228822Y2484619D01*
X1220000Y2491321D01*
X1220000Y2496910D01*
X1220000Y2562500D01*
X1231536Y2565310D01*
X1231900D01*
X1241654Y2567251D01*
X1249924Y2572776D01*
X1255449Y2581046D01*
X1257390Y2590800D01*
X1255449Y2600554D01*
X1249924Y2608824D01*
X1241654Y2614349D01*
X1232176Y2616235D01*
X1231900Y2616290D01*
X1229856Y2616858D01*
X1228389Y2630448D01*
X1228980Y2631040D01*
X1261915D01*
X1306397Y2586557D01*
X1314171Y2581364D01*
X1323340Y2579540D01*
X1553618D01*
X1558878Y2566840D01*
X1501019Y2508981D01*
X1496264Y2497500D01*
Y2307500D01*
X1501019Y2296020D01*
X1562500Y2234539D01*
Y2047500D01*
X1652500D01*
Y2234539D01*
X1713981Y2296020D01*
X1718736Y2307500D01*
Y2497500D01*
X1713981Y2508981D01*
X1656122Y2566840D01*
X1661382Y2579540D01*
X2321795D01*
X2354649Y2546686D01*
X2356986Y2534939D01*
X2364169Y2524189D01*
X2374919Y2517006D01*
X2387600Y2514483D01*
X2400281Y2517006D01*
X2411031Y2524189D01*
X2418214Y2534939D01*
X2420737Y2547620D01*
X2418214Y2560301D01*
X2411031Y2571051D01*
X2400281Y2578234D01*
X2388534Y2580571D01*
X2348663Y2620443D01*
X2340889Y2625636D01*
X2331720Y2627460D01*
X1333265D01*
X1288783Y2671943D01*
X1281009Y2677136D01*
X1271840Y2678960D01*
X1220000D01*
Y2692500D01*
D02*
G37*
G36*
X2934993Y2532505D02*
X2824993D01*
Y2511936D01*
X2775006D01*
Y2529995D01*
X2665006D01*
Y2419995D01*
X2775006D01*
Y2440565D01*
X2824993D01*
Y2422506D01*
X2934993D01*
Y2532505D01*
D02*
G37*
G36*
X3100000Y2465490D02*
X3090246Y2463549D01*
X3081976Y2458024D01*
X3076451Y2449754D01*
X3074510Y2440000D01*
Y2415490D01*
X3025490D01*
Y2432500D01*
X3023549Y2442254D01*
X3018024Y2450524D01*
X3009754Y2456049D01*
X3000000Y2457990D01*
X2990246Y2456049D01*
X2981976Y2450524D01*
X2976451Y2442254D01*
X2974510Y2432500D01*
Y2392500D01*
X2976451Y2382745D01*
X2981976Y2374476D01*
X2984476Y2371976D01*
X2992745Y2366451D01*
X3002499Y2364511D01*
X3099999D01*
X3109754Y2366451D01*
X3118023Y2371976D01*
X3118024Y2371977D01*
X3123549Y2380246D01*
X3125490Y2390001D01*
Y2440000D01*
X3123549Y2449754D01*
X3118024Y2458024D01*
X3109754Y2463549D01*
X3100000Y2465490D01*
D02*
G37*
G36*
X2595000D02*
X2585246Y2463549D01*
X2576976Y2458024D01*
X2571451Y2449754D01*
X2569510Y2440000D01*
Y2410490D01*
X2525490D01*
Y2437500D01*
X2523549Y2447254D01*
X2518024Y2455524D01*
X2509754Y2461049D01*
X2500000Y2462990D01*
X2490246Y2461049D01*
X2481976Y2455524D01*
X2476451Y2447254D01*
X2474510Y2437500D01*
Y2385003D01*
X2474510Y2385001D01*
X2476450Y2375246D01*
X2481976Y2366977D01*
X2490245Y2361451D01*
X2500000Y2359511D01*
X2595000D01*
X2604754Y2361451D01*
X2613023Y2366977D01*
X2613024D01*
X2618549Y2375246D01*
X2620490Y2385001D01*
Y2440000D01*
X2618549Y2449754D01*
X2613024Y2458024D01*
X2604754Y2463549D01*
X2595000Y2465490D01*
D02*
G37*
G36*
X5479500Y2405490D02*
X5469745Y2403549D01*
X5461476Y2398024D01*
X5455951Y2389755D01*
X5454010Y2380000D01*
X5455951Y2370245D01*
X5461476Y2361976D01*
X5461496Y2361956D01*
X5469766Y2356431D01*
X5479520Y2354490D01*
X5593080D01*
X5602834Y2356431D01*
X5611104Y2361956D01*
X5616629Y2370226D01*
X5618570Y2379980D01*
X5616629Y2389734D01*
X5611104Y2398004D01*
X5602834Y2403529D01*
X5593080Y2405470D01*
X5479601D01*
X5479500Y2405490D01*
D02*
G37*
G36*
X2775006Y2354995D02*
X2665006D01*
Y2333184D01*
X2642000D01*
Y2342501D01*
X2548000D01*
Y2342501D01*
X2546999D01*
Y2342501D01*
X2453000D01*
Y2247501D01*
X2546999D01*
Y2247500D01*
X2548000D01*
Y2247501D01*
X2642000D01*
Y2261812D01*
X2665006D01*
Y2244996D01*
X2684320D01*
Y1962628D01*
X2639879Y1918186D01*
X2589499D01*
Y1973500D01*
Y2047500D01*
X2407499D01*
Y2042490D01*
X2389499D01*
Y2100001D01*
X2295500D01*
Y2100001D01*
X2289499D01*
Y2100001D01*
X2195500D01*
Y2005001D01*
X2217010D01*
Y1972000D01*
X2197500D01*
Y1950490D01*
X2168840D01*
X2159086Y1948550D01*
X2150817Y1943024D01*
X2128276Y1920484D01*
X2122751Y1912215D01*
X2120810Y1902460D01*
Y1757500D01*
X2118000D01*
Y1645490D01*
X2090559D01*
X2072506Y1663543D01*
Y1737495D01*
X1962506D01*
Y1627495D01*
X2036458D01*
X2061977Y1601976D01*
X2070246Y1596451D01*
X2080001Y1594511D01*
X2118000D01*
Y1572501D01*
X2211999D01*
Y1572500D01*
X2213000D01*
Y1572501D01*
X2246738D01*
X2247211Y1570125D01*
X2252736Y1561856D01*
X2270116Y1544477D01*
X2278385Y1538951D01*
X2288139Y1537011D01*
X2407499D01*
Y1525501D01*
X2472362D01*
X2473144Y1524634D01*
X2477987Y1512801D01*
X2474950Y1508255D01*
X2473010Y1498500D01*
X2474950Y1488746D01*
X2477987Y1484200D01*
X2473144Y1472366D01*
X2472361Y1471500D01*
X2407499D01*
Y1397501D01*
X2457613D01*
X2460768Y1393829D01*
X2465668Y1384800D01*
X2463683Y1374821D01*
X2463708Y1374701D01*
X2453285Y1362000D01*
X2447499D01*
Y1268001D01*
X2542499D01*
Y1362000D01*
X2540355D01*
X2529932Y1374701D01*
X2529957Y1374821D01*
X2527972Y1384800D01*
X2534865Y1397501D01*
X2589499D01*
X2589499Y1471500D01*
X2601574Y1473011D01*
X2602470D01*
X2607500Y1472010D01*
X2617255Y1473951D01*
X2625524Y1479476D01*
X2631049Y1487745D01*
X2632990Y1497500D01*
X2631049Y1507254D01*
X2625524Y1515524D01*
X2624523Y1516524D01*
X2616254Y1522050D01*
X2606499Y1523990D01*
X2601573D01*
X2589499Y1525501D01*
X2589499Y1536690D01*
Y1589501D01*
X2589499Y1663500D01*
X2601573Y1665011D01*
X2613001D01*
X2622755Y1666951D01*
X2631024Y1672477D01*
X2633024Y1674476D01*
X2638549Y1682746D01*
X2640490Y1692500D01*
X2638549Y1702255D01*
X2633024Y1710524D01*
X2624755Y1716049D01*
X2615000Y1717990D01*
X2605246Y1716049D01*
X2605157Y1715990D01*
X2601574D01*
X2589499Y1717501D01*
X2589499Y1728690D01*
Y1846815D01*
X2654660D01*
X2668317Y1849531D01*
X2679894Y1857267D01*
X2745240Y1922612D01*
X2752975Y1934190D01*
X2755692Y1947846D01*
Y2244996D01*
X2775006D01*
Y2354995D01*
D02*
G37*
G36*
X1917500Y2392990D02*
X1907746Y2391049D01*
X1899476Y2385524D01*
X1893951Y2377254D01*
X1892010Y2367500D01*
Y2297500D01*
X1893951Y2287745D01*
X1899476Y2279476D01*
X1906976Y2271976D01*
X1915245Y2266451D01*
X1925000Y2264511D01*
X1934754Y2266451D01*
X1943024Y2271976D01*
X1948549Y2280246D01*
X1950489Y2290000D01*
X1948549Y2299755D01*
X1943024Y2308024D01*
X1942990Y2308058D01*
Y2367500D01*
X1941049Y2377254D01*
X1935524Y2385524D01*
X1927254Y2391049D01*
X1917500Y2392990D01*
D02*
G37*
G36*
X2115000Y2390490D02*
X2105246Y2388549D01*
X2096976Y2383024D01*
X2091451Y2374754D01*
X2089510Y2365000D01*
Y2290000D01*
X2091451Y2280246D01*
X2096976Y2271976D01*
X2105246Y2266451D01*
X2115000Y2264510D01*
X2124754Y2266451D01*
X2133024Y2271976D01*
X2138549Y2280246D01*
X2140490Y2290000D01*
Y2365000D01*
X2138549Y2374754D01*
X2133024Y2383024D01*
X2124754Y2388549D01*
X2115000Y2390490D01*
D02*
G37*
G36*
X1052500Y2241490D02*
X1042745Y2239549D01*
X1040411Y2237990D01*
X972500D01*
X962746Y2236049D01*
X954476Y2230524D01*
X948951Y2222254D01*
X947010Y2212500D01*
X948951Y2202746D01*
X954476Y2194476D01*
X962746Y2188951D01*
X972500Y2187010D01*
X1049000D01*
X1058755Y2188951D01*
X1067024Y2194476D01*
X1070524Y2197976D01*
X1076049Y2206246D01*
X1077990Y2216000D01*
X1076049Y2225755D01*
X1070524Y2234024D01*
X1062255Y2239549D01*
X1052500Y2241490D01*
D02*
G37*
G36*
X1502500Y2217500D02*
X1412500D01*
Y2145490D01*
X1332500D01*
Y2167500D01*
X1192500D01*
Y2072500D01*
X1249510D01*
Y1717500D01*
X1251450Y1707746D01*
X1256976Y1699476D01*
X1265245Y1693951D01*
X1275000Y1692010D01*
X1284754Y1693951D01*
X1293024Y1699476D01*
X1306976D01*
X1315246Y1693951D01*
X1325000Y1692010D01*
X1334754Y1693951D01*
X1335487Y1694440D01*
X1343679Y1688966D01*
X1356360Y1686443D01*
X1369041Y1688966D01*
X1379791Y1696149D01*
X1386974Y1706899D01*
X1389497Y1719580D01*
X1386974Y1732261D01*
X1379791Y1743011D01*
X1369041Y1750194D01*
X1356360Y1752717D01*
X1343679Y1750194D01*
X1332929Y1743011D01*
X1331986Y1741600D01*
X1325000Y1742990D01*
X1315246Y1741049D01*
X1313189Y1739675D01*
X1300489Y1746464D01*
Y2072500D01*
X1332500D01*
Y2094510D01*
X1412500D01*
Y2047500D01*
X1502500D01*
Y2217500D01*
D02*
G37*
G36*
X2342500Y2167990D02*
X2242499D01*
X2232745Y2166050D01*
X2231907Y2165490D01*
X2182500D01*
X2172746Y2163549D01*
X2164476Y2158024D01*
X2158951Y2149754D01*
X2157010Y2140000D01*
X2158951Y2130246D01*
X2164476Y2121976D01*
X2172746Y2116451D01*
X2182500Y2114510D01*
X2239999D01*
X2249754Y2116451D01*
X2250592Y2117011D01*
X2334407D01*
X2335246Y2116451D01*
X2345000Y2114510D01*
X2400000D01*
X2409754Y2116451D01*
X2418024Y2121976D01*
X2423549Y2130246D01*
X2425490Y2140000D01*
X2423549Y2149754D01*
X2418024Y2158024D01*
X2409754Y2163549D01*
X2400000Y2165490D01*
X2353092D01*
X2352254Y2166050D01*
X2342500Y2167990D01*
D02*
G37*
G36*
X5479500Y2165490D02*
X5469745Y2163549D01*
X5461476Y2158024D01*
X5455951Y2149755D01*
X5454010Y2140000D01*
X5455951Y2130245D01*
X5461476Y2121976D01*
X5462796Y2120656D01*
X5471066Y2115131D01*
X5480820Y2113190D01*
X5595620D01*
X5605374Y2115131D01*
X5613644Y2120656D01*
X5619169Y2128926D01*
X5621110Y2138680D01*
X5619169Y2148434D01*
X5613644Y2156704D01*
X5605374Y2162229D01*
X5595620Y2164170D01*
X5486136D01*
X5479500Y2165490D01*
D02*
G37*
G36*
X2934993Y2357506D02*
X2824993D01*
Y2247506D01*
X2934993D01*
Y2265567D01*
X2955500D01*
Y2252500D01*
X3049499D01*
Y2252500D01*
X3053000D01*
Y2252500D01*
X3146999D01*
Y2264315D01*
X3260518D01*
X3293374Y2231459D01*
Y2037720D01*
X3285361Y2029708D01*
X3280674Y2028740D01*
X3269060D01*
X3266360Y2028740D01*
X3175320D01*
X3169060Y2028740D01*
X3157030Y2030358D01*
X3152254Y2033549D01*
X3142500Y2035490D01*
X3044015D01*
X3041499Y2035990D01*
X3031745Y2034050D01*
X3023476Y2028524D01*
X3017950Y2020255D01*
X3016010Y2010500D01*
X3017950Y2000746D01*
X3020987Y1996200D01*
X3016687Y1985692D01*
X3014493Y1983500D01*
X2950500D01*
Y1909501D01*
X2950499Y1845501D01*
X2938425Y1843990D01*
X2930038D01*
X2922500Y1845490D01*
X2912746Y1843549D01*
X2904476Y1838024D01*
X2898951Y1829755D01*
X2897010Y1820000D01*
X2898951Y1810245D01*
X2904476Y1801976D01*
X2905976Y1800477D01*
X2914245Y1794951D01*
X2923999Y1793011D01*
X2938425D01*
X2950499Y1791500D01*
X2950500Y1780311D01*
Y1653501D01*
Y1589501D01*
Y1525501D01*
Y1461501D01*
Y1397501D01*
X3014461D01*
Y1362500D01*
X2995499D01*
Y1343039D01*
X2972999D01*
X2962269Y1340905D01*
X2953173Y1334827D01*
X2887673Y1269327D01*
X2881595Y1260230D01*
X2879461Y1249500D01*
Y1213742D01*
X2874719Y1211778D01*
X2861141Y1201359D01*
X2850722Y1187781D01*
X2844173Y1171969D01*
X2841939Y1155000D01*
X2844173Y1138032D01*
X2850722Y1122220D01*
X2861141Y1108642D01*
X2874719Y1098223D01*
X2890531Y1091674D01*
X2907499Y1089440D01*
X2924468Y1091674D01*
X2940280Y1098223D01*
X2953858Y1108642D01*
X2964277Y1122220D01*
X2970826Y1138032D01*
X2973060Y1155000D01*
X2970826Y1171969D01*
X2964277Y1187781D01*
X2953858Y1201359D01*
X2940280Y1211778D01*
X2935538Y1213742D01*
Y1237887D01*
X2982799Y1285148D01*
X2995499Y1282583D01*
Y1267500D01*
X3089499D01*
Y1272507D01*
X3090000Y1285000D01*
X3180000D01*
X3183880Y1282740D01*
Y1282740D01*
X3277880D01*
Y1349394D01*
X3290580Y1356111D01*
X3294510Y1353434D01*
Y1347500D01*
X3295000Y1345038D01*
Y1277500D01*
X3385000D01*
Y1377500D01*
X3344431D01*
X3343549Y1381935D01*
X3338024Y1390204D01*
X3304141Y1424087D01*
X3309002Y1435820D01*
X3366360D01*
Y1524720D01*
X3368900D01*
Y1614720D01*
X3271600D01*
X3268900Y1614720D01*
Y1614720D01*
X3258900D01*
Y1614720D01*
X3194948D01*
X3185887Y1623780D01*
X3191148Y1636480D01*
X3253660D01*
X3256360Y1636480D01*
X3266360D01*
X3269060Y1636480D01*
X3366360D01*
Y1655990D01*
X3379680D01*
Y1629400D01*
X3564680D01*
X3567500Y1617868D01*
Y1542500D01*
X3742500D01*
Y1692500D01*
X3612957D01*
X3610000Y1693088D01*
X3609998Y1693088D01*
X3564680D01*
Y1707432D01*
X3564810Y1712550D01*
X3574237Y1720000D01*
X3576008Y1720000D01*
X3715000D01*
Y1895000D01*
X3565000D01*
Y1858665D01*
X3562500Y1847000D01*
X3391636D01*
X3379060Y1847300D01*
X3379060Y1857508D01*
Y1937299D01*
X3379060D01*
Y1938741D01*
X3379060D01*
Y2028740D01*
X3364746D01*
Y2246240D01*
X3362029Y2259896D01*
X3354294Y2271474D01*
X3300533Y2325234D01*
X3288956Y2332970D01*
X3275300Y2335686D01*
X3146999D01*
Y2347501D01*
X3053000D01*
Y2347501D01*
X3049499D01*
Y2347501D01*
X2955500D01*
Y2336939D01*
X2934993D01*
Y2357506D01*
D02*
G37*
G36*
X4012500Y2060490D02*
X4002746Y2058549D01*
X3994476Y2053024D01*
X3988951Y2044754D01*
X3987010Y2035000D01*
Y1987500D01*
X3988951Y1977746D01*
X3994476Y1969477D01*
X3996977Y1966976D01*
X4005246Y1961450D01*
X4015001Y1959510D01*
X4024755Y1961450D01*
X4033024Y1966976D01*
X4038550Y1975245D01*
X4040490Y1985000D01*
X4038550Y1994754D01*
X4037990Y1995593D01*
Y2035000D01*
X4036049Y2044754D01*
X4030524Y2053024D01*
X4022254Y2058549D01*
X4012500Y2060490D01*
D02*
G37*
G36*
X1052500Y2049490D02*
X1042746Y2047549D01*
X1034476Y2042024D01*
X1028951Y2033754D01*
X1027010Y2024000D01*
Y1962500D01*
X1028951Y1952746D01*
X1034476Y1944476D01*
X1042746Y1938951D01*
X1052500Y1937010D01*
X1062254Y1938951D01*
X1070524Y1944476D01*
X1076049Y1952746D01*
X1077990Y1962500D01*
Y2024000D01*
X1076049Y2033754D01*
X1070524Y2042024D01*
X1062254Y2047549D01*
X1052500Y2049490D01*
D02*
G37*
G36*
X4300000Y2175490D02*
X4290245Y2173549D01*
X4281976Y2168024D01*
X4276451Y2159755D01*
X4274510Y2150000D01*
X4274511Y2149999D01*
Y2082500D01*
X4276451Y2072746D01*
X4281976Y2064476D01*
X4287785Y2060595D01*
X4288076Y2060216D01*
X4290418Y2050552D01*
X4290513Y2045949D01*
X4276379Y2031815D01*
X4271406Y2024372D01*
X4271157Y2023120D01*
X4245820D01*
Y1941723D01*
X4245820Y1939178D01*
X4234202Y1928040D01*
X4230411Y1928101D01*
X4173186Y1985326D01*
X4164090Y1991404D01*
X4153360Y1993538D01*
X4152499D01*
Y2032000D01*
X4146570D01*
X4140317Y2039620D01*
X4137794Y2052301D01*
X4130611Y2063051D01*
X4119861Y2070234D01*
X4107180Y2072757D01*
X4094499Y2070234D01*
X4083749Y2063051D01*
X4076566Y2052301D01*
X4074043Y2039620D01*
X4067790Y2032000D01*
X4057499D01*
Y1938000D01*
X4046248Y1934500D01*
X3967500D01*
Y1840500D01*
X4045214D01*
X4057500Y1839499D01*
Y1745500D01*
X4076961D01*
Y1726114D01*
X4057847Y1707000D01*
X4002500D01*
Y1613000D01*
X4097500D01*
Y1613000D01*
X4108109Y1618048D01*
X4119861Y1620386D01*
X4130611Y1627569D01*
X4137794Y1638319D01*
X4140317Y1651000D01*
X4139824Y1654110D01*
X4139825Y1654110D01*
X4139825Y1654110D01*
X4151670Y1659016D01*
X4151971Y1658567D01*
X4157409Y1650429D01*
X4168159Y1643246D01*
X4179444Y1641001D01*
X4180888Y1640657D01*
X4189103Y1629418D01*
X4188343Y1625600D01*
X4190866Y1612919D01*
X4196665Y1604240D01*
X4196099Y1602874D01*
X4185349Y1595691D01*
X4178166Y1584941D01*
X4175643Y1572260D01*
X4178166Y1559579D01*
X4185349Y1548829D01*
X4185971Y1548413D01*
X4193406Y1536680D01*
X4190883Y1524000D01*
X4193406Y1511319D01*
X4200589Y1500569D01*
X4211339Y1493386D01*
X4224020Y1490863D01*
X4232500Y1483904D01*
Y1400490D01*
X4218478D01*
X4160944Y1458024D01*
X4152674Y1463550D01*
X4142920Y1465490D01*
X4099500D01*
Y1496942D01*
X4107161Y1498466D01*
X4117911Y1505649D01*
X4125094Y1516399D01*
X4127617Y1529080D01*
X4125094Y1541761D01*
X4117911Y1552511D01*
X4107161Y1559694D01*
X4099500Y1561218D01*
Y1577500D01*
X4005500D01*
Y1562990D01*
X3987500D01*
Y1582500D01*
X3890200D01*
X3887500Y1582500D01*
X3877500D01*
X3874799Y1582500D01*
X3852990D01*
Y1720000D01*
X3885000D01*
Y1895000D01*
X3735000D01*
Y1720000D01*
X3802010D01*
Y1582500D01*
X3777500D01*
Y1495200D01*
X3777500Y1492500D01*
X3777500Y1485690D01*
X3772853Y1478026D01*
X3767621Y1472990D01*
X3742500D01*
Y1522500D01*
X3567500D01*
Y1372500D01*
X3742500D01*
Y1422010D01*
X3777500D01*
Y1392500D01*
X3874800D01*
X3877500Y1392500D01*
X3887500D01*
X3890200Y1392500D01*
X3987500D01*
Y1412010D01*
X4005500D01*
Y1392500D01*
X4099500D01*
Y1414511D01*
X4132362D01*
X4185410Y1361462D01*
X4188087Y1351078D01*
X4186008Y1344300D01*
X4181586Y1337681D01*
X4179063Y1325000D01*
X4181586Y1312319D01*
X4188769Y1301569D01*
X4199519Y1294386D01*
X4212200Y1291864D01*
X4220422Y1293499D01*
X4232500Y1295000D01*
X4232500Y1295000D01*
X4232500Y1295000D01*
X4330000D01*
Y1197501D01*
X4340018D01*
X4340500Y1185000D01*
X4340500D01*
Y1090000D01*
X4434500D01*
Y1095711D01*
X4442460Y1102243D01*
X4455141Y1104766D01*
X4465891Y1111949D01*
X4473074Y1122699D01*
X4475597Y1135380D01*
X4473074Y1148061D01*
X4465891Y1158811D01*
X4455141Y1165994D01*
X4442460Y1168517D01*
X4435039Y1174607D01*
Y1184266D01*
X4435539Y1186780D01*
Y1197500D01*
X4670017D01*
X4670500Y1185000D01*
X4670500D01*
Y1171031D01*
X4660683Y1162975D01*
X4658360Y1163437D01*
X4645679Y1160914D01*
X4634929Y1153731D01*
X4627746Y1142981D01*
X4625223Y1130300D01*
X4627746Y1117619D01*
X4634929Y1106869D01*
X4645679Y1099686D01*
X4658360Y1097163D01*
X4661106Y1097710D01*
X4670500Y1090000D01*
Y1090000D01*
X4764500D01*
Y1109462D01*
X4807186D01*
X4869461Y1047186D01*
Y932500D01*
X4850500D01*
Y837500D01*
X4944500D01*
Y840614D01*
X4952500Y850000D01*
X5097500D01*
Y940000D01*
X4952500D01*
Y940000D01*
X4944500Y932500D01*
X4925539D01*
Y1058800D01*
X4923404Y1069530D01*
X4917326Y1078626D01*
X4838626Y1157326D01*
X4829530Y1163404D01*
X4818800Y1165539D01*
X4764500D01*
Y1185000D01*
X4764500D01*
X4764983Y1197500D01*
X4780000D01*
Y1197500D01*
X4840000D01*
Y1295000D01*
X4928955D01*
X4940300Y1292743D01*
X4952981Y1295266D01*
X4963731Y1302449D01*
X4970914Y1313199D01*
X4973437Y1325880D01*
X4971751Y1334355D01*
X4975170Y1337881D01*
X4982786Y1341913D01*
X4988806Y1337891D01*
X4998560Y1335950D01*
X5067300D01*
X5077054Y1337891D01*
X5085324Y1343416D01*
X5100166Y1344362D01*
X5105310Y1340000D01*
Y1265000D01*
X5085000D01*
Y1175000D01*
X5129461D01*
X5131596Y1164270D01*
X5137674Y1155174D01*
X5202500Y1090348D01*
Y1040000D01*
X5347500D01*
Y1130000D01*
X5242153D01*
X5185539Y1186614D01*
Y1202500D01*
X5185000Y1205209D01*
Y1265000D01*
X5156290D01*
Y1346170D01*
X5161414Y1353839D01*
X5163937Y1366520D01*
X5161414Y1379201D01*
X5154231Y1389951D01*
X5143481Y1397134D01*
X5130800Y1399657D01*
X5118119Y1397134D01*
X5107369Y1389951D01*
X5100186Y1379201D01*
X5086838Y1377197D01*
X5085324Y1379464D01*
X5077054Y1384989D01*
X5067300Y1386930D01*
X5002830D01*
X4997500Y1387990D01*
X4987746Y1386050D01*
X4984439Y1387247D01*
X4982627Y1391960D01*
X4991351Y1404660D01*
X5060960D01*
Y1410706D01*
X5073660Y1420499D01*
X5077460Y1419743D01*
X5090141Y1422266D01*
X5100891Y1429449D01*
X5108074Y1440199D01*
X5110597Y1452880D01*
X5108074Y1465561D01*
X5100891Y1476311D01*
X5090141Y1483494D01*
X5077460Y1486017D01*
X5073660Y1485261D01*
X5060960Y1495054D01*
Y1499660D01*
X4982417D01*
X4978000Y1500539D01*
X4948621D01*
X4948620Y1500539D01*
X4937500D01*
Y1595000D01*
Y1677189D01*
X4948000Y1682500D01*
X5042000D01*
Y1691640D01*
X5051817Y1699697D01*
X5054600Y1699143D01*
X5067281Y1701666D01*
X5078031Y1708849D01*
X5085214Y1719599D01*
X5087737Y1732280D01*
X5085214Y1744961D01*
X5078031Y1755711D01*
X5067281Y1762894D01*
X5054600Y1765417D01*
X5051817Y1764863D01*
X5042000Y1772920D01*
Y1777500D01*
X4948000D01*
X4937500Y1782812D01*
Y1805000D01*
X4914404D01*
X4907616Y1817700D01*
X4909954Y1821199D01*
X4912477Y1833880D01*
X4909954Y1846561D01*
X4902771Y1857311D01*
X4892021Y1864494D01*
X4879340Y1867017D01*
X4866659Y1864494D01*
X4855909Y1857311D01*
X4852700Y1852508D01*
X4840000Y1856361D01*
Y1902500D01*
X4838110D01*
Y1957293D01*
X4843914Y1965979D01*
X4846437Y1978660D01*
X4843914Y1991341D01*
X4836731Y2002091D01*
X4825981Y2009274D01*
X4813300Y2011797D01*
X4800619Y2009274D01*
X4789869Y2002091D01*
X4782686Y1991341D01*
X4780163Y1978660D01*
X4782686Y1965979D01*
X4787130Y1959328D01*
Y1956993D01*
X4774430Y1947439D01*
X4770120Y1948297D01*
X4769700Y1948213D01*
X4757000Y1958636D01*
Y2019510D01*
X4767629Y2024510D01*
X4775000D01*
X4784754Y2026451D01*
X4793024Y2031976D01*
X4798549Y2040246D01*
X4800490Y2050000D01*
X4798549Y2059754D01*
X4793024Y2068024D01*
X4784754Y2073549D01*
X4775000Y2075490D01*
X4717500D01*
X4707745Y2073549D01*
X4699476Y2068024D01*
X4691976Y2060524D01*
X4686451Y2052255D01*
X4684510Y2042500D01*
X4686451Y2032745D01*
X4686808Y2032211D01*
X4680020Y2019511D01*
X4663000D01*
Y2005900D01*
X4660900Y2004177D01*
X4648219Y2001654D01*
X4639860Y1996069D01*
X4631210Y1998856D01*
X4627160Y2001694D01*
Y2014140D01*
X4627160Y2016840D01*
X4627160D01*
Y2026840D01*
X4627160D01*
Y2126840D01*
X4580603D01*
X4572862Y2134581D01*
X4565419Y2139554D01*
X4556640Y2141301D01*
X4452620D01*
X4448600Y2140501D01*
X4435900Y2142500D01*
Y2142500D01*
X4435899Y2142500D01*
X4340900D01*
Y2057481D01*
X4328624D01*
X4321836Y2070181D01*
X4323550Y2072746D01*
X4325490Y2082500D01*
Y2150000D01*
X4323550Y2159754D01*
X4318024Y2168024D01*
X4318024D01*
X4309755Y2173549D01*
X4300000Y2175490D01*
D02*
G37*
G36*
X4977500Y2005490D02*
X4967745Y2003549D01*
X4959476Y1998024D01*
X4956976Y1995524D01*
X4951451Y1987255D01*
X4949510Y1977500D01*
Y1925000D01*
X4951451Y1915246D01*
X4956976Y1906976D01*
X4965246Y1901451D01*
X4975000Y1899510D01*
X4984754Y1901451D01*
X4993024Y1906976D01*
X4998549Y1915246D01*
X5000490Y1925000D01*
Y1969408D01*
X5001049Y1970245D01*
X5002990Y1980000D01*
X5001049Y1989755D01*
X4995524Y1998024D01*
X4987255Y2003549D01*
X4977500Y2005490D01*
D02*
G37*
G36*
X5115000Y2027000D02*
X5020000D01*
Y1933000D01*
X5021784D01*
X5032141Y1920300D01*
X5031623Y1917700D01*
X5034146Y1905019D01*
X5041329Y1894269D01*
X5052079Y1887086D01*
X5064760Y1884563D01*
X5077441Y1887086D01*
X5088191Y1894269D01*
X5095374Y1905019D01*
X5097897Y1917700D01*
X5097379Y1920300D01*
X5107736Y1933000D01*
X5115000D01*
Y2027000D01*
D02*
G37*
G36*
X1376680Y1994017D02*
X1363999Y1991494D01*
X1353249Y1984311D01*
X1346066Y1973561D01*
X1343543Y1960880D01*
X1346066Y1948199D01*
X1353249Y1937449D01*
X1363999Y1930266D01*
X1376680Y1927743D01*
X1389361Y1930266D01*
X1397030Y1935390D01*
X1665842D01*
X1687010Y1914222D01*
Y1877500D01*
X1662500D01*
Y1864017D01*
X1649800Y1857035D01*
X1645000Y1857990D01*
X1635246Y1856050D01*
X1626976Y1850524D01*
X1619442Y1842990D01*
X1603964D01*
X1597175Y1855690D01*
X1598549Y1857746D01*
X1600490Y1867500D01*
X1598549Y1877255D01*
X1593024Y1885524D01*
X1584754Y1891050D01*
X1575000Y1892990D01*
X1547500D01*
X1537746Y1891050D01*
X1529476Y1885524D01*
Y1885524D01*
X1523951Y1877255D01*
X1522010Y1867500D01*
X1523951Y1857745D01*
X1525721Y1855096D01*
X1525668Y1854206D01*
X1519655Y1841927D01*
X1515245Y1841049D01*
X1506976Y1835524D01*
X1501450Y1827254D01*
X1499510Y1817500D01*
Y1795000D01*
X1501450Y1785246D01*
X1506976Y1776976D01*
Y1776976D01*
X1515245Y1771451D01*
X1525000Y1769511D01*
X1534754Y1771451D01*
X1536810Y1772824D01*
X1546015Y1768965D01*
X1549767Y1766208D01*
X1551451Y1757746D01*
X1553059Y1755339D01*
X1547729Y1741543D01*
X1545246Y1741049D01*
X1536976Y1735524D01*
X1531451Y1727254D01*
X1529510Y1717500D01*
X1531451Y1707746D01*
X1536976Y1699476D01*
X1545246Y1693951D01*
X1555000Y1692010D01*
X1575000D01*
X1584754Y1693951D01*
X1593024Y1699476D01*
X1598549Y1707746D01*
X1600490Y1717500D01*
X1598549Y1727254D01*
X1593024Y1735524D01*
Y1749477D01*
X1598549Y1757746D01*
X1600490Y1767500D01*
Y1792010D01*
X1630000D01*
X1639755Y1793951D01*
X1648024Y1799476D01*
X1649800Y1801252D01*
X1662500Y1795992D01*
Y1788664D01*
X1662500Y1787500D01*
X1665000Y1775836D01*
X1665000Y1774800D01*
Y1759585D01*
X1656099Y1757814D01*
X1645349Y1750631D01*
X1638166Y1739881D01*
X1635643Y1727200D01*
X1638166Y1714519D01*
X1645349Y1703769D01*
X1656099Y1696586D01*
X1663557Y1695103D01*
X1664999Y1683000D01*
X1665000Y1677000D01*
X1665000D01*
Y1640441D01*
X1585665D01*
X1584754Y1641050D01*
X1575000Y1642990D01*
X1565246Y1641050D01*
X1556976Y1635524D01*
X1551451Y1627255D01*
X1549510Y1617500D01*
X1551451Y1607746D01*
X1556976Y1599476D01*
Y1585524D01*
X1551451Y1577254D01*
X1549510Y1567500D01*
X1551451Y1557746D01*
X1556976Y1549476D01*
Y1535524D01*
X1543023D01*
X1534754Y1541049D01*
X1525000Y1542990D01*
X1502500D01*
X1492746Y1541049D01*
X1484476Y1535524D01*
X1481976Y1533024D01*
X1476451Y1524755D01*
X1474510Y1515000D01*
X1476451Y1505245D01*
X1481976Y1496976D01*
X1490245Y1491451D01*
X1500000Y1489510D01*
X1509755Y1491451D01*
X1510592Y1492010D01*
X1525000D01*
X1534754Y1493951D01*
X1535464Y1494425D01*
X1546714Y1491598D01*
X1549290Y1484381D01*
X1544001Y1476465D01*
X1541672Y1464760D01*
X1541672Y1464759D01*
Y1416134D01*
X1541672Y1416133D01*
X1544001Y1404428D01*
X1550631Y1394504D01*
X1571781Y1373355D01*
X1572126Y1371619D01*
X1574316Y1368341D01*
X1574481Y1367515D01*
X1581111Y1357591D01*
X1609300Y1329402D01*
Y1289040D01*
X1704300D01*
Y1291511D01*
X1717000Y1296772D01*
X1718616Y1295156D01*
X1726886Y1289631D01*
X1736640Y1287690D01*
X1800860D01*
X1810614Y1289631D01*
X1818884Y1295156D01*
X1824409Y1303426D01*
X1826350Y1313180D01*
X1824409Y1322934D01*
X1818884Y1331204D01*
X1810614Y1336729D01*
X1800860Y1338670D01*
X1747198D01*
X1747044Y1338824D01*
X1738775Y1344349D01*
X1729020Y1346290D01*
X1719265Y1344349D01*
X1717000Y1342836D01*
X1704300Y1349624D01*
Y1382500D01*
X1765000D01*
Y1472500D01*
X1697462D01*
X1695000Y1472990D01*
X1689886D01*
X1685996Y1479999D01*
X1693128Y1492500D01*
X1765000D01*
Y1505525D01*
X1767821Y1506086D01*
X1778571Y1513269D01*
X1784310Y1521859D01*
X1794345Y1520758D01*
X1797010Y1519746D01*
Y1482500D01*
X1798951Y1472746D01*
X1804476Y1464476D01*
X1808634Y1461698D01*
X1809858Y1448887D01*
X1809348Y1447109D01*
X1806976Y1445524D01*
X1801451Y1437254D01*
X1799510Y1427500D01*
Y1377500D01*
X1801451Y1367746D01*
X1806976Y1359476D01*
X1815246Y1353951D01*
X1825000Y1352010D01*
X1834754Y1353951D01*
X1843024Y1359476D01*
X1848549Y1367746D01*
X1850490Y1377500D01*
Y1427500D01*
X1848549Y1437254D01*
X1843024Y1445524D01*
X1838866Y1448302D01*
X1837641Y1461113D01*
X1838152Y1462891D01*
X1840524Y1464476D01*
X1846049Y1472746D01*
X1847990Y1482500D01*
Y1526908D01*
X1848549Y1527745D01*
X1850490Y1537500D01*
X1848549Y1547254D01*
X1843024Y1555524D01*
X1834755Y1561049D01*
X1825000Y1562990D01*
X1815246Y1561049D01*
X1806976Y1555524D01*
X1804476Y1553024D01*
X1799469Y1545530D01*
X1796190Y1545125D01*
X1786338Y1546445D01*
X1785754Y1549381D01*
X1778571Y1560131D01*
X1767821Y1567314D01*
X1765000Y1567875D01*
Y1582500D01*
X1760000Y1583000D01*
Y1676999D01*
X1760001D01*
X1760001Y1683000D01*
X1760000D01*
X1760000Y1775836D01*
X1762500Y1787500D01*
X1762500Y1788664D01*
Y1877500D01*
X1737990D01*
Y1924780D01*
X1736049Y1934534D01*
X1730524Y1942804D01*
X1694424Y1978904D01*
X1686155Y1984429D01*
X1676400Y1986370D01*
X1397030D01*
X1389361Y1991494D01*
X1376680Y1994017D01*
D02*
G37*
G36*
X1820000Y1897990D02*
X1810246Y1896049D01*
X1801976Y1890524D01*
X1796451Y1882254D01*
X1794510Y1872500D01*
Y1835000D01*
X1796451Y1825246D01*
X1801976Y1816976D01*
X1804476Y1814476D01*
X1812745Y1808951D01*
X1822500Y1807011D01*
X1832254Y1808951D01*
X1840524Y1814476D01*
X1846049Y1822746D01*
X1847989Y1832500D01*
X1846049Y1842255D01*
X1845490Y1843092D01*
Y1872500D01*
X1843549Y1882254D01*
X1838024Y1890524D01*
X1829754Y1896049D01*
X1820000Y1897990D01*
D02*
G37*
G36*
X1802500Y2217500D02*
X1712500D01*
Y2047500D01*
X1802500D01*
Y2107011D01*
X1975000D01*
Y1992500D01*
X1994510D01*
Y1912495D01*
X1962506D01*
Y1802495D01*
X2072506D01*
Y1912495D01*
X2045490D01*
Y1992500D01*
X2065000D01*
Y2107500D01*
X2046498D01*
X2046049Y2109755D01*
X2040524Y2118024D01*
X2008024Y2150524D01*
X1999754Y2156050D01*
X1990000Y2157990D01*
X1802500D01*
Y2217500D01*
D02*
G37*
G36*
X5234500Y1965489D02*
X5224745Y1963549D01*
X5216476Y1958024D01*
X5206976Y1948524D01*
X5201451Y1940254D01*
X5199510Y1930500D01*
Y1825000D01*
X5201451Y1815246D01*
X5206976Y1806976D01*
X5215246Y1801451D01*
X5225000Y1799510D01*
X5234754Y1801451D01*
X5243024Y1806976D01*
X5248549Y1815246D01*
X5250490Y1825000D01*
Y1919942D01*
X5252524Y1921976D01*
X5258049Y1930245D01*
X5259989Y1940000D01*
X5258049Y1949754D01*
X5252524Y1958024D01*
X5244254Y1963549D01*
X5234500Y1965489D01*
D02*
G37*
G36*
X5050000Y1850490D02*
X5000000D01*
X4990245Y1848549D01*
X4981976Y1843024D01*
X4976976Y1838024D01*
X4971451Y1829755D01*
X4969510Y1820000D01*
X4971451Y1810246D01*
X4976976Y1801976D01*
X4985245Y1796451D01*
X4995000Y1794511D01*
X5004755Y1796451D01*
X5009333Y1799510D01*
X5050000D01*
X5059754Y1801451D01*
X5068024Y1806976D01*
X5073549Y1815246D01*
X5075490Y1825000D01*
X5073549Y1834754D01*
X5068024Y1843024D01*
X5059754Y1848549D01*
X5050000Y1850490D01*
D02*
G37*
G36*
X416500Y1951994D02*
X393984Y1949030D01*
X373003Y1940339D01*
X354986Y1926514D01*
X341161Y1908497D01*
X332470Y1887516D01*
X329506Y1865000D01*
X332470Y1842484D01*
X341161Y1821503D01*
X354986Y1803486D01*
X373003Y1789661D01*
X393984Y1780970D01*
X416500Y1778006D01*
X439016Y1780970D01*
X459997Y1789661D01*
X478014Y1803486D01*
X491839Y1821503D01*
X500530Y1842484D01*
X503494Y1865000D01*
X500530Y1887516D01*
X491839Y1908497D01*
X478014Y1926514D01*
X459997Y1940339D01*
X439016Y1949030D01*
X416500Y1951994D01*
D02*
G37*
G36*
X4015000Y1817990D02*
X4005245Y1816049D01*
X3996976Y1810524D01*
X3991450Y1802255D01*
X3989510Y1792500D01*
X3991450Y1782745D01*
X3992010Y1781908D01*
Y1745000D01*
X3993951Y1735246D01*
X3999476Y1726976D01*
X4007746Y1721451D01*
X4017500Y1719510D01*
X4027254Y1721451D01*
X4035524Y1726976D01*
X4041049Y1735246D01*
X4042990Y1745000D01*
Y1790000D01*
X4041049Y1799755D01*
X4035524Y1808024D01*
X4033024Y1810524D01*
X4024754Y1816049D01*
X4015000Y1817990D01*
D02*
G37*
G36*
X1845000Y1755490D02*
X1802500D01*
X1792746Y1753549D01*
X1784476Y1748024D01*
Y1748024D01*
X1778950Y1739754D01*
X1777010Y1730000D01*
X1778950Y1720245D01*
X1784476Y1711976D01*
X1792745Y1706450D01*
X1802500Y1704510D01*
X1802501Y1704510D01*
X1845000D01*
X1854754Y1706451D01*
X1863024Y1711976D01*
X1868549Y1720246D01*
X1870490Y1730000D01*
X1868549Y1739754D01*
X1863024Y1748024D01*
X1854754Y1753549D01*
X1845000Y1755490D01*
D02*
G37*
G36*
X955000Y1892990D02*
X925000D01*
X915245Y1891050D01*
X906976Y1885524D01*
X901450Y1877255D01*
X899510Y1867500D01*
X901450Y1857746D01*
X906976Y1849476D01*
Y1835524D01*
X901450Y1827254D01*
X899510Y1817500D01*
X901450Y1807746D01*
X906976Y1799476D01*
Y1785524D01*
X901450Y1777255D01*
X899510Y1767500D01*
X901450Y1757746D01*
X906976Y1749476D01*
Y1735524D01*
X901450Y1727254D01*
X899510Y1717500D01*
X901450Y1707746D01*
X906976Y1699476D01*
Y1685524D01*
X901450Y1677254D01*
X899510Y1667500D01*
X900845Y1660788D01*
X895596Y1651336D01*
X892629Y1648088D01*
X867000D01*
Y1655000D01*
X773000D01*
X765000Y1664386D01*
Y1692500D01*
X590000D01*
Y1650588D01*
X578295Y1648259D01*
X568371Y1641629D01*
X568371Y1641628D01*
X530871Y1604129D01*
X524241Y1594205D01*
X521912Y1582500D01*
X521912Y1582499D01*
Y1535170D01*
X494830Y1508088D01*
X283001D01*
X283000Y1508088D01*
X271295Y1505759D01*
X261371Y1499129D01*
X261371Y1499128D01*
X197925Y1435683D01*
X185016Y1441030D01*
X162500Y1443994D01*
X139984Y1441030D01*
X119003Y1432339D01*
X100986Y1418514D01*
X87161Y1400497D01*
X78470Y1379516D01*
X75506Y1357000D01*
X78470Y1334484D01*
X87161Y1313503D01*
X100986Y1295486D01*
X119003Y1281661D01*
X139984Y1272970D01*
X162500Y1270006D01*
X185016Y1272970D01*
X205997Y1281661D01*
X224014Y1295486D01*
X237839Y1313503D01*
X246530Y1334484D01*
X249494Y1357000D01*
X246530Y1379516D01*
X241183Y1392425D01*
X295670Y1446912D01*
X374998D01*
X377525Y1434212D01*
X373003Y1432339D01*
X354986Y1418514D01*
X341161Y1400497D01*
X332470Y1379516D01*
X329506Y1357000D01*
X332470Y1334484D01*
X341161Y1313503D01*
X354986Y1295486D01*
X373003Y1281661D01*
X393984Y1272970D01*
X416500Y1270006D01*
X439016Y1272970D01*
X459997Y1281661D01*
X478014Y1295486D01*
X491839Y1313503D01*
X500530Y1334484D01*
X503494Y1357000D01*
X500530Y1379516D01*
X491839Y1400497D01*
X478014Y1418514D01*
X459997Y1432339D01*
X455476Y1434212D01*
X458002Y1446912D01*
X507499D01*
X507500Y1446912D01*
X519205Y1449241D01*
X529129Y1455871D01*
X574129Y1500871D01*
X580759Y1510795D01*
X583088Y1522500D01*
Y1537663D01*
X590000Y1547500D01*
X765000D01*
Y1550614D01*
X773000Y1560000D01*
X867000D01*
Y1586912D01*
X892629D01*
X895596Y1583664D01*
X900845Y1574212D01*
X899510Y1567500D01*
X901450Y1557746D01*
X906976Y1549476D01*
Y1535524D01*
X901450Y1527255D01*
X899510Y1517500D01*
X901450Y1507746D01*
X903587Y1504548D01*
X903400Y1491186D01*
X901862Y1487619D01*
X898371Y1484129D01*
X891740Y1474205D01*
X889412Y1462500D01*
X889412Y1462499D01*
Y1404500D01*
X872500D01*
Y1310501D01*
X863113Y1302500D01*
X830000D01*
Y1260588D01*
X762501D01*
X762500Y1260588D01*
X750795Y1258259D01*
X740871Y1251629D01*
X740871Y1251628D01*
X618371Y1129129D01*
X611741Y1119205D01*
X609412Y1107500D01*
X609412Y1107499D01*
Y1040170D01*
X569830Y1000588D01*
X283500D01*
X271795Y998259D01*
X261871Y991629D01*
X261871Y991628D01*
X197925Y927683D01*
X185016Y933030D01*
X162500Y935994D01*
X139984Y933030D01*
X119003Y924339D01*
X100986Y910514D01*
X87161Y892497D01*
X78470Y871516D01*
X75506Y849000D01*
X78470Y826484D01*
X87161Y805503D01*
X100986Y787486D01*
X119003Y773661D01*
X139984Y764970D01*
X162500Y762006D01*
X185016Y764970D01*
X205997Y773661D01*
X224014Y787486D01*
X237839Y805503D01*
X246530Y826484D01*
X249494Y849000D01*
X246530Y871516D01*
X241183Y884425D01*
X296170Y939412D01*
X582499D01*
X582500Y939412D01*
X594206Y941741D01*
X604129Y948371D01*
X661628Y1005870D01*
X661629Y1005871D01*
X668259Y1015794D01*
X670588Y1027500D01*
Y1094830D01*
X775170Y1199412D01*
X830000D01*
Y1157500D01*
X1005000D01*
Y1302500D01*
X976886D01*
X967500Y1310501D01*
Y1404500D01*
X950587D01*
Y1451796D01*
X953259Y1455795D01*
X955588Y1467500D01*
X953259Y1479205D01*
X952167Y1480840D01*
X958955Y1493540D01*
X1020195D01*
X1112540Y1401196D01*
Y1105000D01*
X1089000D01*
Y965000D01*
X1184000D01*
Y1084541D01*
X1195733Y1089402D01*
X1220577Y1064558D01*
X1228351Y1059364D01*
X1237520Y1057540D01*
X1281000D01*
Y965000D01*
X1376000D01*
Y1090174D01*
X1388700Y1095435D01*
X1400980Y1083155D01*
Y837770D01*
X1280000D01*
Y895000D01*
X1185000D01*
Y755000D01*
X1280000D01*
Y789850D01*
X1333540D01*
Y405000D01*
X1307500D01*
Y140000D01*
X1407500D01*
Y405000D01*
X1381460D01*
Y789850D01*
X1419664D01*
X1426250Y788539D01*
X1426251Y788540D01*
X1560000D01*
Y742500D01*
X1655000D01*
Y882500D01*
X1560000D01*
Y836460D01*
X1448900D01*
Y1093080D01*
X1447076Y1102249D01*
X1441883Y1110023D01*
X1414838Y1137067D01*
X1419699Y1148800D01*
X1484220D01*
X1487540Y1137475D01*
Y1092500D01*
X1464000D01*
Y952500D01*
X1559000D01*
Y1092500D01*
X1535460D01*
Y1162561D01*
X1547194Y1167422D01*
X1656000Y1058615D01*
Y952500D01*
X1751000D01*
Y1092500D01*
X1689885D01*
X1649201Y1133184D01*
X1649148Y1137093D01*
X1660455Y1148800D01*
X1747440D01*
X1750140Y1148800D01*
X1760140D01*
X1762840Y1148800D01*
X1860140D01*
Y1168310D01*
X2013822D01*
X2472010Y710122D01*
Y397500D01*
X2447500D01*
Y132500D01*
X2547500D01*
Y397500D01*
X2522990D01*
Y720680D01*
X2521049Y730435D01*
X2515524Y738704D01*
X2042404Y1211824D01*
X2034135Y1217349D01*
X2024380Y1219290D01*
X1860140D01*
Y1238800D01*
X1762840D01*
X1760140Y1238800D01*
X1750140D01*
X1747440Y1238800D01*
X1650140D01*
Y1228316D01*
X1648460Y1226937D01*
X1635779Y1224414D01*
X1625029Y1217231D01*
X1617846Y1206481D01*
X1615323Y1193800D01*
X1604936Y1180921D01*
X1601801Y1180585D01*
X1575900Y1206485D01*
Y1275080D01*
X1574076Y1284249D01*
X1568883Y1292023D01*
X1331595Y1529310D01*
X1336855Y1542010D01*
X1350000D01*
X1359754Y1543951D01*
X1368024Y1549476D01*
X1373549Y1557746D01*
X1375490Y1567500D01*
X1373549Y1577254D01*
X1368024Y1585524D01*
X1359754Y1591049D01*
X1350000Y1592990D01*
X1325000D01*
X1315246Y1591049D01*
X1306976Y1585524D01*
X1301451Y1577255D01*
X1287697Y1573208D01*
X1026463Y1834443D01*
X1018689Y1839636D01*
X1009520Y1841460D01*
X982147D01*
X976154Y1854160D01*
X978549Y1857746D01*
X980490Y1867500D01*
X978549Y1877255D01*
X973024Y1885524D01*
X973024D01*
X964754Y1891050D01*
X955000Y1892990D01*
D02*
G37*
G36*
X3957500Y1687990D02*
X3907500D01*
X3897746Y1686049D01*
X3889476Y1680524D01*
X3883951Y1672254D01*
X3882010Y1662500D01*
X3883951Y1652746D01*
X3889476Y1644476D01*
X3897746Y1638951D01*
X3907500Y1637010D01*
X3949408D01*
X3950245Y1636451D01*
X3960000Y1634510D01*
X3969755Y1636451D01*
X3978024Y1641976D01*
X3983549Y1650245D01*
X3985490Y1660000D01*
X3983549Y1669755D01*
X3978024Y1678024D01*
X3975524Y1680524D01*
X3967254Y1686049D01*
X3957500Y1687990D01*
D02*
G37*
G36*
X1802500Y1655490D02*
X1792745Y1653549D01*
X1784476Y1648024D01*
X1778951Y1639755D01*
X1777010Y1630000D01*
X1778951Y1620245D01*
X1784476Y1611976D01*
X1786976Y1609476D01*
X1795246Y1603951D01*
X1805000Y1602010D01*
X1847500D01*
X1857254Y1603951D01*
X1865524Y1609476D01*
X1871049Y1617746D01*
X1872990Y1627500D01*
X1871049Y1637254D01*
X1865524Y1645524D01*
X1857254Y1651049D01*
X1847500Y1652990D01*
X1813092D01*
X1812255Y1653549D01*
X1802500Y1655490D01*
D02*
G37*
G36*
X416500Y1697994D02*
X393984Y1695030D01*
X373003Y1686339D01*
X354986Y1672514D01*
X341161Y1654497D01*
X332470Y1633516D01*
X329506Y1611000D01*
X332470Y1588484D01*
X341161Y1567503D01*
X354986Y1549486D01*
X373003Y1535661D01*
X393984Y1526970D01*
X416500Y1524006D01*
X439016Y1526970D01*
X459997Y1535661D01*
X478014Y1549486D01*
X491839Y1567503D01*
X500530Y1588484D01*
X503494Y1611000D01*
X500530Y1633516D01*
X491839Y1654497D01*
X478014Y1672514D01*
X459997Y1686339D01*
X439016Y1695030D01*
X416500Y1697994D01*
D02*
G37*
G36*
X162500D02*
X139984Y1695030D01*
X119003Y1686339D01*
X100986Y1672514D01*
X87161Y1654497D01*
X78470Y1633516D01*
X75506Y1611000D01*
X78470Y1588484D01*
X87161Y1567503D01*
X100986Y1549486D01*
X119003Y1535661D01*
X139984Y1526970D01*
X162500Y1524006D01*
X185016Y1526970D01*
X205997Y1535661D01*
X224014Y1549486D01*
X237839Y1567503D01*
X246530Y1588484D01*
X249494Y1611000D01*
X246530Y1633516D01*
X237839Y1654497D01*
X224014Y1672514D01*
X205997Y1686339D01*
X185016Y1695030D01*
X162500Y1697994D01*
D02*
G37*
G36*
X820000Y1542990D02*
X810245Y1541049D01*
X801976Y1535524D01*
X796451Y1527255D01*
X794510Y1517500D01*
X796451Y1507746D01*
X797010Y1506908D01*
Y1470000D01*
X798951Y1460246D01*
X804476Y1451976D01*
X812746Y1446451D01*
X822500Y1444510D01*
X832254Y1446451D01*
X840524Y1451976D01*
X846049Y1460246D01*
X847990Y1470000D01*
Y1515000D01*
X846049Y1524755D01*
X840524Y1533024D01*
X838024Y1535524D01*
X829754Y1541049D01*
X820000Y1542990D01*
D02*
G37*
G36*
X677500Y1465490D02*
X667745Y1463549D01*
X659476Y1458024D01*
X653951Y1449755D01*
X652010Y1440000D01*
X653951Y1430245D01*
X654510Y1429408D01*
Y1410000D01*
X656451Y1400246D01*
X661976Y1391976D01*
X670246Y1386451D01*
X680000Y1384510D01*
X689754Y1386451D01*
X698024Y1391976D01*
X703549Y1400246D01*
X705490Y1410000D01*
Y1437500D01*
X703549Y1447254D01*
X698024Y1455524D01*
X695524Y1458024D01*
X687255Y1463549D01*
X677500Y1465490D01*
D02*
G37*
G36*
X830000Y1382990D02*
X820245Y1381050D01*
X819408Y1380490D01*
X780000D01*
X770246Y1378549D01*
X761976Y1373024D01*
X756451Y1364754D01*
X754510Y1355000D01*
X756451Y1345246D01*
X761976Y1336976D01*
X770246Y1331451D01*
X780000Y1329510D01*
X827500D01*
X837254Y1331451D01*
X845524Y1336976D01*
X848024Y1339476D01*
X853549Y1347746D01*
X855490Y1357500D01*
X853549Y1367255D01*
X848024Y1375524D01*
X839754Y1381050D01*
X830000Y1382990D01*
D02*
G37*
G36*
X2405000Y1340490D02*
X2404997Y1340490D01*
X2347500D01*
X2337746Y1338549D01*
X2329476Y1333024D01*
X2323951Y1324754D01*
X2322010Y1315000D01*
X2323951Y1305246D01*
X2329476Y1296976D01*
X2337746Y1291451D01*
X2347500Y1289510D01*
X2404999D01*
X2414754Y1291451D01*
X2423023Y1296976D01*
X2423023Y1296977D01*
X2428549Y1305246D01*
X2430489Y1315000D01*
X2428549Y1324755D01*
X2423023Y1333024D01*
X2414754Y1338550D01*
X2405000Y1340490D01*
D02*
G37*
G36*
X5260000Y1332990D02*
X5250246Y1331049D01*
X5241976Y1325524D01*
X5236451Y1317254D01*
X5234510Y1307500D01*
Y1242513D01*
X5236451Y1232758D01*
X5241976Y1224489D01*
X5249480Y1216984D01*
X5257750Y1211459D01*
X5267504Y1209519D01*
X5277259Y1211459D01*
X5285528Y1216984D01*
X5291054Y1225254D01*
X5292994Y1235008D01*
X5291054Y1244763D01*
X5285528Y1253032D01*
X5285490Y1253071D01*
Y1307500D01*
X5283549Y1317254D01*
X5278024Y1325524D01*
X5269754Y1331049D01*
X5260000Y1332990D01*
D02*
G37*
G36*
X5497504Y1290008D02*
X5387504D01*
Y1180008D01*
X5413167D01*
Y1127495D01*
X5390006D01*
Y1017495D01*
X5500006D01*
Y1127495D01*
X5474343D01*
Y1180008D01*
X5497504D01*
Y1204421D01*
X5518549D01*
X5519439Y1203826D01*
X5532120Y1201303D01*
X5544801Y1203826D01*
X5555551Y1211009D01*
X5562734Y1221759D01*
X5565257Y1234440D01*
X5562734Y1247121D01*
X5555551Y1257871D01*
X5544801Y1265054D01*
X5532120Y1267577D01*
X5522163Y1265596D01*
X5497504D01*
Y1290008D01*
D02*
G37*
G36*
X3332500Y1250490D02*
X3042499D01*
X3042497Y1250490D01*
X2987500D01*
X2977746Y1248549D01*
X2969476Y1243024D01*
X2963951Y1234754D01*
X2962010Y1225000D01*
X2963951Y1215246D01*
X2969476Y1206976D01*
X2977746Y1201451D01*
X2987500Y1199510D01*
X3042499D01*
X3042501Y1199511D01*
X3321941D01*
X3321976Y1199476D01*
X3330245Y1193951D01*
X3340000Y1192011D01*
X3349755Y1193951D01*
X3350592Y1194510D01*
X3392500D01*
X3402254Y1196451D01*
X3410524Y1201976D01*
X3416049Y1210246D01*
X3417990Y1220000D01*
X3416049Y1229754D01*
X3410524Y1238024D01*
X3402254Y1243549D01*
X3392500Y1245490D01*
X3346834D01*
X3342254Y1248550D01*
X3332500Y1250490D01*
D02*
G37*
G36*
X5025000Y1245490D02*
X5015245Y1243549D01*
X5014408Y1242990D01*
X4965000D01*
X4955246Y1241049D01*
X4946976Y1235524D01*
X4941451Y1227254D01*
X4939510Y1217500D01*
X4941451Y1207746D01*
X4946976Y1199476D01*
X4955246Y1193951D01*
X4965000Y1192010D01*
X5022500D01*
X5032255Y1193951D01*
X5040524Y1199476D01*
X5043024Y1201976D01*
X5048549Y1210245D01*
X5050490Y1220000D01*
X5048549Y1229755D01*
X5043024Y1238024D01*
X5034755Y1243549D01*
X5025000Y1245490D01*
D02*
G37*
G36*
X5097500Y1130000D02*
X4952500D01*
Y1040000D01*
X5097500D01*
Y1130000D01*
D02*
G37*
G36*
X4717500Y1072990D02*
X4665000D01*
X4655246Y1071049D01*
X4646976Y1065524D01*
X4641451Y1057254D01*
X4639510Y1047500D01*
X4641451Y1037746D01*
X4646976Y1029476D01*
X4655246Y1023951D01*
X4665000Y1022010D01*
X4717500D01*
X4727254Y1023951D01*
X4735523Y1029476D01*
X4735524D01*
X4741049Y1037746D01*
X4742989Y1047500D01*
X4741049Y1057255D01*
X4735524Y1065524D01*
X4727254Y1071049D01*
X4717500Y1072990D01*
D02*
G37*
G36*
X4387500Y1072990D02*
X4377745Y1071050D01*
X4376907Y1070490D01*
X4325000D01*
X4315246Y1068549D01*
X4306976Y1063024D01*
X4301451Y1054754D01*
X4299510Y1045000D01*
X4301451Y1035246D01*
X4306976Y1026976D01*
X4315246Y1021451D01*
X4325000Y1019510D01*
X4384999D01*
X4394754Y1021451D01*
X4403023Y1026976D01*
X4405524Y1029477D01*
X4411049Y1037746D01*
X4412990Y1047501D01*
X4411049Y1057255D01*
X4405524Y1065524D01*
X4397255Y1071050D01*
X4387500Y1072990D01*
D02*
G37*
G36*
X416500Y1189994D02*
X393984Y1187030D01*
X373003Y1178339D01*
X354986Y1164514D01*
X341161Y1146497D01*
X332470Y1125516D01*
X329506Y1103000D01*
X332470Y1080484D01*
X341161Y1059503D01*
X354986Y1041486D01*
X373003Y1027661D01*
X393984Y1018970D01*
X416500Y1016006D01*
X439016Y1018970D01*
X459997Y1027661D01*
X478014Y1041486D01*
X491839Y1059503D01*
X500530Y1080484D01*
X503494Y1103000D01*
X500530Y1125516D01*
X491839Y1146497D01*
X478014Y1164514D01*
X459997Y1178339D01*
X439016Y1187030D01*
X416500Y1189994D01*
D02*
G37*
G36*
X162500D02*
X139984Y1187030D01*
X119003Y1178339D01*
X100986Y1164514D01*
X87161Y1146497D01*
X78470Y1125516D01*
X75506Y1103000D01*
X78470Y1080484D01*
X87161Y1059503D01*
X100986Y1041486D01*
X119003Y1027661D01*
X139984Y1018970D01*
X162500Y1016006D01*
X185016Y1018970D01*
X205997Y1027661D01*
X224014Y1041486D01*
X237839Y1059503D01*
X246530Y1080484D01*
X249494Y1103000D01*
X246530Y1125516D01*
X237839Y1146497D01*
X224014Y1164514D01*
X205997Y1178339D01*
X185016Y1187030D01*
X162500Y1189994D01*
D02*
G37*
G36*
X5275000Y1015490D02*
X5265246Y1013549D01*
X5264408Y1012990D01*
X5192500D01*
X5182746Y1011049D01*
X5174476Y1005524D01*
X5168951Y997254D01*
X5167010Y987500D01*
X5168951Y977746D01*
X5174476Y969476D01*
X5182746Y963951D01*
X5192500Y962010D01*
X5272500D01*
X5282255Y963951D01*
X5290524Y969476D01*
X5293024Y971976D01*
X5298549Y980245D01*
X5300490Y990000D01*
X5298549Y999755D01*
X5293024Y1008024D01*
X5284755Y1013549D01*
X5275000Y1015490D01*
D02*
G37*
G36*
X917500Y1075490D02*
X907746Y1073549D01*
X899476Y1068024D01*
X893951Y1059754D01*
X892010Y1050000D01*
Y975592D01*
X891451Y974755D01*
X889510Y965000D01*
X891451Y955245D01*
X896976Y946976D01*
X905245Y941451D01*
X915000Y939510D01*
X924755Y941451D01*
X933024Y946976D01*
X935524Y949476D01*
X941049Y957746D01*
X942990Y967500D01*
Y1050000D01*
X941049Y1059754D01*
X935524Y1068024D01*
X927254Y1073549D01*
X917500Y1075490D01*
D02*
G37*
G36*
X5500006Y952495D02*
X5390006D01*
Y923039D01*
X5347500D01*
Y940000D01*
X5202500D01*
Y850000D01*
X5347500D01*
Y866961D01*
X5390006D01*
Y842495D01*
X5500006D01*
Y952495D01*
D02*
G37*
G36*
X4897500Y820490D02*
X4887746Y818550D01*
X4879476Y813024D01*
X4876976Y810524D01*
X4871451Y802255D01*
X4869510Y792500D01*
Y745000D01*
X4871451Y735246D01*
X4876976Y726976D01*
X4885246Y721451D01*
X4895000Y719510D01*
X4904754Y721451D01*
X4913024Y726976D01*
X4918549Y735246D01*
X4920490Y745000D01*
Y784408D01*
X4921049Y785246D01*
X4922990Y795000D01*
X4921049Y804755D01*
X4915524Y813024D01*
X4907255Y818550D01*
X4897500Y820490D01*
D02*
G37*
G36*
X1785000Y720490D02*
X1775246Y718549D01*
X1766976Y713024D01*
X1761451Y704754D01*
X1759510Y695000D01*
Y440592D01*
X1758951Y439755D01*
X1757010Y430000D01*
X1758951Y420246D01*
X1764476Y411976D01*
X1772746Y406451D01*
X1782500Y404510D01*
X1792255Y406451D01*
X1800524Y411976D01*
X1803024Y414476D01*
X1808549Y422746D01*
X1810490Y432500D01*
Y695000D01*
X1808549Y704754D01*
X1803024Y713024D01*
X1794754Y718549D01*
X1785000Y720490D01*
D02*
G37*
G36*
X935000Y725490D02*
X925246Y723549D01*
X916976Y718024D01*
X911451Y709754D01*
X909510Y700000D01*
Y440592D01*
X908950Y439755D01*
X907010Y430000D01*
X908950Y420246D01*
X914476Y411976D01*
X922745Y406451D01*
X932500Y404510D01*
X942254Y406451D01*
X950524Y411976D01*
X953024Y414476D01*
X958549Y422746D01*
X960490Y432500D01*
Y700000D01*
X958549Y709754D01*
X953024Y718024D01*
X944754Y723549D01*
X935000Y725490D01*
D02*
G37*
G36*
X2067500Y720490D02*
X2057746Y718549D01*
X2049476Y713024D01*
X2043951Y704754D01*
X2042010Y695000D01*
Y427500D01*
X2043951Y417745D01*
X2049476Y409476D01*
X2054476Y404476D01*
X2062745Y398951D01*
X2072500Y397011D01*
X2082254Y398951D01*
X2090524Y404476D01*
X2096049Y412746D01*
X2097989Y422500D01*
X2096049Y432255D01*
X2092990Y436833D01*
Y695000D01*
X2091049Y704754D01*
X2085524Y713024D01*
X2077254Y718549D01*
X2067500Y720490D01*
D02*
G37*
%LPD*%
G36*
X4598476Y2936332D02*
X4602500Y2933022D01*
Y2912500D01*
X4755000D01*
Y2810000D01*
Y2710000D01*
Y2610000D01*
Y2517500D01*
X4360120D01*
X4359329Y2521475D01*
X4353804Y2529744D01*
X4336248Y2547300D01*
X4341508Y2560000D01*
X4360000D01*
Y2610000D01*
Y2710000D01*
Y2810000D01*
Y2912500D01*
X4462500D01*
Y2933022D01*
X4466523Y2936332D01*
X4475200Y2940962D01*
X4482500Y2939510D01*
X4582500D01*
X4589800Y2940962D01*
X4598476Y2936332D01*
D02*
G37*
G36*
X672470Y3365180D02*
X679242D01*
X682552Y3361156D01*
X687183Y3352480D01*
X685730Y3345180D01*
X687183Y3337880D01*
X682552Y3329204D01*
X679242Y3325180D01*
X672470D01*
Y3265180D01*
X685730D01*
Y3226608D01*
X564112Y3104990D01*
X524975D01*
X515166Y3128671D01*
X499538Y3149038D01*
X479170Y3164666D01*
X472835Y3167290D01*
X475361Y3179990D01*
X561340D01*
X571095Y3181931D01*
X579364Y3187456D01*
X622544Y3230636D01*
X628069Y3238905D01*
X630010Y3248660D01*
Y3342242D01*
X657458Y3369690D01*
X672470D01*
Y3365180D01*
D02*
G37*
G36*
X812701Y2553786D02*
Y2404294D01*
X753946Y2345539D01*
X527500D01*
Y2415000D01*
X524606D01*
X518003Y2427700D01*
X520994Y2431962D01*
X610000D01*
Y2422500D01*
X780000D01*
Y2487500D01*
Y2561962D01*
X804526D01*
X812701Y2553786D01*
D02*
G37*
G36*
X1702500Y2497500D02*
Y2307500D01*
X1637500Y2242500D01*
X1577500D01*
X1512500Y2307500D01*
Y2497500D01*
X1577500Y2562500D01*
X1637500D01*
X1702500Y2497500D01*
D02*
G37*
G36*
X4380000Y1787500D02*
X4780000D01*
Y1787500D01*
X4822500D01*
Y1755000D01*
X4822500D01*
Y1695000D01*
Y1645000D01*
Y1595000D01*
Y1545000D01*
Y1495001D01*
Y1445000D01*
Y1395000D01*
Y1355000D01*
X4822500D01*
Y1312500D01*
X4790000D01*
Y1312500D01*
X4390000D01*
Y1312501D01*
X4347500D01*
Y1345000D01*
X4347500D01*
Y1395000D01*
Y1445000D01*
Y1495001D01*
Y1545000D01*
Y1595000D01*
Y1645000D01*
Y1695000D01*
Y1745000D01*
X4347500D01*
Y1787500D01*
X4380000D01*
Y1787500D01*
D02*
G37*
G36*
X1410260Y1253335D02*
Y1238800D01*
X1384220D01*
X1384220Y1238800D01*
X1374220D01*
Y1238800D01*
X1371520Y1238800D01*
X1274220D01*
Y1148800D01*
X1335335D01*
X1366435Y1117700D01*
X1361174Y1105000D01*
X1306815D01*
X1304500Y1105461D01*
X1247445D01*
X1202520Y1150385D01*
Y1443114D01*
X1207647Y1446759D01*
X1214758Y1448837D01*
X1410260Y1253335D01*
D02*
G37*
D10*
X5060000Y2195500D02*
D03*
Y2259500D02*
D03*
Y2325500D02*
D03*
Y2129500D02*
D03*
D11*
X4807500Y2640000D02*
D03*
Y2690000D02*
D03*
X4307500Y2890000D02*
D03*
Y2840000D02*
D03*
Y2790000D02*
D03*
Y2740000D02*
D03*
Y2690000D02*
D03*
Y2640000D02*
D03*
Y2590000D02*
D03*
Y2540000D02*
D03*
X4807500D02*
D03*
Y2590000D02*
D03*
Y2740000D02*
D03*
Y2790000D02*
D03*
Y2840000D02*
D03*
Y2890000D02*
D03*
D12*
X917500Y1050000D02*
D03*
Y1230000D02*
D03*
X677500Y1620000D02*
D03*
Y1440000D02*
D03*
D13*
X1328500Y1035000D02*
D03*
X1136500D02*
D03*
X1232500Y825000D02*
D03*
X1703500Y1022500D02*
D03*
X1511500D02*
D03*
X1607500Y812500D02*
D03*
D14*
X1700140Y1193800D02*
D03*
X1810140D02*
D03*
X4182500Y2662500D02*
D03*
X4072500D02*
D03*
X5135000Y1220000D02*
D03*
X5025000D02*
D03*
X3827500Y1537500D02*
D03*
X3937500D02*
D03*
X3827500Y1437500D02*
D03*
X3937500D02*
D03*
X3216520Y1800860D02*
D03*
X3326520D02*
D03*
X3206360Y1681480D02*
D03*
X3316360D02*
D03*
X1825000Y1427500D02*
D03*
X1715000D02*
D03*
X1825000Y1537500D02*
D03*
X1715000D02*
D03*
X1822500Y1832500D02*
D03*
X1712500D02*
D03*
X1434220Y1193800D02*
D03*
X1324220D02*
D03*
X2222500Y1817501D02*
D03*
X2332500D02*
D03*
X3219060Y1983740D02*
D03*
X3329060D02*
D03*
X3219060Y1892300D02*
D03*
X3329060D02*
D03*
X3206360Y1480820D02*
D03*
X3316360D02*
D03*
X3208900Y1569720D02*
D03*
X3318900D02*
D03*
X4072500Y2867500D02*
D03*
X4182500D02*
D03*
Y2770000D02*
D03*
X4072500D02*
D03*
X4977500Y2790000D02*
D03*
X5087500D02*
D03*
X4072500Y2965000D02*
D03*
X4182500D02*
D03*
D15*
X1199000Y3618800D02*
D03*
X1326000D02*
D03*
X1453000D02*
D03*
X1580000D02*
D03*
X1707000D02*
D03*
X1834000D02*
D03*
X1961000D02*
D03*
Y2911200D02*
D03*
X1834000D02*
D03*
X1707000D02*
D03*
X1580000D02*
D03*
X1453000D02*
D03*
X1326000D02*
D03*
X1199000D02*
D03*
D16*
X711220Y3395180D02*
D03*
Y3345180D02*
D03*
Y3295180D02*
D03*
X878820D02*
D03*
Y3345180D02*
D03*
Y3395180D02*
D03*
D17*
X1135000Y2655000D02*
D03*
Y2590000D02*
D03*
Y2525000D02*
D03*
Y2460000D02*
D03*
X695000D02*
D03*
Y2525000D02*
D03*
Y2590000D02*
D03*
Y2655000D02*
D03*
D18*
X5070000Y2585000D02*
D03*
Y2675000D02*
D03*
X4914760Y3545340D02*
D03*
Y3455340D02*
D03*
X4897500Y795000D02*
D03*
Y885000D02*
D03*
X4502500Y3090000D02*
D03*
Y3180000D02*
D03*
X4382500Y3092500D02*
D03*
Y3182500D02*
D03*
X4405000Y2240000D02*
D03*
Y2330000D02*
D03*
X4890000Y2240000D02*
D03*
Y2330000D02*
D03*
X4792500Y2240000D02*
D03*
Y2330000D02*
D03*
X4695000Y2240000D02*
D03*
Y2330000D02*
D03*
X4597500Y2240000D02*
D03*
Y2330000D02*
D03*
X4500000Y2240000D02*
D03*
Y2330000D02*
D03*
X4052500Y1440000D02*
D03*
Y1530000D02*
D03*
X4995000Y1820000D02*
D03*
Y1730000D02*
D03*
X5013960Y1362160D02*
D03*
Y1452160D02*
D03*
X4717500Y1047500D02*
D03*
Y1137500D02*
D03*
X820000Y1607500D02*
D03*
Y1517500D02*
D03*
X4862500Y3110000D02*
D03*
Y3200000D02*
D03*
X4710000Y2062010D02*
D03*
Y1972011D02*
D03*
X4187500Y2560000D02*
D03*
Y2470000D02*
D03*
X777500Y2880000D02*
D03*
Y2790000D02*
D03*
X2242499Y2142500D02*
D03*
Y2052501D02*
D03*
X2164999Y1620001D02*
D03*
Y1710000D02*
D03*
X2260000Y1620001D02*
D03*
Y1710000D02*
D03*
X2352499Y1620001D02*
D03*
Y1710000D02*
D03*
X2342500Y2142500D02*
D03*
Y2052501D02*
D03*
X3099999Y2390000D02*
D03*
Y2300000D02*
D03*
X3002499Y2390000D02*
D03*
Y2300000D02*
D03*
X2500000Y2385001D02*
D03*
Y2295001D02*
D03*
X2595000Y2385001D02*
D03*
Y2295001D02*
D03*
X3230880Y1240240D02*
D03*
Y1330240D02*
D03*
X3042499Y1315000D02*
D03*
Y1225001D02*
D03*
X4765000Y3200000D02*
D03*
Y3110000D02*
D03*
X4387500Y1047501D02*
D03*
Y1137500D02*
D03*
X5280000Y3075000D02*
D03*
Y2985000D02*
D03*
X4483100Y2051600D02*
D03*
Y1961600D02*
D03*
D19*
X3340000Y1327500D02*
D03*
Y1217500D02*
D03*
X4620000Y3580000D02*
D03*
Y3690000D02*
D03*
X2762500Y3562500D02*
D03*
Y3672500D02*
D03*
X2980000Y3565000D02*
D03*
Y3675000D02*
D03*
X3195000Y3565000D02*
D03*
Y3675000D02*
D03*
X3410000Y3565000D02*
D03*
Y3675000D02*
D03*
X3135000Y1225000D02*
D03*
Y1335000D02*
D03*
X4582160Y1966840D02*
D03*
Y2076840D02*
D03*
D20*
X4615000Y3890000D02*
D03*
Y4040000D02*
D03*
X2764999Y3887500D02*
D03*
Y4037500D02*
D03*
X2980000Y3887500D02*
D03*
Y4037500D02*
D03*
X3192500Y3887500D02*
D03*
Y4037500D02*
D03*
X3407500Y3887500D02*
D03*
Y4037500D02*
D03*
D21*
X5292260Y3452840D02*
D03*
Y3547840D02*
D03*
Y3642840D02*
D03*
X5042260D02*
D03*
Y3452840D02*
D03*
X5275000Y895000D02*
D03*
Y990000D02*
D03*
Y1085000D02*
D03*
X5025000D02*
D03*
Y895000D02*
D03*
D22*
X5134764Y3777848D02*
D03*
X5309764D02*
D03*
X5267504Y1235008D02*
D03*
X5442504D02*
D03*
D23*
X1052500Y2216000D02*
D03*
Y2024000D02*
D03*
X1262500Y2120000D02*
D03*
D24*
X2765000Y3337500D02*
D03*
X2980000Y3335000D02*
D03*
X3190000D02*
D03*
X3402500D02*
D03*
X3555000D02*
D03*
D25*
X4382500Y2465000D02*
D03*
X4432500D02*
D03*
X4482500D02*
D03*
X4532500D02*
D03*
X4582500D02*
D03*
X4632500D02*
D03*
X4682500D02*
D03*
X4732500D02*
D03*
Y2965000D02*
D03*
X4682500D02*
D03*
X4632500D02*
D03*
X4582500D02*
D03*
X4532500D02*
D03*
X4482500D02*
D03*
X4432500D02*
D03*
X4382500D02*
D03*
D26*
X4557500Y2715000D02*
D03*
D27*
X4977500Y1980000D02*
D03*
X5067500D02*
D03*
X4162340Y3058160D02*
D03*
X4072340D02*
D03*
X3960000Y1660000D02*
D03*
X4050000D02*
D03*
X3515000Y1800000D02*
D03*
X3425000D02*
D03*
X3517180Y1676400D02*
D03*
X3427180D02*
D03*
X920000Y1357500D02*
D03*
X830000D02*
D03*
X1746800Y1336040D02*
D03*
X1656800D02*
D03*
X1802500Y1730000D02*
D03*
X1712500D02*
D03*
X1802500Y1630000D02*
D03*
X1712500D02*
D03*
X4388400Y2095500D02*
D03*
X4298400D02*
D03*
X4293320Y1976120D02*
D03*
X4383320D02*
D03*
X2334999Y1925000D02*
D03*
X2245000D02*
D03*
X2405000Y1315000D02*
D03*
X2494999D02*
D03*
X4105000Y1887500D02*
D03*
X4015000D02*
D03*
X4104999Y1985000D02*
D03*
X4015001D02*
D03*
X4105000Y1792500D02*
D03*
X4015000Y1792500D02*
D03*
D28*
X4982500Y2965000D02*
D03*
Y3185000D02*
D03*
X5152500D02*
D03*
Y2965000D02*
D03*
D29*
X5479500Y2380000D02*
D03*
Y2140000D02*
D03*
D30*
X5234500Y2580000D02*
D03*
Y1940000D02*
D03*
D31*
X5212000Y2390000D02*
D03*
Y2325000D02*
D03*
Y2260000D02*
D03*
Y2195000D02*
D03*
Y2130000D02*
D03*
D32*
X3810000Y1807500D02*
D03*
X3640000D02*
D03*
D33*
X3655000Y1447500D02*
D03*
Y1617500D02*
D03*
D34*
X1782500Y430000D02*
D03*
X932500D02*
D03*
X2922500Y422500D02*
D03*
X2072500D02*
D03*
D35*
X1357500Y272500D02*
D03*
X2497500Y265000D02*
D03*
D36*
X1575000Y1867500D02*
D03*
Y1817500D02*
D03*
Y1767500D02*
D03*
Y1717500D02*
D03*
Y1617500D02*
D03*
Y1567500D02*
D03*
Y1517500D02*
D03*
Y1467500D02*
D03*
X1525000Y1817500D02*
D03*
Y1517500D02*
D03*
X1325000Y1717500D02*
D03*
Y1567500D02*
D03*
X1275000Y1717500D02*
D03*
X925000Y1867500D02*
D03*
Y1817500D02*
D03*
Y1767500D02*
D03*
Y1717500D02*
D03*
Y1667500D02*
D03*
Y1617500D02*
D03*
Y1567500D02*
D03*
Y1517500D02*
D03*
Y1467500D02*
D03*
D37*
X4360000Y1255001D02*
D03*
X4410000Y1255000D02*
D03*
X4460000D02*
D03*
X4510000D02*
D03*
X4560000D02*
D03*
X4610000D02*
D03*
X4660000D02*
D03*
X4710000D02*
D03*
X4760000D02*
D03*
X4810000Y1255000D02*
D03*
Y1845000D02*
D03*
X4760000Y1845000D02*
D03*
X4710000D02*
D03*
X4660000D02*
D03*
X4610000D02*
D03*
X4560000D02*
D03*
X4510000D02*
D03*
X4460000D02*
D03*
X4410000D02*
D03*
X4360000Y1845000D02*
D03*
D38*
X4880000Y1325000D02*
D03*
X4880000Y1375000D02*
D03*
Y1425000D02*
D03*
Y1475000D02*
D03*
Y1525001D02*
D03*
Y1575000D02*
D03*
Y1625000D02*
D03*
Y1675000D02*
D03*
Y1725000D02*
D03*
X4880000Y1775000D02*
D03*
X4290000D02*
D03*
X4290000Y1725000D02*
D03*
Y1675000D02*
D03*
Y1625000D02*
D03*
Y1575000D02*
D03*
Y1525001D02*
D03*
Y1475000D02*
D03*
Y1425000D02*
D03*
Y1375000D02*
D03*
X4290000Y1325000D02*
D03*
D39*
X4585000Y1550000D02*
D03*
D40*
X2115000Y2290000D02*
D03*
X1925000D02*
D03*
X2020000Y2050000D02*
D03*
D41*
X1457500Y2132500D02*
D03*
X1757500D02*
D03*
D42*
X1607500Y2152500D02*
D03*
D43*
X2017506Y1857495D02*
D03*
Y1682495D02*
D03*
X2879993Y2302506D02*
D03*
Y2477506D02*
D03*
X2720006Y2474995D02*
D03*
Y2299995D02*
D03*
X5445006Y1072495D02*
D03*
Y897495D02*
D03*
X5452254Y3275345D02*
D03*
Y3450345D02*
D03*
D44*
X2907499Y1155000D02*
D03*
D45*
X2498499Y2010500D02*
D03*
Y1946501D02*
D03*
Y1882500D02*
D03*
Y1818501D02*
D03*
Y1754500D02*
D03*
Y1690501D02*
D03*
Y1626500D02*
D03*
Y1562501D02*
D03*
Y1498500D02*
D03*
Y1434501D02*
D03*
X3041499D02*
D03*
Y1498500D02*
D03*
Y1562501D02*
D03*
Y1626500D02*
D03*
Y1690501D02*
D03*
Y1754500D02*
D03*
Y1818501D02*
D03*
Y1882500D02*
D03*
Y1946501D02*
D03*
Y2010500D02*
D03*
D46*
X4478020Y2405380D02*
Y2460520D01*
X4528820Y2415540D02*
X4530660Y2417380D01*
X4615000Y2389960D02*
X4632500Y2407460D01*
X4615000Y2375170D02*
Y2389960D01*
X4681220Y2966280D02*
Y3030220D01*
X4432300Y2415300D02*
X4437500Y2420500D01*
X4137660Y2771140D02*
X4181360D01*
X4137660Y2867660D02*
X4182340D01*
X4140200Y2969260D02*
X4178240D01*
X4437500Y2420500D02*
Y2454520D01*
X4383270Y2421390D02*
X4384040Y2420620D01*
X4939860Y1325440D02*
X4940300Y1325880D01*
X4734560Y2968020D02*
Y3017520D01*
X4732020Y2965480D02*
X4734560Y2968020D01*
X4632960Y2965460D02*
Y3035300D01*
X4597500Y2330000D02*
Y2330500D01*
X4615000Y2347500D02*
Y2375170D01*
X4632500Y2407460D02*
Y2465000D01*
X4302500Y2585000D02*
X4307500Y2590000D01*
X4264645Y2585000D02*
X4302500D01*
X4244750Y2565105D02*
X4264645Y2585000D01*
X4244750Y2517395D02*
Y2565105D01*
X4229855Y2502500D02*
X4244750Y2517395D01*
X4219500Y2502500D02*
X4229855D01*
X4187500Y2470500D02*
X4219500Y2502500D01*
X4187500Y2470000D02*
Y2470500D01*
X4187500Y2867500D02*
X4260000Y2795000D01*
X4302500D01*
X4812620Y1977980D02*
X4813300Y1978660D01*
X4812620Y1847620D02*
Y1977980D01*
X4810000Y1845000D02*
X4812620Y1847620D01*
X4770120Y1911101D02*
Y1915160D01*
X4717500Y2050000D02*
X4775000D01*
X4710000Y2042500D02*
X4717500Y2050000D01*
X4300000Y2082500D02*
Y2150000D01*
X4300000Y2150000D02*
X4300000Y2150000D01*
X4582160Y1966840D02*
Y1971840D01*
X4562160Y1991840D02*
X4582160Y1971840D01*
X4552715Y1991840D02*
X4562160D01*
X4515456Y2029100D02*
X4552715Y1991840D01*
X4505100Y2029100D02*
X4515456D01*
X4483100Y2051100D02*
X4505100Y2029100D01*
X4483100Y2051100D02*
Y2051600D01*
X3213100Y1566300D02*
Y1569720D01*
X3147499Y1626500D02*
X3161642Y1612358D01*
Y1611978D02*
Y1612358D01*
Y1611978D02*
X3203900Y1569720D01*
X3208900D01*
X3041499Y1626500D02*
X3147499D01*
X3128680Y1486500D02*
X3144520Y1470660D01*
X3053499Y1486500D02*
X3128680D01*
X3135000Y1335000D02*
X3144520D01*
X3226120D01*
X2242499Y1990001D02*
X2321749D01*
X2329749Y1982001D01*
X2377855D01*
X2401355Y1958501D01*
X2486499D01*
X2377500Y2017001D02*
X2491999D01*
X2498499Y2010500D01*
X2242499Y1927501D02*
Y1981680D01*
Y1990001D01*
X2342500Y2052001D02*
X2377500Y2017001D01*
X2146300Y1728700D02*
Y1902460D01*
X680000Y1410000D02*
Y1437500D01*
X677500Y1440000D02*
X680000Y1437500D01*
X1810140Y1193800D02*
X2024380D01*
X1736640Y1313180D02*
X1800860D01*
X1729020Y1320800D02*
X1736640Y1313180D01*
X4809240Y2588260D02*
X4810110Y2589130D01*
X2024380Y1193800D02*
X2497500Y720680D01*
Y265000D02*
Y720680D01*
X1785000Y432500D02*
Y695000D01*
X1782500Y430000D02*
X1785000Y432500D01*
X4810760Y2484120D02*
X4890000Y2404880D01*
X4904740Y2204720D02*
Y2230900D01*
X4892820Y2242820D02*
X4904740Y2230900D01*
X4053420Y1529080D02*
X4094480D01*
X4528820Y2461320D02*
X4530660Y2459480D01*
Y2417380D02*
Y2459480D01*
X4528820Y2461320D02*
X4532500Y2465000D01*
X4765000Y1905981D02*
X4770120Y1911101D01*
X4765000Y1850000D02*
Y1905981D01*
X4760000Y1845000D02*
X4765000Y1850000D01*
X4478020Y2460520D02*
X4482500Y2465000D01*
X4944950Y1374570D02*
X4945380Y1374140D01*
X4880430Y1374570D02*
X4944950D01*
X4880000Y1375000D02*
X4880430Y1374570D01*
X4429760Y2462260D02*
X4437500Y2454520D01*
X4429760Y2462260D02*
X4432500Y2465000D01*
X4880440Y1325440D02*
X4939860D01*
X4880000Y1325000D02*
X4880440Y1325440D01*
X4998560Y1361440D02*
X5067300D01*
X4997500Y1362500D02*
X4998560Y1361440D01*
X4383270Y2462690D02*
X4384040Y2463460D01*
X4383270Y2421390D02*
Y2462690D01*
X4382500Y2465000D02*
X4384040Y2463460D01*
X4180840Y1673860D02*
X4181980Y1675000D01*
X4290000D01*
X4371340Y2237740D02*
X4382740D01*
X4395000Y2250000D01*
X4582500Y2965000D02*
Y3063580D01*
X4589780Y3070860D01*
X4307500Y2540000D02*
X4335780Y2511720D01*
Y2499360D02*
Y2511720D01*
X4732020Y2965480D02*
X4732500Y2965000D01*
X4208780Y1572260D02*
X4210150Y1573630D01*
X4288630D01*
X4290000Y1575000D01*
X4681220Y2966280D02*
X4682500Y2965000D01*
X4221480Y1625600D02*
X4221780Y1625300D01*
X4289700D01*
X4290000Y1625000D01*
X4632500Y2965000D02*
X4632960Y2965460D01*
X4682500Y2377440D02*
Y2465000D01*
X5130800Y1224200D02*
X5135000Y1220000D01*
X5130800Y1224200D02*
Y1366520D01*
X4682500Y2377440D02*
X4699000D01*
X4855610Y2589130D02*
X4856480Y2588260D01*
X4810110Y2589130D02*
X4855610D01*
X4807500Y2590000D02*
X4809240Y2588260D01*
X5013960Y2674620D02*
X5069620D01*
X5070000Y2675000D01*
X4597500Y2330000D02*
X4615000Y2347500D01*
X1455420Y2689860D02*
Y2903460D01*
X1450340Y2908540D02*
X1455420Y2903460D01*
X4507000Y1848000D02*
Y1930500D01*
X4485000Y1952501D02*
X4507000Y1930500D01*
X4565000Y1850000D02*
Y1937501D01*
X4582500Y1955000D01*
X4224020Y1524000D02*
X4289000D01*
X4290000Y1525001D01*
X1525000Y1795000D02*
X1525000Y1795000D01*
X1525000Y1795000D02*
Y1817500D01*
X1575000Y1767500D02*
Y1817500D01*
X1630000D02*
X1645000Y1832500D01*
X1575000Y1817500D02*
X1630000D01*
X1712500Y1832500D02*
Y1924780D01*
X1676400Y1960880D02*
X1712500Y1924780D01*
X1376680Y1960880D02*
X1676400D01*
X1450340Y2908540D02*
X1453000Y2911200D01*
X4532500Y2965000D02*
X4582500D01*
X4482500D02*
X4532500D01*
X4476620Y1960880D02*
X4485000Y1952501D01*
X4383320Y1960880D02*
X4476620D01*
X4582500Y1955000D02*
Y1960001D01*
X4485000Y2042000D02*
Y2042500D01*
X4507000Y1848000D02*
X4510000Y1845000D01*
X4560000D02*
X4565000Y1850000D01*
X4790440Y2332060D02*
Y2384560D01*
Y2332060D02*
X4792500Y2330000D01*
X4732500Y2442500D02*
X4790440Y2384560D01*
X4732500Y2442500D02*
Y2465000D01*
X4890000Y2330000D02*
Y2404880D01*
X4810760Y2484120D02*
Y2535000D01*
X4820920D01*
X4815920Y2540000D02*
X4820920Y2535000D01*
X4807500Y2540000D02*
X4815920D01*
X4052500Y1530000D02*
X4053420Y1529080D01*
X4212200Y1325000D02*
X4290000D01*
X4052500Y1440000D02*
X4142920D01*
X4207920Y1375000D01*
X4290000D01*
X1961000Y3618800D02*
X1963420Y3616380D01*
Y3456940D02*
Y3616380D01*
X1715800Y1536700D02*
X1755140D01*
X1715000Y1537500D02*
X1715800Y1536700D01*
X1651480Y1463520D02*
X1667500Y1447500D01*
X1597500Y1517500D02*
X1651480Y1463520D01*
X1834000Y2911200D02*
X1836420Y2908780D01*
Y2773680D02*
Y2908780D01*
X176000Y3102080D02*
X198580D01*
X1199000Y2911200D02*
Y3050420D01*
X1196340Y3053080D02*
X1199000Y3050420D01*
X1580000Y2911200D02*
Y3093600D01*
X1579880Y3093720D02*
X1580000Y3093600D01*
X1326000Y3444360D02*
Y3618800D01*
X1701800Y2906000D02*
X1707000Y2911200D01*
X1701800Y2763520D02*
Y2906000D01*
X1645920Y3192780D02*
X1834000Y3380860D01*
X836516Y3192780D02*
X1645920D01*
X469237Y2825500D02*
X836516Y3192780D01*
X574670Y3079500D02*
X711220Y3216050D01*
Y3295180D01*
X430000Y3079500D02*
X574670D01*
X1199000Y2911200D02*
X1326000D01*
X430000Y2825500D02*
X469237D01*
X1834000Y3380860D02*
Y3618800D01*
X1580000D02*
X1707000D01*
X1276820Y3395180D02*
X1326000Y3444360D01*
X878820Y3395180D02*
X1276820D01*
X1377480Y3295180D02*
X1453000Y3370700D01*
Y3618800D01*
X878820Y3295180D02*
X1377480D01*
X604520Y3352800D02*
X646900Y3395180D01*
X711220D01*
X604520Y3248660D02*
Y3352800D01*
X561340Y3205480D02*
X604520Y3248660D01*
X301980Y3205480D02*
X561340D01*
X198580Y3102080D02*
X301980Y3205480D01*
X176000Y3079500D02*
Y3102080D01*
X2762500Y3562500D02*
X2765000Y3560000D01*
Y3337500D02*
Y3560000D01*
X2762500Y3885001D02*
X2764999Y3887500D01*
X2762500Y3672500D02*
Y3885001D01*
X2980000Y3675000D02*
Y3887500D01*
Y3335000D02*
Y3565000D01*
X3190000Y3560000D02*
X3195000Y3565000D01*
X3190000Y3335000D02*
Y3560000D01*
X3192500Y3887500D02*
X3195000Y3885000D01*
Y3675000D02*
Y3885000D01*
X3407500Y3887500D02*
X3410000Y3885000D01*
Y3675000D02*
Y3885000D01*
X3402500Y3557500D02*
X3410000Y3565000D01*
X3402500Y3335000D02*
Y3557500D01*
X2763520Y3235960D02*
X2764260Y3236700D01*
Y3336760D01*
X2765000Y3337500D01*
X4140200Y2667000D02*
X4178000D01*
X4182500Y2662500D01*
X2980980Y3242020D02*
X2981960Y3241040D01*
X2980980Y3242020D02*
Y3334020D01*
X2980000Y3335000D02*
X2980980Y3334020D01*
X4181360Y2771140D02*
X4182500Y2770000D01*
X3185160Y3235960D02*
X3187580Y3238380D01*
Y3332580D01*
X3190000Y3335000D01*
X4182340Y2867660D02*
X4182500Y2867500D01*
X3403050Y3239050D02*
X3403600Y3238500D01*
X3403050Y3239050D02*
Y3334450D01*
X3402500Y3335000D02*
X3403050Y3334450D01*
X4178240Y2969260D02*
X4182500Y2965000D01*
X3995440Y3335000D02*
X4162340Y3168100D01*
X3555000Y3335000D02*
X3995440D01*
X4162340Y3058160D02*
Y3168100D01*
X4231640Y2664460D02*
X4252180Y2685000D01*
X4184460Y2664460D02*
X4231640D01*
X4182500Y2662500D02*
X4184460Y2664460D01*
X4302500Y2685000D02*
X4307500Y2690000D01*
X4252180Y2685000D02*
X4302500D01*
X4162340Y3058160D02*
X4234180D01*
X4307500Y2984840D01*
Y2890000D02*
Y2984840D01*
X4285000Y2840000D02*
X4307500D01*
X4217500Y2740000D02*
X4307500D01*
X4187500Y2770000D02*
X4217500Y2740000D01*
X4182500Y2867500D02*
X4187500D01*
X4302500Y2795000D02*
X4307500Y2790000D01*
X4182500Y2770000D02*
X4187500D01*
X3937500Y1537500D02*
X4045000D01*
X4050000Y1437500D02*
X4052500Y1440000D01*
X3937500Y1437500D02*
X4050000D01*
X4045000Y1537500D02*
X4052500Y1530000D01*
X3810000Y1807500D02*
X3827500Y1790000D01*
Y1537500D02*
Y1790000D01*
X3817500Y1447500D02*
X3827500Y1437500D01*
X3655000Y1447500D02*
X3817500D01*
X2250440Y1599080D02*
X2266640D01*
X2250440D02*
X2265680Y1614320D01*
X2270760Y1579880D02*
X2288139Y1562501D01*
X2498499D01*
X2270760Y1579880D02*
Y1597500D01*
X2268220D02*
X2270760D01*
X2266640Y1599080D02*
X2268220Y1597500D01*
X2260000Y1620001D02*
X2265680Y1614320D01*
X2358999Y1626500D02*
X2498499D01*
X2352499Y1620001D02*
X2358999Y1626500D01*
X2397760Y1755761D02*
X2497239D01*
X2498499Y1754500D01*
X2352499Y1710500D02*
X2397760Y1755761D01*
X2352499Y1710000D02*
Y1710500D01*
X2333500Y1818501D02*
X2498499D01*
X2168840Y1925000D02*
X2245000D01*
X2146300Y1902460D02*
X2168840Y1925000D01*
X2146300Y1728700D02*
X2164999Y1710000D01*
X2327499Y1817501D02*
X2332500D01*
X2282000Y1772001D02*
X2327499Y1817501D01*
X2282000Y1732001D02*
Y1772001D01*
X2260000Y1710000D02*
X2282000Y1732001D01*
X2332500Y1817501D02*
X2333500Y1818501D01*
X2242499Y1990001D02*
Y2052501D01*
X2486499Y1958501D02*
X2498499Y1946501D01*
X2242499Y1927501D02*
X2245000Y1925000D01*
X2342500Y2052001D02*
Y2052501D01*
X3320000Y1347500D02*
X3340000Y1327500D01*
X3320000Y1347500D02*
Y1372180D01*
X3211360Y1480820D02*
X3320000Y1372180D01*
X3206360Y1480820D02*
X3211360D01*
X3226120Y1335000D02*
X3230880Y1330240D01*
X3144520Y1344520D02*
Y1470660D01*
X3135000Y1335000D02*
X3144520Y1344520D01*
X3041499Y1498500D02*
X3053499Y1486500D01*
X3042499Y1225001D02*
X3332500D01*
X3422100Y1681480D02*
X3427180Y1676400D01*
X3316360Y1681480D02*
X3422100D01*
X3211520Y1800860D02*
X3216520D01*
X3165160Y1754500D02*
X3211520Y1800860D01*
X3041499Y1754500D02*
X3165160D01*
X3209261Y1882500D02*
X3219060Y1892300D01*
X3041499Y1882500D02*
X3209261D01*
X3147499Y1946501D02*
X3164739Y1963740D01*
X3199060D01*
X3219060Y1983740D01*
X3041499Y1946501D02*
X3147499D01*
X711220Y3345180D02*
X764540D01*
X1960880Y2786380D02*
X1961000Y2786500D01*
Y2911200D01*
X723900Y2880360D02*
X777140D01*
X777500Y2880000D01*
X1135800Y2590800D02*
X1231900D01*
X1135000Y2590000D02*
X1135800Y2590800D01*
X1136280Y2458720D02*
X1229360D01*
X1135000Y2460000D02*
X1136280Y2458720D01*
X3485000Y4037500D02*
X3485770Y4038270D01*
X3492170D01*
X3495040Y4041140D01*
X3407500Y4037500D02*
X3485000D01*
X2677160Y4036060D02*
X2678600Y4037500D01*
X2764999D01*
X3192500D02*
X3407500D01*
X2980000D02*
X3192500D01*
X2764999D02*
X2980000D01*
X4518660Y4038600D02*
X4520060Y4040000D01*
X4615000D01*
X5059680Y3776980D02*
X5060548Y3777848D01*
X5134764D01*
X5196840Y3545840D02*
X5198840Y3547840D01*
X5292260D01*
X4853940Y3543300D02*
X4912720D01*
X4914760Y3545340D01*
X5280940Y3075940D02*
X5331460D01*
X5280000Y3075000D02*
X5280940Y3075940D01*
X5155200Y3187700D02*
X5237480D01*
X5152500Y3185000D02*
X5155200Y3187700D01*
X5059680Y2087880D02*
Y2129180D01*
X5060000Y2129500D01*
X5062220Y2327720D02*
Y2367280D01*
X5060000Y2325500D02*
X5062220Y2327720D01*
X5237480Y2479040D02*
Y2577020D01*
X5234500Y2580000D02*
X5237480Y2577020D01*
X5214620Y2392620D02*
Y2428240D01*
X5212000Y2390000D02*
X5214620Y2392620D01*
X5480820Y2138680D02*
X5595620D01*
X5479500Y2140000D02*
X5480820Y2138680D01*
X5479520Y2379980D02*
X5593080D01*
X5479500Y2380000D02*
X5479520Y2379980D01*
X5232400Y2582100D02*
Y2682240D01*
Y2582100D02*
X5234500Y2580000D01*
X5011420Y2588260D02*
X5066740D01*
X5070000Y2585000D01*
X5085080Y2792420D02*
Y2837180D01*
Y2792420D02*
X5087500Y2790000D01*
X4904740Y2969260D02*
X4978240D01*
X4982500Y2965000D01*
X4859020Y3203480D02*
Y3241040D01*
Y3203480D02*
X4862500Y3200000D01*
X4333240Y3175000D02*
X4497500D01*
X4510040Y3172460D02*
X4559300D01*
X4502500Y3180000D02*
X4510040Y3172460D01*
X4497500Y3175000D02*
X4502500Y3180000D01*
X4010660Y3060700D02*
X4069800D01*
X4072340Y3058160D01*
X4072500Y2965000D02*
Y3058000D01*
Y2867500D02*
Y2965000D01*
Y2770000D02*
Y2867500D01*
Y2662500D02*
Y2770000D01*
X4072340Y3058160D02*
X4072500Y3058000D01*
X4071620Y2611120D02*
Y2661620D01*
X4072500Y2662500D01*
X4890000Y2240000D02*
X4892820Y2242820D01*
X4395000Y2250000D02*
X4405000Y2240000D01*
X4792500D02*
X4890000D01*
X4695000D02*
X4792500D01*
X4597500D02*
X4695000D01*
X4500000D02*
X4597500D01*
X4405000D02*
X4500000D01*
X5225000Y1825000D02*
Y1930500D01*
X5234500Y1940000D01*
X4975000Y1925000D02*
Y1977500D01*
X4977500Y1980000D01*
X5000000Y1825000D02*
X5050000D01*
X4995000Y1820000D02*
X5000000Y1825000D01*
X5260000Y1242513D02*
Y1307500D01*
Y1242513D02*
X5267504Y1235008D01*
X4965000Y1217500D02*
X5022500D01*
X5025000Y1220000D01*
X5192500Y987500D02*
X5272500D01*
X5275000Y990000D01*
X4895000Y745000D02*
Y792500D01*
X4897500Y795000D01*
X4665000Y1047500D02*
X4717500D01*
X4717500Y1047500D01*
X4325000Y1045000D02*
X4384999D01*
X4387500Y1047501D01*
X4012500Y1987500D02*
Y2035000D01*
Y1987500D02*
X4015001Y1985000D01*
X4017500Y1745000D02*
Y1790000D01*
X4015000Y1792500D02*
X4017500Y1790000D01*
X3907500Y1662500D02*
X3957500D01*
X3960000Y1660000D01*
X3342500Y1220000D02*
X3392500D01*
X3340000Y1217500D02*
X3342500Y1220000D01*
X2987500Y1225000D02*
X3042499D01*
X3042499Y1225001D01*
X3332500D02*
X3340000Y1217500D01*
X2922500Y1820000D02*
X2923999Y1818501D01*
X3041499D01*
X3042000Y2010000D02*
X3142500D01*
X3041499Y2010500D02*
X3042000Y2010000D01*
X3000000Y2392500D02*
Y2432500D01*
Y2392500D02*
X3002499Y2390000D01*
X3100000Y2390001D02*
Y2440000D01*
X3099999Y2390000D02*
X3100000Y2390001D01*
X3002499Y2390000D02*
X3099999D01*
X2595000Y2385001D02*
Y2440000D01*
X2595000Y2385001D02*
X2595000Y2385001D01*
X2500000Y2385001D02*
Y2437500D01*
X2500000Y2385001D02*
X2500000Y2385001D01*
X2500000Y2385001D02*
X2595000D01*
X2347500Y1315000D02*
X2404999D01*
X2405000Y1315000D01*
X2606499Y1498500D02*
X2607500Y1497500D01*
X2498499Y1498500D02*
X2606499D01*
X2498499Y1690501D02*
X2613001D01*
X2615000Y1692500D01*
X2242499Y2142500D02*
X2342500D01*
X2345000Y2140000D02*
X2400000D01*
X2342500Y2142500D02*
X2345000Y2140000D01*
X2182500D02*
X2239999D01*
X2242499Y2142500D01*
X2115000Y2290000D02*
Y2365000D01*
X1917500Y2297500D02*
Y2367500D01*
Y2297500D02*
X1925000Y2290000D01*
X972500Y2212500D02*
X1049000D01*
X1052500Y2216000D01*
Y1962500D02*
Y2024000D01*
X955000Y1867500D02*
X955000Y1867500D01*
X925000Y1867500D02*
X955000D01*
X1547500Y1867500D02*
X1547500Y1867500D01*
X1575000D01*
X1500000Y1515000D02*
X1502500Y1517500D01*
X1525000D01*
X1325000Y1567500D02*
X1350000D01*
X1555000Y1717500D02*
X1575000D01*
X1820000Y1835000D02*
Y1872500D01*
Y1835000D02*
X1822500Y1832500D01*
X1802500Y1730000D02*
X1845000D01*
X1802500Y1730000D02*
X1802500Y1730000D01*
X1805000Y1627500D02*
X1847500D01*
X1802500Y1630000D02*
X1805000Y1627500D01*
X1822500Y1482500D02*
Y1535000D01*
X1825000Y1537500D01*
Y1377500D02*
Y1427500D01*
X2067500Y427500D02*
Y695000D01*
Y427500D02*
X2072500Y422500D01*
X935000Y432500D02*
Y700000D01*
X932500Y430000D02*
X935000Y432500D01*
X915000Y965000D02*
X917500Y967500D01*
Y1050000D01*
X925000Y1717500D02*
X952500D01*
X822500Y1470000D02*
Y1515000D01*
X820000Y1517500D02*
X822500Y1515000D01*
X780000Y1355000D02*
X827500D01*
X830000Y1357500D01*
X2080001Y1620001D02*
X2164999D01*
X2017506Y1682495D02*
X2080001Y1620001D01*
X2017506Y1857495D02*
X2020000Y1859989D01*
Y2050000D01*
X2022500Y2052500D02*
Y2100000D01*
X2020000Y2050000D02*
X2022500Y2052500D01*
X1990000Y2132500D02*
X2022500Y2100000D01*
X1757500Y2132500D02*
X1990000D01*
X1445000Y2120000D02*
X1457500Y2132500D01*
X1262500Y2120000D02*
X1445000D01*
X1262500D02*
X1275000Y2107500D01*
Y1717500D02*
Y2107500D01*
X1667500Y1447500D02*
X1695000D01*
X1715000Y1427500D01*
X1575000Y1517500D02*
X1597500D01*
X1640000Y1537500D02*
X1715000D01*
X1610000Y1567500D02*
X1640000Y1537500D01*
X1575000Y1567500D02*
X1610000D01*
D47*
X4545388Y2375540D02*
X4575000Y2405152D01*
X4545040Y2375540D02*
X4545388D01*
X4500000Y2330500D02*
X4545040Y2375540D01*
X4575000Y2457500D02*
X4582500Y2465000D01*
X4575000Y2405152D02*
Y2457500D01*
X4500000Y2330000D02*
Y2330500D01*
X4942840Y2867660D02*
X5046980D01*
X5056500Y2877180D01*
X5074680D01*
X5152500Y2955000D01*
Y2965000D01*
X4867500Y2792320D02*
X4942840Y2867660D01*
X4864100Y2943860D02*
Y3108400D01*
X4855313Y2847500D02*
X4867500Y2859687D01*
X4864100Y2943860D02*
X4867500Y2940460D01*
Y2859687D02*
Y2940460D01*
X4785360Y3055620D02*
Y3089641D01*
X4765000Y3110000D02*
X4785360Y3089641D01*
Y3055620D02*
X4807500Y3033480D01*
Y2890000D02*
Y3033480D01*
X4187500Y2560500D02*
X4259500Y2632500D01*
X4300000D02*
X4307500Y2640000D01*
X4187500Y2560000D02*
Y2560500D01*
X4259500Y2632500D02*
X4300000D01*
X4187500Y2965000D02*
X4240000Y2912500D01*
Y2872000D02*
Y2912500D01*
X4182500Y2965000D02*
X4187500D01*
X4240000Y2872000D02*
X4264500Y2847500D01*
X4300000D01*
X4307500Y2840000D01*
X4395700Y2088200D02*
X4400460Y2092960D01*
X4378960Y2086060D02*
X4388400Y2095500D01*
X4378960Y2052320D02*
Y2086060D01*
X4361180Y2034540D02*
X4378960Y2052320D01*
X4311547Y2034540D02*
X4361180D01*
X4292600Y1990640D02*
X4300220Y1983020D01*
X4292600Y2015593D02*
X4311547Y2034540D01*
X4302760Y1917700D02*
X4426620D01*
X4452500Y1891820D01*
Y1852500D02*
Y1891820D01*
Y1852500D02*
X4460000Y1845000D01*
X3041499Y1562501D02*
X3055999Y1548001D01*
X3201360Y1480820D02*
X3206360D01*
X3164960Y1517220D02*
X3201360Y1480820D01*
X3164580Y1517220D02*
X3164960D01*
X3133799Y1548001D02*
X3164580Y1517220D01*
X3055999Y1548001D02*
X3133799D01*
X1668780Y1727200D02*
X1709700D01*
X1712240Y1729740D01*
X2309999Y1900500D02*
X2334500Y1925000D01*
X2334999D01*
X2309999Y1893680D02*
Y1900500D01*
X2283160Y1866841D02*
X2309999Y1893680D01*
X2276840Y1866841D02*
X2283160D01*
X2227500Y1817501D02*
X2276840Y1866841D01*
X2222500Y1817501D02*
X2227500D01*
X1712240Y1722120D02*
Y1729740D01*
Y1722120D02*
X1712500Y1721860D01*
Y1630000D02*
Y1721860D01*
X1355237Y1718457D02*
X1356360Y1719580D01*
X1325956Y1718457D02*
X1355237D01*
X1325000Y1717500D02*
X1325956Y1718457D01*
X1575000Y1617500D02*
X1700000D01*
X1712500Y1630000D01*
X1712500Y1630000D02*
X1712500Y1630000D01*
X4400460Y2092960D02*
X4427220D01*
X4452620Y2118360D01*
X4556640D01*
X4575000Y2100000D01*
Y2072500D02*
Y2100000D01*
Y2072500D02*
X4582500Y2065000D01*
X4615000Y3890000D02*
X4620000Y3885000D01*
Y3690000D02*
Y3885000D01*
X4919980Y2788920D02*
X4976420D01*
X4977500Y2790000D01*
X4871060Y2740000D02*
X4919980Y2788920D01*
X4807500Y2740000D02*
X4871060D01*
X5260000Y2965000D02*
X5280000Y2985000D01*
X5152500Y2965000D02*
X5260000D01*
X4809820Y2792320D02*
X4867500D01*
X4807500Y2790000D02*
X4809820Y2792320D01*
X4930000Y3132500D02*
X4982500Y3185000D01*
X4885000Y3132500D02*
X4930000D01*
X4862500Y3110000D02*
X4885000Y3132500D01*
X4862500Y3110000D02*
X4864100Y3108400D01*
X4815000Y2847500D02*
X4855313D01*
X4807500Y2840000D02*
X4815000Y2847500D01*
X4293973Y1926487D02*
X4302760Y1917700D01*
X4293973Y1926487D02*
Y1975467D01*
X4293320Y1976120D02*
X4293973Y1975467D01*
X4292600Y1990640D02*
Y2015593D01*
X4293320Y1976120D02*
X4300220Y1983020D01*
D48*
X4996966Y2251226D02*
X5001103Y2255363D01*
X4959009Y2462530D02*
X4961890D01*
X4919980Y2449993D02*
Y2641971D01*
Y2449993D02*
X4945943Y2424030D01*
X4874255Y2649000D02*
X4912951D01*
X4919980Y2641971D01*
X4945943Y2424030D02*
X4980806D01*
X4985806Y2429030D01*
X4992030D01*
X4967538Y2219406D02*
X4991445Y2195500D01*
X5060000D01*
X4965146Y2219406D02*
X4967538D01*
X5055863Y2255363D02*
X5060000Y2259500D01*
X5001103Y2255363D02*
X5055863D01*
X4874255Y2649000D02*
X4874255Y2649000D01*
X4816500Y2649000D02*
X4874255D01*
X4807500Y2640000D02*
X4816500Y2649000D01*
X4951980Y2469559D02*
Y2655225D01*
X4861000Y2681000D02*
X4926205D01*
X4861000Y2681000D02*
X4861000Y2681000D01*
X4846029Y2681000D02*
X4861000D01*
X4816500Y2681000D02*
X4846029D01*
X4807500Y2690000D02*
X4816500Y2681000D01*
X4846029D02*
X4846029Y2681000D01*
X4951980Y2469559D02*
X4959009Y2462530D01*
X4926205Y2681000D02*
X4951980Y2655225D01*
X5198000Y2209000D02*
X5212000Y2195000D01*
X5145971Y2209000D02*
X5198000D01*
X5143471Y2211500D02*
X5145971Y2209000D01*
X5106000Y2211500D02*
X5143471D01*
X5106000Y2211500D02*
X5106000Y2211500D01*
X5088500Y2211500D02*
X5106000D01*
X5072500Y2195500D02*
X5088500Y2211500D01*
X5060000Y2195500D02*
X5072500D01*
X5198000Y2246000D02*
X5212000Y2260000D01*
X5145971Y2246000D02*
X5198000D01*
X5143471Y2243500D02*
X5145971Y2246000D01*
X5119255Y2243500D02*
X5143471D01*
X5119255Y2243500D02*
X5119255Y2243500D01*
X5088500Y2243500D02*
X5119255D01*
X5072500Y2259500D02*
X5088500Y2243500D01*
X5060000Y2259500D02*
X5072500D01*
D49*
X4378740Y3096260D02*
X4382500Y3092500D01*
X4323080Y3096260D02*
X4378740D01*
X4390580Y2324100D02*
X4400740Y2334260D01*
X4358640Y2324100D02*
X4390580D01*
X1602740Y1379220D02*
X1653540Y1328420D01*
X1572260Y1416133D02*
Y1464760D01*
X1575000Y1467500D01*
X1572260Y1416133D02*
X1602740Y1385653D01*
Y1384300D02*
Y1385653D01*
Y1379220D02*
Y1384300D01*
X4400740Y2334260D02*
X4405000Y2330000D01*
X4382500Y2965000D02*
Y3092500D01*
X1122680Y3624580D02*
X1193220D01*
X1199000Y3618800D01*
X878820Y3345180D02*
X922020D01*
X788740Y2778760D02*
X848360D01*
X777500Y2790000D02*
X788740Y2778760D01*
X695960Y2655960D02*
Y2707960D01*
X695000Y2655000D02*
X695960Y2655960D01*
Y2707960D02*
X777500Y2789500D01*
Y2790000D01*
X1575000Y1465780D02*
Y1467500D01*
X5443755Y1073746D02*
X5445006Y1072495D01*
X5443755Y1073746D02*
Y1233757D01*
X5442504Y1235008D02*
X5443755Y1233757D01*
X5531552Y1235008D02*
X5532120Y1234440D01*
X5442504Y1235008D02*
X5531552D01*
X5064760Y1917700D02*
Y1977260D01*
X5067500Y1980000D01*
X5217160Y2082800D02*
Y2125000D01*
X5212160Y2130000D02*
X5217160Y2125000D01*
X5212000Y2130000D02*
X5212160D01*
X5294764Y3642840D02*
X5427500D01*
X5292260D02*
X5294764D01*
X5309764Y3657840D01*
Y3777848D01*
X5452254Y3450345D02*
Y3618086D01*
X5427500Y3642840D02*
X5452254Y3618086D01*
X5451006Y3451593D02*
X5452254Y3450345D01*
X5293507Y3451593D02*
X5451006D01*
X5292260Y3452840D02*
X5293507Y3451593D01*
X5450840Y3200400D02*
Y3273931D01*
X5452254Y3275345D01*
X4914760Y3455340D02*
X4916010Y3454090D01*
X5041010D01*
X5042260Y3452840D01*
X4848860Y3456940D02*
X4913160D01*
X4914760Y3455340D01*
X4620260Y3520440D02*
Y3579740D01*
X4620000Y3580000D02*
X4620260Y3579740D01*
X3610000Y1662500D02*
X3655000Y1617500D01*
X3531080Y1662500D02*
X3610000D01*
X3517180Y1676400D02*
X3531080Y1662500D01*
X3632500Y1800000D02*
X3640000Y1807500D01*
X3515000Y1800000D02*
X3632500D01*
X3424570Y1800430D02*
X3425000Y1800000D01*
X3326950Y1800430D02*
X3424570D01*
X3326520Y1800860D02*
X3326950Y1800430D01*
X3327400Y1892300D02*
X3329060D01*
X762500Y1230000D02*
X917500D01*
X640000Y1107500D02*
X762500Y1230000D01*
X917500D02*
X920000Y1232500D01*
X640000Y1027500D02*
Y1107500D01*
X920000Y1357500D02*
Y1462500D01*
X925000Y1467500D01*
X920000Y1232500D02*
Y1357500D01*
X820000Y1607500D02*
X830000Y1617500D01*
X925000D01*
X690000Y1607500D02*
X820000D01*
X677500Y1620000D02*
X690000Y1607500D01*
X590000Y1620000D02*
X677500D01*
X552500Y1582500D02*
X590000Y1620000D01*
X552500Y1522500D02*
Y1582500D01*
X507500Y1477500D02*
X552500Y1522500D01*
X283000Y1477500D02*
X507500D01*
X162500Y1357000D02*
X283000Y1477500D01*
X582500Y970000D02*
X640000Y1027500D01*
X283500Y970000D02*
X582500D01*
X162500Y849000D02*
X283500Y970000D01*
D50*
X4691460Y1971040D02*
X4710000Y1952500D01*
Y1845000D02*
Y1952500D01*
X4660900Y1971040D02*
X4691460D01*
X5002200Y1452880D02*
X5077460D01*
X4999660Y1450340D02*
X5002200Y1452880D01*
X4997500Y1452500D02*
X4999660Y1450340D01*
X4106089Y1988272D02*
X4107180Y1987181D01*
X4106279Y1986280D02*
X4108819Y1983740D01*
X4106279Y1986280D02*
X4107180Y1987181D01*
X4104999Y1985000D02*
X4106279Y1986280D01*
X4106089Y2038529D02*
X4107180Y2039620D01*
X4106089Y1988272D02*
Y2038529D01*
X4223223Y1780242D02*
X4225965Y1777500D01*
X4211320Y1792145D02*
X4223223Y1780242D01*
X4211320Y1792145D02*
Y1818640D01*
X4181138Y1780242D02*
X4223223D01*
X4179225Y1782155D02*
X4181138Y1780242D01*
X4153360Y1965500D02*
X4273860Y1845000D01*
X4410000Y1255001D02*
X4410000Y1255000D01*
X4360000Y1255001D02*
X4410000D01*
X4880000Y1675000D02*
Y1725000D01*
Y1475000D02*
Y1525001D01*
X4658360Y1130300D02*
X4710300D01*
X4717500Y1137500D01*
X4389620Y1135380D02*
X4390680Y1136440D01*
X4441400D02*
X4442460Y1135380D01*
X4390680Y1136440D02*
X4441400D01*
X4387500Y1137500D02*
X4389620Y1135380D01*
X4997280Y1732280D02*
X5054600D01*
X4995000Y1730000D02*
X4997280Y1732280D01*
X4882500Y1727500D02*
X4992500D01*
X4995000Y1730000D01*
X4059000Y1651000D02*
X4107180D01*
X4050000Y1660000D02*
X4059000Y1651000D01*
X176280Y2571500D02*
X302260Y2697480D01*
X176000Y2571500D02*
X176280D01*
X302260Y2697480D02*
X528320D01*
X571500Y2654300D01*
Y2567940D02*
Y2654300D01*
Y2567940D02*
X604440Y2535000D01*
X685000D01*
X695000Y2525000D01*
X176000Y2317500D02*
X296900Y2438400D01*
X480060D01*
X501660Y2460000D01*
X695000D01*
X816140Y2590000D02*
X840740Y2565400D01*
X695000Y2590000D02*
X816140D01*
X840740Y2392680D02*
Y2565400D01*
X765560Y2317500D02*
X840740Y2392680D01*
X430000Y2317500D02*
X765560D01*
X4880000Y1725000D02*
X4882500Y1727500D01*
X4948620Y1472500D02*
X4948620Y1472500D01*
X4978000D01*
X4997500Y1453000D01*
Y1452500D02*
Y1453000D01*
X4882500Y1472500D02*
X4948620D01*
X4880000Y1475000D02*
X4882500Y1472500D01*
X5135000Y1220000D02*
X5140000D01*
X5157500Y1202500D01*
Y1175000D02*
Y1202500D01*
Y1175000D02*
X5247500Y1085000D01*
X5275000D01*
X5442511Y895000D02*
X5445006Y897495D01*
X5275000Y895000D02*
X5442511D01*
X4897500Y885000D02*
X4902500Y890000D01*
X5020000D01*
X5025000Y895000D01*
X4818800Y1137500D02*
X4897500Y1058800D01*
X4717500Y1137500D02*
X4818800D01*
X4897500Y885000D02*
Y1058800D01*
X4710000Y1255000D02*
X4712500Y1252500D01*
Y1142500D02*
Y1252500D01*
Y1142500D02*
X4717500Y1137500D01*
X4407000Y1186280D02*
X4407500Y1186780D01*
Y1252500D01*
X4410000Y1255000D01*
X4407000Y1157000D02*
Y1186280D01*
X4387500Y1137500D02*
X4407000Y1157000D01*
X4147820Y1882140D02*
X4211320Y1818640D01*
X4110360Y1882140D02*
X4147820D01*
X4105000Y1887500D02*
X4110360Y1882140D01*
X4124999Y1965500D02*
X4153360D01*
X4273860Y1845000D02*
X4360000D01*
X4108819Y1981680D02*
Y1983740D01*
Y1981680D02*
X4124999Y1965500D01*
X4225965Y1777500D02*
X4287500D01*
X4290000Y1775000D01*
X4360000Y1845000D02*
X4410000D01*
X4410000Y1845000D01*
X4105000Y1714500D02*
X4115500Y1725000D01*
X4290000D01*
X4050500Y1660000D02*
X4105000Y1714500D01*
X4050000Y1660000D02*
X4050500D01*
X4105000Y1714500D02*
Y1792500D01*
X2907499Y1249500D02*
X2972999Y1315000D01*
X2907499Y1155000D02*
Y1249500D01*
X2972999Y1315000D02*
X3042499D01*
Y1433501D01*
X3041499Y1434501D02*
X3042499Y1433501D01*
D51*
X1648460Y1193800D02*
X1700140D01*
X1434220D02*
Y1263260D01*
X1029980Y1667500D02*
X1434220Y1263260D01*
X925000Y1667500D02*
X1029980D01*
X1178560Y1140460D02*
Y1445260D01*
X1056320Y1567500D02*
X1178560Y1445260D01*
X925000Y1567500D02*
X1056320D01*
X1551940Y1196560D02*
Y1275080D01*
Y1196560D02*
X1703500Y1045000D01*
Y1022500D02*
Y1045000D01*
X1009520Y1817500D02*
X1551940Y1275080D01*
X1511500Y1022500D02*
Y1243720D01*
X987720Y1767500D02*
X1511500Y1243720D01*
X925000Y1817500D02*
X1009520D01*
X925000Y1767500D02*
X987720D01*
X1030120Y1517500D02*
X1136500Y1411120D01*
X925000Y1517500D02*
X1030120D01*
X1136500Y1035000D02*
Y1411120D01*
X1356360Y813810D02*
X1424940D01*
X1243690D02*
X1356360D01*
X1357500Y812670D01*
Y272500D02*
Y812670D01*
X1232500Y825000D02*
X1243690Y813810D01*
X1426250Y812500D02*
X1607500D01*
X1424940Y813810D02*
X1426250Y812500D01*
X1424940Y813810D02*
Y1093080D01*
X1350720Y1167300D02*
X1424940Y1093080D01*
X1350720Y1167300D02*
Y1172300D01*
X1329220Y1193800D02*
X1350720Y1172300D01*
X1324220Y1193800D02*
X1329220D01*
X1178560Y1140460D02*
X1237520Y1081500D01*
X1304500D01*
X1328500Y1057500D01*
Y1035000D02*
Y1057500D01*
X4879340Y1775660D02*
X4880000Y1775000D01*
X4879340Y1775660D02*
Y1833880D01*
X4765040Y3200040D02*
Y3246120D01*
X4765000Y3200000D02*
X4765040Y3200040D01*
X4454958Y3041959D02*
X4464430Y3051430D01*
X4432500Y3028000D02*
X4446459Y3041959D01*
X4454958D01*
X4432500Y2965000D02*
Y3028000D01*
X2494999Y1373001D02*
Y1431001D01*
Y1315000D02*
Y1373001D01*
X2496820Y1374821D01*
X2331720Y2603500D02*
X2387600Y2547620D01*
X1323340Y2603500D02*
X2331720D01*
X1271840Y2655000D02*
X1323340Y2603500D01*
X1135000Y2655000D02*
X1271840D01*
X2494999Y1431001D02*
X2498499Y1434501D01*
X3197340Y1690501D02*
X3206360Y1681480D01*
X3041499Y1690501D02*
X3197340D01*
X1645000Y1832500D02*
X1712500D01*
D52*
X3329060Y1892300D02*
Y1983740D01*
X3317630Y1568450D02*
X3318900Y1569720D01*
X2881246Y2301253D02*
X3098747D01*
X3275300Y2300000D02*
X3329060Y2246240D01*
Y1983740D02*
Y2246240D01*
X3099999Y2300000D02*
X3275300D01*
X2878738Y2476250D02*
X2879993Y2477506D01*
X2721261Y2476250D02*
X2878738D01*
X2720006Y2474995D02*
X2721261Y2476250D01*
X2502497Y2297498D02*
X2717509D01*
X2498499Y1882500D02*
X2654660D01*
X2720006Y1947846D01*
Y2299995D01*
X3098747Y2301253D02*
X3099999Y2300000D01*
X2879993Y2302506D02*
X2881246Y2301253D01*
X2717509Y2297498D02*
X2720006Y2299995D01*
X2500000Y2295001D02*
X2502497Y2297498D01*
X3317630Y1482090D02*
Y1568450D01*
X3316360Y1480820D02*
X3317630Y1482090D01*
D53*
X5479500Y2590000D02*
D03*
Y1930000D02*
D03*
D54*
X162500Y1865000D02*
D03*
D55*
X416500D02*
D03*
X162500Y1611000D02*
D03*
X416500D02*
D03*
X162500Y1357000D02*
D03*
X416500D02*
D03*
X162500Y1103000D02*
D03*
X416500D02*
D03*
X162500Y849000D02*
D03*
X416500D02*
D03*
D56*
X430000Y2317500D02*
D03*
D57*
X176000D02*
D03*
X430000Y2571500D02*
D03*
X176000D02*
D03*
X430000Y2825500D02*
D03*
X176000D02*
D03*
X430000Y3079500D02*
D03*
X176000D02*
D03*
X430000Y3333500D02*
D03*
X176000D02*
D03*
X430000Y3587500D02*
D03*
X176000D02*
D03*
D58*
X4478020Y2405380D02*
D03*
X4528820Y2415540D02*
D03*
X4681220Y3030220D02*
D03*
X4432300Y2415300D02*
D03*
X4137660Y2771140D02*
D03*
Y2867660D02*
D03*
X4140200Y2969260D02*
D03*
X4996966Y2251226D02*
D03*
X4993710Y2430710D02*
D03*
X4961890Y2462530D02*
D03*
X4384040Y2420620D02*
D03*
X4211960Y3621140D02*
D03*
X4867280Y3984360D02*
D03*
X5362580Y4022460D02*
D03*
X5692780Y2668640D02*
D03*
X5700400Y3222360D02*
D03*
X5685160Y3753220D02*
D03*
X5601340Y4207880D02*
D03*
X5037460Y4235820D02*
D03*
X4445640Y4243440D02*
D03*
X3990980Y4068180D02*
D03*
X3724280Y3659240D02*
D03*
X3561720Y4220580D02*
D03*
X3005460Y4228200D02*
D03*
X2461900Y4210420D02*
D03*
X2555880Y3278240D02*
D03*
X2566040Y3763380D02*
D03*
X2167260Y3456040D02*
D03*
X1369700Y4187560D02*
D03*
X2152020Y3877680D02*
D03*
X1887860Y4182480D02*
D03*
X1349380Y3936100D02*
D03*
X836300Y4141840D02*
D03*
X762640Y3740520D02*
D03*
X285120Y4012300D02*
D03*
X927740Y2975980D02*
D03*
X655960Y2043800D02*
D03*
X3615060Y3138540D02*
D03*
X5474340Y2887080D02*
D03*
X5390520Y1566280D02*
D03*
X2964820Y895720D02*
D03*
X3582040Y1200520D02*
D03*
X2063120Y1401180D02*
D03*
X2799720Y1533260D02*
D03*
X236860Y334380D02*
D03*
X711840Y387720D02*
D03*
X1550040Y359780D02*
D03*
X1931040Y372480D02*
D03*
X2459360Y1048120D02*
D03*
X5253360Y273420D02*
D03*
X4758060Y451220D02*
D03*
X4399920Y161660D02*
D03*
X4204340Y532500D02*
D03*
X3693800Y232780D02*
D03*
X2969900Y192140D02*
D03*
X3366140Y601080D02*
D03*
X3818260Y890640D02*
D03*
X3797940Y2211440D02*
D03*
X3498220Y2442580D02*
D03*
X2929260Y2996300D02*
D03*
X2408560Y3603360D02*
D03*
X2212980Y3146160D02*
D03*
X2576200Y2904860D02*
D03*
X2286640Y2813420D02*
D03*
X2548260Y2594980D02*
D03*
X4940300Y1325880D02*
D03*
X4734560Y3017520D02*
D03*
X4632960Y3035300D02*
D03*
X4323080Y3096260D02*
D03*
X4358640Y2324100D02*
D03*
X4813300Y1978660D02*
D03*
X4770120Y1915160D02*
D03*
X4660900Y1971040D02*
D03*
X4775000Y2050000D02*
D03*
X1668780Y1727200D02*
D03*
X680000Y1410000D02*
D03*
X1648460Y1193800D02*
D03*
X1434220D02*
D03*
X1602740Y1384300D02*
D03*
X1800860Y1313180D02*
D03*
X4965146Y2219406D02*
D03*
X4904740Y2204720D02*
D03*
X4094480Y1529080D02*
D03*
X4945380Y1374140D02*
D03*
X5077460Y1452880D02*
D03*
X5067300Y1361440D02*
D03*
X4180840Y1673860D02*
D03*
X4107180Y2039620D02*
D03*
X4179225Y1782155D02*
D03*
X4371340Y2237740D02*
D03*
X4589780Y3070860D02*
D03*
X4208780Y1572260D02*
D03*
X4221480Y1625600D02*
D03*
X5130800Y1366520D02*
D03*
X4699000Y2377440D02*
D03*
X4879340Y1833880D02*
D03*
X4765040Y3246120D02*
D03*
X4464430Y3051430D02*
D03*
X4856480Y2588260D02*
D03*
X5013960Y2674620D02*
D03*
X4615000Y2375170D02*
D03*
X2496820Y1374821D02*
D03*
X2387600Y2547620D02*
D03*
X1455420Y2689860D02*
D03*
X4658360Y1130300D02*
D03*
X4442460Y1135380D02*
D03*
X5054600Y1732280D02*
D03*
X4107180Y1651000D02*
D03*
X4224020Y1524000D02*
D03*
X1122680Y3624580D02*
D03*
X922020Y3345180D02*
D03*
X848360Y2778760D02*
D03*
X1525000Y1795000D02*
D03*
X5532120Y1234440D02*
D03*
X5064760Y1917700D02*
D03*
X5217160Y2082800D02*
D03*
X5450840Y3200400D02*
D03*
X4848860Y3456940D02*
D03*
X4620260Y3520440D02*
D03*
X1356360Y1719580D02*
D03*
X1376680Y1960880D02*
D03*
X4494920Y2625000D02*
D03*
X4569920D02*
D03*
X4644920D02*
D03*
Y2700000D02*
D03*
X4569920D02*
D03*
X4494920D02*
D03*
Y2775000D02*
D03*
X4569920D02*
D03*
X4644920D02*
D03*
X4719920D02*
D03*
Y2700000D02*
D03*
Y2625000D02*
D03*
Y2550000D02*
D03*
X4644920D02*
D03*
X4569920D02*
D03*
X4494920D02*
D03*
X4419920D02*
D03*
Y2625000D02*
D03*
Y2700000D02*
D03*
Y2775000D02*
D03*
X4719920Y2850000D02*
D03*
X4644920D02*
D03*
X4569920D02*
D03*
X4494920D02*
D03*
X4419920D02*
D03*
X4212200Y1325000D02*
D03*
X1963420Y3456940D02*
D03*
X1755140Y1536700D02*
D03*
X1836420Y2773680D02*
D03*
X1651480Y1463520D02*
D03*
X1196340Y3053080D02*
D03*
X1579880Y3093720D02*
D03*
X1326000Y3444360D02*
D03*
X1701800Y2763520D02*
D03*
X2763520Y3235960D02*
D03*
X4140200Y2667000D02*
D03*
X2981960Y3241040D02*
D03*
X3185160Y3235960D02*
D03*
X3403600Y3238500D02*
D03*
X3327400Y1892300D02*
D03*
X3317630Y1568450D02*
D03*
X764540Y3345180D02*
D03*
X1960880Y2786380D02*
D03*
X723900Y2880360D02*
D03*
X1231900Y2590800D02*
D03*
X1229360Y2458720D02*
D03*
X3495040Y4041140D02*
D03*
X2677160Y4036060D02*
D03*
X4518660Y4038600D02*
D03*
X5059680Y3776980D02*
D03*
X5196840Y3545840D02*
D03*
X4853940Y3543300D02*
D03*
X5331460Y3075940D02*
D03*
X5237480Y3187700D02*
D03*
X5059680Y2087880D02*
D03*
X5062220Y2367280D02*
D03*
X5237480Y2479040D02*
D03*
X5214620Y2428240D02*
D03*
X5595620Y2138680D02*
D03*
X5593080Y2379980D02*
D03*
X5232400Y2682240D02*
D03*
X5011420Y2588260D02*
D03*
X5085080Y2837180D02*
D03*
X4904740Y2969260D02*
D03*
X4859020Y3241040D02*
D03*
X4559300Y3172460D02*
D03*
X4333240Y3175000D02*
D03*
X4010660Y3060700D02*
D03*
X4071620Y2611120D02*
D03*
X5225000Y1825000D02*
D03*
X4975000Y1925000D02*
D03*
X5050000Y1825000D02*
D03*
X4600000Y1500000D02*
D03*
X4500000D02*
D03*
Y1600000D02*
D03*
X4600000D02*
D03*
X4780080D02*
D03*
Y1500000D02*
D03*
X4600000Y1400000D02*
D03*
X4500000D02*
D03*
X4400000D02*
D03*
X4405080Y1500000D02*
D03*
Y1600000D02*
D03*
X4780080Y1700000D02*
D03*
X4600000D02*
D03*
X4500000D02*
D03*
X4405080D02*
D03*
X5260000Y1307500D02*
D03*
X4965000Y1217500D02*
D03*
X5192500Y987500D02*
D03*
X4895000Y745000D02*
D03*
X4665000Y1047500D02*
D03*
X4325000Y1045000D02*
D03*
X4012500Y2035000D02*
D03*
X4017500Y1745000D02*
D03*
X3907500Y1662500D02*
D03*
X3392500Y1220000D02*
D03*
X2987500Y1225000D02*
D03*
X2922500Y1820000D02*
D03*
X3142500Y2010000D02*
D03*
X3000000Y2432500D02*
D03*
X3100000Y2440000D02*
D03*
X2595000D02*
D03*
X2347500Y1315000D02*
D03*
X2607500Y1497500D02*
D03*
X2615000Y1692500D02*
D03*
X2400000Y2140000D02*
D03*
X2182500D02*
D03*
X2115000Y2365000D02*
D03*
X1917500Y2367500D02*
D03*
X972500Y2212500D02*
D03*
X1052500Y1962500D02*
D03*
X955000Y1867500D02*
D03*
X1547500D02*
D03*
X1500000Y1515000D02*
D03*
X1350000Y1567500D02*
D03*
X1555000Y1717500D02*
D03*
X1820000Y1872500D02*
D03*
X1845000Y1730000D02*
D03*
X1847500Y1627500D02*
D03*
X1822500Y1482500D02*
D03*
X1825000Y1377500D02*
D03*
X2922500Y682500D02*
D03*
X2067500Y695000D02*
D03*
X1785000Y695000D02*
D03*
X935000Y700000D02*
D03*
X915000Y965000D02*
D03*
X952500Y1717500D02*
D03*
X822500Y1470000D02*
D03*
X780000Y1355000D02*
D03*
%TF.MD5,175007ceea53b9e5f007666e6208c033*%
M02*
