%TF.GenerationSoftware,Altium Limited,Altium Designer,19.1.7 (138)*%
G04 Layer_Color=8421504*
%FSLAX45Y45*%
%MOMM*%
%TF.FileFunction,Paste,Top*%
%TF.Part,Single*%
G01*
G75*
%TA.AperFunction,SMDPad,CuDef*%
%ADD10R,0.60000X0.35000*%
%ADD11R,0.75000X0.30000*%
%ADD12R,1.45000X1.15000*%
%ADD13R,0.65000X1.10000*%
%ADD14R,0.70000X0.60000*%
%ADD15R,0.70000X1.77500*%
%ADD16R,0.47500X0.30000*%
%ADD17R,1.40000X0.45000*%
%ADD18R,0.64000X0.65000*%
%ADD19R,0.60000X0.70000*%
%ADD20R,0.95000X0.90000*%
%ADD21R,1.15000X0.60000*%
%ADD22R,0.80000X0.80000*%
%ADD23R,1.10000X0.65000*%
%ADD24C,0.80000*%
%ADD25R,0.30000X0.75000*%
%ADD26R,3.85000X3.85000*%
%ADD27R,0.65000X0.64000*%
%ADD28R,1.20000X1.40000*%
%ADD29R,1.90000X1.90000*%
%ADD30R,1.40000X1.60000*%
%ADD31R,1.35000X0.40000*%
%ADD32R,1.20000X1.45000*%
%ADD33R,1.45000X1.20000*%
%TA.AperFunction,ConnectorPad*%
%ADD34R,1.60000X4.90000*%
%ADD35R,0.70000X2.35000*%
%TA.AperFunction,BGAPad,CuDef*%
%ADD36C,0.20000*%
%TA.AperFunction,SMDPad,CuDef*%
%ADD37R,0.30000X0.85000*%
%ADD38R,0.85000X0.30000*%
%ADD39R,4.25000X4.25000*%
%ADD40R,0.60000X0.85000*%
%ADD41R,0.60000X1.40000*%
%ADD42R,0.60000X1.80000*%
%ADD43R,0.80000X0.80000*%
%ADD44C,1.00000*%
%ADD45R,1.52000X0.44000*%
G36*
X1702500Y2497500D02*
Y2307500D01*
X1637500Y2242500D01*
X1577500D01*
X1512500Y2307500D01*
Y2497500D01*
X1577500Y2562500D01*
X1637500D01*
X1702500Y2497500D01*
D02*
G37*
D10*
X5060000Y2195500D02*
D03*
Y2259500D02*
D03*
Y2325500D02*
D03*
Y2129500D02*
D03*
D11*
X4807500Y2640000D02*
D03*
Y2690000D02*
D03*
X4307500Y2890000D02*
D03*
Y2840000D02*
D03*
Y2790000D02*
D03*
Y2740000D02*
D03*
Y2690000D02*
D03*
Y2640000D02*
D03*
Y2590000D02*
D03*
Y2540000D02*
D03*
X4807500D02*
D03*
Y2590000D02*
D03*
Y2740000D02*
D03*
Y2790000D02*
D03*
Y2840000D02*
D03*
Y2890000D02*
D03*
D12*
X917500Y1050000D02*
D03*
Y1230000D02*
D03*
X677500Y1620000D02*
D03*
Y1440000D02*
D03*
D13*
X1328500Y1035000D02*
D03*
X1136500D02*
D03*
X1232500Y825000D02*
D03*
X1703500Y1022500D02*
D03*
X1511500D02*
D03*
X1607500Y812500D02*
D03*
D14*
X1700140Y1193800D02*
D03*
X1810140D02*
D03*
X4182500Y2662500D02*
D03*
X4072500D02*
D03*
X5135000Y1220000D02*
D03*
X5025000D02*
D03*
X3827500Y1537500D02*
D03*
X3937500D02*
D03*
X3827500Y1437500D02*
D03*
X3937500D02*
D03*
X3216520Y1800860D02*
D03*
X3326520D02*
D03*
X3206360Y1681480D02*
D03*
X3316360D02*
D03*
X1825000Y1427500D02*
D03*
X1715000D02*
D03*
X1825000Y1537500D02*
D03*
X1715000D02*
D03*
X1822500Y1832500D02*
D03*
X1712500D02*
D03*
X1434220Y1193800D02*
D03*
X1324220D02*
D03*
X2222500Y1817501D02*
D03*
X2332500D02*
D03*
X3219060Y1983740D02*
D03*
X3329060D02*
D03*
X3219060Y1892300D02*
D03*
X3329060D02*
D03*
X3206360Y1480820D02*
D03*
X3316360D02*
D03*
X3208900Y1569720D02*
D03*
X3318900D02*
D03*
X4072500Y2867500D02*
D03*
X4182500D02*
D03*
Y2770000D02*
D03*
X4072500D02*
D03*
X4977500Y2790000D02*
D03*
X5087500D02*
D03*
X4072500Y2965000D02*
D03*
X4182500D02*
D03*
D15*
X1199000Y3618800D02*
D03*
X1326000D02*
D03*
X1453000D02*
D03*
X1580000D02*
D03*
X1707000D02*
D03*
X1834000D02*
D03*
X1961000D02*
D03*
Y2911200D02*
D03*
X1834000D02*
D03*
X1707000D02*
D03*
X1580000D02*
D03*
X1453000D02*
D03*
X1326000D02*
D03*
X1199000D02*
D03*
D16*
X711220Y3395180D02*
D03*
Y3345180D02*
D03*
Y3295180D02*
D03*
X878820D02*
D03*
Y3345180D02*
D03*
Y3395180D02*
D03*
D17*
X1135000Y2655000D02*
D03*
Y2590000D02*
D03*
Y2525000D02*
D03*
Y2460000D02*
D03*
X695000D02*
D03*
Y2525000D02*
D03*
Y2590000D02*
D03*
Y2655000D02*
D03*
D18*
X5070000Y2585000D02*
D03*
Y2675000D02*
D03*
X4914760Y3545340D02*
D03*
Y3455340D02*
D03*
X4897500Y795000D02*
D03*
Y885000D02*
D03*
X4502500Y3090000D02*
D03*
Y3180000D02*
D03*
X4382500Y3092500D02*
D03*
Y3182500D02*
D03*
X4405000Y2240000D02*
D03*
Y2330000D02*
D03*
X4890000Y2240000D02*
D03*
Y2330000D02*
D03*
X4792500Y2240000D02*
D03*
Y2330000D02*
D03*
X4695000Y2240000D02*
D03*
Y2330000D02*
D03*
X4597500Y2240000D02*
D03*
Y2330000D02*
D03*
X4500000Y2240000D02*
D03*
Y2330000D02*
D03*
X4052500Y1440000D02*
D03*
Y1530000D02*
D03*
X4995000Y1820000D02*
D03*
Y1730000D02*
D03*
X5013960Y1362160D02*
D03*
Y1452160D02*
D03*
X4717500Y1047500D02*
D03*
Y1137500D02*
D03*
X820000Y1607500D02*
D03*
Y1517500D02*
D03*
X4862500Y3110000D02*
D03*
Y3200000D02*
D03*
X4710000Y2062010D02*
D03*
Y1972011D02*
D03*
X4187500Y2560000D02*
D03*
Y2470000D02*
D03*
X777500Y2880000D02*
D03*
Y2790000D02*
D03*
X2242499Y2142500D02*
D03*
Y2052501D02*
D03*
X2164999Y1620001D02*
D03*
Y1710000D02*
D03*
X2260000Y1620001D02*
D03*
Y1710000D02*
D03*
X2352499Y1620001D02*
D03*
Y1710000D02*
D03*
X2342500Y2142500D02*
D03*
Y2052501D02*
D03*
X3099999Y2390000D02*
D03*
Y2300000D02*
D03*
X3002499Y2390000D02*
D03*
Y2300000D02*
D03*
X2500000Y2385001D02*
D03*
Y2295001D02*
D03*
X2595000Y2385001D02*
D03*
Y2295001D02*
D03*
X3230880Y1240240D02*
D03*
Y1330240D02*
D03*
X3042499Y1315000D02*
D03*
Y1225001D02*
D03*
X4765000Y3200000D02*
D03*
Y3110000D02*
D03*
X4387500Y1047501D02*
D03*
Y1137500D02*
D03*
X5280000Y3075000D02*
D03*
Y2985000D02*
D03*
X4483100Y2051600D02*
D03*
Y1961600D02*
D03*
D19*
X3340000Y1327500D02*
D03*
Y1217500D02*
D03*
X4620000Y3580000D02*
D03*
Y3690000D02*
D03*
X2762500Y3562500D02*
D03*
Y3672500D02*
D03*
X2980000Y3565000D02*
D03*
Y3675000D02*
D03*
X3195000Y3565000D02*
D03*
Y3675000D02*
D03*
X3410000Y3565000D02*
D03*
Y3675000D02*
D03*
X3135000Y1225000D02*
D03*
Y1335000D02*
D03*
X4582160Y1966840D02*
D03*
Y2076840D02*
D03*
D20*
X4615000Y3890000D02*
D03*
Y4040000D02*
D03*
X2764999Y3887500D02*
D03*
Y4037500D02*
D03*
X2980000Y3887500D02*
D03*
Y4037500D02*
D03*
X3192500Y3887500D02*
D03*
Y4037500D02*
D03*
X3407500Y3887500D02*
D03*
Y4037500D02*
D03*
D21*
X5292260Y3452840D02*
D03*
Y3547840D02*
D03*
Y3642840D02*
D03*
X5042260D02*
D03*
Y3452840D02*
D03*
X5275000Y895000D02*
D03*
Y990000D02*
D03*
Y1085000D02*
D03*
X5025000D02*
D03*
Y895000D02*
D03*
D22*
X5134764Y3777848D02*
D03*
X5309764D02*
D03*
X5267504Y1235008D02*
D03*
X5442504D02*
D03*
D23*
X1052500Y2216000D02*
D03*
Y2024000D02*
D03*
X1262500Y2120000D02*
D03*
D24*
X2765000Y3337500D02*
D03*
X2980000Y3335000D02*
D03*
X3190000D02*
D03*
X3402500D02*
D03*
X3555000D02*
D03*
D25*
X4382500Y2465000D02*
D03*
X4432500D02*
D03*
X4482500D02*
D03*
X4532500D02*
D03*
X4582500D02*
D03*
X4632500D02*
D03*
X4682500D02*
D03*
X4732500D02*
D03*
Y2965000D02*
D03*
X4682500D02*
D03*
X4632500D02*
D03*
X4582500D02*
D03*
X4532500D02*
D03*
X4482500D02*
D03*
X4432500D02*
D03*
X4382500D02*
D03*
D26*
X4557500Y2715000D02*
D03*
D27*
X4977500Y1980000D02*
D03*
X5067500D02*
D03*
X4162340Y3058160D02*
D03*
X4072340D02*
D03*
X3960000Y1660000D02*
D03*
X4050000D02*
D03*
X3515000Y1800000D02*
D03*
X3425000D02*
D03*
X3517180Y1676400D02*
D03*
X3427180D02*
D03*
X920000Y1357500D02*
D03*
X830000D02*
D03*
X1746800Y1336040D02*
D03*
X1656800D02*
D03*
X1802500Y1730000D02*
D03*
X1712500D02*
D03*
X1802500Y1630000D02*
D03*
X1712500D02*
D03*
X4388400Y2095500D02*
D03*
X4298400D02*
D03*
X4293320Y1976120D02*
D03*
X4383320D02*
D03*
X2334999Y1925000D02*
D03*
X2245000D02*
D03*
X2405000Y1315000D02*
D03*
X2494999D02*
D03*
X4105000Y1887500D02*
D03*
X4015000D02*
D03*
X4104999Y1985000D02*
D03*
X4015001D02*
D03*
X4105000Y1792500D02*
D03*
X4015000Y1792500D02*
D03*
D28*
X4982500Y2965000D02*
D03*
Y3185000D02*
D03*
X5152500D02*
D03*
Y2965000D02*
D03*
D29*
X5479500Y2380000D02*
D03*
Y2140000D02*
D03*
D30*
X5234500Y2580000D02*
D03*
Y1940000D02*
D03*
D31*
X5212000Y2390000D02*
D03*
Y2325000D02*
D03*
Y2260000D02*
D03*
Y2195000D02*
D03*
Y2130000D02*
D03*
D32*
X3810000Y1807500D02*
D03*
X3640000D02*
D03*
D33*
X3655000Y1447500D02*
D03*
Y1617500D02*
D03*
D34*
X1782500Y430000D02*
D03*
X932500D02*
D03*
X2922500Y422500D02*
D03*
X2072500D02*
D03*
D35*
X1357500Y272500D02*
D03*
X2497500Y265000D02*
D03*
D36*
X1575000Y1867500D02*
D03*
Y1817500D02*
D03*
Y1767500D02*
D03*
Y1717500D02*
D03*
Y1617500D02*
D03*
Y1567500D02*
D03*
Y1517500D02*
D03*
Y1467500D02*
D03*
X1525000Y1817500D02*
D03*
Y1517500D02*
D03*
X1325000Y1717500D02*
D03*
Y1567500D02*
D03*
X1275000Y1717500D02*
D03*
X925000Y1867500D02*
D03*
Y1817500D02*
D03*
Y1767500D02*
D03*
Y1717500D02*
D03*
Y1667500D02*
D03*
Y1617500D02*
D03*
Y1567500D02*
D03*
Y1517500D02*
D03*
Y1467500D02*
D03*
D37*
X4360000Y1255001D02*
D03*
X4410000Y1255000D02*
D03*
X4460000D02*
D03*
X4510000D02*
D03*
X4560000D02*
D03*
X4610000D02*
D03*
X4660000D02*
D03*
X4710000D02*
D03*
X4760000D02*
D03*
X4810000Y1255000D02*
D03*
Y1845000D02*
D03*
X4760000Y1845000D02*
D03*
X4710000D02*
D03*
X4660000D02*
D03*
X4610000D02*
D03*
X4560000D02*
D03*
X4510000D02*
D03*
X4460000D02*
D03*
X4410000D02*
D03*
X4360000Y1845000D02*
D03*
D38*
X4880000Y1325000D02*
D03*
X4880000Y1375000D02*
D03*
Y1425000D02*
D03*
Y1475000D02*
D03*
Y1525001D02*
D03*
Y1575000D02*
D03*
Y1625000D02*
D03*
Y1675000D02*
D03*
Y1725000D02*
D03*
X4880000Y1775000D02*
D03*
X4290000D02*
D03*
X4290000Y1725000D02*
D03*
Y1675000D02*
D03*
Y1625000D02*
D03*
Y1575000D02*
D03*
Y1525001D02*
D03*
Y1475000D02*
D03*
Y1425000D02*
D03*
Y1375000D02*
D03*
X4290000Y1325000D02*
D03*
D39*
X4585000Y1550000D02*
D03*
D40*
X2115000Y2290000D02*
D03*
X1925000D02*
D03*
X2020000Y2050000D02*
D03*
D41*
X1457500Y2132500D02*
D03*
X1757500D02*
D03*
D42*
X1607500Y2152500D02*
D03*
D43*
X2017506Y1857495D02*
D03*
Y1682495D02*
D03*
X2879993Y2302506D02*
D03*
Y2477506D02*
D03*
X2720006Y2474995D02*
D03*
Y2299995D02*
D03*
X5445006Y1072495D02*
D03*
Y897495D02*
D03*
X5452254Y3275345D02*
D03*
Y3450345D02*
D03*
D44*
X2907499Y1155000D02*
D03*
D45*
X2498499Y2010500D02*
D03*
Y1946501D02*
D03*
Y1882500D02*
D03*
Y1818501D02*
D03*
Y1754500D02*
D03*
Y1690501D02*
D03*
Y1626500D02*
D03*
Y1562501D02*
D03*
Y1498500D02*
D03*
Y1434501D02*
D03*
X3041499D02*
D03*
Y1498500D02*
D03*
Y1562501D02*
D03*
Y1626500D02*
D03*
Y1690501D02*
D03*
Y1754500D02*
D03*
Y1818501D02*
D03*
Y1882500D02*
D03*
Y1946501D02*
D03*
Y2010500D02*
D03*
%TF.MD5,6711b210aa6b32df8abd6c8cda1a9735*%
M02*
