%TF.GenerationSoftware,Altium Limited,Altium Designer,19.1.7 (138)*%
G04 Layer_Color=16711935*
%FSLAX45Y45*%
%MOMM*%
%TF.FileFunction,Other,Mechanical_0*%
%TF.Part,Single*%
G01*
G75*
%TA.AperFunction,NonConductor*%
%ADD66C,0.10000*%
G36*
X-20033Y144553D02*
X-20036Y144660D01*
X-20035Y144647D01*
X-20035Y144620D01*
X-20034Y144593D01*
X-20034Y144566D01*
X-20033Y144553D01*
Y144553D01*
D02*
G37*
D66*
X5607839Y-20035D02*
G03*
X5772558Y147500I-2840J167535D01*
G01*
X-20033Y144553D02*
G03*
X150142Y-20038I167533J2947D01*
G01*
D02*
G03*
X150340Y-20035I-2642J167538D01*
G01*
X-20035Y144660D02*
G03*
X-20033Y144553I167535J2840D01*
G01*
X5772535Y4172840D02*
G03*
X5604359Y4337558I-167535J-2840D01*
G01*
X145000Y4338038D02*
G03*
X139939Y4337389I0J-20038D01*
G01*
X-20039Y145000D02*
G03*
X-20033Y144553I20038J0D01*
G01*
X5603749Y-19684D02*
G03*
X5607839Y-20036I3750J19684D01*
G01*
X5604359Y4337558D02*
G03*
X5600000Y4338038I-4359J-19558D01*
G01*
X5772538Y4172500D02*
G03*
X5772535Y4172840I-20038J0D01*
G01*
X5600000Y-20038D02*
G03*
X5603749Y-19684I0J20038D01*
G01*
X139939Y4337389D02*
G03*
X-20038Y4167358I7561J-167389D01*
G01*
X5772558Y147500D02*
G03*
X5772537Y150190I-167559J0D01*
G01*
X-20038Y4130000D02*
Y4167358D01*
X145000Y4338038D02*
X5600000Y4338038D01*
X5604359Y4337558D02*
Y4337558D01*
X5772537Y150190D02*
X5772538Y4172500D01*
X5772535Y4172840D02*
X5772535D01*
X-20039Y145000D02*
X-20038Y4130000D01*
X150142Y-20038D02*
X150340Y-20035D01*
X-20035Y144660D02*
X-20033Y144553D01*
X5607839Y-20036D02*
Y-20035D01*
X150142Y-20038D02*
X5600000Y-20038D01*
%TF.MD5,9d4472846f498e621affb6299bf6ef7e*%
M02*
