%TF.GenerationSoftware,Altium Limited,Altium Designer,19.1.7 (138)*%
G04 Layer_Physical_Order=4*
G04 Layer_Color=16711680*
%FSLAX45Y45*%
%MOMM*%
%TF.FileFunction,Copper,L4,Bot,Signal*%
%TF.Part,Single*%
G01*
G75*
%TA.AperFunction,ConnectorPad*%
%ADD34R,1.60000X4.90000*%
%TA.AperFunction,Conductor*%
%ADD46C,0.20000*%
%ADD48C,0.12000*%
%ADD51C,0.17000*%
%TA.AperFunction,ComponentPad*%
%ADD53C,1.95000*%
%ADD54R,1.42500X1.42500*%
%ADD55C,1.42500*%
%ADD56R,1.65000X1.65000*%
%ADD57C,1.65000*%
%TA.AperFunction,ViaPad*%
%ADD58C,0.35000*%
G36*
X5599993Y4339420D02*
X5601090Y4339359D01*
X5602183Y4339239D01*
X5603267Y4339059D01*
X5603803Y4338940D01*
X5620167Y4339002D01*
X5652301Y4332792D01*
X5682627Y4320483D01*
X5709998Y4302539D01*
X5733379Y4279637D01*
X5751888Y4252645D01*
X5764825Y4222582D01*
X5771701Y4190583D01*
X5771979Y4174222D01*
X5771978Y4174221D01*
X5771979Y4174179D01*
X5771980Y4174094D01*
X5771981Y4173924D01*
X5771981Y151572D01*
X5771986Y151235D01*
X5771994Y150563D01*
X5771999Y149890D01*
X5772002Y149218D01*
Y132558D01*
X5765701Y100524D01*
X5753335Y70308D01*
X5735370Y43048D01*
X5712480Y19768D01*
X5685528Y1343D01*
X5655527Y-11533D01*
X5623604Y-18377D01*
X5606769Y-18662D01*
X5605741Y-18627D01*
X5604716Y-18539D01*
X5603698Y-18398D01*
X5603193Y-18302D01*
X5602729Y-18391D01*
X5601796Y-18523D01*
X5600857Y-18612D01*
X5599915Y-18656D01*
X162482Y-18656D01*
X149783Y-18653D01*
X133103Y-18916D01*
X100670Y-13003D01*
X70012Y-882D01*
X42302Y16980D01*
X18605Y39900D01*
X-172Y66998D01*
X-13308Y97236D01*
X-20300Y129453D01*
X-20589Y145935D01*
X-20595Y158410D01*
X-20595Y4168740D01*
X-20594Y4168740D01*
X-20595Y4168740D01*
X-20850Y4184931D01*
X-15151Y4216810D01*
X-3452Y4247009D01*
X13813Y4274408D01*
X36004Y4297995D01*
X62302Y4316895D01*
X91733Y4330410D01*
X123206Y4338040D01*
X139383Y4338771D01*
X140001Y4338932D01*
X141258Y4339176D01*
X142527Y4339339D01*
X143804Y4339420D01*
X5599993Y4339420D01*
D02*
G37*
%LPC*%
G36*
X1122680Y3657717D02*
X1109999Y3655194D01*
X1099249Y3648011D01*
X1092066Y3637261D01*
X1089543Y3624580D01*
X1092066Y3611899D01*
X1099249Y3601149D01*
X1109999Y3593966D01*
X1122680Y3591443D01*
X1135361Y3593966D01*
X1146111Y3601149D01*
X1153294Y3611899D01*
X1155817Y3624580D01*
X1153294Y3637261D01*
X1146111Y3648011D01*
X1135361Y3655194D01*
X1122680Y3657717D01*
D02*
G37*
G36*
X430000Y3685841D02*
X404547Y3682490D01*
X380829Y3672666D01*
X360462Y3657038D01*
X344834Y3636671D01*
X335009Y3612953D01*
X331659Y3587500D01*
X335009Y3562047D01*
X344834Y3538329D01*
X360462Y3517962D01*
X380829Y3502334D01*
X404547Y3492510D01*
X430000Y3489159D01*
X455452Y3492510D01*
X479170Y3502334D01*
X499538Y3517962D01*
X515166Y3538329D01*
X524990Y3562047D01*
X528341Y3587500D01*
X524990Y3612953D01*
X515166Y3636671D01*
X499538Y3657038D01*
X479170Y3672666D01*
X455452Y3682490D01*
X430000Y3685841D01*
D02*
G37*
G36*
X176000D02*
X150547Y3682490D01*
X126829Y3672666D01*
X106462Y3657038D01*
X90834Y3636671D01*
X81009Y3612953D01*
X77659Y3587500D01*
X81009Y3562047D01*
X90834Y3538329D01*
X106462Y3517962D01*
X126829Y3502334D01*
X150547Y3492510D01*
X176000Y3489159D01*
X201452Y3492510D01*
X225170Y3502334D01*
X245538Y3517962D01*
X261166Y3538329D01*
X270990Y3562047D01*
X274341Y3587500D01*
X270990Y3612953D01*
X261166Y3636671D01*
X245538Y3657038D01*
X225170Y3672666D01*
X201452Y3682490D01*
X176000Y3685841D01*
D02*
G37*
G36*
X4620260Y3553577D02*
X4607579Y3551054D01*
X4596829Y3543871D01*
X4589646Y3533121D01*
X4587123Y3520440D01*
X4589646Y3507759D01*
X4596829Y3497009D01*
X4607579Y3489826D01*
X4620260Y3487303D01*
X4632941Y3489826D01*
X4643691Y3497009D01*
X4650874Y3507759D01*
X4653397Y3520440D01*
X4650874Y3533121D01*
X4643691Y3543871D01*
X4632941Y3551054D01*
X4620260Y3553577D01*
D02*
G37*
G36*
X4848860Y3490077D02*
X4836179Y3487554D01*
X4825429Y3480371D01*
X4818246Y3469621D01*
X4815723Y3456940D01*
X4818246Y3444259D01*
X4825429Y3433509D01*
X4836179Y3426326D01*
X4848860Y3423803D01*
X4861541Y3426326D01*
X4872291Y3433509D01*
X4879474Y3444259D01*
X4881997Y3456940D01*
X4879474Y3469621D01*
X4872291Y3480371D01*
X4861541Y3487554D01*
X4848860Y3490077D01*
D02*
G37*
G36*
X922020Y3378317D02*
X909339Y3375794D01*
X898589Y3368611D01*
X891406Y3357861D01*
X888883Y3345180D01*
X891406Y3332499D01*
X898589Y3321749D01*
X909339Y3314566D01*
X922020Y3312043D01*
X934701Y3314566D01*
X945451Y3321749D01*
X952634Y3332499D01*
X955157Y3345180D01*
X952634Y3357861D01*
X945451Y3368611D01*
X934701Y3375794D01*
X922020Y3378317D01*
D02*
G37*
G36*
X5450840Y3233537D02*
X5438159Y3231014D01*
X5427409Y3223831D01*
X5420226Y3213081D01*
X5417703Y3200400D01*
X5420226Y3187719D01*
X5427409Y3176969D01*
X5438159Y3169786D01*
X5450840Y3167263D01*
X5463521Y3169786D01*
X5474271Y3176969D01*
X5481454Y3187719D01*
X5483977Y3200400D01*
X5481454Y3213081D01*
X5474271Y3223831D01*
X5463521Y3231014D01*
X5450840Y3233537D01*
D02*
G37*
G36*
X1140460Y3220810D02*
X291820D01*
X282065Y3218869D01*
X273796Y3213344D01*
X225133Y3164681D01*
X201452Y3174490D01*
X176000Y3177841D01*
X150547Y3174490D01*
X126829Y3164666D01*
X106462Y3149038D01*
X90834Y3128671D01*
X81009Y3104953D01*
X77659Y3079500D01*
X81009Y3054047D01*
X90834Y3030329D01*
X106462Y3009962D01*
X126829Y2994334D01*
X150547Y2984510D01*
X176000Y2981159D01*
X201452Y2984510D01*
X225170Y2994334D01*
X245538Y3009962D01*
X261166Y3030329D01*
X270990Y3054047D01*
X274341Y3079500D01*
X270990Y3104953D01*
X261181Y3128634D01*
X302378Y3169830D01*
X366697D01*
X371008Y3157130D01*
X360462Y3149038D01*
X344834Y3128671D01*
X335009Y3104953D01*
X331659Y3079500D01*
X335009Y3054047D01*
X344834Y3030329D01*
X360462Y3009962D01*
X380829Y2994334D01*
X404547Y2984510D01*
X430000Y2981159D01*
X455452Y2984510D01*
X479170Y2994334D01*
X499538Y3009962D01*
X515166Y3030329D01*
X524975Y3054010D01*
X915522D01*
X1005750Y2963782D01*
Y2824480D01*
X1007691Y2814725D01*
X1013216Y2806456D01*
X1099576Y2720096D01*
X1107846Y2714571D01*
X1117600Y2712630D01*
X1417436D01*
X1424287Y2699930D01*
X1422283Y2689860D01*
X1424806Y2677179D01*
X1429930Y2669510D01*
Y2644538D01*
X1358656Y2573264D01*
X1353131Y2564995D01*
X1351190Y2555240D01*
Y1981230D01*
X1346066Y1973561D01*
X1343543Y1960880D01*
X1346066Y1948199D01*
X1353249Y1937449D01*
X1363999Y1930266D01*
X1376680Y1927743D01*
X1389361Y1930266D01*
X1400111Y1937449D01*
X1407294Y1948199D01*
X1409817Y1960880D01*
X1407294Y1973561D01*
X1402170Y1981230D01*
Y2544682D01*
X1473444Y2615956D01*
X1478969Y2624225D01*
X1480910Y2633980D01*
Y2669510D01*
X1486034Y2677179D01*
X1488557Y2689860D01*
X1486553Y2699930D01*
X1493404Y2712630D01*
X1676400D01*
X1686155Y2714571D01*
X1694424Y2720096D01*
X1705434Y2731106D01*
X1714481Y2732906D01*
X1725231Y2740089D01*
X1732414Y2750839D01*
X1734937Y2763520D01*
X1732414Y2776201D01*
X1725231Y2786951D01*
X1714481Y2794134D01*
X1701800Y2796657D01*
X1689119Y2794134D01*
X1678369Y2786951D01*
X1671186Y2776201D01*
X1669386Y2767154D01*
X1665842Y2763610D01*
X1128158D01*
X1056730Y2835038D01*
Y2974340D01*
X1054789Y2984095D01*
X1049264Y2992364D01*
X944104Y3097524D01*
X935835Y3103049D01*
X926080Y3104990D01*
X524975D01*
X515166Y3128671D01*
X499538Y3149038D01*
X488991Y3157130D01*
X493303Y3169830D01*
X1129902D01*
X1170850Y3128882D01*
Y3073430D01*
X1165726Y3065761D01*
X1163203Y3053080D01*
X1165726Y3040399D01*
X1172909Y3029649D01*
X1183659Y3022466D01*
X1196340Y3019943D01*
X1209021Y3022466D01*
X1219771Y3029649D01*
X1226954Y3040399D01*
X1229477Y3053080D01*
X1226954Y3065761D01*
X1221830Y3073430D01*
Y3139440D01*
X1219889Y3149195D01*
X1214364Y3157464D01*
X1158484Y3213344D01*
X1150215Y3218869D01*
X1140460Y3220810D01*
D02*
G37*
G36*
X1326000Y3477496D02*
X1313319Y3474974D01*
X1302569Y3467791D01*
X1295386Y3457041D01*
X1292863Y3444360D01*
X1295386Y3431679D01*
X1300510Y3424010D01*
Y3192660D01*
X1302451Y3182905D01*
X1307976Y3174636D01*
X1378976Y3103636D01*
X1387245Y3098111D01*
X1397000Y3096170D01*
X1541382D01*
X1547466Y3090086D01*
X1549266Y3081039D01*
X1556449Y3070289D01*
X1567199Y3063106D01*
X1579880Y3060583D01*
X1592561Y3063106D01*
X1603311Y3070289D01*
X1610494Y3081039D01*
X1613017Y3093720D01*
X1610494Y3106401D01*
X1603311Y3117151D01*
X1592561Y3124334D01*
X1583514Y3126134D01*
X1569964Y3139684D01*
X1561695Y3145209D01*
X1551940Y3147150D01*
X1407558D01*
X1351490Y3203218D01*
Y3424010D01*
X1356614Y3431679D01*
X1359136Y3444360D01*
X1356614Y3457041D01*
X1349431Y3467791D01*
X1338681Y3474974D01*
X1326000Y3477496D01*
D02*
G37*
G36*
X4765040Y3279257D02*
X4752359Y3276734D01*
X4741609Y3269551D01*
X4734426Y3258801D01*
X4731903Y3246120D01*
X4734426Y3233439D01*
X4741609Y3222689D01*
X4751600Y3216013D01*
Y3059333D01*
X4738900Y3049793D01*
X4734560Y3050657D01*
X4721879Y3048134D01*
X4713200Y3042335D01*
X4711834Y3042901D01*
X4704651Y3053651D01*
X4693901Y3060834D01*
X4681220Y3063357D01*
X4668539Y3060834D01*
X4659169Y3054573D01*
X4656391Y3058731D01*
X4645641Y3065914D01*
X4632960Y3068437D01*
X4620279Y3065914D01*
X4609529Y3058731D01*
X4602346Y3047981D01*
X4601177Y3042105D01*
X4591922Y3032850D01*
X4505213D01*
X4496397Y3045550D01*
X4497567Y3051430D01*
X4495044Y3064111D01*
X4487861Y3074861D01*
X4477111Y3082044D01*
X4464430Y3084567D01*
X4451749Y3082044D01*
X4444260Y3077040D01*
X4363437D01*
X4354920Y3089741D01*
X4356217Y3096260D01*
X4353694Y3108941D01*
X4346511Y3119691D01*
X4335761Y3126874D01*
X4323080Y3129397D01*
X4310399Y3126874D01*
X4299649Y3119691D01*
X4292466Y3108941D01*
X4289943Y3096260D01*
X4291240Y3089741D01*
X4282723Y3077040D01*
X4257041D01*
X4257040Y3077041D01*
X4247871Y3075216D01*
X4240097Y3070023D01*
X4163112Y2993037D01*
X4152881Y2999874D01*
X4140200Y3002397D01*
X4127519Y2999874D01*
X4119850Y2994750D01*
X3518298D01*
X3429090Y3083958D01*
Y3218150D01*
X3434214Y3225819D01*
X3436737Y3238500D01*
X3434214Y3251181D01*
X3427031Y3261931D01*
X3416281Y3269114D01*
X3403600Y3271637D01*
X3390919Y3269114D01*
X3380169Y3261931D01*
X3372986Y3251181D01*
X3370463Y3238500D01*
X3372986Y3225819D01*
X3378110Y3218150D01*
Y3073400D01*
X3380051Y3063645D01*
X3385576Y3055376D01*
X3489716Y2951236D01*
X3497986Y2945711D01*
X3507740Y2943770D01*
X4119850D01*
X4127519Y2938646D01*
X4140200Y2936123D01*
X4140949Y2936273D01*
X4153650Y2925850D01*
Y2910175D01*
X4140949Y2900142D01*
X4137660Y2900797D01*
X4124979Y2898274D01*
X4117310Y2893150D01*
X3332878D01*
X3210650Y3015378D01*
Y3215610D01*
X3215774Y3223279D01*
X3218297Y3235960D01*
X3215774Y3248641D01*
X3208591Y3259391D01*
X3197841Y3266574D01*
X3185160Y3269097D01*
X3172479Y3266574D01*
X3161729Y3259391D01*
X3154546Y3248641D01*
X3152023Y3235960D01*
X3154546Y3223279D01*
X3159670Y3215610D01*
Y3004820D01*
X3161611Y2995065D01*
X3167136Y2986796D01*
X3304296Y2849636D01*
X3312566Y2844111D01*
X3322320Y2842170D01*
X4117310D01*
X4124979Y2837046D01*
X4137660Y2834523D01*
X4140949Y2835178D01*
X4152993Y2825664D01*
Y2813136D01*
X4140949Y2803622D01*
X4137660Y2804277D01*
X4124979Y2801754D01*
X4117310Y2796630D01*
X3175398D01*
X3007450Y2964578D01*
Y3220690D01*
X3012574Y3228359D01*
X3015097Y3241040D01*
X3012574Y3253721D01*
X3005391Y3264471D01*
X2994641Y3271654D01*
X2981960Y3274177D01*
X2969279Y3271654D01*
X2958529Y3264471D01*
X2951346Y3253721D01*
X2948823Y3241040D01*
X2951346Y3228359D01*
X2956470Y3220690D01*
Y2954020D01*
X2958411Y2944265D01*
X2963936Y2935996D01*
X3146816Y2753116D01*
X3155085Y2747591D01*
X3164840Y2745650D01*
X4117310D01*
X4124979Y2740526D01*
X4137660Y2738003D01*
X4140949Y2738658D01*
X4153650Y2728625D01*
Y2710410D01*
X4140949Y2699987D01*
X4140200Y2700137D01*
X4127519Y2697614D01*
X4119850Y2692490D01*
X2941718D01*
X2789010Y2845198D01*
Y3215610D01*
X2794134Y3223279D01*
X2796657Y3235960D01*
X2794134Y3248641D01*
X2786951Y3259391D01*
X2776201Y3266574D01*
X2763520Y3269097D01*
X2750839Y3266574D01*
X2740089Y3259391D01*
X2732906Y3248641D01*
X2730383Y3235960D01*
X2732906Y3223279D01*
X2738030Y3215610D01*
Y2834640D01*
X2739971Y2824885D01*
X2745496Y2816616D01*
X2913136Y2648976D01*
X2921405Y2643451D01*
X2931160Y2641510D01*
X4119850D01*
X4127519Y2636386D01*
X4140200Y2633863D01*
X4140949Y2634013D01*
X4153650Y2623590D01*
Y1802377D01*
X4148611Y1794836D01*
X4146088Y1782155D01*
X4148611Y1769474D01*
X4155794Y1758724D01*
X4166544Y1751541D01*
X4179225Y1749019D01*
X4191906Y1751541D01*
X4202656Y1758724D01*
X4209839Y1769474D01*
X4212362Y1782155D01*
X4209839Y1794836D01*
X4202656Y1805586D01*
X4201570Y1806312D01*
Y1948469D01*
X4213303Y1953329D01*
X4239170Y1927462D01*
Y1679338D01*
X4225245Y1665413D01*
X4213541Y1671669D01*
X4213977Y1673860D01*
X4211454Y1686541D01*
X4204271Y1697291D01*
X4193521Y1704474D01*
X4180840Y1706997D01*
X4168159Y1704474D01*
X4157409Y1697291D01*
X4150226Y1686541D01*
X4147703Y1673860D01*
X4148313Y1670799D01*
X4136349Y1665843D01*
X4130611Y1674431D01*
X4119861Y1681614D01*
X4107180Y1684137D01*
X4094499Y1681614D01*
X4083749Y1674431D01*
X4076566Y1663681D01*
X4074043Y1651000D01*
X4076566Y1638319D01*
X4083749Y1627569D01*
X4094499Y1620386D01*
X4107180Y1617863D01*
X4117598Y1619936D01*
X4118517Y1619790D01*
X4125358Y1615737D01*
X4129950Y1611853D01*
Y1557352D01*
X4120920Y1553721D01*
X4117250Y1552952D01*
X4107161Y1559694D01*
X4094480Y1562217D01*
X4081799Y1559694D01*
X4071049Y1552511D01*
X4063866Y1541761D01*
X4061343Y1529080D01*
X4063866Y1516399D01*
X4068990Y1508730D01*
Y1404620D01*
X4070931Y1394865D01*
X4076456Y1386596D01*
X4153206Y1309846D01*
X4161475Y1304321D01*
X4171230Y1302380D01*
X4188227D01*
X4188769Y1301569D01*
X4199519Y1294386D01*
X4212200Y1291864D01*
X4224881Y1294386D01*
X4235631Y1301569D01*
X4242814Y1312319D01*
X4245336Y1325000D01*
X4242814Y1337681D01*
X4235631Y1348431D01*
X4224881Y1355614D01*
X4212200Y1358137D01*
X4199519Y1355614D01*
X4196145Y1353360D01*
X4181788D01*
X4119970Y1415178D01*
Y1464014D01*
X4122080Y1465533D01*
X4137416Y1465336D01*
X4178056Y1424696D01*
X4186325Y1419171D01*
X4196080Y1417230D01*
X4320540D01*
X4330295Y1419171D01*
X4338564Y1424696D01*
X4379204Y1465336D01*
X4384729Y1473605D01*
X4386670Y1483360D01*
Y1842474D01*
X4388780Y1843993D01*
X4404116Y1843796D01*
X4472696Y1775216D01*
X4480966Y1769691D01*
X4490720Y1767750D01*
X4585286D01*
X4625250Y1727786D01*
Y1353820D01*
X4627191Y1344065D01*
X4632716Y1335796D01*
X4660656Y1307856D01*
X4668926Y1302331D01*
X4678680Y1300390D01*
X4919950D01*
X4927619Y1295266D01*
X4940300Y1292743D01*
X4952981Y1295266D01*
X4963731Y1302449D01*
X4970914Y1313199D01*
X4973437Y1325880D01*
X4970914Y1338561D01*
X4964653Y1347931D01*
X4968811Y1350709D01*
X4975994Y1361459D01*
X4978517Y1374140D01*
X4975994Y1386821D01*
X4968811Y1397571D01*
X4958061Y1404754D01*
X4945380Y1407277D01*
X4932699Y1404754D01*
X4925030Y1399630D01*
X4815840D01*
X4806085Y1397689D01*
X4797816Y1392164D01*
X4793642Y1387990D01*
X4762990D01*
Y1792840D01*
X4761049Y1802594D01*
X4755524Y1810864D01*
X4696704Y1869684D01*
X4688435Y1875209D01*
X4678680Y1877150D01*
X4679113Y1889670D01*
X4749770D01*
X4757439Y1884546D01*
X4770120Y1882023D01*
X4782801Y1884546D01*
X4793551Y1891729D01*
X4798650Y1899360D01*
X4811350Y1895708D01*
Y1754460D01*
X4813291Y1744705D01*
X4818816Y1736436D01*
X4922276Y1632976D01*
X4930546Y1627451D01*
X4940300Y1625510D01*
X5069442D01*
X5105310Y1589642D01*
Y1488632D01*
X5092610Y1481844D01*
X5090141Y1483494D01*
X5077460Y1486017D01*
X5064779Y1483494D01*
X5054029Y1476311D01*
X5046846Y1465561D01*
X5044323Y1452880D01*
X5046846Y1440199D01*
X5054029Y1429449D01*
X5064779Y1422266D01*
X5077460Y1419743D01*
X5090141Y1422266D01*
X5092610Y1423916D01*
X5105310Y1417128D01*
Y1386870D01*
X5100186Y1379201D01*
X5097663Y1366520D01*
X5100186Y1353839D01*
X5107369Y1343089D01*
X5118119Y1335906D01*
X5130800Y1333383D01*
X5143481Y1335906D01*
X5154231Y1343089D01*
X5161414Y1353839D01*
X5163937Y1366520D01*
X5161414Y1379201D01*
X5156290Y1386870D01*
Y1600200D01*
X5154349Y1609954D01*
X5148824Y1618224D01*
X5098024Y1669024D01*
X5089755Y1674549D01*
X5080000Y1676490D01*
X4950858D01*
X4862330Y1765018D01*
Y1792047D01*
X4875030Y1801601D01*
X4879340Y1800743D01*
X4892021Y1803266D01*
X4902771Y1810449D01*
X4909954Y1821199D01*
X4912477Y1833880D01*
X4911878Y1836890D01*
X4913261Y1843840D01*
X4913260Y1843841D01*
Y2162177D01*
X4911436Y2171346D01*
X4906243Y2179120D01*
X4887700Y2197662D01*
Y2258420D01*
X4885876Y2267589D01*
X4880682Y2275363D01*
X4799520Y2356525D01*
Y3235600D01*
X4797802Y3244238D01*
X4798177Y3246120D01*
X4795654Y3258801D01*
X4788471Y3269551D01*
X4777721Y3276734D01*
X4765040Y3279257D01*
D02*
G37*
G36*
X1963420Y3490077D02*
X1950739Y3487554D01*
X1939989Y3480371D01*
X1932806Y3469621D01*
X1931006Y3460574D01*
X1881896Y3411464D01*
X1876371Y3403195D01*
X1874430Y3393440D01*
Y2798151D01*
X1861730Y2794298D01*
X1859851Y2797111D01*
X1849101Y2804294D01*
X1836420Y2806817D01*
X1823739Y2804294D01*
X1812989Y2797111D01*
X1805806Y2786361D01*
X1803283Y2773680D01*
X1805806Y2760999D01*
X1810930Y2753330D01*
Y2735978D01*
X1603096Y2528144D01*
X1597571Y2519875D01*
X1595630Y2510120D01*
Y1621606D01*
X1597571Y1611851D01*
X1603096Y1603582D01*
X1625990Y1580688D01*
Y1483870D01*
X1620866Y1476201D01*
X1618343Y1463520D01*
X1620866Y1450839D01*
X1628049Y1440089D01*
X1638799Y1432906D01*
X1651480Y1430383D01*
X1664161Y1432906D01*
X1674911Y1440089D01*
X1682094Y1450839D01*
X1684616Y1463520D01*
X1682094Y1476201D01*
X1676969Y1483870D01*
Y1591246D01*
X1675029Y1601001D01*
X1669504Y1609270D01*
X1646610Y1632164D01*
Y1688815D01*
X1659310Y1695947D01*
X1668780Y1694063D01*
X1681461Y1696586D01*
X1692211Y1703769D01*
X1699394Y1714519D01*
X1701917Y1727200D01*
X1699394Y1739881D01*
X1692211Y1750631D01*
X1681461Y1757814D01*
X1668780Y1760337D01*
X1659310Y1758453D01*
X1646610Y1765585D01*
Y2499562D01*
X1854444Y2707396D01*
X1859969Y2715665D01*
X1861910Y2725420D01*
X1874430Y2724987D01*
Y2601358D01*
X1737116Y2464044D01*
X1731591Y2455775D01*
X1729650Y2446020D01*
Y1557050D01*
X1724526Y1549381D01*
X1722003Y1536700D01*
X1724526Y1524019D01*
X1731709Y1513269D01*
X1742459Y1506086D01*
X1755140Y1503563D01*
X1767821Y1506086D01*
X1778571Y1513269D01*
X1785754Y1524019D01*
X1788277Y1536700D01*
X1785754Y1549381D01*
X1780630Y1557050D01*
Y2435462D01*
X1917944Y2572776D01*
X1923469Y2581046D01*
X1925410Y2590800D01*
Y3382882D01*
X1967054Y3424526D01*
X1976101Y3426326D01*
X1986851Y3433509D01*
X1994034Y3444259D01*
X1996557Y3456940D01*
X1994034Y3469621D01*
X1986851Y3480371D01*
X1976101Y3487554D01*
X1963420Y3490077D01*
D02*
G37*
G36*
X848360Y2811897D02*
X835679Y2809374D01*
X824929Y2802191D01*
X817746Y2791441D01*
X815223Y2778760D01*
X817746Y2766079D01*
X824929Y2755329D01*
X835679Y2748146D01*
X848360Y2745623D01*
X861041Y2748146D01*
X871791Y2755329D01*
X878974Y2766079D01*
X881497Y2778760D01*
X878974Y2791441D01*
X871791Y2802191D01*
X861041Y2809374D01*
X848360Y2811897D01*
D02*
G37*
G36*
X430000Y2923841D02*
X404547Y2920490D01*
X380829Y2910666D01*
X360462Y2895038D01*
X344834Y2874671D01*
X335009Y2850953D01*
X331659Y2825500D01*
X335009Y2800047D01*
X344834Y2776329D01*
X360462Y2755962D01*
X380829Y2740334D01*
X404547Y2730510D01*
X430000Y2727159D01*
X455452Y2730510D01*
X479170Y2740334D01*
X499538Y2755962D01*
X515166Y2776329D01*
X524990Y2800047D01*
X528341Y2825500D01*
X524990Y2850953D01*
X515166Y2874671D01*
X499538Y2895038D01*
X479170Y2910666D01*
X455452Y2920490D01*
X430000Y2923841D01*
D02*
G37*
G36*
X176000D02*
X150547Y2920490D01*
X126829Y2910666D01*
X106462Y2895038D01*
X90834Y2874671D01*
X81009Y2850953D01*
X77659Y2825500D01*
X81009Y2800047D01*
X90834Y2776329D01*
X106462Y2755962D01*
X126829Y2740334D01*
X150547Y2730510D01*
X176000Y2727159D01*
X201452Y2730510D01*
X225170Y2740334D01*
X245538Y2755962D01*
X261166Y2776329D01*
X270990Y2800047D01*
X274341Y2825500D01*
X270990Y2850953D01*
X261166Y2874671D01*
X245538Y2895038D01*
X225170Y2910666D01*
X201452Y2920490D01*
X176000Y2923841D01*
D02*
G37*
G36*
X5013960Y2707757D02*
X5001279Y2705234D01*
X4990529Y2698051D01*
X4983346Y2687301D01*
X4980823Y2674620D01*
X4983346Y2661939D01*
X4990529Y2651189D01*
X5001279Y2644006D01*
X5013960Y2641483D01*
X5026641Y2644006D01*
X5037391Y2651189D01*
X5044574Y2661939D01*
X5047097Y2674620D01*
X5044574Y2687301D01*
X5037391Y2698051D01*
X5026641Y2705234D01*
X5013960Y2707757D01*
D02*
G37*
G36*
X4856480Y2621397D02*
X4843799Y2618874D01*
X4833049Y2611691D01*
X4825866Y2600941D01*
X4823343Y2588260D01*
X4825866Y2575579D01*
X4833049Y2564829D01*
X4843799Y2557646D01*
X4856480Y2555123D01*
X4869161Y2557646D01*
X4879911Y2564829D01*
X4887094Y2575579D01*
X4889617Y2588260D01*
X4887094Y2600941D01*
X4879911Y2611691D01*
X4869161Y2618874D01*
X4856480Y2621397D01*
D02*
G37*
G36*
X430000Y2669841D02*
X404547Y2666490D01*
X380829Y2656666D01*
X360462Y2641038D01*
X344834Y2620671D01*
X335009Y2596953D01*
X331659Y2571500D01*
X335009Y2546047D01*
X344834Y2522329D01*
X360462Y2501962D01*
X380829Y2486334D01*
X404547Y2476510D01*
X430000Y2473159D01*
X455452Y2476510D01*
X479170Y2486334D01*
X499538Y2501962D01*
X515166Y2522329D01*
X524990Y2546047D01*
X528341Y2571500D01*
X524990Y2596953D01*
X515166Y2620671D01*
X499538Y2641038D01*
X479170Y2656666D01*
X455452Y2666490D01*
X430000Y2669841D01*
D02*
G37*
G36*
X176000D02*
X150547Y2666490D01*
X126829Y2656666D01*
X106462Y2641038D01*
X90834Y2620671D01*
X81009Y2596953D01*
X77659Y2571500D01*
X81009Y2546047D01*
X90834Y2522329D01*
X106462Y2501962D01*
X126829Y2486334D01*
X150547Y2476510D01*
X176000Y2473159D01*
X201452Y2476510D01*
X225170Y2486334D01*
X245538Y2501962D01*
X261166Y2522329D01*
X270990Y2546047D01*
X274341Y2571500D01*
X270990Y2596953D01*
X261166Y2620671D01*
X245538Y2641038D01*
X225170Y2656666D01*
X201452Y2666490D01*
X176000Y2669841D01*
D02*
G37*
G36*
X527500Y2415000D02*
X332500D01*
Y2220000D01*
X527500D01*
Y2415000D01*
D02*
G37*
G36*
X176000Y2415841D02*
X150547Y2412490D01*
X126829Y2402666D01*
X106462Y2387038D01*
X90834Y2366671D01*
X81009Y2342953D01*
X77659Y2317500D01*
X81009Y2292047D01*
X90834Y2268329D01*
X106462Y2247962D01*
X126829Y2232334D01*
X150547Y2222510D01*
X176000Y2219159D01*
X201452Y2222510D01*
X225170Y2232334D01*
X245538Y2247962D01*
X261166Y2268329D01*
X270990Y2292047D01*
X274341Y2317500D01*
X270990Y2342953D01*
X261166Y2366671D01*
X245538Y2387038D01*
X225170Y2402666D01*
X201452Y2412490D01*
X176000Y2415841D01*
D02*
G37*
G36*
X4961890Y2495667D02*
X4949209Y2493144D01*
X4938459Y2485961D01*
X4931276Y2475211D01*
X4928753Y2462530D01*
X4931276Y2449849D01*
X4933651Y2446294D01*
X4927932Y2440576D01*
X4923291Y2433629D01*
X4921661Y2425435D01*
Y2250673D01*
X4923291Y2242479D01*
X4927932Y2235532D01*
X4934009Y2229456D01*
X4932010Y2219406D01*
X4934532Y2206726D01*
X4941715Y2195975D01*
X4952466Y2188792D01*
X4965146Y2186270D01*
X4977827Y2188792D01*
X4988577Y2195975D01*
X4995760Y2206726D01*
X4998064Y2218308D01*
X5009647Y2220612D01*
X5020397Y2227795D01*
X5027580Y2238545D01*
X5030103Y2251226D01*
X5027580Y2263907D01*
X5020397Y2274657D01*
X5009647Y2281840D01*
X4996966Y2284363D01*
X4996484Y2284758D01*
Y2398126D01*
X5006391Y2400096D01*
X5017141Y2407279D01*
X5024324Y2418029D01*
X5026846Y2430710D01*
X5024324Y2443391D01*
X5017141Y2454141D01*
X5006391Y2461324D01*
X4994808Y2463628D01*
X4992504Y2475211D01*
X4985321Y2485961D01*
X4974571Y2493144D01*
X4961890Y2495667D01*
D02*
G37*
G36*
X5217160Y2115937D02*
X5204479Y2113414D01*
X5193729Y2106231D01*
X5186546Y2095481D01*
X5184023Y2082800D01*
X5186546Y2070119D01*
X5193729Y2059369D01*
X5204479Y2052186D01*
X5217160Y2049663D01*
X5229841Y2052186D01*
X5240591Y2059369D01*
X5247774Y2070119D01*
X5250297Y2082800D01*
X5247774Y2095481D01*
X5240591Y2106231D01*
X5229841Y2113414D01*
X5217160Y2115937D01*
D02*
G37*
G36*
X4107180Y2072757D02*
X4094499Y2070234D01*
X4083749Y2063051D01*
X4076566Y2052301D01*
X4074043Y2039620D01*
X4076566Y2026939D01*
X4083749Y2016189D01*
X4094499Y2009006D01*
X4107180Y2006483D01*
X4119861Y2009006D01*
X4130611Y2016189D01*
X4137794Y2026939D01*
X4140317Y2039620D01*
X4137794Y2052301D01*
X4130611Y2063051D01*
X4119861Y2070234D01*
X4107180Y2072757D01*
D02*
G37*
G36*
X5064760Y1950837D02*
X5052079Y1948314D01*
X5041329Y1941131D01*
X5034146Y1930381D01*
X5031623Y1917700D01*
X5034146Y1905019D01*
X5041329Y1894269D01*
X5052079Y1887086D01*
X5064760Y1884563D01*
X5077441Y1887086D01*
X5088191Y1894269D01*
X5095374Y1905019D01*
X5097897Y1917700D01*
X5095374Y1930381D01*
X5088191Y1941131D01*
X5077441Y1948314D01*
X5064760Y1950837D01*
D02*
G37*
G36*
X3327400Y1925437D02*
X3314719Y1922914D01*
X3303969Y1915731D01*
X3296786Y1904981D01*
X3294263Y1892300D01*
X3296786Y1879619D01*
X3303969Y1868869D01*
X3314719Y1861686D01*
X3327400Y1859163D01*
X3340081Y1861686D01*
X3350831Y1868869D01*
X3358014Y1879619D01*
X3360537Y1892300D01*
X3358014Y1904981D01*
X3350831Y1915731D01*
X3340081Y1922914D01*
X3327400Y1925437D01*
D02*
G37*
G36*
X416500Y1951994D02*
X393984Y1949030D01*
X373003Y1940339D01*
X354986Y1926514D01*
X341161Y1908497D01*
X332470Y1887516D01*
X329506Y1865000D01*
X332470Y1842484D01*
X341161Y1821503D01*
X354986Y1803486D01*
X373003Y1789661D01*
X393984Y1780970D01*
X416500Y1778006D01*
X439016Y1780970D01*
X459997Y1789661D01*
X478014Y1803486D01*
X491839Y1821503D01*
X500530Y1842484D01*
X503494Y1865000D01*
X500530Y1887516D01*
X491839Y1908497D01*
X478014Y1926514D01*
X459997Y1940339D01*
X439016Y1949030D01*
X416500Y1951994D01*
D02*
G37*
G36*
X5054600Y1765417D02*
X5041919Y1762894D01*
X5031169Y1755711D01*
X5023986Y1744961D01*
X5021463Y1732280D01*
X5023986Y1719599D01*
X5031169Y1708849D01*
X5041919Y1701666D01*
X5054600Y1699143D01*
X5067281Y1701666D01*
X5078031Y1708849D01*
X5085214Y1719599D01*
X5087737Y1732280D01*
X5085214Y1744961D01*
X5078031Y1755711D01*
X5067281Y1762894D01*
X5054600Y1765417D01*
D02*
G37*
G36*
X1356360Y1752717D02*
X1343679Y1750194D01*
X1332929Y1743011D01*
X1325746Y1732261D01*
X1323223Y1719580D01*
X1325746Y1706899D01*
X1332929Y1696149D01*
X1343679Y1688966D01*
X1356360Y1686443D01*
X1369041Y1688966D01*
X1379791Y1696149D01*
X1386974Y1706899D01*
X1389497Y1719580D01*
X1386974Y1732261D01*
X1379791Y1743011D01*
X1369041Y1750194D01*
X1356360Y1752717D01*
D02*
G37*
G36*
X3317630Y1601587D02*
X3304949Y1599064D01*
X3294199Y1591881D01*
X3287016Y1581131D01*
X3284493Y1568450D01*
X3287016Y1555769D01*
X3294199Y1545019D01*
X3304949Y1537836D01*
X3317630Y1535313D01*
X3330311Y1537836D01*
X3341061Y1545019D01*
X3348244Y1555769D01*
X3350766Y1568450D01*
X3348244Y1581131D01*
X3341061Y1591881D01*
X3330311Y1599064D01*
X3317630Y1601587D01*
D02*
G37*
G36*
X416500Y1697994D02*
X393984Y1695030D01*
X373003Y1686339D01*
X354986Y1672514D01*
X341161Y1654497D01*
X332470Y1633516D01*
X329506Y1611000D01*
X332470Y1588484D01*
X341161Y1567503D01*
X354986Y1549486D01*
X373003Y1535661D01*
X393984Y1526970D01*
X416500Y1524006D01*
X439016Y1526970D01*
X459997Y1535661D01*
X478014Y1549486D01*
X491839Y1567503D01*
X500530Y1588484D01*
X503494Y1611000D01*
X500530Y1633516D01*
X491839Y1654497D01*
X478014Y1672514D01*
X459997Y1686339D01*
X439016Y1695030D01*
X416500Y1697994D01*
D02*
G37*
G36*
X162500D02*
X139984Y1695030D01*
X119003Y1686339D01*
X100986Y1672514D01*
X87161Y1654497D01*
X78470Y1633516D01*
X75506Y1611000D01*
X78470Y1588484D01*
X87161Y1567503D01*
X100986Y1549486D01*
X119003Y1535661D01*
X139984Y1526970D01*
X162500Y1524006D01*
X185016Y1526970D01*
X205997Y1535661D01*
X224014Y1549486D01*
X237839Y1567503D01*
X246530Y1588484D01*
X249494Y1611000D01*
X246530Y1633516D01*
X237839Y1654497D01*
X224014Y1672514D01*
X205997Y1686339D01*
X185016Y1695030D01*
X162500Y1697994D01*
D02*
G37*
G36*
X1602740Y1417437D02*
X1590059Y1414914D01*
X1579309Y1407731D01*
X1572126Y1396981D01*
X1569603Y1384300D01*
X1572126Y1371619D01*
X1579309Y1360869D01*
X1590059Y1353686D01*
X1602740Y1351163D01*
X1615421Y1353686D01*
X1626171Y1360869D01*
X1633354Y1371619D01*
X1635877Y1384300D01*
X1633354Y1396981D01*
X1626171Y1407731D01*
X1615421Y1414914D01*
X1602740Y1417437D01*
D02*
G37*
G36*
X2387600Y2580757D02*
X2374919Y2578234D01*
X2364169Y2571051D01*
X2356986Y2560301D01*
X2354463Y2547620D01*
X2356986Y2534939D01*
X2363640Y2524981D01*
Y2369820D01*
X2365464Y2360651D01*
X2370657Y2352877D01*
X2472860Y2250675D01*
Y1397460D01*
X2466206Y1387502D01*
X2463683Y1374821D01*
X2466206Y1362141D01*
X2473389Y1351390D01*
X2484139Y1344207D01*
X2496820Y1341685D01*
X2509501Y1344207D01*
X2520251Y1351390D01*
X2527434Y1362141D01*
X2529957Y1374821D01*
X2527434Y1387502D01*
X2520780Y1397460D01*
Y2260600D01*
X2518956Y2269769D01*
X2513763Y2277543D01*
X2411560Y2379745D01*
Y2524981D01*
X2418214Y2534939D01*
X2420737Y2547620D01*
X2418214Y2560301D01*
X2411031Y2571051D01*
X2400281Y2578234D01*
X2387600Y2580757D01*
D02*
G37*
G36*
X416500Y1443994D02*
X393984Y1441030D01*
X373003Y1432339D01*
X354986Y1418514D01*
X341161Y1400497D01*
X332470Y1379516D01*
X329506Y1357000D01*
X332470Y1334484D01*
X341161Y1313503D01*
X354986Y1295486D01*
X373003Y1281661D01*
X393984Y1272970D01*
X416500Y1270006D01*
X439016Y1272970D01*
X459997Y1281661D01*
X478014Y1295486D01*
X491839Y1313503D01*
X500530Y1334484D01*
X503494Y1357000D01*
X500530Y1379516D01*
X491839Y1400497D01*
X478014Y1418514D01*
X459997Y1432339D01*
X439016Y1441030D01*
X416500Y1443994D01*
D02*
G37*
G36*
X162500D02*
X139984Y1441030D01*
X119003Y1432339D01*
X100986Y1418514D01*
X87161Y1400497D01*
X78470Y1379516D01*
X75506Y1357000D01*
X78470Y1334484D01*
X87161Y1313503D01*
X100986Y1295486D01*
X119003Y1281661D01*
X139984Y1272970D01*
X162500Y1270006D01*
X185016Y1272970D01*
X205997Y1281661D01*
X224014Y1295486D01*
X237839Y1313503D01*
X246530Y1334484D01*
X249494Y1357000D01*
X246530Y1379516D01*
X237839Y1400497D01*
X224014Y1418514D01*
X205997Y1432339D01*
X185016Y1441030D01*
X162500Y1443994D01*
D02*
G37*
G36*
X1648460Y1226937D02*
X1635779Y1224414D01*
X1625821Y1217760D01*
X1456859D01*
X1446901Y1224414D01*
X1434220Y1226937D01*
X1421539Y1224414D01*
X1410789Y1217231D01*
X1403606Y1206481D01*
X1401083Y1193800D01*
X1403606Y1181119D01*
X1410789Y1170369D01*
X1421539Y1163186D01*
X1434220Y1160663D01*
X1446901Y1163186D01*
X1456859Y1169840D01*
X1625821D01*
X1635779Y1163186D01*
X1648460Y1160663D01*
X1661141Y1163186D01*
X1671891Y1170369D01*
X1679074Y1181119D01*
X1681597Y1193800D01*
X1679074Y1206481D01*
X1671891Y1217231D01*
X1661141Y1224414D01*
X1648460Y1226937D01*
D02*
G37*
G36*
X5532120Y1267577D02*
X5519439Y1265054D01*
X5508689Y1257871D01*
X5501506Y1247121D01*
X5498983Y1234440D01*
X5501506Y1221759D01*
X5508689Y1211009D01*
X5519439Y1203826D01*
X5532120Y1201303D01*
X5544801Y1203826D01*
X5555551Y1211009D01*
X5562734Y1221759D01*
X5565257Y1234440D01*
X5562734Y1247121D01*
X5555551Y1257871D01*
X5544801Y1265054D01*
X5532120Y1267577D01*
D02*
G37*
G36*
X4442460Y1168517D02*
X4429779Y1165994D01*
X4419029Y1158811D01*
X4411846Y1148061D01*
X4409323Y1135380D01*
X4411846Y1122699D01*
X4419029Y1111949D01*
X4429779Y1104766D01*
X4442460Y1102243D01*
X4455141Y1104766D01*
X4465891Y1111949D01*
X4473074Y1122699D01*
X4475597Y1135380D01*
X4473074Y1148061D01*
X4465891Y1158811D01*
X4455141Y1165994D01*
X4442460Y1168517D01*
D02*
G37*
G36*
X4658360Y1163437D02*
X4645679Y1160914D01*
X4634929Y1153731D01*
X4627746Y1142981D01*
X4625223Y1130300D01*
X4627746Y1117619D01*
X4634929Y1106869D01*
X4645679Y1099686D01*
X4658360Y1097163D01*
X4671041Y1099686D01*
X4681791Y1106869D01*
X4688974Y1117619D01*
X4691497Y1130300D01*
X4688974Y1142981D01*
X4681791Y1153731D01*
X4671041Y1160914D01*
X4658360Y1163437D01*
D02*
G37*
G36*
X416500Y1189994D02*
X393984Y1187030D01*
X373003Y1178339D01*
X354986Y1164514D01*
X341161Y1146497D01*
X332470Y1125516D01*
X329506Y1103000D01*
X332470Y1080484D01*
X341161Y1059503D01*
X354986Y1041486D01*
X373003Y1027661D01*
X393984Y1018970D01*
X416500Y1016006D01*
X439016Y1018970D01*
X459997Y1027661D01*
X478014Y1041486D01*
X491839Y1059503D01*
X500530Y1080484D01*
X503494Y1103000D01*
X500530Y1125516D01*
X491839Y1146497D01*
X478014Y1164514D01*
X459997Y1178339D01*
X439016Y1187030D01*
X416500Y1189994D01*
D02*
G37*
G36*
X162500D02*
X139984Y1187030D01*
X119003Y1178339D01*
X100986Y1164514D01*
X87161Y1146497D01*
X78470Y1125516D01*
X75506Y1103000D01*
X78470Y1080484D01*
X87161Y1059503D01*
X100986Y1041486D01*
X119003Y1027661D01*
X139984Y1018970D01*
X162500Y1016006D01*
X185016Y1018970D01*
X205997Y1027661D01*
X224014Y1041486D01*
X237839Y1059503D01*
X246530Y1080484D01*
X249494Y1103000D01*
X246530Y1125516D01*
X237839Y1146497D01*
X224014Y1164514D01*
X205997Y1178339D01*
X185016Y1187030D01*
X162500Y1189994D01*
D02*
G37*
G36*
Y935994D02*
X139984Y933030D01*
X119003Y924339D01*
X100986Y910514D01*
X87161Y892497D01*
X78470Y871516D01*
X75506Y849000D01*
X78470Y826484D01*
X87161Y805503D01*
X100986Y787486D01*
X119003Y773661D01*
X139984Y764970D01*
X162500Y762006D01*
X185016Y764970D01*
X205997Y773661D01*
X224014Y787486D01*
X237839Y805503D01*
X246530Y826484D01*
X249494Y849000D01*
X246530Y871516D01*
X237839Y892497D01*
X224014Y910514D01*
X205997Y924339D01*
X185016Y933030D01*
X162500Y935994D01*
D02*
G37*
G36*
X1785000Y720490D02*
X1775246Y718549D01*
X1766976Y713024D01*
X1761451Y704754D01*
X1759510Y695000D01*
Y440592D01*
X1758951Y439755D01*
X1757010Y430000D01*
X1758951Y420246D01*
X1764476Y411976D01*
X1772746Y406451D01*
X1782500Y404510D01*
X1792255Y406451D01*
X1800524Y411976D01*
X1803024Y414476D01*
X1808549Y422746D01*
X1810490Y432500D01*
Y695000D01*
X1808549Y704754D01*
X1803024Y713024D01*
X1794754Y718549D01*
X1785000Y720490D01*
D02*
G37*
G36*
X935000Y725490D02*
X925246Y723549D01*
X916976Y718024D01*
X911451Y709754D01*
X909510Y700000D01*
Y440592D01*
X908950Y439755D01*
X907010Y430000D01*
X908950Y420246D01*
X914476Y411976D01*
X922745Y406451D01*
X932500Y404510D01*
X942254Y406451D01*
X950524Y411976D01*
X953024Y414476D01*
X958549Y422746D01*
X960490Y432500D01*
Y700000D01*
X958549Y709754D01*
X953024Y718024D01*
X944754Y723549D01*
X935000Y725490D01*
D02*
G37*
G36*
X2067500Y720490D02*
X2057746Y718549D01*
X2049476Y713024D01*
X2043951Y704754D01*
X2042010Y695000D01*
Y427500D01*
X2043951Y417745D01*
X2049476Y409476D01*
X2054476Y404476D01*
X2062745Y398951D01*
X2072500Y397011D01*
X2082254Y398951D01*
X2090524Y404476D01*
X2096049Y412746D01*
X2097989Y422500D01*
X2096049Y432255D01*
X2092990Y436833D01*
Y695000D01*
X2091049Y704754D01*
X2085524Y713024D01*
X2077254Y718549D01*
X2067500Y720490D01*
D02*
G37*
G36*
X2922500Y707990D02*
X2912746Y706049D01*
X2904476Y700524D01*
X2898951Y692254D01*
X2897010Y682500D01*
Y422500D01*
X2898951Y412746D01*
X2904476Y404476D01*
X2912746Y398951D01*
X2922500Y397010D01*
X2932254Y398951D01*
X2940524Y404476D01*
X2946049Y412746D01*
X2947990Y422500D01*
Y682500D01*
X2946049Y692254D01*
X2940524Y700524D01*
X2932254Y706049D01*
X2922500Y707990D01*
D02*
G37*
%LPD*%
G36*
X4751600Y2962901D02*
Y2346600D01*
X4753424Y2337431D01*
X4758618Y2329657D01*
X4839779Y2248495D01*
Y2231105D01*
X4828046Y2226245D01*
X4724490Y2329802D01*
Y2357090D01*
X4729614Y2364759D01*
X4732137Y2377440D01*
X4729614Y2390121D01*
X4722431Y2400871D01*
X4711681Y2408054D01*
X4699000Y2410577D01*
X4686319Y2408054D01*
X4675569Y2400871D01*
X4668386Y2390121D01*
X4665863Y2377440D01*
X4668386Y2364759D01*
X4673510Y2357090D01*
Y2319244D01*
X4675451Y2309489D01*
X4680976Y2301220D01*
X4804750Y2177445D01*
Y2036980D01*
X4792050Y2028724D01*
X4787900Y2029550D01*
X4771394D01*
X4592410Y2208534D01*
Y2337066D01*
X4605110Y2344001D01*
X4615000Y2342033D01*
X4627681Y2344556D01*
X4638431Y2351739D01*
X4645614Y2362489D01*
X4648137Y2375170D01*
X4645614Y2387851D01*
X4638431Y2398601D01*
X4627681Y2405784D01*
X4615000Y2408307D01*
X4602319Y2405784D01*
X4591569Y2398601D01*
X4578503Y2401905D01*
X4561234Y2419174D01*
X4559434Y2428221D01*
X4552251Y2438971D01*
X4541501Y2446154D01*
X4528820Y2448677D01*
X4516139Y2446154D01*
X4505389Y2438971D01*
X4499480Y2430128D01*
X4490701Y2435994D01*
X4478020Y2438517D01*
X4465339Y2435994D01*
X4459961Y2432401D01*
X4455731Y2438731D01*
X4444981Y2445914D01*
X4432300Y2448437D01*
X4419619Y2445914D01*
X4410360Y2439727D01*
X4407471Y2444051D01*
X4396721Y2451234D01*
X4384040Y2453757D01*
X4371359Y2451234D01*
X4360609Y2444051D01*
X4353426Y2433301D01*
X4350903Y2420620D01*
X4353426Y2407939D01*
X4358550Y2400270D01*
Y2369182D01*
X4358550Y2359353D01*
X4347192Y2354959D01*
X4345959Y2354714D01*
X4336470Y2348373D01*
X4330644Y2349822D01*
X4323770Y2353270D01*
Y2832302D01*
X4386978Y2895510D01*
X4657057D01*
X4666812Y2897451D01*
X4675081Y2902976D01*
X4739867Y2967761D01*
X4751600Y2962901D01*
D02*
G37*
G36*
X4742812Y1986036D02*
X4751081Y1980511D01*
X4760836Y1978570D01*
X4777342D01*
X4780886Y1975026D01*
X4782686Y1965979D01*
X4789869Y1955229D01*
X4782800Y1945774D01*
X4770120Y1948297D01*
X4757439Y1945774D01*
X4749770Y1940650D01*
X4694955D01*
X4688167Y1953350D01*
X4691514Y1958359D01*
X4694037Y1971040D01*
X4691514Y1983721D01*
X4684331Y1994471D01*
X4673581Y2001654D01*
X4660900Y2004177D01*
X4648219Y2001654D01*
X4637469Y1994471D01*
X4630286Y1983721D01*
X4627763Y1971040D01*
X4630286Y1958359D01*
X4633633Y1953350D01*
X4626845Y1940650D01*
X4557158D01*
X4541610Y1956198D01*
Y2169278D01*
X4554310Y2174539D01*
X4742812Y1986036D01*
D02*
G37*
G36*
X4712010Y1782282D02*
Y1376280D01*
X4713951Y1366525D01*
X4715592Y1364070D01*
X4708803Y1351370D01*
X4689238D01*
X4676230Y1364378D01*
Y1738344D01*
X4674289Y1748099D01*
X4668764Y1756368D01*
X4613868Y1811264D01*
X4610566Y1813470D01*
X4614419Y1826170D01*
X4668122D01*
X4712010Y1782282D01*
D02*
G37*
D34*
X1782500Y430000D02*
D03*
X932500D02*
D03*
X2922500Y422500D02*
D03*
X2072500D02*
D03*
D46*
X4478020Y2405380D02*
X4516120Y2367280D01*
X4528820Y2415540D02*
X4566920Y2377440D01*
X4681220Y2994660D02*
Y3030220D01*
X4432300Y2390140D02*
Y2415300D01*
X3164840Y2771140D02*
X4137660D01*
X4213860Y1988820D02*
Y2948940D01*
X4262500Y2044320D02*
Y2895980D01*
X4298280Y2842860D02*
X4376420Y2921000D01*
X4298280Y2237140D02*
Y2842860D01*
X4213860Y2948940D02*
X4272280Y3007360D01*
X3322320Y2867660D02*
X4137660D01*
X4262500Y2895980D02*
X4328160Y2961640D01*
X3507740Y2969260D02*
X4140200D01*
X4384040Y2359353D02*
Y2420620D01*
X4678680Y1325880D02*
X4940300D01*
X4734560Y2998503D02*
Y3017520D01*
X4657057Y2921000D02*
X4734560Y2998503D01*
X4376420Y2921000D02*
X4657057D01*
X4630420Y3035300D02*
X4632960D01*
X4787900Y2004060D02*
X4813300Y1978660D01*
X4760836Y2004060D02*
X4787900D01*
X4836840Y1942096D02*
X4855800Y1961056D01*
X4836840Y1754460D02*
Y1942096D01*
Y1754460D02*
X4940300Y1651000D01*
X4830240Y2021824D02*
Y2188003D01*
Y2021824D02*
X4855800Y1996264D01*
X4699000Y2319244D02*
X4830240Y2188003D01*
X4855800Y1961056D02*
Y1996264D01*
X4546600Y1915160D02*
X4770120D01*
X4516120Y1945640D02*
X4546600Y1915160D01*
X4516120Y1945640D02*
Y2367280D01*
X4566920Y2197976D02*
X4760836Y2004060D01*
X4566920Y2197976D02*
Y2377440D01*
X2922500Y422500D02*
Y682500D01*
X935000Y432500D02*
Y700000D01*
X932500Y430000D02*
X935000Y432500D01*
X2067500Y427500D02*
Y695000D01*
Y427500D02*
X2072500Y422500D01*
X1785000Y432500D02*
Y695000D01*
X1782500Y430000D02*
X1785000Y432500D01*
X4699000Y2319244D02*
Y2377440D01*
X4155440Y1483360D02*
X4196080Y1442720D01*
X4094480Y1404620D02*
X4171230Y1327870D01*
X4094480Y1404620D02*
Y1529080D01*
X4432300Y2390140D02*
X4465320Y2357120D01*
Y1930400D02*
Y2357120D01*
Y1930400D02*
X4544060Y1851660D01*
X4804200Y1362500D02*
X4815840Y1374140D01*
X4945380D01*
X4751280Y1362500D02*
X4804200D01*
X4737500Y1376280D02*
X4751280Y1362500D01*
X4737500Y1376280D02*
Y1792840D01*
X4678680Y1851660D02*
X4737500Y1792840D01*
X4544060Y1851660D02*
X4678680D01*
X4422140Y1861820D02*
Y2321253D01*
X4384040Y2359353D02*
X4422140Y2321253D01*
Y1861820D02*
X4490720Y1793240D01*
X4650740Y1353820D02*
X4678680Y1325880D01*
X4650740Y1353820D02*
Y1738344D01*
X4595844Y1793240D02*
X4650740Y1738344D01*
X4490720Y1793240D02*
X4595844D01*
X4262500Y2044320D02*
X4320540Y1986280D01*
X4328160Y2961640D02*
X4648200D01*
X4320540Y1442720D02*
X4361180Y1483360D01*
X4196080Y1442720D02*
X4320540D01*
X4298280Y2237140D02*
X4361180Y2174240D01*
X4213860Y1988820D02*
X4264660Y1938020D01*
X4361180Y1483360D02*
Y2174240D01*
X4320540Y1590040D02*
Y1986280D01*
X4302760Y1572260D02*
X4320540Y1590040D01*
X4208780Y1572260D02*
X4302760D01*
X4155440Y1483360D02*
Y1617980D01*
X4177970Y1640510D01*
Y1670990D01*
X4180840Y1673860D01*
X4221480Y1625600D02*
X4264660Y1668780D01*
Y1938020D01*
X4648200Y2961640D02*
X4681220Y2994660D01*
X4272280Y3007360D02*
X4602480D01*
X4630420Y3035300D01*
X5130800Y1366520D02*
Y1600200D01*
X5080000Y1651000D02*
X5130800Y1600200D01*
X4940300Y1651000D02*
X5080000D01*
X1455420Y2633980D02*
Y2689860D01*
X1376680Y2555240D02*
X1455420Y2633980D01*
X1117600Y2738120D02*
X1676400D01*
X1701800Y2763520D01*
X1031240Y2824480D02*
X1117600Y2738120D01*
X926080Y3079500D02*
X1031240Y2974340D01*
Y2824480D02*
Y2974340D01*
X1376680Y1960880D02*
Y2555240D01*
X1621120Y2510120D02*
X1836420Y2725420D01*
X1621120Y1621606D02*
Y2510120D01*
Y1621606D02*
X1651480Y1591246D01*
Y1463520D02*
Y1591246D01*
X4171230Y1327870D02*
X4209330D01*
X4212200Y1325000D01*
X1899920Y3393440D02*
X1963420Y3456940D01*
X1899920Y2590800D02*
Y3393440D01*
X1755140Y2446020D02*
X1899920Y2590800D01*
X1755140Y1536700D02*
Y2446020D01*
X1836420Y2725420D02*
Y2773680D01*
X1196340Y3053080D02*
Y3139440D01*
X1140460Y3195320D02*
X1196340Y3139440D01*
X291820Y3195320D02*
X1140460D01*
X176000Y3079500D02*
X291820Y3195320D01*
X1551940Y3121660D02*
X1579880Y3093720D01*
X1397000Y3121660D02*
X1551940D01*
X1326000Y3192660D02*
X1397000Y3121660D01*
X1326000Y3192660D02*
Y3444360D01*
X430000Y3079500D02*
X926080D01*
X2763520Y2834640D02*
Y3235960D01*
Y2834640D02*
X2931160Y2667000D01*
X4140200D01*
X2981960Y2954020D02*
Y3241040D01*
Y2954020D02*
X3164840Y2771140D01*
X3185160Y3004820D02*
X3322320Y2867660D01*
X3185160Y3004820D02*
Y3235960D01*
X3403600Y3073400D02*
Y3238500D01*
Y3073400D02*
X3507740Y2969260D01*
D48*
X4996966Y2251226D02*
X4996966Y2251226D01*
X4987774Y2251226D02*
X4996966D01*
X4975073Y2263927D02*
X4987774Y2251226D01*
X4975073Y2263927D02*
Y2412181D01*
X4993602Y2430710D02*
X4993710D01*
X4957489Y2458129D02*
X4961890Y2462530D01*
X4975073Y2412181D02*
X4993602Y2430710D01*
X4965146Y2219406D02*
Y2228599D01*
X4957489Y2439852D02*
Y2458129D01*
X4943073Y2250673D02*
X4965146Y2228599D01*
X4943073Y2425435D02*
X4957489Y2439852D01*
X4943073Y2250673D02*
Y2425435D01*
D51*
X4177610Y1783770D02*
Y2973650D01*
X4257040Y3053080D01*
X4765040Y3246120D02*
X4775560Y3235600D01*
Y2346600D02*
Y3235600D01*
Y2346600D02*
X4863740Y2258420D01*
X4889300Y1843840D02*
Y2162177D01*
X4879340Y1833880D02*
X4889300Y1843840D01*
X4863740Y2187737D02*
X4889300Y2162177D01*
X4863740Y2187737D02*
Y2258420D01*
X1434220Y1193800D02*
X1648460D01*
X4177610Y1783770D02*
X4179225Y1782155D01*
X4257040Y3053080D02*
X4462780D01*
X4464430Y3051430D01*
X2496820Y1374821D02*
Y2260600D01*
X2387600Y2369820D02*
X2496820Y2260600D01*
X2387600Y2369820D02*
Y2547620D01*
D53*
X5479500Y2590000D02*
D03*
Y1930000D02*
D03*
D54*
X162500Y1865000D02*
D03*
D55*
X416500D02*
D03*
X162500Y1611000D02*
D03*
X416500D02*
D03*
X162500Y1357000D02*
D03*
X416500D02*
D03*
X162500Y1103000D02*
D03*
X416500D02*
D03*
X162500Y849000D02*
D03*
X416500D02*
D03*
D56*
X430000Y2317500D02*
D03*
D57*
X176000D02*
D03*
X430000Y2571500D02*
D03*
X176000D02*
D03*
X430000Y2825500D02*
D03*
X176000D02*
D03*
X430000Y3079500D02*
D03*
X176000D02*
D03*
X430000Y3333500D02*
D03*
X176000D02*
D03*
X430000Y3587500D02*
D03*
X176000D02*
D03*
D58*
X4478020Y2405380D02*
D03*
X4528820Y2415540D02*
D03*
X4681220Y3030220D02*
D03*
X4432300Y2415300D02*
D03*
X4137660Y2771140D02*
D03*
Y2867660D02*
D03*
X4140200Y2969260D02*
D03*
X4996966Y2251226D02*
D03*
X4993710Y2430710D02*
D03*
X4961890Y2462530D02*
D03*
X4384040Y2420620D02*
D03*
X4211960Y3621140D02*
D03*
X4867280Y3984360D02*
D03*
X5362580Y4022460D02*
D03*
X5692780Y2668640D02*
D03*
X5700400Y3222360D02*
D03*
X5685160Y3753220D02*
D03*
X5601340Y4207880D02*
D03*
X5037460Y4235820D02*
D03*
X4445640Y4243440D02*
D03*
X3990980Y4068180D02*
D03*
X3724280Y3659240D02*
D03*
X3561720Y4220580D02*
D03*
X3005460Y4228200D02*
D03*
X2461900Y4210420D02*
D03*
X2555880Y3278240D02*
D03*
X2566040Y3763380D02*
D03*
X2167260Y3456040D02*
D03*
X1369700Y4187560D02*
D03*
X2152020Y3877680D02*
D03*
X1887860Y4182480D02*
D03*
X1349380Y3936100D02*
D03*
X836300Y4141840D02*
D03*
X762640Y3740520D02*
D03*
X285120Y4012300D02*
D03*
X927740Y2975980D02*
D03*
X655960Y2043800D02*
D03*
X3615060Y3138540D02*
D03*
X5474340Y2887080D02*
D03*
X5390520Y1566280D02*
D03*
X2964820Y895720D02*
D03*
X3582040Y1200520D02*
D03*
X2063120Y1401180D02*
D03*
X2799720Y1533260D02*
D03*
X236860Y334380D02*
D03*
X711840Y387720D02*
D03*
X1550040Y359780D02*
D03*
X1931040Y372480D02*
D03*
X2459360Y1048120D02*
D03*
X5253360Y273420D02*
D03*
X4758060Y451220D02*
D03*
X4399920Y161660D02*
D03*
X4204340Y532500D02*
D03*
X3693800Y232780D02*
D03*
X2969900Y192140D02*
D03*
X3366140Y601080D02*
D03*
X3818260Y890640D02*
D03*
X3797940Y2211440D02*
D03*
X3498220Y2442580D02*
D03*
X2929260Y2996300D02*
D03*
X2408560Y3603360D02*
D03*
X2212980Y3146160D02*
D03*
X2576200Y2904860D02*
D03*
X2286640Y2813420D02*
D03*
X2548260Y2594980D02*
D03*
X4940300Y1325880D02*
D03*
X4734560Y3017520D02*
D03*
X4632960Y3035300D02*
D03*
X4323080Y3096260D02*
D03*
X4358640Y2324100D02*
D03*
X4813300Y1978660D02*
D03*
X4770120Y1915160D02*
D03*
X4660900Y1971040D02*
D03*
X4775000Y2050000D02*
D03*
X1668780Y1727200D02*
D03*
X680000Y1410000D02*
D03*
X1648460Y1193800D02*
D03*
X1434220D02*
D03*
X1602740Y1384300D02*
D03*
X1800860Y1313180D02*
D03*
X4965146Y2219406D02*
D03*
X4904740Y2204720D02*
D03*
X4094480Y1529080D02*
D03*
X4945380Y1374140D02*
D03*
X5077460Y1452880D02*
D03*
X5067300Y1361440D02*
D03*
X4180840Y1673860D02*
D03*
X4107180Y2039620D02*
D03*
X4179225Y1782155D02*
D03*
X4371340Y2237740D02*
D03*
X4589780Y3070860D02*
D03*
X4208780Y1572260D02*
D03*
X4221480Y1625600D02*
D03*
X5130800Y1366520D02*
D03*
X4699000Y2377440D02*
D03*
X4879340Y1833880D02*
D03*
X4765040Y3246120D02*
D03*
X4464430Y3051430D02*
D03*
X4856480Y2588260D02*
D03*
X5013960Y2674620D02*
D03*
X4615000Y2375170D02*
D03*
X2496820Y1374821D02*
D03*
X2387600Y2547620D02*
D03*
X1455420Y2689860D02*
D03*
X4658360Y1130300D02*
D03*
X4442460Y1135380D02*
D03*
X5054600Y1732280D02*
D03*
X4107180Y1651000D02*
D03*
X4224020Y1524000D02*
D03*
X1122680Y3624580D02*
D03*
X922020Y3345180D02*
D03*
X848360Y2778760D02*
D03*
X1525000Y1795000D02*
D03*
X5532120Y1234440D02*
D03*
X5064760Y1917700D02*
D03*
X5217160Y2082800D02*
D03*
X5450840Y3200400D02*
D03*
X4848860Y3456940D02*
D03*
X4620260Y3520440D02*
D03*
X1356360Y1719580D02*
D03*
X1376680Y1960880D02*
D03*
X4494920Y2625000D02*
D03*
X4569920D02*
D03*
X4644920D02*
D03*
Y2700000D02*
D03*
X4569920D02*
D03*
X4494920D02*
D03*
Y2775000D02*
D03*
X4569920D02*
D03*
X4644920D02*
D03*
X4719920D02*
D03*
Y2700000D02*
D03*
Y2625000D02*
D03*
Y2550000D02*
D03*
X4644920D02*
D03*
X4569920D02*
D03*
X4494920D02*
D03*
X4419920D02*
D03*
Y2625000D02*
D03*
Y2700000D02*
D03*
Y2775000D02*
D03*
X4719920Y2850000D02*
D03*
X4644920D02*
D03*
X4569920D02*
D03*
X4494920D02*
D03*
X4419920D02*
D03*
X4212200Y1325000D02*
D03*
X1963420Y3456940D02*
D03*
X1755140Y1536700D02*
D03*
X1836420Y2773680D02*
D03*
X1651480Y1463520D02*
D03*
X1196340Y3053080D02*
D03*
X1579880Y3093720D02*
D03*
X1326000Y3444360D02*
D03*
X1701800Y2763520D02*
D03*
X2763520Y3235960D02*
D03*
X4140200Y2667000D02*
D03*
X2981960Y3241040D02*
D03*
X3185160Y3235960D02*
D03*
X3403600Y3238500D02*
D03*
X3327400Y1892300D02*
D03*
X3317630Y1568450D02*
D03*
X764540Y3345180D02*
D03*
X1960880Y2786380D02*
D03*
X723900Y2880360D02*
D03*
X1231900Y2590800D02*
D03*
X1229360Y2458720D02*
D03*
X3495040Y4041140D02*
D03*
X2677160Y4036060D02*
D03*
X4518660Y4038600D02*
D03*
X5059680Y3776980D02*
D03*
X5196840Y3545840D02*
D03*
X4853940Y3543300D02*
D03*
X5331460Y3075940D02*
D03*
X5237480Y3187700D02*
D03*
X5059680Y2087880D02*
D03*
X5062220Y2367280D02*
D03*
X5237480Y2479040D02*
D03*
X5214620Y2428240D02*
D03*
X5595620Y2138680D02*
D03*
X5593080Y2379980D02*
D03*
X5232400Y2682240D02*
D03*
X5011420Y2588260D02*
D03*
X5085080Y2837180D02*
D03*
X4904740Y2969260D02*
D03*
X4859020Y3241040D02*
D03*
X4559300Y3172460D02*
D03*
X4333240Y3175000D02*
D03*
X4010660Y3060700D02*
D03*
X4071620Y2611120D02*
D03*
X5225000Y1825000D02*
D03*
X4975000Y1925000D02*
D03*
X5050000Y1825000D02*
D03*
X4600000Y1500000D02*
D03*
X4500000D02*
D03*
Y1600000D02*
D03*
X4600000D02*
D03*
X4780080D02*
D03*
Y1500000D02*
D03*
X4600000Y1400000D02*
D03*
X4500000D02*
D03*
X4400000D02*
D03*
X4405080Y1500000D02*
D03*
Y1600000D02*
D03*
X4780080Y1700000D02*
D03*
X4600000D02*
D03*
X4500000D02*
D03*
X4405080D02*
D03*
X5260000Y1307500D02*
D03*
X4965000Y1217500D02*
D03*
X5192500Y987500D02*
D03*
X4895000Y745000D02*
D03*
X4665000Y1047500D02*
D03*
X4325000Y1045000D02*
D03*
X4012500Y2035000D02*
D03*
X4017500Y1745000D02*
D03*
X3907500Y1662500D02*
D03*
X3392500Y1220000D02*
D03*
X2987500Y1225000D02*
D03*
X2922500Y1820000D02*
D03*
X3142500Y2010000D02*
D03*
X3000000Y2432500D02*
D03*
X3100000Y2440000D02*
D03*
X2595000D02*
D03*
X2347500Y1315000D02*
D03*
X2607500Y1497500D02*
D03*
X2615000Y1692500D02*
D03*
X2400000Y2140000D02*
D03*
X2182500D02*
D03*
X2115000Y2365000D02*
D03*
X1917500Y2367500D02*
D03*
X972500Y2212500D02*
D03*
X1052500Y1962500D02*
D03*
X955000Y1867500D02*
D03*
X1547500D02*
D03*
X1500000Y1515000D02*
D03*
X1350000Y1567500D02*
D03*
X1555000Y1717500D02*
D03*
X1820000Y1872500D02*
D03*
X1845000Y1730000D02*
D03*
X1847500Y1627500D02*
D03*
X1822500Y1482500D02*
D03*
X1825000Y1377500D02*
D03*
X2922500Y682500D02*
D03*
X2067500Y695000D02*
D03*
X1785000Y695000D02*
D03*
X935000Y700000D02*
D03*
X915000Y965000D02*
D03*
X952500Y1717500D02*
D03*
X822500Y1470000D02*
D03*
X780000Y1355000D02*
D03*
%TF.MD5,f14ac7e3ce6e1877b10f2816dcd3ec4c*%
M02*
