%TF.GenerationSoftware,Altium Limited,Altium Designer,19.1.7 (138)*%
G04 Layer_Color=8388736*
%FSLAX45Y45*%
%MOMM*%
%TF.FileFunction,Soldermask,Top*%
%TF.Part,Single*%
G01*
G75*
%TA.AperFunction,ConnectorPad*%
%ADD60R,1.80320X5.10320*%
%TA.AperFunction,ComponentPad*%
%ADD61C,2.15320*%
%ADD62R,1.62820X1.62820*%
%ADD63C,1.62820*%
%ADD64R,1.85320X1.85320*%
%ADD65C,1.85320*%
%TA.AperFunction,SMDPad,CuDef*%
%ADD69R,0.80320X0.55320*%
%ADD70R,0.95320X0.50320*%
%ADD71R,1.65320X1.35320*%
%ADD72R,0.85320X1.30320*%
%ADD73R,0.90320X0.80320*%
%ADD74R,0.90320X1.97820*%
%ADD75R,0.67820X0.50320*%
%ADD76R,1.60320X0.65320*%
%ADD77R,0.84320X0.85320*%
%ADD78R,0.80320X0.90320*%
%ADD79R,1.15320X1.10320*%
%ADD80R,1.35320X0.80320*%
%ADD81R,1.00320X1.00320*%
%ADD82R,1.30320X0.85320*%
%ADD83C,1.00320*%
%ADD84R,0.50320X0.95320*%
%ADD85R,4.05320X4.05320*%
%ADD86R,0.85320X0.84320*%
%ADD87R,1.40320X1.60320*%
%ADD88R,2.10320X2.10320*%
%ADD89R,1.60320X1.80320*%
%ADD90R,1.55320X0.60320*%
%ADD91R,1.40320X1.65320*%
%ADD92R,1.65320X1.40320*%
%TA.AperFunction,ConnectorPad*%
%ADD93R,0.90320X2.55320*%
%TA.AperFunction,BGAPad,CuDef*%
%ADD94C,0.40320*%
%TA.AperFunction,SMDPad,CuDef*%
%ADD95R,0.50320X1.05320*%
%ADD96R,1.05320X0.50320*%
%ADD97R,4.45320X4.45320*%
%ADD98R,0.80320X1.05320*%
%ADD99R,0.80320X1.60320*%
%ADD100R,0.80320X2.00320*%
%ADD101R,1.00320X1.00320*%
%ADD102C,1.20320*%
%ADD103R,1.72320X0.64320*%
G36*
X1638829Y2572595D02*
X1640135Y2572335D01*
X1641397Y2571907D01*
X1642591Y2571318D01*
X1643698Y2570578D01*
X1644700Y2569700D01*
X1709700Y2504700D01*
X1710578Y2503699D01*
X1711318Y2502591D01*
X1711907Y2501397D01*
X1712335Y2500135D01*
X1712595Y2498829D01*
X1712682Y2497500D01*
Y2307500D01*
X1712595Y2306171D01*
X1712335Y2304865D01*
X1711907Y2303603D01*
X1711318Y2302409D01*
X1710578Y2301302D01*
X1709700Y2300300D01*
X1644700Y2235301D01*
X1643698Y2234423D01*
X1642591Y2233683D01*
X1641397Y2233093D01*
X1640135Y2232665D01*
X1638829Y2232405D01*
X1637500Y2232318D01*
X1577500D01*
X1576171Y2232405D01*
X1574865Y2232665D01*
X1573603Y2233093D01*
X1572409Y2233683D01*
X1571302Y2234423D01*
X1570300Y2235301D01*
X1505300Y2300300D01*
X1504422Y2301302D01*
X1503682Y2302409D01*
X1503093Y2303603D01*
X1502665Y2304865D01*
X1502405Y2306171D01*
X1502318Y2307500D01*
Y2497500D01*
X1502405Y2498829D01*
X1502665Y2500135D01*
X1503093Y2501397D01*
X1503682Y2502591D01*
X1504422Y2503699D01*
X1505300Y2504700D01*
X1570300Y2569700D01*
X1571302Y2570578D01*
X1572409Y2571318D01*
X1573603Y2571907D01*
X1574865Y2572335D01*
X1576171Y2572595D01*
X1577500Y2572682D01*
X1637500D01*
X1638829Y2572595D01*
D02*
G37*
D60*
X1782500Y430000D02*
D03*
X932500D02*
D03*
X2922500Y422500D02*
D03*
X2072500D02*
D03*
D61*
X5479500Y2590000D02*
D03*
Y1930000D02*
D03*
D62*
X162500Y1865000D02*
D03*
D63*
X416500D02*
D03*
X162500Y1611000D02*
D03*
X416500D02*
D03*
X162500Y1357000D02*
D03*
X416500D02*
D03*
X162500Y1103000D02*
D03*
X416500D02*
D03*
X162500Y849000D02*
D03*
X416500D02*
D03*
D64*
X430000Y2317500D02*
D03*
D65*
X176000D02*
D03*
X430000Y2571500D02*
D03*
X176000D02*
D03*
X430000Y2825500D02*
D03*
X176000D02*
D03*
X430000Y3079500D02*
D03*
X176000D02*
D03*
X430000Y3333500D02*
D03*
X176000D02*
D03*
X430000Y3587500D02*
D03*
X176000D02*
D03*
D69*
X5060000Y2195500D02*
D03*
Y2259500D02*
D03*
Y2325500D02*
D03*
Y2129500D02*
D03*
D70*
X4807500Y2640000D02*
D03*
Y2690000D02*
D03*
X4307500Y2890000D02*
D03*
Y2840000D02*
D03*
Y2790000D02*
D03*
Y2740000D02*
D03*
Y2690000D02*
D03*
Y2640000D02*
D03*
Y2590000D02*
D03*
Y2540000D02*
D03*
X4807500D02*
D03*
Y2590000D02*
D03*
Y2740000D02*
D03*
Y2790000D02*
D03*
Y2840000D02*
D03*
Y2890000D02*
D03*
D71*
X917500Y1050000D02*
D03*
Y1230000D02*
D03*
X677500Y1620000D02*
D03*
Y1440000D02*
D03*
D72*
X1328500Y1035000D02*
D03*
X1136500D02*
D03*
X1232500Y825000D02*
D03*
X1703500Y1022500D02*
D03*
X1511500D02*
D03*
X1607500Y812500D02*
D03*
D73*
X1700140Y1193800D02*
D03*
X1810140D02*
D03*
X4182500Y2662500D02*
D03*
X4072500D02*
D03*
X5135000Y1220000D02*
D03*
X5025000D02*
D03*
X3827500Y1537500D02*
D03*
X3937500D02*
D03*
X3827500Y1437500D02*
D03*
X3937500D02*
D03*
X3216520Y1800860D02*
D03*
X3326520D02*
D03*
X3206360Y1681480D02*
D03*
X3316360D02*
D03*
X1825000Y1427500D02*
D03*
X1715000D02*
D03*
X1825000Y1537500D02*
D03*
X1715000D02*
D03*
X1822500Y1832500D02*
D03*
X1712500D02*
D03*
X1434220Y1193800D02*
D03*
X1324220D02*
D03*
X2222500Y1817501D02*
D03*
X2332500D02*
D03*
X3219060Y1983740D02*
D03*
X3329060D02*
D03*
X3219060Y1892300D02*
D03*
X3329060D02*
D03*
X3206360Y1480820D02*
D03*
X3316360D02*
D03*
X3208900Y1569720D02*
D03*
X3318900D02*
D03*
X4072500Y2867500D02*
D03*
X4182500D02*
D03*
Y2770000D02*
D03*
X4072500D02*
D03*
X4977500Y2790000D02*
D03*
X5087500D02*
D03*
X4072500Y2965000D02*
D03*
X4182500D02*
D03*
D74*
X1199000Y3618800D02*
D03*
X1326000D02*
D03*
X1453000D02*
D03*
X1580000D02*
D03*
X1707000D02*
D03*
X1834000D02*
D03*
X1961000D02*
D03*
Y2911200D02*
D03*
X1834000D02*
D03*
X1707000D02*
D03*
X1580000D02*
D03*
X1453000D02*
D03*
X1326000D02*
D03*
X1199000D02*
D03*
D75*
X711220Y3395180D02*
D03*
Y3345180D02*
D03*
Y3295180D02*
D03*
X878820D02*
D03*
Y3345180D02*
D03*
Y3395180D02*
D03*
D76*
X1135000Y2655000D02*
D03*
Y2590000D02*
D03*
Y2525000D02*
D03*
Y2460000D02*
D03*
X695000D02*
D03*
Y2525000D02*
D03*
Y2590000D02*
D03*
Y2655000D02*
D03*
D77*
X5070000Y2585000D02*
D03*
Y2675000D02*
D03*
X4914760Y3545340D02*
D03*
Y3455340D02*
D03*
X4897500Y795000D02*
D03*
Y885000D02*
D03*
X4502500Y3090000D02*
D03*
Y3180000D02*
D03*
X4382500Y3092500D02*
D03*
Y3182500D02*
D03*
X4405000Y2240000D02*
D03*
Y2330000D02*
D03*
X4890000Y2240000D02*
D03*
Y2330000D02*
D03*
X4792500Y2240000D02*
D03*
Y2330000D02*
D03*
X4695000Y2240000D02*
D03*
Y2330000D02*
D03*
X4597500Y2240000D02*
D03*
Y2330000D02*
D03*
X4500000Y2240000D02*
D03*
Y2330000D02*
D03*
X4052500Y1440000D02*
D03*
Y1530000D02*
D03*
X4995000Y1820000D02*
D03*
Y1730000D02*
D03*
X5013960Y1362160D02*
D03*
Y1452160D02*
D03*
X4717500Y1047500D02*
D03*
Y1137500D02*
D03*
X820000Y1607500D02*
D03*
Y1517500D02*
D03*
X4862500Y3110000D02*
D03*
Y3200000D02*
D03*
X4710000Y2062010D02*
D03*
Y1972011D02*
D03*
X4187500Y2560000D02*
D03*
Y2470000D02*
D03*
X777500Y2880000D02*
D03*
Y2790000D02*
D03*
X2242499Y2142500D02*
D03*
Y2052501D02*
D03*
X2164999Y1620001D02*
D03*
Y1710000D02*
D03*
X2260000Y1620001D02*
D03*
Y1710000D02*
D03*
X2352499Y1620001D02*
D03*
Y1710000D02*
D03*
X2342500Y2142500D02*
D03*
Y2052501D02*
D03*
X3099999Y2390000D02*
D03*
Y2300000D02*
D03*
X3002499Y2390000D02*
D03*
Y2300000D02*
D03*
X2500000Y2385001D02*
D03*
Y2295001D02*
D03*
X2595000Y2385001D02*
D03*
Y2295001D02*
D03*
X3230880Y1240240D02*
D03*
Y1330240D02*
D03*
X3042499Y1315000D02*
D03*
Y1225001D02*
D03*
X4765000Y3200000D02*
D03*
Y3110000D02*
D03*
X4387500Y1047501D02*
D03*
Y1137500D02*
D03*
X5280000Y3075000D02*
D03*
Y2985000D02*
D03*
X4483100Y2051600D02*
D03*
Y1961600D02*
D03*
D78*
X3340000Y1327500D02*
D03*
Y1217500D02*
D03*
X4620000Y3580000D02*
D03*
Y3690000D02*
D03*
X2762500Y3562500D02*
D03*
Y3672500D02*
D03*
X2980000Y3565000D02*
D03*
Y3675000D02*
D03*
X3195000Y3565000D02*
D03*
Y3675000D02*
D03*
X3410000Y3565000D02*
D03*
Y3675000D02*
D03*
X3135000Y1225000D02*
D03*
Y1335000D02*
D03*
X4582160Y1966840D02*
D03*
Y2076840D02*
D03*
D79*
X4615000Y3890000D02*
D03*
Y4040000D02*
D03*
X2764999Y3887500D02*
D03*
Y4037500D02*
D03*
X2980000Y3887500D02*
D03*
Y4037500D02*
D03*
X3192500Y3887500D02*
D03*
Y4037500D02*
D03*
X3407500Y3887500D02*
D03*
Y4037500D02*
D03*
D80*
X5292260Y3452840D02*
D03*
Y3547840D02*
D03*
Y3642840D02*
D03*
X5042260D02*
D03*
Y3452840D02*
D03*
X5275000Y895000D02*
D03*
Y990000D02*
D03*
Y1085000D02*
D03*
X5025000D02*
D03*
Y895000D02*
D03*
D81*
X5134764Y3777848D02*
D03*
X5309764D02*
D03*
X5267504Y1235008D02*
D03*
X5442504D02*
D03*
D82*
X1052500Y2216000D02*
D03*
Y2024000D02*
D03*
X1262500Y2120000D02*
D03*
D83*
X2765000Y3337500D02*
D03*
X2980000Y3335000D02*
D03*
X3190000D02*
D03*
X3402500D02*
D03*
X3555000D02*
D03*
D84*
X4382500Y2465000D02*
D03*
X4432500D02*
D03*
X4482500D02*
D03*
X4532500D02*
D03*
X4582500D02*
D03*
X4632500D02*
D03*
X4682500D02*
D03*
X4732500D02*
D03*
Y2965000D02*
D03*
X4682500D02*
D03*
X4632500D02*
D03*
X4582500D02*
D03*
X4532500D02*
D03*
X4482500D02*
D03*
X4432500D02*
D03*
X4382500D02*
D03*
D85*
X4557500Y2715000D02*
D03*
D86*
X4977500Y1980000D02*
D03*
X5067500D02*
D03*
X4162340Y3058160D02*
D03*
X4072340D02*
D03*
X3960000Y1660000D02*
D03*
X4050000D02*
D03*
X3515000Y1800000D02*
D03*
X3425000D02*
D03*
X3517180Y1676400D02*
D03*
X3427180D02*
D03*
X920000Y1357500D02*
D03*
X830000D02*
D03*
X1746800Y1336040D02*
D03*
X1656800D02*
D03*
X1802500Y1730000D02*
D03*
X1712500D02*
D03*
X1802500Y1630000D02*
D03*
X1712500D02*
D03*
X4388400Y2095500D02*
D03*
X4298400D02*
D03*
X4293320Y1976120D02*
D03*
X4383320D02*
D03*
X2334999Y1925000D02*
D03*
X2245000D02*
D03*
X2405000Y1315000D02*
D03*
X2494999D02*
D03*
X4105000Y1887500D02*
D03*
X4015000D02*
D03*
X4104999Y1985000D02*
D03*
X4015001D02*
D03*
X4105000Y1792500D02*
D03*
X4015000Y1792500D02*
D03*
D87*
X4982500Y2965000D02*
D03*
Y3185000D02*
D03*
X5152500D02*
D03*
Y2965000D02*
D03*
D88*
X5479500Y2380000D02*
D03*
Y2140000D02*
D03*
D89*
X5234500Y2580000D02*
D03*
Y1940000D02*
D03*
D90*
X5212000Y2390000D02*
D03*
Y2325000D02*
D03*
Y2260000D02*
D03*
Y2195000D02*
D03*
Y2130000D02*
D03*
D91*
X3810000Y1807500D02*
D03*
X3640000D02*
D03*
D92*
X3655000Y1447500D02*
D03*
Y1617500D02*
D03*
D93*
X1357500Y272500D02*
D03*
X2497500Y265000D02*
D03*
D94*
X1575000Y1867500D02*
D03*
Y1817500D02*
D03*
Y1767500D02*
D03*
Y1717500D02*
D03*
Y1617500D02*
D03*
Y1567500D02*
D03*
Y1517500D02*
D03*
Y1467500D02*
D03*
X1525000Y1817500D02*
D03*
Y1517500D02*
D03*
X1325000Y1717500D02*
D03*
Y1567500D02*
D03*
X1275000Y1717500D02*
D03*
X925000Y1867500D02*
D03*
Y1817500D02*
D03*
Y1767500D02*
D03*
Y1717500D02*
D03*
Y1667500D02*
D03*
Y1617500D02*
D03*
Y1567500D02*
D03*
Y1517500D02*
D03*
Y1467500D02*
D03*
D95*
X4360000Y1255001D02*
D03*
X4410000Y1255000D02*
D03*
X4460000D02*
D03*
X4510000D02*
D03*
X4560000D02*
D03*
X4610000D02*
D03*
X4660000D02*
D03*
X4710000D02*
D03*
X4760000D02*
D03*
X4810000Y1255000D02*
D03*
Y1845000D02*
D03*
X4760000Y1845000D02*
D03*
X4710000D02*
D03*
X4660000D02*
D03*
X4610000D02*
D03*
X4560000D02*
D03*
X4510000D02*
D03*
X4460000D02*
D03*
X4410000D02*
D03*
X4360000Y1845000D02*
D03*
D96*
X4880000Y1325000D02*
D03*
X4880000Y1375000D02*
D03*
Y1425000D02*
D03*
Y1475000D02*
D03*
Y1525001D02*
D03*
Y1575000D02*
D03*
Y1625000D02*
D03*
Y1675000D02*
D03*
Y1725000D02*
D03*
X4880000Y1775000D02*
D03*
X4290000D02*
D03*
X4290000Y1725000D02*
D03*
Y1675000D02*
D03*
Y1625000D02*
D03*
Y1575000D02*
D03*
Y1525001D02*
D03*
Y1475000D02*
D03*
Y1425000D02*
D03*
Y1375000D02*
D03*
X4290000Y1325000D02*
D03*
D97*
X4585000Y1550000D02*
D03*
D98*
X2115000Y2290000D02*
D03*
X1925000D02*
D03*
X2020000Y2050000D02*
D03*
D99*
X1457500Y2132500D02*
D03*
X1757500D02*
D03*
D100*
X1607500Y2152500D02*
D03*
D101*
X2017506Y1857495D02*
D03*
Y1682495D02*
D03*
X2879993Y2302506D02*
D03*
Y2477506D02*
D03*
X2720006Y2474995D02*
D03*
Y2299995D02*
D03*
X5445006Y1072495D02*
D03*
Y897495D02*
D03*
X5452254Y3275345D02*
D03*
Y3450345D02*
D03*
D102*
X2907499Y1155000D02*
D03*
D103*
X2498499Y2010500D02*
D03*
Y1946501D02*
D03*
Y1882500D02*
D03*
Y1818501D02*
D03*
Y1754500D02*
D03*
Y1690501D02*
D03*
Y1626500D02*
D03*
Y1562501D02*
D03*
Y1498500D02*
D03*
Y1434501D02*
D03*
X3041499D02*
D03*
Y1498500D02*
D03*
Y1562501D02*
D03*
Y1626500D02*
D03*
Y1690501D02*
D03*
Y1754500D02*
D03*
Y1818501D02*
D03*
Y1882500D02*
D03*
Y1946501D02*
D03*
Y2010500D02*
D03*
%TF.MD5,92ffa8652dcf8a0083b119d157bb7031*%
M02*
