M48
;Layer_Color=9474304
;FILE_FORMAT=4:4
METRIC,LZ
T6F00S00C5.0800
%
G90
G05
T06
G00X0041575Y-00025258
M15
G01X0041824Y-00025326
G01X00420882Y-00025066
G01X00425765Y-00024095
G01X00428546Y-00023251
G01X00433146Y-00021346
G01X00435709Y-00019976
G01X00439849Y-0001721
G01X00442095Y-00015366
G01X00445616Y-00011845
G01X0044746Y-00009599
G01X00450226Y-00005459
G01X00451596Y-00002896
G01X00453501Y00001704
G01X00454345Y00004485
G01X00455316Y00009368
G01X00455601Y0001226
G01X00455601Y00015
G01X0045565Y00015
G01X0045565Y0041725
G01X00455508Y0041725
G01X00455576Y0041974
G01X00455316Y00422382
G01X00454345Y00427265
G01X00453501Y00430046
G01X00451596Y00434646
G01X00450226Y00437209
G01X0044746Y00441349
G01X00445616Y00443595
G01X00442095Y00447116
G01X00439849Y0044896
G01X00435709Y00451726
G01X00433146Y00453096
G01X00428546Y00455001
G01X00425765Y00455845
G01X00420882Y00456816
G01X0041799Y00457101
G01X00415249Y00457101
G01X00415249Y00457199
G01X0001201Y00457076
G01X00009368Y00456816
G01X00004485Y00455845
G01X00001704Y00455001
G01X-00002896Y00453096
G01X-00005459Y00451726
G01X-00009599Y0044896
G01X-00011845Y00447116
G01X-00015366Y00443595
G01X-0001721Y00441349
G01X-00019976Y00437209
G01X-00021346Y00434646
G01X-00023251Y00430046
G01X-00024095Y00427265
G01X-00025066Y00422382
G01X-00025351Y0041949
G01X-00025351Y0041675
G01X-000254Y0041675
G01X-000254Y000145
G01X-00025258Y000145
G01X-00025326Y0001201
G01X-00025066Y00009368
G01X-00024095Y00004485
G01X-00023251Y00001704
G01X-00021346Y-00002896
G01X-00019976Y-00005459
G01X-0001721Y-00009599
G01X-00015366Y-00011845
G01X-00011845Y-00015366
G01X-00009599Y-0001721
G01X-00005459Y-00019976
G01X-00002896Y-00021346
G01X00001704Y-00023251
G01X00004485Y-00024095
G01X00009368Y-00025066
G01X0001226Y-00025351
G01X00015Y-00025351
G01X00015Y-000254
G01X0041575Y-000254
G01X0041575Y-00025258
M16
M17
M30
